<?xml version="1.0" encoding="utf-8" standalone="no"?>
<!DOCTYPE svg PUBLIC "-//W3C//DTD SVG 1.1//EN"
  "http://www.w3.org/Graphics/SVG/1.1/DTD/svg11.dtd">
<svg height="190.75258pt" version="1.1" viewBox="0 0 890.741518 190.75258" width="890.741518pt" xmlns="http://www.w3.org/2000/svg" xmlns:xlink="http://www.w3.org/1999/xlink">
 <metadata>
  <rdf:RDF xmlns:cc="http://creativecommons.org/ns#" xmlns:dc="http://purl.org/dc/elements/1.1/" xmlns:rdf="http://www.w3.org/1999/02/22-rdf-syntax-ns#">
   <cc:Work>
    <dc:type rdf:resource="http://purl.org/dc/dcmitype/StillImage"/>
    <dc:date>2024-10-30T11:59:19.464519</dc:date>
    <dc:format>image/svg+xml</dc:format>
    <dc:creator>
     <cc:Agent>
      <dc:title>Matplotlib v3.4.3, https://matplotlib.org/</dc:title>
     </cc:Agent>
    </dc:creator>
   </cc:Work>
  </rdf:RDF>
 </metadata>
 <defs>
  <style type="text/css">*{stroke-linecap:butt;stroke-linejoin:round;}</style>
 </defs>
 <g id="figure_1">
  <g id="patch_1">
   <path d="M 0 190.75258 
L 890.741518 190.75258 
L 890.741518 0 
L 0 0 
z
" style="fill:none;"/>
  </g>
  <g id="axes_1">
   <g id="patch_2">
    <path d="M 46.541518 162.383515 
L 292.717989 162.383515 
L 292.717989 26.483515 
L 46.541518 26.483515 
z
" style="fill:#ffffff;"/>
   </g>
   <g id="matplotlib.axis_1">
    <g id="xtick_1">
     <g id="line2d_1">
      <path clip-path="url(#pf36eaa47f3)" d="M 57.731358 162.383515 
L 57.731358 26.483515 
" style="fill:none;stroke:#b0b0b0;stroke-linecap:square;stroke-width:0.8;"/>
     </g>
     <g id="line2d_2">
      <defs>
       <path d="M 0 0 
L 0 3.5 
" id="m05f81e8cfc" style="stroke:#000000;stroke-width:0.8;"/>
      </defs>
      <g>
       <use style="stroke:#000000;stroke-width:0.8;" x="57.731358" xlink:href="#m05f81e8cfc" y="162.383515"/>
      </g>
     </g>
     <g id="text_1">
      <!-- $\mathdefault{0}$ -->
      <g transform="translate(53.829364 180.453103)scale(0.16 -0.16)">
       <defs>
        <path d="M 2688 2038 
C 2688 2430 2682 3099 2413 3613 
C 2176 4063 1798 4224 1466 4224 
C 1158 4224 768 4082 525 3620 
C 269 3137 243 2539 243 2038 
C 243 1671 250 1112 448 623 
C 723 -39 1216 -128 1466 -128 
C 1760 -128 2208 -7 2470 604 
C 2662 1048 2688 1568 2688 2038 
z
M 1466 -26 
C 1056 -26 813 328 723 816 
C 653 1196 653 1749 653 2109 
C 653 2604 653 3015 736 3407 
C 858 3954 1216 4121 1466 4121 
C 1728 4121 2067 3947 2189 3420 
C 2272 3054 2278 2623 2278 2109 
C 2278 1691 2278 1176 2202 797 
C 2067 96 1690 -26 1466 -26 
z
" id="CMR17-30" transform="scale(0.015625)"/>
       </defs>
       <use transform="scale(0.996264)" xlink:href="#CMR17-30"/>
      </g>
     </g>
    </g>
    <g id="xtick_2">
     <g id="line2d_3">
      <path clip-path="url(#pf36eaa47f3)" d="M 114.032438 162.383515 
L 114.032438 26.483515 
" style="fill:none;stroke:#b0b0b0;stroke-linecap:square;stroke-width:0.8;"/>
     </g>
     <g id="line2d_4">
      <g>
       <use style="stroke:#000000;stroke-width:0.8;" x="114.032438" xlink:href="#m05f81e8cfc" y="162.383515"/>
      </g>
     </g>
     <g id="text_2">
      <!-- $\mathdefault{2}$ -->
      <g transform="translate(110.130444 180.453103)scale(0.16 -0.16)">
       <defs>
        <path d="M 2669 990 
L 2554 990 
C 2490 537 2438 460 2413 422 
C 2381 371 1920 371 1830 371 
L 602 371 
C 832 620 1280 1073 1824 1596 
C 2214 1966 2669 2400 2669 3033 
C 2669 3788 2067 4224 1395 4224 
C 691 4224 262 3603 262 3027 
C 262 2777 448 2745 525 2745 
C 589 2745 781 2783 781 3007 
C 781 3206 614 3264 525 3264 
C 486 3264 448 3257 422 3244 
C 544 3788 915 4057 1306 4057 
C 1862 4057 2227 3616 2227 3033 
C 2227 2477 1901 1998 1536 1583 
L 262 147 
L 262 0 
L 2515 0 
L 2669 990 
z
" id="CMR17-32" transform="scale(0.015625)"/>
       </defs>
       <use transform="scale(0.996264)" xlink:href="#CMR17-32"/>
      </g>
     </g>
    </g>
    <g id="xtick_3">
     <g id="line2d_5">
      <path clip-path="url(#pf36eaa47f3)" d="M 170.333517 162.383515 
L 170.333517 26.483515 
" style="fill:none;stroke:#b0b0b0;stroke-linecap:square;stroke-width:0.8;"/>
     </g>
     <g id="line2d_6">
      <g>
       <use style="stroke:#000000;stroke-width:0.8;" x="170.333517" xlink:href="#m05f81e8cfc" y="162.383515"/>
      </g>
     </g>
     <g id="text_3">
      <!-- $\mathdefault{4}$ -->
      <g transform="translate(166.431524 180.453103)scale(0.16 -0.16)">
       <defs>
        <path d="M 2150 4147 
C 2150 4281 2144 4288 2029 4288 
L 128 1254 
L 128 1088 
L 1779 1088 
L 1779 460 
C 1779 230 1766 166 1318 166 
L 1197 166 
L 1197 0 
C 1402 12 1747 12 1965 12 
C 2182 12 2528 12 2733 0 
L 2733 166 
L 2611 166 
C 2163 166 2150 230 2150 460 
L 2150 1088 
L 2803 1088 
L 2803 1254 
L 2150 1254 
L 2150 4147 
z
M 1798 3723 
L 1798 1254 
L 256 1254 
L 1798 3723 
z
" id="CMR17-34" transform="scale(0.015625)"/>
       </defs>
       <use transform="scale(0.996264)" xlink:href="#CMR17-34"/>
      </g>
     </g>
    </g>
    <g id="xtick_4">
     <g id="line2d_7">
      <path clip-path="url(#pf36eaa47f3)" d="M 226.634597 162.383515 
L 226.634597 26.483515 
" style="fill:none;stroke:#b0b0b0;stroke-linecap:square;stroke-width:0.8;"/>
     </g>
     <g id="line2d_8">
      <g>
       <use style="stroke:#000000;stroke-width:0.8;" x="226.634597" xlink:href="#m05f81e8cfc" y="162.383515"/>
      </g>
     </g>
     <g id="text_4">
      <!-- $\mathdefault{6}$ -->
      <g transform="translate(222.732603 180.453103)scale(0.16 -0.16)">
       <defs>
        <path d="M 678 2198 
C 678 3712 1395 4076 1811 4076 
C 1946 4076 2272 4049 2400 3782 
C 2298 3782 2106 3782 2106 3558 
C 2106 3385 2246 3328 2336 3328 
C 2394 3328 2566 3353 2566 3571 
C 2566 3987 2246 4224 1805 4224 
C 1043 4224 243 3411 243 2011 
C 243 257 966 -128 1478 -128 
C 2099 -128 2688 431 2688 1295 
C 2688 2101 2170 2688 1517 2688 
C 1126 2688 838 2430 678 1979 
L 678 2198 
z
M 1478 25 
C 691 25 691 1212 691 1450 
C 691 1914 909 2585 1504 2585 
C 1613 2585 1926 2585 2138 2140 
C 2253 1889 2253 1624 2253 1302 
C 2253 954 2253 696 2118 438 
C 1978 173 1773 25 1478 25 
z
" id="CMR17-36" transform="scale(0.015625)"/>
       </defs>
       <use transform="scale(0.996264)" xlink:href="#CMR17-36"/>
      </g>
     </g>
    </g>
    <g id="xtick_5">
     <g id="line2d_9">
      <path clip-path="url(#pf36eaa47f3)" d="M 282.935676 162.383515 
L 282.935676 26.483515 
" style="fill:none;stroke:#b0b0b0;stroke-linecap:square;stroke-width:0.8;"/>
     </g>
     <g id="line2d_10">
      <g>
       <use style="stroke:#000000;stroke-width:0.8;" x="282.935676" xlink:href="#m05f81e8cfc" y="162.383515"/>
      </g>
     </g>
     <g id="text_5">
      <!-- $\mathdefault{8}$ -->
      <g transform="translate(279.033683 180.453103)scale(0.16 -0.16)">
       <defs>
        <path d="M 1741 2289 
C 2144 2494 2554 2803 2554 3298 
C 2554 3884 1990 4224 1472 4224 
C 890 4224 378 3800 378 3215 
C 378 3054 416 2777 666 2533 
C 730 2469 998 2276 1171 2154 
C 883 2006 211 1652 211 945 
C 211 282 838 -128 1459 -128 
C 2144 -128 2720 366 2720 1022 
C 2720 1607 2330 1877 2074 2051 
L 1741 2289 
z
M 902 2855 
C 851 2887 595 3086 595 3388 
C 595 3781 998 4076 1459 4076 
C 1965 4076 2336 3716 2336 3298 
C 2336 2700 1670 2359 1638 2359 
C 1632 2359 1626 2359 1574 2398 
L 902 2855 
z
M 2080 1536 
C 2176 1466 2483 1253 2483 861 
C 2483 385 2010 25 1472 25 
C 890 25 448 443 448 951 
C 448 1459 838 1884 1280 2083 
L 2080 1536 
z
" id="CMR17-38" transform="scale(0.015625)"/>
       </defs>
       <use transform="scale(0.996264)" xlink:href="#CMR17-38"/>
      </g>
     </g>
    </g>
   </g>
   <g id="matplotlib.axis_2">
    <g id="ytick_1">
     <g id="line2d_11">
      <path clip-path="url(#pf36eaa47f3)" d="M 46.541518 139.733515 
L 292.717989 139.733515 
" style="fill:none;stroke:#b0b0b0;stroke-linecap:square;stroke-width:0.8;"/>
     </g>
     <g id="line2d_12">
      <defs>
       <path d="M 0 0 
L -3.5 0 
" id="m1916c78191" style="stroke:#000000;stroke-width:0.8;"/>
      </defs>
      <g>
       <use style="stroke:#000000;stroke-width:0.8;" x="46.541518" xlink:href="#m1916c78191" y="139.733515"/>
      </g>
     </g>
     <g id="text_6">
      <!-- $\mathdefault{−0.1}$ -->
      <g transform="translate(7.2 145.268309)scale(0.16 -0.16)">
       <defs>
        <path d="M 4218 1472 
C 4326 1472 4442 1472 4442 1600 
C 4442 1728 4326 1728 4218 1728 
L 755 1728 
C 646 1728 531 1728 531 1600 
C 531 1472 646 1472 755 1472 
L 4218 1472 
z
" id="CMSY10-0" transform="scale(0.015625)"/>
        <path d="M 1178 307 
C 1178 492 1024 620 870 620 
C 685 620 557 467 557 313 
C 557 128 710 0 864 0 
C 1050 0 1178 153 1178 307 
z
" id="CMMI12-3a" transform="scale(0.015625)"/>
        <path d="M 1702 4083 
C 1702 4217 1696 4224 1606 4224 
C 1357 3927 979 3833 621 3820 
C 602 3820 570 3820 563 3808 
C 557 3795 557 3782 557 3648 
C 755 3648 1088 3686 1344 3839 
L 1344 467 
C 1344 243 1331 166 781 166 
L 589 166 
L 589 0 
C 896 6 1216 12 1523 12 
C 1830 12 2150 6 2458 0 
L 2458 166 
L 2266 166 
C 1715 166 1702 236 1702 467 
L 1702 4083 
z
" id="CMR17-31" transform="scale(0.015625)"/>
       </defs>
       <use transform="scale(0.996264)" xlink:href="#CMSY10-0"/>
       <use transform="translate(77.487468 0)scale(0.996264)" xlink:href="#CMR17-30"/>
       <use transform="translate(123.177945 0)scale(0.996264)" xlink:href="#CMMI12-3a"/>
       <use transform="translate(150.275122 0)scale(0.996264)" xlink:href="#CMR17-31"/>
      </g>
     </g>
    </g>
    <g id="ytick_2">
     <g id="line2d_13">
      <path clip-path="url(#pf36eaa47f3)" d="M 46.541518 94.433515 
L 292.717989 94.433515 
" style="fill:none;stroke:#b0b0b0;stroke-linecap:square;stroke-width:0.8;"/>
     </g>
     <g id="line2d_14">
      <g>
       <use style="stroke:#000000;stroke-width:0.8;" x="46.541518" xlink:href="#m1916c78191" y="94.433515"/>
      </g>
     </g>
     <g id="text_7">
      <!-- $\mathdefault{0.0}$ -->
      <g transform="translate(19.597996 99.968309)scale(0.16 -0.16)">
       <use transform="scale(0.996264)" xlink:href="#CMR17-30"/>
       <use transform="translate(45.690477 0)scale(0.996264)" xlink:href="#CMMI12-3a"/>
       <use transform="translate(72.787654 0)scale(0.996264)" xlink:href="#CMR17-30"/>
      </g>
     </g>
    </g>
    <g id="ytick_3">
     <g id="line2d_15">
      <path clip-path="url(#pf36eaa47f3)" d="M 46.541518 49.133515 
L 292.717989 49.133515 
" style="fill:none;stroke:#b0b0b0;stroke-linecap:square;stroke-width:0.8;"/>
     </g>
     <g id="line2d_16">
      <g>
       <use style="stroke:#000000;stroke-width:0.8;" x="46.541518" xlink:href="#m1916c78191" y="49.133515"/>
      </g>
     </g>
     <g id="text_8">
      <!-- $\mathdefault{0.1}$ -->
      <g transform="translate(19.597996 54.668309)scale(0.16 -0.16)">
       <use transform="scale(0.996264)" xlink:href="#CMR17-30"/>
       <use transform="translate(45.690477 0)scale(0.996264)" xlink:href="#CMMI12-3a"/>
       <use transform="translate(72.787654 0)scale(0.996264)" xlink:href="#CMR17-31"/>
      </g>
     </g>
    </g>
   </g>
   <g id="line2d_17">
    <path clip-path="url(#pf36eaa47f3)" d="M 57.731358 70.280936 
L 59.138885 70.443703 
L 60.546412 26.805573 
L 61.953939 77.360137 
L 63.361466 80.824425 
L 64.768993 126.737778 
L 66.17652 116.647728 
L 67.584047 55.309933 
L 68.991574 66.808034 
L 70.399101 74.581359 
L 73.214155 143.440878 
L 74.621682 100.686966 
L 76.029209 120.450471 
L 77.436736 106.733742 
L 78.844263 98.224724 
L 80.25179 170.650043 
L 81.659317 108.287213 
L 83.066844 122.193451 
L 84.474371 147.549643 
L 85.881898 105.82517 
L 87.289425 95.564662 
L 88.696952 95.307995 
L 90.104479 112.736145 
L 91.512006 105.66984 
L 92.919533 141.44916 
L 94.32706 111.142538 
L 95.734587 158.258906 
L 97.142114 111.453341 
L 98.549641 80.310044 
L 99.957168 87.184505 
L 101.364695 68.49879 
L 102.772222 102.128667 
L 104.179749 67.784083 
L 105.587276 70.979958 
L 106.994803 65.505223 
L 108.40233 56.241401 
L 109.809857 80.714671 
L 111.217384 88.430485 
L 112.624911 80.032471 
L 114.032438 129.742136 
L 115.439965 130.988693 
L 116.847492 126.151835 
L 118.255019 91.212128 
L 119.662546 138.342689 
L 121.070073 111.935391 
L 122.4776 105.599968 
L 123.885126 106.301041 
L 125.292653 150.266555 
L 126.70018 117.066704 
L 128.107707 70.602894 
L 129.515234 138.687309 
L 130.922761 91.526885 
L 132.330288 96.549738 
L 133.737815 74.756975 
L 135.145342 88.058175 
L 136.552869 91.084951 
L 137.960396 62.825833 
L 139.367923 76.775644 
L 140.77545 42.953582 
L 142.182977 131.546137 
L 143.590504 101.238415 
L 144.998031 53.600522 
L 146.405558 101.503144 
L 147.813085 65.693578 
L 149.220612 125.710529 
L 150.628139 93.200924 
L 152.035666 68.002704 
L 153.443193 84.931779 
L 154.85072 111.822624 
L 156.258247 152.935204 
L 157.665774 128.537983 
L 159.073301 99.186732 
L 160.480828 122.38112 
L 161.888355 119.275714 
L 163.295882 110.982238 
L 164.703409 124.913674 
L 166.110936 129.864345 
L 167.518463 145.137495 
L 168.92599 134.251107 
L 170.333517 109.215497 
L 171.741044 67.981348 
L 173.148571 55.088245 
L 174.556098 106.506087 
L 175.963625 92.290113 
L 177.371152 62.115665 
L 180.186206 102.64598 
L 181.593733 62.13579 
L 183.00126 71.365032 
L 184.408787 127.046589 
L 185.816314 119.307753 
L 187.223841 117.383386 
L 188.631368 131.391049 
L 190.038895 136.262813 
L 191.446422 119.033278 
L 192.853949 147.031987 
L 194.261476 116.601383 
L 195.669003 104.342072 
L 197.07653 119.692717 
L 198.484057 94.262849 
L 199.891584 80.412204 
L 201.299111 108.460954 
L 202.706638 160.043595 
L 204.114165 127.315654 
L 205.521692 138.73996 
L 206.929219 119.37264 
L 208.336746 90.898393 
L 209.744273 138.539381 
L 211.1518 104.300776 
L 212.559327 52.942748 
L 213.966854 79.905287 
L 215.374381 77.102166 
L 216.781908 91.099968 
L 218.189435 49.137682 
L 219.596962 103.224823 
L 221.004489 113.272179 
L 222.412016 110.704721 
L 223.819543 83.940407 
L 225.22707 125.001054 
L 226.634597 59.885818 
L 228.042124 77.228859 
L 229.449651 24.439104 
L 230.857178 90.260536 
L 232.264705 94.928427 
L 233.672232 83.391149 
L 235.079759 28.434131 
L 236.487286 119.196245 
L 237.894813 82.651717 
L 239.30234 79.029304 
L 240.709867 116.944411 
L 242.117394 96.158704 
L 243.524921 115.623841 
L 244.932448 105.97189 
L 246.339975 121.454059 
L 247.747502 112.869279 
L 249.155029 87.895431 
L 250.562556 79.739686 
L 251.970083 121.70936 
L 253.37761 154.672824 
L 254.785137 89.640829 
L 256.192664 94.418195 
L 257.600191 136.494495 
L 259.007718 78.872753 
L 260.415245 88.850013 
L 261.822772 130.298152 
L 263.230299 102.167958 
L 264.637826 119.428872 
L 266.045353 73.338049 
L 267.452879 165.116652 
L 268.860406 100.654828 
L 270.267933 45.15061 
L 271.67546 22.736875 
L 273.082987 77.105313 
L 274.490514 84.187623 
L 275.898041 56.162823 
L 277.305568 70.833267 
L 278.713095 50.332312 
L 280.120622 55.202618 
L 281.528149 71.778603 
L 281.528149 71.778603 
" style="fill:none;stroke:#1f77b4;stroke-linecap:square;stroke-width:1.5;"/>
   </g>
   <g id="patch_3">
    <path d="M 46.541518 162.383515 
L 46.541518 26.483515 
" style="fill:none;stroke:#000000;stroke-linecap:square;stroke-linejoin:miter;stroke-width:0.8;"/>
   </g>
   <g id="patch_4">
    <path d="M 292.717989 162.383515 
L 292.717989 26.483515 
" style="fill:none;stroke:#000000;stroke-linecap:square;stroke-linejoin:miter;stroke-width:0.8;"/>
   </g>
   <g id="patch_5">
    <path d="M 46.541518 162.383515 
L 292.717989 162.383515 
" style="fill:none;stroke:#000000;stroke-linecap:square;stroke-linejoin:miter;stroke-width:0.8;"/>
   </g>
   <g id="patch_6">
    <path d="M 46.541518 26.483515 
L 292.717989 26.483515 
" style="fill:none;stroke:#000000;stroke-linecap:square;stroke-linejoin:miter;stroke-width:0.8;"/>
   </g>
   <g id="text_9">
    <!-- 1 -->
    <g transform="translate(67.904634 143.718571)scale(0.16 -0.16)">
     <defs>
      <path d="M 1818 4288 
L 1696 4288 
C 1350 3949 947 3902 538 3891 
L 538 3520 
C 723 3526 1024 3539 1325 3673 
L 1325 371 
L 570 371 
L 570 0 
L 2573 0 
L 2573 371 
L 1818 371 
L 1818 4288 
z
" id="CMSS17-31" transform="scale(0.015625)"/>
     </defs>
     <use transform="scale(0.996264)" xlink:href="#CMSS17-31"/>
    </g>
   </g>
   <g id="text_10">
    <!-- 0 -->
    <g transform="translate(96.055174 143.718571)scale(0.16 -0.16)">
     <defs>
      <path d="M 2758 2073 
C 2758 2439 2752 3120 2490 3647 
C 2227 4153 1805 4288 1504 4288 
C 1069 4288 698 4031 506 3621 
C 301 3191 243 2748 243 2073 
C 243 1611 262 1046 493 551 
C 755 6 1197 -128 1498 -128 
C 1894 -128 2278 83 2496 525 
C 2720 988 2758 1495 2758 2073 
z
M 1498 262 
C 1011 262 864 821 819 1007 
C 742 1328 730 1636 730 2144 
C 730 2542 730 2992 851 3345 
C 998 3756 1254 3897 1498 3897 
C 1971 3897 2125 3422 2176 3255 
C 2272 2915 2272 2516 2272 2144 
C 2272 1546 2272 262 1498 262 
z
" id="CMSS17-30" transform="scale(0.015625)"/>
     </defs>
     <use transform="scale(0.996264)" xlink:href="#CMSS17-30"/>
    </g>
   </g>
   <g id="text_11">
    <!-- 0 -->
    <g transform="translate(124.205714 143.718571)scale(0.16 -0.16)">
     <use transform="scale(0.996264)" xlink:href="#CMSS17-30"/>
    </g>
   </g>
   <g id="text_12">
    <!-- 1 -->
    <g transform="translate(152.356254 143.718571)scale(0.16 -0.16)">
     <use transform="scale(0.996264)" xlink:href="#CMSS17-31"/>
    </g>
   </g>
   <g id="text_13">
    <!-- 1 -->
    <g transform="translate(180.506794 143.718571)scale(0.16 -0.16)">
     <use transform="scale(0.996264)" xlink:href="#CMSS17-31"/>
    </g>
   </g>
   <g id="text_14">
    <!-- 0 -->
    <g transform="translate(208.657333 143.718571)scale(0.16 -0.16)">
     <use transform="scale(0.996264)" xlink:href="#CMSS17-30"/>
    </g>
   </g>
   <g id="text_15">
    <!-- 1 -->
    <g transform="translate(236.807873 143.718571)scale(0.16 -0.16)">
     <use transform="scale(0.996264)" xlink:href="#CMSS17-31"/>
    </g>
   </g>
   <g id="text_16">
    <!-- 0 -->
    <g transform="translate(264.958413 143.718571)scale(0.16 -0.16)">
     <use transform="scale(0.996264)" xlink:href="#CMSS17-30"/>
    </g>
   </g>
   <g id="text_17">
    <!-- $y$ -->
    <g transform="translate(165.063594 20.483515)scale(0.192 -0.192)">
     <defs>
      <path d="M 1683 -673 
C 1510 -921 1261 -1152 947 -1152 
C 870 -1152 563 -1139 467 -826 
C 486 -833 518 -833 531 -833 
C 723 -833 851 -666 851 -519 
C 851 -372 730 -320 634 -320 
C 531 -320 307 -397 307 -711 
C 307 -1050 582 -1280 947 -1280 
C 1587 -1280 2234 -673 2413 -7 
L 3040 2483 
C 3046 2515 3059 2553 3059 2591 
C 3059 2687 2982 2752 2886 2752 
C 2829 2752 2694 2726 2643 2534 
L 2170 657 
C 2138 542 2138 530 2086 459 
C 1958 281 1747 64 1440 64 
C 1082 64 1050 415 1050 587 
C 1050 951 1222 1443 1395 1902 
C 1466 2087 1504 2177 1504 2305 
C 1504 2573 1312 2816 998 2816 
C 410 2816 173 1890 173 1838 
C 173 1813 198 1781 243 1781 
C 301 1781 307 1807 333 1896 
C 486 2432 730 2687 979 2687 
C 1037 2687 1146 2687 1146 2477 
C 1146 2311 1075 2126 979 1883 
C 666 1047 666 836 666 683 
C 666 76 1101 -64 1421 -64 
C 1606 -64 1837 -7 2061 230 
L 2067 223 
C 1971 -141 1907 -359 1683 -673 
z
" id="CMMI12-79" transform="scale(0.015625)"/>
     </defs>
     <use transform="scale(0.996264)" xlink:href="#CMMI12-79"/>
    </g>
   </g>
  </g>
  <g id="axes_2">
   <g id="patch_7">
    <path d="M 341.953283 162.383515 
L 588.129754 162.383515 
L 588.129754 26.483515 
L 341.953283 26.483515 
z
" style="fill:#ffffff;"/>
   </g>
   <g id="matplotlib.axis_3">
    <g id="xtick_6">
     <g id="line2d_18">
      <path clip-path="url(#pe54b6a831e)" d="M 353.143123 162.383515 
L 353.143123 26.483515 
" style="fill:none;stroke:#b0b0b0;stroke-linecap:square;stroke-width:0.8;"/>
     </g>
     <g id="line2d_19">
      <g>
       <use style="stroke:#000000;stroke-width:0.8;" x="353.143123" xlink:href="#m05f81e8cfc" y="162.383515"/>
      </g>
     </g>
     <g id="text_18">
      <!-- $\mathdefault{0}$ -->
      <g transform="translate(349.241129 180.453103)scale(0.16 -0.16)">
       <use transform="scale(0.996264)" xlink:href="#CMR17-30"/>
      </g>
     </g>
    </g>
    <g id="xtick_7">
     <g id="line2d_20">
      <path clip-path="url(#pe54b6a831e)" d="M 409.444202 162.383515 
L 409.444202 26.483515 
" style="fill:none;stroke:#b0b0b0;stroke-linecap:square;stroke-width:0.8;"/>
     </g>
     <g id="line2d_21">
      <g>
       <use style="stroke:#000000;stroke-width:0.8;" x="409.444202" xlink:href="#m05f81e8cfc" y="162.383515"/>
      </g>
     </g>
     <g id="text_19">
      <!-- $\mathdefault{2}$ -->
      <g transform="translate(405.542209 180.453103)scale(0.16 -0.16)">
       <use transform="scale(0.996264)" xlink:href="#CMR17-32"/>
      </g>
     </g>
    </g>
    <g id="xtick_8">
     <g id="line2d_22">
      <path clip-path="url(#pe54b6a831e)" d="M 465.745282 162.383515 
L 465.745282 26.483515 
" style="fill:none;stroke:#b0b0b0;stroke-linecap:square;stroke-width:0.8;"/>
     </g>
     <g id="line2d_23">
      <g>
       <use style="stroke:#000000;stroke-width:0.8;" x="465.745282" xlink:href="#m05f81e8cfc" y="162.383515"/>
      </g>
     </g>
     <g id="text_20">
      <!-- $\mathdefault{4}$ -->
      <g transform="translate(461.843288 180.453103)scale(0.16 -0.16)">
       <use transform="scale(0.996264)" xlink:href="#CMR17-34"/>
      </g>
     </g>
    </g>
    <g id="xtick_9">
     <g id="line2d_24">
      <path clip-path="url(#pe54b6a831e)" d="M 522.046361 162.383515 
L 522.046361 26.483515 
" style="fill:none;stroke:#b0b0b0;stroke-linecap:square;stroke-width:0.8;"/>
     </g>
     <g id="line2d_25">
      <g>
       <use style="stroke:#000000;stroke-width:0.8;" x="522.046361" xlink:href="#m05f81e8cfc" y="162.383515"/>
      </g>
     </g>
     <g id="text_21">
      <!-- $\mathdefault{6}$ -->
      <g transform="translate(518.144368 180.453103)scale(0.16 -0.16)">
       <use transform="scale(0.996264)" xlink:href="#CMR17-36"/>
      </g>
     </g>
    </g>
    <g id="xtick_10">
     <g id="line2d_26">
      <path clip-path="url(#pe54b6a831e)" d="M 578.347441 162.383515 
L 578.347441 26.483515 
" style="fill:none;stroke:#b0b0b0;stroke-linecap:square;stroke-width:0.8;"/>
     </g>
     <g id="line2d_27">
      <g>
       <use style="stroke:#000000;stroke-width:0.8;" x="578.347441" xlink:href="#m05f81e8cfc" y="162.383515"/>
      </g>
     </g>
     <g id="text_22">
      <!-- $\mathdefault{8}$ -->
      <g transform="translate(574.445448 180.453103)scale(0.16 -0.16)">
       <use transform="scale(0.996264)" xlink:href="#CMR17-38"/>
      </g>
     </g>
    </g>
   </g>
   <g id="matplotlib.axis_4">
    <g id="ytick_4">
     <g id="line2d_28">
      <path clip-path="url(#pe54b6a831e)" d="M 341.953283 139.733515 
L 588.129754 139.733515 
" style="fill:none;stroke:#b0b0b0;stroke-linecap:square;stroke-width:0.8;"/>
     </g>
     <g id="line2d_29">
      <g>
       <use style="stroke:#000000;stroke-width:0.8;" x="341.953283" xlink:href="#m1916c78191" y="139.733515"/>
      </g>
     </g>
     <g id="text_23">
      <!-- $\mathdefault{−0.1}$ -->
      <g transform="translate(302.611765 145.268309)scale(0.16 -0.16)">
       <use transform="scale(0.996264)" xlink:href="#CMSY10-0"/>
       <use transform="translate(77.487468 0)scale(0.996264)" xlink:href="#CMR17-30"/>
       <use transform="translate(123.177945 0)scale(0.996264)" xlink:href="#CMMI12-3a"/>
       <use transform="translate(150.275122 0)scale(0.996264)" xlink:href="#CMR17-31"/>
      </g>
     </g>
    </g>
    <g id="ytick_5">
     <g id="line2d_30">
      <path clip-path="url(#pe54b6a831e)" d="M 341.953283 94.433515 
L 588.129754 94.433515 
" style="fill:none;stroke:#b0b0b0;stroke-linecap:square;stroke-width:0.8;"/>
     </g>
     <g id="line2d_31">
      <g>
       <use style="stroke:#000000;stroke-width:0.8;" x="341.953283" xlink:href="#m1916c78191" y="94.433515"/>
      </g>
     </g>
     <g id="text_24">
      <!-- $\mathdefault{0.0}$ -->
      <g transform="translate(315.009761 99.968309)scale(0.16 -0.16)">
       <use transform="scale(0.996264)" xlink:href="#CMR17-30"/>
       <use transform="translate(45.690477 0)scale(0.996264)" xlink:href="#CMMI12-3a"/>
       <use transform="translate(72.787654 0)scale(0.996264)" xlink:href="#CMR17-30"/>
      </g>
     </g>
    </g>
    <g id="ytick_6">
     <g id="line2d_32">
      <path clip-path="url(#pe54b6a831e)" d="M 341.953283 49.133515 
L 588.129754 49.133515 
" style="fill:none;stroke:#b0b0b0;stroke-linecap:square;stroke-width:0.8;"/>
     </g>
     <g id="line2d_33">
      <g>
       <use style="stroke:#000000;stroke-width:0.8;" x="341.953283" xlink:href="#m1916c78191" y="49.133515"/>
      </g>
     </g>
     <g id="text_25">
      <!-- $\mathdefault{0.1}$ -->
      <g transform="translate(315.009761 54.668309)scale(0.16 -0.16)">
       <use transform="scale(0.996264)" xlink:href="#CMR17-30"/>
       <use transform="translate(45.690477 0)scale(0.996264)" xlink:href="#CMMI12-3a"/>
       <use transform="translate(72.787654 0)scale(0.996264)" xlink:href="#CMR17-31"/>
      </g>
     </g>
    </g>
   </g>
   <g id="line2d_34">
    <path clip-path="url(#pe54b6a831e)" d="M 353.143123 103.360292 
L 354.55065 100.154215 
L 355.958177 95.304865 
L 357.365704 88.229399 
L 358.773231 85.221213 
L 360.180758 83.245293 
L 361.588285 86.286159 
L 362.995812 84.696753 
L 364.403339 80.09171 
L 365.810866 75.941165 
L 367.218393 71.300143 
L 368.62592 73.519829 
L 370.033447 79.563498 
L 371.440974 83.526517 
L 372.848501 86.06675 
L 374.256028 87.415411 
L 375.663554 83.828536 
L 377.071081 89.504027 
L 378.478608 89.654306 
L 379.886135 92.960583 
L 381.293662 99.970977 
L 382.701189 100.681773 
L 384.108716 99.641256 
L 385.516243 99.031274 
L 388.331297 102.57446 
L 389.738824 108.532878 
L 391.146351 108.30256 
L 392.553878 114.678356 
L 393.961405 115.292494 
L 395.368932 111.944392 
L 396.776459 108.884478 
L 398.183986 104.406689 
L 399.591513 103.546564 
L 400.99904 100.127559 
L 402.406567 95.024928 
L 403.814094 88.906223 
L 406.629148 78.536707 
L 408.036675 74.293761 
L 409.444202 72.428171 
L 410.851729 77.513014 
L 413.666783 83.184985 
L 415.07431 84.089506 
L 416.481837 90.636929 
L 417.889364 94.152298 
L 420.704418 100.799056 
L 422.111945 107.565405 
L 423.519472 113.122773 
L 424.926999 107.118648 
L 426.334526 109.376024 
L 427.742053 109.541095 
L 429.14958 109.560305 
L 430.557107 106.834189 
L 431.964634 103.757711 
L 433.372161 102.926161 
L 434.779688 100.493557 
L 436.187215 96.411205 
L 437.594742 89.262097 
L 439.002269 91.239805 
L 440.409796 88.002382 
L 441.817323 83.826754 
L 443.22485 83.030525 
L 444.632377 79.898248 
L 446.039904 82.517281 
L 447.447431 81.037442 
L 450.262485 75.600724 
L 451.670012 77.922752 
L 453.077539 81.178191 
L 455.892593 90.055236 
L 457.30012 91.892886 
L 458.707647 95.921273 
L 460.115174 97.628187 
L 461.522701 101.362777 
L 462.930228 105.816778 
L 464.337755 112.977149 
L 465.745282 117.242877 
L 467.152809 114.165337 
L 469.967863 103.251503 
L 471.37539 101.213504 
L 472.782917 97.665588 
L 475.597971 86.972558 
L 477.005498 84.91387 
L 478.413025 78.653471 
L 479.820552 73.092783 
L 481.228079 75.623524 
L 482.635606 80.134622 
L 484.043133 83.695501 
L 485.45066 83.507122 
L 486.858187 86.153115 
L 488.265714 88.013661 
L 489.673241 92.651497 
L 491.080768 94.634416 
L 492.488295 95.034865 
L 493.895822 98.220846 
L 495.303349 98.647664 
L 496.710876 96.728233 
L 498.118403 97.85005 
L 499.52593 102.729859 
L 500.933457 106.1914 
L 502.340984 108.952491 
L 503.748511 107.874546 
L 505.156038 105.59908 
L 506.563565 110.038894 
L 507.971092 108.234284 
L 509.378619 105.821125 
L 510.786146 105.929601 
L 512.193673 106.994814 
L 513.6012 103.589604 
L 515.008727 97.391169 
L 516.416254 96.607095 
L 517.823781 100.543975 
L 519.231308 101.109715 
L 520.638834 98.444201 
L 522.046361 101.777802 
L 523.453888 99.272026 
L 524.861415 98.191713 
L 526.268942 90.999323 
L 527.676469 90.171783 
L 529.083996 91.135039 
L 530.491523 88.669449 
L 531.89905 81.454481 
L 533.306577 83.851886 
L 534.714104 81.834569 
L 536.121631 75.753805 
L 537.529158 79.971914 
L 538.936685 81.005432 
L 540.344212 84.521136 
L 541.751739 86.66166 
L 543.159266 89.618144 
L 544.566793 90.220607 
L 545.97432 92.480046 
L 547.381847 88.522759 
L 548.789374 92.894206 
L 550.196901 96.154191 
L 551.604428 94.238312 
L 553.011955 96.614666 
L 554.419482 103.346079 
L 557.234536 100.682412 
L 558.642063 105.260622 
L 560.04959 107.540983 
L 561.457117 112.98027 
L 562.864644 111.468476 
L 564.272171 116.65757 
L 565.679698 117.519336 
L 567.087225 112.591811 
L 568.494752 103.319098 
L 569.902279 102.364316 
L 571.309806 101.618902 
L 572.717333 95.998601 
L 574.12486 93.251854 
L 575.532387 87.591966 
L 576.939914 84.723649 
L 576.939914 84.723649 
" style="fill:none;stroke:#ff7f0e;stroke-linecap:square;stroke-width:1.5;"/>
   </g>
   <g id="patch_8">
    <path d="M 341.953283 162.383515 
L 341.953283 26.483515 
" style="fill:none;stroke:#000000;stroke-linecap:square;stroke-linejoin:miter;stroke-width:0.8;"/>
   </g>
   <g id="patch_9">
    <path d="M 588.129754 162.383515 
L 588.129754 26.483515 
" style="fill:none;stroke:#000000;stroke-linecap:square;stroke-linejoin:miter;stroke-width:0.8;"/>
   </g>
   <g id="patch_10">
    <path d="M 341.953283 162.383515 
L 588.129754 162.383515 
" style="fill:none;stroke:#000000;stroke-linecap:square;stroke-linejoin:miter;stroke-width:0.8;"/>
   </g>
   <g id="patch_11">
    <path d="M 341.953283 26.483515 
L 588.129754 26.483515 
" style="fill:none;stroke:#000000;stroke-linecap:square;stroke-linejoin:miter;stroke-width:0.8;"/>
   </g>
   <g id="text_26">
    <!-- $z$ -->
    <g transform="translate(460.691209 20.483515)scale(0.192 -0.192)">
     <defs>
      <path d="M 813 486 
C 1088 809 1312 1015 1632 1313 
C 2016 1657 2182 1822 2272 1922 
C 2720 2371 2944 2713 2944 2764 
C 2944 2816 2893 2816 2880 2816 
C 2835 2816 2822 2790 2790 2745 
C 2630 2470 2477 2368 2310 2368 
C 2176 2368 2106 2403 1984 2547 
C 1850 2707 1741 2816 1555 2816 
C 1088 2816 806 2265 806 2127 
C 806 2107 813 2067 870 2067 
C 922 2067 928 2094 947 2140 
C 1056 2387 1363 2415 1485 2415 
C 1619 2415 1747 2387 1882 2342 
C 2125 2239 2227 2239 2291 2239 
C 2336 2239 2362 2239 2394 2246 
C 2182 1988 1837 1670 1549 1399 
L 902 783 
C 512 380 275 32 275 -13 
C 275 -52 307 -64 346 -64 
C 384 -64 390 -58 435 19 
C 538 179 742 384 979 384 
C 1114 384 1178 356 1306 211 
C 1427 70 1536 -64 1741 -64 
C 2368 -64 2726 723 2726 876 
C 2726 902 2720 942 2656 942 
C 2605 942 2598 915 2579 849 
C 2438 460 2061 336 1811 336 
C 1677 336 1549 364 1414 409 
C 1158 512 1088 512 1005 512 
C 941 512 870 512 813 486 
z
" id="CMMI12-7a" transform="scale(0.015625)"/>
     </defs>
     <use transform="scale(0.996264)" xlink:href="#CMMI12-7a"/>
    </g>
   </g>
  </g>
  <g id="axes_3">
   <g id="patch_12">
    <path d="M 637.365048 162.383515 
L 883.541518 162.383515 
L 883.541518 26.483515 
L 637.365048 26.483515 
z
" style="fill:#ffffff;"/>
   </g>
   <g id="matplotlib.axis_5">
    <g id="xtick_11">
     <g id="line2d_35">
      <path clip-path="url(#pd072f9e570)" d="M 648.554887 162.383515 
L 648.554887 26.483515 
" style="fill:none;stroke:#b0b0b0;stroke-linecap:square;stroke-width:0.8;"/>
     </g>
     <g id="line2d_36">
      <g>
       <use style="stroke:#000000;stroke-width:0.8;" x="648.554887" xlink:href="#m05f81e8cfc" y="162.383515"/>
      </g>
     </g>
     <g id="text_27">
      <!-- $\mathdefault{0}$ -->
      <g transform="translate(644.652894 180.453103)scale(0.16 -0.16)">
       <use transform="scale(0.996264)" xlink:href="#CMR17-30"/>
      </g>
     </g>
    </g>
    <g id="xtick_12">
     <g id="line2d_37">
      <path clip-path="url(#pd072f9e570)" d="M 704.855967 162.383515 
L 704.855967 26.483515 
" style="fill:none;stroke:#b0b0b0;stroke-linecap:square;stroke-width:0.8;"/>
     </g>
     <g id="line2d_38">
      <g>
       <use style="stroke:#000000;stroke-width:0.8;" x="704.855967" xlink:href="#m05f81e8cfc" y="162.383515"/>
      </g>
     </g>
     <g id="text_28">
      <!-- $\mathdefault{2}$ -->
      <g transform="translate(700.953973 180.453103)scale(0.16 -0.16)">
       <use transform="scale(0.996264)" xlink:href="#CMR17-32"/>
      </g>
     </g>
    </g>
    <g id="xtick_13">
     <g id="line2d_39">
      <path clip-path="url(#pd072f9e570)" d="M 761.157047 162.383515 
L 761.157047 26.483515 
" style="fill:none;stroke:#b0b0b0;stroke-linecap:square;stroke-width:0.8;"/>
     </g>
     <g id="line2d_40">
      <g>
       <use style="stroke:#000000;stroke-width:0.8;" x="761.157047" xlink:href="#m05f81e8cfc" y="162.383515"/>
      </g>
     </g>
     <g id="text_29">
      <!-- $\mathdefault{4}$ -->
      <g transform="translate(757.255053 180.453103)scale(0.16 -0.16)">
       <use transform="scale(0.996264)" xlink:href="#CMR17-34"/>
      </g>
     </g>
    </g>
    <g id="xtick_14">
     <g id="line2d_41">
      <path clip-path="url(#pd072f9e570)" d="M 817.458126 162.383515 
L 817.458126 26.483515 
" style="fill:none;stroke:#b0b0b0;stroke-linecap:square;stroke-width:0.8;"/>
     </g>
     <g id="line2d_42">
      <g>
       <use style="stroke:#000000;stroke-width:0.8;" x="817.458126" xlink:href="#m05f81e8cfc" y="162.383515"/>
      </g>
     </g>
     <g id="text_30">
      <!-- $\mathdefault{6}$ -->
      <g transform="translate(813.556133 180.453103)scale(0.16 -0.16)">
       <use transform="scale(0.996264)" xlink:href="#CMR17-36"/>
      </g>
     </g>
    </g>
    <g id="xtick_15">
     <g id="line2d_43">
      <path clip-path="url(#pd072f9e570)" d="M 873.759206 162.383515 
L 873.759206 26.483515 
" style="fill:none;stroke:#b0b0b0;stroke-linecap:square;stroke-width:0.8;"/>
     </g>
     <g id="line2d_44">
      <g>
       <use style="stroke:#000000;stroke-width:0.8;" x="873.759206" xlink:href="#m05f81e8cfc" y="162.383515"/>
      </g>
     </g>
     <g id="text_31">
      <!-- $\mathdefault{8}$ -->
      <g transform="translate(869.857212 180.453103)scale(0.16 -0.16)">
       <use transform="scale(0.996264)" xlink:href="#CMR17-38"/>
      </g>
     </g>
    </g>
   </g>
   <g id="matplotlib.axis_6">
    <g id="ytick_7">
     <g id="line2d_45">
      <path clip-path="url(#pd072f9e570)" d="M 637.365048 139.733515 
L 883.541518 139.733515 
" style="fill:none;stroke:#b0b0b0;stroke-linecap:square;stroke-width:0.8;"/>
     </g>
     <g id="line2d_46">
      <g>
       <use style="stroke:#000000;stroke-width:0.8;" x="637.365048" xlink:href="#m1916c78191" y="139.733515"/>
      </g>
     </g>
     <g id="text_32">
      <!-- $\mathdefault{−0.1}$ -->
      <g transform="translate(598.023529 145.268309)scale(0.16 -0.16)">
       <use transform="scale(0.996264)" xlink:href="#CMSY10-0"/>
       <use transform="translate(77.487468 0)scale(0.996264)" xlink:href="#CMR17-30"/>
       <use transform="translate(123.177945 0)scale(0.996264)" xlink:href="#CMMI12-3a"/>
       <use transform="translate(150.275122 0)scale(0.996264)" xlink:href="#CMR17-31"/>
      </g>
     </g>
    </g>
    <g id="ytick_8">
     <g id="line2d_47">
      <path clip-path="url(#pd072f9e570)" d="M 637.365048 94.433515 
L 883.541518 94.433515 
" style="fill:none;stroke:#b0b0b0;stroke-linecap:square;stroke-width:0.8;"/>
     </g>
     <g id="line2d_48">
      <g>
       <use style="stroke:#000000;stroke-width:0.8;" x="637.365048" xlink:href="#m1916c78191" y="94.433515"/>
      </g>
     </g>
     <g id="text_33">
      <!-- $\mathdefault{0.0}$ -->
      <g transform="translate(610.421525 99.968309)scale(0.16 -0.16)">
       <use transform="scale(0.996264)" xlink:href="#CMR17-30"/>
       <use transform="translate(45.690477 0)scale(0.996264)" xlink:href="#CMMI12-3a"/>
       <use transform="translate(72.787654 0)scale(0.996264)" xlink:href="#CMR17-30"/>
      </g>
     </g>
    </g>
    <g id="ytick_9">
     <g id="line2d_49">
      <path clip-path="url(#pd072f9e570)" d="M 637.365048 49.133515 
L 883.541518 49.133515 
" style="fill:none;stroke:#b0b0b0;stroke-linecap:square;stroke-width:0.8;"/>
     </g>
     <g id="line2d_50">
      <g>
       <use style="stroke:#000000;stroke-width:0.8;" x="637.365048" xlink:href="#m1916c78191" y="49.133515"/>
      </g>
     </g>
     <g id="text_34">
      <!-- $\mathdefault{0.1}$ -->
      <g transform="translate(610.421525 54.668309)scale(0.16 -0.16)">
       <use transform="scale(0.996264)" xlink:href="#CMR17-30"/>
       <use transform="translate(45.690477 0)scale(0.996264)" xlink:href="#CMMI12-3a"/>
       <use transform="translate(72.787654 0)scale(0.996264)" xlink:href="#CMR17-31"/>
      </g>
     </g>
    </g>
   </g>
   <g id="line2d_51">
    <path clip-path="url(#pd072f9e570)" d="M 648.554887 103.360292 
L 649.962414 100.154215 
L 651.369941 95.304865 
L 652.777468 88.229399 
L 654.184995 85.221213 
L 655.592522 83.245293 
L 657.000049 86.286159 
L 658.407576 84.696753 
L 659.815103 80.09171 
L 661.22263 75.941165 
L 662.630157 71.300143 
L 664.037684 73.519829 
L 665.445211 79.563498 
L 666.852738 83.526517 
L 668.260265 86.06675 
L 669.667792 87.415411 
L 671.075319 83.828536 
L 672.482846 89.504027 
L 673.890373 89.654306 
L 675.2979 92.960583 
L 676.705427 99.970977 
L 678.112954 100.681773 
L 679.520481 99.641256 
L 680.928008 99.031274 
L 683.743062 102.57446 
L 685.150589 108.532878 
L 686.558116 108.30256 
L 687.965643 114.678356 
L 689.37317 115.292494 
L 690.780697 111.944392 
L 692.188224 108.884478 
L 693.595751 104.406689 
L 695.003278 103.546564 
L 696.410805 100.127559 
L 697.818332 95.024928 
L 699.225859 88.906223 
L 702.040913 78.536707 
L 703.44844 74.293761 
L 704.855967 72.428171 
L 706.263494 77.513014 
L 709.078548 83.184985 
L 710.486075 84.089506 
L 711.893602 90.636929 
L 713.301129 94.152298 
L 716.116183 100.799056 
L 717.52371 107.565405 
L 718.931237 113.122773 
L 720.338764 107.118648 
L 721.746291 109.376024 
L 723.153818 109.541095 
L 724.561345 109.560305 
L 725.968872 106.834189 
L 727.376399 103.757711 
L 728.783926 102.926161 
L 730.191453 100.493557 
L 731.59898 96.411205 
L 733.006507 89.262097 
L 734.414034 91.239805 
L 735.821561 88.002382 
L 737.229088 83.826754 
L 738.636615 83.030525 
L 740.044142 79.898248 
L 741.451669 82.517281 
L 742.859196 81.037442 
L 745.67425 75.600724 
L 747.081777 77.922752 
L 748.489304 81.178191 
L 751.304358 90.055236 
L 752.711885 91.892886 
L 754.119412 95.921273 
L 755.526939 97.628187 
L 756.934466 101.362777 
L 758.341993 105.816778 
L 759.74952 112.977149 
L 761.157047 117.242877 
L 762.564574 114.165337 
L 765.379628 103.251503 
L 766.787155 101.213504 
L 768.194682 97.665588 
L 771.009736 86.972558 
L 772.417263 84.91387 
L 773.824789 78.653471 
L 775.232316 73.092783 
L 776.639843 75.623524 
L 778.04737 80.134622 
L 779.454897 83.695501 
L 780.862424 83.507122 
L 782.269951 86.153115 
L 783.677478 88.013661 
L 785.085005 92.651497 
L 786.492532 94.634416 
L 787.900059 95.034865 
L 789.307586 98.220846 
L 790.715113 98.647664 
L 792.12264 96.728233 
L 793.530167 97.85005 
L 794.937694 102.729859 
L 796.345221 106.1914 
L 797.752748 108.952491 
L 799.160275 107.874546 
L 800.567802 105.59908 
L 801.975329 110.038894 
L 803.382856 108.234284 
L 804.790383 105.821125 
L 806.19791 105.929601 
L 807.605437 106.994814 
L 809.012964 103.589604 
L 810.420491 97.391169 
L 811.828018 96.607095 
L 813.235545 100.543975 
L 814.643072 101.109715 
L 816.050599 98.444201 
L 817.458126 101.777802 
L 818.865653 99.272026 
L 820.27318 98.191713 
L 821.680707 90.999323 
L 823.088234 90.171783 
L 824.495761 91.135039 
L 825.903288 88.669449 
L 827.310815 81.454481 
L 828.718342 83.851886 
L 830.125869 81.834569 
L 831.533396 75.753805 
L 832.940923 79.971914 
L 834.34845 81.005432 
L 835.755977 84.521136 
L 837.163504 86.66166 
L 838.571031 89.618144 
L 839.978558 90.220607 
L 841.386085 92.480046 
L 842.793612 88.522759 
L 844.201139 92.894206 
L 845.608666 96.154191 
L 847.016193 94.238312 
L 848.42372 96.614666 
L 849.831247 103.346079 
L 852.646301 100.682412 
L 854.053828 105.260622 
L 855.461355 107.540983 
L 856.868882 112.98027 
L 858.276409 111.468476 
L 859.683936 116.65757 
L 861.091463 117.519336 
L 862.49899 112.591811 
L 863.906517 103.319098 
L 865.314044 102.364316 
L 866.721571 101.618902 
L 868.129098 95.998601 
L 869.536625 93.251854 
L 870.944152 87.591966 
L 872.351679 84.723649 
L 872.351679 84.723649 
" style="fill:none;stroke:#ff7f0e;stroke-linecap:square;stroke-width:1.5;"/>
   </g>
   <g id="line2d_52">
    <path clip-path="url(#pd072f9e570)" d="M 637.365048 94.433515 
L 883.541518 94.433515 
" style="fill:none;stroke:#d62728;stroke-linecap:square;stroke-width:1.5;"/>
   </g>
   <g id="line2d_53">
    <defs>
     <path d="M 0 3 
C 0.795609 3 1.55874 2.683901 2.12132 2.12132 
C 2.683901 1.55874 3 0.795609 3 0 
C 3 -0.795609 2.683901 -1.55874 2.12132 -2.12132 
C 1.55874 -2.683901 0.795609 -3 0 -3 
C -0.795609 -3 -1.55874 -2.683901 -2.12132 -2.12132 
C -2.683901 -1.55874 -3 -0.795609 -3 0 
C -3 0.795609 -2.683901 1.55874 -2.12132 2.12132 
C -1.55874 2.683901 -0.795609 3 0 3 
z
" id="mdbf588bf7f" style="stroke:#2ca02c;"/>
    </defs>
    <g clip-path="url(#pd072f9e570)">
     <use style="fill:#2ca02c;stroke:#2ca02c;" x="662.630157" xlink:href="#mdbf588bf7f" y="71.300143"/>
    </g>
   </g>
   <g id="line2d_54">
    <g clip-path="url(#pd072f9e570)">
     <use style="fill:#2ca02c;stroke:#2ca02c;" x="690.780697" xlink:href="#mdbf588bf7f" y="111.944392"/>
    </g>
   </g>
   <g id="line2d_55">
    <g clip-path="url(#pd072f9e570)">
     <use style="fill:#2ca02c;stroke:#2ca02c;" x="718.931237" xlink:href="#mdbf588bf7f" y="113.122773"/>
    </g>
   </g>
   <g id="line2d_56">
    <g clip-path="url(#pd072f9e570)">
     <use style="fill:#2ca02c;stroke:#2ca02c;" x="747.081777" xlink:href="#mdbf588bf7f" y="77.922752"/>
    </g>
   </g>
   <g id="line2d_57">
    <g clip-path="url(#pd072f9e570)">
     <use style="fill:#2ca02c;stroke:#2ca02c;" x="775.232316" xlink:href="#mdbf588bf7f" y="73.092783"/>
    </g>
   </g>
   <g id="line2d_58">
    <g clip-path="url(#pd072f9e570)">
     <use style="fill:#2ca02c;stroke:#2ca02c;" x="803.382856" xlink:href="#mdbf588bf7f" y="108.234284"/>
    </g>
   </g>
   <g id="line2d_59">
    <g clip-path="url(#pd072f9e570)">
     <use style="fill:#2ca02c;stroke:#2ca02c;" x="831.533396" xlink:href="#mdbf588bf7f" y="75.753805"/>
    </g>
   </g>
   <g id="line2d_60">
    <g clip-path="url(#pd072f9e570)">
     <use style="fill:#2ca02c;stroke:#2ca02c;" x="859.683936" xlink:href="#mdbf588bf7f" y="116.65757"/>
    </g>
   </g>
   <g id="patch_13">
    <path d="M 637.365048 162.383515 
L 637.365048 26.483515 
" style="fill:none;stroke:#000000;stroke-linecap:square;stroke-linejoin:miter;stroke-width:0.8;"/>
   </g>
   <g id="patch_14">
    <path d="M 883.541518 162.383515 
L 883.541518 26.483515 
" style="fill:none;stroke:#000000;stroke-linecap:square;stroke-linejoin:miter;stroke-width:0.8;"/>
   </g>
   <g id="patch_15">
    <path d="M 637.365048 162.383515 
L 883.541518 162.383515 
" style="fill:none;stroke:#000000;stroke-linecap:square;stroke-linejoin:miter;stroke-width:0.8;"/>
   </g>
   <g id="patch_16">
    <path d="M 637.365048 26.483515 
L 883.541518 26.483515 
" style="fill:none;stroke:#000000;stroke-linecap:square;stroke-linejoin:miter;stroke-width:0.8;"/>
   </g>
   <g id="text_35">
    <!-- 1 -->
    <g style="fill:#d62728;" transform="translate(658.728164 143.718571)scale(0.16 -0.16)">
     <use transform="scale(0.996264)" xlink:href="#CMSS17-31"/>
    </g>
   </g>
   <g id="text_36">
    <!-- 0 -->
    <g style="fill:#d62728;" transform="translate(686.878704 143.718571)scale(0.16 -0.16)">
     <use transform="scale(0.996264)" xlink:href="#CMSS17-30"/>
    </g>
   </g>
   <g id="text_37">
    <!-- 0 -->
    <g style="fill:#d62728;" transform="translate(715.029243 143.718571)scale(0.16 -0.16)">
     <use transform="scale(0.996264)" xlink:href="#CMSS17-30"/>
    </g>
   </g>
   <g id="text_38">
    <!-- 1 -->
    <g style="fill:#d62728;" transform="translate(743.179783 143.718571)scale(0.16 -0.16)">
     <use transform="scale(0.996264)" xlink:href="#CMSS17-31"/>
    </g>
   </g>
   <g id="text_39">
    <!-- 1 -->
    <g style="fill:#d62728;" transform="translate(771.330323 143.718571)scale(0.16 -0.16)">
     <use transform="scale(0.996264)" xlink:href="#CMSS17-31"/>
    </g>
   </g>
   <g id="text_40">
    <!-- 0 -->
    <g style="fill:#d62728;" transform="translate(799.480863 143.718571)scale(0.16 -0.16)">
     <use transform="scale(0.996264)" xlink:href="#CMSS17-30"/>
    </g>
   </g>
   <g id="text_41">
    <!-- 1 -->
    <g style="fill:#d62728;" transform="translate(827.631403 143.718571)scale(0.16 -0.16)">
     <use transform="scale(0.996264)" xlink:href="#CMSS17-31"/>
    </g>
   </g>
   <g id="text_42">
    <!-- 0 -->
    <g style="fill:#d62728;" transform="translate(855.781942 143.718571)scale(0.16 -0.16)">
     <use transform="scale(0.996264)" xlink:href="#CMSS17-30"/>
    </g>
   </g>
   <g id="text_43">
    <!-- $\widehat{m}$ -->
    <g transform="translate(752.261871 20.483515)scale(0.192 -0.192)">
     <defs>
      <path d="M 1773 4358 
L 3514 3584 
L 3590 3724 
L 1779 4736 
L -32 3724 
L 38 3584 
L 1773 4358 
z
" id="CMEX10-62" transform="scale(0.015625)"/>
      <path d="M 1318 1870 
C 1331 1909 1491 2228 1728 2432 
C 1894 2585 2112 2687 2362 2687 
C 2618 2687 2707 2496 2707 2241 
C 2707 2202 2707 2075 2630 1775 
L 2470 1117 
C 2419 925 2298 453 2285 383 
C 2259 287 2221 121 2221 95 
C 2221 6 2291 -64 2387 -64 
C 2579 -64 2611 83 2669 313 
L 3053 1838 
C 3066 1890 3398 2687 4102 2687 
C 4358 2687 4448 2496 4448 2241 
C 4448 1883 4198 1187 4058 804 
C 4000 651 3968 568 3968 453 
C 3968 166 4166 -64 4474 -64 
C 5069 -64 5293 874 5293 913 
C 5293 945 5267 970 5229 970 
C 5171 970 5165 951 5133 842 
C 4986 332 4749 64 4493 64 
C 4429 64 4326 70 4326 274 
C 4326 440 4403 645 4429 715 
C 4544 1021 4832 1775 4832 2145 
C 4832 2528 4608 2816 4122 2816 
C 3693 2816 3347 2573 3091 2196 
C 3072 2541 2861 2816 2381 2816 
C 1811 2816 1510 2413 1395 2253 
C 1376 2617 1114 2816 832 2816 
C 646 2816 499 2726 378 2483 
C 262 2253 173 1864 173 1838 
C 173 1813 198 1781 243 1781 
C 294 1781 301 1787 339 1934 
C 435 2311 557 2687 813 2687 
C 960 2687 1011 2585 1011 2394 
C 1011 2253 947 2004 902 1807 
L 723 1117 
C 698 996 627 708 595 593 
C 550 427 480 127 480 95 
C 480 6 550 -64 646 -64 
C 723 -64 813 -26 864 70 
C 877 102 934 325 966 453 
L 1107 1028 
L 1318 1870 
z
" id="CMMI12-6d" transform="scale(0.015625)"/>
     </defs>
     <use transform="translate(14.989535 0.000091)scale(0.996264)" xlink:href="#CMEX10-62"/>
     <use transform="scale(0.996264)" xlink:href="#CMMI12-6d"/>
    </g>
   </g>
  </g>
 </g>
 <defs>
  <clipPath id="pf36eaa47f3">
   <rect height="135.9" width="246.176471" x="46.541518" y="26.483515"/>
  </clipPath>
  <clipPath id="pe54b6a831e">
   <rect height="135.9" width="246.176471" x="341.953283" y="26.483515"/>
  </clipPath>
  <clipPath id="pd072f9e570">
   <rect height="135.9" width="246.176471" x="637.365048" y="26.483515"/>
  </clipPath>
 </defs>
</svg>
