<?xml version="1.0" encoding="utf-8" standalone="no"?>
<!DOCTYPE svg PUBLIC "-//W3C//DTD SVG 1.1//EN"
  "http://www.w3.org/Graphics/SVG/1.1/DTD/svg11.dtd">
<svg height="360pt" version="1.1" viewBox="0 0 720 360" width="720pt" xmlns="http://www.w3.org/2000/svg" xmlns:xlink="http://www.w3.org/1999/xlink">
 <metadata>
  <rdf:RDF xmlns:cc="http://creativecommons.org/ns#" xmlns:dc="http://purl.org/dc/elements/1.1/" xmlns:rdf="http://www.w3.org/1999/02/22-rdf-syntax-ns#">
   <cc:Work>
    <dc:type rdf:resource="http://purl.org/dc/dcmitype/StillImage"/>
    <dc:date>2023-09-05T20:17:37.480616</dc:date>
    <dc:format>image/svg+xml</dc:format>
    <dc:creator>
     <cc:Agent>
      <dc:title>Matplotlib v3.4.3, https://matplotlib.org/</dc:title>
     </cc:Agent>
    </dc:creator>
   </cc:Work>
  </rdf:RDF>
 </metadata>
 <defs>
  <style type="text/css">*{stroke-linecap:butt;stroke-linejoin:round;}</style>
 </defs>
 <g id="figure_1">
  <g id="patch_1">
   <path d="M 0 360 
L 720 360 
L 720 0 
L 0 0 
z
" style="fill:none;"/>
  </g>
  <g id="axes_1">
   <g id="patch_2">
    <path d="M 90 315 
L 648 315 
L 648 43.2 
L 90 43.2 
z
" style="fill:#ffffff;"/>
   </g>
   <g id="matplotlib.axis_1">
    <g id="xtick_1">
     <g id="line2d_1">
      <defs>
       <path d="M 0 0 
L 0 3.5 
" id="mc75e58a09f" style="stroke:#000000;stroke-width:0.8;"/>
      </defs>
      <g>
       <use style="stroke:#000000;stroke-width:0.8;" x="115.363636" xlink:href="#mc75e58a09f" y="315"/>
      </g>
     </g>
     <g id="text_1">
      <!-- −1.5 -->
      <g transform="translate(103.22223 329.598437)scale(0.1 -0.1)">
       <defs>
        <path d="M 678 2272 
L 4684 2272 
L 4684 1741 
L 678 1741 
L 678 2272 
z
" id="DejaVuSans-2212" transform="scale(0.015625)"/>
        <path d="M 794 531 
L 1825 531 
L 1825 4091 
L 703 3866 
L 703 4441 
L 1819 4666 
L 2450 4666 
L 2450 531 
L 3481 531 
L 3481 0 
L 794 0 
L 794 531 
z
" id="DejaVuSans-31" transform="scale(0.015625)"/>
        <path d="M 684 794 
L 1344 794 
L 1344 0 
L 684 0 
L 684 794 
z
" id="DejaVuSans-2e" transform="scale(0.015625)"/>
        <path d="M 691 4666 
L 3169 4666 
L 3169 4134 
L 1269 4134 
L 1269 2991 
Q 1406 3038 1543 3061 
Q 1681 3084 1819 3084 
Q 2600 3084 3056 2656 
Q 3513 2228 3513 1497 
Q 3513 744 3044 326 
Q 2575 -91 1722 -91 
Q 1428 -91 1123 -41 
Q 819 9 494 109 
L 494 744 
Q 775 591 1075 516 
Q 1375 441 1709 441 
Q 2250 441 2565 725 
Q 2881 1009 2881 1497 
Q 2881 1984 2565 2268 
Q 2250 2553 1709 2553 
Q 1456 2553 1204 2497 
Q 953 2441 691 2322 
L 691 4666 
z
" id="DejaVuSans-35" transform="scale(0.015625)"/>
       </defs>
       <use xlink:href="#DejaVuSans-2212"/>
       <use x="83.789062" xlink:href="#DejaVuSans-31"/>
       <use x="147.412109" xlink:href="#DejaVuSans-2e"/>
       <use x="179.199219" xlink:href="#DejaVuSans-35"/>
      </g>
     </g>
    </g>
    <g id="xtick_2">
     <g id="line2d_2">
      <g>
       <use style="stroke:#000000;stroke-width:0.8;" x="200.191852" xlink:href="#mc75e58a09f" y="315"/>
      </g>
     </g>
     <g id="text_2">
      <!-- −1.0 -->
      <g transform="translate(188.050445 329.598437)scale(0.1 -0.1)">
       <defs>
        <path d="M 2034 4250 
Q 1547 4250 1301 3770 
Q 1056 3291 1056 2328 
Q 1056 1369 1301 889 
Q 1547 409 2034 409 
Q 2525 409 2770 889 
Q 3016 1369 3016 2328 
Q 3016 3291 2770 3770 
Q 2525 4250 2034 4250 
z
M 2034 4750 
Q 2819 4750 3233 4129 
Q 3647 3509 3647 2328 
Q 3647 1150 3233 529 
Q 2819 -91 2034 -91 
Q 1250 -91 836 529 
Q 422 1150 422 2328 
Q 422 3509 836 4129 
Q 1250 4750 2034 4750 
z
" id="DejaVuSans-30" transform="scale(0.015625)"/>
       </defs>
       <use xlink:href="#DejaVuSans-2212"/>
       <use x="83.789062" xlink:href="#DejaVuSans-31"/>
       <use x="147.412109" xlink:href="#DejaVuSans-2e"/>
       <use x="179.199219" xlink:href="#DejaVuSans-30"/>
      </g>
     </g>
    </g>
    <g id="xtick_3">
     <g id="line2d_3">
      <g>
       <use style="stroke:#000000;stroke-width:0.8;" x="285.020067" xlink:href="#mc75e58a09f" y="315"/>
      </g>
     </g>
     <g id="text_3">
      <!-- −0.5 -->
      <g transform="translate(272.878661 329.598437)scale(0.1 -0.1)">
       <use xlink:href="#DejaVuSans-2212"/>
       <use x="83.789062" xlink:href="#DejaVuSans-30"/>
       <use x="147.412109" xlink:href="#DejaVuSans-2e"/>
       <use x="179.199219" xlink:href="#DejaVuSans-35"/>
      </g>
     </g>
    </g>
    <g id="xtick_4">
     <g id="line2d_4">
      <g>
       <use style="stroke:#000000;stroke-width:0.8;" x="369.848282" xlink:href="#mc75e58a09f" y="315"/>
      </g>
     </g>
     <g id="text_4">
      <!-- 0.0 -->
      <g transform="translate(361.89672 329.598437)scale(0.1 -0.1)">
       <use xlink:href="#DejaVuSans-30"/>
       <use x="63.623047" xlink:href="#DejaVuSans-2e"/>
       <use x="95.410156" xlink:href="#DejaVuSans-30"/>
      </g>
     </g>
    </g>
    <g id="xtick_5">
     <g id="line2d_5">
      <g>
       <use style="stroke:#000000;stroke-width:0.8;" x="454.676497" xlink:href="#mc75e58a09f" y="315"/>
      </g>
     </g>
     <g id="text_5">
      <!-- 0.5 -->
      <g transform="translate(446.724935 329.598437)scale(0.1 -0.1)">
       <use xlink:href="#DejaVuSans-30"/>
       <use x="63.623047" xlink:href="#DejaVuSans-2e"/>
       <use x="95.410156" xlink:href="#DejaVuSans-35"/>
      </g>
     </g>
    </g>
    <g id="xtick_6">
     <g id="line2d_6">
      <g>
       <use style="stroke:#000000;stroke-width:0.8;" x="539.504713" xlink:href="#mc75e58a09f" y="315"/>
      </g>
     </g>
     <g id="text_6">
      <!-- 1.0 -->
      <g transform="translate(531.55315 329.598437)scale(0.1 -0.1)">
       <use xlink:href="#DejaVuSans-31"/>
       <use x="63.623047" xlink:href="#DejaVuSans-2e"/>
       <use x="95.410156" xlink:href="#DejaVuSans-30"/>
      </g>
     </g>
    </g>
    <g id="xtick_7">
     <g id="line2d_7">
      <g>
       <use style="stroke:#000000;stroke-width:0.8;" x="624.332928" xlink:href="#mc75e58a09f" y="315"/>
      </g>
     </g>
     <g id="text_7">
      <!-- 1.5 -->
      <g transform="translate(616.381365 329.598437)scale(0.1 -0.1)">
       <use xlink:href="#DejaVuSans-31"/>
       <use x="63.623047" xlink:href="#DejaVuSans-2e"/>
       <use x="95.410156" xlink:href="#DejaVuSans-35"/>
      </g>
     </g>
    </g>
   </g>
   <g id="matplotlib.axis_2">
    <g id="ytick_1">
     <g id="line2d_8">
      <defs>
       <path d="M 0 0 
L -3.5 0 
" id="m064132c7ab" style="stroke:#000000;stroke-width:0.8;"/>
      </defs>
      <g>
       <use style="stroke:#000000;stroke-width:0.8;" x="90" xlink:href="#m064132c7ab" y="292.672049"/>
      </g>
     </g>
     <g id="text_8">
      <!-- −2.5 -->
      <g transform="translate(58.717187 296.471268)scale(0.1 -0.1)">
       <defs>
        <path d="M 1228 531 
L 3431 531 
L 3431 0 
L 469 0 
L 469 531 
Q 828 903 1448 1529 
Q 2069 2156 2228 2338 
Q 2531 2678 2651 2914 
Q 2772 3150 2772 3378 
Q 2772 3750 2511 3984 
Q 2250 4219 1831 4219 
Q 1534 4219 1204 4116 
Q 875 4013 500 3803 
L 500 4441 
Q 881 4594 1212 4672 
Q 1544 4750 1819 4750 
Q 2544 4750 2975 4387 
Q 3406 4025 3406 3419 
Q 3406 3131 3298 2873 
Q 3191 2616 2906 2266 
Q 2828 2175 2409 1742 
Q 1991 1309 1228 531 
z
" id="DejaVuSans-32" transform="scale(0.015625)"/>
       </defs>
       <use xlink:href="#DejaVuSans-2212"/>
       <use x="83.789062" xlink:href="#DejaVuSans-32"/>
       <use x="147.412109" xlink:href="#DejaVuSans-2e"/>
       <use x="179.199219" xlink:href="#DejaVuSans-35"/>
      </g>
     </g>
    </g>
    <g id="ytick_2">
     <g id="line2d_9">
      <g>
       <use style="stroke:#000000;stroke-width:0.8;" x="90" xlink:href="#m064132c7ab" y="258.79812"/>
      </g>
     </g>
     <g id="text_9">
      <!-- 0.0 -->
      <g transform="translate(67.096875 262.597338)scale(0.1 -0.1)">
       <use xlink:href="#DejaVuSans-30"/>
       <use x="63.623047" xlink:href="#DejaVuSans-2e"/>
       <use x="95.410156" xlink:href="#DejaVuSans-30"/>
      </g>
     </g>
    </g>
    <g id="ytick_3">
     <g id="line2d_10">
      <g>
       <use style="stroke:#000000;stroke-width:0.8;" x="90" xlink:href="#m064132c7ab" y="224.924191"/>
      </g>
     </g>
     <g id="text_10">
      <!-- 2.5 -->
      <g transform="translate(67.096875 228.723409)scale(0.1 -0.1)">
       <use xlink:href="#DejaVuSans-32"/>
       <use x="63.623047" xlink:href="#DejaVuSans-2e"/>
       <use x="95.410156" xlink:href="#DejaVuSans-35"/>
      </g>
     </g>
    </g>
    <g id="ytick_4">
     <g id="line2d_11">
      <g>
       <use style="stroke:#000000;stroke-width:0.8;" x="90" xlink:href="#m064132c7ab" y="191.050262"/>
      </g>
     </g>
     <g id="text_11">
      <!-- 5.0 -->
      <g transform="translate(67.096875 194.84948)scale(0.1 -0.1)">
       <use xlink:href="#DejaVuSans-35"/>
       <use x="63.623047" xlink:href="#DejaVuSans-2e"/>
       <use x="95.410156" xlink:href="#DejaVuSans-30"/>
      </g>
     </g>
    </g>
    <g id="ytick_5">
     <g id="line2d_12">
      <g>
       <use style="stroke:#000000;stroke-width:0.8;" x="90" xlink:href="#m064132c7ab" y="157.176333"/>
      </g>
     </g>
     <g id="text_12">
      <!-- 7.5 -->
      <g transform="translate(67.096875 160.975551)scale(0.1 -0.1)">
       <defs>
        <path d="M 525 4666 
L 3525 4666 
L 3525 4397 
L 1831 0 
L 1172 0 
L 2766 4134 
L 525 4134 
L 525 4666 
z
" id="DejaVuSans-37" transform="scale(0.015625)"/>
       </defs>
       <use xlink:href="#DejaVuSans-37"/>
       <use x="63.623047" xlink:href="#DejaVuSans-2e"/>
       <use x="95.410156" xlink:href="#DejaVuSans-35"/>
      </g>
     </g>
    </g>
    <g id="ytick_6">
     <g id="line2d_13">
      <g>
       <use style="stroke:#000000;stroke-width:0.8;" x="90" xlink:href="#m064132c7ab" y="123.302404"/>
      </g>
     </g>
     <g id="text_13">
      <!-- 10.0 -->
      <g transform="translate(60.734375 127.101622)scale(0.1 -0.1)">
       <use xlink:href="#DejaVuSans-31"/>
       <use x="63.623047" xlink:href="#DejaVuSans-30"/>
       <use x="127.246094" xlink:href="#DejaVuSans-2e"/>
       <use x="159.033203" xlink:href="#DejaVuSans-30"/>
      </g>
     </g>
    </g>
    <g id="ytick_7">
     <g id="line2d_14">
      <g>
       <use style="stroke:#000000;stroke-width:0.8;" x="90" xlink:href="#m064132c7ab" y="89.428474"/>
      </g>
     </g>
     <g id="text_14">
      <!-- 12.5 -->
      <g transform="translate(60.734375 93.227693)scale(0.1 -0.1)">
       <use xlink:href="#DejaVuSans-31"/>
       <use x="63.623047" xlink:href="#DejaVuSans-32"/>
       <use x="127.246094" xlink:href="#DejaVuSans-2e"/>
       <use x="159.033203" xlink:href="#DejaVuSans-35"/>
      </g>
     </g>
    </g>
    <g id="ytick_8">
     <g id="line2d_15">
      <g>
       <use style="stroke:#000000;stroke-width:0.8;" x="90" xlink:href="#m064132c7ab" y="55.554545"/>
      </g>
     </g>
     <g id="text_15">
      <!-- 15.0 -->
      <g transform="translate(60.734375 59.353764)scale(0.1 -0.1)">
       <use xlink:href="#DejaVuSans-31"/>
       <use x="63.623047" xlink:href="#DejaVuSans-35"/>
       <use x="127.246094" xlink:href="#DejaVuSans-2e"/>
       <use x="159.033203" xlink:href="#DejaVuSans-30"/>
      </g>
     </g>
    </g>
   </g>
   <g id="line2d_16">
    <path clip-path="url(#p712873b760)" d="M 115.363636 245.248548 
L 117.060201 245.780128 
L 118.756765 247.335219 
L 120.453329 249.797683 
L 122.149894 252.98314 
L 125.543022 260.526954 
L 127.239587 264.312098 
L 128.936151 267.715085 
L 130.632715 270.468078 
L 132.329279 272.347691 
L 134.025844 273.191958 
L 135.722408 272.913218 
L 137.418972 271.505967 
L 139.115537 269.049051 
L 140.812101 265.701971 
L 142.508665 261.695435 
L 147.598358 248.757226 
L 149.294922 245.248548 
L 150.991487 242.663904 
L 152.688051 241.247695 
L 154.384615 241.169725 
L 156.08118 242.509929 
L 157.777744 245.248548 
L 159.474308 249.262536 
L 161.170873 254.328598 
L 164.564001 266.286618 
L 166.260566 272.347691 
L 167.95713 277.845582 
L 169.653694 282.309585 
L 171.350258 285.297807 
L 173.046823 286.425457 
L 174.743387 285.390651 
L 176.439951 281.996084 
L 178.136516 276.165184 
L 179.83308 267.951656 
L 181.529644 257.541684 
L 183.226209 245.248548 
L 184.922773 231.499798 
L 191.70903 173.249491 
L 193.405594 160.978742 
L 195.102159 150.79827 
L 196.798723 143.172009 
L 198.495287 138.450504 
L 200.191852 136.851975 
L 201.888416 138.450504 
L 203.58498 143.172009 
L 205.281545 150.79827 
L 206.978109 160.978742 
L 208.674673 173.249491 
L 210.371237 187.058153 
L 217.157495 245.248548 
L 218.854059 257.541684 
L 220.550623 267.951656 
L 222.247188 276.165184 
L 223.943752 281.996084 
L 225.640316 285.390651 
L 227.336881 286.425457 
L 229.033445 285.297807 
L 230.730009 282.309585 
L 232.426573 277.845582 
L 234.123138 272.347691 
L 239.212831 254.328598 
L 240.909395 249.262536 
L 242.605959 245.248548 
L 244.302524 242.509929 
L 245.999088 241.169725 
L 247.695652 241.247695 
L 249.392216 242.663904 
L 251.088781 245.248548 
L 252.785345 248.757226 
L 254.481909 252.890545 
L 257.875038 261.695435 
L 259.571602 265.701971 
L 261.268167 269.049051 
L 262.964731 271.505967 
L 264.661295 272.913218 
L 266.35786 273.191958 
L 268.054424 272.347691 
L 269.750988 270.468078 
L 271.447552 267.715085 
L 273.144117 264.312098 
L 278.23381 252.98314 
L 279.930374 249.797683 
L 281.626938 247.335219 
L 283.323503 245.780128 
L 285.020067 245.248548 
L 286.716631 245.780128 
L 288.413196 247.335219 
L 290.10976 249.797683 
L 291.806324 252.98314 
L 295.199453 260.526954 
L 296.896017 264.312098 
L 298.592581 267.715085 
L 300.289146 270.468078 
L 301.98571 272.347691 
L 303.682274 273.191958 
L 305.378839 272.913218 
L 307.075403 271.505967 
L 308.771967 269.049051 
L 310.468531 265.701971 
L 312.165096 261.695435 
L 317.254789 248.757226 
L 318.951353 245.248548 
L 320.647917 242.663904 
L 322.344482 241.247695 
L 324.041046 241.169725 
L 325.73761 242.509929 
L 327.434175 245.248548 
L 329.130739 249.262536 
L 330.827303 254.328598 
L 334.220432 266.286618 
L 335.916996 272.347691 
L 337.61356 277.845582 
L 339.310125 282.309585 
L 341.006689 285.297807 
L 342.703253 286.425457 
L 344.399818 285.390651 
L 346.096382 281.996084 
L 347.792946 276.165184 
L 349.48951 267.951656 
L 351.186075 257.541684 
L 352.882639 245.248548 
L 354.579203 231.499798 
L 361.365461 173.249491 
L 363.062025 160.978742 
L 364.758589 150.79827 
L 366.455154 143.172009 
L 368.151718 138.450504 
L 369.848282 136.851975 
L 371.544846 138.450504 
L 373.241411 143.172009 
L 374.937975 150.79827 
L 376.634539 160.978742 
L 378.331104 173.249491 
L 380.027668 187.058153 
L 386.813925 245.248548 
L 388.51049 257.541684 
L 390.207054 267.951656 
L 391.903618 276.165184 
L 393.600182 281.996084 
L 395.296747 285.390651 
L 396.993311 286.425457 
L 398.689875 285.297807 
L 400.38644 282.309585 
L 402.083004 277.845582 
L 403.779568 272.347691 
L 408.869261 254.328598 
L 410.565825 249.262536 
L 412.26239 245.248548 
L 413.958954 242.509929 
L 415.655518 241.169725 
L 417.352083 241.247695 
L 419.048647 242.663904 
L 420.745211 245.248548 
L 422.441776 248.757226 
L 424.13834 252.890545 
L 427.531469 261.695435 
L 429.228033 265.701971 
L 430.924597 269.049051 
L 432.621161 271.505967 
L 434.317726 272.913218 
L 436.01429 273.191958 
L 437.710854 272.347691 
L 439.407419 270.468078 
L 441.103983 267.715085 
L 442.800547 264.312098 
L 447.89024 252.98314 
L 449.586804 249.797683 
L 451.283369 247.335219 
L 452.979933 245.780128 
L 454.676497 245.248548 
L 456.373062 245.780128 
L 458.069626 247.335219 
L 459.76619 249.797683 
L 461.462755 252.98314 
L 464.855883 260.526954 
L 466.552448 264.312098 
L 468.249012 267.715085 
L 469.945576 270.468078 
L 471.64214 272.347691 
L 473.338705 273.191958 
L 475.035269 272.913218 
L 476.731833 271.505967 
L 478.428398 269.049051 
L 480.124962 265.701971 
L 481.821526 261.695435 
L 486.911219 248.757226 
L 488.607784 245.248548 
L 490.304348 242.663904 
L 492.000912 241.247695 
L 493.697476 241.169725 
L 495.394041 242.509929 
L 497.090605 245.248548 
L 498.787169 249.262536 
L 500.483734 254.328598 
L 503.876862 266.286618 
L 505.573427 272.347691 
L 507.269991 277.845582 
L 508.966555 282.309585 
L 510.663119 285.297807 
L 512.359684 286.425457 
L 514.056248 285.390651 
L 515.752812 281.996084 
L 517.449377 276.165184 
L 519.145941 267.951656 
L 520.842505 257.541684 
L 522.53907 245.248548 
L 524.235634 231.499798 
L 531.021891 173.249491 
L 532.718455 160.978742 
L 534.41502 150.79827 
L 536.111584 143.172009 
L 537.808148 138.450504 
L 539.504713 136.851975 
L 541.201277 138.450504 
L 542.897841 143.172009 
L 544.594406 150.79827 
L 546.29097 160.978742 
L 547.987534 173.249491 
L 549.684099 187.058153 
L 556.470356 245.248548 
L 558.16692 257.541684 
L 559.863484 267.951656 
L 561.560049 276.165184 
L 563.256613 281.996084 
L 564.953177 285.390651 
L 566.649742 286.425457 
L 568.346306 285.297807 
L 570.04287 282.309585 
L 571.739434 277.845582 
L 573.435999 272.347691 
L 578.525692 254.328598 
L 580.222256 249.262536 
L 581.91882 245.248548 
L 583.615385 242.509929 
L 585.311949 241.169725 
L 587.008513 241.247695 
L 588.705078 242.663904 
L 590.401642 245.248548 
L 592.098206 248.757226 
L 593.79477 252.890545 
L 597.187899 261.695435 
L 598.884463 265.701971 
L 600.581028 269.049051 
L 602.277592 271.505967 
L 603.974156 272.913218 
L 605.670721 273.191958 
L 607.367285 272.347691 
L 609.063849 270.468078 
L 610.760413 267.715085 
L 612.456978 264.312098 
L 617.546671 252.98314 
L 619.243235 249.797683 
L 620.939799 247.335219 
L 622.636364 245.780128 
L 622.636364 245.780128 
" style="fill:none;stroke:#1f77b4;stroke-linecap:square;stroke-width:1.5;"/>
   </g>
   <g id="line2d_17">
    <path clip-path="url(#p712873b760)" d="M 115.363636 272.347691 
L 117.060201 270.876837 
L 118.756765 266.778105 
L 120.453329 260.927189 
L 122.149894 254.577793 
L 123.846458 249.097697 
L 125.543022 245.679342 
L 127.239587 245.085112 
L 128.936151 247.480729 
L 130.632715 252.392395 
L 134.025844 265.336012 
L 135.722408 270.587871 
L 137.418972 273.380181 
L 139.115537 273.039967 
L 140.812101 269.551121 
L 142.508665 263.576182 
L 145.901794 249.365483 
L 147.598358 244.201287 
L 149.294922 242.049928 
L 150.991487 243.519147 
L 152.688051 248.461843 
L 154.384615 255.972378 
L 156.08118 264.541917 
L 157.777744 272.347691 
L 159.474308 277.622841 
L 161.170873 279.034796 
L 162.867437 275.995203 
L 164.564001 268.834514 
L 166.260566 258.79812 
L 167.95713 247.854233 
L 169.653694 238.340327 
L 171.350258 232.508012 
L 173.046823 232.049163 
L 174.743387 237.694167 
L 176.439951 248.964274 
L 178.136516 264.135225 
L 179.83308 280.432749 
L 181.529644 294.438525 
L 183.226209 302.645455 
L 184.922773 302.071029 
L 186.619337 290.822898 
L 188.315901 268.514763 
L 190.012466 236.453053 
L 191.70903 197.552064 
L 195.102159 116.592257 
L 196.798723 84.220273 
L 198.495287 62.961503 
L 200.191852 55.554545 
L 201.888416 62.961503 
L 203.58498 84.220273 
L 205.281545 116.592257 
L 210.371237 236.453053 
L 212.067802 268.514763 
L 213.764366 290.822898 
L 215.46093 302.071029 
L 217.157495 302.645455 
L 218.854059 294.438525 
L 220.550623 280.432749 
L 222.247188 264.135225 
L 223.943752 248.964274 
L 225.640316 237.694167 
L 227.336881 232.049163 
L 229.033445 232.508012 
L 230.730009 238.340327 
L 232.426573 247.854233 
L 234.123138 258.79812 
L 235.819702 268.834514 
L 237.516266 275.995203 
L 239.212831 279.034796 
L 240.909395 277.622841 
L 242.605959 272.347691 
L 244.302524 264.541917 
L 245.999088 255.972378 
L 247.695652 248.461843 
L 249.392216 243.519147 
L 251.088781 242.049928 
L 252.785345 244.201287 
L 254.481909 249.365483 
L 257.875038 263.576182 
L 259.571602 269.551121 
L 261.268167 273.039967 
L 262.964731 273.380181 
L 264.661295 270.587871 
L 266.35786 265.336012 
L 269.750988 252.392395 
L 271.447552 247.480729 
L 273.144117 245.085112 
L 274.840681 245.679342 
L 276.537245 249.097697 
L 278.23381 254.577793 
L 279.930374 260.927189 
L 281.626938 266.778105 
L 283.323503 270.876837 
L 285.020067 272.347691 
L 286.716631 270.876837 
L 288.413196 266.778105 
L 290.10976 260.927189 
L 291.806324 254.577793 
L 293.502888 249.097697 
L 295.199453 245.679342 
L 296.896017 245.085112 
L 298.592581 247.480729 
L 300.289146 252.392395 
L 303.682274 265.336012 
L 305.378839 270.587871 
L 307.075403 273.380181 
L 308.771967 273.039967 
L 310.468531 269.551121 
L 312.165096 263.576182 
L 315.558224 249.365483 
L 317.254789 244.201287 
L 318.951353 242.049928 
L 320.647917 243.519147 
L 322.344482 248.461843 
L 324.041046 255.972378 
L 325.73761 264.541917 
L 327.434175 272.347691 
L 329.130739 277.622841 
L 330.827303 279.034796 
L 332.523867 275.995203 
L 334.220432 268.834514 
L 335.916996 258.79812 
L 337.61356 247.854233 
L 339.310125 238.340327 
L 341.006689 232.508012 
L 342.703253 232.049163 
L 344.399818 237.694167 
L 346.096382 248.964274 
L 347.792946 264.135225 
L 349.48951 280.432749 
L 351.186075 294.438525 
L 352.882639 302.645455 
L 354.579203 302.071029 
L 356.275768 290.822898 
L 357.972332 268.514763 
L 359.668896 236.453053 
L 361.365461 197.552064 
L 364.758589 116.592257 
L 366.455154 84.220273 
L 368.151718 62.961503 
L 369.848282 55.554545 
L 371.544846 62.961503 
L 373.241411 84.220273 
L 374.937975 116.592257 
L 380.027668 236.453053 
L 381.724232 268.514763 
L 383.420797 290.822898 
L 385.117361 302.071029 
L 386.813925 302.645455 
L 388.51049 294.438525 
L 390.207054 280.432749 
L 391.903618 264.135225 
L 393.600182 248.964274 
L 395.296747 237.694167 
L 396.993311 232.049163 
L 398.689875 232.508012 
L 400.38644 238.340327 
L 402.083004 247.854233 
L 403.779568 258.79812 
L 405.476133 268.834514 
L 407.172697 275.995203 
L 408.869261 279.034796 
L 410.565825 277.622841 
L 412.26239 272.347691 
L 413.958954 264.541917 
L 415.655518 255.972378 
L 417.352083 248.461843 
L 419.048647 243.519147 
L 420.745211 242.049928 
L 422.441776 244.201287 
L 424.13834 249.365483 
L 427.531469 263.576182 
L 429.228033 269.551121 
L 430.924597 273.039967 
L 432.621161 273.380181 
L 434.317726 270.587871 
L 436.01429 265.336012 
L 439.407419 252.392395 
L 441.103983 247.480729 
L 442.800547 245.085112 
L 444.497112 245.679342 
L 446.193676 249.097697 
L 447.89024 254.577793 
L 449.586804 260.927189 
L 451.283369 266.778105 
L 452.979933 270.876837 
L 454.676497 272.347691 
L 456.373062 270.876837 
L 458.069626 266.778105 
L 459.76619 260.927189 
L 461.462755 254.577793 
L 463.159319 249.097697 
L 464.855883 245.679342 
L 466.552448 245.085112 
L 468.249012 247.480729 
L 469.945576 252.392395 
L 473.338705 265.336012 
L 475.035269 270.587871 
L 476.731833 273.380181 
L 478.428398 273.039967 
L 480.124962 269.551121 
L 481.821526 263.576182 
L 485.214655 249.365483 
L 486.911219 244.201287 
L 488.607784 242.049928 
L 490.304348 243.519147 
L 492.000912 248.461843 
L 493.697476 255.972378 
L 495.394041 264.541917 
L 497.090605 272.347691 
L 498.787169 277.622841 
L 500.483734 279.034796 
L 502.180298 275.995203 
L 503.876862 268.834514 
L 505.573427 258.79812 
L 507.269991 247.854233 
L 508.966555 238.340327 
L 510.663119 232.508012 
L 512.359684 232.049163 
L 514.056248 237.694167 
L 515.752812 248.964274 
L 517.449377 264.135225 
L 519.145941 280.432749 
L 520.842505 294.438525 
L 522.53907 302.645455 
L 524.235634 302.071029 
L 525.932198 290.822898 
L 527.628763 268.514763 
L 529.325327 236.453053 
L 531.021891 197.552064 
L 534.41502 116.592257 
L 536.111584 84.220273 
L 537.808148 62.961503 
L 539.504713 55.554545 
L 541.201277 62.961503 
L 542.897841 84.220273 
L 544.594406 116.592257 
L 549.684099 236.453053 
L 551.380663 268.514763 
L 553.077227 290.822898 
L 554.773791 302.071029 
L 556.470356 302.645455 
L 558.16692 294.438525 
L 559.863484 280.432749 
L 561.560049 264.135225 
L 563.256613 248.964274 
L 564.953177 237.694167 
L 566.649742 232.049163 
L 568.346306 232.508012 
L 570.04287 238.340327 
L 571.739434 247.854233 
L 573.435999 258.79812 
L 575.132563 268.834514 
L 576.829127 275.995203 
L 578.525692 279.034796 
L 580.222256 277.622841 
L 581.91882 272.347691 
L 583.615385 264.541917 
L 585.311949 255.972378 
L 587.008513 248.461843 
L 588.705078 243.519147 
L 590.401642 242.049928 
L 592.098206 244.201287 
L 593.79477 249.365483 
L 597.187899 263.576182 
L 598.884463 269.551121 
L 600.581028 273.039967 
L 602.277592 273.380181 
L 603.974156 270.587871 
L 605.670721 265.336012 
L 609.063849 252.392395 
L 610.760413 247.480729 
L 612.456978 245.085112 
L 614.153542 245.679342 
L 615.850106 249.097697 
L 617.546671 254.577793 
L 619.243235 260.927189 
L 620.939799 266.778105 
L 622.636364 270.876837 
L 622.636364 270.876837 
" style="fill:none;stroke:#ff7f0e;stroke-linecap:square;stroke-width:1.5;"/>
   </g>
   <g id="patch_3">
    <path d="M 90 315 
L 90 43.2 
" style="fill:none;stroke:#000000;stroke-linecap:square;stroke-linejoin:miter;stroke-width:0.8;"/>
   </g>
   <g id="patch_4">
    <path d="M 648 315 
L 648 43.2 
" style="fill:none;stroke:#000000;stroke-linecap:square;stroke-linejoin:miter;stroke-width:0.8;"/>
   </g>
   <g id="patch_5">
    <path d="M 90 315 
L 648 315 
" style="fill:none;stroke:#000000;stroke-linecap:square;stroke-linejoin:miter;stroke-width:0.8;"/>
   </g>
   <g id="patch_6">
    <path d="M 90 43.2 
L 648 43.2 
" style="fill:none;stroke:#000000;stroke-linecap:square;stroke-linejoin:miter;stroke-width:0.8;"/>
   </g>
   <g id="legend_1">
    <g id="patch_7">
     <path d="M 574 80.55625 
L 641 80.55625 
Q 643 80.55625 643 78.55625 
L 643 50.2 
Q 643 48.2 641 48.2 
L 574 48.2 
Q 572 48.2 572 50.2 
L 572 78.55625 
Q 572 80.55625 574 80.55625 
z
" style="fill:#ffffff;opacity:0.8;stroke:#cccccc;stroke-linejoin:miter;"/>
    </g>
    <g id="line2d_18">
     <path d="M 576 56.298437 
L 596 56.298437 
" style="fill:none;stroke:#1f77b4;stroke-linecap:square;stroke-width:1.5;"/>
    </g>
    <g id="line2d_19"/>
    <g id="text_16">
     <!-- $N$ = 8 -->
     <g transform="translate(604 59.798437)scale(0.1 -0.1)">
      <defs>
       <path d="M 1081 4666 
L 1931 4666 
L 3219 666 
L 4000 4666 
L 4616 4666 
L 3706 0 
L 2853 0 
L 1569 4025 
L 788 0 
L 172 0 
L 1081 4666 
z
" id="DejaVuSans-Oblique-4e" transform="scale(0.015625)"/>
       <path id="DejaVuSans-20" transform="scale(0.015625)"/>
       <path d="M 678 2906 
L 4684 2906 
L 4684 2381 
L 678 2381 
L 678 2906 
z
M 678 1631 
L 4684 1631 
L 4684 1100 
L 678 1100 
L 678 1631 
z
" id="DejaVuSans-3d" transform="scale(0.015625)"/>
       <path d="M 2034 2216 
Q 1584 2216 1326 1975 
Q 1069 1734 1069 1313 
Q 1069 891 1326 650 
Q 1584 409 2034 409 
Q 2484 409 2743 651 
Q 3003 894 3003 1313 
Q 3003 1734 2745 1975 
Q 2488 2216 2034 2216 
z
M 1403 2484 
Q 997 2584 770 2862 
Q 544 3141 544 3541 
Q 544 4100 942 4425 
Q 1341 4750 2034 4750 
Q 2731 4750 3128 4425 
Q 3525 4100 3525 3541 
Q 3525 3141 3298 2862 
Q 3072 2584 2669 2484 
Q 3125 2378 3379 2068 
Q 3634 1759 3634 1313 
Q 3634 634 3220 271 
Q 2806 -91 2034 -91 
Q 1263 -91 848 271 
Q 434 634 434 1313 
Q 434 1759 690 2068 
Q 947 2378 1403 2484 
z
M 1172 3481 
Q 1172 3119 1398 2916 
Q 1625 2713 2034 2713 
Q 2441 2713 2670 2916 
Q 2900 3119 2900 3481 
Q 2900 3844 2670 4047 
Q 2441 4250 2034 4250 
Q 1625 4250 1398 4047 
Q 1172 3844 1172 3481 
z
" id="DejaVuSans-38" transform="scale(0.015625)"/>
      </defs>
      <use transform="translate(0 0.78125)" xlink:href="#DejaVuSans-Oblique-4e"/>
      <use transform="translate(74.804688 0.78125)" xlink:href="#DejaVuSans-20"/>
      <use transform="translate(106.591797 0.78125)" xlink:href="#DejaVuSans-3d"/>
      <use transform="translate(190.380859 0.78125)" xlink:href="#DejaVuSans-20"/>
      <use transform="translate(222.167969 0.78125)" xlink:href="#DejaVuSans-38"/>
     </g>
    </g>
    <g id="line2d_20">
     <path d="M 576 70.976562 
L 596 70.976562 
" style="fill:none;stroke:#ff7f0e;stroke-linecap:square;stroke-width:1.5;"/>
    </g>
    <g id="line2d_21"/>
    <g id="text_17">
     <!-- $N$ = 14 -->
     <g transform="translate(604 74.476562)scale(0.1 -0.1)">
      <defs>
       <path d="M 2419 4116 
L 825 1625 
L 2419 1625 
L 2419 4116 
z
M 2253 4666 
L 3047 4666 
L 3047 1625 
L 3713 1625 
L 3713 1100 
L 3047 1100 
L 3047 0 
L 2419 0 
L 2419 1100 
L 313 1100 
L 313 1709 
L 2253 4666 
z
" id="DejaVuSans-34" transform="scale(0.015625)"/>
      </defs>
      <use transform="translate(0 0.09375)" xlink:href="#DejaVuSans-Oblique-4e"/>
      <use transform="translate(74.804688 0.09375)" xlink:href="#DejaVuSans-20"/>
      <use transform="translate(106.591797 0.09375)" xlink:href="#DejaVuSans-3d"/>
      <use transform="translate(190.380859 0.09375)" xlink:href="#DejaVuSans-20"/>
      <use transform="translate(222.167969 0.09375)" xlink:href="#DejaVuSans-31"/>
      <use transform="translate(285.791016 0.09375)" xlink:href="#DejaVuSans-34"/>
     </g>
    </g>
   </g>
  </g>
 </g>
 <defs>
  <clipPath id="p712873b760">
   <rect height="271.8" width="558" x="90" y="43.2"/>
  </clipPath>
 </defs>
</svg>
