<?xml version="1.0" encoding="utf-8" standalone="no"?>
<!DOCTYPE svg PUBLIC "-//W3C//DTD SVG 1.1//EN"
  "http://www.w3.org/Graphics/SVG/1.1/DTD/svg11.dtd">
<svg height="303.826776pt" version="1.1" viewBox="0 0 603.656131 303.826776" width="603.656131pt" xmlns="http://www.w3.org/2000/svg" xmlns:xlink="http://www.w3.org/1999/xlink">
 <metadata>
  <rdf:RDF xmlns:cc="http://creativecommons.org/ns#" xmlns:dc="http://purl.org/dc/elements/1.1/" xmlns:rdf="http://www.w3.org/1999/02/22-rdf-syntax-ns#">
   <cc:Work>
    <dc:type rdf:resource="http://purl.org/dc/dcmitype/StillImage"/>
    <dc:date>2021-10-04T17:01:22.162558</dc:date>
    <dc:format>image/svg+xml</dc:format>
    <dc:creator>
     <cc:Agent>
      <dc:title>Matplotlib v3.4.3, https://matplotlib.org/</dc:title>
     </cc:Agent>
    </dc:creator>
   </cc:Work>
  </rdf:RDF>
 </metadata>
 <defs>
  <style type="text/css">*{stroke-linecap:butt;stroke-linejoin:round;}</style>
 </defs>
 <g id="figure_1">
  <g id="patch_1">
   <path d="M 0 303.826776 
L 603.656131 303.826776 
L 603.656131 0 
L 0 0 
z
" style="fill:none;"/>
  </g>
  <g id="axes_1">
   <g id="patch_2">
    <path d="M 38.456131 279 
L 596.456131 279 
L 596.456131 7.2 
L 38.456131 7.2 
z
" style="fill:#ffffff;"/>
   </g>
   <g id="matplotlib.axis_1">
    <g id="xtick_1">
     <g id="line2d_1">
      <path clip-path="url(#p4ec06e62c0)" d="M 114.597818 279 
L 114.597818 7.2 
" style="fill:none;stroke:#b0b0b0;stroke-linecap:square;stroke-width:0.8;"/>
     </g>
     <g id="line2d_2">
      <defs>
       <path d="M 0 0 
L 0 3.5 
" id="m6d3001717b" style="stroke:#000000;stroke-width:0.8;"/>
      </defs>
      <g>
       <use style="stroke:#000000;stroke-width:0.8;" x="114.597818" xlink:href="#m6d3001717b" y="279"/>
      </g>
     </g>
     <g id="text_1">
      <!-- $\mathdefault{−0.4}$ -->
      <g transform="translate(102.469753 294.30218)scale(0.12 -0.12)">
       <defs>
        <path d="M 4218 1472 
C 4326 1472 4442 1472 4442 1600 
C 4442 1728 4326 1728 4218 1728 
L 755 1728 
C 646 1728 531 1728 531 1600 
C 531 1472 646 1472 755 1472 
L 4218 1472 
z
" id="CMSY10-0" transform="scale(0.015625)"/>
        <path d="M 2688 2025 
C 2688 2416 2682 3080 2413 3591 
C 2176 4039 1798 4198 1466 4198 
C 1158 4198 768 4058 525 3597 
C 269 3118 243 2524 243 2025 
C 243 1661 250 1106 448 619 
C 723 -39 1216 -128 1466 -128 
C 1760 -128 2208 -7 2470 600 
C 2662 1042 2688 1559 2688 2025 
z
M 1466 -26 
C 1056 -26 813 325 723 812 
C 653 1188 653 1738 653 2096 
C 653 2588 653 2997 736 3387 
C 858 3929 1216 4096 1466 4096 
C 1728 4096 2067 3923 2189 3400 
C 2272 3036 2278 2607 2278 2096 
C 2278 1680 2278 1169 2202 792 
C 2067 95 1690 -26 1466 -26 
z
" id="CMR17-30" transform="scale(0.015625)"/>
        <path d="M 1178 307 
C 1178 492 1024 619 870 619 
C 685 619 557 466 557 313 
C 557 128 710 0 864 0 
C 1050 0 1178 153 1178 307 
z
" id="CMMI12-3a" transform="scale(0.015625)"/>
        <path d="M 2150 4122 
C 2150 4256 2144 4256 2029 4256 
L 128 1254 
L 128 1088 
L 1779 1088 
L 1779 457 
C 1779 224 1766 160 1318 160 
L 1197 160 
L 1197 0 
C 1402 0 1747 0 1965 0 
C 2182 0 2528 0 2733 0 
L 2733 160 
L 2611 160 
C 2163 160 2150 224 2150 457 
L 2150 1088 
L 2803 1088 
L 2803 1254 
L 2150 1254 
L 2150 4122 
z
M 1798 3703 
L 1798 1254 
L 256 1254 
L 1798 3703 
z
" id="CMR17-34" transform="scale(0.015625)"/>
       </defs>
       <use transform="scale(0.996264)" xlink:href="#CMSY10-0"/>
       <use transform="translate(77.487468 0)scale(0.996264)" xlink:href="#CMR17-30"/>
       <use transform="translate(123.177945 0)scale(0.996264)" xlink:href="#CMMI12-3a"/>
       <use transform="translate(150.275122 0)scale(0.996264)" xlink:href="#CMR17-34"/>
      </g>
     </g>
    </g>
    <g id="xtick_2">
     <g id="line2d_3">
      <path clip-path="url(#p4ec06e62c0)" d="M 216.15392 279 
L 216.15392 7.2 
" style="fill:none;stroke:#b0b0b0;stroke-linecap:square;stroke-width:0.8;"/>
     </g>
     <g id="line2d_4">
      <g>
       <use style="stroke:#000000;stroke-width:0.8;" x="216.15392" xlink:href="#m6d3001717b" y="279"/>
      </g>
     </g>
     <g id="text_2">
      <!-- $\mathdefault{−0.2}$ -->
      <g transform="translate(204.025854 294.30218)scale(0.12 -0.12)">
       <defs>
        <path d="M 2669 989 
L 2554 989 
C 2490 536 2438 459 2413 420 
C 2381 369 1920 369 1830 369 
L 602 369 
C 832 619 1280 1072 1824 1597 
C 2214 1967 2669 2402 2669 3035 
C 2669 3790 2067 4224 1395 4224 
C 691 4224 262 3604 262 3030 
C 262 2780 448 2748 525 2748 
C 589 2748 781 2787 781 3010 
C 781 3207 614 3264 525 3264 
C 486 3264 448 3258 422 3245 
C 544 3790 915 4058 1306 4058 
C 1862 4058 2227 3617 2227 3035 
C 2227 2479 1901 2000 1536 1584 
L 262 146 
L 262 0 
L 2515 0 
L 2669 989 
z
" id="CMR17-32" transform="scale(0.015625)"/>
       </defs>
       <use transform="scale(0.996264)" xlink:href="#CMSY10-0"/>
       <use transform="translate(77.487468 0)scale(0.996264)" xlink:href="#CMR17-30"/>
       <use transform="translate(123.177945 0)scale(0.996264)" xlink:href="#CMMI12-3a"/>
       <use transform="translate(150.275122 0)scale(0.996264)" xlink:href="#CMR17-32"/>
      </g>
     </g>
    </g>
    <g id="xtick_3">
     <g id="line2d_5">
      <path clip-path="url(#p4ec06e62c0)" d="M 317.710021 279 
L 317.710021 7.2 
" style="fill:none;stroke:#b0b0b0;stroke-linecap:square;stroke-width:0.8;"/>
     </g>
     <g id="line2d_6">
      <g>
       <use style="stroke:#000000;stroke-width:0.8;" x="317.710021" xlink:href="#m6d3001717b" y="279"/>
      </g>
     </g>
     <g id="text_3">
      <!-- $\mathdefault{0.0}$ -->
      <g transform="translate(310.231201 294.30218)scale(0.12 -0.12)">
       <use transform="scale(0.996264)" xlink:href="#CMR17-30"/>
       <use transform="translate(45.690477 0)scale(0.996264)" xlink:href="#CMMI12-3a"/>
       <use transform="translate(72.787654 0)scale(0.996264)" xlink:href="#CMR17-30"/>
      </g>
     </g>
    </g>
    <g id="xtick_4">
     <g id="line2d_7">
      <path clip-path="url(#p4ec06e62c0)" d="M 419.266123 279 
L 419.266123 7.2 
" style="fill:none;stroke:#b0b0b0;stroke-linecap:square;stroke-width:0.8;"/>
     </g>
     <g id="line2d_8">
      <g>
       <use style="stroke:#000000;stroke-width:0.8;" x="419.266123" xlink:href="#m6d3001717b" y="279"/>
      </g>
     </g>
     <g id="text_4">
      <!-- $\mathdefault{0.2}$ -->
      <g transform="translate(411.787302 294.30218)scale(0.12 -0.12)">
       <use transform="scale(0.996264)" xlink:href="#CMR17-30"/>
       <use transform="translate(45.690477 0)scale(0.996264)" xlink:href="#CMMI12-3a"/>
       <use transform="translate(72.787654 0)scale(0.996264)" xlink:href="#CMR17-32"/>
      </g>
     </g>
    </g>
    <g id="xtick_5">
     <g id="line2d_9">
      <path clip-path="url(#p4ec06e62c0)" d="M 520.822225 279 
L 520.822225 7.2 
" style="fill:none;stroke:#b0b0b0;stroke-linecap:square;stroke-width:0.8;"/>
     </g>
     <g id="line2d_10">
      <g>
       <use style="stroke:#000000;stroke-width:0.8;" x="520.822225" xlink:href="#m6d3001717b" y="279"/>
      </g>
     </g>
     <g id="text_5">
      <!-- $\mathdefault{0.4}$ -->
      <g transform="translate(513.343404 294.30218)scale(0.12 -0.12)">
       <use transform="scale(0.996264)" xlink:href="#CMR17-30"/>
       <use transform="translate(45.690477 0)scale(0.996264)" xlink:href="#CMMI12-3a"/>
       <use transform="translate(72.787654 0)scale(0.996264)" xlink:href="#CMR17-34"/>
      </g>
     </g>
    </g>
   </g>
   <g id="matplotlib.axis_2">
    <g id="ytick_1">
     <g id="line2d_11">
      <path clip-path="url(#p4ec06e62c0)" d="M 38.456131 255.754257 
L 596.456131 255.754257 
" style="fill:none;stroke:#b0b0b0;stroke-linecap:square;stroke-width:0.8;"/>
     </g>
     <g id="line2d_12">
      <defs>
       <path d="M 0 0 
L -3.5 0 
" id="m389f6f6584" style="stroke:#000000;stroke-width:0.8;"/>
      </defs>
      <g>
       <use style="stroke:#000000;stroke-width:0.8;" x="38.456131" xlink:href="#m389f6f6584" y="255.754257"/>
      </g>
     </g>
     <g id="text_6">
      <!-- $\mathdefault{−2.5}$ -->
      <g transform="translate(7.2 259.905347)scale(0.12 -0.12)">
       <defs>
        <path d="M 730 3692 
C 794 3666 1056 3584 1325 3584 
C 1920 3584 2246 3911 2432 4100 
C 2432 4157 2432 4192 2394 4192 
C 2387 4192 2374 4192 2323 4163 
C 2099 4058 1837 3973 1517 3973 
C 1325 3973 1037 3999 723 4139 
C 653 4171 640 4171 634 4171 
C 602 4171 595 4164 595 4037 
L 595 2203 
C 595 2089 595 2057 659 2057 
C 691 2057 704 2070 736 2114 
C 941 2401 1222 2522 1542 2522 
C 1766 2522 2246 2382 2246 1289 
C 2246 1085 2246 715 2054 421 
C 1894 159 1645 25 1370 25 
C 947 25 518 320 403 814 
C 429 807 480 795 506 795 
C 589 795 749 840 749 1038 
C 749 1210 627 1280 506 1280 
C 358 1280 262 1190 262 1011 
C 262 454 704 -128 1382 -128 
C 2042 -128 2669 440 2669 1264 
C 2669 2030 2170 2624 1549 2624 
C 1222 2624 947 2503 730 2274 
L 730 3692 
z
" id="CMR17-35" transform="scale(0.015625)"/>
       </defs>
       <use transform="scale(0.996264)" xlink:href="#CMSY10-0"/>
       <use transform="translate(77.487468 0)scale(0.996264)" xlink:href="#CMR17-32"/>
       <use transform="translate(123.177945 0)scale(0.996264)" xlink:href="#CMMI12-3a"/>
       <use transform="translate(150.275122 0)scale(0.996264)" xlink:href="#CMR17-35"/>
      </g>
     </g>
    </g>
    <g id="ytick_2">
     <g id="line2d_13">
      <path clip-path="url(#p4ec06e62c0)" d="M 38.456131 222.011441 
L 596.456131 222.011441 
" style="fill:none;stroke:#b0b0b0;stroke-linecap:square;stroke-width:0.8;"/>
     </g>
     <g id="line2d_14">
      <g>
       <use style="stroke:#000000;stroke-width:0.8;" x="38.456131" xlink:href="#m389f6f6584" y="222.011441"/>
      </g>
     </g>
     <g id="text_7">
      <!-- $\mathdefault{0.0}$ -->
      <g transform="translate(16.498489 226.162531)scale(0.12 -0.12)">
       <use transform="scale(0.996264)" xlink:href="#CMR17-30"/>
       <use transform="translate(45.690477 0)scale(0.996264)" xlink:href="#CMMI12-3a"/>
       <use transform="translate(72.787654 0)scale(0.996264)" xlink:href="#CMR17-30"/>
      </g>
     </g>
    </g>
    <g id="ytick_3">
     <g id="line2d_15">
      <path clip-path="url(#p4ec06e62c0)" d="M 38.456131 188.268625 
L 596.456131 188.268625 
" style="fill:none;stroke:#b0b0b0;stroke-linecap:square;stroke-width:0.8;"/>
     </g>
     <g id="line2d_16">
      <g>
       <use style="stroke:#000000;stroke-width:0.8;" x="38.456131" xlink:href="#m389f6f6584" y="188.268625"/>
      </g>
     </g>
     <g id="text_8">
      <!-- $\mathdefault{2.5}$ -->
      <g transform="translate(16.498489 192.419715)scale(0.12 -0.12)">
       <use transform="scale(0.996264)" xlink:href="#CMR17-32"/>
       <use transform="translate(45.690477 0)scale(0.996264)" xlink:href="#CMMI12-3a"/>
       <use transform="translate(72.787654 0)scale(0.996264)" xlink:href="#CMR17-35"/>
      </g>
     </g>
    </g>
    <g id="ytick_4">
     <g id="line2d_17">
      <path clip-path="url(#p4ec06e62c0)" d="M 38.456131 154.525809 
L 596.456131 154.525809 
" style="fill:none;stroke:#b0b0b0;stroke-linecap:square;stroke-width:0.8;"/>
     </g>
     <g id="line2d_18">
      <g>
       <use style="stroke:#000000;stroke-width:0.8;" x="38.456131" xlink:href="#m389f6f6584" y="154.525809"/>
      </g>
     </g>
     <g id="text_9">
      <!-- $\mathdefault{5.0}$ -->
      <g transform="translate(16.498489 158.676899)scale(0.12 -0.12)">
       <use transform="scale(0.996264)" xlink:href="#CMR17-35"/>
       <use transform="translate(45.690477 0)scale(0.996264)" xlink:href="#CMMI12-3a"/>
       <use transform="translate(72.787654 0)scale(0.996264)" xlink:href="#CMR17-30"/>
      </g>
     </g>
    </g>
    <g id="ytick_5">
     <g id="line2d_19">
      <path clip-path="url(#p4ec06e62c0)" d="M 38.456131 120.782993 
L 596.456131 120.782993 
" style="fill:none;stroke:#b0b0b0;stroke-linecap:square;stroke-width:0.8;"/>
     </g>
     <g id="line2d_20">
      <g>
       <use style="stroke:#000000;stroke-width:0.8;" x="38.456131" xlink:href="#m389f6f6584" y="120.782993"/>
      </g>
     </g>
     <g id="text_10">
      <!-- $\mathdefault{7.5}$ -->
      <g transform="translate(16.498489 124.934083)scale(0.12 -0.12)">
       <defs>
        <path d="M 2886 3941 
L 2886 4081 
L 1382 4081 
C 634 4081 621 4165 595 4288 
L 480 4288 
L 294 3094 
L 410 3094 
C 429 3215 474 3540 550 3661 
C 589 3712 1062 3712 1171 3712 
L 2579 3712 
L 1869 2661 
C 1395 1954 1069 999 1069 165 
C 1069 89 1069 -128 1299 -128 
C 1530 -128 1530 89 1530 171 
L 1530 465 
C 1530 1508 1709 2196 2003 2636 
L 2886 3941 
z
" id="CMR17-37" transform="scale(0.015625)"/>
       </defs>
       <use transform="scale(0.996264)" xlink:href="#CMR17-37"/>
       <use transform="translate(45.690477 0)scale(0.996264)" xlink:href="#CMMI12-3a"/>
       <use transform="translate(72.787654 0)scale(0.996264)" xlink:href="#CMR17-35"/>
      </g>
     </g>
    </g>
    <g id="ytick_6">
     <g id="line2d_21">
      <path clip-path="url(#p4ec06e62c0)" d="M 38.456131 87.040177 
L 596.456131 87.040177 
" style="fill:none;stroke:#b0b0b0;stroke-linecap:square;stroke-width:0.8;"/>
     </g>
     <g id="line2d_22">
      <g>
       <use style="stroke:#000000;stroke-width:0.8;" x="38.456131" xlink:href="#m389f6f6584" y="87.040177"/>
      </g>
     </g>
     <g id="text_11">
      <!-- $\mathdefault{10.0}$ -->
      <g transform="translate(10.645499 91.191267)scale(0.12 -0.12)">
       <defs>
        <path d="M 1702 4058 
C 1702 4192 1696 4192 1606 4192 
C 1357 3916 979 3827 621 3827 
C 602 3827 570 3827 563 3808 
C 557 3795 557 3782 557 3648 
C 755 3648 1088 3686 1344 3839 
L 1344 461 
C 1344 236 1331 160 781 160 
L 589 160 
L 589 0 
C 896 0 1216 0 1523 0 
C 1830 0 2150 0 2458 0 
L 2458 160 
L 2266 160 
C 1715 160 1702 230 1702 458 
L 1702 4058 
z
" id="CMR17-31" transform="scale(0.015625)"/>
       </defs>
       <use transform="scale(0.996264)" xlink:href="#CMR17-31"/>
       <use transform="translate(45.690477 0)scale(0.996264)" xlink:href="#CMR17-30"/>
       <use transform="translate(91.380954 0)scale(0.996264)" xlink:href="#CMMI12-3a"/>
       <use transform="translate(118.478131 0)scale(0.996264)" xlink:href="#CMR17-30"/>
      </g>
     </g>
    </g>
    <g id="ytick_7">
     <g id="line2d_23">
      <path clip-path="url(#p4ec06e62c0)" d="M 38.456131 53.297361 
L 596.456131 53.297361 
" style="fill:none;stroke:#b0b0b0;stroke-linecap:square;stroke-width:0.8;"/>
     </g>
     <g id="line2d_24">
      <g>
       <use style="stroke:#000000;stroke-width:0.8;" x="38.456131" xlink:href="#m389f6f6584" y="53.297361"/>
      </g>
     </g>
     <g id="text_12">
      <!-- $\mathdefault{12.5}$ -->
      <g transform="translate(10.645499 57.448451)scale(0.12 -0.12)">
       <use transform="scale(0.996264)" xlink:href="#CMR17-31"/>
       <use transform="translate(45.690477 0)scale(0.996264)" xlink:href="#CMR17-32"/>
       <use transform="translate(91.380954 0)scale(0.996264)" xlink:href="#CMMI12-3a"/>
       <use transform="translate(118.478131 0)scale(0.996264)" xlink:href="#CMR17-35"/>
      </g>
     </g>
    </g>
    <g id="ytick_8">
     <g id="line2d_25">
      <path clip-path="url(#p4ec06e62c0)" d="M 38.456131 19.554545 
L 596.456131 19.554545 
" style="fill:none;stroke:#b0b0b0;stroke-linecap:square;stroke-width:0.8;"/>
     </g>
     <g id="line2d_26">
      <g>
       <use style="stroke:#000000;stroke-width:0.8;" x="38.456131" xlink:href="#m389f6f6584" y="19.554545"/>
      </g>
     </g>
     <g id="text_13">
      <!-- $\mathdefault{15.0}$ -->
      <g transform="translate(10.645499 23.705635)scale(0.12 -0.12)">
       <use transform="scale(0.996264)" xlink:href="#CMR17-31"/>
       <use transform="translate(45.690477 0)scale(0.996264)" xlink:href="#CMR17-35"/>
       <use transform="translate(91.380954 0)scale(0.996264)" xlink:href="#CMMI12-3a"/>
       <use transform="translate(118.478131 0)scale(0.996264)" xlink:href="#CMR17-30"/>
      </g>
     </g>
    </g>
   </g>
   <g id="line2d_27">
    <path clip-path="url(#p4ec06e62c0)" d="M 63.819768 208.514315 
L 66.35867 208.647318 
L 68.897573 209.043837 
L 71.436475 209.696445 
L 73.975378 210.592909 
L 76.51428 211.71641 
L 79.560963 213.334303 
L 82.607646 215.204709 
L 86.16211 217.637908 
L 91.239915 221.409355 
L 99.872184 227.864852 
L 103.426647 230.259709 
L 106.47333 232.082176 
L 109.520013 233.63623 
L 112.058916 234.69284 
L 114.597818 235.508568 
L 117.136721 236.065295 
L 119.675623 236.349567 
L 121.706745 236.374933 
L 123.737867 236.218408 
L 125.768989 235.880167 
L 128.307892 235.205615 
L 130.846795 234.260298 
L 133.385697 233.058729 
L 135.9246 231.620397 
L 138.971283 229.61622 
L 142.525746 226.958403 
L 146.58799 223.61375 
L 160.298064 212.009412 
L 163.344747 209.817604 
L 166.39143 207.917037 
L 168.930333 206.599655 
L 171.469235 205.557823 
L 173.500357 204.940879 
L 175.531479 204.528948 
L 177.562601 204.331316 
L 179.593723 204.354961 
L 181.624845 204.604426 
L 183.655967 205.08173 
L 185.687089 205.786296 
L 187.718211 206.714904 
L 189.749333 207.861677 
L 192.288236 209.588704 
L 194.827139 211.620739 
L 197.366041 213.929261 
L 200.412724 217.015681 
L 203.967188 220.963381 
L 209.044993 227.004467 
L 216.6617 236.089304 
L 220.216164 239.957473 
L 223.262847 242.913058 
L 225.80175 245.046476 
L 227.832872 246.498039 
L 229.863994 247.694107 
L 231.895116 248.609976 
L 233.926238 249.22288 
L 235.449579 249.471269 
L 236.972921 249.52982 
L 238.496262 249.391556 
L 240.019604 249.050364 
L 241.542945 248.501044 
L 243.066287 247.73934 
L 244.589628 246.761981 
L 246.11297 245.566707 
L 248.144092 243.632066 
L 250.175214 241.307988 
L 252.206336 238.597883 
L 254.237458 235.508568 
L 256.26858 232.050261 
L 258.807483 227.229486 
L 261.346385 221.887346 
L 263.885288 216.065272 
L 266.931971 208.514315 
L 270.486434 199.050318 
L 274.548678 187.586801 
L 282.165386 165.227421 
L 287.750971 149.121731 
L 291.813216 138.110212 
L 294.859899 130.45469 
L 297.398801 124.570685 
L 299.937704 119.208613 
L 302.476606 114.429618 
L 304.507728 111.063284 
L 306.53885 108.130119 
L 308.569972 105.651798 
L 310.093314 104.102721 
L 311.616655 102.826361 
L 313.139997 101.828052 
L 314.663338 101.111973 
L 316.18668 100.681122 
L 317.710021 100.537304 
L 319.233363 100.681122 
L 320.756704 101.111973 
L 322.280046 101.828052 
L 323.803388 102.826361 
L 325.326729 104.102721 
L 326.850071 105.651798 
L 328.373412 107.467122 
L 330.404534 110.288482 
L 332.435656 113.54873 
L 334.466778 117.223827 
L 337.005681 122.359667 
L 339.544583 128.04261 
L 342.591266 135.493034 
L 346.14573 144.901255 
L 350.207974 156.345037 
L 357.316901 177.207745 
L 363.410267 194.818781 
L 367.472511 205.875774 
L 370.519194 213.612736 
L 373.565877 220.759869 
L 376.10478 226.20155 
L 378.643682 231.129548 
L 381.182585 235.508568 
L 383.213707 238.597883 
L 385.244829 241.307988 
L 387.275951 243.632066 
L 389.307073 245.566707 
L 390.830415 246.761981 
L 392.353756 247.73934 
L 393.877098 248.501044 
L 395.400439 249.050364 
L 396.923781 249.391556 
L 398.447122 249.52982 
L 399.970464 249.471269 
L 401.493805 249.22288 
L 403.017147 248.792448 
L 405.048269 247.950267 
L 407.079391 246.822004 
L 409.110513 245.431903 
L 411.649415 243.365799 
L 414.188318 240.985178 
L 417.235001 237.793095 
L 420.789465 233.734605 
L 427.898392 225.162649 
L 432.976197 219.232888 
L 436.53066 215.433025 
L 439.577343 212.512767 
L 442.116246 210.366379 
L 444.655148 208.514315 
L 447.194051 206.981432 
L 449.225173 205.997628 
L 451.256295 205.236646 
L 453.287417 204.70237 
L 455.318539 204.396034 
L 457.349661 204.316263 
L 459.380783 204.459136 
L 461.411905 204.818275 
L 463.443027 205.384958 
L 465.474149 206.148256 
L 468.013052 207.358917 
L 470.551954 208.826966 
L 473.598637 210.881147 
L 477.153101 213.599714 
L 481.723125 217.434283 
L 492.386516 226.555528 
L 495.94098 229.255833 
L 498.987663 231.306368 
L 501.526565 232.789296 
L 504.065468 234.039931 
L 506.60437 235.037822 
L 509.143273 235.767442 
L 511.682175 236.218408 
L 513.713297 236.374933 
L 515.744419 236.349567 
L 517.775542 236.144291 
L 520.314444 235.641133 
L 522.853347 234.8759 
L 525.392249 233.865805 
L 527.931152 232.632439 
L 530.977835 230.893892 
L 534.532298 228.573791 
L 539.102323 225.269124 
L 551.289055 216.218969 
L 554.843519 213.932091 
L 557.890202 212.224789 
L 560.936885 210.800062 
L 563.475787 209.856703 
L 566.01469 209.154195 
L 568.553592 208.705708 
L 571.092495 208.519643 
L 571.092495 208.519643 
" style="fill:none;stroke:#1f77b4;stroke-linecap:square;stroke-width:1.5;"/>
   </g>
   <g id="line2d_28">
    <path clip-path="url(#p4ec06e62c0)" d="M 63.819768 235.508568 
L 65.343109 235.374509 
L 66.866451 234.97495 
L 68.389792 234.317685 
L 69.913134 233.415545 
L 71.436475 232.286143 
L 73.467597 230.465477 
L 75.498719 228.343672 
L 78.037622 225.381069 
L 87.177671 214.345017 
L 89.208793 212.348566 
L 91.239915 210.685644 
L 92.763256 209.693684 
L 94.286598 208.943441 
L 95.80994 208.450556 
L 97.333281 208.225697 
L 98.856623 208.274339 
L 100.379964 208.596635 
L 101.903306 209.187393 
L 103.426647 210.036155 
L 104.949989 211.127375 
L 106.981111 212.923665 
L 109.012233 215.053983 
L 111.551135 218.075484 
L 115.613379 223.349759 
L 119.675623 228.524028 
L 122.214526 231.382053 
L 124.245648 233.326563 
L 125.768989 234.537836 
L 127.292331 235.508568 
L 128.815673 236.217741 
L 130.339014 236.649282 
L 131.862356 236.792411 
L 133.385697 236.641888 
L 134.909039 236.198164 
L 136.43238 235.467415 
L 137.955722 234.461475 
L 139.479063 233.197655 
L 141.510185 231.15101 
L 143.541307 228.752881 
L 146.08021 225.383059 
L 151.158015 218.097162 
L 154.204698 213.906245 
L 156.23582 211.397413 
L 158.266942 209.225088 
L 159.790284 207.866376 
L 161.313625 206.773052 
L 162.836967 205.970124 
L 164.360308 205.477269 
L 165.88365 205.308389 
L 166.899211 205.379893 
L 168.422552 205.765145 
L 169.945894 206.480968 
L 171.469235 207.518031 
L 172.992577 208.860627 
L 174.515918 210.486878 
L 176.54704 213.047764 
L 178.578162 215.982673 
L 181.117065 220.031443 
L 189.241553 233.365649 
L 191.272675 236.173949 
L 192.796017 238.000791 
L 194.319358 239.542567 
L 195.8427 240.763299 
L 197.366041 241.632507 
L 198.381602 242.004412 
L 199.397163 242.203587 
L 200.412724 242.225878 
L 201.428285 242.068582 
L 202.443846 241.730493 
L 203.459407 241.211928 
L 204.474968 240.51475 
L 205.99831 239.141962 
L 207.521651 237.393318 
L 209.044993 235.294432 
L 211.076115 232.008989 
L 213.107237 228.256911 
L 215.646139 223.08848 
L 223.770627 206.04547 
L 225.80175 202.449651 
L 227.325091 200.112669 
L 228.848433 198.145885 
L 230.371774 196.599146 
L 231.387335 195.823092 
L 232.402896 195.264276 
L 233.418457 194.932217 
L 234.434018 194.834753 
L 235.449579 194.97795 
L 236.46514 195.366019 
L 237.480701 196.001243 
L 238.496262 196.883922 
L 239.511823 198.012333 
L 241.035165 200.156868 
L 242.558506 202.823854 
L 244.081848 205.981432 
L 245.605189 209.587568 
L 247.636311 215.002618 
L 250.175214 222.533901 
L 254.237458 235.508568 
L 257.791922 246.649633 
L 259.823044 252.435915 
L 261.854166 257.513896 
L 263.377507 260.723656 
L 264.900849 263.321051 
L 265.91641 264.671126 
L 266.931971 265.68906 
L 267.947532 266.353559 
L 268.963093 266.645109 
L 269.978654 266.546131 
L 270.994215 266.041135 
L 272.009776 265.116857 
L 273.025337 263.762385 
L 274.040898 261.969263 
L 275.056459 259.731595 
L 276.07202 257.046117 
L 277.595361 252.177767 
L 279.118703 246.310897 
L 280.642044 239.469226 
L 282.165386 231.690475 
L 284.196508 219.952034 
L 286.22763 206.799274 
L 288.766532 188.673963 
L 291.813216 165.073191 
L 302.476606 80.356003 
L 305.015509 63.078704 
L 307.046631 50.894334 
L 308.569972 42.878277 
L 310.093314 35.92902 
L 311.616655 30.127999 
L 312.632216 26.932833 
L 313.647777 24.295375 
L 314.663338 22.229482 
L 315.678899 20.746022 
L 316.69446 19.852808 
L 317.202241 19.629136 
L 317.710021 19.554545 
L 318.217802 19.629136 
L 318.725582 19.852808 
L 319.233363 20.225267 
L 320.248924 21.414387 
L 321.264485 23.190233 
L 322.280046 25.543456 
L 323.295607 28.461684 
L 324.311168 31.929596 
L 325.83451 38.121618 
L 327.357851 45.436144 
L 328.881193 53.787584 
L 330.912315 66.366246 
L 332.943437 80.356003 
L 335.482339 99.392371 
L 339.036803 127.859421 
L 345.637949 180.993201 
L 348.176852 199.752864 
L 350.715754 216.789357 
L 352.746876 228.897827 
L 354.777999 239.469226 
L 356.30134 246.310897 
L 357.824682 252.177767 
L 359.348023 257.046117 
L 360.363584 259.731595 
L 361.379145 261.969263 
L 362.394706 263.762385 
L 363.410267 265.116857 
L 364.425828 266.041135 
L 365.441389 266.546131 
L 366.45695 266.645109 
L 367.472511 266.353559 
L 368.488072 265.68906 
L 369.503633 264.671126 
L 370.519194 263.321051 
L 371.534755 261.661732 
L 373.058097 258.646473 
L 374.581438 255.077551 
L 376.61256 249.617092 
L 379.151463 241.982755 
L 387.783732 215.002618 
L 389.814854 209.587568 
L 391.845976 204.876785 
L 393.369317 201.878563 
L 394.892659 199.382698 
L 396.416 197.417599 
L 397.431561 196.411711 
L 398.447122 195.652671 
L 399.462683 195.141187 
L 400.478244 194.875961 
L 401.493805 194.853739 
L 402.509366 195.069372 
L 403.524927 195.515897 
L 404.540488 196.184622 
L 405.556049 197.06523 
L 407.079391 198.757148 
L 408.602732 200.853156 
L 410.126074 203.301506 
L 412.157196 207.015437 
L 414.696098 212.175301 
L 422.820587 229.232645 
L 424.851709 232.878221 
L 426.882831 236.03109 
L 428.406172 238.016534 
L 429.929514 239.642367 
L 431.452855 240.885489 
L 432.468416 241.49369 
L 433.483977 241.922153 
L 434.499538 242.169789 
L 435.515099 242.237046 
L 436.53066 242.125884 
L 437.546221 241.839736 
L 438.561782 241.383464 
L 440.085124 240.394063 
L 441.608465 239.062643 
L 443.131807 237.421597 
L 445.162929 234.817614 
L 447.194051 231.83176 
L 450.240734 226.882802 
L 456.3341 216.763993 
L 458.873003 213.047764 
L 460.904125 210.486878 
L 462.427466 208.860627 
L 463.950808 207.518031 
L 465.474149 206.480968 
L 466.997491 205.765145 
L 468.520832 205.379893 
L 470.044174 205.328076 
L 471.567515 205.60612 
L 473.090857 206.20417 
L 474.614198 207.106357 
L 476.13754 208.291171 
L 477.660881 209.731943 
L 479.692003 211.996518 
L 482.230906 215.258405 
L 485.78537 220.293902 
L 490.355394 226.77101 
L 492.894297 229.991192 
L 494.925419 232.222751 
L 496.956541 234.067847 
L 498.479882 235.161934 
L 500.003224 235.986003 
L 501.526565 236.52637 
L 503.049907 236.77496 
L 504.573248 236.729412 
L 506.09659 236.39308 
L 507.619931 235.77492 
L 509.143273 234.889275 
L 510.666614 233.755559 
L 512.697736 231.90027 
L 514.728858 229.715565 
L 517.267761 226.642595 
L 526.915591 214.493859 
L 528.946713 212.440699 
L 530.977835 210.737856 
L 532.501176 209.725425 
L 534.024518 208.961183 
L 535.547859 208.459008 
L 537.071201 208.227616 
L 538.594542 208.270422 
L 540.117884 208.585492 
L 541.641225 209.1656 
L 543.164567 209.99839 
L 544.687908 211.066631 
L 546.71903 212.819005 
L 548.750152 214.888148 
L 551.289055 217.80745 
L 556.36686 224.13227 
L 559.413543 227.774612 
L 561.952446 230.465477 
L 563.983568 232.286143 
L 565.506909 233.415545 
L 567.030251 234.317685 
L 568.553592 234.97495 
L 570.076934 235.374509 
L 571.092495 235.493651 
L 571.092495 235.493651 
" style="fill:none;stroke:#ff7f0e;stroke-linecap:square;stroke-width:1.5;"/>
   </g>
   <g id="patch_3">
    <path d="M 38.456131 279 
L 38.456131 7.2 
" style="fill:none;stroke:#000000;stroke-linecap:square;stroke-linejoin:miter;stroke-width:0.8;"/>
   </g>
   <g id="patch_4">
    <path d="M 596.456131 279 
L 596.456131 7.2 
" style="fill:none;stroke:#000000;stroke-linecap:square;stroke-linejoin:miter;stroke-width:0.8;"/>
   </g>
   <g id="patch_5">
    <path d="M 38.456131 279 
L 596.456131 279 
" style="fill:none;stroke:#000000;stroke-linecap:square;stroke-linejoin:miter;stroke-width:0.8;"/>
   </g>
   <g id="patch_6">
    <path d="M 38.456131 7.2 
L 596.456131 7.2 
" style="fill:none;stroke:#000000;stroke-linecap:square;stroke-linejoin:miter;stroke-width:0.8;"/>
   </g>
   <g id="legend_1">
    <g id="patch_7">
     <path d="M 496.079369 57.424057 
L 586.656131 57.424057 
Q 589.456131 57.424057 589.456131 54.624057 
L 589.456131 17 
Q 589.456131 14.2 586.656131 14.2 
L 496.079369 14.2 
Q 493.279369 14.2 493.279369 17 
L 493.279369 54.624057 
Q 493.279369 57.424057 496.079369 57.424057 
z
" style="fill:#ffffff;opacity:0.8;stroke:#cccccc;stroke-linejoin:miter;"/>
    </g>
    <g id="line2d_29">
     <path d="M 498.879369 24.7 
L 526.879369 24.7 
" style="fill:none;stroke:#1f77b4;stroke-linecap:square;stroke-width:1.5;"/>
    </g>
    <g id="line2d_30"/>
    <g id="text_14">
     <!-- $N$ = 8 -->
     <g transform="translate(538.079369 29.6)scale(0.14 -0.14)">
      <defs>
       <path d="M 4736 3698 
C 4806 3974 4909 4166 5395 4166 
C 5414 4166 5491 4166 5491 4279 
C 5491 4352 5434 4352 5408 4352 
C 5280 4352 4954 4352 4826 4352 
L 4518 4352 
C 4429 4352 4314 4352 4224 4352 
C 4186 4352 4109 4352 4109 4230 
C 4109 4166 4160 4166 4205 4166 
C 4589 4166 4614 4019 4614 3903 
C 4614 3846 4608 3826 4589 3737 
L 3866 850 
L 2496 4249 
C 2451 4352 2445 4352 2304 4352 
L 1523 4352 
C 1395 4352 1338 4352 1338 4230 
C 1338 4166 1382 4166 1504 4166 
C 1536 4166 1914 4166 1914 4115 
C 1914 4102 1901 4051 1894 4032 
L 1043 635 
C 966 320 813 186 390 186 
C 358 186 294 186 294 67 
C 294 0 358 0 378 0 
C 506 0 832 0 960 0 
L 1267 0 
C 1357 0 1466 0 1555 0 
C 1600 0 1670 0 1670 122 
C 1670 180 1606 186 1581 186 
C 1370 186 1165 224 1165 454 
C 1165 505 1178 562 1190 613 
L 2054 4032 
C 2093 3968 2093 3956 2118 3898 
L 3642 115 
C 3674 38 3686 0 3744 0 
C 3808 0 3814 19 3840 128 
L 4736 3698 
z
" id="CMMI12-4e" transform="scale(0.015625)"/>
       <path d="M 4115 2017 
C 4211 2017 4307 2017 4307 2125 
C 4307 2240 4198 2240 4090 2240 
L 512 2240 
C 403 2240 294 2240 294 2125 
C 294 2017 390 2017 486 2017 
L 4115 2017 
z
M 4090 896 
C 4198 896 4307 896 4307 1011 
C 4307 1119 4211 1119 4115 1119 
L 486 1119 
C 390 1119 294 1119 294 1011 
C 294 896 403 896 512 896 
L 4090 896 
z
" id="CMR17-3d" transform="scale(0.015625)"/>
       <path d="M 1741 2264 
C 2144 2467 2554 2773 2554 3263 
C 2554 3841 1990 4179 1472 4179 
C 890 4179 378 3759 378 3180 
C 378 3021 416 2747 666 2505 
C 730 2442 998 2251 1171 2130 
C 883 1983 211 1634 211 934 
C 211 279 838 -128 1459 -128 
C 2144 -128 2720 362 2720 1010 
C 2720 1590 2330 1857 2074 2029 
L 1741 2264 
z
M 902 2822 
C 851 2854 595 3051 595 3351 
C 595 3739 998 4032 1459 4032 
C 1965 4032 2336 3676 2336 3262 
C 2336 2669 1670 2331 1638 2331 
C 1632 2331 1626 2331 1574 2370 
L 902 2822 
z
M 2080 1519 
C 2176 1449 2483 1240 2483 851 
C 2483 381 2010 25 1472 25 
C 890 25 448 438 448 940 
C 448 1443 838 1862 1280 2060 
L 2080 1519 
z
" id="CMR17-38" transform="scale(0.015625)"/>
      </defs>
      <use transform="scale(0.996264)" xlink:href="#CMMI12-4e"/>
      <use transform="translate(118.597739 0)scale(0.996264)" xlink:href="#CMR17-3d"/>
      <use transform="translate(220.388494 0)scale(0.996264)" xlink:href="#CMR17-38"/>
     </g>
    </g>
    <g id="line2d_31">
     <path d="M 498.879369 44.212028 
L 526.879369 44.212028 
" style="fill:none;stroke:#ff7f0e;stroke-linecap:square;stroke-width:1.5;"/>
    </g>
    <g id="line2d_32"/>
    <g id="text_15">
     <!-- $N$ = 14 -->
     <g transform="translate(538.079369 49.112028)scale(0.14 -0.14)">
      <use transform="scale(0.996264)" xlink:href="#CMMI12-4e"/>
      <use transform="translate(118.597739 0)scale(0.996264)" xlink:href="#CMR17-3d"/>
      <use transform="translate(220.388494 0)scale(0.996264)" xlink:href="#CMR17-31"/>
      <use transform="translate(266.078971 0)scale(0.996264)" xlink:href="#CMR17-34"/>
     </g>
    </g>
   </g>
  </g>
 </g>
 <defs>
  <clipPath id="p4ec06e62c0">
   <rect height="271.8" width="558" x="38.456131" y="7.2"/>
  </clipPath>
 </defs>
</svg>
