<?xml version="1.0" encoding="utf-8" standalone="no"?>
<!DOCTYPE svg PUBLIC "-//W3C//DTD SVG 1.1//EN"
  "http://www.w3.org/Graphics/SVG/1.1/DTD/svg11.dtd">
<svg height="303.826776pt" version="1.1" viewBox="0 0 603.656131 303.826776" width="603.656131pt" xmlns="http://www.w3.org/2000/svg" xmlns:xlink="http://www.w3.org/1999/xlink">
 <metadata>
  <rdf:RDF xmlns:cc="http://creativecommons.org/ns#" xmlns:dc="http://purl.org/dc/elements/1.1/" xmlns:rdf="http://www.w3.org/1999/02/22-rdf-syntax-ns#">
   <cc:Work>
    <dc:type rdf:resource="http://purl.org/dc/dcmitype/StillImage"/>
    <dc:date>2023-09-25T14:49:41.631115</dc:date>
    <dc:format>image/svg+xml</dc:format>
    <dc:creator>
     <cc:Agent>
      <dc:title>Matplotlib v3.4.3, https://matplotlib.org/</dc:title>
     </cc:Agent>
    </dc:creator>
   </cc:Work>
  </rdf:RDF>
 </metadata>
 <defs>
  <style type="text/css">*{stroke-linecap:butt;stroke-linejoin:round;}</style>
 </defs>
 <g id="figure_1">
  <g id="patch_1">
   <path d="M 0 303.826776 
L 603.656131 303.826776 
L 603.656131 0 
L 0 0 
z
" style="fill:none;"/>
  </g>
  <g id="axes_1">
   <g id="patch_2">
    <path d="M 38.456131 279 
L 596.456131 279 
L 596.456131 7.2 
L 38.456131 7.2 
z
" style="fill:#ffffff;"/>
   </g>
   <g id="matplotlib.axis_1">
    <g id="xtick_1">
     <g id="line2d_1">
      <path clip-path="url(#p2f45c5ffde)" d="M 114.597818 279 
L 114.597818 7.2 
" style="fill:none;stroke:#b0b0b0;stroke-linecap:square;stroke-width:0.8;"/>
     </g>
     <g id="line2d_2">
      <defs>
       <path d="M 0 0 
L 0 3.5 
" id="mf88daba929" style="stroke:#000000;stroke-width:0.8;"/>
      </defs>
      <g>
       <use style="stroke:#000000;stroke-width:0.8;" x="114.597818" xlink:href="#mf88daba929" y="279"/>
      </g>
     </g>
     <g id="text_1">
      <!-- $\mathdefault{−0.4}$ -->
      <g transform="translate(102.469753 294.30218)scale(0.12 -0.12)">
       <defs>
        <path d="M 4218 1472 
C 4326 1472 4442 1472 4442 1600 
C 4442 1728 4326 1728 4218 1728 
L 755 1728 
C 646 1728 531 1728 531 1600 
C 531 1472 646 1472 755 1472 
L 4218 1472 
z
" id="CMSY10-0" transform="scale(0.015625)"/>
        <path d="M 2688 2038 
C 2688 2430 2682 3099 2413 3613 
C 2176 4063 1798 4224 1466 4224 
C 1158 4224 768 4082 525 3620 
C 269 3137 243 2539 243 2038 
C 243 1671 250 1112 448 623 
C 723 -39 1216 -128 1466 -128 
C 1760 -128 2208 -7 2470 604 
C 2662 1048 2688 1568 2688 2038 
z
M 1466 -26 
C 1056 -26 813 328 723 816 
C 653 1196 653 1749 653 2109 
C 653 2604 653 3015 736 3407 
C 858 3954 1216 4121 1466 4121 
C 1728 4121 2067 3947 2189 3420 
C 2272 3054 2278 2623 2278 2109 
C 2278 1691 2278 1176 2202 797 
C 2067 96 1690 -26 1466 -26 
z
" id="CMR17-30" transform="scale(0.015625)"/>
        <path d="M 1178 307 
C 1178 492 1024 620 870 620 
C 685 620 557 467 557 313 
C 557 128 710 0 864 0 
C 1050 0 1178 153 1178 307 
z
" id="CMMI12-3a" transform="scale(0.015625)"/>
        <path d="M 2150 4147 
C 2150 4281 2144 4288 2029 4288 
L 128 1254 
L 128 1088 
L 1779 1088 
L 1779 460 
C 1779 230 1766 166 1318 166 
L 1197 166 
L 1197 0 
C 1402 12 1747 12 1965 12 
C 2182 12 2528 12 2733 0 
L 2733 166 
L 2611 166 
C 2163 166 2150 230 2150 460 
L 2150 1088 
L 2803 1088 
L 2803 1254 
L 2150 1254 
L 2150 4147 
z
M 1798 3723 
L 1798 1254 
L 256 1254 
L 1798 3723 
z
" id="CMR17-34" transform="scale(0.015625)"/>
       </defs>
       <use transform="scale(0.996264)" xlink:href="#CMSY10-0"/>
       <use transform="translate(77.487468 0)scale(0.996264)" xlink:href="#CMR17-30"/>
       <use transform="translate(123.177945 0)scale(0.996264)" xlink:href="#CMMI12-3a"/>
       <use transform="translate(150.275122 0)scale(0.996264)" xlink:href="#CMR17-34"/>
      </g>
     </g>
    </g>
    <g id="xtick_2">
     <g id="line2d_3">
      <path clip-path="url(#p2f45c5ffde)" d="M 216.15392 279 
L 216.15392 7.2 
" style="fill:none;stroke:#b0b0b0;stroke-linecap:square;stroke-width:0.8;"/>
     </g>
     <g id="line2d_4">
      <g>
       <use style="stroke:#000000;stroke-width:0.8;" x="216.15392" xlink:href="#mf88daba929" y="279"/>
      </g>
     </g>
     <g id="text_2">
      <!-- $\mathdefault{−0.2}$ -->
      <g transform="translate(204.025854 294.30218)scale(0.12 -0.12)">
       <defs>
        <path d="M 2669 990 
L 2554 990 
C 2490 537 2438 460 2413 422 
C 2381 371 1920 371 1830 371 
L 602 371 
C 832 620 1280 1073 1824 1596 
C 2214 1966 2669 2400 2669 3033 
C 2669 3788 2067 4224 1395 4224 
C 691 4224 262 3603 262 3027 
C 262 2777 448 2745 525 2745 
C 589 2745 781 2783 781 3007 
C 781 3206 614 3264 525 3264 
C 486 3264 448 3257 422 3244 
C 544 3788 915 4057 1306 4057 
C 1862 4057 2227 3616 2227 3033 
C 2227 2477 1901 1998 1536 1583 
L 262 147 
L 262 0 
L 2515 0 
L 2669 990 
z
" id="CMR17-32" transform="scale(0.015625)"/>
       </defs>
       <use transform="scale(0.996264)" xlink:href="#CMSY10-0"/>
       <use transform="translate(77.487468 0)scale(0.996264)" xlink:href="#CMR17-30"/>
       <use transform="translate(123.177945 0)scale(0.996264)" xlink:href="#CMMI12-3a"/>
       <use transform="translate(150.275122 0)scale(0.996264)" xlink:href="#CMR17-32"/>
      </g>
     </g>
    </g>
    <g id="xtick_3">
     <g id="line2d_5">
      <path clip-path="url(#p2f45c5ffde)" d="M 317.710021 279 
L 317.710021 7.2 
" style="fill:none;stroke:#b0b0b0;stroke-linecap:square;stroke-width:0.8;"/>
     </g>
     <g id="line2d_6">
      <g>
       <use style="stroke:#000000;stroke-width:0.8;" x="317.710021" xlink:href="#mf88daba929" y="279"/>
      </g>
     </g>
     <g id="text_3">
      <!-- $\mathdefault{0.0}$ -->
      <g transform="translate(310.231201 294.30218)scale(0.12 -0.12)">
       <use transform="scale(0.996264)" xlink:href="#CMR17-30"/>
       <use transform="translate(45.690477 0)scale(0.996264)" xlink:href="#CMMI12-3a"/>
       <use transform="translate(72.787654 0)scale(0.996264)" xlink:href="#CMR17-30"/>
      </g>
     </g>
    </g>
    <g id="xtick_4">
     <g id="line2d_7">
      <path clip-path="url(#p2f45c5ffde)" d="M 419.266123 279 
L 419.266123 7.2 
" style="fill:none;stroke:#b0b0b0;stroke-linecap:square;stroke-width:0.8;"/>
     </g>
     <g id="line2d_8">
      <g>
       <use style="stroke:#000000;stroke-width:0.8;" x="419.266123" xlink:href="#mf88daba929" y="279"/>
      </g>
     </g>
     <g id="text_4">
      <!-- $\mathdefault{0.2}$ -->
      <g transform="translate(411.787302 294.30218)scale(0.12 -0.12)">
       <use transform="scale(0.996264)" xlink:href="#CMR17-30"/>
       <use transform="translate(45.690477 0)scale(0.996264)" xlink:href="#CMMI12-3a"/>
       <use transform="translate(72.787654 0)scale(0.996264)" xlink:href="#CMR17-32"/>
      </g>
     </g>
    </g>
    <g id="xtick_5">
     <g id="line2d_9">
      <path clip-path="url(#p2f45c5ffde)" d="M 520.822225 279 
L 520.822225 7.2 
" style="fill:none;stroke:#b0b0b0;stroke-linecap:square;stroke-width:0.8;"/>
     </g>
     <g id="line2d_10">
      <g>
       <use style="stroke:#000000;stroke-width:0.8;" x="520.822225" xlink:href="#mf88daba929" y="279"/>
      </g>
     </g>
     <g id="text_5">
      <!-- $\mathdefault{0.4}$ -->
      <g transform="translate(513.343404 294.30218)scale(0.12 -0.12)">
       <use transform="scale(0.996264)" xlink:href="#CMR17-30"/>
       <use transform="translate(45.690477 0)scale(0.996264)" xlink:href="#CMMI12-3a"/>
       <use transform="translate(72.787654 0)scale(0.996264)" xlink:href="#CMR17-34"/>
      </g>
     </g>
    </g>
   </g>
   <g id="matplotlib.axis_2">
    <g id="ytick_1">
     <g id="line2d_11">
      <path clip-path="url(#p2f45c5ffde)" d="M 38.456131 255.754257 
L 596.456131 255.754257 
" style="fill:none;stroke:#b0b0b0;stroke-linecap:square;stroke-width:0.8;"/>
     </g>
     <g id="line2d_12">
      <defs>
       <path d="M 0 0 
L -3.5 0 
" id="me9e8663e49" style="stroke:#000000;stroke-width:0.8;"/>
      </defs>
      <g>
       <use style="stroke:#000000;stroke-width:0.8;" x="38.456131" xlink:href="#me9e8663e49" y="255.754257"/>
      </g>
     </g>
     <g id="text_6">
      <!-- $\mathdefault{−2.5}$ -->
      <g transform="translate(7.2 259.905347)scale(0.12 -0.12)">
       <defs>
        <path d="M 730 3750 
C 794 3724 1056 3641 1325 3641 
C 1920 3641 2246 3961 2432 4140 
C 2432 4191 2432 4224 2394 4224 
C 2387 4224 2374 4224 2323 4198 
C 2099 4102 1837 4032 1517 4032 
C 1325 4032 1037 4055 723 4191 
C 653 4224 640 4224 634 4224 
C 602 4224 595 4217 595 4090 
L 595 2231 
C 595 2113 595 2080 659 2080 
C 691 2080 704 2093 736 2139 
C 941 2435 1222 2560 1542 2560 
C 1766 2560 2246 2415 2246 1293 
C 2246 1087 2246 716 2054 422 
C 1894 159 1645 25 1370 25 
C 947 25 518 319 403 812 
C 429 806 480 793 506 793 
C 589 793 749 838 749 1036 
C 749 1209 627 1280 506 1280 
C 358 1280 262 1190 262 1011 
C 262 454 704 -128 1382 -128 
C 2042 -128 2669 441 2669 1267 
C 2669 2054 2170 2662 1549 2662 
C 1222 2662 947 2540 730 2304 
L 730 3750 
z
" id="CMR17-35" transform="scale(0.015625)"/>
       </defs>
       <use transform="scale(0.996264)" xlink:href="#CMSY10-0"/>
       <use transform="translate(77.487468 0)scale(0.996264)" xlink:href="#CMR17-32"/>
       <use transform="translate(123.177945 0)scale(0.996264)" xlink:href="#CMMI12-3a"/>
       <use transform="translate(150.275122 0)scale(0.996264)" xlink:href="#CMR17-35"/>
      </g>
     </g>
    </g>
    <g id="ytick_2">
     <g id="line2d_13">
      <path clip-path="url(#p2f45c5ffde)" d="M 38.456131 222.011441 
L 596.456131 222.011441 
" style="fill:none;stroke:#b0b0b0;stroke-linecap:square;stroke-width:0.8;"/>
     </g>
     <g id="line2d_14">
      <g>
       <use style="stroke:#000000;stroke-width:0.8;" x="38.456131" xlink:href="#me9e8663e49" y="222.011441"/>
      </g>
     </g>
     <g id="text_7">
      <!-- $\mathdefault{0.0}$ -->
      <g transform="translate(16.498489 226.162531)scale(0.12 -0.12)">
       <use transform="scale(0.996264)" xlink:href="#CMR17-30"/>
       <use transform="translate(45.690477 0)scale(0.996264)" xlink:href="#CMMI12-3a"/>
       <use transform="translate(72.787654 0)scale(0.996264)" xlink:href="#CMR17-30"/>
      </g>
     </g>
    </g>
    <g id="ytick_3">
     <g id="line2d_15">
      <path clip-path="url(#p2f45c5ffde)" d="M 38.456131 188.268625 
L 596.456131 188.268625 
" style="fill:none;stroke:#b0b0b0;stroke-linecap:square;stroke-width:0.8;"/>
     </g>
     <g id="line2d_16">
      <g>
       <use style="stroke:#000000;stroke-width:0.8;" x="38.456131" xlink:href="#me9e8663e49" y="188.268625"/>
      </g>
     </g>
     <g id="text_8">
      <!-- $\mathdefault{2.5}$ -->
      <g transform="translate(16.498489 192.419715)scale(0.12 -0.12)">
       <use transform="scale(0.996264)" xlink:href="#CMR17-32"/>
       <use transform="translate(45.690477 0)scale(0.996264)" xlink:href="#CMMI12-3a"/>
       <use transform="translate(72.787654 0)scale(0.996264)" xlink:href="#CMR17-35"/>
      </g>
     </g>
    </g>
    <g id="ytick_4">
     <g id="line2d_17">
      <path clip-path="url(#p2f45c5ffde)" d="M 38.456131 154.525809 
L 596.456131 154.525809 
" style="fill:none;stroke:#b0b0b0;stroke-linecap:square;stroke-width:0.8;"/>
     </g>
     <g id="line2d_18">
      <g>
       <use style="stroke:#000000;stroke-width:0.8;" x="38.456131" xlink:href="#me9e8663e49" y="154.525809"/>
      </g>
     </g>
     <g id="text_9">
      <!-- $\mathdefault{5.0}$ -->
      <g transform="translate(16.498489 158.676899)scale(0.12 -0.12)">
       <use transform="scale(0.996264)" xlink:href="#CMR17-35"/>
       <use transform="translate(45.690477 0)scale(0.996264)" xlink:href="#CMMI12-3a"/>
       <use transform="translate(72.787654 0)scale(0.996264)" xlink:href="#CMR17-30"/>
      </g>
     </g>
    </g>
    <g id="ytick_5">
     <g id="line2d_19">
      <path clip-path="url(#p2f45c5ffde)" d="M 38.456131 120.782993 
L 596.456131 120.782993 
" style="fill:none;stroke:#b0b0b0;stroke-linecap:square;stroke-width:0.8;"/>
     </g>
     <g id="line2d_20">
      <g>
       <use style="stroke:#000000;stroke-width:0.8;" x="38.456131" xlink:href="#me9e8663e49" y="120.782993"/>
      </g>
     </g>
     <g id="text_10">
      <!-- $\mathdefault{7.5}$ -->
      <g transform="translate(16.498489 124.934083)scale(0.12 -0.12)">
       <defs>
        <path d="M 2886 3955 
L 2886 4096 
L 1382 4096 
C 634 4096 621 4166 595 4288 
L 480 4288 
L 294 3104 
L 410 3104 
C 429 3226 474 3552 550 3673 
C 589 3724 1062 3724 1171 3724 
L 2579 3724 
L 1869 2670 
C 1395 1961 1069 1003 1069 166 
C 1069 89 1069 -128 1299 -128 
C 1530 -128 1530 89 1530 172 
L 1530 466 
C 1530 1514 1709 2204 2003 2644 
L 2886 3955 
z
" id="CMR17-37" transform="scale(0.015625)"/>
       </defs>
       <use transform="scale(0.996264)" xlink:href="#CMR17-37"/>
       <use transform="translate(45.690477 0)scale(0.996264)" xlink:href="#CMMI12-3a"/>
       <use transform="translate(72.787654 0)scale(0.996264)" xlink:href="#CMR17-35"/>
      </g>
     </g>
    </g>
    <g id="ytick_6">
     <g id="line2d_21">
      <path clip-path="url(#p2f45c5ffde)" d="M 38.456131 87.040177 
L 596.456131 87.040177 
" style="fill:none;stroke:#b0b0b0;stroke-linecap:square;stroke-width:0.8;"/>
     </g>
     <g id="line2d_22">
      <g>
       <use style="stroke:#000000;stroke-width:0.8;" x="38.456131" xlink:href="#me9e8663e49" y="87.040177"/>
      </g>
     </g>
     <g id="text_11">
      <!-- $\mathdefault{10.0}$ -->
      <g transform="translate(10.645499 91.191267)scale(0.12 -0.12)">
       <defs>
        <path d="M 1702 4083 
C 1702 4217 1696 4224 1606 4224 
C 1357 3927 979 3833 621 3820 
C 602 3820 570 3820 563 3808 
C 557 3795 557 3782 557 3648 
C 755 3648 1088 3686 1344 3839 
L 1344 467 
C 1344 243 1331 166 781 166 
L 589 166 
L 589 0 
C 896 6 1216 12 1523 12 
C 1830 12 2150 6 2458 0 
L 2458 166 
L 2266 166 
C 1715 166 1702 236 1702 467 
L 1702 4083 
z
" id="CMR17-31" transform="scale(0.015625)"/>
       </defs>
       <use transform="scale(0.996264)" xlink:href="#CMR17-31"/>
       <use transform="translate(45.690477 0)scale(0.996264)" xlink:href="#CMR17-30"/>
       <use transform="translate(91.380954 0)scale(0.996264)" xlink:href="#CMMI12-3a"/>
       <use transform="translate(118.478131 0)scale(0.996264)" xlink:href="#CMR17-30"/>
      </g>
     </g>
    </g>
    <g id="ytick_7">
     <g id="line2d_23">
      <path clip-path="url(#p2f45c5ffde)" d="M 38.456131 53.297361 
L 596.456131 53.297361 
" style="fill:none;stroke:#b0b0b0;stroke-linecap:square;stroke-width:0.8;"/>
     </g>
     <g id="line2d_24">
      <g>
       <use style="stroke:#000000;stroke-width:0.8;" x="38.456131" xlink:href="#me9e8663e49" y="53.297361"/>
      </g>
     </g>
     <g id="text_12">
      <!-- $\mathdefault{12.5}$ -->
      <g transform="translate(10.645499 57.448451)scale(0.12 -0.12)">
       <use transform="scale(0.996264)" xlink:href="#CMR17-31"/>
       <use transform="translate(45.690477 0)scale(0.996264)" xlink:href="#CMR17-32"/>
       <use transform="translate(91.380954 0)scale(0.996264)" xlink:href="#CMMI12-3a"/>
       <use transform="translate(118.478131 0)scale(0.996264)" xlink:href="#CMR17-35"/>
      </g>
     </g>
    </g>
    <g id="ytick_8">
     <g id="line2d_25">
      <path clip-path="url(#p2f45c5ffde)" d="M 38.456131 19.554545 
L 596.456131 19.554545 
" style="fill:none;stroke:#b0b0b0;stroke-linecap:square;stroke-width:0.8;"/>
     </g>
     <g id="line2d_26">
      <g>
       <use style="stroke:#000000;stroke-width:0.8;" x="38.456131" xlink:href="#me9e8663e49" y="19.554545"/>
      </g>
     </g>
     <g id="text_13">
      <!-- $\mathdefault{15.0}$ -->
      <g transform="translate(10.645499 23.705635)scale(0.12 -0.12)">
       <use transform="scale(0.996264)" xlink:href="#CMR17-31"/>
       <use transform="translate(45.690477 0)scale(0.996264)" xlink:href="#CMR17-35"/>
       <use transform="translate(91.380954 0)scale(0.996264)" xlink:href="#CMMI12-3a"/>
       <use transform="translate(118.478131 0)scale(0.996264)" xlink:href="#CMR17-30"/>
      </g>
     </g>
    </g>
   </g>
   <g id="line2d_27">
    <path clip-path="url(#p2f45c5ffde)" d="M 63.819768 208.514315 
L 66.35867 208.647318 
L 68.897573 209.043837 
L 71.436475 209.696445 
L 73.975378 210.592909 
L 76.51428 211.71641 
L 79.560963 213.334303 
L 82.607646 215.204709 
L 86.16211 217.637908 
L 91.239915 221.409355 
L 99.872184 227.864852 
L 103.426647 230.259709 
L 106.47333 232.082176 
L 109.520013 233.63623 
L 112.058916 234.69284 
L 114.597818 235.508568 
L 117.136721 236.065295 
L 119.675623 236.349567 
L 121.706745 236.374933 
L 123.737867 236.218408 
L 125.768989 235.880167 
L 128.307892 235.205615 
L 130.846795 234.260298 
L 133.385697 233.058729 
L 135.9246 231.620397 
L 138.971283 229.61622 
L 142.525746 226.958403 
L 146.58799 223.61375 
L 160.298064 212.009412 
L 163.344747 209.817604 
L 166.39143 207.917037 
L 168.930333 206.599655 
L 171.469235 205.557823 
L 173.500357 204.940879 
L 175.531479 204.528948 
L 177.562601 204.331316 
L 179.593723 204.354961 
L 181.624845 204.604426 
L 183.655967 205.08173 
L 185.687089 205.786296 
L 187.718211 206.714904 
L 189.749333 207.861677 
L 192.288236 209.588704 
L 194.827139 211.620739 
L 197.366041 213.929261 
L 200.412724 217.015681 
L 203.967188 220.963381 
L 209.044993 227.004467 
L 216.6617 236.089304 
L 220.216164 239.957473 
L 223.262847 242.913058 
L 225.80175 245.046476 
L 227.832872 246.498039 
L 229.863994 247.694107 
L 231.895116 248.609976 
L 233.926238 249.22288 
L 235.449579 249.471269 
L 236.972921 249.52982 
L 238.496262 249.391556 
L 240.019604 249.050364 
L 241.542945 248.501044 
L 243.066287 247.73934 
L 244.589628 246.761981 
L 246.11297 245.566707 
L 248.144092 243.632066 
L 250.175214 241.307988 
L 252.206336 238.597883 
L 254.237458 235.508568 
L 256.26858 232.050261 
L 258.807483 227.229486 
L 261.346385 221.887346 
L 263.885288 216.065272 
L 266.931971 208.514315 
L 270.486434 199.050318 
L 274.548678 187.586801 
L 282.165386 165.227421 
L 287.750971 149.121731 
L 291.813216 138.110212 
L 294.859899 130.45469 
L 297.398801 124.570685 
L 299.937704 119.208613 
L 302.476606 114.429618 
L 304.507728 111.063284 
L 306.53885 108.130119 
L 308.569972 105.651798 
L 310.093314 104.102721 
L 311.616655 102.826361 
L 313.139997 101.828052 
L 314.663338 101.111973 
L 316.18668 100.681122 
L 317.710021 100.537304 
L 319.233363 100.681122 
L 320.756704 101.111973 
L 322.280046 101.828052 
L 323.803388 102.826361 
L 325.326729 104.102721 
L 326.850071 105.651798 
L 328.373412 107.467122 
L 330.404534 110.288482 
L 332.435656 113.54873 
L 334.466778 117.223827 
L 337.005681 122.359667 
L 339.544583 128.04261 
L 342.591266 135.493034 
L 346.14573 144.901255 
L 350.207974 156.345037 
L 357.316901 177.207745 
L 363.410267 194.818781 
L 367.472511 205.875774 
L 370.519194 213.612736 
L 373.565877 220.759869 
L 376.10478 226.20155 
L 378.643682 231.129548 
L 381.182585 235.508568 
L 383.213707 238.597883 
L 385.244829 241.307988 
L 387.275951 243.632066 
L 389.307073 245.566707 
L 390.830415 246.761981 
L 392.353756 247.73934 
L 393.877098 248.501044 
L 395.400439 249.050364 
L 396.923781 249.391556 
L 398.447122 249.52982 
L 399.970464 249.471269 
L 401.493805 249.22288 
L 403.017147 248.792448 
L 405.048269 247.950267 
L 407.079391 246.822004 
L 409.110513 245.431903 
L 411.649415 243.365799 
L 414.188318 240.985178 
L 417.235001 237.793095 
L 420.789465 233.734605 
L 427.898392 225.162649 
L 432.976197 219.232888 
L 436.53066 215.433025 
L 439.577343 212.512767 
L 442.116246 210.366379 
L 444.655148 208.514315 
L 447.194051 206.981432 
L 449.225173 205.997628 
L 451.256295 205.236646 
L 453.287417 204.70237 
L 455.318539 204.396034 
L 457.349661 204.316263 
L 459.380783 204.459136 
L 461.411905 204.818275 
L 463.443027 205.384958 
L 465.474149 206.148256 
L 468.013052 207.358917 
L 470.551954 208.826966 
L 473.598637 210.881147 
L 477.153101 213.599714 
L 481.723125 217.434283 
L 492.386516 226.555528 
L 495.94098 229.255833 
L 498.987663 231.306368 
L 501.526565 232.789296 
L 504.065468 234.039931 
L 506.60437 235.037822 
L 509.143273 235.767442 
L 511.682175 236.218408 
L 513.713297 236.374933 
L 515.744419 236.349567 
L 517.775542 236.144291 
L 520.314444 235.641133 
L 522.853347 234.8759 
L 525.392249 233.865805 
L 527.931152 232.632439 
L 530.977835 230.893892 
L 534.532298 228.573791 
L 539.102323 225.269124 
L 551.289055 216.218969 
L 554.843519 213.932091 
L 557.890202 212.224789 
L 560.936885 210.800062 
L 563.475787 209.856703 
L 566.01469 209.154195 
L 568.553592 208.705708 
L 571.092495 208.519643 
L 571.092495 208.519643 
" style="fill:none;stroke:#1f77b4;stroke-linecap:square;stroke-width:1.5;"/>
   </g>
   <g id="line2d_28">
    <path clip-path="url(#p2f45c5ffde)" d="M 63.819768 235.508568 
L 65.343109 235.374509 
L 66.866451 234.97495 
L 68.389792 234.317685 
L 69.913134 233.415545 
L 71.436475 232.286143 
L 73.467597 230.465477 
L 75.498719 228.343672 
L 78.037622 225.381069 
L 87.177671 214.345017 
L 89.208793 212.348566 
L 91.239915 210.685644 
L 92.763256 209.693684 
L 94.286598 208.943441 
L 95.80994 208.450556 
L 97.333281 208.225697 
L 98.856623 208.274339 
L 100.379964 208.596635 
L 101.903306 209.187393 
L 103.426647 210.036155 
L 104.949989 211.127375 
L 106.981111 212.923665 
L 109.012233 215.053983 
L 111.551135 218.075484 
L 115.613379 223.349759 
L 119.675623 228.524028 
L 122.214526 231.382053 
L 124.245648 233.326563 
L 125.768989 234.537836 
L 127.292331 235.508568 
L 128.815673 236.217741 
L 130.339014 236.649282 
L 131.862356 236.792411 
L 133.385697 236.641888 
L 134.909039 236.198164 
L 136.43238 235.467415 
L 137.955722 234.461475 
L 139.479063 233.197655 
L 141.510185 231.15101 
L 143.541307 228.752881 
L 146.08021 225.383059 
L 151.158015 218.097162 
L 154.204698 213.906245 
L 156.23582 211.397413 
L 158.266942 209.225088 
L 159.790284 207.866376 
L 161.313625 206.773052 
L 162.836967 205.970124 
L 164.360308 205.477269 
L 165.88365 205.308389 
L 166.899211 205.379893 
L 168.422552 205.765145 
L 169.945894 206.480968 
L 171.469235 207.518031 
L 172.992577 208.860627 
L 174.515918 210.486878 
L 176.54704 213.047764 
L 178.578162 215.982673 
L 181.117065 220.031443 
L 189.241553 233.365649 
L 191.272675 236.173949 
L 192.796017 238.000791 
L 194.319358 239.542567 
L 195.8427 240.763299 
L 197.366041 241.632507 
L 198.381602 242.004412 
L 199.397163 242.203587 
L 200.412724 242.225878 
L 201.428285 242.068582 
L 202.443846 241.730493 
L 203.459407 241.211928 
L 204.474968 240.51475 
L 205.99831 239.141962 
L 207.521651 237.393318 
L 209.044993 235.294432 
L 211.076115 232.008989 
L 213.107237 228.256911 
L 215.646139 223.08848 
L 223.770627 206.04547 
L 225.80175 202.449651 
L 227.325091 200.112669 
L 228.848433 198.145885 
L 230.371774 196.599146 
L 231.387335 195.823092 
L 232.402896 195.264276 
L 233.418457 194.932217 
L 234.434018 194.834753 
L 235.449579 194.97795 
L 236.46514 195.366019 
L 237.480701 196.001243 
L 238.496262 196.883922 
L 239.511823 198.012333 
L 241.035165 200.156868 
L 242.558506 202.823854 
L 244.081848 205.981432 
L 245.605189 209.587568 
L 247.636311 215.002618 
L 250.175214 222.533901 
L 254.237458 235.508568 
L 257.791922 246.649633 
L 259.823044 252.435915 
L 261.854166 257.513896 
L 263.377507 260.723656 
L 264.900849 263.321051 
L 265.91641 264.671126 
L 266.931971 265.68906 
L 267.947532 266.353559 
L 268.963093 266.645109 
L 269.978654 266.546131 
L 270.994215 266.041135 
L 272.009776 265.116857 
L 273.025337 263.762385 
L 274.040898 261.969263 
L 275.056459 259.731595 
L 276.07202 257.046117 
L 277.595361 252.177767 
L 279.118703 246.310897 
L 280.642044 239.469226 
L 282.165386 231.690475 
L 284.196508 219.952034 
L 286.22763 206.799274 
L 288.766532 188.673963 
L 291.813216 165.073191 
L 302.476606 80.356003 
L 305.015509 63.078704 
L 307.046631 50.894334 
L 308.569972 42.878277 
L 310.093314 35.92902 
L 311.616655 30.127999 
L 312.632216 26.932833 
L 313.647777 24.295375 
L 314.663338 22.229482 
L 315.678899 20.746022 
L 316.69446 19.852808 
L 317.202241 19.629136 
L 317.710021 19.554545 
L 318.217802 19.629136 
L 318.725582 19.852808 
L 319.233363 20.225267 
L 320.248924 21.414387 
L 321.264485 23.190233 
L 322.280046 25.543456 
L 323.295607 28.461684 
L 324.311168 31.929596 
L 325.83451 38.121618 
L 327.357851 45.436144 
L 328.881193 53.787584 
L 330.912315 66.366246 
L 332.943437 80.356003 
L 335.482339 99.392371 
L 339.036803 127.859421 
L 345.637949 180.993201 
L 348.176852 199.752864 
L 350.715754 216.789357 
L 352.746876 228.897827 
L 354.777999 239.469226 
L 356.30134 246.310897 
L 357.824682 252.177767 
L 359.348023 257.046117 
L 360.363584 259.731595 
L 361.379145 261.969263 
L 362.394706 263.762385 
L 363.410267 265.116857 
L 364.425828 266.041135 
L 365.441389 266.546131 
L 366.45695 266.645109 
L 367.472511 266.353559 
L 368.488072 265.68906 
L 369.503633 264.671126 
L 370.519194 263.321051 
L 371.534755 261.661732 
L 373.058097 258.646473 
L 374.581438 255.077551 
L 376.61256 249.617092 
L 379.151463 241.982755 
L 387.783732 215.002618 
L 389.814854 209.587568 
L 391.845976 204.876785 
L 393.369317 201.878563 
L 394.892659 199.382698 
L 396.416 197.417599 
L 397.431561 196.411711 
L 398.447122 195.652671 
L 399.462683 195.141187 
L 400.478244 194.875961 
L 401.493805 194.853739 
L 402.509366 195.069372 
L 403.524927 195.515897 
L 404.540488 196.184622 
L 405.556049 197.06523 
L 407.079391 198.757148 
L 408.602732 200.853156 
L 410.126074 203.301506 
L 412.157196 207.015437 
L 414.696098 212.175301 
L 422.820587 229.232645 
L 424.851709 232.878221 
L 426.882831 236.03109 
L 428.406172 238.016534 
L 429.929514 239.642367 
L 431.452855 240.885489 
L 432.468416 241.49369 
L 433.483977 241.922153 
L 434.499538 242.169789 
L 435.515099 242.237046 
L 436.53066 242.125884 
L 437.546221 241.839736 
L 438.561782 241.383464 
L 440.085124 240.394063 
L 441.608465 239.062643 
L 443.131807 237.421597 
L 445.162929 234.817614 
L 447.194051 231.83176 
L 450.240734 226.882802 
L 456.3341 216.763993 
L 458.873003 213.047764 
L 460.904125 210.486878 
L 462.427466 208.860627 
L 463.950808 207.518031 
L 465.474149 206.480968 
L 466.997491 205.765145 
L 468.520832 205.379893 
L 470.044174 205.328076 
L 471.567515 205.60612 
L 473.090857 206.20417 
L 474.614198 207.106357 
L 476.13754 208.291171 
L 477.660881 209.731943 
L 479.692003 211.996518 
L 482.230906 215.258405 
L 485.78537 220.293902 
L 490.355394 226.77101 
L 492.894297 229.991192 
L 494.925419 232.222751 
L 496.956541 234.067847 
L 498.479882 235.161934 
L 500.003224 235.986003 
L 501.526565 236.52637 
L 503.049907 236.77496 
L 504.573248 236.729412 
L 506.09659 236.39308 
L 507.619931 235.77492 
L 509.143273 234.889275 
L 510.666614 233.755559 
L 512.697736 231.90027 
L 514.728858 229.715565 
L 517.267761 226.642595 
L 526.915591 214.493859 
L 528.946713 212.440699 
L 530.977835 210.737856 
L 532.501176 209.725425 
L 534.024518 208.961183 
L 535.547859 208.459008 
L 537.071201 208.227616 
L 538.594542 208.270422 
L 540.117884 208.585492 
L 541.641225 209.1656 
L 543.164567 209.99839 
L 544.687908 211.066631 
L 546.71903 212.819005 
L 548.750152 214.888148 
L 551.289055 217.80745 
L 556.36686 224.13227 
L 559.413543 227.774612 
L 561.952446 230.465477 
L 563.983568 232.286143 
L 565.506909 233.415545 
L 567.030251 234.317685 
L 568.553592 234.97495 
L 570.076934 235.374509 
L 571.092495 235.493651 
L 571.092495 235.493651 
" style="fill:none;stroke:#ff7f0e;stroke-linecap:square;stroke-width:1.5;"/>
   </g>
   <g id="patch_3">
    <path d="M 38.456131 279 
L 38.456131 7.2 
" style="fill:none;stroke:#000000;stroke-linecap:square;stroke-linejoin:miter;stroke-width:0.8;"/>
   </g>
   <g id="patch_4">
    <path d="M 596.456131 279 
L 596.456131 7.2 
" style="fill:none;stroke:#000000;stroke-linecap:square;stroke-linejoin:miter;stroke-width:0.8;"/>
   </g>
   <g id="patch_5">
    <path d="M 38.456131 279 
L 596.456131 279 
" style="fill:none;stroke:#000000;stroke-linecap:square;stroke-linejoin:miter;stroke-width:0.8;"/>
   </g>
   <g id="patch_6">
    <path d="M 38.456131 7.2 
L 596.456131 7.2 
" style="fill:none;stroke:#000000;stroke-linecap:square;stroke-linejoin:miter;stroke-width:0.8;"/>
   </g>
   <g id="legend_1">
    <g id="patch_7">
     <path d="M 496.079369 57.424057 
L 586.656131 57.424057 
Q 589.456131 57.424057 589.456131 54.624057 
L 589.456131 17 
Q 589.456131 14.2 586.656131 14.2 
L 496.079369 14.2 
Q 493.279369 14.2 493.279369 17 
L 493.279369 54.624057 
Q 493.279369 57.424057 496.079369 57.424057 
z
" style="fill:#ffffff;opacity:0.8;stroke:#cccccc;stroke-linejoin:miter;"/>
    </g>
    <g id="line2d_29">
     <path d="M 498.879369 24.7 
L 526.879369 24.7 
" style="fill:none;stroke:#1f77b4;stroke-linecap:square;stroke-width:1.5;"/>
    </g>
    <g id="line2d_30"/>
    <g id="text_14">
     <!-- $N$ = 8 -->
     <g transform="translate(538.079369 29.6)scale(0.14 -0.14)">
      <defs>
       <path d="M 4736 3682 
C 4806 3956 4909 4147 5395 4166 
C 5414 4166 5491 4172 5491 4281 
C 5491 4352 5434 4352 5408 4352 
C 5280 4352 4954 4339 4826 4339 
L 4518 4339 
C 4429 4339 4314 4352 4224 4352 
C 4186 4352 4109 4352 4109 4230 
C 4109 4166 4160 4166 4205 4166 
C 4589 4153 4614 4007 4614 3892 
C 4614 3835 4608 3816 4589 3726 
L 3866 854 
L 2496 4243 
C 2451 4345 2445 4352 2304 4352 
L 1523 4352 
C 1395 4352 1338 4352 1338 4230 
C 1338 4166 1382 4166 1504 4166 
C 1536 4166 1914 4166 1914 4109 
C 1914 4096 1901 4045 1894 4026 
L 1043 650 
C 966 338 813 204 390 185 
C 358 185 294 179 294 64 
C 294 0 358 0 378 0 
C 506 0 832 12 960 12 
L 1267 12 
C 1357 12 1466 0 1555 0 
C 1600 0 1670 0 1670 121 
C 1670 179 1606 185 1581 185 
C 1370 191 1165 230 1165 459 
C 1165 510 1178 567 1190 618 
L 2054 4026 
C 2093 3962 2093 3949 2118 3892 
L 3642 115 
C 3674 38 3686 0 3744 0 
C 3808 0 3814 19 3840 128 
L 4736 3682 
z
" id="CMMI12-4e" transform="scale(0.015625)"/>
       <path d="M 4115 2048 
C 4211 2048 4307 2048 4307 2156 
C 4307 2272 4198 2272 4090 2272 
L 512 2272 
C 403 2272 294 2272 294 2156 
C 294 2048 390 2048 486 2048 
L 4115 2048 
z
M 4090 927 
C 4198 927 4307 927 4307 1043 
C 4307 1152 4211 1152 4115 1152 
L 486 1152 
C 390 1152 294 1152 294 1043 
C 294 927 403 927 512 927 
L 4090 927 
z
" id="CMR17-3d" transform="scale(0.015625)"/>
       <path d="M 1741 2289 
C 2144 2494 2554 2803 2554 3298 
C 2554 3884 1990 4224 1472 4224 
C 890 4224 378 3800 378 3215 
C 378 3054 416 2777 666 2533 
C 730 2469 998 2276 1171 2154 
C 883 2006 211 1652 211 945 
C 211 282 838 -128 1459 -128 
C 2144 -128 2720 366 2720 1022 
C 2720 1607 2330 1877 2074 2051 
L 1741 2289 
z
M 902 2855 
C 851 2887 595 3086 595 3388 
C 595 3781 998 4076 1459 4076 
C 1965 4076 2336 3716 2336 3298 
C 2336 2700 1670 2359 1638 2359 
C 1632 2359 1626 2359 1574 2398 
L 902 2855 
z
M 2080 1536 
C 2176 1466 2483 1253 2483 861 
C 2483 385 2010 25 1472 25 
C 890 25 448 443 448 951 
C 448 1459 838 1884 1280 2083 
L 2080 1536 
z
" id="CMR17-38" transform="scale(0.015625)"/>
      </defs>
      <use transform="scale(0.996264)" xlink:href="#CMMI12-4e"/>
      <use transform="translate(118.597739 0)scale(0.996264)" xlink:href="#CMR17-3d"/>
      <use transform="translate(220.388494 0)scale(0.996264)" xlink:href="#CMR17-38"/>
     </g>
    </g>
    <g id="line2d_31">
     <path d="M 498.879369 44.212028 
L 526.879369 44.212028 
" style="fill:none;stroke:#ff7f0e;stroke-linecap:square;stroke-width:1.5;"/>
    </g>
    <g id="line2d_32"/>
    <g id="text_15">
     <!-- $N$ = 14 -->
     <g transform="translate(538.079369 49.112028)scale(0.14 -0.14)">
      <use transform="scale(0.996264)" xlink:href="#CMMI12-4e"/>
      <use transform="translate(118.597739 0)scale(0.996264)" xlink:href="#CMR17-3d"/>
      <use transform="translate(220.388494 0)scale(0.996264)" xlink:href="#CMR17-31"/>
      <use transform="translate(266.078971 0)scale(0.996264)" xlink:href="#CMR17-34"/>
     </g>
    </g>
   </g>
  </g>
 </g>
 <defs>
  <clipPath id="p2f45c5ffde">
   <rect height="271.8" width="558" x="38.456131" y="7.2"/>
  </clipPath>
 </defs>
</svg>
