<?xml version="1.0" encoding="utf-8" standalone="no"?>
<!DOCTYPE svg PUBLIC "-//W3C//DTD SVG 1.1//EN"
  "http://www.w3.org/Graphics/SVG/1.1/DTD/svg11.dtd">
<svg height="272.16pt" version="1.1" viewBox="0 0 776.16 272.16" width="776.16pt" xmlns="http://www.w3.org/2000/svg" xmlns:xlink="http://www.w3.org/1999/xlink">
 <metadata>
  <rdf:RDF xmlns:cc="http://creativecommons.org/ns#" xmlns:dc="http://purl.org/dc/elements/1.1/" xmlns:rdf="http://www.w3.org/1999/02/22-rdf-syntax-ns#">
   <cc:Work>
    <dc:type rdf:resource="http://purl.org/dc/dcmitype/StillImage"/>
    <dc:date>2024-10-04T15:51:38.813847</dc:date>
    <dc:format>image/svg+xml</dc:format>
    <dc:creator>
     <cc:Agent>
      <dc:title>Matplotlib v3.4.3, https://matplotlib.org/</dc:title>
     </cc:Agent>
    </dc:creator>
   </cc:Work>
  </rdf:RDF>
 </metadata>
 <defs>
  <style type="text/css">*{stroke-linecap:butt;stroke-linejoin:round;}</style>
 </defs>
 <g id="figure_1">
  <g id="patch_1">
   <path d="M 0 272.16 
L 776.16 272.16 
L 776.16 0 
L 0 0 
z
" style="fill:none;"/>
  </g>
  <g id="axes_1">
   <g id="patch_2">
    <path d="M 38.456131 229.385528 
L 237.708189 229.385528 
L 237.708189 24.823055 
L 38.456131 24.823055 
z
" style="fill:#ffffff;"/>
   </g>
   <g id="matplotlib.axis_1">
    <g id="xtick_1">
     <g id="line2d_1">
      <path clip-path="url(#p7367f4541f)" d="M 38.456131 229.385528 
L 38.456131 24.823055 
" style="fill:none;stroke:#b0b0b0;stroke-linecap:square;stroke-width:0.8;"/>
     </g>
     <g id="line2d_2">
      <defs>
       <path d="M 0 0 
L 0 3.5 
" id="mbcc43c742b" style="stroke:#000000;stroke-width:0.8;"/>
      </defs>
      <g>
       <use style="stroke:#000000;stroke-width:0.8;" x="38.456131" xlink:href="#mbcc43c742b" y="229.385528"/>
      </g>
     </g>
     <g id="text_1">
      <!-- $\mathdefault{0.000}$ -->
      <g transform="translate(25.12432 244.687708)scale(0.12 -0.12)">
       <defs>
        <path d="M 2688 2038 
C 2688 2430 2682 3099 2413 3613 
C 2176 4063 1798 4224 1466 4224 
C 1158 4224 768 4082 525 3620 
C 269 3137 243 2539 243 2038 
C 243 1671 250 1112 448 623 
C 723 -39 1216 -128 1466 -128 
C 1760 -128 2208 -7 2470 604 
C 2662 1048 2688 1568 2688 2038 
z
M 1466 -26 
C 1056 -26 813 328 723 816 
C 653 1196 653 1749 653 2109 
C 653 2604 653 3015 736 3407 
C 858 3954 1216 4121 1466 4121 
C 1728 4121 2067 3947 2189 3420 
C 2272 3054 2278 2623 2278 2109 
C 2278 1691 2278 1176 2202 797 
C 2067 96 1690 -26 1466 -26 
z
" id="CMR17-30" transform="scale(0.015625)"/>
        <path d="M 1178 307 
C 1178 492 1024 620 870 620 
C 685 620 557 467 557 313 
C 557 128 710 0 864 0 
C 1050 0 1178 153 1178 307 
z
" id="CMMI12-3a" transform="scale(0.015625)"/>
       </defs>
       <use transform="scale(0.996264)" xlink:href="#CMR17-30"/>
       <use transform="translate(45.690477 0)scale(0.996264)" xlink:href="#CMMI12-3a"/>
       <use transform="translate(72.787654 0)scale(0.996264)" xlink:href="#CMR17-30"/>
       <use transform="translate(118.478131 0)scale(0.996264)" xlink:href="#CMR17-30"/>
       <use transform="translate(164.168608 0)scale(0.996264)" xlink:href="#CMR17-30"/>
      </g>
     </g>
    </g>
    <g id="xtick_2">
     <g id="line2d_3">
      <path clip-path="url(#p7367f4541f)" d="M 78.306543 229.385528 
L 78.306543 24.823055 
" style="fill:none;stroke:#b0b0b0;stroke-linecap:square;stroke-width:0.8;"/>
     </g>
     <g id="line2d_4">
      <g>
       <use style="stroke:#000000;stroke-width:0.8;" x="78.306543" xlink:href="#mbcc43c742b" y="229.385528"/>
      </g>
     </g>
     <g id="text_2">
      <!-- $\mathdefault{0.002}$ -->
      <g transform="translate(64.974732 244.687708)scale(0.12 -0.12)">
       <defs>
        <path d="M 2669 990 
L 2554 990 
C 2490 537 2438 460 2413 422 
C 2381 371 1920 371 1830 371 
L 602 371 
C 832 620 1280 1073 1824 1596 
C 2214 1966 2669 2400 2669 3033 
C 2669 3788 2067 4224 1395 4224 
C 691 4224 262 3603 262 3027 
C 262 2777 448 2745 525 2745 
C 589 2745 781 2783 781 3007 
C 781 3206 614 3264 525 3264 
C 486 3264 448 3257 422 3244 
C 544 3788 915 4057 1306 4057 
C 1862 4057 2227 3616 2227 3033 
C 2227 2477 1901 1998 1536 1583 
L 262 147 
L 262 0 
L 2515 0 
L 2669 990 
z
" id="CMR17-32" transform="scale(0.015625)"/>
       </defs>
       <use transform="scale(0.996264)" xlink:href="#CMR17-30"/>
       <use transform="translate(45.690477 0)scale(0.996264)" xlink:href="#CMMI12-3a"/>
       <use transform="translate(72.787654 0)scale(0.996264)" xlink:href="#CMR17-30"/>
       <use transform="translate(118.478131 0)scale(0.996264)" xlink:href="#CMR17-30"/>
       <use transform="translate(164.168608 0)scale(0.996264)" xlink:href="#CMR17-32"/>
      </g>
     </g>
    </g>
    <g id="xtick_3">
     <g id="line2d_5">
      <path clip-path="url(#p7367f4541f)" d="M 118.156954 229.385528 
L 118.156954 24.823055 
" style="fill:none;stroke:#b0b0b0;stroke-linecap:square;stroke-width:0.8;"/>
     </g>
     <g id="line2d_6">
      <g>
       <use style="stroke:#000000;stroke-width:0.8;" x="118.156954" xlink:href="#mbcc43c742b" y="229.385528"/>
      </g>
     </g>
     <g id="text_3">
      <!-- $\mathdefault{0.004}$ -->
      <g transform="translate(104.825143 244.687708)scale(0.12 -0.12)">
       <defs>
        <path d="M 2150 4147 
C 2150 4281 2144 4288 2029 4288 
L 128 1254 
L 128 1088 
L 1779 1088 
L 1779 460 
C 1779 230 1766 166 1318 166 
L 1197 166 
L 1197 0 
C 1402 12 1747 12 1965 12 
C 2182 12 2528 12 2733 0 
L 2733 166 
L 2611 166 
C 2163 166 2150 230 2150 460 
L 2150 1088 
L 2803 1088 
L 2803 1254 
L 2150 1254 
L 2150 4147 
z
M 1798 3723 
L 1798 1254 
L 256 1254 
L 1798 3723 
z
" id="CMR17-34" transform="scale(0.015625)"/>
       </defs>
       <use transform="scale(0.996264)" xlink:href="#CMR17-30"/>
       <use transform="translate(45.690477 0)scale(0.996264)" xlink:href="#CMMI12-3a"/>
       <use transform="translate(72.787654 0)scale(0.996264)" xlink:href="#CMR17-30"/>
       <use transform="translate(118.478131 0)scale(0.996264)" xlink:href="#CMR17-30"/>
       <use transform="translate(164.168608 0)scale(0.996264)" xlink:href="#CMR17-34"/>
      </g>
     </g>
    </g>
    <g id="xtick_4">
     <g id="line2d_7">
      <path clip-path="url(#p7367f4541f)" d="M 158.007366 229.385528 
L 158.007366 24.823055 
" style="fill:none;stroke:#b0b0b0;stroke-linecap:square;stroke-width:0.8;"/>
     </g>
     <g id="line2d_8">
      <g>
       <use style="stroke:#000000;stroke-width:0.8;" x="158.007366" xlink:href="#mbcc43c742b" y="229.385528"/>
      </g>
     </g>
     <g id="text_4">
      <!-- $\mathdefault{0.006}$ -->
      <g transform="translate(144.675555 244.687708)scale(0.12 -0.12)">
       <defs>
        <path d="M 678 2198 
C 678 3712 1395 4076 1811 4076 
C 1946 4076 2272 4049 2400 3782 
C 2298 3782 2106 3782 2106 3558 
C 2106 3385 2246 3328 2336 3328 
C 2394 3328 2566 3353 2566 3571 
C 2566 3987 2246 4224 1805 4224 
C 1043 4224 243 3411 243 2011 
C 243 257 966 -128 1478 -128 
C 2099 -128 2688 431 2688 1295 
C 2688 2101 2170 2688 1517 2688 
C 1126 2688 838 2430 678 1979 
L 678 2198 
z
M 1478 25 
C 691 25 691 1212 691 1450 
C 691 1914 909 2585 1504 2585 
C 1613 2585 1926 2585 2138 2140 
C 2253 1889 2253 1624 2253 1302 
C 2253 954 2253 696 2118 438 
C 1978 173 1773 25 1478 25 
z
" id="CMR17-36" transform="scale(0.015625)"/>
       </defs>
       <use transform="scale(0.996264)" xlink:href="#CMR17-30"/>
       <use transform="translate(45.690477 0)scale(0.996264)" xlink:href="#CMMI12-3a"/>
       <use transform="translate(72.787654 0)scale(0.996264)" xlink:href="#CMR17-30"/>
       <use transform="translate(118.478131 0)scale(0.996264)" xlink:href="#CMR17-30"/>
       <use transform="translate(164.168608 0)scale(0.996264)" xlink:href="#CMR17-36"/>
      </g>
     </g>
    </g>
    <g id="xtick_5">
     <g id="line2d_9">
      <path clip-path="url(#p7367f4541f)" d="M 197.857777 229.385528 
L 197.857777 24.823055 
" style="fill:none;stroke:#b0b0b0;stroke-linecap:square;stroke-width:0.8;"/>
     </g>
     <g id="line2d_10">
      <g>
       <use style="stroke:#000000;stroke-width:0.8;" x="197.857777" xlink:href="#mbcc43c742b" y="229.385528"/>
      </g>
     </g>
     <g id="text_5">
      <!-- $\mathdefault{0.008}$ -->
      <g transform="translate(184.525966 244.687708)scale(0.12 -0.12)">
       <defs>
        <path d="M 1741 2289 
C 2144 2494 2554 2803 2554 3298 
C 2554 3884 1990 4224 1472 4224 
C 890 4224 378 3800 378 3215 
C 378 3054 416 2777 666 2533 
C 730 2469 998 2276 1171 2154 
C 883 2006 211 1652 211 945 
C 211 282 838 -128 1459 -128 
C 2144 -128 2720 366 2720 1022 
C 2720 1607 2330 1877 2074 2051 
L 1741 2289 
z
M 902 2855 
C 851 2887 595 3086 595 3388 
C 595 3781 998 4076 1459 4076 
C 1965 4076 2336 3716 2336 3298 
C 2336 2700 1670 2359 1638 2359 
C 1632 2359 1626 2359 1574 2398 
L 902 2855 
z
M 2080 1536 
C 2176 1466 2483 1253 2483 861 
C 2483 385 2010 25 1472 25 
C 890 25 448 443 448 951 
C 448 1459 838 1884 1280 2083 
L 2080 1536 
z
" id="CMR17-38" transform="scale(0.015625)"/>
       </defs>
       <use transform="scale(0.996264)" xlink:href="#CMR17-30"/>
       <use transform="translate(45.690477 0)scale(0.996264)" xlink:href="#CMMI12-3a"/>
       <use transform="translate(72.787654 0)scale(0.996264)" xlink:href="#CMR17-30"/>
       <use transform="translate(118.478131 0)scale(0.996264)" xlink:href="#CMR17-30"/>
       <use transform="translate(164.168608 0)scale(0.996264)" xlink:href="#CMR17-38"/>
      </g>
     </g>
    </g>
    <g id="xtick_6">
     <g id="line2d_11">
      <path clip-path="url(#p7367f4541f)" d="M 237.708189 229.385528 
L 237.708189 24.823055 
" style="fill:none;stroke:#b0b0b0;stroke-linecap:square;stroke-width:0.8;"/>
     </g>
     <g id="line2d_12">
      <g>
       <use style="stroke:#000000;stroke-width:0.8;" x="237.708189" xlink:href="#mbcc43c742b" y="229.385528"/>
      </g>
     </g>
     <g id="text_6">
      <!-- $\mathdefault{0.010}$ -->
      <g transform="translate(224.376378 244.687708)scale(0.12 -0.12)">
       <defs>
        <path d="M 1702 4083 
C 1702 4217 1696 4224 1606 4224 
C 1357 3927 979 3833 621 3820 
C 602 3820 570 3820 563 3808 
C 557 3795 557 3782 557 3648 
C 755 3648 1088 3686 1344 3839 
L 1344 467 
C 1344 243 1331 166 781 166 
L 589 166 
L 589 0 
C 896 6 1216 12 1523 12 
C 1830 12 2150 6 2458 0 
L 2458 166 
L 2266 166 
C 1715 166 1702 236 1702 467 
L 1702 4083 
z
" id="CMR17-31" transform="scale(0.015625)"/>
       </defs>
       <use transform="scale(0.996264)" xlink:href="#CMR17-30"/>
       <use transform="translate(45.690477 0)scale(0.996264)" xlink:href="#CMMI12-3a"/>
       <use transform="translate(72.787654 0)scale(0.996264)" xlink:href="#CMR17-30"/>
       <use transform="translate(118.478131 0)scale(0.996264)" xlink:href="#CMR17-31"/>
       <use transform="translate(164.168608 0)scale(0.996264)" xlink:href="#CMR17-30"/>
      </g>
     </g>
    </g>
    <g id="text_7">
     <!-- $t$ (s) -->
     <g transform="translate(125.335648 261.473076)scale(0.14 -0.14)">
      <defs>
       <path d="M 1286 2566 
L 1875 2566 
C 1997 2566 2061 2566 2061 2681 
C 2061 2752 2022 2752 1894 2752 
L 1331 2752 
L 1568 3664 
C 1594 3752 1594 3764 1594 3808 
C 1594 3910 1510 3968 1427 3968 
C 1376 3968 1229 3948 1178 3746 
L 928 2752 
L 326 2752 
C 198 2752 141 2752 141 2630 
C 141 2566 186 2566 307 2566 
L 877 2566 
L 454 881 
C 403 657 384 593 384 510 
C 384 210 595 -64 954 -64 
C 1600 -64 1946 868 1946 913 
C 1946 951 1920 970 1882 970 
C 1869 970 1843 970 1830 944 
C 1824 938 1818 932 1773 830 
C 1638 510 1344 64 973 64 
C 781 64 768 223 768 364 
C 768 370 768 491 787 568 
L 1286 2566 
z
" id="CMMI12-74" transform="scale(0.015625)"/>
       <path d="M 1958 -1562 
C 1958 -1556 1958 -1543 1939 -1524 
C 1645 -1223 858 -403 858 1596 
C 858 3595 1632 4408 1946 4729 
C 1946 4735 1958 4748 1958 4767 
C 1958 4787 1939 4800 1914 4800 
C 1843 4800 1299 4325 986 3620 
C 666 2909 576 2218 576 1603 
C 576 1141 621 360 1005 -467 
C 1312 -1133 1837 -1600 1914 -1600 
C 1946 -1600 1958 -1588 1958 -1562 
z
" id="CMR17-28" transform="scale(0.015625)"/>
       <path d="M 1978 2688 
C 1978 2803 1971 2809 1933 2809 
C 1907 2809 1901 2803 1824 2707 
C 1805 2681 1747 2617 1728 2592 
C 1523 2809 1235 2816 1126 2816 
C 416 2816 160 2444 160 2073 
C 160 1497 813 1363 998 1324 
C 1402 1241 1542 1216 1677 1100 
C 1760 1024 1901 883 1901 652 
C 1901 384 1747 38 1158 38 
C 602 38 403 460 288 1024 
C 269 1113 269 1120 218 1120 
C 166 1120 160 1113 160 985 
L 160 64 
C 160 -52 166 -58 205 -58 
C 237 -58 243 -52 275 0 
C 314 57 410 211 448 275 
C 576 102 800 -64 1158 -64 
C 1792 -64 2131 281 2131 780 
C 2131 1107 1958 1280 1875 1356 
C 1683 1555 1459 1600 1190 1651 
C 838 1728 390 1817 390 2208 
C 390 2374 480 2726 1126 2726 
C 1811 2726 1850 2086 1862 1881 
C 1869 1849 1901 1843 1920 1843 
C 1978 1843 1978 1862 1978 1971 
L 1978 2688 
z
" id="CMR17-73" transform="scale(0.015625)"/>
       <path d="M 1683 1596 
C 1683 2057 1638 2839 1254 3665 
C 947 4332 422 4800 346 4800 
C 326 4800 301 4793 301 4761 
C 301 4748 307 4742 314 4729 
C 621 4408 1402 3595 1402 1603 
C 1402 -396 627 -1210 314 -1530 
C 307 -1543 301 -1549 301 -1562 
C 301 -1594 326 -1600 346 -1600 
C 416 -1600 960 -1127 1274 -422 
C 1594 289 1683 981 1683 1596 
z
" id="CMR17-29" transform="scale(0.015625)"/>
      </defs>
      <use transform="scale(0.996264)" xlink:href="#CMMI12-74"/>
      <use transform="translate(65.302297 0)scale(0.996264)" xlink:href="#CMR17-28"/>
      <use transform="translate(100.583064 0)scale(0.996264)" xlink:href="#CMR17-73"/>
      <use transform="translate(136.384402 0)scale(0.996264)" xlink:href="#CMR17-29"/>
     </g>
    </g>
   </g>
   <g id="matplotlib.axis_2">
    <g id="ytick_1">
     <g id="line2d_13">
      <path clip-path="url(#p7367f4541f)" d="M 38.456131 214.773923 
L 237.708189 214.773923 
" style="fill:none;stroke:#b0b0b0;stroke-linecap:square;stroke-width:0.8;"/>
     </g>
     <g id="line2d_14">
      <defs>
       <path d="M 0 0 
L -3.5 0 
" id="m93d1039a9e" style="stroke:#000000;stroke-width:0.8;"/>
      </defs>
      <g>
       <use style="stroke:#000000;stroke-width:0.8;" x="38.456131" xlink:href="#m93d1039a9e" y="214.773923"/>
      </g>
     </g>
     <g id="text_8">
      <!-- $\mathdefault{−0.6}$ -->
      <g transform="translate(7.2 218.925013)scale(0.12 -0.12)">
       <defs>
        <path d="M 4218 1472 
C 4326 1472 4442 1472 4442 1600 
C 4442 1728 4326 1728 4218 1728 
L 755 1728 
C 646 1728 531 1728 531 1600 
C 531 1472 646 1472 755 1472 
L 4218 1472 
z
" id="CMSY10-0" transform="scale(0.015625)"/>
       </defs>
       <use transform="scale(0.996264)" xlink:href="#CMSY10-0"/>
       <use transform="translate(77.487468 0)scale(0.996264)" xlink:href="#CMR17-30"/>
       <use transform="translate(123.177945 0)scale(0.996264)" xlink:href="#CMMI12-3a"/>
       <use transform="translate(150.275122 0)scale(0.996264)" xlink:href="#CMR17-36"/>
      </g>
     </g>
    </g>
    <g id="ytick_2">
     <g id="line2d_15">
      <path clip-path="url(#p7367f4541f)" d="M 38.456131 185.550713 
L 237.708189 185.550713 
" style="fill:none;stroke:#b0b0b0;stroke-linecap:square;stroke-width:0.8;"/>
     </g>
     <g id="line2d_16">
      <g>
       <use style="stroke:#000000;stroke-width:0.8;" x="38.456131" xlink:href="#m93d1039a9e" y="185.550713"/>
      </g>
     </g>
     <g id="text_9">
      <!-- $\mathdefault{−0.4}$ -->
      <g transform="translate(7.2 189.701802)scale(0.12 -0.12)">
       <use transform="scale(0.996264)" xlink:href="#CMSY10-0"/>
       <use transform="translate(77.487468 0)scale(0.996264)" xlink:href="#CMR17-30"/>
       <use transform="translate(123.177945 0)scale(0.996264)" xlink:href="#CMMI12-3a"/>
       <use transform="translate(150.275122 0)scale(0.996264)" xlink:href="#CMR17-34"/>
      </g>
     </g>
    </g>
    <g id="ytick_3">
     <g id="line2d_17">
      <path clip-path="url(#p7367f4541f)" d="M 38.456131 156.327502 
L 237.708189 156.327502 
" style="fill:none;stroke:#b0b0b0;stroke-linecap:square;stroke-width:0.8;"/>
     </g>
     <g id="line2d_18">
      <g>
       <use style="stroke:#000000;stroke-width:0.8;" x="38.456131" xlink:href="#m93d1039a9e" y="156.327502"/>
      </g>
     </g>
     <g id="text_10">
      <!-- $\mathdefault{−0.2}$ -->
      <g transform="translate(7.2 160.478592)scale(0.12 -0.12)">
       <use transform="scale(0.996264)" xlink:href="#CMSY10-0"/>
       <use transform="translate(77.487468 0)scale(0.996264)" xlink:href="#CMR17-30"/>
       <use transform="translate(123.177945 0)scale(0.996264)" xlink:href="#CMMI12-3a"/>
       <use transform="translate(150.275122 0)scale(0.996264)" xlink:href="#CMR17-32"/>
      </g>
     </g>
    </g>
    <g id="ytick_4">
     <g id="line2d_19">
      <path clip-path="url(#p7367f4541f)" d="M 38.456131 127.104292 
L 237.708189 127.104292 
" style="fill:none;stroke:#b0b0b0;stroke-linecap:square;stroke-width:0.8;"/>
     </g>
     <g id="line2d_20">
      <g>
       <use style="stroke:#000000;stroke-width:0.8;" x="38.456131" xlink:href="#m93d1039a9e" y="127.104292"/>
      </g>
     </g>
     <g id="text_11">
      <!-- $\mathdefault{0.0}$ -->
      <g transform="translate(16.498489 131.255381)scale(0.12 -0.12)">
       <use transform="scale(0.996264)" xlink:href="#CMR17-30"/>
       <use transform="translate(45.690477 0)scale(0.996264)" xlink:href="#CMMI12-3a"/>
       <use transform="translate(72.787654 0)scale(0.996264)" xlink:href="#CMR17-30"/>
      </g>
     </g>
    </g>
    <g id="ytick_5">
     <g id="line2d_21">
      <path clip-path="url(#p7367f4541f)" d="M 38.456131 97.881081 
L 237.708189 97.881081 
" style="fill:none;stroke:#b0b0b0;stroke-linecap:square;stroke-width:0.8;"/>
     </g>
     <g id="line2d_22">
      <g>
       <use style="stroke:#000000;stroke-width:0.8;" x="38.456131" xlink:href="#m93d1039a9e" y="97.881081"/>
      </g>
     </g>
     <g id="text_12">
      <!-- $\mathdefault{0.2}$ -->
      <g transform="translate(16.498489 102.032171)scale(0.12 -0.12)">
       <use transform="scale(0.996264)" xlink:href="#CMR17-30"/>
       <use transform="translate(45.690477 0)scale(0.996264)" xlink:href="#CMMI12-3a"/>
       <use transform="translate(72.787654 0)scale(0.996264)" xlink:href="#CMR17-32"/>
      </g>
     </g>
    </g>
    <g id="ytick_6">
     <g id="line2d_23">
      <path clip-path="url(#p7367f4541f)" d="M 38.456131 68.657871 
L 237.708189 68.657871 
" style="fill:none;stroke:#b0b0b0;stroke-linecap:square;stroke-width:0.8;"/>
     </g>
     <g id="line2d_24">
      <g>
       <use style="stroke:#000000;stroke-width:0.8;" x="38.456131" xlink:href="#m93d1039a9e" y="68.657871"/>
      </g>
     </g>
     <g id="text_13">
      <!-- $\mathdefault{0.4}$ -->
      <g transform="translate(16.498489 72.80896)scale(0.12 -0.12)">
       <use transform="scale(0.996264)" xlink:href="#CMR17-30"/>
       <use transform="translate(45.690477 0)scale(0.996264)" xlink:href="#CMMI12-3a"/>
       <use transform="translate(72.787654 0)scale(0.996264)" xlink:href="#CMR17-34"/>
      </g>
     </g>
    </g>
    <g id="ytick_7">
     <g id="line2d_25">
      <path clip-path="url(#p7367f4541f)" d="M 38.456131 39.43466 
L 237.708189 39.43466 
" style="fill:none;stroke:#b0b0b0;stroke-linecap:square;stroke-width:0.8;"/>
     </g>
     <g id="line2d_26">
      <g>
       <use style="stroke:#000000;stroke-width:0.8;" x="38.456131" xlink:href="#m93d1039a9e" y="39.43466"/>
      </g>
     </g>
     <g id="text_14">
      <!-- $\mathdefault{0.6}$ -->
      <g transform="translate(16.498489 43.58575)scale(0.12 -0.12)">
       <use transform="scale(0.996264)" xlink:href="#CMR17-30"/>
       <use transform="translate(45.690477 0)scale(0.996264)" xlink:href="#CMMI12-3a"/>
       <use transform="translate(72.787654 0)scale(0.996264)" xlink:href="#CMR17-36"/>
      </g>
     </g>
    </g>
   </g>
   <g id="line2d_27">
    <path clip-path="url(#p7367f4541f)" d="M 38.456131 127.104292 
L 41.618862 96.063641 
L 43.426137 80.623633 
L 44.781593 70.905116 
L 45.685231 65.508759 
L 46.588868 61.079405 
L 47.492506 57.686593 
L 48.396143 55.383586 
L 48.847962 54.652744 
L 49.299781 54.206541 
L 49.751599 54.046729 
L 50.203418 54.173936 
L 50.655237 54.587662 
L 51.107055 55.286282 
L 51.558874 56.267052 
L 52.462512 59.058533 
L 53.366149 62.918282 
L 54.269787 67.785703 
L 55.625243 76.805028 
L 56.980699 87.59818 
L 58.787974 104.083107 
L 62.402524 140.25171 
L 64.661617 161.770023 
L 66.468892 176.643561 
L 67.824348 185.809261 
L 68.727986 190.78664 
L 69.631623 194.764253 
L 70.535261 197.679657 
L 70.987079 198.724053 
L 71.438898 199.487079 
L 71.890717 199.965737 
L 72.342536 200.158147 
L 72.794354 200.063552 
L 73.246173 199.682323 
L 73.697992 199.01596 
L 74.14981 198.067079 
L 75.053448 195.337773 
L 75.957085 191.537252 
L 76.860723 186.725181 
L 78.216179 177.779733 
L 79.571635 167.047191 
L 81.37891 150.618824 
L 84.541641 119.001969 
L 87.252553 92.897567 
L 89.059828 77.9488 
L 90.415285 68.710609 
L 91.318922 63.678628 
L 92.222559 59.642383 
L 93.126197 56.66524 
L 94.029834 54.793936 
L 94.481653 54.282848 
L 94.933472 54.057851 
L 95.385291 54.11983 
L 95.837109 54.46854 
L 96.288928 55.102613 
L 96.740747 56.019557 
L 97.644384 58.68655 
L 98.548022 62.42765 
L 99.451659 67.184125 
L 100.807115 76.055243 
L 102.162571 86.726631 
L 103.969846 103.097604 
L 107.132577 134.689173 
L 109.84349 160.850274 
L 111.650765 175.87351 
L 113.006221 185.183725 
L 113.909858 190.270051 
L 114.813496 194.364723 
L 115.717133 197.403456 
L 116.620771 199.338545 
L 117.072589 199.882037 
L 117.524408 200.13961 
L 117.976227 200.110251 
L 118.428045 199.794076 
L 118.879864 199.192326 
L 119.331683 198.307366 
L 120.23532 195.702822 
L 121.138958 192.021332 
L 122.042595 187.320693 
L 123.398051 178.524355 
L 124.753508 167.914664 
L 126.560783 151.601915 
L 129.723514 120.037236 
L 132.434426 93.820763 
L 134.241701 78.72382 
L 135.597157 69.342055 
L 136.500794 64.201641 
L 137.404432 60.048751 
L 138.308069 56.948582 
L 139.211707 54.949806 
L 139.663526 54.373937 
L 140.115344 54.083801 
L 140.567163 54.080539 
L 141.018982 54.364163 
L 141.4708 54.93356 
L 141.922619 55.786491 
L 142.826257 58.328454 
L 143.729894 61.950147 
L 144.633532 66.594711 
L 145.537169 72.189229 
L 146.892625 82.166303 
L 148.6999 97.86512 
L 150.958994 119.933641 
L 154.573543 155.77006 
L 156.380818 171.548226 
L 157.736275 181.605439 
L 159.091731 189.740641 
L 159.995368 193.951539 
L 160.899006 197.112985 
L 161.802643 199.175347 
L 162.254462 199.783564 
L 162.706281 200.106248 
L 163.158099 200.142131 
L 163.609918 199.891072 
L 164.061737 199.354059 
L 164.513555 198.533199 
L 165.417193 196.053946 
L 166.32083 192.492234 
L 167.224468 187.903981 
L 168.128105 182.361218 
L 169.483561 172.451485 
L 170.839018 160.942561 
L 173.098111 139.329138 
L 177.616298 94.750716 
L 179.423573 79.508661 
L 180.77903 69.985227 
L 181.682667 64.737422 
L 182.586304 60.46873 
L 183.489942 57.246166 
L 184.393579 55.120323 
L 184.845398 54.47979 
L 185.297217 54.124574 
L 185.749036 54.056072 
L 186.200854 54.274552 
L 186.652673 54.779156 
L 187.104492 55.567902 
L 188.008129 57.98432 
L 188.911767 61.485869 
L 189.815404 66.017579 
L 190.719041 71.508304 
L 192.074498 81.350194 
L 193.429954 92.805626 
L 195.237229 109.884807 
L 200.659053 163.045807 
L 202.01451 174.303869 
L 203.369966 183.897414 
L 204.273603 189.198517 
L 205.177241 193.524786 
L 206.080878 196.808303 
L 206.984516 198.99752 
L 207.436334 199.670338 
L 207.888153 200.058067 
L 208.339972 200.159185 
L 208.79179 199.973294 
L 209.243609 199.501125 
L 209.695428 198.744533 
L 210.599065 196.391073 
L 211.502703 192.949864 
L 212.40634 188.474927 
L 213.309978 183.036518 
L 214.665434 173.26297 
L 216.02089 161.861613 
L 217.828165 144.829122 
L 223.701808 87.685779 
L 225.057265 76.88057 
L 226.412721 67.846525 
L 227.316358 62.968064 
L 228.219996 59.096493 
L 229.123633 56.292593 
L 229.575452 55.305452 
L 230.027271 54.600384 
L 230.479089 54.180161 
L 230.930908 54.046432 
L 231.382727 54.199724 
L 231.834545 54.639434 
L 232.286364 55.363834 
L 232.738183 56.370079 
L 233.64182 59.211199 
L 234.545458 63.118189 
L 235.449095 68.029713 
L 236.804551 77.107809 
L 238.160008 87.949055 
L 238.160008 87.949055 
" style="fill:none;stroke:#1f77b4;stroke-linecap:square;stroke-width:1.5;"/>
   </g>
   <g id="patch_3">
    <path d="M 38.456131 229.385528 
L 38.456131 24.823055 
" style="fill:none;stroke:#000000;stroke-linecap:square;stroke-linejoin:miter;stroke-width:0.8;"/>
   </g>
   <g id="patch_4">
    <path d="M 237.708189 229.385528 
L 237.708189 24.823055 
" style="fill:none;stroke:#000000;stroke-linecap:square;stroke-linejoin:miter;stroke-width:0.8;"/>
   </g>
   <g id="patch_5">
    <path d="M 38.456131 229.385528 
L 237.708189 229.385528 
" style="fill:none;stroke:#000000;stroke-linecap:square;stroke-linejoin:miter;stroke-width:0.8;"/>
   </g>
   <g id="patch_6">
    <path d="M 38.456131 24.823055 
L 237.708189 24.823055 
" style="fill:none;stroke:#000000;stroke-linecap:square;stroke-linejoin:miter;stroke-width:0.8;"/>
   </g>
   <g id="text_15">
    <!-- $x$ -->
    <g transform="translate(133.425702 18.823055)scale(0.168 -0.168)">
     <defs>
      <path d="M 3034 2624 
C 2829 2585 2752 2431 2752 2310 
C 2752 2156 2874 2105 2963 2105 
C 3155 2105 3290 2271 3290 2444 
C 3290 2694 2982 2816 2714 2816 
C 2323 2816 2106 2451 2048 2329 
C 1901 2790 1504 2816 1389 2816 
C 736 2816 390 1993 390 1849 
C 390 1823 416 1790 461 1790 
C 512 1790 525 1829 538 1855 
C 755 2572 1184 2687 1370 2687 
C 1658 2687 1715 2438 1715 2284 
C 1715 2143 1677 1993 1600 1678 
L 1382 778 
C 1286 390 1101 64 762 64 
C 730 64 570 64 435 126 
C 666 166 717 358 717 435 
C 717 563 621 640 499 640 
C 346 640 179 505 179 300 
C 179 57 480 -64 755 -64 
C 1062 -64 1280 153 1414 415 
C 1517 64 1837 -64 2074 -64 
C 2726 -64 3072 751 3072 896 
C 3072 929 3046 955 3008 955 
C 2950 955 2944 922 2925 870 
C 2752 300 2381 64 2093 64 
C 1869 64 1747 204 1747 467 
C 1747 607 1773 712 1875 1146 
L 2099 2039 
C 2195 2425 2413 2687 2707 2687 
C 2720 2687 2899 2687 3034 2624 
z
" id="CMMI12-78" transform="scale(0.015625)"/>
     </defs>
     <use transform="scale(0.996264)" xlink:href="#CMMI12-78"/>
    </g>
   </g>
  </g>
  <g id="axes_2">
   <g id="patch_7">
    <path d="M 297.416131 229.385528 
L 496.668189 229.385528 
L 496.668189 24.823055 
L 297.416131 24.823055 
z
" style="fill:#ffffff;"/>
   </g>
   <g id="matplotlib.axis_3">
    <g id="xtick_7">
     <g id="line2d_28">
      <path clip-path="url(#p09f93d2580)" d="M 297.416131 229.385528 
L 297.416131 24.823055 
" style="fill:none;stroke:#b0b0b0;stroke-linecap:square;stroke-width:0.8;"/>
     </g>
     <g id="line2d_29">
      <g>
       <use style="stroke:#000000;stroke-width:0.8;" x="297.416131" xlink:href="#mbcc43c742b" y="229.385528"/>
      </g>
     </g>
     <g id="text_16">
      <!-- $\mathdefault{0.000}$ -->
      <g transform="translate(284.08432 244.687708)scale(0.12 -0.12)">
       <use transform="scale(0.996264)" xlink:href="#CMR17-30"/>
       <use transform="translate(45.690477 0)scale(0.996264)" xlink:href="#CMMI12-3a"/>
       <use transform="translate(72.787654 0)scale(0.996264)" xlink:href="#CMR17-30"/>
       <use transform="translate(118.478131 0)scale(0.996264)" xlink:href="#CMR17-30"/>
       <use transform="translate(164.168608 0)scale(0.996264)" xlink:href="#CMR17-30"/>
      </g>
     </g>
    </g>
    <g id="xtick_8">
     <g id="line2d_30">
      <path clip-path="url(#p09f93d2580)" d="M 337.266543 229.385528 
L 337.266543 24.823055 
" style="fill:none;stroke:#b0b0b0;stroke-linecap:square;stroke-width:0.8;"/>
     </g>
     <g id="line2d_31">
      <g>
       <use style="stroke:#000000;stroke-width:0.8;" x="337.266543" xlink:href="#mbcc43c742b" y="229.385528"/>
      </g>
     </g>
     <g id="text_17">
      <!-- $\mathdefault{0.002}$ -->
      <g transform="translate(323.934732 244.687708)scale(0.12 -0.12)">
       <use transform="scale(0.996264)" xlink:href="#CMR17-30"/>
       <use transform="translate(45.690477 0)scale(0.996264)" xlink:href="#CMMI12-3a"/>
       <use transform="translate(72.787654 0)scale(0.996264)" xlink:href="#CMR17-30"/>
       <use transform="translate(118.478131 0)scale(0.996264)" xlink:href="#CMR17-30"/>
       <use transform="translate(164.168608 0)scale(0.996264)" xlink:href="#CMR17-32"/>
      </g>
     </g>
    </g>
    <g id="xtick_9">
     <g id="line2d_32">
      <path clip-path="url(#p09f93d2580)" d="M 377.116954 229.385528 
L 377.116954 24.823055 
" style="fill:none;stroke:#b0b0b0;stroke-linecap:square;stroke-width:0.8;"/>
     </g>
     <g id="line2d_33">
      <g>
       <use style="stroke:#000000;stroke-width:0.8;" x="377.116954" xlink:href="#mbcc43c742b" y="229.385528"/>
      </g>
     </g>
     <g id="text_18">
      <!-- $\mathdefault{0.004}$ -->
      <g transform="translate(363.785143 244.687708)scale(0.12 -0.12)">
       <use transform="scale(0.996264)" xlink:href="#CMR17-30"/>
       <use transform="translate(45.690477 0)scale(0.996264)" xlink:href="#CMMI12-3a"/>
       <use transform="translate(72.787654 0)scale(0.996264)" xlink:href="#CMR17-30"/>
       <use transform="translate(118.478131 0)scale(0.996264)" xlink:href="#CMR17-30"/>
       <use transform="translate(164.168608 0)scale(0.996264)" xlink:href="#CMR17-34"/>
      </g>
     </g>
    </g>
    <g id="xtick_10">
     <g id="line2d_34">
      <path clip-path="url(#p09f93d2580)" d="M 416.967366 229.385528 
L 416.967366 24.823055 
" style="fill:none;stroke:#b0b0b0;stroke-linecap:square;stroke-width:0.8;"/>
     </g>
     <g id="line2d_35">
      <g>
       <use style="stroke:#000000;stroke-width:0.8;" x="416.967366" xlink:href="#mbcc43c742b" y="229.385528"/>
      </g>
     </g>
     <g id="text_19">
      <!-- $\mathdefault{0.006}$ -->
      <g transform="translate(403.635555 244.687708)scale(0.12 -0.12)">
       <use transform="scale(0.996264)" xlink:href="#CMR17-30"/>
       <use transform="translate(45.690477 0)scale(0.996264)" xlink:href="#CMMI12-3a"/>
       <use transform="translate(72.787654 0)scale(0.996264)" xlink:href="#CMR17-30"/>
       <use transform="translate(118.478131 0)scale(0.996264)" xlink:href="#CMR17-30"/>
       <use transform="translate(164.168608 0)scale(0.996264)" xlink:href="#CMR17-36"/>
      </g>
     </g>
    </g>
    <g id="xtick_11">
     <g id="line2d_36">
      <path clip-path="url(#p09f93d2580)" d="M 456.817777 229.385528 
L 456.817777 24.823055 
" style="fill:none;stroke:#b0b0b0;stroke-linecap:square;stroke-width:0.8;"/>
     </g>
     <g id="line2d_37">
      <g>
       <use style="stroke:#000000;stroke-width:0.8;" x="456.817777" xlink:href="#mbcc43c742b" y="229.385528"/>
      </g>
     </g>
     <g id="text_20">
      <!-- $\mathdefault{0.008}$ -->
      <g transform="translate(443.485966 244.687708)scale(0.12 -0.12)">
       <use transform="scale(0.996264)" xlink:href="#CMR17-30"/>
       <use transform="translate(45.690477 0)scale(0.996264)" xlink:href="#CMMI12-3a"/>
       <use transform="translate(72.787654 0)scale(0.996264)" xlink:href="#CMR17-30"/>
       <use transform="translate(118.478131 0)scale(0.996264)" xlink:href="#CMR17-30"/>
       <use transform="translate(164.168608 0)scale(0.996264)" xlink:href="#CMR17-38"/>
      </g>
     </g>
    </g>
    <g id="xtick_12">
     <g id="line2d_38">
      <path clip-path="url(#p09f93d2580)" d="M 496.668189 229.385528 
L 496.668189 24.823055 
" style="fill:none;stroke:#b0b0b0;stroke-linecap:square;stroke-width:0.8;"/>
     </g>
     <g id="line2d_39">
      <g>
       <use style="stroke:#000000;stroke-width:0.8;" x="496.668189" xlink:href="#mbcc43c742b" y="229.385528"/>
      </g>
     </g>
     <g id="text_21">
      <!-- $\mathdefault{0.010}$ -->
      <g transform="translate(483.336378 244.687708)scale(0.12 -0.12)">
       <use transform="scale(0.996264)" xlink:href="#CMR17-30"/>
       <use transform="translate(45.690477 0)scale(0.996264)" xlink:href="#CMMI12-3a"/>
       <use transform="translate(72.787654 0)scale(0.996264)" xlink:href="#CMR17-30"/>
       <use transform="translate(118.478131 0)scale(0.996264)" xlink:href="#CMR17-31"/>
       <use transform="translate(164.168608 0)scale(0.996264)" xlink:href="#CMR17-30"/>
      </g>
     </g>
    </g>
    <g id="text_22">
     <!-- $t$ (s) -->
     <g transform="translate(384.295648 261.473076)scale(0.14 -0.14)">
      <use transform="scale(0.996264)" xlink:href="#CMMI12-74"/>
      <use transform="translate(65.302297 0)scale(0.996264)" xlink:href="#CMR17-28"/>
      <use transform="translate(100.583064 0)scale(0.996264)" xlink:href="#CMR17-73"/>
      <use transform="translate(136.384402 0)scale(0.996264)" xlink:href="#CMR17-29"/>
     </g>
    </g>
   </g>
   <g id="matplotlib.axis_4">
    <g id="ytick_8">
     <g id="line2d_40">
      <path clip-path="url(#p09f93d2580)" d="M 297.416131 214.773923 
L 496.668189 214.773923 
" style="fill:none;stroke:#b0b0b0;stroke-linecap:square;stroke-width:0.8;"/>
     </g>
     <g id="line2d_41">
      <g>
       <use style="stroke:#000000;stroke-width:0.8;" x="297.416131" xlink:href="#m93d1039a9e" y="214.773923"/>
      </g>
     </g>
     <g id="text_23">
      <!-- $\mathdefault{−0.6}$ -->
      <g transform="translate(266.16 218.925013)scale(0.12 -0.12)">
       <use transform="scale(0.996264)" xlink:href="#CMSY10-0"/>
       <use transform="translate(77.487468 0)scale(0.996264)" xlink:href="#CMR17-30"/>
       <use transform="translate(123.177945 0)scale(0.996264)" xlink:href="#CMMI12-3a"/>
       <use transform="translate(150.275122 0)scale(0.996264)" xlink:href="#CMR17-36"/>
      </g>
     </g>
    </g>
    <g id="ytick_9">
     <g id="line2d_42">
      <path clip-path="url(#p09f93d2580)" d="M 297.416131 185.550713 
L 496.668189 185.550713 
" style="fill:none;stroke:#b0b0b0;stroke-linecap:square;stroke-width:0.8;"/>
     </g>
     <g id="line2d_43">
      <g>
       <use style="stroke:#000000;stroke-width:0.8;" x="297.416131" xlink:href="#m93d1039a9e" y="185.550713"/>
      </g>
     </g>
     <g id="text_24">
      <!-- $\mathdefault{−0.4}$ -->
      <g transform="translate(266.16 189.701802)scale(0.12 -0.12)">
       <use transform="scale(0.996264)" xlink:href="#CMSY10-0"/>
       <use transform="translate(77.487468 0)scale(0.996264)" xlink:href="#CMR17-30"/>
       <use transform="translate(123.177945 0)scale(0.996264)" xlink:href="#CMMI12-3a"/>
       <use transform="translate(150.275122 0)scale(0.996264)" xlink:href="#CMR17-34"/>
      </g>
     </g>
    </g>
    <g id="ytick_10">
     <g id="line2d_44">
      <path clip-path="url(#p09f93d2580)" d="M 297.416131 156.327502 
L 496.668189 156.327502 
" style="fill:none;stroke:#b0b0b0;stroke-linecap:square;stroke-width:0.8;"/>
     </g>
     <g id="line2d_45">
      <g>
       <use style="stroke:#000000;stroke-width:0.8;" x="297.416131" xlink:href="#m93d1039a9e" y="156.327502"/>
      </g>
     </g>
     <g id="text_25">
      <!-- $\mathdefault{−0.2}$ -->
      <g transform="translate(266.16 160.478592)scale(0.12 -0.12)">
       <use transform="scale(0.996264)" xlink:href="#CMSY10-0"/>
       <use transform="translate(77.487468 0)scale(0.996264)" xlink:href="#CMR17-30"/>
       <use transform="translate(123.177945 0)scale(0.996264)" xlink:href="#CMMI12-3a"/>
       <use transform="translate(150.275122 0)scale(0.996264)" xlink:href="#CMR17-32"/>
      </g>
     </g>
    </g>
    <g id="ytick_11">
     <g id="line2d_46">
      <path clip-path="url(#p09f93d2580)" d="M 297.416131 127.104292 
L 496.668189 127.104292 
" style="fill:none;stroke:#b0b0b0;stroke-linecap:square;stroke-width:0.8;"/>
     </g>
     <g id="line2d_47">
      <g>
       <use style="stroke:#000000;stroke-width:0.8;" x="297.416131" xlink:href="#m93d1039a9e" y="127.104292"/>
      </g>
     </g>
     <g id="text_26">
      <!-- $\mathdefault{0.0}$ -->
      <g transform="translate(275.458489 131.255381)scale(0.12 -0.12)">
       <use transform="scale(0.996264)" xlink:href="#CMR17-30"/>
       <use transform="translate(45.690477 0)scale(0.996264)" xlink:href="#CMMI12-3a"/>
       <use transform="translate(72.787654 0)scale(0.996264)" xlink:href="#CMR17-30"/>
      </g>
     </g>
    </g>
    <g id="ytick_12">
     <g id="line2d_48">
      <path clip-path="url(#p09f93d2580)" d="M 297.416131 97.881081 
L 496.668189 97.881081 
" style="fill:none;stroke:#b0b0b0;stroke-linecap:square;stroke-width:0.8;"/>
     </g>
     <g id="line2d_49">
      <g>
       <use style="stroke:#000000;stroke-width:0.8;" x="297.416131" xlink:href="#m93d1039a9e" y="97.881081"/>
      </g>
     </g>
     <g id="text_27">
      <!-- $\mathdefault{0.2}$ -->
      <g transform="translate(275.458489 102.032171)scale(0.12 -0.12)">
       <use transform="scale(0.996264)" xlink:href="#CMR17-30"/>
       <use transform="translate(45.690477 0)scale(0.996264)" xlink:href="#CMMI12-3a"/>
       <use transform="translate(72.787654 0)scale(0.996264)" xlink:href="#CMR17-32"/>
      </g>
     </g>
    </g>
    <g id="ytick_13">
     <g id="line2d_50">
      <path clip-path="url(#p09f93d2580)" d="M 297.416131 68.657871 
L 496.668189 68.657871 
" style="fill:none;stroke:#b0b0b0;stroke-linecap:square;stroke-width:0.8;"/>
     </g>
     <g id="line2d_51">
      <g>
       <use style="stroke:#000000;stroke-width:0.8;" x="297.416131" xlink:href="#m93d1039a9e" y="68.657871"/>
      </g>
     </g>
     <g id="text_28">
      <!-- $\mathdefault{0.4}$ -->
      <g transform="translate(275.458489 72.80896)scale(0.12 -0.12)">
       <use transform="scale(0.996264)" xlink:href="#CMR17-30"/>
       <use transform="translate(45.690477 0)scale(0.996264)" xlink:href="#CMMI12-3a"/>
       <use transform="translate(72.787654 0)scale(0.996264)" xlink:href="#CMR17-34"/>
      </g>
     </g>
    </g>
    <g id="ytick_14">
     <g id="line2d_52">
      <path clip-path="url(#p09f93d2580)" d="M 297.416131 39.43466 
L 496.668189 39.43466 
" style="fill:none;stroke:#b0b0b0;stroke-linecap:square;stroke-width:0.8;"/>
     </g>
     <g id="line2d_53">
      <g>
       <use style="stroke:#000000;stroke-width:0.8;" x="297.416131" xlink:href="#m93d1039a9e" y="39.43466"/>
      </g>
     </g>
     <g id="text_29">
      <!-- $\mathdefault{0.6}$ -->
      <g transform="translate(275.458489 43.58575)scale(0.12 -0.12)">
       <use transform="scale(0.996264)" xlink:href="#CMR17-30"/>
       <use transform="translate(45.690477 0)scale(0.996264)" xlink:href="#CMMI12-3a"/>
       <use transform="translate(72.787654 0)scale(0.996264)" xlink:href="#CMR17-36"/>
      </g>
     </g>
    </g>
   </g>
   <g id="line2d_54">
    <path clip-path="url(#p09f93d2580)" d="M 297.416131 154.241588 
L 297.86795 120.855591 
L 298.319769 130.727158 
L 298.771587 128.48862 
L 299.675225 149.293614 
L 300.127044 128.736772 
L 300.578862 132.223473 
L 301.030681 113.487303 
L 301.4825 105.596193 
L 301.934318 110.207713 
L 302.386137 117.869379 
L 302.837956 137.813947 
L 303.289775 109.856788 
L 303.741593 123.123761 
L 304.193412 139.875884 
L 304.645231 136.938818 
L 305.09705 119.996186 
L 305.548868 147.836894 
L 306.000687 142.007742 
L 306.452506 134.399422 
L 306.904324 149.082381 
L 307.356143 120.822402 
L 307.807962 139.572867 
L 308.259781 134.46449 
L 308.711599 113.380812 
L 309.163418 138.683155 
L 309.615237 128.670662 
L 310.067055 130.088971 
L 310.518874 138.682585 
L 310.970693 118.937875 
L 311.422512 123.112629 
L 311.87433 125.471867 
L 312.326149 120.806352 
L 312.777968 109.149164 
L 313.229787 137.262377 
L 313.681605 141.635622 
L 314.133424 115.735397 
L 314.585243 132.362504 
L 315.037061 125.576274 
L 315.48888 166.869936 
L 315.940699 121.165752 
L 316.392518 101.611716 
L 317.296155 148.639957 
L 317.747974 120.550385 
L 318.199793 132.879414 
L 318.651611 112.49497 
L 319.10343 118.140502 
L 319.555249 148.373397 
L 320.458886 112.726654 
L 320.910705 101.925059 
L 321.362524 103.452312 
L 321.814342 109.62679 
L 322.266161 137.616771 
L 322.71798 154.20024 
L 323.169799 113.939388 
L 323.621617 117.804078 
L 324.073436 155.667082 
L 324.525255 97.02922 
L 324.977073 116.704165 
L 325.428892 148.994112 
L 325.880711 136.723692 
L 326.33253 141.262262 
L 326.784348 143.342795 
L 327.236167 116.97167 
L 327.687986 127.568189 
L 328.139804 111.336113 
L 328.591623 128.380091 
L 329.043442 136.937259 
L 329.495261 123.056507 
L 329.947079 129.678098 
L 330.398898 123.021935 
L 330.850717 151.461431 
L 331.302536 114.260223 
L 331.754354 166.641992 
L 332.206173 121.965263 
L 332.657992 127.109958 
L 333.10981 100.713029 
L 333.561629 120.913814 
L 334.013448 129.226536 
L 334.465267 116.803388 
L 334.917085 119.593885 
L 335.368904 132.803063 
L 335.820723 124.209288 
L 336.72436 96.004089 
L 337.176179 109.490954 
L 337.627998 131.722349 
L 338.079816 130.522753 
L 338.531635 124.413528 
L 338.983454 98.139045 
L 339.435273 107.519043 
L 339.887091 88.172404 
L 340.33891 123.556703 
L 340.790729 113.681938 
L 341.242547 119.446017 
L 341.694366 140.771824 
L 342.146185 134.297257 
L 342.598004 112.139594 
L 343.049822 99.364617 
L 343.501641 111.2526 
L 343.95346 137.827233 
L 344.405279 131.734262 
L 344.857097 110.339425 
L 345.308916 121.971586 
L 345.760735 110.696253 
L 346.664372 147.680595 
L 347.116191 140.164199 
L 347.56801 114.043158 
L 348.019828 133.62569 
L 348.471647 103.907175 
L 348.923466 128.971803 
L 349.375285 128.080427 
L 349.827103 114.659483 
L 350.278922 129.082624 
L 350.730741 111.834959 
L 351.182559 147.334842 
L 351.634378 143.010064 
L 352.086197 135.671133 
L 352.538016 122.443222 
L 352.989834 114.106031 
L 353.893472 143.647797 
L 354.345291 114.992617 
L 354.797109 121.403265 
L 355.248928 136.347224 
L 355.700747 112.491845 
L 356.152565 132.541634 
L 356.604384 138.712027 
L 357.056203 136.847979 
L 357.508022 102.310526 
L 357.95984 133.654101 
L 358.411659 142.320474 
L 358.863478 124.086456 
L 359.315296 129.151201 
L 359.767115 108.534256 
L 360.218934 100.985145 
L 360.670753 134.257042 
L 361.122571 103.83407 
L 361.57439 140.754466 
L 362.026209 139.163736 
L 362.478028 112.67615 
L 362.929846 147.981265 
L 363.381665 108.312918 
L 363.833484 148.874513 
L 364.285302 113.142882 
L 364.737121 140.520823 
L 365.18894 141.974221 
L 365.640759 156.601659 
L 366.544396 101.355538 
L 366.996215 146.055405 
L 367.448034 134.019617 
L 367.899852 133.706528 
L 368.351671 125.228385 
L 368.80349 104.029205 
L 369.707127 124.862387 
L 370.158946 103.739493 
L 370.610765 136.229757 
L 371.062583 117.411439 
L 371.514402 137.007687 
L 371.966221 163.321782 
L 372.41804 137.555648 
L 372.869858 137.433353 
L 373.321677 112.333309 
L 374.677133 146.461205 
L 375.128952 124.71135 
L 375.580771 138.768372 
L 376.032589 130.246399 
L 376.484408 98.28202 
L 376.936227 128.363105 
L 377.388045 131.579036 
L 377.839864 128.349785 
L 378.291683 123.401035 
L 378.743502 114.700279 
L 379.19532 134.390729 
L 379.647139 109.439736 
L 380.098958 154.526902 
L 380.550777 168.992944 
L 381.002595 125.894196 
L 381.454414 117.789936 
L 381.906233 125.117691 
L 382.358051 111.591815 
L 382.80987 115.1057 
L 383.261689 135.439533 
L 383.713508 133.217155 
L 384.165326 105.597742 
L 384.617145 114.883061 
L 385.068964 140.019276 
L 385.520783 132.882978 
L 385.972601 144.384294 
L 386.42442 140.617403 
L 386.876239 117.979463 
L 387.328057 144.369615 
L 387.779876 97.719574 
L 388.231695 152.026198 
L 389.135332 123.384404 
L 389.587151 124.929177 
L 390.03897 127.298093 
L 390.490789 116.774941 
L 390.942607 119.054658 
L 391.394426 141.19631 
L 391.846245 117.246379 
L 392.298063 144.197724 
L 392.749882 123.316514 
L 393.201701 122.618327 
L 393.65352 146.006354 
L 394.105338 116.247845 
L 395.008976 164.048074 
L 395.460794 120.292974 
L 395.912613 124.768203 
L 396.364432 132.161564 
L 396.816251 132.011476 
L 397.268069 147.292978 
L 397.719888 125.406816 
L 398.171707 122.414826 
L 398.623526 132.206383 
L 399.075344 109.757522 
L 399.527163 131.178973 
L 399.978982 116.975027 
L 400.4308 142.461203 
L 400.882619 107.045109 
L 401.334438 141.532624 
L 401.786257 130.484031 
L 402.238075 103.448647 
L 403.141713 135.131608 
L 403.593532 146.00665 
L 404.04535 111.813893 
L 404.497169 165.353046 
L 404.948988 129.263992 
L 405.400806 150.861051 
L 405.852625 114.157495 
L 406.304444 105.683638 
L 406.756263 123.665671 
L 407.208081 124.690506 
L 407.6599 139.340291 
L 408.111719 102.095946 
L 408.563538 113.457646 
L 409.015356 140.591557 
L 409.918994 103.052032 
L 410.370812 121.699588 
L 410.822631 126.303964 
L 411.27445 142.201907 
L 411.726269 145.748612 
L 412.178087 118.83857 
L 412.629906 137.955041 
L 413.081725 128.576478 
L 413.533543 134.140365 
L 413.985362 123.793457 
L 414.889 150.536117 
L 415.340818 98.391805 
L 415.792637 124.423482 
L 416.244456 124.87442 
L 416.696275 134.0444 
L 417.148093 145.598861 
L 418.051731 137.20581 
L 418.503549 117.394123 
L 418.955368 121.216874 
L 419.407187 141.087039 
L 419.859006 120.567393 
L 420.310824 119.818462 
L 420.762643 101.478341 
L 421.214462 151.265112 
L 421.666281 117.227946 
L 422.569918 136.425501 
L 423.021737 133.208372 
L 423.473555 137.184366 
L 423.925374 136.168076 
L 424.377193 117.217295 
L 424.829012 144.796292 
L 425.28083 107.788027 
L 425.732649 138.409519 
L 426.184468 123.24909 
L 426.636287 145.205545 
L 427.088105 113.137993 
L 427.539924 141.165666 
L 427.991743 111.570883 
L 428.443561 142.035526 
L 428.89538 119.334663 
L 429.347199 119.824362 
L 429.799018 137.560471 
L 430.250836 113.482444 
L 430.702655 145.221611 
L 431.154474 138.434807 
L 431.606292 114.407389 
L 432.058111 155.709883 
L 432.50993 138.909875 
L 432.961749 133.509866 
L 433.413567 119.990405 
L 433.865386 141.463625 
L 434.317205 122.412504 
L 434.769024 126.582103 
L 435.220842 121.335919 
L 435.672661 123.115449 
L 436.12448 112.206212 
L 436.576298 175.982507 
L 437.479936 117.600448 
L 437.931755 142.063051 
L 438.383573 115.441846 
L 438.835392 106.835642 
L 439.287211 115.468861 
L 439.73903 121.585688 
L 440.190848 129.823116 
L 440.642667 128.608142 
L 441.998123 114.4309 
L 442.449942 140.245161 
L 442.901761 134.69245 
L 443.353579 160.01949 
L 443.805398 151.151195 
L 444.257217 111.392694 
L 444.709036 125.658168 
L 445.160854 123.552209 
L 445.612673 119.542551 
L 446.064492 117.568797 
L 446.51631 119.833164 
L 446.968129 120.442774 
L 447.871767 137.523831 
L 448.323585 125.618558 
L 448.775404 146.843693 
L 449.227223 103.671839 
L 449.679041 133.549531 
L 450.13086 149.976744 
L 450.582679 130.926004 
L 451.034498 138.668012 
L 451.486316 140.855114 
L 451.938135 97.056384 
L 452.389954 118.074488 
L 452.841773 121.304679 
L 453.293591 114.563408 
L 453.74541 153.237517 
L 454.649047 101.834057 
L 455.100866 127.356966 
L 455.552685 131.632892 
L 456.004504 140.658772 
L 456.456322 104.795246 
L 456.908141 112.0128 
L 457.811779 179.30782 
L 458.263597 125.789386 
L 458.715416 118.797621 
L 459.167235 120.153438 
L 459.619053 109.333963 
L 460.070872 124.786638 
L 460.522691 122.805623 
L 460.97451 129.892114 
L 461.426328 104.26908 
L 461.878147 149.7675 
L 462.329966 125.904356 
L 462.781785 132.613867 
L 463.233603 152.124338 
L 463.685422 112.813284 
L 464.137241 109.24721 
L 464.589059 174.621297 
L 465.040878 129.79116 
L 465.492697 145.079429 
L 465.944516 133.304181 
L 466.396334 133.079803 
L 466.848153 122.989712 
L 467.299972 120.055108 
L 467.75179 123.217327 
L 468.203609 106.546638 
L 468.655428 117.845415 
L 469.107247 115.7286 
L 469.559065 104.448928 
L 470.010884 131.724831 
L 470.462703 123.871483 
L 470.914522 121.311346 
L 471.36634 140.960697 
L 471.818159 133.452866 
L 472.269978 145.29255 
L 472.721796 124.471619 
L 473.173615 136.288801 
L 474.077253 120.498076 
L 474.529071 119.793391 
L 474.98089 125.192803 
L 475.432709 142.633664 
L 475.884528 129.07638 
L 476.336346 160.54944 
L 476.788165 130.487217 
L 477.239984 109.907843 
L 478.143621 147.564563 
L 478.59544 143.211624 
L 479.047259 117.306656 
L 479.499077 126.077516 
L 479.950896 106.503824 
L 480.402715 109.409042 
L 480.854533 111.108087 
L 481.306352 121.053924 
L 481.758171 115.996917 
L 482.20999 121.591807 
L 482.661808 142.831667 
L 483.565446 117.885251 
L 484.017265 123.393154 
L 484.469083 115.623425 
L 484.920902 112.223123 
L 485.372721 121.80285 
L 485.824539 119.962984 
L 486.276358 114.138635 
L 486.728177 127.648757 
L 487.179996 113.97937 
L 487.631814 139.724224 
L 488.083633 143.710478 
L 488.987271 121.519163 
L 489.439089 142.549935 
L 489.890908 113.3427 
L 490.342727 130.812478 
L 490.794545 101.711657 
L 491.246364 126.820107 
L 491.698183 100.526593 
L 492.150002 140.979339 
L 492.60182 124.593724 
L 493.053639 136.366919 
L 493.505458 134.937297 
L 493.957277 122.579739 
L 494.409095 98.466262 
L 494.860914 148.518192 
L 495.312733 130.832171 
L 495.764551 142.75339 
L 496.21637 112.163937 
L 496.668189 124.761602 
L 497.120008 145.677209 
L 497.120008 145.677209 
" style="fill:none;stroke:#1f77b4;stroke-linecap:square;stroke-width:1.5;"/>
   </g>
   <g id="patch_8">
    <path d="M 297.416131 229.385528 
L 297.416131 24.823055 
" style="fill:none;stroke:#000000;stroke-linecap:square;stroke-linejoin:miter;stroke-width:0.8;"/>
   </g>
   <g id="patch_9">
    <path d="M 496.668189 229.385528 
L 496.668189 24.823055 
" style="fill:none;stroke:#000000;stroke-linecap:square;stroke-linejoin:miter;stroke-width:0.8;"/>
   </g>
   <g id="patch_10">
    <path d="M 297.416131 229.385528 
L 496.668189 229.385528 
" style="fill:none;stroke:#000000;stroke-linecap:square;stroke-linejoin:miter;stroke-width:0.8;"/>
   </g>
   <g id="patch_11">
    <path d="M 297.416131 24.823055 
L 496.668189 24.823055 
" style="fill:none;stroke:#000000;stroke-linecap:square;stroke-linejoin:miter;stroke-width:0.8;"/>
   </g>
   <g id="text_30">
    <!-- $b$ -->
    <g transform="translate(393.558193 18.823055)scale(0.168 -0.168)">
     <defs>
      <path d="M 1478 4255 
C 1485 4281 1498 4319 1498 4351 
C 1498 4416 1434 4416 1421 4416 
C 1414 4416 1184 4396 1069 4383 
C 960 4377 864 4364 749 4358 
C 595 4345 550 4339 550 4223 
C 550 4159 614 4159 678 4159 
C 1005 4159 1005 4103 1005 4040 
C 1005 3995 954 3812 928 3699 
L 774 3093 
C 710 2841 346 1392 320 1277 
C 288 1117 288 1008 288 925 
C 288 274 653 -64 1069 -64 
C 1811 -64 2579 887 2579 1813 
C 2579 2400 2246 2816 1766 2816 
C 1434 2816 1133 2541 1011 2413 
L 1478 4255 
z
M 1075 64 
C 870 64 646 217 646 715 
C 646 925 666 1047 781 1494 
C 800 1577 902 1985 928 2068 
C 941 2119 1318 2687 1754 2687 
C 2035 2687 2163 2407 2163 2075 
C 2163 1768 1984 1047 1824 715 
C 1664 370 1370 64 1075 64 
z
" id="CMMI12-62" transform="scale(0.015625)"/>
     </defs>
     <use transform="scale(0.996264)" xlink:href="#CMMI12-62"/>
    </g>
   </g>
  </g>
  <g id="axes_3">
   <g id="patch_12">
    <path d="M 556.376131 229.385528 
L 755.628189 229.385528 
L 755.628189 24.823055 
L 556.376131 24.823055 
z
" style="fill:#ffffff;"/>
   </g>
   <g id="matplotlib.axis_5">
    <g id="xtick_13">
     <g id="line2d_55">
      <path clip-path="url(#p412a59f591)" d="M 556.376131 229.385528 
L 556.376131 24.823055 
" style="fill:none;stroke:#b0b0b0;stroke-linecap:square;stroke-width:0.8;"/>
     </g>
     <g id="line2d_56">
      <g>
       <use style="stroke:#000000;stroke-width:0.8;" x="556.376131" xlink:href="#mbcc43c742b" y="229.385528"/>
      </g>
     </g>
     <g id="text_31">
      <!-- $\mathdefault{0.000}$ -->
      <g transform="translate(543.04432 244.687708)scale(0.12 -0.12)">
       <use transform="scale(0.996264)" xlink:href="#CMR17-30"/>
       <use transform="translate(45.690477 0)scale(0.996264)" xlink:href="#CMMI12-3a"/>
       <use transform="translate(72.787654 0)scale(0.996264)" xlink:href="#CMR17-30"/>
       <use transform="translate(118.478131 0)scale(0.996264)" xlink:href="#CMR17-30"/>
       <use transform="translate(164.168608 0)scale(0.996264)" xlink:href="#CMR17-30"/>
      </g>
     </g>
    </g>
    <g id="xtick_14">
     <g id="line2d_57">
      <path clip-path="url(#p412a59f591)" d="M 596.226543 229.385528 
L 596.226543 24.823055 
" style="fill:none;stroke:#b0b0b0;stroke-linecap:square;stroke-width:0.8;"/>
     </g>
     <g id="line2d_58">
      <g>
       <use style="stroke:#000000;stroke-width:0.8;" x="596.226543" xlink:href="#mbcc43c742b" y="229.385528"/>
      </g>
     </g>
     <g id="text_32">
      <!-- $\mathdefault{0.002}$ -->
      <g transform="translate(582.894732 244.687708)scale(0.12 -0.12)">
       <use transform="scale(0.996264)" xlink:href="#CMR17-30"/>
       <use transform="translate(45.690477 0)scale(0.996264)" xlink:href="#CMMI12-3a"/>
       <use transform="translate(72.787654 0)scale(0.996264)" xlink:href="#CMR17-30"/>
       <use transform="translate(118.478131 0)scale(0.996264)" xlink:href="#CMR17-30"/>
       <use transform="translate(164.168608 0)scale(0.996264)" xlink:href="#CMR17-32"/>
      </g>
     </g>
    </g>
    <g id="xtick_15">
     <g id="line2d_59">
      <path clip-path="url(#p412a59f591)" d="M 636.076954 229.385528 
L 636.076954 24.823055 
" style="fill:none;stroke:#b0b0b0;stroke-linecap:square;stroke-width:0.8;"/>
     </g>
     <g id="line2d_60">
      <g>
       <use style="stroke:#000000;stroke-width:0.8;" x="636.076954" xlink:href="#mbcc43c742b" y="229.385528"/>
      </g>
     </g>
     <g id="text_33">
      <!-- $\mathdefault{0.004}$ -->
      <g transform="translate(622.745143 244.687708)scale(0.12 -0.12)">
       <use transform="scale(0.996264)" xlink:href="#CMR17-30"/>
       <use transform="translate(45.690477 0)scale(0.996264)" xlink:href="#CMMI12-3a"/>
       <use transform="translate(72.787654 0)scale(0.996264)" xlink:href="#CMR17-30"/>
       <use transform="translate(118.478131 0)scale(0.996264)" xlink:href="#CMR17-30"/>
       <use transform="translate(164.168608 0)scale(0.996264)" xlink:href="#CMR17-34"/>
      </g>
     </g>
    </g>
    <g id="xtick_16">
     <g id="line2d_61">
      <path clip-path="url(#p412a59f591)" d="M 675.927366 229.385528 
L 675.927366 24.823055 
" style="fill:none;stroke:#b0b0b0;stroke-linecap:square;stroke-width:0.8;"/>
     </g>
     <g id="line2d_62">
      <g>
       <use style="stroke:#000000;stroke-width:0.8;" x="675.927366" xlink:href="#mbcc43c742b" y="229.385528"/>
      </g>
     </g>
     <g id="text_34">
      <!-- $\mathdefault{0.006}$ -->
      <g transform="translate(662.595555 244.687708)scale(0.12 -0.12)">
       <use transform="scale(0.996264)" xlink:href="#CMR17-30"/>
       <use transform="translate(45.690477 0)scale(0.996264)" xlink:href="#CMMI12-3a"/>
       <use transform="translate(72.787654 0)scale(0.996264)" xlink:href="#CMR17-30"/>
       <use transform="translate(118.478131 0)scale(0.996264)" xlink:href="#CMR17-30"/>
       <use transform="translate(164.168608 0)scale(0.996264)" xlink:href="#CMR17-36"/>
      </g>
     </g>
    </g>
    <g id="xtick_17">
     <g id="line2d_63">
      <path clip-path="url(#p412a59f591)" d="M 715.777777 229.385528 
L 715.777777 24.823055 
" style="fill:none;stroke:#b0b0b0;stroke-linecap:square;stroke-width:0.8;"/>
     </g>
     <g id="line2d_64">
      <g>
       <use style="stroke:#000000;stroke-width:0.8;" x="715.777777" xlink:href="#mbcc43c742b" y="229.385528"/>
      </g>
     </g>
     <g id="text_35">
      <!-- $\mathdefault{0.008}$ -->
      <g transform="translate(702.445966 244.687708)scale(0.12 -0.12)">
       <use transform="scale(0.996264)" xlink:href="#CMR17-30"/>
       <use transform="translate(45.690477 0)scale(0.996264)" xlink:href="#CMMI12-3a"/>
       <use transform="translate(72.787654 0)scale(0.996264)" xlink:href="#CMR17-30"/>
       <use transform="translate(118.478131 0)scale(0.996264)" xlink:href="#CMR17-30"/>
       <use transform="translate(164.168608 0)scale(0.996264)" xlink:href="#CMR17-38"/>
      </g>
     </g>
    </g>
    <g id="xtick_18">
     <g id="line2d_65">
      <path clip-path="url(#p412a59f591)" d="M 755.628189 229.385528 
L 755.628189 24.823055 
" style="fill:none;stroke:#b0b0b0;stroke-linecap:square;stroke-width:0.8;"/>
     </g>
     <g id="line2d_66">
      <g>
       <use style="stroke:#000000;stroke-width:0.8;" x="755.628189" xlink:href="#mbcc43c742b" y="229.385528"/>
      </g>
     </g>
     <g id="text_36">
      <!-- $\mathdefault{0.010}$ -->
      <g transform="translate(742.296378 244.687708)scale(0.12 -0.12)">
       <use transform="scale(0.996264)" xlink:href="#CMR17-30"/>
       <use transform="translate(45.690477 0)scale(0.996264)" xlink:href="#CMMI12-3a"/>
       <use transform="translate(72.787654 0)scale(0.996264)" xlink:href="#CMR17-30"/>
       <use transform="translate(118.478131 0)scale(0.996264)" xlink:href="#CMR17-31"/>
       <use transform="translate(164.168608 0)scale(0.996264)" xlink:href="#CMR17-30"/>
      </g>
     </g>
    </g>
    <g id="text_37">
     <!-- $t$ (s) -->
     <g transform="translate(643.255648 261.473076)scale(0.14 -0.14)">
      <use transform="scale(0.996264)" xlink:href="#CMMI12-74"/>
      <use transform="translate(65.302297 0)scale(0.996264)" xlink:href="#CMR17-28"/>
      <use transform="translate(100.583064 0)scale(0.996264)" xlink:href="#CMR17-73"/>
      <use transform="translate(136.384402 0)scale(0.996264)" xlink:href="#CMR17-29"/>
     </g>
    </g>
   </g>
   <g id="matplotlib.axis_6">
    <g id="ytick_15">
     <g id="line2d_67">
      <path clip-path="url(#p412a59f591)" d="M 556.376131 214.773923 
L 755.628189 214.773923 
" style="fill:none;stroke:#b0b0b0;stroke-linecap:square;stroke-width:0.8;"/>
     </g>
     <g id="line2d_68">
      <g>
       <use style="stroke:#000000;stroke-width:0.8;" x="556.376131" xlink:href="#m93d1039a9e" y="214.773923"/>
      </g>
     </g>
     <g id="text_38">
      <!-- $\mathdefault{−0.6}$ -->
      <g transform="translate(525.12 218.925013)scale(0.12 -0.12)">
       <use transform="scale(0.996264)" xlink:href="#CMSY10-0"/>
       <use transform="translate(77.487468 0)scale(0.996264)" xlink:href="#CMR17-30"/>
       <use transform="translate(123.177945 0)scale(0.996264)" xlink:href="#CMMI12-3a"/>
       <use transform="translate(150.275122 0)scale(0.996264)" xlink:href="#CMR17-36"/>
      </g>
     </g>
    </g>
    <g id="ytick_16">
     <g id="line2d_69">
      <path clip-path="url(#p412a59f591)" d="M 556.376131 185.550713 
L 755.628189 185.550713 
" style="fill:none;stroke:#b0b0b0;stroke-linecap:square;stroke-width:0.8;"/>
     </g>
     <g id="line2d_70">
      <g>
       <use style="stroke:#000000;stroke-width:0.8;" x="556.376131" xlink:href="#m93d1039a9e" y="185.550713"/>
      </g>
     </g>
     <g id="text_39">
      <!-- $\mathdefault{−0.4}$ -->
      <g transform="translate(525.12 189.701802)scale(0.12 -0.12)">
       <use transform="scale(0.996264)" xlink:href="#CMSY10-0"/>
       <use transform="translate(77.487468 0)scale(0.996264)" xlink:href="#CMR17-30"/>
       <use transform="translate(123.177945 0)scale(0.996264)" xlink:href="#CMMI12-3a"/>
       <use transform="translate(150.275122 0)scale(0.996264)" xlink:href="#CMR17-34"/>
      </g>
     </g>
    </g>
    <g id="ytick_17">
     <g id="line2d_71">
      <path clip-path="url(#p412a59f591)" d="M 556.376131 156.327502 
L 755.628189 156.327502 
" style="fill:none;stroke:#b0b0b0;stroke-linecap:square;stroke-width:0.8;"/>
     </g>
     <g id="line2d_72">
      <g>
       <use style="stroke:#000000;stroke-width:0.8;" x="556.376131" xlink:href="#m93d1039a9e" y="156.327502"/>
      </g>
     </g>
     <g id="text_40">
      <!-- $\mathdefault{−0.2}$ -->
      <g transform="translate(525.12 160.478592)scale(0.12 -0.12)">
       <use transform="scale(0.996264)" xlink:href="#CMSY10-0"/>
       <use transform="translate(77.487468 0)scale(0.996264)" xlink:href="#CMR17-30"/>
       <use transform="translate(123.177945 0)scale(0.996264)" xlink:href="#CMMI12-3a"/>
       <use transform="translate(150.275122 0)scale(0.996264)" xlink:href="#CMR17-32"/>
      </g>
     </g>
    </g>
    <g id="ytick_18">
     <g id="line2d_73">
      <path clip-path="url(#p412a59f591)" d="M 556.376131 127.104292 
L 755.628189 127.104292 
" style="fill:none;stroke:#b0b0b0;stroke-linecap:square;stroke-width:0.8;"/>
     </g>
     <g id="line2d_74">
      <g>
       <use style="stroke:#000000;stroke-width:0.8;" x="556.376131" xlink:href="#m93d1039a9e" y="127.104292"/>
      </g>
     </g>
     <g id="text_41">
      <!-- $\mathdefault{0.0}$ -->
      <g transform="translate(534.418489 131.255381)scale(0.12 -0.12)">
       <use transform="scale(0.996264)" xlink:href="#CMR17-30"/>
       <use transform="translate(45.690477 0)scale(0.996264)" xlink:href="#CMMI12-3a"/>
       <use transform="translate(72.787654 0)scale(0.996264)" xlink:href="#CMR17-30"/>
      </g>
     </g>
    </g>
    <g id="ytick_19">
     <g id="line2d_75">
      <path clip-path="url(#p412a59f591)" d="M 556.376131 97.881081 
L 755.628189 97.881081 
" style="fill:none;stroke:#b0b0b0;stroke-linecap:square;stroke-width:0.8;"/>
     </g>
     <g id="line2d_76">
      <g>
       <use style="stroke:#000000;stroke-width:0.8;" x="556.376131" xlink:href="#m93d1039a9e" y="97.881081"/>
      </g>
     </g>
     <g id="text_42">
      <!-- $\mathdefault{0.2}$ -->
      <g transform="translate(534.418489 102.032171)scale(0.12 -0.12)">
       <use transform="scale(0.996264)" xlink:href="#CMR17-30"/>
       <use transform="translate(45.690477 0)scale(0.996264)" xlink:href="#CMMI12-3a"/>
       <use transform="translate(72.787654 0)scale(0.996264)" xlink:href="#CMR17-32"/>
      </g>
     </g>
    </g>
    <g id="ytick_20">
     <g id="line2d_77">
      <path clip-path="url(#p412a59f591)" d="M 556.376131 68.657871 
L 755.628189 68.657871 
" style="fill:none;stroke:#b0b0b0;stroke-linecap:square;stroke-width:0.8;"/>
     </g>
     <g id="line2d_78">
      <g>
       <use style="stroke:#000000;stroke-width:0.8;" x="556.376131" xlink:href="#m93d1039a9e" y="68.657871"/>
      </g>
     </g>
     <g id="text_43">
      <!-- $\mathdefault{0.4}$ -->
      <g transform="translate(534.418489 72.80896)scale(0.12 -0.12)">
       <use transform="scale(0.996264)" xlink:href="#CMR17-30"/>
       <use transform="translate(45.690477 0)scale(0.996264)" xlink:href="#CMMI12-3a"/>
       <use transform="translate(72.787654 0)scale(0.996264)" xlink:href="#CMR17-34"/>
      </g>
     </g>
    </g>
    <g id="ytick_21">
     <g id="line2d_79">
      <path clip-path="url(#p412a59f591)" d="M 556.376131 39.43466 
L 755.628189 39.43466 
" style="fill:none;stroke:#b0b0b0;stroke-linecap:square;stroke-width:0.8;"/>
     </g>
     <g id="line2d_80">
      <g>
       <use style="stroke:#000000;stroke-width:0.8;" x="556.376131" xlink:href="#m93d1039a9e" y="39.43466"/>
      </g>
     </g>
     <g id="text_44">
      <!-- $\mathdefault{0.6}$ -->
      <g transform="translate(534.418489 43.58575)scale(0.12 -0.12)">
       <use transform="scale(0.996264)" xlink:href="#CMR17-30"/>
       <use transform="translate(45.690477 0)scale(0.996264)" xlink:href="#CMMI12-3a"/>
       <use transform="translate(72.787654 0)scale(0.996264)" xlink:href="#CMR17-36"/>
      </g>
     </g>
    </g>
   </g>
   <g id="line2d_81">
    <path clip-path="url(#p412a59f591)" d="M 556.376131 154.241588 
L 556.82795 116.278628 
L 557.279769 121.591214 
L 557.731587 114.829586 
L 558.183406 122.086613 
L 558.635225 126.766946 
L 559.087044 101.900397 
L 559.538862 101.182822 
L 559.990681 78.364325 
L 560.4425 66.528875 
L 560.894318 67.349537 
L 561.346137 71.38872 
L 561.797956 87.893413 
L 562.249775 56.692501 
L 562.701593 66.924586 
L 563.153412 80.862608 
L 563.605231 75.343285 
L 564.05705 56.060385 
L 564.508868 81.812007 
L 565.412506 64.981723 
L 565.864324 78.374284 
L 566.316143 49.101696 
L 566.767962 67.121319 
L 567.219781 61.566739 
L 567.671599 40.323249 
L 568.123418 65.752799 
L 568.575237 56.154033 
L 569.027055 58.270962 
L 569.478874 67.845346 
L 569.930693 49.359701 
L 570.382512 55.066871 
L 570.83433 59.225854 
L 571.286149 56.620343 
L 571.737968 47.275324 
L 572.189787 77.943789 
L 572.641605 85.105329 
L 573.093424 62.215487 
L 573.545243 82.06324 
L 573.997061 78.695265 
L 574.44888 123.591363 
L 574.900699 81.659641 
L 575.352518 66.033273 
L 576.256155 121.320201 
L 576.707974 97.5292 
L 577.159793 114.247244 
L 577.611611 98.325013 
L 578.06343 108.488429 
L 578.515249 143.277127 
L 579.418886 116.784077 
L 579.870705 110.544411 
L 580.322524 116.599731 
L 580.774342 127.250622 
L 581.226161 159.647779 
L 581.67798 180.551872 
L 582.129799 144.508117 
L 582.581617 152.469809 
L 583.033436 194.293625 
L 583.485255 139.464824 
L 583.937073 162.782114 
L 584.388892 198.533382 
L 584.840711 189.529658 
L 585.29253 197.127468 
L 585.744348 202.047764 
L 586.196167 178.28577 
L 586.647986 191.250537 
L 587.099804 177.136522 
L 587.551623 196.040052 
L 588.003442 206.19096 
L 588.455261 193.631872 
L 588.907079 201.29786 
L 589.358898 195.404722 
L 589.810717 224.322877 
L 590.262536 187.314078 
L 590.714354 239.601252 
L 591.166173 194.543295 
L 591.617992 199.021627 
L 592.06981 171.675817 
L 592.521629 190.648932 
L 592.973448 197.460018 
L 593.425267 183.267166 
L 593.877085 184.026845 
L 594.328904 194.952069 
L 594.780723 183.830178 
L 595.68436 149.876905 
L 596.136179 160.166396 
L 596.587998 179.00133 
L 597.039816 174.219527 
L 597.491635 164.356427 
L 597.943454 134.171147 
L 598.395273 139.498788 
L 598.847091 115.974155 
L 599.29891 147.071235 
L 599.750729 132.816871 
L 600.202547 134.126177 
L 600.654366 150.939536 
L 601.106185 139.912576 
L 601.558004 113.180459 
L 602.009822 95.826939 
L 602.461641 103.150278 
L 602.91346 125.192098 
L 603.365279 114.615952 
L 603.817097 88.805194 
L 604.268916 96.106034 
L 604.720735 80.600997 
L 605.624372 109.496788 
L 606.076191 98.153321 
L 606.52801 68.370257 
L 606.979828 84.470199 
L 607.431647 51.462209 
L 607.883466 73.443403 
L 608.335285 69.686744 
L 608.787103 53.629928 
L 609.238922 65.656961 
L 609.690741 46.262367 
L 610.142559 79.872934 
L 610.594378 73.923875 
L 611.046197 65.232081 
L 611.498016 50.928039 
L 611.949834 41.795675 
L 612.853472 70.601357 
L 613.305291 42.008155 
L 613.757109 48.767514 
L 614.208928 64.345545 
L 614.660747 41.40711 
L 615.112565 62.653112 
L 615.564384 70.294286 
L 616.016203 70.169809 
L 616.468022 37.633885 
L 616.91984 71.233081 
L 617.371659 82.400308 
L 617.823478 66.90255 
L 618.275296 74.928212 
L 618.727115 57.485208 
L 619.178934 53.310593 
L 619.630753 90.144283 
L 620.082571 63.456409 
L 620.53439 104.270534 
L 620.986209 106.716866 
L 621.438028 84.393816 
L 621.889846 123.974578 
L 622.341665 88.676193 
L 622.793484 133.684895 
L 623.245302 102.460047 
L 623.697121 134.38674 
L 624.14894 140.412989 
L 624.600759 159.619412 
L 625.052577 133.22047 
L 625.504396 113.47775 
L 625.956215 162.667322 
L 626.408034 155.055978 
L 626.859852 159.084688 
L 627.311671 154.84864 
L 627.76349 137.775188 
L 628.667127 166.446407 
L 629.118946 149.005029 
L 629.570765 184.998976 
L 630.022583 169.492742 
L 630.474402 192.196464 
L 630.926221 221.401215 
L 631.37804 198.297562 
L 631.829858 200.599113 
L 632.281677 177.674758 
L 633.185314 207.565549 
L 633.637133 216.760369 
L 634.088952 196.118326 
L 634.540771 211.002625 
L 634.992589 203.024145 
L 635.444408 171.317338 
L 635.896227 201.369064 
L 636.348045 204.26882 
L 636.799864 200.437819 
L 637.251683 194.60411 
L 637.703502 184.73866 
L 638.15532 202.989259 
L 638.607139 176.328914 
L 639.058958 219.443942 
L 639.510777 231.682808 
L 639.962595 186.110597 
L 640.414414 175.296304 
L 640.866233 179.688101 
L 641.318051 163.011879 
L 641.76987 163.173404 
L 642.221689 179.966037 
L 642.673508 174.027527 
L 643.125326 142.531653 
L 643.577145 147.795409 
L 644.028964 168.780759 
L 644.480783 157.380601 
L 644.932601 164.521815 
L 645.38442 156.315708 
L 645.836239 129.176879 
L 646.288057 151.02215 
L 646.739876 99.801093 
L 647.191695 149.528523 
L 648.095332 111.775731 
L 648.547151 108.824495 
L 648.99897 106.76067 
L 649.450789 91.885463 
L 649.902607 89.910907 
L 650.354426 107.912782 
L 650.806245 79.953834 
L 651.258063 103.042673 
L 651.709882 78.46064 
L 652.161701 74.237856 
L 652.61352 94.291356 
L 653.065338 61.401491 
L 653.517157 85.483909 
L 653.968976 103.596884 
L 654.420794 57.390323 
L 654.872613 59.661215 
L 655.324432 65.106023 
L 655.776251 63.270821 
L 656.228069 77.137269 
L 656.679888 54.111671 
L 657.131707 50.26034 
L 657.583526 59.476028 
L 658.035344 36.737032 
L 658.487163 58.15522 
L 658.938982 44.234899 
L 659.3908 70.290471 
L 659.842619 35.727309 
L 660.294438 71.347939 
L 660.746257 61.708194 
L 661.198075 36.351856 
L 662.101713 72.17608 
L 662.553532 85.497069 
L 663.00535 53.987982 
L 663.457169 110.437984 
L 663.908988 77.475522 
L 664.360806 102.402633 
L 664.812625 69.219506 
L 665.264444 64.442625 
L 665.716263 86.283656 
L 666.168081 91.314351 
L 666.6199 110.101119 
L 667.071719 77.108629 
L 667.523538 92.820351 
L 667.975356 124.385361 
L 668.878994 95.881381 
L 669.330812 119.097887 
L 669.782631 128.281434 
L 670.23445 148.750778 
L 670.686269 156.843156 
L 671.138087 134.4352 
L 671.589906 157.992484 
L 672.041725 152.976012 
L 672.493543 162.806133 
L 672.945362 156.612842 
L 673.849 191.260112 
L 674.300818 142.835739 
L 674.752637 172.41275 
L 675.204456 176.220488 
L 676.108093 203.04097 
L 676.559912 201.942649 
L 677.011731 199.842159 
L 677.463549 182.263347 
L 677.915368 188.064121 
L 678.367187 209.64969 
L 678.819006 190.576087 
L 679.270824 190.998157 
L 679.722643 173.549397 
L 680.174462 223.944385 
L 680.626281 190.229902 
L 681.529918 209.212282 
L 681.981737 205.45814 
L 682.433555 208.613274 
L 682.885374 206.495503 
L 683.337193 186.166949 
L 683.789012 212.097292 
L 684.24083 173.175969 
L 684.692649 201.627516 
L 685.144468 184.04878 
L 685.596287 203.348064 
L 686.048105 168.39492 
L 686.499924 193.319914 
L 686.951743 160.417555 
L 687.403561 187.38272 
L 687.85538 161.004224 
L 688.307199 157.652584 
L 688.759018 171.39874 
L 689.210836 143.19782 
L 689.662655 170.697353 
L 690.114474 159.570828 
L 690.566292 131.120653 
L 691.018111 167.934729 
L 691.46993 146.598277 
L 691.921749 136.631617 
L 692.373567 118.533241 
L 692.825386 135.433271 
L 693.277205 111.832651 
L 693.729024 111.494316 
L 694.180842 101.799473 
L 694.632661 99.207097 
L 695.08448 84.01988 
L 695.536298 143.628932 
L 696.439936 77.309577 
L 696.891755 98.033311 
L 697.343573 67.846215 
L 697.795392 55.861108 
L 698.247211 61.315687 
L 698.69903 64.466623 
L 699.150848 69.962563 
L 699.602667 66.241272 
L 700.958123 46.049733 
L 701.409942 70.387035 
L 701.861761 63.631816 
L 702.313579 88.035521 
L 702.765398 78.526693 
L 703.217217 38.412976 
L 703.669036 52.609948 
L 704.120854 50.722469 
L 704.572673 47.217415 
L 705.024492 46.032407 
L 705.47631 49.366564 
L 705.928129 51.322802 
L 706.831767 71.905409 
L 707.283585 62.1413 
L 707.735404 85.75698 
L 708.187223 45.215661 
L 708.639041 77.953543 
L 709.09086 97.459364 
L 709.542679 81.693556 
L 709.994498 92.913915 
L 710.446316 98.759119 
L 710.898135 58.783874 
L 711.349954 83.775823 
L 711.801773 91.114606 
L 712.253591 88.600534 
L 712.70541 131.603842 
L 713.609047 89.096413 
L 714.060866 119.151204 
L 714.512685 127.99125 
L 714.964504 141.595557 
L 715.416322 110.306777 
L 715.868141 122.077425 
L 716.771779 198.342278 
L 717.223597 149.205343 
L 717.675416 146.503084 
L 718.127235 152.039563 
L 718.579053 145.275478 
L 719.030872 164.642341 
L 719.482691 166.418934 
L 719.93451 177.091691 
L 720.386328 154.869491 
L 720.838147 203.569953 
L 721.289966 182.697479 
L 721.741785 192.174538 
L 722.193603 214.218563 
L 722.645422 177.197115 
L 723.097241 175.667705 
L 723.549059 242.817511 
L 724.000878 199.495171 
L 724.452697 216.017395 
L 724.904516 205.197409 
L 725.356334 205.645849 
L 725.808153 195.943487 
L 726.259972 193.110001 
L 726.71179 196.08633 
L 727.163609 178.943471 
L 727.615428 189.485657 
L 728.067247 186.330798 
L 728.519065 173.73571 
L 728.970884 199.423991 
L 729.422703 189.717054 
L 729.874522 185.044643 
L 730.32634 202.331333 
L 730.778159 192.219735 
L 731.229978 201.224777 
L 731.681796 177.349465 
L 732.133615 185.904525 
L 733.037253 163.018367 
L 733.489071 158.508247 
L 733.94089 159.950125 
L 734.392709 173.296903 
L 734.844528 155.525069 
L 735.296346 182.679671 
L 735.748165 148.212048 
L 736.199984 123.157639 
L 737.103621 151.725912 
L 737.55544 142.795266 
L 738.007259 112.314227 
L 738.459077 116.52863 
L 738.910896 92.435996 
L 739.362715 90.877539 
L 739.814533 88.185713 
L 740.266352 93.830734 
L 740.718171 84.579862 
L 741.16999 86.104314 
L 741.621808 103.413155 
L 742.525446 71.084123 
L 742.977265 73.169432 
L 743.429083 62.174423 
L 743.880902 55.758825 
L 744.332721 62.545084 
L 744.784539 58.144555 
L 745.236358 50.002407 
L 745.688177 61.4467 
L 746.139996 45.971571 
L 746.591814 70.177863 
L 747.043633 72.898779 
L 747.947271 49.015255 
L 748.399089 69.625804 
L 748.850908 40.28484 
L 749.302727 57.90791 
L 749.754545 29.2468 
L 750.206364 55.079649 
L 750.658183 29.792381 
L 751.110002 71.529263 
L 751.56182 56.700631 
L 752.013639 70.297539 
L 752.465458 70.951194 
L 752.917277 60.928295 
L 753.369095 39.391684 
L 753.820914 92.252564 
L 754.272733 77.596543 
L 754.724551 92.756907 
L 755.17637 65.603019 
L 755.628189 81.819172 
L 756.080008 106.521973 
L 756.080008 106.521973 
" style="fill:none;stroke:#1f77b4;stroke-linecap:square;stroke-width:1.5;"/>
   </g>
   <g id="patch_13">
    <path d="M 556.376131 229.385528 
L 556.376131 24.823055 
" style="fill:none;stroke:#000000;stroke-linecap:square;stroke-linejoin:miter;stroke-width:0.8;"/>
   </g>
   <g id="patch_14">
    <path d="M 755.628189 229.385528 
L 755.628189 24.823055 
" style="fill:none;stroke:#000000;stroke-linecap:square;stroke-linejoin:miter;stroke-width:0.8;"/>
   </g>
   <g id="patch_15">
    <path d="M 556.376131 229.385528 
L 755.628189 229.385528 
" style="fill:none;stroke:#000000;stroke-linecap:square;stroke-linejoin:miter;stroke-width:0.8;"/>
   </g>
   <g id="patch_16">
    <path d="M 556.376131 24.823055 
L 755.628189 24.823055 
" style="fill:none;stroke:#000000;stroke-linecap:square;stroke-linejoin:miter;stroke-width:0.8;"/>
   </g>
   <g id="text_45">
    <!-- $y$ -->
    <g transform="translate(652.006774 18.823055)scale(0.168 -0.168)">
     <defs>
      <path d="M 1683 -673 
C 1510 -921 1261 -1152 947 -1152 
C 870 -1152 563 -1139 467 -826 
C 486 -833 518 -833 531 -833 
C 723 -833 851 -666 851 -519 
C 851 -372 730 -320 634 -320 
C 531 -320 307 -397 307 -711 
C 307 -1050 582 -1280 947 -1280 
C 1587 -1280 2234 -673 2413 -7 
L 3040 2483 
C 3046 2515 3059 2553 3059 2591 
C 3059 2687 2982 2752 2886 2752 
C 2829 2752 2694 2726 2643 2534 
L 2170 657 
C 2138 542 2138 530 2086 459 
C 1958 281 1747 64 1440 64 
C 1082 64 1050 415 1050 587 
C 1050 951 1222 1443 1395 1902 
C 1466 2087 1504 2177 1504 2305 
C 1504 2573 1312 2816 998 2816 
C 410 2816 173 1890 173 1838 
C 173 1813 198 1781 243 1781 
C 301 1781 307 1807 333 1896 
C 486 2432 730 2687 979 2687 
C 1037 2687 1146 2687 1146 2477 
C 1146 2311 1075 2126 979 1883 
C 666 1047 666 836 666 683 
C 666 76 1101 -64 1421 -64 
C 1606 -64 1837 -7 2061 230 
L 2067 223 
C 1971 -141 1907 -359 1683 -673 
z
" id="CMMI12-79" transform="scale(0.015625)"/>
     </defs>
     <use transform="scale(0.996264)" xlink:href="#CMMI12-79"/>
    </g>
   </g>
  </g>
 </g>
 <defs>
  <clipPath id="p7367f4541f">
   <rect height="204.562474" width="199.252058" x="38.456131" y="24.823055"/>
  </clipPath>
  <clipPath id="p09f93d2580">
   <rect height="204.562474" width="199.252058" x="297.416131" y="24.823055"/>
  </clipPath>
  <clipPath id="p412a59f591">
   <rect height="204.562474" width="199.252058" x="556.376131" y="24.823055"/>
  </clipPath>
 </defs>
</svg>
