<?xml version="1.0" encoding="utf-8" standalone="no"?>
<!DOCTYPE svg PUBLIC "-//W3C//DTD SVG 1.1//EN"
  "http://www.w3.org/Graphics/SVG/1.1/DTD/svg11.dtd">
<svg height="216pt" version="1.1" viewBox="0 0 648 216" width="648pt" xmlns="http://www.w3.org/2000/svg" xmlns:xlink="http://www.w3.org/1999/xlink">
 <metadata>
  <rdf:RDF xmlns:cc="http://creativecommons.org/ns#" xmlns:dc="http://purl.org/dc/elements/1.1/" xmlns:rdf="http://www.w3.org/1999/02/22-rdf-syntax-ns#">
   <cc:Work>
    <dc:type rdf:resource="http://purl.org/dc/dcmitype/StillImage"/>
    <dc:date>2023-11-05T22:31:28.133593</dc:date>
    <dc:format>image/svg+xml</dc:format>
    <dc:creator>
     <cc:Agent>
      <dc:title>Matplotlib v3.4.3, https://matplotlib.org/</dc:title>
     </cc:Agent>
    </dc:creator>
   </cc:Work>
  </rdf:RDF>
 </metadata>
 <defs>
  <style type="text/css">*{stroke-linecap:butt;stroke-linejoin:round;}</style>
 </defs>
 <g id="figure_1">
  <g id="patch_1">
   <path d="M 0 216 
L 648 216 
L 648 0 
L 0 0 
z
" style="fill:none;"/>
  </g>
  <g id="axes_1">
   <g id="patch_2">
    <path d="M 81 189 
L 228.705882 189 
L 228.705882 25.92 
L 81 25.92 
z
" style="fill:#ffffff;"/>
   </g>
   <g id="matplotlib.axis_1">
    <g id="xtick_1">
     <g id="line2d_1">
      <defs>
       <path d="M 0 0 
L 0 3.5 
" id="ma4e8ca1cc1" style="stroke:#000000;stroke-width:0.8;"/>
      </defs>
      <g>
       <use style="stroke:#000000;stroke-width:0.8;" x="81" xlink:href="#ma4e8ca1cc1" y="189"/>
      </g>
     </g>
     <g id="text_1">
      <!-- 0.0000 -->
      <g transform="translate(63.504688 203.598437)scale(0.1 -0.1)">
       <defs>
        <path d="M 2034 4250 
Q 1547 4250 1301 3770 
Q 1056 3291 1056 2328 
Q 1056 1369 1301 889 
Q 1547 409 2034 409 
Q 2525 409 2770 889 
Q 3016 1369 3016 2328 
Q 3016 3291 2770 3770 
Q 2525 4250 2034 4250 
z
M 2034 4750 
Q 2819 4750 3233 4129 
Q 3647 3509 3647 2328 
Q 3647 1150 3233 529 
Q 2819 -91 2034 -91 
Q 1250 -91 836 529 
Q 422 1150 422 2328 
Q 422 3509 836 4129 
Q 1250 4750 2034 4750 
z
" id="DejaVuSans-30" transform="scale(0.015625)"/>
        <path d="M 684 794 
L 1344 794 
L 1344 0 
L 684 0 
L 684 794 
z
" id="DejaVuSans-2e" transform="scale(0.015625)"/>
       </defs>
       <use xlink:href="#DejaVuSans-30"/>
       <use x="63.623047" xlink:href="#DejaVuSans-2e"/>
       <use x="95.410156" xlink:href="#DejaVuSans-30"/>
       <use x="159.033203" xlink:href="#DejaVuSans-30"/>
       <use x="222.65625" xlink:href="#DejaVuSans-30"/>
       <use x="286.279297" xlink:href="#DejaVuSans-30"/>
      </g>
     </g>
    </g>
    <g id="xtick_2">
     <g id="line2d_2">
      <g>
       <use style="stroke:#000000;stroke-width:0.8;" x="117.926471" xlink:href="#ma4e8ca1cc1" y="189"/>
      </g>
     </g>
     <g id="text_2">
      <!-- 0.0025 -->
      <g transform="translate(100.431158 203.598437)scale(0.1 -0.1)">
       <defs>
        <path d="M 1228 531 
L 3431 531 
L 3431 0 
L 469 0 
L 469 531 
Q 828 903 1448 1529 
Q 2069 2156 2228 2338 
Q 2531 2678 2651 2914 
Q 2772 3150 2772 3378 
Q 2772 3750 2511 3984 
Q 2250 4219 1831 4219 
Q 1534 4219 1204 4116 
Q 875 4013 500 3803 
L 500 4441 
Q 881 4594 1212 4672 
Q 1544 4750 1819 4750 
Q 2544 4750 2975 4387 
Q 3406 4025 3406 3419 
Q 3406 3131 3298 2873 
Q 3191 2616 2906 2266 
Q 2828 2175 2409 1742 
Q 1991 1309 1228 531 
z
" id="DejaVuSans-32" transform="scale(0.015625)"/>
        <path d="M 691 4666 
L 3169 4666 
L 3169 4134 
L 1269 4134 
L 1269 2991 
Q 1406 3038 1543 3061 
Q 1681 3084 1819 3084 
Q 2600 3084 3056 2656 
Q 3513 2228 3513 1497 
Q 3513 744 3044 326 
Q 2575 -91 1722 -91 
Q 1428 -91 1123 -41 
Q 819 9 494 109 
L 494 744 
Q 775 591 1075 516 
Q 1375 441 1709 441 
Q 2250 441 2565 725 
Q 2881 1009 2881 1497 
Q 2881 1984 2565 2268 
Q 2250 2553 1709 2553 
Q 1456 2553 1204 2497 
Q 953 2441 691 2322 
L 691 4666 
z
" id="DejaVuSans-35" transform="scale(0.015625)"/>
       </defs>
       <use xlink:href="#DejaVuSans-30"/>
       <use x="63.623047" xlink:href="#DejaVuSans-2e"/>
       <use x="95.410156" xlink:href="#DejaVuSans-30"/>
       <use x="159.033203" xlink:href="#DejaVuSans-30"/>
       <use x="222.65625" xlink:href="#DejaVuSans-32"/>
       <use x="286.279297" xlink:href="#DejaVuSans-35"/>
      </g>
     </g>
    </g>
    <g id="xtick_3">
     <g id="line2d_3">
      <g>
       <use style="stroke:#000000;stroke-width:0.8;" x="154.852941" xlink:href="#ma4e8ca1cc1" y="189"/>
      </g>
     </g>
     <g id="text_3">
      <!-- 0.0050 -->
      <g transform="translate(137.357629 203.598437)scale(0.1 -0.1)">
       <use xlink:href="#DejaVuSans-30"/>
       <use x="63.623047" xlink:href="#DejaVuSans-2e"/>
       <use x="95.410156" xlink:href="#DejaVuSans-30"/>
       <use x="159.033203" xlink:href="#DejaVuSans-30"/>
       <use x="222.65625" xlink:href="#DejaVuSans-35"/>
       <use x="286.279297" xlink:href="#DejaVuSans-30"/>
      </g>
     </g>
    </g>
    <g id="xtick_4">
     <g id="line2d_4">
      <g>
       <use style="stroke:#000000;stroke-width:0.8;" x="191.779412" xlink:href="#ma4e8ca1cc1" y="189"/>
      </g>
     </g>
     <g id="text_4">
      <!-- 0.0075 -->
      <g transform="translate(174.284099 203.598437)scale(0.1 -0.1)">
       <defs>
        <path d="M 525 4666 
L 3525 4666 
L 3525 4397 
L 1831 0 
L 1172 0 
L 2766 4134 
L 525 4134 
L 525 4666 
z
" id="DejaVuSans-37" transform="scale(0.015625)"/>
       </defs>
       <use xlink:href="#DejaVuSans-30"/>
       <use x="63.623047" xlink:href="#DejaVuSans-2e"/>
       <use x="95.410156" xlink:href="#DejaVuSans-30"/>
       <use x="159.033203" xlink:href="#DejaVuSans-30"/>
       <use x="222.65625" xlink:href="#DejaVuSans-37"/>
       <use x="286.279297" xlink:href="#DejaVuSans-35"/>
      </g>
     </g>
    </g>
    <g id="xtick_5">
     <g id="line2d_5">
      <g>
       <use style="stroke:#000000;stroke-width:0.8;" x="228.705882" xlink:href="#ma4e8ca1cc1" y="189"/>
      </g>
     </g>
     <g id="text_5">
      <!-- 0.0100 -->
      <g transform="translate(211.21057 203.598437)scale(0.1 -0.1)">
       <defs>
        <path d="M 794 531 
L 1825 531 
L 1825 4091 
L 703 3866 
L 703 4441 
L 1819 4666 
L 2450 4666 
L 2450 531 
L 3481 531 
L 3481 0 
L 794 0 
L 794 531 
z
" id="DejaVuSans-31" transform="scale(0.015625)"/>
       </defs>
       <use xlink:href="#DejaVuSans-30"/>
       <use x="63.623047" xlink:href="#DejaVuSans-2e"/>
       <use x="95.410156" xlink:href="#DejaVuSans-30"/>
       <use x="159.033203" xlink:href="#DejaVuSans-31"/>
       <use x="222.65625" xlink:href="#DejaVuSans-30"/>
       <use x="286.279297" xlink:href="#DejaVuSans-30"/>
      </g>
     </g>
    </g>
    <g id="text_6">
     <!-- $t$ (s) -->
     <g transform="translate(144.752941 217.276563)scale(0.1 -0.1)">
      <defs>
       <path d="M 2706 3500 
L 2619 3053 
L 1472 3053 
L 1100 1153 
Q 1081 1047 1072 975 
Q 1063 903 1063 863 
Q 1063 663 1183 572 
Q 1303 481 1569 481 
L 2150 481 
L 2053 0 
L 1503 0 
Q 991 0 739 200 
Q 488 400 488 806 
Q 488 878 497 964 
Q 506 1050 525 1153 
L 897 3053 
L 409 3053 
L 500 3500 
L 978 3500 
L 1172 4494 
L 1747 4494 
L 1556 3500 
L 2706 3500 
z
" id="DejaVuSans-Oblique-74" transform="scale(0.015625)"/>
       <path id="DejaVuSans-20" transform="scale(0.015625)"/>
       <path d="M 1984 4856 
Q 1566 4138 1362 3434 
Q 1159 2731 1159 2009 
Q 1159 1288 1364 580 
Q 1569 -128 1984 -844 
L 1484 -844 
Q 1016 -109 783 600 
Q 550 1309 550 2009 
Q 550 2706 781 3412 
Q 1013 4119 1484 4856 
L 1984 4856 
z
" id="DejaVuSans-28" transform="scale(0.015625)"/>
       <path d="M 2834 3397 
L 2834 2853 
Q 2591 2978 2328 3040 
Q 2066 3103 1784 3103 
Q 1356 3103 1142 2972 
Q 928 2841 928 2578 
Q 928 2378 1081 2264 
Q 1234 2150 1697 2047 
L 1894 2003 
Q 2506 1872 2764 1633 
Q 3022 1394 3022 966 
Q 3022 478 2636 193 
Q 2250 -91 1575 -91 
Q 1294 -91 989 -36 
Q 684 19 347 128 
L 347 722 
Q 666 556 975 473 
Q 1284 391 1588 391 
Q 1994 391 2212 530 
Q 2431 669 2431 922 
Q 2431 1156 2273 1281 
Q 2116 1406 1581 1522 
L 1381 1569 
Q 847 1681 609 1914 
Q 372 2147 372 2553 
Q 372 3047 722 3315 
Q 1072 3584 1716 3584 
Q 2034 3584 2315 3537 
Q 2597 3491 2834 3397 
z
" id="DejaVuSans-73" transform="scale(0.015625)"/>
       <path d="M 513 4856 
L 1013 4856 
Q 1481 4119 1714 3412 
Q 1947 2706 1947 2009 
Q 1947 1309 1714 600 
Q 1481 -109 1013 -844 
L 513 -844 
Q 928 -128 1133 580 
Q 1338 1288 1338 2009 
Q 1338 2731 1133 3434 
Q 928 4138 513 4856 
z
" id="DejaVuSans-29" transform="scale(0.015625)"/>
      </defs>
      <use transform="translate(0 0.125)" xlink:href="#DejaVuSans-Oblique-74"/>
      <use transform="translate(39.208984 0.125)" xlink:href="#DejaVuSans-20"/>
      <use transform="translate(70.996094 0.125)" xlink:href="#DejaVuSans-28"/>
      <use transform="translate(110.009766 0.125)" xlink:href="#DejaVuSans-73"/>
      <use transform="translate(162.109375 0.125)" xlink:href="#DejaVuSans-29"/>
     </g>
    </g>
   </g>
   <g id="matplotlib.axis_2">
    <g id="ytick_1">
     <g id="line2d_6">
      <defs>
       <path d="M 0 0 
L -3.5 0 
" id="ma8d5b3f1b6" style="stroke:#000000;stroke-width:0.8;"/>
      </defs>
      <g>
       <use style="stroke:#000000;stroke-width:0.8;" x="81" xlink:href="#ma8d5b3f1b6" y="177.351429"/>
      </g>
     </g>
     <g id="text_7">
      <!-- −0.6 -->
      <g transform="translate(49.717187 181.150647)scale(0.1 -0.1)">
       <defs>
        <path d="M 678 2272 
L 4684 2272 
L 4684 1741 
L 678 1741 
L 678 2272 
z
" id="DejaVuSans-2212" transform="scale(0.015625)"/>
        <path d="M 2113 2584 
Q 1688 2584 1439 2293 
Q 1191 2003 1191 1497 
Q 1191 994 1439 701 
Q 1688 409 2113 409 
Q 2538 409 2786 701 
Q 3034 994 3034 1497 
Q 3034 2003 2786 2293 
Q 2538 2584 2113 2584 
z
M 3366 4563 
L 3366 3988 
Q 3128 4100 2886 4159 
Q 2644 4219 2406 4219 
Q 1781 4219 1451 3797 
Q 1122 3375 1075 2522 
Q 1259 2794 1537 2939 
Q 1816 3084 2150 3084 
Q 2853 3084 3261 2657 
Q 3669 2231 3669 1497 
Q 3669 778 3244 343 
Q 2819 -91 2113 -91 
Q 1303 -91 875 529 
Q 447 1150 447 2328 
Q 447 3434 972 4092 
Q 1497 4750 2381 4750 
Q 2619 4750 2861 4703 
Q 3103 4656 3366 4563 
z
" id="DejaVuSans-36" transform="scale(0.015625)"/>
       </defs>
       <use xlink:href="#DejaVuSans-2212"/>
       <use x="83.789062" xlink:href="#DejaVuSans-30"/>
       <use x="147.412109" xlink:href="#DejaVuSans-2e"/>
       <use x="179.199219" xlink:href="#DejaVuSans-36"/>
      </g>
     </g>
    </g>
    <g id="ytick_2">
     <g id="line2d_7">
      <g>
       <use style="stroke:#000000;stroke-width:0.8;" x="81" xlink:href="#ma8d5b3f1b6" y="154.054286"/>
      </g>
     </g>
     <g id="text_8">
      <!-- −0.4 -->
      <g transform="translate(49.717187 157.853504)scale(0.1 -0.1)">
       <defs>
        <path d="M 2419 4116 
L 825 1625 
L 2419 1625 
L 2419 4116 
z
M 2253 4666 
L 3047 4666 
L 3047 1625 
L 3713 1625 
L 3713 1100 
L 3047 1100 
L 3047 0 
L 2419 0 
L 2419 1100 
L 313 1100 
L 313 1709 
L 2253 4666 
z
" id="DejaVuSans-34" transform="scale(0.015625)"/>
       </defs>
       <use xlink:href="#DejaVuSans-2212"/>
       <use x="83.789062" xlink:href="#DejaVuSans-30"/>
       <use x="147.412109" xlink:href="#DejaVuSans-2e"/>
       <use x="179.199219" xlink:href="#DejaVuSans-34"/>
      </g>
     </g>
    </g>
    <g id="ytick_3">
     <g id="line2d_8">
      <g>
       <use style="stroke:#000000;stroke-width:0.8;" x="81" xlink:href="#ma8d5b3f1b6" y="130.757143"/>
      </g>
     </g>
     <g id="text_9">
      <!-- −0.2 -->
      <g transform="translate(49.717187 134.556362)scale(0.1 -0.1)">
       <use xlink:href="#DejaVuSans-2212"/>
       <use x="83.789062" xlink:href="#DejaVuSans-30"/>
       <use x="147.412109" xlink:href="#DejaVuSans-2e"/>
       <use x="179.199219" xlink:href="#DejaVuSans-32"/>
      </g>
     </g>
    </g>
    <g id="ytick_4">
     <g id="line2d_9">
      <g>
       <use style="stroke:#000000;stroke-width:0.8;" x="81" xlink:href="#ma8d5b3f1b6" y="107.46"/>
      </g>
     </g>
     <g id="text_10">
      <!-- 0.0 -->
      <g transform="translate(58.096875 111.259219)scale(0.1 -0.1)">
       <use xlink:href="#DejaVuSans-30"/>
       <use x="63.623047" xlink:href="#DejaVuSans-2e"/>
       <use x="95.410156" xlink:href="#DejaVuSans-30"/>
      </g>
     </g>
    </g>
    <g id="ytick_5">
     <g id="line2d_10">
      <g>
       <use style="stroke:#000000;stroke-width:0.8;" x="81" xlink:href="#ma8d5b3f1b6" y="84.162857"/>
      </g>
     </g>
     <g id="text_11">
      <!-- 0.2 -->
      <g transform="translate(58.096875 87.962076)scale(0.1 -0.1)">
       <use xlink:href="#DejaVuSans-30"/>
       <use x="63.623047" xlink:href="#DejaVuSans-2e"/>
       <use x="95.410156" xlink:href="#DejaVuSans-32"/>
      </g>
     </g>
    </g>
    <g id="ytick_6">
     <g id="line2d_11">
      <g>
       <use style="stroke:#000000;stroke-width:0.8;" x="81" xlink:href="#ma8d5b3f1b6" y="60.865714"/>
      </g>
     </g>
     <g id="text_12">
      <!-- 0.4 -->
      <g transform="translate(58.096875 64.664933)scale(0.1 -0.1)">
       <use xlink:href="#DejaVuSans-30"/>
       <use x="63.623047" xlink:href="#DejaVuSans-2e"/>
       <use x="95.410156" xlink:href="#DejaVuSans-34"/>
      </g>
     </g>
    </g>
    <g id="ytick_7">
     <g id="line2d_12">
      <g>
       <use style="stroke:#000000;stroke-width:0.8;" x="81" xlink:href="#ma8d5b3f1b6" y="37.568571"/>
      </g>
     </g>
     <g id="text_13">
      <!-- 0.6 -->
      <g transform="translate(58.096875 41.36779)scale(0.1 -0.1)">
       <use xlink:href="#DejaVuSans-30"/>
       <use x="63.623047" xlink:href="#DejaVuSans-2e"/>
       <use x="95.410156" xlink:href="#DejaVuSans-36"/>
      </g>
     </g>
    </g>
   </g>
   <g id="line2d_13">
    <path clip-path="url(#pcd41c5152f)" d="M 81 107.46 
L 83.679472 79.459482 
L 85.019208 67.662668 
L 86.02401 60.41381 
L 87.028812 54.824058 
L 87.698679 52.119262 
L 88.368547 50.283273 
L 88.703481 49.700636 
L 89.038415 49.344917 
L 89.373349 49.217512 
L 89.708283 49.318923 
L 90.043217 49.648752 
L 90.378151 50.205701 
L 91.048019 51.991329 
L 91.717887 54.647773 
L 92.387755 58.133329 
L 93.392557 64.793196 
L 94.397359 72.957729 
L 95.737095 85.680317 
L 98.081633 110.694633 
L 100.42617 135.095995 
L 101.765906 146.953383 
L 102.770708 154.260404 
L 103.77551 159.916985 
L 104.445378 162.669997 
L 105.115246 164.556253 
L 105.785114 165.546141 
L 106.120048 165.699532 
L 106.454982 165.624119 
L 106.789916 165.320199 
L 107.12485 164.788965 
L 107.794718 163.053789 
L 108.464586 160.445832 
L 109.134454 157.006038 
L 110.139256 150.408146 
L 111.144058 142.295666 
L 112.483794 129.623936 
L 114.828331 104.639715 
L 117.172869 80.189931 
L 118.512605 68.27257 
L 119.517407 60.907758 
L 120.522209 55.184633 
L 121.192077 52.383546 
L 121.861945 50.447118 
L 122.531813 49.40575 
L 122.866747 49.226379 
L 123.201681 49.27579 
L 123.536615 49.553786 
L 123.871549 50.059278 
L 124.541417 51.743914 
L 125.211285 54.303252 
L 125.881152 57.69711 
L 126.885954 64.232692 
L 127.890756 72.292706 
L 129.230492 84.912937 
L 131.57503 109.865794 
L 133.919568 134.362759 
L 135.259304 146.339488 
L 136.264106 153.761718 
L 137.268908 159.551096 
L 137.938776 162.400116 
L 138.608643 164.386617 
L 139.278511 165.479414 
L 139.613445 165.684754 
L 139.948379 165.661349 
L 140.283313 165.409289 
L 140.618247 164.929566 
L 141.288115 163.295555 
L 141.957983 160.784967 
L 142.627851 157.437217 
L 143.632653 150.964277 
L 144.637455 142.957137 
L 145.977191 130.389047 
L 148.321729 105.46882 
L 150.666267 80.925916 
L 152.006002 68.890427 
L 153.010804 61.411155 
L 154.015606 55.555819 
L 154.685474 52.65901 
L 155.355342 50.622536 
L 156.02521 49.478367 
L 156.360144 49.247067 
L 156.695078 49.244466 
L 157.030012 49.470576 
L 157.364946 49.924506 
L 158.034814 51.50781 
L 158.704682 53.969521 
L 159.37455 57.270992 
L 160.379352 63.680962 
L 161.384154 71.634821 
L 162.72389 84.150133 
L 164.733493 105.385888 
L 167.412965 133.624062 
L 168.752701 145.717701 
L 169.757503 153.253634 
L 170.762305 159.174632 
L 171.432173 162.119082 
L 172.102041 164.205426 
L 172.771909 165.400909 
L 173.106843 165.658157 
L 173.441777 165.686764 
L 173.776711 165.486617 
L 174.111645 165.058502 
L 174.781513 163.525986 
L 175.451381 161.113277 
L 176.121248 157.858252 
L 177.12605 151.511577 
L 178.130852 143.611403 
L 179.470588 131.149504 
L 181.480192 109.948702 
L 184.159664 81.667287 
L 185.4994 69.516113 
L 186.504202 61.923901 
L 187.509004 55.937542 
L 188.178872 52.945599 
L 188.848739 50.809491 
L 189.518607 49.562754 
L 189.853541 49.279572 
L 190.188475 49.224961 
L 190.523409 49.399136 
L 190.858343 49.801413 
L 191.528211 51.283063 
L 192.198079 53.646648 
L 192.867947 56.855062 
L 193.872749 63.138119 
L 194.877551 70.984208 
L 196.217287 83.392061 
L 198.226891 104.556833 
L 200.906363 132.880054 
L 202.246098 145.088148 
L 203.2509 152.736254 
L 204.255702 158.78767 
L 204.92557 161.826953 
L 205.595438 164.012716 
L 206.265306 165.310644 
L 206.60024 165.619747 
L 206.935174 165.70036 
L 207.270108 165.552165 
L 207.605042 165.175745 
L 208.27491 163.745037 
L 208.944778 161.430696 
L 209.614646 158.269056 
L 210.619448 152.049936 
L 211.62425 144.25833 
L 212.963986 131.905153 
L 214.973589 110.777484 
L 217.653061 82.413894 
L 218.992797 70.149501 
L 219.997599 62.445889 
L 221.002401 56.329723 
L 221.672269 53.243253 
L 222.342137 51.007946 
L 223.012005 49.658894 
L 223.346939 49.323886 
L 223.681873 49.217276 
L 224.016807 49.339482 
L 224.351741 49.690025 
L 224.686675 50.267527 
L 225.356543 52.09345 
L 226.026411 54.788587 
L 226.696279 58.310626 
L 227.70108 65.01983 
L 228.705882 73.225708 
L 229.040816 76.24491 
L 229.040816 76.24491 
" style="fill:none;stroke:#1f77b4;stroke-linecap:square;stroke-width:1.5;"/>
   </g>
   <g id="patch_3">
    <path d="M 81 189 
L 81 25.92 
" style="fill:none;stroke:#000000;stroke-linecap:square;stroke-linejoin:miter;stroke-width:0.8;"/>
   </g>
   <g id="patch_4">
    <path d="M 228.705882 189 
L 228.705882 25.92 
" style="fill:none;stroke:#000000;stroke-linecap:square;stroke-linejoin:miter;stroke-width:0.8;"/>
   </g>
   <g id="patch_5">
    <path d="M 81 189 
L 228.705882 189 
" style="fill:none;stroke:#000000;stroke-linecap:square;stroke-linejoin:miter;stroke-width:0.8;"/>
   </g>
   <g id="patch_6">
    <path d="M 81 25.92 
L 228.705882 25.92 
" style="fill:none;stroke:#000000;stroke-linecap:square;stroke-linejoin:miter;stroke-width:0.8;"/>
   </g>
   <g id="text_14">
    <!-- $x$ -->
    <g transform="translate(151.252941 19.92)scale(0.12 -0.12)">
     <defs>
      <path d="M 3841 3500 
L 2234 1784 
L 3219 0 
L 2559 0 
L 1819 1388 
L 531 0 
L -166 0 
L 1556 1844 
L 641 3500 
L 1300 3500 
L 1972 2234 
L 3144 3500 
L 3841 3500 
z
" id="DejaVuSans-Oblique-78" transform="scale(0.015625)"/>
     </defs>
     <use transform="translate(0 0.3125)" xlink:href="#DejaVuSans-Oblique-78"/>
    </g>
   </g>
  </g>
  <g id="axes_2">
   <g id="patch_7">
    <path d="M 258.247059 189 
L 405.952941 189 
L 405.952941 25.92 
L 258.247059 25.92 
z
" style="fill:#ffffff;"/>
   </g>
   <g id="matplotlib.axis_3">
    <g id="xtick_6">
     <g id="line2d_14">
      <g>
       <use style="stroke:#000000;stroke-width:0.8;" x="258.247059" xlink:href="#ma4e8ca1cc1" y="189"/>
      </g>
     </g>
     <g id="text_15">
      <!-- 0.0000 -->
      <g transform="translate(240.751746 203.598437)scale(0.1 -0.1)">
       <use xlink:href="#DejaVuSans-30"/>
       <use x="63.623047" xlink:href="#DejaVuSans-2e"/>
       <use x="95.410156" xlink:href="#DejaVuSans-30"/>
       <use x="159.033203" xlink:href="#DejaVuSans-30"/>
       <use x="222.65625" xlink:href="#DejaVuSans-30"/>
       <use x="286.279297" xlink:href="#DejaVuSans-30"/>
      </g>
     </g>
    </g>
    <g id="xtick_7">
     <g id="line2d_15">
      <g>
       <use style="stroke:#000000;stroke-width:0.8;" x="295.173529" xlink:href="#ma4e8ca1cc1" y="189"/>
      </g>
     </g>
     <g id="text_16">
      <!-- 0.0025 -->
      <g transform="translate(277.678217 203.598437)scale(0.1 -0.1)">
       <use xlink:href="#DejaVuSans-30"/>
       <use x="63.623047" xlink:href="#DejaVuSans-2e"/>
       <use x="95.410156" xlink:href="#DejaVuSans-30"/>
       <use x="159.033203" xlink:href="#DejaVuSans-30"/>
       <use x="222.65625" xlink:href="#DejaVuSans-32"/>
       <use x="286.279297" xlink:href="#DejaVuSans-35"/>
      </g>
     </g>
    </g>
    <g id="xtick_8">
     <g id="line2d_16">
      <g>
       <use style="stroke:#000000;stroke-width:0.8;" x="332.1" xlink:href="#ma4e8ca1cc1" y="189"/>
      </g>
     </g>
     <g id="text_17">
      <!-- 0.0050 -->
      <g transform="translate(314.604688 203.598437)scale(0.1 -0.1)">
       <use xlink:href="#DejaVuSans-30"/>
       <use x="63.623047" xlink:href="#DejaVuSans-2e"/>
       <use x="95.410156" xlink:href="#DejaVuSans-30"/>
       <use x="159.033203" xlink:href="#DejaVuSans-30"/>
       <use x="222.65625" xlink:href="#DejaVuSans-35"/>
       <use x="286.279297" xlink:href="#DejaVuSans-30"/>
      </g>
     </g>
    </g>
    <g id="xtick_9">
     <g id="line2d_17">
      <g>
       <use style="stroke:#000000;stroke-width:0.8;" x="369.026471" xlink:href="#ma4e8ca1cc1" y="189"/>
      </g>
     </g>
     <g id="text_18">
      <!-- 0.0075 -->
      <g transform="translate(351.531158 203.598437)scale(0.1 -0.1)">
       <use xlink:href="#DejaVuSans-30"/>
       <use x="63.623047" xlink:href="#DejaVuSans-2e"/>
       <use x="95.410156" xlink:href="#DejaVuSans-30"/>
       <use x="159.033203" xlink:href="#DejaVuSans-30"/>
       <use x="222.65625" xlink:href="#DejaVuSans-37"/>
       <use x="286.279297" xlink:href="#DejaVuSans-35"/>
      </g>
     </g>
    </g>
    <g id="xtick_10">
     <g id="line2d_18">
      <g>
       <use style="stroke:#000000;stroke-width:0.8;" x="405.952941" xlink:href="#ma4e8ca1cc1" y="189"/>
      </g>
     </g>
     <g id="text_19">
      <!-- 0.0100 -->
      <g transform="translate(388.457629 203.598437)scale(0.1 -0.1)">
       <use xlink:href="#DejaVuSans-30"/>
       <use x="63.623047" xlink:href="#DejaVuSans-2e"/>
       <use x="95.410156" xlink:href="#DejaVuSans-30"/>
       <use x="159.033203" xlink:href="#DejaVuSans-31"/>
       <use x="222.65625" xlink:href="#DejaVuSans-30"/>
       <use x="286.279297" xlink:href="#DejaVuSans-30"/>
      </g>
     </g>
    </g>
    <g id="text_20">
     <!-- $t$ (s) -->
     <g transform="translate(322 217.276563)scale(0.1 -0.1)">
      <use transform="translate(0 0.125)" xlink:href="#DejaVuSans-Oblique-74"/>
      <use transform="translate(39.208984 0.125)" xlink:href="#DejaVuSans-20"/>
      <use transform="translate(70.996094 0.125)" xlink:href="#DejaVuSans-28"/>
      <use transform="translate(110.009766 0.125)" xlink:href="#DejaVuSans-73"/>
      <use transform="translate(162.109375 0.125)" xlink:href="#DejaVuSans-29"/>
     </g>
    </g>
   </g>
   <g id="matplotlib.axis_4">
    <g id="ytick_8">
     <g id="line2d_19">
      <g>
       <use style="stroke:#000000;stroke-width:0.8;" x="258.247059" xlink:href="#ma8d5b3f1b6" y="177.351429"/>
      </g>
     </g>
     <g id="text_21">
      <!-- −0.6 -->
      <g transform="translate(226.964246 181.150647)scale(0.1 -0.1)">
       <use xlink:href="#DejaVuSans-2212"/>
       <use x="83.789062" xlink:href="#DejaVuSans-30"/>
       <use x="147.412109" xlink:href="#DejaVuSans-2e"/>
       <use x="179.199219" xlink:href="#DejaVuSans-36"/>
      </g>
     </g>
    </g>
    <g id="ytick_9">
     <g id="line2d_20">
      <g>
       <use style="stroke:#000000;stroke-width:0.8;" x="258.247059" xlink:href="#ma8d5b3f1b6" y="154.054286"/>
      </g>
     </g>
     <g id="text_22">
      <!-- −0.4 -->
      <g transform="translate(226.964246 157.853504)scale(0.1 -0.1)">
       <use xlink:href="#DejaVuSans-2212"/>
       <use x="83.789062" xlink:href="#DejaVuSans-30"/>
       <use x="147.412109" xlink:href="#DejaVuSans-2e"/>
       <use x="179.199219" xlink:href="#DejaVuSans-34"/>
      </g>
     </g>
    </g>
    <g id="ytick_10">
     <g id="line2d_21">
      <g>
       <use style="stroke:#000000;stroke-width:0.8;" x="258.247059" xlink:href="#ma8d5b3f1b6" y="130.757143"/>
      </g>
     </g>
     <g id="text_23">
      <!-- −0.2 -->
      <g transform="translate(226.964246 134.556362)scale(0.1 -0.1)">
       <use xlink:href="#DejaVuSans-2212"/>
       <use x="83.789062" xlink:href="#DejaVuSans-30"/>
       <use x="147.412109" xlink:href="#DejaVuSans-2e"/>
       <use x="179.199219" xlink:href="#DejaVuSans-32"/>
      </g>
     </g>
    </g>
    <g id="ytick_11">
     <g id="line2d_22">
      <g>
       <use style="stroke:#000000;stroke-width:0.8;" x="258.247059" xlink:href="#ma8d5b3f1b6" y="107.46"/>
      </g>
     </g>
     <g id="text_24">
      <!-- 0.0 -->
      <g transform="translate(235.343934 111.259219)scale(0.1 -0.1)">
       <use xlink:href="#DejaVuSans-30"/>
       <use x="63.623047" xlink:href="#DejaVuSans-2e"/>
       <use x="95.410156" xlink:href="#DejaVuSans-30"/>
      </g>
     </g>
    </g>
    <g id="ytick_12">
     <g id="line2d_23">
      <g>
       <use style="stroke:#000000;stroke-width:0.8;" x="258.247059" xlink:href="#ma8d5b3f1b6" y="84.162857"/>
      </g>
     </g>
     <g id="text_25">
      <!-- 0.2 -->
      <g transform="translate(235.343934 87.962076)scale(0.1 -0.1)">
       <use xlink:href="#DejaVuSans-30"/>
       <use x="63.623047" xlink:href="#DejaVuSans-2e"/>
       <use x="95.410156" xlink:href="#DejaVuSans-32"/>
      </g>
     </g>
    </g>
    <g id="ytick_13">
     <g id="line2d_24">
      <g>
       <use style="stroke:#000000;stroke-width:0.8;" x="258.247059" xlink:href="#ma8d5b3f1b6" y="60.865714"/>
      </g>
     </g>
     <g id="text_26">
      <!-- 0.4 -->
      <g transform="translate(235.343934 64.664933)scale(0.1 -0.1)">
       <use xlink:href="#DejaVuSans-30"/>
       <use x="63.623047" xlink:href="#DejaVuSans-2e"/>
       <use x="95.410156" xlink:href="#DejaVuSans-34"/>
      </g>
     </g>
    </g>
    <g id="ytick_14">
     <g id="line2d_25">
      <g>
       <use style="stroke:#000000;stroke-width:0.8;" x="258.247059" xlink:href="#ma8d5b3f1b6" y="37.568571"/>
      </g>
     </g>
     <g id="text_27">
      <!-- 0.6 -->
      <g transform="translate(235.343934 41.36779)scale(0.1 -0.1)">
       <use xlink:href="#DejaVuSans-30"/>
       <use x="63.623047" xlink:href="#DejaVuSans-2e"/>
       <use x="95.410156" xlink:href="#DejaVuSans-36"/>
      </g>
     </g>
    </g>
   </g>
   <g id="line2d_26">
    <path clip-path="url(#p35e06be00b)" d="M 258.247059 94.615703 
L 258.581993 115.242757 
L 259.251861 94.295909 
L 259.586795 104.372456 
L 259.921729 76.160774 
L 260.256663 94.417919 
L 260.591597 91.730869 
L 260.926531 116.182612 
L 261.261465 96.962227 
L 261.596399 107.586132 
L 261.931333 112.138221 
L 262.266267 100.588035 
L 262.6012 113.028037 
L 262.936134 118.038418 
L 263.271068 103.598798 
L 263.606002 104.385581 
L 263.940936 120.155761 
L 264.27587 119.248932 
L 264.610804 121.333172 
L 264.945738 108.680079 
L 265.280672 111.09338 
L 265.615606 88.906102 
L 266.285474 111.449358 
L 266.620408 127.525035 
L 266.955342 97.616675 
L 267.290276 114.487172 
L 267.62521 107.014068 
L 267.960144 95.843395 
L 268.295078 90.251114 
L 268.630012 103.061239 
L 268.964946 102.967038 
L 269.29988 97.982881 
L 269.634814 113.48287 
L 269.969748 103.104523 
L 270.304682 101.549248 
L 270.639616 120.39687 
L 270.97455 96.941674 
L 271.309484 128.10113 
L 271.644418 107.722628 
L 271.979352 97.172895 
L 272.314286 102.429071 
L 272.64922 118.309417 
L 272.984154 118.769267 
L 273.319088 128.669002 
L 273.654022 122.696156 
L 273.988956 111.681053 
L 274.32389 122.455268 
L 274.658824 111.676733 
L 274.993758 108.690671 
L 275.328691 100.527619 
L 275.663625 114.65082 
L 275.998559 118.542024 
L 276.333493 110.957735 
L 276.668427 93.79016 
L 277.003361 91.136906 
L 277.673229 135.013613 
L 278.008163 107.375593 
L 278.343097 120.538605 
L 278.678031 127.64153 
L 279.012965 96.781889 
L 279.682833 123.734464 
L 280.017767 108.292575 
L 280.687635 94.297415 
L 281.022569 100.493771 
L 281.692437 99.552324 
L 282.027371 121.797801 
L 282.362305 120.932785 
L 282.697239 102.625002 
L 283.032173 126.200299 
L 283.367107 123.103445 
L 283.702041 89.075726 
L 284.036975 101.660475 
L 284.371909 96.549685 
L 284.706843 121.031861 
L 285.041777 110.931374 
L 285.376711 124.145201 
L 285.711645 101.40086 
L 286.046579 118.228843 
L 286.381513 114.942498 
L 286.716447 119.1843 
L 287.051381 110.711728 
L 287.386315 88.119987 
L 287.721248 111.316132 
L 288.056182 100.702536 
L 288.391116 102.278928 
L 288.72605 105.6269 
L 289.060984 117.65412 
L 289.395918 105.421261 
L 289.730852 108.25396 
L 290.065786 103.222805 
L 290.40072 104.133033 
L 290.735654 115.137442 
L 291.070588 99.705591 
L 291.405522 96.243405 
L 291.740456 90.645054 
L 292.07539 128.343044 
L 292.410324 101.337233 
L 292.745258 91.011906 
L 293.080192 101.917498 
L 293.415126 127.515228 
L 293.75006 118.289189 
L 294.084994 116.286011 
L 294.419928 99.59791 
L 294.754862 113.526981 
L 295.089796 107.376141 
L 295.42473 105.219797 
L 295.759664 98.895473 
L 296.094598 103.733008 
L 296.429532 113.808316 
L 296.764466 111.831401 
L 297.0994 119.471275 
L 297.434334 111.446959 
L 297.769268 88.770947 
L 298.104202 120.782134 
L 298.439136 116.091147 
L 298.77407 90.386802 
L 299.109004 106.681755 
L 299.443938 115.785669 
L 299.778872 104.307746 
L 300.113806 103.302461 
L 300.448739 120.847254 
L 301.118607 88.568021 
L 301.453541 92.94829 
L 301.788475 112.409185 
L 302.123409 104.805464 
L 302.458343 120.241602 
L 302.793277 86.480045 
L 303.128211 111.213053 
L 303.463145 114.27505 
L 303.798079 99.908289 
L 304.133013 105.624589 
L 304.467947 116.213375 
L 304.802881 104.495949 
L 305.137815 122.824438 
L 305.472749 119.775282 
L 305.807683 121.009481 
L 306.812485 108.941293 
L 307.147419 104.979311 
L 307.482353 114.535596 
L 307.817287 99.537408 
L 308.152221 110.125131 
L 308.487155 109.82241 
L 308.822089 107.49741 
L 309.157023 111.00099 
L 309.491957 120.276984 
L 309.826891 104.383287 
L 310.161825 101.394395 
L 310.496759 122.379795 
L 310.831693 105.756656 
L 311.166627 114.733101 
L 311.501561 112.600457 
L 311.836495 114.152372 
L 312.171429 109.80363 
L 312.506363 108.042768 
L 312.841297 104.460032 
L 313.17623 106.616879 
L 313.511164 107.779127 
L 313.846098 99.562893 
L 314.181032 112.015532 
L 314.515966 81.806714 
L 314.8509 111.919604 
L 315.185834 106.697141 
L 315.520768 103.60776 
L 315.855702 108.02711 
L 316.190636 131.544642 
L 316.52557 107.157212 
L 316.860504 127.925814 
L 317.195438 99.825191 
L 317.530372 95.423992 
L 317.865306 106.507704 
L 318.20024 98.030986 
L 318.535174 94.762417 
L 318.870108 96.474542 
L 319.205042 113.552302 
L 319.539976 115.12161 
L 319.87491 109.144496 
L 320.209844 126.917271 
L 320.544778 94.974234 
L 320.879712 96.305077 
L 321.214646 92.018048 
L 321.54958 129.796103 
L 321.884514 107.50647 
L 322.219448 115.375708 
L 322.554382 109.124881 
L 322.889316 79.401165 
L 323.22425 120.211048 
L 323.559184 121.434549 
L 323.894118 152.74664 
L 324.229052 115.950502 
L 324.563986 120.947029 
L 324.89892 108.477228 
L 325.233854 114.413838 
L 325.568788 94.284811 
L 325.903721 130.220727 
L 326.238655 108.555496 
L 326.573589 113.980297 
L 326.908523 117.042211 
L 327.243457 89.758265 
L 327.578391 128.887147 
L 327.913325 106.375236 
L 328.248259 116.23011 
L 328.583193 87.135048 
L 328.918127 122.508067 
L 329.253061 93.995205 
L 329.587995 107.623257 
L 329.922929 114.92517 
L 330.257863 112.246471 
L 330.592797 91.12575 
L 330.927731 115.577242 
L 331.262665 125.370126 
L 331.597599 89.087874 
L 331.932533 105.522539 
L 332.267467 104.948673 
L 332.602401 106.201785 
L 332.937335 116.207775 
L 333.272269 88.308528 
L 333.607203 95.280229 
L 333.942137 116.959479 
L 334.277071 112.653222 
L 334.612005 111.909268 
L 334.946939 106.921039 
L 335.281873 106.011634 
L 335.616807 115.179947 
L 335.951741 109.46304 
L 336.286675 107.70153 
L 336.621609 107.070895 
L 336.956543 114.246855 
L 337.291477 100.661122 
L 337.626411 98.091291 
L 337.961345 113.509527 
L 338.296279 113.170996 
L 338.631212 125.729883 
L 338.966146 99.685907 
L 339.636014 130.593248 
L 339.970948 110.496775 
L 340.305882 122.022474 
L 340.640816 100.829707 
L 340.97575 98.36112 
L 341.310684 145.968374 
L 341.645618 93.881904 
L 341.980552 109.739943 
L 342.315486 107.86923 
L 342.65042 111.683318 
L 343.320288 115.795773 
L 343.655222 135.236912 
L 343.990156 106.993935 
L 344.32509 113.631356 
L 344.660024 112.977546 
L 344.994958 85.811749 
L 345.329892 84.957324 
L 345.664826 92.987503 
L 345.99976 116.823413 
L 346.334694 107.715199 
L 346.669628 105.585367 
L 347.004562 111.373731 
L 347.339496 103.824458 
L 347.67443 102.854774 
L 348.009364 119.351291 
L 348.344298 94.435774 
L 348.679232 109.684684 
L 349.014166 117.694968 
L 349.684034 108.500419 
L 350.018968 110.615725 
L 350.353902 101.143909 
L 350.688836 109.84006 
L 351.02377 88.876024 
L 351.358703 107.943343 
L 351.693637 105.959569 
L 352.028571 107.603818 
L 352.363505 90.014683 
L 352.698439 84.293268 
L 353.033373 111.410681 
L 353.368307 104.894097 
L 353.703241 114.44872 
L 354.038175 94.531815 
L 354.373109 106.841955 
L 354.708043 85.110367 
L 355.042977 97.138048 
L 355.377911 100.208657 
L 355.712845 98.934474 
L 356.047779 99.959775 
L 356.382713 121.730642 
L 356.717647 129.352738 
L 357.052581 84.906477 
L 357.722449 129.503901 
L 358.392317 94.618269 
L 358.727251 113.232506 
L 359.062185 101.095931 
L 359.397119 112.758854 
L 359.732053 86.288737 
L 360.066987 97.512536 
L 360.401921 104.898035 
L 360.736855 118.357942 
L 361.071789 108.0725 
L 361.406723 103.372575 
L 361.741657 114.391556 
L 362.076591 102.896612 
L 362.411525 96.130529 
L 362.746459 132.659466 
L 363.081393 111.464604 
L 363.416327 109.174065 
L 363.751261 119.652818 
L 364.086194 109.716741 
L 364.421128 103.17267 
L 364.756062 116.415425 
L 365.090996 106.748797 
L 365.42593 105.629418 
L 365.760864 84.360602 
L 366.095798 99.986303 
L 366.430732 104.48464 
L 366.765666 95.407115 
L 367.1006 121.074307 
L 367.435534 118.130918 
L 368.105402 105.328733 
L 368.440336 104.805936 
L 368.77527 113.61067 
L 369.110204 89.840646 
L 369.445138 119.128805 
L 369.780072 91.055794 
L 370.115006 108.327774 
L 370.44994 114.354647 
L 370.784874 99.610215 
L 371.119808 132.524936 
L 371.454742 125.28357 
L 371.789676 102.65999 
L 372.12461 108.408482 
L 372.794478 95.690863 
L 373.129412 104.274268 
L 373.464346 103.404856 
L 373.79928 89.757413 
L 374.134214 94.665542 
L 374.804082 112.676467 
L 375.139016 92.313992 
L 375.47395 116.536964 
L 375.808884 107.274486 
L 376.143818 103.622333 
L 376.478752 102.215472 
L 376.813685 101.458489 
L 377.148619 92.771688 
L 377.483553 122.437755 
L 377.818487 122.727918 
L 378.153421 96.583037 
L 378.823289 127.369252 
L 379.493157 90.759963 
L 379.828091 109.387431 
L 380.163025 92.265185 
L 380.497959 106.448485 
L 380.832893 99.514581 
L 381.167827 97.065407 
L 381.502761 99.753156 
L 381.837695 98.440867 
L 382.172629 108.32231 
L 382.507563 110.915739 
L 382.842497 101.109644 
L 383.177431 129.971273 
L 383.847299 115.838727 
L 384.182233 129.782998 
L 384.517167 86.848985 
L 384.852101 107.95719 
L 385.187035 96.566808 
L 385.521969 125.142344 
L 385.856903 129.292731 
L 386.191837 105.311573 
L 386.526771 126.288517 
L 386.861705 97.58277 
L 387.196639 113.978912 
L 387.531573 108.108424 
L 387.866507 91.203268 
L 388.201441 122.175414 
L 388.536375 97.604613 
L 388.871309 101.697922 
L 389.206242 96.769554 
L 389.87611 106.490205 
L 390.211044 104.295409 
L 390.545978 98.520298 
L 390.880912 123.31436 
L 391.55078 82.751397 
L 391.885714 124.767847 
L 392.220648 108.056813 
L 392.555582 104.756418 
L 392.890516 113.638311 
L 393.22545 112.199732 
L 393.560384 112.885676 
L 393.895318 111.524598 
L 394.230252 113.17833 
L 394.565186 105.740972 
L 394.90012 101.093167 
L 395.569988 128.321799 
L 395.904922 112.626541 
L 396.239856 113.746153 
L 396.57479 104.294706 
L 396.909724 104.12455 
L 397.244658 100.364954 
L 397.579592 111.809543 
L 397.914526 107.343726 
L 398.24946 87.449857 
L 398.584394 115.258247 
L 398.919328 104.899723 
L 399.254262 118.684411 
L 399.589196 102.548598 
L 399.92413 114.848903 
L 400.259064 101.954605 
L 400.593998 103.271573 
L 400.928932 118.329863 
L 401.263866 91.116554 
L 401.933733 104.156896 
L 402.268667 88.246827 
L 402.603601 113.917098 
L 402.938535 103.68576 
L 403.273469 100.995607 
L 403.608403 116.738587 
L 404.278271 94.968536 
L 404.613205 121.014381 
L 404.948139 116.373652 
L 405.283073 106.025735 
L 405.618007 114.087761 
L 405.952941 95.928282 
L 406.287875 113.668756 
L 406.287875 113.668756 
" style="fill:none;stroke:#1f77b4;stroke-linecap:square;stroke-width:1.5;"/>
   </g>
   <g id="patch_8">
    <path d="M 258.247059 189 
L 258.247059 25.92 
" style="fill:none;stroke:#000000;stroke-linecap:square;stroke-linejoin:miter;stroke-width:0.8;"/>
   </g>
   <g id="patch_9">
    <path d="M 405.952941 189 
L 405.952941 25.92 
" style="fill:none;stroke:#000000;stroke-linecap:square;stroke-linejoin:miter;stroke-width:0.8;"/>
   </g>
   <g id="patch_10">
    <path d="M 258.247059 189 
L 405.952941 189 
" style="fill:none;stroke:#000000;stroke-linecap:square;stroke-linejoin:miter;stroke-width:0.8;"/>
   </g>
   <g id="patch_11">
    <path d="M 258.247059 25.92 
L 405.952941 25.92 
" style="fill:none;stroke:#000000;stroke-linecap:square;stroke-linejoin:miter;stroke-width:0.8;"/>
   </g>
   <g id="text_28">
    <!-- $b$ -->
    <g transform="translate(328.26 19.92)scale(0.12 -0.12)">
     <defs>
      <path d="M 3169 2138 
Q 3169 2591 2961 2847 
Q 2753 3103 2388 3103 
Q 2122 3103 1889 2973 
Q 1656 2844 1484 2597 
Q 1303 2338 1198 1995 
Q 1094 1653 1094 1313 
Q 1094 881 1298 636 
Q 1503 391 1863 391 
Q 2134 391 2365 517 
Q 2597 644 2772 891 
Q 2950 1147 3059 1487 
Q 3169 1828 3169 2138 
z
M 1381 2969 
Q 1594 3256 1914 3420 
Q 2234 3584 2584 3584 
Q 3122 3584 3439 3221 
Q 3756 2859 3756 2241 
Q 3756 1734 3570 1259 
Q 3384 784 3041 416 
Q 2816 172 2522 40 
Q 2228 -91 1906 -91 
Q 1566 -91 1316 65 
Q 1066 222 909 531 
L 806 0 
L 231 0 
L 1178 4863 
L 1753 4863 
L 1381 2969 
z
" id="DejaVuSans-Oblique-62" transform="scale(0.015625)"/>
     </defs>
     <use transform="translate(0 0.015625)" xlink:href="#DejaVuSans-Oblique-62"/>
    </g>
   </g>
  </g>
  <g id="axes_3">
   <g id="patch_12">
    <path d="M 435.494118 189 
L 583.2 189 
L 583.2 25.92 
L 435.494118 25.92 
z
" style="fill:#ffffff;"/>
   </g>
   <g id="matplotlib.axis_5">
    <g id="xtick_11">
     <g id="line2d_27">
      <g>
       <use style="stroke:#000000;stroke-width:0.8;" x="435.494118" xlink:href="#ma4e8ca1cc1" y="189"/>
      </g>
     </g>
     <g id="text_29">
      <!-- 0.0000 -->
      <g transform="translate(417.998805 203.598437)scale(0.1 -0.1)">
       <use xlink:href="#DejaVuSans-30"/>
       <use x="63.623047" xlink:href="#DejaVuSans-2e"/>
       <use x="95.410156" xlink:href="#DejaVuSans-30"/>
       <use x="159.033203" xlink:href="#DejaVuSans-30"/>
       <use x="222.65625" xlink:href="#DejaVuSans-30"/>
       <use x="286.279297" xlink:href="#DejaVuSans-30"/>
      </g>
     </g>
    </g>
    <g id="xtick_12">
     <g id="line2d_28">
      <g>
       <use style="stroke:#000000;stroke-width:0.8;" x="472.420588" xlink:href="#ma4e8ca1cc1" y="189"/>
      </g>
     </g>
     <g id="text_30">
      <!-- 0.0025 -->
      <g transform="translate(454.925276 203.598437)scale(0.1 -0.1)">
       <use xlink:href="#DejaVuSans-30"/>
       <use x="63.623047" xlink:href="#DejaVuSans-2e"/>
       <use x="95.410156" xlink:href="#DejaVuSans-30"/>
       <use x="159.033203" xlink:href="#DejaVuSans-30"/>
       <use x="222.65625" xlink:href="#DejaVuSans-32"/>
       <use x="286.279297" xlink:href="#DejaVuSans-35"/>
      </g>
     </g>
    </g>
    <g id="xtick_13">
     <g id="line2d_29">
      <g>
       <use style="stroke:#000000;stroke-width:0.8;" x="509.347059" xlink:href="#ma4e8ca1cc1" y="189"/>
      </g>
     </g>
     <g id="text_31">
      <!-- 0.0050 -->
      <g transform="translate(491.851746 203.598437)scale(0.1 -0.1)">
       <use xlink:href="#DejaVuSans-30"/>
       <use x="63.623047" xlink:href="#DejaVuSans-2e"/>
       <use x="95.410156" xlink:href="#DejaVuSans-30"/>
       <use x="159.033203" xlink:href="#DejaVuSans-30"/>
       <use x="222.65625" xlink:href="#DejaVuSans-35"/>
       <use x="286.279297" xlink:href="#DejaVuSans-30"/>
      </g>
     </g>
    </g>
    <g id="xtick_14">
     <g id="line2d_30">
      <g>
       <use style="stroke:#000000;stroke-width:0.8;" x="546.273529" xlink:href="#ma4e8ca1cc1" y="189"/>
      </g>
     </g>
     <g id="text_32">
      <!-- 0.0075 -->
      <g transform="translate(528.778217 203.598437)scale(0.1 -0.1)">
       <use xlink:href="#DejaVuSans-30"/>
       <use x="63.623047" xlink:href="#DejaVuSans-2e"/>
       <use x="95.410156" xlink:href="#DejaVuSans-30"/>
       <use x="159.033203" xlink:href="#DejaVuSans-30"/>
       <use x="222.65625" xlink:href="#DejaVuSans-37"/>
       <use x="286.279297" xlink:href="#DejaVuSans-35"/>
      </g>
     </g>
    </g>
    <g id="xtick_15">
     <g id="line2d_31">
      <g>
       <use style="stroke:#000000;stroke-width:0.8;" x="583.2" xlink:href="#ma4e8ca1cc1" y="189"/>
      </g>
     </g>
     <g id="text_33">
      <!-- 0.0100 -->
      <g transform="translate(565.704688 203.598437)scale(0.1 -0.1)">
       <use xlink:href="#DejaVuSans-30"/>
       <use x="63.623047" xlink:href="#DejaVuSans-2e"/>
       <use x="95.410156" xlink:href="#DejaVuSans-30"/>
       <use x="159.033203" xlink:href="#DejaVuSans-31"/>
       <use x="222.65625" xlink:href="#DejaVuSans-30"/>
       <use x="286.279297" xlink:href="#DejaVuSans-30"/>
      </g>
     </g>
    </g>
    <g id="text_34">
     <!-- $t$ (s) -->
     <g transform="translate(499.247059 217.276563)scale(0.1 -0.1)">
      <use transform="translate(0 0.125)" xlink:href="#DejaVuSans-Oblique-74"/>
      <use transform="translate(39.208984 0.125)" xlink:href="#DejaVuSans-20"/>
      <use transform="translate(70.996094 0.125)" xlink:href="#DejaVuSans-28"/>
      <use transform="translate(110.009766 0.125)" xlink:href="#DejaVuSans-73"/>
      <use transform="translate(162.109375 0.125)" xlink:href="#DejaVuSans-29"/>
     </g>
    </g>
   </g>
   <g id="matplotlib.axis_6">
    <g id="ytick_15">
     <g id="line2d_32">
      <g>
       <use style="stroke:#000000;stroke-width:0.8;" x="435.494118" xlink:href="#ma8d5b3f1b6" y="177.351429"/>
      </g>
     </g>
     <g id="text_35">
      <!-- −0.6 -->
      <g transform="translate(404.211305 181.150647)scale(0.1 -0.1)">
       <use xlink:href="#DejaVuSans-2212"/>
       <use x="83.789062" xlink:href="#DejaVuSans-30"/>
       <use x="147.412109" xlink:href="#DejaVuSans-2e"/>
       <use x="179.199219" xlink:href="#DejaVuSans-36"/>
      </g>
     </g>
    </g>
    <g id="ytick_16">
     <g id="line2d_33">
      <g>
       <use style="stroke:#000000;stroke-width:0.8;" x="435.494118" xlink:href="#ma8d5b3f1b6" y="154.054286"/>
      </g>
     </g>
     <g id="text_36">
      <!-- −0.4 -->
      <g transform="translate(404.211305 157.853504)scale(0.1 -0.1)">
       <use xlink:href="#DejaVuSans-2212"/>
       <use x="83.789062" xlink:href="#DejaVuSans-30"/>
       <use x="147.412109" xlink:href="#DejaVuSans-2e"/>
       <use x="179.199219" xlink:href="#DejaVuSans-34"/>
      </g>
     </g>
    </g>
    <g id="ytick_17">
     <g id="line2d_34">
      <g>
       <use style="stroke:#000000;stroke-width:0.8;" x="435.494118" xlink:href="#ma8d5b3f1b6" y="130.757143"/>
      </g>
     </g>
     <g id="text_37">
      <!-- −0.2 -->
      <g transform="translate(404.211305 134.556362)scale(0.1 -0.1)">
       <use xlink:href="#DejaVuSans-2212"/>
       <use x="83.789062" xlink:href="#DejaVuSans-30"/>
       <use x="147.412109" xlink:href="#DejaVuSans-2e"/>
       <use x="179.199219" xlink:href="#DejaVuSans-32"/>
      </g>
     </g>
    </g>
    <g id="ytick_18">
     <g id="line2d_35">
      <g>
       <use style="stroke:#000000;stroke-width:0.8;" x="435.494118" xlink:href="#ma8d5b3f1b6" y="107.46"/>
      </g>
     </g>
     <g id="text_38">
      <!-- 0.0 -->
      <g transform="translate(412.590993 111.259219)scale(0.1 -0.1)">
       <use xlink:href="#DejaVuSans-30"/>
       <use x="63.623047" xlink:href="#DejaVuSans-2e"/>
       <use x="95.410156" xlink:href="#DejaVuSans-30"/>
      </g>
     </g>
    </g>
    <g id="ytick_19">
     <g id="line2d_36">
      <g>
       <use style="stroke:#000000;stroke-width:0.8;" x="435.494118" xlink:href="#ma8d5b3f1b6" y="84.162857"/>
      </g>
     </g>
     <g id="text_39">
      <!-- 0.2 -->
      <g transform="translate(412.590993 87.962076)scale(0.1 -0.1)">
       <use xlink:href="#DejaVuSans-30"/>
       <use x="63.623047" xlink:href="#DejaVuSans-2e"/>
       <use x="95.410156" xlink:href="#DejaVuSans-32"/>
      </g>
     </g>
    </g>
    <g id="ytick_20">
     <g id="line2d_37">
      <g>
       <use style="stroke:#000000;stroke-width:0.8;" x="435.494118" xlink:href="#ma8d5b3f1b6" y="60.865714"/>
      </g>
     </g>
     <g id="text_40">
      <!-- 0.4 -->
      <g transform="translate(412.590993 64.664933)scale(0.1 -0.1)">
       <use xlink:href="#DejaVuSans-30"/>
       <use x="63.623047" xlink:href="#DejaVuSans-2e"/>
       <use x="95.410156" xlink:href="#DejaVuSans-34"/>
      </g>
     </g>
    </g>
    <g id="ytick_21">
     <g id="line2d_38">
      <g>
       <use style="stroke:#000000;stroke-width:0.8;" x="435.494118" xlink:href="#ma8d5b3f1b6" y="37.568571"/>
      </g>
     </g>
     <g id="text_41">
      <!-- 0.6 -->
      <g transform="translate(412.590993 41.36779)scale(0.1 -0.1)">
       <use xlink:href="#DejaVuSans-30"/>
       <use x="63.623047" xlink:href="#DejaVuSans-2e"/>
       <use x="95.410156" xlink:href="#DejaVuSans-36"/>
      </g>
     </g>
    </g>
   </g>
   <g id="line2d_39">
    <path clip-path="url(#p32e9f9593f)" d="M 435.494118 94.615703 
L 435.829052 111.59394 
L 436.49892 83.40674 
L 436.833854 89.920199 
L 437.168788 58.202206 
L 437.503721 73.023594 
L 437.838655 66.984838 
L 438.173589 88.182094 
L 438.508523 65.817227 
L 438.843457 73.419009 
L 439.178391 75.083205 
L 439.513325 60.790704 
L 439.848259 70.64474 
L 440.183193 73.235667 
L 440.518127 56.552608 
L 440.853061 55.28078 
L 441.187995 69.185266 
L 441.522929 66.61299 
L 441.857863 67.238572 
L 442.192797 53.339341 
L 442.527731 54.723919 
L 442.862665 31.729375 
L 443.532533 53.334275 
L 443.867467 69.282547 
L 444.202401 39.475598 
L 444.537335 56.675924 
L 444.872269 49.75977 
L 445.207203 39.370979 
L 445.542137 34.782443 
L 445.877071 48.814231 
L 446.212005 50.15481 
L 446.546939 46.812917 
L 446.881873 64.156199 
L 447.216807 55.814934 
L 447.551741 56.482525 
L 447.886675 77.730066 
L 448.221609 56.842413 
L 448.556543 90.726949 
L 448.891477 73.220358 
L 449.226411 65.678083 
L 449.561345 74.06545 
L 449.896279 93.188419 
L 450.231212 96.989584 
L 450.566146 110.316199 
L 450.90108 107.842335 
L 451.236014 100.38457 
L 451.570948 114.760503 
L 451.905882 107.613916 
L 452.240816 108.275764 
L 452.57575 103.762252 
L 452.910684 121.522285 
L 453.245618 129.023326 
L 453.580552 125.007695 
L 453.915486 111.353581 
L 454.25042 112.144787 
L 454.920288 162.649608 
L 455.255222 138.169201 
L 455.590156 154.368849 
L 455.92509 164.3755 
L 456.260024 136.275272 
L 456.929892 168.270969 
L 457.264826 155.092979 
L 457.934694 145.065854 
L 458.269628 152.950756 
L 458.939496 154.762321 
L 459.27443 178.061447 
L 459.609364 178.029037 
L 459.944298 160.32955 
L 460.279232 184.28644 
L 460.614166 181.342977 
L 460.9491 147.239845 
L 461.284034 159.520674 
L 461.618968 153.87865 
L 461.953902 177.604365 
L 462.288836 166.525163 
L 462.62377 178.541865 
L 462.958703 154.386692 
L 463.293637 169.59568 
L 463.628571 164.488535 
L 463.963505 166.714888 
L 464.298439 156.040135 
L 464.633373 131.068133 
L 464.968307 151.715287 
L 465.303241 138.393985 
L 465.638175 137.114594 
L 465.973109 137.469925 
L 466.308043 146.379404 
L 466.642977 130.915951 
L 466.977911 130.417895 
L 467.312845 121.968912 
L 467.647779 119.387663 
L 467.982713 126.840665 
L 468.317647 107.81143 
L 468.987515 91.474846 
L 469.322449 125.522759 
L 469.657383 94.877951 
L 469.992317 80.939004 
L 470.327251 88.270548 
L 470.662185 110.347844 
L 470.997119 97.668817 
L 471.332053 92.293662 
L 471.666987 72.327842 
L 472.001921 83.086328 
L 472.336855 73.884494 
L 472.671789 68.808736 
L 473.006723 59.708043 
L 473.341657 61.923164 
L 473.676591 69.540316 
L 474.011525 65.279159 
L 474.346459 70.817679 
L 474.681393 60.883153 
L 475.016327 36.49558 
L 475.351261 67.000578 
L 475.686194 61.014693 
L 476.021128 34.231827 
L 476.356062 49.668874 
L 476.690996 58.138866 
L 477.02593 46.253496 
L 477.360864 45.06884 
L 477.695798 62.663044 
L 478.365666 31.167299 
L 478.7006 36.278568 
L 479.035534 56.6931 
L 479.370468 50.261905 
L 479.705402 67.084853 
L 480.040336 34.918942 
L 480.37527 61.450163 
L 480.710204 66.505875 
L 481.045138 54.320497 
L 481.380072 62.397281 
L 481.715006 75.516376 
L 482.04994 66.489145 
L 482.384874 87.657144 
L 482.719808 87.585659 
L 483.054742 91.923992 
L 483.389676 90.682061 
L 483.72461 88.449914 
L 484.059544 89.802834 
L 484.394478 89.324645 
L 484.729412 102.426225 
L 485.064346 91.020906 
L 485.39928 105.234956 
L 485.734214 108.577775 
L 486.069148 109.903204 
L 486.404082 117.047761 
L 486.739016 129.940976 
L 487.07395 117.626535 
L 487.408884 118.164869 
L 487.743818 142.611611 
L 488.078752 129.370328 
L 488.413685 141.635859 
L 488.748619 142.68661 
L 489.083553 147.303721 
L 489.418487 145.889934 
L 489.753421 146.922256 
L 490.088355 145.979959 
L 490.758223 154.080845 
L 491.093157 147.987177 
L 491.428091 162.372139 
L 491.763025 133.89781 
L 492.097959 165.54054 
L 492.432893 161.637257 
L 492.767827 159.651215 
L 493.102761 164.953727 
L 493.437695 189.130776 
L 493.772629 165.176626 
L 494.107563 186.150568 
L 494.442497 158.02654 
L 494.777431 153.373282 
L 495.112365 163.97727 
L 495.447299 154.79505 
L 495.782233 150.597972 
L 496.117167 151.162228 
L 496.452101 166.877269 
L 496.787035 166.874362 
L 497.121969 159.121713 
L 497.456903 174.922609 
L 497.791837 140.819097 
L 498.126771 139.809354 
L 498.461705 133.010826 
L 498.796639 168.116334 
L 499.131573 143.003607 
L 499.466507 147.910295 
L 499.801441 138.5691 
L 500.136375 105.639338 
L 500.471309 143.140095 
L 500.806242 140.964389 
L 501.141176 168.800547 
L 501.47611 128.465405 
L 501.811044 129.873762 
L 502.145978 113.78072 
L 502.480912 116.073253 
L 502.815846 92.293631 
L 503.15078 124.586774 
L 503.485714 99.300904 
L 503.820648 101.141423 
L 504.155582 100.669496 
L 504.490516 69.916032 
L 504.82545 105.65335 
L 505.160384 79.841153 
L 505.495318 86.499983 
L 505.830252 54.325678 
L 506.165186 86.748351 
L 506.50012 55.425632 
L 506.835054 66.395354 
L 507.169988 71.200907 
L 507.504922 66.197626 
L 507.839856 42.933235 
L 508.17479 65.430389 
L 508.509724 73.465945 
L 508.844658 35.630281 
L 509.179592 50.72155 
L 509.514526 49.019582 
L 509.84946 49.364321 
L 510.184394 58.685234 
L 510.519328 30.326896 
L 510.854262 37.067296 
L 511.189196 58.743945 
L 511.52413 54.663797 
L 511.859064 54.373774 
L 512.193998 50.065513 
L 512.528932 50.059444 
L 512.863866 60.350909 
L 513.1988 55.972561 
L 513.533733 55.759755 
L 513.868667 56.881887 
L 514.203601 66.00779 
L 514.538535 54.561515 
L 514.873469 54.312253 
L 515.208403 72.223051 
L 515.543337 74.539283 
L 515.878271 89.904704 
L 516.213205 66.808008 
L 516.883073 103.985321 
L 517.218007 87.186908 
L 517.552941 102.102243 
L 517.887875 84.377374 
L 518.222809 85.441319 
L 518.557743 136.631864 
L 518.892677 88.165364 
L 519.227611 107.665831 
L 519.562545 109.445696 
L 520.232413 122.762606 
L 520.567347 128.229621 
L 520.902281 151.211035 
L 521.237215 126.445578 
L 521.572149 136.484098 
L 521.907083 139.141608 
L 522.242017 115.184341 
L 522.576951 117.423049 
L 522.911885 128.418816 
L 523.246819 155.081114 
L 523.581753 148.648987 
L 523.916687 149.034426 
L 524.251621 157.167365 
L 524.586555 151.782758 
L 524.921489 152.789328 
L 525.256423 171.065923 
L 525.591357 147.727313 
L 525.926291 164.343766 
L 526.261224 173.506856 
L 526.931092 165.95645 
L 527.266026 168.556634 
L 527.60096 159.342067 
L 527.935894 168.066824 
L 528.270828 146.902641 
L 528.605762 165.541844 
L 528.940696 162.90367 
L 529.27563 163.669804 
L 529.610564 144.98229 
L 529.945498 137.946545 
L 530.280432 163.538842 
L 530.615366 155.292348 
L 530.9503 162.919063 
L 531.285234 140.883826 
L 531.620168 150.893532 
L 531.955102 126.688446 
L 532.290036 136.079282 
L 532.62497 136.360059 
L 532.959904 132.154018 
L 533.294838 130.116951 
L 533.629772 148.706973 
L 533.964706 153.042243 
L 534.29964 105.216086 
L 534.969508 142.827944 
L 535.639376 100.747567 
L 535.97431 115.721208 
L 536.309244 99.93426 
L 536.644178 107.951373 
L 536.979112 77.854334 
L 537.314046 85.484346 
L 537.64898 89.323313 
L 537.983914 99.297877 
L 538.318848 85.601972 
L 538.653782 77.579863 
L 538.988715 85.377991 
L 539.323649 70.776178 
L 539.658583 61.029418 
L 539.993517 94.715578 
L 540.328451 70.827009 
L 540.663385 66.002415 
L 540.998319 74.116719 
L 541.668187 53.452949 
L 542.003121 64.892967 
L 542.338055 53.626016 
L 542.672989 51.115017 
L 543.007923 28.66875 
L 543.342857 43.335794 
L 543.677791 47.098037 
L 544.012725 37.509869 
L 544.347659 62.893879 
L 544.682593 59.895878 
L 545.352461 47.670146 
L 545.687395 47.776148 
L 546.022329 57.433733 
L 546.357263 34.737259 
L 546.692197 65.315453 
L 547.027131 38.743891 
L 547.362065 57.722836 
L 547.696999 65.655485 
L 548.031933 53.008151 
L 548.366867 88.203055 
L 548.701801 83.415998 
L 549.036735 63.41121 
L 549.371669 71.93269 
L 549.706603 67.796824 
L 550.041537 65.179495 
L 550.376471 76.930903 
L 550.711405 79.336917 
L 551.046339 69.059455 
L 551.381273 77.41888 
L 552.05114 102.521843 
L 552.386074 85.772246 
L 552.721008 113.633798 
L 553.055942 108.021304 
L 553.390876 108.016201 
L 554.060744 113.080411 
L 554.395678 107.946218 
L 554.730612 141.105276 
L 555.065546 144.815093 
L 555.40048 122.003092 
L 556.070348 159.142763 
L 556.740216 128.388111 
L 557.07515 149.726771 
L 557.410084 135.157236 
L 557.745018 151.724739 
L 558.079952 146.997162 
L 558.414886 146.567772 
L 558.74982 151.080826 
L 559.084754 151.392193 
L 559.419688 162.689264 
L 559.754622 166.48473 
L 560.089556 157.66236 
L 560.42449 187.285538 
L 561.094358 173.998473 
L 561.429292 188.023358 
L 561.764226 144.94115 
L 562.09916 165.672935 
L 562.434094 153.679388 
L 562.769028 181.427381 
L 563.103962 184.529101 
L 563.438896 159.28227 
L 563.77383 178.781507 
L 564.108764 148.391826 
L 564.443697 162.904422 
L 564.778631 154.958176 
L 565.113565 135.793204 
L 565.448499 164.330356 
L 565.783433 137.158946 
L 566.118367 138.496252 
L 566.453301 130.667311 
L 567.123169 134.199217 
L 567.458103 128.740562 
L 567.793037 119.605554 
L 568.127971 140.956882 
L 568.797839 93.314315 
L 569.132773 131.721708 
L 569.467707 111.374297 
L 569.802641 104.424492 
L 570.137575 109.658278 
L 570.472509 104.58723 
L 570.807443 101.670611 
L 571.142377 96.751031 
L 571.477311 94.9043 
L 572.147179 76.047061 
L 572.482113 88.701699 
L 572.817047 96.896822 
L 573.151981 78.19116 
L 573.486915 76.435654 
L 573.821849 64.255669 
L 574.156783 61.514275 
L 574.491717 55.350843 
L 574.826651 64.568442 
L 575.161585 58.06123 
L 575.496519 36.31958 
L 575.831453 62.481063 
L 576.166387 50.682976 
L 576.501321 63.241101 
L 576.836255 46.096544 
L 577.171188 57.609886 
L 577.506122 44.153499 
L 577.841056 45.135459 
L 578.17599 60.087138 
L 578.510924 32.996036 
L 579.180792 46.964422 
L 579.515726 31.856546 
L 579.85066 58.550548 
L 580.185594 49.560459 
L 580.520528 48.324194 
L 580.855462 65.727991 
L 581.190396 58.207021 
L 581.52533 47.873474 
L 581.860264 76.158653 
L 582.195198 73.933482 
L 582.530132 66.167855 
L 582.865066 76.968761 
L 583.2 61.693989 
L 583.534934 82.453666 
L 583.534934 82.453666 
" style="fill:none;stroke:#1f77b4;stroke-linecap:square;stroke-width:1.5;"/>
   </g>
   <g id="patch_13">
    <path d="M 435.494118 189 
L 435.494118 25.92 
" style="fill:none;stroke:#000000;stroke-linecap:square;stroke-linejoin:miter;stroke-width:0.8;"/>
   </g>
   <g id="patch_14">
    <path d="M 583.2 189 
L 583.2 25.92 
" style="fill:none;stroke:#000000;stroke-linecap:square;stroke-linejoin:miter;stroke-width:0.8;"/>
   </g>
   <g id="patch_15">
    <path d="M 435.494118 189 
L 583.2 189 
" style="fill:none;stroke:#000000;stroke-linecap:square;stroke-linejoin:miter;stroke-width:0.8;"/>
   </g>
   <g id="patch_16">
    <path d="M 435.494118 25.92 
L 583.2 25.92 
" style="fill:none;stroke:#000000;stroke-linecap:square;stroke-linejoin:miter;stroke-width:0.8;"/>
   </g>
   <g id="text_42">
    <!-- $y$ -->
    <g transform="translate(505.747059 19.92)scale(0.12 -0.12)">
     <defs>
      <path d="M 1588 -325 
Q 1188 -997 936 -1164 
Q 684 -1331 294 -1331 
L -159 -1331 
L -63 -850 
L 269 -850 
Q 509 -850 678 -719 
Q 847 -588 1056 -206 
L 1234 128 
L 459 3500 
L 1069 3500 
L 1650 819 
L 3256 3500 
L 3859 3500 
L 1588 -325 
z
" id="DejaVuSans-Oblique-79" transform="scale(0.015625)"/>
     </defs>
     <use transform="translate(0 0.3125)" xlink:href="#DejaVuSans-Oblique-79"/>
    </g>
   </g>
  </g>
 </g>
 <defs>
  <clipPath id="pcd41c5152f">
   <rect height="163.08" width="147.705882" x="81" y="25.92"/>
  </clipPath>
  <clipPath id="p35e06be00b">
   <rect height="163.08" width="147.705882" x="258.247059" y="25.92"/>
  </clipPath>
  <clipPath id="p32e9f9593f">
   <rect height="163.08" width="147.705882" x="435.494118" y="25.92"/>
  </clipPath>
 </defs>
</svg>
