<?xml version="1.0" encoding="utf-8" standalone="no"?>
<!DOCTYPE svg PUBLIC "-//W3C//DTD SVG 1.1//EN"
  "http://www.w3.org/Graphics/SVG/1.1/DTD/svg11.dtd">
<svg height="230.677526pt" version="1.1" viewBox="0 0 569.967428 230.677526" width="569.967428pt" xmlns="http://www.w3.org/2000/svg" xmlns:xlink="http://www.w3.org/1999/xlink">
 <metadata>
  <rdf:RDF xmlns:cc="http://creativecommons.org/ns#" xmlns:dc="http://purl.org/dc/elements/1.1/" xmlns:rdf="http://www.w3.org/1999/02/22-rdf-syntax-ns#">
   <cc:Work>
    <dc:type rdf:resource="http://purl.org/dc/dcmitype/StillImage"/>
    <dc:date>2022-10-20T10:34:49.713837</dc:date>
    <dc:format>image/svg+xml</dc:format>
    <dc:creator>
     <cc:Agent>
      <dc:title>Matplotlib v3.4.3, https://matplotlib.org/</dc:title>
     </cc:Agent>
    </dc:creator>
   </cc:Work>
  </rdf:RDF>
 </metadata>
 <defs>
  <style type="text/css">*{stroke-linecap:butt;stroke-linejoin:round;}</style>
 </defs>
 <g id="figure_1">
  <g id="patch_1">
   <path d="M 0 230.677526 
L 569.967428 230.677526 
L 569.967428 0 
L 0 0 
z
" style="fill:none;"/>
  </g>
  <g id="axes_1">
   <g id="patch_2">
    <path d="M 44.309121 187.903055 
L 192.015004 187.903055 
L 192.015004 24.823055 
L 44.309121 24.823055 
z
" style="fill:#ffffff;"/>
   </g>
   <g id="matplotlib.axis_1">
    <g id="xtick_1">
     <g id="line2d_1">
      <path clip-path="url(#pa706b7a92f)" d="M 44.309121 187.903055 
L 44.309121 24.823055 
" style="fill:none;stroke:#b0b0b0;stroke-linecap:square;stroke-width:0.8;"/>
     </g>
     <g id="line2d_2">
      <defs>
       <path d="M 0 0 
L 0 3.5 
" id="mf5a29feb34" style="stroke:#000000;stroke-width:0.8;"/>
      </defs>
      <g>
       <use style="stroke:#000000;stroke-width:0.8;" x="44.309121" xlink:href="#mf5a29feb34" y="187.903055"/>
      </g>
     </g>
     <g id="text_1">
      <!-- $\mathdefault{0.0000}$ -->
      <g transform="translate(28.050815 203.205235)scale(0.12 -0.12)">
       <defs>
        <path d="M 2688 2038 
C 2688 2430 2682 3099 2413 3613 
C 2176 4063 1798 4224 1466 4224 
C 1158 4224 768 4082 525 3620 
C 269 3137 243 2539 243 2038 
C 243 1671 250 1112 448 623 
C 723 -39 1216 -128 1466 -128 
C 1760 -128 2208 -7 2470 604 
C 2662 1048 2688 1568 2688 2038 
z
M 1466 -26 
C 1056 -26 813 328 723 816 
C 653 1196 653 1749 653 2109 
C 653 2604 653 3015 736 3407 
C 858 3954 1216 4121 1466 4121 
C 1728 4121 2067 3947 2189 3420 
C 2272 3054 2278 2623 2278 2109 
C 2278 1691 2278 1176 2202 797 
C 2067 96 1690 -26 1466 -26 
z
" id="CMR17-30" transform="scale(0.015625)"/>
        <path d="M 1178 307 
C 1178 492 1024 620 870 620 
C 685 620 557 467 557 313 
C 557 128 710 0 864 0 
C 1050 0 1178 153 1178 307 
z
" id="CMMI12-3a" transform="scale(0.015625)"/>
       </defs>
       <use transform="scale(0.996264)" xlink:href="#CMR17-30"/>
       <use transform="translate(45.690477 0)scale(0.996264)" xlink:href="#CMMI12-3a"/>
       <use transform="translate(72.787654 0)scale(0.996264)" xlink:href="#CMR17-30"/>
       <use transform="translate(118.478131 0)scale(0.996264)" xlink:href="#CMR17-30"/>
       <use transform="translate(164.168608 0)scale(0.996264)" xlink:href="#CMR17-30"/>
       <use transform="translate(209.859086 0)scale(0.996264)" xlink:href="#CMR17-30"/>
      </g>
     </g>
    </g>
    <g id="xtick_2">
     <g id="line2d_3">
      <path clip-path="url(#pa706b7a92f)" d="M 81.235592 187.903055 
L 81.235592 24.823055 
" style="fill:none;stroke:#b0b0b0;stroke-linecap:square;stroke-width:0.8;"/>
     </g>
     <g id="line2d_4">
      <g>
       <use style="stroke:#000000;stroke-width:0.8;" x="81.235592" xlink:href="#mf5a29feb34" y="187.903055"/>
      </g>
     </g>
     <g id="text_2">
      <!-- $\mathdefault{0.0025}$ -->
      <g transform="translate(64.977286 203.205235)scale(0.12 -0.12)">
       <defs>
        <path d="M 2669 990 
L 2554 990 
C 2490 537 2438 460 2413 422 
C 2381 371 1920 371 1830 371 
L 602 371 
C 832 620 1280 1073 1824 1596 
C 2214 1966 2669 2400 2669 3033 
C 2669 3788 2067 4224 1395 4224 
C 691 4224 262 3603 262 3027 
C 262 2777 448 2745 525 2745 
C 589 2745 781 2783 781 3007 
C 781 3206 614 3264 525 3264 
C 486 3264 448 3257 422 3244 
C 544 3788 915 4057 1306 4057 
C 1862 4057 2227 3616 2227 3033 
C 2227 2477 1901 1998 1536 1583 
L 262 147 
L 262 0 
L 2515 0 
L 2669 990 
z
" id="CMR17-32" transform="scale(0.015625)"/>
        <path d="M 730 3750 
C 794 3724 1056 3641 1325 3641 
C 1920 3641 2246 3961 2432 4140 
C 2432 4191 2432 4224 2394 4224 
C 2387 4224 2374 4224 2323 4198 
C 2099 4102 1837 4032 1517 4032 
C 1325 4032 1037 4055 723 4191 
C 653 4224 640 4224 634 4224 
C 602 4224 595 4217 595 4090 
L 595 2231 
C 595 2113 595 2080 659 2080 
C 691 2080 704 2093 736 2139 
C 941 2435 1222 2560 1542 2560 
C 1766 2560 2246 2415 2246 1293 
C 2246 1087 2246 716 2054 422 
C 1894 159 1645 25 1370 25 
C 947 25 518 319 403 812 
C 429 806 480 793 506 793 
C 589 793 749 838 749 1036 
C 749 1209 627 1280 506 1280 
C 358 1280 262 1190 262 1011 
C 262 454 704 -128 1382 -128 
C 2042 -128 2669 441 2669 1267 
C 2669 2054 2170 2662 1549 2662 
C 1222 2662 947 2540 730 2304 
L 730 3750 
z
" id="CMR17-35" transform="scale(0.015625)"/>
       </defs>
       <use transform="scale(0.996264)" xlink:href="#CMR17-30"/>
       <use transform="translate(45.690477 0)scale(0.996264)" xlink:href="#CMMI12-3a"/>
       <use transform="translate(72.787654 0)scale(0.996264)" xlink:href="#CMR17-30"/>
       <use transform="translate(118.478131 0)scale(0.996264)" xlink:href="#CMR17-30"/>
       <use transform="translate(164.168608 0)scale(0.996264)" xlink:href="#CMR17-32"/>
       <use transform="translate(209.859086 0)scale(0.996264)" xlink:href="#CMR17-35"/>
      </g>
     </g>
    </g>
    <g id="xtick_3">
     <g id="line2d_5">
      <path clip-path="url(#pa706b7a92f)" d="M 118.162063 187.903055 
L 118.162063 24.823055 
" style="fill:none;stroke:#b0b0b0;stroke-linecap:square;stroke-width:0.8;"/>
     </g>
     <g id="line2d_6">
      <g>
       <use style="stroke:#000000;stroke-width:0.8;" x="118.162063" xlink:href="#mf5a29feb34" y="187.903055"/>
      </g>
     </g>
     <g id="text_3">
      <!-- $\mathdefault{0.0050}$ -->
      <g transform="translate(101.903756 203.205235)scale(0.12 -0.12)">
       <use transform="scale(0.996264)" xlink:href="#CMR17-30"/>
       <use transform="translate(45.690477 0)scale(0.996264)" xlink:href="#CMMI12-3a"/>
       <use transform="translate(72.787654 0)scale(0.996264)" xlink:href="#CMR17-30"/>
       <use transform="translate(118.478131 0)scale(0.996264)" xlink:href="#CMR17-30"/>
       <use transform="translate(164.168608 0)scale(0.996264)" xlink:href="#CMR17-35"/>
       <use transform="translate(209.859086 0)scale(0.996264)" xlink:href="#CMR17-30"/>
      </g>
     </g>
    </g>
    <g id="xtick_4">
     <g id="line2d_7">
      <path clip-path="url(#pa706b7a92f)" d="M 155.088533 187.903055 
L 155.088533 24.823055 
" style="fill:none;stroke:#b0b0b0;stroke-linecap:square;stroke-width:0.8;"/>
     </g>
     <g id="line2d_8">
      <g>
       <use style="stroke:#000000;stroke-width:0.8;" x="155.088533" xlink:href="#mf5a29feb34" y="187.903055"/>
      </g>
     </g>
     <g id="text_4">
      <!-- $\mathdefault{0.0075}$ -->
      <g transform="translate(138.830227 203.205235)scale(0.12 -0.12)">
       <defs>
        <path d="M 2886 3955 
L 2886 4096 
L 1382 4096 
C 634 4096 621 4166 595 4288 
L 480 4288 
L 294 3104 
L 410 3104 
C 429 3226 474 3552 550 3673 
C 589 3724 1062 3724 1171 3724 
L 2579 3724 
L 1869 2670 
C 1395 1961 1069 1003 1069 166 
C 1069 89 1069 -128 1299 -128 
C 1530 -128 1530 89 1530 172 
L 1530 466 
C 1530 1514 1709 2204 2003 2644 
L 2886 3955 
z
" id="CMR17-37" transform="scale(0.015625)"/>
       </defs>
       <use transform="scale(0.996264)" xlink:href="#CMR17-30"/>
       <use transform="translate(45.690477 0)scale(0.996264)" xlink:href="#CMMI12-3a"/>
       <use transform="translate(72.787654 0)scale(0.996264)" xlink:href="#CMR17-30"/>
       <use transform="translate(118.478131 0)scale(0.996264)" xlink:href="#CMR17-30"/>
       <use transform="translate(164.168608 0)scale(0.996264)" xlink:href="#CMR17-37"/>
       <use transform="translate(209.859086 0)scale(0.996264)" xlink:href="#CMR17-35"/>
      </g>
     </g>
    </g>
    <g id="xtick_5">
     <g id="line2d_9">
      <path clip-path="url(#pa706b7a92f)" d="M 192.015004 187.903055 
L 192.015004 24.823055 
" style="fill:none;stroke:#b0b0b0;stroke-linecap:square;stroke-width:0.8;"/>
     </g>
     <g id="line2d_10">
      <g>
       <use style="stroke:#000000;stroke-width:0.8;" x="192.015004" xlink:href="#mf5a29feb34" y="187.903055"/>
      </g>
     </g>
     <g id="text_5">
      <!-- $\mathdefault{0.0100}$ -->
      <g transform="translate(175.756698 203.205235)scale(0.12 -0.12)">
       <defs>
        <path d="M 1702 4083 
C 1702 4217 1696 4224 1606 4224 
C 1357 3927 979 3833 621 3820 
C 602 3820 570 3820 563 3808 
C 557 3795 557 3782 557 3648 
C 755 3648 1088 3686 1344 3839 
L 1344 467 
C 1344 243 1331 166 781 166 
L 589 166 
L 589 0 
C 896 6 1216 12 1523 12 
C 1830 12 2150 6 2458 0 
L 2458 166 
L 2266 166 
C 1715 166 1702 236 1702 467 
L 1702 4083 
z
" id="CMR17-31" transform="scale(0.015625)"/>
       </defs>
       <use transform="scale(0.996264)" xlink:href="#CMR17-30"/>
       <use transform="translate(45.690477 0)scale(0.996264)" xlink:href="#CMMI12-3a"/>
       <use transform="translate(72.787654 0)scale(0.996264)" xlink:href="#CMR17-30"/>
       <use transform="translate(118.478131 0)scale(0.996264)" xlink:href="#CMR17-31"/>
       <use transform="translate(164.168608 0)scale(0.996264)" xlink:href="#CMR17-30"/>
       <use transform="translate(209.859086 0)scale(0.996264)" xlink:href="#CMR17-30"/>
      </g>
     </g>
    </g>
    <g id="text_6">
     <!-- $t$ (s) -->
     <g transform="translate(105.415551 219.990602)scale(0.14 -0.14)">
      <defs>
       <path d="M 1286 2566 
L 1875 2566 
C 1997 2566 2061 2566 2061 2681 
C 2061 2752 2022 2752 1894 2752 
L 1331 2752 
L 1568 3664 
C 1594 3752 1594 3764 1594 3808 
C 1594 3910 1510 3968 1427 3968 
C 1376 3968 1229 3948 1178 3746 
L 928 2752 
L 326 2752 
C 198 2752 141 2752 141 2630 
C 141 2566 186 2566 307 2566 
L 877 2566 
L 454 881 
C 403 657 384 593 384 510 
C 384 210 595 -64 954 -64 
C 1600 -64 1946 868 1946 913 
C 1946 951 1920 970 1882 970 
C 1869 970 1843 970 1830 944 
C 1824 938 1818 932 1773 830 
C 1638 510 1344 64 973 64 
C 781 64 768 223 768 364 
C 768 370 768 491 787 568 
L 1286 2566 
z
" id="CMMI12-74" transform="scale(0.015625)"/>
       <path d="M 1958 -1562 
C 1958 -1556 1958 -1543 1939 -1524 
C 1645 -1223 858 -403 858 1596 
C 858 3595 1632 4408 1946 4729 
C 1946 4735 1958 4748 1958 4767 
C 1958 4787 1939 4800 1914 4800 
C 1843 4800 1299 4325 986 3620 
C 666 2909 576 2218 576 1603 
C 576 1141 621 360 1005 -467 
C 1312 -1133 1837 -1600 1914 -1600 
C 1946 -1600 1958 -1588 1958 -1562 
z
" id="CMR17-28" transform="scale(0.015625)"/>
       <path d="M 1978 2688 
C 1978 2803 1971 2809 1933 2809 
C 1907 2809 1901 2803 1824 2707 
C 1805 2681 1747 2617 1728 2592 
C 1523 2809 1235 2816 1126 2816 
C 416 2816 160 2444 160 2073 
C 160 1497 813 1363 998 1324 
C 1402 1241 1542 1216 1677 1100 
C 1760 1024 1901 883 1901 652 
C 1901 384 1747 38 1158 38 
C 602 38 403 460 288 1024 
C 269 1113 269 1120 218 1120 
C 166 1120 160 1113 160 985 
L 160 64 
C 160 -52 166 -58 205 -58 
C 237 -58 243 -52 275 0 
C 314 57 410 211 448 275 
C 576 102 800 -64 1158 -64 
C 1792 -64 2131 281 2131 780 
C 2131 1107 1958 1280 1875 1356 
C 1683 1555 1459 1600 1190 1651 
C 838 1728 390 1817 390 2208 
C 390 2374 480 2726 1126 2726 
C 1811 2726 1850 2086 1862 1881 
C 1869 1849 1901 1843 1920 1843 
C 1978 1843 1978 1862 1978 1971 
L 1978 2688 
z
" id="CMR17-73" transform="scale(0.015625)"/>
       <path d="M 1683 1596 
C 1683 2057 1638 2839 1254 3665 
C 947 4332 422 4800 346 4800 
C 326 4800 301 4793 301 4761 
C 301 4748 307 4742 314 4729 
C 621 4408 1402 3595 1402 1603 
C 1402 -396 627 -1210 314 -1530 
C 307 -1543 301 -1549 301 -1562 
C 301 -1594 326 -1600 346 -1600 
C 416 -1600 960 -1127 1274 -422 
C 1594 289 1683 981 1683 1596 
z
" id="CMR17-29" transform="scale(0.015625)"/>
      </defs>
      <use transform="scale(0.996264)" xlink:href="#CMMI12-74"/>
      <use transform="translate(65.302297 0)scale(0.996264)" xlink:href="#CMR17-28"/>
      <use transform="translate(100.583064 0)scale(0.996264)" xlink:href="#CMR17-73"/>
      <use transform="translate(136.384402 0)scale(0.996264)" xlink:href="#CMR17-29"/>
     </g>
    </g>
   </g>
   <g id="matplotlib.axis_2">
    <g id="ytick_1">
     <g id="line2d_11">
      <path clip-path="url(#pa706b7a92f)" d="M 44.309121 164.605912 
L 192.015004 164.605912 
" style="fill:none;stroke:#b0b0b0;stroke-linecap:square;stroke-width:0.8;"/>
     </g>
     <g id="line2d_12">
      <defs>
       <path d="M 0 0 
L -3.5 0 
" id="m4b8c2cf4f9" style="stroke:#000000;stroke-width:0.8;"/>
      </defs>
      <g>
       <use style="stroke:#000000;stroke-width:0.8;" x="44.309121" xlink:href="#m4b8c2cf4f9" y="164.605912"/>
      </g>
     </g>
     <g id="text_7">
      <!-- $\mathdefault{−0.50}$ -->
      <g transform="translate(7.2 168.757002)scale(0.12 -0.12)">
       <defs>
        <path d="M 4218 1472 
C 4326 1472 4442 1472 4442 1600 
C 4442 1728 4326 1728 4218 1728 
L 755 1728 
C 646 1728 531 1728 531 1600 
C 531 1472 646 1472 755 1472 
L 4218 1472 
z
" id="CMSY10-0" transform="scale(0.015625)"/>
       </defs>
       <use transform="scale(0.996264)" xlink:href="#CMSY10-0"/>
       <use transform="translate(77.487468 0)scale(0.996264)" xlink:href="#CMR17-30"/>
       <use transform="translate(123.177945 0)scale(0.996264)" xlink:href="#CMMI12-3a"/>
       <use transform="translate(150.275122 0)scale(0.996264)" xlink:href="#CMR17-35"/>
       <use transform="translate(195.965599 0)scale(0.996264)" xlink:href="#CMR17-30"/>
      </g>
     </g>
    </g>
    <g id="ytick_2">
     <g id="line2d_13">
      <path clip-path="url(#pa706b7a92f)" d="M 44.309121 135.484483 
L 192.015004 135.484483 
" style="fill:none;stroke:#b0b0b0;stroke-linecap:square;stroke-width:0.8;"/>
     </g>
     <g id="line2d_14">
      <g>
       <use style="stroke:#000000;stroke-width:0.8;" x="44.309121" xlink:href="#m4b8c2cf4f9" y="135.484483"/>
      </g>
     </g>
     <g id="text_8">
      <!-- $\mathdefault{−0.25}$ -->
      <g transform="translate(7.2 139.635573)scale(0.12 -0.12)">
       <use transform="scale(0.996264)" xlink:href="#CMSY10-0"/>
       <use transform="translate(77.487468 0)scale(0.996264)" xlink:href="#CMR17-30"/>
       <use transform="translate(123.177945 0)scale(0.996264)" xlink:href="#CMMI12-3a"/>
       <use transform="translate(150.275122 0)scale(0.996264)" xlink:href="#CMR17-32"/>
       <use transform="translate(195.965599 0)scale(0.996264)" xlink:href="#CMR17-35"/>
      </g>
     </g>
    </g>
    <g id="ytick_3">
     <g id="line2d_15">
      <path clip-path="url(#pa706b7a92f)" d="M 44.309121 106.363055 
L 192.015004 106.363055 
" style="fill:none;stroke:#b0b0b0;stroke-linecap:square;stroke-width:0.8;"/>
     </g>
     <g id="line2d_16">
      <g>
       <use style="stroke:#000000;stroke-width:0.8;" x="44.309121" xlink:href="#m4b8c2cf4f9" y="106.363055"/>
      </g>
     </g>
     <g id="text_9">
      <!-- $\mathdefault{0.00}$ -->
      <g transform="translate(16.498489 110.514145)scale(0.12 -0.12)">
       <use transform="scale(0.996264)" xlink:href="#CMR17-30"/>
       <use transform="translate(45.690477 0)scale(0.996264)" xlink:href="#CMMI12-3a"/>
       <use transform="translate(72.787654 0)scale(0.996264)" xlink:href="#CMR17-30"/>
       <use transform="translate(118.478131 0)scale(0.996264)" xlink:href="#CMR17-30"/>
      </g>
     </g>
    </g>
    <g id="ytick_4">
     <g id="line2d_17">
      <path clip-path="url(#pa706b7a92f)" d="M 44.309121 77.241626 
L 192.015004 77.241626 
" style="fill:none;stroke:#b0b0b0;stroke-linecap:square;stroke-width:0.8;"/>
     </g>
     <g id="line2d_18">
      <g>
       <use style="stroke:#000000;stroke-width:0.8;" x="44.309121" xlink:href="#m4b8c2cf4f9" y="77.241626"/>
      </g>
     </g>
     <g id="text_10">
      <!-- $\mathdefault{0.25}$ -->
      <g transform="translate(16.498489 81.392716)scale(0.12 -0.12)">
       <use transform="scale(0.996264)" xlink:href="#CMR17-30"/>
       <use transform="translate(45.690477 0)scale(0.996264)" xlink:href="#CMMI12-3a"/>
       <use transform="translate(72.787654 0)scale(0.996264)" xlink:href="#CMR17-32"/>
       <use transform="translate(118.478131 0)scale(0.996264)" xlink:href="#CMR17-35"/>
      </g>
     </g>
    </g>
    <g id="ytick_5">
     <g id="line2d_19">
      <path clip-path="url(#pa706b7a92f)" d="M 44.309121 48.120198 
L 192.015004 48.120198 
" style="fill:none;stroke:#b0b0b0;stroke-linecap:square;stroke-width:0.8;"/>
     </g>
     <g id="line2d_20">
      <g>
       <use style="stroke:#000000;stroke-width:0.8;" x="44.309121" xlink:href="#m4b8c2cf4f9" y="48.120198"/>
      </g>
     </g>
     <g id="text_11">
      <!-- $\mathdefault{0.50}$ -->
      <g transform="translate(16.498489 52.271288)scale(0.12 -0.12)">
       <use transform="scale(0.996264)" xlink:href="#CMR17-30"/>
       <use transform="translate(45.690477 0)scale(0.996264)" xlink:href="#CMMI12-3a"/>
       <use transform="translate(72.787654 0)scale(0.996264)" xlink:href="#CMR17-35"/>
       <use transform="translate(118.478131 0)scale(0.996264)" xlink:href="#CMR17-30"/>
      </g>
     </g>
    </g>
   </g>
   <g id="line2d_21">
    <path clip-path="url(#pa706b7a92f)" d="M 44.309121 106.363055 
L 46.988593 78.362537 
L 48.328329 66.565723 
L 49.333131 59.316865 
L 50.337933 53.727113 
L 51.007801 51.022316 
L 51.677669 49.186328 
L 52.012603 48.603691 
L 52.347537 48.247972 
L 52.682471 48.120567 
L 53.017405 48.221978 
L 53.352339 48.551806 
L 53.687273 49.108756 
L 54.357141 50.894384 
L 55.027009 53.550828 
L 55.696877 57.036384 
L 56.701678 63.696251 
L 57.70648 71.860784 
L 59.046216 84.583372 
L 61.390754 109.597688 
L 63.735292 133.999049 
L 65.075028 145.856437 
L 66.07983 153.163459 
L 67.084632 158.82004 
L 67.7545 161.573052 
L 68.424368 163.459308 
L 69.094235 164.449195 
L 69.429169 164.602587 
L 69.764103 164.527174 
L 70.099037 164.223254 
L 70.433971 163.69202 
L 71.103839 161.956844 
L 71.773707 159.348887 
L 72.443575 155.909092 
L 73.448377 149.3112 
L 74.453179 141.198721 
L 75.792915 128.52699 
L 78.137453 103.54277 
L 80.481991 79.092986 
L 81.821726 67.175625 
L 82.826528 59.810813 
L 83.83133 54.087688 
L 84.501198 51.286601 
L 85.171066 49.350173 
L 85.840934 48.308805 
L 86.175868 48.129434 
L 86.510802 48.178844 
L 86.845736 48.456841 
L 87.18067 48.962333 
L 87.850538 50.646969 
L 88.520406 53.206306 
L 89.190274 56.600165 
L 90.195076 63.135747 
L 91.199878 71.195761 
L 92.539614 83.815991 
L 94.884151 108.768848 
L 97.228689 133.265814 
L 98.568425 145.242543 
L 99.573227 152.664773 
L 100.578029 158.45415 
L 101.247897 161.303171 
L 101.917765 163.289672 
L 102.587633 164.382468 
L 102.922567 164.587809 
L 103.257501 164.564404 
L 103.592435 164.312344 
L 103.927369 163.832621 
L 104.597237 162.19861 
L 105.267105 159.688022 
L 105.936973 156.340272 
L 106.941774 149.867332 
L 107.946576 141.860192 
L 109.286312 129.292102 
L 111.63085 104.371875 
L 113.975388 79.828971 
L 115.315124 67.793482 
L 116.319926 60.31421 
L 117.324728 54.458874 
L 117.994596 51.562065 
L 118.664464 49.525591 
L 119.334332 48.381422 
L 119.669265 48.150122 
L 120.004199 48.147521 
L 120.339133 48.37363 
L 120.674067 48.827561 
L 121.343935 50.410864 
L 122.013803 52.872575 
L 122.683671 56.174047 
L 123.688473 62.584017 
L 124.693275 70.537876 
L 126.033011 83.053188 
L 128.042615 104.288943 
L 130.722087 132.527117 
L 132.061823 144.620756 
L 133.066624 152.156689 
L 134.071426 158.077686 
L 134.741294 161.022137 
L 135.411162 163.108481 
L 136.08103 164.303964 
L 136.415964 164.561212 
L 136.750898 164.589819 
L 137.085832 164.389671 
L 137.420766 163.961557 
L 138.090634 162.429041 
L 138.760502 160.016332 
L 139.43037 156.761306 
L 140.435172 150.414632 
L 141.439974 142.514457 
L 142.77971 130.052559 
L 144.789314 108.851757 
L 147.468785 80.570342 
L 148.808521 68.419167 
L 149.813323 60.826955 
L 150.818125 54.840596 
L 151.487993 51.848654 
L 152.157861 49.712546 
L 152.827729 48.465809 
L 153.162663 48.182626 
L 153.497597 48.128015 
L 153.832531 48.302191 
L 154.167465 48.704468 
L 154.837333 50.186117 
L 155.507201 52.549703 
L 156.177069 55.758117 
L 157.181871 62.041174 
L 158.186672 69.887263 
L 159.526408 82.295116 
L 161.536012 103.459888 
L 164.215484 131.783109 
L 165.55522 143.991203 
L 166.560022 151.639309 
L 167.564824 157.690725 
L 168.234692 160.730008 
L 168.90456 162.915771 
L 169.574428 164.213699 
L 169.909362 164.522802 
L 170.244296 164.603414 
L 170.579229 164.45522 
L 170.914163 164.0788 
L 171.584031 162.648092 
L 172.253899 160.333751 
L 172.923767 157.172111 
L 173.928569 150.952991 
L 174.933371 143.161384 
L 176.273107 130.808207 
L 178.282711 109.680539 
L 180.962183 81.316949 
L 182.301919 69.052555 
L 183.30672 61.348944 
L 184.311522 55.232777 
L 184.98139 52.146308 
L 185.651258 49.911001 
L 186.321126 48.561949 
L 186.65606 48.226941 
L 186.990994 48.120331 
L 187.325928 48.242537 
L 187.660862 48.59308 
L 187.995796 49.170582 
L 188.665664 50.996505 
L 189.335532 53.691642 
L 190.0054 57.21368 
L 191.010202 63.922885 
L 192.015004 72.128762 
L 192.349938 75.147965 
L 192.349938 75.147965 
" style="fill:none;stroke:#1f77b4;stroke-linecap:square;stroke-width:1.5;"/>
   </g>
   <g id="patch_3">
    <path d="M 44.309121 187.903055 
L 44.309121 24.823055 
" style="fill:none;stroke:#000000;stroke-linecap:square;stroke-linejoin:miter;stroke-width:0.8;"/>
   </g>
   <g id="patch_4">
    <path d="M 192.015004 187.903055 
L 192.015004 24.823055 
" style="fill:none;stroke:#000000;stroke-linecap:square;stroke-linejoin:miter;stroke-width:0.8;"/>
   </g>
   <g id="patch_5">
    <path d="M 44.309121 187.903055 
L 192.015004 187.903055 
" style="fill:none;stroke:#000000;stroke-linecap:square;stroke-linejoin:miter;stroke-width:0.8;"/>
   </g>
   <g id="patch_6">
    <path d="M 44.309121 24.823055 
L 192.015004 24.823055 
" style="fill:none;stroke:#000000;stroke-linecap:square;stroke-linejoin:miter;stroke-width:0.8;"/>
   </g>
   <g id="text_12">
    <!-- $x$ -->
    <g transform="translate(113.505605 18.823055)scale(0.168 -0.168)">
     <defs>
      <path d="M 3034 2624 
C 2829 2585 2752 2431 2752 2310 
C 2752 2156 2874 2105 2963 2105 
C 3155 2105 3290 2271 3290 2444 
C 3290 2694 2982 2816 2714 2816 
C 2323 2816 2106 2451 2048 2329 
C 1901 2790 1504 2816 1389 2816 
C 736 2816 390 1993 390 1849 
C 390 1823 416 1790 461 1790 
C 512 1790 525 1829 538 1855 
C 755 2572 1184 2687 1370 2687 
C 1658 2687 1715 2438 1715 2284 
C 1715 2143 1677 1993 1600 1678 
L 1382 778 
C 1286 390 1101 64 762 64 
C 730 64 570 64 435 126 
C 666 166 717 358 717 435 
C 717 563 621 640 499 640 
C 346 640 179 505 179 300 
C 179 57 480 -64 755 -64 
C 1062 -64 1280 153 1414 415 
C 1517 64 1837 -64 2074 -64 
C 2726 -64 3072 751 3072 896 
C 3072 929 3046 955 3008 955 
C 2950 955 2944 922 2925 870 
C 2752 300 2381 64 2093 64 
C 1869 64 1747 204 1747 467 
C 1747 607 1773 712 1875 1146 
L 2099 2039 
C 2195 2425 2413 2687 2707 2687 
C 2720 2687 2899 2687 3034 2624 
z
" id="CMMI12-78" transform="scale(0.015625)"/>
     </defs>
     <use transform="scale(0.996264)" xlink:href="#CMMI12-78"/>
    </g>
   </g>
  </g>
  <g id="axes_2">
   <g id="patch_7">
    <path d="M 221.55618 187.903055 
L 369.262063 187.903055 
L 369.262063 24.823055 
L 221.55618 24.823055 
z
" style="fill:#ffffff;"/>
   </g>
   <g id="matplotlib.axis_3">
    <g id="xtick_6">
     <g id="line2d_22">
      <path clip-path="url(#p86cae3c5ec)" d="M 221.55618 187.903055 
L 221.55618 24.823055 
" style="fill:none;stroke:#b0b0b0;stroke-linecap:square;stroke-width:0.8;"/>
     </g>
     <g id="line2d_23">
      <g>
       <use style="stroke:#000000;stroke-width:0.8;" x="221.55618" xlink:href="#mf5a29feb34" y="187.903055"/>
      </g>
     </g>
     <g id="text_13">
      <!-- $\mathdefault{0.0000}$ -->
      <g transform="translate(205.297874 203.205235)scale(0.12 -0.12)">
       <use transform="scale(0.996264)" xlink:href="#CMR17-30"/>
       <use transform="translate(45.690477 0)scale(0.996264)" xlink:href="#CMMI12-3a"/>
       <use transform="translate(72.787654 0)scale(0.996264)" xlink:href="#CMR17-30"/>
       <use transform="translate(118.478131 0)scale(0.996264)" xlink:href="#CMR17-30"/>
       <use transform="translate(164.168608 0)scale(0.996264)" xlink:href="#CMR17-30"/>
       <use transform="translate(209.859086 0)scale(0.996264)" xlink:href="#CMR17-30"/>
      </g>
     </g>
    </g>
    <g id="xtick_7">
     <g id="line2d_24">
      <path clip-path="url(#p86cae3c5ec)" d="M 258.482651 187.903055 
L 258.482651 24.823055 
" style="fill:none;stroke:#b0b0b0;stroke-linecap:square;stroke-width:0.8;"/>
     </g>
     <g id="line2d_25">
      <g>
       <use style="stroke:#000000;stroke-width:0.8;" x="258.482651" xlink:href="#mf5a29feb34" y="187.903055"/>
      </g>
     </g>
     <g id="text_14">
      <!-- $\mathdefault{0.0025}$ -->
      <g transform="translate(242.224345 203.205235)scale(0.12 -0.12)">
       <use transform="scale(0.996264)" xlink:href="#CMR17-30"/>
       <use transform="translate(45.690477 0)scale(0.996264)" xlink:href="#CMMI12-3a"/>
       <use transform="translate(72.787654 0)scale(0.996264)" xlink:href="#CMR17-30"/>
       <use transform="translate(118.478131 0)scale(0.996264)" xlink:href="#CMR17-30"/>
       <use transform="translate(164.168608 0)scale(0.996264)" xlink:href="#CMR17-32"/>
       <use transform="translate(209.859086 0)scale(0.996264)" xlink:href="#CMR17-35"/>
      </g>
     </g>
    </g>
    <g id="xtick_8">
     <g id="line2d_26">
      <path clip-path="url(#p86cae3c5ec)" d="M 295.409121 187.903055 
L 295.409121 24.823055 
" style="fill:none;stroke:#b0b0b0;stroke-linecap:square;stroke-width:0.8;"/>
     </g>
     <g id="line2d_27">
      <g>
       <use style="stroke:#000000;stroke-width:0.8;" x="295.409121" xlink:href="#mf5a29feb34" y="187.903055"/>
      </g>
     </g>
     <g id="text_15">
      <!-- $\mathdefault{0.0050}$ -->
      <g transform="translate(279.150815 203.205235)scale(0.12 -0.12)">
       <use transform="scale(0.996264)" xlink:href="#CMR17-30"/>
       <use transform="translate(45.690477 0)scale(0.996264)" xlink:href="#CMMI12-3a"/>
       <use transform="translate(72.787654 0)scale(0.996264)" xlink:href="#CMR17-30"/>
       <use transform="translate(118.478131 0)scale(0.996264)" xlink:href="#CMR17-30"/>
       <use transform="translate(164.168608 0)scale(0.996264)" xlink:href="#CMR17-35"/>
       <use transform="translate(209.859086 0)scale(0.996264)" xlink:href="#CMR17-30"/>
      </g>
     </g>
    </g>
    <g id="xtick_9">
     <g id="line2d_28">
      <path clip-path="url(#p86cae3c5ec)" d="M 332.335592 187.903055 
L 332.335592 24.823055 
" style="fill:none;stroke:#b0b0b0;stroke-linecap:square;stroke-width:0.8;"/>
     </g>
     <g id="line2d_29">
      <g>
       <use style="stroke:#000000;stroke-width:0.8;" x="332.335592" xlink:href="#mf5a29feb34" y="187.903055"/>
      </g>
     </g>
     <g id="text_16">
      <!-- $\mathdefault{0.0075}$ -->
      <g transform="translate(316.077286 203.205235)scale(0.12 -0.12)">
       <use transform="scale(0.996264)" xlink:href="#CMR17-30"/>
       <use transform="translate(45.690477 0)scale(0.996264)" xlink:href="#CMMI12-3a"/>
       <use transform="translate(72.787654 0)scale(0.996264)" xlink:href="#CMR17-30"/>
       <use transform="translate(118.478131 0)scale(0.996264)" xlink:href="#CMR17-30"/>
       <use transform="translate(164.168608 0)scale(0.996264)" xlink:href="#CMR17-37"/>
       <use transform="translate(209.859086 0)scale(0.996264)" xlink:href="#CMR17-35"/>
      </g>
     </g>
    </g>
    <g id="xtick_10">
     <g id="line2d_30">
      <path clip-path="url(#p86cae3c5ec)" d="M 369.262063 187.903055 
L 369.262063 24.823055 
" style="fill:none;stroke:#b0b0b0;stroke-linecap:square;stroke-width:0.8;"/>
     </g>
     <g id="line2d_31">
      <g>
       <use style="stroke:#000000;stroke-width:0.8;" x="369.262063" xlink:href="#mf5a29feb34" y="187.903055"/>
      </g>
     </g>
     <g id="text_17">
      <!-- $\mathdefault{0.0100}$ -->
      <g transform="translate(353.003756 203.205235)scale(0.12 -0.12)">
       <use transform="scale(0.996264)" xlink:href="#CMR17-30"/>
       <use transform="translate(45.690477 0)scale(0.996264)" xlink:href="#CMMI12-3a"/>
       <use transform="translate(72.787654 0)scale(0.996264)" xlink:href="#CMR17-30"/>
       <use transform="translate(118.478131 0)scale(0.996264)" xlink:href="#CMR17-31"/>
       <use transform="translate(164.168608 0)scale(0.996264)" xlink:href="#CMR17-30"/>
       <use transform="translate(209.859086 0)scale(0.996264)" xlink:href="#CMR17-30"/>
      </g>
     </g>
    </g>
    <g id="text_18">
     <!-- $t$ (s) -->
     <g transform="translate(282.662609 219.990602)scale(0.14 -0.14)">
      <use transform="scale(0.996264)" xlink:href="#CMMI12-74"/>
      <use transform="translate(65.302297 0)scale(0.996264)" xlink:href="#CMR17-28"/>
      <use transform="translate(100.583064 0)scale(0.996264)" xlink:href="#CMR17-73"/>
      <use transform="translate(136.384402 0)scale(0.996264)" xlink:href="#CMR17-29"/>
     </g>
    </g>
   </g>
   <g id="matplotlib.axis_4">
    <g id="ytick_6">
     <g id="line2d_32">
      <path clip-path="url(#p86cae3c5ec)" d="M 221.55618 164.605912 
L 369.262063 164.605912 
" style="fill:none;stroke:#b0b0b0;stroke-linecap:square;stroke-width:0.8;"/>
     </g>
     <g id="line2d_33">
      <g>
       <use style="stroke:#000000;stroke-width:0.8;" x="221.55618" xlink:href="#m4b8c2cf4f9" y="164.605912"/>
      </g>
     </g>
     <g id="text_19">
      <!-- $\mathdefault{−0.50}$ -->
      <g transform="translate(184.447059 168.757002)scale(0.12 -0.12)">
       <use transform="scale(0.996264)" xlink:href="#CMSY10-0"/>
       <use transform="translate(77.487468 0)scale(0.996264)" xlink:href="#CMR17-30"/>
       <use transform="translate(123.177945 0)scale(0.996264)" xlink:href="#CMMI12-3a"/>
       <use transform="translate(150.275122 0)scale(0.996264)" xlink:href="#CMR17-35"/>
       <use transform="translate(195.965599 0)scale(0.996264)" xlink:href="#CMR17-30"/>
      </g>
     </g>
    </g>
    <g id="ytick_7">
     <g id="line2d_34">
      <path clip-path="url(#p86cae3c5ec)" d="M 221.55618 135.484483 
L 369.262063 135.484483 
" style="fill:none;stroke:#b0b0b0;stroke-linecap:square;stroke-width:0.8;"/>
     </g>
     <g id="line2d_35">
      <g>
       <use style="stroke:#000000;stroke-width:0.8;" x="221.55618" xlink:href="#m4b8c2cf4f9" y="135.484483"/>
      </g>
     </g>
     <g id="text_20">
      <!-- $\mathdefault{−0.25}$ -->
      <g transform="translate(184.447059 139.635573)scale(0.12 -0.12)">
       <use transform="scale(0.996264)" xlink:href="#CMSY10-0"/>
       <use transform="translate(77.487468 0)scale(0.996264)" xlink:href="#CMR17-30"/>
       <use transform="translate(123.177945 0)scale(0.996264)" xlink:href="#CMMI12-3a"/>
       <use transform="translate(150.275122 0)scale(0.996264)" xlink:href="#CMR17-32"/>
       <use transform="translate(195.965599 0)scale(0.996264)" xlink:href="#CMR17-35"/>
      </g>
     </g>
    </g>
    <g id="ytick_8">
     <g id="line2d_36">
      <path clip-path="url(#p86cae3c5ec)" d="M 221.55618 106.363055 
L 369.262063 106.363055 
" style="fill:none;stroke:#b0b0b0;stroke-linecap:square;stroke-width:0.8;"/>
     </g>
     <g id="line2d_37">
      <g>
       <use style="stroke:#000000;stroke-width:0.8;" x="221.55618" xlink:href="#m4b8c2cf4f9" y="106.363055"/>
      </g>
     </g>
     <g id="text_21">
      <!-- $\mathdefault{0.00}$ -->
      <g transform="translate(193.745548 110.514145)scale(0.12 -0.12)">
       <use transform="scale(0.996264)" xlink:href="#CMR17-30"/>
       <use transform="translate(45.690477 0)scale(0.996264)" xlink:href="#CMMI12-3a"/>
       <use transform="translate(72.787654 0)scale(0.996264)" xlink:href="#CMR17-30"/>
       <use transform="translate(118.478131 0)scale(0.996264)" xlink:href="#CMR17-30"/>
      </g>
     </g>
    </g>
    <g id="ytick_9">
     <g id="line2d_38">
      <path clip-path="url(#p86cae3c5ec)" d="M 221.55618 77.241626 
L 369.262063 77.241626 
" style="fill:none;stroke:#b0b0b0;stroke-linecap:square;stroke-width:0.8;"/>
     </g>
     <g id="line2d_39">
      <g>
       <use style="stroke:#000000;stroke-width:0.8;" x="221.55618" xlink:href="#m4b8c2cf4f9" y="77.241626"/>
      </g>
     </g>
     <g id="text_22">
      <!-- $\mathdefault{0.25}$ -->
      <g transform="translate(193.745548 81.392716)scale(0.12 -0.12)">
       <use transform="scale(0.996264)" xlink:href="#CMR17-30"/>
       <use transform="translate(45.690477 0)scale(0.996264)" xlink:href="#CMMI12-3a"/>
       <use transform="translate(72.787654 0)scale(0.996264)" xlink:href="#CMR17-32"/>
       <use transform="translate(118.478131 0)scale(0.996264)" xlink:href="#CMR17-35"/>
      </g>
     </g>
    </g>
    <g id="ytick_10">
     <g id="line2d_40">
      <path clip-path="url(#p86cae3c5ec)" d="M 221.55618 48.120198 
L 369.262063 48.120198 
" style="fill:none;stroke:#b0b0b0;stroke-linecap:square;stroke-width:0.8;"/>
     </g>
     <g id="line2d_41">
      <g>
       <use style="stroke:#000000;stroke-width:0.8;" x="221.55618" xlink:href="#m4b8c2cf4f9" y="48.120198"/>
      </g>
     </g>
     <g id="text_23">
      <!-- $\mathdefault{0.50}$ -->
      <g transform="translate(193.745548 52.271288)scale(0.12 -0.12)">
       <use transform="scale(0.996264)" xlink:href="#CMR17-30"/>
       <use transform="translate(45.690477 0)scale(0.996264)" xlink:href="#CMMI12-3a"/>
       <use transform="translate(72.787654 0)scale(0.996264)" xlink:href="#CMR17-35"/>
       <use transform="translate(118.478131 0)scale(0.996264)" xlink:href="#CMR17-30"/>
      </g>
     </g>
    </g>
   </g>
   <g id="line2d_42">
    <path clip-path="url(#p86cae3c5ec)" d="M 221.55618 89.711107 
L 221.891114 128.333148 
L 222.226048 107.455594 
L 222.560982 104.969954 
L 222.895916 91.677466 
L 223.23085 112.611011 
L 223.565784 100.989219 
L 223.900718 99.635241 
L 224.235652 135.750719 
L 224.570586 112.896872 
L 224.90552 98.284894 
L 225.240454 89.866235 
L 225.575388 105.810081 
L 225.910322 114.954489 
L 226.245256 99.609302 
L 226.58019 108.316012 
L 227.250058 104.33619 
L 227.584992 127.404029 
L 227.919926 98.775649 
L 228.25486 116.81588 
L 228.589794 115.258394 
L 228.924728 124.004574 
L 229.259662 109.005406 
L 229.594596 109.361265 
L 229.92953 91.372389 
L 230.264464 117.067231 
L 230.599398 109.559657 
L 230.934332 94.642727 
L 231.269265 103.149591 
L 231.604199 120.911449 
L 231.939133 119.876705 
L 232.274067 99.336974 
L 232.609001 95.231058 
L 232.943935 80.828023 
L 233.278869 113.664855 
L 233.613803 90.336457 
L 233.948737 110.65155 
L 234.283671 118.103625 
L 234.618605 100.167887 
L 234.953539 94.69684 
L 235.288473 123.977419 
L 235.623407 114.714445 
L 235.958341 93.806672 
L 236.293275 100.61861 
L 236.628209 111.16775 
L 236.963143 89.491694 
L 237.298077 97.652788 
L 237.967945 121.506627 
L 238.302879 106.576029 
L 238.637813 106.550674 
L 238.972747 110.731469 
L 239.307681 92.776348 
L 239.642615 107.516123 
L 240.647417 118.071655 
L 240.982351 97.972298 
L 241.317285 114.489377 
L 241.652219 89.5744 
L 241.987153 110.123342 
L 242.322087 106.018363 
L 242.657021 98.400166 
L 242.991955 111.631214 
L 243.326889 100.684718 
L 243.661823 106.62443 
L 243.996756 118.461631 
L 244.33169 102.107931 
L 244.666624 109.0198 
L 245.001558 84.065627 
L 246.676228 121.070156 
L 247.011162 122.143741 
L 247.346096 78.930287 
L 247.68103 98.632389 
L 248.015964 106.804111 
L 248.350898 105.478279 
L 248.685832 120.820031 
L 249.020766 108.649535 
L 249.3557 119.795539 
L 249.690634 88.819531 
L 250.025568 98.681187 
L 250.360502 94.457184 
L 250.695436 96.865512 
L 251.365304 128.528516 
L 251.700238 101.120997 
L 252.035172 95.949457 
L 252.370106 92.523718 
L 252.70504 107.774248 
L 253.039974 88.738253 
L 253.709842 110.371886 
L 254.044776 109.891747 
L 254.37971 99.902414 
L 254.714644 119.403015 
L 255.049578 112.856231 
L 255.384512 98.409172 
L 255.719446 126.482202 
L 256.05438 100.565311 
L 256.389314 116.047542 
L 256.724247 97.399538 
L 257.059181 110.627724 
L 257.729049 90.270501 
L 258.063983 112.827533 
L 258.398917 105.209785 
L 258.733851 113.063001 
L 259.068785 99.255601 
L 259.403719 109.307894 
L 259.738653 106.836487 
L 260.073587 98.913324 
L 260.408521 106.026138 
L 260.743455 104.225411 
L 261.413323 132.335258 
L 261.748257 80.634609 
L 262.083191 83.301995 
L 262.418125 105.761804 
L 262.753059 100.107323 
L 263.087993 129.135585 
L 263.422927 106.345004 
L 264.092795 139.640647 
L 264.427729 128.812709 
L 264.762663 98.396899 
L 265.097597 107.466761 
L 265.432531 106.299093 
L 265.767465 109.068708 
L 266.102399 97.579979 
L 266.437333 90.742593 
L 266.772267 127.457502 
L 267.107201 102.12768 
L 267.442135 105.387007 
L 267.777069 94.595115 
L 268.446937 105.55253 
L 268.781871 116.088388 
L 269.116805 103.771167 
L 269.451738 107.250832 
L 269.786672 101.400219 
L 270.121606 106.277253 
L 270.45654 103.858518 
L 270.791474 103.649856 
L 271.126408 90.974536 
L 271.461342 112.629695 
L 271.796276 111.383969 
L 272.13121 104.144822 
L 272.466144 113.896503 
L 272.801078 114.571127 
L 273.136012 93.232867 
L 273.470946 96.235277 
L 273.80588 107.069562 
L 274.140814 104.335373 
L 274.475748 99.266738 
L 274.810682 96.603942 
L 275.145616 115.033586 
L 275.48055 114.318788 
L 275.815484 115.356167 
L 276.150418 101.00461 
L 276.485352 108.974494 
L 276.820286 101.172006 
L 277.15522 87.319369 
L 277.490154 100.980588 
L 277.825088 102.069066 
L 278.160022 110.338979 
L 278.494956 105.402645 
L 278.82989 112.9164 
L 279.164824 103.807783 
L 279.499758 115.495826 
L 279.834692 111.747833 
L 280.50456 120.42594 
L 280.839494 114.332948 
L 281.174428 104.428863 
L 281.509362 104.155411 
L 281.844296 117.001284 
L 282.179229 92.188417 
L 282.514163 97.305828 
L 282.849097 87.281762 
L 283.184031 115.171094 
L 283.518965 121.716264 
L 283.853899 100.04951 
L 284.523767 115.111002 
L 284.858701 94.65888 
L 285.193635 120.549954 
L 285.528569 107.104643 
L 285.863503 101.664105 
L 286.198437 92.927192 
L 286.533371 134.142615 
L 286.868305 100.285264 
L 287.203239 125.183545 
L 287.538173 106.157399 
L 287.873107 109.028001 
L 288.208041 98.753917 
L 288.542975 108.618627 
L 288.877909 113.107517 
L 289.212843 101.977141 
L 289.547777 81.275003 
L 289.882711 109.209838 
L 290.217645 100.661133 
L 290.552579 88.437429 
L 290.887513 99.873153 
L 291.222447 126.97672 
L 291.557381 100.610717 
L 291.892315 124.366825 
L 292.227249 120.129656 
L 292.562183 103.152909 
L 292.897117 98.68719 
L 293.232051 107.270686 
L 293.566985 99.322776 
L 293.901919 108.94187 
L 294.236853 101.688634 
L 294.571787 100.647809 
L 295.241654 114.774338 
L 295.576588 128.472412 
L 295.911522 98.208604 
L 296.246456 103.977651 
L 296.58139 107.360521 
L 296.916324 95.981518 
L 297.251258 119.813195 
L 297.586192 112.618101 
L 297.921126 115.631023 
L 298.25606 80.568046 
L 298.590994 105.927034 
L 299.260862 90.076756 
L 299.93073 113.58055 
L 300.265664 118.449828 
L 300.600598 100.643054 
L 300.935532 111.522471 
L 301.270466 117.419134 
L 301.6054 113.270932 
L 301.940334 97.005866 
L 302.275268 99.184217 
L 302.610202 87.1999 
L 302.945136 134.259233 
L 303.28007 88.591902 
L 304.284872 103.447083 
L 304.619806 111.183662 
L 305.289674 81.504596 
L 305.624608 108.03736 
L 305.959542 96.417014 
L 306.294476 123.387851 
L 306.62941 125.726069 
L 306.964344 119.626402 
L 307.299277 106.629348 
L 307.634211 82.623986 
L 307.969145 118.107968 
L 308.304079 94.469314 
L 308.973947 131.613314 
L 309.308881 118.173957 
L 309.643815 92.564852 
L 309.978749 116.256203 
L 310.313683 113.159495 
L 310.648617 97.846834 
L 310.983551 95.155782 
L 311.318485 132.312608 
L 311.653419 116.832626 
L 311.988353 110.320421 
L 312.323287 138.388943 
L 312.658221 111.765216 
L 312.993155 99.994783 
L 313.328089 101.452228 
L 313.663023 94.726061 
L 313.997957 77.802999 
L 314.332891 97.53944 
L 314.667825 95.762613 
L 315.002759 123.537891 
L 315.337693 103.675013 
L 315.672627 105.961796 
L 316.007561 92.97557 
L 316.342495 110.223403 
L 317.012363 121.611853 
L 317.347297 97.058634 
L 317.682231 115.03052 
L 318.017165 104.559582 
L 318.352099 84.769629 
L 318.687033 115.50652 
L 319.021967 92.176941 
L 319.356901 106.487344 
L 319.691835 98.110944 
L 320.026768 121.806014 
L 320.361702 108.42624 
L 320.696636 105.832457 
L 321.03157 98.606815 
L 321.366504 108.955094 
L 321.701438 94.454221 
L 322.036372 113.976089 
L 322.371306 109.154023 
L 322.70624 83.185898 
L 323.041174 94.69433 
L 323.376108 129.601955 
L 323.711042 97.503533 
L 324.045976 108.248092 
L 324.38091 98.454628 
L 324.715844 98.012258 
L 325.050778 124.148443 
L 325.385712 95.484518 
L 325.720646 104.129152 
L 326.05558 96.308154 
L 326.390514 109.165735 
L 326.725448 114.795551 
L 327.060382 109.376632 
L 327.395316 90.764471 
L 327.73025 94.867578 
L 328.065184 83.148279 
L 328.400118 115.163881 
L 328.735052 134.814659 
L 329.069986 120.027661 
L 329.40492 99.837772 
L 329.739854 100.965484 
L 330.074788 111.664503 
L 330.409722 104.75441 
L 330.744656 116.304364 
L 331.07959 98.879097 
L 331.414524 94.824585 
L 331.749458 113.598019 
L 332.084392 118.394387 
L 332.419326 111.749037 
L 332.754259 102.776755 
L 333.089193 125.231309 
L 333.424127 100.830292 
L 333.759061 102.204302 
L 334.093995 111.945417 
L 334.428929 114.570535 
L 334.763863 97.079353 
L 335.098797 107.897296 
L 335.433731 91.197904 
L 335.768665 94.894109 
L 336.103599 126.315668 
L 336.773467 96.156223 
L 337.108401 102.664175 
L 337.443335 104.271982 
L 337.778269 96.212672 
L 338.113203 122.035471 
L 338.783071 108.851369 
L 339.118005 105.587926 
L 339.452939 101.217513 
L 339.787873 88.038463 
L 340.122807 110.093353 
L 340.457741 105.595054 
L 340.792675 92.277274 
L 341.127609 105.478426 
L 341.462543 105.516263 
L 341.797477 109.037271 
L 342.132411 115.273993 
L 342.467345 94.821625 
L 342.802279 102.234295 
L 343.137213 91.108478 
L 343.472147 95.147829 
L 343.807081 120.411518 
L 344.142015 106.734439 
L 344.476949 113.467164 
L 344.811883 89.030451 
L 345.146817 117.254419 
L 345.48175 102.238868 
L 345.816684 116.322972 
L 346.151618 101.659248 
L 346.486552 103.279358 
L 346.821486 101.858464 
L 347.15642 135.872012 
L 347.491354 90.54439 
L 347.826288 84.449052 
L 348.161222 117.359745 
L 348.496156 106.948804 
L 348.83109 101.346351 
L 349.166024 120.753356 
L 349.500958 95.071654 
L 349.835892 127.969998 
L 350.170826 134.802305 
L 350.50576 112.171897 
L 350.840694 110.535144 
L 351.175628 104.225265 
L 351.510562 72.295476 
L 351.845496 77.86498 
L 352.18043 122.400783 
L 352.515364 108.865458 
L 352.850298 106.297114 
L 353.185232 108.923485 
L 353.520166 97.096987 
L 353.8551 125.362179 
L 354.190034 88.613755 
L 354.524968 100.285291 
L 354.859902 103.261084 
L 355.194836 100.298672 
L 355.52977 106.565766 
L 355.864704 88.313324 
L 356.534572 112.914939 
L 356.869506 99.636085 
L 357.20444 105.593351 
L 357.539374 101.611785 
L 357.874308 104.806621 
L 358.209241 94.426535 
L 358.544175 92.024924 
L 358.879109 110.031141 
L 359.214043 116.108115 
L 359.548977 109.359488 
L 359.883911 70.999581 
L 360.218845 115.869039 
L 360.553779 96.540682 
L 360.888713 108.411814 
L 361.223647 100.262569 
L 361.558581 83.83957 
L 361.893515 100.762331 
L 362.228449 97.057886 
L 362.563383 128.951571 
L 362.898317 119.117546 
L 363.233251 92.882649 
L 363.568185 115.644585 
L 363.903119 84.06435 
L 364.238053 103.946886 
L 364.572987 93.747247 
L 364.907921 108.634363 
L 365.242855 105.174242 
L 365.577789 103.074604 
L 365.912723 105.026271 
L 366.247657 117.218395 
L 366.917525 103.585777 
L 367.252459 115.085397 
L 367.587393 120.254314 
L 367.922327 112.590894 
L 368.257261 117.501192 
L 368.592195 97.791988 
L 368.927129 93.354167 
L 369.262063 106.845575 
L 369.596997 102.467282 
L 369.596997 102.467282 
" style="fill:none;stroke:#1f77b4;stroke-linecap:square;stroke-width:1.5;"/>
   </g>
   <g id="patch_8">
    <path d="M 221.55618 187.903055 
L 221.55618 24.823055 
" style="fill:none;stroke:#000000;stroke-linecap:square;stroke-linejoin:miter;stroke-width:0.8;"/>
   </g>
   <g id="patch_9">
    <path d="M 369.262063 187.903055 
L 369.262063 24.823055 
" style="fill:none;stroke:#000000;stroke-linecap:square;stroke-linejoin:miter;stroke-width:0.8;"/>
   </g>
   <g id="patch_10">
    <path d="M 221.55618 187.903055 
L 369.262063 187.903055 
" style="fill:none;stroke:#000000;stroke-linecap:square;stroke-linejoin:miter;stroke-width:0.8;"/>
   </g>
   <g id="patch_11">
    <path d="M 221.55618 24.823055 
L 369.262063 24.823055 
" style="fill:none;stroke:#000000;stroke-linecap:square;stroke-linejoin:miter;stroke-width:0.8;"/>
   </g>
   <g id="text_24">
    <!-- $b$ -->
    <g transform="translate(291.925154 18.823055)scale(0.168 -0.168)">
     <defs>
      <path d="M 1478 4255 
C 1485 4281 1498 4319 1498 4351 
C 1498 4416 1434 4416 1421 4416 
C 1414 4416 1184 4396 1069 4383 
C 960 4377 864 4364 749 4358 
C 595 4345 550 4339 550 4223 
C 550 4159 614 4159 678 4159 
C 1005 4159 1005 4103 1005 4040 
C 1005 3995 954 3812 928 3699 
L 774 3093 
C 710 2841 346 1392 320 1277 
C 288 1117 288 1008 288 925 
C 288 274 653 -64 1069 -64 
C 1811 -64 2579 887 2579 1813 
C 2579 2400 2246 2816 1766 2816 
C 1434 2816 1133 2541 1011 2413 
L 1478 4255 
z
M 1075 64 
C 870 64 646 217 646 715 
C 646 925 666 1047 781 1494 
C 800 1577 902 1985 928 2068 
C 941 2119 1318 2687 1754 2687 
C 2035 2687 2163 2407 2163 2075 
C 2163 1768 1984 1047 1824 715 
C 1664 370 1370 64 1075 64 
z
" id="CMMI12-62" transform="scale(0.015625)"/>
     </defs>
     <use transform="scale(0.996264)" xlink:href="#CMMI12-62"/>
    </g>
   </g>
  </g>
  <g id="axes_3">
   <g id="patch_12">
    <path d="M 398.803239 187.903055 
L 546.509121 187.903055 
L 546.509121 24.823055 
L 398.803239 24.823055 
z
" style="fill:#ffffff;"/>
   </g>
   <g id="matplotlib.axis_5">
    <g id="xtick_11">
     <g id="line2d_43">
      <path clip-path="url(#p409ad45982)" d="M 398.803239 187.903055 
L 398.803239 24.823055 
" style="fill:none;stroke:#b0b0b0;stroke-linecap:square;stroke-width:0.8;"/>
     </g>
     <g id="line2d_44">
      <g>
       <use style="stroke:#000000;stroke-width:0.8;" x="398.803239" xlink:href="#mf5a29feb34" y="187.903055"/>
      </g>
     </g>
     <g id="text_25">
      <!-- $\mathdefault{0.0000}$ -->
      <g transform="translate(382.544933 203.205235)scale(0.12 -0.12)">
       <use transform="scale(0.996264)" xlink:href="#CMR17-30"/>
       <use transform="translate(45.690477 0)scale(0.996264)" xlink:href="#CMMI12-3a"/>
       <use transform="translate(72.787654 0)scale(0.996264)" xlink:href="#CMR17-30"/>
       <use transform="translate(118.478131 0)scale(0.996264)" xlink:href="#CMR17-30"/>
       <use transform="translate(164.168608 0)scale(0.996264)" xlink:href="#CMR17-30"/>
       <use transform="translate(209.859086 0)scale(0.996264)" xlink:href="#CMR17-30"/>
      </g>
     </g>
    </g>
    <g id="xtick_12">
     <g id="line2d_45">
      <path clip-path="url(#p409ad45982)" d="M 435.72971 187.903055 
L 435.72971 24.823055 
" style="fill:none;stroke:#b0b0b0;stroke-linecap:square;stroke-width:0.8;"/>
     </g>
     <g id="line2d_46">
      <g>
       <use style="stroke:#000000;stroke-width:0.8;" x="435.72971" xlink:href="#mf5a29feb34" y="187.903055"/>
      </g>
     </g>
     <g id="text_26">
      <!-- $\mathdefault{0.0025}$ -->
      <g transform="translate(419.471403 203.205235)scale(0.12 -0.12)">
       <use transform="scale(0.996264)" xlink:href="#CMR17-30"/>
       <use transform="translate(45.690477 0)scale(0.996264)" xlink:href="#CMMI12-3a"/>
       <use transform="translate(72.787654 0)scale(0.996264)" xlink:href="#CMR17-30"/>
       <use transform="translate(118.478131 0)scale(0.996264)" xlink:href="#CMR17-30"/>
       <use transform="translate(164.168608 0)scale(0.996264)" xlink:href="#CMR17-32"/>
       <use transform="translate(209.859086 0)scale(0.996264)" xlink:href="#CMR17-35"/>
      </g>
     </g>
    </g>
    <g id="xtick_13">
     <g id="line2d_47">
      <path clip-path="url(#p409ad45982)" d="M 472.65618 187.903055 
L 472.65618 24.823055 
" style="fill:none;stroke:#b0b0b0;stroke-linecap:square;stroke-width:0.8;"/>
     </g>
     <g id="line2d_48">
      <g>
       <use style="stroke:#000000;stroke-width:0.8;" x="472.65618" xlink:href="#mf5a29feb34" y="187.903055"/>
      </g>
     </g>
     <g id="text_27">
      <!-- $\mathdefault{0.0050}$ -->
      <g transform="translate(456.397874 203.205235)scale(0.12 -0.12)">
       <use transform="scale(0.996264)" xlink:href="#CMR17-30"/>
       <use transform="translate(45.690477 0)scale(0.996264)" xlink:href="#CMMI12-3a"/>
       <use transform="translate(72.787654 0)scale(0.996264)" xlink:href="#CMR17-30"/>
       <use transform="translate(118.478131 0)scale(0.996264)" xlink:href="#CMR17-30"/>
       <use transform="translate(164.168608 0)scale(0.996264)" xlink:href="#CMR17-35"/>
       <use transform="translate(209.859086 0)scale(0.996264)" xlink:href="#CMR17-30"/>
      </g>
     </g>
    </g>
    <g id="xtick_14">
     <g id="line2d_49">
      <path clip-path="url(#p409ad45982)" d="M 509.582651 187.903055 
L 509.582651 24.823055 
" style="fill:none;stroke:#b0b0b0;stroke-linecap:square;stroke-width:0.8;"/>
     </g>
     <g id="line2d_50">
      <g>
       <use style="stroke:#000000;stroke-width:0.8;" x="509.582651" xlink:href="#mf5a29feb34" y="187.903055"/>
      </g>
     </g>
     <g id="text_28">
      <!-- $\mathdefault{0.0075}$ -->
      <g transform="translate(493.324345 203.205235)scale(0.12 -0.12)">
       <use transform="scale(0.996264)" xlink:href="#CMR17-30"/>
       <use transform="translate(45.690477 0)scale(0.996264)" xlink:href="#CMMI12-3a"/>
       <use transform="translate(72.787654 0)scale(0.996264)" xlink:href="#CMR17-30"/>
       <use transform="translate(118.478131 0)scale(0.996264)" xlink:href="#CMR17-30"/>
       <use transform="translate(164.168608 0)scale(0.996264)" xlink:href="#CMR17-37"/>
       <use transform="translate(209.859086 0)scale(0.996264)" xlink:href="#CMR17-35"/>
      </g>
     </g>
    </g>
    <g id="xtick_15">
     <g id="line2d_51">
      <path clip-path="url(#p409ad45982)" d="M 546.509121 187.903055 
L 546.509121 24.823055 
" style="fill:none;stroke:#b0b0b0;stroke-linecap:square;stroke-width:0.8;"/>
     </g>
     <g id="line2d_52">
      <g>
       <use style="stroke:#000000;stroke-width:0.8;" x="546.509121" xlink:href="#mf5a29feb34" y="187.903055"/>
      </g>
     </g>
     <g id="text_29">
      <!-- $\mathdefault{0.0100}$ -->
      <g transform="translate(530.250815 203.205235)scale(0.12 -0.12)">
       <use transform="scale(0.996264)" xlink:href="#CMR17-30"/>
       <use transform="translate(45.690477 0)scale(0.996264)" xlink:href="#CMMI12-3a"/>
       <use transform="translate(72.787654 0)scale(0.996264)" xlink:href="#CMR17-30"/>
       <use transform="translate(118.478131 0)scale(0.996264)" xlink:href="#CMR17-31"/>
       <use transform="translate(164.168608 0)scale(0.996264)" xlink:href="#CMR17-30"/>
       <use transform="translate(209.859086 0)scale(0.996264)" xlink:href="#CMR17-30"/>
      </g>
     </g>
    </g>
    <g id="text_30">
     <!-- $t$ (s) -->
     <g transform="translate(459.909668 219.990602)scale(0.14 -0.14)">
      <use transform="scale(0.996264)" xlink:href="#CMMI12-74"/>
      <use transform="translate(65.302297 0)scale(0.996264)" xlink:href="#CMR17-28"/>
      <use transform="translate(100.583064 0)scale(0.996264)" xlink:href="#CMR17-73"/>
      <use transform="translate(136.384402 0)scale(0.996264)" xlink:href="#CMR17-29"/>
     </g>
    </g>
   </g>
   <g id="matplotlib.axis_6">
    <g id="ytick_11">
     <g id="line2d_53">
      <path clip-path="url(#p409ad45982)" d="M 398.803239 164.605912 
L 546.509121 164.605912 
" style="fill:none;stroke:#b0b0b0;stroke-linecap:square;stroke-width:0.8;"/>
     </g>
     <g id="line2d_54">
      <g>
       <use style="stroke:#000000;stroke-width:0.8;" x="398.803239" xlink:href="#m4b8c2cf4f9" y="164.605912"/>
      </g>
     </g>
     <g id="text_31">
      <!-- $\mathdefault{−0.50}$ -->
      <g transform="translate(361.694118 168.757002)scale(0.12 -0.12)">
       <use transform="scale(0.996264)" xlink:href="#CMSY10-0"/>
       <use transform="translate(77.487468 0)scale(0.996264)" xlink:href="#CMR17-30"/>
       <use transform="translate(123.177945 0)scale(0.996264)" xlink:href="#CMMI12-3a"/>
       <use transform="translate(150.275122 0)scale(0.996264)" xlink:href="#CMR17-35"/>
       <use transform="translate(195.965599 0)scale(0.996264)" xlink:href="#CMR17-30"/>
      </g>
     </g>
    </g>
    <g id="ytick_12">
     <g id="line2d_55">
      <path clip-path="url(#p409ad45982)" d="M 398.803239 135.484483 
L 546.509121 135.484483 
" style="fill:none;stroke:#b0b0b0;stroke-linecap:square;stroke-width:0.8;"/>
     </g>
     <g id="line2d_56">
      <g>
       <use style="stroke:#000000;stroke-width:0.8;" x="398.803239" xlink:href="#m4b8c2cf4f9" y="135.484483"/>
      </g>
     </g>
     <g id="text_32">
      <!-- $\mathdefault{−0.25}$ -->
      <g transform="translate(361.694118 139.635573)scale(0.12 -0.12)">
       <use transform="scale(0.996264)" xlink:href="#CMSY10-0"/>
       <use transform="translate(77.487468 0)scale(0.996264)" xlink:href="#CMR17-30"/>
       <use transform="translate(123.177945 0)scale(0.996264)" xlink:href="#CMMI12-3a"/>
       <use transform="translate(150.275122 0)scale(0.996264)" xlink:href="#CMR17-32"/>
       <use transform="translate(195.965599 0)scale(0.996264)" xlink:href="#CMR17-35"/>
      </g>
     </g>
    </g>
    <g id="ytick_13">
     <g id="line2d_57">
      <path clip-path="url(#p409ad45982)" d="M 398.803239 106.363055 
L 546.509121 106.363055 
" style="fill:none;stroke:#b0b0b0;stroke-linecap:square;stroke-width:0.8;"/>
     </g>
     <g id="line2d_58">
      <g>
       <use style="stroke:#000000;stroke-width:0.8;" x="398.803239" xlink:href="#m4b8c2cf4f9" y="106.363055"/>
      </g>
     </g>
     <g id="text_33">
      <!-- $\mathdefault{0.00}$ -->
      <g transform="translate(370.992607 110.514145)scale(0.12 -0.12)">
       <use transform="scale(0.996264)" xlink:href="#CMR17-30"/>
       <use transform="translate(45.690477 0)scale(0.996264)" xlink:href="#CMMI12-3a"/>
       <use transform="translate(72.787654 0)scale(0.996264)" xlink:href="#CMR17-30"/>
       <use transform="translate(118.478131 0)scale(0.996264)" xlink:href="#CMR17-30"/>
      </g>
     </g>
    </g>
    <g id="ytick_14">
     <g id="line2d_59">
      <path clip-path="url(#p409ad45982)" d="M 398.803239 77.241626 
L 546.509121 77.241626 
" style="fill:none;stroke:#b0b0b0;stroke-linecap:square;stroke-width:0.8;"/>
     </g>
     <g id="line2d_60">
      <g>
       <use style="stroke:#000000;stroke-width:0.8;" x="398.803239" xlink:href="#m4b8c2cf4f9" y="77.241626"/>
      </g>
     </g>
     <g id="text_34">
      <!-- $\mathdefault{0.25}$ -->
      <g transform="translate(370.992607 81.392716)scale(0.12 -0.12)">
       <use transform="scale(0.996264)" xlink:href="#CMR17-30"/>
       <use transform="translate(45.690477 0)scale(0.996264)" xlink:href="#CMMI12-3a"/>
       <use transform="translate(72.787654 0)scale(0.996264)" xlink:href="#CMR17-32"/>
       <use transform="translate(118.478131 0)scale(0.996264)" xlink:href="#CMR17-35"/>
      </g>
     </g>
    </g>
    <g id="ytick_15">
     <g id="line2d_61">
      <path clip-path="url(#p409ad45982)" d="M 398.803239 48.120198 
L 546.509121 48.120198 
" style="fill:none;stroke:#b0b0b0;stroke-linecap:square;stroke-width:0.8;"/>
     </g>
     <g id="line2d_62">
      <g>
       <use style="stroke:#000000;stroke-width:0.8;" x="398.803239" xlink:href="#m4b8c2cf4f9" y="48.120198"/>
      </g>
     </g>
     <g id="text_35">
      <!-- $\mathdefault{0.50}$ -->
      <g transform="translate(370.992607 52.271288)scale(0.12 -0.12)">
       <use transform="scale(0.996264)" xlink:href="#CMR17-30"/>
       <use transform="translate(45.690477 0)scale(0.996264)" xlink:href="#CMMI12-3a"/>
       <use transform="translate(72.787654 0)scale(0.996264)" xlink:href="#CMR17-35"/>
       <use transform="translate(118.478131 0)scale(0.996264)" xlink:href="#CMR17-30"/>
      </g>
     </g>
    </g>
   </g>
   <g id="line2d_63">
    <path clip-path="url(#p409ad45982)" d="M 398.803239 89.711107 
L 399.138173 124.684331 
L 399.473107 100.172294 
L 399.808041 94.080785 
L 400.142975 77.225208 
L 400.477909 94.652443 
L 400.812843 79.594894 
L 401.147777 74.88921 
L 401.482711 107.750201 
L 402.152579 64.11777 
L 402.487513 52.811219 
L 402.822447 66.012749 
L 403.157381 72.571193 
L 403.492315 54.806551 
L 403.827249 61.269822 
L 404.497117 53.365695 
L 404.832051 74.768087 
L 405.166985 44.681049 
L 405.501919 61.475142 
L 405.836853 58.888933 
L 406.171787 66.827847 
L 406.50672 51.246042 
L 406.841654 51.246181 
L 407.176588 33.129901 
L 407.511522 58.926154 
L 407.846456 51.748409 
L 408.18139 37.388428 
L 408.516324 46.677175 
L 408.851258 65.442777 
L 409.186192 65.629696 
L 409.521126 46.524747 
L 409.85606 44.061094 
L 410.190994 31.501353 
L 410.525928 66.375266 
L 410.860862 45.269735 
L 411.195796 67.984746 
L 411.53073 78.004365 
L 411.865664 62.793706 
L 412.200598 60.19457 
L 412.535532 92.482607 
L 412.870466 86.350824 
L 413.2054 68.685674 
L 413.540334 78.838927 
L 413.875268 92.814948 
L 414.210202 74.637873 
L 414.545136 86.356305 
L 415.215004 117.44381 
L 415.549938 106.161123 
L 415.884872 109.785307 
L 416.219806 117.602934 
L 416.55474 103.25765 
L 416.889674 121.566083 
L 417.894476 142.441463 
L 418.22941 125.608293 
L 418.564344 145.282985 
L 418.899277 123.404643 
L 419.234211 146.857313 
L 419.569145 145.511746 
L 419.904079 140.497804 
L 420.239013 156.167719 
L 420.573947 147.485122 
L 420.908881 155.504869 
L 421.243815 169.23007 
L 421.578749 154.564916 
L 421.913683 162.959247 
L 422.248617 139.275624 
L 423.923287 179.309688 
L 424.258221 180.30786 
L 424.593155 136.790486 
L 424.928089 155.961354 
L 425.263023 163.376616 
L 425.597957 161.072068 
L 425.932891 175.216695 
L 426.267825 161.635367 
L 426.602759 171.162376 
L 426.937693 138.365568 
L 427.272627 146.211775 
L 427.607561 139.785591 
L 427.942495 139.813658 
L 428.612363 166.219965 
L 428.947297 135.956664 
L 429.617165 121.249002 
L 429.952099 133.268937 
L 430.287033 110.902189 
L 430.956901 125.626516 
L 431.291835 121.59497 
L 431.626768 108.008253 
L 431.961702 123.879624 
L 432.296636 113.686023 
L 432.63157 95.588887 
L 432.966504 120.02292 
L 433.301438 90.492408 
L 433.636372 102.400591 
L 433.971306 80.232154 
L 434.30624 90.007352 
L 434.976108 63.000432 
L 435.311042 82.38688 
L 435.645976 71.718139 
L 435.98091 76.651939 
L 436.315844 60.068171 
L 436.650778 67.498051 
L 436.985712 62.568487 
L 437.320646 52.361082 
L 437.65558 57.372542 
L 437.990514 53.661605 
L 438.660382 78.553702 
L 438.995316 25.558155 
L 439.33025 27.14702 
L 439.665184 48.748922 
L 440.000118 42.460519 
L 440.335052 71.081334 
L 440.669986 48.111383 
L 441.339854 81.734434 
L 441.674788 71.411986 
L 442.009722 41.727177 
L 442.344656 51.750676 
L 442.67959 51.755534 
L 443.014524 55.91196 
L 443.349458 46.018876 
L 443.684392 40.979703 
L 444.019326 79.688327 
L 444.354259 56.539888 
L 444.689193 62.159699 
L 445.024127 53.898116 
L 445.693995 70.385236 
L 446.028929 83.898765 
L 446.363863 74.685678 
L 446.698797 81.383745 
L 447.033731 78.853156 
L 447.368665 87.138794 
L 447.703599 88.203852 
L 448.038533 91.540485 
L 448.373467 82.458034 
L 448.708401 107.73952 
L 449.043335 110.139334 
L 449.378269 106.550615 
L 449.713203 119.943274 
L 450.048137 124.23512 
L 450.383071 106.476115 
L 450.718005 113.005752 
L 451.052939 127.301378 
L 451.387873 127.949045 
L 451.722807 126.169497 
L 452.057741 126.690096 
L 452.392675 148.184935 
L 452.727609 150.405092 
L 453.062543 154.235655 
L 453.397477 142.524537 
L 453.732411 152.971741 
L 454.067345 147.473724 
L 454.402279 135.743653 
L 454.737213 151.337195 
L 455.072147 154.160162 
L 455.407081 163.959914 
L 455.742015 160.342761 
L 456.076949 168.959855 
L 456.411883 160.7344 
L 456.746817 173.08196 
L 457.08175 169.767247 
L 457.751618 178.627289 
L 458.086552 172.282237 
L 458.421486 161.89843 
L 458.75642 160.919475 
L 459.091354 172.836839 
L 459.426288 146.876103 
L 459.761222 150.630795 
L 460.096156 139.034514 
L 460.43109 165.148311 
L 460.766024 169.721602 
L 461.100958 145.894373 
L 461.770826 156.10378 
L 462.10576 132.979111 
L 462.440694 156.047091 
L 462.775628 139.639229 
L 463.110562 131.108323 
L 463.445496 119.165365 
L 463.78043 157.071662 
L 464.115364 119.815104 
L 464.450298 141.237452 
L 464.785232 118.672303 
L 465.120166 117.954734 
L 465.4551 104.057409 
L 465.790034 110.278043 
L 466.124968 111.116337 
L 466.459902 96.343188 
L 466.794836 72.020411 
L 467.12977 96.370965 
L 467.799638 68.595196 
L 468.134572 76.639356 
L 468.469506 100.442636 
L 468.80444 70.880591 
L 469.139374 91.557456 
L 469.474308 84.36994 
L 469.809241 64.583336 
L 470.144175 57.459286 
L 470.479109 63.546423 
L 470.814043 53.273931 
L 471.148977 60.749355 
L 471.483911 51.541781 
L 471.818845 48.743628 
L 472.488713 59.973348 
L 472.823647 72.543321 
L 473.158581 41.37114 
L 473.493515 46.455109 
L 473.828449 49.378888 
L 474.163383 37.768585 
L 474.498317 61.597661 
L 474.833251 54.628676 
L 475.168185 58.095529 
L 475.503119 23.71252 
L 475.838053 49.974843 
L 476.507921 36.586277 
L 477.512723 70.210763 
L 477.847657 54.543447 
L 478.182591 67.743433 
L 478.517525 76.132658 
L 478.852459 74.639219 
L 479.187393 61.180687 
L 479.522327 66.306318 
L 479.857261 57.398447 
L 480.192195 107.651306 
L 480.527129 65.282035 
L 481.531931 90.527282 
L 481.866865 101.847151 
L 482.536732 79.430485 
L 482.871666 109.613825 
L 483.2066 101.637864 
L 483.541534 132.232573 
L 483.876468 138.159916 
L 484.211402 135.600526 
L 484.546336 126.08099 
L 484.88127 105.476729 
L 485.216204 144.27203 
L 485.551138 123.841905 
L 486.221006 167.044626 
L 486.55594 156.431658 
L 486.890874 133.498639 
L 487.225808 159.705263 
L 487.560742 158.953129 
L 487.895676 145.805134 
L 488.23061 145.090336 
L 488.565544 184.02724 
L 488.900478 170.124165 
L 489.235412 164.979503 
L 489.570346 194.200831 
L 489.90528 168.510642 
L 490.240214 157.450814 
L 490.575148 159.393137 
L 490.910082 152.924219 
L 491.245016 136.029763 
L 491.57995 155.566057 
L 491.914884 153.361115 
L 492.249818 180.481993 
L 492.584752 159.741 
L 492.919686 160.929403 
L 493.25462 146.628847 
L 493.589554 162.351565 
L 494.259422 170.082196 
L 494.594356 143.410645 
L 494.92929 159.082097 
L 495.264223 146.137661 
L 495.599157 123.710864 
L 495.934091 151.657922 
L 496.269025 125.396484 
L 496.603959 136.64452 
L 496.938893 125.087275 
L 497.273827 145.495518 
L 497.608761 128.735849 
L 497.943695 122.682382 
L 498.278629 111.930858 
L 498.613563 118.700909 
L 498.948497 100.583519 
L 499.283431 116.464791 
L 499.618365 107.992352 
L 499.953299 78.378418 
L 500.288233 86.259927 
L 500.623167 117.573765 
L 500.958101 81.928811 
L 501.293035 89.188027 
L 501.627969 75.984099 
L 501.962903 72.219545 
L 502.297837 95.134878 
L 502.632771 63.364084 
L 502.967705 69.028041 
L 503.302639 58.364267 
L 503.637573 68.52814 
L 503.972507 71.6239 
L 504.307441 63.840533 
L 504.642375 43.042819 
L 504.977309 45.147857 
L 505.312243 31.625821 
L 505.647177 62.0411 
L 505.982111 80.300258 
L 506.651979 43.187264 
L 506.986913 43.57888 
L 507.321847 53.767257 
L 507.65678 46.573982 
L 507.991714 58.069325 
L 508.326648 40.818233 
L 508.661582 37.165998 
L 508.996516 56.568231 
L 509.33145 62.217449 
L 509.666384 56.64565 
L 510.001318 48.963403 
L 510.336252 72.919405 
L 510.671186 50.225354 
L 511.00612 53.505139 
L 511.341054 65.343353 
L 511.675988 70.248654 
L 512.010922 55.211781 
L 512.345856 68.648516 
L 512.68079 54.722113 
L 513.015724 61.334607 
L 513.350658 95.8043 
L 514.020526 72.088284 
L 514.35546 81.966217 
L 514.690394 87.02532 
L 515.025328 82.485063 
L 515.360262 111.880847 
L 515.695196 107.798053 
L 516.03013 105.948202 
L 516.365064 106.334744 
L 516.699998 105.611381 
L 517.034932 96.06212 
L 517.369866 121.715276 
L 517.7048 120.769584 
L 518.039734 110.944795 
L 518.374668 127.5656 
L 518.709602 130.936317 
L 519.044536 137.690338 
L 519.37947 147.047505 
L 519.714404 129.590753 
L 520.049338 139.862443 
L 520.384271 131.447818 
L 520.719205 138.03988 
L 521.054139 165.687772 
L 521.389073 154.21702 
L 521.724007 162.969529 
L 522.058941 140.358122 
L 522.393875 170.205745 
L 522.728809 156.605821 
L 523.063743 171.891963 
L 523.398677 158.211964 
L 523.733611 160.593623 
L 524.068545 159.709108 
L 524.403479 194.031759 
L 524.738413 148.78475 
L 525.073347 142.541217 
L 525.408281 175.07549 
L 525.743215 164.061384 
L 526.078149 157.631389 
L 526.413083 175.989725 
L 526.748017 149.04235 
L 527.082951 180.462988 
L 527.417885 185.611361 
L 527.752819 161.097407 
L 528.087753 157.384895 
L 528.422687 148.815201 
L 528.757621 114.450417 
L 529.092555 117.419313 
L 529.427489 159.199112 
L 529.762423 142.763216 
L 530.097357 137.161126 
L 530.432291 136.632497 
L 530.767225 121.54214 
L 531.102159 146.447435 
L 531.437093 106.256278 
L 531.772027 114.415768 
L 532.106961 113.824002 
L 532.441895 107.252532 
L 532.776829 109.88325 
L 533.111762 87.981398 
L 533.446696 98.944256 
L 533.78163 105.302437 
L 534.116564 88.42102 
L 534.451498 90.819783 
L 534.786432 83.337755 
L 535.121366 83.103922 
L 535.4563 69.380429 
L 535.791234 63.73381 
L 536.126168 78.606164 
L 536.461102 81.672734 
L 536.796036 72.048989 
L 537.13097 30.960544 
L 537.465904 73.258764 
L 537.800838 51.526571 
L 538.135772 61.170713 
L 538.470706 50.980073 
L 538.80564 32.709292 
L 539.140574 47.985147 
L 539.475508 42.841139 
L 539.810442 73.508261 
L 540.145376 62.665492 
L 540.48031 35.643632 
L 540.815244 57.843479 
L 541.150178 25.928236 
L 541.485112 45.704162 
L 541.820046 35.626729 
L 542.15498 50.864388 
L 542.489914 47.981769 
L 542.824848 46.684323 
L 543.159782 49.659722 
L 543.494716 63.093094 
L 543.82965 56.776783 
L 544.164584 52.575182 
L 544.499518 65.936023 
L 544.834452 73.159253 
L 545.169386 67.735167 
L 545.50432 75.061021 
L 545.839253 57.934108 
L 546.174187 56.235167 
L 546.509121 72.611282 
L 546.844055 71.252192 
L 546.844055 71.252192 
" style="fill:none;stroke:#1f77b4;stroke-linecap:square;stroke-width:1.5;"/>
   </g>
   <g id="patch_13">
    <path d="M 398.803239 187.903055 
L 398.803239 24.823055 
" style="fill:none;stroke:#000000;stroke-linecap:square;stroke-linejoin:miter;stroke-width:0.8;"/>
   </g>
   <g id="patch_14">
    <path d="M 546.509121 187.903055 
L 546.509121 24.823055 
" style="fill:none;stroke:#000000;stroke-linecap:square;stroke-linejoin:miter;stroke-width:0.8;"/>
   </g>
   <g id="patch_15">
    <path d="M 398.803239 187.903055 
L 546.509121 187.903055 
" style="fill:none;stroke:#000000;stroke-linecap:square;stroke-linejoin:miter;stroke-width:0.8;"/>
   </g>
   <g id="patch_16">
    <path d="M 398.803239 24.823055 
L 546.509121 24.823055 
" style="fill:none;stroke:#000000;stroke-linecap:square;stroke-linejoin:miter;stroke-width:0.8;"/>
   </g>
   <g id="text_36">
    <!-- $y$ -->
    <g transform="translate(468.660795 18.823055)scale(0.168 -0.168)">
     <defs>
      <path d="M 1683 -673 
C 1510 -921 1261 -1152 947 -1152 
C 870 -1152 563 -1139 467 -826 
C 486 -833 518 -833 531 -833 
C 723 -833 851 -666 851 -519 
C 851 -372 730 -320 634 -320 
C 531 -320 307 -397 307 -711 
C 307 -1050 582 -1280 947 -1280 
C 1587 -1280 2234 -673 2413 -7 
L 3040 2483 
C 3046 2515 3059 2553 3059 2591 
C 3059 2687 2982 2752 2886 2752 
C 2829 2752 2694 2726 2643 2534 
L 2170 657 
C 2138 542 2138 530 2086 459 
C 1958 281 1747 64 1440 64 
C 1082 64 1050 415 1050 587 
C 1050 951 1222 1443 1395 1902 
C 1466 2087 1504 2177 1504 2305 
C 1504 2573 1312 2816 998 2816 
C 410 2816 173 1890 173 1838 
C 173 1813 198 1781 243 1781 
C 301 1781 307 1807 333 1896 
C 486 2432 730 2687 979 2687 
C 1037 2687 1146 2687 1146 2477 
C 1146 2311 1075 2126 979 1883 
C 666 1047 666 836 666 683 
C 666 76 1101 -64 1421 -64 
C 1606 -64 1837 -7 2061 230 
L 2067 223 
C 1971 -141 1907 -359 1683 -673 
z
" id="CMMI12-79" transform="scale(0.015625)"/>
     </defs>
     <use transform="scale(0.996264)" xlink:href="#CMMI12-79"/>
    </g>
   </g>
  </g>
 </g>
 <defs>
  <clipPath id="pa706b7a92f">
   <rect height="163.08" width="147.705882" x="44.309121" y="24.823055"/>
  </clipPath>
  <clipPath id="p86cae3c5ec">
   <rect height="163.08" width="147.705882" x="221.55618" y="24.823055"/>
  </clipPath>
  <clipPath id="p409ad45982">
   <rect height="163.08" width="147.705882" x="398.803239" y="24.823055"/>
  </clipPath>
 </defs>
</svg>
