<?xml version="1.0" encoding="utf-8" standalone="no"?>
<!DOCTYPE svg PUBLIC "-//W3C//DTD SVG 1.1//EN"
  "http://www.w3.org/Graphics/SVG/1.1/DTD/svg11.dtd">
<svg height="430.494472pt" version="1.1" viewBox="0 0 723.905338 430.494472" width="723.905338pt" xmlns="http://www.w3.org/2000/svg" xmlns:xlink="http://www.w3.org/1999/xlink">
 <metadata>
  <rdf:RDF xmlns:cc="http://creativecommons.org/ns#" xmlns:dc="http://purl.org/dc/elements/1.1/" xmlns:rdf="http://www.w3.org/1999/02/22-rdf-syntax-ns#">
   <cc:Work>
    <dc:type rdf:resource="http://purl.org/dc/dcmitype/StillImage"/>
    <dc:date>2023-03-10T18:22:25.786596</dc:date>
    <dc:format>image/svg+xml</dc:format>
    <dc:creator>
     <cc:Agent>
      <dc:title>Matplotlib v3.4.3, https://matplotlib.org/</dc:title>
     </cc:Agent>
    </dc:creator>
   </cc:Work>
  </rdf:RDF>
 </metadata>
 <defs>
  <style type="text/css">*{stroke-linecap:butt;stroke-linejoin:round;}</style>
 </defs>
 <g id="figure_1">
  <g id="patch_1">
   <path d="M 0 430.494472 
L 723.905338 430.494472 
L 723.905338 0 
L 0 0 
z
" style="fill:none;"/>
  </g>
  <g id="axes_1">
   <g id="patch_2">
    <path d="M 47.105338 387.72 
L 716.705338 387.72 
L 716.705338 7.2 
L 47.105338 7.2 
z
" style="fill:#ffffff;"/>
   </g>
   <g id="matplotlib.axis_1">
    <g id="xtick_1">
     <g id="line2d_1">
      <path clip-path="url(#p69639e143e)" d="M 142.694179 387.72 
L 142.694179 7.2 
" style="fill:none;stroke:#b0b0b0;stroke-linecap:square;stroke-width:0.8;"/>
     </g>
     <g id="line2d_2">
      <defs>
       <path d="M 0 0 
L 0 3.5 
" id="m182a03a08a" style="stroke:#000000;stroke-width:0.8;"/>
      </defs>
      <g>
       <use style="stroke:#000000;stroke-width:0.8;" x="142.694179" xlink:href="#m182a03a08a" y="387.72"/>
      </g>
     </g>
     <g id="text_1">
      <!-- $\mathdefault{10^{-1}}$ -->
      <g transform="translate(131.430844 403.02218)scale(0.12 -0.12)">
       <defs>
        <path d="M 1702 4083 
C 1702 4217 1696 4224 1606 4224 
C 1357 3927 979 3833 621 3820 
C 602 3820 570 3820 563 3808 
C 557 3795 557 3782 557 3648 
C 755 3648 1088 3686 1344 3839 
L 1344 467 
C 1344 243 1331 166 781 166 
L 589 166 
L 589 0 
C 896 6 1216 12 1523 12 
C 1830 12 2150 6 2458 0 
L 2458 166 
L 2266 166 
C 1715 166 1702 236 1702 467 
L 1702 4083 
z
" id="CMR17-31" transform="scale(0.015625)"/>
        <path d="M 2688 2038 
C 2688 2430 2682 3099 2413 3613 
C 2176 4063 1798 4224 1466 4224 
C 1158 4224 768 4082 525 3620 
C 269 3137 243 2539 243 2038 
C 243 1671 250 1112 448 623 
C 723 -39 1216 -128 1466 -128 
C 1760 -128 2208 -7 2470 604 
C 2662 1048 2688 1568 2688 2038 
z
M 1466 -26 
C 1056 -26 813 328 723 816 
C 653 1196 653 1749 653 2109 
C 653 2604 653 3015 736 3407 
C 858 3954 1216 4121 1466 4121 
C 1728 4121 2067 3947 2189 3420 
C 2272 3054 2278 2623 2278 2109 
C 2278 1691 2278 1176 2202 797 
C 2067 96 1690 -26 1466 -26 
z
" id="CMR17-30" transform="scale(0.015625)"/>
        <path d="M 4218 1472 
C 4326 1472 4442 1472 4442 1600 
C 4442 1728 4326 1728 4218 1728 
L 755 1728 
C 646 1728 531 1728 531 1600 
C 531 1472 646 1472 755 1472 
L 4218 1472 
z
" id="CMSY10-0" transform="scale(0.015625)"/>
       </defs>
       <use transform="scale(0.996264)" xlink:href="#CMR17-31"/>
       <use transform="translate(45.690477 0)scale(0.996264)" xlink:href="#CMR17-30"/>
       <use transform="translate(91.380954 36.153639)scale(0.697382)" xlink:href="#CMSY10-0"/>
       <use transform="translate(145.621947 36.153639)scale(0.697382)" xlink:href="#CMR17-31"/>
      </g>
     </g>
    </g>
    <g id="xtick_2">
     <g id="line2d_3">
      <path clip-path="url(#p69639e143e)" d="M 361.194769 387.72 
L 361.194769 7.2 
" style="fill:none;stroke:#b0b0b0;stroke-linecap:square;stroke-width:0.8;"/>
     </g>
     <g id="line2d_4">
      <g>
       <use style="stroke:#000000;stroke-width:0.8;" x="361.194769" xlink:href="#m182a03a08a" y="387.72"/>
      </g>
     </g>
     <g id="text_2">
      <!-- $\mathdefault{10^{0}}$ -->
      <g transform="translate(353.224687 403.02218)scale(0.12 -0.12)">
       <use transform="scale(0.996264)" xlink:href="#CMR17-31"/>
       <use transform="translate(45.690477 0)scale(0.996264)" xlink:href="#CMR17-30"/>
       <use transform="translate(91.380954 36.153639)scale(0.697382)" xlink:href="#CMR17-30"/>
      </g>
     </g>
    </g>
    <g id="xtick_3">
     <g id="line2d_5">
      <path clip-path="url(#p69639e143e)" d="M 579.695359 387.72 
L 579.695359 7.2 
" style="fill:none;stroke:#b0b0b0;stroke-linecap:square;stroke-width:0.8;"/>
     </g>
     <g id="line2d_6">
      <g>
       <use style="stroke:#000000;stroke-width:0.8;" x="579.695359" xlink:href="#m182a03a08a" y="387.72"/>
      </g>
     </g>
     <g id="text_3">
      <!-- $\mathdefault{10^{1}}$ -->
      <g transform="translate(571.725278 403.02218)scale(0.12 -0.12)">
       <use transform="scale(0.996264)" xlink:href="#CMR17-31"/>
       <use transform="translate(45.690477 0)scale(0.996264)" xlink:href="#CMR17-30"/>
       <use transform="translate(91.380954 36.153639)scale(0.697382)" xlink:href="#CMR17-31"/>
      </g>
     </g>
    </g>
    <g id="xtick_4">
     <g id="line2d_7">
      <path clip-path="url(#p69639e143e)" d="M 55.744052 387.72 
L 55.744052 7.2 
" style="fill:none;stroke:#b0b0b0;stroke-linecap:square;stroke-width:0.8;"/>
     </g>
     <g id="line2d_8">
      <defs>
       <path d="M 0 0 
L 0 2 
" id="maba57eb91c" style="stroke:#000000;stroke-width:0.6;"/>
      </defs>
      <g>
       <use style="stroke:#000000;stroke-width:0.6;" x="55.744052" xlink:href="#maba57eb91c" y="387.72"/>
      </g>
     </g>
    </g>
    <g id="xtick_5">
     <g id="line2d_9">
      <path clip-path="url(#p69639e143e)" d="M 76.918947 387.72 
L 76.918947 7.2 
" style="fill:none;stroke:#b0b0b0;stroke-linecap:square;stroke-width:0.8;"/>
     </g>
     <g id="line2d_10">
      <g>
       <use style="stroke:#000000;stroke-width:0.6;" x="76.918947" xlink:href="#maba57eb91c" y="387.72"/>
      </g>
     </g>
    </g>
    <g id="xtick_6">
     <g id="line2d_11">
      <path clip-path="url(#p69639e143e)" d="M 94.220096 387.72 
L 94.220096 7.2 
" style="fill:none;stroke:#b0b0b0;stroke-linecap:square;stroke-width:0.8;"/>
     </g>
     <g id="line2d_12">
      <g>
       <use style="stroke:#000000;stroke-width:0.6;" x="94.220096" xlink:href="#maba57eb91c" y="387.72"/>
      </g>
     </g>
    </g>
    <g id="xtick_7">
     <g id="line2d_13">
      <path clip-path="url(#p69639e143e)" d="M 108.848009 387.72 
L 108.848009 7.2 
" style="fill:none;stroke:#b0b0b0;stroke-linecap:square;stroke-width:0.8;"/>
     </g>
     <g id="line2d_14">
      <g>
       <use style="stroke:#000000;stroke-width:0.6;" x="108.848009" xlink:href="#maba57eb91c" y="387.72"/>
      </g>
     </g>
    </g>
    <g id="xtick_8">
     <g id="line2d_15">
      <path clip-path="url(#p69639e143e)" d="M 121.519284 387.72 
L 121.519284 7.2 
" style="fill:none;stroke:#b0b0b0;stroke-linecap:square;stroke-width:0.8;"/>
     </g>
     <g id="line2d_16">
      <g>
       <use style="stroke:#000000;stroke-width:0.6;" x="121.519284" xlink:href="#maba57eb91c" y="387.72"/>
      </g>
     </g>
    </g>
    <g id="xtick_9">
     <g id="line2d_17">
      <path clip-path="url(#p69639e143e)" d="M 132.69614 387.72 
L 132.69614 7.2 
" style="fill:none;stroke:#b0b0b0;stroke-linecap:square;stroke-width:0.8;"/>
     </g>
     <g id="line2d_18">
      <g>
       <use style="stroke:#000000;stroke-width:0.6;" x="132.69614" xlink:href="#maba57eb91c" y="387.72"/>
      </g>
     </g>
    </g>
    <g id="xtick_10">
     <g id="line2d_19">
      <path clip-path="url(#p69639e143e)" d="M 208.469411 387.72 
L 208.469411 7.2 
" style="fill:none;stroke:#b0b0b0;stroke-linecap:square;stroke-width:0.8;"/>
     </g>
     <g id="line2d_20">
      <g>
       <use style="stroke:#000000;stroke-width:0.6;" x="208.469411" xlink:href="#maba57eb91c" y="387.72"/>
      </g>
     </g>
    </g>
    <g id="xtick_11">
     <g id="line2d_21">
      <path clip-path="url(#p69639e143e)" d="M 246.945455 387.72 
L 246.945455 7.2 
" style="fill:none;stroke:#b0b0b0;stroke-linecap:square;stroke-width:0.8;"/>
     </g>
     <g id="line2d_22">
      <g>
       <use style="stroke:#000000;stroke-width:0.6;" x="246.945455" xlink:href="#maba57eb91c" y="387.72"/>
      </g>
     </g>
    </g>
    <g id="xtick_12">
     <g id="line2d_23">
      <path clip-path="url(#p69639e143e)" d="M 274.244642 387.72 
L 274.244642 7.2 
" style="fill:none;stroke:#b0b0b0;stroke-linecap:square;stroke-width:0.8;"/>
     </g>
     <g id="line2d_24">
      <g>
       <use style="stroke:#000000;stroke-width:0.6;" x="274.244642" xlink:href="#maba57eb91c" y="387.72"/>
      </g>
     </g>
    </g>
    <g id="xtick_13">
     <g id="line2d_25">
      <path clip-path="url(#p69639e143e)" d="M 295.419537 387.72 
L 295.419537 7.2 
" style="fill:none;stroke:#b0b0b0;stroke-linecap:square;stroke-width:0.8;"/>
     </g>
     <g id="line2d_26">
      <g>
       <use style="stroke:#000000;stroke-width:0.6;" x="295.419537" xlink:href="#maba57eb91c" y="387.72"/>
      </g>
     </g>
    </g>
    <g id="xtick_14">
     <g id="line2d_27">
      <path clip-path="url(#p69639e143e)" d="M 312.720686 387.72 
L 312.720686 7.2 
" style="fill:none;stroke:#b0b0b0;stroke-linecap:square;stroke-width:0.8;"/>
     </g>
     <g id="line2d_28">
      <g>
       <use style="stroke:#000000;stroke-width:0.6;" x="312.720686" xlink:href="#maba57eb91c" y="387.72"/>
      </g>
     </g>
    </g>
    <g id="xtick_15">
     <g id="line2d_29">
      <path clip-path="url(#p69639e143e)" d="M 327.348599 387.72 
L 327.348599 7.2 
" style="fill:none;stroke:#b0b0b0;stroke-linecap:square;stroke-width:0.8;"/>
     </g>
     <g id="line2d_30">
      <g>
       <use style="stroke:#000000;stroke-width:0.6;" x="327.348599" xlink:href="#maba57eb91c" y="387.72"/>
      </g>
     </g>
    </g>
    <g id="xtick_16">
     <g id="line2d_31">
      <path clip-path="url(#p69639e143e)" d="M 340.019874 387.72 
L 340.019874 7.2 
" style="fill:none;stroke:#b0b0b0;stroke-linecap:square;stroke-width:0.8;"/>
     </g>
     <g id="line2d_32">
      <g>
       <use style="stroke:#000000;stroke-width:0.6;" x="340.019874" xlink:href="#maba57eb91c" y="387.72"/>
      </g>
     </g>
    </g>
    <g id="xtick_17">
     <g id="line2d_33">
      <path clip-path="url(#p69639e143e)" d="M 351.19673 387.72 
L 351.19673 7.2 
" style="fill:none;stroke:#b0b0b0;stroke-linecap:square;stroke-width:0.8;"/>
     </g>
     <g id="line2d_34">
      <g>
       <use style="stroke:#000000;stroke-width:0.6;" x="351.19673" xlink:href="#maba57eb91c" y="387.72"/>
      </g>
     </g>
    </g>
    <g id="xtick_18">
     <g id="line2d_35">
      <path clip-path="url(#p69639e143e)" d="M 426.970001 387.72 
L 426.970001 7.2 
" style="fill:none;stroke:#b0b0b0;stroke-linecap:square;stroke-width:0.8;"/>
     </g>
     <g id="line2d_36">
      <g>
       <use style="stroke:#000000;stroke-width:0.6;" x="426.970001" xlink:href="#maba57eb91c" y="387.72"/>
      </g>
     </g>
    </g>
    <g id="xtick_19">
     <g id="line2d_37">
      <path clip-path="url(#p69639e143e)" d="M 465.446045 387.72 
L 465.446045 7.2 
" style="fill:none;stroke:#b0b0b0;stroke-linecap:square;stroke-width:0.8;"/>
     </g>
     <g id="line2d_38">
      <g>
       <use style="stroke:#000000;stroke-width:0.6;" x="465.446045" xlink:href="#maba57eb91c" y="387.72"/>
      </g>
     </g>
    </g>
    <g id="xtick_20">
     <g id="line2d_39">
      <path clip-path="url(#p69639e143e)" d="M 492.745233 387.72 
L 492.745233 7.2 
" style="fill:none;stroke:#b0b0b0;stroke-linecap:square;stroke-width:0.8;"/>
     </g>
     <g id="line2d_40">
      <g>
       <use style="stroke:#000000;stroke-width:0.6;" x="492.745233" xlink:href="#maba57eb91c" y="387.72"/>
      </g>
     </g>
    </g>
    <g id="xtick_21">
     <g id="line2d_41">
      <path clip-path="url(#p69639e143e)" d="M 513.920128 387.72 
L 513.920128 7.2 
" style="fill:none;stroke:#b0b0b0;stroke-linecap:square;stroke-width:0.8;"/>
     </g>
     <g id="line2d_42">
      <g>
       <use style="stroke:#000000;stroke-width:0.6;" x="513.920128" xlink:href="#maba57eb91c" y="387.72"/>
      </g>
     </g>
    </g>
    <g id="xtick_22">
     <g id="line2d_43">
      <path clip-path="url(#p69639e143e)" d="M 531.221277 387.72 
L 531.221277 7.2 
" style="fill:none;stroke:#b0b0b0;stroke-linecap:square;stroke-width:0.8;"/>
     </g>
     <g id="line2d_44">
      <g>
       <use style="stroke:#000000;stroke-width:0.6;" x="531.221277" xlink:href="#maba57eb91c" y="387.72"/>
      </g>
     </g>
    </g>
    <g id="xtick_23">
     <g id="line2d_45">
      <path clip-path="url(#p69639e143e)" d="M 545.84919 387.72 
L 545.84919 7.2 
" style="fill:none;stroke:#b0b0b0;stroke-linecap:square;stroke-width:0.8;"/>
     </g>
     <g id="line2d_46">
      <g>
       <use style="stroke:#000000;stroke-width:0.6;" x="545.84919" xlink:href="#maba57eb91c" y="387.72"/>
      </g>
     </g>
    </g>
    <g id="xtick_24">
     <g id="line2d_47">
      <path clip-path="url(#p69639e143e)" d="M 558.520464 387.72 
L 558.520464 7.2 
" style="fill:none;stroke:#b0b0b0;stroke-linecap:square;stroke-width:0.8;"/>
     </g>
     <g id="line2d_48">
      <g>
       <use style="stroke:#000000;stroke-width:0.6;" x="558.520464" xlink:href="#maba57eb91c" y="387.72"/>
      </g>
     </g>
    </g>
    <g id="xtick_25">
     <g id="line2d_49">
      <path clip-path="url(#p69639e143e)" d="M 569.697321 387.72 
L 569.697321 7.2 
" style="fill:none;stroke:#b0b0b0;stroke-linecap:square;stroke-width:0.8;"/>
     </g>
     <g id="line2d_50">
      <g>
       <use style="stroke:#000000;stroke-width:0.6;" x="569.697321" xlink:href="#maba57eb91c" y="387.72"/>
      </g>
     </g>
    </g>
    <g id="xtick_26">
     <g id="line2d_51">
      <path clip-path="url(#p69639e143e)" d="M 645.470591 387.72 
L 645.470591 7.2 
" style="fill:none;stroke:#b0b0b0;stroke-linecap:square;stroke-width:0.8;"/>
     </g>
     <g id="line2d_52">
      <g>
       <use style="stroke:#000000;stroke-width:0.6;" x="645.470591" xlink:href="#maba57eb91c" y="387.72"/>
      </g>
     </g>
    </g>
    <g id="xtick_27">
     <g id="line2d_53">
      <path clip-path="url(#p69639e143e)" d="M 683.946635 387.72 
L 683.946635 7.2 
" style="fill:none;stroke:#b0b0b0;stroke-linecap:square;stroke-width:0.8;"/>
     </g>
     <g id="line2d_54">
      <g>
       <use style="stroke:#000000;stroke-width:0.6;" x="683.946635" xlink:href="#maba57eb91c" y="387.72"/>
      </g>
     </g>
    </g>
    <g id="xtick_28">
     <g id="line2d_55">
      <path clip-path="url(#p69639e143e)" d="M 711.245823 387.72 
L 711.245823 7.2 
" style="fill:none;stroke:#b0b0b0;stroke-linecap:square;stroke-width:0.8;"/>
     </g>
     <g id="line2d_56">
      <g>
       <use style="stroke:#000000;stroke-width:0.6;" x="711.245823" xlink:href="#maba57eb91c" y="387.72"/>
      </g>
     </g>
    </g>
    <g id="text_4">
     <!-- Fréquence (Hz) -->
     <g transform="translate(336.290862 419.807548)scale(0.14 -0.14)">
      <defs>
       <path d="M 3482 4339 
L 326 4339 
L 326 4172 
C 768 4172 838 4172 838 3883 
L 838 450 
C 838 166 768 166 326 166 
L 326 0 
C 512 12 870 12 1069 12 
C 1331 12 1638 12 1901 0 
L 1901 166 
L 1760 166 
C 1274 166 1261 229 1261 456 
L 1261 2073 
L 1837 2073 
C 2432 2073 2490 1865 2490 1334 
L 2605 1334 
L 2605 2991 
L 2490 2991 
C 2490 2451 2432 2240 1837 2240 
L 1261 2240 
L 1261 3922 
C 1261 4140 1274 4172 1530 4172 
L 2355 4172 
C 3322 4172 3430 3774 3520 2920 
L 3635 2920 
L 3482 4339 
z
" id="CMR17-46" transform="scale(0.015625)"/>
       <path d="M 960 1517 
C 960 2134 1222 2713 1702 2713 
C 1747 2713 1792 2707 1837 2687 
C 1837 2687 1696 2642 1696 2475 
C 1696 2321 1818 2257 1914 2257 
C 1990 2257 2131 2302 2131 2482 
C 2131 2687 1926 2816 1709 2816 
C 1222 2816 1011 2340 947 2115 
L 941 2115 
L 941 2816 
L 198 2745 
L 198 2578 
C 576 2578 634 2540 634 2231 
L 634 443 
C 634 198 608 166 198 166 
L 198 0 
C 352 12 646 12 813 12 
C 998 12 1325 12 1498 0 
L 1498 166 
C 1037 166 960 166 960 455 
L 960 1517 
z
" id="CMR17-72" transform="scale(0.015625)"/>
       <path d="M 2221 4157 
C 2298 4226 2317 4239 2317 4308 
C 2317 4403 2234 4480 2144 4480 
C 2067 4480 2042 4447 1978 4371 
L 1254 3468 
C 1210 3411 1210 3404 1210 3398 
C 1210 3391 1267 3334 1280 3321 
L 2221 4157 
z
" id="CMR17-13" transform="scale(0.015625)"/>
       <path d="M 2438 1503 
C 2464 1529 2464 1542 2464 1606 
C 2464 2251 2118 2816 1389 2816 
C 710 2816 173 2175 173 1394 
C 173 554 781 -64 1459 -64 
C 2176 -64 2458 619 2458 755 
C 2458 800 2419 800 2406 800 
C 2362 800 2355 787 2330 709 
C 2189 270 1837 51 1504 51 
C 1229 51 954 206 781 490 
C 582 819 582 1200 582 1503 
L 2438 1503 
z
M 589 1600 
C 634 2511 1126 2713 1382 2713 
C 1818 2713 2112 2308 2118 1600 
L 589 1600 
z
" id="CMR17-65" transform="scale(0.015625)"/>
       <path d="M 2630 2816 
L 2528 2816 
L 2336 2177 
C 2189 2519 1920 2816 1491 2816 
C 838 2816 211 2228 211 1376 
C 211 529 800 -64 1440 -64 
C 1933 -64 2208 316 2291 458 
L 2291 -834 
C 2291 -1081 2266 -1114 1856 -1114 
L 1856 -1280 
C 2010 -1268 2291 -1268 2458 -1268 
C 2624 -1268 2912 -1268 3066 -1280 
L 3066 -1114 
C 2656 -1114 2630 -1088 2630 -834 
L 2630 2816 
z
M 2304 871 
C 2304 594 2074 335 2054 316 
C 1856 90 1626 38 1472 38 
C 992 38 621 652 621 1369 
C 621 2125 1043 2700 1536 2700 
C 2048 2700 2304 2112 2304 1776 
L 2304 871 
z
" id="CMR17-71" transform="scale(0.015625)"/>
       <path d="M 1882 2745 
L 1882 2579 
C 2259 2579 2317 2540 2317 2229 
L 2317 1053 
C 2317 510 2029 38 1555 38 
C 1030 38 986 355 986 691 
L 986 2816 
L 211 2745 
L 211 2579 
C 467 2579 640 2579 646 2320 
L 646 1079 
C 646 646 646 368 813 187 
C 896 103 1056 -64 1517 -64 
C 2061 -64 2272 400 2323 536 
L 2330 536 
L 2330 -64 
L 3091 -13 
L 3091 154 
C 2714 154 2656 193 2656 503 
L 2656 2816 
L 1882 2745 
z
" id="CMR17-75" transform="scale(0.015625)"/>
       <path d="M 2656 1954 
C 2656 2282 2592 2816 1837 2816 
C 1331 2816 1069 2424 973 2166 
L 966 2166 
L 966 2816 
L 211 2745 
L 211 2578 
C 589 2578 646 2540 646 2231 
L 646 443 
C 646 198 621 166 211 166 
L 211 0 
C 365 12 646 12 813 12 
C 979 12 1267 12 1421 0 
L 1421 166 
C 1011 166 986 192 986 443 
L 986 1678 
C 986 2269 1344 2713 1792 2713 
C 2266 2713 2317 2289 2317 1980 
L 2317 443 
C 2317 198 2291 166 1882 166 
L 1882 0 
C 2035 12 2317 12 2483 12 
C 2650 12 2938 12 3091 0 
L 3091 166 
C 2682 166 2656 192 2656 443 
L 2656 1954 
z
" id="CMR17-6e" transform="scale(0.015625)"/>
       <path d="M 2234 2240 
C 2112 2240 1933 2240 1933 2015 
C 1933 1836 2080 1785 2163 1785 
C 2208 1785 2394 1804 2394 2028 
C 2394 2476 1958 2816 1466 2816 
C 787 2816 211 2201 211 1379 
C 211 521 813 -64 1466 -64 
C 2259 -64 2458 676 2458 747 
C 2458 773 2451 792 2406 792 
C 2362 792 2355 786 2330 702 
C 2163 180 1798 51 1523 51 
C 1114 51 621 431 621 1385 
C 621 2358 1094 2700 1472 2700 
C 1722 2700 2093 2582 2234 2240 
z
" id="CMR17-63" transform="scale(0.015625)"/>
       <path d="M 1958 -1562 
C 1958 -1556 1958 -1543 1939 -1524 
C 1645 -1223 858 -403 858 1596 
C 858 3595 1632 4408 1946 4729 
C 1946 4735 1958 4748 1958 4767 
C 1958 4787 1939 4800 1914 4800 
C 1843 4800 1299 4325 986 3620 
C 666 2909 576 2218 576 1603 
C 576 1141 621 360 1005 -467 
C 1312 -1133 1837 -1600 1914 -1600 
C 1946 -1600 1958 -1588 1958 -1562 
z
" id="CMR17-28" transform="scale(0.015625)"/>
       <path d="M 3590 3898 
C 3590 4185 3661 4185 4102 4185 
L 4102 4352 
C 3917 4339 3578 4339 3379 4339 
C 3181 4339 2842 4339 2656 4352 
L 2656 4185 
C 3098 4185 3168 4185 3168 3898 
L 3168 2342 
L 1261 2342 
L 1261 3898 
C 1261 4185 1331 4185 1773 4185 
L 1773 4352 
C 1587 4339 1248 4339 1050 4339 
C 851 4339 512 4339 326 4352 
L 326 4185 
C 768 4185 838 4185 838 3898 
L 838 452 
C 838 166 768 166 326 166 
L 326 0 
C 512 12 851 12 1050 12 
C 1248 12 1587 12 1773 0 
L 1773 166 
C 1331 166 1261 166 1261 452 
L 1261 2176 
L 3168 2176 
L 3168 452 
C 3168 166 3098 166 2656 166 
L 2656 0 
C 2842 12 3181 12 3379 12 
C 3578 12 3917 12 4102 0 
L 4102 166 
C 3661 166 3590 166 3590 452 
L 3590 3898 
z
" id="CMR17-48" transform="scale(0.015625)"/>
       <path d="M 2310 2604 
C 2362 2668 2362 2681 2362 2694 
C 2362 2752 2336 2752 2221 2752 
L 275 2752 
L 211 1760 
L 326 1760 
C 371 2380 442 2649 1178 2649 
L 1958 2649 
L 128 96 
C 128 6 134 0 269 0 
L 2291 0 
L 2381 1152 
L 2266 1152 
C 2214 441 2131 115 1350 115 
L 531 115 
L 2310 2604 
z
" id="CMR17-7a" transform="scale(0.015625)"/>
       <path d="M 1683 1596 
C 1683 2057 1638 2839 1254 3665 
C 947 4332 422 4800 346 4800 
C 326 4800 301 4793 301 4761 
C 301 4748 307 4742 314 4729 
C 621 4408 1402 3595 1402 1603 
C 1402 -396 627 -1210 314 -1530 
C 307 -1543 301 -1549 301 -1562 
C 301 -1594 326 -1600 346 -1600 
C 416 -1600 960 -1127 1274 -422 
C 1594 289 1683 981 1683 1596 
z
" id="CMR17-29" transform="scale(0.015625)"/>
      </defs>
      <use transform="scale(0.996264)" xlink:href="#CMR17-46"/>
      <use transform="translate(52.176591 0)scale(0.996264)" xlink:href="#CMR17-72"/>
      <use transform="translate(84.854951 0)scale(0.996264)" xlink:href="#CMR17-13"/>
      <use transform="translate(87.457359 0)scale(0.996264)" xlink:href="#CMR17-65"/>
      <use transform="translate(127.943019 0)scale(0.996264)" xlink:href="#CMR17-71"/>
      <use transform="translate(176.235935 0)scale(0.996264)" xlink:href="#CMR17-75"/>
      <use transform="translate(227.131305 0)scale(0.996264)" xlink:href="#CMR17-65"/>
      <use transform="translate(267.616966 0)scale(0.996264)" xlink:href="#CMR17-6e"/>
      <use transform="translate(318.512335 0)scale(0.996264)" xlink:href="#CMR17-63"/>
      <use transform="translate(358.997996 0)scale(0.996264)" xlink:href="#CMR17-65"/>
      <use transform="translate(429.559623 0)scale(0.996264)" xlink:href="#CMR17-28"/>
      <use transform="translate(464.84039 0)scale(0.996264)" xlink:href="#CMR17-48"/>
      <use transform="translate(533.91282 0)scale(0.996264)" xlink:href="#CMR17-7a"/>
      <use transform="translate(574.398481 0)scale(0.996264)" xlink:href="#CMR17-29"/>
     </g>
    </g>
   </g>
   <g id="matplotlib.axis_2">
    <g id="ytick_1">
     <g id="line2d_57">
      <path clip-path="url(#p69639e143e)" d="M 47.105338 370.447236 
L 716.705338 370.447236 
" style="fill:none;stroke:#b0b0b0;stroke-linecap:square;stroke-width:0.8;"/>
     </g>
     <g id="line2d_58">
      <defs>
       <path d="M 0 0 
L -3.5 0 
" id="me082d5b595" style="stroke:#000000;stroke-width:0.8;"/>
      </defs>
      <g>
       <use style="stroke:#000000;stroke-width:0.8;" x="47.105338" xlink:href="#me082d5b595" y="370.447236"/>
      </g>
     </g>
     <g id="text_5">
      <!-- $\mathdefault{0.0}$ -->
      <g transform="translate(25.147696 374.598326)scale(0.12 -0.12)">
       <defs>
        <path d="M 1178 307 
C 1178 492 1024 620 870 620 
C 685 620 557 467 557 313 
C 557 128 710 0 864 0 
C 1050 0 1178 153 1178 307 
z
" id="CMMI12-3a" transform="scale(0.015625)"/>
       </defs>
       <use transform="scale(0.996264)" xlink:href="#CMR17-30"/>
       <use transform="translate(45.690477 0)scale(0.996264)" xlink:href="#CMMI12-3a"/>
       <use transform="translate(72.787654 0)scale(0.996264)" xlink:href="#CMR17-30"/>
      </g>
     </g>
    </g>
    <g id="ytick_2">
     <g id="line2d_59">
      <path clip-path="url(#p69639e143e)" d="M 47.105338 321.175807 
L 716.705338 321.175807 
" style="fill:none;stroke:#b0b0b0;stroke-linecap:square;stroke-width:0.8;"/>
     </g>
     <g id="line2d_60">
      <g>
       <use style="stroke:#000000;stroke-width:0.8;" x="47.105338" xlink:href="#me082d5b595" y="321.175807"/>
      </g>
     </g>
     <g id="text_6">
      <!-- $\mathdefault{0.2}$ -->
      <g transform="translate(25.147696 325.326897)scale(0.12 -0.12)">
       <defs>
        <path d="M 2669 990 
L 2554 990 
C 2490 537 2438 460 2413 422 
C 2381 371 1920 371 1830 371 
L 602 371 
C 832 620 1280 1073 1824 1596 
C 2214 1966 2669 2400 2669 3033 
C 2669 3788 2067 4224 1395 4224 
C 691 4224 262 3603 262 3027 
C 262 2777 448 2745 525 2745 
C 589 2745 781 2783 781 3007 
C 781 3206 614 3264 525 3264 
C 486 3264 448 3257 422 3244 
C 544 3788 915 4057 1306 4057 
C 1862 4057 2227 3616 2227 3033 
C 2227 2477 1901 1998 1536 1583 
L 262 147 
L 262 0 
L 2515 0 
L 2669 990 
z
" id="CMR17-32" transform="scale(0.015625)"/>
       </defs>
       <use transform="scale(0.996264)" xlink:href="#CMR17-30"/>
       <use transform="translate(45.690477 0)scale(0.996264)" xlink:href="#CMMI12-3a"/>
       <use transform="translate(72.787654 0)scale(0.996264)" xlink:href="#CMR17-32"/>
      </g>
     </g>
    </g>
    <g id="ytick_3">
     <g id="line2d_61">
      <path clip-path="url(#p69639e143e)" d="M 47.105338 271.904379 
L 716.705338 271.904379 
" style="fill:none;stroke:#b0b0b0;stroke-linecap:square;stroke-width:0.8;"/>
     </g>
     <g id="line2d_62">
      <g>
       <use style="stroke:#000000;stroke-width:0.8;" x="47.105338" xlink:href="#me082d5b595" y="271.904379"/>
      </g>
     </g>
     <g id="text_7">
      <!-- $\mathdefault{0.4}$ -->
      <g transform="translate(25.147696 276.055469)scale(0.12 -0.12)">
       <defs>
        <path d="M 2150 4147 
C 2150 4281 2144 4288 2029 4288 
L 128 1254 
L 128 1088 
L 1779 1088 
L 1779 460 
C 1779 230 1766 166 1318 166 
L 1197 166 
L 1197 0 
C 1402 12 1747 12 1965 12 
C 2182 12 2528 12 2733 0 
L 2733 166 
L 2611 166 
C 2163 166 2150 230 2150 460 
L 2150 1088 
L 2803 1088 
L 2803 1254 
L 2150 1254 
L 2150 4147 
z
M 1798 3723 
L 1798 1254 
L 256 1254 
L 1798 3723 
z
" id="CMR17-34" transform="scale(0.015625)"/>
       </defs>
       <use transform="scale(0.996264)" xlink:href="#CMR17-30"/>
       <use transform="translate(45.690477 0)scale(0.996264)" xlink:href="#CMMI12-3a"/>
       <use transform="translate(72.787654 0)scale(0.996264)" xlink:href="#CMR17-34"/>
      </g>
     </g>
    </g>
    <g id="ytick_4">
     <g id="line2d_63">
      <path clip-path="url(#p69639e143e)" d="M 47.105338 222.632951 
L 716.705338 222.632951 
" style="fill:none;stroke:#b0b0b0;stroke-linecap:square;stroke-width:0.8;"/>
     </g>
     <g id="line2d_64">
      <g>
       <use style="stroke:#000000;stroke-width:0.8;" x="47.105338" xlink:href="#me082d5b595" y="222.632951"/>
      </g>
     </g>
     <g id="text_8">
      <!-- $\mathdefault{0.6}$ -->
      <g transform="translate(25.147696 226.784041)scale(0.12 -0.12)">
       <defs>
        <path d="M 678 2198 
C 678 3712 1395 4076 1811 4076 
C 1946 4076 2272 4049 2400 3782 
C 2298 3782 2106 3782 2106 3558 
C 2106 3385 2246 3328 2336 3328 
C 2394 3328 2566 3353 2566 3571 
C 2566 3987 2246 4224 1805 4224 
C 1043 4224 243 3411 243 2011 
C 243 257 966 -128 1478 -128 
C 2099 -128 2688 431 2688 1295 
C 2688 2101 2170 2688 1517 2688 
C 1126 2688 838 2430 678 1979 
L 678 2198 
z
M 1478 25 
C 691 25 691 1212 691 1450 
C 691 1914 909 2585 1504 2585 
C 1613 2585 1926 2585 2138 2140 
C 2253 1889 2253 1624 2253 1302 
C 2253 954 2253 696 2118 438 
C 1978 173 1773 25 1478 25 
z
" id="CMR17-36" transform="scale(0.015625)"/>
       </defs>
       <use transform="scale(0.996264)" xlink:href="#CMR17-30"/>
       <use transform="translate(45.690477 0)scale(0.996264)" xlink:href="#CMMI12-3a"/>
       <use transform="translate(72.787654 0)scale(0.996264)" xlink:href="#CMR17-36"/>
      </g>
     </g>
    </g>
    <g id="ytick_5">
     <g id="line2d_65">
      <path clip-path="url(#p69639e143e)" d="M 47.105338 173.361523 
L 716.705338 173.361523 
" style="fill:none;stroke:#b0b0b0;stroke-linecap:square;stroke-width:0.8;"/>
     </g>
     <g id="line2d_66">
      <g>
       <use style="stroke:#000000;stroke-width:0.8;" x="47.105338" xlink:href="#me082d5b595" y="173.361523"/>
      </g>
     </g>
     <g id="text_9">
      <!-- $\mathdefault{0.8}$ -->
      <g transform="translate(25.147696 177.512613)scale(0.12 -0.12)">
       <defs>
        <path d="M 1741 2289 
C 2144 2494 2554 2803 2554 3298 
C 2554 3884 1990 4224 1472 4224 
C 890 4224 378 3800 378 3215 
C 378 3054 416 2777 666 2533 
C 730 2469 998 2276 1171 2154 
C 883 2006 211 1652 211 945 
C 211 282 838 -128 1459 -128 
C 2144 -128 2720 366 2720 1022 
C 2720 1607 2330 1877 2074 2051 
L 1741 2289 
z
M 902 2855 
C 851 2887 595 3086 595 3388 
C 595 3781 998 4076 1459 4076 
C 1965 4076 2336 3716 2336 3298 
C 2336 2700 1670 2359 1638 2359 
C 1632 2359 1626 2359 1574 2398 
L 902 2855 
z
M 2080 1536 
C 2176 1466 2483 1253 2483 861 
C 2483 385 2010 25 1472 25 
C 890 25 448 443 448 951 
C 448 1459 838 1884 1280 2083 
L 2080 1536 
z
" id="CMR17-38" transform="scale(0.015625)"/>
       </defs>
       <use transform="scale(0.996264)" xlink:href="#CMR17-30"/>
       <use transform="translate(45.690477 0)scale(0.996264)" xlink:href="#CMMI12-3a"/>
       <use transform="translate(72.787654 0)scale(0.996264)" xlink:href="#CMR17-38"/>
      </g>
     </g>
    </g>
    <g id="ytick_6">
     <g id="line2d_67">
      <path clip-path="url(#p69639e143e)" d="M 47.105338 124.090094 
L 716.705338 124.090094 
" style="fill:none;stroke:#b0b0b0;stroke-linecap:square;stroke-width:0.8;"/>
     </g>
     <g id="line2d_68">
      <g>
       <use style="stroke:#000000;stroke-width:0.8;" x="47.105338" xlink:href="#me082d5b595" y="124.090094"/>
      </g>
     </g>
     <g id="text_10">
      <!-- $\mathdefault{1.0}$ -->
      <g transform="translate(25.147696 128.241184)scale(0.12 -0.12)">
       <use transform="scale(0.996264)" xlink:href="#CMR17-31"/>
       <use transform="translate(45.690477 0)scale(0.996264)" xlink:href="#CMMI12-3a"/>
       <use transform="translate(72.787654 0)scale(0.996264)" xlink:href="#CMR17-30"/>
      </g>
     </g>
    </g>
    <g id="ytick_7">
     <g id="line2d_69">
      <path clip-path="url(#p69639e143e)" d="M 47.105338 74.818666 
L 716.705338 74.818666 
" style="fill:none;stroke:#b0b0b0;stroke-linecap:square;stroke-width:0.8;"/>
     </g>
     <g id="line2d_70">
      <g>
       <use style="stroke:#000000;stroke-width:0.8;" x="47.105338" xlink:href="#me082d5b595" y="74.818666"/>
      </g>
     </g>
     <g id="text_11">
      <!-- $\mathdefault{1.2}$ -->
      <g transform="translate(25.147696 78.969756)scale(0.12 -0.12)">
       <use transform="scale(0.996264)" xlink:href="#CMR17-31"/>
       <use transform="translate(45.690477 0)scale(0.996264)" xlink:href="#CMMI12-3a"/>
       <use transform="translate(72.787654 0)scale(0.996264)" xlink:href="#CMR17-32"/>
      </g>
     </g>
    </g>
    <g id="ytick_8">
     <g id="line2d_71">
      <path clip-path="url(#p69639e143e)" d="M 47.105338 25.547238 
L 716.705338 25.547238 
" style="fill:none;stroke:#b0b0b0;stroke-linecap:square;stroke-width:0.8;"/>
     </g>
     <g id="line2d_72">
      <g>
       <use style="stroke:#000000;stroke-width:0.8;" x="47.105338" xlink:href="#me082d5b595" y="25.547238"/>
      </g>
     </g>
     <g id="text_12">
      <!-- $\mathdefault{1.4}$ -->
      <g transform="translate(25.147696 29.698328)scale(0.12 -0.12)">
       <use transform="scale(0.996264)" xlink:href="#CMR17-31"/>
       <use transform="translate(45.690477 0)scale(0.996264)" xlink:href="#CMMI12-3a"/>
       <use transform="translate(72.787654 0)scale(0.996264)" xlink:href="#CMR17-34"/>
      </g>
     </g>
    </g>
    <g id="text_13">
     <!-- Retard de groupe (seconde) -->
     <g transform="translate(17.660772 280.102476)rotate(-90)scale(0.14 -0.14)">
      <defs>
       <path d="M 2509 2156 
C 3117 2278 3629 2689 3629 3203 
C 3629 3806 2950 4352 2054 4352 
L 333 4352 
L 333 4185 
C 774 4185 845 4185 845 3896 
L 845 428 
C 845 140 774 140 333 140 
L 333 -26 
C 518 -13 851 -13 1050 -13 
C 1248 -13 1581 -13 1766 -26 
L 1766 140 
C 1325 140 1254 140 1254 428 
L 1254 2112 
L 2003 2112 
C 2368 2112 2573 1964 2662 1881 
C 2918 1632 2918 1459 2918 1024 
C 2918 595 2918 377 3110 160 
C 3354 -103 3680 -128 3821 -128 
C 4294 -128 4365 403 4365 512 
C 4365 550 4365 595 4307 595 
C 4256 595 4250 556 4250 531 
C 4218 115 4032 -26 3834 -26 
C 3482 -26 3443 377 3405 768 
C 3386 902 3373 998 3360 1139 
C 3322 1459 3270 1926 2509 2156 
z
M 1984 2214 
L 1254 2214 
L 1254 3935 
C 1254 4153 1267 4185 1523 4185 
L 1990 4185 
C 2522 4185 3142 3999 3142 3203 
C 3142 2374 2464 2214 1984 2214 
z
" id="CMR17-52" transform="scale(0.015625)"/>
       <path d="M 966 2585 
L 1862 2585 
L 1862 2752 
L 966 2752 
L 966 3968 
L 851 3968 
C 838 3292 614 2700 70 2687 
L 70 2585 
L 627 2585 
L 627 778 
C 627 655 627 -64 1370 -64 
C 1747 -64 1965 308 1965 784 
L 1965 1151 
L 1850 1151 
L 1850 790 
C 1850 347 1677 51 1408 51 
C 1222 51 966 179 966 765 
L 966 2585 
z
" id="CMR17-74" transform="scale(0.015625)"/>
       <path d="M 2304 1656 
C 2304 2048 2304 2275 2035 2534 
C 1798 2751 1523 2816 1306 2816 
C 800 2816 435 2408 435 1977 
C 435 1740 627 1728 666 1728 
C 749 1728 896 1779 896 1958 
C 896 2118 774 2188 666 2188 
C 640 2188 608 2182 589 2176 
C 723 2594 1069 2713 1293 2713 
C 1613 2713 1965 2421 1965 1875 
L 1965 1632 
C 1587 1619 1133 1568 774 1373 
C 371 1147 256 822 256 576 
C 256 77 832 -64 1171 -64 
C 1523 -64 1850 135 1990 505 
C 2003 219 2182 -39 2464 -39 
C 2598 -39 2938 51 2938 563 
L 2938 926 
L 2822 926 
L 2822 557 
C 2822 161 2650 109 2566 109 
C 2304 109 2304 446 2304 732 
L 2304 1656 
z
M 1965 887 
C 1965 323 1568 38 1216 38 
C 896 38 646 278 646 576 
C 646 771 730 1114 1101 1322 
C 1408 1497 1760 1523 1965 1536 
L 1965 887 
z
" id="CMR17-61" transform="scale(0.015625)"/>
       <path d="M 1869 4345 
L 1869 4179 
C 2246 4179 2304 4141 2304 3843 
L 2304 2371 
C 2278 2403 2016 2816 1498 2816 
C 845 2816 211 2228 211 1376 
C 211 529 806 -64 1434 -64 
C 1978 -64 2259 361 2291 406 
L 2291 -64 
L 3066 -13 
L 3066 154 
C 2688 154 2630 193 2630 503 
L 2630 4416 
L 1869 4345 
z
M 2291 762 
C 2291 568 2176 393 2029 264 
C 1811 70 1594 38 1472 38 
C 1286 38 621 135 621 1369 
C 621 2636 1363 2713 1530 2713 
C 1824 2713 2061 2545 2208 2313 
C 2291 2177 2291 2157 2291 2041 
L 2291 762 
z
" id="CMR17-64" transform="scale(0.015625)"/>
       <path d="M 710 1165 
C 832 1068 1043 960 1299 960 
C 1805 960 2240 1359 2240 1895 
C 2240 2063 2189 2321 1997 2521 
C 2176 2713 2438 2777 2586 2777 
C 2611 2777 2650 2777 2682 2758 
C 2656 2751 2598 2726 2598 2623 
C 2598 2540 2656 2483 2739 2483 
C 2835 2483 2886 2547 2886 2630 
C 2886 2751 2790 2880 2586 2880 
C 2330 2880 2106 2758 1926 2591 
C 1734 2764 1504 2828 1299 2828 
C 794 2828 358 2431 358 1895 
C 358 1527 570 1294 634 1230 
C 442 1004 442 742 442 710 
C 442 544 506 300 723 166 
C 390 82 128 -184 128 -517 
C 128 -996 736 -1344 1466 -1344 
C 2170 -1344 2803 -1009 2803 -510 
C 2803 384 1856 384 1363 384 
C 1216 384 954 384 922 390 
C 723 422 589 601 589 825 
C 589 883 589 1024 710 1165 
z
M 1299 1068 
C 736 1068 736 1766 736 1895 
C 736 2024 736 2719 1299 2719 
C 1862 2719 1862 2024 1862 1895 
C 1862 1766 1862 1068 1299 1068 
z
M 1466 -1236 
C 826 -1236 384 -883 384 -517 
C 384 -311 493 -118 634 -11 
C 794 102 858 102 1293 102 
C 1818 102 2547 102 2547 -517 
C 2547 -883 2106 -1236 1466 -1236 
z
" id="CMR17-67" transform="scale(0.015625)"/>
       <path d="M 2758 1356 
C 2758 2176 2163 2816 1466 2816 
C 768 2816 173 2176 173 1356 
C 173 550 768 -64 1466 -64 
C 2163 -64 2758 550 2758 1356 
z
M 1466 51 
C 1165 51 909 230 762 480 
C 602 768 582 1126 582 1408 
C 582 1676 595 2009 762 2297 
C 890 2508 1139 2713 1466 2713 
C 1754 2713 1997 2553 2150 2329 
C 2349 2028 2349 1606 2349 1408 
C 2349 1158 2336 774 2163 467 
C 1984 172 1709 51 1466 51 
z
" id="CMR17-6f" transform="scale(0.015625)"/>
       <path d="M 1408 -1114 
C 998 -1114 973 -1088 973 -834 
L 973 380 
C 1158 109 1427 -64 1766 -64 
C 2406 -64 3053 503 3053 1382 
C 3053 2196 2496 2816 1837 2816 
C 1453 2816 1139 2603 960 2345 
L 960 2816 
L 198 2745 
L 198 2577 
C 576 2577 634 2539 634 2228 
L 634 -834 
C 634 -1081 608 -1114 198 -1114 
L 198 -1280 
C 352 -1268 634 -1268 800 -1268 
C 966 -1268 1254 -1268 1408 -1280 
L 1408 -1114 
z
M 973 2015 
C 973 2106 973 2241 1222 2481 
C 1254 2506 1472 2700 1792 2700 
C 2259 2700 2643 2112 2643 1376 
C 2643 639 2234 38 1728 38 
C 1498 38 1248 148 1056 451 
C 973 594 973 632 973 736 
L 973 2015 
z
" id="CMR17-70" transform="scale(0.015625)"/>
       <path d="M 1978 2688 
C 1978 2803 1971 2809 1933 2809 
C 1907 2809 1901 2803 1824 2707 
C 1805 2681 1747 2617 1728 2592 
C 1523 2809 1235 2816 1126 2816 
C 416 2816 160 2444 160 2073 
C 160 1497 813 1363 998 1324 
C 1402 1241 1542 1216 1677 1100 
C 1760 1024 1901 883 1901 652 
C 1901 384 1747 38 1158 38 
C 602 38 403 460 288 1024 
C 269 1113 269 1120 218 1120 
C 166 1120 160 1113 160 985 
L 160 64 
C 160 -52 166 -58 205 -58 
C 237 -58 243 -52 275 0 
C 314 57 410 211 448 275 
C 576 102 800 -64 1158 -64 
C 1792 -64 2131 281 2131 780 
C 2131 1107 1958 1280 1875 1356 
C 1683 1555 1459 1600 1190 1651 
C 838 1728 390 1817 390 2208 
C 390 2374 480 2726 1126 2726 
C 1811 2726 1850 2086 1862 1881 
C 1869 1849 1901 1843 1920 1843 
C 1978 1843 1978 1862 1978 1971 
L 1978 2688 
z
" id="CMR17-73" transform="scale(0.015625)"/>
      </defs>
      <use transform="scale(0.996264)" xlink:href="#CMR17-52"/>
      <use transform="translate(67.791102 0)scale(0.996264)" xlink:href="#CMR17-65"/>
      <use transform="translate(108.276762 0)scale(0.996264)" xlink:href="#CMR17-74"/>
      <use transform="translate(143.55753 0)scale(0.996264)" xlink:href="#CMR17-61"/>
      <use transform="translate(189.248007 0)scale(0.996264)" xlink:href="#CMR17-72"/>
      <use transform="translate(224.528775 0)scale(0.996264)" xlink:href="#CMR17-64"/>
      <use transform="translate(305.500111 0)scale(0.996264)" xlink:href="#CMR17-64"/>
      <use transform="translate(356.395481 0)scale(0.996264)" xlink:href="#CMR17-65"/>
      <use transform="translate(426.957108 0)scale(0.996264)" xlink:href="#CMR17-67"/>
      <use transform="translate(472.647585 0)scale(0.996264)" xlink:href="#CMR17-72"/>
      <use transform="translate(507.928353 0)scale(0.996264)" xlink:href="#CMR17-6f"/>
      <use transform="translate(553.61883 0)scale(0.996264)" xlink:href="#CMR17-75"/>
      <use transform="translate(604.5142 0)scale(0.996264)" xlink:href="#CMR17-70"/>
      <use transform="translate(658.012008 0)scale(0.996264)" xlink:href="#CMR17-65"/>
      <use transform="translate(728.573635 0)scale(0.996264)" xlink:href="#CMR17-28"/>
      <use transform="translate(763.854403 0)scale(0.996264)" xlink:href="#CMR17-73"/>
      <use transform="translate(799.65574 0)scale(0.996264)" xlink:href="#CMR17-65"/>
      <use transform="translate(840.141401 0)scale(0.996264)" xlink:href="#CMR17-63"/>
      <use transform="translate(880.627061 0)scale(0.996264)" xlink:href="#CMR17-6f"/>
      <use transform="translate(926.317538 0)scale(0.996264)" xlink:href="#CMR17-6e"/>
      <use transform="translate(977.212908 0)scale(0.996264)" xlink:href="#CMR17-64"/>
      <use transform="translate(1028.108278 0)scale(0.996264)" xlink:href="#CMR17-65"/>
      <use transform="translate(1068.593939 0)scale(0.996264)" xlink:href="#CMR17-29"/>
     </g>
    </g>
   </g>
   <g id="line2d_73">
    <path clip-path="url(#p69639e143e)" d="M 77.541702 291.926162 
L 132.880545 291.694388 
L 166.698726 291.334746 
L 188.219387 290.916233 
L 206.665668 290.350058 
L 222.037569 289.648316 
L 234.33509 288.864947 
L 243.55823 288.099644 
L 252.781371 287.135193 
L 262.004511 285.91749 
L 268.153272 284.932669 
L 274.302032 283.783375 
L 280.450792 282.445397 
L 286.599553 280.894493 
L 292.748313 279.109409 
L 298.897073 277.077212 
L 305.045834 274.802156 
L 311.194594 272.319518 
L 323.492115 267.153503 
L 326.566495 265.966896 
L 329.640875 264.900102 
L 332.715255 264.005308 
L 335.789635 263.341465 
L 338.864016 262.972453 
L 341.938396 262.964075 
L 345.012776 263.379861 
L 348.087156 264.275883 
L 351.161536 265.695058 
L 354.235916 267.66172 
L 357.310297 270.177367 
L 360.384677 273.218486 
L 363.459057 276.737047 
L 366.533437 280.663761 
L 369.607817 284.913646 
L 375.756578 294.006533 
L 384.979718 307.80172 
L 388.054098 312.161365 
L 391.128478 316.324775 
L 394.202859 320.265877 
L 397.277239 323.969732 
L 400.351619 327.430474 
L 403.425999 330.649264 
L 406.500379 333.632431 
L 409.574759 336.389879 
L 412.64914 338.933802 
L 415.72352 341.277671 
L 418.7979 343.435484 
L 421.87228 345.421221 
L 424.94666 347.248473 
L 428.02104 348.930193 
L 434.169801 351.90489 
L 440.318561 354.432388 
L 446.467321 356.586135 
L 452.616082 358.427138 
L 458.764842 360.0057 
L 464.913602 361.36322 
L 471.062363 362.533807 
L 480.285503 363.999527 
L 489.508644 365.182895 
L 498.731784 366.14198 
L 511.029305 367.148058 
L 523.326825 367.914645 
L 538.698726 368.624255 
L 557.145007 369.216323 
L 578.665668 369.667485 
L 606.33509 370.013011 
L 646.302032 370.260515 
L 686.268974 370.36687 
L 686.268974 370.36687 
" style="fill:none;stroke:#1f77b4;stroke-linecap:square;stroke-width:1.5;"/>
   </g>
   <g id="line2d_74">
    <path clip-path="url(#p69639e143e)" d="M 77.541702 273.749635 
L 252.781371 273.848386 
L 271.227652 274.04677 
L 283.525173 274.358009 
L 292.748313 274.777672 
L 301.971454 275.462437 
L 308.120214 276.13382 
L 314.268974 277.038261 
L 320.417735 278.238335 
L 326.566495 279.802908 
L 329.640875 280.743886 
L 332.715255 281.801864 
L 335.789635 282.984388 
L 338.864016 284.297897 
L 341.938396 285.747354 
L 345.012776 287.335883 
L 348.087156 289.064438 
L 351.161536 290.931521 
L 357.310297 295.062013 
L 363.459057 299.661984 
L 369.607817 304.626881 
L 378.830958 312.46417 
L 391.128478 322.895783 
L 397.277239 327.827792 
L 403.425999 332.455304 
L 409.574759 336.728751 
L 415.72352 340.62458 
L 421.87228 344.139828 
L 428.02104 347.286333 
L 434.169801 350.085546 
L 440.318561 352.564351 
L 446.467321 354.75199 
L 452.616082 356.677948 
L 458.764842 358.370612 
L 464.913602 359.856495 
L 471.062363 361.159856 
L 480.285503 362.819894 
L 489.508644 364.182051 
L 498.731784 365.299698 
L 507.954925 366.216878 
L 520.252445 367.189505 
L 532.549966 367.937512 
L 547.921867 368.634986 
L 566.368148 369.220467 
L 587.888809 369.668666 
L 615.55823 370.01307 
L 655.525173 370.26036 
L 686.268974 370.349502 
L 686.268974 370.349502 
" style="fill:none;stroke:#ff7f0e;stroke-linecap:square;stroke-width:1.5;"/>
   </g>
   <g id="line2d_75">
    <path clip-path="url(#p69639e143e)" d="M 77.541702 228.811656 
L 89.839222 229.841098 
L 99.062363 230.792288 
L 108.285503 231.926931 
L 117.508644 233.275432 
L 126.731784 234.871079 
L 135.954925 236.749345 
L 145.178065 238.94668 
L 151.326825 240.606512 
L 157.475586 242.433852 
L 163.624346 244.437412 
L 169.773106 246.624293 
L 175.921867 248.999415 
L 182.070627 251.564897 
L 188.219387 254.319402 
L 194.368148 257.257478 
L 203.591288 261.985058 
L 212.814429 267.044251 
L 225.111949 274.150412 
L 243.55823 284.944889 
L 252.781371 290.021551 
L 258.930131 293.137371 
L 265.078892 295.944724 
L 271.227652 298.347969 
L 274.302032 299.36275 
L 277.376412 300.23071 
L 280.450792 300.932251 
L 283.525173 301.444728 
L 286.599553 301.741638 
L 289.673933 301.791573 
L 292.748313 301.556841 
L 295.822693 300.991671 
L 298.897073 300.039832 
L 301.971454 298.631481 
L 305.045834 296.678951 
L 308.120214 294.071126 
L 311.194594 290.665929 
L 314.268974 286.280356 
L 317.343354 280.677531 
L 320.417735 273.550608 
L 323.492115 264.504665 
L 326.566495 253.041469 
L 329.640875 238.561301 
L 332.715255 220.417301 
L 335.789635 198.100398 
L 338.864016 171.696546 
L 341.938396 142.775115 
L 345.012776 115.570587 
L 348.087156 97.313082 
L 351.161536 95.596583 
L 354.235916 113.011672 
L 357.310297 144.523989 
L 360.384677 181.307071 
L 363.459057 216.26807 
L 366.533437 246.033577 
L 369.607817 269.980293 
L 372.682197 288.761694 
L 375.756578 303.380012 
L 378.830958 314.783206 
L 381.905338 323.744442 
L 384.979718 330.856877 
L 388.054098 336.564041 
L 391.128478 341.194797 
L 394.202859 344.993119 
L 397.277239 348.140973 
L 400.351619 350.775156 
L 403.425999 352.999452 
L 406.500379 354.893374 
L 409.574759 356.518438 
L 412.64914 357.922701 
L 415.72352 359.144065 
L 418.7979 360.212691 
L 424.94666 361.983972 
L 431.095421 363.380683 
L 437.244181 364.499975 
L 443.392941 365.409207 
L 452.616082 366.480291 
L 461.839222 367.294418 
L 474.136743 368.100741 
L 486.434264 368.684682 
L 501.806164 369.203292 
L 523.326825 369.674629 
L 550.996247 370.023313 
L 590.963189 370.266839 
L 655.525173 370.401277 
L 686.268974 370.42322 
L 686.268974 370.42322 
" style="fill:none;stroke:#2ca02c;stroke-linecap:square;stroke-width:1.5;"/>
   </g>
   <g id="line2d_76">
    <path clip-path="url(#p69639e143e)" d="M 77.541702 222.966762 
L 95.987983 222.421437 
L 111.359883 221.762113 
L 123.657404 221.043423 
L 135.954925 220.091145 
L 145.178065 219.174936 
L 154.401206 218.034814 
L 163.624346 216.610489 
L 169.773106 215.465255 
L 175.921867 214.130564 
L 182.070627 212.57206 
L 188.219387 210.748829 
L 194.368148 208.612328 
L 200.516908 206.105366 
L 206.665668 203.161357 
L 209.740049 201.502051 
L 212.814429 199.704297 
L 215.888809 197.757362 
L 218.963189 195.650258 
L 222.037569 193.371978 
L 225.111949 190.911841 
L 228.18633 188.259973 
L 231.26071 185.407973 
L 234.33509 182.349801 
L 237.40947 179.082954 
L 240.48385 175.609991 
L 243.55823 171.94046 
L 249.706991 164.099692 
L 262.004511 147.905668 
L 265.078892 144.316545 
L 268.153272 141.210695 
L 271.227652 138.782584 
L 274.302032 137.242383 
L 277.376412 136.802465 
L 280.450792 137.658896 
L 283.525173 139.969579 
L 286.599553 143.832239 
L 289.673933 149.26656 
L 292.748313 156.204825 
L 295.822693 164.493989 
L 298.897073 173.909526 
L 301.971454 184.178431 
L 308.120214 206.106035 
L 314.268974 228.115205 
L 317.343354 238.63403 
L 320.417735 248.648519 
L 323.492115 258.079088 
L 326.566495 266.883005 
L 329.640875 275.046635 
L 332.715255 282.577963 
L 335.789635 289.500033 
L 338.864016 295.845577 
L 341.938396 301.652852 
L 345.012776 306.962561 
L 348.087156 311.81569 
L 351.161536 316.252054 
L 354.235916 320.309393 
L 357.310297 324.022861 
L 360.384677 327.424793 
L 363.459057 330.544662 
L 366.533437 333.409156 
L 369.607817 336.042332 
L 375.756578 340.698962 
L 378.830958 342.759172 
L 381.905338 344.661989 
L 384.979718 346.421353 
L 391.128478 349.558427 
L 397.277239 352.255875 
L 403.425999 354.58298 
L 409.574759 356.596302 
L 415.72352 358.342372 
L 421.87228 359.859761 
L 428.02104 361.180687 
L 434.169801 362.332239 
L 443.392941 363.791189 
L 452.616082 364.983395 
L 461.839222 365.959244 
L 474.136743 366.99227 
L 486.434264 367.785862 
L 501.806164 368.525459 
L 520.252445 369.1462 
L 541.773106 369.621427 
L 569.442528 369.986668 
L 606.33509 370.235697 
L 664.748313 370.385492 
L 686.268974 370.408009 
L 686.268974 370.408009 
" style="fill:none;stroke:#d62728;stroke-linecap:square;stroke-width:1.5;"/>
   </g>
   <g id="line2d_77">
    <path clip-path="url(#p69639e143e)" d="M 77.541702 251.215709 
L 92.913602 252.03123 
L 105.211123 252.888432 
L 117.508644 253.977229 
L 126.731784 254.978421 
L 135.954925 256.166642 
L 145.178065 257.570254 
L 154.401206 259.219115 
L 163.624346 261.143384 
L 172.847487 263.371728 
L 182.070627 265.928843 
L 188.219387 267.8253 
L 194.368148 269.878536 
L 203.591288 273.251232 
L 212.814429 276.96059 
L 222.037569 280.970075 
L 231.26071 285.217486 
L 262.004511 299.665994 
L 268.153272 302.238269 
L 274.302032 304.540439 
L 280.450792 306.470464 
L 283.525173 307.256427 
L 286.599553 307.897044 
L 289.673933 308.368582 
L 292.748313 308.642743 
L 295.822693 308.685303 
L 298.897073 308.454273 
L 301.971454 307.897382 
L 305.045834 306.948603 
L 308.120214 305.523288 
L 311.194594 303.511283 
L 314.268974 300.767058 
L 317.343354 297.095381 
L 320.417735 292.230333 
L 323.492115 285.804391 
L 326.566495 277.303083 
L 329.640875 266.00005 
L 332.715255 250.87063 
L 335.789635 230.500348 
L 338.864016 203.072325 
L 341.938396 166.722976 
L 345.012776 121.033046 
L 348.087156 70.862082 
L 351.161536 31.4066 
L 354.235916 24.496364 
L 357.310297 58.026782 
L 363.459057 172.857787 
L 366.533437 220.180487 
L 369.607817 255.554011 
L 372.682197 281.227018 
L 375.756578 299.850609 
L 378.830958 313.52875 
L 381.905338 323.751287 
L 384.979718 331.536052 
L 388.054098 337.574683 
L 391.128478 342.340855 
L 394.202859 346.163394 
L 397.277239 349.274207 
L 400.351619 351.839546 
L 403.425999 353.98052 
L 409.574759 357.325414 
L 412.64914 358.647761 
L 415.72352 359.79321 
L 418.7979 360.792526 
L 424.94666 362.444915 
L 431.095421 363.746603 
L 437.244181 364.790796 
L 443.392941 365.640952 
L 452.616082 366.646262 
L 461.839222 367.414426 
L 474.136743 368.179898 
L 489.508644 368.852847 
L 507.954925 369.390571 
L 529.475586 369.786991 
L 560.219387 370.106468 
L 603.26071 370.310854 
L 680.120214 370.420367 
L 686.268974 370.423636 
L 686.268974 370.423636 
" style="fill:none;stroke:#9467bd;stroke-linecap:square;stroke-width:1.5;"/>
   </g>
   <g id="patch_3">
    <path d="M 47.105338 387.72 
L 47.105338 7.2 
" style="fill:none;stroke:#000000;stroke-linecap:square;stroke-linejoin:miter;stroke-width:0.8;"/>
   </g>
   <g id="patch_4">
    <path d="M 716.705338 387.72 
L 716.705338 7.2 
" style="fill:none;stroke:#000000;stroke-linecap:square;stroke-linejoin:miter;stroke-width:0.8;"/>
   </g>
   <g id="patch_5">
    <path d="M 47.105338 387.72 
L 716.705338 387.72 
" style="fill:none;stroke:#000000;stroke-linecap:square;stroke-linejoin:miter;stroke-width:0.8;"/>
   </g>
   <g id="patch_6">
    <path d="M 47.105338 7.2 
L 716.705338 7.2 
" style="fill:none;stroke:#000000;stroke-linecap:square;stroke-linejoin:miter;stroke-width:0.8;"/>
   </g>
   <g id="legend_1">
    <g id="patch_7">
     <path d="M 577.138259 115.960142 
L 706.905338 115.960142 
Q 709.705338 115.960142 709.705338 113.160142 
L 709.705338 17 
Q 709.705338 14.2 706.905338 14.2 
L 577.138259 14.2 
Q 574.338259 14.2 574.338259 17 
L 574.338259 113.160142 
Q 574.338259 115.960142 577.138259 115.960142 
z
" style="fill:#ffffff;opacity:0.8;stroke:#cccccc;stroke-linejoin:miter;"/>
    </g>
    <g id="line2d_78">
     <path d="M 579.938259 24.7 
L 607.938259 24.7 
" style="fill:none;stroke:#1f77b4;stroke-linecap:square;stroke-width:1.5;"/>
    </g>
    <g id="line2d_79"/>
    <g id="text_14">
     <!-- Butterworth -->
     <g transform="translate(619.138259 29.6)scale(0.14 -0.14)">
      <defs>
       <path d="M 333 4352 
L 333 4185 
C 774 4185 845 4185 845 3897 
L 845 451 
C 845 166 774 166 333 166 
L 333 0 
L 2534 0 
C 3354 0 3885 578 3885 1155 
C 3885 1726 3360 2214 2675 2259 
C 3290 2380 3718 2790 3718 3276 
C 3718 3808 3194 4352 2368 4352 
L 333 4352 
z
M 1248 2304 
L 1248 3936 
C 1248 4153 1261 4185 1517 4185 
L 2336 4185 
C 2970 4185 3251 3673 3251 3276 
C 3251 2790 2861 2304 2170 2304 
L 1248 2304 
z
M 1517 166 
C 1261 166 1248 198 1248 413 
L 1248 2201 
L 2432 2201 
C 3091 2201 3411 1624 3411 1161 
C 3411 698 3046 166 2349 166 
L 1517 166 
z
" id="CMR17-42" transform="scale(0.015625)"/>
       <path d="M 3725 2186 
C 3853 2566 4109 2579 4205 2585 
L 4205 2752 
C 4077 2745 3949 2739 3821 2739 
C 3699 2739 3424 2739 3315 2752 
L 3315 2585 
C 3514 2572 3622 2456 3622 2296 
C 3622 2251 3610 2193 3597 2148 
L 2995 398 
L 2342 2296 
C 2330 2341 2310 2392 2310 2418 
C 2310 2585 2528 2585 2630 2585 
L 2630 2752 
C 2483 2739 2214 2739 2061 2739 
C 1901 2739 1734 2739 1587 2752 
L 1587 2585 
C 1939 2585 1939 2572 2074 2167 
L 1485 443 
L 851 2302 
C 819 2386 819 2399 819 2418 
C 819 2585 1037 2585 1139 2585 
L 1139 2752 
C 986 2739 717 2739 557 2739 
C 416 2739 198 2739 64 2752 
L 64 2585 
C 346 2585 416 2566 486 2353 
L 1274 38 
C 1299 -45 1318 -64 1370 -64 
C 1414 -64 1440 -52 1472 44 
L 2131 1987 
L 2797 44 
C 2829 -52 2854 -64 2899 -64 
C 2950 -64 2970 -45 2995 38 
L 3725 2186 
z
" id="CMR17-77" transform="scale(0.015625)"/>
       <path d="M 2656 1954 
C 2656 2282 2592 2816 1837 2816 
C 1312 2816 1056 2392 979 2179 
L 973 2179 
L 973 4416 
L 211 4345 
L 211 4179 
C 589 4179 646 4141 646 3843 
L 646 443 
C 646 198 621 166 211 166 
L 211 0 
C 365 12 646 12 813 12 
C 979 12 1267 12 1421 0 
L 1421 166 
C 1011 166 986 192 986 443 
L 986 1678 
C 986 2269 1344 2713 1792 2713 
C 2266 2713 2317 2289 2317 1980 
L 2317 443 
C 2317 198 2291 166 1882 166 
L 1882 0 
C 2035 12 2317 12 2483 12 
C 2650 12 2938 12 3091 0 
L 3091 166 
C 2682 166 2656 192 2656 443 
L 2656 1954 
z
" id="CMR17-68" transform="scale(0.015625)"/>
      </defs>
      <use transform="scale(0.996264)" xlink:href="#CMR17-42"/>
      <use transform="translate(65.188754 0)scale(0.996264)" xlink:href="#CMR17-75"/>
      <use transform="translate(116.084124 0)scale(0.996264)" xlink:href="#CMR17-74"/>
      <use transform="translate(151.364892 0)scale(0.996264)" xlink:href="#CMR17-74"/>
      <use transform="translate(186.64566 0)scale(0.996264)" xlink:href="#CMR17-65"/>
      <use transform="translate(227.13132 0)scale(0.996264)" xlink:href="#CMR17-72"/>
      <use transform="translate(262.412088 0)scale(0.996264)" xlink:href="#CMR17-77"/>
      <use transform="translate(326.319515 0)scale(0.996264)" xlink:href="#CMR17-6f"/>
      <use transform="translate(372.009992 0)scale(0.996264)" xlink:href="#CMR17-72"/>
      <use transform="translate(407.29076 0)scale(0.996264)" xlink:href="#CMR17-74"/>
      <use transform="translate(442.571527 0)scale(0.996264)" xlink:href="#CMR17-68"/>
     </g>
    </g>
    <g id="line2d_80">
     <path d="M 579.938259 44.212028 
L 607.938259 44.212028 
" style="fill:none;stroke:#ff7f0e;stroke-linecap:square;stroke-width:1.5;"/>
    </g>
    <g id="line2d_81"/>
    <g id="text_15">
     <!-- Bessel -->
     <g transform="translate(619.138259 49.112028)scale(0.14 -0.14)">
      <defs>
       <path d="M 979 4416 
L 218 4345 
L 218 4179 
C 595 4179 653 4141 653 3835 
L 653 439 
C 653 198 627 166 218 166 
L 218 0 
C 371 12 653 12 813 12 
C 979 12 1261 12 1414 0 
L 1414 166 
C 1005 166 979 191 979 439 
L 979 4416 
z
" id="CMR17-6c" transform="scale(0.015625)"/>
      </defs>
      <use transform="scale(0.996264)" xlink:href="#CMR17-42"/>
      <use transform="translate(65.188754 0)scale(0.996264)" xlink:href="#CMR17-65"/>
      <use transform="translate(105.674415 0)scale(0.996264)" xlink:href="#CMR17-73"/>
      <use transform="translate(141.475753 0)scale(0.996264)" xlink:href="#CMR17-73"/>
      <use transform="translate(177.27709 0)scale(0.996264)" xlink:href="#CMR17-65"/>
      <use transform="translate(217.762751 0)scale(0.996264)" xlink:href="#CMR17-6c"/>
     </g>
    </g>
    <g id="line2d_82">
     <path d="M 579.938259 63.724057 
L 607.938259 63.724057 
" style="fill:none;stroke:#2ca02c;stroke-linecap:square;stroke-width:1.5;"/>
    </g>
    <g id="line2d_83"/>
    <g id="text_16">
     <!-- Tchebychev I -->
     <g transform="translate(619.138259 68.624057)scale(0.14 -0.14)">
      <defs>
       <path d="M 3981 4332 
L 288 4332 
L 179 2924 
L 294 2924 
C 378 3981 467 4166 1453 4166 
C 1568 4166 1754 4166 1805 4159 
C 1926 4140 1926 4064 1926 3917 
L 1926 465 
C 1926 236 1907 166 1376 166 
L 1197 166 
L 1197 0 
C 1504 6 1824 12 2138 12 
C 2451 12 2771 6 3078 0 
L 3078 166 
L 2899 166 
C 2368 166 2349 236 2349 465 
L 2349 3917 
C 2349 4057 2349 4134 2464 4159 
C 2515 4166 2701 4166 2816 4166 
C 3795 4166 3891 3981 3974 2924 
L 4090 2924 
L 3981 4332 
z
" id="CMR17-54" transform="scale(0.015625)"/>
       <path d="M 960 4416 
L 198 4345 
L 198 4179 
C 576 4179 634 4141 634 3843 
L 634 -13 
L 749 -13 
L 934 445 
C 1120 141 1395 -64 1766 -64 
C 2406 -64 3053 503 3053 1382 
C 3053 2209 2477 2816 1830 2816 
C 1434 2816 1152 2603 960 2351 
L 960 4416 
z
M 973 2022 
C 973 2138 973 2157 1062 2293 
C 1312 2681 1670 2713 1792 2713 
C 1984 2713 2643 2610 2643 1388 
C 2643 109 1888 38 1734 38 
C 1536 38 1248 115 1043 490 
C 973 613 973 626 973 742 
L 973 2022 
z
" id="CMR17-62" transform="scale(0.015625)"/>
       <path d="M 2496 2183 
C 2656 2579 2944 2585 3034 2585 
L 3034 2752 
C 2912 2745 2752 2739 2630 2739 
C 2496 2739 2285 2739 2157 2752 
L 2157 2585 
C 2400 2566 2406 2384 2406 2332 
C 2406 2268 2394 2235 2362 2158 
L 1664 409 
L 902 2300 
C 870 2378 870 2423 870 2430 
C 870 2572 1018 2585 1171 2585 
L 1171 2752 
C 1018 2739 742 2739 582 2739 
C 410 2739 205 2739 64 2752 
L 64 2585 
C 410 2585 448 2553 531 2345 
L 1485 -31 
C 1197 -795 1030 -1242 627 -1242 
C 557 -1242 397 -1223 282 -1106 
C 429 -1093 493 -1002 493 -892 
C 493 -782 416 -685 288 -685 
C 147 -685 77 -782 77 -899 
C 77 -1158 339 -1344 627 -1344 
C 998 -1344 1229 -983 1357 -659 
L 2496 2183 
z
" id="CMR17-79" transform="scale(0.015625)"/>
       <path d="M 2502 2173 
C 2560 2315 2662 2572 3034 2585 
L 3034 2752 
C 2912 2745 2752 2739 2630 2739 
C 2496 2739 2285 2739 2157 2752 
L 2157 2585 
C 2317 2572 2406 2495 2406 2328 
C 2406 2270 2406 2257 2368 2167 
L 1664 379 
L 902 2308 
C 864 2392 864 2405 864 2431 
C 864 2585 1075 2585 1171 2585 
L 1171 2752 
C 1018 2739 736 2739 576 2739 
C 403 2739 205 2739 64 2752 
L 64 2585 
C 307 2585 442 2585 518 2386 
L 1446 44 
C 1485 -52 1491 -64 1549 -64 
C 1606 -64 1613 -52 1651 44 
L 2502 2173 
z
" id="CMR17-76" transform="scale(0.015625)"/>
       <path d="M 1261 3898 
C 1261 4185 1338 4185 1798 4185 
L 1798 4352 
C 1594 4339 1267 4339 1050 4339 
C 832 4339 506 4339 301 4352 
L 301 4185 
C 762 4185 838 4185 838 3898 
L 838 453 
C 838 166 762 166 301 166 
L 301 0 
C 506 12 832 12 1050 12 
C 1267 12 1594 12 1798 0 
L 1798 166 
C 1338 166 1261 166 1261 453 
L 1261 3898 
z
" id="CMR17-49" transform="scale(0.015625)"/>
      </defs>
      <use transform="scale(0.996264)" xlink:href="#CMR17-54"/>
      <use transform="translate(66.509881 0)scale(0.996264)" xlink:href="#CMR17-63"/>
      <use transform="translate(104.393087 0)scale(0.996264)" xlink:href="#CMR17-68"/>
      <use transform="translate(155.288457 0)scale(0.996264)" xlink:href="#CMR17-65"/>
      <use transform="translate(195.774117 0)scale(0.996264)" xlink:href="#CMR17-62"/>
      <use transform="translate(244.067033 0)scale(0.996264)" xlink:href="#CMR17-79"/>
      <use transform="translate(292.359949 0)scale(0.996264)" xlink:href="#CMR17-63"/>
      <use transform="translate(330.243156 0)scale(0.996264)" xlink:href="#CMR17-68"/>
      <use transform="translate(381.138525 0)scale(0.996264)" xlink:href="#CMR17-65"/>
      <use transform="translate(421.624186 0)scale(0.996264)" xlink:href="#CMR17-76"/>
      <use transform="translate(499.993068 0)scale(0.996264)" xlink:href="#CMR17-49"/>
     </g>
    </g>
    <g id="line2d_84">
     <path d="M 579.938259 83.236085 
L 607.938259 83.236085 
" style="fill:none;stroke:#d62728;stroke-linecap:square;stroke-width:1.5;"/>
    </g>
    <g id="line2d_85"/>
    <g id="text_17">
     <!-- Tchebychev II -->
     <g transform="translate(619.138259 88.136085)scale(0.14 -0.14)">
      <use transform="scale(0.996264)" xlink:href="#CMR17-54"/>
      <use transform="translate(66.509881 0)scale(0.996264)" xlink:href="#CMR17-63"/>
      <use transform="translate(104.393087 0)scale(0.996264)" xlink:href="#CMR17-68"/>
      <use transform="translate(155.288457 0)scale(0.996264)" xlink:href="#CMR17-65"/>
      <use transform="translate(195.774117 0)scale(0.996264)" xlink:href="#CMR17-62"/>
      <use transform="translate(244.067033 0)scale(0.996264)" xlink:href="#CMR17-79"/>
      <use transform="translate(292.359949 0)scale(0.996264)" xlink:href="#CMR17-63"/>
      <use transform="translate(330.243156 0)scale(0.996264)" xlink:href="#CMR17-68"/>
      <use transform="translate(381.138525 0)scale(0.996264)" xlink:href="#CMR17-65"/>
      <use transform="translate(421.624186 0)scale(0.996264)" xlink:href="#CMR17-76"/>
      <use transform="translate(499.993068 0)scale(0.996264)" xlink:href="#CMR17-49"/>
      <use transform="translate(535.233916 0)scale(0.996264)" xlink:href="#CMR17-49"/>
     </g>
    </g>
    <g id="line2d_86">
     <path d="M 579.938259 102.748114 
L 607.938259 102.748114 
" style="fill:none;stroke:#9467bd;stroke-linecap:square;stroke-width:1.5;"/>
    </g>
    <g id="line2d_87"/>
    <g id="text_18">
     <!-- Elliptique -->
     <g transform="translate(619.138259 107.648114)scale(0.14 -0.14)">
      <defs>
       <path d="M 3885 1614 
L 3770 1614 
C 3629 676 3546 166 2419 166 
L 1530 166 
C 1274 166 1261 198 1261 415 
L 1261 2176 
L 1862 2176 
C 2464 2176 2522 1959 2522 1429 
L 2637 1429 
L 2637 3086 
L 2522 3086 
C 2522 2558 2464 2342 1862 2342 
L 1261 2342 
L 1261 3924 
C 1261 4141 1274 4172 1530 4172 
L 2406 4172 
C 3398 4172 3514 3778 3603 2933 
L 3718 2933 
L 3565 4339 
L 326 4339 
L 326 4172 
C 768 4172 838 4172 838 3886 
L 838 453 
C 838 166 768 166 326 166 
L 326 0 
L 3654 0 
L 3885 1614 
z
" id="CMR17-45" transform="scale(0.015625)"/>
       <path d="M 992 3961 
C 992 4102 877 4224 730 4224 
C 589 4224 467 4108 467 3961 
C 467 3820 582 3699 730 3699 
C 870 3699 992 3814 992 3961 
z
M 243 2745 
L 243 2579 
C 602 2579 653 2540 653 2231 
L 653 443 
C 653 198 627 166 218 166 
L 218 0 
C 371 12 646 12 806 12 
C 960 12 1222 12 1370 0 
L 1370 166 
C 992 166 979 205 979 436 
L 979 2816 
L 243 2745 
z
" id="CMR17-69" transform="scale(0.015625)"/>
      </defs>
      <use transform="scale(0.996264)" xlink:href="#CMR17-45"/>
      <use transform="translate(62.586301 0)scale(0.996264)" xlink:href="#CMR17-6c"/>
      <use transform="translate(87.457359 0)scale(0.996264)" xlink:href="#CMR17-6c"/>
      <use transform="translate(112.328417 0)scale(0.996264)" xlink:href="#CMR17-69"/>
      <use transform="translate(137.199476 0)scale(0.996264)" xlink:href="#CMR17-70"/>
      <use transform="translate(188.094846 0)scale(0.996264)" xlink:href="#CMR17-74"/>
      <use transform="translate(223.375614 0)scale(0.996264)" xlink:href="#CMR17-69"/>
      <use transform="translate(248.246672 0)scale(0.996264)" xlink:href="#CMR17-71"/>
      <use transform="translate(296.539588 0)scale(0.996264)" xlink:href="#CMR17-75"/>
      <use transform="translate(347.434958 0)scale(0.996264)" xlink:href="#CMR17-65"/>
     </g>
    </g>
   </g>
  </g>
 </g>
 <defs>
  <clipPath id="p69639e143e">
   <rect height="380.52" width="669.6" x="47.105338" y="7.2"/>
  </clipPath>
 </defs>
</svg>
