<?xml version="1.0" encoding="utf-8" standalone="no"?>
<!DOCTYPE svg PUBLIC "-//W3C//DTD SVG 1.1//EN"
  "http://www.w3.org/Graphics/SVG/1.1/DTD/svg11.dtd">
<svg height="430.494472pt" version="1.1" viewBox="0 0 733.203827 430.494472" width="733.203827pt" xmlns="http://www.w3.org/2000/svg" xmlns:xlink="http://www.w3.org/1999/xlink">
 <metadata>
  <rdf:RDF xmlns:cc="http://creativecommons.org/ns#" xmlns:dc="http://purl.org/dc/elements/1.1/" xmlns:rdf="http://www.w3.org/1999/02/22-rdf-syntax-ns#">
   <cc:Work>
    <dc:type rdf:resource="http://purl.org/dc/dcmitype/StillImage"/>
    <dc:date>2021-10-01T14:54:14.886945</dc:date>
    <dc:format>image/svg+xml</dc:format>
    <dc:creator>
     <cc:Agent>
      <dc:title>Matplotlib v3.4.3, https://matplotlib.org/</dc:title>
     </cc:Agent>
    </dc:creator>
   </cc:Work>
  </rdf:RDF>
 </metadata>
 <defs>
  <style type="text/css">*{stroke-linecap:butt;stroke-linejoin:round;}</style>
 </defs>
 <g id="figure_1">
  <g id="patch_1">
   <path d="M 0 430.494472 
L 733.203827 430.494472 
L 733.203827 0 
L 0 0 
z
" style="fill:none;"/>
  </g>
  <g id="axes_1">
   <g id="patch_2">
    <path d="M 56.403827 387.72 
L 726.003827 387.72 
L 726.003827 7.2 
L 56.403827 7.2 
z
" style="fill:#ffffff;"/>
   </g>
   <g id="matplotlib.axis_1">
    <g id="xtick_1">
     <g id="line2d_1">
      <path clip-path="url(#pd024fdedad)" d="M 86.840191 387.72 
L 86.840191 7.2 
" style="fill:none;stroke:#b0b0b0;stroke-linecap:square;stroke-width:0.8;"/>
     </g>
     <g id="line2d_2">
      <defs>
       <path d="M 0 0 
L 0 3.5 
" id="m4b26ffba23" style="stroke:#000000;stroke-width:0.8;"/>
      </defs>
      <g>
       <use style="stroke:#000000;stroke-width:0.8;" x="86.840191" xlink:href="#m4b26ffba23" y="387.72"/>
      </g>
     </g>
     <g id="text_1">
      <!-- $\mathdefault{0}$ -->
      <g transform="translate(83.913696 403.02218)scale(0.12 -0.12)">
       <defs>
        <path d="M 2688 2025 
C 2688 2416 2682 3080 2413 3591 
C 2176 4039 1798 4198 1466 4198 
C 1158 4198 768 4058 525 3597 
C 269 3118 243 2524 243 2025 
C 243 1661 250 1106 448 619 
C 723 -39 1216 -128 1466 -128 
C 1760 -128 2208 -7 2470 600 
C 2662 1042 2688 1559 2688 2025 
z
M 1466 -26 
C 1056 -26 813 325 723 812 
C 653 1188 653 1738 653 2096 
C 653 2588 653 2997 736 3387 
C 858 3929 1216 4096 1466 4096 
C 1728 4096 2067 3923 2189 3400 
C 2272 3036 2278 2607 2278 2096 
C 2278 1680 2278 1169 2202 792 
C 2067 95 1690 -26 1466 -26 
z
" id="CMR17-30" transform="scale(0.015625)"/>
       </defs>
       <use transform="scale(0.996264)" xlink:href="#CMR17-30"/>
      </g>
     </g>
    </g>
    <g id="xtick_2">
     <g id="line2d_3">
      <path clip-path="url(#pd024fdedad)" d="M 162.9311 387.72 
L 162.9311 7.2 
" style="fill:none;stroke:#b0b0b0;stroke-linecap:square;stroke-width:0.8;"/>
     </g>
     <g id="line2d_4">
      <g>
       <use style="stroke:#000000;stroke-width:0.8;" x="162.9311" xlink:href="#m4b26ffba23" y="387.72"/>
      </g>
     </g>
     <g id="text_2">
      <!-- $\mathdefault{1}$ -->
      <g transform="translate(160.004605 403.02218)scale(0.12 -0.12)">
       <defs>
        <path d="M 1702 4058 
C 1702 4192 1696 4192 1606 4192 
C 1357 3916 979 3827 621 3827 
C 602 3827 570 3827 563 3808 
C 557 3795 557 3782 557 3648 
C 755 3648 1088 3686 1344 3839 
L 1344 461 
C 1344 236 1331 160 781 160 
L 589 160 
L 589 0 
C 896 0 1216 0 1523 0 
C 1830 0 2150 0 2458 0 
L 2458 160 
L 2266 160 
C 1715 160 1702 230 1702 458 
L 1702 4058 
z
" id="CMR17-31" transform="scale(0.015625)"/>
       </defs>
       <use transform="scale(0.996264)" xlink:href="#CMR17-31"/>
      </g>
     </g>
    </g>
    <g id="xtick_3">
     <g id="line2d_5">
      <path clip-path="url(#pd024fdedad)" d="M 239.022009 387.72 
L 239.022009 7.2 
" style="fill:none;stroke:#b0b0b0;stroke-linecap:square;stroke-width:0.8;"/>
     </g>
     <g id="line2d_6">
      <g>
       <use style="stroke:#000000;stroke-width:0.8;" x="239.022009" xlink:href="#m4b26ffba23" y="387.72"/>
      </g>
     </g>
     <g id="text_3">
      <!-- $\mathdefault{2}$ -->
      <g transform="translate(236.095514 403.02218)scale(0.12 -0.12)">
       <defs>
        <path d="M 2669 989 
L 2554 989 
C 2490 536 2438 459 2413 420 
C 2381 369 1920 369 1830 369 
L 602 369 
C 832 619 1280 1072 1824 1597 
C 2214 1967 2669 2402 2669 3035 
C 2669 3790 2067 4224 1395 4224 
C 691 4224 262 3604 262 3030 
C 262 2780 448 2748 525 2748 
C 589 2748 781 2787 781 3010 
C 781 3207 614 3264 525 3264 
C 486 3264 448 3258 422 3245 
C 544 3790 915 4058 1306 4058 
C 1862 4058 2227 3617 2227 3035 
C 2227 2479 1901 2000 1536 1584 
L 262 146 
L 262 0 
L 2515 0 
L 2669 989 
z
" id="CMR17-32" transform="scale(0.015625)"/>
       </defs>
       <use transform="scale(0.996264)" xlink:href="#CMR17-32"/>
      </g>
     </g>
    </g>
    <g id="xtick_4">
     <g id="line2d_7">
      <path clip-path="url(#pd024fdedad)" d="M 315.112918 387.72 
L 315.112918 7.2 
" style="fill:none;stroke:#b0b0b0;stroke-linecap:square;stroke-width:0.8;"/>
     </g>
     <g id="line2d_8">
      <g>
       <use style="stroke:#000000;stroke-width:0.8;" x="315.112918" xlink:href="#m4b26ffba23" y="387.72"/>
      </g>
     </g>
     <g id="text_4">
      <!-- $\mathdefault{3}$ -->
      <g transform="translate(312.186423 403.02218)scale(0.12 -0.12)">
       <defs>
        <path d="M 1414 2157 
C 1984 2157 2234 1662 2234 1090 
C 2234 320 1824 25 1453 25 
C 1114 25 563 194 390 693 
C 422 680 454 680 486 680 
C 640 680 755 782 755 948 
C 755 1133 614 1216 486 1216 
C 378 1216 211 1165 211 926 
C 211 335 787 -128 1466 -128 
C 2176 -128 2720 430 2720 1085 
C 2720 1707 2208 2157 1600 2227 
C 2086 2328 2554 2756 2554 3329 
C 2554 3820 2048 4179 1472 4179 
C 890 4179 378 3829 378 3329 
C 378 3110 544 3072 627 3072 
C 762 3072 877 3155 877 3321 
C 877 3486 762 3569 627 3569 
C 602 3569 570 3569 544 3557 
C 730 3959 1235 4032 1459 4032 
C 1683 4032 2106 3925 2106 3320 
C 2106 3143 2080 2828 1862 2550 
C 1670 2304 1453 2304 1242 2284 
C 1210 2284 1062 2269 1037 2269 
C 992 2263 966 2257 966 2208 
C 966 2163 973 2157 1101 2157 
L 1414 2157 
z
" id="CMR17-33" transform="scale(0.015625)"/>
       </defs>
       <use transform="scale(0.996264)" xlink:href="#CMR17-33"/>
      </g>
     </g>
    </g>
    <g id="xtick_5">
     <g id="line2d_9">
      <path clip-path="url(#pd024fdedad)" d="M 391.203827 387.72 
L 391.203827 7.2 
" style="fill:none;stroke:#b0b0b0;stroke-linecap:square;stroke-width:0.8;"/>
     </g>
     <g id="line2d_10">
      <g>
       <use style="stroke:#000000;stroke-width:0.8;" x="391.203827" xlink:href="#m4b26ffba23" y="387.72"/>
      </g>
     </g>
     <g id="text_5">
      <!-- $\mathdefault{4}$ -->
      <g transform="translate(388.277332 403.02218)scale(0.12 -0.12)">
       <defs>
        <path d="M 2150 4122 
C 2150 4256 2144 4256 2029 4256 
L 128 1254 
L 128 1088 
L 1779 1088 
L 1779 457 
C 1779 224 1766 160 1318 160 
L 1197 160 
L 1197 0 
C 1402 0 1747 0 1965 0 
C 2182 0 2528 0 2733 0 
L 2733 160 
L 2611 160 
C 2163 160 2150 224 2150 457 
L 2150 1088 
L 2803 1088 
L 2803 1254 
L 2150 1254 
L 2150 4122 
z
M 1798 3703 
L 1798 1254 
L 256 1254 
L 1798 3703 
z
" id="CMR17-34" transform="scale(0.015625)"/>
       </defs>
       <use transform="scale(0.996264)" xlink:href="#CMR17-34"/>
      </g>
     </g>
    </g>
    <g id="xtick_6">
     <g id="line2d_11">
      <path clip-path="url(#pd024fdedad)" d="M 467.294736 387.72 
L 467.294736 7.2 
" style="fill:none;stroke:#b0b0b0;stroke-linecap:square;stroke-width:0.8;"/>
     </g>
     <g id="line2d_12">
      <g>
       <use style="stroke:#000000;stroke-width:0.8;" x="467.294736" xlink:href="#m4b26ffba23" y="387.72"/>
      </g>
     </g>
     <g id="text_6">
      <!-- $\mathdefault{5}$ -->
      <g transform="translate(464.368241 403.02218)scale(0.12 -0.12)">
       <defs>
        <path d="M 730 3692 
C 794 3666 1056 3584 1325 3584 
C 1920 3584 2246 3911 2432 4100 
C 2432 4157 2432 4192 2394 4192 
C 2387 4192 2374 4192 2323 4163 
C 2099 4058 1837 3973 1517 3973 
C 1325 3973 1037 3999 723 4139 
C 653 4171 640 4171 634 4171 
C 602 4171 595 4164 595 4037 
L 595 2203 
C 595 2089 595 2057 659 2057 
C 691 2057 704 2070 736 2114 
C 941 2401 1222 2522 1542 2522 
C 1766 2522 2246 2382 2246 1289 
C 2246 1085 2246 715 2054 421 
C 1894 159 1645 25 1370 25 
C 947 25 518 320 403 814 
C 429 807 480 795 506 795 
C 589 795 749 840 749 1038 
C 749 1210 627 1280 506 1280 
C 358 1280 262 1190 262 1011 
C 262 454 704 -128 1382 -128 
C 2042 -128 2669 440 2669 1264 
C 2669 2030 2170 2624 1549 2624 
C 1222 2624 947 2503 730 2274 
L 730 3692 
z
" id="CMR17-35" transform="scale(0.015625)"/>
       </defs>
       <use transform="scale(0.996264)" xlink:href="#CMR17-35"/>
      </g>
     </g>
    </g>
    <g id="xtick_7">
     <g id="line2d_13">
      <path clip-path="url(#pd024fdedad)" d="M 543.385646 387.72 
L 543.385646 7.2 
" style="fill:none;stroke:#b0b0b0;stroke-linecap:square;stroke-width:0.8;"/>
     </g>
     <g id="line2d_14">
      <g>
       <use style="stroke:#000000;stroke-width:0.8;" x="543.385646" xlink:href="#m4b26ffba23" y="387.72"/>
      </g>
     </g>
     <g id="text_7">
      <!-- $\mathdefault{6}$ -->
      <g transform="translate(540.45915 403.02218)scale(0.12 -0.12)">
       <defs>
        <path d="M 678 2176 
C 678 3690 1395 4032 1811 4032 
C 1946 4032 2272 4009 2400 3776 
C 2298 3776 2106 3776 2106 3553 
C 2106 3381 2246 3323 2336 3323 
C 2394 3323 2566 3348 2566 3560 
C 2566 3954 2246 4179 1805 4179 
C 1043 4179 243 3390 243 1984 
C 243 253 966 -128 1478 -128 
C 2099 -128 2688 427 2688 1283 
C 2688 2081 2170 2662 1517 2662 
C 1126 2662 838 2407 678 1960 
L 678 2176 
z
M 1478 25 
C 691 25 691 1200 691 1436 
C 691 1896 909 2560 1504 2560 
C 1613 2560 1926 2560 2138 2120 
C 2253 1870 2253 1609 2253 1289 
C 2253 944 2253 690 2118 434 
C 1978 171 1773 25 1478 25 
z
" id="CMR17-36" transform="scale(0.015625)"/>
       </defs>
       <use transform="scale(0.996264)" xlink:href="#CMR17-36"/>
      </g>
     </g>
    </g>
    <g id="xtick_8">
     <g id="line2d_15">
      <path clip-path="url(#pd024fdedad)" d="M 619.476555 387.72 
L 619.476555 7.2 
" style="fill:none;stroke:#b0b0b0;stroke-linecap:square;stroke-width:0.8;"/>
     </g>
     <g id="line2d_16">
      <g>
       <use style="stroke:#000000;stroke-width:0.8;" x="619.476555" xlink:href="#m4b26ffba23" y="387.72"/>
      </g>
     </g>
     <g id="text_8">
      <!-- $\mathdefault{7}$ -->
      <g transform="translate(616.550059 403.02218)scale(0.12 -0.12)">
       <defs>
        <path d="M 2886 3941 
L 2886 4081 
L 1382 4081 
C 634 4081 621 4165 595 4288 
L 480 4288 
L 294 3094 
L 410 3094 
C 429 3215 474 3540 550 3661 
C 589 3712 1062 3712 1171 3712 
L 2579 3712 
L 1869 2661 
C 1395 1954 1069 999 1069 165 
C 1069 89 1069 -128 1299 -128 
C 1530 -128 1530 89 1530 171 
L 1530 465 
C 1530 1508 1709 2196 2003 2636 
L 2886 3941 
z
" id="CMR17-37" transform="scale(0.015625)"/>
       </defs>
       <use transform="scale(0.996264)" xlink:href="#CMR17-37"/>
      </g>
     </g>
    </g>
    <g id="xtick_9">
     <g id="line2d_17">
      <path clip-path="url(#pd024fdedad)" d="M 695.567464 387.72 
L 695.567464 7.2 
" style="fill:none;stroke:#b0b0b0;stroke-linecap:square;stroke-width:0.8;"/>
     </g>
     <g id="line2d_18">
      <g>
       <use style="stroke:#000000;stroke-width:0.8;" x="695.567464" xlink:href="#m4b26ffba23" y="387.72"/>
      </g>
     </g>
     <g id="text_9">
      <!-- $\mathdefault{8}$ -->
      <g transform="translate(692.640969 403.02218)scale(0.12 -0.12)">
       <defs>
        <path d="M 1741 2264 
C 2144 2467 2554 2773 2554 3263 
C 2554 3841 1990 4179 1472 4179 
C 890 4179 378 3759 378 3180 
C 378 3021 416 2747 666 2505 
C 730 2442 998 2251 1171 2130 
C 883 1983 211 1634 211 934 
C 211 279 838 -128 1459 -128 
C 2144 -128 2720 362 2720 1010 
C 2720 1590 2330 1857 2074 2029 
L 1741 2264 
z
M 902 2822 
C 851 2854 595 3051 595 3351 
C 595 3739 998 4032 1459 4032 
C 1965 4032 2336 3676 2336 3262 
C 2336 2669 1670 2331 1638 2331 
C 1632 2331 1626 2331 1574 2370 
L 902 2822 
z
M 2080 1519 
C 2176 1449 2483 1240 2483 851 
C 2483 381 2010 25 1472 25 
C 890 25 448 438 448 940 
C 448 1443 838 1862 1280 2060 
L 2080 1519 
z
" id="CMR17-38" transform="scale(0.015625)"/>
       </defs>
       <use transform="scale(0.996264)" xlink:href="#CMR17-38"/>
      </g>
     </g>
    </g>
    <g id="text_10">
     <!-- Fréquence (Hz) -->
     <g transform="translate(345.589352 419.807548)scale(0.14 -0.14)">
      <defs>
       <path d="M 3482 4325 
L 326 4325 
L 326 4160 
C 768 4160 838 4160 838 3874 
L 838 446 
C 838 160 768 160 326 160 
L 326 0 
C 512 0 870 0 1069 0 
C 1331 0 1638 0 1901 0 
L 1901 160 
L 1760 160 
C 1274 160 1261 223 1261 452 
L 1261 2075 
L 1837 2075 
C 2432 2075 2490 1865 2490 1332 
L 2605 1332 
L 2605 2987 
L 2490 2987 
C 2490 2450 2432 2240 1837 2240 
L 1261 2240 
L 1261 3911 
C 1261 4128 1274 4160 1530 4160 
L 2355 4160 
C 3322 4160 3430 3765 3520 2916 
L 3635 2916 
L 3482 4325 
z
" id="CMR17-46" transform="scale(0.015625)"/>
       <path d="M 960 1497 
C 960 2112 1222 2688 1702 2688 
C 1747 2688 1792 2682 1837 2662 
C 1837 2662 1696 2617 1696 2452 
C 1696 2298 1818 2234 1914 2234 
C 1990 2234 2131 2279 2131 2458 
C 2131 2663 1926 2790 1709 2790 
C 1222 2790 1011 2317 947 2093 
L 941 2093 
L 941 2790 
L 198 2720 
L 198 2554 
C 576 2554 634 2515 634 2208 
L 634 428 
C 634 184 608 153 198 153 
L 198 -13 
C 352 0 646 0 813 0 
C 998 0 1325 0 1498 -13 
L 1498 153 
C 1037 153 960 153 960 440 
L 960 1497 
z
" id="CMR17-72" transform="scale(0.015625)"/>
       <path d="M 2221 4091 
C 2298 4161 2317 4174 2317 4244 
C 2317 4339 2234 4416 2144 4416 
C 2067 4416 2042 4384 1978 4308 
L 1254 3390 
C 1210 3333 1210 3327 1210 3320 
C 1210 3314 1267 3256 1280 3244 
L 2221 4091 
z
" id="CMR17-13" transform="scale(0.015625)"/>
       <path d="M 2438 1472 
C 2464 1498 2464 1511 2464 1576 
C 2464 2238 2118 2816 1389 2816 
C 710 2816 173 2169 173 1383 
C 173 551 781 -64 1459 -64 
C 2176 -64 2458 607 2458 740 
C 2458 784 2419 784 2406 784 
C 2362 784 2355 771 2330 696 
C 2189 265 1837 51 1504 51 
C 1229 51 954 203 781 480 
C 582 803 582 1176 582 1472 
L 2438 1472 
z
M 589 1568 
C 634 2505 1126 2714 1382 2714 
C 1818 2714 2112 2297 2118 1568 
L 589 1568 
z
" id="CMR17-65" transform="scale(0.015625)"/>
       <path d="M 2630 2802 
L 2528 2802 
L 2336 2172 
C 2189 2509 1920 2802 1491 2802 
C 838 2802 211 2223 211 1383 
C 211 548 800 -38 1440 -38 
C 1933 -38 2208 338 2291 478 
L 2291 -789 
C 2291 -1031 2266 -1063 1856 -1063 
L 1856 -1228 
C 2010 -1216 2291 -1216 2458 -1216 
C 2624 -1216 2912 -1216 3066 -1228 
L 3066 -1063 
C 2656 -1063 2630 -1037 2630 -789 
L 2630 2802 
z
M 2304 886 
C 2304 612 2074 357 2054 338 
C 1856 115 1626 64 1472 64 
C 992 64 621 669 621 1375 
C 621 2121 1043 2688 1536 2688 
C 2048 2688 2304 2108 2304 1777 
L 2304 886 
z
" id="CMR17-71" transform="scale(0.015625)"/>
       <path d="M 1882 2693 
L 1882 2528 
C 2259 2528 2317 2489 2317 2186 
L 2317 1032 
C 2317 500 2029 38 1555 38 
C 1030 38 986 348 986 678 
L 986 2763 
L 211 2693 
L 211 2528 
C 467 2528 640 2528 646 2274 
L 646 1058 
C 646 633 646 361 813 183 
C 896 101 1056 -64 1517 -64 
C 2061 -64 2272 377 2323 506 
L 2330 506 
L 2330 -63 
L 3091 -63 
L 3091 128 
C 2714 128 2656 166 2656 473 
L 2656 2763 
L 1882 2693 
z
" id="CMR17-75" transform="scale(0.015625)"/>
       <path d="M 2656 1933 
C 2656 2259 2592 2790 1837 2790 
C 1331 2790 1069 2400 973 2144 
L 966 2144 
L 966 2790 
L 211 2720 
L 211 2554 
C 589 2554 646 2515 646 2208 
L 646 428 
C 646 184 621 153 211 153 
L 211 -13 
C 365 0 646 0 813 0 
C 979 0 1267 0 1421 -13 
L 1421 153 
C 1011 153 986 178 986 428 
L 986 1658 
C 986 2247 1344 2688 1792 2688 
C 2266 2688 2317 2266 2317 1958 
L 2317 428 
C 2317 184 2291 153 1882 153 
L 1882 -13 
C 2035 0 2317 0 2483 0 
C 2650 0 2938 0 3091 -13 
L 3091 153 
C 2682 153 2656 178 2656 428 
L 2656 1933 
z
" id="CMR17-6e" transform="scale(0.015625)"/>
       <path d="M 2234 2240 
C 2112 2240 1933 2240 1933 2017 
C 1933 1838 2080 1787 2163 1787 
C 2208 1787 2394 1807 2394 2024 
C 2394 2467 1958 2803 1466 2803 
C 787 2803 211 2178 211 1363 
C 211 516 813 -64 1466 -64 
C 2259 -64 2458 677 2458 748 
C 2458 774 2451 793 2406 793 
C 2362 793 2355 787 2330 703 
C 2163 180 1798 51 1523 51 
C 1114 51 621 427 621 1369 
C 621 2338 1094 2688 1472 2688 
C 1722 2688 2093 2573 2234 2240 
z
" id="CMR17-63" transform="scale(0.015625)"/>
       <path d="M 1958 -1561 
C 1958 -1555 1958 -1542 1939 -1523 
C 1645 -1224 858 -407 858 1581 
C 858 3569 1632 4379 1946 4697 
C 1946 4704 1958 4717 1958 4736 
C 1958 4755 1939 4768 1914 4768 
C 1843 4768 1299 4296 986 3594 
C 666 2887 576 2199 576 1588 
C 576 1128 621 351 1005 -471 
C 1312 -1135 1837 -1600 1914 -1600 
C 1946 -1600 1958 -1587 1958 -1561 
z
" id="CMR17-28" transform="scale(0.015625)"/>
       <path d="M 3590 3905 
C 3590 4192 3661 4192 4102 4192 
L 4102 4352 
C 3917 4352 3578 4352 3379 4352 
C 3181 4352 2842 4352 2656 4352 
L 2656 4192 
C 3098 4192 3168 4192 3168 3904 
L 3168 2341 
L 1261 2341 
L 1261 3904 
C 1261 4192 1331 4192 1773 4192 
L 1773 4352 
C 1587 4352 1248 4352 1050 4352 
C 851 4352 512 4352 326 4352 
L 326 4192 
C 768 4192 838 4192 838 3905 
L 838 447 
C 838 160 768 160 326 160 
L 326 0 
C 512 0 851 0 1050 0 
C 1248 0 1587 0 1773 0 
L 1773 160 
C 1331 160 1261 160 1261 446 
L 1261 2176 
L 3168 2176 
L 3168 446 
C 3168 160 3098 160 2656 160 
L 2656 0 
C 2842 0 3181 0 3379 0 
C 3578 0 3917 0 4102 0 
L 4102 160 
C 3661 160 3590 160 3590 447 
L 3590 3905 
z
" id="CMR17-48" transform="scale(0.015625)"/>
       <path d="M 2310 2605 
C 2362 2670 2362 2682 2362 2695 
C 2362 2752 2336 2752 2221 2752 
L 275 2752 
L 211 1760 
L 326 1760 
C 371 2381 442 2650 1178 2650 
L 1958 2650 
L 128 96 
C 128 0 134 0 269 0 
L 2291 0 
L 2381 1152 
L 2266 1152 
C 2214 442 2131 115 1350 115 
L 531 115 
L 2310 2605 
z
" id="CMR17-7a" transform="scale(0.015625)"/>
       <path d="M 1683 1581 
C 1683 2040 1638 2817 1254 3639 
C 947 4303 422 4768 346 4768 
C 326 4768 301 4761 301 4729 
C 301 4717 307 4710 314 4697 
C 621 4378 1402 3568 1402 1584 
C 1402 -407 627 -1217 314 -1537 
C 307 -1549 301 -1556 301 -1568 
C 301 -1600 326 -1600 346 -1600 
C 416 -1600 960 -1128 1274 -426 
C 1594 281 1683 969 1683 1581 
z
" id="CMR17-29" transform="scale(0.015625)"/>
      </defs>
      <use transform="scale(0.996264)" xlink:href="#CMR17-46"/>
      <use transform="translate(52.176591 0)scale(0.996264)" xlink:href="#CMR17-72"/>
      <use transform="translate(84.854951 0)scale(0.996264)" xlink:href="#CMR17-13"/>
      <use transform="translate(87.457359 0)scale(0.996264)" xlink:href="#CMR17-65"/>
      <use transform="translate(127.943019 0)scale(0.996264)" xlink:href="#CMR17-71"/>
      <use transform="translate(176.235935 0)scale(0.996264)" xlink:href="#CMR17-75"/>
      <use transform="translate(227.131305 0)scale(0.996264)" xlink:href="#CMR17-65"/>
      <use transform="translate(267.616966 0)scale(0.996264)" xlink:href="#CMR17-6e"/>
      <use transform="translate(318.512335 0)scale(0.996264)" xlink:href="#CMR17-63"/>
      <use transform="translate(358.997996 0)scale(0.996264)" xlink:href="#CMR17-65"/>
      <use transform="translate(429.559623 0)scale(0.996264)" xlink:href="#CMR17-28"/>
      <use transform="translate(464.84039 0)scale(0.996264)" xlink:href="#CMR17-48"/>
      <use transform="translate(533.91282 0)scale(0.996264)" xlink:href="#CMR17-7a"/>
      <use transform="translate(574.398481 0)scale(0.996264)" xlink:href="#CMR17-29"/>
     </g>
    </g>
   </g>
   <g id="matplotlib.axis_2">
    <g id="ytick_1">
     <g id="line2d_19">
      <path clip-path="url(#pd024fdedad)" d="M 56.403827 374.018156 
L 726.003827 374.018156 
" style="fill:none;stroke:#b0b0b0;stroke-linecap:square;stroke-width:0.8;"/>
     </g>
     <g id="line2d_20">
      <defs>
       <path d="M 0 0 
L -3.5 0 
" id="m69e7b2d558" style="stroke:#000000;stroke-width:0.8;"/>
      </defs>
      <g>
       <use style="stroke:#000000;stroke-width:0.8;" x="56.403827" xlink:href="#m69e7b2d558" y="374.018156"/>
      </g>
     </g>
     <g id="text_11">
      <!-- $\mathdefault{−0.5}$ -->
      <g transform="translate(25.147696 378.169246)scale(0.12 -0.12)">
       <defs>
        <path d="M 4218 1472 
C 4326 1472 4442 1472 4442 1600 
C 4442 1728 4326 1728 4218 1728 
L 755 1728 
C 646 1728 531 1728 531 1600 
C 531 1472 646 1472 755 1472 
L 4218 1472 
z
" id="CMSY10-0" transform="scale(0.015625)"/>
        <path d="M 1178 307 
C 1178 492 1024 619 870 619 
C 685 619 557 466 557 313 
C 557 128 710 0 864 0 
C 1050 0 1178 153 1178 307 
z
" id="CMMI12-3a" transform="scale(0.015625)"/>
       </defs>
       <use transform="scale(0.996264)" xlink:href="#CMSY10-0"/>
       <use transform="translate(77.487468 0)scale(0.996264)" xlink:href="#CMR17-30"/>
       <use transform="translate(123.177945 0)scale(0.996264)" xlink:href="#CMMI12-3a"/>
       <use transform="translate(150.275122 0)scale(0.996264)" xlink:href="#CMR17-35"/>
      </g>
     </g>
    </g>
    <g id="ytick_2">
     <g id="line2d_21">
      <path clip-path="url(#pd024fdedad)" d="M 56.403827 316.536012 
L 726.003827 316.536012 
" style="fill:none;stroke:#b0b0b0;stroke-linecap:square;stroke-width:0.8;"/>
     </g>
     <g id="line2d_22">
      <g>
       <use style="stroke:#000000;stroke-width:0.8;" x="56.403827" xlink:href="#m69e7b2d558" y="316.536012"/>
      </g>
     </g>
     <g id="text_12">
      <!-- $\mathdefault{0.0}$ -->
      <g transform="translate(34.446186 320.687101)scale(0.12 -0.12)">
       <use transform="scale(0.996264)" xlink:href="#CMR17-30"/>
       <use transform="translate(45.690477 0)scale(0.996264)" xlink:href="#CMMI12-3a"/>
       <use transform="translate(72.787654 0)scale(0.996264)" xlink:href="#CMR17-30"/>
      </g>
     </g>
    </g>
    <g id="ytick_3">
     <g id="line2d_23">
      <path clip-path="url(#pd024fdedad)" d="M 56.403827 259.053867 
L 726.003827 259.053867 
" style="fill:none;stroke:#b0b0b0;stroke-linecap:square;stroke-width:0.8;"/>
     </g>
     <g id="line2d_24">
      <g>
       <use style="stroke:#000000;stroke-width:0.8;" x="56.403827" xlink:href="#m69e7b2d558" y="259.053867"/>
      </g>
     </g>
     <g id="text_13">
      <!-- $\mathdefault{0.5}$ -->
      <g transform="translate(34.446186 263.204957)scale(0.12 -0.12)">
       <use transform="scale(0.996264)" xlink:href="#CMR17-30"/>
       <use transform="translate(45.690477 0)scale(0.996264)" xlink:href="#CMMI12-3a"/>
       <use transform="translate(72.787654 0)scale(0.996264)" xlink:href="#CMR17-35"/>
      </g>
     </g>
    </g>
    <g id="ytick_4">
     <g id="line2d_25">
      <path clip-path="url(#pd024fdedad)" d="M 56.403827 201.571723 
L 726.003827 201.571723 
" style="fill:none;stroke:#b0b0b0;stroke-linecap:square;stroke-width:0.8;"/>
     </g>
     <g id="line2d_26">
      <g>
       <use style="stroke:#000000;stroke-width:0.8;" x="56.403827" xlink:href="#m69e7b2d558" y="201.571723"/>
      </g>
     </g>
     <g id="text_14">
      <!-- $\mathdefault{1.0}$ -->
      <g transform="translate(34.446186 205.722813)scale(0.12 -0.12)">
       <use transform="scale(0.996264)" xlink:href="#CMR17-31"/>
       <use transform="translate(45.690477 0)scale(0.996264)" xlink:href="#CMMI12-3a"/>
       <use transform="translate(72.787654 0)scale(0.996264)" xlink:href="#CMR17-30"/>
      </g>
     </g>
    </g>
    <g id="ytick_5">
     <g id="line2d_27">
      <path clip-path="url(#pd024fdedad)" d="M 56.403827 144.089578 
L 726.003827 144.089578 
" style="fill:none;stroke:#b0b0b0;stroke-linecap:square;stroke-width:0.8;"/>
     </g>
     <g id="line2d_28">
      <g>
       <use style="stroke:#000000;stroke-width:0.8;" x="56.403827" xlink:href="#m69e7b2d558" y="144.089578"/>
      </g>
     </g>
     <g id="text_15">
      <!-- $\mathdefault{1.5}$ -->
      <g transform="translate(34.446186 148.240668)scale(0.12 -0.12)">
       <use transform="scale(0.996264)" xlink:href="#CMR17-31"/>
       <use transform="translate(45.690477 0)scale(0.996264)" xlink:href="#CMMI12-3a"/>
       <use transform="translate(72.787654 0)scale(0.996264)" xlink:href="#CMR17-35"/>
      </g>
     </g>
    </g>
    <g id="ytick_6">
     <g id="line2d_29">
      <path clip-path="url(#pd024fdedad)" d="M 56.403827 86.607434 
L 726.003827 86.607434 
" style="fill:none;stroke:#b0b0b0;stroke-linecap:square;stroke-width:0.8;"/>
     </g>
     <g id="line2d_30">
      <g>
       <use style="stroke:#000000;stroke-width:0.8;" x="56.403827" xlink:href="#m69e7b2d558" y="86.607434"/>
      </g>
     </g>
     <g id="text_16">
      <!-- $\mathdefault{2.0}$ -->
      <g transform="translate(34.446186 90.758524)scale(0.12 -0.12)">
       <use transform="scale(0.996264)" xlink:href="#CMR17-32"/>
       <use transform="translate(45.690477 0)scale(0.996264)" xlink:href="#CMMI12-3a"/>
       <use transform="translate(72.787654 0)scale(0.996264)" xlink:href="#CMR17-30"/>
      </g>
     </g>
    </g>
    <g id="ytick_7">
     <g id="line2d_31">
      <path clip-path="url(#pd024fdedad)" d="M 56.403827 29.125289 
L 726.003827 29.125289 
" style="fill:none;stroke:#b0b0b0;stroke-linecap:square;stroke-width:0.8;"/>
     </g>
     <g id="line2d_32">
      <g>
       <use style="stroke:#000000;stroke-width:0.8;" x="56.403827" xlink:href="#m69e7b2d558" y="29.125289"/>
      </g>
     </g>
     <g id="text_17">
      <!-- $\mathdefault{2.5}$ -->
      <g transform="translate(34.446186 33.276379)scale(0.12 -0.12)">
       <use transform="scale(0.996264)" xlink:href="#CMR17-32"/>
       <use transform="translate(45.690477 0)scale(0.996264)" xlink:href="#CMMI12-3a"/>
       <use transform="translate(72.787654 0)scale(0.996264)" xlink:href="#CMR17-35"/>
      </g>
     </g>
    </g>
    <g id="text_18">
     <!-- Phase (rad) -->
     <g transform="translate(17.660772 232.492736)rotate(-90)scale(0.14 -0.14)">
      <defs>
       <path d="M 1267 2042 
L 2291 2042 
C 3117 2042 3718 2578 3718 3184 
C 3718 3791 3130 4352 2291 4352 
L 333 4352 
L 333 4186 
C 774 4186 845 4186 845 3899 
L 845 446 
C 845 160 774 160 333 160 
L 333 0 
C 518 0 858 0 1056 0 
C 1254 0 1594 0 1779 0 
L 1779 160 
C 1338 160 1267 160 1267 446 
L 1267 2042 
z
M 1254 2176 
L 1254 3938 
C 1254 4155 1267 4186 1523 4186 
L 2170 4186 
C 2995 4186 3232 3714 3232 3184 
C 3232 2604 2950 2176 2170 2176 
L 1254 2176 
z
" id="CMR17-50" transform="scale(0.015625)"/>
       <path d="M 2656 1933 
C 2656 2259 2592 2790 1837 2790 
C 1312 2790 1056 2368 979 2157 
L 973 2157 
L 973 4396 
L 211 4326 
L 211 4160 
C 589 4160 646 4122 646 3817 
L 646 426 
C 646 184 621 153 211 153 
L 211 -13 
C 365 0 646 0 813 0 
C 979 0 1267 0 1421 -13 
L 1421 153 
C 1011 153 986 178 986 428 
L 986 1658 
C 986 2247 1344 2688 1792 2688 
C 2266 2688 2317 2266 2317 1958 
L 2317 428 
C 2317 184 2291 153 1882 153 
L 1882 -13 
C 2035 0 2317 0 2483 0 
C 2650 0 2938 0 3091 -13 
L 3091 153 
C 2682 153 2656 178 2656 428 
L 2656 1933 
z
" id="CMR17-68" transform="scale(0.015625)"/>
       <path d="M 2304 1653 
C 2304 2072 2304 2294 2035 2543 
C 1798 2752 1523 2816 1306 2816 
C 800 2816 435 2407 435 1971 
C 435 1728 627 1728 666 1728 
C 749 1728 896 1778 896 1954 
C 896 2112 774 2181 666 2181 
C 640 2181 608 2174 589 2168 
C 723 2592 1069 2714 1293 2714 
C 1613 2714 1965 2429 1965 1885 
L 1965 1600 
C 1587 1600 1133 1549 774 1357 
C 371 1133 256 813 256 570 
C 256 77 832 -64 1171 -64 
C 1523 -64 1850 139 1990 511 
C 2003 233 2182 -18 2464 -18 
C 2598 -18 2938 70 2938 567 
L 2938 920 
L 2822 920 
L 2822 562 
C 2822 178 2650 128 2566 128 
C 2304 128 2304 458 2304 738 
L 2304 1653 
z
M 1965 870 
C 1965 317 1568 38 1216 38 
C 896 38 646 275 646 570 
C 646 761 730 1100 1101 1305 
C 1408 1478 1760 1504 1965 1504 
L 1965 870 
z
" id="CMR17-61" transform="scale(0.015625)"/>
       <path d="M 1978 2697 
C 1978 2813 1971 2819 1933 2819 
C 1907 2819 1901 2813 1824 2717 
C 1805 2691 1747 2626 1728 2601 
C 1523 2819 1235 2819 1126 2819 
C 416 2819 160 2447 160 2076 
C 160 1498 813 1365 998 1325 
C 1402 1243 1542 1217 1677 1101 
C 1760 1025 1901 884 1901 654 
C 1901 384 1747 38 1158 38 
C 602 38 403 460 288 1021 
C 269 1110 269 1117 218 1117 
C 166 1117 160 1110 160 983 
L 160 63 
C 160 -51 166 -58 205 -58 
C 237 -58 243 -51 275 0 
C 314 57 410 211 448 276 
C 576 103 800 -64 1158 -64 
C 1792 -64 2131 283 2131 784 
C 2131 1112 1958 1285 1875 1362 
C 1683 1561 1459 1606 1190 1657 
C 838 1735 390 1825 390 2217 
C 390 2383 480 2737 1126 2737 
C 1811 2737 1850 2094 1862 1888 
C 1869 1856 1901 1849 1920 1849 
C 1978 1849 1978 1869 1978 1978 
L 1978 2697 
z
" id="CMR17-73" transform="scale(0.015625)"/>
       <path d="M 1869 4326 
L 1869 4160 
C 2246 4160 2304 4122 2304 3820 
L 2304 2345 
C 2278 2377 2016 2790 1498 2790 
C 845 2790 211 2208 211 1364 
C 211 525 806 -64 1434 -64 
C 1978 -64 2259 337 2291 380 
L 2291 -63 
L 3066 -63 
L 3066 128 
C 2688 128 2630 166 2630 473 
L 2630 4396 
L 1869 4326 
z
M 2291 755 
C 2291 563 2176 390 2029 262 
C 1811 70 1594 38 1472 38 
C 1286 38 621 134 621 1356 
C 621 2612 1363 2688 1530 2688 
C 1824 2688 2061 2522 2208 2291 
C 2291 2157 2291 2138 2291 2023 
L 2291 755 
z
" id="CMR17-64" transform="scale(0.015625)"/>
      </defs>
      <use transform="scale(0.996264)" xlink:href="#CMR17-50"/>
      <use transform="translate(62.586301 0)scale(0.996264)" xlink:href="#CMR17-68"/>
      <use transform="translate(113.48167 0)scale(0.996264)" xlink:href="#CMR17-61"/>
      <use transform="translate(159.172147 0)scale(0.996264)" xlink:href="#CMR17-73"/>
      <use transform="translate(194.973485 0)scale(0.996264)" xlink:href="#CMR17-65"/>
      <use transform="translate(265.535112 0)scale(0.996264)" xlink:href="#CMR17-28"/>
      <use transform="translate(300.81588 0)scale(0.996264)" xlink:href="#CMR17-72"/>
      <use transform="translate(336.096647 0)scale(0.996264)" xlink:href="#CMR17-61"/>
      <use transform="translate(381.787125 0)scale(0.996264)" xlink:href="#CMR17-64"/>
      <use transform="translate(432.682494 0)scale(0.996264)" xlink:href="#CMR17-29"/>
     </g>
    </g>
   </g>
   <g id="line2d_33">
    <path clip-path="url(#pd024fdedad)" d="M 86.840191 316.536012 
L 89.899122 297.134133 
L 92.958053 251.682746 
L 99.075915 139.778083 
L 102.134846 91.603483 
L 105.193777 55.339749 
L 108.252708 32.919401 
L 111.311639 24.496364 
L 114.37057 28.961768 
L 117.429501 44.386986 
L 120.488432 68.391668 
L 123.547363 98.437789 
L 126.606294 132.053578 
L 132.724156 201.341176 
L 135.783087 233.566093 
L 138.842018 262.539288 
L 141.900949 287.52059 
L 144.95988 308.123449 
L 148.018811 324.265606 
L 151.077742 336.11193 
L 154.136673 344.014788 
L 157.195604 348.45614 
L 160.254535 349.994467 
L 163.313466 349.218607 
L 166.372397 346.709695 
L 169.431328 343.011642 
L 172.490259 338.609986 
L 178.608122 329.272693 
L 181.667053 324.928845 
L 184.725984 321.067807 
L 187.784915 317.801941 
L 190.843846 315.184349 
L 193.902777 313.219297 
L 196.961708 311.87302 
L 200.020639 311.084211 
L 203.07957 310.77369 
L 206.138501 310.852901 
L 209.197432 311.231021 
L 212.256363 311.820601 
L 218.374225 313.324928 
L 224.492087 314.859767 
L 230.609949 316.113037 
L 236.727811 316.951233 
L 242.845673 317.374954 
L 248.963535 317.465708 
L 258.140328 317.227738 
L 276.493914 316.552829 
L 288.729638 316.389165 
L 307.083224 316.456836 
L 337.672534 316.560554 
L 612.976326 316.536012 
L 695.567464 316.536012 
L 695.567464 316.536012 
" style="fill:none;stroke:#1f77b4;stroke-linecap:square;stroke-width:1.5;"/>
   </g>
   <g id="line2d_34">
    <path clip-path="url(#pd024fdedad)" d="M 86.840191 316.536012 
L 89.899122 297.810307 
L 92.958053 255.993427 
L 96.016984 207.034918 
L 99.075915 160.934223 
L 102.134846 123.331532 
L 105.193777 96.783789 
L 108.252708 81.765803 
L 111.311639 77.436583 
L 114.37057 82.209494 
L 117.429501 94.16205 
L 120.488432 111.317591 
L 123.547363 131.827131 
L 132.724156 198.763483 
L 135.783087 219.416974 
L 138.842018 238.193207 
L 141.900949 254.806598 
L 144.95988 269.144665 
L 148.018811 281.228041 
L 151.077742 291.173878 
L 154.136673 299.163964 
L 157.195604 305.418168 
L 160.254535 310.173248 
L 163.313466 313.666702 
L 166.372397 316.125136 
L 169.431328 317.756475 
L 172.490259 318.745354 
L 175.549191 319.25101 
L 178.608122 319.407052 
L 181.667053 319.322597 
L 187.784915 318.758866 
L 200.020639 317.379327 
L 206.138501 316.896767 
L 212.256363 316.590693 
L 221.433156 316.388879 
L 236.727811 316.39764 
L 276.493914 316.540182 
L 671.096016 316.536012 
L 695.567464 316.536012 
L 695.567464 316.536012 
" style="fill:none;stroke:#ff7f0e;stroke-linecap:square;stroke-width:1.5;"/>
   </g>
   <g id="line2d_35">
    <path clip-path="url(#pd024fdedad)" d="M 86.840191 316.536012 
L 89.899122 311.068378 
L 92.958053 296.008604 
L 96.016984 273.572959 
L 99.075915 246.141167 
L 105.193777 185.852095 
L 108.252708 157.443561 
L 111.311639 132.735424 
L 114.37057 113.201949 
L 117.429501 99.910136 
L 120.488432 93.49703 
L 123.547363 94.170577 
L 126.606294 101.732278 
L 129.665225 115.618907 
L 132.724156 134.959779 
L 135.783087 158.645511 
L 138.842018 185.403912 
L 148.018811 270.587876 
L 151.077742 296.352913 
L 154.136673 319.010241 
L 157.195604 337.787451 
L 160.254535 352.155471 
L 163.313466 361.838923 
L 166.372397 366.812635 
L 169.431328 367.285509 
L 172.490259 363.673479 
L 175.549191 356.563761 
L 178.608122 346.672858 
L 181.667053 334.800934 
L 190.843846 295.588391 
L 193.902777 283.880271 
L 196.961708 273.90909 
L 200.020639 266.118012 
L 203.07957 260.801898 
L 206.138501 258.103248 
L 209.197432 258.016239 
L 212.256363 260.398056 
L 215.315294 264.98642 
L 218.374225 271.42196 
L 221.433156 279.273923 
L 224.492087 288.067672 
L 230.609949 306.527757 
L 233.66888 315.267741 
L 236.727811 323.141404 
L 239.786742 329.828977 
L 242.845673 335.093255 
L 245.904604 338.785891 
L 248.963535 340.848661 
L 252.022466 341.310002 
L 255.081397 340.27735 
L 258.140328 337.925966 
L 261.199259 334.485086 
L 264.25819 330.22231 
L 267.317121 325.427131 
L 273.434983 315.409608 
L 276.493914 310.733474 
L 279.552845 306.591877 
L 282.611776 303.16611 
L 285.670707 300.586998 
L 288.729638 298.931886 
L 291.788569 298.224593 
L 294.8475 298.43811 
L 297.906431 299.499713 
L 300.965362 301.298044 
L 304.024293 303.691667 
L 307.083224 306.518535 
L 319.318948 318.73892 
L 322.377879 321.246679 
L 325.43681 323.297123 
L 328.495741 324.820621 
L 331.554672 325.77948 
L 334.613603 326.167571 
L 337.672534 326.008365 
L 340.731466 325.351587 
L 343.790397 324.268764 
L 346.849328 322.847982 
L 349.908259 321.188166 
L 359.085052 315.804797 
L 362.143983 314.195317 
L 365.202914 312.810472 
L 368.261845 311.705947 
L 371.320776 310.918925 
L 374.379707 310.467525 
L 377.438638 310.351261 
L 380.497569 310.552423 
L 383.5565 311.038244 
L 386.615431 311.763674 
L 389.674362 312.674596 
L 395.792224 314.811764 
L 401.910086 316.965664 
L 404.969017 317.912885 
L 408.027948 318.716256 
L 411.086879 319.345296 
L 414.14581 319.780669 
L 417.204741 320.014362 
L 420.263672 320.049282 
L 423.322603 319.898311 
L 426.381534 319.582922 
L 432.499396 318.577159 
L 447.794051 315.515017 
L 453.911913 314.723713 
L 456.970844 314.498026 
L 460.029775 314.392166 
L 466.147637 314.52143 
L 472.265499 315.02233 
L 481.442292 316.136603 
L 490.619085 317.185352 
L 496.736947 317.629503 
L 502.85481 317.796216 
L 508.972672 317.692025 
L 515.090534 317.375419 
L 536.503051 315.958495 
L 542.620913 315.796206 
L 548.738775 315.800551 
L 557.915568 316.059744 
L 579.328085 316.89339 
L 588.504878 316.983398 
L 600.740602 316.800068 
L 625.21205 316.283897 
L 637.447774 316.31045 
L 677.213878 316.68235 
L 695.567464 316.53098 
L 695.567464 316.53098 
" style="fill:none;stroke:#2ca02c;stroke-linecap:square;stroke-width:1.5;"/>
   </g>
   <g id="line2d_36">
    <path clip-path="url(#pd024fdedad)" d="M 86.840191 247.97435 
L 89.899122 261.175737 
L 92.958053 267.921504 
L 96.016984 269.536707 
L 99.075915 267.186076 
L 102.134846 261.886182 
L 105.193777 254.516943 
L 108.252708 245.832542 
L 117.429501 217.759798 
L 120.488432 209.197137 
L 123.547363 201.553439 
L 126.606294 195.032154 
L 129.665225 189.775077 
L 132.724156 185.869889 
L 135.783087 183.357295 
L 138.842018 182.237728 
L 141.900949 182.477636 
L 144.95988 184.015322 
L 148.018811 186.766347 
L 151.077742 190.628495 
L 154.136673 195.486289 
L 157.195604 201.215071 
L 160.254535 207.684653 
L 163.313466 214.76255 
L 166.372397 222.316794 
L 172.490259 238.343271 
L 181.667053 262.926277 
L 187.784915 278.514697 
L 190.843846 285.82983 
L 193.902777 292.744181 
L 196.961708 299.210015 
L 200.020639 305.189937 
L 203.07957 310.656471 
L 206.138501 315.591531 
L 209.197432 319.985784 
L 212.256363 323.837961 
L 215.315294 327.154097 
L 218.374225 329.946748 
L 221.433156 332.234187 
L 224.492087 334.039591 
L 227.551018 335.390241 
L 230.609949 336.316745 
L 233.66888 336.85228 
L 236.727811 337.031886 
L 239.786742 336.891793 
L 242.845673 336.468805 
L 245.904604 335.799735 
L 248.963535 334.9209 
L 252.022466 333.867667 
L 258.140328 331.372465 
L 264.25819 328.564752 
L 276.493914 322.83876 
L 282.611776 320.235386 
L 288.729638 317.948499 
L 294.8475 316.038912 
L 300.965362 314.534768 
L 307.083224 313.436597 
L 313.201086 312.722856 
L 319.318948 312.355518 
L 325.43681 312.285443 
L 331.554672 312.457251 
L 340.731466 313.043317 
L 352.96719 314.155742 
L 371.320776 315.844169 
L 380.497569 316.498308 
L 389.674362 316.970848 
L 398.851155 317.259531 
L 411.086879 317.393911 
L 426.381534 317.274552 
L 490.619085 316.375197 
L 521.208396 316.410215 
L 591.563809 316.570655 
L 695.567464 316.530677 
L 695.567464 316.530677 
" style="fill:none;stroke:#d62728;stroke-linecap:square;stroke-width:1.5;"/>
   </g>
   <g id="line2d_37">
    <path clip-path="url(#pd024fdedad)" d="M 86.840191 230.691456 
L 89.899122 238.140769 
L 92.958053 236.076956 
L 96.016984 226.30038 
L 99.075915 210.833202 
L 102.134846 191.80418 
L 108.252708 151.424224 
L 111.311639 133.865352 
L 114.37057 120.152213 
L 117.429501 111.426588 
L 120.488432 108.439354 
L 123.547363 111.536243 
L 126.606294 120.666233 
L 129.665225 135.410842 
L 132.724156 155.031553 
L 135.783087 178.531757 
L 138.842018 204.729008 
L 148.018811 286.534065 
L 151.077742 310.704893 
L 154.136673 331.557641 
L 157.195604 348.332422 
L 160.254535 360.519992 
L 163.313466 367.876654 
L 166.372397 370.423636 
L 169.431328 368.431887 
L 172.490259 362.393965 
L 175.549191 352.985309 
L 178.608122 341.017636 
L 181.667053 327.387468 
L 187.784915 298.831645 
L 190.843846 285.653081 
L 193.902777 274.216794 
L 196.961708 265.109425 
L 200.020639 258.751228 
L 203.07957 255.383035 
L 206.138501 255.063768 
L 209.197432 257.678024 
L 212.256363 262.952735 
L 215.315294 270.481492 
L 218.374225 279.754735 
L 221.433156 290.193853 
L 227.551018 312.125083 
L 230.609949 322.434487 
L 233.66888 331.607305 
L 236.727811 339.225225 
L 239.786742 344.977512 
L 242.845673 348.671992 
L 245.904604 350.2389 
L 248.963535 349.727783 
L 252.022466 347.29805 
L 255.081397 343.204017 
L 258.140328 337.775628 
L 261.199259 331.396107 
L 270.376052 310.678491 
L 273.434983 304.55753 
L 276.493914 299.38054 
L 279.552845 295.382336 
L 282.611776 292.719213 
L 285.670707 291.464939 
L 288.729638 291.611486 
L 291.788569 293.074199 
L 294.8475 295.700861 
L 297.906431 299.283941 
L 300.965362 303.575162 
L 313.201086 322.328656 
L 316.260017 326.12708 
L 319.318948 329.163787 
L 322.377879 331.31772 
L 325.43681 332.523002 
L 328.495741 332.769376 
L 331.554672 332.099594 
L 334.613603 330.604034 
L 337.672534 328.413029 
L 340.731466 325.687435 
L 343.790397 322.608084 
L 349.908259 316.145145 
L 352.96719 313.124972 
L 356.026121 310.458781 
L 359.085052 308.272833 
L 362.143983 306.659784 
L 365.202914 305.67555 
L 368.261845 305.33835 
L 371.320776 305.629882 
L 374.379707 306.498421 
L 377.438638 307.863575 
L 380.497569 309.622337 
L 383.5565 311.65603 
L 392.733293 318.14009 
L 395.792224 320.030163 
L 398.851155 321.61852 
L 401.910086 322.83563 
L 404.969017 323.636277 
L 408.027948 324.000643 
L 411.086879 323.933935 
L 414.14581 323.464662 
L 417.204741 322.641742 
L 420.263672 321.530647 
L 423.322603 320.208867 
L 435.558327 314.508358 
L 438.617258 313.372593 
L 441.676189 312.474805 
L 444.73512 311.850554 
L 447.794051 311.518371 
L 450.852982 311.47972 
L 453.911913 311.719899 
L 456.970844 312.209774 
L 460.029775 312.908203 
L 466.147637 314.724105 
L 475.32443 317.639438 
L 478.383361 318.448517 
L 481.442292 319.106218 
L 484.501223 319.58522 
L 487.560154 319.869556 
L 490.619085 319.954839 
L 493.678016 319.847837 
L 496.736947 319.565459 
L 499.795878 319.133252 
L 505.913741 317.953078 
L 515.090534 315.967455 
L 521.208396 314.919356 
L 524.267327 314.558785 
L 527.326258 314.327182 
L 530.385189 314.229831 
L 533.44412 314.264362 
L 539.561982 314.685063 
L 545.679844 315.447106 
L 557.915568 317.195423 
L 564.03343 317.805874 
L 570.151292 318.081747 
L 576.269154 318.002481 
L 582.387016 317.624325 
L 594.62274 316.448585 
L 600.740602 315.923716 
L 606.858464 315.585842 
L 612.976326 315.485001 
L 619.094188 315.615918 
L 628.270981 316.12103 
L 643.565636 317.046046 
L 649.683498 317.219912 
L 655.80136 317.230885 
L 664.978153 316.984905 
L 686.390671 316.138418 
L 695.567464 316.061297 
L 695.567464 316.061297 
" style="fill:none;stroke:#9467bd;stroke-linecap:square;stroke-width:1.5;"/>
   </g>
   <g id="patch_3">
    <path d="M 56.403827 387.72 
L 56.403827 7.2 
" style="fill:none;stroke:#000000;stroke-linecap:square;stroke-linejoin:miter;stroke-width:0.8;"/>
   </g>
   <g id="patch_4">
    <path d="M 726.003827 387.72 
L 726.003827 7.2 
" style="fill:none;stroke:#000000;stroke-linecap:square;stroke-linejoin:miter;stroke-width:0.8;"/>
   </g>
   <g id="patch_5">
    <path d="M 56.403827 387.72 
L 726.003827 387.72 
" style="fill:none;stroke:#000000;stroke-linecap:square;stroke-linejoin:miter;stroke-width:0.8;"/>
   </g>
   <g id="patch_6">
    <path d="M 56.403827 7.2 
L 726.003827 7.2 
" style="fill:none;stroke:#000000;stroke-linecap:square;stroke-linejoin:miter;stroke-width:0.8;"/>
   </g>
   <g id="legend_1">
    <g id="patch_7">
     <path d="M 586.436748 115.960142 
L 716.203827 115.960142 
Q 719.003827 115.960142 719.003827 113.160142 
L 719.003827 17 
Q 719.003827 14.2 716.203827 14.2 
L 586.436748 14.2 
Q 583.636748 14.2 583.636748 17 
L 583.636748 113.160142 
Q 583.636748 115.960142 586.436748 115.960142 
z
" style="fill:#ffffff;opacity:0.8;stroke:#cccccc;stroke-linejoin:miter;"/>
    </g>
    <g id="line2d_38">
     <path d="M 589.236748 24.7 
L 617.236748 24.7 
" style="fill:none;stroke:#1f77b4;stroke-linecap:square;stroke-width:1.5;"/>
    </g>
    <g id="line2d_39"/>
    <g id="text_19">
     <!-- Butterworth -->
     <g transform="translate(628.436748 29.6)scale(0.14 -0.14)">
      <defs>
       <path d="M 333 4352 
L 333 4186 
C 774 4186 845 4186 845 3900 
L 845 452 
C 845 166 774 166 333 166 
L 333 0 
L 2534 0 
C 3354 0 3885 583 3885 1164 
C 3885 1741 3360 2233 2675 2233 
C 3290 2356 3718 2771 3718 3264 
C 3718 3802 3194 4352 2368 4352 
L 333 4352 
z
M 1248 2304 
L 1248 3937 
C 1248 4155 1261 4186 1517 4186 
L 2336 4186 
C 2970 4186 3251 3674 3251 3277 
C 3251 2791 2861 2304 2170 2304 
L 1248 2304 
z
M 1517 166 
C 1261 166 1248 197 1248 413 
L 1248 2202 
L 2432 2202 
C 3091 2202 3411 1625 3411 1162 
C 3411 699 3046 166 2349 166 
L 1517 166 
z
" id="CMR17-42" transform="scale(0.015625)"/>
       <path d="M 966 2560 
L 1862 2560 
L 1862 2725 
L 966 2725 
L 966 3904 
L 851 3904 
C 838 3245 614 2668 70 2668 
L 70 2560 
L 627 2560 
L 627 771 
C 627 650 627 -64 1370 -64 
C 1747 -64 1965 306 1965 777 
L 1965 1140 
L 1850 1140 
L 1850 783 
C 1850 344 1677 51 1408 51 
C 1222 51 966 178 966 758 
L 966 2560 
z
" id="CMR17-74" transform="scale(0.015625)"/>
       <path d="M 3725 2183 
C 3853 2560 4109 2560 4205 2560 
L 4205 2732 
C 4077 2732 3949 2732 3821 2732 
C 3699 2732 3424 2732 3315 2738 
L 3315 2560 
C 3514 2560 3622 2445 3622 2286 
C 3622 2241 3610 2184 3597 2140 
L 2995 407 
L 2342 2275 
C 2330 2319 2310 2370 2310 2395 
C 2310 2560 2528 2560 2630 2560 
L 2630 2738 
C 2483 2732 2214 2732 2061 2732 
C 1901 2732 1734 2732 1587 2738 
L 1587 2560 
C 1939 2560 1939 2547 2074 2149 
L 1485 451 
L 851 2281 
C 819 2363 819 2376 819 2395 
C 819 2560 1037 2560 1139 2560 
L 1139 2738 
C 986 2732 717 2732 557 2732 
C 416 2732 198 2732 64 2738 
L 64 2560 
C 346 2560 416 2541 486 2331 
L 1274 49 
C 1299 -33 1318 -52 1370 -52 
C 1414 -52 1440 -39 1472 56 
L 2131 1980 
L 2797 56 
C 2829 -39 2854 -52 2899 -52 
C 2950 -52 2970 -33 2995 50 
L 3725 2183 
z
" id="CMR17-77" transform="scale(0.015625)"/>
       <path d="M 2758 1356 
C 2758 2176 2163 2816 1466 2816 
C 768 2816 173 2176 173 1356 
C 173 551 768 -64 1466 -64 
C 2163 -64 2758 551 2758 1356 
z
M 1466 51 
C 1165 51 909 230 762 480 
C 602 767 582 1126 582 1408 
C 582 1677 595 2010 762 2298 
C 890 2509 1139 2714 1466 2714 
C 1754 2714 1997 2554 2150 2330 
C 2349 2029 2349 1607 2349 1408 
C 2349 1158 2336 775 2163 467 
C 1984 173 1709 51 1466 51 
z
" id="CMR17-6f" transform="scale(0.015625)"/>
      </defs>
      <use transform="scale(0.996264)" xlink:href="#CMR17-42"/>
      <use transform="translate(65.188754 0)scale(0.996264)" xlink:href="#CMR17-75"/>
      <use transform="translate(116.084124 0)scale(0.996264)" xlink:href="#CMR17-74"/>
      <use transform="translate(151.364892 0)scale(0.996264)" xlink:href="#CMR17-74"/>
      <use transform="translate(186.64566 0)scale(0.996264)" xlink:href="#CMR17-65"/>
      <use transform="translate(227.13132 0)scale(0.996264)" xlink:href="#CMR17-72"/>
      <use transform="translate(262.412088 0)scale(0.996264)" xlink:href="#CMR17-77"/>
      <use transform="translate(326.319515 0)scale(0.996264)" xlink:href="#CMR17-6f"/>
      <use transform="translate(372.009992 0)scale(0.996264)" xlink:href="#CMR17-72"/>
      <use transform="translate(407.29076 0)scale(0.996264)" xlink:href="#CMR17-74"/>
      <use transform="translate(442.571527 0)scale(0.996264)" xlink:href="#CMR17-68"/>
     </g>
    </g>
    <g id="line2d_40">
     <path d="M 589.236748 44.212028 
L 617.236748 44.212028 
" style="fill:none;stroke:#ff7f0e;stroke-linecap:square;stroke-width:1.5;"/>
    </g>
    <g id="line2d_41"/>
    <g id="text_20">
     <!-- Bessel -->
     <g transform="translate(628.436748 49.112028)scale(0.14 -0.14)">
      <defs>
       <path d="M 979 4396 
L 218 4326 
L 218 4160 
C 595 4160 653 4122 653 3817 
L 653 426 
C 653 184 627 153 218 153 
L 218 -13 
C 371 0 653 0 813 0 
C 979 0 1261 0 1414 -13 
L 1414 153 
C 1005 153 979 178 979 426 
L 979 4396 
z
" id="CMR17-6c" transform="scale(0.015625)"/>
      </defs>
      <use transform="scale(0.996264)" xlink:href="#CMR17-42"/>
      <use transform="translate(65.188754 0)scale(0.996264)" xlink:href="#CMR17-65"/>
      <use transform="translate(105.674415 0)scale(0.996264)" xlink:href="#CMR17-73"/>
      <use transform="translate(141.475753 0)scale(0.996264)" xlink:href="#CMR17-73"/>
      <use transform="translate(177.27709 0)scale(0.996264)" xlink:href="#CMR17-65"/>
      <use transform="translate(217.762751 0)scale(0.996264)" xlink:href="#CMR17-6c"/>
     </g>
    </g>
    <g id="line2d_42">
     <path d="M 589.236748 63.724057 
L 617.236748 63.724057 
" style="fill:none;stroke:#2ca02c;stroke-linecap:square;stroke-width:1.5;"/>
    </g>
    <g id="line2d_43"/>
    <g id="text_21">
     <!-- Tchebychev I -->
     <g transform="translate(628.436748 68.624057)scale(0.14 -0.14)">
      <defs>
       <path d="M 3981 4326 
L 288 4326 
L 179 2918 
L 294 2918 
C 378 3976 467 4160 1453 4160 
C 1568 4160 1754 4160 1805 4154 
C 1926 4135 1926 4058 1926 3912 
L 1926 459 
C 1926 230 1907 160 1376 160 
L 1197 160 
L 1197 0 
C 1504 0 1824 0 2138 0 
C 2451 0 2771 0 3078 0 
L 3078 160 
L 2899 160 
C 2368 160 2349 230 2349 459 
L 2349 3912 
C 2349 4052 2349 4129 2464 4154 
C 2515 4160 2701 4160 2816 4160 
C 3795 4160 3891 3976 3974 2918 
L 4090 2918 
L 3981 4326 
z
" id="CMR17-54" transform="scale(0.015625)"/>
       <path d="M 960 4396 
L 198 4326 
L 198 4160 
C 576 4160 634 4122 634 3817 
L 634 -13 
L 749 -13 
L 934 441 
C 1120 141 1395 -64 1766 -64 
C 2406 -64 3053 500 3053 1370 
C 3053 2188 2477 2790 1830 2790 
C 1434 2790 1152 2579 960 2330 
L 960 4396 
z
M 973 2004 
C 973 2118 973 2138 1062 2272 
C 1312 2657 1670 2688 1792 2688 
C 1984 2688 2643 2585 2643 1376 
C 2643 108 1888 38 1734 38 
C 1536 38 1248 114 1043 486 
C 973 608 973 621 973 735 
L 973 2004 
z
" id="CMR17-62" transform="scale(0.015625)"/>
       <path d="M 2496 2197 
C 2656 2586 2944 2586 3034 2586 
L 3034 2752 
C 2912 2752 2752 2752 2630 2752 
C 2496 2752 2285 2752 2157 2758 
L 2157 2592 
C 2400 2573 2406 2394 2406 2343 
C 2406 2280 2394 2248 2362 2171 
L 1664 449 
L 902 2306 
C 870 2382 870 2426 870 2433 
C 870 2573 1018 2586 1171 2586 
L 1171 2758 
C 1018 2752 742 2752 582 2752 
C 410 2752 205 2752 64 2758 
L 64 2586 
C 410 2586 448 2554 531 2350 
L 1485 15 
C 1197 -738 1030 -1178 627 -1178 
C 557 -1178 397 -1159 282 -1044 
C 429 -1031 493 -942 493 -833 
C 493 -725 416 -629 288 -629 
C 147 -629 77 -725 77 -840 
C 77 -1095 339 -1280 627 -1280 
C 998 -1280 1229 -922 1357 -604 
L 2496 2197 
z
" id="CMR17-79" transform="scale(0.015625)"/>
       <path d="M 2502 2163 
C 2560 2304 2662 2560 3034 2560 
L 3034 2726 
C 2912 2726 2752 2726 2630 2726 
C 2496 2726 2285 2726 2157 2732 
L 2157 2566 
C 2317 2553 2406 2477 2406 2311 
C 2406 2253 2406 2240 2368 2151 
L 1664 377 
L 902 2286 
C 864 2369 864 2381 864 2407 
C 864 2560 1075 2560 1171 2560 
L 1171 2732 
C 1018 2726 736 2726 576 2726 
C 403 2726 205 2726 64 2732 
L 64 2560 
C 307 2560 442 2560 518 2362 
L 1446 44 
C 1485 -51 1491 -64 1549 -64 
C 1606 -64 1613 -51 1651 44 
L 2502 2163 
z
" id="CMR17-76" transform="scale(0.015625)"/>
       <path d="M 1261 3905 
C 1261 4192 1338 4192 1798 4192 
L 1798 4352 
C 1594 4352 1267 4352 1050 4352 
C 832 4352 506 4352 301 4352 
L 301 4192 
C 762 4192 838 4192 838 3905 
L 838 447 
C 838 160 762 160 301 160 
L 301 0 
C 506 0 832 0 1050 0 
C 1267 0 1594 0 1798 0 
L 1798 160 
C 1338 160 1261 160 1261 447 
L 1261 3905 
z
" id="CMR17-49" transform="scale(0.015625)"/>
      </defs>
      <use transform="scale(0.996264)" xlink:href="#CMR17-54"/>
      <use transform="translate(66.509881 0)scale(0.996264)" xlink:href="#CMR17-63"/>
      <use transform="translate(104.393087 0)scale(0.996264)" xlink:href="#CMR17-68"/>
      <use transform="translate(155.288457 0)scale(0.996264)" xlink:href="#CMR17-65"/>
      <use transform="translate(195.774117 0)scale(0.996264)" xlink:href="#CMR17-62"/>
      <use transform="translate(244.067033 0)scale(0.996264)" xlink:href="#CMR17-79"/>
      <use transform="translate(292.359949 0)scale(0.996264)" xlink:href="#CMR17-63"/>
      <use transform="translate(330.243156 0)scale(0.996264)" xlink:href="#CMR17-68"/>
      <use transform="translate(381.138525 0)scale(0.996264)" xlink:href="#CMR17-65"/>
      <use transform="translate(421.624186 0)scale(0.996264)" xlink:href="#CMR17-76"/>
      <use transform="translate(499.993068 0)scale(0.996264)" xlink:href="#CMR17-49"/>
     </g>
    </g>
    <g id="line2d_44">
     <path d="M 589.236748 83.236085 
L 617.236748 83.236085 
" style="fill:none;stroke:#d62728;stroke-linecap:square;stroke-width:1.5;"/>
    </g>
    <g id="line2d_45"/>
    <g id="text_22">
     <!-- Tchebychev II -->
     <g transform="translate(628.436748 88.136085)scale(0.14 -0.14)">
      <use transform="scale(0.996264)" xlink:href="#CMR17-54"/>
      <use transform="translate(66.509881 0)scale(0.996264)" xlink:href="#CMR17-63"/>
      <use transform="translate(104.393087 0)scale(0.996264)" xlink:href="#CMR17-68"/>
      <use transform="translate(155.288457 0)scale(0.996264)" xlink:href="#CMR17-65"/>
      <use transform="translate(195.774117 0)scale(0.996264)" xlink:href="#CMR17-62"/>
      <use transform="translate(244.067033 0)scale(0.996264)" xlink:href="#CMR17-79"/>
      <use transform="translate(292.359949 0)scale(0.996264)" xlink:href="#CMR17-63"/>
      <use transform="translate(330.243156 0)scale(0.996264)" xlink:href="#CMR17-68"/>
      <use transform="translate(381.138525 0)scale(0.996264)" xlink:href="#CMR17-65"/>
      <use transform="translate(421.624186 0)scale(0.996264)" xlink:href="#CMR17-76"/>
      <use transform="translate(499.993068 0)scale(0.996264)" xlink:href="#CMR17-49"/>
      <use transform="translate(535.233916 0)scale(0.996264)" xlink:href="#CMR17-49"/>
     </g>
    </g>
    <g id="line2d_46">
     <path d="M 589.236748 102.748114 
L 617.236748 102.748114 
" style="fill:none;stroke:#9467bd;stroke-linecap:square;stroke-width:1.5;"/>
    </g>
    <g id="line2d_47"/>
    <g id="text_23">
     <!-- Elliptique -->
     <g transform="translate(628.436748 107.648114)scale(0.14 -0.14)">
      <defs>
       <path d="M 3885 1615 
L 3770 1615 
C 3629 676 3546 166 2419 166 
L 1530 166 
C 1274 166 1261 197 1261 414 
L 1261 2176 
L 1862 2176 
C 2464 2176 2522 1960 2522 1430 
L 2637 1430 
L 2637 3081 
L 2522 3081 
C 2522 2557 2464 2342 1862 2342 
L 1261 2342 
L 1261 3913 
C 1261 4128 1274 4160 1530 4160 
L 2406 4160 
C 3398 4160 3514 3769 3603 2929 
L 3718 2929 
L 3565 4325 
L 326 4325 
L 326 4160 
C 768 4160 838 4160 838 3874 
L 838 451 
C 838 166 768 166 326 166 
L 326 0 
L 3654 0 
L 3885 1615 
z
" id="CMR17-45" transform="scale(0.015625)"/>
       <path d="M 992 3909 
C 992 4049 877 4170 730 4170 
C 589 4170 467 4056 467 3909 
C 467 3769 582 3648 730 3648 
C 870 3648 992 3763 992 3909 
z
M 243 2706 
L 243 2541 
C 602 2541 653 2502 653 2197 
L 653 427 
C 653 184 627 153 218 153 
L 218 -13 
C 371 0 646 0 806 0 
C 960 0 1222 0 1370 -13 
L 1370 153 
C 992 153 979 191 979 420 
L 979 2776 
L 243 2706 
z
" id="CMR17-69" transform="scale(0.015625)"/>
       <path d="M 1408 -1063 
C 998 -1063 973 -1037 973 -789 
L 973 402 
C 1158 134 1427 -38 1766 -38 
C 2406 -38 3053 523 3053 1388 
C 3053 2191 2496 2802 1837 2802 
C 1453 2802 1139 2592 960 2338 
L 960 2802 
L 198 2732 
L 198 2567 
C 576 2567 634 2528 634 2223 
L 634 -789 
C 634 -1031 608 -1063 198 -1063 
L 198 -1228 
C 352 -1216 634 -1216 800 -1216 
C 966 -1216 1254 -1216 1408 -1228 
L 1408 -1063 
z
M 973 2012 
C 973 2102 973 2235 1222 2471 
C 1254 2497 1472 2688 1792 2688 
C 2259 2688 2643 2108 2643 1382 
C 2643 656 2234 64 1728 64 
C 1498 64 1248 172 1056 472 
C 973 612 973 650 973 752 
L 973 2012 
z
" id="CMR17-70" transform="scale(0.015625)"/>
      </defs>
      <use transform="scale(0.996264)" xlink:href="#CMR17-45"/>
      <use transform="translate(62.586301 0)scale(0.996264)" xlink:href="#CMR17-6c"/>
      <use transform="translate(87.457359 0)scale(0.996264)" xlink:href="#CMR17-6c"/>
      <use transform="translate(112.328417 0)scale(0.996264)" xlink:href="#CMR17-69"/>
      <use transform="translate(137.199476 0)scale(0.996264)" xlink:href="#CMR17-70"/>
      <use transform="translate(188.094846 0)scale(0.996264)" xlink:href="#CMR17-74"/>
      <use transform="translate(223.375614 0)scale(0.996264)" xlink:href="#CMR17-69"/>
      <use transform="translate(248.246672 0)scale(0.996264)" xlink:href="#CMR17-71"/>
      <use transform="translate(296.539588 0)scale(0.996264)" xlink:href="#CMR17-75"/>
      <use transform="translate(347.434958 0)scale(0.996264)" xlink:href="#CMR17-65"/>
     </g>
    </g>
   </g>
  </g>
 </g>
 <defs>
  <clipPath id="pd024fdedad">
   <rect height="380.52" width="669.6" x="56.403827" y="7.2"/>
  </clipPath>
 </defs>
</svg>
