<?xml version="1.0" encoding="utf-8" standalone="no"?>
<!DOCTYPE svg PUBLIC "-//W3C//DTD SVG 1.1//EN"
  "http://www.w3.org/Graphics/SVG/1.1/DTD/svg11.dtd">
<svg height="430.494472pt" version="1.1" viewBox="0 0 724.099176 430.494472" width="724.099176pt" xmlns="http://www.w3.org/2000/svg" xmlns:xlink="http://www.w3.org/1999/xlink">
 <metadata>
  <rdf:RDF xmlns:cc="http://creativecommons.org/ns#" xmlns:dc="http://purl.org/dc/elements/1.1/" xmlns:rdf="http://www.w3.org/1999/02/22-rdf-syntax-ns#">
   <cc:Work>
    <dc:type rdf:resource="http://purl.org/dc/dcmitype/StillImage"/>
    <dc:date>2021-10-01T14:54:14.179771</dc:date>
    <dc:format>image/svg+xml</dc:format>
    <dc:creator>
     <cc:Agent>
      <dc:title>Matplotlib v3.4.3, https://matplotlib.org/</dc:title>
     </cc:Agent>
    </dc:creator>
   </cc:Work>
  </rdf:RDF>
 </metadata>
 <defs>
  <style type="text/css">*{stroke-linecap:butt;stroke-linejoin:round;}</style>
 </defs>
 <g id="figure_1">
  <g id="patch_1">
   <path d="M 0 430.494472 
L 724.099176 430.494472 
L 724.099176 0 
L 0 0 
z
" style="fill:none;"/>
  </g>
  <g id="axes_1">
   <g id="patch_2">
    <path d="M 47.299176 387.72 
L 716.899176 387.72 
L 716.899176 7.2 
L 47.299176 7.2 
z
" style="fill:#ffffff;"/>
   </g>
   <g id="matplotlib.axis_1">
    <g id="xtick_1">
     <g id="line2d_1">
      <path clip-path="url(#pf23702476a)" d="M 142.560617 387.72 
L 142.560617 7.2 
" style="fill:none;stroke:#b0b0b0;stroke-linecap:square;stroke-width:0.8;"/>
     </g>
     <g id="line2d_2">
      <defs>
       <path d="M 0 0 
L 0 3.5 
" id="m793c353939" style="stroke:#000000;stroke-width:0.8;"/>
      </defs>
      <g>
       <use style="stroke:#000000;stroke-width:0.8;" x="142.560617" xlink:href="#m793c353939" y="387.72"/>
      </g>
     </g>
     <g id="text_1">
      <!-- $\mathdefault{10^{-1}}$ -->
      <g transform="translate(131.297282 403.02218)scale(0.12 -0.12)">
       <defs>
        <path d="M 1702 4058 
C 1702 4192 1696 4192 1606 4192 
C 1357 3916 979 3827 621 3827 
C 602 3827 570 3827 563 3808 
C 557 3795 557 3782 557 3648 
C 755 3648 1088 3686 1344 3839 
L 1344 461 
C 1344 236 1331 160 781 160 
L 589 160 
L 589 0 
C 896 0 1216 0 1523 0 
C 1830 0 2150 0 2458 0 
L 2458 160 
L 2266 160 
C 1715 160 1702 230 1702 458 
L 1702 4058 
z
" id="CMR17-31" transform="scale(0.015625)"/>
        <path d="M 2688 2025 
C 2688 2416 2682 3080 2413 3591 
C 2176 4039 1798 4198 1466 4198 
C 1158 4198 768 4058 525 3597 
C 269 3118 243 2524 243 2025 
C 243 1661 250 1106 448 619 
C 723 -39 1216 -128 1466 -128 
C 1760 -128 2208 -7 2470 600 
C 2662 1042 2688 1559 2688 2025 
z
M 1466 -26 
C 1056 -26 813 325 723 812 
C 653 1188 653 1738 653 2096 
C 653 2588 653 2997 736 3387 
C 858 3929 1216 4096 1466 4096 
C 1728 4096 2067 3923 2189 3400 
C 2272 3036 2278 2607 2278 2096 
C 2278 1680 2278 1169 2202 792 
C 2067 95 1690 -26 1466 -26 
z
" id="CMR17-30" transform="scale(0.015625)"/>
        <path d="M 4218 1472 
C 4326 1472 4442 1472 4442 1600 
C 4442 1728 4326 1728 4218 1728 
L 755 1728 
C 646 1728 531 1728 531 1600 
C 531 1472 646 1472 755 1472 
L 4218 1472 
z
" id="CMSY10-0" transform="scale(0.015625)"/>
       </defs>
       <use transform="scale(0.996264)" xlink:href="#CMR17-31"/>
       <use transform="translate(45.690477 0)scale(0.996264)" xlink:href="#CMR17-30"/>
       <use transform="translate(91.380954 36.153639)scale(0.697382)" xlink:href="#CMSY10-0"/>
       <use transform="translate(145.621947 36.153639)scale(0.697382)" xlink:href="#CMR17-31"/>
      </g>
     </g>
    </g>
    <g id="xtick_2">
     <g id="line2d_3">
      <path clip-path="url(#pf23702476a)" d="M 359.963215 387.72 
L 359.963215 7.2 
" style="fill:none;stroke:#b0b0b0;stroke-linecap:square;stroke-width:0.8;"/>
     </g>
     <g id="line2d_4">
      <g>
       <use style="stroke:#000000;stroke-width:0.8;" x="359.963215" xlink:href="#m793c353939" y="387.72"/>
      </g>
     </g>
     <g id="text_2">
      <!-- $\mathdefault{10^{0}}$ -->
      <g transform="translate(351.993133 403.02218)scale(0.12 -0.12)">
       <use transform="scale(0.996264)" xlink:href="#CMR17-31"/>
       <use transform="translate(45.690477 0)scale(0.996264)" xlink:href="#CMR17-30"/>
       <use transform="translate(91.380954 36.153639)scale(0.697382)" xlink:href="#CMR17-30"/>
      </g>
     </g>
    </g>
    <g id="xtick_3">
     <g id="line2d_5">
      <path clip-path="url(#pf23702476a)" d="M 577.365812 387.72 
L 577.365812 7.2 
" style="fill:none;stroke:#b0b0b0;stroke-linecap:square;stroke-width:0.8;"/>
     </g>
     <g id="line2d_6">
      <g>
       <use style="stroke:#000000;stroke-width:0.8;" x="577.365812" xlink:href="#m793c353939" y="387.72"/>
      </g>
     </g>
     <g id="text_3">
      <!-- $\mathdefault{10^{1}}$ -->
      <g transform="translate(569.39573 403.02218)scale(0.12 -0.12)">
       <use transform="scale(0.996264)" xlink:href="#CMR17-31"/>
       <use transform="translate(45.690477 0)scale(0.996264)" xlink:href="#CMR17-30"/>
       <use transform="translate(91.380954 36.153639)scale(0.697382)" xlink:href="#CMR17-31"/>
      </g>
     </g>
    </g>
    <g id="xtick_4">
     <g id="line2d_7">
      <path clip-path="url(#pf23702476a)" d="M 56.047426 387.72 
L 56.047426 7.2 
" style="fill:none;stroke:#b0b0b0;stroke-linecap:square;stroke-width:0.8;"/>
     </g>
     <g id="line2d_8">
      <defs>
       <path d="M 0 0 
L 0 2 
" id="m5ff3d38274" style="stroke:#000000;stroke-width:0.6;"/>
      </defs>
      <g>
       <use style="stroke:#000000;stroke-width:0.6;" x="56.047426" xlink:href="#m5ff3d38274" y="387.72"/>
      </g>
     </g>
    </g>
    <g id="xtick_5">
     <g id="line2d_9">
      <path clip-path="url(#pf23702476a)" d="M 77.115914 387.72 
L 77.115914 7.2 
" style="fill:none;stroke:#b0b0b0;stroke-linecap:square;stroke-width:0.8;"/>
     </g>
     <g id="line2d_10">
      <g>
       <use style="stroke:#000000;stroke-width:0.6;" x="77.115914" xlink:href="#m5ff3d38274" y="387.72"/>
      </g>
     </g>
    </g>
    <g id="xtick_6">
     <g id="line2d_11">
      <path clip-path="url(#pf23702476a)" d="M 94.330123 387.72 
L 94.330123 7.2 
" style="fill:none;stroke:#b0b0b0;stroke-linecap:square;stroke-width:0.8;"/>
     </g>
     <g id="line2d_12">
      <g>
       <use style="stroke:#000000;stroke-width:0.6;" x="94.330123" xlink:href="#m5ff3d38274" y="387.72"/>
      </g>
     </g>
    </g>
    <g id="xtick_7">
     <g id="line2d_13">
      <path clip-path="url(#pf23702476a)" d="M 108.884529 387.72 
L 108.884529 7.2 
" style="fill:none;stroke:#b0b0b0;stroke-linecap:square;stroke-width:0.8;"/>
     </g>
     <g id="line2d_14">
      <g>
       <use style="stroke:#000000;stroke-width:0.6;" x="108.884529" xlink:href="#m5ff3d38274" y="387.72"/>
      </g>
     </g>
    </g>
    <g id="xtick_8">
     <g id="line2d_15">
      <path clip-path="url(#pf23702476a)" d="M 121.492129 387.72 
L 121.492129 7.2 
" style="fill:none;stroke:#b0b0b0;stroke-linecap:square;stroke-width:0.8;"/>
     </g>
     <g id="line2d_16">
      <g>
       <use style="stroke:#000000;stroke-width:0.6;" x="121.492129" xlink:href="#m5ff3d38274" y="387.72"/>
      </g>
     </g>
    </g>
    <g id="xtick_9">
     <g id="line2d_17">
      <path clip-path="url(#pf23702476a)" d="M 132.61282 387.72 
L 132.61282 7.2 
" style="fill:none;stroke:#b0b0b0;stroke-linecap:square;stroke-width:0.8;"/>
     </g>
     <g id="line2d_18">
      <g>
       <use style="stroke:#000000;stroke-width:0.6;" x="132.61282" xlink:href="#m5ff3d38274" y="387.72"/>
      </g>
     </g>
    </g>
    <g id="xtick_10">
     <g id="line2d_19">
      <path clip-path="url(#pf23702476a)" d="M 208.00532 387.72 
L 208.00532 7.2 
" style="fill:none;stroke:#b0b0b0;stroke-linecap:square;stroke-width:0.8;"/>
     </g>
     <g id="line2d_20">
      <g>
       <use style="stroke:#000000;stroke-width:0.6;" x="208.00532" xlink:href="#m5ff3d38274" y="387.72"/>
      </g>
     </g>
    </g>
    <g id="xtick_11">
     <g id="line2d_21">
      <path clip-path="url(#pf23702476a)" d="M 246.288017 387.72 
L 246.288017 7.2 
" style="fill:none;stroke:#b0b0b0;stroke-linecap:square;stroke-width:0.8;"/>
     </g>
     <g id="line2d_22">
      <g>
       <use style="stroke:#000000;stroke-width:0.6;" x="246.288017" xlink:href="#m5ff3d38274" y="387.72"/>
      </g>
     </g>
    </g>
    <g id="xtick_12">
     <g id="line2d_23">
      <path clip-path="url(#pf23702476a)" d="M 273.450023 387.72 
L 273.450023 7.2 
" style="fill:none;stroke:#b0b0b0;stroke-linecap:square;stroke-width:0.8;"/>
     </g>
     <g id="line2d_24">
      <g>
       <use style="stroke:#000000;stroke-width:0.6;" x="273.450023" xlink:href="#m5ff3d38274" y="387.72"/>
      </g>
     </g>
    </g>
    <g id="xtick_13">
     <g id="line2d_25">
      <path clip-path="url(#pf23702476a)" d="M 294.518512 387.72 
L 294.518512 7.2 
" style="fill:none;stroke:#b0b0b0;stroke-linecap:square;stroke-width:0.8;"/>
     </g>
     <g id="line2d_26">
      <g>
       <use style="stroke:#000000;stroke-width:0.6;" x="294.518512" xlink:href="#m5ff3d38274" y="387.72"/>
      </g>
     </g>
    </g>
    <g id="xtick_14">
     <g id="line2d_27">
      <path clip-path="url(#pf23702476a)" d="M 311.73272 387.72 
L 311.73272 7.2 
" style="fill:none;stroke:#b0b0b0;stroke-linecap:square;stroke-width:0.8;"/>
     </g>
     <g id="line2d_28">
      <g>
       <use style="stroke:#000000;stroke-width:0.6;" x="311.73272" xlink:href="#m5ff3d38274" y="387.72"/>
      </g>
     </g>
    </g>
    <g id="xtick_15">
     <g id="line2d_29">
      <path clip-path="url(#pf23702476a)" d="M 326.287126 387.72 
L 326.287126 7.2 
" style="fill:none;stroke:#b0b0b0;stroke-linecap:square;stroke-width:0.8;"/>
     </g>
     <g id="line2d_30">
      <g>
       <use style="stroke:#000000;stroke-width:0.6;" x="326.287126" xlink:href="#m5ff3d38274" y="387.72"/>
      </g>
     </g>
    </g>
    <g id="xtick_16">
     <g id="line2d_31">
      <path clip-path="url(#pf23702476a)" d="M 338.894726 387.72 
L 338.894726 7.2 
" style="fill:none;stroke:#b0b0b0;stroke-linecap:square;stroke-width:0.8;"/>
     </g>
     <g id="line2d_32">
      <g>
       <use style="stroke:#000000;stroke-width:0.6;" x="338.894726" xlink:href="#m5ff3d38274" y="387.72"/>
      </g>
     </g>
    </g>
    <g id="xtick_17">
     <g id="line2d_33">
      <path clip-path="url(#pf23702476a)" d="M 350.015417 387.72 
L 350.015417 7.2 
" style="fill:none;stroke:#b0b0b0;stroke-linecap:square;stroke-width:0.8;"/>
     </g>
     <g id="line2d_34">
      <g>
       <use style="stroke:#000000;stroke-width:0.6;" x="350.015417" xlink:href="#m5ff3d38274" y="387.72"/>
      </g>
     </g>
    </g>
    <g id="xtick_18">
     <g id="line2d_35">
      <path clip-path="url(#pf23702476a)" d="M 425.407918 387.72 
L 425.407918 7.2 
" style="fill:none;stroke:#b0b0b0;stroke-linecap:square;stroke-width:0.8;"/>
     </g>
     <g id="line2d_36">
      <g>
       <use style="stroke:#000000;stroke-width:0.6;" x="425.407918" xlink:href="#m5ff3d38274" y="387.72"/>
      </g>
     </g>
    </g>
    <g id="xtick_19">
     <g id="line2d_37">
      <path clip-path="url(#pf23702476a)" d="M 463.690615 387.72 
L 463.690615 7.2 
" style="fill:none;stroke:#b0b0b0;stroke-linecap:square;stroke-width:0.8;"/>
     </g>
     <g id="line2d_38">
      <g>
       <use style="stroke:#000000;stroke-width:0.6;" x="463.690615" xlink:href="#m5ff3d38274" y="387.72"/>
      </g>
     </g>
    </g>
    <g id="xtick_20">
     <g id="line2d_39">
      <path clip-path="url(#pf23702476a)" d="M 490.852621 387.72 
L 490.852621 7.2 
" style="fill:none;stroke:#b0b0b0;stroke-linecap:square;stroke-width:0.8;"/>
     </g>
     <g id="line2d_40">
      <g>
       <use style="stroke:#000000;stroke-width:0.6;" x="490.852621" xlink:href="#m5ff3d38274" y="387.72"/>
      </g>
     </g>
    </g>
    <g id="xtick_21">
     <g id="line2d_41">
      <path clip-path="url(#pf23702476a)" d="M 511.921109 387.72 
L 511.921109 7.2 
" style="fill:none;stroke:#b0b0b0;stroke-linecap:square;stroke-width:0.8;"/>
     </g>
     <g id="line2d_42">
      <g>
       <use style="stroke:#000000;stroke-width:0.6;" x="511.921109" xlink:href="#m5ff3d38274" y="387.72"/>
      </g>
     </g>
    </g>
    <g id="xtick_22">
     <g id="line2d_43">
      <path clip-path="url(#pf23702476a)" d="M 529.135318 387.72 
L 529.135318 7.2 
" style="fill:none;stroke:#b0b0b0;stroke-linecap:square;stroke-width:0.8;"/>
     </g>
     <g id="line2d_44">
      <g>
       <use style="stroke:#000000;stroke-width:0.6;" x="529.135318" xlink:href="#m5ff3d38274" y="387.72"/>
      </g>
     </g>
    </g>
    <g id="xtick_23">
     <g id="line2d_45">
      <path clip-path="url(#pf23702476a)" d="M 543.689724 387.72 
L 543.689724 7.2 
" style="fill:none;stroke:#b0b0b0;stroke-linecap:square;stroke-width:0.8;"/>
     </g>
     <g id="line2d_46">
      <g>
       <use style="stroke:#000000;stroke-width:0.6;" x="543.689724" xlink:href="#m5ff3d38274" y="387.72"/>
      </g>
     </g>
    </g>
    <g id="xtick_24">
     <g id="line2d_47">
      <path clip-path="url(#pf23702476a)" d="M 556.297324 387.72 
L 556.297324 7.2 
" style="fill:none;stroke:#b0b0b0;stroke-linecap:square;stroke-width:0.8;"/>
     </g>
     <g id="line2d_48">
      <g>
       <use style="stroke:#000000;stroke-width:0.6;" x="556.297324" xlink:href="#m5ff3d38274" y="387.72"/>
      </g>
     </g>
    </g>
    <g id="xtick_25">
     <g id="line2d_49">
      <path clip-path="url(#pf23702476a)" d="M 567.418015 387.72 
L 567.418015 7.2 
" style="fill:none;stroke:#b0b0b0;stroke-linecap:square;stroke-width:0.8;"/>
     </g>
     <g id="line2d_50">
      <g>
       <use style="stroke:#000000;stroke-width:0.6;" x="567.418015" xlink:href="#m5ff3d38274" y="387.72"/>
      </g>
     </g>
    </g>
    <g id="xtick_26">
     <g id="line2d_51">
      <path clip-path="url(#pf23702476a)" d="M 642.810515 387.72 
L 642.810515 7.2 
" style="fill:none;stroke:#b0b0b0;stroke-linecap:square;stroke-width:0.8;"/>
     </g>
     <g id="line2d_52">
      <g>
       <use style="stroke:#000000;stroke-width:0.6;" x="642.810515" xlink:href="#m5ff3d38274" y="387.72"/>
      </g>
     </g>
    </g>
    <g id="xtick_27">
     <g id="line2d_53">
      <path clip-path="url(#pf23702476a)" d="M 681.093212 387.72 
L 681.093212 7.2 
" style="fill:none;stroke:#b0b0b0;stroke-linecap:square;stroke-width:0.8;"/>
     </g>
     <g id="line2d_54">
      <g>
       <use style="stroke:#000000;stroke-width:0.6;" x="681.093212" xlink:href="#m5ff3d38274" y="387.72"/>
      </g>
     </g>
    </g>
    <g id="xtick_28">
     <g id="line2d_55">
      <path clip-path="url(#pf23702476a)" d="M 708.255218 387.72 
L 708.255218 7.2 
" style="fill:none;stroke:#b0b0b0;stroke-linecap:square;stroke-width:0.8;"/>
     </g>
     <g id="line2d_56">
      <g>
       <use style="stroke:#000000;stroke-width:0.6;" x="708.255218" xlink:href="#m5ff3d38274" y="387.72"/>
      </g>
     </g>
    </g>
    <g id="text_4">
     <!-- Fréquence (Hz) -->
     <g transform="translate(336.4847 419.807548)scale(0.14 -0.14)">
      <defs>
       <path d="M 3482 4325 
L 326 4325 
L 326 4160 
C 768 4160 838 4160 838 3874 
L 838 446 
C 838 160 768 160 326 160 
L 326 0 
C 512 0 870 0 1069 0 
C 1331 0 1638 0 1901 0 
L 1901 160 
L 1760 160 
C 1274 160 1261 223 1261 452 
L 1261 2075 
L 1837 2075 
C 2432 2075 2490 1865 2490 1332 
L 2605 1332 
L 2605 2987 
L 2490 2987 
C 2490 2450 2432 2240 1837 2240 
L 1261 2240 
L 1261 3911 
C 1261 4128 1274 4160 1530 4160 
L 2355 4160 
C 3322 4160 3430 3765 3520 2916 
L 3635 2916 
L 3482 4325 
z
" id="CMR17-46" transform="scale(0.015625)"/>
       <path d="M 960 1497 
C 960 2112 1222 2688 1702 2688 
C 1747 2688 1792 2682 1837 2662 
C 1837 2662 1696 2617 1696 2452 
C 1696 2298 1818 2234 1914 2234 
C 1990 2234 2131 2279 2131 2458 
C 2131 2663 1926 2790 1709 2790 
C 1222 2790 1011 2317 947 2093 
L 941 2093 
L 941 2790 
L 198 2720 
L 198 2554 
C 576 2554 634 2515 634 2208 
L 634 428 
C 634 184 608 153 198 153 
L 198 -13 
C 352 0 646 0 813 0 
C 998 0 1325 0 1498 -13 
L 1498 153 
C 1037 153 960 153 960 440 
L 960 1497 
z
" id="CMR17-72" transform="scale(0.015625)"/>
       <path d="M 2221 4091 
C 2298 4161 2317 4174 2317 4244 
C 2317 4339 2234 4416 2144 4416 
C 2067 4416 2042 4384 1978 4308 
L 1254 3390 
C 1210 3333 1210 3327 1210 3320 
C 1210 3314 1267 3256 1280 3244 
L 2221 4091 
z
" id="CMR17-13" transform="scale(0.015625)"/>
       <path d="M 2438 1472 
C 2464 1498 2464 1511 2464 1576 
C 2464 2238 2118 2816 1389 2816 
C 710 2816 173 2169 173 1383 
C 173 551 781 -64 1459 -64 
C 2176 -64 2458 607 2458 740 
C 2458 784 2419 784 2406 784 
C 2362 784 2355 771 2330 696 
C 2189 265 1837 51 1504 51 
C 1229 51 954 203 781 480 
C 582 803 582 1176 582 1472 
L 2438 1472 
z
M 589 1568 
C 634 2505 1126 2714 1382 2714 
C 1818 2714 2112 2297 2118 1568 
L 589 1568 
z
" id="CMR17-65" transform="scale(0.015625)"/>
       <path d="M 2630 2802 
L 2528 2802 
L 2336 2172 
C 2189 2509 1920 2802 1491 2802 
C 838 2802 211 2223 211 1383 
C 211 548 800 -38 1440 -38 
C 1933 -38 2208 338 2291 478 
L 2291 -789 
C 2291 -1031 2266 -1063 1856 -1063 
L 1856 -1228 
C 2010 -1216 2291 -1216 2458 -1216 
C 2624 -1216 2912 -1216 3066 -1228 
L 3066 -1063 
C 2656 -1063 2630 -1037 2630 -789 
L 2630 2802 
z
M 2304 886 
C 2304 612 2074 357 2054 338 
C 1856 115 1626 64 1472 64 
C 992 64 621 669 621 1375 
C 621 2121 1043 2688 1536 2688 
C 2048 2688 2304 2108 2304 1777 
L 2304 886 
z
" id="CMR17-71" transform="scale(0.015625)"/>
       <path d="M 1882 2693 
L 1882 2528 
C 2259 2528 2317 2489 2317 2186 
L 2317 1032 
C 2317 500 2029 38 1555 38 
C 1030 38 986 348 986 678 
L 986 2763 
L 211 2693 
L 211 2528 
C 467 2528 640 2528 646 2274 
L 646 1058 
C 646 633 646 361 813 183 
C 896 101 1056 -64 1517 -64 
C 2061 -64 2272 377 2323 506 
L 2330 506 
L 2330 -63 
L 3091 -63 
L 3091 128 
C 2714 128 2656 166 2656 473 
L 2656 2763 
L 1882 2693 
z
" id="CMR17-75" transform="scale(0.015625)"/>
       <path d="M 2656 1933 
C 2656 2259 2592 2790 1837 2790 
C 1331 2790 1069 2400 973 2144 
L 966 2144 
L 966 2790 
L 211 2720 
L 211 2554 
C 589 2554 646 2515 646 2208 
L 646 428 
C 646 184 621 153 211 153 
L 211 -13 
C 365 0 646 0 813 0 
C 979 0 1267 0 1421 -13 
L 1421 153 
C 1011 153 986 178 986 428 
L 986 1658 
C 986 2247 1344 2688 1792 2688 
C 2266 2688 2317 2266 2317 1958 
L 2317 428 
C 2317 184 2291 153 1882 153 
L 1882 -13 
C 2035 0 2317 0 2483 0 
C 2650 0 2938 0 3091 -13 
L 3091 153 
C 2682 153 2656 178 2656 428 
L 2656 1933 
z
" id="CMR17-6e" transform="scale(0.015625)"/>
       <path d="M 2234 2240 
C 2112 2240 1933 2240 1933 2017 
C 1933 1838 2080 1787 2163 1787 
C 2208 1787 2394 1807 2394 2024 
C 2394 2467 1958 2803 1466 2803 
C 787 2803 211 2178 211 1363 
C 211 516 813 -64 1466 -64 
C 2259 -64 2458 677 2458 748 
C 2458 774 2451 793 2406 793 
C 2362 793 2355 787 2330 703 
C 2163 180 1798 51 1523 51 
C 1114 51 621 427 621 1369 
C 621 2338 1094 2688 1472 2688 
C 1722 2688 2093 2573 2234 2240 
z
" id="CMR17-63" transform="scale(0.015625)"/>
       <path d="M 1958 -1561 
C 1958 -1555 1958 -1542 1939 -1523 
C 1645 -1224 858 -407 858 1581 
C 858 3569 1632 4379 1946 4697 
C 1946 4704 1958 4717 1958 4736 
C 1958 4755 1939 4768 1914 4768 
C 1843 4768 1299 4296 986 3594 
C 666 2887 576 2199 576 1588 
C 576 1128 621 351 1005 -471 
C 1312 -1135 1837 -1600 1914 -1600 
C 1946 -1600 1958 -1587 1958 -1561 
z
" id="CMR17-28" transform="scale(0.015625)"/>
       <path d="M 3590 3905 
C 3590 4192 3661 4192 4102 4192 
L 4102 4352 
C 3917 4352 3578 4352 3379 4352 
C 3181 4352 2842 4352 2656 4352 
L 2656 4192 
C 3098 4192 3168 4192 3168 3904 
L 3168 2341 
L 1261 2341 
L 1261 3904 
C 1261 4192 1331 4192 1773 4192 
L 1773 4352 
C 1587 4352 1248 4352 1050 4352 
C 851 4352 512 4352 326 4352 
L 326 4192 
C 768 4192 838 4192 838 3905 
L 838 447 
C 838 160 768 160 326 160 
L 326 0 
C 512 0 851 0 1050 0 
C 1248 0 1587 0 1773 0 
L 1773 160 
C 1331 160 1261 160 1261 446 
L 1261 2176 
L 3168 2176 
L 3168 446 
C 3168 160 3098 160 2656 160 
L 2656 0 
C 2842 0 3181 0 3379 0 
C 3578 0 3917 0 4102 0 
L 4102 160 
C 3661 160 3590 160 3590 447 
L 3590 3905 
z
" id="CMR17-48" transform="scale(0.015625)"/>
       <path d="M 2310 2605 
C 2362 2670 2362 2682 2362 2695 
C 2362 2752 2336 2752 2221 2752 
L 275 2752 
L 211 1760 
L 326 1760 
C 371 2381 442 2650 1178 2650 
L 1958 2650 
L 128 96 
C 128 0 134 0 269 0 
L 2291 0 
L 2381 1152 
L 2266 1152 
C 2214 442 2131 115 1350 115 
L 531 115 
L 2310 2605 
z
" id="CMR17-7a" transform="scale(0.015625)"/>
       <path d="M 1683 1581 
C 1683 2040 1638 2817 1254 3639 
C 947 4303 422 4768 346 4768 
C 326 4768 301 4761 301 4729 
C 301 4717 307 4710 314 4697 
C 621 4378 1402 3568 1402 1584 
C 1402 -407 627 -1217 314 -1537 
C 307 -1549 301 -1556 301 -1568 
C 301 -1600 326 -1600 346 -1600 
C 416 -1600 960 -1128 1274 -426 
C 1594 281 1683 969 1683 1581 
z
" id="CMR17-29" transform="scale(0.015625)"/>
      </defs>
      <use transform="scale(0.996264)" xlink:href="#CMR17-46"/>
      <use transform="translate(52.176591 0)scale(0.996264)" xlink:href="#CMR17-72"/>
      <use transform="translate(84.854951 0)scale(0.996264)" xlink:href="#CMR17-13"/>
      <use transform="translate(87.457359 0)scale(0.996264)" xlink:href="#CMR17-65"/>
      <use transform="translate(127.943019 0)scale(0.996264)" xlink:href="#CMR17-71"/>
      <use transform="translate(176.235935 0)scale(0.996264)" xlink:href="#CMR17-75"/>
      <use transform="translate(227.131305 0)scale(0.996264)" xlink:href="#CMR17-65"/>
      <use transform="translate(267.616966 0)scale(0.996264)" xlink:href="#CMR17-6e"/>
      <use transform="translate(318.512335 0)scale(0.996264)" xlink:href="#CMR17-63"/>
      <use transform="translate(358.997996 0)scale(0.996264)" xlink:href="#CMR17-65"/>
      <use transform="translate(429.559623 0)scale(0.996264)" xlink:href="#CMR17-28"/>
      <use transform="translate(464.84039 0)scale(0.996264)" xlink:href="#CMR17-48"/>
      <use transform="translate(533.91282 0)scale(0.996264)" xlink:href="#CMR17-7a"/>
      <use transform="translate(574.398481 0)scale(0.996264)" xlink:href="#CMR17-29"/>
     </g>
    </g>
   </g>
   <g id="matplotlib.axis_2">
    <g id="ytick_1">
     <g id="line2d_57">
      <path clip-path="url(#pf23702476a)" d="M 47.299176 318.18482 
L 716.899176 318.18482 
" style="fill:none;stroke:#b0b0b0;stroke-linecap:square;stroke-width:0.8;"/>
     </g>
     <g id="line2d_58">
      <defs>
       <path d="M 0 0 
L -3.5 0 
" id="m8544f09dc7" style="stroke:#000000;stroke-width:0.8;"/>
      </defs>
      <g>
       <use style="stroke:#000000;stroke-width:0.8;" x="47.299176" xlink:href="#m8544f09dc7" y="318.18482"/>
      </g>
     </g>
     <g id="text_5">
      <!-- $\mathdefault{−4}$ -->
      <g transform="translate(25.147696 322.33591)scale(0.12 -0.12)">
       <defs>
        <path d="M 2150 4122 
C 2150 4256 2144 4256 2029 4256 
L 128 1254 
L 128 1088 
L 1779 1088 
L 1779 457 
C 1779 224 1766 160 1318 160 
L 1197 160 
L 1197 0 
C 1402 0 1747 0 1965 0 
C 2182 0 2528 0 2733 0 
L 2733 160 
L 2611 160 
C 2163 160 2150 224 2150 457 
L 2150 1088 
L 2803 1088 
L 2803 1254 
L 2150 1254 
L 2150 4122 
z
M 1798 3703 
L 1798 1254 
L 256 1254 
L 1798 3703 
z
" id="CMR17-34" transform="scale(0.015625)"/>
       </defs>
       <use transform="scale(0.996264)" xlink:href="#CMSY10-0"/>
       <use transform="translate(77.487468 0)scale(0.996264)" xlink:href="#CMR17-34"/>
      </g>
     </g>
    </g>
    <g id="ytick_2">
     <g id="line2d_59">
      <path clip-path="url(#pf23702476a)" d="M 47.299176 242.866549 
L 716.899176 242.866549 
" style="fill:none;stroke:#b0b0b0;stroke-linecap:square;stroke-width:0.8;"/>
     </g>
     <g id="line2d_60">
      <g>
       <use style="stroke:#000000;stroke-width:0.8;" x="47.299176" xlink:href="#m8544f09dc7" y="242.866549"/>
      </g>
     </g>
     <g id="text_6">
      <!-- $\mathdefault{−3}$ -->
      <g transform="translate(25.147696 247.017638)scale(0.12 -0.12)">
       <defs>
        <path d="M 1414 2157 
C 1984 2157 2234 1662 2234 1090 
C 2234 320 1824 25 1453 25 
C 1114 25 563 194 390 693 
C 422 680 454 680 486 680 
C 640 680 755 782 755 948 
C 755 1133 614 1216 486 1216 
C 378 1216 211 1165 211 926 
C 211 335 787 -128 1466 -128 
C 2176 -128 2720 430 2720 1085 
C 2720 1707 2208 2157 1600 2227 
C 2086 2328 2554 2756 2554 3329 
C 2554 3820 2048 4179 1472 4179 
C 890 4179 378 3829 378 3329 
C 378 3110 544 3072 627 3072 
C 762 3072 877 3155 877 3321 
C 877 3486 762 3569 627 3569 
C 602 3569 570 3569 544 3557 
C 730 3959 1235 4032 1459 4032 
C 1683 4032 2106 3925 2106 3320 
C 2106 3143 2080 2828 1862 2550 
C 1670 2304 1453 2304 1242 2284 
C 1210 2284 1062 2269 1037 2269 
C 992 2263 966 2257 966 2208 
C 966 2163 973 2157 1101 2157 
L 1414 2157 
z
" id="CMR17-33" transform="scale(0.015625)"/>
       </defs>
       <use transform="scale(0.996264)" xlink:href="#CMSY10-0"/>
       <use transform="translate(77.487468 0)scale(0.996264)" xlink:href="#CMR17-33"/>
      </g>
     </g>
    </g>
    <g id="ytick_3">
     <g id="line2d_61">
      <path clip-path="url(#pf23702476a)" d="M 47.299176 167.548277 
L 716.899176 167.548277 
" style="fill:none;stroke:#b0b0b0;stroke-linecap:square;stroke-width:0.8;"/>
     </g>
     <g id="line2d_62">
      <g>
       <use style="stroke:#000000;stroke-width:0.8;" x="47.299176" xlink:href="#m8544f09dc7" y="167.548277"/>
      </g>
     </g>
     <g id="text_7">
      <!-- $\mathdefault{−2}$ -->
      <g transform="translate(25.147696 171.699367)scale(0.12 -0.12)">
       <defs>
        <path d="M 2669 989 
L 2554 989 
C 2490 536 2438 459 2413 420 
C 2381 369 1920 369 1830 369 
L 602 369 
C 832 619 1280 1072 1824 1597 
C 2214 1967 2669 2402 2669 3035 
C 2669 3790 2067 4224 1395 4224 
C 691 4224 262 3604 262 3030 
C 262 2780 448 2748 525 2748 
C 589 2748 781 2787 781 3010 
C 781 3207 614 3264 525 3264 
C 486 3264 448 3258 422 3245 
C 544 3790 915 4058 1306 4058 
C 1862 4058 2227 3617 2227 3035 
C 2227 2479 1901 2000 1536 1584 
L 262 146 
L 262 0 
L 2515 0 
L 2669 989 
z
" id="CMR17-32" transform="scale(0.015625)"/>
       </defs>
       <use transform="scale(0.996264)" xlink:href="#CMSY10-0"/>
       <use transform="translate(77.487468 0)scale(0.996264)" xlink:href="#CMR17-32"/>
      </g>
     </g>
    </g>
    <g id="ytick_4">
     <g id="line2d_63">
      <path clip-path="url(#pf23702476a)" d="M 47.299176 92.230006 
L 716.899176 92.230006 
" style="fill:none;stroke:#b0b0b0;stroke-linecap:square;stroke-width:0.8;"/>
     </g>
     <g id="line2d_64">
      <g>
       <use style="stroke:#000000;stroke-width:0.8;" x="47.299176" xlink:href="#m8544f09dc7" y="92.230006"/>
      </g>
     </g>
     <g id="text_8">
      <!-- $\mathdefault{−1}$ -->
      <g transform="translate(25.147696 96.381096)scale(0.12 -0.12)">
       <use transform="scale(0.996264)" xlink:href="#CMSY10-0"/>
       <use transform="translate(77.487468 0)scale(0.996264)" xlink:href="#CMR17-31"/>
      </g>
     </g>
    </g>
    <g id="ytick_5">
     <g id="line2d_65">
      <path clip-path="url(#pf23702476a)" d="M 47.299176 16.911735 
L 716.899176 16.911735 
" style="fill:none;stroke:#b0b0b0;stroke-linecap:square;stroke-width:0.8;"/>
     </g>
     <g id="line2d_66">
      <g>
       <use style="stroke:#000000;stroke-width:0.8;" x="47.299176" xlink:href="#m8544f09dc7" y="16.911735"/>
      </g>
     </g>
     <g id="text_9">
      <!-- $\mathdefault{0}$ -->
      <g transform="translate(34.446186 21.062825)scale(0.12 -0.12)">
       <use transform="scale(0.996264)" xlink:href="#CMR17-30"/>
      </g>
     </g>
    </g>
    <g id="text_10">
     <!-- Phase (rad) -->
     <g transform="translate(17.660772 232.492736)rotate(-90)scale(0.14 -0.14)">
      <defs>
       <path d="M 1267 2042 
L 2291 2042 
C 3117 2042 3718 2578 3718 3184 
C 3718 3791 3130 4352 2291 4352 
L 333 4352 
L 333 4186 
C 774 4186 845 4186 845 3899 
L 845 446 
C 845 160 774 160 333 160 
L 333 0 
C 518 0 858 0 1056 0 
C 1254 0 1594 0 1779 0 
L 1779 160 
C 1338 160 1267 160 1267 446 
L 1267 2042 
z
M 1254 2176 
L 1254 3938 
C 1254 4155 1267 4186 1523 4186 
L 2170 4186 
C 2995 4186 3232 3714 3232 3184 
C 3232 2604 2950 2176 2170 2176 
L 1254 2176 
z
" id="CMR17-50" transform="scale(0.015625)"/>
       <path d="M 2656 1933 
C 2656 2259 2592 2790 1837 2790 
C 1312 2790 1056 2368 979 2157 
L 973 2157 
L 973 4396 
L 211 4326 
L 211 4160 
C 589 4160 646 4122 646 3817 
L 646 426 
C 646 184 621 153 211 153 
L 211 -13 
C 365 0 646 0 813 0 
C 979 0 1267 0 1421 -13 
L 1421 153 
C 1011 153 986 178 986 428 
L 986 1658 
C 986 2247 1344 2688 1792 2688 
C 2266 2688 2317 2266 2317 1958 
L 2317 428 
C 2317 184 2291 153 1882 153 
L 1882 -13 
C 2035 0 2317 0 2483 0 
C 2650 0 2938 0 3091 -13 
L 3091 153 
C 2682 153 2656 178 2656 428 
L 2656 1933 
z
" id="CMR17-68" transform="scale(0.015625)"/>
       <path d="M 2304 1653 
C 2304 2072 2304 2294 2035 2543 
C 1798 2752 1523 2816 1306 2816 
C 800 2816 435 2407 435 1971 
C 435 1728 627 1728 666 1728 
C 749 1728 896 1778 896 1954 
C 896 2112 774 2181 666 2181 
C 640 2181 608 2174 589 2168 
C 723 2592 1069 2714 1293 2714 
C 1613 2714 1965 2429 1965 1885 
L 1965 1600 
C 1587 1600 1133 1549 774 1357 
C 371 1133 256 813 256 570 
C 256 77 832 -64 1171 -64 
C 1523 -64 1850 139 1990 511 
C 2003 233 2182 -18 2464 -18 
C 2598 -18 2938 70 2938 567 
L 2938 920 
L 2822 920 
L 2822 562 
C 2822 178 2650 128 2566 128 
C 2304 128 2304 458 2304 738 
L 2304 1653 
z
M 1965 870 
C 1965 317 1568 38 1216 38 
C 896 38 646 275 646 570 
C 646 761 730 1100 1101 1305 
C 1408 1478 1760 1504 1965 1504 
L 1965 870 
z
" id="CMR17-61" transform="scale(0.015625)"/>
       <path d="M 1978 2697 
C 1978 2813 1971 2819 1933 2819 
C 1907 2819 1901 2813 1824 2717 
C 1805 2691 1747 2626 1728 2601 
C 1523 2819 1235 2819 1126 2819 
C 416 2819 160 2447 160 2076 
C 160 1498 813 1365 998 1325 
C 1402 1243 1542 1217 1677 1101 
C 1760 1025 1901 884 1901 654 
C 1901 384 1747 38 1158 38 
C 602 38 403 460 288 1021 
C 269 1110 269 1117 218 1117 
C 166 1117 160 1110 160 983 
L 160 63 
C 160 -51 166 -58 205 -58 
C 237 -58 243 -51 275 0 
C 314 57 410 211 448 276 
C 576 103 800 -64 1158 -64 
C 1792 -64 2131 283 2131 784 
C 2131 1112 1958 1285 1875 1362 
C 1683 1561 1459 1606 1190 1657 
C 838 1735 390 1825 390 2217 
C 390 2383 480 2737 1126 2737 
C 1811 2737 1850 2094 1862 1888 
C 1869 1856 1901 1849 1920 1849 
C 1978 1849 1978 1869 1978 1978 
L 1978 2697 
z
" id="CMR17-73" transform="scale(0.015625)"/>
       <path d="M 1869 4326 
L 1869 4160 
C 2246 4160 2304 4122 2304 3820 
L 2304 2345 
C 2278 2377 2016 2790 1498 2790 
C 845 2790 211 2208 211 1364 
C 211 525 806 -64 1434 -64 
C 1978 -64 2259 337 2291 380 
L 2291 -63 
L 3066 -63 
L 3066 128 
C 2688 128 2630 166 2630 473 
L 2630 4396 
L 1869 4326 
z
M 2291 755 
C 2291 563 2176 390 2029 262 
C 1811 70 1594 38 1472 38 
C 1286 38 621 134 621 1356 
C 621 2612 1363 2688 1530 2688 
C 1824 2688 2061 2522 2208 2291 
C 2291 2157 2291 2138 2291 2023 
L 2291 755 
z
" id="CMR17-64" transform="scale(0.015625)"/>
      </defs>
      <use transform="scale(0.996264)" xlink:href="#CMR17-50"/>
      <use transform="translate(62.586301 0)scale(0.996264)" xlink:href="#CMR17-68"/>
      <use transform="translate(113.48167 0)scale(0.996264)" xlink:href="#CMR17-61"/>
      <use transform="translate(159.172147 0)scale(0.996264)" xlink:href="#CMR17-73"/>
      <use transform="translate(194.973485 0)scale(0.996264)" xlink:href="#CMR17-65"/>
      <use transform="translate(265.535112 0)scale(0.996264)" xlink:href="#CMR17-28"/>
      <use transform="translate(300.81588 0)scale(0.996264)" xlink:href="#CMR17-72"/>
      <use transform="translate(336.096647 0)scale(0.996264)" xlink:href="#CMR17-61"/>
      <use transform="translate(381.787125 0)scale(0.996264)" xlink:href="#CMR17-64"/>
      <use transform="translate(432.682494 0)scale(0.996264)" xlink:href="#CMR17-29"/>
     </g>
    </g>
   </g>
   <g id="line2d_67">
    <path clip-path="url(#pf23702476a)" d="M 77.735539 24.496364 
L 93.030195 25.831568 
L 108.32485 27.402481 
L 120.560574 28.856916 
L 132.796298 30.513983 
L 145.032022 32.402391 
L 157.267746 34.55516 
L 166.444539 36.365919 
L 175.621332 38.364929 
L 184.798125 40.572619 
L 193.974918 43.011951 
L 203.151711 45.708851 
L 212.328504 48.692749 
L 221.505297 51.997284 
L 227.623159 54.397333 
L 233.741021 56.969967 
L 239.858883 59.729613 
L 245.976745 62.692383 
L 252.094608 65.87637 
L 258.21247 69.302008 
L 264.330332 72.992501 
L 270.448194 76.974343 
L 276.566056 81.277914 
L 282.683918 85.938156 
L 288.80178 90.995279 
L 294.919642 96.495412 
L 301.037504 102.491 
L 307.155366 109.040632 
L 313.273228 116.207694 
L 316.332159 120.043106 
L 319.39109 124.056977 
L 322.450021 128.256536 
L 325.508952 132.648028 
L 331.626814 142.023917 
L 337.744676 152.194788 
L 343.862538 163.117634 
L 349.9804 174.677673 
L 359.157193 192.768892 
L 368.333986 210.945313 
L 374.451848 222.644068 
L 380.56971 233.749197 
L 386.687572 244.125036 
L 392.805434 253.711215 
L 398.923296 262.505903 
L 405.041158 270.545295 
L 411.15902 277.885897 
L 417.276883 284.591931 
L 423.394745 290.727592 
L 429.512607 296.352926 
L 435.630469 301.522051 
L 441.748331 306.282737 
L 447.866193 310.676697 
L 453.984055 314.740192 
L 460.101917 318.504736 
L 466.219779 321.997786 
L 472.337641 325.24336 
L 478.455503 328.262576 
L 484.573365 331.074106 
L 490.691227 333.694554 
L 496.809089 336.138763 
L 505.985882 339.503463 
L 515.162675 342.541119 
L 524.339468 345.286194 
L 533.516261 347.768803 
L 542.693054 350.015444 
L 551.869847 352.049565 
L 561.04664 353.892015 
L 573.282364 356.082332 
L 585.518089 358.00358 
L 597.753813 359.689398 
L 609.989537 361.169024 
L 625.284192 362.767106 
L 640.578847 364.125374 
L 655.873502 365.28001 
L 674.227088 366.439595 
L 686.462812 367.096318 
L 686.462812 367.096318 
" style="fill:none;stroke:#1f77b4;stroke-linecap:square;stroke-width:1.5;"/>
   </g>
   <g id="line2d_68">
    <path clip-path="url(#pf23702476a)" d="M 77.735539 26.260428 
L 93.030195 27.904391 
L 105.265919 29.425386 
L 117.501643 31.156833 
L 129.737367 33.127851 
L 141.973091 35.371587 
L 151.149884 37.25587 
L 160.326677 39.332488 
L 169.50347 41.621073 
L 178.680263 44.143256 
L 187.857056 46.922874 
L 197.033849 49.98619 
L 206.210642 53.362131 
L 212.328504 55.802041 
L 218.446366 58.405202 
L 224.564228 61.182498 
L 230.68209 64.145516 
L 236.799952 67.30658 
L 242.917814 70.678783 
L 249.035677 74.276002 
L 255.153539 78.112905 
L 261.271401 82.204937 
L 267.389263 86.568259 
L 273.507125 91.219646 
L 279.624987 96.176293 
L 285.742849 101.455515 
L 291.860711 107.074288 
L 297.978573 113.048569 
L 304.096435 119.39235 
L 310.214297 126.116372 
L 316.332159 133.226468 
L 322.450021 140.721533 
L 328.567883 148.59123 
L 334.685745 156.813643 
L 340.803607 165.353265 
L 349.9804 178.643506 
L 362.216124 196.889139 
L 374.451848 215.112246 
L 383.628641 228.353898 
L 389.746503 236.844216 
L 395.864365 245.002775 
L 401.982227 252.793643 
L 408.100089 260.195023 
L 414.217952 267.197266 
L 420.335814 273.800458 
L 426.453676 280.012006 
L 432.571538 285.844479 
L 438.6894 291.313821 
L 444.807262 296.437947 
L 450.925124 301.235718 
L 457.042986 305.726197 
L 463.160848 309.928152 
L 469.27871 313.859736 
L 475.396572 317.538288 
L 481.514434 320.980232 
L 487.632296 324.201035 
L 493.750158 327.215201 
L 499.86802 330.036299 
L 505.985882 332.676997 
L 512.103744 335.149114 
L 521.280537 338.565094 
L 530.45733 341.660463 
L 539.634123 344.465893 
L 548.810916 347.009006 
L 557.987709 349.314692 
L 567.164502 351.405398 
L 576.341296 353.301385 
L 588.57702 355.557842 
L 600.812744 357.539059 
L 613.048468 359.2788 
L 625.284192 360.806626 
L 640.578847 362.457556 
L 655.873502 363.861292 
L 671.168157 365.054917 
L 686.462812 366.069921 
L 686.462812 366.069921 
" style="fill:none;stroke:#ff7f0e;stroke-linecap:square;stroke-width:1.5;"/>
   </g>
   <g id="line2d_69">
    <path clip-path="url(#pf23702476a)" d="M 77.735539 30.840493 
L 89.971264 32.73012 
L 102.206988 34.86397 
L 114.442712 37.268205 
L 123.619505 39.264847 
L 132.796298 41.439644 
L 141.973091 43.803159 
L 151.149884 46.365039 
L 160.326677 49.133534 
L 169.50347 52.114979 
L 178.680263 55.313263 
L 187.857056 58.729358 
L 197.033849 62.360989 
L 206.210642 66.202578 
L 215.387435 70.245591 
L 224.564228 74.479455 
L 236.799952 80.402816 
L 249.035677 86.628168 
L 261.271401 93.1624 
L 270.448194 98.299009 
L 279.624987 103.702013 
L 285.742849 107.504993 
L 291.860711 111.528898 
L 297.978573 115.85326 
L 304.096435 120.596853 
L 307.155366 123.179028 
L 310.214297 125.940521 
L 313.273228 128.920121 
L 316.332159 132.167016 
L 319.39109 135.744084 
L 322.450021 139.73228 
L 325.508952 144.236387 
L 328.567883 149.392209 
L 331.626814 155.374634 
L 334.685745 162.404178 
L 337.744676 170.745269 
L 340.803607 180.680971 
L 343.862538 192.437256 
L 346.921469 206.031675 
L 349.9804 221.079612 
L 356.098262 251.853223 
L 359.157193 265.570659 
L 362.216124 277.432883 
L 365.275055 287.42088 
L 368.333986 295.746012 
L 371.392917 302.690122 
L 374.451848 308.522008 
L 377.510779 313.467897 
L 380.56971 317.708027 
L 383.628641 321.382691 
L 386.687572 324.60031 
L 389.746503 327.444771 
L 392.805434 329.981347 
L 395.864365 332.261239 
L 398.923296 334.324971 
L 401.982227 336.204925 
L 405.041158 337.92722 
L 411.15902 340.980092 
L 417.276883 343.612735 
L 423.394745 345.914983 
L 429.512607 347.951236 
L 435.630469 349.768921 
L 441.748331 351.403822 
L 450.925124 353.57214 
L 460.101917 355.45976 
L 469.27871 357.117194 
L 478.455503 358.582211 
L 490.691227 360.285581 
L 502.926951 361.750623 
L 515.162675 363.017227 
L 530.45733 364.368192 
L 545.751985 365.50475 
L 564.105571 366.637123 
L 585.518089 367.700891 
L 606.930606 368.544882 
L 631.402054 369.299544 
L 661.991364 370.003873 
L 686.462812 370.423636 
L 686.462812 370.423636 
" style="fill:none;stroke:#2ca02c;stroke-linecap:square;stroke-width:1.5;"/>
   </g>
   <g id="line2d_70">
    <path clip-path="url(#pf23702476a)" d="M 77.735539 31.096601 
L 89.971264 33.071102 
L 102.206988 35.324541 
L 111.383781 37.22234 
L 120.560574 39.320255 
L 129.737367 41.640998 
L 138.91416 44.210452 
L 148.090953 47.058319 
L 157.267746 50.218987 
L 163.385608 52.519456 
L 169.50347 54.990335 
L 175.621332 57.646998 
L 181.739194 60.506857 
L 187.857056 63.589762 
L 193.974918 66.918506 
L 200.09278 70.519441 
L 206.210642 74.423239 
L 212.328504 78.665814 
L 218.446366 83.289404 
L 224.564228 88.343795 
L 230.68209 93.88758 
L 236.799952 99.989202 
L 239.858883 103.273399 
L 242.917814 106.727306 
L 245.976745 110.362138 
L 249.035677 114.189425 
L 252.094608 118.220761 
L 255.153539 122.467446 
L 258.21247 126.939993 
L 261.271401 131.647486 
L 264.330332 136.596769 
L 267.389263 141.791475 
L 270.448194 147.230933 
L 276.566056 158.81307 
L 282.683918 171.211065 
L 291.860711 190.75705 
L 301.037504 210.334232 
L 307.155366 222.787603 
L 313.273228 234.452369 
L 316.332159 239.943094 
L 319.39109 245.195477 
L 322.450021 250.208625 
L 325.508952 254.985912 
L 328.567883 259.533889 
L 331.626814 263.861318 
L 334.685745 267.978369 
L 337.744676 271.895981 
L 340.803607 275.625376 
L 346.921469 282.563803 
L 353.039331 288.87815 
L 359.157193 294.644094 
L 365.275055 299.927273 
L 371.392917 304.783684 
L 374.451848 70.44765 
L 380.56971 74.750543 
L 386.687572 78.732026 
L 392.805434 82.42361 
L 398.923296 85.852315 
L 405.041158 89.041492 
L 411.15902 92.011489 
L 417.276883 94.780184 
L 423.394745 97.363414 
L 429.512607 99.775307 
L 438.6894 103.099323 
L 447.866193 106.103981 
L 457.042986 108.822189 
L 466.219779 111.282803 
L 475.396572 113.511323 
L 484.573365 115.530408 
L 493.750158 117.360285 
L 505.985882 119.536847 
L 518.221606 121.446994 
L 530.45733 123.123735 
L 542.693054 124.595851 
L 557.987709 126.186241 
L 573.282364 127.53827 
L 588.57702 128.687787 
L 606.930606 129.842374 
L 628.343123 130.934039 
L 649.75564 131.804092 
L 674.227088 132.584389 
L 686.462812 132.904926 
L 686.462812 132.904926 
" style="fill:none;stroke:#d62728;stroke-linecap:square;stroke-width:1.5;"/>
   </g>
   <g id="line2d_71">
    <path clip-path="url(#pf23702476a)" d="M 77.735539 28.582221 
L 89.971264 30.174097 
L 102.206988 31.975632 
L 114.442712 34.011053 
L 126.678436 36.305877 
L 138.91416 38.886304 
L 148.090953 41.024697 
L 157.267746 43.348792 
L 166.444539 45.868136 
L 175.621332 48.590925 
L 184.798125 51.523507 
L 193.974918 54.669875 
L 203.151711 58.031232 
L 212.328504 61.605721 
L 221.505297 65.388446 
L 230.68209 69.37196 
L 239.858883 73.547414 
L 252.094608 79.399599 
L 264.330332 85.572802 
L 273.507125 90.429679 
L 282.683918 95.523178 
L 291.860711 100.93693 
L 297.978573 104.798987 
L 304.096435 108.952454 
L 310.214297 113.522494 
L 313.273228 116.02231 
L 316.332159 118.710301 
L 319.39109 121.633106 
L 322.450021 124.852391 
L 325.508952 128.450872 
L 328.567883 132.541171 
L 331.626814 137.278864 
L 334.685745 142.881435 
L 337.744676 149.654354 
L 340.803607 158.021461 
L 343.862538 168.541103 
L 346.921469 181.84423 
L 349.9804 198.349712 
L 353.039331 217.644266 
L 356.098262 237.980484 
L 359.157193 256.950358 
L 362.216124 272.969511 
L 365.275055 285.769845 
L 368.333986 295.824956 
L 371.392917 303.766149 
L 374.451848 310.135904 
L 377.510779 315.342001 
L 380.56971 319.677617 
L 383.628641 323.351678 
L 386.687572 326.514039 
L 389.746503 329.273602 
L 392.805434 331.710751 
L 395.864365 333.885779 
L 398.923296 335.844626 
L 401.982227 337.622826 
L 405.041158 339.248245 
L 408.100089 104.123699 
L 414.217952 106.78926 
L 420.335814 109.107022 
L 426.453676 111.150309 
L 432.571538 112.971258 
L 438.6894 114.608115 
L 447.866193 116.77944 
L 457.042986 118.671464 
L 466.219779 120.334958 
L 475.396572 121.807426 
L 487.632296 123.522189 
L 499.86802 124.999456 
L 512.103744 126.278407 
L 527.398399 127.644257 
L 542.693054 128.794595 
L 561.04664 129.941708 
L 582.459158 131.020109 
L 603.871675 131.87616 
L 628.343123 132.641875 
L 658.932433 133.356701 
L 686.462812 133.828674 
L 686.462812 133.828674 
" style="fill:none;stroke:#9467bd;stroke-linecap:square;stroke-width:1.5;"/>
   </g>
   <g id="patch_3">
    <path d="M 47.299176 387.72 
L 47.299176 7.2 
" style="fill:none;stroke:#000000;stroke-linecap:square;stroke-linejoin:miter;stroke-width:0.8;"/>
   </g>
   <g id="patch_4">
    <path d="M 716.899176 387.72 
L 716.899176 7.2 
" style="fill:none;stroke:#000000;stroke-linecap:square;stroke-linejoin:miter;stroke-width:0.8;"/>
   </g>
   <g id="patch_5">
    <path d="M 47.299176 387.72 
L 716.899176 387.72 
" style="fill:none;stroke:#000000;stroke-linecap:square;stroke-linejoin:miter;stroke-width:0.8;"/>
   </g>
   <g id="patch_6">
    <path d="M 47.299176 7.2 
L 716.899176 7.2 
" style="fill:none;stroke:#000000;stroke-linecap:square;stroke-linejoin:miter;stroke-width:0.8;"/>
   </g>
   <g id="legend_1">
    <g id="patch_7">
     <path d="M 577.332097 115.960142 
L 707.099176 115.960142 
Q 709.899176 115.960142 709.899176 113.160142 
L 709.899176 17 
Q 709.899176 14.2 707.099176 14.2 
L 577.332097 14.2 
Q 574.532097 14.2 574.532097 17 
L 574.532097 113.160142 
Q 574.532097 115.960142 577.332097 115.960142 
z
" style="fill:#ffffff;opacity:0.8;stroke:#cccccc;stroke-linejoin:miter;"/>
    </g>
    <g id="line2d_72">
     <path d="M 580.132097 24.7 
L 608.132097 24.7 
" style="fill:none;stroke:#1f77b4;stroke-linecap:square;stroke-width:1.5;"/>
    </g>
    <g id="line2d_73"/>
    <g id="text_11">
     <!-- Butterworth -->
     <g transform="translate(619.332097 29.6)scale(0.14 -0.14)">
      <defs>
       <path d="M 333 4352 
L 333 4186 
C 774 4186 845 4186 845 3900 
L 845 452 
C 845 166 774 166 333 166 
L 333 0 
L 2534 0 
C 3354 0 3885 583 3885 1164 
C 3885 1741 3360 2233 2675 2233 
C 3290 2356 3718 2771 3718 3264 
C 3718 3802 3194 4352 2368 4352 
L 333 4352 
z
M 1248 2304 
L 1248 3937 
C 1248 4155 1261 4186 1517 4186 
L 2336 4186 
C 2970 4186 3251 3674 3251 3277 
C 3251 2791 2861 2304 2170 2304 
L 1248 2304 
z
M 1517 166 
C 1261 166 1248 197 1248 413 
L 1248 2202 
L 2432 2202 
C 3091 2202 3411 1625 3411 1162 
C 3411 699 3046 166 2349 166 
L 1517 166 
z
" id="CMR17-42" transform="scale(0.015625)"/>
       <path d="M 966 2560 
L 1862 2560 
L 1862 2725 
L 966 2725 
L 966 3904 
L 851 3904 
C 838 3245 614 2668 70 2668 
L 70 2560 
L 627 2560 
L 627 771 
C 627 650 627 -64 1370 -64 
C 1747 -64 1965 306 1965 777 
L 1965 1140 
L 1850 1140 
L 1850 783 
C 1850 344 1677 51 1408 51 
C 1222 51 966 178 966 758 
L 966 2560 
z
" id="CMR17-74" transform="scale(0.015625)"/>
       <path d="M 3725 2183 
C 3853 2560 4109 2560 4205 2560 
L 4205 2732 
C 4077 2732 3949 2732 3821 2732 
C 3699 2732 3424 2732 3315 2738 
L 3315 2560 
C 3514 2560 3622 2445 3622 2286 
C 3622 2241 3610 2184 3597 2140 
L 2995 407 
L 2342 2275 
C 2330 2319 2310 2370 2310 2395 
C 2310 2560 2528 2560 2630 2560 
L 2630 2738 
C 2483 2732 2214 2732 2061 2732 
C 1901 2732 1734 2732 1587 2738 
L 1587 2560 
C 1939 2560 1939 2547 2074 2149 
L 1485 451 
L 851 2281 
C 819 2363 819 2376 819 2395 
C 819 2560 1037 2560 1139 2560 
L 1139 2738 
C 986 2732 717 2732 557 2732 
C 416 2732 198 2732 64 2738 
L 64 2560 
C 346 2560 416 2541 486 2331 
L 1274 49 
C 1299 -33 1318 -52 1370 -52 
C 1414 -52 1440 -39 1472 56 
L 2131 1980 
L 2797 56 
C 2829 -39 2854 -52 2899 -52 
C 2950 -52 2970 -33 2995 50 
L 3725 2183 
z
" id="CMR17-77" transform="scale(0.015625)"/>
       <path d="M 2758 1356 
C 2758 2176 2163 2816 1466 2816 
C 768 2816 173 2176 173 1356 
C 173 551 768 -64 1466 -64 
C 2163 -64 2758 551 2758 1356 
z
M 1466 51 
C 1165 51 909 230 762 480 
C 602 767 582 1126 582 1408 
C 582 1677 595 2010 762 2298 
C 890 2509 1139 2714 1466 2714 
C 1754 2714 1997 2554 2150 2330 
C 2349 2029 2349 1607 2349 1408 
C 2349 1158 2336 775 2163 467 
C 1984 173 1709 51 1466 51 
z
" id="CMR17-6f" transform="scale(0.015625)"/>
      </defs>
      <use transform="scale(0.996264)" xlink:href="#CMR17-42"/>
      <use transform="translate(65.188754 0)scale(0.996264)" xlink:href="#CMR17-75"/>
      <use transform="translate(116.084124 0)scale(0.996264)" xlink:href="#CMR17-74"/>
      <use transform="translate(151.364892 0)scale(0.996264)" xlink:href="#CMR17-74"/>
      <use transform="translate(186.64566 0)scale(0.996264)" xlink:href="#CMR17-65"/>
      <use transform="translate(227.13132 0)scale(0.996264)" xlink:href="#CMR17-72"/>
      <use transform="translate(262.412088 0)scale(0.996264)" xlink:href="#CMR17-77"/>
      <use transform="translate(326.319515 0)scale(0.996264)" xlink:href="#CMR17-6f"/>
      <use transform="translate(372.009992 0)scale(0.996264)" xlink:href="#CMR17-72"/>
      <use transform="translate(407.29076 0)scale(0.996264)" xlink:href="#CMR17-74"/>
      <use transform="translate(442.571527 0)scale(0.996264)" xlink:href="#CMR17-68"/>
     </g>
    </g>
    <g id="line2d_74">
     <path d="M 580.132097 44.212028 
L 608.132097 44.212028 
" style="fill:none;stroke:#ff7f0e;stroke-linecap:square;stroke-width:1.5;"/>
    </g>
    <g id="line2d_75"/>
    <g id="text_12">
     <!-- Bessel -->
     <g transform="translate(619.332097 49.112028)scale(0.14 -0.14)">
      <defs>
       <path d="M 979 4396 
L 218 4326 
L 218 4160 
C 595 4160 653 4122 653 3817 
L 653 426 
C 653 184 627 153 218 153 
L 218 -13 
C 371 0 653 0 813 0 
C 979 0 1261 0 1414 -13 
L 1414 153 
C 1005 153 979 178 979 426 
L 979 4396 
z
" id="CMR17-6c" transform="scale(0.015625)"/>
      </defs>
      <use transform="scale(0.996264)" xlink:href="#CMR17-42"/>
      <use transform="translate(65.188754 0)scale(0.996264)" xlink:href="#CMR17-65"/>
      <use transform="translate(105.674415 0)scale(0.996264)" xlink:href="#CMR17-73"/>
      <use transform="translate(141.475753 0)scale(0.996264)" xlink:href="#CMR17-73"/>
      <use transform="translate(177.27709 0)scale(0.996264)" xlink:href="#CMR17-65"/>
      <use transform="translate(217.762751 0)scale(0.996264)" xlink:href="#CMR17-6c"/>
     </g>
    </g>
    <g id="line2d_76">
     <path d="M 580.132097 63.724057 
L 608.132097 63.724057 
" style="fill:none;stroke:#2ca02c;stroke-linecap:square;stroke-width:1.5;"/>
    </g>
    <g id="line2d_77"/>
    <g id="text_13">
     <!-- Tchebychev I -->
     <g transform="translate(619.332097 68.624057)scale(0.14 -0.14)">
      <defs>
       <path d="M 3981 4326 
L 288 4326 
L 179 2918 
L 294 2918 
C 378 3976 467 4160 1453 4160 
C 1568 4160 1754 4160 1805 4154 
C 1926 4135 1926 4058 1926 3912 
L 1926 459 
C 1926 230 1907 160 1376 160 
L 1197 160 
L 1197 0 
C 1504 0 1824 0 2138 0 
C 2451 0 2771 0 3078 0 
L 3078 160 
L 2899 160 
C 2368 160 2349 230 2349 459 
L 2349 3912 
C 2349 4052 2349 4129 2464 4154 
C 2515 4160 2701 4160 2816 4160 
C 3795 4160 3891 3976 3974 2918 
L 4090 2918 
L 3981 4326 
z
" id="CMR17-54" transform="scale(0.015625)"/>
       <path d="M 960 4396 
L 198 4326 
L 198 4160 
C 576 4160 634 4122 634 3817 
L 634 -13 
L 749 -13 
L 934 441 
C 1120 141 1395 -64 1766 -64 
C 2406 -64 3053 500 3053 1370 
C 3053 2188 2477 2790 1830 2790 
C 1434 2790 1152 2579 960 2330 
L 960 4396 
z
M 973 2004 
C 973 2118 973 2138 1062 2272 
C 1312 2657 1670 2688 1792 2688 
C 1984 2688 2643 2585 2643 1376 
C 2643 108 1888 38 1734 38 
C 1536 38 1248 114 1043 486 
C 973 608 973 621 973 735 
L 973 2004 
z
" id="CMR17-62" transform="scale(0.015625)"/>
       <path d="M 2496 2197 
C 2656 2586 2944 2586 3034 2586 
L 3034 2752 
C 2912 2752 2752 2752 2630 2752 
C 2496 2752 2285 2752 2157 2758 
L 2157 2592 
C 2400 2573 2406 2394 2406 2343 
C 2406 2280 2394 2248 2362 2171 
L 1664 449 
L 902 2306 
C 870 2382 870 2426 870 2433 
C 870 2573 1018 2586 1171 2586 
L 1171 2758 
C 1018 2752 742 2752 582 2752 
C 410 2752 205 2752 64 2758 
L 64 2586 
C 410 2586 448 2554 531 2350 
L 1485 15 
C 1197 -738 1030 -1178 627 -1178 
C 557 -1178 397 -1159 282 -1044 
C 429 -1031 493 -942 493 -833 
C 493 -725 416 -629 288 -629 
C 147 -629 77 -725 77 -840 
C 77 -1095 339 -1280 627 -1280 
C 998 -1280 1229 -922 1357 -604 
L 2496 2197 
z
" id="CMR17-79" transform="scale(0.015625)"/>
       <path d="M 2502 2163 
C 2560 2304 2662 2560 3034 2560 
L 3034 2726 
C 2912 2726 2752 2726 2630 2726 
C 2496 2726 2285 2726 2157 2732 
L 2157 2566 
C 2317 2553 2406 2477 2406 2311 
C 2406 2253 2406 2240 2368 2151 
L 1664 377 
L 902 2286 
C 864 2369 864 2381 864 2407 
C 864 2560 1075 2560 1171 2560 
L 1171 2732 
C 1018 2726 736 2726 576 2726 
C 403 2726 205 2726 64 2732 
L 64 2560 
C 307 2560 442 2560 518 2362 
L 1446 44 
C 1485 -51 1491 -64 1549 -64 
C 1606 -64 1613 -51 1651 44 
L 2502 2163 
z
" id="CMR17-76" transform="scale(0.015625)"/>
       <path d="M 1261 3905 
C 1261 4192 1338 4192 1798 4192 
L 1798 4352 
C 1594 4352 1267 4352 1050 4352 
C 832 4352 506 4352 301 4352 
L 301 4192 
C 762 4192 838 4192 838 3905 
L 838 447 
C 838 160 762 160 301 160 
L 301 0 
C 506 0 832 0 1050 0 
C 1267 0 1594 0 1798 0 
L 1798 160 
C 1338 160 1261 160 1261 447 
L 1261 3905 
z
" id="CMR17-49" transform="scale(0.015625)"/>
      </defs>
      <use transform="scale(0.996264)" xlink:href="#CMR17-54"/>
      <use transform="translate(66.509881 0)scale(0.996264)" xlink:href="#CMR17-63"/>
      <use transform="translate(104.393087 0)scale(0.996264)" xlink:href="#CMR17-68"/>
      <use transform="translate(155.288457 0)scale(0.996264)" xlink:href="#CMR17-65"/>
      <use transform="translate(195.774117 0)scale(0.996264)" xlink:href="#CMR17-62"/>
      <use transform="translate(244.067033 0)scale(0.996264)" xlink:href="#CMR17-79"/>
      <use transform="translate(292.359949 0)scale(0.996264)" xlink:href="#CMR17-63"/>
      <use transform="translate(330.243156 0)scale(0.996264)" xlink:href="#CMR17-68"/>
      <use transform="translate(381.138525 0)scale(0.996264)" xlink:href="#CMR17-65"/>
      <use transform="translate(421.624186 0)scale(0.996264)" xlink:href="#CMR17-76"/>
      <use transform="translate(499.993068 0)scale(0.996264)" xlink:href="#CMR17-49"/>
     </g>
    </g>
    <g id="line2d_78">
     <path d="M 580.132097 83.236085 
L 608.132097 83.236085 
" style="fill:none;stroke:#d62728;stroke-linecap:square;stroke-width:1.5;"/>
    </g>
    <g id="line2d_79"/>
    <g id="text_14">
     <!-- Tchebychev II -->
     <g transform="translate(619.332097 88.136085)scale(0.14 -0.14)">
      <use transform="scale(0.996264)" xlink:href="#CMR17-54"/>
      <use transform="translate(66.509881 0)scale(0.996264)" xlink:href="#CMR17-63"/>
      <use transform="translate(104.393087 0)scale(0.996264)" xlink:href="#CMR17-68"/>
      <use transform="translate(155.288457 0)scale(0.996264)" xlink:href="#CMR17-65"/>
      <use transform="translate(195.774117 0)scale(0.996264)" xlink:href="#CMR17-62"/>
      <use transform="translate(244.067033 0)scale(0.996264)" xlink:href="#CMR17-79"/>
      <use transform="translate(292.359949 0)scale(0.996264)" xlink:href="#CMR17-63"/>
      <use transform="translate(330.243156 0)scale(0.996264)" xlink:href="#CMR17-68"/>
      <use transform="translate(381.138525 0)scale(0.996264)" xlink:href="#CMR17-65"/>
      <use transform="translate(421.624186 0)scale(0.996264)" xlink:href="#CMR17-76"/>
      <use transform="translate(499.993068 0)scale(0.996264)" xlink:href="#CMR17-49"/>
      <use transform="translate(535.233916 0)scale(0.996264)" xlink:href="#CMR17-49"/>
     </g>
    </g>
    <g id="line2d_80">
     <path d="M 580.132097 102.748114 
L 608.132097 102.748114 
" style="fill:none;stroke:#9467bd;stroke-linecap:square;stroke-width:1.5;"/>
    </g>
    <g id="line2d_81"/>
    <g id="text_15">
     <!-- Elliptique -->
     <g transform="translate(619.332097 107.648114)scale(0.14 -0.14)">
      <defs>
       <path d="M 3885 1615 
L 3770 1615 
C 3629 676 3546 166 2419 166 
L 1530 166 
C 1274 166 1261 197 1261 414 
L 1261 2176 
L 1862 2176 
C 2464 2176 2522 1960 2522 1430 
L 2637 1430 
L 2637 3081 
L 2522 3081 
C 2522 2557 2464 2342 1862 2342 
L 1261 2342 
L 1261 3913 
C 1261 4128 1274 4160 1530 4160 
L 2406 4160 
C 3398 4160 3514 3769 3603 2929 
L 3718 2929 
L 3565 4325 
L 326 4325 
L 326 4160 
C 768 4160 838 4160 838 3874 
L 838 451 
C 838 166 768 166 326 166 
L 326 0 
L 3654 0 
L 3885 1615 
z
" id="CMR17-45" transform="scale(0.015625)"/>
       <path d="M 992 3909 
C 992 4049 877 4170 730 4170 
C 589 4170 467 4056 467 3909 
C 467 3769 582 3648 730 3648 
C 870 3648 992 3763 992 3909 
z
M 243 2706 
L 243 2541 
C 602 2541 653 2502 653 2197 
L 653 427 
C 653 184 627 153 218 153 
L 218 -13 
C 371 0 646 0 806 0 
C 960 0 1222 0 1370 -13 
L 1370 153 
C 992 153 979 191 979 420 
L 979 2776 
L 243 2706 
z
" id="CMR17-69" transform="scale(0.015625)"/>
       <path d="M 1408 -1063 
C 998 -1063 973 -1037 973 -789 
L 973 402 
C 1158 134 1427 -38 1766 -38 
C 2406 -38 3053 523 3053 1388 
C 3053 2191 2496 2802 1837 2802 
C 1453 2802 1139 2592 960 2338 
L 960 2802 
L 198 2732 
L 198 2567 
C 576 2567 634 2528 634 2223 
L 634 -789 
C 634 -1031 608 -1063 198 -1063 
L 198 -1228 
C 352 -1216 634 -1216 800 -1216 
C 966 -1216 1254 -1216 1408 -1228 
L 1408 -1063 
z
M 973 2012 
C 973 2102 973 2235 1222 2471 
C 1254 2497 1472 2688 1792 2688 
C 2259 2688 2643 2108 2643 1382 
C 2643 656 2234 64 1728 64 
C 1498 64 1248 172 1056 472 
C 973 612 973 650 973 752 
L 973 2012 
z
" id="CMR17-70" transform="scale(0.015625)"/>
      </defs>
      <use transform="scale(0.996264)" xlink:href="#CMR17-45"/>
      <use transform="translate(62.586301 0)scale(0.996264)" xlink:href="#CMR17-6c"/>
      <use transform="translate(87.457359 0)scale(0.996264)" xlink:href="#CMR17-6c"/>
      <use transform="translate(112.328417 0)scale(0.996264)" xlink:href="#CMR17-69"/>
      <use transform="translate(137.199476 0)scale(0.996264)" xlink:href="#CMR17-70"/>
      <use transform="translate(188.094846 0)scale(0.996264)" xlink:href="#CMR17-74"/>
      <use transform="translate(223.375614 0)scale(0.996264)" xlink:href="#CMR17-69"/>
      <use transform="translate(248.246672 0)scale(0.996264)" xlink:href="#CMR17-71"/>
      <use transform="translate(296.539588 0)scale(0.996264)" xlink:href="#CMR17-75"/>
      <use transform="translate(347.434958 0)scale(0.996264)" xlink:href="#CMR17-65"/>
     </g>
    </g>
   </g>
  </g>
 </g>
 <defs>
  <clipPath id="pf23702476a">
   <rect height="380.52" width="669.6" x="47.299176" y="7.2"/>
  </clipPath>
 </defs>
</svg>
