<?xml version="1.0" encoding="utf-8" standalone="no"?>
<!DOCTYPE svg PUBLIC "-//W3C//DTD SVG 1.1//EN"
  "http://www.w3.org/Graphics/SVG/1.1/DTD/svg11.dtd">
<svg height="563.446815pt" version="1.1" viewBox="0 0 705.668875 563.446815" width="705.668875pt" xmlns="http://www.w3.org/2000/svg" xmlns:xlink="http://www.w3.org/1999/xlink">
 <metadata>
  <rdf:RDF xmlns:cc="http://creativecommons.org/ns#" xmlns:dc="http://purl.org/dc/elements/1.1/" xmlns:rdf="http://www.w3.org/1999/02/22-rdf-syntax-ns#">
   <cc:Work>
    <dc:type rdf:resource="http://purl.org/dc/dcmitype/StillImage"/>
    <dc:date>2021-10-04T17:01:21.619998</dc:date>
    <dc:format>image/svg+xml</dc:format>
    <dc:creator>
     <cc:Agent>
      <dc:title>Matplotlib v3.4.3, https://matplotlib.org/</dc:title>
     </cc:Agent>
    </dc:creator>
   </cc:Work>
  </rdf:RDF>
 </metadata>
 <defs>
  <style type="text/css">*{stroke-linecap:butt;stroke-linejoin:round;}</style>
 </defs>
 <g id="figure_1">
  <g id="patch_1">
   <path d="M 0 563.446815 
L 705.668875 563.446815 
L 705.668875 0 
L 0 0 
z
" style="fill:none;"/>
  </g>
  <g id="axes_1">
   <g id="patch_2">
    <path d="M 47.105338 151.288801 
L 698.468875 151.288801 
L 698.468875 7.2 
L 47.105338 7.2 
z
" style="fill:#ffffff;"/>
   </g>
   <g id="matplotlib.axis_1">
    <g id="xtick_1">
     <g id="line2d_1">
      <path clip-path="url(#pbe574c5f7e)" d="M 57.611201 151.288801 
L 57.611201 7.2 
" style="fill:none;stroke:#b0b0b0;stroke-linecap:square;stroke-width:0.8;"/>
     </g>
     <g id="line2d_2">
      <defs>
       <path d="M 0 0 
L 0 3.5 
" id="m940fd1e58c" style="stroke:#000000;stroke-width:0.8;"/>
      </defs>
      <g>
       <use style="stroke:#000000;stroke-width:0.8;" x="57.611201" xlink:href="#m940fd1e58c" y="151.288801"/>
      </g>
     </g>
     <g id="text_1">
      <!-- $\mathdefault{−15}$ -->
      <g transform="translate(47.108966 166.590981)scale(0.12 -0.12)">
       <defs>
        <path d="M 4218 1472 
C 4326 1472 4442 1472 4442 1600 
C 4442 1728 4326 1728 4218 1728 
L 755 1728 
C 646 1728 531 1728 531 1600 
C 531 1472 646 1472 755 1472 
L 4218 1472 
z
" id="CMSY10-0" transform="scale(0.015625)"/>
        <path d="M 1702 4058 
C 1702 4192 1696 4192 1606 4192 
C 1357 3916 979 3827 621 3827 
C 602 3827 570 3827 563 3808 
C 557 3795 557 3782 557 3648 
C 755 3648 1088 3686 1344 3839 
L 1344 461 
C 1344 236 1331 160 781 160 
L 589 160 
L 589 0 
C 896 0 1216 0 1523 0 
C 1830 0 2150 0 2458 0 
L 2458 160 
L 2266 160 
C 1715 160 1702 230 1702 458 
L 1702 4058 
z
" id="CMR17-31" transform="scale(0.015625)"/>
        <path d="M 730 3692 
C 794 3666 1056 3584 1325 3584 
C 1920 3584 2246 3911 2432 4100 
C 2432 4157 2432 4192 2394 4192 
C 2387 4192 2374 4192 2323 4163 
C 2099 4058 1837 3973 1517 3973 
C 1325 3973 1037 3999 723 4139 
C 653 4171 640 4171 634 4171 
C 602 4171 595 4164 595 4037 
L 595 2203 
C 595 2089 595 2057 659 2057 
C 691 2057 704 2070 736 2114 
C 941 2401 1222 2522 1542 2522 
C 1766 2522 2246 2382 2246 1289 
C 2246 1085 2246 715 2054 421 
C 1894 159 1645 25 1370 25 
C 947 25 518 320 403 814 
C 429 807 480 795 506 795 
C 589 795 749 840 749 1038 
C 749 1210 627 1280 506 1280 
C 358 1280 262 1190 262 1011 
C 262 454 704 -128 1382 -128 
C 2042 -128 2669 440 2669 1264 
C 2669 2030 2170 2624 1549 2624 
C 1222 2624 947 2503 730 2274 
L 730 3692 
z
" id="CMR17-35" transform="scale(0.015625)"/>
       </defs>
       <use transform="scale(0.996264)" xlink:href="#CMSY10-0"/>
       <use transform="translate(77.487468 0)scale(0.996264)" xlink:href="#CMR17-31"/>
       <use transform="translate(123.177945 0)scale(0.996264)" xlink:href="#CMR17-35"/>
      </g>
     </g>
    </g>
    <g id="xtick_2">
     <g id="line2d_3">
      <path clip-path="url(#pbe574c5f7e)" d="M 162.669836 151.288801 
L 162.669836 7.2 
" style="fill:none;stroke:#b0b0b0;stroke-linecap:square;stroke-width:0.8;"/>
     </g>
     <g id="line2d_4">
      <g>
       <use style="stroke:#000000;stroke-width:0.8;" x="162.669836" xlink:href="#m940fd1e58c" y="151.288801"/>
      </g>
     </g>
     <g id="text_2">
      <!-- $\mathdefault{−10}$ -->
      <g transform="translate(152.167601 166.590981)scale(0.12 -0.12)">
       <defs>
        <path d="M 2688 2025 
C 2688 2416 2682 3080 2413 3591 
C 2176 4039 1798 4198 1466 4198 
C 1158 4198 768 4058 525 3597 
C 269 3118 243 2524 243 2025 
C 243 1661 250 1106 448 619 
C 723 -39 1216 -128 1466 -128 
C 1760 -128 2208 -7 2470 600 
C 2662 1042 2688 1559 2688 2025 
z
M 1466 -26 
C 1056 -26 813 325 723 812 
C 653 1188 653 1738 653 2096 
C 653 2588 653 2997 736 3387 
C 858 3929 1216 4096 1466 4096 
C 1728 4096 2067 3923 2189 3400 
C 2272 3036 2278 2607 2278 2096 
C 2278 1680 2278 1169 2202 792 
C 2067 95 1690 -26 1466 -26 
z
" id="CMR17-30" transform="scale(0.015625)"/>
       </defs>
       <use transform="scale(0.996264)" xlink:href="#CMSY10-0"/>
       <use transform="translate(77.487468 0)scale(0.996264)" xlink:href="#CMR17-31"/>
       <use transform="translate(123.177945 0)scale(0.996264)" xlink:href="#CMR17-30"/>
      </g>
     </g>
    </g>
    <g id="xtick_3">
     <g id="line2d_5">
      <path clip-path="url(#pbe574c5f7e)" d="M 267.728472 151.288801 
L 267.728472 7.2 
" style="fill:none;stroke:#b0b0b0;stroke-linecap:square;stroke-width:0.8;"/>
     </g>
     <g id="line2d_6">
      <g>
       <use style="stroke:#000000;stroke-width:0.8;" x="267.728472" xlink:href="#m940fd1e58c" y="151.288801"/>
      </g>
     </g>
     <g id="text_3">
      <!-- $\mathdefault{−5}$ -->
      <g transform="translate(260.152732 166.590981)scale(0.12 -0.12)">
       <use transform="scale(0.996264)" xlink:href="#CMSY10-0"/>
       <use transform="translate(77.487468 0)scale(0.996264)" xlink:href="#CMR17-35"/>
      </g>
     </g>
    </g>
    <g id="xtick_4">
     <g id="line2d_7">
      <path clip-path="url(#pbe574c5f7e)" d="M 372.787107 151.288801 
L 372.787107 7.2 
" style="fill:none;stroke:#b0b0b0;stroke-linecap:square;stroke-width:0.8;"/>
     </g>
     <g id="line2d_8">
      <g>
       <use style="stroke:#000000;stroke-width:0.8;" x="372.787107" xlink:href="#m940fd1e58c" y="151.288801"/>
      </g>
     </g>
     <g id="text_4">
      <!-- $\mathdefault{0}$ -->
      <g transform="translate(369.860611 166.590981)scale(0.12 -0.12)">
       <use transform="scale(0.996264)" xlink:href="#CMR17-30"/>
      </g>
     </g>
    </g>
    <g id="xtick_5">
     <g id="line2d_9">
      <path clip-path="url(#pbe574c5f7e)" d="M 477.845742 151.288801 
L 477.845742 7.2 
" style="fill:none;stroke:#b0b0b0;stroke-linecap:square;stroke-width:0.8;"/>
     </g>
     <g id="line2d_10">
      <g>
       <use style="stroke:#000000;stroke-width:0.8;" x="477.845742" xlink:href="#m940fd1e58c" y="151.288801"/>
      </g>
     </g>
     <g id="text_5">
      <!-- $\mathdefault{5}$ -->
      <g transform="translate(474.919247 166.590981)scale(0.12 -0.12)">
       <use transform="scale(0.996264)" xlink:href="#CMR17-35"/>
      </g>
     </g>
    </g>
    <g id="xtick_6">
     <g id="line2d_11">
      <path clip-path="url(#pbe574c5f7e)" d="M 582.904377 151.288801 
L 582.904377 7.2 
" style="fill:none;stroke:#b0b0b0;stroke-linecap:square;stroke-width:0.8;"/>
     </g>
     <g id="line2d_12">
      <g>
       <use style="stroke:#000000;stroke-width:0.8;" x="582.904377" xlink:href="#m940fd1e58c" y="151.288801"/>
      </g>
     </g>
     <g id="text_6">
      <!-- $\mathdefault{10}$ -->
      <g transform="translate(577.051386 166.590981)scale(0.12 -0.12)">
       <use transform="scale(0.996264)" xlink:href="#CMR17-31"/>
       <use transform="translate(45.690477 0)scale(0.996264)" xlink:href="#CMR17-30"/>
      </g>
     </g>
    </g>
    <g id="xtick_7">
     <g id="line2d_13">
      <path clip-path="url(#pbe574c5f7e)" d="M 687.963012 151.288801 
L 687.963012 7.2 
" style="fill:none;stroke:#b0b0b0;stroke-linecap:square;stroke-width:0.8;"/>
     </g>
     <g id="line2d_14">
      <g>
       <use style="stroke:#000000;stroke-width:0.8;" x="687.963012" xlink:href="#m940fd1e58c" y="151.288801"/>
      </g>
     </g>
     <g id="text_7">
      <!-- $\mathdefault{15}$ -->
      <g transform="translate(682.110022 166.590981)scale(0.12 -0.12)">
       <use transform="scale(0.996264)" xlink:href="#CMR17-31"/>
       <use transform="translate(45.690477 0)scale(0.996264)" xlink:href="#CMR17-35"/>
      </g>
     </g>
    </g>
    <g id="text_8">
     <!-- $n$ -->
     <g transform="translate(368.711007 182.601453)scale(0.14 -0.14)">
      <defs>
       <path d="M 1318 1871 
C 1331 1910 1491 2229 1728 2433 
C 1894 2586 2112 2689 2362 2689 
C 2618 2689 2707 2497 2707 2242 
C 2707 1878 2445 1150 2317 805 
C 2259 651 2227 568 2227 453 
C 2227 166 2426 -64 2733 -64 
C 3328 -64 3552 875 3552 913 
C 3552 945 3526 971 3488 971 
C 3430 971 3424 952 3392 843 
C 3245 319 3002 64 2752 64 
C 2688 64 2586 64 2586 269 
C 2586 429 2656 621 2694 710 
C 2822 1063 3091 1780 3091 2145 
C 3091 2528 2867 2816 2381 2816 
C 1811 2816 1510 2415 1395 2255 
C 1376 2618 1114 2816 832 2816 
C 627 2816 486 2695 378 2478 
C 262 2248 173 1865 173 1839 
C 173 1814 198 1782 243 1782 
C 294 1782 301 1788 339 1935 
C 442 2325 557 2689 813 2689 
C 960 2689 1011 2586 1011 2395 
C 1011 2254 947 2005 902 1807 
L 723 1118 
C 698 996 627 709 595 594 
C 550 428 480 128 480 96 
C 480 6 550 -64 646 -64 
C 723 -64 813 -26 864 70 
C 877 102 934 326 966 453 
L 1107 1028 
L 1318 1871 
z
" id="CMMI12-6e" transform="scale(0.015625)"/>
      </defs>
      <use transform="scale(0.996264)" xlink:href="#CMMI12-6e"/>
     </g>
    </g>
   </g>
   <g id="matplotlib.axis_2">
    <g id="ytick_1">
     <g id="line2d_15">
      <path clip-path="url(#pbe574c5f7e)" d="M 47.105338 121.80848 
L 698.468875 121.80848 
" style="fill:none;stroke:#b0b0b0;stroke-linecap:square;stroke-width:0.8;"/>
     </g>
     <g id="line2d_16">
      <defs>
       <path d="M 0 0 
L -3.5 0 
" id="m97ee839543" style="stroke:#000000;stroke-width:0.8;"/>
      </defs>
      <g>
       <use style="stroke:#000000;stroke-width:0.8;" x="47.105338" xlink:href="#m97ee839543" y="121.80848"/>
      </g>
     </g>
     <g id="text_9">
      <!-- $\mathdefault{0.0}$ -->
      <g transform="translate(25.147696 125.95957)scale(0.12 -0.12)">
       <defs>
        <path d="M 1178 307 
C 1178 492 1024 619 870 619 
C 685 619 557 466 557 313 
C 557 128 710 0 864 0 
C 1050 0 1178 153 1178 307 
z
" id="CMMI12-3a" transform="scale(0.015625)"/>
       </defs>
       <use transform="scale(0.996264)" xlink:href="#CMR17-30"/>
       <use transform="translate(45.690477 0)scale(0.996264)" xlink:href="#CMMI12-3a"/>
       <use transform="translate(72.787654 0)scale(0.996264)" xlink:href="#CMR17-30"/>
      </g>
     </g>
    </g>
    <g id="ytick_2">
     <g id="line2d_17">
      <path clip-path="url(#pbe574c5f7e)" d="M 47.105338 78.584885 
L 698.468875 78.584885 
" style="fill:none;stroke:#b0b0b0;stroke-linecap:square;stroke-width:0.8;"/>
     </g>
     <g id="line2d_18">
      <g>
       <use style="stroke:#000000;stroke-width:0.8;" x="47.105338" xlink:href="#m97ee839543" y="78.584885"/>
      </g>
     </g>
     <g id="text_10">
      <!-- $\mathdefault{0.2}$ -->
      <g transform="translate(25.147696 82.735975)scale(0.12 -0.12)">
       <defs>
        <path d="M 2669 989 
L 2554 989 
C 2490 536 2438 459 2413 420 
C 2381 369 1920 369 1830 369 
L 602 369 
C 832 619 1280 1072 1824 1597 
C 2214 1967 2669 2402 2669 3035 
C 2669 3790 2067 4224 1395 4224 
C 691 4224 262 3604 262 3030 
C 262 2780 448 2748 525 2748 
C 589 2748 781 2787 781 3010 
C 781 3207 614 3264 525 3264 
C 486 3264 448 3258 422 3245 
C 544 3790 915 4058 1306 4058 
C 1862 4058 2227 3617 2227 3035 
C 2227 2479 1901 2000 1536 1584 
L 262 146 
L 262 0 
L 2515 0 
L 2669 989 
z
" id="CMR17-32" transform="scale(0.015625)"/>
       </defs>
       <use transform="scale(0.996264)" xlink:href="#CMR17-30"/>
       <use transform="translate(45.690477 0)scale(0.996264)" xlink:href="#CMMI12-3a"/>
       <use transform="translate(72.787654 0)scale(0.996264)" xlink:href="#CMR17-32"/>
      </g>
     </g>
    </g>
    <g id="ytick_3">
     <g id="line2d_19">
      <path clip-path="url(#pbe574c5f7e)" d="M 47.105338 35.361289 
L 698.468875 35.361289 
" style="fill:none;stroke:#b0b0b0;stroke-linecap:square;stroke-width:0.8;"/>
     </g>
     <g id="line2d_20">
      <g>
       <use style="stroke:#000000;stroke-width:0.8;" x="47.105338" xlink:href="#m97ee839543" y="35.361289"/>
      </g>
     </g>
     <g id="text_11">
      <!-- $\mathdefault{0.4}$ -->
      <g transform="translate(25.147696 39.512379)scale(0.12 -0.12)">
       <defs>
        <path d="M 2150 4122 
C 2150 4256 2144 4256 2029 4256 
L 128 1254 
L 128 1088 
L 1779 1088 
L 1779 457 
C 1779 224 1766 160 1318 160 
L 1197 160 
L 1197 0 
C 1402 0 1747 0 1965 0 
C 2182 0 2528 0 2733 0 
L 2733 160 
L 2611 160 
C 2163 160 2150 224 2150 457 
L 2150 1088 
L 2803 1088 
L 2803 1254 
L 2150 1254 
L 2150 4122 
z
M 1798 3703 
L 1798 1254 
L 256 1254 
L 1798 3703 
z
" id="CMR17-34" transform="scale(0.015625)"/>
       </defs>
       <use transform="scale(0.996264)" xlink:href="#CMR17-30"/>
       <use transform="translate(45.690477 0)scale(0.996264)" xlink:href="#CMMI12-3a"/>
       <use transform="translate(72.787654 0)scale(0.996264)" xlink:href="#CMR17-34"/>
      </g>
     </g>
    </g>
    <g id="text_12">
     <!-- $h[n]$ -->
     <g transform="translate(17.660772 91.044929)rotate(-90)scale(0.14 -0.14)">
      <defs>
       <path d="M 1798 4257 
C 1805 4283 1818 4321 1818 4352 
C 1818 4416 1754 4416 1741 4416 
C 1734 4416 1421 4388 1389 4380 
C 1280 4373 1184 4358 1069 4358 
C 909 4345 864 4339 864 4224 
C 864 4160 915 4160 1005 4160 
C 1318 4160 1325 4103 1325 4040 
C 1325 4002 1312 3951 1306 3932 
L 378 248 
C 352 152 352 140 352 101 
C 352 -38 461 -64 525 -64 
C 634 -64 717 19 749 89 
L 1037 1245 
C 1069 1386 1107 1520 1139 1660 
C 1210 1929 1210 1935 1331 2120 
C 1453 2305 1741 2689 2234 2689 
C 2490 2689 2579 2497 2579 2242 
C 2579 1884 2330 1188 2189 805 
C 2131 651 2099 568 2099 453 
C 2099 166 2298 -64 2605 -64 
C 3200 -64 3424 875 3424 913 
C 3424 945 3398 971 3360 971 
C 3302 971 3296 952 3264 843 
C 3117 332 2880 64 2624 64 
C 2560 64 2458 64 2458 269 
C 2458 436 2534 640 2560 710 
C 2675 1018 2963 1773 2963 2145 
C 2963 2528 2739 2816 2253 2816 
C 1888 2816 1568 2644 1306 2312 
L 1798 4257 
z
" id="CMMI12-68" transform="scale(0.015625)"/>
       <path d="M 1504 -1600 
L 1504 -1377 
L 902 -1377 
L 902 4544 
L 1504 4544 
L 1504 4767 
L 678 4767 
L 678 -1600 
L 1504 -1600 
z
" id="CMR17-5b" transform="scale(0.015625)"/>
       <path d="M 915 4767 
L 90 4767 
L 90 4544 
L 691 4544 
L 691 -1377 
L 90 -1377 
L 90 -1600 
L 915 -1600 
L 915 4767 
z
" id="CMR17-5d" transform="scale(0.015625)"/>
      </defs>
      <use transform="scale(0.996264)" xlink:href="#CMMI12-68"/>
      <use transform="translate(56.154624 0)scale(0.996264)" xlink:href="#CMR17-5b"/>
      <use transform="translate(81.025682 0)scale(0.996264)" xlink:href="#CMMI12-6e"/>
      <use transform="translate(139.25573 0)scale(0.996264)" xlink:href="#CMR17-5d"/>
     </g>
    </g>
   </g>
   <g id="LineCollection_1">
    <path clip-path="url(#pbe574c5f7e)" d="M 57.611201 121.80848 
L 57.611201 126.394646 
" style="fill:none;stroke:#000000;stroke-width:1.5;"/>
    <path clip-path="url(#pbe574c5f7e)" d="M 78.622928 121.80848 
L 78.622928 121.80848 
" style="fill:none;stroke:#000000;stroke-width:1.5;"/>
    <path clip-path="url(#pbe574c5f7e)" d="M 99.634655 121.80848 
L 99.634655 116.516751 
" style="fill:none;stroke:#000000;stroke-width:1.5;"/>
    <path clip-path="url(#pbe574c5f7e)" d="M 120.646382 121.80848 
L 120.646382 121.80848 
" style="fill:none;stroke:#000000;stroke-width:1.5;"/>
    <path clip-path="url(#pbe574c5f7e)" d="M 141.658109 121.80848 
L 141.658109 128.062343 
" style="fill:none;stroke:#000000;stroke-width:1.5;"/>
    <path clip-path="url(#pbe574c5f7e)" d="M 162.669836 121.80848 
L 162.669836 121.80848 
" style="fill:none;stroke:#000000;stroke-width:1.5;"/>
    <path clip-path="url(#pbe574c5f7e)" d="M 183.681563 121.80848 
L 183.681563 114.164871 
" style="fill:none;stroke:#000000;stroke-width:1.5;"/>
    <path clip-path="url(#pbe574c5f7e)" d="M 204.69329 121.80848 
L 204.69329 121.80848 
" style="fill:none;stroke:#000000;stroke-width:1.5;"/>
    <path clip-path="url(#pbe574c5f7e)" d="M 225.705017 121.80848 
L 225.705017 131.635979 
" style="fill:none;stroke:#000000;stroke-width:1.5;"/>
    <path clip-path="url(#pbe574c5f7e)" d="M 246.716745 121.80848 
L 246.716745 121.80848 
" style="fill:none;stroke:#000000;stroke-width:1.5;"/>
    <path clip-path="url(#pbe574c5f7e)" d="M 267.728472 121.80848 
L 267.728472 108.049983 
" style="fill:none;stroke:#000000;stroke-width:1.5;"/>
    <path clip-path="url(#pbe574c5f7e)" d="M 288.740199 121.80848 
L 288.740199 121.80848 
" style="fill:none;stroke:#000000;stroke-width:1.5;"/>
    <path clip-path="url(#pbe574c5f7e)" d="M 309.751926 121.80848 
L 309.751926 144.73931 
" style="fill:none;stroke:#000000;stroke-width:1.5;"/>
    <path clip-path="url(#pbe574c5f7e)" d="M 330.763653 121.80848 
L 330.763653 121.80848 
" style="fill:none;stroke:#000000;stroke-width:1.5;"/>
    <path clip-path="url(#pbe574c5f7e)" d="M 351.77538 121.80848 
L 351.77538 53.015991 
" style="fill:none;stroke:#000000;stroke-width:1.5;"/>
    <path clip-path="url(#pbe574c5f7e)" d="M 372.787107 121.80848 
L 372.787107 13.749491 
" style="fill:none;stroke:#000000;stroke-width:1.5;"/>
    <path clip-path="url(#pbe574c5f7e)" d="M 393.798834 121.80848 
L 393.798834 53.015991 
" style="fill:none;stroke:#000000;stroke-width:1.5;"/>
    <path clip-path="url(#pbe574c5f7e)" d="M 414.810561 121.80848 
L 414.810561 121.80848 
" style="fill:none;stroke:#000000;stroke-width:1.5;"/>
    <path clip-path="url(#pbe574c5f7e)" d="M 435.822288 121.80848 
L 435.822288 144.73931 
" style="fill:none;stroke:#000000;stroke-width:1.5;"/>
    <path clip-path="url(#pbe574c5f7e)" d="M 456.834015 121.80848 
L 456.834015 121.80848 
" style="fill:none;stroke:#000000;stroke-width:1.5;"/>
    <path clip-path="url(#pbe574c5f7e)" d="M 477.845742 121.80848 
L 477.845742 108.049983 
" style="fill:none;stroke:#000000;stroke-width:1.5;"/>
    <path clip-path="url(#pbe574c5f7e)" d="M 498.857469 121.80848 
L 498.857469 121.80848 
" style="fill:none;stroke:#000000;stroke-width:1.5;"/>
    <path clip-path="url(#pbe574c5f7e)" d="M 519.869196 121.80848 
L 519.869196 131.635979 
" style="fill:none;stroke:#000000;stroke-width:1.5;"/>
    <path clip-path="url(#pbe574c5f7e)" d="M 540.880923 121.80848 
L 540.880923 121.80848 
" style="fill:none;stroke:#000000;stroke-width:1.5;"/>
    <path clip-path="url(#pbe574c5f7e)" d="M 561.89265 121.80848 
L 561.89265 114.164871 
" style="fill:none;stroke:#000000;stroke-width:1.5;"/>
    <path clip-path="url(#pbe574c5f7e)" d="M 582.904377 121.80848 
L 582.904377 121.80848 
" style="fill:none;stroke:#000000;stroke-width:1.5;"/>
    <path clip-path="url(#pbe574c5f7e)" d="M 603.916104 121.80848 
L 603.916104 128.062343 
" style="fill:none;stroke:#000000;stroke-width:1.5;"/>
    <path clip-path="url(#pbe574c5f7e)" d="M 624.927831 121.80848 
L 624.927831 121.80848 
" style="fill:none;stroke:#000000;stroke-width:1.5;"/>
    <path clip-path="url(#pbe574c5f7e)" d="M 645.939558 121.80848 
L 645.939558 116.516751 
" style="fill:none;stroke:#000000;stroke-width:1.5;"/>
    <path clip-path="url(#pbe574c5f7e)" d="M 666.951285 121.80848 
L 666.951285 121.80848 
" style="fill:none;stroke:#000000;stroke-width:1.5;"/>
    <path clip-path="url(#pbe574c5f7e)" d="M 687.963012 121.80848 
L 687.963012 126.394646 
" style="fill:none;stroke:#000000;stroke-width:1.5;"/>
   </g>
   <g id="line2d_21">
    <defs>
     <path d="M 0 3 
C 0.795609 3 1.55874 2.683901 2.12132 2.12132 
C 2.683901 1.55874 3 0.795609 3 0 
C 3 -0.795609 2.683901 -1.55874 2.12132 -2.12132 
C 1.55874 -2.683901 0.795609 -3 0 -3 
C -0.795609 -3 -1.55874 -2.683901 -2.12132 -2.12132 
C -2.683901 -1.55874 -3 -0.795609 -3 0 
C -3 0.795609 -2.683901 1.55874 -2.12132 2.12132 
C -1.55874 2.683901 -0.795609 3 0 3 
z
" id="m6495b43e78" style="stroke:#000000;"/>
    </defs>
    <g clip-path="url(#pbe574c5f7e)">
     <use style="stroke:#000000;" x="57.611201" xlink:href="#m6495b43e78" y="126.394646"/>
     <use style="stroke:#000000;" x="78.622928" xlink:href="#m6495b43e78" y="121.80848"/>
     <use style="stroke:#000000;" x="99.634655" xlink:href="#m6495b43e78" y="116.516751"/>
     <use style="stroke:#000000;" x="120.646382" xlink:href="#m6495b43e78" y="121.80848"/>
     <use style="stroke:#000000;" x="141.658109" xlink:href="#m6495b43e78" y="128.062343"/>
     <use style="stroke:#000000;" x="162.669836" xlink:href="#m6495b43e78" y="121.80848"/>
     <use style="stroke:#000000;" x="183.681563" xlink:href="#m6495b43e78" y="114.164871"/>
     <use style="stroke:#000000;" x="204.69329" xlink:href="#m6495b43e78" y="121.80848"/>
     <use style="stroke:#000000;" x="225.705017" xlink:href="#m6495b43e78" y="131.635979"/>
     <use style="stroke:#000000;" x="246.716745" xlink:href="#m6495b43e78" y="121.80848"/>
     <use style="stroke:#000000;" x="267.728472" xlink:href="#m6495b43e78" y="108.049983"/>
     <use style="stroke:#000000;" x="288.740199" xlink:href="#m6495b43e78" y="121.80848"/>
     <use style="stroke:#000000;" x="309.751926" xlink:href="#m6495b43e78" y="144.73931"/>
     <use style="stroke:#000000;" x="330.763653" xlink:href="#m6495b43e78" y="121.80848"/>
     <use style="stroke:#000000;" x="351.77538" xlink:href="#m6495b43e78" y="53.015991"/>
     <use style="stroke:#000000;" x="372.787107" xlink:href="#m6495b43e78" y="13.749491"/>
     <use style="stroke:#000000;" x="393.798834" xlink:href="#m6495b43e78" y="53.015991"/>
     <use style="stroke:#000000;" x="414.810561" xlink:href="#m6495b43e78" y="121.80848"/>
     <use style="stroke:#000000;" x="435.822288" xlink:href="#m6495b43e78" y="144.73931"/>
     <use style="stroke:#000000;" x="456.834015" xlink:href="#m6495b43e78" y="121.80848"/>
     <use style="stroke:#000000;" x="477.845742" xlink:href="#m6495b43e78" y="108.049983"/>
     <use style="stroke:#000000;" x="498.857469" xlink:href="#m6495b43e78" y="121.80848"/>
     <use style="stroke:#000000;" x="519.869196" xlink:href="#m6495b43e78" y="131.635979"/>
     <use style="stroke:#000000;" x="540.880923" xlink:href="#m6495b43e78" y="121.80848"/>
     <use style="stroke:#000000;" x="561.89265" xlink:href="#m6495b43e78" y="114.164871"/>
     <use style="stroke:#000000;" x="582.904377" xlink:href="#m6495b43e78" y="121.80848"/>
     <use style="stroke:#000000;" x="603.916104" xlink:href="#m6495b43e78" y="128.062343"/>
     <use style="stroke:#000000;" x="624.927831" xlink:href="#m6495b43e78" y="121.80848"/>
     <use style="stroke:#000000;" x="645.939558" xlink:href="#m6495b43e78" y="116.516751"/>
     <use style="stroke:#000000;" x="666.951285" xlink:href="#m6495b43e78" y="121.80848"/>
     <use style="stroke:#000000;" x="687.963012" xlink:href="#m6495b43e78" y="126.394646"/>
    </g>
   </g>
   <g id="line2d_22"/>
   <g id="patch_3">
    <path d="M 47.105338 151.288801 
L 47.105338 7.2 
" style="fill:none;stroke:#000000;stroke-linecap:square;stroke-linejoin:miter;stroke-width:0.8;"/>
   </g>
   <g id="patch_4">
    <path d="M 698.468875 151.288801 
L 698.468875 7.2 
" style="fill:none;stroke:#000000;stroke-linecap:square;stroke-linejoin:miter;stroke-width:0.8;"/>
   </g>
   <g id="patch_5">
    <path d="M 47.105338 151.288801 
L 698.468875 151.288801 
" style="fill:none;stroke:#000000;stroke-linecap:square;stroke-linejoin:miter;stroke-width:0.8;"/>
   </g>
   <g id="patch_6">
    <path d="M 47.105338 7.2 
L 698.468875 7.2 
" style="fill:none;stroke:#000000;stroke-linecap:square;stroke-linejoin:miter;stroke-width:0.8;"/>
   </g>
   <g id="legend_1">
    <g id="patch_7">
     <path d="M 56.905338 37.912028 
L 167.521972 37.912028 
Q 170.321972 37.912028 170.321972 35.112028 
L 170.321972 17 
Q 170.321972 14.2 167.521972 14.2 
L 56.905338 14.2 
Q 54.105338 14.2 54.105338 17 
L 54.105338 35.112028 
Q 54.105338 37.912028 56.905338 37.912028 
z
" style="fill:#ffffff;opacity:0.8;stroke:#cccccc;stroke-linejoin:miter;"/>
    </g>
    <g id="line2d_23">
     <path d="M 73.705338 29.6 
L 73.705338 22.8625 
" style="fill:none;stroke:#000000;stroke-width:1.5;"/>
    </g>
    <g id="line2d_24"/>
    <g id="line2d_25">
     <g>
      <use style="stroke:#000000;" x="73.705338" xlink:href="#m6495b43e78" y="22.8625"/>
     </g>
    </g>
    <g id="text_13">
     <!-- Filtre idéal -->
     <g transform="translate(98.905338 29.6)scale(0.14 -0.14)">
      <defs>
       <path d="M 3482 4325 
L 326 4325 
L 326 4160 
C 768 4160 838 4160 838 3874 
L 838 446 
C 838 160 768 160 326 160 
L 326 0 
C 512 0 870 0 1069 0 
C 1331 0 1638 0 1901 0 
L 1901 160 
L 1760 160 
C 1274 160 1261 223 1261 452 
L 1261 2075 
L 1837 2075 
C 2432 2075 2490 1865 2490 1332 
L 2605 1332 
L 2605 2987 
L 2490 2987 
C 2490 2450 2432 2240 1837 2240 
L 1261 2240 
L 1261 3911 
C 1261 4128 1274 4160 1530 4160 
L 2355 4160 
C 3322 4160 3430 3765 3520 2916 
L 3635 2916 
L 3482 4325 
z
" id="CMR17-46" transform="scale(0.015625)"/>
       <path d="M 992 3909 
C 992 4049 877 4170 730 4170 
C 589 4170 467 4056 467 3909 
C 467 3769 582 3648 730 3648 
C 870 3648 992 3763 992 3909 
z
M 243 2706 
L 243 2541 
C 602 2541 653 2502 653 2197 
L 653 427 
C 653 184 627 153 218 153 
L 218 -13 
C 371 0 646 0 806 0 
C 960 0 1222 0 1370 -13 
L 1370 153 
C 992 153 979 191 979 420 
L 979 2776 
L 243 2706 
z
" id="CMR17-69" transform="scale(0.015625)"/>
       <path d="M 979 4396 
L 218 4326 
L 218 4160 
C 595 4160 653 4122 653 3817 
L 653 426 
C 653 184 627 153 218 153 
L 218 -13 
C 371 0 653 0 813 0 
C 979 0 1261 0 1414 -13 
L 1414 153 
C 1005 153 979 178 979 426 
L 979 4396 
z
" id="CMR17-6c" transform="scale(0.015625)"/>
       <path d="M 966 2560 
L 1862 2560 
L 1862 2725 
L 966 2725 
L 966 3904 
L 851 3904 
C 838 3245 614 2668 70 2668 
L 70 2560 
L 627 2560 
L 627 771 
C 627 650 627 -64 1370 -64 
C 1747 -64 1965 306 1965 777 
L 1965 1140 
L 1850 1140 
L 1850 783 
C 1850 344 1677 51 1408 51 
C 1222 51 966 178 966 758 
L 966 2560 
z
" id="CMR17-74" transform="scale(0.015625)"/>
       <path d="M 960 1497 
C 960 2112 1222 2688 1702 2688 
C 1747 2688 1792 2682 1837 2662 
C 1837 2662 1696 2617 1696 2452 
C 1696 2298 1818 2234 1914 2234 
C 1990 2234 2131 2279 2131 2458 
C 2131 2663 1926 2790 1709 2790 
C 1222 2790 1011 2317 947 2093 
L 941 2093 
L 941 2790 
L 198 2720 
L 198 2554 
C 576 2554 634 2515 634 2208 
L 634 428 
C 634 184 608 153 198 153 
L 198 -13 
C 352 0 646 0 813 0 
C 998 0 1325 0 1498 -13 
L 1498 153 
C 1037 153 960 153 960 440 
L 960 1497 
z
" id="CMR17-72" transform="scale(0.015625)"/>
       <path d="M 2438 1472 
C 2464 1498 2464 1511 2464 1576 
C 2464 2238 2118 2816 1389 2816 
C 710 2816 173 2169 173 1383 
C 173 551 781 -64 1459 -64 
C 2176 -64 2458 607 2458 740 
C 2458 784 2419 784 2406 784 
C 2362 784 2355 771 2330 696 
C 2189 265 1837 51 1504 51 
C 1229 51 954 203 781 480 
C 582 803 582 1176 582 1472 
L 2438 1472 
z
M 589 1568 
C 634 2505 1126 2714 1382 2714 
C 1818 2714 2112 2297 2118 1568 
L 589 1568 
z
" id="CMR17-65" transform="scale(0.015625)"/>
       <path d="M 1869 4326 
L 1869 4160 
C 2246 4160 2304 4122 2304 3820 
L 2304 2345 
C 2278 2377 2016 2790 1498 2790 
C 845 2790 211 2208 211 1364 
C 211 525 806 -64 1434 -64 
C 1978 -64 2259 337 2291 380 
L 2291 -63 
L 3066 -63 
L 3066 128 
C 2688 128 2630 166 2630 473 
L 2630 4396 
L 1869 4326 
z
M 2291 755 
C 2291 563 2176 390 2029 262 
C 1811 70 1594 38 1472 38 
C 1286 38 621 134 621 1356 
C 621 2612 1363 2688 1530 2688 
C 1824 2688 2061 2522 2208 2291 
C 2291 2157 2291 2138 2291 2023 
L 2291 755 
z
" id="CMR17-64" transform="scale(0.015625)"/>
       <path d="M 2221 4091 
C 2298 4161 2317 4174 2317 4244 
C 2317 4339 2234 4416 2144 4416 
C 2067 4416 2042 4384 1978 4308 
L 1254 3390 
C 1210 3333 1210 3327 1210 3320 
C 1210 3314 1267 3256 1280 3244 
L 2221 4091 
z
" id="CMR17-13" transform="scale(0.015625)"/>
       <path d="M 2304 1653 
C 2304 2072 2304 2294 2035 2543 
C 1798 2752 1523 2816 1306 2816 
C 800 2816 435 2407 435 1971 
C 435 1728 627 1728 666 1728 
C 749 1728 896 1778 896 1954 
C 896 2112 774 2181 666 2181 
C 640 2181 608 2174 589 2168 
C 723 2592 1069 2714 1293 2714 
C 1613 2714 1965 2429 1965 1885 
L 1965 1600 
C 1587 1600 1133 1549 774 1357 
C 371 1133 256 813 256 570 
C 256 77 832 -64 1171 -64 
C 1523 -64 1850 139 1990 511 
C 2003 233 2182 -18 2464 -18 
C 2598 -18 2938 70 2938 567 
L 2938 920 
L 2822 920 
L 2822 562 
C 2822 178 2650 128 2566 128 
C 2304 128 2304 458 2304 738 
L 2304 1653 
z
M 1965 870 
C 1965 317 1568 38 1216 38 
C 896 38 646 275 646 570 
C 646 761 730 1100 1101 1305 
C 1408 1478 1760 1504 1965 1504 
L 1965 870 
z
" id="CMR17-61" transform="scale(0.015625)"/>
      </defs>
      <use transform="scale(0.996264)" xlink:href="#CMR17-46"/>
      <use transform="translate(59.983847 0)scale(0.996264)" xlink:href="#CMR17-69"/>
      <use transform="translate(84.854905 0)scale(0.996264)" xlink:href="#CMR17-6c"/>
      <use transform="translate(109.725964 0)scale(0.996264)" xlink:href="#CMR17-74"/>
      <use transform="translate(145.006731 0)scale(0.996264)" xlink:href="#CMR17-72"/>
      <use transform="translate(180.287499 0)scale(0.996264)" xlink:href="#CMR17-65"/>
      <use transform="translate(250.849126 0)scale(0.996264)" xlink:href="#CMR17-69"/>
      <use transform="translate(275.720184 0)scale(0.996264)" xlink:href="#CMR17-64"/>
      <use transform="translate(324.013146 0)scale(0.996264)" xlink:href="#CMR17-13"/>
      <use transform="translate(326.615554 0)scale(0.996264)" xlink:href="#CMR17-65"/>
      <use transform="translate(367.101215 0)scale(0.996264)" xlink:href="#CMR17-61"/>
      <use transform="translate(412.791692 0)scale(0.996264)" xlink:href="#CMR17-6c"/>
     </g>
    </g>
   </g>
  </g>
  <g id="axes_2">
   <g id="patch_8">
    <path d="M 47.105338 336.755468 
L 698.468875 336.755468 
L 698.468875 192.666667 
L 47.105338 192.666667 
z
" style="fill:#ffffff;"/>
   </g>
   <g id="matplotlib.axis_3">
    <g id="xtick_8">
     <g id="line2d_26">
      <path clip-path="url(#pfe382eb0ec)" d="M 57.611201 336.755468 
L 57.611201 192.666667 
" style="fill:none;stroke:#b0b0b0;stroke-linecap:square;stroke-width:0.8;"/>
     </g>
     <g id="line2d_27">
      <g>
       <use style="stroke:#000000;stroke-width:0.8;" x="57.611201" xlink:href="#m940fd1e58c" y="336.755468"/>
      </g>
     </g>
     <g id="text_14">
      <!-- $\mathdefault{−15}$ -->
      <g transform="translate(47.108966 352.057648)scale(0.12 -0.12)">
       <use transform="scale(0.996264)" xlink:href="#CMSY10-0"/>
       <use transform="translate(77.487468 0)scale(0.996264)" xlink:href="#CMR17-31"/>
       <use transform="translate(123.177945 0)scale(0.996264)" xlink:href="#CMR17-35"/>
      </g>
     </g>
    </g>
    <g id="xtick_9">
     <g id="line2d_28">
      <path clip-path="url(#pfe382eb0ec)" d="M 162.669836 336.755468 
L 162.669836 192.666667 
" style="fill:none;stroke:#b0b0b0;stroke-linecap:square;stroke-width:0.8;"/>
     </g>
     <g id="line2d_29">
      <g>
       <use style="stroke:#000000;stroke-width:0.8;" x="162.669836" xlink:href="#m940fd1e58c" y="336.755468"/>
      </g>
     </g>
     <g id="text_15">
      <!-- $\mathdefault{−10}$ -->
      <g transform="translate(152.167601 352.057648)scale(0.12 -0.12)">
       <use transform="scale(0.996264)" xlink:href="#CMSY10-0"/>
       <use transform="translate(77.487468 0)scale(0.996264)" xlink:href="#CMR17-31"/>
       <use transform="translate(123.177945 0)scale(0.996264)" xlink:href="#CMR17-30"/>
      </g>
     </g>
    </g>
    <g id="xtick_10">
     <g id="line2d_30">
      <path clip-path="url(#pfe382eb0ec)" d="M 267.728472 336.755468 
L 267.728472 192.666667 
" style="fill:none;stroke:#b0b0b0;stroke-linecap:square;stroke-width:0.8;"/>
     </g>
     <g id="line2d_31">
      <g>
       <use style="stroke:#000000;stroke-width:0.8;" x="267.728472" xlink:href="#m940fd1e58c" y="336.755468"/>
      </g>
     </g>
     <g id="text_16">
      <!-- $\mathdefault{−5}$ -->
      <g transform="translate(260.152732 352.057648)scale(0.12 -0.12)">
       <use transform="scale(0.996264)" xlink:href="#CMSY10-0"/>
       <use transform="translate(77.487468 0)scale(0.996264)" xlink:href="#CMR17-35"/>
      </g>
     </g>
    </g>
    <g id="xtick_11">
     <g id="line2d_32">
      <path clip-path="url(#pfe382eb0ec)" d="M 372.787107 336.755468 
L 372.787107 192.666667 
" style="fill:none;stroke:#b0b0b0;stroke-linecap:square;stroke-width:0.8;"/>
     </g>
     <g id="line2d_33">
      <g>
       <use style="stroke:#000000;stroke-width:0.8;" x="372.787107" xlink:href="#m940fd1e58c" y="336.755468"/>
      </g>
     </g>
     <g id="text_17">
      <!-- $\mathdefault{0}$ -->
      <g transform="translate(369.860611 352.057648)scale(0.12 -0.12)">
       <use transform="scale(0.996264)" xlink:href="#CMR17-30"/>
      </g>
     </g>
    </g>
    <g id="xtick_12">
     <g id="line2d_34">
      <path clip-path="url(#pfe382eb0ec)" d="M 477.845742 336.755468 
L 477.845742 192.666667 
" style="fill:none;stroke:#b0b0b0;stroke-linecap:square;stroke-width:0.8;"/>
     </g>
     <g id="line2d_35">
      <g>
       <use style="stroke:#000000;stroke-width:0.8;" x="477.845742" xlink:href="#m940fd1e58c" y="336.755468"/>
      </g>
     </g>
     <g id="text_18">
      <!-- $\mathdefault{5}$ -->
      <g transform="translate(474.919247 352.057648)scale(0.12 -0.12)">
       <use transform="scale(0.996264)" xlink:href="#CMR17-35"/>
      </g>
     </g>
    </g>
    <g id="xtick_13">
     <g id="line2d_36">
      <path clip-path="url(#pfe382eb0ec)" d="M 582.904377 336.755468 
L 582.904377 192.666667 
" style="fill:none;stroke:#b0b0b0;stroke-linecap:square;stroke-width:0.8;"/>
     </g>
     <g id="line2d_37">
      <g>
       <use style="stroke:#000000;stroke-width:0.8;" x="582.904377" xlink:href="#m940fd1e58c" y="336.755468"/>
      </g>
     </g>
     <g id="text_19">
      <!-- $\mathdefault{10}$ -->
      <g transform="translate(577.051386 352.057648)scale(0.12 -0.12)">
       <use transform="scale(0.996264)" xlink:href="#CMR17-31"/>
       <use transform="translate(45.690477 0)scale(0.996264)" xlink:href="#CMR17-30"/>
      </g>
     </g>
    </g>
    <g id="xtick_14">
     <g id="line2d_38">
      <path clip-path="url(#pfe382eb0ec)" d="M 687.963012 336.755468 
L 687.963012 192.666667 
" style="fill:none;stroke:#b0b0b0;stroke-linecap:square;stroke-width:0.8;"/>
     </g>
     <g id="line2d_39">
      <g>
       <use style="stroke:#000000;stroke-width:0.8;" x="687.963012" xlink:href="#m940fd1e58c" y="336.755468"/>
      </g>
     </g>
     <g id="text_20">
      <!-- $\mathdefault{15}$ -->
      <g transform="translate(682.110022 352.057648)scale(0.12 -0.12)">
       <use transform="scale(0.996264)" xlink:href="#CMR17-31"/>
       <use transform="translate(45.690477 0)scale(0.996264)" xlink:href="#CMR17-35"/>
      </g>
     </g>
    </g>
    <g id="text_21">
     <!-- $n$ -->
     <g transform="translate(368.711007 368.06812)scale(0.14 -0.14)">
      <use transform="scale(0.996264)" xlink:href="#CMMI12-6e"/>
     </g>
    </g>
   </g>
   <g id="matplotlib.axis_4">
    <g id="ytick_4">
     <g id="line2d_40">
      <path clip-path="url(#pfe382eb0ec)" d="M 47.105338 307.275147 
L 698.468875 307.275147 
" style="fill:none;stroke:#b0b0b0;stroke-linecap:square;stroke-width:0.8;"/>
     </g>
     <g id="line2d_41">
      <g>
       <use style="stroke:#000000;stroke-width:0.8;" x="47.105338" xlink:href="#m97ee839543" y="307.275147"/>
      </g>
     </g>
     <g id="text_22">
      <!-- $\mathdefault{0.0}$ -->
      <g transform="translate(25.147696 311.426237)scale(0.12 -0.12)">
       <use transform="scale(0.996264)" xlink:href="#CMR17-30"/>
       <use transform="translate(45.690477 0)scale(0.996264)" xlink:href="#CMMI12-3a"/>
       <use transform="translate(72.787654 0)scale(0.996264)" xlink:href="#CMR17-30"/>
      </g>
     </g>
    </g>
    <g id="ytick_5">
     <g id="line2d_42">
      <path clip-path="url(#pfe382eb0ec)" d="M 47.105338 264.051551 
L 698.468875 264.051551 
" style="fill:none;stroke:#b0b0b0;stroke-linecap:square;stroke-width:0.8;"/>
     </g>
     <g id="line2d_43">
      <g>
       <use style="stroke:#000000;stroke-width:0.8;" x="47.105338" xlink:href="#m97ee839543" y="264.051551"/>
      </g>
     </g>
     <g id="text_23">
      <!-- $\mathdefault{0.2}$ -->
      <g transform="translate(25.147696 268.202641)scale(0.12 -0.12)">
       <use transform="scale(0.996264)" xlink:href="#CMR17-30"/>
       <use transform="translate(45.690477 0)scale(0.996264)" xlink:href="#CMMI12-3a"/>
       <use transform="translate(72.787654 0)scale(0.996264)" xlink:href="#CMR17-32"/>
      </g>
     </g>
    </g>
    <g id="ytick_6">
     <g id="line2d_44">
      <path clip-path="url(#pfe382eb0ec)" d="M 47.105338 220.827956 
L 698.468875 220.827956 
" style="fill:none;stroke:#b0b0b0;stroke-linecap:square;stroke-width:0.8;"/>
     </g>
     <g id="line2d_45">
      <g>
       <use style="stroke:#000000;stroke-width:0.8;" x="47.105338" xlink:href="#m97ee839543" y="220.827956"/>
      </g>
     </g>
     <g id="text_24">
      <!-- $\mathdefault{0.4}$ -->
      <g transform="translate(25.147696 224.979045)scale(0.12 -0.12)">
       <use transform="scale(0.996264)" xlink:href="#CMR17-30"/>
       <use transform="translate(45.690477 0)scale(0.996264)" xlink:href="#CMMI12-3a"/>
       <use transform="translate(72.787654 0)scale(0.996264)" xlink:href="#CMR17-34"/>
      </g>
     </g>
    </g>
    <g id="text_25">
     <!-- $h[n]$ -->
     <g transform="translate(17.660772 276.511595)rotate(-90)scale(0.14 -0.14)">
      <use transform="scale(0.996264)" xlink:href="#CMMI12-68"/>
      <use transform="translate(56.154624 0)scale(0.996264)" xlink:href="#CMR17-5b"/>
      <use transform="translate(81.025682 0)scale(0.996264)" xlink:href="#CMMI12-6e"/>
      <use transform="translate(139.25573 0)scale(0.996264)" xlink:href="#CMR17-5d"/>
     </g>
    </g>
   </g>
   <g id="LineCollection_2">
    <path clip-path="url(#pfe382eb0ec)" d="M 372.787107 307.275147 
L 372.787107 307.275147 
" style="fill:none;stroke:#1f77b4;stroke-width:1.5;"/>
    <path clip-path="url(#pfe382eb0ec)" d="M 393.798834 307.275147 
L 393.798834 330.205977 
" style="fill:none;stroke:#1f77b4;stroke-width:1.5;"/>
    <path clip-path="url(#pfe382eb0ec)" d="M 414.810561 307.275147 
L 414.810561 307.275147 
" style="fill:none;stroke:#1f77b4;stroke-width:1.5;"/>
    <path clip-path="url(#pfe382eb0ec)" d="M 435.822288 307.275147 
L 435.822288 238.482658 
" style="fill:none;stroke:#1f77b4;stroke-width:1.5;"/>
    <path clip-path="url(#pfe382eb0ec)" d="M 456.834015 307.275147 
L 456.834015 199.216158 
" style="fill:none;stroke:#1f77b4;stroke-width:1.5;"/>
    <path clip-path="url(#pfe382eb0ec)" d="M 477.845742 307.275147 
L 477.845742 238.482658 
" style="fill:none;stroke:#1f77b4;stroke-width:1.5;"/>
    <path clip-path="url(#pfe382eb0ec)" d="M 498.857469 307.275147 
L 498.857469 307.275147 
" style="fill:none;stroke:#1f77b4;stroke-width:1.5;"/>
    <path clip-path="url(#pfe382eb0ec)" d="M 519.869196 307.275147 
L 519.869196 330.205977 
" style="fill:none;stroke:#1f77b4;stroke-width:1.5;"/>
    <path clip-path="url(#pfe382eb0ec)" d="M 540.880923 307.275147 
L 540.880923 307.275147 
" style="fill:none;stroke:#1f77b4;stroke-width:1.5;"/>
   </g>
   <g id="line2d_46">
    <defs>
     <path d="M 0 3 
C 0.795609 3 1.55874 2.683901 2.12132 2.12132 
C 2.683901 1.55874 3 0.795609 3 0 
C 3 -0.795609 2.683901 -1.55874 2.12132 -2.12132 
C 1.55874 -2.683901 0.795609 -3 0 -3 
C -0.795609 -3 -1.55874 -2.683901 -2.12132 -2.12132 
C -2.683901 -1.55874 -3 -0.795609 -3 0 
C -3 0.795609 -2.683901 1.55874 -2.12132 2.12132 
C -1.55874 2.683901 -0.795609 3 0 3 
z
" id="m50c05cb0b2" style="stroke:#1f77b4;"/>
    </defs>
    <g clip-path="url(#pfe382eb0ec)">
     <use style="fill:#1f77b4;stroke:#1f77b4;" x="372.787107" xlink:href="#m50c05cb0b2" y="307.275147"/>
     <use style="fill:#1f77b4;stroke:#1f77b4;" x="393.798834" xlink:href="#m50c05cb0b2" y="330.205977"/>
     <use style="fill:#1f77b4;stroke:#1f77b4;" x="414.810561" xlink:href="#m50c05cb0b2" y="307.275147"/>
     <use style="fill:#1f77b4;stroke:#1f77b4;" x="435.822288" xlink:href="#m50c05cb0b2" y="238.482658"/>
     <use style="fill:#1f77b4;stroke:#1f77b4;" x="456.834015" xlink:href="#m50c05cb0b2" y="199.216158"/>
     <use style="fill:#1f77b4;stroke:#1f77b4;" x="477.845742" xlink:href="#m50c05cb0b2" y="238.482658"/>
     <use style="fill:#1f77b4;stroke:#1f77b4;" x="498.857469" xlink:href="#m50c05cb0b2" y="307.275147"/>
     <use style="fill:#1f77b4;stroke:#1f77b4;" x="519.869196" xlink:href="#m50c05cb0b2" y="330.205977"/>
     <use style="fill:#1f77b4;stroke:#1f77b4;" x="540.880923" xlink:href="#m50c05cb0b2" y="307.275147"/>
    </g>
   </g>
   <g id="line2d_47"/>
   <g id="patch_9">
    <path d="M 47.105338 336.755468 
L 47.105338 192.666667 
" style="fill:none;stroke:#000000;stroke-linecap:square;stroke-linejoin:miter;stroke-width:0.8;"/>
   </g>
   <g id="patch_10">
    <path d="M 698.468875 336.755468 
L 698.468875 192.666667 
" style="fill:none;stroke:#000000;stroke-linecap:square;stroke-linejoin:miter;stroke-width:0.8;"/>
   </g>
   <g id="patch_11">
    <path d="M 47.105338 336.755468 
L 698.468875 336.755468 
" style="fill:none;stroke:#000000;stroke-linecap:square;stroke-linejoin:miter;stroke-width:0.8;"/>
   </g>
   <g id="patch_12">
    <path d="M 47.105338 192.666667 
L 698.468875 192.666667 
" style="fill:none;stroke:#000000;stroke-linecap:square;stroke-linejoin:miter;stroke-width:0.8;"/>
   </g>
   <g id="legend_2">
    <g id="patch_13">
     <path d="M 56.905338 224.814363 
L 211.214661 224.814363 
Q 214.014661 224.814363 214.014661 222.014363 
L 214.014661 202.466667 
Q 214.014661 199.666667 211.214661 199.666667 
L 56.905338 199.666667 
Q 54.105338 199.666667 54.105338 202.466667 
L 54.105338 222.014363 
Q 54.105338 224.814363 56.905338 224.814363 
z
" style="fill:#ffffff;opacity:0.8;stroke:#cccccc;stroke-linejoin:miter;"/>
    </g>
    <g id="line2d_48">
     <path d="M 73.705338 215.727439 
L 73.705338 208.989939 
" style="fill:none;stroke:#1f77b4;stroke-width:1.5;"/>
    </g>
    <g id="line2d_49"/>
    <g id="line2d_50">
     <g>
      <use style="fill:#1f77b4;stroke:#1f77b4;" x="73.705338" xlink:href="#m50c05cb0b2" y="208.989939"/>
     </g>
    </g>
    <g id="text_26">
     <!-- Tronquée ($N$ = 8) -->
     <g transform="translate(98.905338 215.727439)scale(0.14 -0.14)">
      <defs>
       <path d="M 3981 4326 
L 288 4326 
L 179 2918 
L 294 2918 
C 378 3976 467 4160 1453 4160 
C 1568 4160 1754 4160 1805 4154 
C 1926 4135 1926 4058 1926 3912 
L 1926 459 
C 1926 230 1907 160 1376 160 
L 1197 160 
L 1197 0 
C 1504 0 1824 0 2138 0 
C 2451 0 2771 0 3078 0 
L 3078 160 
L 2899 160 
C 2368 160 2349 230 2349 459 
L 2349 3912 
C 2349 4052 2349 4129 2464 4154 
C 2515 4160 2701 4160 2816 4160 
C 3795 4160 3891 3976 3974 2918 
L 4090 2918 
L 3981 4326 
z
" id="CMR17-54" transform="scale(0.015625)"/>
       <path d="M 2758 1356 
C 2758 2176 2163 2816 1466 2816 
C 768 2816 173 2176 173 1356 
C 173 551 768 -64 1466 -64 
C 2163 -64 2758 551 2758 1356 
z
M 1466 51 
C 1165 51 909 230 762 480 
C 602 767 582 1126 582 1408 
C 582 1677 595 2010 762 2298 
C 890 2509 1139 2714 1466 2714 
C 1754 2714 1997 2554 2150 2330 
C 2349 2029 2349 1607 2349 1408 
C 2349 1158 2336 775 2163 467 
C 1984 173 1709 51 1466 51 
z
" id="CMR17-6f" transform="scale(0.015625)"/>
       <path d="M 2656 1933 
C 2656 2259 2592 2790 1837 2790 
C 1331 2790 1069 2400 973 2144 
L 966 2144 
L 966 2790 
L 211 2720 
L 211 2554 
C 589 2554 646 2515 646 2208 
L 646 428 
C 646 184 621 153 211 153 
L 211 -13 
C 365 0 646 0 813 0 
C 979 0 1267 0 1421 -13 
L 1421 153 
C 1011 153 986 178 986 428 
L 986 1658 
C 986 2247 1344 2688 1792 2688 
C 2266 2688 2317 2266 2317 1958 
L 2317 428 
C 2317 184 2291 153 1882 153 
L 1882 -13 
C 2035 0 2317 0 2483 0 
C 2650 0 2938 0 3091 -13 
L 3091 153 
C 2682 153 2656 178 2656 428 
L 2656 1933 
z
" id="CMR17-6e" transform="scale(0.015625)"/>
       <path d="M 2630 2802 
L 2528 2802 
L 2336 2172 
C 2189 2509 1920 2802 1491 2802 
C 838 2802 211 2223 211 1383 
C 211 548 800 -38 1440 -38 
C 1933 -38 2208 338 2291 478 
L 2291 -789 
C 2291 -1031 2266 -1063 1856 -1063 
L 1856 -1228 
C 2010 -1216 2291 -1216 2458 -1216 
C 2624 -1216 2912 -1216 3066 -1228 
L 3066 -1063 
C 2656 -1063 2630 -1037 2630 -789 
L 2630 2802 
z
M 2304 886 
C 2304 612 2074 357 2054 338 
C 1856 115 1626 64 1472 64 
C 992 64 621 669 621 1375 
C 621 2121 1043 2688 1536 2688 
C 2048 2688 2304 2108 2304 1777 
L 2304 886 
z
" id="CMR17-71" transform="scale(0.015625)"/>
       <path d="M 1882 2693 
L 1882 2528 
C 2259 2528 2317 2489 2317 2186 
L 2317 1032 
C 2317 500 2029 38 1555 38 
C 1030 38 986 348 986 678 
L 986 2763 
L 211 2693 
L 211 2528 
C 467 2528 640 2528 646 2274 
L 646 1058 
C 646 633 646 361 813 183 
C 896 101 1056 -64 1517 -64 
C 2061 -64 2272 377 2323 506 
L 2330 506 
L 2330 -63 
L 3091 -63 
L 3091 128 
C 2714 128 2656 166 2656 473 
L 2656 2763 
L 1882 2693 
z
" id="CMR17-75" transform="scale(0.015625)"/>
       <path d="M 1958 -1561 
C 1958 -1555 1958 -1542 1939 -1523 
C 1645 -1224 858 -407 858 1581 
C 858 3569 1632 4379 1946 4697 
C 1946 4704 1958 4717 1958 4736 
C 1958 4755 1939 4768 1914 4768 
C 1843 4768 1299 4296 986 3594 
C 666 2887 576 2199 576 1588 
C 576 1128 621 351 1005 -471 
C 1312 -1135 1837 -1600 1914 -1600 
C 1946 -1600 1958 -1587 1958 -1561 
z
" id="CMR17-28" transform="scale(0.015625)"/>
       <path d="M 4736 3698 
C 4806 3974 4909 4166 5395 4166 
C 5414 4166 5491 4166 5491 4279 
C 5491 4352 5434 4352 5408 4352 
C 5280 4352 4954 4352 4826 4352 
L 4518 4352 
C 4429 4352 4314 4352 4224 4352 
C 4186 4352 4109 4352 4109 4230 
C 4109 4166 4160 4166 4205 4166 
C 4589 4166 4614 4019 4614 3903 
C 4614 3846 4608 3826 4589 3737 
L 3866 850 
L 2496 4249 
C 2451 4352 2445 4352 2304 4352 
L 1523 4352 
C 1395 4352 1338 4352 1338 4230 
C 1338 4166 1382 4166 1504 4166 
C 1536 4166 1914 4166 1914 4115 
C 1914 4102 1901 4051 1894 4032 
L 1043 635 
C 966 320 813 186 390 186 
C 358 186 294 186 294 67 
C 294 0 358 0 378 0 
C 506 0 832 0 960 0 
L 1267 0 
C 1357 0 1466 0 1555 0 
C 1600 0 1670 0 1670 122 
C 1670 180 1606 186 1581 186 
C 1370 186 1165 224 1165 454 
C 1165 505 1178 562 1190 613 
L 2054 4032 
C 2093 3968 2093 3956 2118 3898 
L 3642 115 
C 3674 38 3686 0 3744 0 
C 3808 0 3814 19 3840 128 
L 4736 3698 
z
" id="CMMI12-4e" transform="scale(0.015625)"/>
       <path d="M 4115 2017 
C 4211 2017 4307 2017 4307 2125 
C 4307 2240 4198 2240 4090 2240 
L 512 2240 
C 403 2240 294 2240 294 2125 
C 294 2017 390 2017 486 2017 
L 4115 2017 
z
M 4090 896 
C 4198 896 4307 896 4307 1011 
C 4307 1119 4211 1119 4115 1119 
L 486 1119 
C 390 1119 294 1119 294 1011 
C 294 896 403 896 512 896 
L 4090 896 
z
" id="CMR17-3d" transform="scale(0.015625)"/>
       <path d="M 1741 2264 
C 2144 2467 2554 2773 2554 3263 
C 2554 3841 1990 4179 1472 4179 
C 890 4179 378 3759 378 3180 
C 378 3021 416 2747 666 2505 
C 730 2442 998 2251 1171 2130 
C 883 1983 211 1634 211 934 
C 211 279 838 -128 1459 -128 
C 2144 -128 2720 362 2720 1010 
C 2720 1590 2330 1857 2074 2029 
L 1741 2264 
z
M 902 2822 
C 851 2854 595 3051 595 3351 
C 595 3739 998 4032 1459 4032 
C 1965 4032 2336 3676 2336 3262 
C 2336 2669 1670 2331 1638 2331 
C 1632 2331 1626 2331 1574 2370 
L 902 2822 
z
M 2080 1519 
C 2176 1449 2483 1240 2483 851 
C 2483 381 2010 25 1472 25 
C 890 25 448 438 448 940 
C 448 1443 838 1862 1280 2060 
L 2080 1519 
z
" id="CMR17-38" transform="scale(0.015625)"/>
       <path d="M 1683 1581 
C 1683 2040 1638 2817 1254 3639 
C 947 4303 422 4768 346 4768 
C 326 4768 301 4761 301 4729 
C 301 4717 307 4710 314 4697 
C 621 4378 1402 3568 1402 1584 
C 1402 -407 627 -1217 314 -1537 
C 307 -1549 301 -1556 301 -1568 
C 301 -1600 326 -1600 346 -1600 
C 416 -1600 960 -1128 1274 -426 
C 1594 281 1683 969 1683 1581 
z
" id="CMR17-29" transform="scale(0.015625)"/>
      </defs>
      <use transform="scale(0.996264)" xlink:href="#CMR17-54"/>
      <use transform="translate(58.702625 0)scale(0.996264)" xlink:href="#CMR17-72"/>
      <use transform="translate(93.983393 0)scale(0.996264)" xlink:href="#CMR17-6f"/>
      <use transform="translate(139.67387 0)scale(0.996264)" xlink:href="#CMR17-6e"/>
      <use transform="translate(190.56924 0)scale(0.996264)" xlink:href="#CMR17-71"/>
      <use transform="translate(238.862156 0)scale(0.996264)" xlink:href="#CMR17-75"/>
      <use transform="translate(287.155117 0)scale(0.996264)" xlink:href="#CMR17-13"/>
      <use transform="translate(289.757525 0)scale(0.996264)" xlink:href="#CMR17-65"/>
      <use transform="translate(330.243186 0)scale(0.996264)" xlink:href="#CMR17-65"/>
      <use transform="translate(400.804813 0)scale(0.996264)" xlink:href="#CMR17-28"/>
      <use transform="translate(436.085581 0)scale(0.996264)" xlink:href="#CMMI12-4e"/>
      <use transform="translate(554.68332 0)scale(0.996264)" xlink:href="#CMR17-3d"/>
      <use transform="translate(656.474074 0)scale(0.996264)" xlink:href="#CMR17-38"/>
      <use transform="translate(702.164551 0)scale(0.996264)" xlink:href="#CMR17-29"/>
     </g>
    </g>
   </g>
  </g>
  <g id="axes_3">
   <g id="patch_14">
    <path d="M 47.105338 522.222135 
L 698.468875 522.222135 
L 698.468875 378.133333 
L 47.105338 378.133333 
z
" style="fill:#ffffff;"/>
   </g>
   <g id="matplotlib.axis_5">
    <g id="xtick_15">
     <g id="line2d_51">
      <path clip-path="url(#ped92a850e8)" d="M 57.611201 522.222135 
L 57.611201 378.133333 
" style="fill:none;stroke:#b0b0b0;stroke-linecap:square;stroke-width:0.8;"/>
     </g>
     <g id="line2d_52">
      <g>
       <use style="stroke:#000000;stroke-width:0.8;" x="57.611201" xlink:href="#m940fd1e58c" y="522.222135"/>
      </g>
     </g>
     <g id="text_27">
      <!-- $\mathdefault{−15}$ -->
      <g transform="translate(47.108966 537.524314)scale(0.12 -0.12)">
       <use transform="scale(0.996264)" xlink:href="#CMSY10-0"/>
       <use transform="translate(77.487468 0)scale(0.996264)" xlink:href="#CMR17-31"/>
       <use transform="translate(123.177945 0)scale(0.996264)" xlink:href="#CMR17-35"/>
      </g>
     </g>
    </g>
    <g id="xtick_16">
     <g id="line2d_53">
      <path clip-path="url(#ped92a850e8)" d="M 162.669836 522.222135 
L 162.669836 378.133333 
" style="fill:none;stroke:#b0b0b0;stroke-linecap:square;stroke-width:0.8;"/>
     </g>
     <g id="line2d_54">
      <g>
       <use style="stroke:#000000;stroke-width:0.8;" x="162.669836" xlink:href="#m940fd1e58c" y="522.222135"/>
      </g>
     </g>
     <g id="text_28">
      <!-- $\mathdefault{−10}$ -->
      <g transform="translate(152.167601 537.524314)scale(0.12 -0.12)">
       <use transform="scale(0.996264)" xlink:href="#CMSY10-0"/>
       <use transform="translate(77.487468 0)scale(0.996264)" xlink:href="#CMR17-31"/>
       <use transform="translate(123.177945 0)scale(0.996264)" xlink:href="#CMR17-30"/>
      </g>
     </g>
    </g>
    <g id="xtick_17">
     <g id="line2d_55">
      <path clip-path="url(#ped92a850e8)" d="M 267.728472 522.222135 
L 267.728472 378.133333 
" style="fill:none;stroke:#b0b0b0;stroke-linecap:square;stroke-width:0.8;"/>
     </g>
     <g id="line2d_56">
      <g>
       <use style="stroke:#000000;stroke-width:0.8;" x="267.728472" xlink:href="#m940fd1e58c" y="522.222135"/>
      </g>
     </g>
     <g id="text_29">
      <!-- $\mathdefault{−5}$ -->
      <g transform="translate(260.152732 537.524314)scale(0.12 -0.12)">
       <use transform="scale(0.996264)" xlink:href="#CMSY10-0"/>
       <use transform="translate(77.487468 0)scale(0.996264)" xlink:href="#CMR17-35"/>
      </g>
     </g>
    </g>
    <g id="xtick_18">
     <g id="line2d_57">
      <path clip-path="url(#ped92a850e8)" d="M 372.787107 522.222135 
L 372.787107 378.133333 
" style="fill:none;stroke:#b0b0b0;stroke-linecap:square;stroke-width:0.8;"/>
     </g>
     <g id="line2d_58">
      <g>
       <use style="stroke:#000000;stroke-width:0.8;" x="372.787107" xlink:href="#m940fd1e58c" y="522.222135"/>
      </g>
     </g>
     <g id="text_30">
      <!-- $\mathdefault{0}$ -->
      <g transform="translate(369.860611 537.524314)scale(0.12 -0.12)">
       <use transform="scale(0.996264)" xlink:href="#CMR17-30"/>
      </g>
     </g>
    </g>
    <g id="xtick_19">
     <g id="line2d_59">
      <path clip-path="url(#ped92a850e8)" d="M 477.845742 522.222135 
L 477.845742 378.133333 
" style="fill:none;stroke:#b0b0b0;stroke-linecap:square;stroke-width:0.8;"/>
     </g>
     <g id="line2d_60">
      <g>
       <use style="stroke:#000000;stroke-width:0.8;" x="477.845742" xlink:href="#m940fd1e58c" y="522.222135"/>
      </g>
     </g>
     <g id="text_31">
      <!-- $\mathdefault{5}$ -->
      <g transform="translate(474.919247 537.524314)scale(0.12 -0.12)">
       <use transform="scale(0.996264)" xlink:href="#CMR17-35"/>
      </g>
     </g>
    </g>
    <g id="xtick_20">
     <g id="line2d_61">
      <path clip-path="url(#ped92a850e8)" d="M 582.904377 522.222135 
L 582.904377 378.133333 
" style="fill:none;stroke:#b0b0b0;stroke-linecap:square;stroke-width:0.8;"/>
     </g>
     <g id="line2d_62">
      <g>
       <use style="stroke:#000000;stroke-width:0.8;" x="582.904377" xlink:href="#m940fd1e58c" y="522.222135"/>
      </g>
     </g>
     <g id="text_32">
      <!-- $\mathdefault{10}$ -->
      <g transform="translate(577.051386 537.524314)scale(0.12 -0.12)">
       <use transform="scale(0.996264)" xlink:href="#CMR17-31"/>
       <use transform="translate(45.690477 0)scale(0.996264)" xlink:href="#CMR17-30"/>
      </g>
     </g>
    </g>
    <g id="xtick_21">
     <g id="line2d_63">
      <path clip-path="url(#ped92a850e8)" d="M 687.963012 522.222135 
L 687.963012 378.133333 
" style="fill:none;stroke:#b0b0b0;stroke-linecap:square;stroke-width:0.8;"/>
     </g>
     <g id="line2d_64">
      <g>
       <use style="stroke:#000000;stroke-width:0.8;" x="687.963012" xlink:href="#m940fd1e58c" y="522.222135"/>
      </g>
     </g>
     <g id="text_33">
      <!-- $\mathdefault{15}$ -->
      <g transform="translate(682.110022 537.524314)scale(0.12 -0.12)">
       <use transform="scale(0.996264)" xlink:href="#CMR17-31"/>
       <use transform="translate(45.690477 0)scale(0.996264)" xlink:href="#CMR17-35"/>
      </g>
     </g>
    </g>
    <g id="text_34">
     <!-- $n$ -->
     <g transform="translate(368.711007 553.534787)scale(0.14 -0.14)">
      <use transform="scale(0.996264)" xlink:href="#CMMI12-6e"/>
     </g>
    </g>
   </g>
   <g id="matplotlib.axis_6">
    <g id="ytick_7">
     <g id="line2d_65">
      <path clip-path="url(#ped92a850e8)" d="M 47.105338 492.741814 
L 698.468875 492.741814 
" style="fill:none;stroke:#b0b0b0;stroke-linecap:square;stroke-width:0.8;"/>
     </g>
     <g id="line2d_66">
      <g>
       <use style="stroke:#000000;stroke-width:0.8;" x="47.105338" xlink:href="#m97ee839543" y="492.741814"/>
      </g>
     </g>
     <g id="text_35">
      <!-- $\mathdefault{0.0}$ -->
      <g transform="translate(25.147696 496.892904)scale(0.12 -0.12)">
       <use transform="scale(0.996264)" xlink:href="#CMR17-30"/>
       <use transform="translate(45.690477 0)scale(0.996264)" xlink:href="#CMMI12-3a"/>
       <use transform="translate(72.787654 0)scale(0.996264)" xlink:href="#CMR17-30"/>
      </g>
     </g>
    </g>
    <g id="ytick_8">
     <g id="line2d_67">
      <path clip-path="url(#ped92a850e8)" d="M 47.105338 449.518218 
L 698.468875 449.518218 
" style="fill:none;stroke:#b0b0b0;stroke-linecap:square;stroke-width:0.8;"/>
     </g>
     <g id="line2d_68">
      <g>
       <use style="stroke:#000000;stroke-width:0.8;" x="47.105338" xlink:href="#m97ee839543" y="449.518218"/>
      </g>
     </g>
     <g id="text_36">
      <!-- $\mathdefault{0.2}$ -->
      <g transform="translate(25.147696 453.669308)scale(0.12 -0.12)">
       <use transform="scale(0.996264)" xlink:href="#CMR17-30"/>
       <use transform="translate(45.690477 0)scale(0.996264)" xlink:href="#CMMI12-3a"/>
       <use transform="translate(72.787654 0)scale(0.996264)" xlink:href="#CMR17-32"/>
      </g>
     </g>
    </g>
    <g id="ytick_9">
     <g id="line2d_69">
      <path clip-path="url(#ped92a850e8)" d="M 47.105338 406.294622 
L 698.468875 406.294622 
" style="fill:none;stroke:#b0b0b0;stroke-linecap:square;stroke-width:0.8;"/>
     </g>
     <g id="line2d_70">
      <g>
       <use style="stroke:#000000;stroke-width:0.8;" x="47.105338" xlink:href="#m97ee839543" y="406.294622"/>
      </g>
     </g>
     <g id="text_37">
      <!-- $\mathdefault{0.4}$ -->
      <g transform="translate(25.147696 410.445712)scale(0.12 -0.12)">
       <use transform="scale(0.996264)" xlink:href="#CMR17-30"/>
       <use transform="translate(45.690477 0)scale(0.996264)" xlink:href="#CMMI12-3a"/>
       <use transform="translate(72.787654 0)scale(0.996264)" xlink:href="#CMR17-34"/>
      </g>
     </g>
    </g>
    <g id="text_38">
     <!-- $h[n]$ -->
     <g transform="translate(17.660772 461.978262)rotate(-90)scale(0.14 -0.14)">
      <use transform="scale(0.996264)" xlink:href="#CMMI12-68"/>
      <use transform="translate(56.154624 0)scale(0.996264)" xlink:href="#CMR17-5b"/>
      <use transform="translate(81.025682 0)scale(0.996264)" xlink:href="#CMMI12-6e"/>
      <use transform="translate(139.25573 0)scale(0.996264)" xlink:href="#CMR17-5d"/>
     </g>
    </g>
   </g>
   <g id="LineCollection_3">
    <path clip-path="url(#ped92a850e8)" d="M 372.787107 492.741814 
L 372.787107 502.569312 
" style="fill:none;stroke:#ff7f0e;stroke-width:1.5;"/>
    <path clip-path="url(#ped92a850e8)" d="M 393.798834 492.741814 
L 393.798834 492.741814 
" style="fill:none;stroke:#ff7f0e;stroke-width:1.5;"/>
    <path clip-path="url(#ped92a850e8)" d="M 414.810561 492.741814 
L 414.810561 478.983316 
" style="fill:none;stroke:#ff7f0e;stroke-width:1.5;"/>
    <path clip-path="url(#ped92a850e8)" d="M 435.822288 492.741814 
L 435.822288 492.741814 
" style="fill:none;stroke:#ff7f0e;stroke-width:1.5;"/>
    <path clip-path="url(#ped92a850e8)" d="M 456.834015 492.741814 
L 456.834015 515.672644 
" style="fill:none;stroke:#ff7f0e;stroke-width:1.5;"/>
    <path clip-path="url(#ped92a850e8)" d="M 477.845742 492.741814 
L 477.845742 492.741814 
" style="fill:none;stroke:#ff7f0e;stroke-width:1.5;"/>
    <path clip-path="url(#ped92a850e8)" d="M 498.857469 492.741814 
L 498.857469 423.949324 
" style="fill:none;stroke:#ff7f0e;stroke-width:1.5;"/>
    <path clip-path="url(#ped92a850e8)" d="M 519.869196 492.741814 
L 519.869196 384.682824 
" style="fill:none;stroke:#ff7f0e;stroke-width:1.5;"/>
    <path clip-path="url(#ped92a850e8)" d="M 540.880923 492.741814 
L 540.880923 423.949324 
" style="fill:none;stroke:#ff7f0e;stroke-width:1.5;"/>
    <path clip-path="url(#ped92a850e8)" d="M 561.89265 492.741814 
L 561.89265 492.741814 
" style="fill:none;stroke:#ff7f0e;stroke-width:1.5;"/>
    <path clip-path="url(#ped92a850e8)" d="M 582.904377 492.741814 
L 582.904377 515.672644 
" style="fill:none;stroke:#ff7f0e;stroke-width:1.5;"/>
    <path clip-path="url(#ped92a850e8)" d="M 603.916104 492.741814 
L 603.916104 492.741814 
" style="fill:none;stroke:#ff7f0e;stroke-width:1.5;"/>
    <path clip-path="url(#ped92a850e8)" d="M 624.927831 492.741814 
L 624.927831 478.983316 
" style="fill:none;stroke:#ff7f0e;stroke-width:1.5;"/>
    <path clip-path="url(#ped92a850e8)" d="M 645.939558 492.741814 
L 645.939558 492.741814 
" style="fill:none;stroke:#ff7f0e;stroke-width:1.5;"/>
    <path clip-path="url(#ped92a850e8)" d="M 666.951285 492.741814 
L 666.951285 502.569312 
" style="fill:none;stroke:#ff7f0e;stroke-width:1.5;"/>
   </g>
   <g id="line2d_71">
    <defs>
     <path d="M 0 3 
C 0.795609 3 1.55874 2.683901 2.12132 2.12132 
C 2.683901 1.55874 3 0.795609 3 0 
C 3 -0.795609 2.683901 -1.55874 2.12132 -2.12132 
C 1.55874 -2.683901 0.795609 -3 0 -3 
C -0.795609 -3 -1.55874 -2.683901 -2.12132 -2.12132 
C -2.683901 -1.55874 -3 -0.795609 -3 0 
C -3 0.795609 -2.683901 1.55874 -2.12132 2.12132 
C -1.55874 2.683901 -0.795609 3 0 3 
z
" id="mdddae02376" style="stroke:#ff7f0e;"/>
    </defs>
    <g clip-path="url(#ped92a850e8)">
     <use style="fill:#ff7f0e;stroke:#ff7f0e;" x="372.787107" xlink:href="#mdddae02376" y="502.569312"/>
     <use style="fill:#ff7f0e;stroke:#ff7f0e;" x="393.798834" xlink:href="#mdddae02376" y="492.741814"/>
     <use style="fill:#ff7f0e;stroke:#ff7f0e;" x="414.810561" xlink:href="#mdddae02376" y="478.983316"/>
     <use style="fill:#ff7f0e;stroke:#ff7f0e;" x="435.822288" xlink:href="#mdddae02376" y="492.741814"/>
     <use style="fill:#ff7f0e;stroke:#ff7f0e;" x="456.834015" xlink:href="#mdddae02376" y="515.672644"/>
     <use style="fill:#ff7f0e;stroke:#ff7f0e;" x="477.845742" xlink:href="#mdddae02376" y="492.741814"/>
     <use style="fill:#ff7f0e;stroke:#ff7f0e;" x="498.857469" xlink:href="#mdddae02376" y="423.949324"/>
     <use style="fill:#ff7f0e;stroke:#ff7f0e;" x="519.869196" xlink:href="#mdddae02376" y="384.682824"/>
     <use style="fill:#ff7f0e;stroke:#ff7f0e;" x="540.880923" xlink:href="#mdddae02376" y="423.949324"/>
     <use style="fill:#ff7f0e;stroke:#ff7f0e;" x="561.89265" xlink:href="#mdddae02376" y="492.741814"/>
     <use style="fill:#ff7f0e;stroke:#ff7f0e;" x="582.904377" xlink:href="#mdddae02376" y="515.672644"/>
     <use style="fill:#ff7f0e;stroke:#ff7f0e;" x="603.916104" xlink:href="#mdddae02376" y="492.741814"/>
     <use style="fill:#ff7f0e;stroke:#ff7f0e;" x="624.927831" xlink:href="#mdddae02376" y="478.983316"/>
     <use style="fill:#ff7f0e;stroke:#ff7f0e;" x="645.939558" xlink:href="#mdddae02376" y="492.741814"/>
     <use style="fill:#ff7f0e;stroke:#ff7f0e;" x="666.951285" xlink:href="#mdddae02376" y="502.569312"/>
    </g>
   </g>
   <g id="line2d_72"/>
   <g id="patch_15">
    <path d="M 47.105338 522.222135 
L 47.105338 378.133333 
" style="fill:none;stroke:#000000;stroke-linecap:square;stroke-linejoin:miter;stroke-width:0.8;"/>
   </g>
   <g id="patch_16">
    <path d="M 698.468875 522.222135 
L 698.468875 378.133333 
" style="fill:none;stroke:#000000;stroke-linecap:square;stroke-linejoin:miter;stroke-width:0.8;"/>
   </g>
   <g id="patch_17">
    <path d="M 47.105338 522.222135 
L 698.468875 522.222135 
" style="fill:none;stroke:#000000;stroke-linecap:square;stroke-linejoin:miter;stroke-width:0.8;"/>
   </g>
   <g id="patch_18">
    <path d="M 47.105338 378.133333 
L 698.468875 378.133333 
" style="fill:none;stroke:#000000;stroke-linecap:square;stroke-linejoin:miter;stroke-width:0.8;"/>
   </g>
   <g id="legend_3">
    <g id="patch_19">
     <path d="M 56.905338 410.281029 
L 218.043149 410.281029 
Q 220.843149 410.281029 220.843149 407.481029 
L 220.843149 387.933333 
Q 220.843149 385.133333 218.043149 385.133333 
L 56.905338 385.133333 
Q 54.105338 385.133333 54.105338 387.933333 
L 54.105338 407.481029 
Q 54.105338 410.281029 56.905338 410.281029 
z
" style="fill:#ffffff;opacity:0.8;stroke:#cccccc;stroke-linejoin:miter;"/>
    </g>
    <g id="line2d_73">
     <path d="M 73.705338 401.194105 
L 73.705338 394.456605 
" style="fill:none;stroke:#ff7f0e;stroke-width:1.5;"/>
    </g>
    <g id="line2d_74"/>
    <g id="line2d_75">
     <g>
      <use style="fill:#ff7f0e;stroke:#ff7f0e;" x="73.705338" xlink:href="#mdddae02376" y="394.456605"/>
     </g>
    </g>
    <g id="text_39">
     <!-- Tronquée ($N$ = 14) -->
     <g transform="translate(98.905338 401.194105)scale(0.14 -0.14)">
      <use transform="scale(0.996264)" xlink:href="#CMR17-54"/>
      <use transform="translate(58.702625 0)scale(0.996264)" xlink:href="#CMR17-72"/>
      <use transform="translate(93.983393 0)scale(0.996264)" xlink:href="#CMR17-6f"/>
      <use transform="translate(139.67387 0)scale(0.996264)" xlink:href="#CMR17-6e"/>
      <use transform="translate(190.56924 0)scale(0.996264)" xlink:href="#CMR17-71"/>
      <use transform="translate(238.862156 0)scale(0.996264)" xlink:href="#CMR17-75"/>
      <use transform="translate(287.155117 0)scale(0.996264)" xlink:href="#CMR17-13"/>
      <use transform="translate(289.757525 0)scale(0.996264)" xlink:href="#CMR17-65"/>
      <use transform="translate(330.243186 0)scale(0.996264)" xlink:href="#CMR17-65"/>
      <use transform="translate(400.804813 0)scale(0.996264)" xlink:href="#CMR17-28"/>
      <use transform="translate(436.085581 0)scale(0.996264)" xlink:href="#CMMI12-4e"/>
      <use transform="translate(554.68332 0)scale(0.996264)" xlink:href="#CMR17-3d"/>
      <use transform="translate(656.474074 0)scale(0.996264)" xlink:href="#CMR17-31"/>
      <use transform="translate(702.164551 0)scale(0.996264)" xlink:href="#CMR17-34"/>
      <use transform="translate(747.855029 0)scale(0.996264)" xlink:href="#CMR17-29"/>
     </g>
    </g>
   </g>
  </g>
 </g>
 <defs>
  <clipPath id="pbe574c5f7e">
   <rect height="144.088801" width="651.363537" x="47.105338" y="7.2"/>
  </clipPath>
  <clipPath id="pfe382eb0ec">
   <rect height="144.088801" width="651.363537" x="47.105338" y="192.666667"/>
  </clipPath>
  <clipPath id="ped92a850e8">
   <rect height="144.088801" width="651.363537" x="47.105338" y="378.133333"/>
  </clipPath>
 </defs>
</svg>
