<?xml version="1.0" encoding="utf-8" standalone="no"?>
<!DOCTYPE svg PUBLIC "-//W3C//DTD SVG 1.1//EN"
  "http://www.w3.org/Graphics/SVG/1.1/DTD/svg11.dtd">
<svg height="492.768pt" version="1.1" viewBox="0 0 884.16 492.768" width="884.16pt" xmlns="http://www.w3.org/2000/svg" xmlns:xlink="http://www.w3.org/1999/xlink">
 <metadata>
  <rdf:RDF xmlns:cc="http://creativecommons.org/ns#" xmlns:dc="http://purl.org/dc/elements/1.1/" xmlns:rdf="http://www.w3.org/1999/02/22-rdf-syntax-ns#">
   <cc:Work>
    <dc:type rdf:resource="http://purl.org/dc/dcmitype/StillImage"/>
    <dc:date>2023-09-06T10:24:15.196167</dc:date>
    <dc:format>image/svg+xml</dc:format>
    <dc:creator>
     <cc:Agent>
      <dc:title>Matplotlib v3.4.3, https://matplotlib.org/</dc:title>
     </cc:Agent>
    </dc:creator>
   </cc:Work>
  </rdf:RDF>
 </metadata>
 <defs>
  <style type="text/css">*{stroke-linecap:butt;stroke-linejoin:round;}</style>
 </defs>
 <g id="figure_1">
  <g id="patch_1">
   <path d="M 0 492.768 
L 884.16 492.768 
L 884.16 0 
L 0 0 
z
" style="fill:none;"/>
  </g>
  <g id="axes_1">
   <g id="patch_2">
    <path clip-path="url(#p86296b0926)" d="M 115.92 132.228 
L 170.28 132.228 
L 170.28 77.868 
L 115.92 77.868 
z
" style="fill:#ffffff;stroke:#000000;stroke-linejoin:miter;"/>
   </g>
   <g id="patch_3">
    <path clip-path="url(#p86296b0926)" d="M 115.92 240.948 
L 170.28 240.948 
L 170.28 186.588 
L 115.92 186.588 
z
" style="fill:#ffffff;stroke:#000000;stroke-linejoin:miter;"/>
   </g>
   <g id="patch_4">
    <path clip-path="url(#p86296b0926)" d="M 115.92 376.848 
L 170.28 376.848 
L 170.28 322.488 
L 115.92 322.488 
z
" style="fill:#ffffff;stroke:#000000;stroke-linejoin:miter;"/>
   </g>
   <g id="patch_5">
    <path clip-path="url(#p86296b0926)" d="M 224.64 77.868 
L 279 77.868 
L 279 23.508 
L 224.64 23.508 
z
" style="fill:#ffffff;stroke:#000000;stroke-linejoin:miter;"/>
   </g>
   <g id="patch_6">
    <path clip-path="url(#p86296b0926)" d="M 224.64 186.588 
L 279 186.588 
L 279 132.228 
L 224.64 132.228 
z
" style="fill:#ffffff;stroke:#000000;stroke-linejoin:miter;"/>
   </g>
   <g id="patch_7">
    <path clip-path="url(#p86296b0926)" d="M 224.64 295.308 
L 279 295.308 
L 279 240.948 
L 224.64 240.948 
z
" style="fill:#ffffff;stroke:#000000;stroke-linejoin:miter;"/>
   </g>
   <g id="patch_8">
    <path clip-path="url(#p86296b0926)" d="M 224.64 431.208 
L 279 431.208 
L 279 376.848 
L 224.64 376.848 
z
" style="fill:#ffffff;stroke:#000000;stroke-linejoin:miter;"/>
   </g>
   <g id="patch_9">
    <path clip-path="url(#p86296b0926)" d="M 224.64 50.688 
L 219.204 53.406 
L 219.204 50.71518 
L 61.56 50.71518 
L 61.56 50.66082 
L 219.204 50.66082 
L 219.204 47.97 
z
" style="stroke:#000000;stroke-linejoin:miter;stroke-width:0.5;"/>
   </g>
   <g id="patch_10">
    <path clip-path="url(#p86296b0926)" d="M 224.64 159.408 
L 219.204 162.126 
L 219.204 159.43518 
L 143.1 159.43518 
L 143.1 159.38082 
L 219.204 159.38082 
L 219.204 156.69 
z
" style="stroke:#000000;stroke-linejoin:miter;stroke-width:0.5;"/>
   </g>
   <g id="patch_11">
    <path clip-path="url(#p86296b0926)" d="M 224.64 268.128 
L 219.204 270.846 
L 219.204 268.15518 
L 143.1 268.15518 
L 143.1 268.10082 
L 219.204 268.10082 
L 219.204 265.41 
z
" style="stroke:#000000;stroke-linejoin:miter;stroke-width:0.5;"/>
   </g>
   <g id="patch_12">
    <path clip-path="url(#p86296b0926)" d="M 224.64 404.028 
L 219.204 406.746 
L 219.204 404.05518 
L 143.1 404.05518 
L 143.1 404.00082 
L 219.204 404.00082 
L 219.204 401.31 
z
" style="stroke:#000000;stroke-linejoin:miter;stroke-width:0.5;"/>
   </g>
   <g id="patch_13">
    <path clip-path="url(#p86296b0926)" d="M 143.1 77.868 
L 140.382 72.432 
L 143.07282 72.432 
L 143.07282 50.688 
L 143.12718 50.688 
L 143.12718 72.432 
L 145.818 72.432 
z
" style="stroke:#000000;stroke-linejoin:miter;stroke-width:0.5;"/>
   </g>
   <g id="patch_14">
    <path clip-path="url(#p86296b0926)" d="M 143.1 186.588 
L 140.382 181.152 
L 143.07282 181.152 
L 143.07282 132.228 
L 143.12718 132.228 
L 143.12718 181.152 
L 145.818 181.152 
z
" style="stroke:#000000;stroke-linejoin:miter;stroke-width:0.5;"/>
   </g>
   <g id="patch_15">
    <path clip-path="url(#p86296b0926)" d="M 143.1 289.872 
L 143.1 289.872 
L 143.07282 289.872 
L 143.07282 240.948 
L 143.12718 240.948 
L 143.12718 289.872 
L 143.1 289.872 
z
" style="stroke:#000000;stroke-linejoin:miter;"/>
   </g>
   <g id="patch_16">
    <path clip-path="url(#p86296b0926)" d="M 143.1 322.488 
L 140.382 317.052 
L 143.07282 317.052 
L 143.07282 306.18 
L 143.12718 306.18 
L 143.12718 317.052 
L 145.818 317.052 
z
" style="stroke:#000000;stroke-linejoin:miter;stroke-width:0.5;"/>
   </g>
   <g id="patch_17">
    <path clip-path="url(#p86296b0926)" d="M 143.1 404.028 
L 143.1 404.028 
L 143.07282 404.028 
L 143.07282 376.848 
L 143.12718 376.848 
L 143.12718 404.028 
L 143.1 404.028 
z
" style="stroke:#000000;stroke-linejoin:miter;"/>
   </g>
   <g id="patch_18">
    <path clip-path="url(#p86296b0926)" d="M 333.36 50.688 
L 327.924 53.406 
L 327.924 50.71518 
L 279 50.71518 
L 279 50.66082 
L 327.924 50.66082 
L 327.924 47.97 
z
" style="stroke:#000000;stroke-linejoin:miter;stroke-width:0.5;"/>
   </g>
   <g id="patch_19">
    <path clip-path="url(#p86296b0926)" d="M 333.36 159.408 
L 327.924 162.126 
L 327.924 159.43518 
L 279 159.43518 
L 279 159.38082 
L 327.924 159.38082 
L 327.924 156.69 
z
" style="stroke:#000000;stroke-linejoin:miter;stroke-width:0.5;"/>
   </g>
   <g id="patch_20">
    <path clip-path="url(#p86296b0926)" d="M 333.36 268.128 
L 327.924 270.846 
L 327.924 268.15518 
L 279 268.15518 
L 279 268.10082 
L 327.924 268.10082 
L 327.924 265.41 
z
" style="stroke:#000000;stroke-linejoin:miter;stroke-width:0.5;"/>
   </g>
   <g id="patch_21">
    <path clip-path="url(#p86296b0926)" d="M 360.54 404.028 
L 360.54 404.028 
L 360.54 404.05518 
L 279 404.05518 
L 279 404.00082 
L 360.54 404.00082 
L 360.54 404.028 
z
" style="stroke:#000000;stroke-linejoin:miter;"/>
   </g>
   <g id="patch_22">
    <path clip-path="url(#p86296b0926)" d="M 360.54 77.868 
L 363.258 83.304 
L 360.56718 83.304 
L 360.56718 132.228 
L 360.51282 132.228 
L 360.51282 83.304 
L 357.822 83.304 
z
" style="stroke:#000000;stroke-linejoin:miter;stroke-width:0.5;"/>
   </g>
   <g id="patch_23">
    <path clip-path="url(#p86296b0926)" d="M 360.54 186.588 
L 363.258 192.024 
L 360.56718 192.024 
L 360.56718 240.948 
L 360.51282 240.948 
L 360.51282 192.024 
L 357.822 192.024 
z
" style="stroke:#000000;stroke-linejoin:miter;stroke-width:0.5;"/>
   </g>
   <g id="patch_24">
    <path clip-path="url(#p86296b0926)" d="M 360.54 295.308 
L 363.258 300.744 
L 360.56718 300.744 
L 360.56718 306.18 
L 360.51282 306.18 
L 360.51282 300.744 
L 357.822 300.744 
z
" style="stroke:#000000;stroke-linejoin:miter;stroke-width:0.5;"/>
   </g>
   <g id="patch_25">
    <path clip-path="url(#p86296b0926)" d="M 360.54 322.488 
L 360.54 322.488 
L 360.56718 322.488 
L 360.56718 404.028 
L 360.51282 404.028 
L 360.51282 322.488 
L 360.54 322.488 
z
" style="stroke:#000000;stroke-linejoin:miter;"/>
   </g>
   <g id="patch_26">
    <path clip-path="url(#p86296b0926)" d="M 143.1 295.308 
L 143.1 295.308 
L 143.12718 295.308 
L 143.12718 300.744 
L 143.07282 300.744 
L 143.07282 295.308 
L 143.1 295.308 
z
" style="stroke:#000000;stroke-linejoin:miter;"/>
   </g>
   <g id="patch_27">
    <path clip-path="url(#p86296b0926)" d="M 360.54 311.616 
L 360.54 311.616 
L 360.56718 311.616 
L 360.56718 317.052 
L 360.51282 317.052 
L 360.51282 311.616 
L 360.54 311.616 
z
" style="stroke:#000000;stroke-linejoin:miter;"/>
   </g>
   <g id="patch_28">
    <path clip-path="url(#p86296b0926)" d="M 496.44 50.688 
L 491.004 53.406 
L 491.004 50.71518 
L 387.72 50.71518 
L 387.72 50.66082 
L 491.004 50.66082 
L 491.004 47.97 
z
" style="stroke:#000000;stroke-linejoin:miter;stroke-width:0.5;"/>
   </g>
   <g id="patch_29">
    <path clip-path="url(#p86296b0926)" d="M 713.88 132.228 
L 768.24 132.228 
L 768.24 77.868 
L 713.88 77.868 
z
" style="fill:#ffffff;stroke:#000000;stroke-linejoin:miter;"/>
   </g>
   <g id="patch_30">
    <path clip-path="url(#p86296b0926)" d="M 713.88 240.948 
L 768.24 240.948 
L 768.24 186.588 
L 713.88 186.588 
z
" style="fill:#ffffff;stroke:#000000;stroke-linejoin:miter;"/>
   </g>
   <g id="patch_31">
    <path clip-path="url(#p86296b0926)" d="M 713.88 376.848 
L 768.24 376.848 
L 768.24 322.488 
L 713.88 322.488 
z
" style="fill:#ffffff;stroke:#000000;stroke-linejoin:miter;"/>
   </g>
   <g id="patch_32">
    <path clip-path="url(#p86296b0926)" d="M 605.16 77.868 
L 659.52 77.868 
L 659.52 23.508 
L 605.16 23.508 
z
" style="fill:#ffffff;stroke:#000000;stroke-linejoin:miter;"/>
   </g>
   <g id="patch_33">
    <path clip-path="url(#p86296b0926)" d="M 605.16 186.588 
L 659.52 186.588 
L 659.52 132.228 
L 605.16 132.228 
z
" style="fill:#ffffff;stroke:#000000;stroke-linejoin:miter;"/>
   </g>
   <g id="patch_34">
    <path clip-path="url(#p86296b0926)" d="M 605.16 295.308 
L 659.52 295.308 
L 659.52 240.948 
L 605.16 240.948 
z
" style="fill:#ffffff;stroke:#000000;stroke-linejoin:miter;"/>
   </g>
   <g id="patch_35">
    <path clip-path="url(#p86296b0926)" d="M 605.16 431.208 
L 659.52 431.208 
L 659.52 376.848 
L 605.16 376.848 
z
" style="fill:#ffffff;stroke:#000000;stroke-linejoin:miter;"/>
   </g>
   <g id="patch_36">
    <path clip-path="url(#p86296b0926)" d="M 605.16 50.688 
L 599.724 53.406 
L 599.724 50.71518 
L 550.8 50.71518 
L 550.8 50.66082 
L 599.724 50.66082 
L 599.724 47.97 
z
" style="stroke:#000000;stroke-linejoin:miter;stroke-width:0.5;"/>
   </g>
   <g id="patch_37">
    <path clip-path="url(#p86296b0926)" d="M 550.8 159.408 
L 556.236 156.69 
L 556.236 159.38082 
L 605.16 159.38082 
L 605.16 159.43518 
L 556.236 159.43518 
L 556.236 162.126 
z
" style="stroke:#000000;stroke-linejoin:miter;stroke-width:0.5;"/>
   </g>
   <g id="patch_38">
    <path clip-path="url(#p86296b0926)" d="M 550.8 268.128 
L 556.236 265.41 
L 556.236 268.10082 
L 605.16 268.10082 
L 605.16 268.15518 
L 556.236 268.15518 
L 556.236 270.846 
z
" style="stroke:#000000;stroke-linejoin:miter;stroke-width:0.5;"/>
   </g>
   <g id="patch_39">
    <path clip-path="url(#p86296b0926)" d="M 523.62 404.028 
L 523.62 404.028 
L 523.62 404.00082 
L 605.16 404.00082 
L 605.16 404.05518 
L 523.62 404.05518 
L 523.62 404.028 
z
" style="stroke:#000000;stroke-linejoin:miter;"/>
   </g>
   <g id="patch_40">
    <path clip-path="url(#p86296b0926)" d="M 523.62 77.868 
L 526.338 83.304 
L 523.64718 83.304 
L 523.64718 132.228 
L 523.59282 132.228 
L 523.59282 83.304 
L 520.902 83.304 
z
" style="stroke:#000000;stroke-linejoin:miter;stroke-width:0.5;"/>
   </g>
   <g id="patch_41">
    <path clip-path="url(#p86296b0926)" d="M 523.62 186.588 
L 526.338 192.024 
L 523.64718 192.024 
L 523.64718 240.948 
L 523.59282 240.948 
L 523.59282 192.024 
L 520.902 192.024 
z
" style="stroke:#000000;stroke-linejoin:miter;stroke-width:0.5;"/>
   </g>
   <g id="patch_42">
    <path clip-path="url(#p86296b0926)" d="M 523.62 295.308 
L 526.338 300.744 
L 523.64718 300.744 
L 523.64718 306.18 
L 523.59282 306.18 
L 523.59282 300.744 
L 520.902 300.744 
z
" style="stroke:#000000;stroke-linejoin:miter;stroke-width:0.5;"/>
   </g>
   <g id="patch_43">
    <path clip-path="url(#p86296b0926)" d="M 523.62 322.488 
L 523.62 322.488 
L 523.64718 322.488 
L 523.64718 404.028 
L 523.59282 404.028 
L 523.59282 322.488 
L 523.62 322.488 
z
" style="stroke:#000000;stroke-linejoin:miter;"/>
   </g>
   <g id="patch_44">
    <path clip-path="url(#p86296b0926)" d="M 822.6 50.688 
L 817.164 53.406 
L 817.164 50.71518 
L 659.52 50.71518 
L 659.52 50.66082 
L 817.164 50.66082 
L 817.164 47.97 
z
" style="stroke:#000000;stroke-linejoin:miter;stroke-width:0.5;"/>
   </g>
   <g id="patch_45">
    <path clip-path="url(#p86296b0926)" d="M 659.52 159.408 
L 664.956 156.69 
L 664.956 159.38082 
L 741.06 159.38082 
L 741.06 159.43518 
L 664.956 159.43518 
L 664.956 162.126 
z
" style="stroke:#000000;stroke-linejoin:miter;stroke-width:0.5;"/>
   </g>
   <g id="patch_46">
    <path clip-path="url(#p86296b0926)" d="M 659.52 268.128 
L 664.956 265.41 
L 664.956 268.10082 
L 741.06 268.10082 
L 741.06 268.15518 
L 664.956 268.15518 
L 664.956 270.846 
z
" style="stroke:#000000;stroke-linejoin:miter;stroke-width:0.5;"/>
   </g>
   <g id="patch_47">
    <path clip-path="url(#p86296b0926)" d="M 659.52 404.028 
L 664.956 401.31 
L 664.956 404.00082 
L 741.06 404.00082 
L 741.06 404.05518 
L 664.956 404.05518 
L 664.956 406.746 
z
" style="stroke:#000000;stroke-linejoin:miter;stroke-width:0.5;"/>
   </g>
   <g id="patch_48">
    <path clip-path="url(#p86296b0926)" d="M 741.06 77.868 
L 738.342 72.432 
L 741.03282 72.432 
L 741.03282 50.688 
L 741.08718 50.688 
L 741.08718 72.432 
L 743.778 72.432 
z
" style="stroke:#000000;stroke-linejoin:miter;stroke-width:0.5;"/>
   </g>
   <g id="patch_49">
    <path clip-path="url(#p86296b0926)" d="M 741.06 186.588 
L 738.342 181.152 
L 741.03282 181.152 
L 741.03282 132.228 
L 741.08718 132.228 
L 741.08718 181.152 
L 743.778 181.152 
z
" style="stroke:#000000;stroke-linejoin:miter;stroke-width:0.5;"/>
   </g>
   <g id="patch_50">
    <path clip-path="url(#p86296b0926)" d="M 741.06 289.872 
L 741.06 289.872 
L 741.03282 289.872 
L 741.03282 240.948 
L 741.08718 240.948 
L 741.08718 289.872 
L 741.06 289.872 
z
" style="stroke:#000000;stroke-linejoin:miter;"/>
   </g>
   <g id="patch_51">
    <path clip-path="url(#p86296b0926)" d="M 741.06 322.488 
L 738.342 317.052 
L 741.03282 317.052 
L 741.03282 306.18 
L 741.08718 306.18 
L 741.08718 317.052 
L 743.778 317.052 
z
" style="stroke:#000000;stroke-linejoin:miter;stroke-width:0.5;"/>
   </g>
   <g id="patch_52">
    <path clip-path="url(#p86296b0926)" d="M 741.06 404.028 
L 741.06 404.028 
L 741.03282 404.028 
L 741.03282 376.848 
L 741.08718 376.848 
L 741.08718 404.028 
L 741.06 404.028 
z
" style="stroke:#000000;stroke-linejoin:miter;"/>
   </g>
   <g id="patch_53">
    <path clip-path="url(#p86296b0926)" d="M 741.06 295.308 
L 741.06 295.308 
L 741.08718 295.308 
L 741.08718 300.744 
L 741.03282 300.744 
L 741.03282 295.308 
L 741.06 295.308 
z
" style="stroke:#000000;stroke-linejoin:miter;"/>
   </g>
   <g id="patch_54">
    <path clip-path="url(#p86296b0926)" d="M 523.62 311.616 
L 523.62 311.616 
L 523.64718 311.616 
L 523.64718 317.052 
L 523.59282 317.052 
L 523.59282 311.616 
L 523.62 311.616 
z
" style="stroke:#000000;stroke-linejoin:miter;"/>
   </g>
   <g id="patch_55">
    <path clip-path="url(#p86296b0926)" d="M 360.54 77.868 
C 367.74822 77.868 374.662181 75.004144 379.759162 69.907162 
C 384.856144 64.810181 387.72 57.89622 387.72 50.688 
C 387.72 43.47978 384.856144 36.565819 379.759162 31.468838 
C 374.662181 26.371856 367.74822 23.508 360.54 23.508 
C 353.33178 23.508 346.417819 26.371856 341.320838 31.468838 
C 336.223856 36.565819 333.36 43.47978 333.36 50.688 
C 333.36 57.89622 336.223856 64.810181 341.320838 69.907162 
C 346.417819 75.004144 353.33178 77.868 360.54 77.868 
z
" style="fill:#ffffff;stroke:#000000;stroke-linejoin:miter;"/>
   </g>
   <g id="patch_56">
    <path clip-path="url(#p86296b0926)" d="M 360.54 186.588 
C 367.74822 186.588 374.662181 183.724144 379.759162 178.627162 
C 384.856144 173.530181 387.72 166.61622 387.72 159.408 
C 387.72 152.19978 384.856144 145.285819 379.759162 140.188838 
C 374.662181 135.091856 367.74822 132.228 360.54 132.228 
C 353.33178 132.228 346.417819 135.091856 341.320838 140.188838 
C 336.223856 145.285819 333.36 152.19978 333.36 159.408 
C 333.36 166.61622 336.223856 173.530181 341.320838 178.627162 
C 346.417819 183.724144 353.33178 186.588 360.54 186.588 
z
" style="fill:#ffffff;stroke:#000000;stroke-linejoin:miter;"/>
   </g>
   <g id="patch_57">
    <path clip-path="url(#p86296b0926)" d="M 360.54 295.308 
C 367.74822 295.308 374.662181 292.444144 379.759162 287.347162 
C 384.856144 282.250181 387.72 275.33622 387.72 268.128 
C 387.72 260.91978 384.856144 254.005819 379.759162 248.908838 
C 374.662181 243.811856 367.74822 240.948 360.54 240.948 
C 353.33178 240.948 346.417819 243.811856 341.320838 248.908838 
C 336.223856 254.005819 333.36 260.91978 333.36 268.128 
C 333.36 275.33622 336.223856 282.250181 341.320838 287.347162 
C 346.417819 292.444144 353.33178 295.308 360.54 295.308 
z
" style="fill:#ffffff;stroke:#000000;stroke-linejoin:miter;"/>
   </g>
   <g id="patch_58">
    <path clip-path="url(#p86296b0926)" d="M 523.62 77.868 
C 530.82822 77.868 537.742181 75.004144 542.839162 69.907162 
C 547.936144 64.810181 550.8 57.89622 550.8 50.688 
C 550.8 43.47978 547.936144 36.565819 542.839162 31.468838 
C 537.742181 26.371856 530.82822 23.508 523.62 23.508 
C 516.41178 23.508 509.497819 26.371856 504.400838 31.468838 
C 499.303856 36.565819 496.44 43.47978 496.44 50.688 
C 496.44 57.89622 499.303856 64.810181 504.400838 69.907162 
C 509.497819 75.004144 516.41178 77.868 523.62 77.868 
z
" style="fill:#ffffff;stroke:#000000;stroke-linejoin:miter;"/>
   </g>
   <g id="patch_59">
    <path clip-path="url(#p86296b0926)" d="M 523.62 186.588 
C 530.82822 186.588 537.742181 183.724144 542.839162 178.627162 
C 547.936144 173.530181 550.8 166.61622 550.8 159.408 
C 550.8 152.19978 547.936144 145.285819 542.839162 140.188838 
C 537.742181 135.091856 530.82822 132.228 523.62 132.228 
C 516.41178 132.228 509.497819 135.091856 504.400838 140.188838 
C 499.303856 145.285819 496.44 152.19978 496.44 159.408 
C 496.44 166.61622 499.303856 173.530181 504.400838 178.627162 
C 509.497819 183.724144 516.41178 186.588 523.62 186.588 
z
" style="fill:#ffffff;stroke:#000000;stroke-linejoin:miter;"/>
   </g>
   <g id="patch_60">
    <path clip-path="url(#p86296b0926)" d="M 523.62 295.308 
C 530.82822 295.308 537.742181 292.444144 542.839162 287.347162 
C 547.936144 282.250181 550.8 275.33622 550.8 268.128 
C 550.8 260.91978 547.936144 254.005819 542.839162 248.908838 
C 537.742181 243.811856 530.82822 240.948 523.62 240.948 
C 516.41178 240.948 509.497819 243.811856 504.400838 248.908838 
C 499.303856 254.005819 496.44 260.91978 496.44 268.128 
C 496.44 275.33622 499.303856 282.250181 504.400838 287.347162 
C 509.497819 292.444144 516.41178 295.308 523.62 295.308 
z
" style="fill:#ffffff;stroke:#000000;stroke-linejoin:miter;"/>
   </g>
   <g id="text_1">
    <!-- $z^{-1}$ -->
    <g transform="translate(127.904785 110.526753)scale(0.22 -0.22)">
     <defs>
      <path d="M 813 486 
C 1088 809 1312 1015 1632 1313 
C 2016 1657 2182 1822 2272 1922 
C 2720 2371 2944 2713 2944 2764 
C 2944 2816 2893 2816 2880 2816 
C 2835 2816 2822 2790 2790 2745 
C 2630 2470 2477 2368 2310 2368 
C 2176 2368 2106 2403 1984 2547 
C 1850 2707 1741 2816 1555 2816 
C 1088 2816 806 2265 806 2127 
C 806 2107 813 2067 870 2067 
C 922 2067 928 2094 947 2140 
C 1056 2387 1363 2415 1485 2415 
C 1619 2415 1747 2387 1882 2342 
C 2125 2239 2227 2239 2291 2239 
C 2336 2239 2362 2239 2394 2246 
C 2182 1988 1837 1670 1549 1399 
L 902 783 
C 512 380 275 32 275 -13 
C 275 -52 307 -64 346 -64 
C 384 -64 390 -58 435 19 
C 538 179 742 384 979 384 
C 1114 384 1178 356 1306 211 
C 1427 70 1536 -64 1741 -64 
C 2368 -64 2726 723 2726 876 
C 2726 902 2720 942 2656 942 
C 2605 942 2598 915 2579 849 
C 2438 460 2061 336 1811 336 
C 1677 336 1549 364 1414 409 
C 1158 512 1088 512 1005 512 
C 941 512 870 512 813 486 
z
" id="CMMI12-7a" transform="scale(0.015625)"/>
      <path d="M 4218 1472 
C 4326 1472 4442 1472 4442 1600 
C 4442 1728 4326 1728 4218 1728 
L 755 1728 
C 646 1728 531 1728 531 1600 
C 531 1472 646 1472 755 1472 
L 4218 1472 
z
" id="CMSY10-0" transform="scale(0.015625)"/>
      <path d="M 1702 4083 
C 1702 4217 1696 4224 1606 4224 
C 1357 3927 979 3833 621 3820 
C 602 3820 570 3820 563 3808 
C 557 3795 557 3782 557 3648 
C 755 3648 1088 3686 1344 3839 
L 1344 467 
C 1344 243 1331 166 781 166 
L 589 166 
L 589 0 
C 896 6 1216 12 1523 12 
C 1830 12 2150 6 2458 0 
L 2458 166 
L 2266 166 
C 1715 166 1702 236 1702 467 
L 1702 4083 
z
" id="CMR17-31" transform="scale(0.015625)"/>
     </defs>
     <use transform="scale(0.996264)" xlink:href="#CMMI12-7a"/>
     <use transform="translate(49.755145 36.153639)scale(0.697382)" xlink:href="#CMSY10-0"/>
     <use transform="translate(103.996138 36.153639)scale(0.697382)" xlink:href="#CMR17-31"/>
    </g>
   </g>
   <g id="text_2">
    <!-- $z^{-1}$ -->
    <g transform="translate(127.904785 219.246753)scale(0.22 -0.22)">
     <use transform="scale(0.996264)" xlink:href="#CMMI12-7a"/>
     <use transform="translate(49.755145 36.153639)scale(0.697382)" xlink:href="#CMSY10-0"/>
     <use transform="translate(103.996138 36.153639)scale(0.697382)" xlink:href="#CMR17-31"/>
    </g>
   </g>
   <g id="text_3">
    <!-- $z^{-1}$ -->
    <g transform="translate(127.904785 355.146753)scale(0.22 -0.22)">
     <use transform="scale(0.996264)" xlink:href="#CMMI12-7a"/>
     <use transform="translate(49.755145 36.153639)scale(0.697382)" xlink:href="#CMSY10-0"/>
     <use transform="translate(103.996138 36.153639)scale(0.697382)" xlink:href="#CMR17-31"/>
    </g>
   </g>
   <g id="text_4">
    <!-- $b_0$ -->
    <g transform="translate(243.50201 56.166753)scale(0.22 -0.22)">
     <defs>
      <path d="M 1478 4255 
C 1485 4281 1498 4319 1498 4351 
C 1498 4416 1434 4416 1421 4416 
C 1414 4416 1184 4396 1069 4383 
C 960 4377 864 4364 749 4358 
C 595 4345 550 4339 550 4223 
C 550 4159 614 4159 678 4159 
C 1005 4159 1005 4103 1005 4040 
C 1005 3995 954 3812 928 3699 
L 774 3093 
C 710 2841 346 1392 320 1277 
C 288 1117 288 1008 288 925 
C 288 274 653 -64 1069 -64 
C 1811 -64 2579 887 2579 1813 
C 2579 2400 2246 2816 1766 2816 
C 1434 2816 1133 2541 1011 2413 
L 1478 4255 
z
M 1075 64 
C 870 64 646 217 646 715 
C 646 925 666 1047 781 1494 
C 800 1577 902 1985 928 2068 
C 941 2119 1318 2687 1754 2687 
C 2035 2687 2163 2407 2163 2075 
C 2163 1768 1984 1047 1824 715 
C 1664 370 1370 64 1075 64 
z
" id="CMMI12-62" transform="scale(0.015625)"/>
      <path d="M 2688 2038 
C 2688 2430 2682 3099 2413 3613 
C 2176 4063 1798 4224 1466 4224 
C 1158 4224 768 4082 525 3620 
C 269 3137 243 2539 243 2038 
C 243 1671 250 1112 448 623 
C 723 -39 1216 -128 1466 -128 
C 1760 -128 2208 -7 2470 604 
C 2662 1048 2688 1568 2688 2038 
z
M 1466 -26 
C 1056 -26 813 328 723 816 
C 653 1196 653 1749 653 2109 
C 653 2604 653 3015 736 3407 
C 858 3954 1216 4121 1466 4121 
C 1728 4121 2067 3947 2189 3420 
C 2272 3054 2278 2623 2278 2109 
C 2278 1691 2278 1176 2202 797 
C 2067 96 1690 -26 1466 -26 
z
" id="CMR17-30" transform="scale(0.015625)"/>
     </defs>
     <use transform="scale(0.996264)" xlink:href="#CMMI12-62"/>
     <use transform="translate(41.475874 -14.943915)scale(0.697382)" xlink:href="#CMR17-30"/>
    </g>
   </g>
   <g id="text_5">
    <!-- $b_1$ -->
    <g transform="translate(243.50201 164.886753)scale(0.22 -0.22)">
     <use transform="scale(0.996264)" xlink:href="#CMMI12-62"/>
     <use transform="translate(41.475874 -14.943915)scale(0.697382)" xlink:href="#CMR17-31"/>
    </g>
   </g>
   <g id="text_6">
    <!-- $b_2$ -->
    <g transform="translate(243.50201 273.606753)scale(0.22 -0.22)">
     <defs>
      <path d="M 2669 990 
L 2554 990 
C 2490 537 2438 460 2413 422 
C 2381 371 1920 371 1830 371 
L 602 371 
C 832 620 1280 1073 1824 1596 
C 2214 1966 2669 2400 2669 3033 
C 2669 3788 2067 4224 1395 4224 
C 691 4224 262 3603 262 3027 
C 262 2777 448 2745 525 2745 
C 589 2745 781 2783 781 3007 
C 781 3206 614 3264 525 3264 
C 486 3264 448 3257 422 3244 
C 544 3788 915 4057 1306 4057 
C 1862 4057 2227 3616 2227 3033 
C 2227 2477 1901 1998 1536 1583 
L 262 147 
L 262 0 
L 2515 0 
L 2669 990 
z
" id="CMR17-32" transform="scale(0.015625)"/>
     </defs>
     <use transform="scale(0.996264)" xlink:href="#CMMI12-62"/>
     <use transform="translate(41.475874 -14.943915)scale(0.697382)" xlink:href="#CMR17-32"/>
    </g>
   </g>
   <g id="text_7">
    <!-- $b_M$ -->
    <g transform="translate(239.990938 409.506753)scale(0.22 -0.22)">
     <defs>
      <path d="M 5811 3886 
C 5869 4102 5882 4166 6336 4166 
C 6458 4166 6515 4166 6515 4287 
C 6515 4352 6470 4352 6349 4352 
L 5581 4352 
C 5421 4352 5414 4345 5344 4243 
L 3008 567 
L 2528 4211 
C 2509 4352 2502 4352 2336 4352 
L 1542 4352 
C 1421 4352 1363 4352 1363 4230 
C 1363 4166 1421 4166 1517 4166 
C 1907 4166 1907 4115 1907 4045 
C 1907 4032 1907 3994 1882 3898 
L 1062 650 
C 986 344 838 204 410 185 
C 390 185 314 179 314 70 
C 314 0 371 0 397 0 
C 525 0 851 12 979 12 
L 1286 12 
C 1376 12 1485 0 1574 0 
C 1619 0 1690 0 1690 121 
C 1690 179 1626 185 1600 185 
C 1389 191 1184 230 1184 459 
C 1184 523 1184 529 1210 618 
L 2093 4128 
L 2099 4128 
L 2630 172 
C 2650 19 2656 0 2714 0 
C 2784 0 2816 51 2848 108 
L 5421 4159 
L 5427 4159 
L 4499 472 
C 4442 249 4429 185 3981 185 
C 3859 185 3795 185 3795 70 
C 3795 0 3853 0 3891 0 
C 4000 0 4128 12 4237 12 
L 4992 12 
C 5101 12 5235 0 5344 0 
C 5395 0 5466 0 5466 121 
C 5466 185 5408 185 5312 185 
C 4922 185 4922 236 4922 300 
C 4922 306 4922 351 4934 402 
L 5811 3886 
z
" id="CMMI12-4d" transform="scale(0.015625)"/>
     </defs>
     <use transform="scale(0.996264)" xlink:href="#CMMI12-62"/>
     <use transform="translate(41.475874 -14.943915)scale(0.697382)" xlink:href="#CMMI12-4d"/>
    </g>
   </g>
   <g id="text_8">
    <!-- + -->
    <g transform="translate(352.524533 56.166753)scale(0.22 -0.22)">
     <defs>
      <path d="M 2451 1472 
L 4141 1472 
C 4230 1472 4339 1472 4339 1580 
C 4339 1696 4237 1696 4141 1696 
L 2451 1696 
L 2451 3385 
C 2451 3475 2451 3584 2342 3584 
C 2227 3584 2227 3481 2227 3385 
L 2227 1696 
L 531 1696 
C 442 1696 333 1696 333 1587 
C 333 1472 435 1472 531 1472 
L 2227 1472 
L 2227 -194 
C 2227 -282 2227 -391 2336 -391 
C 2451 -391 2451 -289 2451 -194 
L 2451 1472 
z
" id="CMSS17-2b" transform="scale(0.015625)"/>
     </defs>
     <use transform="scale(0.996264)" xlink:href="#CMSS17-2b"/>
    </g>
   </g>
   <g id="text_9">
    <!-- + -->
    <g transform="translate(352.524533 164.886753)scale(0.22 -0.22)">
     <use transform="scale(0.996264)" xlink:href="#CMSS17-2b"/>
    </g>
   </g>
   <g id="text_10">
    <!-- + -->
    <g transform="translate(352.524533 273.606753)scale(0.22 -0.22)">
     <use transform="scale(0.996264)" xlink:href="#CMSS17-2b"/>
    </g>
   </g>
   <g id="text_11">
    <!-- $x[n]$ -->
    <g transform="translate(16.405329 56.166753)scale(0.22 -0.22)">
     <defs>
      <path d="M 3034 2624 
C 2829 2585 2752 2431 2752 2310 
C 2752 2156 2874 2105 2963 2105 
C 3155 2105 3290 2271 3290 2444 
C 3290 2694 2982 2816 2714 2816 
C 2323 2816 2106 2451 2048 2329 
C 1901 2790 1504 2816 1389 2816 
C 736 2816 390 1993 390 1849 
C 390 1823 416 1790 461 1790 
C 512 1790 525 1829 538 1855 
C 755 2572 1184 2687 1370 2687 
C 1658 2687 1715 2438 1715 2284 
C 1715 2143 1677 1993 1600 1678 
L 1382 778 
C 1286 390 1101 64 762 64 
C 730 64 570 64 435 126 
C 666 166 717 358 717 435 
C 717 563 621 640 499 640 
C 346 640 179 505 179 300 
C 179 57 480 -64 755 -64 
C 1062 -64 1280 153 1414 415 
C 1517 64 1837 -64 2074 -64 
C 2726 -64 3072 751 3072 896 
C 3072 929 3046 955 3008 955 
C 2950 955 2944 922 2925 870 
C 2752 300 2381 64 2093 64 
C 1869 64 1747 204 1747 467 
C 1747 607 1773 712 1875 1146 
L 2099 2039 
C 2195 2425 2413 2687 2707 2687 
C 2720 2687 2899 2687 3034 2624 
z
" id="CMMI12-78" transform="scale(0.015625)"/>
      <path d="M 1504 -1600 
L 1504 -1376 
L 902 -1376 
L 902 4575 
L 1504 4575 
L 1504 4800 
L 678 4800 
L 678 -1600 
L 1504 -1600 
z
" id="CMR17-5b" transform="scale(0.015625)"/>
      <path d="M 1318 1870 
C 1331 1909 1491 2228 1728 2432 
C 1894 2585 2112 2687 2362 2687 
C 2618 2687 2707 2496 2707 2241 
C 2707 1877 2445 1149 2317 804 
C 2259 651 2227 568 2227 453 
C 2227 166 2426 -64 2733 -64 
C 3328 -64 3552 874 3552 913 
C 3552 945 3526 970 3488 970 
C 3430 970 3424 951 3392 842 
C 3245 319 3002 64 2752 64 
C 2688 64 2586 70 2586 274 
C 2586 434 2656 625 2694 715 
C 2822 1066 3091 1781 3091 2145 
C 3091 2528 2867 2816 2381 2816 
C 1811 2816 1510 2413 1395 2253 
C 1376 2617 1114 2816 832 2816 
C 627 2816 486 2694 378 2477 
C 262 2247 173 1864 173 1838 
C 173 1813 198 1781 243 1781 
C 294 1781 301 1787 339 1934 
C 442 2324 557 2687 813 2687 
C 960 2687 1011 2585 1011 2394 
C 1011 2253 947 2004 902 1807 
L 723 1117 
C 698 996 627 708 595 593 
C 550 427 480 127 480 95 
C 480 6 550 -64 646 -64 
C 723 -64 813 -26 864 70 
C 877 102 934 325 966 453 
L 1107 1028 
L 1318 1870 
z
" id="CMMI12-6e" transform="scale(0.015625)"/>
      <path d="M 915 4800 
L 90 4800 
L 90 4575 
L 691 4575 
L 691 -1376 
L 90 -1376 
L 90 -1600 
L 915 -1600 
L 915 4800 
z
" id="CMR17-5d" transform="scale(0.015625)"/>
     </defs>
     <use transform="scale(0.996264)" xlink:href="#CMMI12-78"/>
     <use transform="translate(55.43406 0)scale(0.996264)" xlink:href="#CMR17-5b"/>
     <use transform="translate(80.305118 0)scale(0.996264)" xlink:href="#CMMI12-6e"/>
     <use transform="translate(138.535165 0)scale(0.996264)" xlink:href="#CMR17-5d"/>
    </g>
   </g>
   <g id="text_12">
    <!-- Partie non récursive -->
    <g transform="translate(166.816406 463.866753)scale(0.22 -0.22)">
     <defs>
      <path d="M 2106 1856 
C 2874 1856 3501 2447 3501 3139 
C 3501 3818 2899 4416 2067 4416 
L 570 4416 
L 570 0 
L 1107 0 
L 1107 1856 
L 2106 1856 
z
M 1926 4057 
C 2669 4057 2995 3598 2995 3139 
C 2995 2711 2694 2227 1926 2227 
L 1094 2227 
L 1094 4057 
L 1926 4057 
z
" id="CMSS17-50" transform="scale(0.015625)"/>
      <path d="M 2406 1789 
C 2406 2399 1978 2816 1402 2816 
C 1120 2816 813 2764 461 2559 
L 499 2133 
C 659 2250 934 2438 1395 2438 
C 1722 2438 1920 2185 1920 1782 
L 1920 1536 
C 896 1504 256 1209 256 711 
C 256 452 416 -64 947 -64 
C 1043 -64 1562 -52 1933 224 
L 1933 -13 
L 2406 -13 
L 2406 1789 
z
M 1920 824 
C 1920 711 1920 559 1728 446 
C 1562 339 1350 326 1261 326 
C 941 326 723 503 723 723 
C 723 1165 1722 1209 1920 1216 
L 1920 824 
z
" id="CMSS17-61" transform="scale(0.015625)"/>
      <path d="M 954 1369 
C 954 1974 1395 2379 1958 2392 
L 1958 2816 
C 1549 2809 1165 2604 934 2270 
L 934 2783 
L 480 2783 
L 480 0 
L 954 0 
L 954 1369 
z
" id="CMSS17-72" transform="scale(0.015625)"/>
      <path d="M 1069 2380 
L 1901 2380 
L 1901 2752 
L 1069 2752 
L 1069 3520 
L 614 3520 
L 614 2752 
L 109 2752 
L 109 2380 
L 602 2380 
L 602 751 
C 602 384 685 -64 1107 -64 
C 1427 -64 1722 25 2003 172 
L 1901 551 
C 1747 416 1562 339 1363 339 
C 1082 339 1069 699 1069 860 
L 1069 2380 
z
" id="CMSS17-74" transform="scale(0.015625)"/>
      <path d="M 979 4224 
L 442 4224 
L 442 3686 
L 979 3686 
L 979 4224 
z
M 947 2752 
L 474 2752 
L 474 0 
L 947 0 
L 947 2752 
z
" id="CMSS17-69" transform="scale(0.015625)"/>
      <path d="M 2502 1375 
C 2502 1587 2490 2001 2285 2347 
C 2061 2713 1696 2816 1421 2816 
C 755 2816 192 2184 192 1363 
C 192 579 774 -64 1510 -64 
C 1798 -64 2150 19 2470 249 
C 2470 275 2458 414 2451 421 
C 2451 433 2432 629 2432 655 
C 2125 408 1773 326 1517 326 
C 1107 326 666 667 646 1375 
L 2502 1375 
z
M 698 1728 
C 781 2086 1062 2425 1421 2425 
C 1517 2425 1965 2412 2080 1728 
L 698 1728 
z
" id="CMSS17-65" transform="scale(0.015625)"/>
      <path d="M 2618 1878 
C 2618 2283 2522 2816 1798 2816 
C 1389 2816 1120 2604 941 2386 
L 941 2783 
L 474 2783 
L 474 0 
L 960 0 
L 960 1556 
C 960 1962 1114 2425 1549 2425 
C 2112 2425 2131 2045 2131 1826 
L 2131 0 
L 2618 0 
L 2618 1878 
z
" id="CMSS17-6e" transform="scale(0.015625)"/>
      <path d="M 2829 1356 
C 2829 2175 2221 2816 1504 2816 
C 768 2816 173 2156 173 1356 
C 173 544 787 -64 1498 -64 
C 2227 -64 2829 563 2829 1356 
z
M 1504 339 
C 1050 339 659 710 659 1407 
C 659 2150 1114 2425 1498 2425 
C 1914 2425 2342 2124 2342 1407 
C 2342 684 1926 339 1504 339 
z
" id="CMSS17-6f" transform="scale(0.015625)"/>
      <path d="M 2502 4416 
L 2016 4416 
L 1222 3321 
L 1613 3321 
L 2502 4416 
z
" id="CMSS17-13" transform="scale(0.015625)"/>
      <path d="M 2464 2540 
C 2464 2585 2170 2713 2093 2739 
C 1882 2816 1613 2816 1542 2816 
C 710 2816 211 2092 211 1363 
C 211 595 768 -64 1517 -64 
C 1946 -64 2253 76 2502 243 
L 2464 665 
C 2189 454 1869 339 1523 339 
C 1024 339 698 774 698 1369 
C 698 1830 909 2412 1549 2412 
C 1901 2412 2099 2342 2394 2143 
L 2464 2540 
z
" id="CMSS17-63" transform="scale(0.015625)"/>
      <path d="M 2618 2752 
L 2131 2752 
L 2131 976 
C 2131 500 1786 307 1421 307 
C 998 307 960 448 960 712 
L 960 2752 
L 474 2752 
L 474 680 
C 474 179 646 -64 1088 -64 
C 1306 -64 1798 -13 2144 307 
L 2144 -13 
L 2618 -13 
L 2618 2752 
z
" id="CMSS17-75" transform="scale(0.015625)"/>
      <path d="M 2061 2623 
C 1683 2803 1389 2816 1197 2816 
C 742 2816 198 2655 198 2009 
C 198 1363 902 1222 1094 1183 
C 1389 1126 1715 1062 1715 742 
C 1715 339 1254 339 1171 339 
C 915 339 563 409 243 639 
L 166 211 
C 531 0 883 -64 1178 -64 
C 1965 -64 2163 416 2163 780 
C 2163 1094 1984 1305 1862 1401 
C 1651 1567 1574 1587 1050 1695 
C 960 1708 646 1779 646 2067 
C 646 2431 1050 2431 1139 2431 
C 1555 2431 1811 2303 1984 2207 
L 2061 2623 
z
" id="CMSS17-73" transform="scale(0.015625)"/>
      <path d="M 2675 2752 
L 2176 2752 
L 1747 1555 
C 1613 1164 1421 627 1389 352 
L 1382 352 
C 1370 467 1318 633 1286 748 
C 1248 889 1197 1056 1158 1171 
L 595 2752 
L 83 2752 
L 1094 0 
L 1664 0 
L 2675 2752 
z
" id="CMSS17-76" transform="scale(0.015625)"/>
     </defs>
     <use transform="scale(0.996264)" xlink:href="#CMSS17-50"/>
     <use transform="translate(57.133132 0)scale(0.996264)" xlink:href="#CMSS17-61"/>
     <use transform="translate(99.452599 0)scale(0.996264)" xlink:href="#CMSS17-72"/>
     <use transform="translate(131.362372 0)scale(0.996264)" xlink:href="#CMSS17-74"/>
     <use transform="translate(165.193938 0)scale(0.996264)" xlink:href="#CMSS17-69"/>
     <use transform="translate(187.374661 0)scale(0.996264)" xlink:href="#CMSS17-65"/>
     <use transform="translate(260.242596 0)scale(0.996264)" xlink:href="#CMSS17-6e"/>
     <use transform="translate(308.447539 0)scale(0.996264)" xlink:href="#CMSS17-6f"/>
     <use transform="translate(355.291163 0)scale(0.996264)" xlink:href="#CMSS17-6e"/>
     <use transform="translate(434.725219 0)scale(0.996264)" xlink:href="#CMSS17-72"/>
     <use transform="translate(464.032583 0)scale(0.996264)" xlink:href="#CMSS17-13"/>
     <use transform="translate(466.634991 0)scale(0.996264)" xlink:href="#CMSS17-65"/>
     <use transform="translate(508.273813 0)scale(0.996264)" xlink:href="#CMSS17-63"/>
     <use transform="translate(549.912635 0)scale(0.996264)" xlink:href="#CMSS17-75"/>
     <use transform="translate(598.117578 0)scale(0.996264)" xlink:href="#CMSS17-72"/>
     <use transform="translate(630.027351 0)scale(0.996264)" xlink:href="#CMSS17-73"/>
     <use transform="translate(665.940893 0)scale(0.996264)" xlink:href="#CMSS17-69"/>
     <use transform="translate(688.121616 0)scale(0.996264)" xlink:href="#CMSS17-76"/>
     <use transform="translate(731.121758 0)scale(0.996264)" xlink:href="#CMSS17-65"/>
    </g>
   </g>
   <g id="text_13">
    <!-- $w[n]$ -->
    <g transform="translate(422.237661 28.986753)scale(0.22 -0.22)">
     <defs>
      <path d="M 2202 389 
C 2342 6 2739 -64 2982 -64 
C 3469 -64 3757 357 3936 798 
C 4083 1168 4320 2011 4320 2388 
C 4320 2777 4122 2816 4064 2816 
C 3910 2816 3770 2662 3770 2534 
C 3770 2458 3814 2413 3846 2388 
C 3904 2330 4070 2158 4070 1826 
C 4070 1609 3891 1008 3757 708 
C 3578 319 3341 64 3008 64 
C 2650 64 2534 332 2534 625 
C 2534 810 2592 1034 2618 1142 
L 2886 2215 
C 2918 2343 2976 2566 2976 2591 
C 2976 2687 2899 2752 2803 2752 
C 2618 2752 2573 2591 2534 2438 
C 2470 2189 2202 1110 2176 970 
C 2150 861 2150 791 2150 651 
C 2150 498 1946 255 1939 242 
C 1869 172 1766 64 1568 64 
C 1062 64 1062 542 1062 651 
C 1062 855 1107 1136 1395 1896 
C 1472 2094 1504 2177 1504 2305 
C 1504 2573 1312 2816 998 2816 
C 410 2816 173 1890 173 1838 
C 173 1813 198 1781 243 1781 
C 301 1781 307 1807 333 1896 
C 493 2458 742 2687 979 2687 
C 1043 2687 1146 2681 1146 2477 
C 1146 2445 1146 2311 1037 2030 
C 736 1232 672 970 672 728 
C 672 57 1222 -64 1549 -64 
C 1658 -64 1946 -64 2202 389 
z
" id="CMMI12-77" transform="scale(0.015625)"/>
     </defs>
     <use transform="scale(0.996264)" xlink:href="#CMMI12-77"/>
     <use transform="translate(72.412915 0)scale(0.996264)" xlink:href="#CMR17-5b"/>
     <use transform="translate(97.283974 0)scale(0.996264)" xlink:href="#CMMI12-6e"/>
     <use transform="translate(155.514021 0)scale(0.996264)" xlink:href="#CMR17-5d"/>
    </g>
   </g>
   <g id="text_14">
    <!-- $z^{-1}$ -->
    <g transform="translate(725.864785 110.526753)scale(0.22 -0.22)">
     <use transform="scale(0.996264)" xlink:href="#CMMI12-7a"/>
     <use transform="translate(49.755145 36.153639)scale(0.697382)" xlink:href="#CMSY10-0"/>
     <use transform="translate(103.996138 36.153639)scale(0.697382)" xlink:href="#CMR17-31"/>
    </g>
   </g>
   <g id="text_15">
    <!-- $z^{-1}$ -->
    <g transform="translate(725.864785 219.246753)scale(0.22 -0.22)">
     <use transform="scale(0.996264)" xlink:href="#CMMI12-7a"/>
     <use transform="translate(49.755145 36.153639)scale(0.697382)" xlink:href="#CMSY10-0"/>
     <use transform="translate(103.996138 36.153639)scale(0.697382)" xlink:href="#CMR17-31"/>
    </g>
   </g>
   <g id="text_16">
    <!-- $z^{-1}$ -->
    <g transform="translate(725.864785 355.146753)scale(0.22 -0.22)">
     <use transform="scale(0.996264)" xlink:href="#CMMI12-7a"/>
     <use transform="translate(49.755145 36.153639)scale(0.697382)" xlink:href="#CMSY10-0"/>
     <use transform="translate(103.996138 36.153639)scale(0.697382)" xlink:href="#CMR17-31"/>
    </g>
   </g>
   <g id="text_17">
    <!-- $1/a_0$ -->
    <g transform="translate(612.5603 56.167452)scale(0.22 -0.22)">
     <defs>
      <path d="M 2746 4563 
C 2746 4569 2784 4665 2784 4678 
C 2784 4755 2720 4800 2669 4800 
C 2637 4800 2579 4800 2528 4659 
L 384 -1364 
C 384 -1370 346 -1466 346 -1479 
C 346 -1556 410 -1600 461 -1600 
C 499 -1600 557 -1594 602 -1460 
L 2746 4563 
z
" id="CMMI12-3d" transform="scale(0.015625)"/>
      <path d="M 1926 759 
C 1894 651 1894 638 1805 517 
C 1664 338 1382 64 1082 64 
C 819 64 672 300 672 676 
C 672 1028 870 1743 992 2011 
C 1210 2458 1510 2687 1760 2687 
C 2182 2687 2266 2164 2266 2113 
C 2266 2107 2246 2024 2240 2011 
L 1926 759 
z
M 2336 2394 
C 2266 2560 2093 2816 1760 2816 
C 1037 2816 256 1883 256 938 
C 256 306 627 -64 1062 -64 
C 1414 -64 1715 210 1894 421 
C 1958 44 2259 -64 2451 -64 
C 2643 -64 2797 51 2912 280 
C 3014 496 3104 885 3104 910 
C 3104 942 3078 968 3040 968 
C 2982 968 2976 936 2950 840 
C 2854 465 2733 64 2470 64 
C 2285 64 2272 229 2272 356 
C 2272 503 2291 573 2349 821 
C 2394 980 2426 1120 2477 1305 
C 2714 2260 2771 2489 2771 2528 
C 2771 2617 2701 2688 2605 2688 
C 2400 2688 2349 2464 2336 2388 
L 2336 2394 
z
" id="CMMI12-61" transform="scale(0.015625)"/>
     </defs>
     <use transform="scale(0.996264)" xlink:href="#CMR17-31"/>
     <use transform="translate(45.690477 0)scale(0.996264)" xlink:href="#CMMI12-3d"/>
     <use transform="translate(94.465396 0)scale(0.996264)" xlink:href="#CMMI12-61"/>
     <use transform="translate(145.673253 -14.943915)scale(0.697382)" xlink:href="#CMR17-30"/>
    </g>
   </g>
   <g id="text_18">
    <!-- $-a_1$ -->
    <g transform="translate(614.427877 164.886753)scale(0.22 -0.22)">
     <use transform="scale(0.996264)" xlink:href="#CMSY10-0"/>
     <use transform="translate(77.487468 0)scale(0.996264)" xlink:href="#CMMI12-61"/>
     <use transform="translate(128.695325 -14.943915)scale(0.697382)" xlink:href="#CMR17-31"/>
    </g>
   </g>
   <g id="text_19">
    <!-- $-a_2$ -->
    <g transform="translate(614.427877 273.606753)scale(0.22 -0.22)">
     <use transform="scale(0.996264)" xlink:href="#CMSY10-0"/>
     <use transform="translate(77.487468 0)scale(0.996264)" xlink:href="#CMMI12-61"/>
     <use transform="translate(128.695325 -14.943915)scale(0.697382)" xlink:href="#CMR17-32"/>
    </g>
   </g>
   <g id="text_20">
    <!-- $-a_N$ -->
    <g transform="translate(612.168687 409.506753)scale(0.22 -0.22)">
     <defs>
      <path d="M 4736 3682 
C 4806 3956 4909 4147 5395 4166 
C 5414 4166 5491 4172 5491 4281 
C 5491 4352 5434 4352 5408 4352 
C 5280 4352 4954 4339 4826 4339 
L 4518 4339 
C 4429 4339 4314 4352 4224 4352 
C 4186 4352 4109 4352 4109 4230 
C 4109 4166 4160 4166 4205 4166 
C 4589 4153 4614 4007 4614 3892 
C 4614 3835 4608 3816 4589 3726 
L 3866 854 
L 2496 4243 
C 2451 4345 2445 4352 2304 4352 
L 1523 4352 
C 1395 4352 1338 4352 1338 4230 
C 1338 4166 1382 4166 1504 4166 
C 1536 4166 1914 4166 1914 4109 
C 1914 4096 1901 4045 1894 4026 
L 1043 650 
C 966 338 813 204 390 185 
C 358 185 294 179 294 64 
C 294 0 358 0 378 0 
C 506 0 832 12 960 12 
L 1267 12 
C 1357 12 1466 0 1555 0 
C 1600 0 1670 0 1670 121 
C 1670 179 1606 185 1581 185 
C 1370 191 1165 230 1165 459 
C 1165 510 1178 567 1190 618 
L 2054 4026 
C 2093 3962 2093 3949 2118 3892 
L 3642 115 
C 3674 38 3686 0 3744 0 
C 3808 0 3814 19 3840 128 
L 4736 3682 
z
" id="CMMI12-4e" transform="scale(0.015625)"/>
     </defs>
     <use transform="scale(0.996264)" xlink:href="#CMSY10-0"/>
     <use transform="translate(77.487468 0)scale(0.996264)" xlink:href="#CMMI12-61"/>
     <use transform="translate(128.695325 -14.943915)scale(0.697382)" xlink:href="#CMMI12-4e"/>
    </g>
   </g>
   <g id="text_21">
    <!-- + -->
    <g transform="translate(515.604533 56.166753)scale(0.22 -0.22)">
     <use transform="scale(0.996264)" xlink:href="#CMSS17-2b"/>
    </g>
   </g>
   <g id="text_22">
    <!-- + -->
    <g transform="translate(515.604533 164.886753)scale(0.22 -0.22)">
     <use transform="scale(0.996264)" xlink:href="#CMSS17-2b"/>
    </g>
   </g>
   <g id="text_23">
    <!-- + -->
    <g transform="translate(515.604533 273.606753)scale(0.22 -0.22)">
     <use transform="scale(0.996264)" xlink:href="#CMSS17-2b"/>
    </g>
   </g>
   <g id="text_24">
    <!-- Partie récursive -->
    <g transform="translate(566.529485 463.866753)scale(0.22 -0.22)">
     <use transform="scale(0.996264)" xlink:href="#CMSS17-50"/>
     <use transform="translate(57.133132 0)scale(0.996264)" xlink:href="#CMSS17-61"/>
     <use transform="translate(99.452599 0)scale(0.996264)" xlink:href="#CMSS17-72"/>
     <use transform="translate(131.362372 0)scale(0.996264)" xlink:href="#CMSS17-74"/>
     <use transform="translate(165.193938 0)scale(0.996264)" xlink:href="#CMSS17-69"/>
     <use transform="translate(187.374661 0)scale(0.996264)" xlink:href="#CMSS17-65"/>
     <use transform="translate(260.242596 0)scale(0.996264)" xlink:href="#CMSS17-72"/>
     <use transform="translate(289.54996 0)scale(0.996264)" xlink:href="#CMSS17-13"/>
     <use transform="translate(292.152369 0)scale(0.996264)" xlink:href="#CMSS17-65"/>
     <use transform="translate(333.791191 0)scale(0.996264)" xlink:href="#CMSS17-63"/>
     <use transform="translate(375.430013 0)scale(0.996264)" xlink:href="#CMSS17-75"/>
     <use transform="translate(423.634956 0)scale(0.996264)" xlink:href="#CMSS17-72"/>
     <use transform="translate(455.544729 0)scale(0.996264)" xlink:href="#CMSS17-73"/>
     <use transform="translate(491.45827 0)scale(0.996264)" xlink:href="#CMSS17-69"/>
     <use transform="translate(513.638994 0)scale(0.996264)" xlink:href="#CMSS17-76"/>
     <use transform="translate(556.639135 0)scale(0.996264)" xlink:href="#CMSS17-65"/>
    </g>
   </g>
   <g id="text_25">
    <!-- $y[n]$ -->
    <g transform="translate(832.277816 56.166753)scale(0.22 -0.22)">
     <defs>
      <path d="M 1683 -673 
C 1510 -921 1261 -1152 947 -1152 
C 870 -1152 563 -1139 467 -826 
C 486 -833 518 -833 531 -833 
C 723 -833 851 -666 851 -519 
C 851 -372 730 -320 634 -320 
C 531 -320 307 -397 307 -711 
C 307 -1050 582 -1280 947 -1280 
C 1587 -1280 2234 -673 2413 -7 
L 3040 2483 
C 3046 2515 3059 2553 3059 2591 
C 3059 2687 2982 2752 2886 2752 
C 2829 2752 2694 2726 2643 2534 
L 2170 657 
C 2138 542 2138 530 2086 459 
C 1958 281 1747 64 1440 64 
C 1082 64 1050 415 1050 587 
C 1050 951 1222 1443 1395 1902 
C 1466 2087 1504 2177 1504 2305 
C 1504 2573 1312 2816 998 2816 
C 410 2816 173 1890 173 1838 
C 173 1813 198 1781 243 1781 
C 301 1781 307 1807 333 1896 
C 486 2432 730 2687 979 2687 
C 1037 2687 1146 2687 1146 2477 
C 1146 2311 1075 2126 979 1883 
C 666 1047 666 836 666 683 
C 666 76 1101 -64 1421 -64 
C 1606 -64 1837 -7 2061 230 
L 2067 223 
C 1971 -141 1907 -359 1683 -673 
z
" id="CMMI12-79" transform="scale(0.015625)"/>
     </defs>
     <use transform="scale(0.996264)" xlink:href="#CMMI12-79"/>
     <use transform="translate(51.138781 0)scale(0.996264)" xlink:href="#CMR17-5b"/>
     <use transform="translate(76.009839 0)scale(0.996264)" xlink:href="#CMMI12-6e"/>
     <use transform="translate(134.239887 0)scale(0.996264)" xlink:href="#CMR17-5d"/>
    </g>
   </g>
  </g>
 </g>
 <defs>
  <clipPath id="p86296b0926">
   <rect height="478.368" width="869.76" x="7.2" y="7.2"/>
  </clipPath>
 </defs>
</svg>
