<?xml version="1.0" encoding="utf-8" standalone="no"?>
<!DOCTYPE svg PUBLIC "-//W3C//DTD SVG 1.1//EN"
  "http://www.w3.org/Graphics/SVG/1.1/DTD/svg11.dtd">
<svg height="362.477808pt" version="1.1" viewBox="0 0 590.417348 362.477808" width="590.417348pt" xmlns="http://www.w3.org/2000/svg" xmlns:xlink="http://www.w3.org/1999/xlink">
 <metadata>
  <rdf:RDF xmlns:cc="http://creativecommons.org/ns#" xmlns:dc="http://purl.org/dc/elements/1.1/" xmlns:rdf="http://www.w3.org/1999/02/22-rdf-syntax-ns#">
   <cc:Work>
    <dc:type rdf:resource="http://purl.org/dc/dcmitype/StillImage"/>
    <dc:date>2021-09-28T12:58:25.605793</dc:date>
    <dc:format>image/svg+xml</dc:format>
    <dc:creator>
     <cc:Agent>
      <dc:title>Matplotlib v3.4.3, https://matplotlib.org/</dc:title>
     </cc:Agent>
    </dc:creator>
   </cc:Work>
  </rdf:RDF>
 </metadata>
 <defs>
  <style type="text/css">*{stroke-linecap:butt;stroke-linejoin:round;}</style>
 </defs>
 <g id="figure_1">
  <g id="patch_1">
   <path d="M 0 362.477808 
L 590.417348 362.477808 
L 590.417348 0 
L 0 0 
z
" style="fill:none;"/>
  </g>
  <g id="axes_1">
   <g id="line2d_1">
    <path clip-path="url(#p6a2b8a752a)" d="M 67.29336 67.489573 
L 229.620633 67.489573 
L 229.620633 259.348396 
L 473.111542 259.348396 
" style="fill:none;stroke:#1f77b4;stroke-linecap:square;stroke-width:1.5;"/>
   </g>
   <g id="line2d_2">
    <path clip-path="url(#p6a2b8a752a)" d="M 67.29336 48.303691 
L 249.911542 48.303691 
L 249.911542 220.976632 
L 473.111542 220.976632 
" style="fill:none;stroke:#2ca02c;stroke-linecap:square;stroke-width:1.5;"/>
   </g>
   <g id="line2d_3">
    <path clip-path="url(#p6a2b8a752a)" d="M 67.29336 86.675455 
L 201.21336 86.675455 
L 201.21336 259.348396 
L 473.111542 259.348396 
" style="fill:none;stroke:#2ca02c;stroke-linecap:square;stroke-width:1.5;"/>
   </g>
   <g id="line2d_4">
    <path clip-path="url(#p6a2b8a752a)" d="M 67.29336 67.489573 
L 73.411222 64.505527 
L 75.45051 63.66463 
L 77.489797 63.014291 
L 79.529084 62.613755 
L 81.568372 62.509564 
L 83.607659 62.731334 
L 85.646946 63.288413 
L 87.686234 64.167737 
L 89.725521 65.333106 
L 91.764808 66.726057 
L 99.921958 72.807613 
L 101.961245 73.939266 
L 104.000532 74.716834 
L 106.03982 75.065255 
L 108.079107 74.934007 
L 110.118394 74.302127 
L 112.157682 73.181471 
L 114.196969 71.617862 
L 116.236257 69.689941 
L 120.314831 65.19644 
L 122.354119 62.909606 
L 124.393406 60.798963 
L 126.432693 59.014671 
L 128.471981 57.69273 
L 130.511268 56.944921 
L 132.550555 56.849923 
L 134.589843 57.446285 
L 136.62913 58.727834 
L 138.668417 60.641972 
L 140.707705 63.091106 
L 142.746992 65.937254 
L 148.864854 75.049513 
L 150.904141 77.612608 
L 152.943429 79.620413 
L 154.982716 80.919034 
L 157.022003 81.396115 
L 159.061291 80.990011 
L 161.100578 79.695801 
L 163.139865 77.567619 
L 165.179153 74.717019 
L 167.21844 71.307335 
L 173.336302 59.915626 
L 175.37559 56.549307 
L 177.414877 53.795145 
L 179.454164 51.84926 
L 181.493452 50.859302 
L 183.532739 50.913341 
L 185.572026 52.032554 
L 187.611314 54.168323 
L 189.650601 57.204068 
L 191.689888 60.96181 
L 195.768463 69.694129 
L 197.80775 74.122972 
L 199.847038 78.220038 
L 201.886325 81.728683 
L 203.925612 84.43635 
L 205.9649 86.195259 
L 208.004187 86.942668 
L 210.043474 86.721444 
L 212.082762 85.702565 
L 216.161336 82.762255 
L 218.200624 82.088111 
L 220.239911 83.161345 
L 222.279199 87.138358 
L 224.318486 95.145548 
L 226.357773 107.826812 
L 228.397061 124.768522 
L 232.475635 163.870814 
L 234.514923 181.538665 
L 236.55421 196.325541 
L 238.593497 208.325637 
L 240.632785 218.138748 
L 242.672072 226.405385 
L 244.711359 233.58362 
L 246.750647 239.90902 
L 248.789934 245.438544 
L 250.829221 250.115908 
L 252.868509 253.831698 
L 254.907796 256.470508 
L 256.947083 257.944737 
L 258.986371 258.216694 
L 261.025658 257.310845 
L 263.064945 255.317751 
L 265.104233 252.391052 
L 267.14352 248.738752 
L 271.222095 240.279273 
L 273.261382 236.027589 
L 275.300669 232.125044 
L 277.339957 228.813088 
L 279.379244 226.289487 
L 281.418532 224.696389 
L 283.457819 224.112341 
L 285.497106 224.548707 
L 287.536394 225.950633 
L 289.575681 228.202389 
L 291.614968 231.136606 
L 293.654256 234.546701 
L 299.772118 245.293471 
L 301.811405 248.287774 
L 303.850692 250.669235 
L 305.88998 252.308409 
L 307.929267 253.128264 
L 309.968554 253.107336 
L 312.007842 252.279096 
L 314.047129 250.727691 
L 316.086416 248.580493 
L 318.125704 245.998068 
L 324.243566 237.489006 
L 326.282853 235.007895 
L 328.32214 232.964165 
L 330.361428 231.466707 
L 332.400715 230.58419 
L 334.440003 230.342477 
L 336.47929 230.725001 
L 338.518577 231.67592 
L 340.557865 233.105718 
L 342.597152 234.898758 
L 350.754301 242.987559 
L 352.793589 244.589418 
L 354.832876 245.820726 
L 356.872163 246.625555 
L 358.911451 246.978661 
L 360.950738 246.885313 
L 362.990025 246.379106 
L 365.029313 245.518046 
L 367.0686 244.379258 
L 371.147175 241.634774 
L 375.225749 238.90076 
L 377.265037 237.750922 
L 379.304324 236.832423 
L 381.343611 236.187051 
L 383.382899 235.836126 
L 385.422186 235.78055 
L 387.461474 236.002206 
L 389.500761 236.466509 
L 391.540048 237.125862 
L 395.618623 238.798938 
L 399.697198 240.539573 
L 401.736485 241.296889 
L 403.775772 241.921548 
L 405.81506 242.384823 
L 407.854347 242.67069 
L 409.893634 242.775845 
L 411.932922 242.708866 
L 413.972209 242.488669 
L 418.050784 241.703005 
L 426.207933 239.728245 
L 430.286508 239.038965 
L 434.365082 238.737315 
L 438.443657 238.824972 
L 442.522232 239.209508 
L 454.757956 240.672267 
L 458.836531 240.872407 
L 462.915105 240.865911 
L 469.032967 240.572958 
L 473.111542 240.300059 
L 473.111542 240.300059 
" style="fill:none;stroke:#d62728;stroke-linecap:square;stroke-width:1.5;"/>
   </g>
   <g id="patch_2">
    <path d="M 65.231915 259.348396 
Q 288.461852 259.348396 510.573755 259.348396 
" style="fill:none;stroke:#000000;stroke-linecap:round;"/>
    <path d="M 501.773755 254.948396 
L 510.573755 259.348396 
L 501.773755 263.748396 
" style="fill:none;stroke:#000000;stroke-linecap:round;"/>
   </g>
   <g id="patch_3">
    <path d="M 67.29336 259.265577 
Q 67.29336 145.190793 67.29336 32.234043 
" style="fill:none;stroke:#000000;stroke-linecap:round;"/>
    <path d="M 62.89336 41.034043 
L 67.29336 32.234043 
L 71.69336 41.034043 
" style="fill:none;stroke:#000000;stroke-linecap:round;"/>
   </g>
   <g id="text_1">
    <!-- $A^-$ -->
    <g transform="translate(31.155855 92.154208)scale(0.22 -0.22)">
     <defs>
      <path d="M 1088 691 
C 864 314 646 186 339 186 
C 269 180 218 180 218 58 
C 218 24 250 0 294 0 
C 410 0 698 0 813 0 
C 998 0 1203 0 1382 0 
C 1421 0 1498 0 1498 122 
C 1498 180 1446 186 1408 186 
C 1261 186 1139 236 1139 388 
C 1139 476 1178 546 1261 685 
L 1747 1479 
L 3379 1479 
C 3386 1423 3386 1373 3392 1316 
C 3411 1152 3488 495 3488 376 
C 3488 186 3162 186 3059 186 
C 2989 186 2918 186 2918 70 
C 2918 0 2976 0 3014 0 
C 3123 0 3251 0 3360 0 
L 3725 0 
C 4115 0 4397 0 4403 0 
C 4448 0 4518 0 4518 122 
C 4518 186 4461 186 4365 186 
C 4013 186 4006 244 3987 434 
L 3597 4404 
C 3584 4531 3558 4544 3488 4544 
C 3424 4544 3386 4531 3328 4435 
L 1088 691 
z
M 1856 1664 
L 3142 3819 
L 3360 1664 
L 1856 1664 
z
" id="CMMI12-41" transform="scale(0.015625)"/>
      <path d="M 4218 1472 
C 4326 1472 4442 1472 4442 1600 
C 4442 1728 4326 1728 4218 1728 
L 755 1728 
C 646 1728 531 1728 531 1600 
C 531 1472 646 1472 755 1472 
L 4218 1472 
z
" id="CMSY10-0" transform="scale(0.015625)"/>
     </defs>
     <use transform="scale(0.996264)" xlink:href="#CMMI12-41"/>
     <use transform="translate(73.127885 36.153639)scale(0.697382)" xlink:href="#CMSY10-0"/>
    </g>
   </g>
   <g id="text_2">
    <!-- $K$ -->
    <g transform="translate(40.918622 72.968326)scale(0.22 -0.22)">
     <defs>
      <path d="M 3200 2571 
C 3194 2590 3168 2641 3168 2661 
C 3168 2667 3174 2673 3283 2756 
L 3904 3242 
C 4762 3905 5043 4128 5485 4167 
C 5530 4167 5594 4167 5594 4282 
C 5594 4320 5574 4352 5523 4352 
C 5453 4352 5376 4352 5306 4352 
L 5062 4352 
C 4864 4352 4653 4352 4461 4352 
C 4416 4352 4339 4352 4339 4237 
C 4339 4173 4384 4167 4422 4167 
C 4493 4160 4576 4135 4576 4046 
C 4576 3919 4384 3765 4333 3727 
L 1824 1784 
L 2355 3887 
C 2413 4103 2426 4167 2880 4167 
C 3002 4167 3059 4167 3059 4288 
C 3059 4352 2995 4352 2963 4352 
C 2848 4352 2714 4352 2592 4352 
L 1837 4352 
C 1722 4352 1581 4352 1466 4352 
C 1414 4352 1344 4352 1344 4231 
C 1344 4167 1402 4167 1498 4167 
C 1888 4167 1888 4116 1888 4046 
C 1888 4034 1888 3995 1862 3899 
L 998 472 
C 941 249 928 185 480 185 
C 358 185 294 185 294 70 
C 294 0 352 0 390 0 
C 512 0 640 0 762 0 
L 1510 0 
C 1632 0 1766 0 1888 0 
C 1939 0 2010 0 2010 121 
C 2010 185 1952 185 1856 185 
C 1466 185 1466 236 1466 300 
C 1466 345 1504 504 1530 606 
L 1779 1593 
L 2752 2351 
C 2938 1943 3277 1128 3539 505 
C 3558 466 3571 428 3571 383 
C 3571 185 3315 185 3258 185 
C 3200 185 3136 185 3136 64 
C 3136 0 3206 0 3226 0 
C 3450 0 3686 0 3910 0 
L 4218 0 
C 4314 0 4422 0 4518 0 
C 4557 0 4627 0 4627 121 
C 4627 185 4570 185 4506 185 
C 4269 185 4186 236 4090 466 
L 3200 2571 
z
" id="CMMI12-4b" transform="scale(0.015625)"/>
     </defs>
     <use transform="scale(0.996264)" xlink:href="#CMMI12-4b"/>
    </g>
   </g>
   <g id="text_3">
    <!-- $A^+$ -->
    <g transform="translate(31.404632 53.782443)scale(0.22 -0.22)">
     <defs>
      <path d="M 2413 1472 
L 4109 1472 
C 4198 1472 4307 1472 4307 1580 
C 4307 1695 4205 1695 4109 1695 
L 2413 1695 
L 2413 3386 
C 2413 3475 2413 3584 2304 3584 
C 2189 3584 2189 3482 2189 3386 
L 2189 1695 
L 493 1695 
C 403 1695 294 1695 294 1587 
C 294 1472 397 1472 493 1472 
L 2189 1472 
L 2189 -218 
C 2189 -307 2189 -416 2298 -416 
C 2413 -416 2413 -314 2413 -218 
L 2413 1472 
z
" id="CMR17-2b" transform="scale(0.015625)"/>
     </defs>
     <use transform="scale(0.996264)" xlink:href="#CMMI12-41"/>
     <use transform="translate(73.127885 36.153639)scale(0.697382)" xlink:href="#CMR17-2b"/>
    </g>
   </g>
   <g id="text_4">
    <!-- $f_c-$ -->
    <g transform="translate(166.624304 282.243443)scale(0.22 -0.22)">
     <defs>
      <path d="M 2854 2566 
C 2982 2566 3034 2566 3034 2688 
C 3034 2752 2982 2752 2867 2752 
L 2349 2752 
C 2470 3429 2560 3897 2611 4107 
C 2650 4265 2784 4416 2950 4416 
C 3085 4416 3219 4358 3283 4298 
C 3034 4272 2957 4082 2957 3969 
C 2957 3837 3053 3759 3174 3759 
C 3302 3759 3494 3870 3494 4119 
C 3494 4393 3226 4544 2944 4544 
C 2669 4544 2400 4334 2272 4078 
C 2157 3848 2093 3611 1946 2752 
L 1517 2752 
C 1395 2752 1331 2752 1331 2637 
C 1331 2566 1370 2566 1498 2566 
L 1907 2566 
C 1792 1976 1530 542 1382 -137 
C 1274 -689 1178 -1152 858 -1152 
C 838 -1152 653 -1152 538 -1031 
C 864 -1005 864 -726 864 -720 
C 864 -593 768 -517 646 -517 
C 518 -517 326 -625 326 -867 
C 326 -1140 608 -1280 858 -1280 
C 1510 -1280 1779 -118 1850 199 
C 1965 688 2278 2376 2310 2566 
L 2854 2566 
z
" id="CMMI12-66" transform="scale(0.015625)"/>
      <path d="M 2502 2431 
C 2381 2431 2323 2431 2234 2355 
C 2195 2323 2125 2227 2125 2125 
C 2125 1997 2221 1920 2342 1920 
C 2496 1920 2669 2044 2669 2292 
C 2669 2588 2374 2816 1933 2816 
C 1094 2816 256 1903 256 996 
C 256 441 602 -64 1254 -64 
C 2125 -64 2675 622 2675 706 
C 2675 744 2637 776 2611 776 
C 2592 776 2586 770 2528 713 
C 2118 162 1510 64 1267 64 
C 826 64 685 446 685 764 
C 685 988 794 1605 1024 2039 
C 1190 2338 1536 2682 1939 2682 
C 2022 2682 2374 2682 2502 2431 
z
" id="CMMI12-63" transform="scale(0.015625)"/>
     </defs>
     <use transform="scale(0.996264)" xlink:href="#CMMI12-66"/>
     <use transform="translate(48.083238 -14.943915)scale(0.697382)" xlink:href="#CMMI12-63"/>
     <use transform="translate(77.969501 0)scale(0.996264)" xlink:href="#CMSY10-0"/>
    </g>
   </g>
   <g id="text_5">
    <!-- $f_c$ -->
    <g transform="translate(221.098787 282.243443)scale(0.22 -0.22)">
     <use transform="scale(0.996264)" xlink:href="#CMMI12-66"/>
     <use transform="translate(48.083238 -14.943915)scale(0.697382)" xlink:href="#CMMI12-63"/>
    </g>
   </g>
   <g id="text_6">
    <!-- $f_c+$ -->
    <g transform="translate(249.911542 282.243443)scale(0.22 -0.22)">
     <use transform="scale(0.996264)" xlink:href="#CMMI12-66"/>
     <use transform="translate(48.083238 -14.943915)scale(0.697382)" xlink:href="#CMMI12-63"/>
     <use transform="translate(77.969501 0)scale(0.996264)" xlink:href="#CMR17-2b"/>
    </g>
   </g>
   <g id="text_7">
    <!-- $0$ -->
    <g transform="translate(49.125092 282.243443)scale(0.22 -0.22)">
     <defs>
      <path d="M 2688 2025 
C 2688 2416 2682 3080 2413 3591 
C 2176 4039 1798 4198 1466 4198 
C 1158 4198 768 4058 525 3597 
C 269 3118 243 2524 243 2025 
C 243 1661 250 1106 448 619 
C 723 -39 1216 -128 1466 -128 
C 1760 -128 2208 -7 2470 600 
C 2662 1042 2688 1559 2688 2025 
z
M 1466 -26 
C 1056 -26 813 325 723 812 
C 653 1188 653 1738 653 2096 
C 653 2588 653 2997 736 3387 
C 858 3929 1216 4096 1466 4096 
C 1728 4096 2067 3923 2189 3400 
C 2272 3036 2278 2607 2278 2096 
C 2278 1680 2278 1169 2202 792 
C 2067 95 1690 -26 1466 -26 
z
" id="CMR17-30" transform="scale(0.015625)"/>
     </defs>
     <use transform="scale(0.996264)" xlink:href="#CMR17-30"/>
    </g>
   </g>
   <g id="text_8">
    <!-- $f$ -->
    <g transform="translate(513.69336 274.56909)scale(0.22 -0.22)">
     <use transform="scale(0.996264)" xlink:href="#CMMI12-66"/>
    </g>
   </g>
   <g id="text_9">
    <!-- $|H(f)|$ -->
    <g transform="translate(7.2 23.638356)scale(0.22 -0.22)">
     <defs>
      <path d="M 1018 4570 
C 1018 4685 1018 4800 890 4800 
C 762 4800 762 4685 762 4570 
L 762 -1370 
C 762 -1485 762 -1600 890 -1600 
C 1018 -1600 1018 -1485 1018 -1370 
L 1018 4570 
z
" id="CMSY10-6a" transform="scale(0.015625)"/>
      <path d="M 4787 3887 
C 4845 4103 4858 4167 5312 4167 
C 5427 4167 5491 4167 5491 4282 
C 5491 4352 5434 4352 5395 4352 
C 5280 4352 5146 4352 5024 4352 
L 4269 4352 
C 4147 4352 4013 4352 3891 4352 
C 3846 4352 3770 4352 3770 4231 
C 3770 4167 3814 4167 3936 4167 
C 4320 4167 4320 4116 4320 4046 
C 4320 4034 4320 3995 4294 3900 
L 3904 2361 
L 1971 2361 
L 2355 3887 
C 2413 4103 2426 4167 2880 4167 
C 2995 4167 3059 4167 3059 4282 
C 3059 4352 3002 4352 2963 4352 
C 2848 4352 2714 4352 2592 4352 
L 1837 4352 
C 1715 4352 1581 4352 1459 4352 
C 1414 4352 1338 4352 1338 4231 
C 1338 4167 1382 4167 1504 4167 
C 1888 4167 1888 4116 1888 4046 
C 1888 4034 1888 3995 1862 3899 
L 998 472 
C 941 249 928 185 486 185 
C 339 185 294 185 294 64 
C 294 0 365 0 384 0 
C 499 0 634 0 755 0 
L 1510 0 
C 1632 0 1766 0 1888 0 
C 1939 0 2010 0 2010 121 
C 2010 185 1952 185 1856 185 
C 1466 185 1466 236 1466 300 
C 1466 307 1466 351 1478 402 
L 1920 2176 
L 3859 2176 
C 3750 1753 3424 416 3411 376 
C 3341 185 3238 185 2861 185 
C 2784 185 2726 185 2726 64 
C 2726 0 2797 0 2816 0 
C 2931 0 3066 0 3187 0 
L 3942 0 
C 4064 0 4198 0 4320 0 
C 4371 0 4442 0 4442 121 
C 4442 185 4384 185 4288 185 
C 3898 185 3898 236 3898 300 
C 3898 307 3898 351 3910 402 
L 4787 3887 
z
" id="CMMI12-48" transform="scale(0.015625)"/>
      <path d="M 1958 -1561 
C 1958 -1555 1958 -1542 1939 -1523 
C 1645 -1224 858 -407 858 1581 
C 858 3569 1632 4379 1946 4697 
C 1946 4704 1958 4717 1958 4736 
C 1958 4755 1939 4768 1914 4768 
C 1843 4768 1299 4296 986 3594 
C 666 2887 576 2199 576 1588 
C 576 1128 621 351 1005 -471 
C 1312 -1135 1837 -1600 1914 -1600 
C 1946 -1600 1958 -1587 1958 -1561 
z
" id="CMR17-28" transform="scale(0.015625)"/>
      <path d="M 1683 1581 
C 1683 2040 1638 2817 1254 3639 
C 947 4303 422 4768 346 4768 
C 326 4768 301 4761 301 4729 
C 301 4717 307 4710 314 4697 
C 621 4378 1402 3568 1402 1584 
C 1402 -407 627 -1217 314 -1537 
C 307 -1549 301 -1556 301 -1568 
C 301 -1600 326 -1600 346 -1600 
C 416 -1600 960 -1128 1274 -426 
C 1594 281 1683 969 1683 1581 
z
" id="CMR17-29" transform="scale(0.015625)"/>
     </defs>
     <use transform="scale(0.996264)" xlink:href="#CMSY10-6a"/>
     <use transform="translate(27.674085 0)scale(0.996264)" xlink:href="#CMMI12-48"/>
     <use transform="translate(116.195857 0)scale(0.996264)" xlink:href="#CMR17-28"/>
     <use transform="translate(151.476625 0)scale(0.996264)" xlink:href="#CMMI12-66"/>
     <use transform="translate(210.19693 0)scale(0.996264)" xlink:href="#CMR17-29"/>
     <use transform="translate(245.477698 0)scale(0.996264)" xlink:href="#CMSY10-6a"/>
    </g>
   </g>
   <g id="patch_4">
    <path d="M 162.631653 240.162514 
Q 195.12646 240.162514 226.503233 240.162514 
" style="fill:none;stroke:#1f77b4;stroke-linecap:round;"/>
    <path d="M 217.703233 235.762514 
L 226.503233 240.162514 
L 217.703233 244.562514 
" style="fill:none;stroke:#1f77b4;stroke-linecap:round;"/>
   </g>
   <g id="text_10">
    <!-- filtre idéal -->
    <g style="fill:#1f77b4;" transform="translate(90.423722 244.645132)scale(0.18 -0.18)">
     <defs>
      <path d="M 2752 4416 
L 2240 4416 
L 2240 3906 
L 2752 3906 
L 2752 4416 
z
M 2733 2737 
L 2259 2737 
L 2259 0 
L 2733 0 
L 2733 2737 
z
M 1075 2368 
L 1773 2368 
L 1773 2737 
L 1062 2737 
L 1062 3578 
C 1062 3919 1216 4092 1421 4092 
C 1542 4092 1664 4056 1773 3992 
L 1773 4410 
C 1722 4428 1574 4480 1421 4480 
C 941 4480 602 3993 602 3372 
L 602 2737 
L 160 2737 
L 160 2368 
L 602 2368 
L 602 0 
L 1075 0 
L 1075 2368 
z
" id="CMSS17-c" transform="scale(0.015625)"/>
      <path d="M 947 4416 
L 474 4416 
L 474 0 
L 947 0 
L 947 4416 
z
" id="CMSS17-6c" transform="scale(0.015625)"/>
      <path d="M 1069 2368 
L 1901 2368 
L 1901 2737 
L 1069 2737 
L 1069 3520 
L 614 3520 
L 614 2737 
L 109 2737 
L 109 2368 
L 602 2368 
L 602 749 
C 602 384 685 -64 1107 -64 
C 1427 -64 1722 25 2003 172 
L 1901 548 
C 1747 414 1562 337 1363 337 
C 1082 337 1069 696 1069 856 
L 1069 2368 
z
" id="CMSS17-74" transform="scale(0.015625)"/>
      <path d="M 954 1363 
C 954 1965 1395 2368 1958 2368 
L 1958 2789 
C 1549 2789 1165 2585 934 2253 
L 934 2758 
L 480 2758 
L 480 0 
L 954 0 
L 954 1363 
z
" id="CMSS17-72" transform="scale(0.015625)"/>
      <path d="M 2502 1377 
C 2502 1590 2490 2003 2285 2345 
C 2061 2713 1696 2816 1421 2816 
C 755 2816 192 2188 192 1375 
C 192 582 774 -64 1510 -64 
C 1798 -64 2150 19 2470 248 
C 2470 274 2458 414 2451 420 
C 2451 433 2432 630 2432 656 
C 2125 407 1773 325 1517 325 
C 1107 325 666 667 646 1377 
L 2502 1377 
z
M 698 1728 
C 781 2084 1062 2421 1421 2421 
C 1517 2421 1965 2421 2080 1728 
L 698 1728 
z
" id="CMSS17-65" transform="scale(0.015625)"/>
      <path d="M 979 4183 
L 442 4183 
L 442 3648 
L 979 3648 
L 979 4183 
z
M 947 2739 
L 474 2739 
L 474 0 
L 947 0 
L 947 2739 
z
" id="CMSS17-69" transform="scale(0.015625)"/>
      <path d="M 2611 4416 
L 2138 4416 
L 2138 2438 
C 1939 2603 1613 2756 1254 2756 
C 672 2756 211 2131 211 1347 
C 211 562 666 -64 1235 -64 
C 1677 -64 1971 172 2125 306 
L 2125 -13 
L 2611 -13 
L 2611 4416 
z
M 2125 836 
C 2125 747 2125 653 1926 482 
C 1798 375 1645 325 1498 325 
C 1152 325 698 576 698 1340 
C 698 2134 1210 2368 1562 2368 
C 1798 2368 1990 2254 2125 2065 
L 2125 836 
z
" id="CMSS17-64" transform="scale(0.015625)"/>
      <path d="M 2502 4448 
L 2016 4448 
L 1222 3328 
L 1613 3328 
L 2502 4448 
z
" id="CMSS17-13" transform="scale(0.015625)"/>
      <path d="M 2406 1791 
C 2406 2392 1978 2808 1402 2808 
C 1120 2808 813 2757 461 2553 
L 499 2135 
C 659 2248 934 2432 1395 2432 
C 1722 2432 1920 2180 1920 1782 
L 1920 1536 
C 896 1536 256 1238 256 726 
C 256 461 416 -64 947 -64 
C 1043 -64 1562 -64 1933 217 
L 1933 -19 
L 2406 -19 
L 2406 1791 
z
M 1920 816 
C 1920 701 1920 548 1728 434 
C 1562 325 1350 325 1261 325 
C 941 325 723 511 723 744 
C 723 1211 1722 1211 1920 1211 
L 1920 816 
z
" id="CMSS17-61" transform="scale(0.015625)"/>
     </defs>
     <use transform="scale(0.996264)" xlink:href="#CMSS17-c"/>
     <use transform="translate(50.126737 0)scale(0.996264)" xlink:href="#CMSS17-6c"/>
     <use transform="translate(72.30746 0)scale(0.996264)" xlink:href="#CMSS17-74"/>
     <use transform="translate(106.139027 0)scale(0.996264)" xlink:href="#CMSS17-72"/>
     <use transform="translate(138.0488 0)scale(0.996264)" xlink:href="#CMSS17-65"/>
     <use transform="translate(210.916734 0)scale(0.996264)" xlink:href="#CMSS17-69"/>
     <use transform="translate(233.097457 0)scale(0.996264)" xlink:href="#CMSS17-64"/>
     <use transform="translate(278.699992 0)scale(0.996264)" xlink:href="#CMSS17-13"/>
     <use transform="translate(281.302401 0)scale(0.996264)" xlink:href="#CMSS17-65"/>
     <use transform="translate(322.941223 0)scale(0.996264)" xlink:href="#CMSS17-61"/>
     <use transform="translate(367.863143 0)scale(0.996264)" xlink:href="#CMSS17-6c"/>
    </g>
   </g>
   <g id="text_11">
    <!-- filtre réalisable -->
    <g style="fill:#d62728;" transform="translate(481.227906 244.645132)scale(0.18 -0.18)">
     <defs>
      <path d="M 2061 2627 
C 1683 2807 1389 2807 1197 2807 
C 742 2807 198 2648 198 2003 
C 198 1359 902 1218 1094 1179 
C 1389 1122 1715 1058 1715 740 
C 1715 337 1254 337 1171 337 
C 915 337 563 407 243 638 
L 166 210 
C 531 0 883 -64 1178 -64 
C 1965 -64 2163 416 2163 781 
C 2163 1094 1984 1305 1862 1401 
C 1651 1568 1574 1587 1050 1696 
C 960 1709 646 1779 646 2066 
C 646 2432 1050 2432 1139 2432 
C 1555 2432 1811 2303 1984 2208 
L 2061 2627 
z
" id="CMSS17-73" transform="scale(0.015625)"/>
      <path d="M 954 4416 
L 480 4416 
L 480 -13 
L 966 -13 
L 966 274 
C 1210 38 1504 -64 1766 -64 
C 2381 -64 2880 549 2880 1352 
C 2880 2086 2496 2756 1926 2756 
C 1523 2756 1165 2591 954 2419 
L 954 4416 
z
M 966 2046 
C 1107 2222 1306 2368 1587 2368 
C 1965 2368 2394 2097 2394 1352 
C 2394 558 1882 325 1530 325 
C 1402 325 1267 356 1139 464 
C 966 615 966 709 966 797 
L 966 2046 
z
" id="CMSS17-62" transform="scale(0.015625)"/>
     </defs>
     <use transform="scale(0.996264)" xlink:href="#CMSS17-c"/>
     <use transform="translate(50.126737 0)scale(0.996264)" xlink:href="#CMSS17-6c"/>
     <use transform="translate(72.30746 0)scale(0.996264)" xlink:href="#CMSS17-74"/>
     <use transform="translate(106.139027 0)scale(0.996264)" xlink:href="#CMSS17-72"/>
     <use transform="translate(138.0488 0)scale(0.996264)" xlink:href="#CMSS17-65"/>
     <use transform="translate(210.916734 0)scale(0.996264)" xlink:href="#CMSS17-72"/>
     <use transform="translate(240.224099 0)scale(0.996264)" xlink:href="#CMSS17-13"/>
     <use transform="translate(242.826507 0)scale(0.996264)" xlink:href="#CMSS17-65"/>
     <use transform="translate(284.465329 0)scale(0.996264)" xlink:href="#CMSS17-61"/>
     <use transform="translate(329.38725 0)scale(0.996264)" xlink:href="#CMSS17-6c"/>
     <use transform="translate(351.567973 0)scale(0.996264)" xlink:href="#CMSS17-69"/>
     <use transform="translate(373.748696 0)scale(0.996264)" xlink:href="#CMSS17-73"/>
     <use transform="translate(409.662238 0)scale(0.996264)" xlink:href="#CMSS17-61"/>
     <use transform="translate(454.584158 0)scale(0.996264)" xlink:href="#CMSS17-62"/>
     <use transform="translate(502.789101 0)scale(0.996264)" xlink:href="#CMSS17-6c"/>
     <use transform="translate(524.969824 0)scale(0.996264)" xlink:href="#CMSS17-65"/>
    </g>
   </g>
   <g id="patch_5">
    <path d="M 70.409895 297.720161 
Q 134.252168 297.720161 198.094442 297.720161 
" style="fill:none;stroke:#000000;stroke-linecap:round;"/>
    <path d="M 79.209895 302.120161 
L 70.409895 297.720161 
L 79.209895 293.320161 
" style="fill:none;stroke:#000000;stroke-linecap:round;"/>
    <path d="M 189.294442 293.320161 
L 198.094442 297.720161 
L 189.294442 302.120161 
" style="fill:none;stroke:#000000;stroke-linecap:round;"/>
   </g>
   <g id="text_12">
    <!-- bande -->
    <g transform="translate(113.44757 321.765591)scale(0.18 -0.18)">
     <defs>
      <path d="M 2618 1877 
C 2618 2283 2522 2816 1798 2816 
C 1389 2816 1120 2606 941 2389 
L 941 2758 
L 474 2758 
L 474 0 
L 960 0 
L 960 1559 
C 960 1964 1114 2428 1549 2428 
C 2112 2428 2131 2048 2131 1829 
L 2131 0 
L 2618 0 
L 2618 1877 
z
" id="CMSS17-6e" transform="scale(0.015625)"/>
     </defs>
     <use transform="scale(0.996264)" xlink:href="#CMSS17-62"/>
     <use transform="translate(48.204943 0)scale(0.996264)" xlink:href="#CMSS17-61"/>
     <use transform="translate(93.126864 0)scale(0.996264)" xlink:href="#CMSS17-6e"/>
     <use transform="translate(141.331807 0)scale(0.996264)" xlink:href="#CMSS17-64"/>
     <use transform="translate(189.53675 0)scale(0.996264)" xlink:href="#CMSS17-65"/>
    </g>
    <!-- passante -->
    <g transform="translate(104.23377 340.197615)scale(0.18 -0.18)">
     <defs>
      <path d="M 966 333 
C 1178 129 1466 -5 1773 -5 
C 2368 -5 2880 603 2880 1412 
C 2880 2159 2496 2816 1946 2816 
C 1626 2816 1242 2702 954 2472 
L 954 2765 
L 480 2765 
L 480 -1216 
L 966 -1216 
L 966 333 
z
M 966 2100 
C 1018 2176 1235 2415 1587 2415 
C 2035 2415 2394 1960 2394 1412 
C 2394 787 1958 384 1530 384 
C 1402 384 1267 415 1139 523 
C 966 674 966 768 966 857 
L 966 2100 
z
" id="CMSS17-70" transform="scale(0.015625)"/>
     </defs>
     <use transform="scale(0.996264)" xlink:href="#CMSS17-70"/>
     <use transform="translate(48.204943 0)scale(0.996264)" xlink:href="#CMSS17-61"/>
     <use transform="translate(93.126864 0)scale(0.996264)" xlink:href="#CMSS17-73"/>
     <use transform="translate(129.040406 0)scale(0.996264)" xlink:href="#CMSS17-73"/>
     <use transform="translate(164.953948 0)scale(0.996264)" xlink:href="#CMSS17-61"/>
     <use transform="translate(209.875868 0)scale(0.996264)" xlink:href="#CMSS17-6e"/>
     <use transform="translate(258.080811 0)scale(0.996264)" xlink:href="#CMSS17-74"/>
     <use transform="translate(291.912378 0)scale(0.996264)" xlink:href="#CMSS17-65"/>
    </g>
   </g>
   <g id="patch_6">
    <path d="M 204.331753 297.720161 
Q 225.563632 297.720161 246.795512 297.720161 
" style="fill:none;stroke:#000000;stroke-linecap:round;"/>
    <path d="M 213.131753 302.120161 
L 204.331753 297.720161 
L 213.131753 293.320161 
" style="fill:none;stroke:#000000;stroke-linecap:round;"/>
    <path d="M 237.995512 293.320161 
L 246.795512 297.720161 
L 237.995512 302.120161 
" style="fill:none;stroke:#000000;stroke-linecap:round;"/>
   </g>
   <g id="text_13">
    <!-- bande -->
    <g transform="translate(204.756661 321.765591)scale(0.18 -0.18)">
     <use transform="scale(0.996264)" xlink:href="#CMSS17-62"/>
     <use transform="translate(48.204943 0)scale(0.996264)" xlink:href="#CMSS17-61"/>
     <use transform="translate(93.126864 0)scale(0.996264)" xlink:href="#CMSS17-6e"/>
     <use transform="translate(141.331807 0)scale(0.996264)" xlink:href="#CMSS17-64"/>
     <use transform="translate(189.53675 0)scale(0.996264)" xlink:href="#CMSS17-65"/>
    </g>
    <!-- de transition -->
    <g transform="translate(181.54382 340.197615)scale(0.18 -0.18)">
     <defs>
      <path d="M 2829 1356 
C 2829 2176 2221 2816 1504 2816 
C 768 2816 173 2157 173 1356 
C 173 544 787 -64 1498 -64 
C 2227 -64 2829 563 2829 1356 
z
M 1504 337 
C 1050 337 659 709 659 1408 
C 659 2151 1114 2427 1498 2427 
C 1914 2427 2342 2126 2342 1408 
C 2342 683 1926 337 1504 337 
z
" id="CMSS17-6f" transform="scale(0.015625)"/>
     </defs>
     <use transform="scale(0.996264)" xlink:href="#CMSS17-64"/>
     <use transform="translate(48.204943 0)scale(0.996264)" xlink:href="#CMSS17-65"/>
     <use transform="translate(121.072878 0)scale(0.996264)" xlink:href="#CMSS17-74"/>
     <use transform="translate(154.904445 0)scale(0.996264)" xlink:href="#CMSS17-72"/>
     <use transform="translate(186.814217 0)scale(0.996264)" xlink:href="#CMSS17-61"/>
     <use transform="translate(231.736138 0)scale(0.996264)" xlink:href="#CMSS17-6e"/>
     <use transform="translate(279.941081 0)scale(0.996264)" xlink:href="#CMSS17-73"/>
     <use transform="translate(315.854623 0)scale(0.996264)" xlink:href="#CMSS17-69"/>
     <use transform="translate(338.035346 0)scale(0.996264)" xlink:href="#CMSS17-74"/>
     <use transform="translate(371.866913 0)scale(0.996264)" xlink:href="#CMSS17-69"/>
     <use transform="translate(394.047636 0)scale(0.996264)" xlink:href="#CMSS17-6f"/>
     <use transform="translate(440.891259 0)scale(0.996264)" xlink:href="#CMSS17-6e"/>
    </g>
   </g>
   <g id="patch_7">
    <path d="M 253.028758 297.720161 
Q 361.51037 297.720161 469.991981 297.720161 
" style="fill:none;stroke:#000000;stroke-linecap:round;"/>
    <path d="M 261.828758 302.120161 
L 253.028758 297.720161 
L 261.828758 293.320161 
" style="fill:none;stroke:#000000;stroke-linecap:round;"/>
    <path d="M 461.191981 293.320161 
L 469.991981 297.720161 
L 461.191981 302.120161 
" style="fill:none;stroke:#000000;stroke-linecap:round;"/>
   </g>
   <g id="text_14">
    <!-- bande -->
    <g transform="translate(340.705752 321.765591)scale(0.18 -0.18)">
     <use transform="scale(0.996264)" xlink:href="#CMSS17-62"/>
     <use transform="translate(48.204943 0)scale(0.996264)" xlink:href="#CMSS17-61"/>
     <use transform="translate(93.126864 0)scale(0.996264)" xlink:href="#CMSS17-6e"/>
     <use transform="translate(141.331807 0)scale(0.996264)" xlink:href="#CMSS17-64"/>
     <use transform="translate(189.53675 0)scale(0.996264)" xlink:href="#CMSS17-65"/>
    </g>
    <!-- atténuée -->
    <g transform="translate(331.459534 340.197615)scale(0.18 -0.18)">
     <defs>
      <path d="M 2618 2739 
L 2131 2739 
L 2131 972 
C 2131 498 1786 306 1421 306 
C 998 306 960 447 960 709 
L 960 2739 
L 474 2739 
L 474 678 
C 474 179 646 -64 1088 -64 
C 1306 -64 1798 -13 2144 306 
L 2144 0 
L 2618 0 
L 2618 2739 
z
" id="CMSS17-75" transform="scale(0.015625)"/>
     </defs>
     <use transform="scale(0.996264)" xlink:href="#CMSS17-61"/>
     <use transform="translate(44.921921 0)scale(0.996264)" xlink:href="#CMSS17-74"/>
     <use transform="translate(78.753487 0)scale(0.996264)" xlink:href="#CMSS17-74"/>
     <use transform="translate(109.982646 0)scale(0.996264)" xlink:href="#CMSS17-13"/>
     <use transform="translate(112.585054 0)scale(0.996264)" xlink:href="#CMSS17-65"/>
     <use transform="translate(154.223876 0)scale(0.996264)" xlink:href="#CMSS17-6e"/>
     <use transform="translate(202.428819 0)scale(0.996264)" xlink:href="#CMSS17-75"/>
     <use transform="translate(248.031354 0)scale(0.996264)" xlink:href="#CMSS17-13"/>
     <use transform="translate(250.633762 0)scale(0.996264)" xlink:href="#CMSS17-65"/>
     <use transform="translate(292.272584 0)scale(0.996264)" xlink:href="#CMSS17-65"/>
    </g>
   </g>
  </g>
 </g>
 <defs>
  <clipPath id="p6a2b8a752a">
   <rect height="326.16" width="446.4" x="67.29336" y="29.117808"/>
  </clipPath>
 </defs>
</svg>
