<?xml version="1.0" encoding="utf-8" standalone="no"?>
<!DOCTYPE svg PUBLIC "-//W3C//DTD SVG 1.1//EN"
  "http://www.w3.org/Graphics/SVG/1.1/DTD/svg11.dtd">
<svg height="288.460314pt" version="1.1" viewBox="0 0 600.263766 288.460314" width="600.263766pt" xmlns="http://www.w3.org/2000/svg" xmlns:xlink="http://www.w3.org/1999/xlink">
 <metadata>
  <rdf:RDF xmlns:cc="http://creativecommons.org/ns#" xmlns:dc="http://purl.org/dc/elements/1.1/" xmlns:rdf="http://www.w3.org/1999/02/22-rdf-syntax-ns#">
   <cc:Work>
    <dc:type rdf:resource="http://purl.org/dc/dcmitype/StillImage"/>
    <dc:date>2021-09-28T12:58:26.092378</dc:date>
    <dc:format>image/svg+xml</dc:format>
    <dc:creator>
     <cc:Agent>
      <dc:title>Matplotlib v3.4.3, https://matplotlib.org/</dc:title>
     </cc:Agent>
    </dc:creator>
   </cc:Work>
  </rdf:RDF>
 </metadata>
 <defs>
  <style type="text/css">*{stroke-linecap:butt;stroke-linejoin:round;}</style>
 </defs>
 <g id="figure_1">
  <g id="patch_1">
   <path d="M 0 288.460314 
L 600.263766 288.460314 
L 600.263766 0 
L 0 0 
z
" style="fill:none;"/>
  </g>
  <g id="axes_1">
   <g id="line2d_1">
    <path clip-path="url(#p051ebadd62)" d="M 136.085454 53.883884 
L 298.412727 53.883884 
L 298.412727 229.041997 
" style="fill:none;stroke:#1f77b4;stroke-linecap:square;stroke-width:1.5;"/>
   </g>
   <g id="line2d_2">
    <path clip-path="url(#p051ebadd62)" d="M 136.085454 46.63362 
L 318.703636 46.63362 
L 318.703636 176.314151 
L 541.903636 176.314151 
" style="fill:none;stroke:#2ca02c;stroke-linecap:square;stroke-width:1.5;"/>
   </g>
   <g id="line2d_3">
    <path clip-path="url(#p051ebadd62)" d="M 136.085454 61.89868 
L 270.005454 61.89868 
L 270.005454 229.041997 
" style="fill:none;stroke:#2ca02c;stroke-linecap:square;stroke-width:1.5;"/>
   </g>
   <g id="line2d_4">
    <path clip-path="url(#p051ebadd62)" d="M 136.085454 53.883884 
L 144.242603 52.38225 
L 148.321178 51.974825 
L 150.360465 51.934549 
L 152.399753 52.020302 
L 154.43904 52.23614 
L 156.478327 52.57808 
L 160.556902 53.581758 
L 168.714051 56.022211 
L 170.753339 56.485098 
L 172.792626 56.804791 
L 174.831914 56.94848 
L 176.871201 56.894322 
L 178.910488 56.634119 
L 180.949776 56.174821 
L 182.989063 55.538579 
L 187.067638 53.890256 
L 193.1855 51.276327 
L 195.224787 50.595765 
L 197.264074 50.09545 
L 199.303362 49.813877 
L 201.342649 49.778182 
L 203.381936 50.002541 
L 205.421224 50.486926 
L 207.460511 51.216203 
L 209.499798 52.159624 
L 213.578373 54.488982 
L 217.656948 56.941982 
L 219.696235 58.007337 
L 221.735522 58.852432 
L 223.77481 59.404071 
L 225.814097 59.607739 
L 227.853385 59.434337 
L 229.892672 58.884347 
L 231.931959 57.988508 
L 233.971247 56.804868 
L 238.049821 53.905596 
L 242.128396 50.938645 
L 244.167683 49.665337 
L 246.206971 48.6392 
L 248.246258 47.922462 
L 250.285545 47.560402 
L 252.324833 47.580122 
L 254.36412 47.989689 
L 256.403407 48.777429 
L 258.442695 49.911336 
L 260.481982 51.338744 
L 264.560557 54.76303 
L 268.639131 58.262018 
L 270.678419 59.750036 
L 272.717706 60.918594 
L 274.756993 61.687425 
L 276.796281 62.01649 
L 278.835568 61.918943 
L 280.874856 61.471281 
L 284.95343 60.193983 
L 286.992718 59.904127 
L 289.032005 60.366099 
L 291.071292 62.102883 
L 293.11058 65.724764 
L 295.149867 71.838865 
L 297.189154 80.858524 
L 299.228442 92.761517 
L 301.267729 106.970869 
L 305.346304 138.569976 
L 309.424878 170.886503 
L 311.464166 187.918109 
L 313.503453 206.613946 
L 315.54274 228.043497 
L 317.582028 253.504446 
L 319.870006 289.460314 
M 334.96019 289.460314 
L 335.935614 274.10684 
L 337.974901 249.103554 
L 340.014189 229.506349 
L 342.053476 214.195279 
L 344.092763 202.425 
L 346.132051 193.691493 
L 348.171338 187.650953 
L 350.210625 184.070742 
L 352.249913 182.79929 
L 354.2892 183.747231 
L 356.328487 186.875202 
L 358.367775 192.18512 
L 360.407062 199.711969 
L 362.446349 209.511938 
L 364.485637 221.639101 
L 366.524924 236.094596 
L 368.564211 252.715183 
L 372.652474 289.460314 
M 382.892071 289.460314 
L 386.917797 256.627621 
L 388.957085 241.975854 
L 390.996372 229.444978 
L 393.03566 219.118191 
L 395.074947 210.939801 
L 397.114234 204.806653 
L 399.153522 200.607301 
L 401.192809 198.23683 
L 403.232096 197.600265 
L 405.271384 198.610137 
L 407.310671 201.180253 
L 409.349958 205.215874 
L 411.389246 210.599482 
L 413.428533 217.170731 
L 415.46782 224.6994 
L 421.585682 248.996971 
L 423.62497 255.623776 
L 425.664257 260.289793 
L 427.703544 262.430878 
L 429.742832 261.858969 
L 431.782119 258.83036 
L 433.821406 253.940477 
L 435.860694 247.921408 
L 439.939268 235.1155 
L 441.978556 229.274533 
L 444.017843 224.196889 
L 446.057131 220.035159 
L 448.096418 216.86694 
L 450.135705 214.717215 
L 452.174993 213.573295 
L 454.21428 213.393701 
L 456.253567 214.112529 
L 458.292855 215.640638 
L 460.332142 217.864841 
L 462.371429 220.646229 
L 466.450004 227.191642 
L 468.489291 230.551886 
L 470.528579 233.678137 
L 472.567866 236.357113 
L 474.607153 238.406725 
L 476.646441 239.699573 
L 478.685728 240.180722 
L 480.725015 239.873897 
L 482.764303 238.873837 
L 484.80359 237.327356 
L 486.842877 235.40908 
L 492.960739 229.13716 
L 495.000027 227.339357 
L 497.039314 225.8475 
L 499.078602 224.712792 
L 501.117889 223.960114 
L 503.157176 223.591253 
L 505.196464 223.588064 
L 507.235751 223.91546 
L 509.275038 224.524286 
L 511.314326 225.354266 
L 515.3929 227.400608 
L 519.471475 229.481788 
L 521.510762 230.370654 
L 523.55005 231.090455 
L 525.589337 231.608737 
L 527.628624 231.91005 
L 529.667912 231.995937 
L 531.707199 231.883309 
L 533.746486 231.601511 
L 537.825061 230.687028 
L 541.903636 229.589313 
L 541.903636 229.589313 
" style="fill:none;stroke:#d62728;stroke-linecap:square;stroke-width:1.5;"/>
   </g>
   <g id="line2d_5">
    <path clip-path="url(#p051ebadd62)" d="M 136.085454 246.557808 
L 541.903636 246.557808 
" style="fill:none;stroke:#ffffff;stroke-linecap:square;stroke-width:35;"/>
   </g>
   <g id="patch_2">
    <path d="M 134.024008 53.883884 
Q 357.253946 53.883884 579.365849 53.883884 
" style="fill:none;stroke:#000000;stroke-linecap:round;"/>
    <path d="M 570.565849 49.483884 
L 579.365849 53.883884 
L 570.565849 58.283884 
" style="fill:none;stroke:#000000;stroke-linecap:round;"/>
   </g>
   <g id="patch_3">
    <path d="M 136.085454 227.043853 
Q 136.085454 129.081998 136.085454 32.238176 
" style="fill:none;stroke:#000000;stroke-linecap:round;"/>
    <path d="M 131.685454 41.038176 
L 136.085454 32.238176 
L 140.485454 41.038176 
" style="fill:none;stroke:#000000;stroke-linecap:round;"/>
   </g>
   <g id="text_1">
    <!-- $f_c-$ -->
    <g transform="translate(235.416398 42.830861)scale(0.22 -0.22)">
     <defs>
      <path d="M 2854 2566 
C 2982 2566 3034 2566 3034 2688 
C 3034 2752 2982 2752 2867 2752 
L 2349 2752 
C 2470 3429 2560 3897 2611 4107 
C 2650 4265 2784 4416 2950 4416 
C 3085 4416 3219 4358 3283 4298 
C 3034 4272 2957 4082 2957 3969 
C 2957 3837 3053 3759 3174 3759 
C 3302 3759 3494 3870 3494 4119 
C 3494 4393 3226 4544 2944 4544 
C 2669 4544 2400 4334 2272 4078 
C 2157 3848 2093 3611 1946 2752 
L 1517 2752 
C 1395 2752 1331 2752 1331 2637 
C 1331 2566 1370 2566 1498 2566 
L 1907 2566 
C 1792 1976 1530 542 1382 -137 
C 1274 -689 1178 -1152 858 -1152 
C 838 -1152 653 -1152 538 -1031 
C 864 -1005 864 -726 864 -720 
C 864 -593 768 -517 646 -517 
C 518 -517 326 -625 326 -867 
C 326 -1140 608 -1280 858 -1280 
C 1510 -1280 1779 -118 1850 199 
C 1965 688 2278 2376 2310 2566 
L 2854 2566 
z
" id="CMMI12-66" transform="scale(0.015625)"/>
      <path d="M 2502 2431 
C 2381 2431 2323 2431 2234 2355 
C 2195 2323 2125 2227 2125 2125 
C 2125 1997 2221 1920 2342 1920 
C 2496 1920 2669 2044 2669 2292 
C 2669 2588 2374 2816 1933 2816 
C 1094 2816 256 1903 256 996 
C 256 441 602 -64 1254 -64 
C 2125 -64 2675 622 2675 706 
C 2675 744 2637 776 2611 776 
C 2592 776 2586 770 2528 713 
C 2118 162 1510 64 1267 64 
C 826 64 685 446 685 764 
C 685 988 794 1605 1024 2039 
C 1190 2338 1536 2682 1939 2682 
C 2022 2682 2374 2682 2502 2431 
z
" id="CMMI12-63" transform="scale(0.015625)"/>
      <path d="M 4218 1472 
C 4326 1472 4442 1472 4442 1600 
C 4442 1728 4326 1728 4218 1728 
L 755 1728 
C 646 1728 531 1728 531 1600 
C 531 1472 646 1472 755 1472 
L 4218 1472 
z
" id="CMSY10-0" transform="scale(0.015625)"/>
     </defs>
     <use transform="scale(0.996264)" xlink:href="#CMMI12-66"/>
     <use transform="translate(48.083238 -14.943915)scale(0.697382)" xlink:href="#CMMI12-63"/>
     <use transform="translate(77.969501 0)scale(0.996264)" xlink:href="#CMSY10-0"/>
    </g>
   </g>
   <g id="text_2">
    <!-- $f_c$ -->
    <g transform="translate(289.890881 42.830861)scale(0.22 -0.22)">
     <use transform="scale(0.996264)" xlink:href="#CMMI12-66"/>
     <use transform="translate(48.083238 -14.943915)scale(0.697382)" xlink:href="#CMMI12-63"/>
    </g>
   </g>
   <g id="text_3">
    <!-- $f_c+$ -->
    <g transform="translate(318.703636 42.830861)scale(0.22 -0.22)">
     <defs>
      <path d="M 2413 1472 
L 4109 1472 
C 4198 1472 4307 1472 4307 1580 
C 4307 1695 4205 1695 4109 1695 
L 2413 1695 
L 2413 3386 
C 2413 3475 2413 3584 2304 3584 
C 2189 3584 2189 3482 2189 3386 
L 2189 1695 
L 493 1695 
C 403 1695 294 1695 294 1587 
C 294 1472 397 1472 493 1472 
L 2189 1472 
L 2189 -218 
C 2189 -307 2189 -416 2298 -416 
C 2413 -416 2413 -314 2413 -218 
L 2413 1472 
z
" id="CMR17-2b" transform="scale(0.015625)"/>
     </defs>
     <use transform="scale(0.996264)" xlink:href="#CMMI12-66"/>
     <use transform="translate(48.083238 -14.943915)scale(0.697382)" xlink:href="#CMMI12-63"/>
     <use transform="translate(77.969501 0)scale(0.996264)" xlink:href="#CMR17-2b"/>
    </g>
   </g>
   <g id="text_4">
    <!-- $0$ -->
    <g transform="translate(117.917185 59.362637)scale(0.22 -0.22)">
     <defs>
      <path d="M 2688 2025 
C 2688 2416 2682 3080 2413 3591 
C 2176 4039 1798 4198 1466 4198 
C 1158 4198 768 4058 525 3597 
C 269 3118 243 2524 243 2025 
C 243 1661 250 1106 448 619 
C 723 -39 1216 -128 1466 -128 
C 1760 -128 2208 -7 2470 600 
C 2662 1042 2688 1559 2688 2025 
z
M 1466 -26 
C 1056 -26 813 325 723 812 
C 653 1188 653 1738 653 2096 
C 653 2588 653 2997 736 3387 
C 858 3929 1216 4096 1466 4096 
C 1728 4096 2067 3923 2189 3400 
C 2272 3036 2278 2607 2278 2096 
C 2278 1680 2278 1169 2202 792 
C 2067 95 1690 -26 1466 -26 
z
" id="CMR17-30" transform="scale(0.015625)"/>
     </defs>
     <use transform="scale(0.996264)" xlink:href="#CMR17-30"/>
    </g>
   </g>
   <g id="text_5">
    <!-- $f$ -->
    <g transform="translate(582.485454 49.620696)scale(0.22 -0.22)">
     <use transform="scale(0.996264)" xlink:href="#CMMI12-66"/>
    </g>
   </g>
   <g id="text_6">
    <!-- $20\log_{10}|H(f)|$ -->
    <g transform="translate(7.2 23.638356)scale(0.22 -0.22)">
     <defs>
      <path d="M 2669 989 
L 2554 989 
C 2490 536 2438 459 2413 420 
C 2381 369 1920 369 1830 369 
L 602 369 
C 832 619 1280 1072 1824 1597 
C 2214 1967 2669 2402 2669 3035 
C 2669 3790 2067 4224 1395 4224 
C 691 4224 262 3604 262 3030 
C 262 2780 448 2748 525 2748 
C 589 2748 781 2787 781 3010 
C 781 3207 614 3264 525 3264 
C 486 3264 448 3258 422 3245 
C 544 3790 915 4058 1306 4058 
C 1862 4058 2227 3617 2227 3035 
C 2227 2479 1901 2000 1536 1584 
L 262 146 
L 262 0 
L 2515 0 
L 2669 989 
z
" id="CMR17-32" transform="scale(0.015625)"/>
      <path d="M 979 4396 
L 218 4326 
L 218 4160 
C 595 4160 653 4122 653 3817 
L 653 426 
C 653 184 627 153 218 153 
L 218 -13 
C 371 0 653 0 813 0 
C 979 0 1261 0 1414 -13 
L 1414 153 
C 1005 153 979 178 979 426 
L 979 4396 
z
" id="CMR17-6c" transform="scale(0.015625)"/>
      <path d="M 2758 1356 
C 2758 2176 2163 2816 1466 2816 
C 768 2816 173 2176 173 1356 
C 173 551 768 -64 1466 -64 
C 2163 -64 2758 551 2758 1356 
z
M 1466 51 
C 1165 51 909 230 762 480 
C 602 767 582 1126 582 1408 
C 582 1677 595 2010 762 2298 
C 890 2509 1139 2714 1466 2714 
C 1754 2714 1997 2554 2150 2330 
C 2349 2029 2349 1607 2349 1408 
C 2349 1158 2336 775 2163 467 
C 1984 173 1709 51 1466 51 
z
" id="CMR17-6f" transform="scale(0.015625)"/>
      <path d="M 710 1164 
C 832 1068 1043 960 1299 960 
C 1805 960 2240 1357 2240 1888 
C 2240 2054 2189 2310 1997 2509 
C 2176 2692 2438 2752 2586 2752 
C 2611 2752 2650 2752 2682 2734 
C 2656 2728 2598 2703 2598 2605 
C 2598 2527 2656 2471 2739 2471 
C 2835 2471 2886 2533 2886 2614 
C 2886 2731 2790 2854 2586 2854 
C 2330 2854 2106 2738 1926 2580 
C 1734 2753 1504 2816 1299 2816 
C 794 2816 358 2419 358 1888 
C 358 1522 570 1292 634 1228 
C 442 1004 442 743 442 711 
C 442 545 506 302 723 168 
C 390 85 128 -169 128 -486 
C 128 -943 736 -1280 1466 -1280 
C 2170 -1280 2803 -956 2803 -479 
C 2803 384 1856 384 1363 384 
C 1216 384 954 384 922 391 
C 723 423 589 602 589 826 
C 589 883 589 1024 710 1164 
z
M 1299 1068 
C 736 1068 736 1760 736 1889 
C 736 2016 736 2708 1299 2708 
C 1862 2708 1862 2016 1862 1889 
C 1862 1760 1862 1068 1299 1068 
z
M 1466 -1171 
C 826 -1171 384 -835 384 -486 
C 384 -289 493 -105 634 -4 
C 794 104 858 104 1293 104 
C 1818 104 2547 104 2547 -486 
C 2547 -835 2106 -1171 1466 -1171 
z
" id="CMR17-67" transform="scale(0.015625)"/>
      <path d="M 1702 4058 
C 1702 4192 1696 4192 1606 4192 
C 1357 3916 979 3827 621 3827 
C 602 3827 570 3827 563 3808 
C 557 3795 557 3782 557 3648 
C 755 3648 1088 3686 1344 3839 
L 1344 461 
C 1344 236 1331 160 781 160 
L 589 160 
L 589 0 
C 896 0 1216 0 1523 0 
C 1830 0 2150 0 2458 0 
L 2458 160 
L 2266 160 
C 1715 160 1702 230 1702 458 
L 1702 4058 
z
" id="CMR17-31" transform="scale(0.015625)"/>
      <path d="M 1018 4570 
C 1018 4685 1018 4800 890 4800 
C 762 4800 762 4685 762 4570 
L 762 -1370 
C 762 -1485 762 -1600 890 -1600 
C 1018 -1600 1018 -1485 1018 -1370 
L 1018 4570 
z
" id="CMSY10-6a" transform="scale(0.015625)"/>
      <path d="M 4787 3887 
C 4845 4103 4858 4167 5312 4167 
C 5427 4167 5491 4167 5491 4282 
C 5491 4352 5434 4352 5395 4352 
C 5280 4352 5146 4352 5024 4352 
L 4269 4352 
C 4147 4352 4013 4352 3891 4352 
C 3846 4352 3770 4352 3770 4231 
C 3770 4167 3814 4167 3936 4167 
C 4320 4167 4320 4116 4320 4046 
C 4320 4034 4320 3995 4294 3900 
L 3904 2361 
L 1971 2361 
L 2355 3887 
C 2413 4103 2426 4167 2880 4167 
C 2995 4167 3059 4167 3059 4282 
C 3059 4352 3002 4352 2963 4352 
C 2848 4352 2714 4352 2592 4352 
L 1837 4352 
C 1715 4352 1581 4352 1459 4352 
C 1414 4352 1338 4352 1338 4231 
C 1338 4167 1382 4167 1504 4167 
C 1888 4167 1888 4116 1888 4046 
C 1888 4034 1888 3995 1862 3899 
L 998 472 
C 941 249 928 185 486 185 
C 339 185 294 185 294 64 
C 294 0 365 0 384 0 
C 499 0 634 0 755 0 
L 1510 0 
C 1632 0 1766 0 1888 0 
C 1939 0 2010 0 2010 121 
C 2010 185 1952 185 1856 185 
C 1466 185 1466 236 1466 300 
C 1466 307 1466 351 1478 402 
L 1920 2176 
L 3859 2176 
C 3750 1753 3424 416 3411 376 
C 3341 185 3238 185 2861 185 
C 2784 185 2726 185 2726 64 
C 2726 0 2797 0 2816 0 
C 2931 0 3066 0 3187 0 
L 3942 0 
C 4064 0 4198 0 4320 0 
C 4371 0 4442 0 4442 121 
C 4442 185 4384 185 4288 185 
C 3898 185 3898 236 3898 300 
C 3898 307 3898 351 3910 402 
L 4787 3887 
z
" id="CMMI12-48" transform="scale(0.015625)"/>
      <path d="M 1958 -1561 
C 1958 -1555 1958 -1542 1939 -1523 
C 1645 -1224 858 -407 858 1581 
C 858 3569 1632 4379 1946 4697 
C 1946 4704 1958 4717 1958 4736 
C 1958 4755 1939 4768 1914 4768 
C 1843 4768 1299 4296 986 3594 
C 666 2887 576 2199 576 1588 
C 576 1128 621 351 1005 -471 
C 1312 -1135 1837 -1600 1914 -1600 
C 1946 -1600 1958 -1587 1958 -1561 
z
" id="CMR17-28" transform="scale(0.015625)"/>
      <path d="M 1683 1581 
C 1683 2040 1638 2817 1254 3639 
C 947 4303 422 4768 346 4768 
C 326 4768 301 4761 301 4729 
C 301 4717 307 4710 314 4697 
C 621 4378 1402 3568 1402 1584 
C 1402 -407 627 -1217 314 -1537 
C 307 -1549 301 -1556 301 -1568 
C 301 -1600 326 -1600 346 -1600 
C 416 -1600 960 -1128 1274 -426 
C 1594 281 1683 969 1683 1581 
z
" id="CMR17-29" transform="scale(0.015625)"/>
     </defs>
     <use transform="scale(0.996264)" xlink:href="#CMR17-32"/>
     <use transform="translate(45.690477 0)scale(0.996264)" xlink:href="#CMR17-30"/>
     <use transform="translate(107.985359 0)scale(0.996264)" xlink:href="#CMR17-6c"/>
     <use transform="translate(132.856418 0)scale(0.996264)" xlink:href="#CMR17-6f"/>
     <use transform="translate(178.546895 0)scale(0.996264)" xlink:href="#CMR17-67"/>
     <use transform="translate(225.538538 -22.865092)scale(0.697382)" xlink:href="#CMR17-31"/>
     <use transform="translate(257.52172 -22.865092)scale(0.697382)" xlink:href="#CMR17-30"/>
     <use transform="translate(306.60744 0)scale(0.996264)" xlink:href="#CMSY10-6a"/>
     <use transform="translate(334.281524 0)scale(0.996264)" xlink:href="#CMMI12-48"/>
     <use transform="translate(422.803297 0)scale(0.996264)" xlink:href="#CMR17-28"/>
     <use transform="translate(458.084065 0)scale(0.996264)" xlink:href="#CMMI12-66"/>
     <use transform="translate(516.804369 0)scale(0.996264)" xlink:href="#CMR17-29"/>
     <use transform="translate(552.085137 0)scale(0.996264)" xlink:href="#CMSY10-6a"/>
    </g>
   </g>
   <g id="patch_4">
    <path d="M 231.423747 202.76828 
Q 263.918554 202.76828 295.295327 202.76828 
" style="fill:none;stroke:#1f77b4;stroke-linecap:round;"/>
    <path d="M 286.495327 198.36828 
L 295.295327 202.76828 
L 286.495327 207.16828 
" style="fill:none;stroke:#1f77b4;stroke-linecap:round;"/>
   </g>
   <g id="text_7">
    <!-- filtre idéal -->
    <g style="fill:#1f77b4;" transform="translate(159.215815 207.250898)scale(0.18 -0.18)">
     <defs>
      <path d="M 2752 4416 
L 2240 4416 
L 2240 3906 
L 2752 3906 
L 2752 4416 
z
M 2733 2737 
L 2259 2737 
L 2259 0 
L 2733 0 
L 2733 2737 
z
M 1075 2368 
L 1773 2368 
L 1773 2737 
L 1062 2737 
L 1062 3578 
C 1062 3919 1216 4092 1421 4092 
C 1542 4092 1664 4056 1773 3992 
L 1773 4410 
C 1722 4428 1574 4480 1421 4480 
C 941 4480 602 3993 602 3372 
L 602 2737 
L 160 2737 
L 160 2368 
L 602 2368 
L 602 0 
L 1075 0 
L 1075 2368 
z
" id="CMSS17-c" transform="scale(0.015625)"/>
      <path d="M 947 4416 
L 474 4416 
L 474 0 
L 947 0 
L 947 4416 
z
" id="CMSS17-6c" transform="scale(0.015625)"/>
      <path d="M 1069 2368 
L 1901 2368 
L 1901 2737 
L 1069 2737 
L 1069 3520 
L 614 3520 
L 614 2737 
L 109 2737 
L 109 2368 
L 602 2368 
L 602 749 
C 602 384 685 -64 1107 -64 
C 1427 -64 1722 25 2003 172 
L 1901 548 
C 1747 414 1562 337 1363 337 
C 1082 337 1069 696 1069 856 
L 1069 2368 
z
" id="CMSS17-74" transform="scale(0.015625)"/>
      <path d="M 954 1363 
C 954 1965 1395 2368 1958 2368 
L 1958 2789 
C 1549 2789 1165 2585 934 2253 
L 934 2758 
L 480 2758 
L 480 0 
L 954 0 
L 954 1363 
z
" id="CMSS17-72" transform="scale(0.015625)"/>
      <path d="M 2502 1377 
C 2502 1590 2490 2003 2285 2345 
C 2061 2713 1696 2816 1421 2816 
C 755 2816 192 2188 192 1375 
C 192 582 774 -64 1510 -64 
C 1798 -64 2150 19 2470 248 
C 2470 274 2458 414 2451 420 
C 2451 433 2432 630 2432 656 
C 2125 407 1773 325 1517 325 
C 1107 325 666 667 646 1377 
L 2502 1377 
z
M 698 1728 
C 781 2084 1062 2421 1421 2421 
C 1517 2421 1965 2421 2080 1728 
L 698 1728 
z
" id="CMSS17-65" transform="scale(0.015625)"/>
      <path d="M 979 4183 
L 442 4183 
L 442 3648 
L 979 3648 
L 979 4183 
z
M 947 2739 
L 474 2739 
L 474 0 
L 947 0 
L 947 2739 
z
" id="CMSS17-69" transform="scale(0.015625)"/>
      <path d="M 2611 4416 
L 2138 4416 
L 2138 2438 
C 1939 2603 1613 2756 1254 2756 
C 672 2756 211 2131 211 1347 
C 211 562 666 -64 1235 -64 
C 1677 -64 1971 172 2125 306 
L 2125 -13 
L 2611 -13 
L 2611 4416 
z
M 2125 836 
C 2125 747 2125 653 1926 482 
C 1798 375 1645 325 1498 325 
C 1152 325 698 576 698 1340 
C 698 2134 1210 2368 1562 2368 
C 1798 2368 1990 2254 2125 2065 
L 2125 836 
z
" id="CMSS17-64" transform="scale(0.015625)"/>
      <path d="M 2502 4448 
L 2016 4448 
L 1222 3328 
L 1613 3328 
L 2502 4448 
z
" id="CMSS17-13" transform="scale(0.015625)"/>
      <path d="M 2406 1791 
C 2406 2392 1978 2808 1402 2808 
C 1120 2808 813 2757 461 2553 
L 499 2135 
C 659 2248 934 2432 1395 2432 
C 1722 2432 1920 2180 1920 1782 
L 1920 1536 
C 896 1536 256 1238 256 726 
C 256 461 416 -64 947 -64 
C 1043 -64 1562 -64 1933 217 
L 1933 -19 
L 2406 -19 
L 2406 1791 
z
M 1920 816 
C 1920 701 1920 548 1728 434 
C 1562 325 1350 325 1261 325 
C 941 325 723 511 723 744 
C 723 1211 1722 1211 1920 1211 
L 1920 816 
z
" id="CMSS17-61" transform="scale(0.015625)"/>
     </defs>
     <use transform="scale(0.996264)" xlink:href="#CMSS17-c"/>
     <use transform="translate(50.126737 0)scale(0.996264)" xlink:href="#CMSS17-6c"/>
     <use transform="translate(72.30746 0)scale(0.996264)" xlink:href="#CMSS17-74"/>
     <use transform="translate(106.139027 0)scale(0.996264)" xlink:href="#CMSS17-72"/>
     <use transform="translate(138.0488 0)scale(0.996264)" xlink:href="#CMSS17-65"/>
     <use transform="translate(210.916734 0)scale(0.996264)" xlink:href="#CMSS17-69"/>
     <use transform="translate(233.097457 0)scale(0.996264)" xlink:href="#CMSS17-64"/>
     <use transform="translate(278.699992 0)scale(0.996264)" xlink:href="#CMSS17-13"/>
     <use transform="translate(281.302401 0)scale(0.996264)" xlink:href="#CMSS17-65"/>
     <use transform="translate(322.941223 0)scale(0.996264)" xlink:href="#CMSS17-61"/>
     <use transform="translate(367.863143 0)scale(0.996264)" xlink:href="#CMSS17-6c"/>
    </g>
   </g>
   <g id="text_8">
    <!-- filtre réalisable -->
    <g style="fill:#d62728;" transform="translate(481.030909 207.250898)scale(0.18 -0.18)">
     <defs>
      <path d="M 2061 2627 
C 1683 2807 1389 2807 1197 2807 
C 742 2807 198 2648 198 2003 
C 198 1359 902 1218 1094 1179 
C 1389 1122 1715 1058 1715 740 
C 1715 337 1254 337 1171 337 
C 915 337 563 407 243 638 
L 166 210 
C 531 0 883 -64 1178 -64 
C 1965 -64 2163 416 2163 781 
C 2163 1094 1984 1305 1862 1401 
C 1651 1568 1574 1587 1050 1696 
C 960 1709 646 1779 646 2066 
C 646 2432 1050 2432 1139 2432 
C 1555 2432 1811 2303 1984 2208 
L 2061 2627 
z
" id="CMSS17-73" transform="scale(0.015625)"/>
      <path d="M 954 4416 
L 480 4416 
L 480 -13 
L 966 -13 
L 966 274 
C 1210 38 1504 -64 1766 -64 
C 2381 -64 2880 549 2880 1352 
C 2880 2086 2496 2756 1926 2756 
C 1523 2756 1165 2591 954 2419 
L 954 4416 
z
M 966 2046 
C 1107 2222 1306 2368 1587 2368 
C 1965 2368 2394 2097 2394 1352 
C 2394 558 1882 325 1530 325 
C 1402 325 1267 356 1139 464 
C 966 615 966 709 966 797 
L 966 2046 
z
" id="CMSS17-62" transform="scale(0.015625)"/>
     </defs>
     <use transform="scale(0.996264)" xlink:href="#CMSS17-c"/>
     <use transform="translate(50.126737 0)scale(0.996264)" xlink:href="#CMSS17-6c"/>
     <use transform="translate(72.30746 0)scale(0.996264)" xlink:href="#CMSS17-74"/>
     <use transform="translate(106.139027 0)scale(0.996264)" xlink:href="#CMSS17-72"/>
     <use transform="translate(138.0488 0)scale(0.996264)" xlink:href="#CMSS17-65"/>
     <use transform="translate(210.916734 0)scale(0.996264)" xlink:href="#CMSS17-72"/>
     <use transform="translate(240.224099 0)scale(0.996264)" xlink:href="#CMSS17-13"/>
     <use transform="translate(242.826507 0)scale(0.996264)" xlink:href="#CMSS17-65"/>
     <use transform="translate(284.465329 0)scale(0.996264)" xlink:href="#CMSS17-61"/>
     <use transform="translate(329.38725 0)scale(0.996264)" xlink:href="#CMSS17-6c"/>
     <use transform="translate(351.567973 0)scale(0.996264)" xlink:href="#CMSS17-69"/>
     <use transform="translate(373.748696 0)scale(0.996264)" xlink:href="#CMSS17-73"/>
     <use transform="translate(409.662238 0)scale(0.996264)" xlink:href="#CMSS17-61"/>
     <use transform="translate(454.584158 0)scale(0.996264)" xlink:href="#CMSS17-62"/>
     <use transform="translate(502.789101 0)scale(0.996264)" xlink:href="#CMSS17-6c"/>
     <use transform="translate(524.969824 0)scale(0.996264)" xlink:href="#CMSS17-65"/>
    </g>
   </g>
   <g id="patch_5">
    <path d="M 139.201989 237.799903 
Q 203.044262 237.799903 266.886535 237.799903 
" style="fill:none;stroke:#000000;stroke-linecap:round;"/>
    <path d="M 148.001989 242.199903 
L 139.201989 237.799903 
L 148.001989 233.399903 
" style="fill:none;stroke:#000000;stroke-linecap:round;"/>
    <path d="M 258.086535 233.399903 
L 266.886535 237.799903 
L 258.086535 242.199903 
" style="fill:none;stroke:#000000;stroke-linecap:round;"/>
   </g>
   <g id="text_9">
    <!-- bande -->
    <g transform="translate(182.239664 259.340225)scale(0.18 -0.18)">
     <defs>
      <path d="M 2618 1877 
C 2618 2283 2522 2816 1798 2816 
C 1389 2816 1120 2606 941 2389 
L 941 2758 
L 474 2758 
L 474 0 
L 960 0 
L 960 1559 
C 960 1964 1114 2428 1549 2428 
C 2112 2428 2131 2048 2131 1829 
L 2131 0 
L 2618 0 
L 2618 1877 
z
" id="CMSS17-6e" transform="scale(0.015625)"/>
     </defs>
     <use transform="scale(0.996264)" xlink:href="#CMSS17-62"/>
     <use transform="translate(48.204943 0)scale(0.996264)" xlink:href="#CMSS17-61"/>
     <use transform="translate(93.126864 0)scale(0.996264)" xlink:href="#CMSS17-6e"/>
     <use transform="translate(141.331807 0)scale(0.996264)" xlink:href="#CMSS17-64"/>
     <use transform="translate(189.53675 0)scale(0.996264)" xlink:href="#CMSS17-65"/>
    </g>
    <!-- passante -->
    <g transform="translate(173.025863 277.77225)scale(0.18 -0.18)">
     <defs>
      <path d="M 966 333 
C 1178 129 1466 -5 1773 -5 
C 2368 -5 2880 603 2880 1412 
C 2880 2159 2496 2816 1946 2816 
C 1626 2816 1242 2702 954 2472 
L 954 2765 
L 480 2765 
L 480 -1216 
L 966 -1216 
L 966 333 
z
M 966 2100 
C 1018 2176 1235 2415 1587 2415 
C 2035 2415 2394 1960 2394 1412 
C 2394 787 1958 384 1530 384 
C 1402 384 1267 415 1139 523 
C 966 674 966 768 966 857 
L 966 2100 
z
" id="CMSS17-70" transform="scale(0.015625)"/>
     </defs>
     <use transform="scale(0.996264)" xlink:href="#CMSS17-70"/>
     <use transform="translate(48.204943 0)scale(0.996264)" xlink:href="#CMSS17-61"/>
     <use transform="translate(93.126864 0)scale(0.996264)" xlink:href="#CMSS17-73"/>
     <use transform="translate(129.040406 0)scale(0.996264)" xlink:href="#CMSS17-73"/>
     <use transform="translate(164.953948 0)scale(0.996264)" xlink:href="#CMSS17-61"/>
     <use transform="translate(209.875868 0)scale(0.996264)" xlink:href="#CMSS17-6e"/>
     <use transform="translate(258.080811 0)scale(0.996264)" xlink:href="#CMSS17-74"/>
     <use transform="translate(291.912378 0)scale(0.996264)" xlink:href="#CMSS17-65"/>
    </g>
   </g>
   <g id="patch_6">
    <path d="M 273.123847 237.799903 
Q 294.355726 237.799903 315.587605 237.799903 
" style="fill:none;stroke:#000000;stroke-linecap:round;"/>
    <path d="M 281.923847 242.199903 
L 273.123847 237.799903 
L 281.923847 233.399903 
" style="fill:none;stroke:#000000;stroke-linecap:round;"/>
    <path d="M 306.787605 233.399903 
L 315.587605 237.799903 
L 306.787605 242.199903 
" style="fill:none;stroke:#000000;stroke-linecap:round;"/>
   </g>
   <g id="text_10">
    <!-- bande -->
    <g transform="translate(273.548755 259.340225)scale(0.18 -0.18)">
     <use transform="scale(0.996264)" xlink:href="#CMSS17-62"/>
     <use transform="translate(48.204943 0)scale(0.996264)" xlink:href="#CMSS17-61"/>
     <use transform="translate(93.126864 0)scale(0.996264)" xlink:href="#CMSS17-6e"/>
     <use transform="translate(141.331807 0)scale(0.996264)" xlink:href="#CMSS17-64"/>
     <use transform="translate(189.53675 0)scale(0.996264)" xlink:href="#CMSS17-65"/>
    </g>
    <!-- de transition -->
    <g transform="translate(250.335914 277.77225)scale(0.18 -0.18)">
     <defs>
      <path d="M 2829 1356 
C 2829 2176 2221 2816 1504 2816 
C 768 2816 173 2157 173 1356 
C 173 544 787 -64 1498 -64 
C 2227 -64 2829 563 2829 1356 
z
M 1504 337 
C 1050 337 659 709 659 1408 
C 659 2151 1114 2427 1498 2427 
C 1914 2427 2342 2126 2342 1408 
C 2342 683 1926 337 1504 337 
z
" id="CMSS17-6f" transform="scale(0.015625)"/>
     </defs>
     <use transform="scale(0.996264)" xlink:href="#CMSS17-64"/>
     <use transform="translate(48.204943 0)scale(0.996264)" xlink:href="#CMSS17-65"/>
     <use transform="translate(121.072878 0)scale(0.996264)" xlink:href="#CMSS17-74"/>
     <use transform="translate(154.904445 0)scale(0.996264)" xlink:href="#CMSS17-72"/>
     <use transform="translate(186.814217 0)scale(0.996264)" xlink:href="#CMSS17-61"/>
     <use transform="translate(231.736138 0)scale(0.996264)" xlink:href="#CMSS17-6e"/>
     <use transform="translate(279.941081 0)scale(0.996264)" xlink:href="#CMSS17-73"/>
     <use transform="translate(315.854623 0)scale(0.996264)" xlink:href="#CMSS17-69"/>
     <use transform="translate(338.035346 0)scale(0.996264)" xlink:href="#CMSS17-74"/>
     <use transform="translate(371.866913 0)scale(0.996264)" xlink:href="#CMSS17-69"/>
     <use transform="translate(394.047636 0)scale(0.996264)" xlink:href="#CMSS17-6f"/>
     <use transform="translate(440.891259 0)scale(0.996264)" xlink:href="#CMSS17-6e"/>
    </g>
   </g>
   <g id="patch_7">
    <path d="M 321.820852 237.799903 
Q 430.302463 237.799903 538.784075 237.799903 
" style="fill:none;stroke:#000000;stroke-linecap:round;"/>
    <path d="M 330.620852 242.199903 
L 321.820852 237.799903 
L 330.620852 233.399903 
" style="fill:none;stroke:#000000;stroke-linecap:round;"/>
    <path d="M 529.984075 233.399903 
L 538.784075 237.799903 
L 529.984075 242.199903 
" style="fill:none;stroke:#000000;stroke-linecap:round;"/>
   </g>
   <g id="text_11">
    <!-- bande -->
    <g transform="translate(409.497846 259.340225)scale(0.18 -0.18)">
     <use transform="scale(0.996264)" xlink:href="#CMSS17-62"/>
     <use transform="translate(48.204943 0)scale(0.996264)" xlink:href="#CMSS17-61"/>
     <use transform="translate(93.126864 0)scale(0.996264)" xlink:href="#CMSS17-6e"/>
     <use transform="translate(141.331807 0)scale(0.996264)" xlink:href="#CMSS17-64"/>
     <use transform="translate(189.53675 0)scale(0.996264)" xlink:href="#CMSS17-65"/>
    </g>
    <!-- atténuée -->
    <g transform="translate(400.251627 277.77225)scale(0.18 -0.18)">
     <defs>
      <path d="M 2618 2739 
L 2131 2739 
L 2131 972 
C 2131 498 1786 306 1421 306 
C 998 306 960 447 960 709 
L 960 2739 
L 474 2739 
L 474 678 
C 474 179 646 -64 1088 -64 
C 1306 -64 1798 -13 2144 306 
L 2144 0 
L 2618 0 
L 2618 2739 
z
" id="CMSS17-75" transform="scale(0.015625)"/>
     </defs>
     <use transform="scale(0.996264)" xlink:href="#CMSS17-61"/>
     <use transform="translate(44.921921 0)scale(0.996264)" xlink:href="#CMSS17-74"/>
     <use transform="translate(78.753487 0)scale(0.996264)" xlink:href="#CMSS17-74"/>
     <use transform="translate(109.982646 0)scale(0.996264)" xlink:href="#CMSS17-13"/>
     <use transform="translate(112.585054 0)scale(0.996264)" xlink:href="#CMSS17-65"/>
     <use transform="translate(154.223876 0)scale(0.996264)" xlink:href="#CMSS17-6e"/>
     <use transform="translate(202.428819 0)scale(0.996264)" xlink:href="#CMSS17-75"/>
     <use transform="translate(248.031354 0)scale(0.996264)" xlink:href="#CMSS17-13"/>
     <use transform="translate(250.633762 0)scale(0.996264)" xlink:href="#CMSS17-65"/>
     <use transform="translate(292.272584 0)scale(0.996264)" xlink:href="#CMSS17-65"/>
    </g>
   </g>
   <g id="patch_8">
    <path d="M 351.16909 64.911907 
Q 351.16909 54.265214 351.16909 43.618521 
" style="fill:none;stroke:#ff7f0e;stroke-linecap:round;"/>
    <path d="M 355.56909 56.111907 
L 351.16909 64.911907 
L 346.76909 56.111907 
" style="fill:none;stroke:#ff7f0e;stroke-linecap:round;"/>
    <path d="M 346.76909 52.418521 
L 351.16909 43.618521 
L 355.56909 52.418521 
" style="fill:none;stroke:#ff7f0e;stroke-linecap:round;"/>
   </g>
   <g id="text_12">
    <!-- ondulation en bande passante -->
    <g style="fill:#ff7f0e;" transform="translate(359.285454 49.608596)scale(0.18 -0.18)">
     <use transform="scale(0.996264)" xlink:href="#CMSS17-6f"/>
     <use transform="translate(46.843624 0)scale(0.996264)" xlink:href="#CMSS17-6e"/>
     <use transform="translate(95.048567 0)scale(0.996264)" xlink:href="#CMSS17-64"/>
     <use transform="translate(143.25351 0)scale(0.996264)" xlink:href="#CMSS17-75"/>
     <use transform="translate(191.458453 0)scale(0.996264)" xlink:href="#CMSS17-6c"/>
     <use transform="translate(213.639176 0)scale(0.996264)" xlink:href="#CMSS17-61"/>
     <use transform="translate(258.561097 0)scale(0.996264)" xlink:href="#CMSS17-74"/>
     <use transform="translate(292.392663 0)scale(0.996264)" xlink:href="#CMSS17-69"/>
     <use transform="translate(314.573386 0)scale(0.996264)" xlink:href="#CMSS17-6f"/>
     <use transform="translate(361.41701 0)scale(0.996264)" xlink:href="#CMSS17-6e"/>
     <use transform="translate(440.851066 0)scale(0.996264)" xlink:href="#CMSS17-65"/>
     <use transform="translate(482.489888 0)scale(0.996264)" xlink:href="#CMSS17-6e"/>
     <use transform="translate(561.923944 0)scale(0.996264)" xlink:href="#CMSS17-62"/>
     <use transform="translate(610.128887 0)scale(0.996264)" xlink:href="#CMSS17-61"/>
     <use transform="translate(655.050807 0)scale(0.996264)" xlink:href="#CMSS17-6e"/>
     <use transform="translate(703.255751 0)scale(0.996264)" xlink:href="#CMSS17-64"/>
     <use transform="translate(751.460694 0)scale(0.996264)" xlink:href="#CMSS17-65"/>
     <use transform="translate(824.328628 0)scale(0.996264)" xlink:href="#CMSS17-70"/>
     <use transform="translate(872.533572 0)scale(0.996264)" xlink:href="#CMSS17-61"/>
     <use transform="translate(917.455492 0)scale(0.996264)" xlink:href="#CMSS17-73"/>
     <use transform="translate(953.369034 0)scale(0.996264)" xlink:href="#CMSS17-73"/>
     <use transform="translate(989.282576 0)scale(0.996264)" xlink:href="#CMSS17-61"/>
     <use transform="translate(1034.204497 0)scale(0.996264)" xlink:href="#CMSS17-6e"/>
     <use transform="translate(1082.40944 0)scale(0.996264)" xlink:href="#CMSS17-74"/>
     <use transform="translate(1116.241007 0)scale(0.996264)" xlink:href="#CMSS17-65"/>
    </g>
   </g>
   <g id="patch_9">
    <path d="M 481.030909 57.000825 
Q 481.030909 115.096959 481.030909 173.193093 
" style="fill:none;stroke:#ff7f0e;stroke-linecap:round;"/>
    <path d="M 476.630909 65.800825 
L 481.030909 57.000825 
L 485.430909 65.800825 
" style="fill:none;stroke:#ff7f0e;stroke-linecap:round;"/>
    <path d="M 485.430909 164.393093 
L 481.030909 173.193093 
L 476.630909 164.393093 
" style="fill:none;stroke:#ff7f0e;stroke-linecap:round;"/>
   </g>
   <g id="text_13">
    <!-- atténuation -->
    <g style="fill:#ff7f0e;" transform="translate(396.581795 119.581636)scale(0.18 -0.18)">
     <use transform="scale(0.996264)" xlink:href="#CMSS17-61"/>
     <use transform="translate(44.921921 0)scale(0.996264)" xlink:href="#CMSS17-74"/>
     <use transform="translate(78.753487 0)scale(0.996264)" xlink:href="#CMSS17-74"/>
     <use transform="translate(109.982646 0)scale(0.996264)" xlink:href="#CMSS17-13"/>
     <use transform="translate(112.585054 0)scale(0.996264)" xlink:href="#CMSS17-65"/>
     <use transform="translate(154.223876 0)scale(0.996264)" xlink:href="#CMSS17-6e"/>
     <use transform="translate(202.428819 0)scale(0.996264)" xlink:href="#CMSS17-75"/>
     <use transform="translate(250.633762 0)scale(0.996264)" xlink:href="#CMSS17-61"/>
     <use transform="translate(295.555683 0)scale(0.996264)" xlink:href="#CMSS17-74"/>
     <use transform="translate(329.38725 0)scale(0.996264)" xlink:href="#CMSS17-69"/>
     <use transform="translate(351.567973 0)scale(0.996264)" xlink:href="#CMSS17-6f"/>
     <use transform="translate(398.411596 0)scale(0.996264)" xlink:href="#CMSS17-6e"/>
    </g>
   </g>
  </g>
 </g>
 <defs>
  <clipPath id="p051ebadd62">
   <rect height="217.44" width="446.4" x="136.085454" y="29.117808"/>
  </clipPath>
 </defs>
</svg>
