<?xml version="1.0" encoding="utf-8" standalone="no"?>
<!DOCTYPE svg PUBLIC "-//W3C//DTD SVG 1.1//EN"
  "http://www.w3.org/Graphics/SVG/1.1/DTD/svg11.dtd">
<svg height="375.256364pt" version="1.1" viewBox="0 0 714.930965 375.256364" width="714.930965pt" xmlns="http://www.w3.org/2000/svg" xmlns:xlink="http://www.w3.org/1999/xlink">
 <metadata>
  <rdf:RDF xmlns:cc="http://creativecommons.org/ns#" xmlns:dc="http://purl.org/dc/elements/1.1/" xmlns:rdf="http://www.w3.org/1999/02/22-rdf-syntax-ns#">
   <cc:Work>
    <dc:type rdf:resource="http://purl.org/dc/dcmitype/StillImage"/>
    <dc:date>2022-10-27T17:58:08.164281</dc:date>
    <dc:format>image/svg+xml</dc:format>
    <dc:creator>
     <cc:Agent>
      <dc:title>Matplotlib v3.4.3, https://matplotlib.org/</dc:title>
     </cc:Agent>
    </dc:creator>
   </cc:Work>
  </rdf:RDF>
 </metadata>
 <defs>
  <style type="text/css">*{stroke-linecap:butt;stroke-linejoin:round;}</style>
 </defs>
 <g id="figure_1">
  <g id="patch_1">
   <path d="M 0 375.256364 
L 714.930965 375.256364 
L 714.930965 0 
L 0 0 
z
" style="fill:none;"/>
  </g>
  <g id="axes_1">
   <g id="patch_2">
    <path d="M 29.35148 166.078284 
L 333.715116 166.078284 
L 333.715116 24.269588 
L 29.35148 24.269588 
z
" style="fill:#ffffff;"/>
   </g>
   <g id="matplotlib.axis_1">
    <g id="xtick_1">
     <g id="line2d_1">
      <path clip-path="url(#p333cef0e82)" d="M 29.35148 166.078284 
L 29.35148 24.269588 
" style="fill:none;stroke:#b0b0b0;stroke-linecap:square;stroke-width:0.8;"/>
     </g>
     <g id="line2d_2">
      <defs>
       <path d="M 0 0 
L 0 3.5 
" id="mbcc807c71e" style="stroke:#000000;stroke-width:0.8;"/>
      </defs>
      <g>
       <use style="stroke:#000000;stroke-width:0.8;" x="29.35148" xlink:href="#mbcc807c71e" y="166.078284"/>
      </g>
     </g>
     <g id="text_1">
      <!-- $\mathdefault{0}$ -->
      <g transform="translate(26.424985 181.380464)scale(0.12 -0.12)">
       <defs>
        <path d="M 2688 2038 
C 2688 2430 2682 3099 2413 3613 
C 2176 4063 1798 4224 1466 4224 
C 1158 4224 768 4082 525 3620 
C 269 3137 243 2539 243 2038 
C 243 1671 250 1112 448 623 
C 723 -39 1216 -128 1466 -128 
C 1760 -128 2208 -7 2470 604 
C 2662 1048 2688 1568 2688 2038 
z
M 1466 -26 
C 1056 -26 813 328 723 816 
C 653 1196 653 1749 653 2109 
C 653 2604 653 3015 736 3407 
C 858 3954 1216 4121 1466 4121 
C 1728 4121 2067 3947 2189 3420 
C 2272 3054 2278 2623 2278 2109 
C 2278 1691 2278 1176 2202 797 
C 2067 96 1690 -26 1466 -26 
z
" id="CMR17-30" transform="scale(0.015625)"/>
       </defs>
       <use transform="scale(0.996264)" xlink:href="#CMR17-30"/>
      </g>
     </g>
    </g>
    <g id="xtick_2">
     <g id="line2d_3">
      <path clip-path="url(#p333cef0e82)" d="M 67.396934 166.078284 
L 67.396934 24.269588 
" style="fill:none;stroke:#b0b0b0;stroke-linecap:square;stroke-width:0.8;"/>
     </g>
     <g id="line2d_4">
      <g>
       <use style="stroke:#000000;stroke-width:0.8;" x="67.396934" xlink:href="#mbcc807c71e" y="166.078284"/>
      </g>
     </g>
     <g id="text_2">
      <!-- $\mathdefault{25}$ -->
      <g transform="translate(61.543944 181.380464)scale(0.12 -0.12)">
       <defs>
        <path d="M 2669 990 
L 2554 990 
C 2490 537 2438 460 2413 422 
C 2381 371 1920 371 1830 371 
L 602 371 
C 832 620 1280 1073 1824 1596 
C 2214 1966 2669 2400 2669 3033 
C 2669 3788 2067 4224 1395 4224 
C 691 4224 262 3603 262 3027 
C 262 2777 448 2745 525 2745 
C 589 2745 781 2783 781 3007 
C 781 3206 614 3264 525 3264 
C 486 3264 448 3257 422 3244 
C 544 3788 915 4057 1306 4057 
C 1862 4057 2227 3616 2227 3033 
C 2227 2477 1901 1998 1536 1583 
L 262 147 
L 262 0 
L 2515 0 
L 2669 990 
z
" id="CMR17-32" transform="scale(0.015625)"/>
        <path d="M 730 3750 
C 794 3724 1056 3641 1325 3641 
C 1920 3641 2246 3961 2432 4140 
C 2432 4191 2432 4224 2394 4224 
C 2387 4224 2374 4224 2323 4198 
C 2099 4102 1837 4032 1517 4032 
C 1325 4032 1037 4055 723 4191 
C 653 4224 640 4224 634 4224 
C 602 4224 595 4217 595 4090 
L 595 2231 
C 595 2113 595 2080 659 2080 
C 691 2080 704 2093 736 2139 
C 941 2435 1222 2560 1542 2560 
C 1766 2560 2246 2415 2246 1293 
C 2246 1087 2246 716 2054 422 
C 1894 159 1645 25 1370 25 
C 947 25 518 319 403 812 
C 429 806 480 793 506 793 
C 589 793 749 838 749 1036 
C 749 1209 627 1280 506 1280 
C 358 1280 262 1190 262 1011 
C 262 454 704 -128 1382 -128 
C 2042 -128 2669 441 2669 1267 
C 2669 2054 2170 2662 1549 2662 
C 1222 2662 947 2540 730 2304 
L 730 3750 
z
" id="CMR17-35" transform="scale(0.015625)"/>
       </defs>
       <use transform="scale(0.996264)" xlink:href="#CMR17-32"/>
       <use transform="translate(45.690477 0)scale(0.996264)" xlink:href="#CMR17-35"/>
      </g>
     </g>
    </g>
    <g id="xtick_3">
     <g id="line2d_5">
      <path clip-path="url(#p333cef0e82)" d="M 105.442389 166.078284 
L 105.442389 24.269588 
" style="fill:none;stroke:#b0b0b0;stroke-linecap:square;stroke-width:0.8;"/>
     </g>
     <g id="line2d_6">
      <g>
       <use style="stroke:#000000;stroke-width:0.8;" x="105.442389" xlink:href="#mbcc807c71e" y="166.078284"/>
      </g>
     </g>
     <g id="text_3">
      <!-- $\mathdefault{50}$ -->
      <g transform="translate(99.589399 181.380464)scale(0.12 -0.12)">
       <use transform="scale(0.996264)" xlink:href="#CMR17-35"/>
       <use transform="translate(45.690477 0)scale(0.996264)" xlink:href="#CMR17-30"/>
      </g>
     </g>
    </g>
    <g id="xtick_4">
     <g id="line2d_7">
      <path clip-path="url(#p333cef0e82)" d="M 143.487843 166.078284 
L 143.487843 24.269588 
" style="fill:none;stroke:#b0b0b0;stroke-linecap:square;stroke-width:0.8;"/>
     </g>
     <g id="line2d_8">
      <g>
       <use style="stroke:#000000;stroke-width:0.8;" x="143.487843" xlink:href="#mbcc807c71e" y="166.078284"/>
      </g>
     </g>
     <g id="text_4">
      <!-- $\mathdefault{75}$ -->
      <g transform="translate(137.634853 181.380464)scale(0.12 -0.12)">
       <defs>
        <path d="M 2886 3955 
L 2886 4096 
L 1382 4096 
C 634 4096 621 4166 595 4288 
L 480 4288 
L 294 3104 
L 410 3104 
C 429 3226 474 3552 550 3673 
C 589 3724 1062 3724 1171 3724 
L 2579 3724 
L 1869 2670 
C 1395 1961 1069 1003 1069 166 
C 1069 89 1069 -128 1299 -128 
C 1530 -128 1530 89 1530 172 
L 1530 466 
C 1530 1514 1709 2204 2003 2644 
L 2886 3955 
z
" id="CMR17-37" transform="scale(0.015625)"/>
       </defs>
       <use transform="scale(0.996264)" xlink:href="#CMR17-37"/>
       <use transform="translate(45.690477 0)scale(0.996264)" xlink:href="#CMR17-35"/>
      </g>
     </g>
    </g>
    <g id="xtick_5">
     <g id="line2d_9">
      <path clip-path="url(#p333cef0e82)" d="M 181.533298 166.078284 
L 181.533298 24.269588 
" style="fill:none;stroke:#b0b0b0;stroke-linecap:square;stroke-width:0.8;"/>
     </g>
     <g id="line2d_10">
      <g>
       <use style="stroke:#000000;stroke-width:0.8;" x="181.533298" xlink:href="#mbcc807c71e" y="166.078284"/>
      </g>
     </g>
     <g id="text_5">
      <!-- $\mathdefault{100}$ -->
      <g transform="translate(172.753812 181.380464)scale(0.12 -0.12)">
       <defs>
        <path d="M 1702 4083 
C 1702 4217 1696 4224 1606 4224 
C 1357 3927 979 3833 621 3820 
C 602 3820 570 3820 563 3808 
C 557 3795 557 3782 557 3648 
C 755 3648 1088 3686 1344 3839 
L 1344 467 
C 1344 243 1331 166 781 166 
L 589 166 
L 589 0 
C 896 6 1216 12 1523 12 
C 1830 12 2150 6 2458 0 
L 2458 166 
L 2266 166 
C 1715 166 1702 236 1702 467 
L 1702 4083 
z
" id="CMR17-31" transform="scale(0.015625)"/>
       </defs>
       <use transform="scale(0.996264)" xlink:href="#CMR17-31"/>
       <use transform="translate(45.690477 0)scale(0.996264)" xlink:href="#CMR17-30"/>
       <use transform="translate(91.380954 0)scale(0.996264)" xlink:href="#CMR17-30"/>
      </g>
     </g>
    </g>
    <g id="xtick_6">
     <g id="line2d_11">
      <path clip-path="url(#p333cef0e82)" d="M 219.578752 166.078284 
L 219.578752 24.269588 
" style="fill:none;stroke:#b0b0b0;stroke-linecap:square;stroke-width:0.8;"/>
     </g>
     <g id="line2d_12">
      <g>
       <use style="stroke:#000000;stroke-width:0.8;" x="219.578752" xlink:href="#mbcc807c71e" y="166.078284"/>
      </g>
     </g>
     <g id="text_6">
      <!-- $\mathdefault{125}$ -->
      <g transform="translate(210.799267 181.380464)scale(0.12 -0.12)">
       <use transform="scale(0.996264)" xlink:href="#CMR17-31"/>
       <use transform="translate(45.690477 0)scale(0.996264)" xlink:href="#CMR17-32"/>
       <use transform="translate(91.380954 0)scale(0.996264)" xlink:href="#CMR17-35"/>
      </g>
     </g>
    </g>
    <g id="xtick_7">
     <g id="line2d_13">
      <path clip-path="url(#p333cef0e82)" d="M 257.624207 166.078284 
L 257.624207 24.269588 
" style="fill:none;stroke:#b0b0b0;stroke-linecap:square;stroke-width:0.8;"/>
     </g>
     <g id="line2d_14">
      <g>
       <use style="stroke:#000000;stroke-width:0.8;" x="257.624207" xlink:href="#mbcc807c71e" y="166.078284"/>
      </g>
     </g>
     <g id="text_7">
      <!-- $\mathdefault{150}$ -->
      <g transform="translate(248.844722 181.380464)scale(0.12 -0.12)">
       <use transform="scale(0.996264)" xlink:href="#CMR17-31"/>
       <use transform="translate(45.690477 0)scale(0.996264)" xlink:href="#CMR17-35"/>
       <use transform="translate(91.380954 0)scale(0.996264)" xlink:href="#CMR17-30"/>
      </g>
     </g>
    </g>
    <g id="xtick_8">
     <g id="line2d_15">
      <path clip-path="url(#p333cef0e82)" d="M 295.669661 166.078284 
L 295.669661 24.269588 
" style="fill:none;stroke:#b0b0b0;stroke-linecap:square;stroke-width:0.8;"/>
     </g>
     <g id="line2d_16">
      <g>
       <use style="stroke:#000000;stroke-width:0.8;" x="295.669661" xlink:href="#mbcc807c71e" y="166.078284"/>
      </g>
     </g>
     <g id="text_8">
      <!-- $\mathdefault{175}$ -->
      <g transform="translate(286.890176 181.380464)scale(0.12 -0.12)">
       <use transform="scale(0.996264)" xlink:href="#CMR17-31"/>
       <use transform="translate(45.690477 0)scale(0.996264)" xlink:href="#CMR17-37"/>
       <use transform="translate(91.380954 0)scale(0.996264)" xlink:href="#CMR17-35"/>
      </g>
     </g>
    </g>
    <g id="xtick_9">
     <g id="line2d_17">
      <path clip-path="url(#p333cef0e82)" d="M 333.715116 166.078284 
L 333.715116 24.269588 
" style="fill:none;stroke:#b0b0b0;stroke-linecap:square;stroke-width:0.8;"/>
     </g>
     <g id="line2d_18">
      <g>
       <use style="stroke:#000000;stroke-width:0.8;" x="333.715116" xlink:href="#mbcc807c71e" y="166.078284"/>
      </g>
     </g>
     <g id="text_9">
      <!-- $\mathdefault{200}$ -->
      <g transform="translate(324.935631 181.380464)scale(0.12 -0.12)">
       <use transform="scale(0.996264)" xlink:href="#CMR17-32"/>
       <use transform="translate(45.690477 0)scale(0.996264)" xlink:href="#CMR17-30"/>
       <use transform="translate(91.380954 0)scale(0.996264)" xlink:href="#CMR17-30"/>
      </g>
     </g>
    </g>
   </g>
   <g id="matplotlib.axis_2">
    <g id="ytick_1">
     <g id="line2d_19">
      <path clip-path="url(#p333cef0e82)" d="M 29.35148 166.078284 
L 333.715116 166.078284 
" style="fill:none;stroke:#b0b0b0;stroke-linecap:square;stroke-width:0.8;"/>
     </g>
     <g id="line2d_20">
      <defs>
       <path d="M 0 0 
L -3.5 0 
" id="m9fdbb7cd16" style="stroke:#000000;stroke-width:0.8;"/>
      </defs>
      <g>
       <use style="stroke:#000000;stroke-width:0.8;" x="29.35148" xlink:href="#m9fdbb7cd16" y="166.078284"/>
      </g>
     </g>
     <g id="text_10">
      <!-- $\mathdefault{−2}$ -->
      <g transform="translate(7.2 170.229374)scale(0.12 -0.12)">
       <defs>
        <path d="M 4218 1472 
C 4326 1472 4442 1472 4442 1600 
C 4442 1728 4326 1728 4218 1728 
L 755 1728 
C 646 1728 531 1728 531 1600 
C 531 1472 646 1472 755 1472 
L 4218 1472 
z
" id="CMSY10-0" transform="scale(0.015625)"/>
       </defs>
       <use transform="scale(0.996264)" xlink:href="#CMSY10-0"/>
       <use transform="translate(77.487468 0)scale(0.996264)" xlink:href="#CMR17-32"/>
      </g>
     </g>
    </g>
    <g id="ytick_2">
     <g id="line2d_21">
      <path clip-path="url(#p333cef0e82)" d="M 29.35148 130.62611 
L 333.715116 130.62611 
" style="fill:none;stroke:#b0b0b0;stroke-linecap:square;stroke-width:0.8;"/>
     </g>
     <g id="line2d_22">
      <g>
       <use style="stroke:#000000;stroke-width:0.8;" x="29.35148" xlink:href="#m9fdbb7cd16" y="130.62611"/>
      </g>
     </g>
     <g id="text_11">
      <!-- $\mathdefault{−1}$ -->
      <g transform="translate(7.2 134.7772)scale(0.12 -0.12)">
       <use transform="scale(0.996264)" xlink:href="#CMSY10-0"/>
       <use transform="translate(77.487468 0)scale(0.996264)" xlink:href="#CMR17-31"/>
      </g>
     </g>
    </g>
    <g id="ytick_3">
     <g id="line2d_23">
      <path clip-path="url(#p333cef0e82)" d="M 29.35148 95.173936 
L 333.715116 95.173936 
" style="fill:none;stroke:#b0b0b0;stroke-linecap:square;stroke-width:0.8;"/>
     </g>
     <g id="line2d_24">
      <g>
       <use style="stroke:#000000;stroke-width:0.8;" x="29.35148" xlink:href="#m9fdbb7cd16" y="95.173936"/>
      </g>
     </g>
     <g id="text_12">
      <!-- $\mathdefault{0}$ -->
      <g transform="translate(16.498489 99.325026)scale(0.12 -0.12)">
       <use transform="scale(0.996264)" xlink:href="#CMR17-30"/>
      </g>
     </g>
    </g>
    <g id="ytick_4">
     <g id="line2d_25">
      <path clip-path="url(#p333cef0e82)" d="M 29.35148 59.721762 
L 333.715116 59.721762 
" style="fill:none;stroke:#b0b0b0;stroke-linecap:square;stroke-width:0.8;"/>
     </g>
     <g id="line2d_26">
      <g>
       <use style="stroke:#000000;stroke-width:0.8;" x="29.35148" xlink:href="#m9fdbb7cd16" y="59.721762"/>
      </g>
     </g>
     <g id="text_13">
      <!-- $\mathdefault{1}$ -->
      <g transform="translate(16.498489 63.872852)scale(0.12 -0.12)">
       <use transform="scale(0.996264)" xlink:href="#CMR17-31"/>
      </g>
     </g>
    </g>
    <g id="ytick_5">
     <g id="line2d_27">
      <path clip-path="url(#p333cef0e82)" d="M 29.35148 24.269588 
L 333.715116 24.269588 
" style="fill:none;stroke:#b0b0b0;stroke-linecap:square;stroke-width:0.8;"/>
     </g>
     <g id="line2d_28">
      <g>
       <use style="stroke:#000000;stroke-width:0.8;" x="29.35148" xlink:href="#m9fdbb7cd16" y="24.269588"/>
      </g>
     </g>
     <g id="text_14">
      <!-- $\mathdefault{2}$ -->
      <g transform="translate(16.498489 28.420678)scale(0.12 -0.12)">
       <use transform="scale(0.996264)" xlink:href="#CMR17-32"/>
      </g>
     </g>
    </g>
   </g>
   <g id="line2d_29">
    <path clip-path="url(#p333cef0e82)" d="M 29.35148 130.62611 
L 103.920571 61.139849 
L 105.442389 130.62611 
L 180.01148 61.139849 
L 181.533298 130.62611 
L 256.102389 61.139849 
L 257.624207 130.62611 
L 332.193298 61.139849 
L 333.715116 130.62611 
L 335.236934 129.208023 
L 335.236934 129.208023 
" style="fill:none;stroke:#1f77b4;stroke-linecap:square;stroke-width:1.5;"/>
   </g>
   <g id="patch_3">
    <path d="M 29.35148 166.078284 
L 29.35148 24.269588 
" style="fill:none;stroke:#000000;stroke-linecap:square;stroke-linejoin:miter;stroke-width:0.8;"/>
   </g>
   <g id="patch_4">
    <path d="M 333.715116 166.078284 
L 333.715116 24.269588 
" style="fill:none;stroke:#000000;stroke-linecap:square;stroke-linejoin:miter;stroke-width:0.8;"/>
   </g>
   <g id="patch_5">
    <path d="M 29.35148 166.078284 
L 333.715116 166.078284 
" style="fill:none;stroke:#000000;stroke-linecap:square;stroke-linejoin:miter;stroke-width:0.8;"/>
   </g>
   <g id="patch_6">
    <path d="M 29.35148 24.269588 
L 333.715116 24.269588 
" style="fill:none;stroke:#000000;stroke-linecap:square;stroke-linejoin:miter;stroke-width:0.8;"/>
   </g>
   <g id="text_15">
    <!-- $x$ -->
    <g transform="translate(177.098573 18.269588)scale(0.16 -0.16)">
     <defs>
      <path d="M 3034 2624 
C 2829 2585 2752 2431 2752 2310 
C 2752 2156 2874 2105 2963 2105 
C 3155 2105 3290 2271 3290 2444 
C 3290 2694 2982 2816 2714 2816 
C 2323 2816 2106 2451 2048 2329 
C 1901 2790 1504 2816 1389 2816 
C 736 2816 390 1993 390 1849 
C 390 1823 416 1790 461 1790 
C 512 1790 525 1829 538 1855 
C 755 2572 1184 2687 1370 2687 
C 1658 2687 1715 2438 1715 2284 
C 1715 2143 1677 1993 1600 1678 
L 1382 778 
C 1286 390 1101 64 762 64 
C 730 64 570 64 435 126 
C 666 166 717 358 717 435 
C 717 563 621 640 499 640 
C 346 640 179 505 179 300 
C 179 57 480 -64 755 -64 
C 1062 -64 1280 153 1414 415 
C 1517 64 1837 -64 2074 -64 
C 2726 -64 3072 751 3072 896 
C 3072 929 3046 955 3008 955 
C 2950 955 2944 922 2925 870 
C 2752 300 2381 64 2093 64 
C 1869 64 1747 204 1747 467 
C 1747 607 1773 712 1875 1146 
L 2099 2039 
C 2195 2425 2413 2687 2707 2687 
C 2720 2687 2899 2687 3034 2624 
z
" id="CMMI12-78" transform="scale(0.015625)"/>
     </defs>
     <use transform="scale(0.996264)" xlink:href="#CMMI12-78"/>
    </g>
   </g>
  </g>
  <g id="axes_2">
   <g id="patch_7">
    <path d="M 394.587843 166.078284 
L 698.95148 166.078284 
L 698.95148 24.269588 
L 394.587843 24.269588 
z
" style="fill:#ffffff;"/>
   </g>
   <g id="matplotlib.axis_3">
    <g id="xtick_10">
     <g id="line2d_30">
      <path clip-path="url(#p9c61b84dce)" d="M 394.587843 166.078284 
L 394.587843 24.269588 
" style="fill:none;stroke:#b0b0b0;stroke-linecap:square;stroke-width:0.8;"/>
     </g>
     <g id="line2d_31">
      <g>
       <use style="stroke:#000000;stroke-width:0.8;" x="394.587843" xlink:href="#mbcc807c71e" y="166.078284"/>
      </g>
     </g>
     <g id="text_16">
      <!-- $\mathdefault{0}$ -->
      <g transform="translate(391.661348 181.380464)scale(0.12 -0.12)">
       <use transform="scale(0.996264)" xlink:href="#CMR17-30"/>
      </g>
     </g>
    </g>
    <g id="xtick_11">
     <g id="line2d_32">
      <path clip-path="url(#p9c61b84dce)" d="M 432.633298 166.078284 
L 432.633298 24.269588 
" style="fill:none;stroke:#b0b0b0;stroke-linecap:square;stroke-width:0.8;"/>
     </g>
     <g id="line2d_33">
      <g>
       <use style="stroke:#000000;stroke-width:0.8;" x="432.633298" xlink:href="#mbcc807c71e" y="166.078284"/>
      </g>
     </g>
     <g id="text_17">
      <!-- $\mathdefault{25}$ -->
      <g transform="translate(426.780308 181.380464)scale(0.12 -0.12)">
       <use transform="scale(0.996264)" xlink:href="#CMR17-32"/>
       <use transform="translate(45.690477 0)scale(0.996264)" xlink:href="#CMR17-35"/>
      </g>
     </g>
    </g>
    <g id="xtick_12">
     <g id="line2d_34">
      <path clip-path="url(#p9c61b84dce)" d="M 470.678752 166.078284 
L 470.678752 24.269588 
" style="fill:none;stroke:#b0b0b0;stroke-linecap:square;stroke-width:0.8;"/>
     </g>
     <g id="line2d_35">
      <g>
       <use style="stroke:#000000;stroke-width:0.8;" x="470.678752" xlink:href="#mbcc807c71e" y="166.078284"/>
      </g>
     </g>
     <g id="text_18">
      <!-- $\mathdefault{50}$ -->
      <g transform="translate(464.825762 181.380464)scale(0.12 -0.12)">
       <use transform="scale(0.996264)" xlink:href="#CMR17-35"/>
       <use transform="translate(45.690477 0)scale(0.996264)" xlink:href="#CMR17-30"/>
      </g>
     </g>
    </g>
    <g id="xtick_13">
     <g id="line2d_36">
      <path clip-path="url(#p9c61b84dce)" d="M 508.724207 166.078284 
L 508.724207 24.269588 
" style="fill:none;stroke:#b0b0b0;stroke-linecap:square;stroke-width:0.8;"/>
     </g>
     <g id="line2d_37">
      <g>
       <use style="stroke:#000000;stroke-width:0.8;" x="508.724207" xlink:href="#mbcc807c71e" y="166.078284"/>
      </g>
     </g>
     <g id="text_19">
      <!-- $\mathdefault{75}$ -->
      <g transform="translate(502.871217 181.380464)scale(0.12 -0.12)">
       <use transform="scale(0.996264)" xlink:href="#CMR17-37"/>
       <use transform="translate(45.690477 0)scale(0.996264)" xlink:href="#CMR17-35"/>
      </g>
     </g>
    </g>
    <g id="xtick_14">
     <g id="line2d_38">
      <path clip-path="url(#p9c61b84dce)" d="M 546.769661 166.078284 
L 546.769661 24.269588 
" style="fill:none;stroke:#b0b0b0;stroke-linecap:square;stroke-width:0.8;"/>
     </g>
     <g id="line2d_39">
      <g>
       <use style="stroke:#000000;stroke-width:0.8;" x="546.769661" xlink:href="#mbcc807c71e" y="166.078284"/>
      </g>
     </g>
     <g id="text_20">
      <!-- $\mathdefault{100}$ -->
      <g transform="translate(537.990176 181.380464)scale(0.12 -0.12)">
       <use transform="scale(0.996264)" xlink:href="#CMR17-31"/>
       <use transform="translate(45.690477 0)scale(0.996264)" xlink:href="#CMR17-30"/>
       <use transform="translate(91.380954 0)scale(0.996264)" xlink:href="#CMR17-30"/>
      </g>
     </g>
    </g>
    <g id="xtick_15">
     <g id="line2d_40">
      <path clip-path="url(#p9c61b84dce)" d="M 584.815116 166.078284 
L 584.815116 24.269588 
" style="fill:none;stroke:#b0b0b0;stroke-linecap:square;stroke-width:0.8;"/>
     </g>
     <g id="line2d_41">
      <g>
       <use style="stroke:#000000;stroke-width:0.8;" x="584.815116" xlink:href="#mbcc807c71e" y="166.078284"/>
      </g>
     </g>
     <g id="text_21">
      <!-- $\mathdefault{125}$ -->
      <g transform="translate(576.035631 181.380464)scale(0.12 -0.12)">
       <use transform="scale(0.996264)" xlink:href="#CMR17-31"/>
       <use transform="translate(45.690477 0)scale(0.996264)" xlink:href="#CMR17-32"/>
       <use transform="translate(91.380954 0)scale(0.996264)" xlink:href="#CMR17-35"/>
      </g>
     </g>
    </g>
    <g id="xtick_16">
     <g id="line2d_42">
      <path clip-path="url(#p9c61b84dce)" d="M 622.860571 166.078284 
L 622.860571 24.269588 
" style="fill:none;stroke:#b0b0b0;stroke-linecap:square;stroke-width:0.8;"/>
     </g>
     <g id="line2d_43">
      <g>
       <use style="stroke:#000000;stroke-width:0.8;" x="622.860571" xlink:href="#mbcc807c71e" y="166.078284"/>
      </g>
     </g>
     <g id="text_22">
      <!-- $\mathdefault{150}$ -->
      <g transform="translate(614.081085 181.380464)scale(0.12 -0.12)">
       <use transform="scale(0.996264)" xlink:href="#CMR17-31"/>
       <use transform="translate(45.690477 0)scale(0.996264)" xlink:href="#CMR17-35"/>
       <use transform="translate(91.380954 0)scale(0.996264)" xlink:href="#CMR17-30"/>
      </g>
     </g>
    </g>
    <g id="xtick_17">
     <g id="line2d_44">
      <path clip-path="url(#p9c61b84dce)" d="M 660.906025 166.078284 
L 660.906025 24.269588 
" style="fill:none;stroke:#b0b0b0;stroke-linecap:square;stroke-width:0.8;"/>
     </g>
     <g id="line2d_45">
      <g>
       <use style="stroke:#000000;stroke-width:0.8;" x="660.906025" xlink:href="#mbcc807c71e" y="166.078284"/>
      </g>
     </g>
     <g id="text_23">
      <!-- $\mathdefault{175}$ -->
      <g transform="translate(652.12654 181.380464)scale(0.12 -0.12)">
       <use transform="scale(0.996264)" xlink:href="#CMR17-31"/>
       <use transform="translate(45.690477 0)scale(0.996264)" xlink:href="#CMR17-37"/>
       <use transform="translate(91.380954 0)scale(0.996264)" xlink:href="#CMR17-35"/>
      </g>
     </g>
    </g>
    <g id="xtick_18">
     <g id="line2d_46">
      <path clip-path="url(#p9c61b84dce)" d="M 698.95148 166.078284 
L 698.95148 24.269588 
" style="fill:none;stroke:#b0b0b0;stroke-linecap:square;stroke-width:0.8;"/>
     </g>
     <g id="line2d_47">
      <g>
       <use style="stroke:#000000;stroke-width:0.8;" x="698.95148" xlink:href="#mbcc807c71e" y="166.078284"/>
      </g>
     </g>
     <g id="text_24">
      <!-- $\mathdefault{200}$ -->
      <g transform="translate(690.171994 181.380464)scale(0.12 -0.12)">
       <use transform="scale(0.996264)" xlink:href="#CMR17-32"/>
       <use transform="translate(45.690477 0)scale(0.996264)" xlink:href="#CMR17-30"/>
       <use transform="translate(91.380954 0)scale(0.996264)" xlink:href="#CMR17-30"/>
      </g>
     </g>
    </g>
   </g>
   <g id="matplotlib.axis_4">
    <g id="ytick_6">
     <g id="line2d_48">
      <path clip-path="url(#p9c61b84dce)" d="M 394.587843 166.078284 
L 698.95148 166.078284 
" style="fill:none;stroke:#b0b0b0;stroke-linecap:square;stroke-width:0.8;"/>
     </g>
     <g id="line2d_49">
      <g>
       <use style="stroke:#000000;stroke-width:0.8;" x="394.587843" xlink:href="#m9fdbb7cd16" y="166.078284"/>
      </g>
     </g>
     <g id="text_25">
      <!-- $\mathdefault{−2}$ -->
      <g transform="translate(372.436364 170.229374)scale(0.12 -0.12)">
       <use transform="scale(0.996264)" xlink:href="#CMSY10-0"/>
       <use transform="translate(77.487468 0)scale(0.996264)" xlink:href="#CMR17-32"/>
      </g>
     </g>
    </g>
    <g id="ytick_7">
     <g id="line2d_50">
      <path clip-path="url(#p9c61b84dce)" d="M 394.587843 130.62611 
L 698.95148 130.62611 
" style="fill:none;stroke:#b0b0b0;stroke-linecap:square;stroke-width:0.8;"/>
     </g>
     <g id="line2d_51">
      <g>
       <use style="stroke:#000000;stroke-width:0.8;" x="394.587843" xlink:href="#m9fdbb7cd16" y="130.62611"/>
      </g>
     </g>
     <g id="text_26">
      <!-- $\mathdefault{−1}$ -->
      <g transform="translate(372.436364 134.7772)scale(0.12 -0.12)">
       <use transform="scale(0.996264)" xlink:href="#CMSY10-0"/>
       <use transform="translate(77.487468 0)scale(0.996264)" xlink:href="#CMR17-31"/>
      </g>
     </g>
    </g>
    <g id="ytick_8">
     <g id="line2d_52">
      <path clip-path="url(#p9c61b84dce)" d="M 394.587843 95.173936 
L 698.95148 95.173936 
" style="fill:none;stroke:#b0b0b0;stroke-linecap:square;stroke-width:0.8;"/>
     </g>
     <g id="line2d_53">
      <g>
       <use style="stroke:#000000;stroke-width:0.8;" x="394.587843" xlink:href="#m9fdbb7cd16" y="95.173936"/>
      </g>
     </g>
     <g id="text_27">
      <!-- $\mathdefault{0}$ -->
      <g transform="translate(381.734853 99.325026)scale(0.12 -0.12)">
       <use transform="scale(0.996264)" xlink:href="#CMR17-30"/>
      </g>
     </g>
    </g>
    <g id="ytick_9">
     <g id="line2d_54">
      <path clip-path="url(#p9c61b84dce)" d="M 394.587843 59.721762 
L 698.95148 59.721762 
" style="fill:none;stroke:#b0b0b0;stroke-linecap:square;stroke-width:0.8;"/>
     </g>
     <g id="line2d_55">
      <g>
       <use style="stroke:#000000;stroke-width:0.8;" x="394.587843" xlink:href="#m9fdbb7cd16" y="59.721762"/>
      </g>
     </g>
     <g id="text_28">
      <!-- $\mathdefault{1}$ -->
      <g transform="translate(381.734853 63.872852)scale(0.12 -0.12)">
       <use transform="scale(0.996264)" xlink:href="#CMR17-31"/>
      </g>
     </g>
    </g>
    <g id="ytick_10">
     <g id="line2d_56">
      <path clip-path="url(#p9c61b84dce)" d="M 394.587843 24.269588 
L 698.95148 24.269588 
" style="fill:none;stroke:#b0b0b0;stroke-linecap:square;stroke-width:0.8;"/>
     </g>
     <g id="line2d_57">
      <g>
       <use style="stroke:#000000;stroke-width:0.8;" x="394.587843" xlink:href="#m9fdbb7cd16" y="24.269588"/>
      </g>
     </g>
     <g id="text_29">
      <!-- $\mathdefault{2}$ -->
      <g transform="translate(381.734853 28.420678)scale(0.12 -0.12)">
       <use transform="scale(0.996264)" xlink:href="#CMR17-32"/>
      </g>
     </g>
    </g>
   </g>
   <g id="line2d_58">
    <path clip-path="url(#p9c61b84dce)" d="M 394.587843 149.615748 
L 396.109661 148.624474 
L 397.63148 125.394909 
L 399.153298 143.017135 
L 400.675116 113.730233 
L 402.196934 140.591832 
L 403.718752 112.08405 
L 405.240571 64.355283 
L 406.762389 135.4258 
L 408.284207 103.481886 
L 409.806025 104.895037 
L 411.327843 123.7396 
L 412.849661 91.435549 
L 414.37148 131.939568 
L 415.893298 140.606992 
L 417.415116 123.63683 
L 418.936934 111.728338 
L 420.458752 114.672252 
L 421.980571 106.720501 
L 423.502389 67.113878 
L 425.024207 118.966588 
L 426.546025 94.726702 
L 428.067843 105.440621 
L 429.589661 75.449833 
L 431.11148 129.691758 
L 432.633298 129.583089 
L 434.155116 102.198901 
L 435.676934 93.585924 
L 437.198752 106.641626 
L 438.720571 55.469133 
L 440.242389 89.011922 
L 441.764207 58.210437 
L 443.286025 66.316132 
L 444.807843 87.822677 
L 446.329661 61.253895 
L 447.85148 65.485441 
L 449.373298 71.498894 
L 450.895116 53.274827 
L 452.416934 103.75375 
L 453.938752 93.66565 
L 455.460571 44.970473 
L 456.982389 105.709879 
L 458.504207 93.273904 
L 460.026025 48.360442 
L 461.547843 71.089429 
L 463.069661 72.196846 
L 464.59148 85.876512 
L 466.113298 76.461095 
L 467.635116 52.837914 
L 469.156934 62.279298 
L 470.678752 101.101285 
L 472.200571 118.09189 
L 473.722389 144.937953 
L 475.244207 129.268564 
L 476.766025 153.040861 
L 478.287843 119.172456 
L 479.809661 91.008807 
L 481.33148 118.888332 
L 482.853298 128.353541 
L 484.375116 132.636478 
L 485.896934 155.377348 
L 487.418752 113.422531 
L 488.940571 114.900756 
L 490.462389 125.725221 
L 491.984207 101.867642 
L 493.506025 132.778046 
L 495.027843 141.334007 
L 496.549661 130.302416 
L 498.07148 86.245661 
L 499.593298 109.401164 
L 501.115116 123.668371 
L 502.636934 101.433444 
L 504.158752 128.850126 
L 505.680571 95.198055 
L 507.202389 82.244655 
L 510.246025 96.310954 
L 511.767843 92.541347 
L 513.289661 88.207319 
L 514.81148 81.374791 
L 516.333298 89.455404 
L 517.855116 80.759094 
L 519.376934 73.054188 
L 520.898752 79.091043 
L 522.420571 57.345278 
L 523.942389 59.446644 
L 525.464207 103.615749 
L 526.986025 50.878898 
L 528.507843 79.492939 
L 530.029661 103.775177 
L 531.55148 78.556487 
L 533.073298 63.585162 
L 534.595116 79.350607 
L 536.116934 76.668216 
L 537.638752 42.405352 
L 539.160571 73.359594 
L 540.682389 57.525041 
L 542.204207 53.927983 
L 543.726025 81.153152 
L 545.247843 50.176554 
L 546.769661 157.096171 
L 548.29148 119.622332 
L 549.813298 137.968303 
L 551.335116 116.551091 
L 552.856934 112.476656 
L 554.378752 82.644387 
L 555.900571 130.082995 
L 557.422389 143.172976 
L 558.944207 107.317643 
L 560.466025 120.174793 
L 561.987843 98.087345 
L 563.509661 115.959941 
L 565.03148 124.609141 
L 566.553298 79.418948 
L 568.075116 97.895655 
L 569.596934 93.0733 
L 571.118752 123.835251 
L 572.640571 130.304591 
L 574.162389 118.424176 
L 575.684207 109.422557 
L 577.206025 88.914453 
L 578.727843 99.477362 
L 580.249661 106.87152 
L 581.77148 109.848686 
L 583.293298 97.187598 
L 584.815116 113.152525 
L 586.336934 95.100759 
L 587.858752 96.000975 
L 589.380571 91.78861 
L 590.902389 116.075598 
L 592.424207 80.824936 
L 593.946025 93.352811 
L 595.467843 97.55157 
L 596.989661 70.764853 
L 598.51148 53.483693 
L 600.033298 45.41557 
L 601.555116 100.532568 
L 603.076934 82.692809 
L 604.598752 69.599939 
L 606.120571 95.841453 
L 607.642389 85.427033 
L 609.164207 130.96428 
L 610.686025 104.130798 
L 612.207843 69.179597 
L 613.729661 79.640996 
L 615.25148 94.056017 
L 616.773298 79.198193 
L 618.295116 73.274458 
L 619.816934 58.682462 
L 621.338752 57.303823 
L 622.860571 138.07081 
L 624.382389 114.485757 
L 625.904207 123.882525 
L 627.426025 104.440505 
L 628.947843 141.336375 
L 630.469661 117.369755 
L 631.99148 137.487165 
L 633.513298 140.153698 
L 635.035116 115.209816 
L 636.556934 133.817327 
L 638.078752 100.90273 
L 639.600571 125.240538 
L 641.122389 125.426254 
L 642.644207 98.672728 
L 644.166025 105.096073 
L 645.687843 116.711021 
L 647.209661 125.27675 
L 650.253298 99.778051 
L 651.775116 105.902714 
L 653.296934 116.491766 
L 654.818752 136.202663 
L 656.340571 120.388388 
L 657.862389 132.262798 
L 659.384207 71.281133 
L 660.906025 98.422723 
L 662.427843 87.263171 
L 663.949661 84.94454 
L 665.47148 126.161515 
L 666.993298 77.020463 
L 668.515116 89.079489 
L 670.036934 71.777239 
L 671.558752 80.590993 
L 673.080571 69.794016 
L 674.602389 86.865245 
L 676.124207 71.091537 
L 677.646025 58.444472 
L 679.167843 68.751694 
L 680.689661 87.241928 
L 682.21148 43.231936 
L 683.733298 82.617078 
L 685.255116 84.473449 
L 686.776934 87.968668 
L 688.298752 72.377413 
L 689.820571 84.139896 
L 691.342389 74.705075 
L 692.864207 78.843689 
L 694.386025 67.986014 
L 695.907843 77.134262 
L 697.429661 50.164847 
L 698.95148 120.035722 
L 700.473298 146.915349 
L 700.473298 146.915349 
" style="fill:none;stroke:#1f77b4;stroke-linecap:square;stroke-width:1.5;"/>
   </g>
   <g id="patch_8">
    <path d="M 394.587843 166.078284 
L 394.587843 24.269588 
" style="fill:none;stroke:#000000;stroke-linecap:square;stroke-linejoin:miter;stroke-width:0.8;"/>
   </g>
   <g id="patch_9">
    <path d="M 698.95148 166.078284 
L 698.95148 24.269588 
" style="fill:none;stroke:#000000;stroke-linecap:square;stroke-linejoin:miter;stroke-width:0.8;"/>
   </g>
   <g id="patch_10">
    <path d="M 394.587843 166.078284 
L 698.95148 166.078284 
" style="fill:none;stroke:#000000;stroke-linecap:square;stroke-linejoin:miter;stroke-width:0.8;"/>
   </g>
   <g id="patch_11">
    <path d="M 394.587843 24.269588 
L 698.95148 24.269588 
" style="fill:none;stroke:#000000;stroke-linecap:square;stroke-linejoin:miter;stroke-width:0.8;"/>
   </g>
   <g id="text_30">
    <!-- $y$ -->
    <g transform="translate(542.964526 18.269588)scale(0.16 -0.16)">
     <defs>
      <path d="M 1683 -673 
C 1510 -921 1261 -1152 947 -1152 
C 870 -1152 563 -1139 467 -826 
C 486 -833 518 -833 531 -833 
C 723 -833 851 -666 851 -519 
C 851 -372 730 -320 634 -320 
C 531 -320 307 -397 307 -711 
C 307 -1050 582 -1280 947 -1280 
C 1587 -1280 2234 -673 2413 -7 
L 3040 2483 
C 3046 2515 3059 2553 3059 2591 
C 3059 2687 2982 2752 2886 2752 
C 2829 2752 2694 2726 2643 2534 
L 2170 657 
C 2138 542 2138 530 2086 459 
C 1958 281 1747 64 1440 64 
C 1082 64 1050 415 1050 587 
C 1050 951 1222 1443 1395 1902 
C 1466 2087 1504 2177 1504 2305 
C 1504 2573 1312 2816 998 2816 
C 410 2816 173 1890 173 1838 
C 173 1813 198 1781 243 1781 
C 301 1781 307 1807 333 1896 
C 486 2432 730 2687 979 2687 
C 1037 2687 1146 2687 1146 2477 
C 1146 2311 1075 2126 979 1883 
C 666 1047 666 836 666 683 
C 666 76 1101 -64 1421 -64 
C 1606 -64 1837 -7 2061 230 
L 2067 223 
C 1971 -141 1907 -359 1683 -673 
z
" id="CMMI12-79" transform="scale(0.015625)"/>
     </defs>
     <use transform="scale(0.996264)" xlink:href="#CMMI12-79"/>
    </g>
   </g>
  </g>
  <g id="axes_3">
   <g id="patch_12">
    <path d="M 29.35148 350.429588 
L 333.715116 350.429588 
L 333.715116 208.620893 
L 29.35148 208.620893 
z
" style="fill:#ffffff;"/>
   </g>
   <g id="matplotlib.axis_5">
    <g id="xtick_19">
     <g id="line2d_59">
      <path clip-path="url(#pf0a3a0c027)" d="M 29.35148 350.429588 
L 29.35148 208.620893 
" style="fill:none;stroke:#b0b0b0;stroke-linecap:square;stroke-width:0.8;"/>
     </g>
     <g id="line2d_60">
      <g>
       <use style="stroke:#000000;stroke-width:0.8;" x="29.35148" xlink:href="#mbcc807c71e" y="350.429588"/>
      </g>
     </g>
     <g id="text_31">
      <!-- $\mathdefault{0}$ -->
      <g transform="translate(26.424985 365.731768)scale(0.12 -0.12)">
       <use transform="scale(0.996264)" xlink:href="#CMR17-30"/>
      </g>
     </g>
    </g>
    <g id="xtick_20">
     <g id="line2d_61">
      <path clip-path="url(#pf0a3a0c027)" d="M 67.396934 350.429588 
L 67.396934 208.620893 
" style="fill:none;stroke:#b0b0b0;stroke-linecap:square;stroke-width:0.8;"/>
     </g>
     <g id="line2d_62">
      <g>
       <use style="stroke:#000000;stroke-width:0.8;" x="67.396934" xlink:href="#mbcc807c71e" y="350.429588"/>
      </g>
     </g>
     <g id="text_32">
      <!-- $\mathdefault{25}$ -->
      <g transform="translate(61.543944 365.731768)scale(0.12 -0.12)">
       <use transform="scale(0.996264)" xlink:href="#CMR17-32"/>
       <use transform="translate(45.690477 0)scale(0.996264)" xlink:href="#CMR17-35"/>
      </g>
     </g>
    </g>
    <g id="xtick_21">
     <g id="line2d_63">
      <path clip-path="url(#pf0a3a0c027)" d="M 105.442389 350.429588 
L 105.442389 208.620893 
" style="fill:none;stroke:#b0b0b0;stroke-linecap:square;stroke-width:0.8;"/>
     </g>
     <g id="line2d_64">
      <g>
       <use style="stroke:#000000;stroke-width:0.8;" x="105.442389" xlink:href="#mbcc807c71e" y="350.429588"/>
      </g>
     </g>
     <g id="text_33">
      <!-- $\mathdefault{50}$ -->
      <g transform="translate(99.589399 365.731768)scale(0.12 -0.12)">
       <use transform="scale(0.996264)" xlink:href="#CMR17-35"/>
       <use transform="translate(45.690477 0)scale(0.996264)" xlink:href="#CMR17-30"/>
      </g>
     </g>
    </g>
    <g id="xtick_22">
     <g id="line2d_65">
      <path clip-path="url(#pf0a3a0c027)" d="M 143.487843 350.429588 
L 143.487843 208.620893 
" style="fill:none;stroke:#b0b0b0;stroke-linecap:square;stroke-width:0.8;"/>
     </g>
     <g id="line2d_66">
      <g>
       <use style="stroke:#000000;stroke-width:0.8;" x="143.487843" xlink:href="#mbcc807c71e" y="350.429588"/>
      </g>
     </g>
     <g id="text_34">
      <!-- $\mathdefault{75}$ -->
      <g transform="translate(137.634853 365.731768)scale(0.12 -0.12)">
       <use transform="scale(0.996264)" xlink:href="#CMR17-37"/>
       <use transform="translate(45.690477 0)scale(0.996264)" xlink:href="#CMR17-35"/>
      </g>
     </g>
    </g>
    <g id="xtick_23">
     <g id="line2d_67">
      <path clip-path="url(#pf0a3a0c027)" d="M 181.533298 350.429588 
L 181.533298 208.620893 
" style="fill:none;stroke:#b0b0b0;stroke-linecap:square;stroke-width:0.8;"/>
     </g>
     <g id="line2d_68">
      <g>
       <use style="stroke:#000000;stroke-width:0.8;" x="181.533298" xlink:href="#mbcc807c71e" y="350.429588"/>
      </g>
     </g>
     <g id="text_35">
      <!-- $\mathdefault{100}$ -->
      <g transform="translate(172.753812 365.731768)scale(0.12 -0.12)">
       <use transform="scale(0.996264)" xlink:href="#CMR17-31"/>
       <use transform="translate(45.690477 0)scale(0.996264)" xlink:href="#CMR17-30"/>
       <use transform="translate(91.380954 0)scale(0.996264)" xlink:href="#CMR17-30"/>
      </g>
     </g>
    </g>
    <g id="xtick_24">
     <g id="line2d_69">
      <path clip-path="url(#pf0a3a0c027)" d="M 219.578752 350.429588 
L 219.578752 208.620893 
" style="fill:none;stroke:#b0b0b0;stroke-linecap:square;stroke-width:0.8;"/>
     </g>
     <g id="line2d_70">
      <g>
       <use style="stroke:#000000;stroke-width:0.8;" x="219.578752" xlink:href="#mbcc807c71e" y="350.429588"/>
      </g>
     </g>
     <g id="text_36">
      <!-- $\mathdefault{125}$ -->
      <g transform="translate(210.799267 365.731768)scale(0.12 -0.12)">
       <use transform="scale(0.996264)" xlink:href="#CMR17-31"/>
       <use transform="translate(45.690477 0)scale(0.996264)" xlink:href="#CMR17-32"/>
       <use transform="translate(91.380954 0)scale(0.996264)" xlink:href="#CMR17-35"/>
      </g>
     </g>
    </g>
    <g id="xtick_25">
     <g id="line2d_71">
      <path clip-path="url(#pf0a3a0c027)" d="M 257.624207 350.429588 
L 257.624207 208.620893 
" style="fill:none;stroke:#b0b0b0;stroke-linecap:square;stroke-width:0.8;"/>
     </g>
     <g id="line2d_72">
      <g>
       <use style="stroke:#000000;stroke-width:0.8;" x="257.624207" xlink:href="#mbcc807c71e" y="350.429588"/>
      </g>
     </g>
     <g id="text_37">
      <!-- $\mathdefault{150}$ -->
      <g transform="translate(248.844722 365.731768)scale(0.12 -0.12)">
       <use transform="scale(0.996264)" xlink:href="#CMR17-31"/>
       <use transform="translate(45.690477 0)scale(0.996264)" xlink:href="#CMR17-35"/>
       <use transform="translate(91.380954 0)scale(0.996264)" xlink:href="#CMR17-30"/>
      </g>
     </g>
    </g>
    <g id="xtick_26">
     <g id="line2d_73">
      <path clip-path="url(#pf0a3a0c027)" d="M 295.669661 350.429588 
L 295.669661 208.620893 
" style="fill:none;stroke:#b0b0b0;stroke-linecap:square;stroke-width:0.8;"/>
     </g>
     <g id="line2d_74">
      <g>
       <use style="stroke:#000000;stroke-width:0.8;" x="295.669661" xlink:href="#mbcc807c71e" y="350.429588"/>
      </g>
     </g>
     <g id="text_38">
      <!-- $\mathdefault{175}$ -->
      <g transform="translate(286.890176 365.731768)scale(0.12 -0.12)">
       <use transform="scale(0.996264)" xlink:href="#CMR17-31"/>
       <use transform="translate(45.690477 0)scale(0.996264)" xlink:href="#CMR17-37"/>
       <use transform="translate(91.380954 0)scale(0.996264)" xlink:href="#CMR17-35"/>
      </g>
     </g>
    </g>
    <g id="xtick_27">
     <g id="line2d_75">
      <path clip-path="url(#pf0a3a0c027)" d="M 333.715116 350.429588 
L 333.715116 208.620893 
" style="fill:none;stroke:#b0b0b0;stroke-linecap:square;stroke-width:0.8;"/>
     </g>
     <g id="line2d_76">
      <g>
       <use style="stroke:#000000;stroke-width:0.8;" x="333.715116" xlink:href="#mbcc807c71e" y="350.429588"/>
      </g>
     </g>
     <g id="text_39">
      <!-- $\mathdefault{200}$ -->
      <g transform="translate(324.935631 365.731768)scale(0.12 -0.12)">
       <use transform="scale(0.996264)" xlink:href="#CMR17-32"/>
       <use transform="translate(45.690477 0)scale(0.996264)" xlink:href="#CMR17-30"/>
       <use transform="translate(91.380954 0)scale(0.996264)" xlink:href="#CMR17-30"/>
      </g>
     </g>
    </g>
   </g>
   <g id="matplotlib.axis_6">
    <g id="ytick_11">
     <g id="line2d_77">
      <path clip-path="url(#pf0a3a0c027)" d="M 29.35148 350.429588 
L 333.715116 350.429588 
" style="fill:none;stroke:#b0b0b0;stroke-linecap:square;stroke-width:0.8;"/>
     </g>
     <g id="line2d_78">
      <g>
       <use style="stroke:#000000;stroke-width:0.8;" x="29.35148" xlink:href="#m9fdbb7cd16" y="350.429588"/>
      </g>
     </g>
     <g id="text_40">
      <!-- $\mathdefault{−2}$ -->
      <g transform="translate(7.2 354.580678)scale(0.12 -0.12)">
       <use transform="scale(0.996264)" xlink:href="#CMSY10-0"/>
       <use transform="translate(77.487468 0)scale(0.996264)" xlink:href="#CMR17-32"/>
      </g>
     </g>
    </g>
    <g id="ytick_12">
     <g id="line2d_79">
      <path clip-path="url(#pf0a3a0c027)" d="M 29.35148 314.977414 
L 333.715116 314.977414 
" style="fill:none;stroke:#b0b0b0;stroke-linecap:square;stroke-width:0.8;"/>
     </g>
     <g id="line2d_80">
      <g>
       <use style="stroke:#000000;stroke-width:0.8;" x="29.35148" xlink:href="#m9fdbb7cd16" y="314.977414"/>
      </g>
     </g>
     <g id="text_41">
      <!-- $\mathdefault{−1}$ -->
      <g transform="translate(7.2 319.128504)scale(0.12 -0.12)">
       <use transform="scale(0.996264)" xlink:href="#CMSY10-0"/>
       <use transform="translate(77.487468 0)scale(0.996264)" xlink:href="#CMR17-31"/>
      </g>
     </g>
    </g>
    <g id="ytick_13">
     <g id="line2d_81">
      <path clip-path="url(#pf0a3a0c027)" d="M 29.35148 279.52524 
L 333.715116 279.52524 
" style="fill:none;stroke:#b0b0b0;stroke-linecap:square;stroke-width:0.8;"/>
     </g>
     <g id="line2d_82">
      <g>
       <use style="stroke:#000000;stroke-width:0.8;" x="29.35148" xlink:href="#m9fdbb7cd16" y="279.52524"/>
      </g>
     </g>
     <g id="text_42">
      <!-- $\mathdefault{0}$ -->
      <g transform="translate(16.498489 283.67633)scale(0.12 -0.12)">
       <use transform="scale(0.996264)" xlink:href="#CMR17-30"/>
      </g>
     </g>
    </g>
    <g id="ytick_14">
     <g id="line2d_83">
      <path clip-path="url(#pf0a3a0c027)" d="M 29.35148 244.073067 
L 333.715116 244.073067 
" style="fill:none;stroke:#b0b0b0;stroke-linecap:square;stroke-width:0.8;"/>
     </g>
     <g id="line2d_84">
      <g>
       <use style="stroke:#000000;stroke-width:0.8;" x="29.35148" xlink:href="#m9fdbb7cd16" y="244.073067"/>
      </g>
     </g>
     <g id="text_43">
      <!-- $\mathdefault{1}$ -->
      <g transform="translate(16.498489 248.224156)scale(0.12 -0.12)">
       <use transform="scale(0.996264)" xlink:href="#CMR17-31"/>
      </g>
     </g>
    </g>
    <g id="ytick_15">
     <g id="line2d_85">
      <path clip-path="url(#pf0a3a0c027)" d="M 29.35148 208.620893 
L 333.715116 208.620893 
" style="fill:none;stroke:#b0b0b0;stroke-linecap:square;stroke-width:0.8;"/>
     </g>
     <g id="line2d_86">
      <g>
       <use style="stroke:#000000;stroke-width:0.8;" x="29.35148" xlink:href="#m9fdbb7cd16" y="208.620893"/>
      </g>
     </g>
     <g id="text_44">
      <!-- $\mathdefault{2}$ -->
      <g transform="translate(16.498489 212.771983)scale(0.12 -0.12)">
       <use transform="scale(0.996264)" xlink:href="#CMR17-32"/>
      </g>
     </g>
    </g>
   </g>
   <g id="line2d_87">
    <path clip-path="url(#pf0a3a0c027)" d="M 29.35148 247.600922 
L 30.873298 257.600936 
L 32.395116 272.265581 
L 33.916934 280.017321 
L 35.438752 290.360134 
L 36.960571 307.410278 
L 38.482389 310.232392 
L 40.004207 309.321655 
L 41.526025 319.565252 
L 43.047843 320.888605 
L 44.569661 315.426308 
L 46.09148 306.700661 
L 47.613298 305.701794 
L 49.135116 300.177043 
L 50.656934 300.234871 
L 52.178752 305.959168 
L 53.700571 310.812852 
L 55.222389 308.360322 
L 58.266025 298.517848 
L 59.787843 292.078948 
L 61.309661 287.44703 
L 62.83148 282.310515 
L 64.353298 273.364842 
L 65.875116 272.181832 
L 67.396934 267.023393 
L 70.440571 263.655907 
L 71.962389 268.863765 
L 73.484207 272.978394 
L 75.006025 278.357375 
L 76.527843 281.86679 
L 78.049661 286.624407 
L 79.57148 285.296486 
L 81.093298 280.590138 
L 82.615116 280.533145 
L 84.136934 275.367472 
L 85.658752 270.971294 
L 87.180571 270.460576 
L 88.702389 269.557361 
L 90.224207 262.776596 
L 91.746025 258.122822 
L 93.267843 251.170226 
L 94.789661 252.364057 
L 96.31148 241.787113 
L 97.833298 244.285391 
L 99.355116 249.683105 
L 100.876934 258.366066 
L 102.398752 252.21119 
L 103.920571 259.830156 
L 105.442389 263.330144 
L 108.486025 282.646378 
L 110.007843 295.652606 
L 111.529661 299.47303 
L 113.05148 304.989296 
L 114.573298 303.856886 
L 116.095116 299.55697 
L 117.616934 301.648088 
L 119.138752 308.370979 
L 120.660571 298.807953 
L 122.182389 293.492045 
L 123.704207 292.040186 
L 125.226025 288.279039 
L 126.747843 283.315089 
L 128.269661 286.565475 
L 129.79148 288.597984 
L 131.313298 289.484294 
L 132.835116 288.916447 
L 134.356934 291.04155 
L 135.878752 286.531152 
L 137.400571 284.639794 
L 138.922389 280.299641 
L 140.444207 285.535798 
L 141.966025 282.878918 
L 143.487843 289.216252 
L 145.009661 293.609605 
L 146.53148 293.140386 
L 148.053298 286.864975 
L 149.575116 283.918001 
L 151.096934 278.727745 
L 152.618752 272.543429 
L 154.140571 272.623688 
L 155.662389 267.102448 
L 157.184207 264.445833 
L 158.706025 272.046991 
L 160.227843 264.137252 
L 161.749661 261.326023 
L 163.27148 265.953104 
L 164.793298 262.402462 
L 166.315116 257.595562 
L 167.836934 265.150345 
L 169.358752 263.385031 
L 170.880571 251.29176 
L 172.402389 256.260001 
L 173.924207 256.402967 
L 175.446025 251.447246 
L 176.967843 247.922503 
L 178.489661 254.09356 
L 180.01148 257.601054 
L 181.533298 254.0124 
L 183.055116 264.21506 
L 184.576934 288.73914 
L 186.098752 301.032597 
L 187.620571 307.155277 
L 189.142389 327.976924 
L 190.664207 329.927165 
L 192.186025 325.956035 
L 193.707843 321.421649 
L 195.229661 314.30693 
L 196.75148 305.070872 
L 198.273298 300.719016 
L 199.795116 293.23382 
L 201.316934 294.076097 
L 202.838752 299.558639 
L 204.360571 294.837796 
L 205.882389 292.694573 
L 207.404207 292.90476 
L 208.926025 289.619887 
L 210.447843 295.419265 
L 211.969661 296.457308 
L 213.49148 301.868053 
L 215.013298 310.484918 
L 216.535116 312.427401 
L 218.056934 306.119114 
L 219.578752 305.872359 
L 221.100571 302.14302 
L 222.622389 293.740711 
L 224.144207 291.223577 
L 225.666025 284.575458 
L 227.187843 283.481093 
L 228.709661 278.519326 
L 230.23148 274.152433 
L 231.753298 268.151542 
L 233.275116 273.465837 
L 234.796934 270.596607 
L 236.318752 272.775106 
L 237.840571 269.763767 
L 239.362389 274.332822 
L 240.884207 265.140411 
L 242.406025 269.258684 
L 243.927843 264.041022 
L 245.449661 267.366225 
L 246.97148 271.06774 
L 248.493298 271.356212 
L 250.015116 259.467849 
L 251.536934 251.903905 
L 253.058752 240.539627 
L 254.580571 235.535512 
L 256.102389 240.162959 
L 257.624207 247.718113 
L 259.146025 256.656201 
L 260.667843 271.809342 
L 262.189661 277.631999 
L 263.71148 280.956904 
L 265.233298 290.9991 
L 266.755116 306.451558 
L 268.276934 307.157706 
L 269.798752 303.681908 
L 271.320571 312.033857 
L 272.842389 308.946522 
L 274.364207 305.209099 
L 275.886025 302.137068 
L 277.407843 310.118102 
L 278.929661 303.758138 
L 280.45148 304.05219 
L 281.973298 299.058572 
L 283.495116 295.808733 
L 285.016934 291.100945 
L 286.538752 290.943394 
L 288.060571 285.53338 
L 289.582389 288.761267 
L 291.104207 289.31916 
L 292.626025 281.687753 
L 294.147843 278.569711 
L 295.669661 286.053268 
L 297.19148 284.1575 
L 298.713298 282.546706 
L 300.235116 284.100585 
L 301.756934 277.311287 
L 303.278752 264.818059 
L 304.800571 257.193699 
L 306.322389 252.084359 
L 307.844207 251.51181 
L 309.366025 259.387233 
L 310.887843 259.216297 
L 312.409661 261.717371 
L 313.93148 259.700358 
L 315.453298 258.669909 
L 316.975116 253.045636 
L 318.496934 257.188004 
L 320.018752 255.620867 
L 321.540571 261.363452 
L 323.062389 260.251728 
L 324.584207 257.98225 
L 326.106025 251.215779 
L 327.627843 253.303433 
L 329.149661 249.892915 
L 330.67148 251.433599 
L 332.193298 258.997699 
L 333.715116 261.581912 
L 335.236934 268.763381 
L 335.236934 268.763381 
" style="fill:none;stroke:#1f77b4;stroke-linecap:square;stroke-width:1.5;"/>
   </g>
   <g id="patch_13">
    <path d="M 29.35148 350.429588 
L 29.35148 208.620893 
" style="fill:none;stroke:#000000;stroke-linecap:square;stroke-linejoin:miter;stroke-width:0.8;"/>
   </g>
   <g id="patch_14">
    <path d="M 333.715116 350.429588 
L 333.715116 208.620893 
" style="fill:none;stroke:#000000;stroke-linecap:square;stroke-linejoin:miter;stroke-width:0.8;"/>
   </g>
   <g id="patch_15">
    <path d="M 29.35148 350.429588 
L 333.715116 350.429588 
" style="fill:none;stroke:#000000;stroke-linecap:square;stroke-linejoin:miter;stroke-width:0.8;"/>
   </g>
   <g id="patch_16">
    <path d="M 29.35148 208.620893 
L 333.715116 208.620893 
" style="fill:none;stroke:#000000;stroke-linecap:square;stroke-linejoin:miter;stroke-width:0.8;"/>
   </g>
   <g id="text_45">
    <!-- $z$ ($M=5$) -->
    <g transform="translate(146.099798 202.620893)scale(0.16 -0.16)">
     <defs>
      <path d="M 813 486 
C 1088 809 1312 1015 1632 1313 
C 2016 1657 2182 1822 2272 1922 
C 2720 2371 2944 2713 2944 2764 
C 2944 2816 2893 2816 2880 2816 
C 2835 2816 2822 2790 2790 2745 
C 2630 2470 2477 2368 2310 2368 
C 2176 2368 2106 2403 1984 2547 
C 1850 2707 1741 2816 1555 2816 
C 1088 2816 806 2265 806 2127 
C 806 2107 813 2067 870 2067 
C 922 2067 928 2094 947 2140 
C 1056 2387 1363 2415 1485 2415 
C 1619 2415 1747 2387 1882 2342 
C 2125 2239 2227 2239 2291 2239 
C 2336 2239 2362 2239 2394 2246 
C 2182 1988 1837 1670 1549 1399 
L 902 783 
C 512 380 275 32 275 -13 
C 275 -52 307 -64 346 -64 
C 384 -64 390 -58 435 19 
C 538 179 742 384 979 384 
C 1114 384 1178 356 1306 211 
C 1427 70 1536 -64 1741 -64 
C 2368 -64 2726 723 2726 876 
C 2726 902 2720 942 2656 942 
C 2605 942 2598 915 2579 849 
C 2438 460 2061 336 1811 336 
C 1677 336 1549 364 1414 409 
C 1158 512 1088 512 1005 512 
C 941 512 870 512 813 486 
z
" id="CMMI12-7a" transform="scale(0.015625)"/>
      <path d="M 1958 -1562 
C 1958 -1556 1958 -1543 1939 -1524 
C 1645 -1223 858 -403 858 1596 
C 858 3595 1632 4408 1946 4729 
C 1946 4735 1958 4748 1958 4767 
C 1958 4787 1939 4800 1914 4800 
C 1843 4800 1299 4325 986 3620 
C 666 2909 576 2218 576 1603 
C 576 1141 621 360 1005 -467 
C 1312 -1133 1837 -1600 1914 -1600 
C 1946 -1600 1958 -1588 1958 -1562 
z
" id="CMR17-28" transform="scale(0.015625)"/>
      <path d="M 5811 3886 
C 5869 4102 5882 4166 6336 4166 
C 6458 4166 6515 4166 6515 4287 
C 6515 4352 6470 4352 6349 4352 
L 5581 4352 
C 5421 4352 5414 4345 5344 4243 
L 3008 567 
L 2528 4211 
C 2509 4352 2502 4352 2336 4352 
L 1542 4352 
C 1421 4352 1363 4352 1363 4230 
C 1363 4166 1421 4166 1517 4166 
C 1907 4166 1907 4115 1907 4045 
C 1907 4032 1907 3994 1882 3898 
L 1062 650 
C 986 344 838 204 410 185 
C 390 185 314 179 314 70 
C 314 0 371 0 397 0 
C 525 0 851 12 979 12 
L 1286 12 
C 1376 12 1485 0 1574 0 
C 1619 0 1690 0 1690 121 
C 1690 179 1626 185 1600 185 
C 1389 191 1184 230 1184 459 
C 1184 523 1184 529 1210 618 
L 2093 4128 
L 2099 4128 
L 2630 172 
C 2650 19 2656 0 2714 0 
C 2784 0 2816 51 2848 108 
L 5421 4159 
L 5427 4159 
L 4499 472 
C 4442 249 4429 185 3981 185 
C 3859 185 3795 185 3795 70 
C 3795 0 3853 0 3891 0 
C 4000 0 4128 12 4237 12 
L 4992 12 
C 5101 12 5235 0 5344 0 
C 5395 0 5466 0 5466 121 
C 5466 185 5408 185 5312 185 
C 4922 185 4922 236 4922 300 
C 4922 306 4922 351 4934 402 
L 5811 3886 
z
" id="CMMI12-4d" transform="scale(0.015625)"/>
      <path d="M 4115 2048 
C 4211 2048 4307 2048 4307 2156 
C 4307 2272 4198 2272 4090 2272 
L 512 2272 
C 403 2272 294 2272 294 2156 
C 294 2048 390 2048 486 2048 
L 4115 2048 
z
M 4090 927 
C 4198 927 4307 927 4307 1043 
C 4307 1152 4211 1152 4115 1152 
L 486 1152 
C 390 1152 294 1152 294 1043 
C 294 927 403 927 512 927 
L 4090 927 
z
" id="CMR17-3d" transform="scale(0.015625)"/>
      <path d="M 1683 1596 
C 1683 2057 1638 2839 1254 3665 
C 947 4332 422 4800 346 4800 
C 326 4800 301 4793 301 4761 
C 301 4748 307 4742 314 4729 
C 621 4408 1402 3595 1402 1603 
C 1402 -396 627 -1210 314 -1530 
C 307 -1543 301 -1549 301 -1562 
C 301 -1594 326 -1600 346 -1600 
C 416 -1600 960 -1127 1274 -422 
C 1594 289 1683 981 1683 1596 
z
" id="CMR17-29" transform="scale(0.015625)"/>
     </defs>
     <use transform="scale(0.996264)" xlink:href="#CMMI12-7a"/>
     <use transform="translate(79.831111 0)scale(0.996264)" xlink:href="#CMR17-28"/>
     <use transform="translate(115.111879 0)scale(0.996264)" xlink:href="#CMMI12-4d"/>
     <use transform="translate(247.565967 0)scale(0.996264)" xlink:href="#CMR17-3d"/>
     <use transform="translate(346.954764 0)scale(0.996264)" xlink:href="#CMR17-35"/>
     <use transform="translate(392.645241 0)scale(0.996264)" xlink:href="#CMR17-29"/>
    </g>
   </g>
  </g>
  <g id="axes_4">
   <g id="patch_17">
    <path d="M 394.587843 350.429588 
L 698.95148 350.429588 
L 698.95148 208.620893 
L 394.587843 208.620893 
z
" style="fill:#ffffff;"/>
   </g>
   <g id="matplotlib.axis_7">
    <g id="xtick_28">
     <g id="line2d_88">
      <path clip-path="url(#pff929e93e2)" d="M 394.587843 350.429588 
L 394.587843 208.620893 
" style="fill:none;stroke:#b0b0b0;stroke-linecap:square;stroke-width:0.8;"/>
     </g>
     <g id="line2d_89">
      <g>
       <use style="stroke:#000000;stroke-width:0.8;" x="394.587843" xlink:href="#mbcc807c71e" y="350.429588"/>
      </g>
     </g>
     <g id="text_46">
      <!-- $\mathdefault{0}$ -->
      <g transform="translate(391.661348 365.731768)scale(0.12 -0.12)">
       <use transform="scale(0.996264)" xlink:href="#CMR17-30"/>
      </g>
     </g>
    </g>
    <g id="xtick_29">
     <g id="line2d_90">
      <path clip-path="url(#pff929e93e2)" d="M 432.633298 350.429588 
L 432.633298 208.620893 
" style="fill:none;stroke:#b0b0b0;stroke-linecap:square;stroke-width:0.8;"/>
     </g>
     <g id="line2d_91">
      <g>
       <use style="stroke:#000000;stroke-width:0.8;" x="432.633298" xlink:href="#mbcc807c71e" y="350.429588"/>
      </g>
     </g>
     <g id="text_47">
      <!-- $\mathdefault{25}$ -->
      <g transform="translate(426.780308 365.731768)scale(0.12 -0.12)">
       <use transform="scale(0.996264)" xlink:href="#CMR17-32"/>
       <use transform="translate(45.690477 0)scale(0.996264)" xlink:href="#CMR17-35"/>
      </g>
     </g>
    </g>
    <g id="xtick_30">
     <g id="line2d_92">
      <path clip-path="url(#pff929e93e2)" d="M 470.678752 350.429588 
L 470.678752 208.620893 
" style="fill:none;stroke:#b0b0b0;stroke-linecap:square;stroke-width:0.8;"/>
     </g>
     <g id="line2d_93">
      <g>
       <use style="stroke:#000000;stroke-width:0.8;" x="470.678752" xlink:href="#mbcc807c71e" y="350.429588"/>
      </g>
     </g>
     <g id="text_48">
      <!-- $\mathdefault{50}$ -->
      <g transform="translate(464.825762 365.731768)scale(0.12 -0.12)">
       <use transform="scale(0.996264)" xlink:href="#CMR17-35"/>
       <use transform="translate(45.690477 0)scale(0.996264)" xlink:href="#CMR17-30"/>
      </g>
     </g>
    </g>
    <g id="xtick_31">
     <g id="line2d_94">
      <path clip-path="url(#pff929e93e2)" d="M 508.724207 350.429588 
L 508.724207 208.620893 
" style="fill:none;stroke:#b0b0b0;stroke-linecap:square;stroke-width:0.8;"/>
     </g>
     <g id="line2d_95">
      <g>
       <use style="stroke:#000000;stroke-width:0.8;" x="508.724207" xlink:href="#mbcc807c71e" y="350.429588"/>
      </g>
     </g>
     <g id="text_49">
      <!-- $\mathdefault{75}$ -->
      <g transform="translate(502.871217 365.731768)scale(0.12 -0.12)">
       <use transform="scale(0.996264)" xlink:href="#CMR17-37"/>
       <use transform="translate(45.690477 0)scale(0.996264)" xlink:href="#CMR17-35"/>
      </g>
     </g>
    </g>
    <g id="xtick_32">
     <g id="line2d_96">
      <path clip-path="url(#pff929e93e2)" d="M 546.769661 350.429588 
L 546.769661 208.620893 
" style="fill:none;stroke:#b0b0b0;stroke-linecap:square;stroke-width:0.8;"/>
     </g>
     <g id="line2d_97">
      <g>
       <use style="stroke:#000000;stroke-width:0.8;" x="546.769661" xlink:href="#mbcc807c71e" y="350.429588"/>
      </g>
     </g>
     <g id="text_50">
      <!-- $\mathdefault{100}$ -->
      <g transform="translate(537.990176 365.731768)scale(0.12 -0.12)">
       <use transform="scale(0.996264)" xlink:href="#CMR17-31"/>
       <use transform="translate(45.690477 0)scale(0.996264)" xlink:href="#CMR17-30"/>
       <use transform="translate(91.380954 0)scale(0.996264)" xlink:href="#CMR17-30"/>
      </g>
     </g>
    </g>
    <g id="xtick_33">
     <g id="line2d_98">
      <path clip-path="url(#pff929e93e2)" d="M 584.815116 350.429588 
L 584.815116 208.620893 
" style="fill:none;stroke:#b0b0b0;stroke-linecap:square;stroke-width:0.8;"/>
     </g>
     <g id="line2d_99">
      <g>
       <use style="stroke:#000000;stroke-width:0.8;" x="584.815116" xlink:href="#mbcc807c71e" y="350.429588"/>
      </g>
     </g>
     <g id="text_51">
      <!-- $\mathdefault{125}$ -->
      <g transform="translate(576.035631 365.731768)scale(0.12 -0.12)">
       <use transform="scale(0.996264)" xlink:href="#CMR17-31"/>
       <use transform="translate(45.690477 0)scale(0.996264)" xlink:href="#CMR17-32"/>
       <use transform="translate(91.380954 0)scale(0.996264)" xlink:href="#CMR17-35"/>
      </g>
     </g>
    </g>
    <g id="xtick_34">
     <g id="line2d_100">
      <path clip-path="url(#pff929e93e2)" d="M 622.860571 350.429588 
L 622.860571 208.620893 
" style="fill:none;stroke:#b0b0b0;stroke-linecap:square;stroke-width:0.8;"/>
     </g>
     <g id="line2d_101">
      <g>
       <use style="stroke:#000000;stroke-width:0.8;" x="622.860571" xlink:href="#mbcc807c71e" y="350.429588"/>
      </g>
     </g>
     <g id="text_52">
      <!-- $\mathdefault{150}$ -->
      <g transform="translate(614.081085 365.731768)scale(0.12 -0.12)">
       <use transform="scale(0.996264)" xlink:href="#CMR17-31"/>
       <use transform="translate(45.690477 0)scale(0.996264)" xlink:href="#CMR17-35"/>
       <use transform="translate(91.380954 0)scale(0.996264)" xlink:href="#CMR17-30"/>
      </g>
     </g>
    </g>
    <g id="xtick_35">
     <g id="line2d_102">
      <path clip-path="url(#pff929e93e2)" d="M 660.906025 350.429588 
L 660.906025 208.620893 
" style="fill:none;stroke:#b0b0b0;stroke-linecap:square;stroke-width:0.8;"/>
     </g>
     <g id="line2d_103">
      <g>
       <use style="stroke:#000000;stroke-width:0.8;" x="660.906025" xlink:href="#mbcc807c71e" y="350.429588"/>
      </g>
     </g>
     <g id="text_53">
      <!-- $\mathdefault{175}$ -->
      <g transform="translate(652.12654 365.731768)scale(0.12 -0.12)">
       <use transform="scale(0.996264)" xlink:href="#CMR17-31"/>
       <use transform="translate(45.690477 0)scale(0.996264)" xlink:href="#CMR17-37"/>
       <use transform="translate(91.380954 0)scale(0.996264)" xlink:href="#CMR17-35"/>
      </g>
     </g>
    </g>
    <g id="xtick_36">
     <g id="line2d_104">
      <path clip-path="url(#pff929e93e2)" d="M 698.95148 350.429588 
L 698.95148 208.620893 
" style="fill:none;stroke:#b0b0b0;stroke-linecap:square;stroke-width:0.8;"/>
     </g>
     <g id="line2d_105">
      <g>
       <use style="stroke:#000000;stroke-width:0.8;" x="698.95148" xlink:href="#mbcc807c71e" y="350.429588"/>
      </g>
     </g>
     <g id="text_54">
      <!-- $\mathdefault{200}$ -->
      <g transform="translate(690.171994 365.731768)scale(0.12 -0.12)">
       <use transform="scale(0.996264)" xlink:href="#CMR17-32"/>
       <use transform="translate(45.690477 0)scale(0.996264)" xlink:href="#CMR17-30"/>
       <use transform="translate(91.380954 0)scale(0.996264)" xlink:href="#CMR17-30"/>
      </g>
     </g>
    </g>
   </g>
   <g id="matplotlib.axis_8">
    <g id="ytick_16">
     <g id="line2d_106">
      <path clip-path="url(#pff929e93e2)" d="M 394.587843 350.429588 
L 698.95148 350.429588 
" style="fill:none;stroke:#b0b0b0;stroke-linecap:square;stroke-width:0.8;"/>
     </g>
     <g id="line2d_107">
      <g>
       <use style="stroke:#000000;stroke-width:0.8;" x="394.587843" xlink:href="#m9fdbb7cd16" y="350.429588"/>
      </g>
     </g>
     <g id="text_55">
      <!-- $\mathdefault{−2}$ -->
      <g transform="translate(372.436364 354.580678)scale(0.12 -0.12)">
       <use transform="scale(0.996264)" xlink:href="#CMSY10-0"/>
       <use transform="translate(77.487468 0)scale(0.996264)" xlink:href="#CMR17-32"/>
      </g>
     </g>
    </g>
    <g id="ytick_17">
     <g id="line2d_108">
      <path clip-path="url(#pff929e93e2)" d="M 394.587843 314.977414 
L 698.95148 314.977414 
" style="fill:none;stroke:#b0b0b0;stroke-linecap:square;stroke-width:0.8;"/>
     </g>
     <g id="line2d_109">
      <g>
       <use style="stroke:#000000;stroke-width:0.8;" x="394.587843" xlink:href="#m9fdbb7cd16" y="314.977414"/>
      </g>
     </g>
     <g id="text_56">
      <!-- $\mathdefault{−1}$ -->
      <g transform="translate(372.436364 319.128504)scale(0.12 -0.12)">
       <use transform="scale(0.996264)" xlink:href="#CMSY10-0"/>
       <use transform="translate(77.487468 0)scale(0.996264)" xlink:href="#CMR17-31"/>
      </g>
     </g>
    </g>
    <g id="ytick_18">
     <g id="line2d_110">
      <path clip-path="url(#pff929e93e2)" d="M 394.587843 279.52524 
L 698.95148 279.52524 
" style="fill:none;stroke:#b0b0b0;stroke-linecap:square;stroke-width:0.8;"/>
     </g>
     <g id="line2d_111">
      <g>
       <use style="stroke:#000000;stroke-width:0.8;" x="394.587843" xlink:href="#m9fdbb7cd16" y="279.52524"/>
      </g>
     </g>
     <g id="text_57">
      <!-- $\mathdefault{0}$ -->
      <g transform="translate(381.734853 283.67633)scale(0.12 -0.12)">
       <use transform="scale(0.996264)" xlink:href="#CMR17-30"/>
      </g>
     </g>
    </g>
    <g id="ytick_19">
     <g id="line2d_112">
      <path clip-path="url(#pff929e93e2)" d="M 394.587843 244.073067 
L 698.95148 244.073067 
" style="fill:none;stroke:#b0b0b0;stroke-linecap:square;stroke-width:0.8;"/>
     </g>
     <g id="line2d_113">
      <g>
       <use style="stroke:#000000;stroke-width:0.8;" x="394.587843" xlink:href="#m9fdbb7cd16" y="244.073067"/>
      </g>
     </g>
     <g id="text_58">
      <!-- $\mathdefault{1}$ -->
      <g transform="translate(381.734853 248.224156)scale(0.12 -0.12)">
       <use transform="scale(0.996264)" xlink:href="#CMR17-31"/>
      </g>
     </g>
    </g>
    <g id="ytick_20">
     <g id="line2d_114">
      <path clip-path="url(#pff929e93e2)" d="M 394.587843 208.620893 
L 698.95148 208.620893 
" style="fill:none;stroke:#b0b0b0;stroke-linecap:square;stroke-width:0.8;"/>
     </g>
     <g id="line2d_115">
      <g>
       <use style="stroke:#000000;stroke-width:0.8;" x="394.587843" xlink:href="#m9fdbb7cd16" y="208.620893"/>
      </g>
     </g>
     <g id="text_59">
      <!-- $\mathdefault{2}$ -->
      <g transform="translate(381.734853 212.771983)scale(0.12 -0.12)">
       <use transform="scale(0.996264)" xlink:href="#CMR17-32"/>
      </g>
     </g>
    </g>
   </g>
   <g id="line2d_116">
    <path clip-path="url(#pff929e93e2)" d="M 394.587843 253.683552 
L 396.109661 255.295484 
L 397.63148 258.899013 
L 399.153298 263.618569 
L 400.675116 265.670896 
L 402.196934 269.998577 
L 403.718752 271.989503 
L 405.240571 276.910858 
L 406.762389 283.387302 
L 408.284207 286.42796 
L 409.806025 290.145836 
L 411.327843 291.51133 
L 414.37148 299.919872 
L 415.893298 303.82787 
L 417.415116 309.598585 
L 418.936934 309.248635 
L 420.458752 307.79459 
L 421.980571 307.778035 
L 423.502389 306.547108 
L 425.024207 304.488141 
L 428.067843 298.790877 
L 429.589661 292.377898 
L 432.633298 288.353836 
L 434.155116 287.887731 
L 435.676934 284.775581 
L 437.198752 281.940139 
L 438.720571 281.226025 
L 440.242389 279.153239 
L 441.764207 278.239044 
L 443.286025 277.530277 
L 444.807843 275.841698 
L 446.329661 275.250122 
L 447.85148 275.304638 
L 449.373298 274.212524 
L 450.895116 273.750536 
L 452.416934 274.873609 
L 455.460571 273.889039 
L 458.504207 269.588642 
L 460.026025 269.373706 
L 461.547843 263.978204 
L 464.59148 261.0578 
L 466.113298 260.169195 
L 467.635116 258.345274 
L 469.156934 257.05821 
L 470.678752 256.797377 
L 473.722389 264.06089 
L 475.244207 266.742617 
L 476.766025 267.0301 
L 478.287843 270.868277 
L 481.33148 280.189805 
L 482.853298 283.170628 
L 484.375116 289.224722 
L 485.896934 289.042464 
L 488.940571 291.414511 
L 490.462389 295.193244 
L 491.984207 297.053033 
L 493.506025 296.787575 
L 496.549661 293.693817 
L 498.07148 292.947858 
L 499.593298 294.242539 
L 501.115116 290.63486 
L 504.158752 287.274707 
L 505.680571 287.577095 
L 507.202389 285.745186 
L 508.724207 287.437626 
L 510.246025 288.949128 
L 511.767843 287.64144 
L 513.289661 287.10574 
L 517.855116 283.597609 
L 519.376934 282.021238 
L 520.898752 279.834407 
L 522.420571 277.080917 
L 523.942389 279.996996 
L 525.464207 276.763429 
L 526.986025 275.696699 
L 528.507843 273.306843 
L 530.029661 270.255432 
L 531.55148 269.456766 
L 533.073298 267.277009 
L 534.595116 265.778248 
L 536.116934 261.449104 
L 537.638752 261.036099 
L 539.160571 262.015173 
L 540.682389 260.244948 
L 542.204207 257.544519 
L 543.726025 257.112808 
L 545.247843 258.754506 
L 546.769661 256.003643 
L 548.29148 260.270884 
L 549.813298 266.682225 
L 551.335116 268.805972 
L 552.856934 273.672111 
L 554.378752 279.464097 
L 555.900571 281.863157 
L 557.422389 287.539226 
L 558.944207 292.182602 
L 560.466025 293.021087 
L 563.509661 298.28708 
L 565.03148 302.642998 
L 566.553298 305.510114 
L 568.075116 307.006949 
L 569.596934 309.295197 
L 571.118752 307.780251 
L 572.640571 304.031538 
L 574.162389 301.705878 
L 575.684207 303.094945 
L 577.206025 298.788659 
L 578.727843 298.427214 
L 580.249661 298.874499 
L 581.77148 298.707795 
L 583.293298 300.365673 
L 584.815116 299.055821 
L 586.336934 298.901882 
L 587.858752 299.043463 
L 589.380571 297.756955 
L 590.902389 295.371279 
L 592.424207 295.270253 
L 593.946025 294.1768 
L 595.467843 292.792687 
L 596.989661 290.60084 
L 598.51148 288.05347 
L 600.033298 286.650019 
L 601.555116 284.479151 
L 603.076934 279.21897 
L 604.598752 277.902647 
L 606.120571 274.393902 
L 607.642389 274.445461 
L 609.164207 271.778485 
L 610.686025 270.427475 
L 612.207843 271.184035 
L 613.729661 269.987487 
L 618.295116 259.223206 
L 619.816934 260.312024 
L 621.338752 258.886528 
L 622.860571 258.814882 
L 624.382389 257.533709 
L 625.904207 259.905064 
L 627.426025 261.41175 
L 628.947843 264.158692 
L 630.469661 266.061687 
L 631.99148 271.670555 
L 633.513298 273.168892 
L 635.035116 272.283139 
L 636.556934 277.717907 
L 638.078752 282.554579 
L 639.600571 289.438953 
L 641.122389 293.701372 
L 642.644207 297.144003 
L 644.166025 298.9163 
L 647.209661 303.573076 
L 648.73148 301.701169 
L 650.253298 301.633652 
L 651.775116 302.24513 
L 653.296934 299.510698 
L 656.340571 295.754987 
L 657.862389 294.302267 
L 659.384207 291.090414 
L 660.906025 291.879613 
L 662.427843 290.659113 
L 663.949661 289.224866 
L 666.993298 282.274797 
L 668.515116 278.801569 
L 673.080571 272.433383 
L 674.602389 271.756077 
L 676.124207 270.029208 
L 677.646025 267.689523 
L 679.167843 264.777141 
L 680.689661 264.760768 
L 682.21148 263.248052 
L 683.733298 260.407453 
L 685.255116 258.177312 
L 686.776934 257.716056 
L 688.298752 256.811149 
L 689.820571 256.80504 
L 691.342389 255.87336 
L 692.864207 256.880557 
L 694.386025 256.985575 
L 697.429661 256.675195 
L 698.95148 256.661898 
L 700.473298 259.229227 
L 700.473298 259.229227 
" style="fill:none;stroke:#1f77b4;stroke-linecap:square;stroke-width:1.5;"/>
   </g>
   <g id="patch_18">
    <path d="M 394.587843 350.429588 
L 394.587843 208.620893 
" style="fill:none;stroke:#000000;stroke-linecap:square;stroke-linejoin:miter;stroke-width:0.8;"/>
   </g>
   <g id="patch_19">
    <path d="M 698.95148 350.429588 
L 698.95148 208.620893 
" style="fill:none;stroke:#000000;stroke-linecap:square;stroke-linejoin:miter;stroke-width:0.8;"/>
   </g>
   <g id="patch_20">
    <path d="M 394.587843 350.429588 
L 698.95148 350.429588 
" style="fill:none;stroke:#000000;stroke-linecap:square;stroke-linejoin:miter;stroke-width:0.8;"/>
   </g>
   <g id="patch_21">
    <path d="M 394.587843 208.620893 
L 698.95148 208.620893 
" style="fill:none;stroke:#000000;stroke-linecap:square;stroke-linejoin:miter;stroke-width:0.8;"/>
   </g>
   <g id="text_60">
    <!-- $z$ ($M=15$) -->
    <g transform="translate(507.434168 202.620893)scale(0.16 -0.16)">
     <use transform="scale(0.996264)" xlink:href="#CMMI12-7a"/>
     <use transform="translate(79.831111 0)scale(0.996264)" xlink:href="#CMR17-28"/>
     <use transform="translate(115.111879 0)scale(0.996264)" xlink:href="#CMMI12-4d"/>
     <use transform="translate(247.565967 0)scale(0.996264)" xlink:href="#CMR17-3d"/>
     <use transform="translate(346.954764 0)scale(0.996264)" xlink:href="#CMR17-31"/>
     <use transform="translate(392.645241 0)scale(0.996264)" xlink:href="#CMR17-35"/>
     <use transform="translate(438.335718 0)scale(0.996264)" xlink:href="#CMR17-29"/>
    </g>
   </g>
  </g>
 </g>
 <defs>
  <clipPath id="p333cef0e82">
   <rect height="141.808696" width="304.363636" x="29.35148" y="24.269588"/>
  </clipPath>
  <clipPath id="p9c61b84dce">
   <rect height="141.808696" width="304.363636" x="394.587843" y="24.269588"/>
  </clipPath>
  <clipPath id="pf0a3a0c027">
   <rect height="141.808696" width="304.363636" x="29.35148" y="208.620893"/>
  </clipPath>
  <clipPath id="pff929e93e2">
   <rect height="141.808696" width="304.363636" x="394.587843" y="208.620893"/>
  </clipPath>
 </defs>
</svg>
