<?xml version="1.0" encoding="utf-8" standalone="no"?>
<!DOCTYPE svg PUBLIC "-//W3C//DTD SVG 1.1//EN"
  "http://www.w3.org/Graphics/SVG/1.1/DTD/svg11.dtd">
<svg xmlns:xlink="http://www.w3.org/1999/xlink" width="714.930965pt" height="381.736364pt" viewBox="0 0 714.930965 381.736364" xmlns="http://www.w3.org/2000/svg" version="1.1">
 <metadata>
  <rdf:RDF xmlns:dc="http://purl.org/dc/elements/1.1/" xmlns:cc="http://creativecommons.org/ns#" xmlns:rdf="http://www.w3.org/1999/02/22-rdf-syntax-ns#">
   <cc:Work>
    <dc:type rdf:resource="http://purl.org/dc/dcmitype/StillImage"/>
    <dc:date>2025-10-14T08:57:16.467629</dc:date>
    <dc:format>image/svg+xml</dc:format>
    <dc:creator>
     <cc:Agent>
      <dc:title>Matplotlib v3.10.6, https://matplotlib.org/</dc:title>
     </cc:Agent>
    </dc:creator>
   </cc:Work>
  </rdf:RDF>
 </metadata>
 <defs>
  <style type="text/css">*{stroke-linejoin: round; stroke-linecap: butt}</style>
 </defs>
 <g id="figure_1">
  <g id="patch_1">
   <path d="M 0 381.736364 
L 714.930965 381.736364 
L 714.930965 0 
L 0 0 
z
" style="fill: #ffffff"/>
  </g>
  <g id="axes_1">
   <g id="patch_2">
    <path d="M 29.35148 168.895675 
L 333.715116 168.895675 
L 333.715116 24.269588 
L 29.35148 24.269588 
z
" style="fill: #ffffff"/>
   </g>
   <g id="matplotlib.axis_1">
    <g id="xtick_1">
     <g id="line2d_1">
      <path d="M 29.35148 168.895675 
L 29.35148 24.269588 
" clip-path="url(#pfd4870eeb2)" style="fill: none; stroke: #b0b0b0; stroke-width: 0.8; stroke-linecap: square"/>
     </g>
     <g id="line2d_2">
      <defs>
       <path id="m7148aebcbb" d="M 0 0 
L 0 3.5 
" style="stroke: #000000; stroke-width: 0.8"/>
      </defs>
      <g>
       <use xlink:href="#m7148aebcbb" x="29.35148" y="168.895675" style="stroke: #000000; stroke-width: 0.8"/>
      </g>
     </g>
     <g id="text_1">
      <!-- $\mathdefault{0}$ -->
      <g transform="translate(26.424985 184.197855) scale(0.12 -0.12)">
       <defs>
        <path id="CMR17-30" d="M 2688 2038 
C 2688 2430 2682 3099 2413 3613 
C 2176 4063 1798 4224 1466 4224 
C 1158 4224 768 4082 525 3620 
C 269 3137 243 2539 243 2038 
C 243 1671 250 1112 448 623 
C 723 -39 1216 -128 1466 -128 
C 1760 -128 2208 -7 2470 604 
C 2662 1048 2688 1568 2688 2038 
z
M 1466 -26 
C 1056 -26 813 328 723 816 
C 653 1196 653 1749 653 2109 
C 653 2604 653 3015 736 3407 
C 858 3954 1216 4121 1466 4121 
C 1728 4121 2067 3947 2189 3420 
C 2272 3054 2278 2623 2278 2109 
C 2278 1691 2278 1176 2202 797 
C 2067 96 1690 -26 1466 -26 
z
" transform="scale(0.015625)"/>
       </defs>
       <use xlink:href="#CMR17-30" transform="scale(0.996264)"/>
      </g>
     </g>
    </g>
    <g id="xtick_2">
     <g id="line2d_3">
      <path d="M 67.396934 168.895675 
L 67.396934 24.269588 
" clip-path="url(#pfd4870eeb2)" style="fill: none; stroke: #b0b0b0; stroke-width: 0.8; stroke-linecap: square"/>
     </g>
     <g id="line2d_4">
      <g>
       <use xlink:href="#m7148aebcbb" x="67.396934" y="168.895675" style="stroke: #000000; stroke-width: 0.8"/>
      </g>
     </g>
     <g id="text_2">
      <!-- $\mathdefault{25}$ -->
      <g transform="translate(61.543944 184.197855) scale(0.12 -0.12)">
       <defs>
        <path id="CMR17-32" d="M 2669 990 
L 2554 990 
C 2490 537 2438 460 2413 422 
C 2381 371 1920 371 1830 371 
L 602 371 
C 832 620 1280 1073 1824 1596 
C 2214 1966 2669 2400 2669 3033 
C 2669 3788 2067 4224 1395 4224 
C 691 4224 262 3603 262 3027 
C 262 2777 448 2745 525 2745 
C 589 2745 781 2783 781 3007 
C 781 3206 614 3264 525 3264 
C 486 3264 448 3257 422 3244 
C 544 3788 915 4057 1306 4057 
C 1862 4057 2227 3616 2227 3033 
C 2227 2477 1901 1998 1536 1583 
L 262 147 
L 262 0 
L 2515 0 
L 2669 990 
z
" transform="scale(0.015625)"/>
        <path id="CMR17-35" d="M 730 3750 
C 794 3724 1056 3641 1325 3641 
C 1920 3641 2246 3961 2432 4140 
C 2432 4191 2432 4224 2394 4224 
C 2387 4224 2374 4224 2323 4198 
C 2099 4102 1837 4032 1517 4032 
C 1325 4032 1037 4055 723 4191 
C 653 4224 640 4224 634 4224 
C 602 4224 595 4217 595 4090 
L 595 2231 
C 595 2113 595 2080 659 2080 
C 691 2080 704 2093 736 2139 
C 941 2435 1222 2560 1542 2560 
C 1766 2560 2246 2415 2246 1293 
C 2246 1087 2246 716 2054 422 
C 1894 159 1645 25 1370 25 
C 947 25 518 319 403 812 
C 429 806 480 793 506 793 
C 589 793 749 838 749 1036 
C 749 1209 627 1280 506 1280 
C 358 1280 262 1190 262 1011 
C 262 454 704 -128 1382 -128 
C 2042 -128 2669 441 2669 1267 
C 2669 2054 2170 2662 1549 2662 
C 1222 2662 947 2540 730 2304 
L 730 3750 
z
" transform="scale(0.015625)"/>
       </defs>
       <use xlink:href="#CMR17-32" transform="scale(0.996264)"/>
       <use xlink:href="#CMR17-35" transform="translate(45.690477 0) scale(0.996264)"/>
      </g>
     </g>
    </g>
    <g id="xtick_3">
     <g id="line2d_5">
      <path d="M 105.442389 168.895675 
L 105.442389 24.269588 
" clip-path="url(#pfd4870eeb2)" style="fill: none; stroke: #b0b0b0; stroke-width: 0.8; stroke-linecap: square"/>
     </g>
     <g id="line2d_6">
      <g>
       <use xlink:href="#m7148aebcbb" x="105.442389" y="168.895675" style="stroke: #000000; stroke-width: 0.8"/>
      </g>
     </g>
     <g id="text_3">
      <!-- $\mathdefault{50}$ -->
      <g transform="translate(99.589399 184.197855) scale(0.12 -0.12)">
       <use xlink:href="#CMR17-35" transform="scale(0.996264)"/>
       <use xlink:href="#CMR17-30" transform="translate(45.690477 0) scale(0.996264)"/>
      </g>
     </g>
    </g>
    <g id="xtick_4">
     <g id="line2d_7">
      <path d="M 143.487843 168.895675 
L 143.487843 24.269588 
" clip-path="url(#pfd4870eeb2)" style="fill: none; stroke: #b0b0b0; stroke-width: 0.8; stroke-linecap: square"/>
     </g>
     <g id="line2d_8">
      <g>
       <use xlink:href="#m7148aebcbb" x="143.487843" y="168.895675" style="stroke: #000000; stroke-width: 0.8"/>
      </g>
     </g>
     <g id="text_4">
      <!-- $\mathdefault{75}$ -->
      <g transform="translate(137.634853 184.197855) scale(0.12 -0.12)">
       <defs>
        <path id="CMR17-37" d="M 2886 3955 
L 2886 4096 
L 1382 4096 
C 634 4096 621 4166 595 4288 
L 480 4288 
L 294 3104 
L 410 3104 
C 429 3226 474 3552 550 3673 
C 589 3724 1062 3724 1171 3724 
L 2579 3724 
L 1869 2670 
C 1395 1961 1069 1003 1069 166 
C 1069 89 1069 -128 1299 -128 
C 1530 -128 1530 89 1530 172 
L 1530 466 
C 1530 1514 1709 2204 2003 2644 
L 2886 3955 
z
" transform="scale(0.015625)"/>
       </defs>
       <use xlink:href="#CMR17-37" transform="scale(0.996264)"/>
       <use xlink:href="#CMR17-35" transform="translate(45.690477 0) scale(0.996264)"/>
      </g>
     </g>
    </g>
    <g id="xtick_5">
     <g id="line2d_9">
      <path d="M 181.533298 168.895675 
L 181.533298 24.269588 
" clip-path="url(#pfd4870eeb2)" style="fill: none; stroke: #b0b0b0; stroke-width: 0.8; stroke-linecap: square"/>
     </g>
     <g id="line2d_10">
      <g>
       <use xlink:href="#m7148aebcbb" x="181.533298" y="168.895675" style="stroke: #000000; stroke-width: 0.8"/>
      </g>
     </g>
     <g id="text_5">
      <!-- $\mathdefault{100}$ -->
      <g transform="translate(172.753812 184.197855) scale(0.12 -0.12)">
       <defs>
        <path id="CMR17-31" d="M 1702 4083 
C 1702 4217 1696 4224 1606 4224 
C 1357 3927 979 3833 621 3820 
C 602 3820 570 3820 563 3808 
C 557 3795 557 3782 557 3648 
C 755 3648 1088 3686 1344 3839 
L 1344 467 
C 1344 243 1331 166 781 166 
L 589 166 
L 589 0 
C 896 6 1216 12 1523 12 
C 1830 12 2150 6 2458 0 
L 2458 166 
L 2266 166 
C 1715 166 1702 236 1702 467 
L 1702 4083 
z
" transform="scale(0.015625)"/>
       </defs>
       <use xlink:href="#CMR17-31" transform="scale(0.996264)"/>
       <use xlink:href="#CMR17-30" transform="translate(45.690477 0) scale(0.996264)"/>
       <use xlink:href="#CMR17-30" transform="translate(91.380954 0) scale(0.996264)"/>
      </g>
     </g>
    </g>
    <g id="xtick_6">
     <g id="line2d_11">
      <path d="M 219.578752 168.895675 
L 219.578752 24.269588 
" clip-path="url(#pfd4870eeb2)" style="fill: none; stroke: #b0b0b0; stroke-width: 0.8; stroke-linecap: square"/>
     </g>
     <g id="line2d_12">
      <g>
       <use xlink:href="#m7148aebcbb" x="219.578752" y="168.895675" style="stroke: #000000; stroke-width: 0.8"/>
      </g>
     </g>
     <g id="text_6">
      <!-- $\mathdefault{125}$ -->
      <g transform="translate(210.799267 184.197855) scale(0.12 -0.12)">
       <use xlink:href="#CMR17-31" transform="scale(0.996264)"/>
       <use xlink:href="#CMR17-32" transform="translate(45.690477 0) scale(0.996264)"/>
       <use xlink:href="#CMR17-35" transform="translate(91.380954 0) scale(0.996264)"/>
      </g>
     </g>
    </g>
    <g id="xtick_7">
     <g id="line2d_13">
      <path d="M 257.624207 168.895675 
L 257.624207 24.269588 
" clip-path="url(#pfd4870eeb2)" style="fill: none; stroke: #b0b0b0; stroke-width: 0.8; stroke-linecap: square"/>
     </g>
     <g id="line2d_14">
      <g>
       <use xlink:href="#m7148aebcbb" x="257.624207" y="168.895675" style="stroke: #000000; stroke-width: 0.8"/>
      </g>
     </g>
     <g id="text_7">
      <!-- $\mathdefault{150}$ -->
      <g transform="translate(248.844722 184.197855) scale(0.12 -0.12)">
       <use xlink:href="#CMR17-31" transform="scale(0.996264)"/>
       <use xlink:href="#CMR17-35" transform="translate(45.690477 0) scale(0.996264)"/>
       <use xlink:href="#CMR17-30" transform="translate(91.380954 0) scale(0.996264)"/>
      </g>
     </g>
    </g>
    <g id="xtick_8">
     <g id="line2d_15">
      <path d="M 295.669661 168.895675 
L 295.669661 24.269588 
" clip-path="url(#pfd4870eeb2)" style="fill: none; stroke: #b0b0b0; stroke-width: 0.8; stroke-linecap: square"/>
     </g>
     <g id="line2d_16">
      <g>
       <use xlink:href="#m7148aebcbb" x="295.669661" y="168.895675" style="stroke: #000000; stroke-width: 0.8"/>
      </g>
     </g>
     <g id="text_8">
      <!-- $\mathdefault{175}$ -->
      <g transform="translate(286.890176 184.197855) scale(0.12 -0.12)">
       <use xlink:href="#CMR17-31" transform="scale(0.996264)"/>
       <use xlink:href="#CMR17-37" transform="translate(45.690477 0) scale(0.996264)"/>
       <use xlink:href="#CMR17-35" transform="translate(91.380954 0) scale(0.996264)"/>
      </g>
     </g>
    </g>
    <g id="xtick_9">
     <g id="line2d_17">
      <path d="M 333.715116 168.895675 
L 333.715116 24.269588 
" clip-path="url(#pfd4870eeb2)" style="fill: none; stroke: #b0b0b0; stroke-width: 0.8; stroke-linecap: square"/>
     </g>
     <g id="line2d_18">
      <g>
       <use xlink:href="#m7148aebcbb" x="333.715116" y="168.895675" style="stroke: #000000; stroke-width: 0.8"/>
      </g>
     </g>
     <g id="text_9">
      <!-- $\mathdefault{200}$ -->
      <g transform="translate(324.935631 184.197855) scale(0.12 -0.12)">
       <use xlink:href="#CMR17-32" transform="scale(0.996264)"/>
       <use xlink:href="#CMR17-30" transform="translate(45.690477 0) scale(0.996264)"/>
       <use xlink:href="#CMR17-30" transform="translate(91.380954 0) scale(0.996264)"/>
      </g>
     </g>
    </g>
   </g>
   <g id="matplotlib.axis_2">
    <g id="ytick_1">
     <g id="line2d_19">
      <path d="M 29.35148 168.895675 
L 333.715116 168.895675 
" clip-path="url(#pfd4870eeb2)" style="fill: none; stroke: #b0b0b0; stroke-width: 0.8; stroke-linecap: square"/>
     </g>
     <g id="line2d_20">
      <defs>
       <path id="m4b8c474e7a" d="M 0 0 
L -3.5 0 
" style="stroke: #000000; stroke-width: 0.8"/>
      </defs>
      <g>
       <use xlink:href="#m4b8c474e7a" x="29.35148" y="168.895675" style="stroke: #000000; stroke-width: 0.8"/>
      </g>
     </g>
     <g id="text_10">
      <!-- $\mathdefault{−2}$ -->
      <g transform="translate(7.2 173.046765) scale(0.12 -0.12)">
       <defs>
        <path id="CMSY10-0" d="M 4218 1472 
C 4326 1472 4442 1472 4442 1600 
C 4442 1728 4326 1728 4218 1728 
L 755 1728 
C 646 1728 531 1728 531 1600 
C 531 1472 646 1472 755 1472 
L 4218 1472 
z
" transform="scale(0.015625)"/>
       </defs>
       <use xlink:href="#CMSY10-0" transform="scale(0.996264)"/>
       <use xlink:href="#CMR17-32" transform="translate(77.487468 0) scale(0.996264)"/>
      </g>
     </g>
    </g>
    <g id="ytick_2">
     <g id="line2d_21">
      <path d="M 29.35148 132.739154 
L 333.715116 132.739154 
" clip-path="url(#pfd4870eeb2)" style="fill: none; stroke: #b0b0b0; stroke-width: 0.8; stroke-linecap: square"/>
     </g>
     <g id="line2d_22">
      <g>
       <use xlink:href="#m4b8c474e7a" x="29.35148" y="132.739154" style="stroke: #000000; stroke-width: 0.8"/>
      </g>
     </g>
     <g id="text_11">
      <!-- $\mathdefault{−1}$ -->
      <g transform="translate(7.2 136.890243) scale(0.12 -0.12)">
       <use xlink:href="#CMSY10-0" transform="scale(0.996264)"/>
       <use xlink:href="#CMR17-31" transform="translate(77.487468 0) scale(0.996264)"/>
      </g>
     </g>
    </g>
    <g id="ytick_3">
     <g id="line2d_23">
      <path d="M 29.35148 96.582632 
L 333.715116 96.582632 
" clip-path="url(#pfd4870eeb2)" style="fill: none; stroke: #b0b0b0; stroke-width: 0.8; stroke-linecap: square"/>
     </g>
     <g id="line2d_24">
      <g>
       <use xlink:href="#m4b8c474e7a" x="29.35148" y="96.582632" style="stroke: #000000; stroke-width: 0.8"/>
      </g>
     </g>
     <g id="text_12">
      <!-- $\mathdefault{0}$ -->
      <g transform="translate(16.498489 100.733722) scale(0.12 -0.12)">
       <use xlink:href="#CMR17-30" transform="scale(0.996264)"/>
      </g>
     </g>
    </g>
    <g id="ytick_4">
     <g id="line2d_25">
      <path d="M 29.35148 60.42611 
L 333.715116 60.42611 
" clip-path="url(#pfd4870eeb2)" style="fill: none; stroke: #b0b0b0; stroke-width: 0.8; stroke-linecap: square"/>
     </g>
     <g id="line2d_26">
      <g>
       <use xlink:href="#m4b8c474e7a" x="29.35148" y="60.42611" style="stroke: #000000; stroke-width: 0.8"/>
      </g>
     </g>
     <g id="text_13">
      <!-- $\mathdefault{1}$ -->
      <g transform="translate(16.498489 64.5772) scale(0.12 -0.12)">
       <use xlink:href="#CMR17-31" transform="scale(0.996264)"/>
      </g>
     </g>
    </g>
    <g id="ytick_5">
     <g id="line2d_27">
      <path d="M 29.35148 24.269588 
L 333.715116 24.269588 
" clip-path="url(#pfd4870eeb2)" style="fill: none; stroke: #b0b0b0; stroke-width: 0.8; stroke-linecap: square"/>
     </g>
     <g id="line2d_28">
      <g>
       <use xlink:href="#m4b8c474e7a" x="29.35148" y="24.269588" style="stroke: #000000; stroke-width: 0.8"/>
      </g>
     </g>
     <g id="text_14">
      <!-- $\mathdefault{2}$ -->
      <g transform="translate(16.498489 28.420678) scale(0.12 -0.12)">
       <use xlink:href="#CMR17-32" transform="scale(0.996264)"/>
      </g>
     </g>
    </g>
   </g>
   <g id="line2d_29">
    <path d="M 29.35148 132.739154 
L 103.920571 61.872371 
L 105.442389 132.739154 
L 180.01148 61.872371 
L 181.533298 132.739154 
L 256.102389 61.872371 
L 257.624207 132.739154 
L 332.193298 61.872371 
L 333.715116 132.739154 
L 335.236934 131.292893 
L 335.236934 131.292893 
" clip-path="url(#pfd4870eeb2)" style="fill: none; stroke: #1f77b4; stroke-width: 1.5; stroke-linecap: square"/>
   </g>
   <g id="patch_3">
    <path d="M 29.35148 168.895675 
L 29.35148 24.269588 
" style="fill: none; stroke: #000000; stroke-width: 0.8; stroke-linejoin: miter; stroke-linecap: square"/>
   </g>
   <g id="patch_4">
    <path d="M 333.715116 168.895675 
L 333.715116 24.269588 
" style="fill: none; stroke: #000000; stroke-width: 0.8; stroke-linejoin: miter; stroke-linecap: square"/>
   </g>
   <g id="patch_5">
    <path d="M 29.35148 168.895675 
L 333.715116 168.895675 
" style="fill: none; stroke: #000000; stroke-width: 0.8; stroke-linejoin: miter; stroke-linecap: square"/>
   </g>
   <g id="patch_6">
    <path d="M 29.35148 24.269588 
L 333.715116 24.269588 
" style="fill: none; stroke: #000000; stroke-width: 0.8; stroke-linejoin: miter; stroke-linecap: square"/>
   </g>
   <g id="text_15">
    <!-- $x$ -->
    <g transform="translate(177.098573 18.269588) scale(0.16 -0.16)">
     <defs>
      <path id="CMMI12-78" d="M 3034 2624 
C 2829 2585 2752 2431 2752 2310 
C 2752 2156 2874 2105 2963 2105 
C 3155 2105 3290 2271 3290 2444 
C 3290 2694 2982 2816 2714 2816 
C 2323 2816 2106 2451 2048 2329 
C 1901 2790 1504 2816 1389 2816 
C 736 2816 390 1993 390 1849 
C 390 1823 416 1790 461 1790 
C 512 1790 525 1829 538 1855 
C 755 2572 1184 2687 1370 2687 
C 1658 2687 1715 2438 1715 2284 
C 1715 2143 1677 1993 1600 1678 
L 1382 778 
C 1286 390 1101 64 762 64 
C 730 64 570 64 435 126 
C 666 166 717 358 717 435 
C 717 563 621 640 499 640 
C 346 640 179 505 179 300 
C 179 57 480 -64 755 -64 
C 1062 -64 1280 153 1414 415 
C 1517 64 1837 -64 2074 -64 
C 2726 -64 3072 751 3072 896 
C 3072 929 3046 955 3008 955 
C 2950 955 2944 922 2925 870 
C 2752 300 2381 64 2093 64 
C 1869 64 1747 204 1747 467 
C 1747 607 1773 712 1875 1146 
L 2099 2039 
C 2195 2425 2413 2687 2707 2687 
C 2720 2687 2899 2687 3034 2624 
z
" transform="scale(0.015625)"/>
     </defs>
     <use xlink:href="#CMMI12-78" transform="scale(0.996264)"/>
    </g>
   </g>
  </g>
  <g id="axes_2">
   <g id="patch_7">
    <path d="M 394.587843 168.895675 
L 698.95148 168.895675 
L 698.95148 24.269588 
L 394.587843 24.269588 
z
" style="fill: #ffffff"/>
   </g>
   <g id="matplotlib.axis_3">
    <g id="xtick_10">
     <g id="line2d_30">
      <path d="M 394.587843 168.895675 
L 394.587843 24.269588 
" clip-path="url(#p0302392cd9)" style="fill: none; stroke: #b0b0b0; stroke-width: 0.8; stroke-linecap: square"/>
     </g>
     <g id="line2d_31">
      <g>
       <use xlink:href="#m7148aebcbb" x="394.587843" y="168.895675" style="stroke: #000000; stroke-width: 0.8"/>
      </g>
     </g>
     <g id="text_16">
      <!-- $\mathdefault{0}$ -->
      <g transform="translate(391.661348 184.197855) scale(0.12 -0.12)">
       <use xlink:href="#CMR17-30" transform="scale(0.996264)"/>
      </g>
     </g>
    </g>
    <g id="xtick_11">
     <g id="line2d_32">
      <path d="M 432.633298 168.895675 
L 432.633298 24.269588 
" clip-path="url(#p0302392cd9)" style="fill: none; stroke: #b0b0b0; stroke-width: 0.8; stroke-linecap: square"/>
     </g>
     <g id="line2d_33">
      <g>
       <use xlink:href="#m7148aebcbb" x="432.633298" y="168.895675" style="stroke: #000000; stroke-width: 0.8"/>
      </g>
     </g>
     <g id="text_17">
      <!-- $\mathdefault{25}$ -->
      <g transform="translate(426.780308 184.197855) scale(0.12 -0.12)">
       <use xlink:href="#CMR17-32" transform="scale(0.996264)"/>
       <use xlink:href="#CMR17-35" transform="translate(45.690477 0) scale(0.996264)"/>
      </g>
     </g>
    </g>
    <g id="xtick_12">
     <g id="line2d_34">
      <path d="M 470.678752 168.895675 
L 470.678752 24.269588 
" clip-path="url(#p0302392cd9)" style="fill: none; stroke: #b0b0b0; stroke-width: 0.8; stroke-linecap: square"/>
     </g>
     <g id="line2d_35">
      <g>
       <use xlink:href="#m7148aebcbb" x="470.678752" y="168.895675" style="stroke: #000000; stroke-width: 0.8"/>
      </g>
     </g>
     <g id="text_18">
      <!-- $\mathdefault{50}$ -->
      <g transform="translate(464.825762 184.197855) scale(0.12 -0.12)">
       <use xlink:href="#CMR17-35" transform="scale(0.996264)"/>
       <use xlink:href="#CMR17-30" transform="translate(45.690477 0) scale(0.996264)"/>
      </g>
     </g>
    </g>
    <g id="xtick_13">
     <g id="line2d_36">
      <path d="M 508.724207 168.895675 
L 508.724207 24.269588 
" clip-path="url(#p0302392cd9)" style="fill: none; stroke: #b0b0b0; stroke-width: 0.8; stroke-linecap: square"/>
     </g>
     <g id="line2d_37">
      <g>
       <use xlink:href="#m7148aebcbb" x="508.724207" y="168.895675" style="stroke: #000000; stroke-width: 0.8"/>
      </g>
     </g>
     <g id="text_19">
      <!-- $\mathdefault{75}$ -->
      <g transform="translate(502.871217 184.197855) scale(0.12 -0.12)">
       <use xlink:href="#CMR17-37" transform="scale(0.996264)"/>
       <use xlink:href="#CMR17-35" transform="translate(45.690477 0) scale(0.996264)"/>
      </g>
     </g>
    </g>
    <g id="xtick_14">
     <g id="line2d_38">
      <path d="M 546.769661 168.895675 
L 546.769661 24.269588 
" clip-path="url(#p0302392cd9)" style="fill: none; stroke: #b0b0b0; stroke-width: 0.8; stroke-linecap: square"/>
     </g>
     <g id="line2d_39">
      <g>
       <use xlink:href="#m7148aebcbb" x="546.769661" y="168.895675" style="stroke: #000000; stroke-width: 0.8"/>
      </g>
     </g>
     <g id="text_20">
      <!-- $\mathdefault{100}$ -->
      <g transform="translate(537.990176 184.197855) scale(0.12 -0.12)">
       <use xlink:href="#CMR17-31" transform="scale(0.996264)"/>
       <use xlink:href="#CMR17-30" transform="translate(45.690477 0) scale(0.996264)"/>
       <use xlink:href="#CMR17-30" transform="translate(91.380954 0) scale(0.996264)"/>
      </g>
     </g>
    </g>
    <g id="xtick_15">
     <g id="line2d_40">
      <path d="M 584.815116 168.895675 
L 584.815116 24.269588 
" clip-path="url(#p0302392cd9)" style="fill: none; stroke: #b0b0b0; stroke-width: 0.8; stroke-linecap: square"/>
     </g>
     <g id="line2d_41">
      <g>
       <use xlink:href="#m7148aebcbb" x="584.815116" y="168.895675" style="stroke: #000000; stroke-width: 0.8"/>
      </g>
     </g>
     <g id="text_21">
      <!-- $\mathdefault{125}$ -->
      <g transform="translate(576.035631 184.197855) scale(0.12 -0.12)">
       <use xlink:href="#CMR17-31" transform="scale(0.996264)"/>
       <use xlink:href="#CMR17-32" transform="translate(45.690477 0) scale(0.996264)"/>
       <use xlink:href="#CMR17-35" transform="translate(91.380954 0) scale(0.996264)"/>
      </g>
     </g>
    </g>
    <g id="xtick_16">
     <g id="line2d_42">
      <path d="M 622.860571 168.895675 
L 622.860571 24.269588 
" clip-path="url(#p0302392cd9)" style="fill: none; stroke: #b0b0b0; stroke-width: 0.8; stroke-linecap: square"/>
     </g>
     <g id="line2d_43">
      <g>
       <use xlink:href="#m7148aebcbb" x="622.860571" y="168.895675" style="stroke: #000000; stroke-width: 0.8"/>
      </g>
     </g>
     <g id="text_22">
      <!-- $\mathdefault{150}$ -->
      <g transform="translate(614.081085 184.197855) scale(0.12 -0.12)">
       <use xlink:href="#CMR17-31" transform="scale(0.996264)"/>
       <use xlink:href="#CMR17-35" transform="translate(45.690477 0) scale(0.996264)"/>
       <use xlink:href="#CMR17-30" transform="translate(91.380954 0) scale(0.996264)"/>
      </g>
     </g>
    </g>
    <g id="xtick_17">
     <g id="line2d_44">
      <path d="M 660.906025 168.895675 
L 660.906025 24.269588 
" clip-path="url(#p0302392cd9)" style="fill: none; stroke: #b0b0b0; stroke-width: 0.8; stroke-linecap: square"/>
     </g>
     <g id="line2d_45">
      <g>
       <use xlink:href="#m7148aebcbb" x="660.906025" y="168.895675" style="stroke: #000000; stroke-width: 0.8"/>
      </g>
     </g>
     <g id="text_23">
      <!-- $\mathdefault{175}$ -->
      <g transform="translate(652.12654 184.197855) scale(0.12 -0.12)">
       <use xlink:href="#CMR17-31" transform="scale(0.996264)"/>
       <use xlink:href="#CMR17-37" transform="translate(45.690477 0) scale(0.996264)"/>
       <use xlink:href="#CMR17-35" transform="translate(91.380954 0) scale(0.996264)"/>
      </g>
     </g>
    </g>
    <g id="xtick_18">
     <g id="line2d_46">
      <path d="M 698.95148 168.895675 
L 698.95148 24.269588 
" clip-path="url(#p0302392cd9)" style="fill: none; stroke: #b0b0b0; stroke-width: 0.8; stroke-linecap: square"/>
     </g>
     <g id="line2d_47">
      <g>
       <use xlink:href="#m7148aebcbb" x="698.95148" y="168.895675" style="stroke: #000000; stroke-width: 0.8"/>
      </g>
     </g>
     <g id="text_24">
      <!-- $\mathdefault{200}$ -->
      <g transform="translate(690.171994 184.197855) scale(0.12 -0.12)">
       <use xlink:href="#CMR17-32" transform="scale(0.996264)"/>
       <use xlink:href="#CMR17-30" transform="translate(45.690477 0) scale(0.996264)"/>
       <use xlink:href="#CMR17-30" transform="translate(91.380954 0) scale(0.996264)"/>
      </g>
     </g>
    </g>
   </g>
   <g id="matplotlib.axis_4">
    <g id="ytick_6">
     <g id="line2d_48">
      <path d="M 394.587843 168.895675 
L 698.95148 168.895675 
" clip-path="url(#p0302392cd9)" style="fill: none; stroke: #b0b0b0; stroke-width: 0.8; stroke-linecap: square"/>
     </g>
     <g id="line2d_49">
      <g>
       <use xlink:href="#m4b8c474e7a" x="394.587843" y="168.895675" style="stroke: #000000; stroke-width: 0.8"/>
      </g>
     </g>
     <g id="text_25">
      <!-- $\mathdefault{−2}$ -->
      <g transform="translate(372.436364 173.046765) scale(0.12 -0.12)">
       <use xlink:href="#CMSY10-0" transform="scale(0.996264)"/>
       <use xlink:href="#CMR17-32" transform="translate(77.487468 0) scale(0.996264)"/>
      </g>
     </g>
    </g>
    <g id="ytick_7">
     <g id="line2d_50">
      <path d="M 394.587843 132.739154 
L 698.95148 132.739154 
" clip-path="url(#p0302392cd9)" style="fill: none; stroke: #b0b0b0; stroke-width: 0.8; stroke-linecap: square"/>
     </g>
     <g id="line2d_51">
      <g>
       <use xlink:href="#m4b8c474e7a" x="394.587843" y="132.739154" style="stroke: #000000; stroke-width: 0.8"/>
      </g>
     </g>
     <g id="text_26">
      <!-- $\mathdefault{−1}$ -->
      <g transform="translate(372.436364 136.890243) scale(0.12 -0.12)">
       <use xlink:href="#CMSY10-0" transform="scale(0.996264)"/>
       <use xlink:href="#CMR17-31" transform="translate(77.487468 0) scale(0.996264)"/>
      </g>
     </g>
    </g>
    <g id="ytick_8">
     <g id="line2d_52">
      <path d="M 394.587843 96.582632 
L 698.95148 96.582632 
" clip-path="url(#p0302392cd9)" style="fill: none; stroke: #b0b0b0; stroke-width: 0.8; stroke-linecap: square"/>
     </g>
     <g id="line2d_53">
      <g>
       <use xlink:href="#m4b8c474e7a" x="394.587843" y="96.582632" style="stroke: #000000; stroke-width: 0.8"/>
      </g>
     </g>
     <g id="text_27">
      <!-- $\mathdefault{0}$ -->
      <g transform="translate(381.734853 100.733722) scale(0.12 -0.12)">
       <use xlink:href="#CMR17-30" transform="scale(0.996264)"/>
      </g>
     </g>
    </g>
    <g id="ytick_9">
     <g id="line2d_54">
      <path d="M 394.587843 60.42611 
L 698.95148 60.42611 
" clip-path="url(#p0302392cd9)" style="fill: none; stroke: #b0b0b0; stroke-width: 0.8; stroke-linecap: square"/>
     </g>
     <g id="line2d_55">
      <g>
       <use xlink:href="#m4b8c474e7a" x="394.587843" y="60.42611" style="stroke: #000000; stroke-width: 0.8"/>
      </g>
     </g>
     <g id="text_28">
      <!-- $\mathdefault{1}$ -->
      <g transform="translate(381.734853 64.5772) scale(0.12 -0.12)">
       <use xlink:href="#CMR17-31" transform="scale(0.996264)"/>
      </g>
     </g>
    </g>
    <g id="ytick_10">
     <g id="line2d_56">
      <path d="M 394.587843 24.269588 
L 698.95148 24.269588 
" clip-path="url(#p0302392cd9)" style="fill: none; stroke: #b0b0b0; stroke-width: 0.8; stroke-linecap: square"/>
     </g>
     <g id="line2d_57">
      <g>
       <use xlink:href="#m4b8c474e7a" x="394.587843" y="24.269588" style="stroke: #000000; stroke-width: 0.8"/>
      </g>
     </g>
     <g id="text_29">
      <!-- $\mathdefault{2}$ -->
      <g transform="translate(381.734853 28.420678) scale(0.12 -0.12)">
       <use xlink:href="#CMR17-32" transform="scale(0.996264)"/>
      </g>
     </g>
    </g>
   </g>
   <g id="line2d_58">
    <path d="M 394.587843 111.740865 
L 396.109661 124.313273 
L 397.63148 150.331711 
L 399.153298 120.570811 
L 400.675116 132.451464 
L 402.196934 78.770214 
L 403.718752 90.881965 
L 405.240571 114.648421 
L 406.762389 134.171925 
L 408.284207 130.269927 
L 409.806025 124.152877 
L 411.327843 126.958349 
L 412.849661 131.695063 
L 415.893298 117.484346 
L 417.415116 120.389602 
L 418.936934 122.228271 
L 420.458752 124.945469 
L 421.980571 60.59897 
L 423.502389 131.892607 
L 425.024207 122.279338 
L 426.546025 94.550713 
L 428.067843 106.771179 
L 429.589661 91.81314 
L 431.11148 83.581108 
L 432.633298 73.756773 
L 434.155116 81.542154 
L 435.676934 111.65558 
L 437.198752 72.192468 
L 438.720571 122.704231 
L 440.242389 91.419865 
L 441.764207 96.91119 
L 443.286025 105.636207 
L 444.807843 74.316243 
L 446.329661 86.879244 
L 447.85148 63.682823 
L 449.373298 107.47416 
L 450.895116 63.927654 
L 452.416934 68.779349 
L 453.938752 74.048004 
L 455.460571 100.538346 
L 456.982389 77.994096 
L 458.504207 99.957384 
L 460.026025 108.200661 
L 461.547843 9.811582 
L 463.069661 50.10593 
L 464.59148 33.804192 
L 466.113298 72.520707 
L 467.635116 50.732583 
L 469.156934 49.264298 
L 470.678752 121.864794 
L 472.200571 131.226735 
L 473.722389 133.972951 
L 475.244207 165.815361 
L 476.766025 115.923766 
L 478.287843 117.851762 
L 479.809661 103.85214 
L 481.33148 127.573147 
L 482.853298 89.680131 
L 484.375116 127.812843 
L 485.896934 140.972486 
L 487.418752 99.869916 
L 488.940571 123.850909 
L 490.462389 136.620923 
L 491.984207 110.234907 
L 493.506025 97.368997 
L 495.027843 105.234171 
L 496.549661 99.160128 
L 498.07148 32.428441 
L 499.593298 90.41576 
L 501.115116 76.122374 
L 502.636934 138.268313 
L 504.158752 94.321882 
L 505.680571 85.481097 
L 507.202389 104.618041 
L 508.724207 112.418817 
L 510.246025 87.967976 
L 511.767843 99.377846 
L 513.289661 102.977917 
L 514.81148 70.016617 
L 516.333298 65.206614 
L 517.855116 82.434054 
L 519.376934 94.670455 
L 520.898752 75.713617 
L 522.420571 68.571118 
L 523.942389 70.719475 
L 525.464207 106.948062 
L 526.986025 85.338275 
L 528.507843 71.288734 
L 530.029661 65.086317 
L 531.55148 57.519452 
L 533.073298 59.732441 
L 534.595116 92.502702 
L 536.116934 83.338875 
L 537.638752 91.18499 
L 539.160571 35.035615 
L 540.682389 62.949658 
L 542.204207 54.764645 
L 543.726025 44.643263 
L 545.247843 67.820163 
L 546.769661 153.547285 
L 548.29148 139.003677 
L 549.813298 132.524875 
L 551.335116 101.257003 
L 552.856934 111.233287 
L 554.378752 145.160556 
L 555.900571 112.05362 
L 557.422389 109.329891 
L 558.944207 140.356713 
L 560.466025 121.684601 
L 561.987843 151.728631 
L 563.509661 110.855635 
L 565.03148 121.091207 
L 566.553298 138.343452 
L 568.075116 125.113219 
L 569.596934 106.70734 
L 571.118752 119.595344 
L 572.640571 102.737795 
L 574.162389 96.715259 
L 575.684207 120.453945 
L 577.206025 109.459247 
L 578.727843 63.595625 
L 580.249661 98.732036 
L 581.77148 114.784345 
L 583.293298 96.935837 
L 584.815116 120.781991 
L 586.336934 74.658292 
L 587.858752 86.995642 
L 589.380571 72.614358 
L 590.902389 74.487754 
L 592.424207 82.295446 
L 593.946025 70.269553 
L 595.467843 82.995487 
L 596.989661 96.984132 
L 598.51148 102.069655 
L 600.033298 90.222244 
L 601.555116 125.968088 
L 603.076934 46.216697 
L 604.598752 108.768598 
L 606.120571 77.72049 
L 607.642389 98.708044 
L 609.164207 110.061667 
L 610.686025 73.48305 
L 612.207843 76.057778 
L 613.729661 71.99121 
L 615.25148 57.733415 
L 616.773298 77.390307 
L 618.295116 57.916947 
L 619.816934 54.039938 
L 621.338752 67.92577 
L 622.860571 137.864693 
L 624.382389 121.559118 
L 625.904207 128.811634 
L 627.426025 125.524328 
L 628.947843 169.879181 
L 630.469661 124.449911 
L 631.99148 117.254293 
L 633.513298 125.064566 
L 635.035116 115.096427 
L 636.556934 85.295001 
L 638.078752 116.733304 
L 639.600571 104.802197 
L 641.122389 130.750464 
L 642.644207 129.34662 
L 644.166025 121.168797 
L 645.687843 129.478723 
L 647.209661 109.736395 
L 648.73148 125.034753 
L 650.253298 109.870096 
L 651.775116 131.241251 
L 653.296934 133.682844 
L 654.818752 114.582465 
L 656.340571 120.212132 
L 657.862389 111.279013 
L 659.384207 109.094501 
L 660.906025 102.932846 
L 662.427843 76.235947 
L 663.949661 68.940681 
L 665.47148 79.130724 
L 666.993298 97.296261 
L 668.515116 62.289042 
L 670.036934 115.584893 
L 671.558752 123.037707 
L 673.080571 80.168067 
L 674.602389 83.606173 
L 676.124207 84.638178 
L 677.646025 80.085035 
L 679.167843 108.885977 
L 680.689661 98.69235 
L 682.21148 54.025779 
L 683.733298 56.300924 
L 685.255116 86.492788 
L 686.776934 37.048081 
L 688.298752 89.908071 
L 689.820571 79.433261 
L 691.342389 62.370751 
L 692.864207 87.814673 
L 694.386025 73.585828 
L 695.907843 66.447457 
L 697.429661 69.019546 
L 698.95148 116.995867 
L 700.473298 120.575977 
L 700.473298 120.575977 
" clip-path="url(#p0302392cd9)" style="fill: none; stroke: #1f77b4; stroke-width: 1.5; stroke-linecap: square"/>
   </g>
   <g id="patch_8">
    <path d="M 394.587843 168.895675 
L 394.587843 24.269588 
" style="fill: none; stroke: #000000; stroke-width: 0.8; stroke-linejoin: miter; stroke-linecap: square"/>
   </g>
   <g id="patch_9">
    <path d="M 698.95148 168.895675 
L 698.95148 24.269588 
" style="fill: none; stroke: #000000; stroke-width: 0.8; stroke-linejoin: miter; stroke-linecap: square"/>
   </g>
   <g id="patch_10">
    <path d="M 394.587843 168.895675 
L 698.95148 168.895675 
" style="fill: none; stroke: #000000; stroke-width: 0.8; stroke-linejoin: miter; stroke-linecap: square"/>
   </g>
   <g id="patch_11">
    <path d="M 394.587843 24.269588 
L 698.95148 24.269588 
" style="fill: none; stroke: #000000; stroke-width: 0.8; stroke-linejoin: miter; stroke-linecap: square"/>
   </g>
   <g id="text_30">
    <!-- $y$ -->
    <g transform="translate(542.964526 18.269588) scale(0.16 -0.16)">
     <defs>
      <path id="CMMI12-79" d="M 1683 -673 
C 1510 -921 1261 -1152 947 -1152 
C 870 -1152 563 -1139 467 -826 
C 486 -833 518 -833 531 -833 
C 723 -833 851 -666 851 -519 
C 851 -372 730 -320 634 -320 
C 531 -320 307 -397 307 -711 
C 307 -1050 582 -1280 947 -1280 
C 1587 -1280 2234 -673 2413 -7 
L 3040 2483 
C 3046 2515 3059 2553 3059 2591 
C 3059 2687 2982 2752 2886 2752 
C 2829 2752 2694 2726 2643 2534 
L 2170 657 
C 2138 542 2138 530 2086 459 
C 1958 281 1747 64 1440 64 
C 1082 64 1050 415 1050 587 
C 1050 951 1222 1443 1395 1902 
C 1466 2087 1504 2177 1504 2305 
C 1504 2573 1312 2816 998 2816 
C 410 2816 173 1890 173 1838 
C 173 1813 198 1781 243 1781 
C 301 1781 307 1807 333 1896 
C 486 2432 730 2687 979 2687 
C 1037 2687 1146 2687 1146 2477 
C 1146 2311 1075 2126 979 1883 
C 666 1047 666 836 666 683 
C 666 76 1101 -64 1421 -64 
C 1606 -64 1837 -7 2061 230 
L 2067 223 
C 1971 -141 1907 -359 1683 -673 
z
" transform="scale(0.015625)"/>
     </defs>
     <use xlink:href="#CMMI12-79" transform="scale(0.996264)"/>
    </g>
   </g>
  </g>
  <g id="axes_3">
   <g id="patch_12">
    <path d="M 29.35148 356.909588 
L 333.715116 356.909588 
L 333.715116 212.283501 
L 29.35148 212.283501 
z
" style="fill: #ffffff"/>
   </g>
   <g id="matplotlib.axis_5">
    <g id="xtick_19">
     <g id="line2d_59">
      <path d="M 29.35148 356.909588 
L 29.35148 212.283501 
" clip-path="url(#pe567a5360c)" style="fill: none; stroke: #b0b0b0; stroke-width: 0.8; stroke-linecap: square"/>
     </g>
     <g id="line2d_60">
      <g>
       <use xlink:href="#m7148aebcbb" x="29.35148" y="356.909588" style="stroke: #000000; stroke-width: 0.8"/>
      </g>
     </g>
     <g id="text_31">
      <!-- $\mathdefault{0}$ -->
      <g transform="translate(26.424985 372.211768) scale(0.12 -0.12)">
       <use xlink:href="#CMR17-30" transform="scale(0.996264)"/>
      </g>
     </g>
    </g>
    <g id="xtick_20">
     <g id="line2d_61">
      <path d="M 67.396934 356.909588 
L 67.396934 212.283501 
" clip-path="url(#pe567a5360c)" style="fill: none; stroke: #b0b0b0; stroke-width: 0.8; stroke-linecap: square"/>
     </g>
     <g id="line2d_62">
      <g>
       <use xlink:href="#m7148aebcbb" x="67.396934" y="356.909588" style="stroke: #000000; stroke-width: 0.8"/>
      </g>
     </g>
     <g id="text_32">
      <!-- $\mathdefault{25}$ -->
      <g transform="translate(61.543944 372.211768) scale(0.12 -0.12)">
       <use xlink:href="#CMR17-32" transform="scale(0.996264)"/>
       <use xlink:href="#CMR17-35" transform="translate(45.690477 0) scale(0.996264)"/>
      </g>
     </g>
    </g>
    <g id="xtick_21">
     <g id="line2d_63">
      <path d="M 105.442389 356.909588 
L 105.442389 212.283501 
" clip-path="url(#pe567a5360c)" style="fill: none; stroke: #b0b0b0; stroke-width: 0.8; stroke-linecap: square"/>
     </g>
     <g id="line2d_64">
      <g>
       <use xlink:href="#m7148aebcbb" x="105.442389" y="356.909588" style="stroke: #000000; stroke-width: 0.8"/>
      </g>
     </g>
     <g id="text_33">
      <!-- $\mathdefault{50}$ -->
      <g transform="translate(99.589399 372.211768) scale(0.12 -0.12)">
       <use xlink:href="#CMR17-35" transform="scale(0.996264)"/>
       <use xlink:href="#CMR17-30" transform="translate(45.690477 0) scale(0.996264)"/>
      </g>
     </g>
    </g>
    <g id="xtick_22">
     <g id="line2d_65">
      <path d="M 143.487843 356.909588 
L 143.487843 212.283501 
" clip-path="url(#pe567a5360c)" style="fill: none; stroke: #b0b0b0; stroke-width: 0.8; stroke-linecap: square"/>
     </g>
     <g id="line2d_66">
      <g>
       <use xlink:href="#m7148aebcbb" x="143.487843" y="356.909588" style="stroke: #000000; stroke-width: 0.8"/>
      </g>
     </g>
     <g id="text_34">
      <!-- $\mathdefault{75}$ -->
      <g transform="translate(137.634853 372.211768) scale(0.12 -0.12)">
       <use xlink:href="#CMR17-37" transform="scale(0.996264)"/>
       <use xlink:href="#CMR17-35" transform="translate(45.690477 0) scale(0.996264)"/>
      </g>
     </g>
    </g>
    <g id="xtick_23">
     <g id="line2d_67">
      <path d="M 181.533298 356.909588 
L 181.533298 212.283501 
" clip-path="url(#pe567a5360c)" style="fill: none; stroke: #b0b0b0; stroke-width: 0.8; stroke-linecap: square"/>
     </g>
     <g id="line2d_68">
      <g>
       <use xlink:href="#m7148aebcbb" x="181.533298" y="356.909588" style="stroke: #000000; stroke-width: 0.8"/>
      </g>
     </g>
     <g id="text_35">
      <!-- $\mathdefault{100}$ -->
      <g transform="translate(172.753812 372.211768) scale(0.12 -0.12)">
       <use xlink:href="#CMR17-31" transform="scale(0.996264)"/>
       <use xlink:href="#CMR17-30" transform="translate(45.690477 0) scale(0.996264)"/>
       <use xlink:href="#CMR17-30" transform="translate(91.380954 0) scale(0.996264)"/>
      </g>
     </g>
    </g>
    <g id="xtick_24">
     <g id="line2d_69">
      <path d="M 219.578752 356.909588 
L 219.578752 212.283501 
" clip-path="url(#pe567a5360c)" style="fill: none; stroke: #b0b0b0; stroke-width: 0.8; stroke-linecap: square"/>
     </g>
     <g id="line2d_70">
      <g>
       <use xlink:href="#m7148aebcbb" x="219.578752" y="356.909588" style="stroke: #000000; stroke-width: 0.8"/>
      </g>
     </g>
     <g id="text_36">
      <!-- $\mathdefault{125}$ -->
      <g transform="translate(210.799267 372.211768) scale(0.12 -0.12)">
       <use xlink:href="#CMR17-31" transform="scale(0.996264)"/>
       <use xlink:href="#CMR17-32" transform="translate(45.690477 0) scale(0.996264)"/>
       <use xlink:href="#CMR17-35" transform="translate(91.380954 0) scale(0.996264)"/>
      </g>
     </g>
    </g>
    <g id="xtick_25">
     <g id="line2d_71">
      <path d="M 257.624207 356.909588 
L 257.624207 212.283501 
" clip-path="url(#pe567a5360c)" style="fill: none; stroke: #b0b0b0; stroke-width: 0.8; stroke-linecap: square"/>
     </g>
     <g id="line2d_72">
      <g>
       <use xlink:href="#m7148aebcbb" x="257.624207" y="356.909588" style="stroke: #000000; stroke-width: 0.8"/>
      </g>
     </g>
     <g id="text_37">
      <!-- $\mathdefault{150}$ -->
      <g transform="translate(248.844722 372.211768) scale(0.12 -0.12)">
       <use xlink:href="#CMR17-31" transform="scale(0.996264)"/>
       <use xlink:href="#CMR17-35" transform="translate(45.690477 0) scale(0.996264)"/>
       <use xlink:href="#CMR17-30" transform="translate(91.380954 0) scale(0.996264)"/>
      </g>
     </g>
    </g>
    <g id="xtick_26">
     <g id="line2d_73">
      <path d="M 295.669661 356.909588 
L 295.669661 212.283501 
" clip-path="url(#pe567a5360c)" style="fill: none; stroke: #b0b0b0; stroke-width: 0.8; stroke-linecap: square"/>
     </g>
     <g id="line2d_74">
      <g>
       <use xlink:href="#m7148aebcbb" x="295.669661" y="356.909588" style="stroke: #000000; stroke-width: 0.8"/>
      </g>
     </g>
     <g id="text_38">
      <!-- $\mathdefault{175}$ -->
      <g transform="translate(286.890176 372.211768) scale(0.12 -0.12)">
       <use xlink:href="#CMR17-31" transform="scale(0.996264)"/>
       <use xlink:href="#CMR17-37" transform="translate(45.690477 0) scale(0.996264)"/>
       <use xlink:href="#CMR17-35" transform="translate(91.380954 0) scale(0.996264)"/>
      </g>
     </g>
    </g>
    <g id="xtick_27">
     <g id="line2d_75">
      <path d="M 333.715116 356.909588 
L 333.715116 212.283501 
" clip-path="url(#pe567a5360c)" style="fill: none; stroke: #b0b0b0; stroke-width: 0.8; stroke-linecap: square"/>
     </g>
     <g id="line2d_76">
      <g>
       <use xlink:href="#m7148aebcbb" x="333.715116" y="356.909588" style="stroke: #000000; stroke-width: 0.8"/>
      </g>
     </g>
     <g id="text_39">
      <!-- $\mathdefault{200}$ -->
      <g transform="translate(324.935631 372.211768) scale(0.12 -0.12)">
       <use xlink:href="#CMR17-32" transform="scale(0.996264)"/>
       <use xlink:href="#CMR17-30" transform="translate(45.690477 0) scale(0.996264)"/>
       <use xlink:href="#CMR17-30" transform="translate(91.380954 0) scale(0.996264)"/>
      </g>
     </g>
    </g>
   </g>
   <g id="matplotlib.axis_6">
    <g id="ytick_11">
     <g id="line2d_77">
      <path d="M 29.35148 356.909588 
L 333.715116 356.909588 
" clip-path="url(#pe567a5360c)" style="fill: none; stroke: #b0b0b0; stroke-width: 0.8; stroke-linecap: square"/>
     </g>
     <g id="line2d_78">
      <g>
       <use xlink:href="#m4b8c474e7a" x="29.35148" y="356.909588" style="stroke: #000000; stroke-width: 0.8"/>
      </g>
     </g>
     <g id="text_40">
      <!-- $\mathdefault{−2}$ -->
      <g transform="translate(7.2 361.060678) scale(0.12 -0.12)">
       <use xlink:href="#CMSY10-0" transform="scale(0.996264)"/>
       <use xlink:href="#CMR17-32" transform="translate(77.487468 0) scale(0.996264)"/>
      </g>
     </g>
    </g>
    <g id="ytick_12">
     <g id="line2d_79">
      <path d="M 29.35148 320.753067 
L 333.715116 320.753067 
" clip-path="url(#pe567a5360c)" style="fill: none; stroke: #b0b0b0; stroke-width: 0.8; stroke-linecap: square"/>
     </g>
     <g id="line2d_80">
      <g>
       <use xlink:href="#m4b8c474e7a" x="29.35148" y="320.753067" style="stroke: #000000; stroke-width: 0.8"/>
      </g>
     </g>
     <g id="text_41">
      <!-- $\mathdefault{−1}$ -->
      <g transform="translate(7.2 324.904156) scale(0.12 -0.12)">
       <use xlink:href="#CMSY10-0" transform="scale(0.996264)"/>
       <use xlink:href="#CMR17-31" transform="translate(77.487468 0) scale(0.996264)"/>
      </g>
     </g>
    </g>
    <g id="ytick_13">
     <g id="line2d_81">
      <path d="M 29.35148 284.596545 
L 333.715116 284.596545 
" clip-path="url(#pe567a5360c)" style="fill: none; stroke: #b0b0b0; stroke-width: 0.8; stroke-linecap: square"/>
     </g>
     <g id="line2d_82">
      <g>
       <use xlink:href="#m4b8c474e7a" x="29.35148" y="284.596545" style="stroke: #000000; stroke-width: 0.8"/>
      </g>
     </g>
     <g id="text_42">
      <!-- $\mathdefault{0}$ -->
      <g transform="translate(16.498489 288.747635) scale(0.12 -0.12)">
       <use xlink:href="#CMR17-30" transform="scale(0.996264)"/>
      </g>
     </g>
    </g>
    <g id="ytick_14">
     <g id="line2d_83">
      <path d="M 29.35148 248.440023 
L 333.715116 248.440023 
" clip-path="url(#pe567a5360c)" style="fill: none; stroke: #b0b0b0; stroke-width: 0.8; stroke-linecap: square"/>
     </g>
     <g id="line2d_84">
      <g>
       <use xlink:href="#m4b8c474e7a" x="29.35148" y="248.440023" style="stroke: #000000; stroke-width: 0.8"/>
      </g>
     </g>
     <g id="text_43">
      <!-- $\mathdefault{1}$ -->
      <g transform="translate(16.498489 252.591113) scale(0.12 -0.12)">
       <use xlink:href="#CMR17-31" transform="scale(0.996264)"/>
      </g>
     </g>
    </g>
    <g id="ytick_15">
     <g id="line2d_85">
      <path d="M 29.35148 212.283501 
L 333.715116 212.283501 
" clip-path="url(#pe567a5360c)" style="fill: none; stroke: #b0b0b0; stroke-width: 0.8; stroke-linecap: square"/>
     </g>
     <g id="line2d_86">
      <g>
       <use xlink:href="#m4b8c474e7a" x="29.35148" y="212.283501" style="stroke: #000000; stroke-width: 0.8"/>
      </g>
     </g>
     <g id="text_44">
      <!-- $\mathdefault{2}$ -->
      <g transform="translate(16.498489 216.434591) scale(0.12 -0.12)">
       <use xlink:href="#CMR17-32" transform="scale(0.996264)"/>
      </g>
     </g>
    </g>
   </g>
   <g id="line2d_87">
    <path d="M 29.35148 256.310408 
L 30.873298 270.512823 
L 32.395116 279.323549 
L 33.916934 286.648628 
L 35.438752 302.455215 
L 36.960571 314.900132 
L 38.482389 313.595454 
L 40.004207 314.200834 
L 41.526025 322.174939 
L 43.047843 318.754401 
L 46.09148 304.475787 
L 47.613298 305.620484 
L 49.135116 297.975659 
L 50.656934 303.35784 
L 52.178752 303.144694 
L 53.700571 302.498743 
L 55.222389 302.278505 
L 56.744207 304.907282 
L 59.787843 296.25653 
L 61.309661 293.853301 
L 62.83148 292.214223 
L 64.353298 292.029305 
L 65.875116 286.753717 
L 67.396934 294.564438 
L 68.918752 294.338366 
L 70.440571 287.910937 
L 71.962389 289.275336 
L 73.484207 286.196171 
L 75.006025 276.669078 
L 76.527843 274.923998 
L 78.049661 272.605062 
L 79.57148 267.790033 
L 81.093298 270.385207 
L 82.615116 273.875236 
L 84.136934 276.744377 
L 85.658752 283.341094 
L 87.180571 277.068315 
L 88.702389 276.122411 
L 90.224207 274.993948 
L 91.746025 269.976165 
L 93.267843 261.259926 
L 94.789661 260.642011 
L 96.31148 254.973297 
L 97.833298 255.358602 
L 99.355116 251.383651 
L 100.876934 252.701666 
L 102.398752 252.1287 
L 103.920571 254.813288 
L 105.442389 252.02036 
L 106.964207 271.038932 
L 108.486025 277.757935 
L 111.529661 304.296439 
L 113.05148 324.05323 
L 114.573298 322.153963 
L 116.095116 321.021376 
L 117.616934 323.06889 
L 120.660571 308.375756 
L 122.182389 305.526686 
L 123.704207 312.57859 
L 125.226025 307.808986 
L 126.747843 306.201387 
L 128.269661 301.195449 
L 129.79148 296.698951 
L 131.313298 295.22264 
L 132.835116 294.478339 
L 134.356934 300.87613 
L 135.878752 305.317487 
L 137.400571 304.45769 
L 138.922389 303.143984 
L 140.444207 300.342963 
L 141.966025 295.959849 
L 143.487843 286.331045 
L 145.009661 286.839044 
L 146.53148 279.858528 
L 148.053298 276.610187 
L 149.575116 272.01335 
L 151.096934 273.514084 
L 152.618752 277.787068 
L 154.140571 274.952761 
L 155.662389 282.98153 
L 157.184207 286.120392 
L 158.706025 295.833129 
L 160.227843 289.424154 
L 161.749661 293.663521 
L 163.27148 287.327078 
L 164.793298 287.021499 
L 166.315116 277.409104 
L 167.836934 277.404345 
L 169.358752 274.259317 
L 170.880571 269.006662 
L 172.402389 271.868193 
L 173.924207 270.005413 
L 175.446025 266.506409 
L 176.967843 269.952524 
L 178.489661 273.049654 
L 180.01148 258.670546 
L 181.533298 255.746783 
L 183.055116 270.244533 
L 184.576934 275.049538 
L 186.098752 285.199265 
L 187.620571 307.952711 
L 189.142389 323.593148 
L 190.664207 320.262459 
L 192.186025 321.391903 
L 193.707843 319.991397 
L 195.229661 313.878919 
L 196.75148 310.921847 
L 198.273298 311.225826 
L 199.795116 311.145592 
L 201.316934 312.794188 
L 202.838752 309.534037 
L 204.360571 308.675746 
L 205.882389 307.405981 
L 207.404207 301.912377 
L 208.926025 289.837654 
L 210.447843 290.710268 
L 211.969661 284.239886 
L 213.49148 282.549894 
L 215.013298 282.95738 
L 216.535116 286.877665 
L 218.056934 280.765395 
L 219.578752 276.092742 
L 221.100571 274.329734 
L 222.622389 273.238938 
L 224.144207 270.059935 
L 225.666025 267.854394 
L 227.187843 277.036681 
L 228.709661 273.788697 
L 230.23148 268.9274 
L 231.753298 267.886877 
L 233.275116 274.487211 
L 234.796934 268.648339 
L 236.318752 275.165504 
L 237.840571 273.665246 
L 239.362389 270.268231 
L 240.884207 269.351655 
L 242.406025 269.9769 
L 243.927843 265.630561 
L 245.449661 269.505532 
L 246.97148 272.451427 
L 248.493298 264.939033 
L 250.015116 261.238246 
L 251.536934 259.696495 
L 253.058752 259.634533 
L 254.580571 253.406116 
L 256.102389 253.238924 
L 257.624207 254.791993 
L 259.146025 247.412112 
L 260.667843 259.478973 
L 262.189661 278.642462 
L 263.71148 295.252318 
L 265.233298 309.166119 
L 266.755116 328.74687 
L 268.276934 318.875477 
L 269.798752 315.426556 
L 271.320571 308.964978 
L 274.364207 295.294057 
L 275.886025 304.083999 
L 277.407843 303.383537 
L 278.929661 301.697964 
L 280.45148 301.448583 
L 281.973298 300.962801 
L 283.495116 301.062203 
L 285.016934 298.600145 
L 286.538752 298.16119 
L 288.060571 298.866749 
L 289.582389 296.850301 
L 291.104207 290.411361 
L 292.626025 293.85464 
L 294.147843 299.204821 
L 295.669661 297.928143 
L 297.19148 297.1948 
L 298.713298 294.129702 
L 300.235116 291.773719 
L 301.756934 283.982356 
L 303.278752 286.505058 
L 304.800571 281.86795 
L 306.322389 274.104404 
L 307.844207 271.896139 
L 309.366025 269.207342 
L 310.887843 260.244583 
L 312.409661 259.146031 
L 313.93148 264.293161 
L 316.975116 271.889567 
L 318.496934 268.025061 
L 320.018752 267.120222 
L 321.540571 265.783813 
L 323.062389 251.693964 
L 324.584207 253.480185 
L 326.106025 253.807934 
L 327.627843 250.745371 
L 329.149661 257.088632 
L 330.67148 264.936759 
L 332.193298 255.77029 
L 333.715116 260.661689 
L 335.236934 278.7915 
L 335.236934 278.7915 
" clip-path="url(#pe567a5360c)" style="fill: none; stroke: #1f77b4; stroke-width: 1.5; stroke-linecap: square"/>
   </g>
   <g id="patch_13">
    <path d="M 29.35148 356.909588 
L 29.35148 212.283501 
" style="fill: none; stroke: #000000; stroke-width: 0.8; stroke-linejoin: miter; stroke-linecap: square"/>
   </g>
   <g id="patch_14">
    <path d="M 333.715116 356.909588 
L 333.715116 212.283501 
" style="fill: none; stroke: #000000; stroke-width: 0.8; stroke-linejoin: miter; stroke-linecap: square"/>
   </g>
   <g id="patch_15">
    <path d="M 29.35148 356.909588 
L 333.715116 356.909588 
" style="fill: none; stroke: #000000; stroke-width: 0.8; stroke-linejoin: miter; stroke-linecap: square"/>
   </g>
   <g id="patch_16">
    <path d="M 29.35148 212.283501 
L 333.715116 212.283501 
" style="fill: none; stroke: #000000; stroke-width: 0.8; stroke-linejoin: miter; stroke-linecap: square"/>
   </g>
   <g id="text_45">
    <!-- $z$ ($M=5$) -->
    <g transform="translate(146.099798 206.283501) scale(0.16 -0.16)">
     <defs>
      <path id="CMMI12-7a" d="M 813 486 
C 1088 809 1312 1015 1632 1313 
C 2016 1657 2182 1822 2272 1922 
C 2720 2371 2944 2713 2944 2764 
C 2944 2816 2893 2816 2880 2816 
C 2835 2816 2822 2790 2790 2745 
C 2630 2470 2477 2368 2310 2368 
C 2176 2368 2106 2403 1984 2547 
C 1850 2707 1741 2816 1555 2816 
C 1088 2816 806 2265 806 2127 
C 806 2107 813 2067 870 2067 
C 922 2067 928 2094 947 2140 
C 1056 2387 1363 2415 1485 2415 
C 1619 2415 1747 2387 1882 2342 
C 2125 2239 2227 2239 2291 2239 
C 2336 2239 2362 2239 2394 2246 
C 2182 1988 1837 1670 1549 1399 
L 902 783 
C 512 380 275 32 275 -13 
C 275 -52 307 -64 346 -64 
C 384 -64 390 -58 435 19 
C 538 179 742 384 979 384 
C 1114 384 1178 356 1306 211 
C 1427 70 1536 -64 1741 -64 
C 2368 -64 2726 723 2726 876 
C 2726 902 2720 942 2656 942 
C 2605 942 2598 915 2579 849 
C 2438 460 2061 336 1811 336 
C 1677 336 1549 364 1414 409 
C 1158 512 1088 512 1005 512 
C 941 512 870 512 813 486 
z
" transform="scale(0.015625)"/>
      <path id="CMR17-28" d="M 1958 -1562 
C 1958 -1556 1958 -1543 1939 -1524 
C 1645 -1223 858 -403 858 1596 
C 858 3595 1632 4408 1946 4729 
C 1946 4735 1958 4748 1958 4767 
C 1958 4787 1939 4800 1914 4800 
C 1843 4800 1299 4325 986 3620 
C 666 2909 576 2218 576 1603 
C 576 1141 621 360 1005 -467 
C 1312 -1133 1837 -1600 1914 -1600 
C 1946 -1600 1958 -1588 1958 -1562 
z
" transform="scale(0.015625)"/>
      <path id="CMMI12-4d" d="M 5811 3886 
C 5869 4102 5882 4166 6336 4166 
C 6458 4166 6515 4166 6515 4287 
C 6515 4352 6470 4352 6349 4352 
L 5581 4352 
C 5421 4352 5414 4345 5344 4243 
L 3008 567 
L 2528 4211 
C 2509 4352 2502 4352 2336 4352 
L 1542 4352 
C 1421 4352 1363 4352 1363 4230 
C 1363 4166 1421 4166 1517 4166 
C 1907 4166 1907 4115 1907 4045 
C 1907 4032 1907 3994 1882 3898 
L 1062 650 
C 986 344 838 204 410 185 
C 390 185 314 179 314 70 
C 314 0 371 0 397 0 
C 525 0 851 12 979 12 
L 1286 12 
C 1376 12 1485 0 1574 0 
C 1619 0 1690 0 1690 121 
C 1690 179 1626 185 1600 185 
C 1389 191 1184 230 1184 459 
C 1184 523 1184 529 1210 618 
L 2093 4128 
L 2099 4128 
L 2630 172 
C 2650 19 2656 0 2714 0 
C 2784 0 2816 51 2848 108 
L 5421 4159 
L 5427 4159 
L 4499 472 
C 4442 249 4429 185 3981 185 
C 3859 185 3795 185 3795 70 
C 3795 0 3853 0 3891 0 
C 4000 0 4128 12 4237 12 
L 4992 12 
C 5101 12 5235 0 5344 0 
C 5395 0 5466 0 5466 121 
C 5466 185 5408 185 5312 185 
C 4922 185 4922 236 4922 300 
C 4922 306 4922 351 4934 402 
L 5811 3886 
z
" transform="scale(0.015625)"/>
      <path id="CMR17-3d" d="M 4115 2048 
C 4211 2048 4307 2048 4307 2156 
C 4307 2272 4198 2272 4090 2272 
L 512 2272 
C 403 2272 294 2272 294 2156 
C 294 2048 390 2048 486 2048 
L 4115 2048 
z
M 4090 927 
C 4198 927 4307 927 4307 1043 
C 4307 1152 4211 1152 4115 1152 
L 486 1152 
C 390 1152 294 1152 294 1043 
C 294 927 403 927 512 927 
L 4090 927 
z
" transform="scale(0.015625)"/>
      <path id="CMR17-29" d="M 1683 1596 
C 1683 2057 1638 2839 1254 3665 
C 947 4332 422 4800 346 4800 
C 326 4800 301 4793 301 4761 
C 301 4748 307 4742 314 4729 
C 621 4408 1402 3595 1402 1603 
C 1402 -396 627 -1210 314 -1530 
C 307 -1543 301 -1549 301 -1562 
C 301 -1594 326 -1600 346 -1600 
C 416 -1600 960 -1127 1274 -422 
C 1594 289 1683 981 1683 1596 
z
" transform="scale(0.015625)"/>
     </defs>
     <use xlink:href="#CMMI12-7a" transform="scale(0.996264)"/>
     <use xlink:href="#CMR17-28" transform="translate(79.831111 0) scale(0.996264)"/>
     <use xlink:href="#CMMI12-4d" transform="translate(115.111879 0) scale(0.996264)"/>
     <use xlink:href="#CMR17-3d" transform="translate(247.565967 0) scale(0.996264)"/>
     <use xlink:href="#CMR17-35" transform="translate(346.954764 0) scale(0.996264)"/>
     <use xlink:href="#CMR17-29" transform="translate(392.645241 0) scale(0.996264)"/>
    </g>
   </g>
  </g>
  <g id="axes_4">
   <g id="patch_17">
    <path d="M 394.587843 356.909588 
L 698.95148 356.909588 
L 698.95148 212.283501 
L 394.587843 212.283501 
z
" style="fill: #ffffff"/>
   </g>
   <g id="matplotlib.axis_7">
    <g id="xtick_28">
     <g id="line2d_88">
      <path d="M 394.587843 356.909588 
L 394.587843 212.283501 
" clip-path="url(#pfa8a16c3aa)" style="fill: none; stroke: #b0b0b0; stroke-width: 0.8; stroke-linecap: square"/>
     </g>
     <g id="line2d_89">
      <g>
       <use xlink:href="#m7148aebcbb" x="394.587843" y="356.909588" style="stroke: #000000; stroke-width: 0.8"/>
      </g>
     </g>
     <g id="text_46">
      <!-- $\mathdefault{0}$ -->
      <g transform="translate(391.661348 372.211768) scale(0.12 -0.12)">
       <use xlink:href="#CMR17-30" transform="scale(0.996264)"/>
      </g>
     </g>
    </g>
    <g id="xtick_29">
     <g id="line2d_90">
      <path d="M 432.633298 356.909588 
L 432.633298 212.283501 
" clip-path="url(#pfa8a16c3aa)" style="fill: none; stroke: #b0b0b0; stroke-width: 0.8; stroke-linecap: square"/>
     </g>
     <g id="line2d_91">
      <g>
       <use xlink:href="#m7148aebcbb" x="432.633298" y="356.909588" style="stroke: #000000; stroke-width: 0.8"/>
      </g>
     </g>
     <g id="text_47">
      <!-- $\mathdefault{25}$ -->
      <g transform="translate(426.780308 372.211768) scale(0.12 -0.12)">
       <use xlink:href="#CMR17-32" transform="scale(0.996264)"/>
       <use xlink:href="#CMR17-35" transform="translate(45.690477 0) scale(0.996264)"/>
      </g>
     </g>
    </g>
    <g id="xtick_30">
     <g id="line2d_92">
      <path d="M 470.678752 356.909588 
L 470.678752 212.283501 
" clip-path="url(#pfa8a16c3aa)" style="fill: none; stroke: #b0b0b0; stroke-width: 0.8; stroke-linecap: square"/>
     </g>
     <g id="line2d_93">
      <g>
       <use xlink:href="#m7148aebcbb" x="470.678752" y="356.909588" style="stroke: #000000; stroke-width: 0.8"/>
      </g>
     </g>
     <g id="text_48">
      <!-- $\mathdefault{50}$ -->
      <g transform="translate(464.825762 372.211768) scale(0.12 -0.12)">
       <use xlink:href="#CMR17-35" transform="scale(0.996264)"/>
       <use xlink:href="#CMR17-30" transform="translate(45.690477 0) scale(0.996264)"/>
      </g>
     </g>
    </g>
    <g id="xtick_31">
     <g id="line2d_94">
      <path d="M 508.724207 356.909588 
L 508.724207 212.283501 
" clip-path="url(#pfa8a16c3aa)" style="fill: none; stroke: #b0b0b0; stroke-width: 0.8; stroke-linecap: square"/>
     </g>
     <g id="line2d_95">
      <g>
       <use xlink:href="#m7148aebcbb" x="508.724207" y="356.909588" style="stroke: #000000; stroke-width: 0.8"/>
      </g>
     </g>
     <g id="text_49">
      <!-- $\mathdefault{75}$ -->
      <g transform="translate(502.871217 372.211768) scale(0.12 -0.12)">
       <use xlink:href="#CMR17-37" transform="scale(0.996264)"/>
       <use xlink:href="#CMR17-35" transform="translate(45.690477 0) scale(0.996264)"/>
      </g>
     </g>
    </g>
    <g id="xtick_32">
     <g id="line2d_96">
      <path d="M 546.769661 356.909588 
L 546.769661 212.283501 
" clip-path="url(#pfa8a16c3aa)" style="fill: none; stroke: #b0b0b0; stroke-width: 0.8; stroke-linecap: square"/>
     </g>
     <g id="line2d_97">
      <g>
       <use xlink:href="#m7148aebcbb" x="546.769661" y="356.909588" style="stroke: #000000; stroke-width: 0.8"/>
      </g>
     </g>
     <g id="text_50">
      <!-- $\mathdefault{100}$ -->
      <g transform="translate(537.990176 372.211768) scale(0.12 -0.12)">
       <use xlink:href="#CMR17-31" transform="scale(0.996264)"/>
       <use xlink:href="#CMR17-30" transform="translate(45.690477 0) scale(0.996264)"/>
       <use xlink:href="#CMR17-30" transform="translate(91.380954 0) scale(0.996264)"/>
      </g>
     </g>
    </g>
    <g id="xtick_33">
     <g id="line2d_98">
      <path d="M 584.815116 356.909588 
L 584.815116 212.283501 
" clip-path="url(#pfa8a16c3aa)" style="fill: none; stroke: #b0b0b0; stroke-width: 0.8; stroke-linecap: square"/>
     </g>
     <g id="line2d_99">
      <g>
       <use xlink:href="#m7148aebcbb" x="584.815116" y="356.909588" style="stroke: #000000; stroke-width: 0.8"/>
      </g>
     </g>
     <g id="text_51">
      <!-- $\mathdefault{125}$ -->
      <g transform="translate(576.035631 372.211768) scale(0.12 -0.12)">
       <use xlink:href="#CMR17-31" transform="scale(0.996264)"/>
       <use xlink:href="#CMR17-32" transform="translate(45.690477 0) scale(0.996264)"/>
       <use xlink:href="#CMR17-35" transform="translate(91.380954 0) scale(0.996264)"/>
      </g>
     </g>
    </g>
    <g id="xtick_34">
     <g id="line2d_100">
      <path d="M 622.860571 356.909588 
L 622.860571 212.283501 
" clip-path="url(#pfa8a16c3aa)" style="fill: none; stroke: #b0b0b0; stroke-width: 0.8; stroke-linecap: square"/>
     </g>
     <g id="line2d_101">
      <g>
       <use xlink:href="#m7148aebcbb" x="622.860571" y="356.909588" style="stroke: #000000; stroke-width: 0.8"/>
      </g>
     </g>
     <g id="text_52">
      <!-- $\mathdefault{150}$ -->
      <g transform="translate(614.081085 372.211768) scale(0.12 -0.12)">
       <use xlink:href="#CMR17-31" transform="scale(0.996264)"/>
       <use xlink:href="#CMR17-35" transform="translate(45.690477 0) scale(0.996264)"/>
       <use xlink:href="#CMR17-30" transform="translate(91.380954 0) scale(0.996264)"/>
      </g>
     </g>
    </g>
    <g id="xtick_35">
     <g id="line2d_102">
      <path d="M 660.906025 356.909588 
L 660.906025 212.283501 
" clip-path="url(#pfa8a16c3aa)" style="fill: none; stroke: #b0b0b0; stroke-width: 0.8; stroke-linecap: square"/>
     </g>
     <g id="line2d_103">
      <g>
       <use xlink:href="#m7148aebcbb" x="660.906025" y="356.909588" style="stroke: #000000; stroke-width: 0.8"/>
      </g>
     </g>
     <g id="text_53">
      <!-- $\mathdefault{175}$ -->
      <g transform="translate(652.12654 372.211768) scale(0.12 -0.12)">
       <use xlink:href="#CMR17-31" transform="scale(0.996264)"/>
       <use xlink:href="#CMR17-37" transform="translate(45.690477 0) scale(0.996264)"/>
       <use xlink:href="#CMR17-35" transform="translate(91.380954 0) scale(0.996264)"/>
      </g>
     </g>
    </g>
    <g id="xtick_36">
     <g id="line2d_104">
      <path d="M 698.95148 356.909588 
L 698.95148 212.283501 
" clip-path="url(#pfa8a16c3aa)" style="fill: none; stroke: #b0b0b0; stroke-width: 0.8; stroke-linecap: square"/>
     </g>
     <g id="line2d_105">
      <g>
       <use xlink:href="#m7148aebcbb" x="698.95148" y="356.909588" style="stroke: #000000; stroke-width: 0.8"/>
      </g>
     </g>
     <g id="text_54">
      <!-- $\mathdefault{200}$ -->
      <g transform="translate(690.171994 372.211768) scale(0.12 -0.12)">
       <use xlink:href="#CMR17-32" transform="scale(0.996264)"/>
       <use xlink:href="#CMR17-30" transform="translate(45.690477 0) scale(0.996264)"/>
       <use xlink:href="#CMR17-30" transform="translate(91.380954 0) scale(0.996264)"/>
      </g>
     </g>
    </g>
   </g>
   <g id="matplotlib.axis_8">
    <g id="ytick_16">
     <g id="line2d_106">
      <path d="M 394.587843 356.909588 
L 698.95148 356.909588 
" clip-path="url(#pfa8a16c3aa)" style="fill: none; stroke: #b0b0b0; stroke-width: 0.8; stroke-linecap: square"/>
     </g>
     <g id="line2d_107">
      <g>
       <use xlink:href="#m4b8c474e7a" x="394.587843" y="356.909588" style="stroke: #000000; stroke-width: 0.8"/>
      </g>
     </g>
     <g id="text_55">
      <!-- $\mathdefault{−2}$ -->
      <g transform="translate(372.436364 361.060678) scale(0.12 -0.12)">
       <use xlink:href="#CMSY10-0" transform="scale(0.996264)"/>
       <use xlink:href="#CMR17-32" transform="translate(77.487468 0) scale(0.996264)"/>
      </g>
     </g>
    </g>
    <g id="ytick_17">
     <g id="line2d_108">
      <path d="M 394.587843 320.753067 
L 698.95148 320.753067 
" clip-path="url(#pfa8a16c3aa)" style="fill: none; stroke: #b0b0b0; stroke-width: 0.8; stroke-linecap: square"/>
     </g>
     <g id="line2d_109">
      <g>
       <use xlink:href="#m4b8c474e7a" x="394.587843" y="320.753067" style="stroke: #000000; stroke-width: 0.8"/>
      </g>
     </g>
     <g id="text_56">
      <!-- $\mathdefault{−1}$ -->
      <g transform="translate(372.436364 324.904156) scale(0.12 -0.12)">
       <use xlink:href="#CMSY10-0" transform="scale(0.996264)"/>
       <use xlink:href="#CMR17-31" transform="translate(77.487468 0) scale(0.996264)"/>
      </g>
     </g>
    </g>
    <g id="ytick_18">
     <g id="line2d_110">
      <path d="M 394.587843 284.596545 
L 698.95148 284.596545 
" clip-path="url(#pfa8a16c3aa)" style="fill: none; stroke: #b0b0b0; stroke-width: 0.8; stroke-linecap: square"/>
     </g>
     <g id="line2d_111">
      <g>
       <use xlink:href="#m4b8c474e7a" x="394.587843" y="284.596545" style="stroke: #000000; stroke-width: 0.8"/>
      </g>
     </g>
     <g id="text_57">
      <!-- $\mathdefault{0}$ -->
      <g transform="translate(381.734853 288.747635) scale(0.12 -0.12)">
       <use xlink:href="#CMR17-30" transform="scale(0.996264)"/>
      </g>
     </g>
    </g>
    <g id="ytick_19">
     <g id="line2d_112">
      <path d="M 394.587843 248.440023 
L 698.95148 248.440023 
" clip-path="url(#pfa8a16c3aa)" style="fill: none; stroke: #b0b0b0; stroke-width: 0.8; stroke-linecap: square"/>
     </g>
     <g id="line2d_113">
      <g>
       <use xlink:href="#m4b8c474e7a" x="394.587843" y="248.440023" style="stroke: #000000; stroke-width: 0.8"/>
      </g>
     </g>
     <g id="text_58">
      <!-- $\mathdefault{1}$ -->
      <g transform="translate(381.734853 252.591113) scale(0.12 -0.12)">
       <use xlink:href="#CMR17-31" transform="scale(0.996264)"/>
      </g>
     </g>
    </g>
    <g id="ytick_20">
     <g id="line2d_114">
      <path d="M 394.587843 212.283501 
L 698.95148 212.283501 
" clip-path="url(#pfa8a16c3aa)" style="fill: none; stroke: #b0b0b0; stroke-width: 0.8; stroke-linecap: square"/>
     </g>
     <g id="line2d_115">
      <g>
       <use xlink:href="#m4b8c474e7a" x="394.587843" y="212.283501" style="stroke: #000000; stroke-width: 0.8"/>
      </g>
     </g>
     <g id="text_59">
      <!-- $\mathdefault{2}$ -->
      <g transform="translate(381.734853 216.434591) scale(0.12 -0.12)">
       <use xlink:href="#CMR17-32" transform="scale(0.996264)"/>
      </g>
     </g>
    </g>
   </g>
   <g id="line2d_116">
    <path d="M 394.587843 262.447863 
L 396.109661 267.357114 
L 397.63148 271.638761 
L 399.153298 270.566168 
L 400.675116 273.556099 
L 402.196934 275.391552 
L 403.718752 278.987781 
L 405.240571 283.096405 
L 406.762389 288.560149 
L 409.806025 294.340019 
L 411.327843 296.194688 
L 412.849661 299.714956 
L 414.37148 302.266409 
L 415.893298 308.189152 
L 417.415116 309.951448 
L 418.936934 306.856661 
L 420.458752 307.366608 
L 421.980571 308.352627 
L 423.502389 307.5474 
L 425.024207 303.736914 
L 426.546025 300.275943 
L 428.067843 300.037737 
L 429.589661 298.304082 
L 431.11148 296.880505 
L 432.633298 297.988554 
L 434.155116 296.896803 
L 435.676934 294.134555 
L 437.198752 295.403974 
L 438.720571 291.159948 
L 440.242389 289.163349 
L 441.764207 287.705221 
L 443.286025 284.243407 
L 444.807843 283.031558 
L 446.329661 281.111698 
L 447.85148 281.702917 
L 449.373298 282.002247 
L 450.895116 281.285698 
L 452.416934 278.044561 
L 453.938752 277.56793 
L 455.460571 275.179421 
L 456.982389 273.881513 
L 458.504207 272.402027 
L 460.026025 268.50012 
L 461.547843 267.160305 
L 463.069661 268.075929 
L 464.59148 266.034731 
L 466.113298 265.767562 
L 467.635116 263.279675 
L 470.678752 260.79097 
L 472.200571 264.132916 
L 473.722389 263.906509 
L 475.244207 267.884254 
L 476.766025 271.361008 
L 478.287843 277.144064 
L 479.809661 281.525515 
L 481.33148 283.826992 
L 482.853298 288.693214 
L 484.375116 291.526927 
L 485.896934 294.816449 
L 487.418752 299.573194 
L 488.940571 303.785967 
L 490.462389 307.253309 
L 491.984207 308.656294 
L 493.506025 311.208145 
L 495.027843 308.126533 
L 496.549661 309.607535 
L 498.07148 308.452072 
L 499.593298 307.516191 
L 502.636934 302.227775 
L 504.158752 303.648404 
L 505.680571 300.876763 
L 507.202389 301.012456 
L 508.724207 297.61466 
L 510.246025 295.998561 
L 511.767843 292.741717 
L 513.289661 290.477163 
L 514.81148 289.616443 
L 516.333298 288.387539 
L 517.855116 289.694601 
L 519.376934 285.985091 
L 520.898752 286.644893 
L 522.420571 284.697864 
L 523.942389 285.226086 
L 525.464207 284.683422 
L 526.986025 282.824937 
L 530.029661 281.718414 
L 531.55148 282.252106 
L 533.073298 281.538522 
L 534.595116 280.958533 
L 536.116934 279.771756 
L 537.638752 281.670028 
L 539.160571 281.082549 
L 540.682389 277.778303 
L 542.204207 279.291787 
L 543.726025 276.461131 
L 545.247843 272.52008 
L 546.769661 267.720433 
L 548.29148 271.385096 
L 549.813298 273.087126 
L 551.335116 275.75186 
L 554.378752 283.115115 
L 555.900571 285.671134 
L 557.422389 288.797988 
L 558.944207 292.746772 
L 560.466025 293.500725 
L 561.987843 296.753926 
L 563.509661 300.577606 
L 565.03148 302.529011 
L 566.553298 305.99495 
L 568.075116 310.455222 
L 569.596934 314.396914 
L 572.640571 311.483291 
L 574.162389 307.54108 
L 575.684207 304.707741 
L 577.206025 301.279159 
L 578.727843 300.3939 
L 580.249661 298.671783 
L 581.77148 296.503169 
L 583.293298 293.6699 
L 584.815116 289.669458 
L 586.336934 288.095203 
L 587.858752 286.036232 
L 589.380571 282.258418 
L 590.902389 279.776686 
L 592.424207 279.123103 
L 593.946025 276.889441 
L 595.467843 275.041239 
L 596.989661 274.941492 
L 598.51148 274.369 
L 600.033298 273.925921 
L 601.555116 274.427978 
L 604.598752 269.405014 
L 606.120571 270.56442 
L 607.642389 271.887307 
L 609.164207 271.528254 
L 610.686025 270.699393 
L 613.729661 269.592633 
L 615.25148 266.621162 
L 616.773298 266.830854 
L 618.295116 267.60177 
L 619.816934 265.375258 
L 621.338752 262.509871 
L 622.860571 262.002379 
L 624.382389 257.579723 
L 627.426025 268.166668 
L 628.947843 271.143425 
L 630.469661 275.065453 
L 631.99148 278.618492 
L 633.513298 279.329661 
L 638.078752 288.633969 
L 639.600571 290.484346 
L 641.122389 294.14615 
L 642.644207 299.150852 
L 644.166025 301.971753 
L 645.687843 304.186166 
L 647.209661 308.334576 
L 648.73148 308.007226 
L 650.253298 305.803413 
L 651.775116 302.941377 
L 653.296934 300.753043 
L 654.818752 297.702386 
L 656.340571 298.519188 
L 657.862389 298.612774 
L 659.384207 299.687991 
L 660.906025 299.414491 
L 662.427843 298.335967 
L 663.949661 295.201089 
L 665.47148 294.742835 
L 666.993298 293.782789 
L 668.515116 294.433316 
L 670.036934 291.971017 
L 671.558752 286.215156 
L 673.080571 285.841499 
L 674.602389 284.131506 
L 676.124207 281.559261 
L 677.646025 279.402927 
L 679.167843 277.509089 
L 680.689661 277.262781 
L 682.21148 275.026422 
L 683.733298 271.591567 
L 685.255116 269.378068 
L 686.776934 268.060459 
L 688.298752 263.902863 
L 689.820571 264.859031 
L 691.342389 260.692526 
L 692.864207 259.003874 
L 694.386025 262.388535 
L 695.907843 261.583069 
L 697.429661 260.380014 
L 698.95148 260.831561 
L 700.473298 265.552364 
L 700.473298 265.552364 
" clip-path="url(#pfa8a16c3aa)" style="fill: none; stroke: #1f77b4; stroke-width: 1.5; stroke-linecap: square"/>
   </g>
   <g id="patch_18">
    <path d="M 394.587843 356.909588 
L 394.587843 212.283501 
" style="fill: none; stroke: #000000; stroke-width: 0.8; stroke-linejoin: miter; stroke-linecap: square"/>
   </g>
   <g id="patch_19">
    <path d="M 698.95148 356.909588 
L 698.95148 212.283501 
" style="fill: none; stroke: #000000; stroke-width: 0.8; stroke-linejoin: miter; stroke-linecap: square"/>
   </g>
   <g id="patch_20">
    <path d="M 394.587843 356.909588 
L 698.95148 356.909588 
" style="fill: none; stroke: #000000; stroke-width: 0.8; stroke-linejoin: miter; stroke-linecap: square"/>
   </g>
   <g id="patch_21">
    <path d="M 394.587843 212.283501 
L 698.95148 212.283501 
" style="fill: none; stroke: #000000; stroke-width: 0.8; stroke-linejoin: miter; stroke-linecap: square"/>
   </g>
   <g id="text_60">
    <!-- $z$ ($M=15$) -->
    <g transform="translate(507.434168 206.283501) scale(0.16 -0.16)">
     <use xlink:href="#CMMI12-7a" transform="scale(0.996264)"/>
     <use xlink:href="#CMR17-28" transform="translate(79.831111 0) scale(0.996264)"/>
     <use xlink:href="#CMMI12-4d" transform="translate(115.111879 0) scale(0.996264)"/>
     <use xlink:href="#CMR17-3d" transform="translate(247.565967 0) scale(0.996264)"/>
     <use xlink:href="#CMR17-31" transform="translate(346.954764 0) scale(0.996264)"/>
     <use xlink:href="#CMR17-35" transform="translate(392.645241 0) scale(0.996264)"/>
     <use xlink:href="#CMR17-29" transform="translate(438.335718 0) scale(0.996264)"/>
    </g>
   </g>
  </g>
 </g>
 <defs>
  <clipPath id="pfd4870eeb2">
   <rect x="29.35148" y="24.269588" width="304.363636" height="144.626087"/>
  </clipPath>
  <clipPath id="p0302392cd9">
   <rect x="394.587843" y="24.269588" width="304.363636" height="144.626087"/>
  </clipPath>
  <clipPath id="pe567a5360c">
   <rect x="29.35148" y="212.283501" width="304.363636" height="144.626087"/>
  </clipPath>
  <clipPath id="pfa8a16c3aa">
   <rect x="394.587843" y="212.283501" width="304.363636" height="144.626087"/>
  </clipPath>
 </defs>
</svg>
