<?xml version="1.0" encoding="utf-8" standalone="no"?>
<!DOCTYPE svg PUBLIC "-//W3C//DTD SVG 1.1//EN"
  "http://www.w3.org/Graphics/SVG/1.1/DTD/svg11.dtd">
<svg height="354.507696pt" version="1.1" viewBox="0 0 572.561471 354.507696" width="572.561471pt" xmlns="http://www.w3.org/2000/svg" xmlns:xlink="http://www.w3.org/1999/xlink">
 <metadata>
  <rdf:RDF xmlns:cc="http://creativecommons.org/ns#" xmlns:dc="http://purl.org/dc/elements/1.1/" xmlns:rdf="http://www.w3.org/1999/02/22-rdf-syntax-ns#">
   <cc:Work>
    <dc:type rdf:resource="http://purl.org/dc/dcmitype/StillImage"/>
    <dc:date>2024-09-06T17:43:46.509339</dc:date>
    <dc:format>image/svg+xml</dc:format>
    <dc:creator>
     <cc:Agent>
      <dc:title>Matplotlib v3.4.3, https://matplotlib.org/</dc:title>
     </cc:Agent>
    </dc:creator>
   </cc:Work>
  </rdf:RDF>
 </metadata>
 <defs>
  <style type="text/css">*{stroke-linecap:butt;stroke-linejoin:round;}</style>
 </defs>
 <g id="figure_1">
  <g id="patch_1">
   <path d="M 0 354.507696 
L 572.561471 354.507696 
L 572.561471 0 
L 0 0 
z
" style="fill:none;"/>
  </g>
  <g id="axes_1">
   <g id="PolyCollection_1">
    <defs>
     <path d="M 46.184712 -314.174118 
L 46.184712 -275.802353 
L 180.104712 -275.802353 
L 180.104712 -103.129412 
L 228.802894 -103.129412 
L 228.802894 -103.129412 
L 452.002894 -103.129412 
L 452.002894 -141.501176 
L 452.002894 -141.501176 
L 228.802894 -141.501176 
L 228.802894 -314.174118 
L 180.104712 -314.174118 
L 180.104712 -314.174118 
L 46.184712 -314.174118 
z
" id="m6aa833ac9f" style="stroke:#2ba12b;stroke-opacity:0.15;"/>
    </defs>
    <g clip-path="url(#p4644196952)">
     <use style="fill:#2ba12b;fill-opacity:0.15;stroke:#2ba12b;stroke-opacity:0.15;" x="0" xlink:href="#m6aa833ac9f" y="354.507696"/>
    </g>
   </g>
   <g id="line2d_1">
    <path clip-path="url(#p4644196952)" d="M 46.184712 59.519461 
L 208.511985 59.519461 
L 208.511985 251.378284 
L 452.002894 251.378284 
" style="fill:none;stroke:#1f77b4;stroke-linecap:square;stroke-width:1.5;"/>
   </g>
   <g id="line2d_2">
    <path clip-path="url(#p4644196952)" d="M 46.184712 40.333578 
L 228.802894 40.333578 
L 228.802894 213.00652 
L 452.002894 213.00652 
" style="fill:none;stroke:#2ca02c;stroke-linecap:square;stroke-width:1.5;"/>
   </g>
   <g id="line2d_3">
    <path clip-path="url(#p4644196952)" d="M 46.184712 78.705343 
L 180.104712 78.705343 
L 180.104712 251.378284 
L 452.002894 251.378284 
" style="fill:none;stroke:#2ca02c;stroke-linecap:square;stroke-width:1.5;"/>
   </g>
   <g id="line2d_4">
    <path clip-path="url(#p4644196952)" d="M 46.184712 59.519461 
L 52.302575 56.535415 
L 54.341862 55.694518 
L 56.381149 55.044179 
L 58.420437 54.643643 
L 60.459724 54.539452 
L 62.499011 54.761222 
L 64.538299 55.318301 
L 66.577586 56.197625 
L 68.616873 57.362994 
L 70.656161 58.755945 
L 78.81331 64.837501 
L 80.852597 65.969153 
L 82.891885 66.746722 
L 84.931172 67.095143 
L 86.970459 66.963895 
L 89.009747 66.332015 
L 91.049034 65.211358 
L 93.088321 63.64775 
L 95.127609 61.719829 
L 99.206183 57.226328 
L 101.245471 54.939494 
L 103.284758 52.828851 
L 105.324046 51.044559 
L 107.363333 49.722618 
L 109.40262 48.974809 
L 111.441908 48.879811 
L 113.481195 49.476173 
L 115.520482 50.757722 
L 117.55977 52.67186 
L 119.599057 55.120994 
L 121.638344 57.967142 
L 127.756206 67.079401 
L 129.795494 69.642496 
L 131.834781 71.650301 
L 133.874068 72.948921 
L 135.913356 73.426003 
L 137.952643 73.019899 
L 139.99193 71.725689 
L 142.031218 69.597507 
L 144.070505 66.746907 
L 146.109792 63.337223 
L 152.227654 51.945514 
L 154.266942 48.579195 
L 156.306229 45.825033 
L 158.345516 43.879148 
L 160.384804 42.88919 
L 162.424091 42.943229 
L 164.463379 44.062442 
L 166.502666 46.198211 
L 168.541953 49.233956 
L 170.581241 52.991698 
L 174.659815 61.724016 
L 176.699103 66.15286 
L 178.73839 70.249926 
L 180.777677 73.758571 
L 182.816965 76.466238 
L 184.856252 78.225147 
L 186.895539 78.972556 
L 188.934827 78.751332 
L 190.974114 77.732453 
L 195.052689 74.792143 
L 197.091976 74.117999 
L 199.131263 75.191233 
L 201.170551 79.168246 
L 203.209838 87.175436 
L 205.249125 99.8567 
L 207.288413 116.79841 
L 211.366987 155.900702 
L 213.406275 173.568553 
L 215.445562 188.355429 
L 217.48485 200.355524 
L 219.524137 210.168636 
L 221.563424 218.435273 
L 223.602712 225.613508 
L 225.641999 231.938908 
L 227.681286 237.468432 
L 229.720574 242.145796 
L 231.759861 245.861586 
L 233.799148 248.500396 
L 235.838436 249.974625 
L 237.877723 250.246581 
L 239.91701 249.340733 
L 241.956298 247.347639 
L 243.995585 244.42094 
L 246.034872 240.76864 
L 250.113447 232.309161 
L 252.152734 228.057477 
L 254.192022 224.154932 
L 256.231309 220.842976 
L 258.270596 218.319375 
L 260.309884 216.726277 
L 262.349171 216.142229 
L 264.388458 216.578594 
L 266.427746 217.980521 
L 268.467033 220.232276 
L 270.506321 223.166494 
L 272.545608 226.576589 
L 278.66347 237.323359 
L 280.702757 240.317662 
L 282.742045 242.699123 
L 284.781332 244.338297 
L 286.820619 245.158152 
L 288.859907 245.137224 
L 290.899194 244.308984 
L 292.938481 242.757579 
L 294.977769 240.610381 
L 297.017056 238.027956 
L 303.134918 229.518894 
L 305.174205 227.037783 
L 307.213493 224.994053 
L 309.25278 223.496595 
L 311.292067 222.614078 
L 313.331355 222.372365 
L 315.370642 222.754889 
L 317.409929 223.705808 
L 319.449217 225.135606 
L 321.488504 226.928646 
L 329.645654 235.017447 
L 331.684941 236.619306 
L 333.724228 237.850614 
L 335.763516 238.655443 
L 337.802803 239.008549 
L 339.84209 238.915201 
L 341.881378 238.408994 
L 343.920665 237.547934 
L 345.959952 236.409146 
L 350.038527 233.664662 
L 354.117102 230.930648 
L 356.156389 229.78081 
L 358.195676 228.862311 
L 360.234964 228.216939 
L 362.274251 227.866014 
L 364.313538 227.810438 
L 366.352826 228.032094 
L 368.392113 228.496397 
L 370.4314 229.15575 
L 374.509975 230.828826 
L 378.58855 232.569461 
L 380.627837 233.326777 
L 382.667125 233.951436 
L 384.706412 234.414711 
L 386.745699 234.700578 
L 388.784987 234.805733 
L 390.824274 234.738753 
L 392.863561 234.518557 
L 396.942136 233.732893 
L 405.099285 231.758133 
L 409.17786 231.068853 
L 413.256435 230.767203 
L 417.335009 230.85486 
L 421.413584 231.239396 
L 433.649308 232.702155 
L 437.727883 232.902295 
L 441.806458 232.895799 
L 447.92432 232.602846 
L 452.002894 232.329947 
L 452.002894 232.329947 
" style="fill:none;stroke:#d62728;stroke-linecap:square;stroke-width:1.5;"/>
   </g>
   <g id="patch_2">
    <path d="M 44.123267 251.378284 
Q 267.353204 251.378284 489.465107 251.378284 
" style="fill:none;stroke:#000000;stroke-linecap:round;"/>
    <path d="M 483.865107 248.578284 
L 489.465107 251.378284 
L 483.865107 254.178284 
" style="fill:none;stroke:#000000;stroke-linecap:round;"/>
   </g>
   <g id="patch_3">
    <path d="M 46.184712 251.295464 
Q 46.184712 137.220681 46.184712 24.263931 
" style="fill:none;stroke:#000000;stroke-linecap:round;"/>
    <path d="M 43.384712 29.863931 
L 46.184712 24.263931 
L 48.984712 29.863931 
" style="fill:none;stroke:#000000;stroke-linecap:round;"/>
   </g>
   <g id="text_1">
    <!-- $A^-$ -->
    <g transform="translate(20.025855 82.192267)scale(0.14 -0.14)">
     <defs>
      <path d="M 1088 720 
C 864 335 646 205 339 185 
C 269 179 218 179 218 64 
C 218 25 250 0 294 0 
C 410 0 698 12 813 12 
C 998 12 1203 0 1382 0 
C 1421 0 1498 0 1498 121 
C 1498 179 1446 185 1408 185 
C 1261 198 1139 250 1139 407 
C 1139 498 1178 570 1261 714 
L 1747 1536 
L 3379 1536 
C 3386 1477 3386 1425 3392 1366 
C 3411 1196 3488 518 3488 394 
C 3488 198 3162 185 3059 185 
C 2989 185 2918 185 2918 70 
C 2918 0 2976 0 3014 0 
C 3123 0 3251 12 3360 12 
L 3725 12 
C 4115 12 4397 0 4403 0 
C 4448 0 4518 0 4518 121 
C 4518 185 4461 185 4365 185 
C 4013 185 4006 244 3987 440 
L 3597 4403 
C 3584 4531 3558 4544 3488 4544 
C 3424 4544 3386 4531 3328 4435 
L 1088 720 
z
M 1856 1721 
L 3142 3831 
L 3360 1721 
L 1856 1721 
z
" id="CMMI12-41" transform="scale(0.015625)"/>
      <path d="M 4218 1472 
C 4326 1472 4442 1472 4442 1600 
C 4442 1728 4326 1728 4218 1728 
L 755 1728 
C 646 1728 531 1728 531 1600 
C 531 1472 646 1472 755 1472 
L 4218 1472 
z
" id="CMSY10-0" transform="scale(0.015625)"/>
     </defs>
     <use transform="scale(0.996264)" xlink:href="#CMMI12-41"/>
     <use transform="translate(73.127885 36.153639)scale(0.697382)" xlink:href="#CMSY10-0"/>
    </g>
   </g>
   <g id="text_2">
    <!-- $K$ -->
    <g transform="translate(26.449383 63.006385)scale(0.14 -0.14)">
     <defs>
      <path d="M 3200 2574 
C 3194 2593 3168 2644 3168 2663 
C 3168 2669 3174 2675 3283 2758 
L 3904 3242 
C 4762 3905 5043 4128 5485 4166 
C 5530 4172 5594 4172 5594 4281 
C 5594 4319 5574 4352 5523 4352 
C 5453 4352 5376 4339 5306 4339 
L 5062 4339 
C 4864 4339 4653 4352 4461 4352 
C 4416 4352 4339 4352 4339 4236 
C 4339 4172 4384 4166 4422 4166 
C 4493 4159 4576 4134 4576 4045 
C 4576 3917 4384 3765 4333 3726 
L 1824 1784 
L 2355 3886 
C 2413 4102 2426 4166 2880 4166 
C 3002 4166 3059 4166 3059 4287 
C 3059 4352 2995 4352 2963 4352 
C 2848 4352 2714 4339 2592 4339 
L 1837 4339 
C 1722 4339 1581 4352 1466 4352 
C 1414 4352 1344 4352 1344 4230 
C 1344 4166 1402 4166 1498 4166 
C 1888 4166 1888 4115 1888 4045 
C 1888 4032 1888 3994 1862 3898 
L 998 472 
C 941 249 928 185 480 185 
C 358 185 294 185 294 70 
C 294 0 352 0 390 0 
C 512 0 640 12 762 12 
L 1510 12 
C 1632 12 1766 0 1888 0 
C 1939 0 2010 0 2010 121 
C 2010 185 1952 185 1856 185 
C 1466 185 1466 236 1466 300 
C 1466 344 1504 504 1530 605 
L 1779 1593 
L 2752 2351 
C 2938 1943 3277 1128 3539 504 
C 3558 465 3571 427 3571 383 
C 3571 191 3315 185 3258 185 
C 3200 185 3136 185 3136 64 
C 3136 0 3206 0 3226 0 
C 3450 0 3686 12 3910 12 
L 4218 12 
C 4314 12 4422 0 4518 0 
C 4557 0 4627 0 4627 121 
C 4627 185 4570 185 4506 185 
C 4269 191 4186 242 4090 472 
L 3200 2574 
z
" id="CMMI12-4b" transform="scale(0.015625)"/>
     </defs>
     <use transform="scale(0.996264)" xlink:href="#CMMI12-4b"/>
    </g>
   </g>
   <g id="text_3">
    <!-- $A^+$ -->
    <g transform="translate(20.025855 43.820503)scale(0.14 -0.14)">
     <defs>
      <path d="M 2413 1472 
L 4109 1472 
C 4198 1472 4307 1472 4307 1580 
C 4307 1696 4205 1696 4109 1696 
L 2413 1696 
L 2413 3385 
C 2413 3475 2413 3584 2304 3584 
C 2189 3584 2189 3481 2189 3385 
L 2189 1696 
L 493 1696 
C 403 1696 294 1696 294 1587 
C 294 1472 397 1472 493 1472 
L 2189 1472 
L 2189 -194 
C 2189 -282 2189 -391 2298 -391 
C 2413 -391 2413 -289 2413 -194 
L 2413 1472 
z
" id="CMR17-2b" transform="scale(0.015625)"/>
     </defs>
     <use transform="scale(0.996264)" xlink:href="#CMMI12-41"/>
     <use transform="translate(73.127885 36.153639)scale(0.697382)" xlink:href="#CMR17-2b"/>
    </g>
   </g>
   <g id="text_4">
    <!-- $f_c-$ -->
    <g transform="translate(157.68257 268.738514)scale(0.14 -0.14)">
     <defs>
      <path d="M 2854 2566 
C 2982 2566 3034 2566 3034 2687 
C 3034 2752 2982 2752 2867 2752 
L 2349 2752 
C 2470 3398 2560 3846 2611 4051 
C 2650 4204 2784 4351 2950 4351 
C 3085 4351 3219 4294 3283 4236 
C 3034 4211 2957 4025 2957 3916 
C 2957 3788 3053 3712 3174 3712 
C 3302 3712 3494 3820 3494 4064 
C 3494 4332 3226 4480 2944 4480 
C 2669 4480 2400 4275 2272 4025 
C 2157 3801 2093 3573 1946 2752 
L 1517 2752 
C 1395 2752 1331 2752 1331 2636 
C 1331 2566 1370 2566 1498 2566 
L 1907 2566 
C 1792 1977 1530 545 1382 -132 
C 1274 -685 1178 -1152 858 -1152 
C 838 -1152 653 -1152 538 -1031 
C 864 -1005 864 -724 864 -717 
C 864 -589 768 -512 646 -512 
C 518 -512 326 -621 326 -865 
C 326 -1140 608 -1280 858 -1280 
C 1510 -1280 1779 -113 1850 203 
C 1965 691 2278 2376 2310 2566 
L 2854 2566 
z
" id="CMMI12-66" transform="scale(0.015625)"/>
      <path d="M 2502 2432 
C 2381 2432 2323 2432 2234 2355 
C 2195 2323 2125 2227 2125 2124 
C 2125 1996 2221 1919 2342 1919 
C 2496 1919 2669 2047 2669 2303 
C 2669 2591 2374 2816 1933 2816 
C 1094 2816 256 1932 256 1011 
C 256 446 602 -64 1254 -64 
C 2125 -64 2675 622 2675 706 
C 2675 745 2637 777 2611 777 
C 2592 777 2586 771 2528 712 
C 2118 161 1510 64 1267 64 
C 826 64 685 453 685 777 
C 685 1004 794 1634 1024 2073 
C 1190 2374 1536 2687 1939 2687 
C 2022 2687 2374 2676 2502 2432 
z
" id="CMMI12-63" transform="scale(0.015625)"/>
     </defs>
     <use transform="scale(0.996264)" xlink:href="#CMMI12-66"/>
     <use transform="translate(48.083238 -14.943915)scale(0.697382)" xlink:href="#CMMI12-63"/>
     <use transform="translate(77.969501 0)scale(0.996264)" xlink:href="#CMSY10-0"/>
    </g>
   </g>
   <g id="text_5">
    <!-- $f_c$ -->
    <g transform="translate(202.974098 268.738514)scale(0.14 -0.14)">
     <use transform="scale(0.996264)" xlink:href="#CMMI12-66"/>
     <use transform="translate(48.083238 -14.943915)scale(0.697382)" xlink:href="#CMMI12-63"/>
    </g>
   </g>
   <g id="text_6">
    <!-- $f_c+$ -->
    <g transform="translate(228.802894 268.738514)scale(0.14 -0.14)">
     <use transform="scale(0.996264)" xlink:href="#CMMI12-66"/>
     <use transform="translate(48.083238 -14.943915)scale(0.697382)" xlink:href="#CMMI12-63"/>
     <use transform="translate(77.969501 0)scale(0.996264)" xlink:href="#CMR17-2b"/>
    </g>
   </g>
   <g id="text_7">
    <!-- $0$ -->
    <g transform="translate(31.23986 268.738514)scale(0.14 -0.14)">
     <defs>
      <path d="M 2688 2038 
C 2688 2430 2682 3099 2413 3613 
C 2176 4063 1798 4224 1466 4224 
C 1158 4224 768 4082 525 3620 
C 269 3137 243 2539 243 2038 
C 243 1671 250 1112 448 623 
C 723 -39 1216 -128 1466 -128 
C 1760 -128 2208 -7 2470 604 
C 2662 1048 2688 1568 2688 2038 
z
M 1466 -26 
C 1056 -26 813 328 723 816 
C 653 1196 653 1749 653 2109 
C 653 2604 653 3015 736 3407 
C 858 3954 1216 4121 1466 4121 
C 1728 4121 2067 3947 2189 3420 
C 2272 3054 2278 2623 2278 2109 
C 2278 1691 2278 1176 2202 797 
C 2067 96 1690 -26 1466 -26 
z
" id="CMR17-30" transform="scale(0.015625)"/>
     </defs>
     <use transform="scale(0.996264)" xlink:href="#CMR17-30"/>
    </g>
   </g>
   <g id="text_8">
    <!-- $f$ -->
    <g transform="translate(492.584712 261.064161)scale(0.14 -0.14)">
     <use transform="scale(0.996264)" xlink:href="#CMMI12-66"/>
    </g>
   </g>
   <g id="text_9">
    <!-- $|H(f)|$ -->
    <g transform="translate(7.2 17.660772)scale(0.14 -0.14)">
     <defs>
      <path d="M 1018 4569 
C 1018 4684 1018 4800 890 4800 
C 762 4800 762 4684 762 4569 
L 762 -1370 
C 762 -1485 762 -1600 890 -1600 
C 1018 -1600 1018 -1485 1018 -1370 
L 1018 4569 
z
" id="CMSY10-6a" transform="scale(0.015625)"/>
      <path d="M 4787 3886 
C 4845 4102 4858 4166 5312 4166 
C 5427 4166 5491 4166 5491 4281 
C 5491 4352 5434 4352 5395 4352 
C 5280 4352 5146 4339 5024 4339 
L 4269 4339 
C 4147 4339 4013 4352 3891 4352 
C 3846 4352 3770 4352 3770 4230 
C 3770 4166 3814 4166 3936 4166 
C 4320 4166 4320 4115 4320 4045 
C 4320 4032 4320 3994 4294 3899 
L 3904 2361 
L 1971 2361 
L 2355 3886 
C 2413 4102 2426 4166 2880 4166 
C 2995 4166 3059 4166 3059 4281 
C 3059 4352 3002 4352 2963 4352 
C 2848 4352 2714 4339 2592 4339 
L 1837 4339 
C 1715 4339 1581 4352 1459 4352 
C 1414 4352 1338 4352 1338 4230 
C 1338 4166 1382 4166 1504 4166 
C 1888 4166 1888 4115 1888 4045 
C 1888 4032 1888 3994 1862 3899 
L 998 472 
C 941 249 928 185 486 185 
C 339 185 294 185 294 64 
C 294 0 365 0 384 0 
C 499 0 634 12 755 12 
L 1510 12 
C 1632 12 1766 0 1888 0 
C 1939 0 2010 0 2010 121 
C 2010 185 1952 185 1856 185 
C 1466 185 1466 236 1466 300 
C 1466 306 1466 351 1478 402 
L 1920 2176 
L 3859 2176 
C 3750 1755 3424 421 3411 383 
C 3341 191 3238 191 2861 185 
C 2784 185 2726 185 2726 64 
C 2726 0 2797 0 2816 0 
C 2931 0 3066 12 3187 12 
L 3942 12 
C 4064 12 4198 0 4320 0 
C 4371 0 4442 0 4442 121 
C 4442 185 4384 185 4288 185 
C 3898 185 3898 236 3898 300 
C 3898 306 3898 351 3910 402 
L 4787 3886 
z
" id="CMMI12-48" transform="scale(0.015625)"/>
      <path d="M 1958 -1562 
C 1958 -1556 1958 -1543 1939 -1524 
C 1645 -1223 858 -403 858 1596 
C 858 3595 1632 4408 1946 4729 
C 1946 4735 1958 4748 1958 4767 
C 1958 4787 1939 4800 1914 4800 
C 1843 4800 1299 4325 986 3620 
C 666 2909 576 2218 576 1603 
C 576 1141 621 360 1005 -467 
C 1312 -1133 1837 -1600 1914 -1600 
C 1946 -1600 1958 -1588 1958 -1562 
z
" id="CMR17-28" transform="scale(0.015625)"/>
      <path d="M 1683 1596 
C 1683 2057 1638 2839 1254 3665 
C 947 4332 422 4800 346 4800 
C 326 4800 301 4793 301 4761 
C 301 4748 307 4742 314 4729 
C 621 4408 1402 3595 1402 1603 
C 1402 -396 627 -1210 314 -1530 
C 307 -1543 301 -1549 301 -1562 
C 301 -1594 326 -1600 346 -1600 
C 416 -1600 960 -1127 1274 -422 
C 1594 289 1683 981 1683 1596 
z
" id="CMR17-29" transform="scale(0.015625)"/>
     </defs>
     <use transform="scale(0.996264)" xlink:href="#CMSY10-6a"/>
     <use transform="translate(27.674085 0)scale(0.996264)" xlink:href="#CMMI12-48"/>
     <use transform="translate(116.195857 0)scale(0.996264)" xlink:href="#CMR17-28"/>
     <use transform="translate(151.476625 0)scale(0.996264)" xlink:href="#CMMI12-66"/>
     <use transform="translate(210.19693 0)scale(0.996264)" xlink:href="#CMR17-29"/>
     <use transform="translate(245.477698 0)scale(0.996264)" xlink:href="#CMSY10-6a"/>
    </g>
   </g>
   <g id="patch_4">
    <path d="M 141.523005 232.192402 
Q 174.017812 232.192402 205.394585 232.192402 
" style="fill:none;stroke:#1f77b4;stroke-linecap:round;"/>
    <path d="M 199.794585 229.392402 
L 205.394585 232.192402 
L 199.794585 234.992402 
" style="fill:none;stroke:#1f77b4;stroke-linecap:round;"/>
   </g>
   <g id="text_10">
    <!-- filtre idéal -->
    <g style="fill:#1f77b4;" transform="translate(67.063933 236.67502)scale(0.18 -0.18)">
     <defs>
      <path d="M 2554 2816 
C 2400 2809 1926 2777 1805 2764 
C 1766 2758 1754 2758 1677 2758 
L 947 2758 
L 947 3517 
C 947 4127 1434 4416 1818 4416 
C 1939 4416 2214 4383 2355 4160 
C 2291 4160 2086 4160 2086 3935 
C 2086 3782 2189 3705 2317 3705 
C 2432 3705 2547 3769 2547 3942 
C 2547 4265 2240 4518 1843 4518 
C 1338 4518 634 4225 634 3517 
L 634 2758 
L 122 2758 
L 122 2591 
L 634 2591 
L 634 442 
C 634 198 608 166 198 166 
L 198 0 
C 352 12 634 12 794 12 
C 960 12 1242 12 1395 0 
L 1395 166 
C 986 166 960 192 960 442 
L 960 2591 
L 1901 2591 
C 2176 2591 2227 2534 2227 2251 
L 2227 442 
C 2227 198 2202 166 1792 166 
L 1792 0 
C 1946 12 2227 12 2387 12 
C 2554 12 2835 12 2989 0 
L 2989 166 
C 2579 166 2554 192 2554 442 
L 2554 2816 
z
" id="CMR17-c" transform="scale(0.015625)"/>
      <path d="M 979 4416 
L 218 4345 
L 218 4179 
C 595 4179 653 4141 653 3835 
L 653 439 
C 653 198 627 166 218 166 
L 218 0 
C 371 12 653 12 813 12 
C 979 12 1261 12 1414 0 
L 1414 166 
C 1005 166 979 191 979 439 
L 979 4416 
z
" id="CMR17-6c" transform="scale(0.015625)"/>
      <path d="M 966 2585 
L 1862 2585 
L 1862 2752 
L 966 2752 
L 966 3968 
L 851 3968 
C 838 3292 614 2700 70 2687 
L 70 2585 
L 627 2585 
L 627 778 
C 627 655 627 -64 1370 -64 
C 1747 -64 1965 308 1965 784 
L 1965 1151 
L 1850 1151 
L 1850 790 
C 1850 347 1677 51 1408 51 
C 1222 51 966 179 966 765 
L 966 2585 
z
" id="CMR17-74" transform="scale(0.015625)"/>
      <path d="M 960 1517 
C 960 2134 1222 2713 1702 2713 
C 1747 2713 1792 2707 1837 2687 
C 1837 2687 1696 2642 1696 2475 
C 1696 2321 1818 2257 1914 2257 
C 1990 2257 2131 2302 2131 2482 
C 2131 2687 1926 2816 1709 2816 
C 1222 2816 1011 2340 947 2115 
L 941 2115 
L 941 2816 
L 198 2745 
L 198 2578 
C 576 2578 634 2540 634 2231 
L 634 443 
C 634 198 608 166 198 166 
L 198 0 
C 352 12 646 12 813 12 
C 998 12 1325 12 1498 0 
L 1498 166 
C 1037 166 960 166 960 455 
L 960 1517 
z
" id="CMR17-72" transform="scale(0.015625)"/>
      <path d="M 2438 1503 
C 2464 1529 2464 1542 2464 1606 
C 2464 2251 2118 2816 1389 2816 
C 710 2816 173 2175 173 1394 
C 173 554 781 -64 1459 -64 
C 2176 -64 2458 619 2458 755 
C 2458 800 2419 800 2406 800 
C 2362 800 2355 787 2330 709 
C 2189 270 1837 51 1504 51 
C 1229 51 954 206 781 490 
C 582 819 582 1200 582 1503 
L 2438 1503 
z
M 589 1600 
C 634 2511 1126 2713 1382 2713 
C 1818 2713 2112 2308 2118 1600 
L 589 1600 
z
" id="CMR17-65" transform="scale(0.015625)"/>
      <path d="M 992 3961 
C 992 4102 877 4224 730 4224 
C 589 4224 467 4108 467 3961 
C 467 3820 582 3699 730 3699 
C 870 3699 992 3814 992 3961 
z
M 243 2745 
L 243 2579 
C 602 2579 653 2540 653 2231 
L 653 443 
C 653 198 627 166 218 166 
L 218 0 
C 371 12 646 12 806 12 
C 960 12 1222 12 1370 0 
L 1370 166 
C 992 166 979 205 979 436 
L 979 2816 
L 243 2745 
z
" id="CMR17-69" transform="scale(0.015625)"/>
      <path d="M 1869 4345 
L 1869 4179 
C 2246 4179 2304 4141 2304 3843 
L 2304 2371 
C 2278 2403 2016 2816 1498 2816 
C 845 2816 211 2228 211 1376 
C 211 529 806 -64 1434 -64 
C 1978 -64 2259 361 2291 406 
L 2291 -64 
L 3066 -13 
L 3066 154 
C 2688 154 2630 193 2630 503 
L 2630 4416 
L 1869 4345 
z
M 2291 762 
C 2291 568 2176 393 2029 264 
C 1811 70 1594 38 1472 38 
C 1286 38 621 135 621 1369 
C 621 2636 1363 2713 1530 2713 
C 1824 2713 2061 2545 2208 2313 
C 2291 2177 2291 2157 2291 2041 
L 2291 762 
z
" id="CMR17-64" transform="scale(0.015625)"/>
      <path d="M 2221 4157 
C 2298 4226 2317 4239 2317 4308 
C 2317 4403 2234 4480 2144 4480 
C 2067 4480 2042 4447 1978 4371 
L 1254 3468 
C 1210 3411 1210 3404 1210 3398 
C 1210 3391 1267 3334 1280 3321 
L 2221 4157 
z
" id="CMR17-13" transform="scale(0.015625)"/>
      <path d="M 2304 1656 
C 2304 2048 2304 2275 2035 2534 
C 1798 2751 1523 2816 1306 2816 
C 800 2816 435 2408 435 1977 
C 435 1740 627 1728 666 1728 
C 749 1728 896 1779 896 1958 
C 896 2118 774 2188 666 2188 
C 640 2188 608 2182 589 2176 
C 723 2594 1069 2713 1293 2713 
C 1613 2713 1965 2421 1965 1875 
L 1965 1632 
C 1587 1619 1133 1568 774 1373 
C 371 1147 256 822 256 576 
C 256 77 832 -64 1171 -64 
C 1523 -64 1850 135 1990 505 
C 2003 219 2182 -39 2464 -39 
C 2598 -39 2938 51 2938 563 
L 2938 926 
L 2822 926 
L 2822 557 
C 2822 161 2650 109 2566 109 
C 2304 109 2304 446 2304 732 
L 2304 1656 
z
M 1965 887 
C 1965 323 1568 38 1216 38 
C 896 38 646 278 646 576 
C 646 771 730 1114 1101 1322 
C 1408 1497 1760 1523 1965 1536 
L 1965 887 
z
" id="CMR17-61" transform="scale(0.015625)"/>
     </defs>
     <use transform="scale(0.996264)" xlink:href="#CMR17-c"/>
     <use transform="translate(49.742223 0)scale(0.996264)" xlink:href="#CMR17-6c"/>
     <use transform="translate(74.613282 0)scale(0.996264)" xlink:href="#CMR17-74"/>
     <use transform="translate(109.89405 0)scale(0.996264)" xlink:href="#CMR17-72"/>
     <use transform="translate(145.174817 0)scale(0.996264)" xlink:href="#CMR17-65"/>
     <use transform="translate(215.736444 0)scale(0.996264)" xlink:href="#CMR17-69"/>
     <use transform="translate(240.607503 0)scale(0.996264)" xlink:href="#CMR17-64"/>
     <use transform="translate(288.900464 0)scale(0.996264)" xlink:href="#CMR17-13"/>
     <use transform="translate(291.502873 0)scale(0.996264)" xlink:href="#CMR17-65"/>
     <use transform="translate(331.988533 0)scale(0.996264)" xlink:href="#CMR17-61"/>
     <use transform="translate(377.67901 0)scale(0.996264)" xlink:href="#CMR17-6c"/>
    </g>
   </g>
   <g id="text_11">
    <!-- filtre réalisable -->
    <g style="fill:#d62728;" transform="translate(460.119258 236.67502)scale(0.18 -0.18)">
     <defs>
      <path d="M 1978 2688 
C 1978 2803 1971 2809 1933 2809 
C 1907 2809 1901 2803 1824 2707 
C 1805 2681 1747 2617 1728 2592 
C 1523 2809 1235 2816 1126 2816 
C 416 2816 160 2444 160 2073 
C 160 1497 813 1363 998 1324 
C 1402 1241 1542 1216 1677 1100 
C 1760 1024 1901 883 1901 652 
C 1901 384 1747 38 1158 38 
C 602 38 403 460 288 1024 
C 269 1113 269 1120 218 1120 
C 166 1120 160 1113 160 985 
L 160 64 
C 160 -52 166 -58 205 -58 
C 237 -58 243 -52 275 0 
C 314 57 410 211 448 275 
C 576 102 800 -64 1158 -64 
C 1792 -64 2131 281 2131 780 
C 2131 1107 1958 1280 1875 1356 
C 1683 1555 1459 1600 1190 1651 
C 838 1728 390 1817 390 2208 
C 390 2374 480 2726 1126 2726 
C 1811 2726 1850 2086 1862 1881 
C 1869 1849 1901 1843 1920 1843 
C 1978 1843 1978 1862 1978 1971 
L 1978 2688 
z
" id="CMR17-73" transform="scale(0.015625)"/>
      <path d="M 960 4416 
L 198 4345 
L 198 4179 
C 576 4179 634 4141 634 3843 
L 634 -13 
L 749 -13 
L 934 445 
C 1120 141 1395 -64 1766 -64 
C 2406 -64 3053 503 3053 1382 
C 3053 2209 2477 2816 1830 2816 
C 1434 2816 1152 2603 960 2351 
L 960 4416 
z
M 973 2022 
C 973 2138 973 2157 1062 2293 
C 1312 2681 1670 2713 1792 2713 
C 1984 2713 2643 2610 2643 1388 
C 2643 109 1888 38 1734 38 
C 1536 38 1248 115 1043 490 
C 973 613 973 626 973 742 
L 973 2022 
z
" id="CMR17-62" transform="scale(0.015625)"/>
     </defs>
     <use transform="scale(0.996264)" xlink:href="#CMR17-c"/>
     <use transform="translate(49.742223 0)scale(0.996264)" xlink:href="#CMR17-6c"/>
     <use transform="translate(74.613282 0)scale(0.996264)" xlink:href="#CMR17-74"/>
     <use transform="translate(109.89405 0)scale(0.996264)" xlink:href="#CMR17-72"/>
     <use transform="translate(145.174817 0)scale(0.996264)" xlink:href="#CMR17-65"/>
     <use transform="translate(215.736444 0)scale(0.996264)" xlink:href="#CMR17-72"/>
     <use transform="translate(248.414804 0)scale(0.996264)" xlink:href="#CMR17-13"/>
     <use transform="translate(251.017212 0)scale(0.996264)" xlink:href="#CMR17-65"/>
     <use transform="translate(291.502873 0)scale(0.996264)" xlink:href="#CMR17-61"/>
     <use transform="translate(337.19335 0)scale(0.996264)" xlink:href="#CMR17-6c"/>
     <use transform="translate(362.064408 0)scale(0.996264)" xlink:href="#CMR17-69"/>
     <use transform="translate(386.935467 0)scale(0.996264)" xlink:href="#CMR17-73"/>
     <use transform="translate(422.736804 0)scale(0.996264)" xlink:href="#CMR17-61"/>
     <use transform="translate(468.427281 0)scale(0.996264)" xlink:href="#CMR17-62"/>
     <use transform="translate(519.322651 0)scale(0.996264)" xlink:href="#CMR17-6c"/>
     <use transform="translate(544.19371 0)scale(0.996264)" xlink:href="#CMR17-65"/>
    </g>
   </g>
   <g id="patch_5">
    <path d="M 49.301247 289.750049 
Q 113.143521 289.750049 176.985794 289.750049 
" style="fill:none;stroke:#000000;stroke-linecap:round;"/>
    <path d="M 54.901247 292.550049 
L 49.301247 289.750049 
L 54.901247 286.950049 
" style="fill:none;stroke:#000000;stroke-linecap:round;"/>
    <path d="M 171.385794 286.950049 
L 176.985794 289.750049 
L 171.385794 292.550049 
" style="fill:none;stroke:#000000;stroke-linecap:round;"/>
   </g>
   <g id="text_12">
    <!-- bande -->
    <g transform="translate(91.647127 313.795478)scale(0.18 -0.18)">
     <defs>
      <path d="M 2656 1954 
C 2656 2282 2592 2816 1837 2816 
C 1331 2816 1069 2424 973 2166 
L 966 2166 
L 966 2816 
L 211 2745 
L 211 2578 
C 589 2578 646 2540 646 2231 
L 646 443 
C 646 198 621 166 211 166 
L 211 0 
C 365 12 646 12 813 12 
C 979 12 1267 12 1421 0 
L 1421 166 
C 1011 166 986 192 986 443 
L 986 1678 
C 986 2269 1344 2713 1792 2713 
C 2266 2713 2317 2289 2317 1980 
L 2317 443 
C 2317 198 2291 166 1882 166 
L 1882 0 
C 2035 12 2317 12 2483 12 
C 2650 12 2938 12 3091 0 
L 3091 166 
C 2682 166 2656 192 2656 443 
L 2656 1954 
z
" id="CMR17-6e" transform="scale(0.015625)"/>
     </defs>
     <use transform="scale(0.996264)" xlink:href="#CMR17-62"/>
     <use transform="translate(50.89537 0)scale(0.996264)" xlink:href="#CMR17-61"/>
     <use transform="translate(96.585847 0)scale(0.996264)" xlink:href="#CMR17-6e"/>
     <use transform="translate(147.481217 0)scale(0.996264)" xlink:href="#CMR17-64"/>
     <use transform="translate(198.376586 0)scale(0.996264)" xlink:href="#CMR17-65"/>
    </g>
    <!-- passante -->
    <g transform="translate(82.730286 332.227503)scale(0.18 -0.18)">
     <defs>
      <path d="M 1408 -1114 
C 998 -1114 973 -1088 973 -834 
L 973 380 
C 1158 109 1427 -64 1766 -64 
C 2406 -64 3053 503 3053 1382 
C 3053 2196 2496 2816 1837 2816 
C 1453 2816 1139 2603 960 2345 
L 960 2816 
L 198 2745 
L 198 2577 
C 576 2577 634 2539 634 2228 
L 634 -834 
C 634 -1081 608 -1114 198 -1114 
L 198 -1280 
C 352 -1268 634 -1268 800 -1268 
C 966 -1268 1254 -1268 1408 -1280 
L 1408 -1114 
z
M 973 2015 
C 973 2106 973 2241 1222 2481 
C 1254 2506 1472 2700 1792 2700 
C 2259 2700 2643 2112 2643 1376 
C 2643 639 2234 38 1728 38 
C 1498 38 1248 148 1056 451 
C 973 594 973 632 973 736 
L 973 2015 
z
" id="CMR17-70" transform="scale(0.015625)"/>
     </defs>
     <use transform="scale(0.996264)" xlink:href="#CMR17-70"/>
     <use transform="translate(50.89537 0)scale(0.996264)" xlink:href="#CMR17-61"/>
     <use transform="translate(96.585847 0)scale(0.996264)" xlink:href="#CMR17-73"/>
     <use transform="translate(132.387185 0)scale(0.996264)" xlink:href="#CMR17-73"/>
     <use transform="translate(168.188522 0)scale(0.996264)" xlink:href="#CMR17-61"/>
     <use transform="translate(213.878999 0)scale(0.996264)" xlink:href="#CMR17-6e"/>
     <use transform="translate(262.171915 0)scale(0.996264)" xlink:href="#CMR17-74"/>
     <use transform="translate(297.452683 0)scale(0.996264)" xlink:href="#CMR17-65"/>
    </g>
   </g>
   <g id="patch_6">
    <path d="M 183.223105 289.750049 
Q 204.454984 289.750049 225.686864 289.750049 
" style="fill:none;stroke:#000000;stroke-linecap:round;"/>
    <path d="M 188.823105 292.550049 
L 183.223105 289.750049 
L 188.823105 286.950049 
" style="fill:none;stroke:#000000;stroke-linecap:round;"/>
    <path d="M 220.086864 286.950049 
L 225.686864 289.750049 
L 220.086864 292.550049 
" style="fill:none;stroke:#000000;stroke-linecap:round;"/>
   </g>
   <g id="text_13">
    <!-- bande -->
    <g transform="translate(182.956218 313.795478)scale(0.18 -0.18)">
     <use transform="scale(0.996264)" xlink:href="#CMR17-62"/>
     <use transform="translate(50.89537 0)scale(0.996264)" xlink:href="#CMR17-61"/>
     <use transform="translate(96.585847 0)scale(0.996264)" xlink:href="#CMR17-6e"/>
     <use transform="translate(147.481217 0)scale(0.996264)" xlink:href="#CMR17-64"/>
     <use transform="translate(198.376586 0)scale(0.996264)" xlink:href="#CMR17-65"/>
    </g>
    <!-- de transition -->
    <g transform="translate(158.912539 332.227503)scale(0.18 -0.18)">
     <defs>
      <path d="M 2758 1356 
C 2758 2176 2163 2816 1466 2816 
C 768 2816 173 2176 173 1356 
C 173 550 768 -64 1466 -64 
C 2163 -64 2758 550 2758 1356 
z
M 1466 51 
C 1165 51 909 230 762 480 
C 602 768 582 1126 582 1408 
C 582 1676 595 2009 762 2297 
C 890 2508 1139 2713 1466 2713 
C 1754 2713 1997 2553 2150 2329 
C 2349 2028 2349 1606 2349 1408 
C 2349 1158 2336 774 2163 467 
C 1984 172 1709 51 1466 51 
z
" id="CMR17-6f" transform="scale(0.015625)"/>
     </defs>
     <use transform="scale(0.996264)" xlink:href="#CMR17-64"/>
     <use transform="translate(50.89537 0)scale(0.996264)" xlink:href="#CMR17-65"/>
     <use transform="translate(121.456997 0)scale(0.996264)" xlink:href="#CMR17-74"/>
     <use transform="translate(156.737764 0)scale(0.996264)" xlink:href="#CMR17-72"/>
     <use transform="translate(192.018532 0)scale(0.996264)" xlink:href="#CMR17-61"/>
     <use transform="translate(237.709009 0)scale(0.996264)" xlink:href="#CMR17-6e"/>
     <use transform="translate(288.604379 0)scale(0.996264)" xlink:href="#CMR17-73"/>
     <use transform="translate(324.405717 0)scale(0.996264)" xlink:href="#CMR17-69"/>
     <use transform="translate(349.276775 0)scale(0.996264)" xlink:href="#CMR17-74"/>
     <use transform="translate(384.557543 0)scale(0.996264)" xlink:href="#CMR17-69"/>
     <use transform="translate(409.428601 0)scale(0.996264)" xlink:href="#CMR17-6f"/>
     <use transform="translate(455.119079 0)scale(0.996264)" xlink:href="#CMR17-6e"/>
    </g>
   </g>
   <g id="patch_7">
    <path d="M 231.92011 289.750049 
Q 340.401722 289.750049 448.883333 289.750049 
" style="fill:none;stroke:#000000;stroke-linecap:round;"/>
    <path d="M 237.52011 292.550049 
L 231.92011 289.750049 
L 237.52011 286.950049 
" style="fill:none;stroke:#000000;stroke-linecap:round;"/>
    <path d="M 443.283333 286.950049 
L 448.883333 289.750049 
L 443.283333 292.550049 
" style="fill:none;stroke:#000000;stroke-linecap:round;"/>
   </g>
   <g id="text_14">
    <!-- bande -->
    <g transform="translate(318.905309 313.795478)scale(0.18 -0.18)">
     <use transform="scale(0.996264)" xlink:href="#CMR17-62"/>
     <use transform="translate(50.89537 0)scale(0.996264)" xlink:href="#CMR17-61"/>
     <use transform="translate(96.585847 0)scale(0.996264)" xlink:href="#CMR17-6e"/>
     <use transform="translate(147.481217 0)scale(0.996264)" xlink:href="#CMR17-64"/>
     <use transform="translate(198.376586 0)scale(0.996264)" xlink:href="#CMR17-65"/>
    </g>
    <!-- atténuée -->
    <g transform="translate(310.082164 332.227503)scale(0.18 -0.18)">
     <defs>
      <path d="M 1882 2745 
L 1882 2579 
C 2259 2579 2317 2540 2317 2229 
L 2317 1053 
C 2317 510 2029 38 1555 38 
C 1030 38 986 355 986 691 
L 986 2816 
L 211 2745 
L 211 2579 
C 467 2579 640 2579 646 2320 
L 646 1079 
C 646 646 646 368 813 187 
C 896 103 1056 -64 1517 -64 
C 2061 -64 2272 400 2323 536 
L 2330 536 
L 2330 -64 
L 3091 -13 
L 3091 154 
C 2714 154 2656 193 2656 503 
L 2656 2816 
L 1882 2745 
z
" id="CMR17-75" transform="scale(0.015625)"/>
     </defs>
     <use transform="scale(0.996264)" xlink:href="#CMR17-61"/>
     <use transform="translate(45.690477 0)scale(0.996264)" xlink:href="#CMR17-74"/>
     <use transform="translate(80.971245 0)scale(0.996264)" xlink:href="#CMR17-74"/>
     <use transform="translate(113.649604 0)scale(0.996264)" xlink:href="#CMR17-13"/>
     <use transform="translate(116.252013 0)scale(0.996264)" xlink:href="#CMR17-65"/>
     <use transform="translate(156.737673 0)scale(0.996264)" xlink:href="#CMR17-6e"/>
     <use transform="translate(205.030589 0)scale(0.996264)" xlink:href="#CMR17-75"/>
     <use transform="translate(253.32355 0)scale(0.996264)" xlink:href="#CMR17-13"/>
     <use transform="translate(255.925959 0)scale(0.996264)" xlink:href="#CMR17-65"/>
     <use transform="translate(296.411619 0)scale(0.996264)" xlink:href="#CMR17-65"/>
    </g>
   </g>
  </g>
 </g>
 <defs>
  <clipPath id="p4644196952">
   <rect height="326.16" width="446.4" x="46.184712" y="21.147696"/>
  </clipPath>
 </defs>
</svg>
