<?xml version="1.0" encoding="utf-8" standalone="no"?>
<!DOCTYPE svg PUBLIC "-//W3C//DTD SVG 1.1//EN"
  "http://www.w3.org/Graphics/SVG/1.1/DTD/svg11.dtd">
<!-- Created with matplotlib (https://matplotlib.org/) -->
<svg height="362.477808pt" version="1.1" viewBox="0 0 590.417348 362.477808" width="590.417348pt" xmlns="http://www.w3.org/2000/svg" xmlns:xlink="http://www.w3.org/1999/xlink">
 <defs>
  <style type="text/css">
*{stroke-linecap:butt;stroke-linejoin:round;}
  </style>
 </defs>
 <g id="figure_1">
  <g id="patch_1">
   <path d="M 0 362.477808 
L 590.417348 362.477808 
L 590.417348 0 
L 0 0 
z
" style="fill:#ffffff;"/>
  </g>
  <g id="axes_1">
   <g id="line2d_1">
    <path clip-path="url(#pa6c7c5a216)" d="M 67.29336 67.489573 
L 229.620633 67.489573 
L 229.620633 259.348396 
L 473.111542 259.348396 
" style="fill:none;stroke:#1f77b4;stroke-linecap:square;stroke-width:1.5;"/>
   </g>
   <g id="line2d_2">
    <path clip-path="url(#pa6c7c5a216)" d="M 67.29336 48.303691 
L 249.911542 48.303691 
L 249.911542 220.976632 
L 473.111542 220.976632 
" style="fill:none;stroke:#2ca02c;stroke-linecap:square;stroke-width:1.5;"/>
   </g>
   <g id="line2d_3">
    <path clip-path="url(#pa6c7c5a216)" d="M 67.29336 86.675455 
L 201.21336 86.675455 
L 201.21336 259.348396 
L 473.111542 259.348396 
" style="fill:none;stroke:#2ca02c;stroke-linecap:square;stroke-width:1.5;"/>
   </g>
   <g id="line2d_4">
    <path clip-path="url(#pa6c7c5a216)" d="M 67.29336 67.489573 
L 73.411222 64.505527 
L 75.45051 63.66463 
L 77.489797 63.014291 
L 79.529084 62.613755 
L 81.568372 62.509564 
L 83.607659 62.731334 
L 85.646946 63.288413 
L 87.686234 64.167737 
L 89.725521 65.333106 
L 91.764808 66.726057 
L 99.921958 72.807613 
L 101.961245 73.939266 
L 104.000532 74.716834 
L 106.03982 75.065255 
L 108.079107 74.934007 
L 110.118394 74.302127 
L 112.157682 73.181471 
L 114.196969 71.617862 
L 116.236257 69.689941 
L 120.314831 65.19644 
L 122.354119 62.909606 
L 124.393406 60.798963 
L 126.432693 59.014671 
L 128.471981 57.69273 
L 130.511268 56.944921 
L 132.550555 56.849923 
L 134.589843 57.446285 
L 136.62913 58.727834 
L 138.668417 60.641972 
L 140.707705 63.091106 
L 142.746992 65.937254 
L 148.864854 75.049513 
L 150.904141 77.612608 
L 152.943429 79.620413 
L 154.982716 80.919034 
L 157.022003 81.396115 
L 159.061291 80.990011 
L 161.100578 79.695801 
L 163.139865 77.567619 
L 165.179153 74.717019 
L 167.21844 71.307335 
L 173.336302 59.915626 
L 175.37559 56.549307 
L 177.414877 53.795145 
L 179.454164 51.84926 
L 181.493452 50.859302 
L 183.532739 50.913341 
L 185.572026 52.032554 
L 187.611314 54.168323 
L 189.650601 57.204068 
L 191.689888 60.96181 
L 195.768463 69.694129 
L 197.80775 74.122972 
L 199.847038 78.220038 
L 201.886325 81.728683 
L 203.925612 84.43635 
L 205.9649 86.195259 
L 208.004187 86.942668 
L 210.043474 86.721444 
L 212.082762 85.702565 
L 216.161336 82.762255 
L 218.200624 82.088111 
L 220.239911 83.161345 
L 222.279199 87.138358 
L 224.318486 95.145548 
L 226.357773 107.826812 
L 228.397061 124.768522 
L 232.475635 163.870814 
L 234.514923 181.538665 
L 236.55421 196.325541 
L 238.593497 208.325637 
L 240.632785 218.138748 
L 242.672072 226.405385 
L 244.711359 233.58362 
L 246.750647 239.90902 
L 248.789934 245.438544 
L 250.829221 250.115908 
L 252.868509 253.831698 
L 254.907796 256.470508 
L 256.947083 257.944737 
L 258.986371 258.216694 
L 261.025658 257.310845 
L 263.064945 255.317751 
L 265.104233 252.391052 
L 267.14352 248.738752 
L 271.222095 240.279273 
L 273.261382 236.027589 
L 275.300669 232.125044 
L 277.339957 228.813088 
L 279.379244 226.289487 
L 281.418532 224.696389 
L 283.457819 224.112341 
L 285.497106 224.548707 
L 287.536394 225.950633 
L 289.575681 228.202389 
L 291.614968 231.136606 
L 293.654256 234.546701 
L 299.772118 245.293471 
L 301.811405 248.287774 
L 303.850692 250.669235 
L 305.88998 252.308409 
L 307.929267 253.128264 
L 309.968554 253.107336 
L 312.007842 252.279096 
L 314.047129 250.727691 
L 316.086416 248.580493 
L 318.125704 245.998068 
L 324.243566 237.489006 
L 326.282853 235.007895 
L 328.32214 232.964165 
L 330.361428 231.466707 
L 332.400715 230.58419 
L 334.440003 230.342477 
L 336.47929 230.725001 
L 338.518577 231.67592 
L 340.557865 233.105718 
L 342.597152 234.898758 
L 350.754301 242.987559 
L 352.793589 244.589418 
L 354.832876 245.820726 
L 356.872163 246.625555 
L 358.911451 246.978661 
L 360.950738 246.885313 
L 362.990025 246.379106 
L 365.029313 245.518046 
L 367.0686 244.379258 
L 371.147175 241.634774 
L 375.225749 238.90076 
L 377.265037 237.750922 
L 379.304324 236.832423 
L 381.343611 236.187051 
L 383.382899 235.836126 
L 385.422186 235.78055 
L 387.461474 236.002206 
L 389.500761 236.466509 
L 391.540048 237.125862 
L 395.618623 238.798938 
L 399.697198 240.539573 
L 401.736485 241.296889 
L 403.775772 241.921548 
L 405.81506 242.384823 
L 407.854347 242.67069 
L 409.893634 242.775845 
L 411.932922 242.708866 
L 413.972209 242.488669 
L 418.050784 241.703005 
L 426.207933 239.728245 
L 430.286508 239.038965 
L 434.365082 238.737315 
L 438.443657 238.824972 
L 442.522232 239.209508 
L 454.757956 240.672267 
L 458.836531 240.872407 
L 462.915105 240.865911 
L 469.032967 240.572958 
L 473.111542 240.300059 
L 473.111542 240.300059 
" style="fill:none;stroke:#d62728;stroke-linecap:square;stroke-width:1.5;"/>
   </g>
   <g id="patch_2">
    <path d="M 65.231915 259.348396 
Q 288.461852 259.348396 510.573755 259.348396 
" style="fill:none;stroke:#000000;stroke-linecap:round;"/>
    <path d="M 501.773755 254.948396 
L 510.573755 259.348396 
L 501.773755 263.748396 
" style="fill:none;stroke:#000000;stroke-linecap:round;"/>
   </g>
   <g id="patch_3">
    <path d="M 67.29336 259.265577 
Q 67.29336 145.190793 67.29336 32.234043 
" style="fill:none;stroke:#000000;stroke-linecap:round;"/>
    <path d="M 62.89336 41.034043 
L 67.29336 32.234043 
L 71.69336 41.034043 
" style="fill:none;stroke:#000000;stroke-linecap:round;"/>
   </g>
   <g id="text_1">
    <!-- $A^-$ -->
    <defs>
     <path d="M 17 11.25 
C 13.5 5.234375 10.09375 3.203125 5.296875 2.890625 
C 4.203125 2.796875 3.40625 2.796875 3.40625 1 
C 3.40625 0.390625 3.90625 0 4.59375 0 
C 6.40625 0 10.90625 0.1875 12.703125 0.1875 
C 15.59375 0.1875 18.796875 0 21.59375 0 
C 22.203125 0 23.40625 0 23.40625 1.890625 
C 23.40625 2.796875 22.59375 2.890625 22 2.890625 
C 19.703125 3.09375 17.796875 3.90625 17.796875 6.359375 
C 17.796875 7.78125 18.40625 8.90625 19.703125 11.15625 
L 27.296875 24 
L 52.796875 24 
C 52.90625 23.078125 52.90625 22.265625 53 21.34375 
C 53.296875 18.6875 54.5 8.09375 54.5 6.15625 
C 54.5 3.09375 49.40625 2.890625 47.796875 2.890625 
C 46.703125 2.890625 45.59375 2.890625 45.59375 1.09375 
C 45.59375 0 46.5 0 47.09375 0 
C 48.796875 0 50.796875 0.1875 52.5 0.1875 
L 58.203125 0.1875 
C 64.296875 0.1875 68.703125 0 68.796875 0 
C 69.5 0 70.59375 0 70.59375 1.890625 
C 70.59375 2.890625 69.703125 2.890625 68.203125 2.890625 
C 62.703125 2.890625 62.59375 3.8125 62.296875 6.875 
L 56.203125 68.796875 
C 56 70.796875 55.59375 71 54.5 71 
C 53.5 71 52.90625 70.796875 52 69.296875 
z
M 29 26.890625 
L 49.09375 59.859375 
L 52.5 26.890625 
z
" id="CMMI12-65"/>
     <path d="M 65.90625 23 
C 67.59375 23 69.40625 23 69.40625 25 
C 69.40625 27 67.59375 27 65.90625 27 
L 11.796875 27 
C 10.09375 27 8.296875 27 8.296875 25 
C 8.296875 23 10.09375 23 11.796875 23 
z
" id="CMSY10-0"/>
    </defs>
    <g transform="translate(31.155855 92.154208)scale(0.22 -0.22)">
     <use transform="scale(0.996264)" xlink:href="#CMMI12-65"/>
     <use transform="translate(73.127885 36.153639)scale(0.697382)" xlink:href="#CMSY10-0"/>
    </g>
   </g>
   <g id="text_2">
    <!-- $K$ -->
    <defs>
     <path d="M 50 40.21875 
C 49.90625 40.515625 49.5 41.3125 49.5 41.609375 
C 49.5 41.703125 49.59375 41.796875 51.296875 43.09375 
L 61 50.65625 
C 74.40625 61.015625 78.796875 64.5 85.703125 65.09375 
C 86.40625 65.1875 87.40625 65.1875 87.40625 66.890625 
C 87.40625 67.484375 87.09375 68 86.296875 68 
C 85.203125 68 84 67.796875 82.90625 67.796875 
L 79.09375 67.796875 
C 76 67.796875 72.703125 68 69.703125 68 
C 69 68 67.796875 68 67.796875 66.1875 
C 67.796875 65.1875 68.5 65.09375 69.09375 65.09375 
C 70.203125 64.984375 71.5 64.59375 71.5 63.203125 
C 71.5 61.203125 68.5 58.828125 67.703125 58.21875 
L 28.5 27.875 
L 36.796875 60.71875 
C 37.703125 64.09375 37.90625 65.09375 45 65.09375 
C 46.90625 65.09375 47.796875 65.09375 47.796875 66.984375 
C 47.796875 68 46.796875 68 46.296875 68 
C 44.5 68 42.40625 67.796875 40.5 67.796875 
L 28.703125 67.796875 
C 26.90625 67.796875 24.703125 68 22.90625 68 
C 22.09375 68 21 68 21 66.09375 
C 21 65.09375 21.90625 65.09375 23.40625 65.09375 
C 29.5 65.09375 29.5 64.296875 29.5 63.203125 
C 29.5 63 29.5 62.40625 29.09375 60.90625 
L 15.59375 7.375 
C 14.703125 3.890625 14.5 2.890625 7.5 2.890625 
C 5.59375 2.890625 4.59375 2.890625 4.59375 1.09375 
C 4.59375 0 5.5 0 6.09375 0 
C 8 0 10 0.1875 11.90625 0.1875 
L 23.59375 0.1875 
C 25.5 0.1875 27.59375 0 29.5 0 
C 30.296875 0 31.40625 0 31.40625 1.890625 
C 31.40625 2.890625 30.5 2.890625 29 2.890625 
C 22.90625 2.890625 22.90625 3.6875 22.90625 4.6875 
C 22.90625 5.375 23.5 7.875 23.90625 9.453125 
L 27.796875 24.890625 
L 43 36.734375 
C 45.90625 30.359375 51.203125 17.625 55.296875 7.875 
C 55.59375 7.265625 55.796875 6.671875 55.796875 5.984375 
C 55.796875 2.984375 51.796875 2.890625 50.90625 2.890625 
C 50 2.890625 49 2.890625 49 1 
C 49 0 50.09375 0 50.40625 0 
C 53.90625 0 57.59375 0.1875 61.09375 0.1875 
L 65.90625 0.1875 
C 67.40625 0.1875 69.09375 0 70.59375 0 
C 71.203125 0 72.296875 0 72.296875 1.890625 
C 72.296875 2.890625 71.40625 2.890625 70.40625 2.890625 
C 66.703125 2.984375 65.40625 3.78125 63.90625 7.375 
z
" id="CMMI12-75"/>
    </defs>
    <g transform="translate(40.918622 72.968326)scale(0.22 -0.22)">
     <use transform="scale(0.996264)" xlink:href="#CMMI12-75"/>
    </g>
   </g>
   <g id="text_3">
    <!-- $A^+$ -->
    <defs>
     <path d="M 37.703125 23 
L 64.203125 23 
C 65.59375 23 67.296875 23 67.296875 24.6875 
C 67.296875 26.5 65.703125 26.5 64.203125 26.5 
L 37.703125 26.5 
L 37.703125 52.890625 
C 37.703125 54.296875 37.703125 56 36 56 
C 34.203125 56 34.203125 54.390625 34.203125 52.890625 
L 34.203125 26.5 
L 7.703125 26.5 
C 6.296875 26.5 4.59375 26.5 4.59375 24.796875 
C 4.59375 23 6.203125 23 7.703125 23 
L 34.203125 23 
L 34.203125 -3.03125 
C 34.203125 -4.40625 34.203125 -6.109375 35.90625 -6.109375 
C 37.703125 -6.109375 37.703125 -4.515625 37.703125 -3.03125 
z
" id="CMR17-43"/>
    </defs>
    <g transform="translate(31.404632 53.782443)scale(0.22 -0.22)">
     <use transform="scale(0.996264)" xlink:href="#CMMI12-65"/>
     <use transform="translate(73.127885 36.153639)scale(0.697382)" xlink:href="#CMR17-43"/>
    </g>
   </g>
   <g id="text_4">
    <!-- $f_c-$ -->
    <defs>
     <path d="M 44.59375 40.09375 
C 46.59375 40.09375 47.40625 40.09375 47.40625 41.984375 
C 47.40625 43 46.59375 43 44.796875 43 
L 36.703125 43 
C 38.59375 53.09375 40 60.09375 40.796875 63.296875 
C 41.40625 65.6875 43.5 67.984375 46.09375 67.984375 
C 48.203125 67.984375 50.296875 67.09375 51.296875 66.1875 
C 47.40625 65.796875 46.203125 62.890625 46.203125 61.1875 
C 46.203125 59.1875 47.703125 58 49.59375 58 
C 51.59375 58 54.59375 59.6875 54.59375 63.5 
C 54.59375 67.6875 50.40625 70 46 70 
C 41.703125 70 37.5 66.796875 35.5 62.890625 
C 33.703125 59.390625 32.703125 55.828125 30.40625 43 
L 23.703125 43 
C 21.796875 43 20.796875 43 20.796875 41.1875 
C 20.796875 40.09375 21.40625 40.09375 23.40625 40.09375 
L 29.796875 40.09375 
C 28 30.890625 23.90625 8.515625 21.59375 -2.0625 
C 19.90625 -10.703125 18.40625 -18 13.40625 -18 
C 13.09375 -18 10.203125 -18 8.40625 -16.109375 
C 13.5 -15.703125 13.5 -11.3125 13.5 -11.203125 
C 13.5 -9.203125 12 -8 10.09375 -8 
C 8.09375 -8 5.09375 -9.703125 5.09375 -13.515625 
C 5.09375 -17.8125 9.5 -20 13.40625 -20 
C 23.59375 -20 27.796875 -1.765625 28.90625 3.171875 
C 30.703125 10.796875 35.59375 37.125 36.09375 40.09375 
z
" id="CMMI12-102"/>
     <path d="M 39.09375 38 
C 37.203125 38 36.296875 38 34.90625 36.796875 
C 34.296875 36.296875 33.203125 34.796875 33.203125 33.1875 
C 33.203125 31.1875 34.703125 29.984375 36.59375 29.984375 
C 39 29.984375 41.703125 31.984375 41.703125 35.984375 
C 41.703125 40.484375 37.09375 44 30.203125 44 
C 17.09375 44 4 30.1875 4 15.796875 
C 4 6.96875 9.40625 -1 19.59375 -1 
C 33.203125 -1 41.796875 9.71875 41.796875 11.03125 
C 41.796875 11.640625 41.203125 12.140625 40.796875 12.140625 
C 40.5 12.140625 40.40625 12.046875 39.5 11.125 
C 33.09375 2.515625 23.59375 1 19.796875 1 
C 12.90625 1 10.703125 7.078125 10.703125 12.140625 
C 10.703125 15.6875 12.40625 25.53125 16 32.390625 
C 18.59375 37.09375 24 41.984375 30.296875 41.984375 
C 31.59375 41.984375 37.09375 41.8125 39.09375 38 
z
" id="CMMI12-99"/>
    </defs>
    <g transform="translate(166.624304 282.243443)scale(0.22 -0.22)">
     <use transform="translate(0 14.943915)scale(0.996264)" xlink:href="#CMMI12-102"/>
     <use transform="translate(48.083238 0)scale(0.697382)" xlink:href="#CMMI12-99"/>
     <use transform="translate(77.969501 14.943915)scale(0.996264)" xlink:href="#CMSY10-0"/>
    </g>
   </g>
   <g id="text_5">
    <!-- $f_c$ -->
    <g transform="translate(221.098787 282.243443)scale(0.22 -0.22)">
     <use transform="translate(0 14.943915)scale(0.996264)" xlink:href="#CMMI12-102"/>
     <use transform="translate(48.083238 0)scale(0.697382)" xlink:href="#CMMI12-99"/>
    </g>
   </g>
   <g id="text_6">
    <!-- $f_c+$ -->
    <g transform="translate(249.911542 282.243443)scale(0.22 -0.22)">
     <use transform="translate(0 14.943915)scale(0.996264)" xlink:href="#CMMI12-102"/>
     <use transform="translate(48.083238 0)scale(0.697382)" xlink:href="#CMMI12-99"/>
     <use transform="translate(77.969501 14.943915)scale(0.996264)" xlink:href="#CMR17-43"/>
    </g>
   </g>
   <g id="text_7">
    <!-- $0$ -->
    <defs>
     <path d="M 42 31.84375 
C 42 37.96875 41.90625 48.421875 37.703125 56.453125 
C 34 63.484375 28.09375 66 22.90625 66 
C 18.09375 66 12 63.78125 8.203125 56.5625 
C 4.203125 49.015625 3.796875 39.671875 3.796875 31.84375 
C 3.796875 26.109375 3.90625 17.375 7 9.734375 
C 11.296875 -0.609375 19 -2 22.90625 -2 
C 27.5 -2 34.5 -0.109375 38.59375 9.4375 
C 41.59375 16.375 42 24.5 42 31.84375 
z
M 22.90625 -0.40625 
C 16.5 -0.40625 12.703125 5.125 11.296875 12.75 
C 10.203125 18.6875 10.203125 27.328125 10.203125 32.953125 
C 10.203125 40.6875 10.203125 47.109375 11.5 53.234375 
C 13.40625 61.78125 19 64.390625 22.90625 64.390625 
C 27 64.390625 32.296875 61.671875 34.203125 53.4375 
C 35.5 47.71875 35.59375 40.984375 35.59375 32.953125 
C 35.59375 26.421875 35.59375 18.375 34.40625 12.453125 
C 32.296875 1.5 26.40625 -0.40625 22.90625 -0.40625 
z
" id="CMR17-48"/>
    </defs>
    <g transform="translate(49.125092 282.243443)scale(0.22 -0.22)">
     <use transform="scale(0.996264)" xlink:href="#CMR17-48"/>
    </g>
   </g>
   <g id="text_8">
    <!-- $f$ -->
    <g transform="translate(513.69336 274.56909)scale(0.22 -0.22)">
     <use transform="scale(0.996264)" xlink:href="#CMMI12-102"/>
    </g>
   </g>
   <g id="text_9">
    <!-- $|H(f)|$ -->
    <defs>
     <path d="M 15.90625 71.390625 
C 15.90625 73.1875 15.90625 75 13.90625 75 
C 11.90625 75 11.90625 73.1875 11.90625 71.390625 
L 11.90625 -21.40625 
C 11.90625 -23.203125 11.90625 -25 13.90625 -25 
C 15.90625 -25 15.90625 -23.203125 15.90625 -21.40625 
z
" id="CMSY10-106"/>
     <path d="M 74.796875 60.71875 
C 75.703125 64.09375 75.90625 65.09375 83 65.09375 
C 84.796875 65.09375 85.796875 65.09375 85.796875 66.890625 
C 85.796875 68 84.90625 68 84.296875 68 
C 82.5 68 80.40625 67.796875 78.5 67.796875 
L 66.703125 67.796875 
C 64.796875 67.796875 62.703125 68 60.796875 68 
C 60.09375 68 58.90625 68 58.90625 66.09375 
C 58.90625 65.09375 59.59375 65.09375 61.5 65.09375 
C 67.5 65.09375 67.5 64.296875 67.5 63.203125 
C 67.5 63 67.5 62.40625 67.09375 60.921875 
L 61 36.890625 
L 30.796875 36.890625 
L 36.796875 60.71875 
C 37.703125 64.09375 37.90625 65.09375 45 65.09375 
C 46.796875 65.09375 47.796875 65.09375 47.796875 66.890625 
C 47.796875 68 46.90625 68 46.296875 68 
C 44.5 68 42.40625 67.796875 40.5 67.796875 
L 28.703125 67.796875 
C 26.796875 67.796875 24.703125 68 22.796875 68 
C 22.09375 68 20.90625 68 20.90625 66.09375 
C 20.90625 65.09375 21.59375 65.09375 23.5 65.09375 
C 29.5 65.09375 29.5 64.296875 29.5 63.203125 
C 29.5 63 29.5 62.40625 29.09375 60.921875 
L 15.59375 7.375 
C 14.703125 3.890625 14.5 2.890625 7.59375 2.890625 
C 5.296875 2.890625 4.59375 2.890625 4.59375 1 
C 4.59375 0 5.703125 0 6 0 
C 7.796875 0 9.90625 0.1875 11.796875 0.1875 
L 23.59375 0.1875 
C 25.5 0.1875 27.59375 0 29.5 0 
C 30.296875 0 31.40625 0 31.40625 1.890625 
C 31.40625 2.890625 30.5 2.890625 29 2.890625 
C 22.90625 2.890625 22.90625 3.6875 22.90625 4.6875 
C 22.90625 4.78125 22.90625 5.484375 23.09375 6.28125 
L 30 34 
L 60.296875 34 
C 58.59375 27.421875 53.5 6.578125 53.296875 5.984375 
C 52.203125 2.984375 50.59375 2.984375 44.703125 2.890625 
C 43.5 2.890625 42.59375 2.890625 42.59375 1 
C 42.59375 0 43.703125 0 44 0 
C 45.796875 0 47.90625 0.1875 49.796875 0.1875 
L 61.59375 0.1875 
C 63.5 0.1875 65.59375 0 67.5 0 
C 68.296875 0 69.40625 0 69.40625 1.890625 
C 69.40625 2.890625 68.5 2.890625 67 2.890625 
C 60.90625 2.890625 60.90625 3.6875 60.90625 4.6875 
C 60.90625 4.78125 60.90625 5.484375 61.09375 6.28125 
z
" id="CMMI12-72"/>
     <path d="M 30.59375 -24.40625 
C 30.59375 -24.3125 30.59375 -24.109375 30.296875 -23.8125 
C 25.703125 -19.109375 13.40625 -6.296875 13.40625 24.9375 
C 13.40625 56.171875 25.5 68.875 30.40625 73.890625 
C 30.40625 73.984375 30.59375 74.1875 30.59375 74.484375 
C 30.59375 74.796875 30.296875 75 29.90625 75 
C 28.796875 75 20.296875 67.578125 15.40625 56.5625 
C 10.40625 45.453125 9 34.65625 9 25.046875 
C 9 17.828125 9.703125 5.625 15.703125 -7.296875 
C 20.5 -17.703125 28.703125 -25 29.90625 -25 
C 30.40625 -25 30.59375 -24.8125 30.59375 -24.40625 
z
" id="CMR17-40"/>
     <path d="M 26.296875 24.9375 
C 26.296875 32.140625 25.59375 44.359375 19.59375 57.265625 
C 14.796875 67.6875 6.59375 75 5.40625 75 
C 5.09375 75 4.703125 74.890625 4.703125 74.390625 
C 4.703125 74.1875 4.796875 74.09375 4.90625 73.890625 
C 9.703125 68.875 21.90625 56.171875 21.90625 25.046875 
C 21.90625 -6.1875 9.796875 -18.90625 4.90625 -23.90625 
C 4.796875 -24.109375 4.703125 -24.203125 4.703125 -24.40625 
C 4.703125 -24.90625 5.09375 -25 5.40625 -25 
C 6.5 -25 15 -17.609375 19.90625 -6.59375 
C 24.90625 4.515625 26.296875 15.328125 26.296875 24.9375 
z
" id="CMR17-41"/>
    </defs>
    <g transform="translate(7.2 23.638356)scale(0.22 -0.22)">
     <use transform="scale(0.996264)" xlink:href="#CMSY10-106"/>
     <use transform="translate(27.674085 0)scale(0.996264)" xlink:href="#CMMI12-72"/>
     <use transform="translate(116.195857 0)scale(0.996264)" xlink:href="#CMR17-40"/>
     <use transform="translate(151.476625 0)scale(0.996264)" xlink:href="#CMMI12-102"/>
     <use transform="translate(210.19693 0)scale(0.996264)" xlink:href="#CMR17-41"/>
     <use transform="translate(245.477698 0)scale(0.996264)" xlink:href="#CMSY10-106"/>
    </g>
   </g>
   <g id="patch_4">
    <path d="M 162.631653 240.162514 
Q 195.12646 240.162514 226.503233 240.162514 
" style="fill:none;stroke:#1f77b4;stroke-linecap:round;"/>
    <path d="M 217.703233 235.762514 
L 226.503233 240.162514 
L 217.703233 244.562514 
" style="fill:none;stroke:#1f77b4;stroke-linecap:round;"/>
   </g>
   <g id="text_10">
    <!-- filtre réel -->
    <defs>
     <path d="M 43 70 
L 35 70 
L 35 61.984375 
L 43 61.984375 
z
M 42.703125 43 
L 35.296875 43 
L 35.296875 0 
L 42.703125 0 
z
M 16.796875 37.1875 
L 27.703125 37.1875 
L 27.703125 43 
L 16.59375 43 
L 16.59375 56.453125 
C 16.59375 61.890625 19 64.59375 22.203125 64.59375 
C 24.09375 64.59375 26 64.09375 27.703125 63.1875 
L 27.703125 69.890625 
C 26.90625 70.09375 24.59375 70.6875 22.203125 70.6875 
C 14.703125 70.6875 9.40625 63.09375 9.40625 53.15625 
L 9.40625 43 
L 2.5 43 
L 2.5 37.1875 
L 9.40625 37.1875 
L 9.40625 0 
L 16.796875 0 
z
" id="CMSS17-12"/>
     <path d="M 14.796875 69 
L 7.40625 69 
L 7.40625 0 
L 14.796875 0 
z
" id="CMSS17-108"/>
     <path d="M 16.703125 37.1875 
L 29.703125 37.1875 
L 29.703125 43 
L 16.703125 43 
L 16.703125 55 
L 9.59375 55 
L 9.59375 43 
L 1.703125 43 
L 1.703125 37.1875 
L 9.40625 37.1875 
L 9.40625 11.734375 
C 9.40625 6 10.703125 -1 17.296875 -1 
C 22.296875 -1 26.90625 0.390625 31.296875 2.6875 
L 29.703125 8.609375 
C 27.296875 6.5 24.40625 5.296875 21.296875 5.296875 
C 16.90625 5.296875 16.703125 10.921875 16.703125 13.4375 
z
" id="CMSS17-116"/>
     <path d="M 14.90625 21.390625 
C 14.90625 30.84375 21.796875 37.171875 30.59375 37.375 
L 30.59375 44 
C 24.203125 43.890625 18.203125 40.6875 14.59375 35.46875 
L 14.59375 43.484375 
L 7.5 43.484375 
L 7.5 0 
L 14.90625 0 
z
" id="CMSS17-114"/>
     <path d="M 39.09375 21.484375 
C 39.09375 24.796875 38.90625 31.265625 35.703125 36.671875 
C 32.203125 42.390625 26.5 44 22.203125 44 
C 11.796875 44 3 34.125 3 21.296875 
C 3 9.046875 12.09375 -1 23.59375 -1 
C 28.09375 -1 33.59375 0.296875 38.59375 3.890625 
C 38.59375 4.296875 38.40625 6.46875 38.296875 6.578125 
C 38.296875 6.765625 38 9.828125 38 10.234375 
C 33.203125 6.375 27.703125 5.09375 23.703125 5.09375 
C 17.296875 5.09375 10.40625 10.421875 10.09375 21.484375 
z
M 10.90625 27 
C 12.203125 32.59375 16.59375 37.890625 22.203125 37.890625 
C 23.703125 37.890625 30.703125 37.6875 32.5 27 
z
" id="CMSS17-101"/>
     <path d="M 39.09375 69 
L 31.5 69 
L 19.09375 51.890625 
L 25.203125 51.890625 
z
" id="CMSS17-19"/>
    </defs>
    <g style="fill:#1f77b4;" transform="translate(97.940334 244.645132)scale(0.18 -0.18)">
     <use transform="scale(0.996264)" xlink:href="#CMSS17-12"/>
     <use transform="translate(50.126737 0)scale(0.996264)" xlink:href="#CMSS17-108"/>
     <use transform="translate(72.30746 0)scale(0.996264)" xlink:href="#CMSS17-116"/>
     <use transform="translate(106.139027 0)scale(0.996264)" xlink:href="#CMSS17-114"/>
     <use transform="translate(138.0488 0)scale(0.996264)" xlink:href="#CMSS17-101"/>
     <use transform="translate(210.916734 0)scale(0.996264)" xlink:href="#CMSS17-114"/>
     <use transform="translate(240.224099 0)scale(0.996264)" xlink:href="#CMSS17-19"/>
     <use transform="translate(242.826507 0)scale(0.996264)" xlink:href="#CMSS17-101"/>
     <use transform="translate(284.465329 0)scale(0.996264)" xlink:href="#CMSS17-101"/>
     <use transform="translate(326.104151 0)scale(0.996264)" xlink:href="#CMSS17-108"/>
    </g>
   </g>
   <g id="text_11">
    <!-- filtre réalisable -->
    <defs>
     <path d="M 37.59375 27.953125 
C 37.59375 37.484375 30.90625 44 21.90625 44 
C 17.5 44 12.703125 43.1875 7.203125 39.984375 
L 7.796875 33.328125 
C 10.296875 35.15625 14.59375 38.09375 21.796875 38.09375 
C 26.90625 38.09375 30 34.140625 30 27.84375 
L 30 24 
C 14 23.5 4 18.890625 4 11.109375 
C 4 7.0625 6.5 -1 14.796875 -1 
C 16.296875 -1 24.40625 -0.8125 30.203125 3.5 
L 30.203125 -0.203125 
L 37.59375 -0.203125 
z
M 30 12.875 
C 30 11.109375 30 8.734375 27 6.96875 
C 24.40625 5.296875 21.09375 5.09375 19.703125 5.09375 
C 14.703125 5.09375 11.296875 7.859375 11.296875 11.296875 
C 11.296875 18.203125 26.90625 18.890625 30 19 
z
" id="CMSS17-97"/>
     <path d="M 15.296875 66 
L 6.90625 66 
L 6.90625 57.59375 
L 15.296875 57.59375 
z
M 14.796875 43 
L 7.40625 43 
L 7.40625 0 
L 14.796875 0 
z
" id="CMSS17-105"/>
     <path d="M 32.203125 40.984375 
C 26.296875 43.796875 21.703125 44 18.703125 44 
C 11.59375 44 3.09375 41.484375 3.09375 31.390625 
C 3.09375 21.296875 14.09375 19.09375 17.09375 18.484375 
C 21.703125 17.59375 26.796875 16.59375 26.796875 11.59375 
C 26.796875 5.296875 19.59375 5.296875 18.296875 5.296875 
C 14.296875 5.296875 8.796875 6.390625 3.796875 9.984375 
L 2.59375 3.296875 
C 8.296875 0 13.796875 -1 18.40625 -1 
C 30.703125 -1 33.796875 6.5 33.796875 12.1875 
C 33.796875 17.09375 31 20.390625 29.09375 21.890625 
C 25.796875 24.484375 24.59375 24.796875 16.40625 26.484375 
C 15 26.6875 10.09375 27.796875 10.09375 32.296875 
C 10.09375 37.984375 16.40625 37.984375 17.796875 37.984375 
C 24.296875 37.984375 28.296875 35.984375 31 34.484375 
z
" id="CMSS17-115"/>
     <path d="M 14.90625 69 
L 7.5 69 
L 7.5 -0.203125 
L 15.09375 -0.203125 
L 15.09375 4.296875 
C 18.90625 0.59375 23.5 -1 27.59375 -1 
C 37.203125 -1 45 8.734375 45 21.59375 
C 45 33.328125 39 44 30.09375 44 
C 23.796875 44 18.203125 41.390625 14.90625 38.6875 
z
M 15.09375 32.734375 
C 17.296875 35.5625 20.40625 37.890625 24.796875 37.890625 
C 30.703125 37.890625 37.40625 33.53125 37.40625 21.59375 
C 37.40625 8.84375 29.40625 5.09375 23.90625 5.09375 
C 21.90625 5.09375 19.796875 5.59375 17.796875 7.3125 
C 15.09375 9.75 15.09375 11.265625 15.09375 12.6875 
z
" id="CMSS17-98"/>
    </defs>
    <g style="fill:#d62728;" transform="translate(481.227906 244.645132)scale(0.18 -0.18)">
     <use transform="scale(0.996264)" xlink:href="#CMSS17-12"/>
     <use transform="translate(50.126737 0)scale(0.996264)" xlink:href="#CMSS17-108"/>
     <use transform="translate(72.30746 0)scale(0.996264)" xlink:href="#CMSS17-116"/>
     <use transform="translate(106.139027 0)scale(0.996264)" xlink:href="#CMSS17-114"/>
     <use transform="translate(138.0488 0)scale(0.996264)" xlink:href="#CMSS17-101"/>
     <use transform="translate(210.916734 0)scale(0.996264)" xlink:href="#CMSS17-114"/>
     <use transform="translate(240.224099 0)scale(0.996264)" xlink:href="#CMSS17-19"/>
     <use transform="translate(242.826507 0)scale(0.996264)" xlink:href="#CMSS17-101"/>
     <use transform="translate(284.465329 0)scale(0.996264)" xlink:href="#CMSS17-97"/>
     <use transform="translate(329.38725 0)scale(0.996264)" xlink:href="#CMSS17-108"/>
     <use transform="translate(351.567973 0)scale(0.996264)" xlink:href="#CMSS17-105"/>
     <use transform="translate(373.748696 0)scale(0.996264)" xlink:href="#CMSS17-115"/>
     <use transform="translate(409.662238 0)scale(0.996264)" xlink:href="#CMSS17-97"/>
     <use transform="translate(454.584158 0)scale(0.996264)" xlink:href="#CMSS17-98"/>
     <use transform="translate(502.789101 0)scale(0.996264)" xlink:href="#CMSS17-108"/>
     <use transform="translate(524.969824 0)scale(0.996264)" xlink:href="#CMSS17-101"/>
    </g>
   </g>
   <g id="patch_5">
    <path d="M 70.409895 297.720161 
Q 134.252168 297.720161 198.094442 297.720161 
" style="fill:none;stroke:#000000;stroke-linecap:round;"/>
    <path d="M 79.209895 302.120161 
L 70.409895 297.720161 
L 79.209895 293.320161 
" style="fill:none;stroke:#000000;stroke-linecap:round;"/>
    <path d="M 189.294442 293.320161 
L 198.094442 297.720161 
L 189.294442 302.120161 
" style="fill:none;stroke:#000000;stroke-linecap:round;"/>
   </g>
   <g id="text_12">
    <!-- bande -->
    <defs>
     <path d="M 40.90625 29.34375 
C 40.90625 35.671875 39.40625 44 28.09375 44 
C 21.703125 44 17.5 40.6875 14.703125 37.28125 
L 14.703125 43.484375 
L 7.40625 43.484375 
L 7.40625 0 
L 15 0 
L 15 24.3125 
C 15 30.65625 17.40625 37.890625 24.203125 37.890625 
C 33 37.890625 33.296875 31.953125 33.296875 28.53125 
L 33.296875 0 
L 40.90625 0 
z
" id="CMSS17-110"/>
     <path d="M 40.796875 69 
L 33.40625 69 
L 33.40625 38.984375 
C 30.296875 41.59375 25.203125 44 19.59375 44 
C 10.5 44 3.296875 34.046875 3.296875 21.484375 
C 3.296875 8.9375 10.40625 -1 19.296875 -1 
C 26.203125 -1 30.796875 2.6875 33.203125 4.796875 
L 33.203125 -0.203125 
L 40.796875 -0.203125 
z
M 33.203125 13.296875 
C 33.203125 11.875 33.203125 10.359375 30.09375 7.625 
C 28.09375 5.90625 25.703125 5.09375 23.40625 5.09375 
C 18 5.09375 10.90625 9.140625 10.90625 21.390625 
C 10.90625 34.140625 18.90625 37.890625 24.40625 37.890625 
C 28.09375 37.890625 31.09375 36.0625 33.203125 33.03125 
z
" id="CMSS17-100"/>
    </defs>
    <g transform="translate(113.44757 321.765591)scale(0.18 -0.18)">
     <use transform="scale(0.996264)" xlink:href="#CMSS17-98"/>
     <use transform="translate(48.204943 0)scale(0.996264)" xlink:href="#CMSS17-97"/>
     <use transform="translate(93.126864 0)scale(0.996264)" xlink:href="#CMSS17-110"/>
     <use transform="translate(141.331807 0)scale(0.996264)" xlink:href="#CMSS17-100"/>
     <use transform="translate(189.53675 0)scale(0.996264)" xlink:href="#CMSS17-101"/>
    </g>
    <!-- passante -->
    <defs>
     <path d="M 15.09375 4.296875 
C 18.40625 1.09375 22.90625 -1 27.703125 -1 
C 37 -1 45 8.640625 45 21.59375 
C 45 33.546875 39 44 30.40625 44 
C 25.40625 44 19.40625 42.1875 14.90625 38.59375 
L 14.90625 43.1875 
L 7.5 43.1875 
L 7.5 -20 
L 15.09375 -20 
z
M 15.09375 32.625 
C 15.90625 33.84375 19.296875 37.6875 24.796875 37.6875 
C 31.796875 37.6875 37.40625 30.40625 37.40625 21.59375 
C 37.40625 11.578125 30.59375 5.09375 23.90625 5.09375 
C 21.90625 5.09375 19.796875 5.59375 17.796875 7.3125 
C 15.09375 9.75 15.09375 11.265625 15.09375 12.6875 
z
" id="CMSS17-112"/>
    </defs>
    <g transform="translate(104.23377 340.197615)scale(0.18 -0.18)">
     <use transform="scale(0.996264)" xlink:href="#CMSS17-112"/>
     <use transform="translate(48.204943 0)scale(0.996264)" xlink:href="#CMSS17-97"/>
     <use transform="translate(93.126864 0)scale(0.996264)" xlink:href="#CMSS17-115"/>
     <use transform="translate(129.040406 0)scale(0.996264)" xlink:href="#CMSS17-115"/>
     <use transform="translate(164.953948 0)scale(0.996264)" xlink:href="#CMSS17-97"/>
     <use transform="translate(209.875868 0)scale(0.996264)" xlink:href="#CMSS17-110"/>
     <use transform="translate(258.080811 0)scale(0.996264)" xlink:href="#CMSS17-116"/>
     <use transform="translate(291.912378 0)scale(0.996264)" xlink:href="#CMSS17-101"/>
    </g>
   </g>
   <g id="patch_6">
    <path d="M 204.331753 297.720161 
Q 225.563632 297.720161 246.795512 297.720161 
" style="fill:none;stroke:#000000;stroke-linecap:round;"/>
    <path d="M 213.131753 302.120161 
L 204.331753 297.720161 
L 213.131753 293.320161 
" style="fill:none;stroke:#000000;stroke-linecap:round;"/>
    <path d="M 237.995512 293.320161 
L 246.795512 297.720161 
L 237.995512 302.120161 
" style="fill:none;stroke:#000000;stroke-linecap:round;"/>
   </g>
   <g id="text_13">
    <!-- bande -->
    <g transform="translate(204.756661 321.765591)scale(0.18 -0.18)">
     <use transform="scale(0.996264)" xlink:href="#CMSS17-98"/>
     <use transform="translate(48.204943 0)scale(0.996264)" xlink:href="#CMSS17-97"/>
     <use transform="translate(93.126864 0)scale(0.996264)" xlink:href="#CMSS17-110"/>
     <use transform="translate(141.331807 0)scale(0.996264)" xlink:href="#CMSS17-100"/>
     <use transform="translate(189.53675 0)scale(0.996264)" xlink:href="#CMSS17-101"/>
    </g>
    <!-- de transition -->
    <defs>
     <path d="M 44.203125 21.1875 
C 44.203125 33.984375 34.703125 44 23.5 44 
C 12 44 2.703125 33.6875 2.703125 21.1875 
C 2.703125 8.5 12.296875 -1 23.40625 -1 
C 34.796875 -1 44.203125 8.796875 44.203125 21.1875 
z
M 23.5 5.296875 
C 16.40625 5.296875 10.296875 11.09375 10.296875 21.984375 
C 10.296875 33.59375 17.40625 37.890625 23.40625 37.890625 
C 29.90625 37.890625 36.59375 33.1875 36.59375 21.984375 
C 36.59375 10.6875 30.09375 5.296875 23.5 5.296875 
z
" id="CMSS17-111"/>
    </defs>
    <g transform="translate(181.54382 340.197615)scale(0.18 -0.18)">
     <use transform="scale(0.996264)" xlink:href="#CMSS17-100"/>
     <use transform="translate(48.204943 0)scale(0.996264)" xlink:href="#CMSS17-101"/>
     <use transform="translate(121.072878 0)scale(0.996264)" xlink:href="#CMSS17-116"/>
     <use transform="translate(154.904445 0)scale(0.996264)" xlink:href="#CMSS17-114"/>
     <use transform="translate(186.814217 0)scale(0.996264)" xlink:href="#CMSS17-97"/>
     <use transform="translate(231.736138 0)scale(0.996264)" xlink:href="#CMSS17-110"/>
     <use transform="translate(279.941081 0)scale(0.996264)" xlink:href="#CMSS17-115"/>
     <use transform="translate(315.854623 0)scale(0.996264)" xlink:href="#CMSS17-105"/>
     <use transform="translate(338.035346 0)scale(0.996264)" xlink:href="#CMSS17-116"/>
     <use transform="translate(371.866913 0)scale(0.996264)" xlink:href="#CMSS17-105"/>
     <use transform="translate(394.047636 0)scale(0.996264)" xlink:href="#CMSS17-111"/>
     <use transform="translate(440.891259 0)scale(0.996264)" xlink:href="#CMSS17-110"/>
    </g>
   </g>
   <g id="patch_7">
    <path d="M 253.028758 297.720161 
Q 361.51037 297.720161 469.991981 297.720161 
" style="fill:none;stroke:#000000;stroke-linecap:round;"/>
    <path d="M 261.828758 302.120161 
L 253.028758 297.720161 
L 261.828758 293.320161 
" style="fill:none;stroke:#000000;stroke-linecap:round;"/>
    <path d="M 461.191981 293.320161 
L 469.991981 297.720161 
L 461.191981 302.120161 
" style="fill:none;stroke:#000000;stroke-linecap:round;"/>
   </g>
   <g id="text_14">
    <!-- bande -->
    <g transform="translate(340.705752 321.765591)scale(0.18 -0.18)">
     <use transform="scale(0.996264)" xlink:href="#CMSS17-98"/>
     <use transform="translate(48.204943 0)scale(0.996264)" xlink:href="#CMSS17-97"/>
     <use transform="translate(93.126864 0)scale(0.996264)" xlink:href="#CMSS17-110"/>
     <use transform="translate(141.331807 0)scale(0.996264)" xlink:href="#CMSS17-100"/>
     <use transform="translate(189.53675 0)scale(0.996264)" xlink:href="#CMSS17-101"/>
    </g>
    <!-- atténuée -->
    <defs>
     <path d="M 40.90625 43 
L 33.296875 43 
L 33.296875 15.25 
C 33.296875 7.8125 27.90625 4.796875 22.203125 4.796875 
C 15.59375 4.796875 15 7 15 11.125 
L 15 43 
L 7.40625 43 
L 7.40625 10.625 
C 7.40625 2.796875 10.09375 -1 17 -1 
C 20.40625 -1 28.09375 -0.203125 33.5 4.796875 
L 33.5 -0.203125 
L 40.90625 -0.203125 
z
" id="CMSS17-117"/>
    </defs>
    <g transform="translate(331.459534 340.197615)scale(0.18 -0.18)">
     <use transform="scale(0.996264)" xlink:href="#CMSS17-97"/>
     <use transform="translate(44.921921 0)scale(0.996264)" xlink:href="#CMSS17-116"/>
     <use transform="translate(78.753487 0)scale(0.996264)" xlink:href="#CMSS17-116"/>
     <use transform="translate(109.982646 0)scale(0.996264)" xlink:href="#CMSS17-19"/>
     <use transform="translate(112.585054 0)scale(0.996264)" xlink:href="#CMSS17-101"/>
     <use transform="translate(154.223876 0)scale(0.996264)" xlink:href="#CMSS17-110"/>
     <use transform="translate(202.428819 0)scale(0.996264)" xlink:href="#CMSS17-117"/>
     <use transform="translate(248.031354 0)scale(0.996264)" xlink:href="#CMSS17-19"/>
     <use transform="translate(250.633762 0)scale(0.996264)" xlink:href="#CMSS17-101"/>
     <use transform="translate(292.272584 0)scale(0.996264)" xlink:href="#CMSS17-101"/>
    </g>
   </g>
  </g>
 </g>
 <defs>
  <clipPath id="pa6c7c5a216">
   <rect height="326.16" width="446.4" x="67.29336" y="29.117808"/>
  </clipPath>
 </defs>
</svg>
