<?xml version="1.0" encoding="utf-8" standalone="no"?>
<!DOCTYPE svg PUBLIC "-//W3C//DTD SVG 1.1//EN"
  "http://www.w3.org/Graphics/SVG/1.1/DTD/svg11.dtd">
<svg height="280.490202pt" version="1.1" viewBox="0 0 552.995375 280.490202" width="552.995375pt" xmlns="http://www.w3.org/2000/svg" xmlns:xlink="http://www.w3.org/1999/xlink">
 <metadata>
  <rdf:RDF xmlns:cc="http://creativecommons.org/ns#" xmlns:dc="http://purl.org/dc/elements/1.1/" xmlns:rdf="http://www.w3.org/1999/02/22-rdf-syntax-ns#">
   <cc:Work>
    <dc:type rdf:resource="http://purl.org/dc/dcmitype/StillImage"/>
    <dc:date>2024-09-06T17:46:38.987225</dc:date>
    <dc:format>image/svg+xml</dc:format>
    <dc:creator>
     <cc:Agent>
      <dc:title>Matplotlib v3.4.3, https://matplotlib.org/</dc:title>
     </cc:Agent>
    </dc:creator>
   </cc:Work>
  </rdf:RDF>
 </metadata>
 <defs>
  <style type="text/css">*{stroke-linecap:butt;stroke-linejoin:round;}</style>
 </defs>
 <g id="figure_1">
  <g id="patch_1">
   <path d="M 0 280.490202 
L 552.995375 280.490202 
L 552.995375 0 
L 0 0 
z
" style="fill:none;"/>
  </g>
  <g id="axes_1">
   <g id="PolyCollection_1">
    <defs>
     <path d="M 92.663721 -241.826694 
L 92.663721 -226.561634 
L 226.583721 -226.561634 
L 226.583721 -59.418317 
L 275.281903 -59.418317 
L 275.281903 -59.418317 
L 498.481903 -59.418317 
L 498.481903 -112.146163 
L 498.481903 -112.146163 
L 275.281903 -112.146163 
L 275.281903 -241.826694 
L 226.583721 -241.826694 
L 226.583721 -241.826694 
L 92.663721 -241.826694 
z
" id="me25462b422" style="stroke:#2ba12b;stroke-opacity:0.15;"/>
    </defs>
    <g clip-path="url(#p3a663a989d)">
     <use style="fill:#2ba12b;fill-opacity:0.15;stroke:#2ba12b;stroke-opacity:0.15;" x="0" xlink:href="#me25462b422" y="280.490202"/>
    </g>
   </g>
   <g id="line2d_1">
    <path clip-path="url(#p3a663a989d)" d="M 92.663721 45.913772 
L 254.990994 45.913772 
L 254.990994 221.071885 
" style="fill:none;stroke:#1f77b4;stroke-linecap:square;stroke-width:1.5;"/>
   </g>
   <g id="line2d_2">
    <path clip-path="url(#p3a663a989d)" d="M 92.663721 38.663507 
L 275.281903 38.663507 
L 275.281903 168.344039 
L 498.481903 168.344039 
" style="fill:none;stroke:#2ca02c;stroke-linecap:square;stroke-width:1.5;"/>
   </g>
   <g id="line2d_3">
    <path clip-path="url(#p3a663a989d)" d="M 92.663721 53.928568 
L 226.583721 53.928568 
L 226.583721 221.071885 
" style="fill:none;stroke:#2ca02c;stroke-linecap:square;stroke-width:1.5;"/>
   </g>
   <g id="line2d_4">
    <path clip-path="url(#p3a663a989d)" d="M 92.663721 45.913772 
L 100.820871 44.412138 
L 104.899445 44.004713 
L 106.938733 43.964437 
L 108.97802 44.05019 
L 111.017307 44.266028 
L 113.056595 44.607968 
L 117.135169 45.611646 
L 125.292319 48.052099 
L 127.331606 48.514985 
L 129.370893 48.834679 
L 131.410181 48.978368 
L 133.449468 48.924209 
L 135.488756 48.664007 
L 137.528043 48.204709 
L 139.56733 47.568466 
L 143.645905 45.920144 
L 149.763767 43.306215 
L 151.803054 42.625653 
L 153.842342 42.125338 
L 155.881629 41.843765 
L 157.920916 41.80807 
L 159.960204 42.032429 
L 161.999491 42.516814 
L 164.038778 43.246091 
L 166.078066 44.189512 
L 170.15664 46.51887 
L 174.235215 48.97187 
L 176.274502 50.037225 
L 178.31379 50.88232 
L 180.353077 51.433959 
L 182.392364 51.637627 
L 184.431652 51.464225 
L 186.470939 50.914235 
L 188.510227 50.018396 
L 190.549514 48.834755 
L 194.628089 45.935484 
L 198.706663 42.968533 
L 200.745951 41.695225 
L 202.785238 40.669087 
L 204.824525 39.95235 
L 206.863813 39.59029 
L 208.9031 39.61001 
L 210.942387 40.019576 
L 212.981675 40.807317 
L 215.020962 41.941224 
L 217.060249 43.368632 
L 221.138824 46.792918 
L 225.217399 50.291906 
L 227.256686 51.779924 
L 229.295973 52.948482 
L 231.335261 53.717313 
L 233.374548 54.046378 
L 235.413835 53.94883 
L 237.453123 53.501169 
L 241.531697 52.223871 
L 243.570985 51.934014 
L 245.610272 52.395986 
L 247.64956 54.132771 
L 249.688847 57.754652 
L 251.728134 63.868753 
L 253.767422 72.888412 
L 255.806709 84.791405 
L 257.845996 99.000757 
L 261.924571 130.599864 
L 266.003146 162.916391 
L 268.042433 179.947997 
L 270.08172 198.643834 
L 272.121008 220.073385 
L 274.160295 245.534334 
L 276.448274 281.490202 
M 291.538457 281.490202 
L 292.513881 266.136728 
L 294.553168 241.133442 
L 296.592456 221.536237 
L 298.631743 206.225167 
L 300.671031 194.454888 
L 302.710318 185.721381 
L 304.749605 179.680841 
L 306.788893 176.10063 
L 308.82818 174.829178 
L 310.867467 175.777118 
L 312.906755 178.90509 
L 314.946042 184.215007 
L 316.985329 191.741857 
L 319.024617 201.541826 
L 321.063904 213.668989 
L 323.103191 228.124484 
L 325.142479 244.745071 
L 329.230742 281.490202 
M 339.470339 281.490202 
L 343.496065 248.657508 
L 345.535352 234.005742 
L 347.574639 221.474866 
L 349.613927 211.148079 
L 351.653214 202.969689 
L 353.692502 196.836541 
L 355.731789 192.637189 
L 357.771076 190.266718 
L 359.810364 189.630153 
L 361.849651 190.640025 
L 363.888938 193.210141 
L 365.928226 197.245762 
L 367.967513 202.62937 
L 370.0068 209.200619 
L 372.046088 216.729288 
L 378.16395 241.026859 
L 380.203237 247.653664 
L 382.242524 252.319681 
L 384.281812 254.460766 
L 386.321099 253.888857 
L 388.360386 250.860247 
L 390.399674 245.970365 
L 392.438961 239.951296 
L 396.517536 227.145388 
L 398.556823 221.30442 
L 400.59611 216.226777 
L 402.635398 212.065047 
L 404.674685 208.896828 
L 406.713973 206.747103 
L 408.75326 205.603183 
L 410.792547 205.423589 
L 412.831835 206.142416 
L 414.871122 207.670526 
L 416.910409 209.894729 
L 418.949697 212.676117 
L 423.028271 219.22153 
L 425.067559 222.581774 
L 427.106846 225.708024 
L 429.146133 228.387001 
L 431.185421 230.436613 
L 433.224708 231.729461 
L 435.263995 232.21061 
L 437.303283 231.903785 
L 439.34257 230.903725 
L 441.381857 229.357244 
L 443.421145 227.438968 
L 449.539007 221.167048 
L 451.578294 219.369245 
L 453.617581 217.877388 
L 455.656869 216.74268 
L 457.696156 215.990002 
L 459.735443 215.621141 
L 461.774731 215.617952 
L 463.814018 215.945348 
L 465.853306 216.554174 
L 467.892593 217.384154 
L 471.971168 219.430496 
L 476.049742 221.511676 
L 478.08903 222.400542 
L 480.128317 223.120343 
L 482.167604 223.638625 
L 484.206892 223.939938 
L 486.246179 224.025825 
L 488.285466 223.913197 
L 490.324754 223.631399 
L 494.403328 222.716916 
L 498.481903 221.619201 
L 498.481903 221.619201 
" style="fill:none;stroke:#d62728;stroke-linecap:square;stroke-width:1.5;"/>
   </g>
   <g id="line2d_5">
    <path clip-path="url(#p3a663a989d)" d="M 92.663721 238.587696 
L 498.481903 238.587696 
" style="fill:none;stroke:#ffffff;stroke-linecap:square;stroke-width:35;"/>
   </g>
   <g id="patch_2">
    <path d="M 90.602276 45.913772 
Q 313.832213 45.913772 535.944116 45.913772 
" style="fill:none;stroke:#000000;stroke-linecap:round;"/>
    <path d="M 530.344116 43.113772 
L 535.944116 45.913772 
L 530.344116 48.713772 
" style="fill:none;stroke:#000000;stroke-linecap:round;"/>
   </g>
   <g id="patch_3">
    <path d="M 92.663721 219.073741 
Q 92.663721 121.111886 92.663721 24.268064 
" style="fill:none;stroke:#000000;stroke-linecap:round;"/>
    <path d="M 89.863721 29.868064 
L 92.663721 24.268064 
L 95.463721 29.868064 
" style="fill:none;stroke:#000000;stroke-linecap:round;"/>
   </g>
   <g id="text_1">
    <!-- $f_c-$ -->
    <g transform="translate(204.161579 29.325932)scale(0.14 -0.14)">
     <defs>
      <path d="M 2854 2566 
C 2982 2566 3034 2566 3034 2687 
C 3034 2752 2982 2752 2867 2752 
L 2349 2752 
C 2470 3398 2560 3846 2611 4051 
C 2650 4204 2784 4351 2950 4351 
C 3085 4351 3219 4294 3283 4236 
C 3034 4211 2957 4025 2957 3916 
C 2957 3788 3053 3712 3174 3712 
C 3302 3712 3494 3820 3494 4064 
C 3494 4332 3226 4480 2944 4480 
C 2669 4480 2400 4275 2272 4025 
C 2157 3801 2093 3573 1946 2752 
L 1517 2752 
C 1395 2752 1331 2752 1331 2636 
C 1331 2566 1370 2566 1498 2566 
L 1907 2566 
C 1792 1977 1530 545 1382 -132 
C 1274 -685 1178 -1152 858 -1152 
C 838 -1152 653 -1152 538 -1031 
C 864 -1005 864 -724 864 -717 
C 864 -589 768 -512 646 -512 
C 518 -512 326 -621 326 -865 
C 326 -1140 608 -1280 858 -1280 
C 1510 -1280 1779 -113 1850 203 
C 1965 691 2278 2376 2310 2566 
L 2854 2566 
z
" id="CMMI12-66" transform="scale(0.015625)"/>
      <path d="M 2502 2432 
C 2381 2432 2323 2432 2234 2355 
C 2195 2323 2125 2227 2125 2124 
C 2125 1996 2221 1919 2342 1919 
C 2496 1919 2669 2047 2669 2303 
C 2669 2591 2374 2816 1933 2816 
C 1094 2816 256 1932 256 1011 
C 256 446 602 -64 1254 -64 
C 2125 -64 2675 622 2675 706 
C 2675 745 2637 777 2611 777 
C 2592 777 2586 771 2528 712 
C 2118 161 1510 64 1267 64 
C 826 64 685 453 685 777 
C 685 1004 794 1634 1024 2073 
C 1190 2374 1536 2687 1939 2687 
C 2022 2687 2374 2676 2502 2432 
z
" id="CMMI12-63" transform="scale(0.015625)"/>
      <path d="M 4218 1472 
C 4326 1472 4442 1472 4442 1600 
C 4442 1728 4326 1728 4218 1728 
L 755 1728 
C 646 1728 531 1728 531 1600 
C 531 1472 646 1472 755 1472 
L 4218 1472 
z
" id="CMSY10-0" transform="scale(0.015625)"/>
     </defs>
     <use transform="scale(0.996264)" xlink:href="#CMMI12-66"/>
     <use transform="translate(48.083238 -14.943915)scale(0.697382)" xlink:href="#CMMI12-63"/>
     <use transform="translate(77.969501 0)scale(0.996264)" xlink:href="#CMSY10-0"/>
    </g>
   </g>
   <g id="text_2">
    <!-- $f_c$ -->
    <g transform="translate(249.453106 29.325932)scale(0.14 -0.14)">
     <use transform="scale(0.996264)" xlink:href="#CMMI12-66"/>
     <use transform="translate(48.083238 -14.943915)scale(0.697382)" xlink:href="#CMMI12-63"/>
    </g>
   </g>
   <g id="text_3">
    <!-- $f_c+$ -->
    <g transform="translate(275.281903 29.325932)scale(0.14 -0.14)">
     <defs>
      <path d="M 2413 1472 
L 4109 1472 
C 4198 1472 4307 1472 4307 1580 
C 4307 1696 4205 1696 4109 1696 
L 2413 1696 
L 2413 3385 
C 2413 3475 2413 3584 2304 3584 
C 2189 3584 2189 3481 2189 3385 
L 2189 1696 
L 493 1696 
C 403 1696 294 1696 294 1587 
C 294 1472 397 1472 493 1472 
L 2189 1472 
L 2189 -194 
C 2189 -282 2189 -391 2298 -391 
C 2413 -391 2413 -289 2413 -194 
L 2413 1472 
z
" id="CMR17-2b" transform="scale(0.015625)"/>
     </defs>
     <use transform="scale(0.996264)" xlink:href="#CMMI12-66"/>
     <use transform="translate(48.083238 -14.943915)scale(0.697382)" xlink:href="#CMMI12-63"/>
     <use transform="translate(77.969501 0)scale(0.996264)" xlink:href="#CMR17-2b"/>
    </g>
   </g>
   <g id="text_4">
    <!-- $20\log_{10}K$ -->
    <g transform="translate(26.449383 49.129496)scale(0.14 -0.14)">
     <defs>
      <path d="M 2669 990 
L 2554 990 
C 2490 537 2438 460 2413 422 
C 2381 371 1920 371 1830 371 
L 602 371 
C 832 620 1280 1073 1824 1596 
C 2214 1966 2669 2400 2669 3033 
C 2669 3788 2067 4224 1395 4224 
C 691 4224 262 3603 262 3027 
C 262 2777 448 2745 525 2745 
C 589 2745 781 2783 781 3007 
C 781 3206 614 3264 525 3264 
C 486 3264 448 3257 422 3244 
C 544 3788 915 4057 1306 4057 
C 1862 4057 2227 3616 2227 3033 
C 2227 2477 1901 1998 1536 1583 
L 262 147 
L 262 0 
L 2515 0 
L 2669 990 
z
" id="CMR17-32" transform="scale(0.015625)"/>
      <path d="M 2688 2038 
C 2688 2430 2682 3099 2413 3613 
C 2176 4063 1798 4224 1466 4224 
C 1158 4224 768 4082 525 3620 
C 269 3137 243 2539 243 2038 
C 243 1671 250 1112 448 623 
C 723 -39 1216 -128 1466 -128 
C 1760 -128 2208 -7 2470 604 
C 2662 1048 2688 1568 2688 2038 
z
M 1466 -26 
C 1056 -26 813 328 723 816 
C 653 1196 653 1749 653 2109 
C 653 2604 653 3015 736 3407 
C 858 3954 1216 4121 1466 4121 
C 1728 4121 2067 3947 2189 3420 
C 2272 3054 2278 2623 2278 2109 
C 2278 1691 2278 1176 2202 797 
C 2067 96 1690 -26 1466 -26 
z
" id="CMR17-30" transform="scale(0.015625)"/>
      <path d="M 979 4416 
L 218 4345 
L 218 4179 
C 595 4179 653 4141 653 3835 
L 653 439 
C 653 198 627 166 218 166 
L 218 0 
C 371 12 653 12 813 12 
C 979 12 1261 12 1414 0 
L 1414 166 
C 1005 166 979 191 979 439 
L 979 4416 
z
" id="CMR17-6c" transform="scale(0.015625)"/>
      <path d="M 2758 1356 
C 2758 2176 2163 2816 1466 2816 
C 768 2816 173 2176 173 1356 
C 173 550 768 -64 1466 -64 
C 2163 -64 2758 550 2758 1356 
z
M 1466 51 
C 1165 51 909 230 762 480 
C 602 768 582 1126 582 1408 
C 582 1676 595 2009 762 2297 
C 890 2508 1139 2713 1466 2713 
C 1754 2713 1997 2553 2150 2329 
C 2349 2028 2349 1606 2349 1408 
C 2349 1158 2336 774 2163 467 
C 1984 172 1709 51 1466 51 
z
" id="CMR17-6f" transform="scale(0.015625)"/>
      <path d="M 710 1165 
C 832 1068 1043 960 1299 960 
C 1805 960 2240 1359 2240 1895 
C 2240 2063 2189 2321 1997 2521 
C 2176 2713 2438 2777 2586 2777 
C 2611 2777 2650 2777 2682 2758 
C 2656 2751 2598 2726 2598 2623 
C 2598 2540 2656 2483 2739 2483 
C 2835 2483 2886 2547 2886 2630 
C 2886 2751 2790 2880 2586 2880 
C 2330 2880 2106 2758 1926 2591 
C 1734 2764 1504 2828 1299 2828 
C 794 2828 358 2431 358 1895 
C 358 1527 570 1294 634 1230 
C 442 1004 442 742 442 710 
C 442 544 506 300 723 166 
C 390 82 128 -184 128 -517 
C 128 -996 736 -1344 1466 -1344 
C 2170 -1344 2803 -1009 2803 -510 
C 2803 384 1856 384 1363 384 
C 1216 384 954 384 922 390 
C 723 422 589 601 589 825 
C 589 883 589 1024 710 1165 
z
M 1299 1068 
C 736 1068 736 1766 736 1895 
C 736 2024 736 2719 1299 2719 
C 1862 2719 1862 2024 1862 1895 
C 1862 1766 1862 1068 1299 1068 
z
M 1466 -1236 
C 826 -1236 384 -883 384 -517 
C 384 -311 493 -118 634 -11 
C 794 102 858 102 1293 102 
C 1818 102 2547 102 2547 -517 
C 2547 -883 2106 -1236 1466 -1236 
z
" id="CMR17-67" transform="scale(0.015625)"/>
      <path d="M 1702 4083 
C 1702 4217 1696 4224 1606 4224 
C 1357 3927 979 3833 621 3820 
C 602 3820 570 3820 563 3808 
C 557 3795 557 3782 557 3648 
C 755 3648 1088 3686 1344 3839 
L 1344 467 
C 1344 243 1331 166 781 166 
L 589 166 
L 589 0 
C 896 6 1216 12 1523 12 
C 1830 12 2150 6 2458 0 
L 2458 166 
L 2266 166 
C 1715 166 1702 236 1702 467 
L 1702 4083 
z
" id="CMR17-31" transform="scale(0.015625)"/>
      <path d="M 3200 2574 
C 3194 2593 3168 2644 3168 2663 
C 3168 2669 3174 2675 3283 2758 
L 3904 3242 
C 4762 3905 5043 4128 5485 4166 
C 5530 4172 5594 4172 5594 4281 
C 5594 4319 5574 4352 5523 4352 
C 5453 4352 5376 4339 5306 4339 
L 5062 4339 
C 4864 4339 4653 4352 4461 4352 
C 4416 4352 4339 4352 4339 4236 
C 4339 4172 4384 4166 4422 4166 
C 4493 4159 4576 4134 4576 4045 
C 4576 3917 4384 3765 4333 3726 
L 1824 1784 
L 2355 3886 
C 2413 4102 2426 4166 2880 4166 
C 3002 4166 3059 4166 3059 4287 
C 3059 4352 2995 4352 2963 4352 
C 2848 4352 2714 4339 2592 4339 
L 1837 4339 
C 1722 4339 1581 4352 1466 4352 
C 1414 4352 1344 4352 1344 4230 
C 1344 4166 1402 4166 1498 4166 
C 1888 4166 1888 4115 1888 4045 
C 1888 4032 1888 3994 1862 3898 
L 998 472 
C 941 249 928 185 480 185 
C 358 185 294 185 294 70 
C 294 0 352 0 390 0 
C 512 0 640 12 762 12 
L 1510 12 
C 1632 12 1766 0 1888 0 
C 1939 0 2010 0 2010 121 
C 2010 185 1952 185 1856 185 
C 1466 185 1466 236 1466 300 
C 1466 344 1504 504 1530 605 
L 1779 1593 
L 2752 2351 
C 2938 1943 3277 1128 3539 504 
C 3558 465 3571 427 3571 383 
C 3571 191 3315 185 3258 185 
C 3200 185 3136 185 3136 64 
C 3136 0 3206 0 3226 0 
C 3450 0 3686 12 3910 12 
L 4218 12 
C 4314 12 4422 0 4518 0 
C 4557 0 4627 0 4627 121 
C 4627 185 4570 185 4506 185 
C 4269 191 4186 242 4090 472 
L 3200 2574 
z
" id="CMMI12-4b" transform="scale(0.015625)"/>
     </defs>
     <use transform="scale(0.996264)" xlink:href="#CMR17-32"/>
     <use transform="translate(45.690477 0)scale(0.996264)" xlink:href="#CMR17-30"/>
     <use transform="translate(107.985359 0)scale(0.996264)" xlink:href="#CMR17-6c"/>
     <use transform="translate(132.856418 0)scale(0.996264)" xlink:href="#CMR17-6f"/>
     <use transform="translate(178.546895 0)scale(0.996264)" xlink:href="#CMR17-67"/>
     <use transform="translate(225.538538 -22.865092)scale(0.697382)" xlink:href="#CMR17-31"/>
     <use transform="translate(257.52172 -22.865092)scale(0.697382)" xlink:href="#CMR17-30"/>
     <use transform="translate(306.60744 0)scale(0.996264)" xlink:href="#CMMI12-4b"/>
    </g>
   </g>
   <g id="text_5">
    <!-- $f$ -->
    <g transform="translate(539.063721 43.201744)scale(0.14 -0.14)">
     <use transform="scale(0.996264)" xlink:href="#CMMI12-66"/>
    </g>
   </g>
   <g id="text_6">
    <!-- $20\log_{10}|H(f)|$ -->
    <g transform="translate(7.2 17.660772)scale(0.14 -0.14)">
     <defs>
      <path d="M 1018 4569 
C 1018 4684 1018 4800 890 4800 
C 762 4800 762 4684 762 4569 
L 762 -1370 
C 762 -1485 762 -1600 890 -1600 
C 1018 -1600 1018 -1485 1018 -1370 
L 1018 4569 
z
" id="CMSY10-6a" transform="scale(0.015625)"/>
      <path d="M 4787 3886 
C 4845 4102 4858 4166 5312 4166 
C 5427 4166 5491 4166 5491 4281 
C 5491 4352 5434 4352 5395 4352 
C 5280 4352 5146 4339 5024 4339 
L 4269 4339 
C 4147 4339 4013 4352 3891 4352 
C 3846 4352 3770 4352 3770 4230 
C 3770 4166 3814 4166 3936 4166 
C 4320 4166 4320 4115 4320 4045 
C 4320 4032 4320 3994 4294 3899 
L 3904 2361 
L 1971 2361 
L 2355 3886 
C 2413 4102 2426 4166 2880 4166 
C 2995 4166 3059 4166 3059 4281 
C 3059 4352 3002 4352 2963 4352 
C 2848 4352 2714 4339 2592 4339 
L 1837 4339 
C 1715 4339 1581 4352 1459 4352 
C 1414 4352 1338 4352 1338 4230 
C 1338 4166 1382 4166 1504 4166 
C 1888 4166 1888 4115 1888 4045 
C 1888 4032 1888 3994 1862 3899 
L 998 472 
C 941 249 928 185 486 185 
C 339 185 294 185 294 64 
C 294 0 365 0 384 0 
C 499 0 634 12 755 12 
L 1510 12 
C 1632 12 1766 0 1888 0 
C 1939 0 2010 0 2010 121 
C 2010 185 1952 185 1856 185 
C 1466 185 1466 236 1466 300 
C 1466 306 1466 351 1478 402 
L 1920 2176 
L 3859 2176 
C 3750 1755 3424 421 3411 383 
C 3341 191 3238 191 2861 185 
C 2784 185 2726 185 2726 64 
C 2726 0 2797 0 2816 0 
C 2931 0 3066 12 3187 12 
L 3942 12 
C 4064 12 4198 0 4320 0 
C 4371 0 4442 0 4442 121 
C 4442 185 4384 185 4288 185 
C 3898 185 3898 236 3898 300 
C 3898 306 3898 351 3910 402 
L 4787 3886 
z
" id="CMMI12-48" transform="scale(0.015625)"/>
      <path d="M 1958 -1562 
C 1958 -1556 1958 -1543 1939 -1524 
C 1645 -1223 858 -403 858 1596 
C 858 3595 1632 4408 1946 4729 
C 1946 4735 1958 4748 1958 4767 
C 1958 4787 1939 4800 1914 4800 
C 1843 4800 1299 4325 986 3620 
C 666 2909 576 2218 576 1603 
C 576 1141 621 360 1005 -467 
C 1312 -1133 1837 -1600 1914 -1600 
C 1946 -1600 1958 -1588 1958 -1562 
z
" id="CMR17-28" transform="scale(0.015625)"/>
      <path d="M 1683 1596 
C 1683 2057 1638 2839 1254 3665 
C 947 4332 422 4800 346 4800 
C 326 4800 301 4793 301 4761 
C 301 4748 307 4742 314 4729 
C 621 4408 1402 3595 1402 1603 
C 1402 -396 627 -1210 314 -1530 
C 307 -1543 301 -1549 301 -1562 
C 301 -1594 326 -1600 346 -1600 
C 416 -1600 960 -1127 1274 -422 
C 1594 289 1683 981 1683 1596 
z
" id="CMR17-29" transform="scale(0.015625)"/>
     </defs>
     <use transform="scale(0.996264)" xlink:href="#CMR17-32"/>
     <use transform="translate(45.690477 0)scale(0.996264)" xlink:href="#CMR17-30"/>
     <use transform="translate(107.985359 0)scale(0.996264)" xlink:href="#CMR17-6c"/>
     <use transform="translate(132.856418 0)scale(0.996264)" xlink:href="#CMR17-6f"/>
     <use transform="translate(178.546895 0)scale(0.996264)" xlink:href="#CMR17-67"/>
     <use transform="translate(225.538538 -22.865092)scale(0.697382)" xlink:href="#CMR17-31"/>
     <use transform="translate(257.52172 -22.865092)scale(0.697382)" xlink:href="#CMR17-30"/>
     <use transform="translate(306.60744 0)scale(0.996264)" xlink:href="#CMSY10-6a"/>
     <use transform="translate(334.281524 0)scale(0.996264)" xlink:href="#CMMI12-48"/>
     <use transform="translate(422.803297 0)scale(0.996264)" xlink:href="#CMR17-28"/>
     <use transform="translate(458.084065 0)scale(0.996264)" xlink:href="#CMMI12-66"/>
     <use transform="translate(516.804369 0)scale(0.996264)" xlink:href="#CMR17-29"/>
     <use transform="translate(552.085137 0)scale(0.996264)" xlink:href="#CMSY10-6a"/>
    </g>
   </g>
   <g id="patch_4">
    <path d="M 188.002014 194.798168 
Q 220.496821 194.798168 251.873594 194.798168 
" style="fill:none;stroke:#1f77b4;stroke-linecap:round;"/>
    <path d="M 246.273594 191.998168 
L 251.873594 194.798168 
L 246.273594 197.598168 
" style="fill:none;stroke:#1f77b4;stroke-linecap:round;"/>
   </g>
   <g id="text_7">
    <!-- filtre idéal -->
    <g style="fill:#1f77b4;" transform="translate(113.542942 199.280786)scale(0.18 -0.18)">
     <defs>
      <path d="M 2554 2816 
C 2400 2809 1926 2777 1805 2764 
C 1766 2758 1754 2758 1677 2758 
L 947 2758 
L 947 3517 
C 947 4127 1434 4416 1818 4416 
C 1939 4416 2214 4383 2355 4160 
C 2291 4160 2086 4160 2086 3935 
C 2086 3782 2189 3705 2317 3705 
C 2432 3705 2547 3769 2547 3942 
C 2547 4265 2240 4518 1843 4518 
C 1338 4518 634 4225 634 3517 
L 634 2758 
L 122 2758 
L 122 2591 
L 634 2591 
L 634 442 
C 634 198 608 166 198 166 
L 198 0 
C 352 12 634 12 794 12 
C 960 12 1242 12 1395 0 
L 1395 166 
C 986 166 960 192 960 442 
L 960 2591 
L 1901 2591 
C 2176 2591 2227 2534 2227 2251 
L 2227 442 
C 2227 198 2202 166 1792 166 
L 1792 0 
C 1946 12 2227 12 2387 12 
C 2554 12 2835 12 2989 0 
L 2989 166 
C 2579 166 2554 192 2554 442 
L 2554 2816 
z
" id="CMR17-c" transform="scale(0.015625)"/>
      <path d="M 966 2585 
L 1862 2585 
L 1862 2752 
L 966 2752 
L 966 3968 
L 851 3968 
C 838 3292 614 2700 70 2687 
L 70 2585 
L 627 2585 
L 627 778 
C 627 655 627 -64 1370 -64 
C 1747 -64 1965 308 1965 784 
L 1965 1151 
L 1850 1151 
L 1850 790 
C 1850 347 1677 51 1408 51 
C 1222 51 966 179 966 765 
L 966 2585 
z
" id="CMR17-74" transform="scale(0.015625)"/>
      <path d="M 960 1517 
C 960 2134 1222 2713 1702 2713 
C 1747 2713 1792 2707 1837 2687 
C 1837 2687 1696 2642 1696 2475 
C 1696 2321 1818 2257 1914 2257 
C 1990 2257 2131 2302 2131 2482 
C 2131 2687 1926 2816 1709 2816 
C 1222 2816 1011 2340 947 2115 
L 941 2115 
L 941 2816 
L 198 2745 
L 198 2578 
C 576 2578 634 2540 634 2231 
L 634 443 
C 634 198 608 166 198 166 
L 198 0 
C 352 12 646 12 813 12 
C 998 12 1325 12 1498 0 
L 1498 166 
C 1037 166 960 166 960 455 
L 960 1517 
z
" id="CMR17-72" transform="scale(0.015625)"/>
      <path d="M 2438 1503 
C 2464 1529 2464 1542 2464 1606 
C 2464 2251 2118 2816 1389 2816 
C 710 2816 173 2175 173 1394 
C 173 554 781 -64 1459 -64 
C 2176 -64 2458 619 2458 755 
C 2458 800 2419 800 2406 800 
C 2362 800 2355 787 2330 709 
C 2189 270 1837 51 1504 51 
C 1229 51 954 206 781 490 
C 582 819 582 1200 582 1503 
L 2438 1503 
z
M 589 1600 
C 634 2511 1126 2713 1382 2713 
C 1818 2713 2112 2308 2118 1600 
L 589 1600 
z
" id="CMR17-65" transform="scale(0.015625)"/>
      <path d="M 992 3961 
C 992 4102 877 4224 730 4224 
C 589 4224 467 4108 467 3961 
C 467 3820 582 3699 730 3699 
C 870 3699 992 3814 992 3961 
z
M 243 2745 
L 243 2579 
C 602 2579 653 2540 653 2231 
L 653 443 
C 653 198 627 166 218 166 
L 218 0 
C 371 12 646 12 806 12 
C 960 12 1222 12 1370 0 
L 1370 166 
C 992 166 979 205 979 436 
L 979 2816 
L 243 2745 
z
" id="CMR17-69" transform="scale(0.015625)"/>
      <path d="M 1869 4345 
L 1869 4179 
C 2246 4179 2304 4141 2304 3843 
L 2304 2371 
C 2278 2403 2016 2816 1498 2816 
C 845 2816 211 2228 211 1376 
C 211 529 806 -64 1434 -64 
C 1978 -64 2259 361 2291 406 
L 2291 -64 
L 3066 -13 
L 3066 154 
C 2688 154 2630 193 2630 503 
L 2630 4416 
L 1869 4345 
z
M 2291 762 
C 2291 568 2176 393 2029 264 
C 1811 70 1594 38 1472 38 
C 1286 38 621 135 621 1369 
C 621 2636 1363 2713 1530 2713 
C 1824 2713 2061 2545 2208 2313 
C 2291 2177 2291 2157 2291 2041 
L 2291 762 
z
" id="CMR17-64" transform="scale(0.015625)"/>
      <path d="M 2221 4157 
C 2298 4226 2317 4239 2317 4308 
C 2317 4403 2234 4480 2144 4480 
C 2067 4480 2042 4447 1978 4371 
L 1254 3468 
C 1210 3411 1210 3404 1210 3398 
C 1210 3391 1267 3334 1280 3321 
L 2221 4157 
z
" id="CMR17-13" transform="scale(0.015625)"/>
      <path d="M 2304 1656 
C 2304 2048 2304 2275 2035 2534 
C 1798 2751 1523 2816 1306 2816 
C 800 2816 435 2408 435 1977 
C 435 1740 627 1728 666 1728 
C 749 1728 896 1779 896 1958 
C 896 2118 774 2188 666 2188 
C 640 2188 608 2182 589 2176 
C 723 2594 1069 2713 1293 2713 
C 1613 2713 1965 2421 1965 1875 
L 1965 1632 
C 1587 1619 1133 1568 774 1373 
C 371 1147 256 822 256 576 
C 256 77 832 -64 1171 -64 
C 1523 -64 1850 135 1990 505 
C 2003 219 2182 -39 2464 -39 
C 2598 -39 2938 51 2938 563 
L 2938 926 
L 2822 926 
L 2822 557 
C 2822 161 2650 109 2566 109 
C 2304 109 2304 446 2304 732 
L 2304 1656 
z
M 1965 887 
C 1965 323 1568 38 1216 38 
C 896 38 646 278 646 576 
C 646 771 730 1114 1101 1322 
C 1408 1497 1760 1523 1965 1536 
L 1965 887 
z
" id="CMR17-61" transform="scale(0.015625)"/>
     </defs>
     <use transform="scale(0.996264)" xlink:href="#CMR17-c"/>
     <use transform="translate(49.742223 0)scale(0.996264)" xlink:href="#CMR17-6c"/>
     <use transform="translate(74.613282 0)scale(0.996264)" xlink:href="#CMR17-74"/>
     <use transform="translate(109.89405 0)scale(0.996264)" xlink:href="#CMR17-72"/>
     <use transform="translate(145.174817 0)scale(0.996264)" xlink:href="#CMR17-65"/>
     <use transform="translate(215.736444 0)scale(0.996264)" xlink:href="#CMR17-69"/>
     <use transform="translate(240.607503 0)scale(0.996264)" xlink:href="#CMR17-64"/>
     <use transform="translate(288.900464 0)scale(0.996264)" xlink:href="#CMR17-13"/>
     <use transform="translate(291.502873 0)scale(0.996264)" xlink:href="#CMR17-65"/>
     <use transform="translate(331.988533 0)scale(0.996264)" xlink:href="#CMR17-61"/>
     <use transform="translate(377.67901 0)scale(0.996264)" xlink:href="#CMR17-6c"/>
    </g>
   </g>
   <g id="text_8">
    <!-- filtre réalisable -->
    <g style="fill:#d62728;" transform="translate(437.609176 199.280786)scale(0.18 -0.18)">
     <defs>
      <path d="M 1978 2688 
C 1978 2803 1971 2809 1933 2809 
C 1907 2809 1901 2803 1824 2707 
C 1805 2681 1747 2617 1728 2592 
C 1523 2809 1235 2816 1126 2816 
C 416 2816 160 2444 160 2073 
C 160 1497 813 1363 998 1324 
C 1402 1241 1542 1216 1677 1100 
C 1760 1024 1901 883 1901 652 
C 1901 384 1747 38 1158 38 
C 602 38 403 460 288 1024 
C 269 1113 269 1120 218 1120 
C 166 1120 160 1113 160 985 
L 160 64 
C 160 -52 166 -58 205 -58 
C 237 -58 243 -52 275 0 
C 314 57 410 211 448 275 
C 576 102 800 -64 1158 -64 
C 1792 -64 2131 281 2131 780 
C 2131 1107 1958 1280 1875 1356 
C 1683 1555 1459 1600 1190 1651 
C 838 1728 390 1817 390 2208 
C 390 2374 480 2726 1126 2726 
C 1811 2726 1850 2086 1862 1881 
C 1869 1849 1901 1843 1920 1843 
C 1978 1843 1978 1862 1978 1971 
L 1978 2688 
z
" id="CMR17-73" transform="scale(0.015625)"/>
      <path d="M 960 4416 
L 198 4345 
L 198 4179 
C 576 4179 634 4141 634 3843 
L 634 -13 
L 749 -13 
L 934 445 
C 1120 141 1395 -64 1766 -64 
C 2406 -64 3053 503 3053 1382 
C 3053 2209 2477 2816 1830 2816 
C 1434 2816 1152 2603 960 2351 
L 960 4416 
z
M 973 2022 
C 973 2138 973 2157 1062 2293 
C 1312 2681 1670 2713 1792 2713 
C 1984 2713 2643 2610 2643 1388 
C 2643 109 1888 38 1734 38 
C 1536 38 1248 115 1043 490 
C 973 613 973 626 973 742 
L 973 2022 
z
" id="CMR17-62" transform="scale(0.015625)"/>
     </defs>
     <use transform="scale(0.996264)" xlink:href="#CMR17-c"/>
     <use transform="translate(49.742223 0)scale(0.996264)" xlink:href="#CMR17-6c"/>
     <use transform="translate(74.613282 0)scale(0.996264)" xlink:href="#CMR17-74"/>
     <use transform="translate(109.89405 0)scale(0.996264)" xlink:href="#CMR17-72"/>
     <use transform="translate(145.174817 0)scale(0.996264)" xlink:href="#CMR17-65"/>
     <use transform="translate(215.736444 0)scale(0.996264)" xlink:href="#CMR17-72"/>
     <use transform="translate(248.414804 0)scale(0.996264)" xlink:href="#CMR17-13"/>
     <use transform="translate(251.017212 0)scale(0.996264)" xlink:href="#CMR17-65"/>
     <use transform="translate(291.502873 0)scale(0.996264)" xlink:href="#CMR17-61"/>
     <use transform="translate(337.19335 0)scale(0.996264)" xlink:href="#CMR17-6c"/>
     <use transform="translate(362.064408 0)scale(0.996264)" xlink:href="#CMR17-69"/>
     <use transform="translate(386.935467 0)scale(0.996264)" xlink:href="#CMR17-73"/>
     <use transform="translate(422.736804 0)scale(0.996264)" xlink:href="#CMR17-61"/>
     <use transform="translate(468.427281 0)scale(0.996264)" xlink:href="#CMR17-62"/>
     <use transform="translate(519.322651 0)scale(0.996264)" xlink:href="#CMR17-6c"/>
     <use transform="translate(544.19371 0)scale(0.996264)" xlink:href="#CMR17-65"/>
    </g>
   </g>
   <g id="patch_5">
    <path d="M 95.780256 229.82979 
Q 159.622529 229.82979 223.464803 229.82979 
" style="fill:none;stroke:#000000;stroke-linecap:round;"/>
    <path d="M 101.380256 232.62979 
L 95.780256 229.82979 
L 101.380256 227.02979 
" style="fill:none;stroke:#000000;stroke-linecap:round;"/>
    <path d="M 217.864803 227.02979 
L 223.464803 229.82979 
L 217.864803 232.62979 
" style="fill:none;stroke:#000000;stroke-linecap:round;"/>
   </g>
   <g id="text_9">
    <!-- bande -->
    <g transform="translate(138.126136 251.370113)scale(0.18 -0.18)">
     <defs>
      <path d="M 2656 1954 
C 2656 2282 2592 2816 1837 2816 
C 1331 2816 1069 2424 973 2166 
L 966 2166 
L 966 2816 
L 211 2745 
L 211 2578 
C 589 2578 646 2540 646 2231 
L 646 443 
C 646 198 621 166 211 166 
L 211 0 
C 365 12 646 12 813 12 
C 979 12 1267 12 1421 0 
L 1421 166 
C 1011 166 986 192 986 443 
L 986 1678 
C 986 2269 1344 2713 1792 2713 
C 2266 2713 2317 2289 2317 1980 
L 2317 443 
C 2317 198 2291 166 1882 166 
L 1882 0 
C 2035 12 2317 12 2483 12 
C 2650 12 2938 12 3091 0 
L 3091 166 
C 2682 166 2656 192 2656 443 
L 2656 1954 
z
" id="CMR17-6e" transform="scale(0.015625)"/>
     </defs>
     <use transform="scale(0.996264)" xlink:href="#CMR17-62"/>
     <use transform="translate(50.89537 0)scale(0.996264)" xlink:href="#CMR17-61"/>
     <use transform="translate(96.585847 0)scale(0.996264)" xlink:href="#CMR17-6e"/>
     <use transform="translate(147.481217 0)scale(0.996264)" xlink:href="#CMR17-64"/>
     <use transform="translate(198.376586 0)scale(0.996264)" xlink:href="#CMR17-65"/>
    </g>
    <!-- passante -->
    <g transform="translate(129.209295 269.802138)scale(0.18 -0.18)">
     <defs>
      <path d="M 1408 -1114 
C 998 -1114 973 -1088 973 -834 
L 973 380 
C 1158 109 1427 -64 1766 -64 
C 2406 -64 3053 503 3053 1382 
C 3053 2196 2496 2816 1837 2816 
C 1453 2816 1139 2603 960 2345 
L 960 2816 
L 198 2745 
L 198 2577 
C 576 2577 634 2539 634 2228 
L 634 -834 
C 634 -1081 608 -1114 198 -1114 
L 198 -1280 
C 352 -1268 634 -1268 800 -1268 
C 966 -1268 1254 -1268 1408 -1280 
L 1408 -1114 
z
M 973 2015 
C 973 2106 973 2241 1222 2481 
C 1254 2506 1472 2700 1792 2700 
C 2259 2700 2643 2112 2643 1376 
C 2643 639 2234 38 1728 38 
C 1498 38 1248 148 1056 451 
C 973 594 973 632 973 736 
L 973 2015 
z
" id="CMR17-70" transform="scale(0.015625)"/>
     </defs>
     <use transform="scale(0.996264)" xlink:href="#CMR17-70"/>
     <use transform="translate(50.89537 0)scale(0.996264)" xlink:href="#CMR17-61"/>
     <use transform="translate(96.585847 0)scale(0.996264)" xlink:href="#CMR17-73"/>
     <use transform="translate(132.387185 0)scale(0.996264)" xlink:href="#CMR17-73"/>
     <use transform="translate(168.188522 0)scale(0.996264)" xlink:href="#CMR17-61"/>
     <use transform="translate(213.878999 0)scale(0.996264)" xlink:href="#CMR17-6e"/>
     <use transform="translate(262.171915 0)scale(0.996264)" xlink:href="#CMR17-74"/>
     <use transform="translate(297.452683 0)scale(0.996264)" xlink:href="#CMR17-65"/>
    </g>
   </g>
   <g id="patch_6">
    <path d="M 229.702114 229.82979 
Q 250.933993 229.82979 272.165873 229.82979 
" style="fill:none;stroke:#000000;stroke-linecap:round;"/>
    <path d="M 235.302114 232.62979 
L 229.702114 229.82979 
L 235.302114 227.02979 
" style="fill:none;stroke:#000000;stroke-linecap:round;"/>
    <path d="M 266.565873 227.02979 
L 272.165873 229.82979 
L 266.565873 232.62979 
" style="fill:none;stroke:#000000;stroke-linecap:round;"/>
   </g>
   <g id="text_10">
    <!-- bande -->
    <g transform="translate(229.435227 251.370113)scale(0.18 -0.18)">
     <use transform="scale(0.996264)" xlink:href="#CMR17-62"/>
     <use transform="translate(50.89537 0)scale(0.996264)" xlink:href="#CMR17-61"/>
     <use transform="translate(96.585847 0)scale(0.996264)" xlink:href="#CMR17-6e"/>
     <use transform="translate(147.481217 0)scale(0.996264)" xlink:href="#CMR17-64"/>
     <use transform="translate(198.376586 0)scale(0.996264)" xlink:href="#CMR17-65"/>
    </g>
    <!-- de transition -->
    <g transform="translate(205.391548 269.802138)scale(0.18 -0.18)">
     <use transform="scale(0.996264)" xlink:href="#CMR17-64"/>
     <use transform="translate(50.89537 0)scale(0.996264)" xlink:href="#CMR17-65"/>
     <use transform="translate(121.456997 0)scale(0.996264)" xlink:href="#CMR17-74"/>
     <use transform="translate(156.737764 0)scale(0.996264)" xlink:href="#CMR17-72"/>
     <use transform="translate(192.018532 0)scale(0.996264)" xlink:href="#CMR17-61"/>
     <use transform="translate(237.709009 0)scale(0.996264)" xlink:href="#CMR17-6e"/>
     <use transform="translate(288.604379 0)scale(0.996264)" xlink:href="#CMR17-73"/>
     <use transform="translate(324.405717 0)scale(0.996264)" xlink:href="#CMR17-69"/>
     <use transform="translate(349.276775 0)scale(0.996264)" xlink:href="#CMR17-74"/>
     <use transform="translate(384.557543 0)scale(0.996264)" xlink:href="#CMR17-69"/>
     <use transform="translate(409.428601 0)scale(0.996264)" xlink:href="#CMR17-6f"/>
     <use transform="translate(455.119079 0)scale(0.996264)" xlink:href="#CMR17-6e"/>
    </g>
   </g>
   <g id="patch_7">
    <path d="M 278.399119 229.82979 
Q 386.880731 229.82979 495.362342 229.82979 
" style="fill:none;stroke:#000000;stroke-linecap:round;"/>
    <path d="M 283.999119 232.62979 
L 278.399119 229.82979 
L 283.999119 227.02979 
" style="fill:none;stroke:#000000;stroke-linecap:round;"/>
    <path d="M 489.762342 227.02979 
L 495.362342 229.82979 
L 489.762342 232.62979 
" style="fill:none;stroke:#000000;stroke-linecap:round;"/>
   </g>
   <g id="text_11">
    <!-- bande -->
    <g transform="translate(365.384318 251.370113)scale(0.18 -0.18)">
     <use transform="scale(0.996264)" xlink:href="#CMR17-62"/>
     <use transform="translate(50.89537 0)scale(0.996264)" xlink:href="#CMR17-61"/>
     <use transform="translate(96.585847 0)scale(0.996264)" xlink:href="#CMR17-6e"/>
     <use transform="translate(147.481217 0)scale(0.996264)" xlink:href="#CMR17-64"/>
     <use transform="translate(198.376586 0)scale(0.996264)" xlink:href="#CMR17-65"/>
    </g>
    <!-- atténuée -->
    <g transform="translate(356.561173 269.802138)scale(0.18 -0.18)">
     <defs>
      <path d="M 1882 2745 
L 1882 2579 
C 2259 2579 2317 2540 2317 2229 
L 2317 1053 
C 2317 510 2029 38 1555 38 
C 1030 38 986 355 986 691 
L 986 2816 
L 211 2745 
L 211 2579 
C 467 2579 640 2579 646 2320 
L 646 1079 
C 646 646 646 368 813 187 
C 896 103 1056 -64 1517 -64 
C 2061 -64 2272 400 2323 536 
L 2330 536 
L 2330 -64 
L 3091 -13 
L 3091 154 
C 2714 154 2656 193 2656 503 
L 2656 2816 
L 1882 2745 
z
" id="CMR17-75" transform="scale(0.015625)"/>
     </defs>
     <use transform="scale(0.996264)" xlink:href="#CMR17-61"/>
     <use transform="translate(45.690477 0)scale(0.996264)" xlink:href="#CMR17-74"/>
     <use transform="translate(80.971245 0)scale(0.996264)" xlink:href="#CMR17-74"/>
     <use transform="translate(113.649604 0)scale(0.996264)" xlink:href="#CMR17-13"/>
     <use transform="translate(116.252013 0)scale(0.996264)" xlink:href="#CMR17-65"/>
     <use transform="translate(156.737673 0)scale(0.996264)" xlink:href="#CMR17-6e"/>
     <use transform="translate(205.030589 0)scale(0.996264)" xlink:href="#CMR17-75"/>
     <use transform="translate(253.32355 0)scale(0.996264)" xlink:href="#CMR17-13"/>
     <use transform="translate(255.925959 0)scale(0.996264)" xlink:href="#CMR17-65"/>
     <use transform="translate(296.411619 0)scale(0.996264)" xlink:href="#CMR17-65"/>
    </g>
   </g>
   <g id="patch_8">
    <path d="M 307.747358 56.941794 
Q 307.747358 46.295102 307.747358 35.648409 
" style="fill:none;stroke:#ff7f0e;stroke-linecap:round;"/>
    <path d="M 310.547358 51.341794 
L 307.747358 56.941794 
L 304.947358 51.341794 
" style="fill:none;stroke:#ff7f0e;stroke-linecap:round;"/>
    <path d="M 304.947358 41.248409 
L 307.747358 35.648409 
L 310.547358 41.248409 
" style="fill:none;stroke:#ff7f0e;stroke-linecap:round;"/>
   </g>
   <g id="text_12">
    <!-- ondulation en bande passante -->
    <g style="fill:#ff7f0e;" transform="translate(315.863721 41.638484)scale(0.18 -0.18)">
     <use transform="scale(0.996264)" xlink:href="#CMR17-6f"/>
     <use transform="translate(45.690477 0)scale(0.996264)" xlink:href="#CMR17-6e"/>
     <use transform="translate(96.585847 0)scale(0.996264)" xlink:href="#CMR17-64"/>
     <use transform="translate(147.481217 0)scale(0.996264)" xlink:href="#CMR17-75"/>
     <use transform="translate(198.376586 0)scale(0.996264)" xlink:href="#CMR17-6c"/>
     <use transform="translate(223.247645 0)scale(0.996264)" xlink:href="#CMR17-61"/>
     <use transform="translate(268.938122 0)scale(0.996264)" xlink:href="#CMR17-74"/>
     <use transform="translate(304.21889 0)scale(0.996264)" xlink:href="#CMR17-69"/>
     <use transform="translate(329.089948 0)scale(0.996264)" xlink:href="#CMR17-6f"/>
     <use transform="translate(374.780425 0)scale(0.996264)" xlink:href="#CMR17-6e"/>
     <use transform="translate(455.751762 0)scale(0.996264)" xlink:href="#CMR17-65"/>
     <use transform="translate(496.237422 0)scale(0.996264)" xlink:href="#CMR17-6e"/>
     <use transform="translate(577.208758 0)scale(0.996264)" xlink:href="#CMR17-62"/>
     <use transform="translate(628.104128 0)scale(0.996264)" xlink:href="#CMR17-61"/>
     <use transform="translate(673.794605 0)scale(0.996264)" xlink:href="#CMR17-6e"/>
     <use transform="translate(724.689975 0)scale(0.996264)" xlink:href="#CMR17-64"/>
     <use transform="translate(775.585345 0)scale(0.996264)" xlink:href="#CMR17-65"/>
     <use transform="translate(846.146971 0)scale(0.996264)" xlink:href="#CMR17-70"/>
     <use transform="translate(897.042341 0)scale(0.996264)" xlink:href="#CMR17-61"/>
     <use transform="translate(942.732818 0)scale(0.996264)" xlink:href="#CMR17-73"/>
     <use transform="translate(978.534156 0)scale(0.996264)" xlink:href="#CMR17-73"/>
     <use transform="translate(1014.335494 0)scale(0.996264)" xlink:href="#CMR17-61"/>
     <use transform="translate(1060.025971 0)scale(0.996264)" xlink:href="#CMR17-6e"/>
     <use transform="translate(1108.318887 0)scale(0.996264)" xlink:href="#CMR17-74"/>
     <use transform="translate(1143.599654 0)scale(0.996264)" xlink:href="#CMR17-65"/>
    </g>
   </g>
   <g id="patch_9">
    <path d="M 437.609176 49.030713 
Q 437.609176 107.126847 437.609176 165.222981 
" style="fill:none;stroke:#ff7f0e;stroke-linecap:round;"/>
    <path d="M 434.809176 54.630713 
L 437.609176 49.030713 
L 440.409176 54.630713 
" style="fill:none;stroke:#ff7f0e;stroke-linecap:round;"/>
    <path d="M 440.409176 159.622981 
L 437.609176 165.222981 
L 434.809176 159.622981 
" style="fill:none;stroke:#ff7f0e;stroke-linecap:round;"/>
   </g>
   <g id="text_13">
    <!-- atténuation -->
    <g style="fill:#ff7f0e;" transform="translate(351.047318 111.611523)scale(0.18 -0.18)">
     <use transform="scale(0.996264)" xlink:href="#CMR17-61"/>
     <use transform="translate(45.690477 0)scale(0.996264)" xlink:href="#CMR17-74"/>
     <use transform="translate(80.971245 0)scale(0.996264)" xlink:href="#CMR17-74"/>
     <use transform="translate(113.649604 0)scale(0.996264)" xlink:href="#CMR17-13"/>
     <use transform="translate(116.252013 0)scale(0.996264)" xlink:href="#CMR17-65"/>
     <use transform="translate(156.737673 0)scale(0.996264)" xlink:href="#CMR17-6e"/>
     <use transform="translate(205.030589 0)scale(0.996264)" xlink:href="#CMR17-75"/>
     <use transform="translate(255.925959 0)scale(0.996264)" xlink:href="#CMR17-61"/>
     <use transform="translate(301.616436 0)scale(0.996264)" xlink:href="#CMR17-74"/>
     <use transform="translate(336.897204 0)scale(0.996264)" xlink:href="#CMR17-69"/>
     <use transform="translate(361.768262 0)scale(0.996264)" xlink:href="#CMR17-6f"/>
     <use transform="translate(407.458739 0)scale(0.996264)" xlink:href="#CMR17-6e"/>
    </g>
   </g>
  </g>
 </g>
 <defs>
  <clipPath id="p3a663a989d">
   <rect height="217.44" width="446.4" x="92.663721" y="21.147696"/>
  </clipPath>
 </defs>
</svg>
