<?xml version="1.0" encoding="utf-8" standalone="no"?>
<!DOCTYPE svg PUBLIC "-//W3C//DTD SVG 1.1//EN"
  "http://www.w3.org/Graphics/SVG/1.1/DTD/svg11.dtd">
<svg height="375.256364pt" version="1.1" viewBox="0 0 714.930965 375.256364" width="714.930965pt" xmlns="http://www.w3.org/2000/svg" xmlns:xlink="http://www.w3.org/1999/xlink">
 <metadata>
  <rdf:RDF xmlns:cc="http://creativecommons.org/ns#" xmlns:dc="http://purl.org/dc/elements/1.1/" xmlns:rdf="http://www.w3.org/1999/02/22-rdf-syntax-ns#">
   <cc:Work>
    <dc:type rdf:resource="http://purl.org/dc/dcmitype/StillImage"/>
    <dc:date>2021-11-25T14:38:27.481551</dc:date>
    <dc:format>image/svg+xml</dc:format>
    <dc:creator>
     <cc:Agent>
      <dc:title>Matplotlib v3.4.3, https://matplotlib.org/</dc:title>
     </cc:Agent>
    </dc:creator>
   </cc:Work>
  </rdf:RDF>
 </metadata>
 <defs>
  <style type="text/css">*{stroke-linecap:butt;stroke-linejoin:round;}</style>
 </defs>
 <g id="figure_1">
  <g id="patch_1">
   <path d="M 0 375.256364 
L 714.930965 375.256364 
L 714.930965 0 
L 0 0 
z
" style="fill:none;"/>
  </g>
  <g id="axes_1">
   <g id="patch_2">
    <path d="M 29.35148 166.078284 
L 333.715116 166.078284 
L 333.715116 24.269588 
L 29.35148 24.269588 
z
" style="fill:#ffffff;"/>
   </g>
   <g id="matplotlib.axis_1">
    <g id="xtick_1">
     <g id="line2d_1">
      <path clip-path="url(#p4b5c1a4f5c)" d="M 29.35148 166.078284 
L 29.35148 24.269588 
" style="fill:none;stroke:#b0b0b0;stroke-linecap:square;stroke-width:0.8;"/>
     </g>
     <g id="line2d_2">
      <defs>
       <path d="M 0 0 
L 0 3.5 
" id="m18d8b884d8" style="stroke:#000000;stroke-width:0.8;"/>
      </defs>
      <g>
       <use style="stroke:#000000;stroke-width:0.8;" x="29.35148" xlink:href="#m18d8b884d8" y="166.078284"/>
      </g>
     </g>
     <g id="text_1">
      <!-- $\mathdefault{0}$ -->
      <g transform="translate(26.424985 181.380464)scale(0.12 -0.12)">
       <defs>
        <path d="M 2688 2025 
C 2688 2416 2682 3080 2413 3591 
C 2176 4039 1798 4198 1466 4198 
C 1158 4198 768 4058 525 3597 
C 269 3118 243 2524 243 2025 
C 243 1661 250 1106 448 619 
C 723 -39 1216 -128 1466 -128 
C 1760 -128 2208 -7 2470 600 
C 2662 1042 2688 1559 2688 2025 
z
M 1466 -26 
C 1056 -26 813 325 723 812 
C 653 1188 653 1738 653 2096 
C 653 2588 653 2997 736 3387 
C 858 3929 1216 4096 1466 4096 
C 1728 4096 2067 3923 2189 3400 
C 2272 3036 2278 2607 2278 2096 
C 2278 1680 2278 1169 2202 792 
C 2067 95 1690 -26 1466 -26 
z
" id="CMR17-30" transform="scale(0.015625)"/>
       </defs>
       <use transform="scale(0.996264)" xlink:href="#CMR17-30"/>
      </g>
     </g>
    </g>
    <g id="xtick_2">
     <g id="line2d_3">
      <path clip-path="url(#p4b5c1a4f5c)" d="M 67.396934 166.078284 
L 67.396934 24.269588 
" style="fill:none;stroke:#b0b0b0;stroke-linecap:square;stroke-width:0.8;"/>
     </g>
     <g id="line2d_4">
      <g>
       <use style="stroke:#000000;stroke-width:0.8;" x="67.396934" xlink:href="#m18d8b884d8" y="166.078284"/>
      </g>
     </g>
     <g id="text_2">
      <!-- $\mathdefault{25}$ -->
      <g transform="translate(61.543944 181.380464)scale(0.12 -0.12)">
       <defs>
        <path d="M 2669 989 
L 2554 989 
C 2490 536 2438 459 2413 420 
C 2381 369 1920 369 1830 369 
L 602 369 
C 832 619 1280 1072 1824 1597 
C 2214 1967 2669 2402 2669 3035 
C 2669 3790 2067 4224 1395 4224 
C 691 4224 262 3604 262 3030 
C 262 2780 448 2748 525 2748 
C 589 2748 781 2787 781 3010 
C 781 3207 614 3264 525 3264 
C 486 3264 448 3258 422 3245 
C 544 3790 915 4058 1306 4058 
C 1862 4058 2227 3617 2227 3035 
C 2227 2479 1901 2000 1536 1584 
L 262 146 
L 262 0 
L 2515 0 
L 2669 989 
z
" id="CMR17-32" transform="scale(0.015625)"/>
        <path d="M 730 3692 
C 794 3666 1056 3584 1325 3584 
C 1920 3584 2246 3911 2432 4100 
C 2432 4157 2432 4192 2394 4192 
C 2387 4192 2374 4192 2323 4163 
C 2099 4058 1837 3973 1517 3973 
C 1325 3973 1037 3999 723 4139 
C 653 4171 640 4171 634 4171 
C 602 4171 595 4164 595 4037 
L 595 2203 
C 595 2089 595 2057 659 2057 
C 691 2057 704 2070 736 2114 
C 941 2401 1222 2522 1542 2522 
C 1766 2522 2246 2382 2246 1289 
C 2246 1085 2246 715 2054 421 
C 1894 159 1645 25 1370 25 
C 947 25 518 320 403 814 
C 429 807 480 795 506 795 
C 589 795 749 840 749 1038 
C 749 1210 627 1280 506 1280 
C 358 1280 262 1190 262 1011 
C 262 454 704 -128 1382 -128 
C 2042 -128 2669 440 2669 1264 
C 2669 2030 2170 2624 1549 2624 
C 1222 2624 947 2503 730 2274 
L 730 3692 
z
" id="CMR17-35" transform="scale(0.015625)"/>
       </defs>
       <use transform="scale(0.996264)" xlink:href="#CMR17-32"/>
       <use transform="translate(45.690477 0)scale(0.996264)" xlink:href="#CMR17-35"/>
      </g>
     </g>
    </g>
    <g id="xtick_3">
     <g id="line2d_5">
      <path clip-path="url(#p4b5c1a4f5c)" d="M 105.442389 166.078284 
L 105.442389 24.269588 
" style="fill:none;stroke:#b0b0b0;stroke-linecap:square;stroke-width:0.8;"/>
     </g>
     <g id="line2d_6">
      <g>
       <use style="stroke:#000000;stroke-width:0.8;" x="105.442389" xlink:href="#m18d8b884d8" y="166.078284"/>
      </g>
     </g>
     <g id="text_3">
      <!-- $\mathdefault{50}$ -->
      <g transform="translate(99.589399 181.380464)scale(0.12 -0.12)">
       <use transform="scale(0.996264)" xlink:href="#CMR17-35"/>
       <use transform="translate(45.690477 0)scale(0.996264)" xlink:href="#CMR17-30"/>
      </g>
     </g>
    </g>
    <g id="xtick_4">
     <g id="line2d_7">
      <path clip-path="url(#p4b5c1a4f5c)" d="M 143.487843 166.078284 
L 143.487843 24.269588 
" style="fill:none;stroke:#b0b0b0;stroke-linecap:square;stroke-width:0.8;"/>
     </g>
     <g id="line2d_8">
      <g>
       <use style="stroke:#000000;stroke-width:0.8;" x="143.487843" xlink:href="#m18d8b884d8" y="166.078284"/>
      </g>
     </g>
     <g id="text_4">
      <!-- $\mathdefault{75}$ -->
      <g transform="translate(137.634853 181.380464)scale(0.12 -0.12)">
       <defs>
        <path d="M 2886 3941 
L 2886 4081 
L 1382 4081 
C 634 4081 621 4165 595 4288 
L 480 4288 
L 294 3094 
L 410 3094 
C 429 3215 474 3540 550 3661 
C 589 3712 1062 3712 1171 3712 
L 2579 3712 
L 1869 2661 
C 1395 1954 1069 999 1069 165 
C 1069 89 1069 -128 1299 -128 
C 1530 -128 1530 89 1530 171 
L 1530 465 
C 1530 1508 1709 2196 2003 2636 
L 2886 3941 
z
" id="CMR17-37" transform="scale(0.015625)"/>
       </defs>
       <use transform="scale(0.996264)" xlink:href="#CMR17-37"/>
       <use transform="translate(45.690477 0)scale(0.996264)" xlink:href="#CMR17-35"/>
      </g>
     </g>
    </g>
    <g id="xtick_5">
     <g id="line2d_9">
      <path clip-path="url(#p4b5c1a4f5c)" d="M 181.533298 166.078284 
L 181.533298 24.269588 
" style="fill:none;stroke:#b0b0b0;stroke-linecap:square;stroke-width:0.8;"/>
     </g>
     <g id="line2d_10">
      <g>
       <use style="stroke:#000000;stroke-width:0.8;" x="181.533298" xlink:href="#m18d8b884d8" y="166.078284"/>
      </g>
     </g>
     <g id="text_5">
      <!-- $\mathdefault{100}$ -->
      <g transform="translate(172.753812 181.380464)scale(0.12 -0.12)">
       <defs>
        <path d="M 1702 4058 
C 1702 4192 1696 4192 1606 4192 
C 1357 3916 979 3827 621 3827 
C 602 3827 570 3827 563 3808 
C 557 3795 557 3782 557 3648 
C 755 3648 1088 3686 1344 3839 
L 1344 461 
C 1344 236 1331 160 781 160 
L 589 160 
L 589 0 
C 896 0 1216 0 1523 0 
C 1830 0 2150 0 2458 0 
L 2458 160 
L 2266 160 
C 1715 160 1702 230 1702 458 
L 1702 4058 
z
" id="CMR17-31" transform="scale(0.015625)"/>
       </defs>
       <use transform="scale(0.996264)" xlink:href="#CMR17-31"/>
       <use transform="translate(45.690477 0)scale(0.996264)" xlink:href="#CMR17-30"/>
       <use transform="translate(91.380954 0)scale(0.996264)" xlink:href="#CMR17-30"/>
      </g>
     </g>
    </g>
    <g id="xtick_6">
     <g id="line2d_11">
      <path clip-path="url(#p4b5c1a4f5c)" d="M 219.578752 166.078284 
L 219.578752 24.269588 
" style="fill:none;stroke:#b0b0b0;stroke-linecap:square;stroke-width:0.8;"/>
     </g>
     <g id="line2d_12">
      <g>
       <use style="stroke:#000000;stroke-width:0.8;" x="219.578752" xlink:href="#m18d8b884d8" y="166.078284"/>
      </g>
     </g>
     <g id="text_6">
      <!-- $\mathdefault{125}$ -->
      <g transform="translate(210.799267 181.380464)scale(0.12 -0.12)">
       <use transform="scale(0.996264)" xlink:href="#CMR17-31"/>
       <use transform="translate(45.690477 0)scale(0.996264)" xlink:href="#CMR17-32"/>
       <use transform="translate(91.380954 0)scale(0.996264)" xlink:href="#CMR17-35"/>
      </g>
     </g>
    </g>
    <g id="xtick_7">
     <g id="line2d_13">
      <path clip-path="url(#p4b5c1a4f5c)" d="M 257.624207 166.078284 
L 257.624207 24.269588 
" style="fill:none;stroke:#b0b0b0;stroke-linecap:square;stroke-width:0.8;"/>
     </g>
     <g id="line2d_14">
      <g>
       <use style="stroke:#000000;stroke-width:0.8;" x="257.624207" xlink:href="#m18d8b884d8" y="166.078284"/>
      </g>
     </g>
     <g id="text_7">
      <!-- $\mathdefault{150}$ -->
      <g transform="translate(248.844722 181.380464)scale(0.12 -0.12)">
       <use transform="scale(0.996264)" xlink:href="#CMR17-31"/>
       <use transform="translate(45.690477 0)scale(0.996264)" xlink:href="#CMR17-35"/>
       <use transform="translate(91.380954 0)scale(0.996264)" xlink:href="#CMR17-30"/>
      </g>
     </g>
    </g>
    <g id="xtick_8">
     <g id="line2d_15">
      <path clip-path="url(#p4b5c1a4f5c)" d="M 295.669661 166.078284 
L 295.669661 24.269588 
" style="fill:none;stroke:#b0b0b0;stroke-linecap:square;stroke-width:0.8;"/>
     </g>
     <g id="line2d_16">
      <g>
       <use style="stroke:#000000;stroke-width:0.8;" x="295.669661" xlink:href="#m18d8b884d8" y="166.078284"/>
      </g>
     </g>
     <g id="text_8">
      <!-- $\mathdefault{175}$ -->
      <g transform="translate(286.890176 181.380464)scale(0.12 -0.12)">
       <use transform="scale(0.996264)" xlink:href="#CMR17-31"/>
       <use transform="translate(45.690477 0)scale(0.996264)" xlink:href="#CMR17-37"/>
       <use transform="translate(91.380954 0)scale(0.996264)" xlink:href="#CMR17-35"/>
      </g>
     </g>
    </g>
    <g id="xtick_9">
     <g id="line2d_17">
      <path clip-path="url(#p4b5c1a4f5c)" d="M 333.715116 166.078284 
L 333.715116 24.269588 
" style="fill:none;stroke:#b0b0b0;stroke-linecap:square;stroke-width:0.8;"/>
     </g>
     <g id="line2d_18">
      <g>
       <use style="stroke:#000000;stroke-width:0.8;" x="333.715116" xlink:href="#m18d8b884d8" y="166.078284"/>
      </g>
     </g>
     <g id="text_9">
      <!-- $\mathdefault{200}$ -->
      <g transform="translate(324.935631 181.380464)scale(0.12 -0.12)">
       <use transform="scale(0.996264)" xlink:href="#CMR17-32"/>
       <use transform="translate(45.690477 0)scale(0.996264)" xlink:href="#CMR17-30"/>
       <use transform="translate(91.380954 0)scale(0.996264)" xlink:href="#CMR17-30"/>
      </g>
     </g>
    </g>
   </g>
   <g id="matplotlib.axis_2">
    <g id="ytick_1">
     <g id="line2d_19">
      <path clip-path="url(#p4b5c1a4f5c)" d="M 29.35148 166.078284 
L 333.715116 166.078284 
" style="fill:none;stroke:#b0b0b0;stroke-linecap:square;stroke-width:0.8;"/>
     </g>
     <g id="line2d_20">
      <defs>
       <path d="M 0 0 
L -3.5 0 
" id="me5a04765c3" style="stroke:#000000;stroke-width:0.8;"/>
      </defs>
      <g>
       <use style="stroke:#000000;stroke-width:0.8;" x="29.35148" xlink:href="#me5a04765c3" y="166.078284"/>
      </g>
     </g>
     <g id="text_10">
      <!-- $\mathdefault{−2}$ -->
      <g transform="translate(7.2 170.229374)scale(0.12 -0.12)">
       <defs>
        <path d="M 4218 1472 
C 4326 1472 4442 1472 4442 1600 
C 4442 1728 4326 1728 4218 1728 
L 755 1728 
C 646 1728 531 1728 531 1600 
C 531 1472 646 1472 755 1472 
L 4218 1472 
z
" id="CMSY10-0" transform="scale(0.015625)"/>
       </defs>
       <use transform="scale(0.996264)" xlink:href="#CMSY10-0"/>
       <use transform="translate(77.487468 0)scale(0.996264)" xlink:href="#CMR17-32"/>
      </g>
     </g>
    </g>
    <g id="ytick_2">
     <g id="line2d_21">
      <path clip-path="url(#p4b5c1a4f5c)" d="M 29.35148 130.62611 
L 333.715116 130.62611 
" style="fill:none;stroke:#b0b0b0;stroke-linecap:square;stroke-width:0.8;"/>
     </g>
     <g id="line2d_22">
      <g>
       <use style="stroke:#000000;stroke-width:0.8;" x="29.35148" xlink:href="#me5a04765c3" y="130.62611"/>
      </g>
     </g>
     <g id="text_11">
      <!-- $\mathdefault{−1}$ -->
      <g transform="translate(7.2 134.7772)scale(0.12 -0.12)">
       <use transform="scale(0.996264)" xlink:href="#CMSY10-0"/>
       <use transform="translate(77.487468 0)scale(0.996264)" xlink:href="#CMR17-31"/>
      </g>
     </g>
    </g>
    <g id="ytick_3">
     <g id="line2d_23">
      <path clip-path="url(#p4b5c1a4f5c)" d="M 29.35148 95.173936 
L 333.715116 95.173936 
" style="fill:none;stroke:#b0b0b0;stroke-linecap:square;stroke-width:0.8;"/>
     </g>
     <g id="line2d_24">
      <g>
       <use style="stroke:#000000;stroke-width:0.8;" x="29.35148" xlink:href="#me5a04765c3" y="95.173936"/>
      </g>
     </g>
     <g id="text_12">
      <!-- $\mathdefault{0}$ -->
      <g transform="translate(16.498489 99.325026)scale(0.12 -0.12)">
       <use transform="scale(0.996264)" xlink:href="#CMR17-30"/>
      </g>
     </g>
    </g>
    <g id="ytick_4">
     <g id="line2d_25">
      <path clip-path="url(#p4b5c1a4f5c)" d="M 29.35148 59.721762 
L 333.715116 59.721762 
" style="fill:none;stroke:#b0b0b0;stroke-linecap:square;stroke-width:0.8;"/>
     </g>
     <g id="line2d_26">
      <g>
       <use style="stroke:#000000;stroke-width:0.8;" x="29.35148" xlink:href="#me5a04765c3" y="59.721762"/>
      </g>
     </g>
     <g id="text_13">
      <!-- $\mathdefault{1}$ -->
      <g transform="translate(16.498489 63.872852)scale(0.12 -0.12)">
       <use transform="scale(0.996264)" xlink:href="#CMR17-31"/>
      </g>
     </g>
    </g>
    <g id="ytick_5">
     <g id="line2d_27">
      <path clip-path="url(#p4b5c1a4f5c)" d="M 29.35148 24.269588 
L 333.715116 24.269588 
" style="fill:none;stroke:#b0b0b0;stroke-linecap:square;stroke-width:0.8;"/>
     </g>
     <g id="line2d_28">
      <g>
       <use style="stroke:#000000;stroke-width:0.8;" x="29.35148" xlink:href="#me5a04765c3" y="24.269588"/>
      </g>
     </g>
     <g id="text_14">
      <!-- $\mathdefault{2}$ -->
      <g transform="translate(16.498489 28.420678)scale(0.12 -0.12)">
       <use transform="scale(0.996264)" xlink:href="#CMR17-32"/>
      </g>
     </g>
    </g>
   </g>
   <g id="line2d_29">
    <path clip-path="url(#p4b5c1a4f5c)" d="M 29.35148 130.62611 
L 103.920571 61.139849 
L 105.442389 130.62611 
L 180.01148 61.139849 
L 181.533298 130.62611 
L 256.102389 61.139849 
L 257.624207 130.62611 
L 332.193298 61.139849 
L 333.715116 130.62611 
L 335.236934 129.208023 
L 335.236934 129.208023 
" style="fill:none;stroke:#1f77b4;stroke-linecap:square;stroke-width:1.5;"/>
   </g>
   <g id="patch_3">
    <path d="M 29.35148 166.078284 
L 29.35148 24.269588 
" style="fill:none;stroke:#000000;stroke-linecap:square;stroke-linejoin:miter;stroke-width:0.8;"/>
   </g>
   <g id="patch_4">
    <path d="M 333.715116 166.078284 
L 333.715116 24.269588 
" style="fill:none;stroke:#000000;stroke-linecap:square;stroke-linejoin:miter;stroke-width:0.8;"/>
   </g>
   <g id="patch_5">
    <path d="M 29.35148 166.078284 
L 333.715116 166.078284 
" style="fill:none;stroke:#000000;stroke-linecap:square;stroke-linejoin:miter;stroke-width:0.8;"/>
   </g>
   <g id="patch_6">
    <path d="M 29.35148 24.269588 
L 333.715116 24.269588 
" style="fill:none;stroke:#000000;stroke-linecap:square;stroke-linejoin:miter;stroke-width:0.8;"/>
   </g>
   <g id="text_15">
    <!-- $x$ -->
    <g transform="translate(177.098573 18.269588)scale(0.16 -0.16)">
     <defs>
      <path d="M 3034 2606 
C 2829 2567 2752 2414 2752 2293 
C 2752 2139 2874 2088 2963 2088 
C 3155 2088 3290 2254 3290 2427 
C 3290 2695 2982 2816 2714 2816 
C 2323 2816 2106 2433 2048 2312 
C 1901 2816 1504 2816 1389 2816 
C 736 2816 390 1980 390 1839 
C 390 1814 416 1782 461 1782 
C 512 1782 525 1820 538 1846 
C 755 2555 1184 2689 1370 2689 
C 1658 2689 1715 2420 1715 2267 
C 1715 2127 1677 1980 1600 1673 
L 1382 798 
C 1286 415 1101 64 762 64 
C 730 64 570 64 435 147 
C 666 192 717 383 717 460 
C 717 588 621 664 499 664 
C 346 664 179 530 179 326 
C 179 57 480 -64 755 -64 
C 1062 -64 1280 179 1414 441 
C 1517 64 1837 -64 2074 -64 
C 2726 -64 3072 773 3072 913 
C 3072 945 3046 971 3008 971 
C 2950 971 2944 939 2925 888 
C 2752 326 2381 64 2093 64 
C 1869 64 1747 230 1747 492 
C 1747 632 1773 734 1875 1156 
L 2099 2024 
C 2195 2408 2413 2689 2707 2689 
C 2720 2689 2899 2689 3034 2606 
z
" id="CMMI12-78" transform="scale(0.015625)"/>
     </defs>
     <use transform="scale(0.996264)" xlink:href="#CMMI12-78"/>
    </g>
   </g>
  </g>
  <g id="axes_2">
   <g id="patch_7">
    <path d="M 394.587843 166.078284 
L 698.95148 166.078284 
L 698.95148 24.269588 
L 394.587843 24.269588 
z
" style="fill:#ffffff;"/>
   </g>
   <g id="matplotlib.axis_3">
    <g id="xtick_10">
     <g id="line2d_30">
      <path clip-path="url(#p4eaca18b51)" d="M 394.587843 166.078284 
L 394.587843 24.269588 
" style="fill:none;stroke:#b0b0b0;stroke-linecap:square;stroke-width:0.8;"/>
     </g>
     <g id="line2d_31">
      <g>
       <use style="stroke:#000000;stroke-width:0.8;" x="394.587843" xlink:href="#m18d8b884d8" y="166.078284"/>
      </g>
     </g>
     <g id="text_16">
      <!-- $\mathdefault{0}$ -->
      <g transform="translate(391.661348 181.380464)scale(0.12 -0.12)">
       <use transform="scale(0.996264)" xlink:href="#CMR17-30"/>
      </g>
     </g>
    </g>
    <g id="xtick_11">
     <g id="line2d_32">
      <path clip-path="url(#p4eaca18b51)" d="M 432.633298 166.078284 
L 432.633298 24.269588 
" style="fill:none;stroke:#b0b0b0;stroke-linecap:square;stroke-width:0.8;"/>
     </g>
     <g id="line2d_33">
      <g>
       <use style="stroke:#000000;stroke-width:0.8;" x="432.633298" xlink:href="#m18d8b884d8" y="166.078284"/>
      </g>
     </g>
     <g id="text_17">
      <!-- $\mathdefault{25}$ -->
      <g transform="translate(426.780308 181.380464)scale(0.12 -0.12)">
       <use transform="scale(0.996264)" xlink:href="#CMR17-32"/>
       <use transform="translate(45.690477 0)scale(0.996264)" xlink:href="#CMR17-35"/>
      </g>
     </g>
    </g>
    <g id="xtick_12">
     <g id="line2d_34">
      <path clip-path="url(#p4eaca18b51)" d="M 470.678752 166.078284 
L 470.678752 24.269588 
" style="fill:none;stroke:#b0b0b0;stroke-linecap:square;stroke-width:0.8;"/>
     </g>
     <g id="line2d_35">
      <g>
       <use style="stroke:#000000;stroke-width:0.8;" x="470.678752" xlink:href="#m18d8b884d8" y="166.078284"/>
      </g>
     </g>
     <g id="text_18">
      <!-- $\mathdefault{50}$ -->
      <g transform="translate(464.825762 181.380464)scale(0.12 -0.12)">
       <use transform="scale(0.996264)" xlink:href="#CMR17-35"/>
       <use transform="translate(45.690477 0)scale(0.996264)" xlink:href="#CMR17-30"/>
      </g>
     </g>
    </g>
    <g id="xtick_13">
     <g id="line2d_36">
      <path clip-path="url(#p4eaca18b51)" d="M 508.724207 166.078284 
L 508.724207 24.269588 
" style="fill:none;stroke:#b0b0b0;stroke-linecap:square;stroke-width:0.8;"/>
     </g>
     <g id="line2d_37">
      <g>
       <use style="stroke:#000000;stroke-width:0.8;" x="508.724207" xlink:href="#m18d8b884d8" y="166.078284"/>
      </g>
     </g>
     <g id="text_19">
      <!-- $\mathdefault{75}$ -->
      <g transform="translate(502.871217 181.380464)scale(0.12 -0.12)">
       <use transform="scale(0.996264)" xlink:href="#CMR17-37"/>
       <use transform="translate(45.690477 0)scale(0.996264)" xlink:href="#CMR17-35"/>
      </g>
     </g>
    </g>
    <g id="xtick_14">
     <g id="line2d_38">
      <path clip-path="url(#p4eaca18b51)" d="M 546.769661 166.078284 
L 546.769661 24.269588 
" style="fill:none;stroke:#b0b0b0;stroke-linecap:square;stroke-width:0.8;"/>
     </g>
     <g id="line2d_39">
      <g>
       <use style="stroke:#000000;stroke-width:0.8;" x="546.769661" xlink:href="#m18d8b884d8" y="166.078284"/>
      </g>
     </g>
     <g id="text_20">
      <!-- $\mathdefault{100}$ -->
      <g transform="translate(537.990176 181.380464)scale(0.12 -0.12)">
       <use transform="scale(0.996264)" xlink:href="#CMR17-31"/>
       <use transform="translate(45.690477 0)scale(0.996264)" xlink:href="#CMR17-30"/>
       <use transform="translate(91.380954 0)scale(0.996264)" xlink:href="#CMR17-30"/>
      </g>
     </g>
    </g>
    <g id="xtick_15">
     <g id="line2d_40">
      <path clip-path="url(#p4eaca18b51)" d="M 584.815116 166.078284 
L 584.815116 24.269588 
" style="fill:none;stroke:#b0b0b0;stroke-linecap:square;stroke-width:0.8;"/>
     </g>
     <g id="line2d_41">
      <g>
       <use style="stroke:#000000;stroke-width:0.8;" x="584.815116" xlink:href="#m18d8b884d8" y="166.078284"/>
      </g>
     </g>
     <g id="text_21">
      <!-- $\mathdefault{125}$ -->
      <g transform="translate(576.035631 181.380464)scale(0.12 -0.12)">
       <use transform="scale(0.996264)" xlink:href="#CMR17-31"/>
       <use transform="translate(45.690477 0)scale(0.996264)" xlink:href="#CMR17-32"/>
       <use transform="translate(91.380954 0)scale(0.996264)" xlink:href="#CMR17-35"/>
      </g>
     </g>
    </g>
    <g id="xtick_16">
     <g id="line2d_42">
      <path clip-path="url(#p4eaca18b51)" d="M 622.860571 166.078284 
L 622.860571 24.269588 
" style="fill:none;stroke:#b0b0b0;stroke-linecap:square;stroke-width:0.8;"/>
     </g>
     <g id="line2d_43">
      <g>
       <use style="stroke:#000000;stroke-width:0.8;" x="622.860571" xlink:href="#m18d8b884d8" y="166.078284"/>
      </g>
     </g>
     <g id="text_22">
      <!-- $\mathdefault{150}$ -->
      <g transform="translate(614.081085 181.380464)scale(0.12 -0.12)">
       <use transform="scale(0.996264)" xlink:href="#CMR17-31"/>
       <use transform="translate(45.690477 0)scale(0.996264)" xlink:href="#CMR17-35"/>
       <use transform="translate(91.380954 0)scale(0.996264)" xlink:href="#CMR17-30"/>
      </g>
     </g>
    </g>
    <g id="xtick_17">
     <g id="line2d_44">
      <path clip-path="url(#p4eaca18b51)" d="M 660.906025 166.078284 
L 660.906025 24.269588 
" style="fill:none;stroke:#b0b0b0;stroke-linecap:square;stroke-width:0.8;"/>
     </g>
     <g id="line2d_45">
      <g>
       <use style="stroke:#000000;stroke-width:0.8;" x="660.906025" xlink:href="#m18d8b884d8" y="166.078284"/>
      </g>
     </g>
     <g id="text_23">
      <!-- $\mathdefault{175}$ -->
      <g transform="translate(652.12654 181.380464)scale(0.12 -0.12)">
       <use transform="scale(0.996264)" xlink:href="#CMR17-31"/>
       <use transform="translate(45.690477 0)scale(0.996264)" xlink:href="#CMR17-37"/>
       <use transform="translate(91.380954 0)scale(0.996264)" xlink:href="#CMR17-35"/>
      </g>
     </g>
    </g>
    <g id="xtick_18">
     <g id="line2d_46">
      <path clip-path="url(#p4eaca18b51)" d="M 698.95148 166.078284 
L 698.95148 24.269588 
" style="fill:none;stroke:#b0b0b0;stroke-linecap:square;stroke-width:0.8;"/>
     </g>
     <g id="line2d_47">
      <g>
       <use style="stroke:#000000;stroke-width:0.8;" x="698.95148" xlink:href="#m18d8b884d8" y="166.078284"/>
      </g>
     </g>
     <g id="text_24">
      <!-- $\mathdefault{200}$ -->
      <g transform="translate(690.171994 181.380464)scale(0.12 -0.12)">
       <use transform="scale(0.996264)" xlink:href="#CMR17-32"/>
       <use transform="translate(45.690477 0)scale(0.996264)" xlink:href="#CMR17-30"/>
       <use transform="translate(91.380954 0)scale(0.996264)" xlink:href="#CMR17-30"/>
      </g>
     </g>
    </g>
   </g>
   <g id="matplotlib.axis_4">
    <g id="ytick_6">
     <g id="line2d_48">
      <path clip-path="url(#p4eaca18b51)" d="M 394.587843 166.078284 
L 698.95148 166.078284 
" style="fill:none;stroke:#b0b0b0;stroke-linecap:square;stroke-width:0.8;"/>
     </g>
     <g id="line2d_49">
      <g>
       <use style="stroke:#000000;stroke-width:0.8;" x="394.587843" xlink:href="#me5a04765c3" y="166.078284"/>
      </g>
     </g>
     <g id="text_25">
      <!-- $\mathdefault{−2}$ -->
      <g transform="translate(372.436364 170.229374)scale(0.12 -0.12)">
       <use transform="scale(0.996264)" xlink:href="#CMSY10-0"/>
       <use transform="translate(77.487468 0)scale(0.996264)" xlink:href="#CMR17-32"/>
      </g>
     </g>
    </g>
    <g id="ytick_7">
     <g id="line2d_50">
      <path clip-path="url(#p4eaca18b51)" d="M 394.587843 130.62611 
L 698.95148 130.62611 
" style="fill:none;stroke:#b0b0b0;stroke-linecap:square;stroke-width:0.8;"/>
     </g>
     <g id="line2d_51">
      <g>
       <use style="stroke:#000000;stroke-width:0.8;" x="394.587843" xlink:href="#me5a04765c3" y="130.62611"/>
      </g>
     </g>
     <g id="text_26">
      <!-- $\mathdefault{−1}$ -->
      <g transform="translate(372.436364 134.7772)scale(0.12 -0.12)">
       <use transform="scale(0.996264)" xlink:href="#CMSY10-0"/>
       <use transform="translate(77.487468 0)scale(0.996264)" xlink:href="#CMR17-31"/>
      </g>
     </g>
    </g>
    <g id="ytick_8">
     <g id="line2d_52">
      <path clip-path="url(#p4eaca18b51)" d="M 394.587843 95.173936 
L 698.95148 95.173936 
" style="fill:none;stroke:#b0b0b0;stroke-linecap:square;stroke-width:0.8;"/>
     </g>
     <g id="line2d_53">
      <g>
       <use style="stroke:#000000;stroke-width:0.8;" x="394.587843" xlink:href="#me5a04765c3" y="95.173936"/>
      </g>
     </g>
     <g id="text_27">
      <!-- $\mathdefault{0}$ -->
      <g transform="translate(381.734853 99.325026)scale(0.12 -0.12)">
       <use transform="scale(0.996264)" xlink:href="#CMR17-30"/>
      </g>
     </g>
    </g>
    <g id="ytick_9">
     <g id="line2d_54">
      <path clip-path="url(#p4eaca18b51)" d="M 394.587843 59.721762 
L 698.95148 59.721762 
" style="fill:none;stroke:#b0b0b0;stroke-linecap:square;stroke-width:0.8;"/>
     </g>
     <g id="line2d_55">
      <g>
       <use style="stroke:#000000;stroke-width:0.8;" x="394.587843" xlink:href="#me5a04765c3" y="59.721762"/>
      </g>
     </g>
     <g id="text_28">
      <!-- $\mathdefault{1}$ -->
      <g transform="translate(381.734853 63.872852)scale(0.12 -0.12)">
       <use transform="scale(0.996264)" xlink:href="#CMR17-31"/>
      </g>
     </g>
    </g>
    <g id="ytick_10">
     <g id="line2d_56">
      <path clip-path="url(#p4eaca18b51)" d="M 394.587843 24.269588 
L 698.95148 24.269588 
" style="fill:none;stroke:#b0b0b0;stroke-linecap:square;stroke-width:0.8;"/>
     </g>
     <g id="line2d_57">
      <g>
       <use style="stroke:#000000;stroke-width:0.8;" x="394.587843" xlink:href="#me5a04765c3" y="24.269588"/>
      </g>
     </g>
     <g id="text_29">
      <!-- $\mathdefault{2}$ -->
      <g transform="translate(381.734853 28.420678)scale(0.12 -0.12)">
       <use transform="scale(0.996264)" xlink:href="#CMR17-32"/>
      </g>
     </g>
    </g>
   </g>
   <g id="line2d_58">
    <path clip-path="url(#p4eaca18b51)" d="M 394.587843 114.978611 
L 396.109661 158.182546 
L 397.63148 121.458101 
L 399.153298 133.75694 
L 400.675116 131.162056 
L 402.196934 155.421129 
L 403.718752 115.09552 
L 405.240571 101.085882 
L 406.762389 154.885333 
L 408.284207 106.749423 
L 409.806025 115.591826 
L 411.327843 113.595301 
L 412.849661 118.711811 
L 414.37148 99.060405 
L 415.893298 108.420578 
L 417.415116 132.744281 
L 418.936934 111.765391 
L 420.458752 130.252185 
L 421.980571 110.059739 
L 423.502389 116.704997 
L 425.024207 98.402454 
L 426.546025 121.441262 
L 428.067843 104.634021 
L 429.589661 112.031035 
L 431.11148 96.581999 
L 432.633298 99.561431 
L 434.155116 112.382108 
L 435.676934 86.361701 
L 437.198752 94.782299 
L 438.720571 117.607743 
L 440.242389 98.403244 
L 441.764207 70.150559 
L 443.286025 106.084268 
L 444.807843 83.879899 
L 446.329661 117.427115 
L 447.85148 83.648307 
L 449.373298 79.030176 
L 450.895116 89.292051 
L 452.416934 85.307246 
L 453.938752 76.223935 
L 455.460571 85.281162 
L 456.982389 69.646389 
L 458.504207 77.148193 
L 460.026025 70.15653 
L 461.547843 74.047606 
L 463.069661 67.156927 
L 464.59148 79.70463 
L 466.113298 74.628961 
L 467.635116 86.291128 
L 469.156934 68.636311 
L 470.678752 125.911466 
L 472.200571 120.390758 
L 473.722389 140.800124 
L 475.244207 126.729206 
L 476.766025 124.781805 
L 478.287843 129.374835 
L 479.809661 111.025214 
L 481.33148 114.537017 
L 482.853298 91.056779 
L 484.375116 132.069459 
L 485.896934 118.506959 
L 487.418752 124.832428 
L 490.462389 150.619552 
L 491.984207 114.852203 
L 493.506025 95.397699 
L 495.027843 87.063327 
L 496.549661 118.680319 
L 498.07148 95.790046 
L 499.593298 82.906628 
L 501.115116 110.447579 
L 502.636934 106.274217 
L 504.158752 109.812361 
L 505.680571 86.737303 
L 507.202389 71.237323 
L 508.724207 115.569276 
L 510.246025 115.816103 
L 511.767843 117.812151 
L 513.289661 106.7718 
L 514.81148 84.682681 
L 516.333298 114.487863 
L 517.855116 58.525658 
L 519.376934 85.234879 
L 520.898752 99.487466 
L 522.420571 46.699469 
L 523.942389 43.618689 
L 525.464207 81.405655 
L 526.986025 78.002881 
L 528.507843 78.566377 
L 530.029661 65.193762 
L 531.55148 85.014097 
L 534.595116 51.661256 
L 536.116934 69.305052 
L 537.638752 82.951392 
L 539.160571 60.767308 
L 540.682389 30.722932 
L 542.204207 65.543348 
L 543.726025 60.9296 
L 545.247843 42.763936 
L 546.769661 101.656046 
L 548.29148 105.9219 
L 549.813298 159.045673 
L 551.335116 124.957682 
L 552.856934 133.716406 
L 554.378752 123.721375 
L 555.900571 110.537884 
L 557.422389 135.644078 
L 558.944207 111.751307 
L 560.466025 90.540917 
L 561.987843 103.674887 
L 563.509661 107.987735 
L 565.03148 103.66287 
L 566.553298 107.358083 
L 568.075116 94.295357 
L 569.596934 100.016177 
L 571.118752 96.990094 
L 572.640571 114.714619 
L 574.162389 81.836571 
L 575.684207 123.324214 
L 577.206025 87.647969 
L 578.727843 119.374889 
L 580.249661 92.186784 
L 581.77148 120.452957 
L 583.293298 102.629383 
L 584.815116 124.325947 
L 586.336934 125.72952 
L 587.858752 98.738215 
L 589.380571 114.636645 
L 590.902389 72.599685 
L 592.424207 71.963796 
L 593.946025 82.432994 
L 595.467843 73.562774 
L 596.989661 74.474393 
L 598.51148 98.915076 
L 600.033298 111.363151 
L 601.555116 74.795598 
L 603.076934 119.466201 
L 604.598752 64.92011 
L 606.120571 60.165473 
L 607.642389 64.803321 
L 609.164207 80.540553 
L 610.686025 68.534876 
L 612.207843 49.533167 
L 613.729661 76.309926 
L 615.25148 34.776563 
L 616.773298 92.659905 
L 618.295116 26.026433 
L 619.816934 30.538266 
L 621.338752 62.001611 
L 622.860571 131.624619 
L 624.382389 134.95276 
L 625.904207 121.129101 
L 627.426025 116.215085 
L 630.469661 125.984854 
L 631.99148 115.554817 
L 633.513298 106.416244 
L 635.035116 94.644555 
L 636.556934 94.771862 
L 638.078752 142.557728 
L 639.600571 122.470367 
L 641.122389 105.022144 
L 642.644207 112.013248 
L 644.166025 90.346114 
L 645.687843 83.031083 
L 647.209661 84.809839 
L 648.73148 114.724903 
L 650.253298 115.46228 
L 651.775116 122.491223 
L 653.296934 117.671272 
L 654.818752 73.284945 
L 656.340571 87.806247 
L 657.862389 116.495295 
L 659.384207 88.550325 
L 660.906025 93.983653 
L 662.427843 92.698062 
L 663.949661 107.038086 
L 665.47148 90.251078 
L 666.993298 63.682675 
L 668.515116 110.470912 
L 670.036934 80.251092 
L 671.558752 78.868857 
L 673.080571 62.900541 
L 674.602389 66.749105 
L 676.124207 56.750805 
L 679.167843 73.517086 
L 680.689661 73.940851 
L 682.21148 86.552943 
L 683.733298 81.786805 
L 685.255116 68.379331 
L 686.776934 56.903773 
L 688.298752 55.779445 
L 689.820571 82.346354 
L 691.342389 61.783816 
L 692.864207 81.955321 
L 694.386025 57.382289 
L 695.907843 67.173757 
L 697.429661 71.992313 
L 698.95148 120.97667 
L 700.473298 143.59548 
L 700.473298 143.59548 
" style="fill:none;stroke:#1f77b4;stroke-linecap:square;stroke-width:1.5;"/>
   </g>
   <g id="patch_8">
    <path d="M 394.587843 166.078284 
L 394.587843 24.269588 
" style="fill:none;stroke:#000000;stroke-linecap:square;stroke-linejoin:miter;stroke-width:0.8;"/>
   </g>
   <g id="patch_9">
    <path d="M 698.95148 166.078284 
L 698.95148 24.269588 
" style="fill:none;stroke:#000000;stroke-linecap:square;stroke-linejoin:miter;stroke-width:0.8;"/>
   </g>
   <g id="patch_10">
    <path d="M 394.587843 166.078284 
L 698.95148 166.078284 
" style="fill:none;stroke:#000000;stroke-linecap:square;stroke-linejoin:miter;stroke-width:0.8;"/>
   </g>
   <g id="patch_11">
    <path d="M 394.587843 24.269588 
L 698.95148 24.269588 
" style="fill:none;stroke:#000000;stroke-linecap:square;stroke-linejoin:miter;stroke-width:0.8;"/>
   </g>
   <g id="text_30">
    <!-- $y$ -->
    <g transform="translate(542.964526 18.269588)scale(0.16 -0.16)">
     <defs>
      <path d="M 1683 -700 
C 1510 -939 1261 -1152 947 -1152 
C 870 -1152 563 -1152 467 -889 
C 486 -895 518 -895 531 -895 
C 723 -895 851 -729 851 -582 
C 851 -435 730 -384 634 -384 
C 531 -384 307 -458 307 -759 
C 307 -1071 582 -1286 947 -1286 
C 1587 -1286 2234 -700 2413 6 
L 3040 2485 
C 3046 2517 3059 2556 3059 2594 
C 3059 2689 2982 2753 2886 2753 
C 2829 2753 2694 2727 2643 2535 
L 2170 658 
C 2138 543 2138 530 2086 460 
C 1958 281 1747 64 1440 64 
C 1082 64 1050 415 1050 588 
C 1050 952 1222 1443 1395 1903 
C 1466 2088 1504 2178 1504 2305 
C 1504 2574 1312 2816 998 2816 
C 410 2816 173 1890 173 1839 
C 173 1814 198 1782 243 1782 
C 301 1782 307 1807 333 1897 
C 486 2433 730 2689 979 2689 
C 1037 2689 1146 2689 1146 2478 
C 1146 2312 1075 2127 979 1884 
C 666 1047 666 837 666 683 
C 666 77 1101 -64 1421 -64 
C 1606 -64 1837 -6 2061 230 
L 2067 224 
C 1971 -147 1907 -392 1683 -700 
z
" id="CMMI12-79" transform="scale(0.015625)"/>
     </defs>
     <use transform="scale(0.996264)" xlink:href="#CMMI12-79"/>
    </g>
   </g>
  </g>
  <g id="axes_3">
   <g id="patch_12">
    <path d="M 29.35148 350.429588 
L 333.715116 350.429588 
L 333.715116 208.620893 
L 29.35148 208.620893 
z
" style="fill:#ffffff;"/>
   </g>
   <g id="matplotlib.axis_5">
    <g id="xtick_19">
     <g id="line2d_59">
      <path clip-path="url(#pf85df11be8)" d="M 29.35148 350.429588 
L 29.35148 208.620893 
" style="fill:none;stroke:#b0b0b0;stroke-linecap:square;stroke-width:0.8;"/>
     </g>
     <g id="line2d_60">
      <g>
       <use style="stroke:#000000;stroke-width:0.8;" x="29.35148" xlink:href="#m18d8b884d8" y="350.429588"/>
      </g>
     </g>
     <g id="text_31">
      <!-- $\mathdefault{0}$ -->
      <g transform="translate(26.424985 365.731768)scale(0.12 -0.12)">
       <use transform="scale(0.996264)" xlink:href="#CMR17-30"/>
      </g>
     </g>
    </g>
    <g id="xtick_20">
     <g id="line2d_61">
      <path clip-path="url(#pf85df11be8)" d="M 67.396934 350.429588 
L 67.396934 208.620893 
" style="fill:none;stroke:#b0b0b0;stroke-linecap:square;stroke-width:0.8;"/>
     </g>
     <g id="line2d_62">
      <g>
       <use style="stroke:#000000;stroke-width:0.8;" x="67.396934" xlink:href="#m18d8b884d8" y="350.429588"/>
      </g>
     </g>
     <g id="text_32">
      <!-- $\mathdefault{25}$ -->
      <g transform="translate(61.543944 365.731768)scale(0.12 -0.12)">
       <use transform="scale(0.996264)" xlink:href="#CMR17-32"/>
       <use transform="translate(45.690477 0)scale(0.996264)" xlink:href="#CMR17-35"/>
      </g>
     </g>
    </g>
    <g id="xtick_21">
     <g id="line2d_63">
      <path clip-path="url(#pf85df11be8)" d="M 105.442389 350.429588 
L 105.442389 208.620893 
" style="fill:none;stroke:#b0b0b0;stroke-linecap:square;stroke-width:0.8;"/>
     </g>
     <g id="line2d_64">
      <g>
       <use style="stroke:#000000;stroke-width:0.8;" x="105.442389" xlink:href="#m18d8b884d8" y="350.429588"/>
      </g>
     </g>
     <g id="text_33">
      <!-- $\mathdefault{50}$ -->
      <g transform="translate(99.589399 365.731768)scale(0.12 -0.12)">
       <use transform="scale(0.996264)" xlink:href="#CMR17-35"/>
       <use transform="translate(45.690477 0)scale(0.996264)" xlink:href="#CMR17-30"/>
      </g>
     </g>
    </g>
    <g id="xtick_22">
     <g id="line2d_65">
      <path clip-path="url(#pf85df11be8)" d="M 143.487843 350.429588 
L 143.487843 208.620893 
" style="fill:none;stroke:#b0b0b0;stroke-linecap:square;stroke-width:0.8;"/>
     </g>
     <g id="line2d_66">
      <g>
       <use style="stroke:#000000;stroke-width:0.8;" x="143.487843" xlink:href="#m18d8b884d8" y="350.429588"/>
      </g>
     </g>
     <g id="text_34">
      <!-- $\mathdefault{75}$ -->
      <g transform="translate(137.634853 365.731768)scale(0.12 -0.12)">
       <use transform="scale(0.996264)" xlink:href="#CMR17-37"/>
       <use transform="translate(45.690477 0)scale(0.996264)" xlink:href="#CMR17-35"/>
      </g>
     </g>
    </g>
    <g id="xtick_23">
     <g id="line2d_67">
      <path clip-path="url(#pf85df11be8)" d="M 181.533298 350.429588 
L 181.533298 208.620893 
" style="fill:none;stroke:#b0b0b0;stroke-linecap:square;stroke-width:0.8;"/>
     </g>
     <g id="line2d_68">
      <g>
       <use style="stroke:#000000;stroke-width:0.8;" x="181.533298" xlink:href="#m18d8b884d8" y="350.429588"/>
      </g>
     </g>
     <g id="text_35">
      <!-- $\mathdefault{100}$ -->
      <g transform="translate(172.753812 365.731768)scale(0.12 -0.12)">
       <use transform="scale(0.996264)" xlink:href="#CMR17-31"/>
       <use transform="translate(45.690477 0)scale(0.996264)" xlink:href="#CMR17-30"/>
       <use transform="translate(91.380954 0)scale(0.996264)" xlink:href="#CMR17-30"/>
      </g>
     </g>
    </g>
    <g id="xtick_24">
     <g id="line2d_69">
      <path clip-path="url(#pf85df11be8)" d="M 219.578752 350.429588 
L 219.578752 208.620893 
" style="fill:none;stroke:#b0b0b0;stroke-linecap:square;stroke-width:0.8;"/>
     </g>
     <g id="line2d_70">
      <g>
       <use style="stroke:#000000;stroke-width:0.8;" x="219.578752" xlink:href="#m18d8b884d8" y="350.429588"/>
      </g>
     </g>
     <g id="text_36">
      <!-- $\mathdefault{125}$ -->
      <g transform="translate(210.799267 365.731768)scale(0.12 -0.12)">
       <use transform="scale(0.996264)" xlink:href="#CMR17-31"/>
       <use transform="translate(45.690477 0)scale(0.996264)" xlink:href="#CMR17-32"/>
       <use transform="translate(91.380954 0)scale(0.996264)" xlink:href="#CMR17-35"/>
      </g>
     </g>
    </g>
    <g id="xtick_25">
     <g id="line2d_71">
      <path clip-path="url(#pf85df11be8)" d="M 257.624207 350.429588 
L 257.624207 208.620893 
" style="fill:none;stroke:#b0b0b0;stroke-linecap:square;stroke-width:0.8;"/>
     </g>
     <g id="line2d_72">
      <g>
       <use style="stroke:#000000;stroke-width:0.8;" x="257.624207" xlink:href="#m18d8b884d8" y="350.429588"/>
      </g>
     </g>
     <g id="text_37">
      <!-- $\mathdefault{150}$ -->
      <g transform="translate(248.844722 365.731768)scale(0.12 -0.12)">
       <use transform="scale(0.996264)" xlink:href="#CMR17-31"/>
       <use transform="translate(45.690477 0)scale(0.996264)" xlink:href="#CMR17-35"/>
       <use transform="translate(91.380954 0)scale(0.996264)" xlink:href="#CMR17-30"/>
      </g>
     </g>
    </g>
    <g id="xtick_26">
     <g id="line2d_73">
      <path clip-path="url(#pf85df11be8)" d="M 295.669661 350.429588 
L 295.669661 208.620893 
" style="fill:none;stroke:#b0b0b0;stroke-linecap:square;stroke-width:0.8;"/>
     </g>
     <g id="line2d_74">
      <g>
       <use style="stroke:#000000;stroke-width:0.8;" x="295.669661" xlink:href="#m18d8b884d8" y="350.429588"/>
      </g>
     </g>
     <g id="text_38">
      <!-- $\mathdefault{175}$ -->
      <g transform="translate(286.890176 365.731768)scale(0.12 -0.12)">
       <use transform="scale(0.996264)" xlink:href="#CMR17-31"/>
       <use transform="translate(45.690477 0)scale(0.996264)" xlink:href="#CMR17-37"/>
       <use transform="translate(91.380954 0)scale(0.996264)" xlink:href="#CMR17-35"/>
      </g>
     </g>
    </g>
    <g id="xtick_27">
     <g id="line2d_75">
      <path clip-path="url(#pf85df11be8)" d="M 333.715116 350.429588 
L 333.715116 208.620893 
" style="fill:none;stroke:#b0b0b0;stroke-linecap:square;stroke-width:0.8;"/>
     </g>
     <g id="line2d_76">
      <g>
       <use style="stroke:#000000;stroke-width:0.8;" x="333.715116" xlink:href="#m18d8b884d8" y="350.429588"/>
      </g>
     </g>
     <g id="text_39">
      <!-- $\mathdefault{200}$ -->
      <g transform="translate(324.935631 365.731768)scale(0.12 -0.12)">
       <use transform="scale(0.996264)" xlink:href="#CMR17-32"/>
       <use transform="translate(45.690477 0)scale(0.996264)" xlink:href="#CMR17-30"/>
       <use transform="translate(91.380954 0)scale(0.996264)" xlink:href="#CMR17-30"/>
      </g>
     </g>
    </g>
   </g>
   <g id="matplotlib.axis_6">
    <g id="ytick_11">
     <g id="line2d_77">
      <path clip-path="url(#pf85df11be8)" d="M 29.35148 350.429588 
L 333.715116 350.429588 
" style="fill:none;stroke:#b0b0b0;stroke-linecap:square;stroke-width:0.8;"/>
     </g>
     <g id="line2d_78">
      <g>
       <use style="stroke:#000000;stroke-width:0.8;" x="29.35148" xlink:href="#me5a04765c3" y="350.429588"/>
      </g>
     </g>
     <g id="text_40">
      <!-- $\mathdefault{−2}$ -->
      <g transform="translate(7.2 354.580678)scale(0.12 -0.12)">
       <use transform="scale(0.996264)" xlink:href="#CMSY10-0"/>
       <use transform="translate(77.487468 0)scale(0.996264)" xlink:href="#CMR17-32"/>
      </g>
     </g>
    </g>
    <g id="ytick_12">
     <g id="line2d_79">
      <path clip-path="url(#pf85df11be8)" d="M 29.35148 314.977414 
L 333.715116 314.977414 
" style="fill:none;stroke:#b0b0b0;stroke-linecap:square;stroke-width:0.8;"/>
     </g>
     <g id="line2d_80">
      <g>
       <use style="stroke:#000000;stroke-width:0.8;" x="29.35148" xlink:href="#me5a04765c3" y="314.977414"/>
      </g>
     </g>
     <g id="text_41">
      <!-- $\mathdefault{−1}$ -->
      <g transform="translate(7.2 319.128504)scale(0.12 -0.12)">
       <use transform="scale(0.996264)" xlink:href="#CMSY10-0"/>
       <use transform="translate(77.487468 0)scale(0.996264)" xlink:href="#CMR17-31"/>
      </g>
     </g>
    </g>
    <g id="ytick_13">
     <g id="line2d_81">
      <path clip-path="url(#pf85df11be8)" d="M 29.35148 279.52524 
L 333.715116 279.52524 
" style="fill:none;stroke:#b0b0b0;stroke-linecap:square;stroke-width:0.8;"/>
     </g>
     <g id="line2d_82">
      <g>
       <use style="stroke:#000000;stroke-width:0.8;" x="29.35148" xlink:href="#me5a04765c3" y="279.52524"/>
      </g>
     </g>
     <g id="text_42">
      <!-- $\mathdefault{0}$ -->
      <g transform="translate(16.498489 283.67633)scale(0.12 -0.12)">
       <use transform="scale(0.996264)" xlink:href="#CMR17-30"/>
      </g>
     </g>
    </g>
    <g id="ytick_14">
     <g id="line2d_83">
      <path clip-path="url(#pf85df11be8)" d="M 29.35148 244.073067 
L 333.715116 244.073067 
" style="fill:none;stroke:#b0b0b0;stroke-linecap:square;stroke-width:0.8;"/>
     </g>
     <g id="line2d_84">
      <g>
       <use style="stroke:#000000;stroke-width:0.8;" x="29.35148" xlink:href="#me5a04765c3" y="244.073067"/>
      </g>
     </g>
     <g id="text_43">
      <!-- $\mathdefault{1}$ -->
      <g transform="translate(16.498489 248.224156)scale(0.12 -0.12)">
       <use transform="scale(0.996264)" xlink:href="#CMR17-31"/>
      </g>
     </g>
    </g>
    <g id="ytick_15">
     <g id="line2d_85">
      <path clip-path="url(#pf85df11be8)" d="M 29.35148 208.620893 
L 333.715116 208.620893 
" style="fill:none;stroke:#b0b0b0;stroke-linecap:square;stroke-width:0.8;"/>
     </g>
     <g id="line2d_86">
      <g>
       <use style="stroke:#000000;stroke-width:0.8;" x="29.35148" xlink:href="#me5a04765c3" y="208.620893"/>
      </g>
     </g>
     <g id="text_44">
      <!-- $\mathdefault{2}$ -->
      <g transform="translate(16.498489 212.771983)scale(0.12 -0.12)">
       <use transform="scale(0.996264)" xlink:href="#CMR17-32"/>
      </g>
     </g>
    </g>
   </g>
   <g id="line2d_87">
    <path clip-path="url(#pf85df11be8)" d="M 29.35148 259.386397 
L 30.873298 272.250402 
L 32.395116 281.874597 
L 33.916934 298.605307 
L 35.438752 303.686379 
L 36.960571 318.621398 
L 38.482389 314.695326 
L 40.004207 306.522769 
L 41.526025 302.653297 
L 43.047843 309.547224 
L 44.569661 299.555181 
L 46.09148 303.222423 
L 47.613298 313.62201 
L 49.135116 310.428299 
L 50.656934 306.257516 
L 52.178752 315.556778 
L 55.222389 291.972169 
L 56.744207 283.685621 
L 58.266025 276.605031 
L 59.787843 271.899425 
L 61.309661 284.96822 
L 62.83148 290.769686 
L 64.353298 295.654228 
L 65.875116 293.480344 
L 67.396934 294.104163 
L 68.918752 282.957473 
L 70.440571 281.237553 
L 71.962389 281.317727 
L 73.484207 286.980913 
L 75.006025 281.273565 
L 76.527843 273.97079 
L 78.049661 270.408828 
L 79.57148 272.206904 
L 81.093298 274.281902 
L 82.615116 272.227195 
L 84.136934 276.532002 
L 85.658752 272.10797 
L 87.180571 271.192879 
L 88.702389 263.436362 
L 90.224207 263.371307 
L 91.746025 257.731902 
L 93.267843 260.321471 
L 94.789661 256.242669 
L 96.31148 247.206294 
L 97.833298 247.768983 
L 99.355116 255.907417 
L 100.876934 253.087287 
L 102.398752 247.433223 
L 103.920571 249.574205 
L 105.442389 249.491381 
L 106.964207 254.967665 
L 108.486025 269.220859 
L 110.007843 293.273397 
L 111.529661 313.891313 
L 113.05148 318.096067 
L 114.573298 318.091409 
L 116.095116 317.057583 
L 117.616934 304.081772 
L 119.138752 305.819781 
L 120.660571 308.983192 
L 122.182389 309.499553 
L 123.704207 301.590891 
L 125.226025 303.605873 
L 126.747843 298.065677 
L 128.269661 299.241122 
L 129.79148 296.355505 
L 131.313298 296.020134 
L 132.835116 294.818647 
L 134.356934 296.061481 
L 135.878752 294.956838 
L 137.400571 296.79489 
L 138.922389 296.055559 
L 140.444207 294.609765 
L 141.966025 287.996339 
L 143.487843 286.385677 
L 145.009661 277.240329 
L 146.53148 277.818528 
L 148.053298 275.427194 
L 149.575116 273.882378 
L 151.096934 267.316652 
L 152.618752 273.641006 
L 154.140571 276.614907 
L 155.662389 276.020023 
L 157.184207 272.247069 
L 158.706025 271.969437 
L 160.227843 274.998599 
L 161.749661 270.812386 
L 163.27148 269.054915 
L 164.793298 271.054782 
L 166.315116 274.897998 
L 167.836934 266.750593 
L 169.358752 265.905181 
L 170.880571 260.540106 
L 172.402389 257.191331 
L 173.924207 242.430411 
L 175.446025 235.534428 
L 176.967843 237.700496 
L 178.489661 238.945624 
L 180.01148 236.970917 
L 181.533298 244.812342 
L 183.055116 264.51303 
L 184.576934 268.20871 
L 186.098752 276.120867 
L 187.620571 287.163582 
L 189.142389 294.538472 
L 190.664207 290.768266 
L 192.186025 294.284316 
L 193.707843 301.336017 
L 195.229661 300.960831 
L 196.75148 308.039554 
L 198.273298 306.886475 
L 199.795116 304.878876 
L 201.316934 305.545663 
L 202.838752 304.018137 
L 204.360571 297.900551 
L 205.882389 297.560806 
L 208.926025 286.774233 
L 210.447843 293.017303 
L 211.969661 291.47187 
L 213.49148 285.845353 
L 215.013298 286.794075 
L 216.535116 283.264043 
L 218.056934 281.677187 
L 219.578752 286.472399 
L 221.100571 286.302846 
L 222.622389 280.894951 
L 224.144207 283.541378 
L 225.666025 275.727707 
L 227.187843 272.52538 
L 228.709661 274.744703 
L 230.23148 287.78093 
L 233.275116 286.276048 
L 236.318752 279.479728 
L 237.840571 277.284939 
L 239.362389 272.334541 
L 240.884207 269.623937 
L 242.406025 272.772005 
L 243.927843 272.058897 
L 245.449661 260.292767 
L 246.97148 257.622526 
L 248.493298 258.421486 
L 250.015116 256.707787 
L 251.536934 254.183564 
L 253.058752 253.280584 
L 254.580571 248.83821 
L 256.102389 245.317231 
L 257.624207 238.305257 
L 259.146025 239.057558 
L 260.667843 250.491839 
L 262.189661 268.594786 
L 263.71148 279.380439 
L 265.233298 295.590684 
L 266.755116 312.993195 
L 268.276934 314.530987 
L 269.798752 317.938062 
L 271.320571 317.934401 
L 272.842389 314.737167 
L 274.364207 312.625263 
L 275.886025 308.896329 
L 277.407843 297.351139 
L 278.929661 297.449768 
L 280.45148 300.854745 
L 281.973298 296.641423 
L 283.495116 296.907407 
L 285.016934 305.99636 
L 286.538752 304.426036 
L 288.060571 294.258653 
L 289.582389 287.022715 
L 291.104207 289.275949 
L 292.626025 285.123978 
L 294.147843 277.59702 
L 295.669661 291.750961 
L 297.19148 289.464409 
L 298.713298 283.206213 
L 300.235116 279.687079 
L 301.756934 284.320448 
L 303.278752 270.261944 
L 304.800571 279.245358 
L 306.322389 278.660332 
L 307.844207 273.678479 
L 309.366025 272.637372 
L 310.887843 273.996653 
L 312.409661 265.413743 
L 313.93148 260.656723 
L 315.453298 260.691697 
L 316.975116 261.831695 
L 318.496934 261.001157 
L 320.018752 267.597438 
L 321.540571 267.82302 
L 323.062389 268.522264 
L 324.584207 265.777449 
L 326.106025 262.446294 
L 327.627843 256.133946 
L 329.149661 254.346116 
L 330.67148 256.11326 
L 332.193298 255.774407 
L 333.715116 259.118724 
L 335.236934 268.578304 
L 335.236934 268.578304 
" style="fill:none;stroke:#1f77b4;stroke-linecap:square;stroke-width:1.5;"/>
   </g>
   <g id="patch_13">
    <path d="M 29.35148 350.429588 
L 29.35148 208.620893 
" style="fill:none;stroke:#000000;stroke-linecap:square;stroke-linejoin:miter;stroke-width:0.8;"/>
   </g>
   <g id="patch_14">
    <path d="M 333.715116 350.429588 
L 333.715116 208.620893 
" style="fill:none;stroke:#000000;stroke-linecap:square;stroke-linejoin:miter;stroke-width:0.8;"/>
   </g>
   <g id="patch_15">
    <path d="M 29.35148 350.429588 
L 333.715116 350.429588 
" style="fill:none;stroke:#000000;stroke-linecap:square;stroke-linejoin:miter;stroke-width:0.8;"/>
   </g>
   <g id="patch_16">
    <path d="M 29.35148 208.620893 
L 333.715116 208.620893 
" style="fill:none;stroke:#000000;stroke-linecap:square;stroke-linejoin:miter;stroke-width:0.8;"/>
   </g>
   <g id="text_45">
    <!-- $z$ ($M=5$) -->
    <g transform="translate(146.099798 202.620893)scale(0.16 -0.16)">
     <defs>
      <path d="M 813 486 
C 1088 803 1312 1004 1632 1296 
C 2016 1632 2182 1793 2272 1891 
C 2720 2338 2944 2713 2944 2764 
C 2944 2816 2893 2816 2880 2816 
C 2835 2816 2822 2793 2790 2750 
C 2630 2494 2477 2367 2310 2367 
C 2176 2367 2106 2421 1984 2565 
C 1850 2715 1741 2816 1555 2816 
C 1088 2816 806 2257 806 2128 
C 806 2108 813 2068 870 2068 
C 922 2068 928 2091 947 2133 
C 1056 2372 1363 2414 1485 2414 
C 1619 2414 1747 2376 1882 2327 
C 2125 2240 2227 2240 2291 2240 
C 2336 2240 2362 2240 2394 2246 
C 2182 1994 1837 1683 1549 1418 
L 902 816 
C 512 415 275 33 275 -12 
C 275 -51 307 -64 346 -64 
C 384 -64 390 -57 435 14 
C 538 163 742 384 979 384 
C 1114 384 1178 342 1306 193 
C 1427 61 1536 -64 1741 -64 
C 2368 -64 2726 732 2726 876 
C 2726 903 2720 942 2656 942 
C 2605 942 2598 917 2579 855 
C 2438 488 2061 338 1811 338 
C 1677 338 1549 376 1414 425 
C 1158 512 1088 512 1005 512 
C 941 512 870 512 813 486 
z
" id="CMMI12-7a" transform="scale(0.015625)"/>
      <path d="M 1958 -1561 
C 1958 -1555 1958 -1542 1939 -1523 
C 1645 -1224 858 -407 858 1581 
C 858 3569 1632 4379 1946 4697 
C 1946 4704 1958 4717 1958 4736 
C 1958 4755 1939 4768 1914 4768 
C 1843 4768 1299 4296 986 3594 
C 666 2887 576 2199 576 1588 
C 576 1128 621 351 1005 -471 
C 1312 -1135 1837 -1600 1914 -1600 
C 1946 -1600 1958 -1587 1958 -1561 
z
" id="CMR17-28" transform="scale(0.015625)"/>
      <path d="M 5811 3886 
C 5869 4103 5882 4167 6336 4167 
C 6458 4167 6515 4167 6515 4288 
C 6515 4352 6470 4352 6349 4352 
L 5581 4352 
C 5421 4352 5414 4346 5344 4243 
L 3008 562 
L 2528 4211 
C 2509 4352 2502 4352 2336 4352 
L 1542 4352 
C 1421 4352 1363 4352 1363 4231 
C 1363 4167 1421 4167 1517 4167 
C 1907 4167 1907 4116 1907 4046 
C 1907 4034 1907 3995 1882 3899 
L 1062 634 
C 986 327 838 186 410 186 
C 390 186 314 186 314 73 
C 314 0 371 0 397 0 
C 525 0 851 0 979 0 
L 1286 0 
C 1376 0 1485 0 1574 0 
C 1619 0 1690 0 1690 122 
C 1690 180 1626 186 1600 186 
C 1389 186 1184 224 1184 454 
C 1184 518 1184 524 1210 613 
L 2093 4129 
L 2099 4129 
L 2630 172 
C 2650 19 2656 0 2714 0 
C 2784 0 2816 51 2848 109 
L 5421 4161 
L 5427 4161 
L 4499 473 
C 4442 250 4429 186 3981 186 
C 3859 186 3795 186 3795 70 
C 3795 0 3853 0 3891 0 
C 4000 0 4128 0 4237 0 
L 4992 0 
C 5101 0 5235 0 5344 0 
C 5395 0 5466 0 5466 122 
C 5466 186 5408 186 5312 186 
C 4922 186 4922 234 4922 294 
C 4922 301 4922 345 4934 396 
L 5811 3886 
z
" id="CMMI12-4d" transform="scale(0.015625)"/>
      <path d="M 4115 2017 
C 4211 2017 4307 2017 4307 2125 
C 4307 2240 4198 2240 4090 2240 
L 512 2240 
C 403 2240 294 2240 294 2125 
C 294 2017 390 2017 486 2017 
L 4115 2017 
z
M 4090 896 
C 4198 896 4307 896 4307 1011 
C 4307 1119 4211 1119 4115 1119 
L 486 1119 
C 390 1119 294 1119 294 1011 
C 294 896 403 896 512 896 
L 4090 896 
z
" id="CMR17-3d" transform="scale(0.015625)"/>
      <path d="M 1683 1581 
C 1683 2040 1638 2817 1254 3639 
C 947 4303 422 4768 346 4768 
C 326 4768 301 4761 301 4729 
C 301 4717 307 4710 314 4697 
C 621 4378 1402 3568 1402 1584 
C 1402 -407 627 -1217 314 -1537 
C 307 -1549 301 -1556 301 -1568 
C 301 -1600 326 -1600 346 -1600 
C 416 -1600 960 -1128 1274 -426 
C 1594 281 1683 969 1683 1581 
z
" id="CMR17-29" transform="scale(0.015625)"/>
     </defs>
     <use transform="scale(0.996264)" xlink:href="#CMMI12-7a"/>
     <use transform="translate(79.831111 0)scale(0.996264)" xlink:href="#CMR17-28"/>
     <use transform="translate(115.111879 0)scale(0.996264)" xlink:href="#CMMI12-4d"/>
     <use transform="translate(247.565967 0)scale(0.996264)" xlink:href="#CMR17-3d"/>
     <use transform="translate(346.954764 0)scale(0.996264)" xlink:href="#CMR17-35"/>
     <use transform="translate(392.645241 0)scale(0.996264)" xlink:href="#CMR17-29"/>
    </g>
   </g>
  </g>
  <g id="axes_4">
   <g id="patch_17">
    <path d="M 394.587843 350.429588 
L 698.95148 350.429588 
L 698.95148 208.620893 
L 394.587843 208.620893 
z
" style="fill:#ffffff;"/>
   </g>
   <g id="matplotlib.axis_7">
    <g id="xtick_28">
     <g id="line2d_88">
      <path clip-path="url(#p82bb9cba7d)" d="M 394.587843 350.429588 
L 394.587843 208.620893 
" style="fill:none;stroke:#b0b0b0;stroke-linecap:square;stroke-width:0.8;"/>
     </g>
     <g id="line2d_89">
      <g>
       <use style="stroke:#000000;stroke-width:0.8;" x="394.587843" xlink:href="#m18d8b884d8" y="350.429588"/>
      </g>
     </g>
     <g id="text_46">
      <!-- $\mathdefault{0}$ -->
      <g transform="translate(391.661348 365.731768)scale(0.12 -0.12)">
       <use transform="scale(0.996264)" xlink:href="#CMR17-30"/>
      </g>
     </g>
    </g>
    <g id="xtick_29">
     <g id="line2d_90">
      <path clip-path="url(#p82bb9cba7d)" d="M 432.633298 350.429588 
L 432.633298 208.620893 
" style="fill:none;stroke:#b0b0b0;stroke-linecap:square;stroke-width:0.8;"/>
     </g>
     <g id="line2d_91">
      <g>
       <use style="stroke:#000000;stroke-width:0.8;" x="432.633298" xlink:href="#m18d8b884d8" y="350.429588"/>
      </g>
     </g>
     <g id="text_47">
      <!-- $\mathdefault{25}$ -->
      <g transform="translate(426.780308 365.731768)scale(0.12 -0.12)">
       <use transform="scale(0.996264)" xlink:href="#CMR17-32"/>
       <use transform="translate(45.690477 0)scale(0.996264)" xlink:href="#CMR17-35"/>
      </g>
     </g>
    </g>
    <g id="xtick_30">
     <g id="line2d_92">
      <path clip-path="url(#p82bb9cba7d)" d="M 470.678752 350.429588 
L 470.678752 208.620893 
" style="fill:none;stroke:#b0b0b0;stroke-linecap:square;stroke-width:0.8;"/>
     </g>
     <g id="line2d_93">
      <g>
       <use style="stroke:#000000;stroke-width:0.8;" x="470.678752" xlink:href="#m18d8b884d8" y="350.429588"/>
      </g>
     </g>
     <g id="text_48">
      <!-- $\mathdefault{50}$ -->
      <g transform="translate(464.825762 365.731768)scale(0.12 -0.12)">
       <use transform="scale(0.996264)" xlink:href="#CMR17-35"/>
       <use transform="translate(45.690477 0)scale(0.996264)" xlink:href="#CMR17-30"/>
      </g>
     </g>
    </g>
    <g id="xtick_31">
     <g id="line2d_94">
      <path clip-path="url(#p82bb9cba7d)" d="M 508.724207 350.429588 
L 508.724207 208.620893 
" style="fill:none;stroke:#b0b0b0;stroke-linecap:square;stroke-width:0.8;"/>
     </g>
     <g id="line2d_95">
      <g>
       <use style="stroke:#000000;stroke-width:0.8;" x="508.724207" xlink:href="#m18d8b884d8" y="350.429588"/>
      </g>
     </g>
     <g id="text_49">
      <!-- $\mathdefault{75}$ -->
      <g transform="translate(502.871217 365.731768)scale(0.12 -0.12)">
       <use transform="scale(0.996264)" xlink:href="#CMR17-37"/>
       <use transform="translate(45.690477 0)scale(0.996264)" xlink:href="#CMR17-35"/>
      </g>
     </g>
    </g>
    <g id="xtick_32">
     <g id="line2d_96">
      <path clip-path="url(#p82bb9cba7d)" d="M 546.769661 350.429588 
L 546.769661 208.620893 
" style="fill:none;stroke:#b0b0b0;stroke-linecap:square;stroke-width:0.8;"/>
     </g>
     <g id="line2d_97">
      <g>
       <use style="stroke:#000000;stroke-width:0.8;" x="546.769661" xlink:href="#m18d8b884d8" y="350.429588"/>
      </g>
     </g>
     <g id="text_50">
      <!-- $\mathdefault{100}$ -->
      <g transform="translate(537.990176 365.731768)scale(0.12 -0.12)">
       <use transform="scale(0.996264)" xlink:href="#CMR17-31"/>
       <use transform="translate(45.690477 0)scale(0.996264)" xlink:href="#CMR17-30"/>
       <use transform="translate(91.380954 0)scale(0.996264)" xlink:href="#CMR17-30"/>
      </g>
     </g>
    </g>
    <g id="xtick_33">
     <g id="line2d_98">
      <path clip-path="url(#p82bb9cba7d)" d="M 584.815116 350.429588 
L 584.815116 208.620893 
" style="fill:none;stroke:#b0b0b0;stroke-linecap:square;stroke-width:0.8;"/>
     </g>
     <g id="line2d_99">
      <g>
       <use style="stroke:#000000;stroke-width:0.8;" x="584.815116" xlink:href="#m18d8b884d8" y="350.429588"/>
      </g>
     </g>
     <g id="text_51">
      <!-- $\mathdefault{125}$ -->
      <g transform="translate(576.035631 365.731768)scale(0.12 -0.12)">
       <use transform="scale(0.996264)" xlink:href="#CMR17-31"/>
       <use transform="translate(45.690477 0)scale(0.996264)" xlink:href="#CMR17-32"/>
       <use transform="translate(91.380954 0)scale(0.996264)" xlink:href="#CMR17-35"/>
      </g>
     </g>
    </g>
    <g id="xtick_34">
     <g id="line2d_100">
      <path clip-path="url(#p82bb9cba7d)" d="M 622.860571 350.429588 
L 622.860571 208.620893 
" style="fill:none;stroke:#b0b0b0;stroke-linecap:square;stroke-width:0.8;"/>
     </g>
     <g id="line2d_101">
      <g>
       <use style="stroke:#000000;stroke-width:0.8;" x="622.860571" xlink:href="#m18d8b884d8" y="350.429588"/>
      </g>
     </g>
     <g id="text_52">
      <!-- $\mathdefault{150}$ -->
      <g transform="translate(614.081085 365.731768)scale(0.12 -0.12)">
       <use transform="scale(0.996264)" xlink:href="#CMR17-31"/>
       <use transform="translate(45.690477 0)scale(0.996264)" xlink:href="#CMR17-35"/>
       <use transform="translate(91.380954 0)scale(0.996264)" xlink:href="#CMR17-30"/>
      </g>
     </g>
    </g>
    <g id="xtick_35">
     <g id="line2d_102">
      <path clip-path="url(#p82bb9cba7d)" d="M 660.906025 350.429588 
L 660.906025 208.620893 
" style="fill:none;stroke:#b0b0b0;stroke-linecap:square;stroke-width:0.8;"/>
     </g>
     <g id="line2d_103">
      <g>
       <use style="stroke:#000000;stroke-width:0.8;" x="660.906025" xlink:href="#m18d8b884d8" y="350.429588"/>
      </g>
     </g>
     <g id="text_53">
      <!-- $\mathdefault{175}$ -->
      <g transform="translate(652.12654 365.731768)scale(0.12 -0.12)">
       <use transform="scale(0.996264)" xlink:href="#CMR17-31"/>
       <use transform="translate(45.690477 0)scale(0.996264)" xlink:href="#CMR17-37"/>
       <use transform="translate(91.380954 0)scale(0.996264)" xlink:href="#CMR17-35"/>
      </g>
     </g>
    </g>
    <g id="xtick_36">
     <g id="line2d_104">
      <path clip-path="url(#p82bb9cba7d)" d="M 698.95148 350.429588 
L 698.95148 208.620893 
" style="fill:none;stroke:#b0b0b0;stroke-linecap:square;stroke-width:0.8;"/>
     </g>
     <g id="line2d_105">
      <g>
       <use style="stroke:#000000;stroke-width:0.8;" x="698.95148" xlink:href="#m18d8b884d8" y="350.429588"/>
      </g>
     </g>
     <g id="text_54">
      <!-- $\mathdefault{200}$ -->
      <g transform="translate(690.171994 365.731768)scale(0.12 -0.12)">
       <use transform="scale(0.996264)" xlink:href="#CMR17-32"/>
       <use transform="translate(45.690477 0)scale(0.996264)" xlink:href="#CMR17-30"/>
       <use transform="translate(91.380954 0)scale(0.996264)" xlink:href="#CMR17-30"/>
      </g>
     </g>
    </g>
   </g>
   <g id="matplotlib.axis_8">
    <g id="ytick_16">
     <g id="line2d_106">
      <path clip-path="url(#p82bb9cba7d)" d="M 394.587843 350.429588 
L 698.95148 350.429588 
" style="fill:none;stroke:#b0b0b0;stroke-linecap:square;stroke-width:0.8;"/>
     </g>
     <g id="line2d_107">
      <g>
       <use style="stroke:#000000;stroke-width:0.8;" x="394.587843" xlink:href="#me5a04765c3" y="350.429588"/>
      </g>
     </g>
     <g id="text_55">
      <!-- $\mathdefault{−2}$ -->
      <g transform="translate(372.436364 354.580678)scale(0.12 -0.12)">
       <use transform="scale(0.996264)" xlink:href="#CMSY10-0"/>
       <use transform="translate(77.487468 0)scale(0.996264)" xlink:href="#CMR17-32"/>
      </g>
     </g>
    </g>
    <g id="ytick_17">
     <g id="line2d_108">
      <path clip-path="url(#p82bb9cba7d)" d="M 394.587843 314.977414 
L 698.95148 314.977414 
" style="fill:none;stroke:#b0b0b0;stroke-linecap:square;stroke-width:0.8;"/>
     </g>
     <g id="line2d_109">
      <g>
       <use style="stroke:#000000;stroke-width:0.8;" x="394.587843" xlink:href="#me5a04765c3" y="314.977414"/>
      </g>
     </g>
     <g id="text_56">
      <!-- $\mathdefault{−1}$ -->
      <g transform="translate(372.436364 319.128504)scale(0.12 -0.12)">
       <use transform="scale(0.996264)" xlink:href="#CMSY10-0"/>
       <use transform="translate(77.487468 0)scale(0.996264)" xlink:href="#CMR17-31"/>
      </g>
     </g>
    </g>
    <g id="ytick_18">
     <g id="line2d_110">
      <path clip-path="url(#p82bb9cba7d)" d="M 394.587843 279.52524 
L 698.95148 279.52524 
" style="fill:none;stroke:#b0b0b0;stroke-linecap:square;stroke-width:0.8;"/>
     </g>
     <g id="line2d_111">
      <g>
       <use style="stroke:#000000;stroke-width:0.8;" x="394.587843" xlink:href="#me5a04765c3" y="279.52524"/>
      </g>
     </g>
     <g id="text_57">
      <!-- $\mathdefault{0}$ -->
      <g transform="translate(381.734853 283.67633)scale(0.12 -0.12)">
       <use transform="scale(0.996264)" xlink:href="#CMR17-30"/>
      </g>
     </g>
    </g>
    <g id="ytick_19">
     <g id="line2d_112">
      <path clip-path="url(#p82bb9cba7d)" d="M 394.587843 244.073067 
L 698.95148 244.073067 
" style="fill:none;stroke:#b0b0b0;stroke-linecap:square;stroke-width:0.8;"/>
     </g>
     <g id="line2d_113">
      <g>
       <use style="stroke:#000000;stroke-width:0.8;" x="394.587843" xlink:href="#me5a04765c3" y="244.073067"/>
      </g>
     </g>
     <g id="text_58">
      <!-- $\mathdefault{1}$ -->
      <g transform="translate(381.734853 248.224156)scale(0.12 -0.12)">
       <use transform="scale(0.996264)" xlink:href="#CMR17-31"/>
      </g>
     </g>
    </g>
    <g id="ytick_20">
     <g id="line2d_114">
      <path clip-path="url(#p82bb9cba7d)" d="M 394.587843 208.620893 
L 698.95148 208.620893 
" style="fill:none;stroke:#b0b0b0;stroke-linecap:square;stroke-width:0.8;"/>
     </g>
     <g id="line2d_115">
      <g>
       <use style="stroke:#000000;stroke-width:0.8;" x="394.587843" xlink:href="#me5a04765c3" y="208.620893"/>
      </g>
     </g>
     <g id="text_59">
      <!-- $\mathdefault{2}$ -->
      <g transform="translate(381.734853 212.771983)scale(0.12 -0.12)">
       <use transform="scale(0.996264)" xlink:href="#CMR17-32"/>
      </g>
     </g>
    </g>
   </g>
   <g id="line2d_116">
    <path clip-path="url(#p82bb9cba7d)" d="M 394.587843 267.61687 
L 396.109661 272.583872 
L 397.63148 274.125751 
L 399.153298 277.91174 
L 400.675116 278.420484 
L 402.196934 280.5297 
L 403.718752 284.228689 
L 406.762389 288.535283 
L 408.284207 294.338536 
L 409.806025 292.520992 
L 412.849661 300.673125 
L 414.37148 303.895634 
L 415.893298 306.49704 
L 417.415116 311.244453 
L 418.936934 307.089397 
L 420.458752 304.038983 
L 421.980571 298.922406 
L 423.502389 297.469924 
L 425.024207 295.670461 
L 428.067843 298.787955 
L 429.589661 296.589383 
L 431.11148 292.114297 
L 432.633298 293.853456 
L 434.155116 290.425378 
L 435.676934 287.993136 
L 438.720571 285.688763 
L 440.242389 282.425718 
L 441.764207 280.632161 
L 443.286025 280.805356 
L 444.807843 283.05962 
L 446.329661 284.914387 
L 447.85148 282.534974 
L 449.373298 277.820088 
L 450.895116 274.584784 
L 452.416934 274.905837 
L 453.938752 274.899726 
L 455.460571 272.290689 
L 456.982389 269.411565 
L 458.504207 267.612756 
L 460.026025 266.547484 
L 461.547843 261.641519 
L 463.069661 261.122495 
L 464.59148 263.39044 
L 466.113298 261.838909 
L 467.635116 258.28959 
L 469.156934 253.40562 
L 470.678752 253.54389 
L 472.200571 256.202328 
L 476.766025 270.223937 
L 478.287843 271.785477 
L 479.809661 276.322164 
L 481.33148 279.788576 
L 482.853298 281.596131 
L 484.375116 289.761766 
L 485.896934 292.190213 
L 487.418752 294.186209 
L 488.940571 295.956444 
L 490.462389 300.320347 
L 491.984207 305.92559 
L 493.506025 308.77346 
L 495.027843 307.982156 
L 496.549661 304.889536 
L 498.07148 300.835431 
L 499.593298 299.982313 
L 501.115116 301.060384 
L 502.636934 300.883316 
L 504.158752 297.888861 
L 505.680571 297.678095 
L 507.202389 294.041166 
L 508.724207 293.527879 
L 510.246025 290.130241 
L 511.767843 289.96474 
L 513.289661 288.285202 
L 514.81148 285.980066 
L 516.333298 282.886389 
L 517.855116 282.558742 
L 519.376934 283.496331 
L 520.898752 282.018994 
L 522.420571 278.041929 
L 523.942389 275.223922 
L 525.464207 275.293311 
L 526.986025 275.08194 
L 528.507843 273.50071 
L 531.55148 271.394695 
L 533.073298 271.796733 
L 534.595116 271.110825 
L 536.116934 268.538348 
L 537.638752 266.831061 
L 540.682389 259.09454 
L 542.204207 258.139354 
L 543.726025 256.180215 
L 546.769661 254.046917 
L 549.813298 257.271462 
L 551.335116 258.535532 
L 552.856934 260.441944 
L 554.378752 260.593742 
L 557.422389 266.731174 
L 558.944207 272.134169 
L 560.466025 275.031777 
L 561.987843 282.463456 
L 563.509661 287.389257 
L 565.03148 289.123967 
L 566.553298 294.334182 
L 568.075116 297.38085 
L 569.596934 300.159526 
L 571.118752 298.405182 
L 572.640571 297.10523 
L 574.162389 297.885304 
L 575.684207 299.332091 
L 577.206025 299.137325 
L 578.727843 296.764211 
L 580.249661 294.608483 
L 581.77148 291.861313 
L 583.293298 292.904209 
L 584.815116 291.948273 
L 586.336934 289.903002 
L 587.858752 286.613841 
L 589.380571 284.526551 
L 590.902389 283.474066 
L 592.424207 283.489883 
L 593.946025 282.297634 
L 595.467843 285.156652 
L 596.989661 284.607826 
L 598.51148 281.226981 
L 600.033298 280.638265 
L 601.555116 280.175759 
L 603.076934 281.98694 
L 604.598752 280.964659 
L 606.120571 277.209231 
L 607.642389 276.071467 
L 609.164207 275.427776 
L 610.686025 275.119546 
L 612.207843 272.325041 
L 613.729661 271.44049 
L 615.25148 270.798936 
L 616.773298 268.574063 
L 618.295116 263.61943 
L 619.816934 259.598426 
L 622.860571 255.92835 
L 624.382389 255.100006 
L 625.904207 254.688397 
L 627.426025 258.351841 
L 630.469661 263.534576 
L 631.99148 268.744772 
L 633.513298 272.767803 
L 635.035116 278.457019 
L 636.556934 280.877357 
L 638.078752 282.877703 
L 639.600571 288.225339 
L 642.644207 294.627996 
L 644.166025 298.254869 
L 645.687843 303.727532 
L 647.209661 307.41996 
L 648.73148 306.778241 
L 650.253298 307.095187 
L 651.775116 306.603402 
L 653.296934 303.283522 
L 654.818752 298.763134 
L 656.340571 298.359895 
L 657.862389 296.157159 
L 659.384207 293.157608 
L 660.906025 295.621453 
L 662.427843 291.042849 
L 663.949661 289.796523 
L 665.47148 290.269139 
L 666.993298 288.781168 
L 668.515116 285.423853 
L 670.036934 285.244161 
L 671.558752 283.714165 
L 673.080571 279.496512 
L 674.602389 278.184947 
L 676.124207 278.669853 
L 677.646025 278.04117 
L 679.167843 274.174423 
L 680.689661 271.352418 
L 682.21148 272.929839 
L 683.733298 268.419918 
L 685.255116 270.752179 
L 686.776934 269.046692 
L 688.298752 267.630813 
L 691.342389 265.814701 
L 692.864207 263.048375 
L 694.386025 260.941953 
L 695.907843 261.77574 
L 697.429661 261.12785 
L 698.95148 260.855392 
L 700.473298 264.103229 
L 700.473298 264.103229 
" style="fill:none;stroke:#1f77b4;stroke-linecap:square;stroke-width:1.5;"/>
   </g>
   <g id="patch_18">
    <path d="M 394.587843 350.429588 
L 394.587843 208.620893 
" style="fill:none;stroke:#000000;stroke-linecap:square;stroke-linejoin:miter;stroke-width:0.8;"/>
   </g>
   <g id="patch_19">
    <path d="M 698.95148 350.429588 
L 698.95148 208.620893 
" style="fill:none;stroke:#000000;stroke-linecap:square;stroke-linejoin:miter;stroke-width:0.8;"/>
   </g>
   <g id="patch_20">
    <path d="M 394.587843 350.429588 
L 698.95148 350.429588 
" style="fill:none;stroke:#000000;stroke-linecap:square;stroke-linejoin:miter;stroke-width:0.8;"/>
   </g>
   <g id="patch_21">
    <path d="M 394.587843 208.620893 
L 698.95148 208.620893 
" style="fill:none;stroke:#000000;stroke-linecap:square;stroke-linejoin:miter;stroke-width:0.8;"/>
   </g>
   <g id="text_60">
    <!-- $z$ ($M=15$) -->
    <g transform="translate(507.434168 202.620893)scale(0.16 -0.16)">
     <use transform="scale(0.996264)" xlink:href="#CMMI12-7a"/>
     <use transform="translate(79.831111 0)scale(0.996264)" xlink:href="#CMR17-28"/>
     <use transform="translate(115.111879 0)scale(0.996264)" xlink:href="#CMMI12-4d"/>
     <use transform="translate(247.565967 0)scale(0.996264)" xlink:href="#CMR17-3d"/>
     <use transform="translate(346.954764 0)scale(0.996264)" xlink:href="#CMR17-31"/>
     <use transform="translate(392.645241 0)scale(0.996264)" xlink:href="#CMR17-35"/>
     <use transform="translate(438.335718 0)scale(0.996264)" xlink:href="#CMR17-29"/>
    </g>
   </g>
  </g>
 </g>
 <defs>
  <clipPath id="p4b5c1a4f5c">
   <rect height="141.808696" width="304.363636" x="29.35148" y="24.269588"/>
  </clipPath>
  <clipPath id="p4eaca18b51">
   <rect height="141.808696" width="304.363636" x="394.587843" y="24.269588"/>
  </clipPath>
  <clipPath id="pf85df11be8">
   <rect height="141.808696" width="304.363636" x="29.35148" y="208.620893"/>
  </clipPath>
  <clipPath id="p82bb9cba7d">
   <rect height="141.808696" width="304.363636" x="394.587843" y="208.620893"/>
  </clipPath>
 </defs>
</svg>
