<?xml version="1.0" encoding="utf-8" standalone="no"?>
<!DOCTYPE svg PUBLIC "-//W3C//DTD SVG 1.1//EN"
  "http://www.w3.org/Graphics/SVG/1.1/DTD/svg11.dtd">
<svg height="483.976364pt" version="1.1" viewBox="0 0 706.220221 483.976364" width="706.220221pt" xmlns="http://www.w3.org/2000/svg" xmlns:xlink="http://www.w3.org/1999/xlink">
 <metadata>
  <rdf:RDF xmlns:cc="http://creativecommons.org/ns#" xmlns:dc="http://purl.org/dc/elements/1.1/" xmlns:rdf="http://www.w3.org/1999/02/22-rdf-syntax-ns#">
   <cc:Work>
    <dc:type rdf:resource="http://purl.org/dc/dcmitype/StillImage"/>
    <dc:date>2024-10-04T16:04:04.300218</dc:date>
    <dc:format>image/svg+xml</dc:format>
    <dc:creator>
     <cc:Agent>
      <dc:title>Matplotlib v3.4.3, https://matplotlib.org/</dc:title>
     </cc:Agent>
    </dc:creator>
   </cc:Work>
  </rdf:RDF>
 </metadata>
 <defs>
  <style type="text/css">*{stroke-linecap:butt;stroke-linejoin:round;}</style>
 </defs>
 <g id="figure_1">
  <g id="patch_1">
   <path d="M 0 483.976364 
L 706.220221 483.976364 
L 706.220221 0 
L 0 0 
z
" style="fill:none;"/>
  </g>
  <g id="axes_1">
   <g id="patch_2">
    <path d="M 29.35148 145.069588 
L 333.715116 145.069588 
L 333.715116 24.269588 
L 29.35148 24.269588 
z
" style="fill:#ffffff;"/>
   </g>
   <g id="matplotlib.axis_1">
    <g id="xtick_1">
     <g id="line2d_1">
      <path clip-path="url(#p4e0a5b947e)" d="M 43.18619 145.069588 
L 43.18619 24.269588 
" style="fill:none;stroke:#b0b0b0;stroke-linecap:square;stroke-width:0.5;"/>
     </g>
     <g id="line2d_2">
      <defs>
       <path d="M 0 0 
L 0 3.5 
" id="md870316a7d" style="stroke:#000000;stroke-width:0.8;"/>
      </defs>
      <g>
       <use style="stroke:#000000;stroke-width:0.8;" x="43.18619" xlink:href="#md870316a7d" y="145.069588"/>
      </g>
     </g>
     <g id="text_1">
      <!-- $\mathdefault{0}$ -->
      <g transform="translate(40.259695 160.371768)scale(0.12 -0.12)">
       <defs>
        <path d="M 2688 2038 
C 2688 2430 2682 3099 2413 3613 
C 2176 4063 1798 4224 1466 4224 
C 1158 4224 768 4082 525 3620 
C 269 3137 243 2539 243 2038 
C 243 1671 250 1112 448 623 
C 723 -39 1216 -128 1466 -128 
C 1760 -128 2208 -7 2470 604 
C 2662 1048 2688 1568 2688 2038 
z
M 1466 -26 
C 1056 -26 813 328 723 816 
C 653 1196 653 1749 653 2109 
C 653 2604 653 3015 736 3407 
C 858 3954 1216 4121 1466 4121 
C 1728 4121 2067 3947 2189 3420 
C 2272 3054 2278 2623 2278 2109 
C 2278 1691 2278 1176 2202 797 
C 2067 96 1690 -26 1466 -26 
z
" id="CMR17-30" transform="scale(0.015625)"/>
       </defs>
       <use transform="scale(0.996264)" xlink:href="#CMR17-30"/>
      </g>
     </g>
    </g>
    <g id="xtick_2">
     <g id="line2d_3">
      <path clip-path="url(#p4e0a5b947e)" d="M 99.084012 145.069588 
L 99.084012 24.269588 
" style="fill:none;stroke:#b0b0b0;stroke-linecap:square;stroke-width:0.5;"/>
     </g>
     <g id="line2d_4">
      <g>
       <use style="stroke:#000000;stroke-width:0.8;" x="99.084012" xlink:href="#md870316a7d" y="145.069588"/>
      </g>
     </g>
     <g id="text_2">
      <!-- $\mathdefault{20}$ -->
      <g transform="translate(93.231021 160.371768)scale(0.12 -0.12)">
       <defs>
        <path d="M 2669 990 
L 2554 990 
C 2490 537 2438 460 2413 422 
C 2381 371 1920 371 1830 371 
L 602 371 
C 832 620 1280 1073 1824 1596 
C 2214 1966 2669 2400 2669 3033 
C 2669 3788 2067 4224 1395 4224 
C 691 4224 262 3603 262 3027 
C 262 2777 448 2745 525 2745 
C 589 2745 781 2783 781 3007 
C 781 3206 614 3264 525 3264 
C 486 3264 448 3257 422 3244 
C 544 3788 915 4057 1306 4057 
C 1862 4057 2227 3616 2227 3033 
C 2227 2477 1901 1998 1536 1583 
L 262 147 
L 262 0 
L 2515 0 
L 2669 990 
z
" id="CMR17-32" transform="scale(0.015625)"/>
       </defs>
       <use transform="scale(0.996264)" xlink:href="#CMR17-32"/>
       <use transform="translate(45.690477 0)scale(0.996264)" xlink:href="#CMR17-30"/>
      </g>
     </g>
    </g>
    <g id="xtick_3">
     <g id="line2d_5">
      <path clip-path="url(#p4e0a5b947e)" d="M 154.981833 145.069588 
L 154.981833 24.269588 
" style="fill:none;stroke:#b0b0b0;stroke-linecap:square;stroke-width:0.5;"/>
     </g>
     <g id="line2d_6">
      <g>
       <use style="stroke:#000000;stroke-width:0.8;" x="154.981833" xlink:href="#md870316a7d" y="145.069588"/>
      </g>
     </g>
     <g id="text_3">
      <!-- $\mathdefault{40}$ -->
      <g transform="translate(149.128843 160.371768)scale(0.12 -0.12)">
       <defs>
        <path d="M 2150 4147 
C 2150 4281 2144 4288 2029 4288 
L 128 1254 
L 128 1088 
L 1779 1088 
L 1779 460 
C 1779 230 1766 166 1318 166 
L 1197 166 
L 1197 0 
C 1402 12 1747 12 1965 12 
C 2182 12 2528 12 2733 0 
L 2733 166 
L 2611 166 
C 2163 166 2150 230 2150 460 
L 2150 1088 
L 2803 1088 
L 2803 1254 
L 2150 1254 
L 2150 4147 
z
M 1798 3723 
L 1798 1254 
L 256 1254 
L 1798 3723 
z
" id="CMR17-34" transform="scale(0.015625)"/>
       </defs>
       <use transform="scale(0.996264)" xlink:href="#CMR17-34"/>
       <use transform="translate(45.690477 0)scale(0.996264)" xlink:href="#CMR17-30"/>
      </g>
     </g>
    </g>
    <g id="xtick_4">
     <g id="line2d_7">
      <path clip-path="url(#p4e0a5b947e)" d="M 210.879654 145.069588 
L 210.879654 24.269588 
" style="fill:none;stroke:#b0b0b0;stroke-linecap:square;stroke-width:0.5;"/>
     </g>
     <g id="line2d_8">
      <g>
       <use style="stroke:#000000;stroke-width:0.8;" x="210.879654" xlink:href="#md870316a7d" y="145.069588"/>
      </g>
     </g>
     <g id="text_4">
      <!-- $\mathdefault{60}$ -->
      <g transform="translate(205.026664 160.371768)scale(0.12 -0.12)">
       <defs>
        <path d="M 678 2198 
C 678 3712 1395 4076 1811 4076 
C 1946 4076 2272 4049 2400 3782 
C 2298 3782 2106 3782 2106 3558 
C 2106 3385 2246 3328 2336 3328 
C 2394 3328 2566 3353 2566 3571 
C 2566 3987 2246 4224 1805 4224 
C 1043 4224 243 3411 243 2011 
C 243 257 966 -128 1478 -128 
C 2099 -128 2688 431 2688 1295 
C 2688 2101 2170 2688 1517 2688 
C 1126 2688 838 2430 678 1979 
L 678 2198 
z
M 1478 25 
C 691 25 691 1212 691 1450 
C 691 1914 909 2585 1504 2585 
C 1613 2585 1926 2585 2138 2140 
C 2253 1889 2253 1624 2253 1302 
C 2253 954 2253 696 2118 438 
C 1978 173 1773 25 1478 25 
z
" id="CMR17-36" transform="scale(0.015625)"/>
       </defs>
       <use transform="scale(0.996264)" xlink:href="#CMR17-36"/>
       <use transform="translate(45.690477 0)scale(0.996264)" xlink:href="#CMR17-30"/>
      </g>
     </g>
    </g>
    <g id="xtick_5">
     <g id="line2d_9">
      <path clip-path="url(#p4e0a5b947e)" d="M 266.777475 145.069588 
L 266.777475 24.269588 
" style="fill:none;stroke:#b0b0b0;stroke-linecap:square;stroke-width:0.5;"/>
     </g>
     <g id="line2d_10">
      <g>
       <use style="stroke:#000000;stroke-width:0.8;" x="266.777475" xlink:href="#md870316a7d" y="145.069588"/>
      </g>
     </g>
     <g id="text_5">
      <!-- $\mathdefault{80}$ -->
      <g transform="translate(260.924485 160.371768)scale(0.12 -0.12)">
       <defs>
        <path d="M 1741 2289 
C 2144 2494 2554 2803 2554 3298 
C 2554 3884 1990 4224 1472 4224 
C 890 4224 378 3800 378 3215 
C 378 3054 416 2777 666 2533 
C 730 2469 998 2276 1171 2154 
C 883 2006 211 1652 211 945 
C 211 282 838 -128 1459 -128 
C 2144 -128 2720 366 2720 1022 
C 2720 1607 2330 1877 2074 2051 
L 1741 2289 
z
M 902 2855 
C 851 2887 595 3086 595 3388 
C 595 3781 998 4076 1459 4076 
C 1965 4076 2336 3716 2336 3298 
C 2336 2700 1670 2359 1638 2359 
C 1632 2359 1626 2359 1574 2398 
L 902 2855 
z
M 2080 1536 
C 2176 1466 2483 1253 2483 861 
C 2483 385 2010 25 1472 25 
C 890 25 448 443 448 951 
C 448 1459 838 1884 1280 2083 
L 2080 1536 
z
" id="CMR17-38" transform="scale(0.015625)"/>
       </defs>
       <use transform="scale(0.996264)" xlink:href="#CMR17-38"/>
       <use transform="translate(45.690477 0)scale(0.996264)" xlink:href="#CMR17-30"/>
      </g>
     </g>
    </g>
    <g id="xtick_6">
     <g id="line2d_11">
      <path clip-path="url(#p4e0a5b947e)" d="M 322.675296 145.069588 
L 322.675296 24.269588 
" style="fill:none;stroke:#b0b0b0;stroke-linecap:square;stroke-width:0.5;"/>
     </g>
     <g id="line2d_12">
      <g>
       <use style="stroke:#000000;stroke-width:0.8;" x="322.675296" xlink:href="#md870316a7d" y="145.069588"/>
      </g>
     </g>
     <g id="text_6">
      <!-- $\mathdefault{100}$ -->
      <g transform="translate(313.895811 160.371768)scale(0.12 -0.12)">
       <defs>
        <path d="M 1702 4083 
C 1702 4217 1696 4224 1606 4224 
C 1357 3927 979 3833 621 3820 
C 602 3820 570 3820 563 3808 
C 557 3795 557 3782 557 3648 
C 755 3648 1088 3686 1344 3839 
L 1344 467 
C 1344 243 1331 166 781 166 
L 589 166 
L 589 0 
C 896 6 1216 12 1523 12 
C 1830 12 2150 6 2458 0 
L 2458 166 
L 2266 166 
C 1715 166 1702 236 1702 467 
L 1702 4083 
z
" id="CMR17-31" transform="scale(0.015625)"/>
       </defs>
       <use transform="scale(0.996264)" xlink:href="#CMR17-31"/>
       <use transform="translate(45.690477 0)scale(0.996264)" xlink:href="#CMR17-30"/>
       <use transform="translate(91.380954 0)scale(0.996264)" xlink:href="#CMR17-30"/>
      </g>
     </g>
    </g>
   </g>
   <g id="matplotlib.axis_2">
    <g id="ytick_1">
     <g id="line2d_13">
      <path clip-path="url(#p4e0a5b947e)" d="M 29.35148 145.069588 
L 333.715116 145.069588 
" style="fill:none;stroke:#b0b0b0;stroke-linecap:square;stroke-width:0.5;"/>
     </g>
     <g id="line2d_14">
      <defs>
       <path d="M 0 0 
L -3.5 0 
" id="m91a653ac3c" style="stroke:#000000;stroke-width:0.8;"/>
      </defs>
      <g>
       <use style="stroke:#000000;stroke-width:0.8;" x="29.35148" xlink:href="#m91a653ac3c" y="145.069588"/>
      </g>
     </g>
     <g id="text_7">
      <!-- $\mathdefault{−2}$ -->
      <g transform="translate(7.2 149.220678)scale(0.12 -0.12)">
       <defs>
        <path d="M 4218 1472 
C 4326 1472 4442 1472 4442 1600 
C 4442 1728 4326 1728 4218 1728 
L 755 1728 
C 646 1728 531 1728 531 1600 
C 531 1472 646 1472 755 1472 
L 4218 1472 
z
" id="CMSY10-0" transform="scale(0.015625)"/>
       </defs>
       <use transform="scale(0.996264)" xlink:href="#CMSY10-0"/>
       <use transform="translate(77.487468 0)scale(0.996264)" xlink:href="#CMR17-32"/>
      </g>
     </g>
    </g>
    <g id="ytick_2">
     <g id="line2d_15">
      <path clip-path="url(#p4e0a5b947e)" d="M 29.35148 114.869588 
L 333.715116 114.869588 
" style="fill:none;stroke:#b0b0b0;stroke-linecap:square;stroke-width:0.5;"/>
     </g>
     <g id="line2d_16">
      <g>
       <use style="stroke:#000000;stroke-width:0.8;" x="29.35148" xlink:href="#m91a653ac3c" y="114.869588"/>
      </g>
     </g>
     <g id="text_8">
      <!-- $\mathdefault{−1}$ -->
      <g transform="translate(7.2 119.020678)scale(0.12 -0.12)">
       <use transform="scale(0.996264)" xlink:href="#CMSY10-0"/>
       <use transform="translate(77.487468 0)scale(0.996264)" xlink:href="#CMR17-31"/>
      </g>
     </g>
    </g>
    <g id="ytick_3">
     <g id="line2d_17">
      <path clip-path="url(#p4e0a5b947e)" d="M 29.35148 84.669588 
L 333.715116 84.669588 
" style="fill:none;stroke:#b0b0b0;stroke-linecap:square;stroke-width:0.5;"/>
     </g>
     <g id="line2d_18">
      <g>
       <use style="stroke:#000000;stroke-width:0.8;" x="29.35148" xlink:href="#m91a653ac3c" y="84.669588"/>
      </g>
     </g>
     <g id="text_9">
      <!-- $\mathdefault{0}$ -->
      <g transform="translate(16.498489 88.820678)scale(0.12 -0.12)">
       <use transform="scale(0.996264)" xlink:href="#CMR17-30"/>
      </g>
     </g>
    </g>
    <g id="ytick_4">
     <g id="line2d_19">
      <path clip-path="url(#p4e0a5b947e)" d="M 29.35148 54.469588 
L 333.715116 54.469588 
" style="fill:none;stroke:#b0b0b0;stroke-linecap:square;stroke-width:0.5;"/>
     </g>
     <g id="line2d_20">
      <g>
       <use style="stroke:#000000;stroke-width:0.8;" x="29.35148" xlink:href="#m91a653ac3c" y="54.469588"/>
      </g>
     </g>
     <g id="text_10">
      <!-- $\mathdefault{1}$ -->
      <g transform="translate(16.498489 58.620678)scale(0.12 -0.12)">
       <use transform="scale(0.996264)" xlink:href="#CMR17-31"/>
      </g>
     </g>
    </g>
    <g id="ytick_5">
     <g id="line2d_21">
      <path clip-path="url(#p4e0a5b947e)" d="M 29.35148 24.269588 
L 333.715116 24.269588 
" style="fill:none;stroke:#b0b0b0;stroke-linecap:square;stroke-width:0.5;"/>
     </g>
     <g id="line2d_22">
      <g>
       <use style="stroke:#000000;stroke-width:0.8;" x="29.35148" xlink:href="#m91a653ac3c" y="24.269588"/>
      </g>
     </g>
     <g id="text_11">
      <!-- $\mathdefault{2}$ -->
      <g transform="translate(16.498489 28.420678)scale(0.12 -0.12)">
       <use transform="scale(0.996264)" xlink:href="#CMR17-32"/>
      </g>
     </g>
    </g>
   </g>
   <g id="line2d_23">
    <path clip-path="url(#p4e0a5b947e)" d="M 43.18619 84.669588 
L 45.981081 84.669588 
L 48.775973 84.669588 
L 51.570864 84.669588 
L 54.365755 84.669588 
L 57.160646 84.669588 
L 59.955537 84.669588 
L 62.750428 84.669588 
L 65.545319 84.669588 
L 68.34021 84.669588 
L 71.135101 84.669588 
L 73.929992 84.669588 
L 76.724883 84.669588 
L 79.519774 84.669588 
L 82.314665 84.669588 
L 85.109556 84.669588 
L 87.904447 84.669588 
L 90.699338 84.669588 
L 93.494229 84.669588 
L 96.289121 84.669588 
L 99.084012 84.669588 
L 101.878903 84.669588 
L 104.673794 84.669588 
L 107.468685 84.669588 
L 110.263576 84.669588 
L 113.058467 84.669588 
L 115.853358 84.669588 
L 118.648249 84.669588 
L 121.44314 84.669588 
L 124.238031 84.669588 
L 127.032922 84.669588 
L 129.827813 84.669588 
L 132.622704 84.669588 
L 135.417595 84.669588 
L 138.212486 84.669588 
L 141.007378 84.669588 
L 143.802269 84.669588 
L 146.59716 84.669588 
L 149.392051 84.669588 
L 152.186942 84.669588 
L 154.981833 84.669588 
L 157.776724 84.669588 
L 160.571615 84.669588 
L 163.366506 84.669588 
L 166.161397 84.669588 
L 168.956288 84.669588 
L 171.751179 84.669588 
L 174.54607 84.669588 
L 177.340961 84.669588 
L 180.135852 84.669588 
L 182.930743 84.669588 
L 185.725634 84.669588 
L 188.520526 84.669588 
L 191.315417 84.669588 
L 194.110308 84.669588 
L 196.905199 84.669588 
L 199.70009 84.669588 
L 202.494981 84.669588 
L 205.289872 84.669588 
L 208.084763 84.669588 
L 210.879654 84.669588 
L 213.674545 54.469588 
L 216.469436 54.469588 
L 219.264327 54.469588 
L 222.059218 54.469588 
L 224.854109 54.469588 
L 227.649 54.469588 
L 230.443891 54.469588 
L 233.238782 54.469588 
L 236.033674 54.469588 
L 238.828565 54.469588 
L 241.623456 84.669588 
L 244.418347 84.669588 
L 247.213238 84.669588 
L 250.008129 84.669588 
L 252.80302 84.669588 
L 255.597911 84.669588 
L 258.392802 84.669588 
L 261.187693 84.669588 
L 263.982584 84.669588 
L 266.777475 84.669588 
L 269.572366 84.669588 
L 272.367257 84.669588 
L 275.162148 84.669588 
L 277.957039 84.669588 
L 280.75193 84.669588 
L 283.546822 84.669588 
L 286.341713 84.669588 
L 289.136604 84.669588 
L 291.931495 84.669588 
L 294.726386 84.669588 
L 297.521277 84.669588 
L 300.316168 84.669588 
L 303.111059 84.669588 
L 305.90595 84.669588 
L 308.700841 84.669588 
L 311.495732 84.669588 
L 314.290623 84.669588 
L 317.085514 84.669588 
L 319.880405 84.669588 
" style="fill:none;stroke:#1f77b4;stroke-linecap:square;stroke-width:1.5;"/>
   </g>
   <g id="patch_3">
    <path d="M 29.35148 145.069588 
L 29.35148 24.269588 
" style="fill:none;stroke:#000000;stroke-linecap:square;stroke-linejoin:miter;stroke-width:0.5;"/>
   </g>
   <g id="patch_4">
    <path d="M 333.715116 145.069588 
L 333.715116 24.269588 
" style="fill:none;stroke:#000000;stroke-linecap:square;stroke-linejoin:miter;stroke-width:0.5;"/>
   </g>
   <g id="patch_5">
    <path d="M 29.35148 145.069588 
L 333.715116 145.069588 
" style="fill:none;stroke:#000000;stroke-linecap:square;stroke-linejoin:miter;stroke-width:0.5;"/>
   </g>
   <g id="patch_6">
    <path d="M 29.35148 24.269588 
L 333.715116 24.269588 
" style="fill:none;stroke:#000000;stroke-linecap:square;stroke-linejoin:miter;stroke-width:0.5;"/>
   </g>
   <g id="text_12">
    <!-- $x$ -->
    <g transform="translate(177.098573 18.269588)scale(0.16 -0.16)">
     <defs>
      <path d="M 3034 2624 
C 2829 2585 2752 2431 2752 2310 
C 2752 2156 2874 2105 2963 2105 
C 3155 2105 3290 2271 3290 2444 
C 3290 2694 2982 2816 2714 2816 
C 2323 2816 2106 2451 2048 2329 
C 1901 2790 1504 2816 1389 2816 
C 736 2816 390 1993 390 1849 
C 390 1823 416 1790 461 1790 
C 512 1790 525 1829 538 1855 
C 755 2572 1184 2687 1370 2687 
C 1658 2687 1715 2438 1715 2284 
C 1715 2143 1677 1993 1600 1678 
L 1382 778 
C 1286 390 1101 64 762 64 
C 730 64 570 64 435 126 
C 666 166 717 358 717 435 
C 717 563 621 640 499 640 
C 346 640 179 505 179 300 
C 179 57 480 -64 755 -64 
C 1062 -64 1280 153 1414 415 
C 1517 64 1837 -64 2074 -64 
C 2726 -64 3072 751 3072 896 
C 3072 929 3046 955 3008 955 
C 2950 955 2944 922 2925 870 
C 2752 300 2381 64 2093 64 
C 1869 64 1747 204 1747 467 
C 1747 607 1773 712 1875 1146 
L 2099 2039 
C 2195 2425 2413 2687 2707 2687 
C 2720 2687 2899 2687 3034 2624 
z
" id="CMMI12-78" transform="scale(0.015625)"/>
     </defs>
     <use transform="scale(0.996264)" xlink:href="#CMMI12-78"/>
    </g>
   </g>
  </g>
  <g id="axes_2">
   <g id="patch_7">
    <path d="M 394.587843 145.069588 
L 698.95148 145.069588 
L 698.95148 24.269588 
L 394.587843 24.269588 
z
" style="fill:#ffffff;"/>
   </g>
   <g id="matplotlib.axis_3">
    <g id="xtick_7">
     <g id="line2d_24">
      <path clip-path="url(#p0326ae24c0)" d="M 434.042389 145.069588 
L 434.042389 24.269588 
" style="fill:none;stroke:#b0b0b0;stroke-linecap:square;stroke-width:0.5;"/>
     </g>
     <g id="line2d_25">
      <g>
       <use style="stroke:#000000;stroke-width:0.8;" x="434.042389" xlink:href="#md870316a7d" y="145.069588"/>
      </g>
     </g>
     <g id="text_13">
      <!-- $\mathdefault{0}$ -->
      <g transform="translate(431.115894 160.371768)scale(0.12 -0.12)">
       <use transform="scale(0.996264)" xlink:href="#CMR17-30"/>
      </g>
     </g>
    </g>
    <g id="xtick_8">
     <g id="line2d_26">
      <path clip-path="url(#p0326ae24c0)" d="M 485.282058 145.069588 
L 485.282058 24.269588 
" style="fill:none;stroke:#b0b0b0;stroke-linecap:square;stroke-width:0.5;"/>
     </g>
     <g id="line2d_27">
      <g>
       <use style="stroke:#000000;stroke-width:0.8;" x="485.282058" xlink:href="#md870316a7d" y="145.069588"/>
      </g>
     </g>
     <g id="text_14">
      <!-- $\mathdefault{20}$ -->
      <g transform="translate(479.429068 160.371768)scale(0.12 -0.12)">
       <use transform="scale(0.996264)" xlink:href="#CMR17-32"/>
       <use transform="translate(45.690477 0)scale(0.996264)" xlink:href="#CMR17-30"/>
      </g>
     </g>
    </g>
    <g id="xtick_9">
     <g id="line2d_28">
      <path clip-path="url(#p0326ae24c0)" d="M 536.521728 145.069588 
L 536.521728 24.269588 
" style="fill:none;stroke:#b0b0b0;stroke-linecap:square;stroke-width:0.5;"/>
     </g>
     <g id="line2d_29">
      <g>
       <use style="stroke:#000000;stroke-width:0.8;" x="536.521728" xlink:href="#md870316a7d" y="145.069588"/>
      </g>
     </g>
     <g id="text_15">
      <!-- $\mathdefault{40}$ -->
      <g transform="translate(530.668737 160.371768)scale(0.12 -0.12)">
       <use transform="scale(0.996264)" xlink:href="#CMR17-34"/>
       <use transform="translate(45.690477 0)scale(0.996264)" xlink:href="#CMR17-30"/>
      </g>
     </g>
    </g>
    <g id="xtick_10">
     <g id="line2d_30">
      <path clip-path="url(#p0326ae24c0)" d="M 587.761397 145.069588 
L 587.761397 24.269588 
" style="fill:none;stroke:#b0b0b0;stroke-linecap:square;stroke-width:0.5;"/>
     </g>
     <g id="line2d_31">
      <g>
       <use style="stroke:#000000;stroke-width:0.8;" x="587.761397" xlink:href="#md870316a7d" y="145.069588"/>
      </g>
     </g>
     <g id="text_16">
      <!-- $\mathdefault{60}$ -->
      <g transform="translate(581.908407 160.371768)scale(0.12 -0.12)">
       <use transform="scale(0.996264)" xlink:href="#CMR17-36"/>
       <use transform="translate(45.690477 0)scale(0.996264)" xlink:href="#CMR17-30"/>
      </g>
     </g>
    </g>
    <g id="xtick_11">
     <g id="line2d_32">
      <path clip-path="url(#p0326ae24c0)" d="M 639.001066 145.069588 
L 639.001066 24.269588 
" style="fill:none;stroke:#b0b0b0;stroke-linecap:square;stroke-width:0.5;"/>
     </g>
     <g id="line2d_33">
      <g>
       <use style="stroke:#000000;stroke-width:0.8;" x="639.001066" xlink:href="#md870316a7d" y="145.069588"/>
      </g>
     </g>
     <g id="text_17">
      <!-- $\mathdefault{80}$ -->
      <g transform="translate(633.148076 160.371768)scale(0.12 -0.12)">
       <use transform="scale(0.996264)" xlink:href="#CMR17-38"/>
       <use transform="translate(45.690477 0)scale(0.996264)" xlink:href="#CMR17-30"/>
      </g>
     </g>
    </g>
    <g id="xtick_12">
     <g id="line2d_34">
      <path clip-path="url(#p0326ae24c0)" d="M 690.240736 145.069588 
L 690.240736 24.269588 
" style="fill:none;stroke:#b0b0b0;stroke-linecap:square;stroke-width:0.5;"/>
     </g>
     <g id="line2d_35">
      <g>
       <use style="stroke:#000000;stroke-width:0.8;" x="690.240736" xlink:href="#md870316a7d" y="145.069588"/>
      </g>
     </g>
     <g id="text_18">
      <!-- $\mathdefault{100}$ -->
      <g transform="translate(681.461251 160.371768)scale(0.12 -0.12)">
       <use transform="scale(0.996264)" xlink:href="#CMR17-31"/>
       <use transform="translate(45.690477 0)scale(0.996264)" xlink:href="#CMR17-30"/>
       <use transform="translate(91.380954 0)scale(0.996264)" xlink:href="#CMR17-30"/>
      </g>
     </g>
    </g>
   </g>
   <g id="matplotlib.axis_4">
    <g id="ytick_6">
     <g id="line2d_36">
      <path clip-path="url(#p0326ae24c0)" d="M 394.587843 137.963706 
L 698.95148 137.963706 
" style="fill:none;stroke:#b0b0b0;stroke-linecap:square;stroke-width:0.5;"/>
     </g>
     <g id="line2d_37">
      <g>
       <use style="stroke:#000000;stroke-width:0.8;" x="394.587843" xlink:href="#m91a653ac3c" y="137.963706"/>
      </g>
     </g>
     <g id="text_19">
      <!-- $\mathdefault{−5}$ -->
      <g transform="translate(372.436364 142.114796)scale(0.12 -0.12)">
       <defs>
        <path d="M 730 3750 
C 794 3724 1056 3641 1325 3641 
C 1920 3641 2246 3961 2432 4140 
C 2432 4191 2432 4224 2394 4224 
C 2387 4224 2374 4224 2323 4198 
C 2099 4102 1837 4032 1517 4032 
C 1325 4032 1037 4055 723 4191 
C 653 4224 640 4224 634 4224 
C 602 4224 595 4217 595 4090 
L 595 2231 
C 595 2113 595 2080 659 2080 
C 691 2080 704 2093 736 2139 
C 941 2435 1222 2560 1542 2560 
C 1766 2560 2246 2415 2246 1293 
C 2246 1087 2246 716 2054 422 
C 1894 159 1645 25 1370 25 
C 947 25 518 319 403 812 
C 429 806 480 793 506 793 
C 589 793 749 838 749 1036 
C 749 1209 627 1280 506 1280 
C 358 1280 262 1190 262 1011 
C 262 454 704 -128 1382 -128 
C 2042 -128 2669 441 2669 1267 
C 2669 2054 2170 2662 1549 2662 
C 1222 2662 947 2540 730 2304 
L 730 3750 
z
" id="CMR17-35" transform="scale(0.015625)"/>
       </defs>
       <use transform="scale(0.996264)" xlink:href="#CMSY10-0"/>
       <use transform="translate(77.487468 0)scale(0.996264)" xlink:href="#CMR17-35"/>
      </g>
     </g>
    </g>
    <g id="ytick_7">
     <g id="line2d_38">
      <path clip-path="url(#p0326ae24c0)" d="M 394.587843 102.434294 
L 698.95148 102.434294 
" style="fill:none;stroke:#b0b0b0;stroke-linecap:square;stroke-width:0.5;"/>
     </g>
     <g id="line2d_39">
      <g>
       <use style="stroke:#000000;stroke-width:0.8;" x="394.587843" xlink:href="#m91a653ac3c" y="102.434294"/>
      </g>
     </g>
     <g id="text_20">
      <!-- $\mathdefault{0}$ -->
      <g transform="translate(381.734853 106.585384)scale(0.12 -0.12)">
       <use transform="scale(0.996264)" xlink:href="#CMR17-30"/>
      </g>
     </g>
    </g>
    <g id="ytick_8">
     <g id="line2d_40">
      <path clip-path="url(#p0326ae24c0)" d="M 394.587843 66.904882 
L 698.95148 66.904882 
" style="fill:none;stroke:#b0b0b0;stroke-linecap:square;stroke-width:0.5;"/>
     </g>
     <g id="line2d_41">
      <g>
       <use style="stroke:#000000;stroke-width:0.8;" x="394.587843" xlink:href="#m91a653ac3c" y="66.904882"/>
      </g>
     </g>
     <g id="text_21">
      <!-- $\mathdefault{5}$ -->
      <g transform="translate(381.734853 71.055972)scale(0.12 -0.12)">
       <use transform="scale(0.996264)" xlink:href="#CMR17-35"/>
      </g>
     </g>
    </g>
    <g id="ytick_9">
     <g id="line2d_42">
      <path clip-path="url(#p0326ae24c0)" d="M 394.587843 31.375471 
L 698.95148 31.375471 
" style="fill:none;stroke:#b0b0b0;stroke-linecap:square;stroke-width:0.5;"/>
     </g>
     <g id="line2d_43">
      <g>
       <use style="stroke:#000000;stroke-width:0.8;" x="394.587843" xlink:href="#m91a653ac3c" y="31.375471"/>
      </g>
     </g>
     <g id="text_22">
      <!-- $\mathdefault{10}$ -->
      <g transform="translate(375.881863 35.526561)scale(0.12 -0.12)">
       <use transform="scale(0.996264)" xlink:href="#CMR17-31"/>
       <use transform="translate(45.690477 0)scale(0.996264)" xlink:href="#CMR17-30"/>
      </g>
     </g>
    </g>
   </g>
   <g id="line2d_44">
    <path clip-path="url(#p0326ae24c0)" d="M 408.422554 102.434294 
L 410.984538 102.434294 
L 413.546521 102.434294 
L 416.108504 102.434294 
L 418.670488 102.434294 
L 421.232471 102.434294 
L 423.794455 102.434294 
L 426.356438 102.434294 
L 428.918422 102.434294 
L 431.480405 102.434294 
L 434.042389 102.434294 
L 436.604372 102.434294 
L 439.166356 102.434294 
L 441.728339 102.434294 
L 444.290323 102.434294 
L 446.852306 102.434294 
L 449.41429 102.434294 
L 451.976273 102.434294 
L 454.538257 102.434294 
L 457.10024 102.434294 
L 459.662223 102.434294 
L 462.224207 102.434294 
L 464.78619 102.434294 
L 467.348174 102.434294 
L 469.910157 102.434294 
L 472.472141 102.434294 
L 475.034124 102.434294 
L 477.596108 102.434294 
L 480.158091 102.434294 
L 482.720075 102.434294 
L 485.282058 102.434294 
L 487.844042 102.434294 
L 490.406025 102.434294 
L 492.968009 102.434294 
L 495.529992 102.434294 
L 498.091976 102.434294 
L 500.653959 102.434294 
L 503.215942 102.434294 
L 505.777926 102.434294 
L 508.339909 102.434294 
L 510.901893 102.434294 
L 513.463876 102.434294 
L 516.02586 102.434294 
L 518.587843 102.434294 
L 521.149827 102.434294 
L 523.71181 102.434294 
L 526.273794 102.434294 
L 528.835777 102.434294 
L 531.397761 102.434294 
L 533.959744 102.434294 
L 536.521728 102.434294 
L 539.083711 102.434294 
L 541.645695 102.434294 
L 544.207678 102.434294 
L 546.769661 102.434294 
L 549.331645 102.434294 
L 551.893628 102.434294 
L 554.455612 102.434294 
L 557.017595 102.434294 
L 559.579579 102.434294 
L 562.141562 102.434294 
L 564.703546 95.328412 
L 567.265529 88.222529 
L 569.827513 81.116647 
L 572.389496 74.010765 
L 574.95148 66.904882 
L 577.513463 59.799 
L 580.075447 52.693118 
L 582.63743 45.587235 
L 585.199414 38.481353 
L 587.761397 31.375471 
L 590.323381 38.481353 
L 592.885364 45.587235 
L 595.447347 52.693118 
L 598.009331 59.799 
L 600.571314 66.904882 
L 603.133298 74.010765 
L 605.695281 81.116647 
L 608.257265 88.222529 
L 610.819248 95.328412 
L 613.381232 102.434294 
L 615.943215 102.434294 
L 618.505199 102.434294 
L 621.067182 102.434294 
L 623.629166 102.434294 
L 626.191149 102.434294 
L 628.753133 102.434294 
L 631.315116 102.434294 
L 633.8771 102.434294 
L 636.439083 102.434294 
L 639.001066 102.434294 
L 641.56305 102.434294 
L 644.125033 102.434294 
L 646.687017 102.434294 
L 649.249 102.434294 
L 651.810984 102.434294 
L 654.372967 102.434294 
L 656.934951 102.434294 
L 659.496934 102.434294 
L 662.058918 102.434294 
L 664.620901 102.434294 
L 667.182885 102.434294 
L 669.744868 102.434294 
L 672.306852 102.434294 
L 674.868835 102.434294 
L 677.430819 102.434294 
L 679.992802 102.434294 
L 682.554785 102.434294 
L 685.116769 102.434294 
" style="fill:none;stroke:#1f77b4;stroke-linecap:square;stroke-width:1.5;"/>
   </g>
   <g id="patch_8">
    <path d="M 394.587843 145.069588 
L 394.587843 24.269588 
" style="fill:none;stroke:#000000;stroke-linecap:square;stroke-linejoin:miter;stroke-width:0.5;"/>
   </g>
   <g id="patch_9">
    <path d="M 698.95148 145.069588 
L 698.95148 24.269588 
" style="fill:none;stroke:#000000;stroke-linecap:square;stroke-linejoin:miter;stroke-width:0.5;"/>
   </g>
   <g id="patch_10">
    <path d="M 394.587843 145.069588 
L 698.95148 145.069588 
" style="fill:none;stroke:#000000;stroke-linecap:square;stroke-linejoin:miter;stroke-width:0.5;"/>
   </g>
   <g id="patch_11">
    <path d="M 394.587843 24.269588 
L 698.95148 24.269588 
" style="fill:none;stroke:#000000;stroke-linecap:square;stroke-linejoin:miter;stroke-width:0.5;"/>
   </g>
   <g id="text_23">
    <!-- $R_{x}$ -->
    <g transform="translate(537.641014 18.269588)scale(0.16 -0.16)">
     <defs>
      <path d="M 2355 3917 
C 2413 4153 2438 4166 2688 4166 
L 3149 4166 
C 3699 4166 4109 4000 4109 3503 
C 4109 3177 3942 2240 2656 2240 
L 1933 2240 
L 2355 3917 
z
M 3245 2163 
C 4038 2335 4659 2846 4659 3394 
C 4659 3892 4154 4352 3264 4352 
L 1530 4352 
C 1402 4352 1344 4352 1344 4230 
C 1344 4166 1389 4166 1510 4166 
C 1894 4166 1894 4115 1894 4045 
C 1894 4032 1894 3994 1869 3898 
L 1005 475 
C 947 253 934 190 493 190 
C 346 190 301 190 301 69 
C 301 6 371 6 390 6 
C 506 6 640 19 762 19 
L 1517 19 
C 1632 19 1766 6 1882 6 
C 1933 6 2003 6 2003 126 
C 2003 190 1946 190 1850 190 
C 1459 190 1459 241 1459 304 
C 1459 310 1459 355 1472 405 
L 1901 2112 
L 2669 2112 
C 3277 2112 3392 1731 3392 1522 
C 3392 1426 3328 1179 3283 1014 
C 3213 723 3194 653 3194 532 
C 3194 82 3565 -128 3994 -128 
C 4512 -128 4736 501 4736 589 
C 4736 634 4704 653 4666 653 
C 4614 653 4602 615 4589 564 
C 4435 114 4173 0 4013 0 
C 3853 0 3750 69 3750 355 
C 3750 507 3827 1084 3834 1116 
C 3866 1350 3866 1376 3866 1426 
C 3866 1889 3488 2086 3245 2163 
z
" id="CMMI12-52" transform="scale(0.015625)"/>
     </defs>
     <use transform="scale(0.996264)" xlink:href="#CMMI12-52"/>
     <use transform="translate(74.250826 -14.943915)scale(0.697382)" xlink:href="#CMMI12-78"/>
    </g>
   </g>
  </g>
  <g id="axes_3">
   <g id="patch_12">
    <path d="M 29.35148 302.109588 
L 333.715116 302.109588 
L 333.715116 181.309588 
L 29.35148 181.309588 
z
" style="fill:#ffffff;"/>
   </g>
   <g id="matplotlib.axis_5">
    <g id="xtick_13">
     <g id="line2d_45">
      <path clip-path="url(#p3be1c984c2)" d="M 43.18619 302.109588 
L 43.18619 181.309588 
" style="fill:none;stroke:#b0b0b0;stroke-linecap:square;stroke-width:0.5;"/>
     </g>
     <g id="line2d_46">
      <g>
       <use style="stroke:#000000;stroke-width:0.8;" x="43.18619" xlink:href="#md870316a7d" y="302.109588"/>
      </g>
     </g>
     <g id="text_24">
      <!-- $\mathdefault{0}$ -->
      <g transform="translate(40.259695 317.411768)scale(0.12 -0.12)">
       <use transform="scale(0.996264)" xlink:href="#CMR17-30"/>
      </g>
     </g>
    </g>
    <g id="xtick_14">
     <g id="line2d_47">
      <path clip-path="url(#p3be1c984c2)" d="M 99.084012 302.109588 
L 99.084012 181.309588 
" style="fill:none;stroke:#b0b0b0;stroke-linecap:square;stroke-width:0.5;"/>
     </g>
     <g id="line2d_48">
      <g>
       <use style="stroke:#000000;stroke-width:0.8;" x="99.084012" xlink:href="#md870316a7d" y="302.109588"/>
      </g>
     </g>
     <g id="text_25">
      <!-- $\mathdefault{20}$ -->
      <g transform="translate(93.231021 317.411768)scale(0.12 -0.12)">
       <use transform="scale(0.996264)" xlink:href="#CMR17-32"/>
       <use transform="translate(45.690477 0)scale(0.996264)" xlink:href="#CMR17-30"/>
      </g>
     </g>
    </g>
    <g id="xtick_15">
     <g id="line2d_49">
      <path clip-path="url(#p3be1c984c2)" d="M 154.981833 302.109588 
L 154.981833 181.309588 
" style="fill:none;stroke:#b0b0b0;stroke-linecap:square;stroke-width:0.5;"/>
     </g>
     <g id="line2d_50">
      <g>
       <use style="stroke:#000000;stroke-width:0.8;" x="154.981833" xlink:href="#md870316a7d" y="302.109588"/>
      </g>
     </g>
     <g id="text_26">
      <!-- $\mathdefault{40}$ -->
      <g transform="translate(149.128843 317.411768)scale(0.12 -0.12)">
       <use transform="scale(0.996264)" xlink:href="#CMR17-34"/>
       <use transform="translate(45.690477 0)scale(0.996264)" xlink:href="#CMR17-30"/>
      </g>
     </g>
    </g>
    <g id="xtick_16">
     <g id="line2d_51">
      <path clip-path="url(#p3be1c984c2)" d="M 210.879654 302.109588 
L 210.879654 181.309588 
" style="fill:none;stroke:#b0b0b0;stroke-linecap:square;stroke-width:0.5;"/>
     </g>
     <g id="line2d_52">
      <g>
       <use style="stroke:#000000;stroke-width:0.8;" x="210.879654" xlink:href="#md870316a7d" y="302.109588"/>
      </g>
     </g>
     <g id="text_27">
      <!-- $\mathdefault{60}$ -->
      <g transform="translate(205.026664 317.411768)scale(0.12 -0.12)">
       <use transform="scale(0.996264)" xlink:href="#CMR17-36"/>
       <use transform="translate(45.690477 0)scale(0.996264)" xlink:href="#CMR17-30"/>
      </g>
     </g>
    </g>
    <g id="xtick_17">
     <g id="line2d_53">
      <path clip-path="url(#p3be1c984c2)" d="M 266.777475 302.109588 
L 266.777475 181.309588 
" style="fill:none;stroke:#b0b0b0;stroke-linecap:square;stroke-width:0.5;"/>
     </g>
     <g id="line2d_54">
      <g>
       <use style="stroke:#000000;stroke-width:0.8;" x="266.777475" xlink:href="#md870316a7d" y="302.109588"/>
      </g>
     </g>
     <g id="text_28">
      <!-- $\mathdefault{80}$ -->
      <g transform="translate(260.924485 317.411768)scale(0.12 -0.12)">
       <use transform="scale(0.996264)" xlink:href="#CMR17-38"/>
       <use transform="translate(45.690477 0)scale(0.996264)" xlink:href="#CMR17-30"/>
      </g>
     </g>
    </g>
    <g id="xtick_18">
     <g id="line2d_55">
      <path clip-path="url(#p3be1c984c2)" d="M 322.675296 302.109588 
L 322.675296 181.309588 
" style="fill:none;stroke:#b0b0b0;stroke-linecap:square;stroke-width:0.5;"/>
     </g>
     <g id="line2d_56">
      <g>
       <use style="stroke:#000000;stroke-width:0.8;" x="322.675296" xlink:href="#md870316a7d" y="302.109588"/>
      </g>
     </g>
     <g id="text_29">
      <!-- $\mathdefault{100}$ -->
      <g transform="translate(313.895811 317.411768)scale(0.12 -0.12)">
       <use transform="scale(0.996264)" xlink:href="#CMR17-31"/>
       <use transform="translate(45.690477 0)scale(0.996264)" xlink:href="#CMR17-30"/>
       <use transform="translate(91.380954 0)scale(0.996264)" xlink:href="#CMR17-30"/>
      </g>
     </g>
    </g>
   </g>
   <g id="matplotlib.axis_6">
    <g id="ytick_10">
     <g id="line2d_57">
      <path clip-path="url(#p3be1c984c2)" d="M 29.35148 302.109588 
L 333.715116 302.109588 
" style="fill:none;stroke:#b0b0b0;stroke-linecap:square;stroke-width:0.5;"/>
     </g>
     <g id="line2d_58">
      <g>
       <use style="stroke:#000000;stroke-width:0.8;" x="29.35148" xlink:href="#m91a653ac3c" y="302.109588"/>
      </g>
     </g>
     <g id="text_30">
      <!-- $\mathdefault{−2}$ -->
      <g transform="translate(7.2 306.260678)scale(0.12 -0.12)">
       <use transform="scale(0.996264)" xlink:href="#CMSY10-0"/>
       <use transform="translate(77.487468 0)scale(0.996264)" xlink:href="#CMR17-32"/>
      </g>
     </g>
    </g>
    <g id="ytick_11">
     <g id="line2d_59">
      <path clip-path="url(#p3be1c984c2)" d="M 29.35148 271.909588 
L 333.715116 271.909588 
" style="fill:none;stroke:#b0b0b0;stroke-linecap:square;stroke-width:0.5;"/>
     </g>
     <g id="line2d_60">
      <g>
       <use style="stroke:#000000;stroke-width:0.8;" x="29.35148" xlink:href="#m91a653ac3c" y="271.909588"/>
      </g>
     </g>
     <g id="text_31">
      <!-- $\mathdefault{−1}$ -->
      <g transform="translate(7.2 276.060678)scale(0.12 -0.12)">
       <use transform="scale(0.996264)" xlink:href="#CMSY10-0"/>
       <use transform="translate(77.487468 0)scale(0.996264)" xlink:href="#CMR17-31"/>
      </g>
     </g>
    </g>
    <g id="ytick_12">
     <g id="line2d_61">
      <path clip-path="url(#p3be1c984c2)" d="M 29.35148 241.709588 
L 333.715116 241.709588 
" style="fill:none;stroke:#b0b0b0;stroke-linecap:square;stroke-width:0.5;"/>
     </g>
     <g id="line2d_62">
      <g>
       <use style="stroke:#000000;stroke-width:0.8;" x="29.35148" xlink:href="#m91a653ac3c" y="241.709588"/>
      </g>
     </g>
     <g id="text_32">
      <!-- $\mathdefault{0}$ -->
      <g transform="translate(16.498489 245.860678)scale(0.12 -0.12)">
       <use transform="scale(0.996264)" xlink:href="#CMR17-30"/>
      </g>
     </g>
    </g>
    <g id="ytick_13">
     <g id="line2d_63">
      <path clip-path="url(#p3be1c984c2)" d="M 29.35148 211.509588 
L 333.715116 211.509588 
" style="fill:none;stroke:#b0b0b0;stroke-linecap:square;stroke-width:0.5;"/>
     </g>
     <g id="line2d_64">
      <g>
       <use style="stroke:#000000;stroke-width:0.8;" x="29.35148" xlink:href="#m91a653ac3c" y="211.509588"/>
      </g>
     </g>
     <g id="text_33">
      <!-- $\mathdefault{1}$ -->
      <g transform="translate(16.498489 215.660678)scale(0.12 -0.12)">
       <use transform="scale(0.996264)" xlink:href="#CMR17-31"/>
      </g>
     </g>
    </g>
    <g id="ytick_14">
     <g id="line2d_65">
      <path clip-path="url(#p3be1c984c2)" d="M 29.35148 181.309588 
L 333.715116 181.309588 
" style="fill:none;stroke:#b0b0b0;stroke-linecap:square;stroke-width:0.5;"/>
     </g>
     <g id="line2d_66">
      <g>
       <use style="stroke:#000000;stroke-width:0.8;" x="29.35148" xlink:href="#m91a653ac3c" y="181.309588"/>
      </g>
     </g>
     <g id="text_34">
      <!-- $\mathdefault{2}$ -->
      <g transform="translate(16.498489 185.460678)scale(0.12 -0.12)">
       <use transform="scale(0.996264)" xlink:href="#CMR17-32"/>
      </g>
     </g>
    </g>
   </g>
   <g id="line2d_67">
    <path clip-path="url(#p3be1c984c2)" d="M 43.18619 248.787265 
L 45.981081 242.665151 
L 48.775973 277.987983 
L 51.570864 213.853348 
L 54.365755 272.166981 
L 57.160646 256.004738 
L 59.955537 233.1693 
L 62.750428 262.857952 
L 65.545319 259.676482 
L 68.34021 257.146999 
L 71.135101 232.344405 
L 73.929992 202.781689 
L 76.724883 241.004137 
L 79.519774 260.69499 
L 82.314665 232.554918 
L 85.109556 251.833994 
L 87.904447 242.034476 
L 90.699338 221.754886 
L 93.494229 254.410462 
L 96.289121 241.556315 
L 99.084012 256.622238 
L 101.878903 244.366264 
L 104.673794 237.352327 
L 107.468685 258.501734 
L 110.263576 247.463703 
L 113.058467 245.720633 
L 115.853358 252.538697 
L 118.648249 261.878461 
L 121.44314 265.845705 
L 124.238031 244.316352 
L 127.032922 246.278904 
L 129.827813 203.814938 
L 132.622704 283.058535 
L 135.417595 239.795187 
L 138.212486 235.418437 
L 141.007378 218.619323 
L 143.802269 233.186694 
L 146.59716 256.046623 
L 149.392051 241.709423 
L 152.186942 232.498973 
L 154.981833 247.033806 
L 157.776724 228.615721 
L 160.571615 273.434826 
L 163.366506 212.309385 
L 166.161397 216.784441 
L 168.956288 247.410299 
L 171.751179 231.327366 
L 174.54607 240.894918 
L 177.340961 255.790551 
L 180.135852 240.220031 
L 182.930743 224.720667 
L 185.725634 248.181571 
L 188.520526 248.089472 
L 191.315417 242.974304 
L 194.110308 234.347647 
L 196.905199 219.999247 
L 199.70009 252.488162 
L 202.494981 233.075643 
L 205.289872 238.039353 
L 208.084763 273.27386 
L 210.879654 248.830718 
L 213.674545 243.956891 
L 216.469436 242.381598 
L 219.264327 236.173167 
L 222.059218 276.359799 
L 224.854109 240.924044 
L 227.649 253.218355 
L 230.443891 266.155161 
L 233.238782 232.805615 
L 236.033674 229.22255 
L 238.828565 252.803547 
L 241.623456 227.402399 
L 244.418347 248.188771 
L 247.213238 240.580425 
L 250.008129 260.369151 
L 252.80302 214.800707 
L 255.597911 286.874242 
L 258.392802 243.262701 
L 261.187693 229.904575 
L 263.982584 276.243357 
L 266.777475 244.927289 
L 269.572366 243.02097 
L 272.367257 227.703898 
L 275.162148 220.511553 
L 277.957039 248.568773 
L 280.75193 265.222465 
L 283.546822 218.490228 
L 286.341713 221.026592 
L 289.136604 249.55569 
L 291.931495 235.750551 
L 294.726386 235.224466 
L 297.521277 232.092698 
L 300.316168 238.241584 
L 303.111059 217.820077 
L 305.90595 271.224847 
L 308.700841 224.033579 
L 311.495732 235.248144 
L 314.290623 245.397133 
L 317.085514 221.779845 
L 319.880405 281.510317 
" style="fill:none;stroke:#1f77b4;stroke-linecap:square;stroke-width:1.5;"/>
   </g>
   <g id="patch_13">
    <path d="M 29.35148 302.109588 
L 29.35148 181.309588 
" style="fill:none;stroke:#000000;stroke-linecap:square;stroke-linejoin:miter;stroke-width:0.5;"/>
   </g>
   <g id="patch_14">
    <path d="M 333.715116 302.109588 
L 333.715116 181.309588 
" style="fill:none;stroke:#000000;stroke-linecap:square;stroke-linejoin:miter;stroke-width:0.5;"/>
   </g>
   <g id="patch_15">
    <path d="M 29.35148 302.109588 
L 333.715116 302.109588 
" style="fill:none;stroke:#000000;stroke-linecap:square;stroke-linejoin:miter;stroke-width:0.5;"/>
   </g>
   <g id="patch_16">
    <path d="M 29.35148 181.309588 
L 333.715116 181.309588 
" style="fill:none;stroke:#000000;stroke-linecap:square;stroke-linejoin:miter;stroke-width:0.5;"/>
   </g>
   <g id="text_35">
    <!-- $b$ -->
    <g transform="translate(178.215228 175.309588)scale(0.16 -0.16)">
     <defs>
      <path d="M 1478 4255 
C 1485 4281 1498 4319 1498 4351 
C 1498 4416 1434 4416 1421 4416 
C 1414 4416 1184 4396 1069 4383 
C 960 4377 864 4364 749 4358 
C 595 4345 550 4339 550 4223 
C 550 4159 614 4159 678 4159 
C 1005 4159 1005 4103 1005 4040 
C 1005 3995 954 3812 928 3699 
L 774 3093 
C 710 2841 346 1392 320 1277 
C 288 1117 288 1008 288 925 
C 288 274 653 -64 1069 -64 
C 1811 -64 2579 887 2579 1813 
C 2579 2400 2246 2816 1766 2816 
C 1434 2816 1133 2541 1011 2413 
L 1478 4255 
z
M 1075 64 
C 870 64 646 217 646 715 
C 646 925 666 1047 781 1494 
C 800 1577 902 1985 928 2068 
C 941 2119 1318 2687 1754 2687 
C 2035 2687 2163 2407 2163 2075 
C 2163 1768 1984 1047 1824 715 
C 1664 370 1370 64 1075 64 
z
" id="CMMI12-62" transform="scale(0.015625)"/>
     </defs>
     <use transform="scale(0.996264)" xlink:href="#CMMI12-62"/>
    </g>
   </g>
  </g>
  <g id="axes_4">
   <g id="patch_17">
    <path d="M 394.587843 302.109588 
L 698.95148 302.109588 
L 698.95148 181.309588 
L 394.587843 181.309588 
z
" style="fill:#ffffff;"/>
   </g>
   <g id="matplotlib.axis_7">
    <g id="xtick_19">
     <g id="line2d_68">
      <path clip-path="url(#p4768da62dc)" d="M 434.042389 302.109588 
L 434.042389 181.309588 
" style="fill:none;stroke:#b0b0b0;stroke-linecap:square;stroke-width:0.5;"/>
     </g>
     <g id="line2d_69">
      <g>
       <use style="stroke:#000000;stroke-width:0.8;" x="434.042389" xlink:href="#md870316a7d" y="302.109588"/>
      </g>
     </g>
     <g id="text_36">
      <!-- $\mathdefault{0}$ -->
      <g transform="translate(431.115894 317.411768)scale(0.12 -0.12)">
       <use transform="scale(0.996264)" xlink:href="#CMR17-30"/>
      </g>
     </g>
    </g>
    <g id="xtick_20">
     <g id="line2d_70">
      <path clip-path="url(#p4768da62dc)" d="M 485.282058 302.109588 
L 485.282058 181.309588 
" style="fill:none;stroke:#b0b0b0;stroke-linecap:square;stroke-width:0.5;"/>
     </g>
     <g id="line2d_71">
      <g>
       <use style="stroke:#000000;stroke-width:0.8;" x="485.282058" xlink:href="#md870316a7d" y="302.109588"/>
      </g>
     </g>
     <g id="text_37">
      <!-- $\mathdefault{20}$ -->
      <g transform="translate(479.429068 317.411768)scale(0.12 -0.12)">
       <use transform="scale(0.996264)" xlink:href="#CMR17-32"/>
       <use transform="translate(45.690477 0)scale(0.996264)" xlink:href="#CMR17-30"/>
      </g>
     </g>
    </g>
    <g id="xtick_21">
     <g id="line2d_72">
      <path clip-path="url(#p4768da62dc)" d="M 536.521728 302.109588 
L 536.521728 181.309588 
" style="fill:none;stroke:#b0b0b0;stroke-linecap:square;stroke-width:0.5;"/>
     </g>
     <g id="line2d_73">
      <g>
       <use style="stroke:#000000;stroke-width:0.8;" x="536.521728" xlink:href="#md870316a7d" y="302.109588"/>
      </g>
     </g>
     <g id="text_38">
      <!-- $\mathdefault{40}$ -->
      <g transform="translate(530.668737 317.411768)scale(0.12 -0.12)">
       <use transform="scale(0.996264)" xlink:href="#CMR17-34"/>
       <use transform="translate(45.690477 0)scale(0.996264)" xlink:href="#CMR17-30"/>
      </g>
     </g>
    </g>
    <g id="xtick_22">
     <g id="line2d_74">
      <path clip-path="url(#p4768da62dc)" d="M 587.761397 302.109588 
L 587.761397 181.309588 
" style="fill:none;stroke:#b0b0b0;stroke-linecap:square;stroke-width:0.5;"/>
     </g>
     <g id="line2d_75">
      <g>
       <use style="stroke:#000000;stroke-width:0.8;" x="587.761397" xlink:href="#md870316a7d" y="302.109588"/>
      </g>
     </g>
     <g id="text_39">
      <!-- $\mathdefault{60}$ -->
      <g transform="translate(581.908407 317.411768)scale(0.12 -0.12)">
       <use transform="scale(0.996264)" xlink:href="#CMR17-36"/>
       <use transform="translate(45.690477 0)scale(0.996264)" xlink:href="#CMR17-30"/>
      </g>
     </g>
    </g>
    <g id="xtick_23">
     <g id="line2d_76">
      <path clip-path="url(#p4768da62dc)" d="M 639.001066 302.109588 
L 639.001066 181.309588 
" style="fill:none;stroke:#b0b0b0;stroke-linecap:square;stroke-width:0.5;"/>
     </g>
     <g id="line2d_77">
      <g>
       <use style="stroke:#000000;stroke-width:0.8;" x="639.001066" xlink:href="#md870316a7d" y="302.109588"/>
      </g>
     </g>
     <g id="text_40">
      <!-- $\mathdefault{80}$ -->
      <g transform="translate(633.148076 317.411768)scale(0.12 -0.12)">
       <use transform="scale(0.996264)" xlink:href="#CMR17-38"/>
       <use transform="translate(45.690477 0)scale(0.996264)" xlink:href="#CMR17-30"/>
      </g>
     </g>
    </g>
    <g id="xtick_24">
     <g id="line2d_78">
      <path clip-path="url(#p4768da62dc)" d="M 690.240736 302.109588 
L 690.240736 181.309588 
" style="fill:none;stroke:#b0b0b0;stroke-linecap:square;stroke-width:0.5;"/>
     </g>
     <g id="line2d_79">
      <g>
       <use style="stroke:#000000;stroke-width:0.8;" x="690.240736" xlink:href="#md870316a7d" y="302.109588"/>
      </g>
     </g>
     <g id="text_41">
      <!-- $\mathdefault{100}$ -->
      <g transform="translate(681.461251 317.411768)scale(0.12 -0.12)">
       <use transform="scale(0.996264)" xlink:href="#CMR17-31"/>
       <use transform="translate(45.690477 0)scale(0.996264)" xlink:href="#CMR17-30"/>
       <use transform="translate(91.380954 0)scale(0.996264)" xlink:href="#CMR17-30"/>
      </g>
     </g>
    </g>
   </g>
   <g id="matplotlib.axis_8">
    <g id="ytick_15">
     <g id="line2d_80">
      <path clip-path="url(#p4768da62dc)" d="M 394.587843 295.003706 
L 698.95148 295.003706 
" style="fill:none;stroke:#b0b0b0;stroke-linecap:square;stroke-width:0.5;"/>
     </g>
     <g id="line2d_81">
      <g>
       <use style="stroke:#000000;stroke-width:0.8;" x="394.587843" xlink:href="#m91a653ac3c" y="295.003706"/>
      </g>
     </g>
     <g id="text_42">
      <!-- $\mathdefault{−5}$ -->
      <g transform="translate(372.436364 299.154796)scale(0.12 -0.12)">
       <use transform="scale(0.996264)" xlink:href="#CMSY10-0"/>
       <use transform="translate(77.487468 0)scale(0.996264)" xlink:href="#CMR17-35"/>
      </g>
     </g>
    </g>
    <g id="ytick_16">
     <g id="line2d_82">
      <path clip-path="url(#p4768da62dc)" d="M 394.587843 259.474294 
L 698.95148 259.474294 
" style="fill:none;stroke:#b0b0b0;stroke-linecap:square;stroke-width:0.5;"/>
     </g>
     <g id="line2d_83">
      <g>
       <use style="stroke:#000000;stroke-width:0.8;" x="394.587843" xlink:href="#m91a653ac3c" y="259.474294"/>
      </g>
     </g>
     <g id="text_43">
      <!-- $\mathdefault{0}$ -->
      <g transform="translate(381.734853 263.625384)scale(0.12 -0.12)">
       <use transform="scale(0.996264)" xlink:href="#CMR17-30"/>
      </g>
     </g>
    </g>
    <g id="ytick_17">
     <g id="line2d_84">
      <path clip-path="url(#p4768da62dc)" d="M 394.587843 223.944882 
L 698.95148 223.944882 
" style="fill:none;stroke:#b0b0b0;stroke-linecap:square;stroke-width:0.5;"/>
     </g>
     <g id="line2d_85">
      <g>
       <use style="stroke:#000000;stroke-width:0.8;" x="394.587843" xlink:href="#m91a653ac3c" y="223.944882"/>
      </g>
     </g>
     <g id="text_44">
      <!-- $\mathdefault{5}$ -->
      <g transform="translate(381.734853 228.095972)scale(0.12 -0.12)">
       <use transform="scale(0.996264)" xlink:href="#CMR17-35"/>
      </g>
     </g>
    </g>
    <g id="ytick_18">
     <g id="line2d_86">
      <path clip-path="url(#p4768da62dc)" d="M 394.587843 188.415471 
L 698.95148 188.415471 
" style="fill:none;stroke:#b0b0b0;stroke-linecap:square;stroke-width:0.5;"/>
     </g>
     <g id="line2d_87">
      <g>
       <use style="stroke:#000000;stroke-width:0.8;" x="394.587843" xlink:href="#m91a653ac3c" y="188.415471"/>
      </g>
     </g>
     <g id="text_45">
      <!-- $\mathdefault{10}$ -->
      <g transform="translate(375.881863 192.566561)scale(0.12 -0.12)">
       <use transform="scale(0.996264)" xlink:href="#CMR17-31"/>
       <use transform="translate(45.690477 0)scale(0.996264)" xlink:href="#CMR17-30"/>
      </g>
     </g>
    </g>
   </g>
   <g id="line2d_88">
    <path clip-path="url(#p4768da62dc)" d="M 408.422554 261.13963 
L 410.984538 261.364468 
L 413.546521 269.900561 
L 416.108504 263.346152 
L 418.670488 270.512597 
L 421.232471 273.876162 
L 423.794455 271.866682 
L 426.356438 276.842768 
L 428.918422 281.070272 
L 431.480405 284.702604 
L 434.042389 280.833696 
L 436.604372 271.449352 
L 439.166356 262.74727 
L 441.728339 273.768833 
L 444.290323 264.448348 
L 446.852306 263.466996 
L 449.41429 265.55292 
L 451.976273 255.88161 
L 454.538257 254.642547 
L 457.10024 250.974151 
L 459.662223 256.686582 
L 462.224207 266.471188 
L 464.78619 265.611938 
L 467.348174 265.095878 
L 469.910157 268.603828 
L 472.472141 267.16539 
L 475.034124 269.636971 
L 477.596108 279.077812 
L 480.158091 281.768458 
L 482.720075 282.417878 
L 485.282058 279.984153 
L 487.844042 270.442664 
L 490.406025 281.197066 
L 492.968009 276.795525 
L 495.529992 273.961345 
L 498.091976 267.584566 
L 500.653959 263.031154 
L 503.215942 261.658957 
L 505.777926 255.979831 
L 508.339909 253.199271 
L 510.901893 253.376896 
L 513.463876 259.212374 
L 516.02586 256.947972 
L 518.587843 250.480724 
L 521.149827 246.096255 
L 523.71181 252.870602 
L 526.273794 252.433113 
L 528.835777 248.868006 
L 531.397761 252.181213 
L 533.959744 253.997932 
L 536.521728 248.747782 
L 539.083711 253.351511 
L 541.645695 247.387898 
L 544.207678 254.603173 
L 546.769661 258.735692 
L 549.331645 252.286033 
L 551.893628 257.265044 
L 554.455612 255.425215 
L 557.017595 251.248462 
L 559.579579 259.025834 
L 562.141562 264.698787 
L 564.703546 263.704744 
L 567.265529 262.361715 
L 569.827513 260.761448 
L 572.389496 270.64666 
L 574.95148 275.570142 
L 577.513463 275.741952 
L 580.075447 283.525368 
L 582.63743 282.2939 
L 585.199414 271.928886 
L 587.761397 272.863669 
L 590.323381 268.968495 
L 592.885364 270.334888 
L 595.447347 271.37189 
L 598.009331 267.609385 
L 600.571314 261.462717 
L 603.133298 269.38175 
L 605.695281 263.995289 
L 608.257265 263.312691 
L 610.819248 274.37641 
L 613.381232 272.523173 
L 615.943215 276.198131 
L 618.505199 271.378161 
L 621.067182 266.656073 
L 623.629166 263.879514 
L 626.191149 275.743457 
L 628.753133 259.6531 
L 631.315116 254.421075 
L 633.8771 259.044867 
L 636.439083 249.517148 
L 639.001066 247.23413 
L 641.56305 244.662772 
L 644.125033 247.142227 
L 646.687017 246.508939 
L 649.249 251.83978 
L 651.810984 242.148278 
L 654.372967 246.091316 
L 656.934951 251.825561 
L 659.496934 245.290069 
L 662.058918 256.057072 
L 664.620901 257.582983 
L 667.182885 259.845781 
L 669.744868 260.661782 
L 672.306852 266.282844 
L 674.868835 259.338077 
L 677.430819 263.497138 
L 679.992802 265.017478 
L 682.554785 264.14982 
L 685.116769 268.839172 
" style="fill:none;stroke:#1f77b4;stroke-linecap:square;stroke-width:1.5;"/>
   </g>
   <g id="patch_18">
    <path d="M 394.587843 302.109588 
L 394.587843 181.309588 
" style="fill:none;stroke:#000000;stroke-linecap:square;stroke-linejoin:miter;stroke-width:0.5;"/>
   </g>
   <g id="patch_19">
    <path d="M 698.95148 302.109588 
L 698.95148 181.309588 
" style="fill:none;stroke:#000000;stroke-linecap:square;stroke-linejoin:miter;stroke-width:0.5;"/>
   </g>
   <g id="patch_20">
    <path d="M 394.587843 302.109588 
L 698.95148 302.109588 
" style="fill:none;stroke:#000000;stroke-linecap:square;stroke-linejoin:miter;stroke-width:0.5;"/>
   </g>
   <g id="patch_21">
    <path d="M 394.587843 181.309588 
L 698.95148 181.309588 
" style="fill:none;stroke:#000000;stroke-linecap:square;stroke-linejoin:miter;stroke-width:0.5;"/>
   </g>
   <g id="text_46">
    <!-- $R_{bx}$ -->
    <g transform="translate(535.246672 175.309588)scale(0.16 -0.16)">
     <use transform="scale(0.996264)" xlink:href="#CMMI12-52"/>
     <use transform="translate(74.250826 -14.943915)scale(0.697382)" xlink:href="#CMMI12-62"/>
     <use transform="translate(103.283813 -14.943915)scale(0.697382)" xlink:href="#CMMI12-78"/>
    </g>
   </g>
  </g>
  <g id="axes_5">
   <g id="patch_22">
    <path d="M 29.35148 459.149588 
L 333.715116 459.149588 
L 333.715116 338.349588 
L 29.35148 338.349588 
z
" style="fill:#ffffff;"/>
   </g>
   <g id="matplotlib.axis_9">
    <g id="xtick_25">
     <g id="line2d_89">
      <path clip-path="url(#pcadabdf69e)" d="M 43.18619 459.149588 
L 43.18619 338.349588 
" style="fill:none;stroke:#b0b0b0;stroke-linecap:square;stroke-width:0.5;"/>
     </g>
     <g id="line2d_90">
      <g>
       <use style="stroke:#000000;stroke-width:0.8;" x="43.18619" xlink:href="#md870316a7d" y="459.149588"/>
      </g>
     </g>
     <g id="text_47">
      <!-- $\mathdefault{0}$ -->
      <g transform="translate(40.259695 474.451768)scale(0.12 -0.12)">
       <use transform="scale(0.996264)" xlink:href="#CMR17-30"/>
      </g>
     </g>
    </g>
    <g id="xtick_26">
     <g id="line2d_91">
      <path clip-path="url(#pcadabdf69e)" d="M 99.084012 459.149588 
L 99.084012 338.349588 
" style="fill:none;stroke:#b0b0b0;stroke-linecap:square;stroke-width:0.5;"/>
     </g>
     <g id="line2d_92">
      <g>
       <use style="stroke:#000000;stroke-width:0.8;" x="99.084012" xlink:href="#md870316a7d" y="459.149588"/>
      </g>
     </g>
     <g id="text_48">
      <!-- $\mathdefault{20}$ -->
      <g transform="translate(93.231021 474.451768)scale(0.12 -0.12)">
       <use transform="scale(0.996264)" xlink:href="#CMR17-32"/>
       <use transform="translate(45.690477 0)scale(0.996264)" xlink:href="#CMR17-30"/>
      </g>
     </g>
    </g>
    <g id="xtick_27">
     <g id="line2d_93">
      <path clip-path="url(#pcadabdf69e)" d="M 154.981833 459.149588 
L 154.981833 338.349588 
" style="fill:none;stroke:#b0b0b0;stroke-linecap:square;stroke-width:0.5;"/>
     </g>
     <g id="line2d_94">
      <g>
       <use style="stroke:#000000;stroke-width:0.8;" x="154.981833" xlink:href="#md870316a7d" y="459.149588"/>
      </g>
     </g>
     <g id="text_49">
      <!-- $\mathdefault{40}$ -->
      <g transform="translate(149.128843 474.451768)scale(0.12 -0.12)">
       <use transform="scale(0.996264)" xlink:href="#CMR17-34"/>
       <use transform="translate(45.690477 0)scale(0.996264)" xlink:href="#CMR17-30"/>
      </g>
     </g>
    </g>
    <g id="xtick_28">
     <g id="line2d_95">
      <path clip-path="url(#pcadabdf69e)" d="M 210.879654 459.149588 
L 210.879654 338.349588 
" style="fill:none;stroke:#b0b0b0;stroke-linecap:square;stroke-width:0.5;"/>
     </g>
     <g id="line2d_96">
      <g>
       <use style="stroke:#000000;stroke-width:0.8;" x="210.879654" xlink:href="#md870316a7d" y="459.149588"/>
      </g>
     </g>
     <g id="text_50">
      <!-- $\mathdefault{60}$ -->
      <g transform="translate(205.026664 474.451768)scale(0.12 -0.12)">
       <use transform="scale(0.996264)" xlink:href="#CMR17-36"/>
       <use transform="translate(45.690477 0)scale(0.996264)" xlink:href="#CMR17-30"/>
      </g>
     </g>
    </g>
    <g id="xtick_29">
     <g id="line2d_97">
      <path clip-path="url(#pcadabdf69e)" d="M 266.777475 459.149588 
L 266.777475 338.349588 
" style="fill:none;stroke:#b0b0b0;stroke-linecap:square;stroke-width:0.5;"/>
     </g>
     <g id="line2d_98">
      <g>
       <use style="stroke:#000000;stroke-width:0.8;" x="266.777475" xlink:href="#md870316a7d" y="459.149588"/>
      </g>
     </g>
     <g id="text_51">
      <!-- $\mathdefault{80}$ -->
      <g transform="translate(260.924485 474.451768)scale(0.12 -0.12)">
       <use transform="scale(0.996264)" xlink:href="#CMR17-38"/>
       <use transform="translate(45.690477 0)scale(0.996264)" xlink:href="#CMR17-30"/>
      </g>
     </g>
    </g>
    <g id="xtick_30">
     <g id="line2d_99">
      <path clip-path="url(#pcadabdf69e)" d="M 322.675296 459.149588 
L 322.675296 338.349588 
" style="fill:none;stroke:#b0b0b0;stroke-linecap:square;stroke-width:0.5;"/>
     </g>
     <g id="line2d_100">
      <g>
       <use style="stroke:#000000;stroke-width:0.8;" x="322.675296" xlink:href="#md870316a7d" y="459.149588"/>
      </g>
     </g>
     <g id="text_52">
      <!-- $\mathdefault{100}$ -->
      <g transform="translate(313.895811 474.451768)scale(0.12 -0.12)">
       <use transform="scale(0.996264)" xlink:href="#CMR17-31"/>
       <use transform="translate(45.690477 0)scale(0.996264)" xlink:href="#CMR17-30"/>
       <use transform="translate(91.380954 0)scale(0.996264)" xlink:href="#CMR17-30"/>
      </g>
     </g>
    </g>
   </g>
   <g id="matplotlib.axis_10">
    <g id="ytick_19">
     <g id="line2d_101">
      <path clip-path="url(#pcadabdf69e)" d="M 29.35148 459.149588 
L 333.715116 459.149588 
" style="fill:none;stroke:#b0b0b0;stroke-linecap:square;stroke-width:0.5;"/>
     </g>
     <g id="line2d_102">
      <g>
       <use style="stroke:#000000;stroke-width:0.8;" x="29.35148" xlink:href="#m91a653ac3c" y="459.149588"/>
      </g>
     </g>
     <g id="text_53">
      <!-- $\mathdefault{−2}$ -->
      <g transform="translate(7.2 463.300678)scale(0.12 -0.12)">
       <use transform="scale(0.996264)" xlink:href="#CMSY10-0"/>
       <use transform="translate(77.487468 0)scale(0.996264)" xlink:href="#CMR17-32"/>
      </g>
     </g>
    </g>
    <g id="ytick_20">
     <g id="line2d_103">
      <path clip-path="url(#pcadabdf69e)" d="M 29.35148 428.949588 
L 333.715116 428.949588 
" style="fill:none;stroke:#b0b0b0;stroke-linecap:square;stroke-width:0.5;"/>
     </g>
     <g id="line2d_104">
      <g>
       <use style="stroke:#000000;stroke-width:0.8;" x="29.35148" xlink:href="#m91a653ac3c" y="428.949588"/>
      </g>
     </g>
     <g id="text_54">
      <!-- $\mathdefault{−1}$ -->
      <g transform="translate(7.2 433.100678)scale(0.12 -0.12)">
       <use transform="scale(0.996264)" xlink:href="#CMSY10-0"/>
       <use transform="translate(77.487468 0)scale(0.996264)" xlink:href="#CMR17-31"/>
      </g>
     </g>
    </g>
    <g id="ytick_21">
     <g id="line2d_105">
      <path clip-path="url(#pcadabdf69e)" d="M 29.35148 398.749588 
L 333.715116 398.749588 
" style="fill:none;stroke:#b0b0b0;stroke-linecap:square;stroke-width:0.5;"/>
     </g>
     <g id="line2d_106">
      <g>
       <use style="stroke:#000000;stroke-width:0.8;" x="29.35148" xlink:href="#m91a653ac3c" y="398.749588"/>
      </g>
     </g>
     <g id="text_55">
      <!-- $\mathdefault{0}$ -->
      <g transform="translate(16.498489 402.900678)scale(0.12 -0.12)">
       <use transform="scale(0.996264)" xlink:href="#CMR17-30"/>
      </g>
     </g>
    </g>
    <g id="ytick_22">
     <g id="line2d_107">
      <path clip-path="url(#pcadabdf69e)" d="M 29.35148 368.549588 
L 333.715116 368.549588 
" style="fill:none;stroke:#b0b0b0;stroke-linecap:square;stroke-width:0.5;"/>
     </g>
     <g id="line2d_108">
      <g>
       <use style="stroke:#000000;stroke-width:0.8;" x="29.35148" xlink:href="#m91a653ac3c" y="368.549588"/>
      </g>
     </g>
     <g id="text_56">
      <!-- $\mathdefault{1}$ -->
      <g transform="translate(16.498489 372.700678)scale(0.12 -0.12)">
       <use transform="scale(0.996264)" xlink:href="#CMR17-31"/>
      </g>
     </g>
    </g>
    <g id="ytick_23">
     <g id="line2d_109">
      <path clip-path="url(#pcadabdf69e)" d="M 29.35148 338.349588 
L 333.715116 338.349588 
" style="fill:none;stroke:#b0b0b0;stroke-linecap:square;stroke-width:0.5;"/>
     </g>
     <g id="line2d_110">
      <g>
       <use style="stroke:#000000;stroke-width:0.8;" x="29.35148" xlink:href="#m91a653ac3c" y="338.349588"/>
      </g>
     </g>
     <g id="text_57">
      <!-- $\mathdefault{2}$ -->
      <g transform="translate(16.498489 342.500678)scale(0.12 -0.12)">
       <use transform="scale(0.996264)" xlink:href="#CMR17-32"/>
      </g>
     </g>
    </g>
   </g>
   <g id="line2d_111">
    <path clip-path="url(#pcadabdf69e)" d="M 43.18619 405.827265 
L 45.981081 399.705151 
L 48.775973 435.027983 
L 51.570864 370.893348 
L 54.365755 429.206981 
L 57.160646 413.044738 
L 59.955537 390.2093 
L 62.750428 419.897952 
L 65.545319 416.716482 
L 68.34021 414.186999 
L 71.135101 389.384405 
L 73.929992 359.821689 
L 76.724883 398.044137 
L 79.519774 417.73499 
L 82.314665 389.594918 
L 85.109556 408.873994 
L 87.904447 399.074476 
L 90.699338 378.794886 
L 93.494229 411.450462 
L 96.289121 398.596315 
L 99.084012 413.662238 
L 101.878903 401.406264 
L 104.673794 394.392327 
L 107.468685 415.541734 
L 110.263576 404.503703 
L 113.058467 402.760633 
L 115.853358 409.578697 
L 118.648249 418.918461 
L 121.44314 422.885705 
L 124.238031 401.356352 
L 127.032922 403.318904 
L 129.827813 360.854938 
L 132.622704 440.098535 
L 135.417595 396.835187 
L 138.212486 392.458437 
L 141.007378 375.659323 
L 143.802269 390.226694 
L 146.59716 413.086623 
L 149.392051 398.749423 
L 152.186942 389.538973 
L 154.981833 404.073806 
L 157.776724 385.655721 
L 160.571615 430.474826 
L 163.366506 369.349385 
L 166.161397 373.824441 
L 168.956288 404.450299 
L 171.751179 388.367366 
L 174.54607 397.934918 
L 177.340961 412.830551 
L 180.135852 397.260031 
L 182.930743 381.760667 
L 185.725634 405.221571 
L 188.520526 405.129472 
L 191.315417 400.014304 
L 194.110308 391.387647 
L 196.905199 377.039247 
L 199.70009 409.528162 
L 202.494981 390.115643 
L 205.289872 395.079353 
L 208.084763 430.31386 
L 210.879654 405.870718 
L 213.674545 370.796891 
L 216.469436 369.221598 
L 219.264327 363.013167 
L 222.059218 403.199799 
L 224.854109 367.764044 
L 227.649 380.058355 
L 230.443891 392.995161 
L 233.238782 359.645615 
L 236.033674 356.06255 
L 238.828565 379.643547 
L 241.623456 384.442399 
L 244.418347 405.228771 
L 247.213238 397.620425 
L 250.008129 417.409151 
L 252.80302 371.840707 
L 255.597911 443.914242 
L 258.392802 400.302701 
L 261.187693 386.944575 
L 263.982584 433.283357 
L 266.777475 401.967289 
L 269.572366 400.06097 
L 272.367257 384.743898 
L 275.162148 377.551553 
L 277.957039 405.608773 
L 280.75193 422.262465 
L 283.546822 375.530228 
L 286.341713 378.066592 
L 289.136604 406.59569 
L 291.931495 392.790551 
L 294.726386 392.264466 
L 297.521277 389.132698 
L 300.316168 395.281584 
L 303.111059 374.860077 
L 305.90595 428.264847 
L 308.700841 381.073579 
L 311.495732 392.288144 
L 314.290623 402.437133 
L 317.085514 378.819845 
L 319.880405 438.550317 
" style="fill:none;stroke:#1f77b4;stroke-linecap:square;stroke-width:1.5;"/>
   </g>
   <g id="patch_23">
    <path d="M 29.35148 459.149588 
L 29.35148 338.349588 
" style="fill:none;stroke:#000000;stroke-linecap:square;stroke-linejoin:miter;stroke-width:0.5;"/>
   </g>
   <g id="patch_24">
    <path d="M 333.715116 459.149588 
L 333.715116 338.349588 
" style="fill:none;stroke:#000000;stroke-linecap:square;stroke-linejoin:miter;stroke-width:0.5;"/>
   </g>
   <g id="patch_25">
    <path d="M 29.35148 459.149588 
L 333.715116 459.149588 
" style="fill:none;stroke:#000000;stroke-linecap:square;stroke-linejoin:miter;stroke-width:0.5;"/>
   </g>
   <g id="patch_26">
    <path d="M 29.35148 338.349588 
L 333.715116 338.349588 
" style="fill:none;stroke:#000000;stroke-linecap:square;stroke-linejoin:miter;stroke-width:0.5;"/>
   </g>
   <g id="text_58">
    <!-- $y=x+b$ -->
    <g transform="translate(149.579782 332.349588)scale(0.16 -0.16)">
     <defs>
      <path d="M 1683 -673 
C 1510 -921 1261 -1152 947 -1152 
C 870 -1152 563 -1139 467 -826 
C 486 -833 518 -833 531 -833 
C 723 -833 851 -666 851 -519 
C 851 -372 730 -320 634 -320 
C 531 -320 307 -397 307 -711 
C 307 -1050 582 -1280 947 -1280 
C 1587 -1280 2234 -673 2413 -7 
L 3040 2483 
C 3046 2515 3059 2553 3059 2591 
C 3059 2687 2982 2752 2886 2752 
C 2829 2752 2694 2726 2643 2534 
L 2170 657 
C 2138 542 2138 530 2086 459 
C 1958 281 1747 64 1440 64 
C 1082 64 1050 415 1050 587 
C 1050 951 1222 1443 1395 1902 
C 1466 2087 1504 2177 1504 2305 
C 1504 2573 1312 2816 998 2816 
C 410 2816 173 1890 173 1838 
C 173 1813 198 1781 243 1781 
C 301 1781 307 1807 333 1896 
C 486 2432 730 2687 979 2687 
C 1037 2687 1146 2687 1146 2477 
C 1146 2311 1075 2126 979 1883 
C 666 1047 666 836 666 683 
C 666 76 1101 -64 1421 -64 
C 1606 -64 1837 -7 2061 230 
L 2067 223 
C 1971 -141 1907 -359 1683 -673 
z
" id="CMMI12-79" transform="scale(0.015625)"/>
      <path d="M 4115 2048 
C 4211 2048 4307 2048 4307 2156 
C 4307 2272 4198 2272 4090 2272 
L 512 2272 
C 403 2272 294 2272 294 2156 
C 294 2048 390 2048 486 2048 
L 4115 2048 
z
M 4090 927 
C 4198 927 4307 927 4307 1043 
C 4307 1152 4211 1152 4115 1152 
L 486 1152 
C 390 1152 294 1152 294 1043 
C 294 927 403 927 512 927 
L 4090 927 
z
" id="CMR17-3d" transform="scale(0.015625)"/>
      <path d="M 2413 1472 
L 4109 1472 
C 4198 1472 4307 1472 4307 1580 
C 4307 1696 4205 1696 4109 1696 
L 2413 1696 
L 2413 3385 
C 2413 3475 2413 3584 2304 3584 
C 2189 3584 2189 3481 2189 3385 
L 2189 1696 
L 493 1696 
C 403 1696 294 1696 294 1587 
C 294 1472 397 1472 493 1472 
L 2189 1472 
L 2189 -194 
C 2189 -282 2189 -391 2298 -391 
C 2413 -391 2413 -289 2413 -194 
L 2413 1472 
z
" id="CMR17-2b" transform="scale(0.015625)"/>
     </defs>
     <use transform="scale(0.996264)" xlink:href="#CMMI12-79"/>
     <use transform="translate(78.812789 0)scale(0.996264)" xlink:href="#CMR17-3d"/>
     <use transform="translate(178.201587 0)scale(0.996264)" xlink:href="#CMMI12-78"/>
     <use transform="translate(255.774853 0)scale(0.996264)" xlink:href="#CMR17-2b"/>
     <use transform="translate(349.628848 0)scale(0.996264)" xlink:href="#CMMI12-62"/>
    </g>
   </g>
  </g>
  <g id="axes_6">
   <g id="patch_27">
    <path d="M 394.587843 459.149588 
L 698.95148 459.149588 
L 698.95148 338.349588 
L 394.587843 338.349588 
z
" style="fill:#ffffff;"/>
   </g>
   <g id="matplotlib.axis_11">
    <g id="xtick_31">
     <g id="line2d_112">
      <path clip-path="url(#p5060f3052d)" d="M 434.042389 459.149588 
L 434.042389 338.349588 
" style="fill:none;stroke:#b0b0b0;stroke-linecap:square;stroke-width:0.5;"/>
     </g>
     <g id="line2d_113">
      <g>
       <use style="stroke:#000000;stroke-width:0.8;" x="434.042389" xlink:href="#md870316a7d" y="459.149588"/>
      </g>
     </g>
     <g id="text_59">
      <!-- $\mathdefault{0}$ -->
      <g transform="translate(431.115894 474.451768)scale(0.12 -0.12)">
       <use transform="scale(0.996264)" xlink:href="#CMR17-30"/>
      </g>
     </g>
    </g>
    <g id="xtick_32">
     <g id="line2d_114">
      <path clip-path="url(#p5060f3052d)" d="M 485.282058 459.149588 
L 485.282058 338.349588 
" style="fill:none;stroke:#b0b0b0;stroke-linecap:square;stroke-width:0.5;"/>
     </g>
     <g id="line2d_115">
      <g>
       <use style="stroke:#000000;stroke-width:0.8;" x="485.282058" xlink:href="#md870316a7d" y="459.149588"/>
      </g>
     </g>
     <g id="text_60">
      <!-- $\mathdefault{20}$ -->
      <g transform="translate(479.429068 474.451768)scale(0.12 -0.12)">
       <use transform="scale(0.996264)" xlink:href="#CMR17-32"/>
       <use transform="translate(45.690477 0)scale(0.996264)" xlink:href="#CMR17-30"/>
      </g>
     </g>
    </g>
    <g id="xtick_33">
     <g id="line2d_116">
      <path clip-path="url(#p5060f3052d)" d="M 536.521728 459.149588 
L 536.521728 338.349588 
" style="fill:none;stroke:#b0b0b0;stroke-linecap:square;stroke-width:0.5;"/>
     </g>
     <g id="line2d_117">
      <g>
       <use style="stroke:#000000;stroke-width:0.8;" x="536.521728" xlink:href="#md870316a7d" y="459.149588"/>
      </g>
     </g>
     <g id="text_61">
      <!-- $\mathdefault{40}$ -->
      <g transform="translate(530.668737 474.451768)scale(0.12 -0.12)">
       <use transform="scale(0.996264)" xlink:href="#CMR17-34"/>
       <use transform="translate(45.690477 0)scale(0.996264)" xlink:href="#CMR17-30"/>
      </g>
     </g>
    </g>
    <g id="xtick_34">
     <g id="line2d_118">
      <path clip-path="url(#p5060f3052d)" d="M 587.761397 459.149588 
L 587.761397 338.349588 
" style="fill:none;stroke:#b0b0b0;stroke-linecap:square;stroke-width:0.5;"/>
     </g>
     <g id="line2d_119">
      <g>
       <use style="stroke:#000000;stroke-width:0.8;" x="587.761397" xlink:href="#md870316a7d" y="459.149588"/>
      </g>
     </g>
     <g id="text_62">
      <!-- $\mathdefault{60}$ -->
      <g transform="translate(581.908407 474.451768)scale(0.12 -0.12)">
       <use transform="scale(0.996264)" xlink:href="#CMR17-36"/>
       <use transform="translate(45.690477 0)scale(0.996264)" xlink:href="#CMR17-30"/>
      </g>
     </g>
    </g>
    <g id="xtick_35">
     <g id="line2d_120">
      <path clip-path="url(#p5060f3052d)" d="M 639.001066 459.149588 
L 639.001066 338.349588 
" style="fill:none;stroke:#b0b0b0;stroke-linecap:square;stroke-width:0.5;"/>
     </g>
     <g id="line2d_121">
      <g>
       <use style="stroke:#000000;stroke-width:0.8;" x="639.001066" xlink:href="#md870316a7d" y="459.149588"/>
      </g>
     </g>
     <g id="text_63">
      <!-- $\mathdefault{80}$ -->
      <g transform="translate(633.148076 474.451768)scale(0.12 -0.12)">
       <use transform="scale(0.996264)" xlink:href="#CMR17-38"/>
       <use transform="translate(45.690477 0)scale(0.996264)" xlink:href="#CMR17-30"/>
      </g>
     </g>
    </g>
    <g id="xtick_36">
     <g id="line2d_122">
      <path clip-path="url(#p5060f3052d)" d="M 690.240736 459.149588 
L 690.240736 338.349588 
" style="fill:none;stroke:#b0b0b0;stroke-linecap:square;stroke-width:0.5;"/>
     </g>
     <g id="line2d_123">
      <g>
       <use style="stroke:#000000;stroke-width:0.8;" x="690.240736" xlink:href="#md870316a7d" y="459.149588"/>
      </g>
     </g>
     <g id="text_64">
      <!-- $\mathdefault{100}$ -->
      <g transform="translate(681.461251 474.451768)scale(0.12 -0.12)">
       <use transform="scale(0.996264)" xlink:href="#CMR17-31"/>
       <use transform="translate(45.690477 0)scale(0.996264)" xlink:href="#CMR17-30"/>
       <use transform="translate(91.380954 0)scale(0.996264)" xlink:href="#CMR17-30"/>
      </g>
     </g>
    </g>
   </g>
   <g id="matplotlib.axis_12">
    <g id="ytick_24">
     <g id="line2d_124">
      <path clip-path="url(#p5060f3052d)" d="M 394.587843 452.043706 
L 698.95148 452.043706 
" style="fill:none;stroke:#b0b0b0;stroke-linecap:square;stroke-width:0.5;"/>
     </g>
     <g id="line2d_125">
      <g>
       <use style="stroke:#000000;stroke-width:0.8;" x="394.587843" xlink:href="#m91a653ac3c" y="452.043706"/>
      </g>
     </g>
     <g id="text_65">
      <!-- $\mathdefault{−5}$ -->
      <g transform="translate(372.436364 456.194796)scale(0.12 -0.12)">
       <use transform="scale(0.996264)" xlink:href="#CMSY10-0"/>
       <use transform="translate(77.487468 0)scale(0.996264)" xlink:href="#CMR17-35"/>
      </g>
     </g>
    </g>
    <g id="ytick_25">
     <g id="line2d_126">
      <path clip-path="url(#p5060f3052d)" d="M 394.587843 416.514294 
L 698.95148 416.514294 
" style="fill:none;stroke:#b0b0b0;stroke-linecap:square;stroke-width:0.5;"/>
     </g>
     <g id="line2d_127">
      <g>
       <use style="stroke:#000000;stroke-width:0.8;" x="394.587843" xlink:href="#m91a653ac3c" y="416.514294"/>
      </g>
     </g>
     <g id="text_66">
      <!-- $\mathdefault{0}$ -->
      <g transform="translate(381.734853 420.665384)scale(0.12 -0.12)">
       <use transform="scale(0.996264)" xlink:href="#CMR17-30"/>
      </g>
     </g>
    </g>
    <g id="ytick_26">
     <g id="line2d_128">
      <path clip-path="url(#p5060f3052d)" d="M 394.587843 380.984882 
L 698.95148 380.984882 
" style="fill:none;stroke:#b0b0b0;stroke-linecap:square;stroke-width:0.5;"/>
     </g>
     <g id="line2d_129">
      <g>
       <use style="stroke:#000000;stroke-width:0.8;" x="394.587843" xlink:href="#m91a653ac3c" y="380.984882"/>
      </g>
     </g>
     <g id="text_67">
      <!-- $\mathdefault{5}$ -->
      <g transform="translate(381.734853 385.135972)scale(0.12 -0.12)">
       <use transform="scale(0.996264)" xlink:href="#CMR17-35"/>
      </g>
     </g>
    </g>
    <g id="ytick_27">
     <g id="line2d_130">
      <path clip-path="url(#p5060f3052d)" d="M 394.587843 345.455471 
L 698.95148 345.455471 
" style="fill:none;stroke:#b0b0b0;stroke-linecap:square;stroke-width:0.5;"/>
     </g>
     <g id="line2d_131">
      <g>
       <use style="stroke:#000000;stroke-width:0.8;" x="394.587843" xlink:href="#m91a653ac3c" y="345.455471"/>
      </g>
     </g>
     <g id="text_68">
      <!-- $\mathdefault{10}$ -->
      <g transform="translate(375.881863 349.606561)scale(0.12 -0.12)">
       <use transform="scale(0.996264)" xlink:href="#CMR17-31"/>
       <use transform="translate(45.690477 0)scale(0.996264)" xlink:href="#CMR17-30"/>
      </g>
     </g>
    </g>
   </g>
   <g id="line2d_132">
    <path clip-path="url(#p5060f3052d)" d="M 408.422554 418.17963 
L 410.984538 418.404468 
L 413.546521 426.940561 
L 416.108504 420.386152 
L 418.670488 427.552597 
L 421.232471 430.916162 
L 423.794455 428.906682 
L 426.356438 433.882768 
L 428.918422 438.110272 
L 431.480405 441.742604 
L 434.042389 437.873696 
L 436.604372 428.489352 
L 439.166356 419.78727 
L 441.728339 430.808833 
L 444.290323 421.488348 
L 446.852306 420.506996 
L 449.41429 422.59292 
L 451.976273 412.92161 
L 454.538257 411.682547 
L 457.10024 408.014151 
L 459.662223 413.726582 
L 462.224207 423.511188 
L 464.78619 422.651938 
L 467.348174 422.135878 
L 469.910157 425.643828 
L 472.472141 424.20539 
L 475.034124 426.676971 
L 477.596108 436.117812 
L 480.158091 438.808458 
L 482.720075 439.457878 
L 485.282058 437.024153 
L 487.844042 427.482664 
L 490.406025 438.237066 
L 492.968009 433.835525 
L 495.529992 431.001345 
L 498.091976 424.624566 
L 500.653959 420.071154 
L 503.215942 418.698957 
L 505.777926 413.019831 
L 508.339909 410.239271 
L 510.901893 410.416896 
L 513.463876 416.252374 
L 516.02586 413.987972 
L 518.587843 407.520724 
L 521.149827 403.136255 
L 523.71181 409.910602 
L 526.273794 409.473113 
L 528.835777 405.908006 
L 531.397761 409.221213 
L 533.959744 411.037932 
L 536.521728 405.787782 
L 539.083711 410.391511 
L 541.645695 404.427898 
L 544.207678 411.643173 
L 546.769661 415.775692 
L 549.331645 409.326033 
L 551.893628 414.305044 
L 554.455612 412.465215 
L 557.017595 408.288462 
L 559.579579 416.065834 
L 562.141562 421.738787 
L 564.703546 413.638862 
L 567.265529 405.189951 
L 569.827513 396.483801 
L 572.389496 399.263131 
L 574.95148 397.08073 
L 577.513463 390.146658 
L 580.075447 390.824191 
L 582.63743 382.486841 
L 585.199414 365.015945 
L 587.761397 358.844846 
L 590.323381 362.055554 
L 592.885364 370.52783 
L 595.447347 378.670714 
L 598.009331 382.014091 
L 600.571314 382.973306 
L 603.133298 397.99822 
L 605.695281 399.717641 
L 608.257265 406.140926 
L 610.819248 424.310528 
L 613.381232 429.563173 
L 615.943215 433.238131 
L 618.505199 428.418161 
L 621.067182 423.696073 
L 623.629166 420.919514 
L 626.191149 432.783457 
L 628.753133 416.6931 
L 631.315116 411.461075 
L 633.8771 416.084867 
L 636.439083 406.557148 
L 639.001066 404.27413 
L 641.56305 401.702772 
L 644.125033 404.182227 
L 646.687017 403.548939 
L 649.249 408.87978 
L 651.810984 399.188278 
L 654.372967 403.131316 
L 656.934951 408.865561 
L 659.496934 402.330069 
L 662.058918 413.097072 
L 664.620901 414.622983 
L 667.182885 416.885781 
L 669.744868 417.701782 
L 672.306852 423.322844 
L 674.868835 416.378077 
L 677.430819 420.537138 
L 679.992802 422.057478 
L 682.554785 421.18982 
L 685.116769 425.879172 
" style="fill:none;stroke:#1f77b4;stroke-linecap:square;stroke-width:1.5;"/>
   </g>
   <g id="patch_28">
    <path d="M 394.587843 459.149588 
L 394.587843 338.349588 
" style="fill:none;stroke:#000000;stroke-linecap:square;stroke-linejoin:miter;stroke-width:0.5;"/>
   </g>
   <g id="patch_29">
    <path d="M 698.95148 459.149588 
L 698.95148 338.349588 
" style="fill:none;stroke:#000000;stroke-linecap:square;stroke-linejoin:miter;stroke-width:0.5;"/>
   </g>
   <g id="patch_30">
    <path d="M 394.587843 459.149588 
L 698.95148 459.149588 
" style="fill:none;stroke:#000000;stroke-linecap:square;stroke-linejoin:miter;stroke-width:0.5;"/>
   </g>
   <g id="patch_31">
    <path d="M 394.587843 338.349588 
L 698.95148 338.349588 
" style="fill:none;stroke:#000000;stroke-linecap:square;stroke-linejoin:miter;stroke-width:0.5;"/>
   </g>
   <g id="text_69">
    <!-- $R_{yx}$ -->
    <g transform="translate(534.705535 332.349588)scale(0.16 -0.16)">
     <use transform="scale(0.996264)" xlink:href="#CMMI12-52"/>
     <use transform="translate(74.250826 -14.943915)scale(0.697382)" xlink:href="#CMMI12-79"/>
     <use transform="translate(110.0478 -14.943915)scale(0.697382)" xlink:href="#CMMI12-78"/>
    </g>
   </g>
  </g>
 </g>
 <defs>
  <clipPath id="p4e0a5b947e">
   <rect height="120.8" width="304.363636" x="29.35148" y="24.269588"/>
  </clipPath>
  <clipPath id="p0326ae24c0">
   <rect height="120.8" width="304.363636" x="394.587843" y="24.269588"/>
  </clipPath>
  <clipPath id="p3be1c984c2">
   <rect height="120.8" width="304.363636" x="29.35148" y="181.309588"/>
  </clipPath>
  <clipPath id="p4768da62dc">
   <rect height="120.8" width="304.363636" x="394.587843" y="181.309588"/>
  </clipPath>
  <clipPath id="pcadabdf69e">
   <rect height="120.8" width="304.363636" x="29.35148" y="338.349588"/>
  </clipPath>
  <clipPath id="p5060f3052d">
   <rect height="120.8" width="304.363636" x="394.587843" y="338.349588"/>
  </clipPath>
 </defs>
</svg>
