<?xml version="1.0" encoding="utf-8" standalone="no"?>
<!DOCTYPE svg PUBLIC "-//W3C//DTD SVG 1.1//EN"
  "http://www.w3.org/Graphics/SVG/1.1/DTD/svg11.dtd">
<svg height="432.972pt" version="1.1" viewBox="0 0 503.64 432.972" width="503.64pt" xmlns="http://www.w3.org/2000/svg" xmlns:xlink="http://www.w3.org/1999/xlink">
 <metadata>
  <rdf:RDF xmlns:cc="http://creativecommons.org/ns#" xmlns:dc="http://purl.org/dc/elements/1.1/" xmlns:rdf="http://www.w3.org/1999/02/22-rdf-syntax-ns#">
   <cc:Work>
    <dc:type rdf:resource="http://purl.org/dc/dcmitype/StillImage"/>
    <dc:date>2023-09-06T10:24:14.370436</dc:date>
    <dc:format>image/svg+xml</dc:format>
    <dc:creator>
     <cc:Agent>
      <dc:title>Matplotlib v3.4.3, https://matplotlib.org/</dc:title>
     </cc:Agent>
    </dc:creator>
   </cc:Work>
  </rdf:RDF>
 </metadata>
 <defs>
  <style type="text/css">*{stroke-linecap:butt;stroke-linejoin:round;}</style>
 </defs>
 <g id="figure_1">
  <g id="patch_1">
   <path d="M 0 432.972 
L 503.64 432.972 
L 503.64 0 
L 0 0 
z
" style="fill:none;"/>
  </g>
  <g id="axes_1">
   <g id="patch_2">
    <path clip-path="url(#p2104e8c4ff)" d="M 115.92 121.356 
L 170.28 121.356 
L 170.28 66.996 
L 115.92 66.996 
z
" style="fill:#ffffff;stroke:#000000;stroke-linejoin:miter;"/>
   </g>
   <g id="patch_3">
    <path clip-path="url(#p2104e8c4ff)" d="M 115.92 230.076 
L 170.28 230.076 
L 170.28 175.716 
L 115.92 175.716 
z
" style="fill:#ffffff;stroke:#000000;stroke-linejoin:miter;"/>
   </g>
   <g id="patch_4">
    <path clip-path="url(#p2104e8c4ff)" d="M 115.92 365.976 
L 170.28 365.976 
L 170.28 311.616 
L 115.92 311.616 
z
" style="fill:#ffffff;stroke:#000000;stroke-linejoin:miter;"/>
   </g>
   <g id="patch_5">
    <path clip-path="url(#p2104e8c4ff)" d="M 224.64 66.996 
L 279 66.996 
L 279 12.636 
L 224.64 12.636 
z
" style="fill:#ffffff;stroke:#000000;stroke-linejoin:miter;"/>
   </g>
   <g id="patch_6">
    <path clip-path="url(#p2104e8c4ff)" d="M 224.64 175.716 
L 279 175.716 
L 279 121.356 
L 224.64 121.356 
z
" style="fill:#ffffff;stroke:#000000;stroke-linejoin:miter;"/>
   </g>
   <g id="patch_7">
    <path clip-path="url(#p2104e8c4ff)" d="M 224.64 284.436 
L 279 284.436 
L 279 230.076 
L 224.64 230.076 
z
" style="fill:#ffffff;stroke:#000000;stroke-linejoin:miter;"/>
   </g>
   <g id="patch_8">
    <path clip-path="url(#p2104e8c4ff)" d="M 224.64 420.336 
L 279 420.336 
L 279 365.976 
L 224.64 365.976 
z
" style="fill:#ffffff;stroke:#000000;stroke-linejoin:miter;"/>
   </g>
   <g id="patch_9">
    <path clip-path="url(#p2104e8c4ff)" d="M 224.64 39.816 
L 219.204 42.534 
L 219.204 39.84318 
L 61.56 39.84318 
L 61.56 39.78882 
L 219.204 39.78882 
L 219.204 37.098 
z
" style="stroke:#000000;stroke-linejoin:miter;stroke-width:0.5;"/>
   </g>
   <g id="patch_10">
    <path clip-path="url(#p2104e8c4ff)" d="M 224.64 148.536 
L 219.204 151.254 
L 219.204 148.56318 
L 143.1 148.56318 
L 143.1 148.50882 
L 219.204 148.50882 
L 219.204 145.818 
z
" style="stroke:#000000;stroke-linejoin:miter;stroke-width:0.5;"/>
   </g>
   <g id="patch_11">
    <path clip-path="url(#p2104e8c4ff)" d="M 224.64 257.256 
L 219.204 259.974 
L 219.204 257.28318 
L 143.1 257.28318 
L 143.1 257.22882 
L 219.204 257.22882 
L 219.204 254.538 
z
" style="stroke:#000000;stroke-linejoin:miter;stroke-width:0.5;"/>
   </g>
   <g id="patch_12">
    <path clip-path="url(#p2104e8c4ff)" d="M 224.64 393.156 
L 219.204 395.874 
L 219.204 393.18318 
L 143.1 393.18318 
L 143.1 393.12882 
L 219.204 393.12882 
L 219.204 390.438 
z
" style="stroke:#000000;stroke-linejoin:miter;stroke-width:0.5;"/>
   </g>
   <g id="patch_13">
    <path clip-path="url(#p2104e8c4ff)" d="M 143.1 66.996 
L 140.382 61.56 
L 143.07282 61.56 
L 143.07282 39.816 
L 143.12718 39.816 
L 143.12718 61.56 
L 145.818 61.56 
z
" style="stroke:#000000;stroke-linejoin:miter;stroke-width:0.5;"/>
   </g>
   <g id="patch_14">
    <path clip-path="url(#p2104e8c4ff)" d="M 143.1 175.716 
L 140.382 170.28 
L 143.07282 170.28 
L 143.07282 121.356 
L 143.12718 121.356 
L 143.12718 170.28 
L 145.818 170.28 
z
" style="stroke:#000000;stroke-linejoin:miter;stroke-width:0.5;"/>
   </g>
   <g id="patch_15">
    <path clip-path="url(#p2104e8c4ff)" d="M 143.1 279 
L 143.1 279 
L 143.07282 279 
L 143.07282 230.076 
L 143.12718 230.076 
L 143.12718 279 
L 143.1 279 
z
" style="stroke:#000000;stroke-linejoin:miter;"/>
   </g>
   <g id="patch_16">
    <path clip-path="url(#p2104e8c4ff)" d="M 143.1 311.616 
L 140.382 306.18 
L 143.07282 306.18 
L 143.07282 295.308 
L 143.12718 295.308 
L 143.12718 306.18 
L 145.818 306.18 
z
" style="stroke:#000000;stroke-linejoin:miter;stroke-width:0.5;"/>
   </g>
   <g id="patch_17">
    <path clip-path="url(#p2104e8c4ff)" d="M 143.1 393.156 
L 143.1 393.156 
L 143.07282 393.156 
L 143.07282 365.976 
L 143.12718 365.976 
L 143.12718 393.156 
L 143.1 393.156 
z
" style="stroke:#000000;stroke-linejoin:miter;"/>
   </g>
   <g id="patch_18">
    <path clip-path="url(#p2104e8c4ff)" d="M 442.08 39.816 
L 436.644 42.534 
L 436.644 39.84318 
L 387.72 39.84318 
L 387.72 39.78882 
L 436.644 39.78882 
L 436.644 37.098 
z
" style="stroke:#000000;stroke-linejoin:miter;stroke-width:0.5;"/>
   </g>
   <g id="patch_19">
    <path clip-path="url(#p2104e8c4ff)" d="M 333.36 39.816 
L 327.924 42.534 
L 327.924 39.84318 
L 279 39.84318 
L 279 39.78882 
L 327.924 39.78882 
L 327.924 37.098 
z
" style="stroke:#000000;stroke-linejoin:miter;stroke-width:0.5;"/>
   </g>
   <g id="patch_20">
    <path clip-path="url(#p2104e8c4ff)" d="M 333.36 148.536 
L 327.924 151.254 
L 327.924 148.56318 
L 279 148.56318 
L 279 148.50882 
L 327.924 148.50882 
L 327.924 145.818 
z
" style="stroke:#000000;stroke-linejoin:miter;stroke-width:0.5;"/>
   </g>
   <g id="patch_21">
    <path clip-path="url(#p2104e8c4ff)" d="M 333.36 257.256 
L 327.924 259.974 
L 327.924 257.28318 
L 279 257.28318 
L 279 257.22882 
L 327.924 257.22882 
L 327.924 254.538 
z
" style="stroke:#000000;stroke-linejoin:miter;stroke-width:0.5;"/>
   </g>
   <g id="patch_22">
    <path clip-path="url(#p2104e8c4ff)" d="M 360.54 393.156 
L 360.54 393.156 
L 360.54 393.18318 
L 279 393.18318 
L 279 393.12882 
L 360.54 393.12882 
L 360.54 393.156 
z
" style="stroke:#000000;stroke-linejoin:miter;"/>
   </g>
   <g id="patch_23">
    <path clip-path="url(#p2104e8c4ff)" d="M 360.54 66.996 
L 363.258 72.432 
L 360.56718 72.432 
L 360.56718 121.356 
L 360.51282 121.356 
L 360.51282 72.432 
L 357.822 72.432 
z
" style="stroke:#000000;stroke-linejoin:miter;stroke-width:0.5;"/>
   </g>
   <g id="patch_24">
    <path clip-path="url(#p2104e8c4ff)" d="M 360.54 175.716 
L 363.258 181.152 
L 360.56718 181.152 
L 360.56718 230.076 
L 360.51282 230.076 
L 360.51282 181.152 
L 357.822 181.152 
z
" style="stroke:#000000;stroke-linejoin:miter;stroke-width:0.5;"/>
   </g>
   <g id="patch_25">
    <path clip-path="url(#p2104e8c4ff)" d="M 360.54 284.436 
L 363.258 289.872 
L 360.56718 289.872 
L 360.56718 295.308 
L 360.51282 295.308 
L 360.51282 289.872 
L 357.822 289.872 
z
" style="stroke:#000000;stroke-linejoin:miter;stroke-width:0.5;"/>
   </g>
   <g id="patch_26">
    <path clip-path="url(#p2104e8c4ff)" d="M 360.54 311.616 
L 360.54 311.616 
L 360.56718 311.616 
L 360.56718 393.156 
L 360.51282 393.156 
L 360.51282 311.616 
L 360.54 311.616 
z
" style="stroke:#000000;stroke-linejoin:miter;"/>
   </g>
   <g id="patch_27">
    <path clip-path="url(#p2104e8c4ff)" d="M 143.1 284.436 
L 143.1 284.436 
L 143.12718 284.436 
L 143.12718 289.872 
L 143.07282 289.872 
L 143.07282 284.436 
L 143.1 284.436 
z
" style="stroke:#000000;stroke-linejoin:miter;"/>
   </g>
   <g id="patch_28">
    <path clip-path="url(#p2104e8c4ff)" d="M 360.54 300.744 
L 360.54 300.744 
L 360.56718 300.744 
L 360.56718 306.18 
L 360.51282 306.18 
L 360.51282 300.744 
L 360.54 300.744 
z
" style="stroke:#000000;stroke-linejoin:miter;"/>
   </g>
   <g id="patch_29">
    <path clip-path="url(#p2104e8c4ff)" d="M 360.54 66.996 
C 367.74822 66.996 374.662181 64.132144 379.759162 59.035162 
C 384.856144 53.938181 387.72 47.02422 387.72 39.816 
C 387.72 32.60778 384.856144 25.693819 379.759162 20.596838 
C 374.662181 15.499856 367.74822 12.636 360.54 12.636 
C 353.33178 12.636 346.417819 15.499856 341.320838 20.596838 
C 336.223856 25.693819 333.36 32.60778 333.36 39.816 
C 333.36 47.02422 336.223856 53.938181 341.320838 59.035162 
C 346.417819 64.132144 353.33178 66.996 360.54 66.996 
z
" style="fill:#ffffff;stroke:#000000;stroke-linejoin:miter;"/>
   </g>
   <g id="patch_30">
    <path clip-path="url(#p2104e8c4ff)" d="M 360.54 175.716 
C 367.74822 175.716 374.662181 172.852144 379.759162 167.755162 
C 384.856144 162.658181 387.72 155.74422 387.72 148.536 
C 387.72 141.32778 384.856144 134.413819 379.759162 129.316838 
C 374.662181 124.219856 367.74822 121.356 360.54 121.356 
C 353.33178 121.356 346.417819 124.219856 341.320838 129.316838 
C 336.223856 134.413819 333.36 141.32778 333.36 148.536 
C 333.36 155.74422 336.223856 162.658181 341.320838 167.755162 
C 346.417819 172.852144 353.33178 175.716 360.54 175.716 
z
" style="fill:#ffffff;stroke:#000000;stroke-linejoin:miter;"/>
   </g>
   <g id="patch_31">
    <path clip-path="url(#p2104e8c4ff)" d="M 360.54 284.436 
C 367.74822 284.436 374.662181 281.572144 379.759162 276.475162 
C 384.856144 271.378181 387.72 264.46422 387.72 257.256 
C 387.72 250.04778 384.856144 243.133819 379.759162 238.036838 
C 374.662181 232.939856 367.74822 230.076 360.54 230.076 
C 353.33178 230.076 346.417819 232.939856 341.320838 238.036838 
C 336.223856 243.133819 333.36 250.04778 333.36 257.256 
C 333.36 264.46422 336.223856 271.378181 341.320838 276.475162 
C 346.417819 281.572144 353.33178 284.436 360.54 284.436 
z
" style="fill:#ffffff;stroke:#000000;stroke-linejoin:miter;"/>
   </g>
   <g id="text_1">
    <!-- $z^{-1}$ -->
    <g transform="translate(127.904785 99.654753)scale(0.22 -0.22)">
     <defs>
      <path d="M 813 486 
C 1088 809 1312 1015 1632 1313 
C 2016 1657 2182 1822 2272 1922 
C 2720 2371 2944 2713 2944 2764 
C 2944 2816 2893 2816 2880 2816 
C 2835 2816 2822 2790 2790 2745 
C 2630 2470 2477 2368 2310 2368 
C 2176 2368 2106 2403 1984 2547 
C 1850 2707 1741 2816 1555 2816 
C 1088 2816 806 2265 806 2127 
C 806 2107 813 2067 870 2067 
C 922 2067 928 2094 947 2140 
C 1056 2387 1363 2415 1485 2415 
C 1619 2415 1747 2387 1882 2342 
C 2125 2239 2227 2239 2291 2239 
C 2336 2239 2362 2239 2394 2246 
C 2182 1988 1837 1670 1549 1399 
L 902 783 
C 512 380 275 32 275 -13 
C 275 -52 307 -64 346 -64 
C 384 -64 390 -58 435 19 
C 538 179 742 384 979 384 
C 1114 384 1178 356 1306 211 
C 1427 70 1536 -64 1741 -64 
C 2368 -64 2726 723 2726 876 
C 2726 902 2720 942 2656 942 
C 2605 942 2598 915 2579 849 
C 2438 460 2061 336 1811 336 
C 1677 336 1549 364 1414 409 
C 1158 512 1088 512 1005 512 
C 941 512 870 512 813 486 
z
" id="CMMI12-7a" transform="scale(0.015625)"/>
      <path d="M 4218 1472 
C 4326 1472 4442 1472 4442 1600 
C 4442 1728 4326 1728 4218 1728 
L 755 1728 
C 646 1728 531 1728 531 1600 
C 531 1472 646 1472 755 1472 
L 4218 1472 
z
" id="CMSY10-0" transform="scale(0.015625)"/>
      <path d="M 1702 4083 
C 1702 4217 1696 4224 1606 4224 
C 1357 3927 979 3833 621 3820 
C 602 3820 570 3820 563 3808 
C 557 3795 557 3782 557 3648 
C 755 3648 1088 3686 1344 3839 
L 1344 467 
C 1344 243 1331 166 781 166 
L 589 166 
L 589 0 
C 896 6 1216 12 1523 12 
C 1830 12 2150 6 2458 0 
L 2458 166 
L 2266 166 
C 1715 166 1702 236 1702 467 
L 1702 4083 
z
" id="CMR17-31" transform="scale(0.015625)"/>
     </defs>
     <use transform="scale(0.996264)" xlink:href="#CMMI12-7a"/>
     <use transform="translate(49.755145 36.153639)scale(0.697382)" xlink:href="#CMSY10-0"/>
     <use transform="translate(103.996138 36.153639)scale(0.697382)" xlink:href="#CMR17-31"/>
    </g>
   </g>
   <g id="text_2">
    <!-- $z^{-1}$ -->
    <g transform="translate(127.904785 208.374753)scale(0.22 -0.22)">
     <use transform="scale(0.996264)" xlink:href="#CMMI12-7a"/>
     <use transform="translate(49.755145 36.153639)scale(0.697382)" xlink:href="#CMSY10-0"/>
     <use transform="translate(103.996138 36.153639)scale(0.697382)" xlink:href="#CMR17-31"/>
    </g>
   </g>
   <g id="text_3">
    <!-- $z^{-1}$ -->
    <g transform="translate(127.904785 344.274753)scale(0.22 -0.22)">
     <use transform="scale(0.996264)" xlink:href="#CMMI12-7a"/>
     <use transform="translate(49.755145 36.153639)scale(0.697382)" xlink:href="#CMSY10-0"/>
     <use transform="translate(103.996138 36.153639)scale(0.697382)" xlink:href="#CMR17-31"/>
    </g>
   </g>
   <g id="text_4">
    <!-- $b_0$ -->
    <g transform="translate(243.50201 45.294753)scale(0.22 -0.22)">
     <defs>
      <path d="M 1478 4255 
C 1485 4281 1498 4319 1498 4351 
C 1498 4416 1434 4416 1421 4416 
C 1414 4416 1184 4396 1069 4383 
C 960 4377 864 4364 749 4358 
C 595 4345 550 4339 550 4223 
C 550 4159 614 4159 678 4159 
C 1005 4159 1005 4103 1005 4040 
C 1005 3995 954 3812 928 3699 
L 774 3093 
C 710 2841 346 1392 320 1277 
C 288 1117 288 1008 288 925 
C 288 274 653 -64 1069 -64 
C 1811 -64 2579 887 2579 1813 
C 2579 2400 2246 2816 1766 2816 
C 1434 2816 1133 2541 1011 2413 
L 1478 4255 
z
M 1075 64 
C 870 64 646 217 646 715 
C 646 925 666 1047 781 1494 
C 800 1577 902 1985 928 2068 
C 941 2119 1318 2687 1754 2687 
C 2035 2687 2163 2407 2163 2075 
C 2163 1768 1984 1047 1824 715 
C 1664 370 1370 64 1075 64 
z
" id="CMMI12-62" transform="scale(0.015625)"/>
      <path d="M 2688 2038 
C 2688 2430 2682 3099 2413 3613 
C 2176 4063 1798 4224 1466 4224 
C 1158 4224 768 4082 525 3620 
C 269 3137 243 2539 243 2038 
C 243 1671 250 1112 448 623 
C 723 -39 1216 -128 1466 -128 
C 1760 -128 2208 -7 2470 604 
C 2662 1048 2688 1568 2688 2038 
z
M 1466 -26 
C 1056 -26 813 328 723 816 
C 653 1196 653 1749 653 2109 
C 653 2604 653 3015 736 3407 
C 858 3954 1216 4121 1466 4121 
C 1728 4121 2067 3947 2189 3420 
C 2272 3054 2278 2623 2278 2109 
C 2278 1691 2278 1176 2202 797 
C 2067 96 1690 -26 1466 -26 
z
" id="CMR17-30" transform="scale(0.015625)"/>
     </defs>
     <use transform="scale(0.996264)" xlink:href="#CMMI12-62"/>
     <use transform="translate(41.475874 -14.943915)scale(0.697382)" xlink:href="#CMR17-30"/>
    </g>
   </g>
   <g id="text_5">
    <!-- $b_1$ -->
    <g transform="translate(243.50201 154.014753)scale(0.22 -0.22)">
     <use transform="scale(0.996264)" xlink:href="#CMMI12-62"/>
     <use transform="translate(41.475874 -14.943915)scale(0.697382)" xlink:href="#CMR17-31"/>
    </g>
   </g>
   <g id="text_6">
    <!-- $b_2$ -->
    <g transform="translate(243.50201 262.734753)scale(0.22 -0.22)">
     <defs>
      <path d="M 2669 990 
L 2554 990 
C 2490 537 2438 460 2413 422 
C 2381 371 1920 371 1830 371 
L 602 371 
C 832 620 1280 1073 1824 1596 
C 2214 1966 2669 2400 2669 3033 
C 2669 3788 2067 4224 1395 4224 
C 691 4224 262 3603 262 3027 
C 262 2777 448 2745 525 2745 
C 589 2745 781 2783 781 3007 
C 781 3206 614 3264 525 3264 
C 486 3264 448 3257 422 3244 
C 544 3788 915 4057 1306 4057 
C 1862 4057 2227 3616 2227 3033 
C 2227 2477 1901 1998 1536 1583 
L 262 147 
L 262 0 
L 2515 0 
L 2669 990 
z
" id="CMR17-32" transform="scale(0.015625)"/>
     </defs>
     <use transform="scale(0.996264)" xlink:href="#CMMI12-62"/>
     <use transform="translate(41.475874 -14.943915)scale(0.697382)" xlink:href="#CMR17-32"/>
    </g>
   </g>
   <g id="text_7">
    <!-- $b_N$ -->
    <g transform="translate(241.24282 398.634753)scale(0.22 -0.22)">
     <defs>
      <path d="M 4736 3682 
C 4806 3956 4909 4147 5395 4166 
C 5414 4166 5491 4172 5491 4281 
C 5491 4352 5434 4352 5408 4352 
C 5280 4352 4954 4339 4826 4339 
L 4518 4339 
C 4429 4339 4314 4352 4224 4352 
C 4186 4352 4109 4352 4109 4230 
C 4109 4166 4160 4166 4205 4166 
C 4589 4153 4614 4007 4614 3892 
C 4614 3835 4608 3816 4589 3726 
L 3866 854 
L 2496 4243 
C 2451 4345 2445 4352 2304 4352 
L 1523 4352 
C 1395 4352 1338 4352 1338 4230 
C 1338 4166 1382 4166 1504 4166 
C 1536 4166 1914 4166 1914 4109 
C 1914 4096 1901 4045 1894 4026 
L 1043 650 
C 966 338 813 204 390 185 
C 358 185 294 179 294 64 
C 294 0 358 0 378 0 
C 506 0 832 12 960 12 
L 1267 12 
C 1357 12 1466 0 1555 0 
C 1600 0 1670 0 1670 121 
C 1670 179 1606 185 1581 185 
C 1370 191 1165 230 1165 459 
C 1165 510 1178 567 1190 618 
L 2054 4026 
C 2093 3962 2093 3949 2118 3892 
L 3642 115 
C 3674 38 3686 0 3744 0 
C 3808 0 3814 19 3840 128 
L 4736 3682 
z
" id="CMMI12-4e" transform="scale(0.015625)"/>
     </defs>
     <use transform="scale(0.996264)" xlink:href="#CMMI12-62"/>
     <use transform="translate(41.475874 -14.943915)scale(0.697382)" xlink:href="#CMMI12-4e"/>
    </g>
   </g>
   <g id="text_8">
    <!-- + -->
    <g transform="translate(352.524533 45.294753)scale(0.22 -0.22)">
     <defs>
      <path d="M 2451 1472 
L 4141 1472 
C 4230 1472 4339 1472 4339 1580 
C 4339 1696 4237 1696 4141 1696 
L 2451 1696 
L 2451 3385 
C 2451 3475 2451 3584 2342 3584 
C 2227 3584 2227 3481 2227 3385 
L 2227 1696 
L 531 1696 
C 442 1696 333 1696 333 1587 
C 333 1472 435 1472 531 1472 
L 2227 1472 
L 2227 -194 
C 2227 -282 2227 -391 2336 -391 
C 2451 -391 2451 -289 2451 -194 
L 2451 1472 
z
" id="CMSS17-2b" transform="scale(0.015625)"/>
     </defs>
     <use transform="scale(0.996264)" xlink:href="#CMSS17-2b"/>
    </g>
   </g>
   <g id="text_9">
    <!-- + -->
    <g transform="translate(352.524533 154.014753)scale(0.22 -0.22)">
     <use transform="scale(0.996264)" xlink:href="#CMSS17-2b"/>
    </g>
   </g>
   <g id="text_10">
    <!-- + -->
    <g transform="translate(352.524533 262.734753)scale(0.22 -0.22)">
     <use transform="scale(0.996264)" xlink:href="#CMSS17-2b"/>
    </g>
   </g>
   <g id="text_11">
    <!-- $x[n]$ -->
    <g transform="translate(16.405329 45.294753)scale(0.22 -0.22)">
     <defs>
      <path d="M 3034 2624 
C 2829 2585 2752 2431 2752 2310 
C 2752 2156 2874 2105 2963 2105 
C 3155 2105 3290 2271 3290 2444 
C 3290 2694 2982 2816 2714 2816 
C 2323 2816 2106 2451 2048 2329 
C 1901 2790 1504 2816 1389 2816 
C 736 2816 390 1993 390 1849 
C 390 1823 416 1790 461 1790 
C 512 1790 525 1829 538 1855 
C 755 2572 1184 2687 1370 2687 
C 1658 2687 1715 2438 1715 2284 
C 1715 2143 1677 1993 1600 1678 
L 1382 778 
C 1286 390 1101 64 762 64 
C 730 64 570 64 435 126 
C 666 166 717 358 717 435 
C 717 563 621 640 499 640 
C 346 640 179 505 179 300 
C 179 57 480 -64 755 -64 
C 1062 -64 1280 153 1414 415 
C 1517 64 1837 -64 2074 -64 
C 2726 -64 3072 751 3072 896 
C 3072 929 3046 955 3008 955 
C 2950 955 2944 922 2925 870 
C 2752 300 2381 64 2093 64 
C 1869 64 1747 204 1747 467 
C 1747 607 1773 712 1875 1146 
L 2099 2039 
C 2195 2425 2413 2687 2707 2687 
C 2720 2687 2899 2687 3034 2624 
z
" id="CMMI12-78" transform="scale(0.015625)"/>
      <path d="M 1504 -1600 
L 1504 -1376 
L 902 -1376 
L 902 4575 
L 1504 4575 
L 1504 4800 
L 678 4800 
L 678 -1600 
L 1504 -1600 
z
" id="CMR17-5b" transform="scale(0.015625)"/>
      <path d="M 1318 1870 
C 1331 1909 1491 2228 1728 2432 
C 1894 2585 2112 2687 2362 2687 
C 2618 2687 2707 2496 2707 2241 
C 2707 1877 2445 1149 2317 804 
C 2259 651 2227 568 2227 453 
C 2227 166 2426 -64 2733 -64 
C 3328 -64 3552 874 3552 913 
C 3552 945 3526 970 3488 970 
C 3430 970 3424 951 3392 842 
C 3245 319 3002 64 2752 64 
C 2688 64 2586 70 2586 274 
C 2586 434 2656 625 2694 715 
C 2822 1066 3091 1781 3091 2145 
C 3091 2528 2867 2816 2381 2816 
C 1811 2816 1510 2413 1395 2253 
C 1376 2617 1114 2816 832 2816 
C 627 2816 486 2694 378 2477 
C 262 2247 173 1864 173 1838 
C 173 1813 198 1781 243 1781 
C 294 1781 301 1787 339 1934 
C 442 2324 557 2687 813 2687 
C 960 2687 1011 2585 1011 2394 
C 1011 2253 947 2004 902 1807 
L 723 1117 
C 698 996 627 708 595 593 
C 550 427 480 127 480 95 
C 480 6 550 -64 646 -64 
C 723 -64 813 -26 864 70 
C 877 102 934 325 966 453 
L 1107 1028 
L 1318 1870 
z
" id="CMMI12-6e" transform="scale(0.015625)"/>
      <path d="M 915 4800 
L 90 4800 
L 90 4575 
L 691 4575 
L 691 -1376 
L 90 -1376 
L 90 -1600 
L 915 -1600 
L 915 4800 
z
" id="CMR17-5d" transform="scale(0.015625)"/>
     </defs>
     <use transform="scale(0.996264)" xlink:href="#CMMI12-78"/>
     <use transform="translate(55.43406 0)scale(0.996264)" xlink:href="#CMR17-5b"/>
     <use transform="translate(80.305118 0)scale(0.996264)" xlink:href="#CMMI12-6e"/>
     <use transform="translate(138.535165 0)scale(0.996264)" xlink:href="#CMR17-5d"/>
    </g>
   </g>
   <g id="text_12">
    <!-- $y[n]$ -->
    <g transform="translate(451.757816 45.294753)scale(0.22 -0.22)">
     <defs>
      <path d="M 1683 -673 
C 1510 -921 1261 -1152 947 -1152 
C 870 -1152 563 -1139 467 -826 
C 486 -833 518 -833 531 -833 
C 723 -833 851 -666 851 -519 
C 851 -372 730 -320 634 -320 
C 531 -320 307 -397 307 -711 
C 307 -1050 582 -1280 947 -1280 
C 1587 -1280 2234 -673 2413 -7 
L 3040 2483 
C 3046 2515 3059 2553 3059 2591 
C 3059 2687 2982 2752 2886 2752 
C 2829 2752 2694 2726 2643 2534 
L 2170 657 
C 2138 542 2138 530 2086 459 
C 1958 281 1747 64 1440 64 
C 1082 64 1050 415 1050 587 
C 1050 951 1222 1443 1395 1902 
C 1466 2087 1504 2177 1504 2305 
C 1504 2573 1312 2816 998 2816 
C 410 2816 173 1890 173 1838 
C 173 1813 198 1781 243 1781 
C 301 1781 307 1807 333 1896 
C 486 2432 730 2687 979 2687 
C 1037 2687 1146 2687 1146 2477 
C 1146 2311 1075 2126 979 1883 
C 666 1047 666 836 666 683 
C 666 76 1101 -64 1421 -64 
C 1606 -64 1837 -7 2061 230 
L 2067 223 
C 1971 -141 1907 -359 1683 -673 
z
" id="CMMI12-79" transform="scale(0.015625)"/>
     </defs>
     <use transform="scale(0.996264)" xlink:href="#CMMI12-79"/>
     <use transform="translate(51.138781 0)scale(0.996264)" xlink:href="#CMR17-5b"/>
     <use transform="translate(76.009839 0)scale(0.996264)" xlink:href="#CMMI12-6e"/>
     <use transform="translate(134.239887 0)scale(0.996264)" xlink:href="#CMR17-5d"/>
    </g>
   </g>
  </g>
 </g>
 <defs>
  <clipPath id="p2104e8c4ff">
   <rect height="418.572" width="489.24" x="7.2" y="7.2"/>
  </clipPath>
 </defs>
</svg>
