<?xml version="1.0" encoding="utf-8" standalone="no"?>
<!DOCTYPE svg PUBLIC "-//W3C//DTD SVG 1.1//EN"
  "http://www.w3.org/Graphics/SVG/1.1/DTD/svg11.dtd">
<svg height="492.768pt" version="1.1" viewBox="0 0 884.16 492.768" width="884.16pt" xmlns="http://www.w3.org/2000/svg" xmlns:xlink="http://www.w3.org/1999/xlink">
 <metadata>
  <rdf:RDF xmlns:cc="http://creativecommons.org/ns#" xmlns:dc="http://purl.org/dc/elements/1.1/" xmlns:rdf="http://www.w3.org/1999/02/22-rdf-syntax-ns#">
   <cc:Work>
    <dc:type rdf:resource="http://purl.org/dc/dcmitype/StillImage"/>
    <dc:date>2021-10-01T22:31:18.907493</dc:date>
    <dc:format>image/svg+xml</dc:format>
    <dc:creator>
     <cc:Agent>
      <dc:title>Matplotlib v3.4.3, https://matplotlib.org/</dc:title>
     </cc:Agent>
    </dc:creator>
   </cc:Work>
  </rdf:RDF>
 </metadata>
 <defs>
  <style type="text/css">*{stroke-linecap:butt;stroke-linejoin:round;}</style>
 </defs>
 <g id="figure_1">
  <g id="patch_1">
   <path d="M 0 492.768 
L 884.16 492.768 
L 884.16 0 
L 0 0 
z
" style="fill:none;"/>
  </g>
  <g id="axes_1">
   <g id="patch_2">
    <path clip-path="url(#p1da88eb4b9)" d="M 115.92 132.228 
L 170.28 132.228 
L 170.28 77.868 
L 115.92 77.868 
z
" style="fill:#ffffff;stroke:#000000;stroke-linejoin:miter;"/>
   </g>
   <g id="patch_3">
    <path clip-path="url(#p1da88eb4b9)" d="M 115.92 240.948 
L 170.28 240.948 
L 170.28 186.588 
L 115.92 186.588 
z
" style="fill:#ffffff;stroke:#000000;stroke-linejoin:miter;"/>
   </g>
   <g id="patch_4">
    <path clip-path="url(#p1da88eb4b9)" d="M 115.92 376.848 
L 170.28 376.848 
L 170.28 322.488 
L 115.92 322.488 
z
" style="fill:#ffffff;stroke:#000000;stroke-linejoin:miter;"/>
   </g>
   <g id="patch_5">
    <path clip-path="url(#p1da88eb4b9)" d="M 224.64 77.868 
L 279 77.868 
L 279 23.508 
L 224.64 23.508 
z
" style="fill:#ffffff;stroke:#000000;stroke-linejoin:miter;"/>
   </g>
   <g id="patch_6">
    <path clip-path="url(#p1da88eb4b9)" d="M 224.64 186.588 
L 279 186.588 
L 279 132.228 
L 224.64 132.228 
z
" style="fill:#ffffff;stroke:#000000;stroke-linejoin:miter;"/>
   </g>
   <g id="patch_7">
    <path clip-path="url(#p1da88eb4b9)" d="M 224.64 295.308 
L 279 295.308 
L 279 240.948 
L 224.64 240.948 
z
" style="fill:#ffffff;stroke:#000000;stroke-linejoin:miter;"/>
   </g>
   <g id="patch_8">
    <path clip-path="url(#p1da88eb4b9)" d="M 224.64 431.208 
L 279 431.208 
L 279 376.848 
L 224.64 376.848 
z
" style="fill:#ffffff;stroke:#000000;stroke-linejoin:miter;"/>
   </g>
   <g id="patch_9">
    <path clip-path="url(#p1da88eb4b9)" d="M 224.64 50.688 
L 219.204 53.406 
L 219.204 50.71518 
L 61.56 50.71518 
L 61.56 50.66082 
L 219.204 50.66082 
L 219.204 47.97 
z
" style="stroke:#000000;stroke-linejoin:miter;stroke-width:0.5;"/>
   </g>
   <g id="patch_10">
    <path clip-path="url(#p1da88eb4b9)" d="M 224.64 159.408 
L 219.204 162.126 
L 219.204 159.43518 
L 143.1 159.43518 
L 143.1 159.38082 
L 219.204 159.38082 
L 219.204 156.69 
z
" style="stroke:#000000;stroke-linejoin:miter;stroke-width:0.5;"/>
   </g>
   <g id="patch_11">
    <path clip-path="url(#p1da88eb4b9)" d="M 224.64 268.128 
L 219.204 270.846 
L 219.204 268.15518 
L 143.1 268.15518 
L 143.1 268.10082 
L 219.204 268.10082 
L 219.204 265.41 
z
" style="stroke:#000000;stroke-linejoin:miter;stroke-width:0.5;"/>
   </g>
   <g id="patch_12">
    <path clip-path="url(#p1da88eb4b9)" d="M 224.64 404.028 
L 219.204 406.746 
L 219.204 404.05518 
L 143.1 404.05518 
L 143.1 404.00082 
L 219.204 404.00082 
L 219.204 401.31 
z
" style="stroke:#000000;stroke-linejoin:miter;stroke-width:0.5;"/>
   </g>
   <g id="patch_13">
    <path clip-path="url(#p1da88eb4b9)" d="M 143.1 77.868 
L 140.382 72.432 
L 143.07282 72.432 
L 143.07282 50.688 
L 143.12718 50.688 
L 143.12718 72.432 
L 145.818 72.432 
z
" style="stroke:#000000;stroke-linejoin:miter;stroke-width:0.5;"/>
   </g>
   <g id="patch_14">
    <path clip-path="url(#p1da88eb4b9)" d="M 143.1 186.588 
L 140.382 181.152 
L 143.07282 181.152 
L 143.07282 132.228 
L 143.12718 132.228 
L 143.12718 181.152 
L 145.818 181.152 
z
" style="stroke:#000000;stroke-linejoin:miter;stroke-width:0.5;"/>
   </g>
   <g id="patch_15">
    <path clip-path="url(#p1da88eb4b9)" d="M 143.1 289.872 
L 143.1 289.872 
L 143.07282 289.872 
L 143.07282 240.948 
L 143.12718 240.948 
L 143.12718 289.872 
L 143.1 289.872 
z
" style="stroke:#000000;stroke-linejoin:miter;"/>
   </g>
   <g id="patch_16">
    <path clip-path="url(#p1da88eb4b9)" d="M 143.1 322.488 
L 140.382 317.052 
L 143.07282 317.052 
L 143.07282 306.18 
L 143.12718 306.18 
L 143.12718 317.052 
L 145.818 317.052 
z
" style="stroke:#000000;stroke-linejoin:miter;stroke-width:0.5;"/>
   </g>
   <g id="patch_17">
    <path clip-path="url(#p1da88eb4b9)" d="M 143.1 404.028 
L 143.1 404.028 
L 143.07282 404.028 
L 143.07282 376.848 
L 143.12718 376.848 
L 143.12718 404.028 
L 143.1 404.028 
z
" style="stroke:#000000;stroke-linejoin:miter;"/>
   </g>
   <g id="patch_18">
    <path clip-path="url(#p1da88eb4b9)" d="M 333.36 50.688 
L 327.924 53.406 
L 327.924 50.71518 
L 279 50.71518 
L 279 50.66082 
L 327.924 50.66082 
L 327.924 47.97 
z
" style="stroke:#000000;stroke-linejoin:miter;stroke-width:0.5;"/>
   </g>
   <g id="patch_19">
    <path clip-path="url(#p1da88eb4b9)" d="M 333.36 159.408 
L 327.924 162.126 
L 327.924 159.43518 
L 279 159.43518 
L 279 159.38082 
L 327.924 159.38082 
L 327.924 156.69 
z
" style="stroke:#000000;stroke-linejoin:miter;stroke-width:0.5;"/>
   </g>
   <g id="patch_20">
    <path clip-path="url(#p1da88eb4b9)" d="M 333.36 268.128 
L 327.924 270.846 
L 327.924 268.15518 
L 279 268.15518 
L 279 268.10082 
L 327.924 268.10082 
L 327.924 265.41 
z
" style="stroke:#000000;stroke-linejoin:miter;stroke-width:0.5;"/>
   </g>
   <g id="patch_21">
    <path clip-path="url(#p1da88eb4b9)" d="M 360.54 404.028 
L 360.54 404.028 
L 360.54 404.05518 
L 279 404.05518 
L 279 404.00082 
L 360.54 404.00082 
L 360.54 404.028 
z
" style="stroke:#000000;stroke-linejoin:miter;"/>
   </g>
   <g id="patch_22">
    <path clip-path="url(#p1da88eb4b9)" d="M 360.54 77.868 
L 363.258 83.304 
L 360.56718 83.304 
L 360.56718 132.228 
L 360.51282 132.228 
L 360.51282 83.304 
L 357.822 83.304 
z
" style="stroke:#000000;stroke-linejoin:miter;stroke-width:0.5;"/>
   </g>
   <g id="patch_23">
    <path clip-path="url(#p1da88eb4b9)" d="M 360.54 186.588 
L 363.258 192.024 
L 360.56718 192.024 
L 360.56718 240.948 
L 360.51282 240.948 
L 360.51282 192.024 
L 357.822 192.024 
z
" style="stroke:#000000;stroke-linejoin:miter;stroke-width:0.5;"/>
   </g>
   <g id="patch_24">
    <path clip-path="url(#p1da88eb4b9)" d="M 360.54 295.308 
L 363.258 300.744 
L 360.56718 300.744 
L 360.56718 306.18 
L 360.51282 306.18 
L 360.51282 300.744 
L 357.822 300.744 
z
" style="stroke:#000000;stroke-linejoin:miter;stroke-width:0.5;"/>
   </g>
   <g id="patch_25">
    <path clip-path="url(#p1da88eb4b9)" d="M 360.54 322.488 
L 360.54 322.488 
L 360.56718 322.488 
L 360.56718 404.028 
L 360.51282 404.028 
L 360.51282 322.488 
L 360.54 322.488 
z
" style="stroke:#000000;stroke-linejoin:miter;"/>
   </g>
   <g id="patch_26">
    <path clip-path="url(#p1da88eb4b9)" d="M 143.1 295.308 
L 143.1 295.308 
L 143.12718 295.308 
L 143.12718 300.744 
L 143.07282 300.744 
L 143.07282 295.308 
L 143.1 295.308 
z
" style="stroke:#000000;stroke-linejoin:miter;"/>
   </g>
   <g id="patch_27">
    <path clip-path="url(#p1da88eb4b9)" d="M 360.54 311.616 
L 360.54 311.616 
L 360.56718 311.616 
L 360.56718 317.052 
L 360.51282 317.052 
L 360.51282 311.616 
L 360.54 311.616 
z
" style="stroke:#000000;stroke-linejoin:miter;"/>
   </g>
   <g id="patch_28">
    <path clip-path="url(#p1da88eb4b9)" d="M 496.44 50.688 
L 491.004 53.406 
L 491.004 50.71518 
L 387.72 50.71518 
L 387.72 50.66082 
L 491.004 50.66082 
L 491.004 47.97 
z
" style="stroke:#000000;stroke-linejoin:miter;stroke-width:0.5;"/>
   </g>
   <g id="patch_29">
    <path clip-path="url(#p1da88eb4b9)" d="M 713.88 132.228 
L 768.24 132.228 
L 768.24 77.868 
L 713.88 77.868 
z
" style="fill:#ffffff;stroke:#000000;stroke-linejoin:miter;"/>
   </g>
   <g id="patch_30">
    <path clip-path="url(#p1da88eb4b9)" d="M 713.88 240.948 
L 768.24 240.948 
L 768.24 186.588 
L 713.88 186.588 
z
" style="fill:#ffffff;stroke:#000000;stroke-linejoin:miter;"/>
   </g>
   <g id="patch_31">
    <path clip-path="url(#p1da88eb4b9)" d="M 713.88 376.848 
L 768.24 376.848 
L 768.24 322.488 
L 713.88 322.488 
z
" style="fill:#ffffff;stroke:#000000;stroke-linejoin:miter;"/>
   </g>
   <g id="patch_32">
    <path clip-path="url(#p1da88eb4b9)" d="M 605.16 77.868 
L 659.52 77.868 
L 659.52 23.508 
L 605.16 23.508 
z
" style="fill:#ffffff;stroke:#000000;stroke-linejoin:miter;"/>
   </g>
   <g id="patch_33">
    <path clip-path="url(#p1da88eb4b9)" d="M 605.16 186.588 
L 659.52 186.588 
L 659.52 132.228 
L 605.16 132.228 
z
" style="fill:#ffffff;stroke:#000000;stroke-linejoin:miter;"/>
   </g>
   <g id="patch_34">
    <path clip-path="url(#p1da88eb4b9)" d="M 605.16 295.308 
L 659.52 295.308 
L 659.52 240.948 
L 605.16 240.948 
z
" style="fill:#ffffff;stroke:#000000;stroke-linejoin:miter;"/>
   </g>
   <g id="patch_35">
    <path clip-path="url(#p1da88eb4b9)" d="M 605.16 431.208 
L 659.52 431.208 
L 659.52 376.848 
L 605.16 376.848 
z
" style="fill:#ffffff;stroke:#000000;stroke-linejoin:miter;"/>
   </g>
   <g id="patch_36">
    <path clip-path="url(#p1da88eb4b9)" d="M 605.16 50.688 
L 599.724 53.406 
L 599.724 50.71518 
L 550.8 50.71518 
L 550.8 50.66082 
L 599.724 50.66082 
L 599.724 47.97 
z
" style="stroke:#000000;stroke-linejoin:miter;stroke-width:0.5;"/>
   </g>
   <g id="patch_37">
    <path clip-path="url(#p1da88eb4b9)" d="M 550.8 159.408 
L 556.236 156.69 
L 556.236 159.38082 
L 605.16 159.38082 
L 605.16 159.43518 
L 556.236 159.43518 
L 556.236 162.126 
z
" style="stroke:#000000;stroke-linejoin:miter;stroke-width:0.5;"/>
   </g>
   <g id="patch_38">
    <path clip-path="url(#p1da88eb4b9)" d="M 550.8 268.128 
L 556.236 265.41 
L 556.236 268.10082 
L 605.16 268.10082 
L 605.16 268.15518 
L 556.236 268.15518 
L 556.236 270.846 
z
" style="stroke:#000000;stroke-linejoin:miter;stroke-width:0.5;"/>
   </g>
   <g id="patch_39">
    <path clip-path="url(#p1da88eb4b9)" d="M 523.62 404.028 
L 523.62 404.028 
L 523.62 404.00082 
L 605.16 404.00082 
L 605.16 404.05518 
L 523.62 404.05518 
L 523.62 404.028 
z
" style="stroke:#000000;stroke-linejoin:miter;"/>
   </g>
   <g id="patch_40">
    <path clip-path="url(#p1da88eb4b9)" d="M 523.62 77.868 
L 526.338 83.304 
L 523.64718 83.304 
L 523.64718 132.228 
L 523.59282 132.228 
L 523.59282 83.304 
L 520.902 83.304 
z
" style="stroke:#000000;stroke-linejoin:miter;stroke-width:0.5;"/>
   </g>
   <g id="patch_41">
    <path clip-path="url(#p1da88eb4b9)" d="M 523.62 186.588 
L 526.338 192.024 
L 523.64718 192.024 
L 523.64718 240.948 
L 523.59282 240.948 
L 523.59282 192.024 
L 520.902 192.024 
z
" style="stroke:#000000;stroke-linejoin:miter;stroke-width:0.5;"/>
   </g>
   <g id="patch_42">
    <path clip-path="url(#p1da88eb4b9)" d="M 523.62 295.308 
L 526.338 300.744 
L 523.64718 300.744 
L 523.64718 306.18 
L 523.59282 306.18 
L 523.59282 300.744 
L 520.902 300.744 
z
" style="stroke:#000000;stroke-linejoin:miter;stroke-width:0.5;"/>
   </g>
   <g id="patch_43">
    <path clip-path="url(#p1da88eb4b9)" d="M 523.62 322.488 
L 523.62 322.488 
L 523.64718 322.488 
L 523.64718 404.028 
L 523.59282 404.028 
L 523.59282 322.488 
L 523.62 322.488 
z
" style="stroke:#000000;stroke-linejoin:miter;"/>
   </g>
   <g id="patch_44">
    <path clip-path="url(#p1da88eb4b9)" d="M 822.6 50.688 
L 817.164 53.406 
L 817.164 50.71518 
L 659.52 50.71518 
L 659.52 50.66082 
L 817.164 50.66082 
L 817.164 47.97 
z
" style="stroke:#000000;stroke-linejoin:miter;stroke-width:0.5;"/>
   </g>
   <g id="patch_45">
    <path clip-path="url(#p1da88eb4b9)" d="M 659.52 159.408 
L 664.956 156.69 
L 664.956 159.38082 
L 741.06 159.38082 
L 741.06 159.43518 
L 664.956 159.43518 
L 664.956 162.126 
z
" style="stroke:#000000;stroke-linejoin:miter;stroke-width:0.5;"/>
   </g>
   <g id="patch_46">
    <path clip-path="url(#p1da88eb4b9)" d="M 659.52 268.128 
L 664.956 265.41 
L 664.956 268.10082 
L 741.06 268.10082 
L 741.06 268.15518 
L 664.956 268.15518 
L 664.956 270.846 
z
" style="stroke:#000000;stroke-linejoin:miter;stroke-width:0.5;"/>
   </g>
   <g id="patch_47">
    <path clip-path="url(#p1da88eb4b9)" d="M 659.52 404.028 
L 664.956 401.31 
L 664.956 404.00082 
L 741.06 404.00082 
L 741.06 404.05518 
L 664.956 404.05518 
L 664.956 406.746 
z
" style="stroke:#000000;stroke-linejoin:miter;stroke-width:0.5;"/>
   </g>
   <g id="patch_48">
    <path clip-path="url(#p1da88eb4b9)" d="M 741.06 77.868 
L 738.342 72.432 
L 741.03282 72.432 
L 741.03282 50.688 
L 741.08718 50.688 
L 741.08718 72.432 
L 743.778 72.432 
z
" style="stroke:#000000;stroke-linejoin:miter;stroke-width:0.5;"/>
   </g>
   <g id="patch_49">
    <path clip-path="url(#p1da88eb4b9)" d="M 741.06 186.588 
L 738.342 181.152 
L 741.03282 181.152 
L 741.03282 132.228 
L 741.08718 132.228 
L 741.08718 181.152 
L 743.778 181.152 
z
" style="stroke:#000000;stroke-linejoin:miter;stroke-width:0.5;"/>
   </g>
   <g id="patch_50">
    <path clip-path="url(#p1da88eb4b9)" d="M 741.06 289.872 
L 741.06 289.872 
L 741.03282 289.872 
L 741.03282 240.948 
L 741.08718 240.948 
L 741.08718 289.872 
L 741.06 289.872 
z
" style="stroke:#000000;stroke-linejoin:miter;"/>
   </g>
   <g id="patch_51">
    <path clip-path="url(#p1da88eb4b9)" d="M 741.06 322.488 
L 738.342 317.052 
L 741.03282 317.052 
L 741.03282 306.18 
L 741.08718 306.18 
L 741.08718 317.052 
L 743.778 317.052 
z
" style="stroke:#000000;stroke-linejoin:miter;stroke-width:0.5;"/>
   </g>
   <g id="patch_52">
    <path clip-path="url(#p1da88eb4b9)" d="M 741.06 404.028 
L 741.06 404.028 
L 741.03282 404.028 
L 741.03282 376.848 
L 741.08718 376.848 
L 741.08718 404.028 
L 741.06 404.028 
z
" style="stroke:#000000;stroke-linejoin:miter;"/>
   </g>
   <g id="patch_53">
    <path clip-path="url(#p1da88eb4b9)" d="M 741.06 295.308 
L 741.06 295.308 
L 741.08718 295.308 
L 741.08718 300.744 
L 741.03282 300.744 
L 741.03282 295.308 
L 741.06 295.308 
z
" style="stroke:#000000;stroke-linejoin:miter;"/>
   </g>
   <g id="patch_54">
    <path clip-path="url(#p1da88eb4b9)" d="M 523.62 311.616 
L 523.62 311.616 
L 523.64718 311.616 
L 523.64718 317.052 
L 523.59282 317.052 
L 523.59282 311.616 
L 523.62 311.616 
z
" style="stroke:#000000;stroke-linejoin:miter;"/>
   </g>
   <g id="patch_55">
    <path clip-path="url(#p1da88eb4b9)" d="M 360.54 77.868 
C 367.74822 77.868 374.662181 75.004144 379.759162 69.907162 
C 384.856144 64.810181 387.72 57.89622 387.72 50.688 
C 387.72 43.47978 384.856144 36.565819 379.759162 31.468838 
C 374.662181 26.371856 367.74822 23.508 360.54 23.508 
C 353.33178 23.508 346.417819 26.371856 341.320838 31.468838 
C 336.223856 36.565819 333.36 43.47978 333.36 50.688 
C 333.36 57.89622 336.223856 64.810181 341.320838 69.907162 
C 346.417819 75.004144 353.33178 77.868 360.54 77.868 
z
" style="fill:#ffffff;stroke:#000000;stroke-linejoin:miter;"/>
   </g>
   <g id="patch_56">
    <path clip-path="url(#p1da88eb4b9)" d="M 360.54 186.588 
C 367.74822 186.588 374.662181 183.724144 379.759162 178.627162 
C 384.856144 173.530181 387.72 166.61622 387.72 159.408 
C 387.72 152.19978 384.856144 145.285819 379.759162 140.188838 
C 374.662181 135.091856 367.74822 132.228 360.54 132.228 
C 353.33178 132.228 346.417819 135.091856 341.320838 140.188838 
C 336.223856 145.285819 333.36 152.19978 333.36 159.408 
C 333.36 166.61622 336.223856 173.530181 341.320838 178.627162 
C 346.417819 183.724144 353.33178 186.588 360.54 186.588 
z
" style="fill:#ffffff;stroke:#000000;stroke-linejoin:miter;"/>
   </g>
   <g id="patch_57">
    <path clip-path="url(#p1da88eb4b9)" d="M 360.54 295.308 
C 367.74822 295.308 374.662181 292.444144 379.759162 287.347162 
C 384.856144 282.250181 387.72 275.33622 387.72 268.128 
C 387.72 260.91978 384.856144 254.005819 379.759162 248.908838 
C 374.662181 243.811856 367.74822 240.948 360.54 240.948 
C 353.33178 240.948 346.417819 243.811856 341.320838 248.908838 
C 336.223856 254.005819 333.36 260.91978 333.36 268.128 
C 333.36 275.33622 336.223856 282.250181 341.320838 287.347162 
C 346.417819 292.444144 353.33178 295.308 360.54 295.308 
z
" style="fill:#ffffff;stroke:#000000;stroke-linejoin:miter;"/>
   </g>
   <g id="patch_58">
    <path clip-path="url(#p1da88eb4b9)" d="M 523.62 77.868 
C 530.82822 77.868 537.742181 75.004144 542.839162 69.907162 
C 547.936144 64.810181 550.8 57.89622 550.8 50.688 
C 550.8 43.47978 547.936144 36.565819 542.839162 31.468838 
C 537.742181 26.371856 530.82822 23.508 523.62 23.508 
C 516.41178 23.508 509.497819 26.371856 504.400838 31.468838 
C 499.303856 36.565819 496.44 43.47978 496.44 50.688 
C 496.44 57.89622 499.303856 64.810181 504.400838 69.907162 
C 509.497819 75.004144 516.41178 77.868 523.62 77.868 
z
" style="fill:#ffffff;stroke:#000000;stroke-linejoin:miter;"/>
   </g>
   <g id="patch_59">
    <path clip-path="url(#p1da88eb4b9)" d="M 523.62 186.588 
C 530.82822 186.588 537.742181 183.724144 542.839162 178.627162 
C 547.936144 173.530181 550.8 166.61622 550.8 159.408 
C 550.8 152.19978 547.936144 145.285819 542.839162 140.188838 
C 537.742181 135.091856 530.82822 132.228 523.62 132.228 
C 516.41178 132.228 509.497819 135.091856 504.400838 140.188838 
C 499.303856 145.285819 496.44 152.19978 496.44 159.408 
C 496.44 166.61622 499.303856 173.530181 504.400838 178.627162 
C 509.497819 183.724144 516.41178 186.588 523.62 186.588 
z
" style="fill:#ffffff;stroke:#000000;stroke-linejoin:miter;"/>
   </g>
   <g id="patch_60">
    <path clip-path="url(#p1da88eb4b9)" d="M 523.62 295.308 
C 530.82822 295.308 537.742181 292.444144 542.839162 287.347162 
C 547.936144 282.250181 550.8 275.33622 550.8 268.128 
C 550.8 260.91978 547.936144 254.005819 542.839162 248.908838 
C 537.742181 243.811856 530.82822 240.948 523.62 240.948 
C 516.41178 240.948 509.497819 243.811856 504.400838 248.908838 
C 499.303856 254.005819 496.44 260.91978 496.44 268.128 
C 496.44 275.33622 499.303856 282.250181 504.400838 287.347162 
C 509.497819 292.444144 516.41178 295.308 523.62 295.308 
z
" style="fill:#ffffff;stroke:#000000;stroke-linejoin:miter;"/>
   </g>
   <g id="text_1">
    <!-- $z^{-1}$ -->
    <g transform="translate(127.904785 110.526753)scale(0.22 -0.22)">
     <defs>
      <path d="M 813 486 
C 1088 803 1312 1004 1632 1296 
C 2016 1632 2182 1793 2272 1891 
C 2720 2338 2944 2713 2944 2764 
C 2944 2816 2893 2816 2880 2816 
C 2835 2816 2822 2793 2790 2750 
C 2630 2494 2477 2367 2310 2367 
C 2176 2367 2106 2421 1984 2565 
C 1850 2715 1741 2816 1555 2816 
C 1088 2816 806 2257 806 2128 
C 806 2108 813 2068 870 2068 
C 922 2068 928 2091 947 2133 
C 1056 2372 1363 2414 1485 2414 
C 1619 2414 1747 2376 1882 2327 
C 2125 2240 2227 2240 2291 2240 
C 2336 2240 2362 2240 2394 2246 
C 2182 1994 1837 1683 1549 1418 
L 902 816 
C 512 415 275 33 275 -12 
C 275 -51 307 -64 346 -64 
C 384 -64 390 -57 435 14 
C 538 163 742 384 979 384 
C 1114 384 1178 342 1306 193 
C 1427 61 1536 -64 1741 -64 
C 2368 -64 2726 732 2726 876 
C 2726 903 2720 942 2656 942 
C 2605 942 2598 917 2579 855 
C 2438 488 2061 338 1811 338 
C 1677 338 1549 376 1414 425 
C 1158 512 1088 512 1005 512 
C 941 512 870 512 813 486 
z
" id="CMMI12-7a" transform="scale(0.015625)"/>
      <path d="M 4218 1472 
C 4326 1472 4442 1472 4442 1600 
C 4442 1728 4326 1728 4218 1728 
L 755 1728 
C 646 1728 531 1728 531 1600 
C 531 1472 646 1472 755 1472 
L 4218 1472 
z
" id="CMSY10-0" transform="scale(0.015625)"/>
      <path d="M 1702 4058 
C 1702 4192 1696 4192 1606 4192 
C 1357 3916 979 3827 621 3827 
C 602 3827 570 3827 563 3808 
C 557 3795 557 3782 557 3648 
C 755 3648 1088 3686 1344 3839 
L 1344 461 
C 1344 236 1331 160 781 160 
L 589 160 
L 589 0 
C 896 0 1216 0 1523 0 
C 1830 0 2150 0 2458 0 
L 2458 160 
L 2266 160 
C 1715 160 1702 230 1702 458 
L 1702 4058 
z
" id="CMR17-31" transform="scale(0.015625)"/>
     </defs>
     <use transform="scale(0.996264)" xlink:href="#CMMI12-7a"/>
     <use transform="translate(49.755145 36.153639)scale(0.697382)" xlink:href="#CMSY10-0"/>
     <use transform="translate(103.996138 36.153639)scale(0.697382)" xlink:href="#CMR17-31"/>
    </g>
   </g>
   <g id="text_2">
    <!-- $z^{-1}$ -->
    <g transform="translate(127.904785 219.246753)scale(0.22 -0.22)">
     <use transform="scale(0.996264)" xlink:href="#CMMI12-7a"/>
     <use transform="translate(49.755145 36.153639)scale(0.697382)" xlink:href="#CMSY10-0"/>
     <use transform="translate(103.996138 36.153639)scale(0.697382)" xlink:href="#CMR17-31"/>
    </g>
   </g>
   <g id="text_3">
    <!-- $z^{-1}$ -->
    <g transform="translate(127.904785 355.146753)scale(0.22 -0.22)">
     <use transform="scale(0.996264)" xlink:href="#CMMI12-7a"/>
     <use transform="translate(49.755145 36.153639)scale(0.697382)" xlink:href="#CMSY10-0"/>
     <use transform="translate(103.996138 36.153639)scale(0.697382)" xlink:href="#CMR17-31"/>
    </g>
   </g>
   <g id="text_4">
    <!-- $b_0$ -->
    <g transform="translate(243.50201 56.166753)scale(0.22 -0.22)">
     <defs>
      <path d="M 1478 4257 
C 1485 4283 1498 4321 1498 4352 
C 1498 4416 1434 4416 1421 4416 
C 1414 4416 1184 4393 1069 4377 
C 960 4377 864 4358 749 4358 
C 595 4345 550 4339 550 4224 
C 550 4160 614 4160 678 4160 
C 1005 4160 1005 4103 1005 4040 
C 1005 3996 954 3811 928 3696 
L 774 3085 
C 710 2831 346 1387 320 1272 
C 288 1114 288 1005 288 922 
C 288 274 653 -64 1069 -64 
C 1811 -64 2579 888 2579 1814 
C 2579 2401 2246 2816 1766 2816 
C 1434 2816 1133 2542 1011 2414 
L 1478 4257 
z
M 1075 64 
C 870 64 646 217 646 715 
C 646 926 666 1047 781 1494 
C 800 1577 902 1986 928 2069 
C 941 2120 1318 2689 1754 2689 
C 2035 2689 2163 2408 2163 2076 
C 2163 1769 1984 1047 1824 715 
C 1664 370 1370 64 1075 64 
z
" id="CMMI12-62" transform="scale(0.015625)"/>
      <path d="M 2688 2025 
C 2688 2416 2682 3080 2413 3591 
C 2176 4039 1798 4198 1466 4198 
C 1158 4198 768 4058 525 3597 
C 269 3118 243 2524 243 2025 
C 243 1661 250 1106 448 619 
C 723 -39 1216 -128 1466 -128 
C 1760 -128 2208 -7 2470 600 
C 2662 1042 2688 1559 2688 2025 
z
M 1466 -26 
C 1056 -26 813 325 723 812 
C 653 1188 653 1738 653 2096 
C 653 2588 653 2997 736 3387 
C 858 3929 1216 4096 1466 4096 
C 1728 4096 2067 3923 2189 3400 
C 2272 3036 2278 2607 2278 2096 
C 2278 1680 2278 1169 2202 792 
C 2067 95 1690 -26 1466 -26 
z
" id="CMR17-30" transform="scale(0.015625)"/>
     </defs>
     <use transform="scale(0.996264)" xlink:href="#CMMI12-62"/>
     <use transform="translate(41.475874 -14.943915)scale(0.697382)" xlink:href="#CMR17-30"/>
    </g>
   </g>
   <g id="text_5">
    <!-- $b_1$ -->
    <g transform="translate(243.50201 164.886753)scale(0.22 -0.22)">
     <use transform="scale(0.996264)" xlink:href="#CMMI12-62"/>
     <use transform="translate(41.475874 -14.943915)scale(0.697382)" xlink:href="#CMR17-31"/>
    </g>
   </g>
   <g id="text_6">
    <!-- $b_2$ -->
    <g transform="translate(243.50201 273.606753)scale(0.22 -0.22)">
     <defs>
      <path d="M 2669 989 
L 2554 989 
C 2490 536 2438 459 2413 420 
C 2381 369 1920 369 1830 369 
L 602 369 
C 832 619 1280 1072 1824 1597 
C 2214 1967 2669 2402 2669 3035 
C 2669 3790 2067 4224 1395 4224 
C 691 4224 262 3604 262 3030 
C 262 2780 448 2748 525 2748 
C 589 2748 781 2787 781 3010 
C 781 3207 614 3264 525 3264 
C 486 3264 448 3258 422 3245 
C 544 3790 915 4058 1306 4058 
C 1862 4058 2227 3617 2227 3035 
C 2227 2479 1901 2000 1536 1584 
L 262 146 
L 262 0 
L 2515 0 
L 2669 989 
z
" id="CMR17-32" transform="scale(0.015625)"/>
     </defs>
     <use transform="scale(0.996264)" xlink:href="#CMMI12-62"/>
     <use transform="translate(41.475874 -14.943915)scale(0.697382)" xlink:href="#CMR17-32"/>
    </g>
   </g>
   <g id="text_7">
    <!-- $b_M$ -->
    <g transform="translate(239.990938 409.506753)scale(0.22 -0.22)">
     <defs>
      <path d="M 5811 3886 
C 5869 4103 5882 4167 6336 4167 
C 6458 4167 6515 4167 6515 4288 
C 6515 4352 6470 4352 6349 4352 
L 5581 4352 
C 5421 4352 5414 4346 5344 4243 
L 3008 562 
L 2528 4211 
C 2509 4352 2502 4352 2336 4352 
L 1542 4352 
C 1421 4352 1363 4352 1363 4231 
C 1363 4167 1421 4167 1517 4167 
C 1907 4167 1907 4116 1907 4046 
C 1907 4034 1907 3995 1882 3899 
L 1062 634 
C 986 327 838 186 410 186 
C 390 186 314 186 314 73 
C 314 0 371 0 397 0 
C 525 0 851 0 979 0 
L 1286 0 
C 1376 0 1485 0 1574 0 
C 1619 0 1690 0 1690 122 
C 1690 180 1626 186 1600 186 
C 1389 186 1184 224 1184 454 
C 1184 518 1184 524 1210 613 
L 2093 4129 
L 2099 4129 
L 2630 172 
C 2650 19 2656 0 2714 0 
C 2784 0 2816 51 2848 109 
L 5421 4161 
L 5427 4161 
L 4499 473 
C 4442 250 4429 186 3981 186 
C 3859 186 3795 186 3795 70 
C 3795 0 3853 0 3891 0 
C 4000 0 4128 0 4237 0 
L 4992 0 
C 5101 0 5235 0 5344 0 
C 5395 0 5466 0 5466 122 
C 5466 186 5408 186 5312 186 
C 4922 186 4922 234 4922 294 
C 4922 301 4922 345 4934 396 
L 5811 3886 
z
" id="CMMI12-4d" transform="scale(0.015625)"/>
     </defs>
     <use transform="scale(0.996264)" xlink:href="#CMMI12-62"/>
     <use transform="translate(41.475874 -14.943915)scale(0.697382)" xlink:href="#CMMI12-4d"/>
    </g>
   </g>
   <g id="text_8">
    <!-- + -->
    <g transform="translate(352.524533 56.166753)scale(0.22 -0.22)">
     <defs>
      <path d="M 2451 1505 
L 4141 1505 
C 4230 1505 4339 1505 4339 1613 
C 4339 1728 4237 1728 4141 1728 
L 2451 1728 
L 2451 3413 
C 2451 3502 2451 3611 2342 3611 
C 2227 3611 2227 3509 2227 3413 
L 2227 1728 
L 531 1728 
C 442 1728 333 1728 333 1620 
C 333 1505 435 1505 531 1505 
L 2227 1505 
L 2227 -186 
C 2227 -275 2227 -384 2336 -384 
C 2451 -384 2451 -282 2451 -186 
L 2451 1505 
z
" id="CMSS17-2b" transform="scale(0.015625)"/>
     </defs>
     <use transform="scale(0.996264)" xlink:href="#CMSS17-2b"/>
    </g>
   </g>
   <g id="text_9">
    <!-- + -->
    <g transform="translate(352.524533 164.886753)scale(0.22 -0.22)">
     <use transform="scale(0.996264)" xlink:href="#CMSS17-2b"/>
    </g>
   </g>
   <g id="text_10">
    <!-- + -->
    <g transform="translate(352.524533 273.606753)scale(0.22 -0.22)">
     <use transform="scale(0.996264)" xlink:href="#CMSS17-2b"/>
    </g>
   </g>
   <g id="text_11">
    <!-- $x[n]$ -->
    <g transform="translate(16.405329 56.166753)scale(0.22 -0.22)">
     <defs>
      <path d="M 3034 2606 
C 2829 2567 2752 2414 2752 2293 
C 2752 2139 2874 2088 2963 2088 
C 3155 2088 3290 2254 3290 2427 
C 3290 2695 2982 2816 2714 2816 
C 2323 2816 2106 2433 2048 2312 
C 1901 2816 1504 2816 1389 2816 
C 736 2816 390 1980 390 1839 
C 390 1814 416 1782 461 1782 
C 512 1782 525 1820 538 1846 
C 755 2555 1184 2689 1370 2689 
C 1658 2689 1715 2420 1715 2267 
C 1715 2127 1677 1980 1600 1673 
L 1382 798 
C 1286 415 1101 64 762 64 
C 730 64 570 64 435 147 
C 666 192 717 383 717 460 
C 717 588 621 664 499 664 
C 346 664 179 530 179 326 
C 179 57 480 -64 755 -64 
C 1062 -64 1280 179 1414 441 
C 1517 64 1837 -64 2074 -64 
C 2726 -64 3072 773 3072 913 
C 3072 945 3046 971 3008 971 
C 2950 971 2944 939 2925 888 
C 2752 326 2381 64 2093 64 
C 1869 64 1747 230 1747 492 
C 1747 632 1773 734 1875 1156 
L 2099 2024 
C 2195 2408 2413 2689 2707 2689 
C 2720 2689 2899 2689 3034 2606 
z
" id="CMMI12-78" transform="scale(0.015625)"/>
      <path d="M 1504 -1600 
L 1504 -1377 
L 902 -1377 
L 902 4544 
L 1504 4544 
L 1504 4767 
L 678 4767 
L 678 -1600 
L 1504 -1600 
z
" id="CMR17-5b" transform="scale(0.015625)"/>
      <path d="M 1318 1871 
C 1331 1910 1491 2229 1728 2433 
C 1894 2586 2112 2689 2362 2689 
C 2618 2689 2707 2497 2707 2242 
C 2707 1878 2445 1150 2317 805 
C 2259 651 2227 568 2227 453 
C 2227 166 2426 -64 2733 -64 
C 3328 -64 3552 875 3552 913 
C 3552 945 3526 971 3488 971 
C 3430 971 3424 952 3392 843 
C 3245 319 3002 64 2752 64 
C 2688 64 2586 64 2586 269 
C 2586 429 2656 621 2694 710 
C 2822 1063 3091 1780 3091 2145 
C 3091 2528 2867 2816 2381 2816 
C 1811 2816 1510 2415 1395 2255 
C 1376 2618 1114 2816 832 2816 
C 627 2816 486 2695 378 2478 
C 262 2248 173 1865 173 1839 
C 173 1814 198 1782 243 1782 
C 294 1782 301 1788 339 1935 
C 442 2325 557 2689 813 2689 
C 960 2689 1011 2586 1011 2395 
C 1011 2254 947 2005 902 1807 
L 723 1118 
C 698 996 627 709 595 594 
C 550 428 480 128 480 96 
C 480 6 550 -64 646 -64 
C 723 -64 813 -26 864 70 
C 877 102 934 326 966 453 
L 1107 1028 
L 1318 1871 
z
" id="CMMI12-6e" transform="scale(0.015625)"/>
      <path d="M 915 4767 
L 90 4767 
L 90 4544 
L 691 4544 
L 691 -1377 
L 90 -1377 
L 90 -1600 
L 915 -1600 
L 915 4767 
z
" id="CMR17-5d" transform="scale(0.015625)"/>
     </defs>
     <use transform="scale(0.996264)" xlink:href="#CMMI12-78"/>
     <use transform="translate(55.43406 0)scale(0.996264)" xlink:href="#CMR17-5b"/>
     <use transform="translate(80.305118 0)scale(0.996264)" xlink:href="#CMMI12-6e"/>
     <use transform="translate(138.535165 0)scale(0.996264)" xlink:href="#CMR17-5d"/>
    </g>
   </g>
   <g id="text_12">
    <!-- Partie non récursive -->
    <g transform="translate(166.816406 463.866753)scale(0.22 -0.22)">
     <defs>
      <path d="M 2106 1856 
C 2874 1856 3501 2453 3501 3158 
C 3501 3850 2899 4453 2067 4453 
L 570 4453 
L 570 0 
L 1107 0 
L 1107 1856 
L 2106 1856 
z
M 1926 4096 
C 2669 4096 2995 3627 2995 3157 
C 2995 2720 2694 2226 1926 2226 
L 1094 2226 
L 1094 4096 
L 1926 4096 
z
" id="CMSS17-50" transform="scale(0.015625)"/>
      <path d="M 2406 1791 
C 2406 2392 1978 2808 1402 2808 
C 1120 2808 813 2757 461 2553 
L 499 2135 
C 659 2248 934 2432 1395 2432 
C 1722 2432 1920 2180 1920 1782 
L 1920 1536 
C 896 1536 256 1238 256 726 
C 256 461 416 -64 947 -64 
C 1043 -64 1562 -64 1933 217 
L 1933 -19 
L 2406 -19 
L 2406 1791 
z
M 1920 816 
C 1920 701 1920 548 1728 434 
C 1562 325 1350 325 1261 325 
C 941 325 723 511 723 744 
C 723 1211 1722 1211 1920 1211 
L 1920 816 
z
" id="CMSS17-61" transform="scale(0.015625)"/>
      <path d="M 954 1363 
C 954 1965 1395 2368 1958 2368 
L 1958 2789 
C 1549 2789 1165 2585 934 2253 
L 934 2758 
L 480 2758 
L 480 0 
L 954 0 
L 954 1363 
z
" id="CMSS17-72" transform="scale(0.015625)"/>
      <path d="M 1069 2368 
L 1901 2368 
L 1901 2737 
L 1069 2737 
L 1069 3520 
L 614 3520 
L 614 2737 
L 109 2737 
L 109 2368 
L 602 2368 
L 602 749 
C 602 384 685 -64 1107 -64 
C 1427 -64 1722 25 2003 172 
L 1901 548 
C 1747 414 1562 337 1363 337 
C 1082 337 1069 696 1069 856 
L 1069 2368 
z
" id="CMSS17-74" transform="scale(0.015625)"/>
      <path d="M 979 4183 
L 442 4183 
L 442 3648 
L 979 3648 
L 979 4183 
z
M 947 2739 
L 474 2739 
L 474 0 
L 947 0 
L 947 2739 
z
" id="CMSS17-69" transform="scale(0.015625)"/>
      <path d="M 2502 1377 
C 2502 1590 2490 2003 2285 2345 
C 2061 2713 1696 2816 1421 2816 
C 755 2816 192 2188 192 1375 
C 192 582 774 -64 1510 -64 
C 1798 -64 2150 19 2470 248 
C 2470 274 2458 414 2451 420 
C 2451 433 2432 630 2432 656 
C 2125 407 1773 325 1517 325 
C 1107 325 666 667 646 1377 
L 2502 1377 
z
M 698 1728 
C 781 2084 1062 2421 1421 2421 
C 1517 2421 1965 2421 2080 1728 
L 698 1728 
z
" id="CMSS17-65" transform="scale(0.015625)"/>
      <path d="M 2618 1877 
C 2618 2283 2522 2816 1798 2816 
C 1389 2816 1120 2606 941 2389 
L 941 2758 
L 474 2758 
L 474 0 
L 960 0 
L 960 1559 
C 960 1964 1114 2428 1549 2428 
C 2112 2428 2131 2048 2131 1829 
L 2131 0 
L 2618 0 
L 2618 1877 
z
" id="CMSS17-6e" transform="scale(0.015625)"/>
      <path d="M 2829 1356 
C 2829 2176 2221 2816 1504 2816 
C 768 2816 173 2157 173 1356 
C 173 544 787 -64 1498 -64 
C 2227 -64 2829 563 2829 1356 
z
M 1504 337 
C 1050 337 659 709 659 1408 
C 659 2151 1114 2427 1498 2427 
C 1914 2427 2342 2126 2342 1408 
C 2342 683 1926 337 1504 337 
z
" id="CMSS17-6f" transform="scale(0.015625)"/>
      <path d="M 2502 4448 
L 2016 4448 
L 1222 3328 
L 1613 3328 
L 2502 4448 
z
" id="CMSS17-13" transform="scale(0.015625)"/>
      <path d="M 2464 2541 
C 2464 2585 2170 2714 2093 2739 
C 1882 2816 1613 2816 1542 2816 
C 710 2816 211 2093 211 1363 
C 211 595 768 -64 1517 -64 
C 1946 -64 2253 76 2502 242 
L 2464 664 
C 2189 453 1869 337 1523 337 
C 1024 337 698 774 698 1369 
C 698 1831 909 2414 1549 2414 
C 1901 2414 2099 2343 2394 2145 
L 2464 2541 
z
" id="CMSS17-63" transform="scale(0.015625)"/>
      <path d="M 2618 2739 
L 2131 2739 
L 2131 972 
C 2131 498 1786 306 1421 306 
C 998 306 960 447 960 709 
L 960 2739 
L 474 2739 
L 474 678 
C 474 179 646 -64 1088 -64 
C 1306 -64 1798 -13 2144 306 
L 2144 0 
L 2618 0 
L 2618 2739 
z
" id="CMSS17-75" transform="scale(0.015625)"/>
      <path d="M 2061 2627 
C 1683 2807 1389 2807 1197 2807 
C 742 2807 198 2648 198 2003 
C 198 1359 902 1218 1094 1179 
C 1389 1122 1715 1058 1715 740 
C 1715 337 1254 337 1171 337 
C 915 337 563 407 243 638 
L 166 210 
C 531 0 883 -64 1178 -64 
C 1965 -64 2163 416 2163 781 
C 2163 1094 1984 1305 1862 1401 
C 1651 1568 1574 1587 1050 1696 
C 960 1709 646 1779 646 2066 
C 646 2432 1050 2432 1139 2432 
C 1555 2432 1811 2303 1984 2208 
L 2061 2627 
z
" id="CMSS17-73" transform="scale(0.015625)"/>
      <path d="M 2675 2752 
L 2176 2752 
L 1747 1556 
C 1613 1165 1421 627 1389 352 
L 1382 352 
C 1370 468 1318 634 1286 749 
C 1248 890 1197 1056 1158 1172 
L 595 2752 
L 83 2752 
L 1094 0 
L 1664 0 
L 2675 2752 
z
" id="CMSS17-76" transform="scale(0.015625)"/>
     </defs>
     <use transform="scale(0.996264)" xlink:href="#CMSS17-50"/>
     <use transform="translate(57.133132 0)scale(0.996264)" xlink:href="#CMSS17-61"/>
     <use transform="translate(99.452599 0)scale(0.996264)" xlink:href="#CMSS17-72"/>
     <use transform="translate(131.362372 0)scale(0.996264)" xlink:href="#CMSS17-74"/>
     <use transform="translate(165.193938 0)scale(0.996264)" xlink:href="#CMSS17-69"/>
     <use transform="translate(187.374661 0)scale(0.996264)" xlink:href="#CMSS17-65"/>
     <use transform="translate(260.242596 0)scale(0.996264)" xlink:href="#CMSS17-6e"/>
     <use transform="translate(308.447539 0)scale(0.996264)" xlink:href="#CMSS17-6f"/>
     <use transform="translate(355.291163 0)scale(0.996264)" xlink:href="#CMSS17-6e"/>
     <use transform="translate(434.725219 0)scale(0.996264)" xlink:href="#CMSS17-72"/>
     <use transform="translate(464.032583 0)scale(0.996264)" xlink:href="#CMSS17-13"/>
     <use transform="translate(466.634991 0)scale(0.996264)" xlink:href="#CMSS17-65"/>
     <use transform="translate(508.273813 0)scale(0.996264)" xlink:href="#CMSS17-63"/>
     <use transform="translate(549.912635 0)scale(0.996264)" xlink:href="#CMSS17-75"/>
     <use transform="translate(598.117578 0)scale(0.996264)" xlink:href="#CMSS17-72"/>
     <use transform="translate(630.027351 0)scale(0.996264)" xlink:href="#CMSS17-73"/>
     <use transform="translate(665.940893 0)scale(0.996264)" xlink:href="#CMSS17-69"/>
     <use transform="translate(688.121616 0)scale(0.996264)" xlink:href="#CMSS17-76"/>
     <use transform="translate(731.121758 0)scale(0.996264)" xlink:href="#CMSS17-65"/>
    </g>
   </g>
   <g id="text_13">
    <!-- $w[n]$ -->
    <g transform="translate(422.237661 28.986753)scale(0.22 -0.22)">
     <defs>
      <path d="M 2202 390 
C 2342 6 2739 -64 2982 -64 
C 3469 -64 3757 358 3936 798 
C 4083 1169 4320 2012 4320 2389 
C 4320 2778 4122 2816 4064 2816 
C 3910 2816 3770 2663 3770 2535 
C 3770 2459 3814 2414 3846 2389 
C 3904 2331 4070 2159 4070 1827 
C 4070 1609 3891 1009 3757 709 
C 3578 319 3341 64 3008 64 
C 2650 64 2534 332 2534 626 
C 2534 811 2592 1035 2618 1143 
L 2886 2216 
C 2918 2344 2976 2567 2976 2593 
C 2976 2689 2899 2753 2803 2753 
C 2618 2753 2573 2593 2534 2440 
C 2470 2191 2202 1111 2176 971 
C 2150 862 2150 792 2150 651 
C 2150 498 1946 255 1939 243 
C 1869 172 1766 64 1568 64 
C 1062 64 1062 543 1062 651 
C 1062 856 1107 1137 1395 1897 
C 1472 2095 1504 2178 1504 2305 
C 1504 2574 1312 2816 998 2816 
C 410 2816 173 1890 173 1839 
C 173 1814 198 1782 243 1782 
C 301 1782 307 1807 333 1896 
C 493 2454 742 2682 979 2682 
C 1043 2682 1146 2682 1146 2478 
C 1146 2446 1146 2312 1037 2031 
C 736 1233 672 971 672 728 
C 672 57 1222 -64 1549 -64 
C 1658 -64 1946 -64 2202 390 
z
" id="CMMI12-77" transform="scale(0.015625)"/>
     </defs>
     <use transform="scale(0.996264)" xlink:href="#CMMI12-77"/>
     <use transform="translate(72.412915 0)scale(0.996264)" xlink:href="#CMR17-5b"/>
     <use transform="translate(97.283974 0)scale(0.996264)" xlink:href="#CMMI12-6e"/>
     <use transform="translate(155.514021 0)scale(0.996264)" xlink:href="#CMR17-5d"/>
    </g>
   </g>
   <g id="text_14">
    <!-- $z^{-1}$ -->
    <g transform="translate(725.864785 110.526753)scale(0.22 -0.22)">
     <use transform="scale(0.996264)" xlink:href="#CMMI12-7a"/>
     <use transform="translate(49.755145 36.153639)scale(0.697382)" xlink:href="#CMSY10-0"/>
     <use transform="translate(103.996138 36.153639)scale(0.697382)" xlink:href="#CMR17-31"/>
    </g>
   </g>
   <g id="text_15">
    <!-- $z^{-1}$ -->
    <g transform="translate(725.864785 219.246753)scale(0.22 -0.22)">
     <use transform="scale(0.996264)" xlink:href="#CMMI12-7a"/>
     <use transform="translate(49.755145 36.153639)scale(0.697382)" xlink:href="#CMSY10-0"/>
     <use transform="translate(103.996138 36.153639)scale(0.697382)" xlink:href="#CMR17-31"/>
    </g>
   </g>
   <g id="text_16">
    <!-- $z^{-1}$ -->
    <g transform="translate(725.864785 355.146753)scale(0.22 -0.22)">
     <use transform="scale(0.996264)" xlink:href="#CMMI12-7a"/>
     <use transform="translate(49.755145 36.153639)scale(0.697382)" xlink:href="#CMSY10-0"/>
     <use transform="translate(103.996138 36.153639)scale(0.697382)" xlink:href="#CMR17-31"/>
    </g>
   </g>
   <g id="text_17">
    <!-- $1/a_0$ -->
    <g transform="translate(612.5603 56.167452)scale(0.22 -0.22)">
     <defs>
      <path d="M 2746 4562 
C 2746 4569 2784 4666 2784 4678 
C 2784 4755 2720 4800 2669 4800 
C 2637 4800 2579 4800 2528 4659 
L 384 -1363 
C 384 -1370 346 -1465 346 -1478 
C 346 -1555 410 -1600 461 -1600 
C 499 -1600 557 -1593 602 -1459 
L 2746 4562 
z
" id="CMMI12-3d" transform="scale(0.015625)"/>
      <path d="M 1926 760 
C 1894 651 1894 639 1805 517 
C 1664 338 1382 64 1082 64 
C 819 64 672 300 672 677 
C 672 1028 870 1743 992 2012 
C 1210 2459 1510 2689 1760 2689 
C 2182 2689 2266 2165 2266 2114 
C 2266 2108 2246 2024 2240 2012 
L 1926 760 
z
M 2336 2395 
C 2266 2561 2093 2816 1760 2816 
C 1037 2816 256 1884 256 939 
C 256 307 627 -64 1062 -64 
C 1414 -64 1715 211 1894 422 
C 1958 45 2259 -64 2451 -64 
C 2643 -64 2797 51 2912 281 
C 3014 498 3104 888 3104 913 
C 3104 945 3078 971 3040 971 
C 2982 971 2976 939 2950 843 
C 2854 466 2733 64 2470 64 
C 2285 64 2272 230 2272 358 
C 2272 505 2291 575 2349 824 
C 2394 984 2426 1124 2477 1309 
C 2714 2267 2771 2497 2771 2535 
C 2771 2625 2701 2695 2605 2695 
C 2400 2695 2349 2472 2336 2395 
z
" id="CMMI12-61" transform="scale(0.015625)"/>
     </defs>
     <use transform="scale(0.996264)" xlink:href="#CMR17-31"/>
     <use transform="translate(45.690477 0)scale(0.996264)" xlink:href="#CMMI12-3d"/>
     <use transform="translate(94.465396 0)scale(0.996264)" xlink:href="#CMMI12-61"/>
     <use transform="translate(145.673253 -14.943915)scale(0.697382)" xlink:href="#CMR17-30"/>
    </g>
   </g>
   <g id="text_18">
    <!-- $-a_1$ -->
    <g transform="translate(614.427877 164.886753)scale(0.22 -0.22)">
     <use transform="scale(0.996264)" xlink:href="#CMSY10-0"/>
     <use transform="translate(77.487468 0)scale(0.996264)" xlink:href="#CMMI12-61"/>
     <use transform="translate(128.695325 -14.943915)scale(0.697382)" xlink:href="#CMR17-31"/>
    </g>
   </g>
   <g id="text_19">
    <!-- $-a_2$ -->
    <g transform="translate(614.427877 273.606753)scale(0.22 -0.22)">
     <use transform="scale(0.996264)" xlink:href="#CMSY10-0"/>
     <use transform="translate(77.487468 0)scale(0.996264)" xlink:href="#CMMI12-61"/>
     <use transform="translate(128.695325 -14.943915)scale(0.697382)" xlink:href="#CMR17-32"/>
    </g>
   </g>
   <g id="text_20">
    <!-- $-a_N$ -->
    <g transform="translate(612.168687 409.506753)scale(0.22 -0.22)">
     <defs>
      <path d="M 4736 3698 
C 4806 3974 4909 4166 5395 4166 
C 5414 4166 5491 4166 5491 4279 
C 5491 4352 5434 4352 5408 4352 
C 5280 4352 4954 4352 4826 4352 
L 4518 4352 
C 4429 4352 4314 4352 4224 4352 
C 4186 4352 4109 4352 4109 4230 
C 4109 4166 4160 4166 4205 4166 
C 4589 4166 4614 4019 4614 3903 
C 4614 3846 4608 3826 4589 3737 
L 3866 850 
L 2496 4249 
C 2451 4352 2445 4352 2304 4352 
L 1523 4352 
C 1395 4352 1338 4352 1338 4230 
C 1338 4166 1382 4166 1504 4166 
C 1536 4166 1914 4166 1914 4115 
C 1914 4102 1901 4051 1894 4032 
L 1043 635 
C 966 320 813 186 390 186 
C 358 186 294 186 294 67 
C 294 0 358 0 378 0 
C 506 0 832 0 960 0 
L 1267 0 
C 1357 0 1466 0 1555 0 
C 1600 0 1670 0 1670 122 
C 1670 180 1606 186 1581 186 
C 1370 186 1165 224 1165 454 
C 1165 505 1178 562 1190 613 
L 2054 4032 
C 2093 3968 2093 3956 2118 3898 
L 3642 115 
C 3674 38 3686 0 3744 0 
C 3808 0 3814 19 3840 128 
L 4736 3698 
z
" id="CMMI12-4e" transform="scale(0.015625)"/>
     </defs>
     <use transform="scale(0.996264)" xlink:href="#CMSY10-0"/>
     <use transform="translate(77.487468 0)scale(0.996264)" xlink:href="#CMMI12-61"/>
     <use transform="translate(128.695325 -14.943915)scale(0.697382)" xlink:href="#CMMI12-4e"/>
    </g>
   </g>
   <g id="text_21">
    <!-- + -->
    <g transform="translate(515.604533 56.166753)scale(0.22 -0.22)">
     <use transform="scale(0.996264)" xlink:href="#CMSS17-2b"/>
    </g>
   </g>
   <g id="text_22">
    <!-- + -->
    <g transform="translate(515.604533 164.886753)scale(0.22 -0.22)">
     <use transform="scale(0.996264)" xlink:href="#CMSS17-2b"/>
    </g>
   </g>
   <g id="text_23">
    <!-- + -->
    <g transform="translate(515.604533 273.606753)scale(0.22 -0.22)">
     <use transform="scale(0.996264)" xlink:href="#CMSS17-2b"/>
    </g>
   </g>
   <g id="text_24">
    <!-- Partie récursive -->
    <g transform="translate(566.529485 463.866753)scale(0.22 -0.22)">
     <use transform="scale(0.996264)" xlink:href="#CMSS17-50"/>
     <use transform="translate(57.133132 0)scale(0.996264)" xlink:href="#CMSS17-61"/>
     <use transform="translate(99.452599 0)scale(0.996264)" xlink:href="#CMSS17-72"/>
     <use transform="translate(131.362372 0)scale(0.996264)" xlink:href="#CMSS17-74"/>
     <use transform="translate(165.193938 0)scale(0.996264)" xlink:href="#CMSS17-69"/>
     <use transform="translate(187.374661 0)scale(0.996264)" xlink:href="#CMSS17-65"/>
     <use transform="translate(260.242596 0)scale(0.996264)" xlink:href="#CMSS17-72"/>
     <use transform="translate(289.54996 0)scale(0.996264)" xlink:href="#CMSS17-13"/>
     <use transform="translate(292.152369 0)scale(0.996264)" xlink:href="#CMSS17-65"/>
     <use transform="translate(333.791191 0)scale(0.996264)" xlink:href="#CMSS17-63"/>
     <use transform="translate(375.430013 0)scale(0.996264)" xlink:href="#CMSS17-75"/>
     <use transform="translate(423.634956 0)scale(0.996264)" xlink:href="#CMSS17-72"/>
     <use transform="translate(455.544729 0)scale(0.996264)" xlink:href="#CMSS17-73"/>
     <use transform="translate(491.45827 0)scale(0.996264)" xlink:href="#CMSS17-69"/>
     <use transform="translate(513.638994 0)scale(0.996264)" xlink:href="#CMSS17-76"/>
     <use transform="translate(556.639135 0)scale(0.996264)" xlink:href="#CMSS17-65"/>
    </g>
   </g>
   <g id="text_25">
    <!-- $y[n]$ -->
    <g transform="translate(832.277816 56.166753)scale(0.22 -0.22)">
     <defs>
      <path d="M 1683 -700 
C 1510 -939 1261 -1152 947 -1152 
C 870 -1152 563 -1152 467 -889 
C 486 -895 518 -895 531 -895 
C 723 -895 851 -729 851 -582 
C 851 -435 730 -384 634 -384 
C 531 -384 307 -458 307 -759 
C 307 -1071 582 -1286 947 -1286 
C 1587 -1286 2234 -700 2413 6 
L 3040 2485 
C 3046 2517 3059 2556 3059 2594 
C 3059 2689 2982 2753 2886 2753 
C 2829 2753 2694 2727 2643 2535 
L 2170 658 
C 2138 543 2138 530 2086 460 
C 1958 281 1747 64 1440 64 
C 1082 64 1050 415 1050 588 
C 1050 952 1222 1443 1395 1903 
C 1466 2088 1504 2178 1504 2305 
C 1504 2574 1312 2816 998 2816 
C 410 2816 173 1890 173 1839 
C 173 1814 198 1782 243 1782 
C 301 1782 307 1807 333 1897 
C 486 2433 730 2689 979 2689 
C 1037 2689 1146 2689 1146 2478 
C 1146 2312 1075 2127 979 1884 
C 666 1047 666 837 666 683 
C 666 77 1101 -64 1421 -64 
C 1606 -64 1837 -6 2061 230 
L 2067 224 
C 1971 -147 1907 -392 1683 -700 
z
" id="CMMI12-79" transform="scale(0.015625)"/>
     </defs>
     <use transform="scale(0.996264)" xlink:href="#CMMI12-79"/>
     <use transform="translate(51.138781 0)scale(0.996264)" xlink:href="#CMR17-5b"/>
     <use transform="translate(76.009839 0)scale(0.996264)" xlink:href="#CMMI12-6e"/>
     <use transform="translate(134.239887 0)scale(0.996264)" xlink:href="#CMR17-5d"/>
    </g>
   </g>
  </g>
 </g>
 <defs>
  <clipPath id="p1da88eb4b9">
   <rect height="478.368" width="869.76" x="7.2" y="7.2"/>
  </clipPath>
 </defs>
</svg>
