<?xml version="1.0" encoding="utf-8" standalone="no"?>
<!DOCTYPE svg PUBLIC "-//W3C//DTD SVG 1.1//EN"
  "http://www.w3.org/Graphics/SVG/1.1/DTD/svg11.dtd">
<svg height="432.972pt" version="1.1" viewBox="0 0 503.64 432.972" width="503.64pt" xmlns="http://www.w3.org/2000/svg" xmlns:xlink="http://www.w3.org/1999/xlink">
 <metadata>
  <rdf:RDF xmlns:cc="http://creativecommons.org/ns#" xmlns:dc="http://purl.org/dc/elements/1.1/" xmlns:rdf="http://www.w3.org/1999/02/22-rdf-syntax-ns#">
   <cc:Work>
    <dc:type rdf:resource="http://purl.org/dc/dcmitype/StillImage"/>
    <dc:date>2021-10-01T22:31:18.296551</dc:date>
    <dc:format>image/svg+xml</dc:format>
    <dc:creator>
     <cc:Agent>
      <dc:title>Matplotlib v3.4.3, https://matplotlib.org/</dc:title>
     </cc:Agent>
    </dc:creator>
   </cc:Work>
  </rdf:RDF>
 </metadata>
 <defs>
  <style type="text/css">*{stroke-linecap:butt;stroke-linejoin:round;}</style>
 </defs>
 <g id="figure_1">
  <g id="patch_1">
   <path d="M 0 432.972 
L 503.64 432.972 
L 503.64 0 
L 0 0 
z
" style="fill:none;"/>
  </g>
  <g id="axes_1">
   <g id="patch_2">
    <path clip-path="url(#pf323454e94)" d="M 115.92 121.356 
L 170.28 121.356 
L 170.28 66.996 
L 115.92 66.996 
z
" style="fill:#ffffff;stroke:#000000;stroke-linejoin:miter;"/>
   </g>
   <g id="patch_3">
    <path clip-path="url(#pf323454e94)" d="M 115.92 230.076 
L 170.28 230.076 
L 170.28 175.716 
L 115.92 175.716 
z
" style="fill:#ffffff;stroke:#000000;stroke-linejoin:miter;"/>
   </g>
   <g id="patch_4">
    <path clip-path="url(#pf323454e94)" d="M 115.92 365.976 
L 170.28 365.976 
L 170.28 311.616 
L 115.92 311.616 
z
" style="fill:#ffffff;stroke:#000000;stroke-linejoin:miter;"/>
   </g>
   <g id="patch_5">
    <path clip-path="url(#pf323454e94)" d="M 224.64 66.996 
L 279 66.996 
L 279 12.636 
L 224.64 12.636 
z
" style="fill:#ffffff;stroke:#000000;stroke-linejoin:miter;"/>
   </g>
   <g id="patch_6">
    <path clip-path="url(#pf323454e94)" d="M 224.64 175.716 
L 279 175.716 
L 279 121.356 
L 224.64 121.356 
z
" style="fill:#ffffff;stroke:#000000;stroke-linejoin:miter;"/>
   </g>
   <g id="patch_7">
    <path clip-path="url(#pf323454e94)" d="M 224.64 284.436 
L 279 284.436 
L 279 230.076 
L 224.64 230.076 
z
" style="fill:#ffffff;stroke:#000000;stroke-linejoin:miter;"/>
   </g>
   <g id="patch_8">
    <path clip-path="url(#pf323454e94)" d="M 224.64 420.336 
L 279 420.336 
L 279 365.976 
L 224.64 365.976 
z
" style="fill:#ffffff;stroke:#000000;stroke-linejoin:miter;"/>
   </g>
   <g id="patch_9">
    <path clip-path="url(#pf323454e94)" d="M 224.64 39.816 
L 219.204 42.534 
L 219.204 39.84318 
L 61.56 39.84318 
L 61.56 39.78882 
L 219.204 39.78882 
L 219.204 37.098 
z
" style="stroke:#000000;stroke-linejoin:miter;stroke-width:0.5;"/>
   </g>
   <g id="patch_10">
    <path clip-path="url(#pf323454e94)" d="M 224.64 148.536 
L 219.204 151.254 
L 219.204 148.56318 
L 143.1 148.56318 
L 143.1 148.50882 
L 219.204 148.50882 
L 219.204 145.818 
z
" style="stroke:#000000;stroke-linejoin:miter;stroke-width:0.5;"/>
   </g>
   <g id="patch_11">
    <path clip-path="url(#pf323454e94)" d="M 224.64 257.256 
L 219.204 259.974 
L 219.204 257.28318 
L 143.1 257.28318 
L 143.1 257.22882 
L 219.204 257.22882 
L 219.204 254.538 
z
" style="stroke:#000000;stroke-linejoin:miter;stroke-width:0.5;"/>
   </g>
   <g id="patch_12">
    <path clip-path="url(#pf323454e94)" d="M 224.64 393.156 
L 219.204 395.874 
L 219.204 393.18318 
L 143.1 393.18318 
L 143.1 393.12882 
L 219.204 393.12882 
L 219.204 390.438 
z
" style="stroke:#000000;stroke-linejoin:miter;stroke-width:0.5;"/>
   </g>
   <g id="patch_13">
    <path clip-path="url(#pf323454e94)" d="M 143.1 66.996 
L 140.382 61.56 
L 143.07282 61.56 
L 143.07282 39.816 
L 143.12718 39.816 
L 143.12718 61.56 
L 145.818 61.56 
z
" style="stroke:#000000;stroke-linejoin:miter;stroke-width:0.5;"/>
   </g>
   <g id="patch_14">
    <path clip-path="url(#pf323454e94)" d="M 143.1 175.716 
L 140.382 170.28 
L 143.07282 170.28 
L 143.07282 121.356 
L 143.12718 121.356 
L 143.12718 170.28 
L 145.818 170.28 
z
" style="stroke:#000000;stroke-linejoin:miter;stroke-width:0.5;"/>
   </g>
   <g id="patch_15">
    <path clip-path="url(#pf323454e94)" d="M 143.1 279 
L 143.1 279 
L 143.07282 279 
L 143.07282 230.076 
L 143.12718 230.076 
L 143.12718 279 
L 143.1 279 
z
" style="stroke:#000000;stroke-linejoin:miter;"/>
   </g>
   <g id="patch_16">
    <path clip-path="url(#pf323454e94)" d="M 143.1 311.616 
L 140.382 306.18 
L 143.07282 306.18 
L 143.07282 295.308 
L 143.12718 295.308 
L 143.12718 306.18 
L 145.818 306.18 
z
" style="stroke:#000000;stroke-linejoin:miter;stroke-width:0.5;"/>
   </g>
   <g id="patch_17">
    <path clip-path="url(#pf323454e94)" d="M 143.1 393.156 
L 143.1 393.156 
L 143.07282 393.156 
L 143.07282 365.976 
L 143.12718 365.976 
L 143.12718 393.156 
L 143.1 393.156 
z
" style="stroke:#000000;stroke-linejoin:miter;"/>
   </g>
   <g id="patch_18">
    <path clip-path="url(#pf323454e94)" d="M 442.08 39.816 
L 436.644 42.534 
L 436.644 39.84318 
L 387.72 39.84318 
L 387.72 39.78882 
L 436.644 39.78882 
L 436.644 37.098 
z
" style="stroke:#000000;stroke-linejoin:miter;stroke-width:0.5;"/>
   </g>
   <g id="patch_19">
    <path clip-path="url(#pf323454e94)" d="M 333.36 39.816 
L 327.924 42.534 
L 327.924 39.84318 
L 279 39.84318 
L 279 39.78882 
L 327.924 39.78882 
L 327.924 37.098 
z
" style="stroke:#000000;stroke-linejoin:miter;stroke-width:0.5;"/>
   </g>
   <g id="patch_20">
    <path clip-path="url(#pf323454e94)" d="M 333.36 148.536 
L 327.924 151.254 
L 327.924 148.56318 
L 279 148.56318 
L 279 148.50882 
L 327.924 148.50882 
L 327.924 145.818 
z
" style="stroke:#000000;stroke-linejoin:miter;stroke-width:0.5;"/>
   </g>
   <g id="patch_21">
    <path clip-path="url(#pf323454e94)" d="M 333.36 257.256 
L 327.924 259.974 
L 327.924 257.28318 
L 279 257.28318 
L 279 257.22882 
L 327.924 257.22882 
L 327.924 254.538 
z
" style="stroke:#000000;stroke-linejoin:miter;stroke-width:0.5;"/>
   </g>
   <g id="patch_22">
    <path clip-path="url(#pf323454e94)" d="M 360.54 393.156 
L 360.54 393.156 
L 360.54 393.18318 
L 279 393.18318 
L 279 393.12882 
L 360.54 393.12882 
L 360.54 393.156 
z
" style="stroke:#000000;stroke-linejoin:miter;"/>
   </g>
   <g id="patch_23">
    <path clip-path="url(#pf323454e94)" d="M 360.54 66.996 
L 363.258 72.432 
L 360.56718 72.432 
L 360.56718 121.356 
L 360.51282 121.356 
L 360.51282 72.432 
L 357.822 72.432 
z
" style="stroke:#000000;stroke-linejoin:miter;stroke-width:0.5;"/>
   </g>
   <g id="patch_24">
    <path clip-path="url(#pf323454e94)" d="M 360.54 175.716 
L 363.258 181.152 
L 360.56718 181.152 
L 360.56718 230.076 
L 360.51282 230.076 
L 360.51282 181.152 
L 357.822 181.152 
z
" style="stroke:#000000;stroke-linejoin:miter;stroke-width:0.5;"/>
   </g>
   <g id="patch_25">
    <path clip-path="url(#pf323454e94)" d="M 360.54 284.436 
L 363.258 289.872 
L 360.56718 289.872 
L 360.56718 295.308 
L 360.51282 295.308 
L 360.51282 289.872 
L 357.822 289.872 
z
" style="stroke:#000000;stroke-linejoin:miter;stroke-width:0.5;"/>
   </g>
   <g id="patch_26">
    <path clip-path="url(#pf323454e94)" d="M 360.54 311.616 
L 360.54 311.616 
L 360.56718 311.616 
L 360.56718 393.156 
L 360.51282 393.156 
L 360.51282 311.616 
L 360.54 311.616 
z
" style="stroke:#000000;stroke-linejoin:miter;"/>
   </g>
   <g id="patch_27">
    <path clip-path="url(#pf323454e94)" d="M 143.1 284.436 
L 143.1 284.436 
L 143.12718 284.436 
L 143.12718 289.872 
L 143.07282 289.872 
L 143.07282 284.436 
L 143.1 284.436 
z
" style="stroke:#000000;stroke-linejoin:miter;"/>
   </g>
   <g id="patch_28">
    <path clip-path="url(#pf323454e94)" d="M 360.54 300.744 
L 360.54 300.744 
L 360.56718 300.744 
L 360.56718 306.18 
L 360.51282 306.18 
L 360.51282 300.744 
L 360.54 300.744 
z
" style="stroke:#000000;stroke-linejoin:miter;"/>
   </g>
   <g id="patch_29">
    <path clip-path="url(#pf323454e94)" d="M 360.54 66.996 
C 367.74822 66.996 374.662181 64.132144 379.759162 59.035162 
C 384.856144 53.938181 387.72 47.02422 387.72 39.816 
C 387.72 32.60778 384.856144 25.693819 379.759162 20.596838 
C 374.662181 15.499856 367.74822 12.636 360.54 12.636 
C 353.33178 12.636 346.417819 15.499856 341.320838 20.596838 
C 336.223856 25.693819 333.36 32.60778 333.36 39.816 
C 333.36 47.02422 336.223856 53.938181 341.320838 59.035162 
C 346.417819 64.132144 353.33178 66.996 360.54 66.996 
z
" style="fill:#ffffff;stroke:#000000;stroke-linejoin:miter;"/>
   </g>
   <g id="patch_30">
    <path clip-path="url(#pf323454e94)" d="M 360.54 175.716 
C 367.74822 175.716 374.662181 172.852144 379.759162 167.755162 
C 384.856144 162.658181 387.72 155.74422 387.72 148.536 
C 387.72 141.32778 384.856144 134.413819 379.759162 129.316838 
C 374.662181 124.219856 367.74822 121.356 360.54 121.356 
C 353.33178 121.356 346.417819 124.219856 341.320838 129.316838 
C 336.223856 134.413819 333.36 141.32778 333.36 148.536 
C 333.36 155.74422 336.223856 162.658181 341.320838 167.755162 
C 346.417819 172.852144 353.33178 175.716 360.54 175.716 
z
" style="fill:#ffffff;stroke:#000000;stroke-linejoin:miter;"/>
   </g>
   <g id="patch_31">
    <path clip-path="url(#pf323454e94)" d="M 360.54 284.436 
C 367.74822 284.436 374.662181 281.572144 379.759162 276.475162 
C 384.856144 271.378181 387.72 264.46422 387.72 257.256 
C 387.72 250.04778 384.856144 243.133819 379.759162 238.036838 
C 374.662181 232.939856 367.74822 230.076 360.54 230.076 
C 353.33178 230.076 346.417819 232.939856 341.320838 238.036838 
C 336.223856 243.133819 333.36 250.04778 333.36 257.256 
C 333.36 264.46422 336.223856 271.378181 341.320838 276.475162 
C 346.417819 281.572144 353.33178 284.436 360.54 284.436 
z
" style="fill:#ffffff;stroke:#000000;stroke-linejoin:miter;"/>
   </g>
   <g id="text_1">
    <!-- $z^{-1}$ -->
    <g transform="translate(127.904785 99.654753)scale(0.22 -0.22)">
     <defs>
      <path d="M 813 486 
C 1088 803 1312 1004 1632 1296 
C 2016 1632 2182 1793 2272 1891 
C 2720 2338 2944 2713 2944 2764 
C 2944 2816 2893 2816 2880 2816 
C 2835 2816 2822 2793 2790 2750 
C 2630 2494 2477 2367 2310 2367 
C 2176 2367 2106 2421 1984 2565 
C 1850 2715 1741 2816 1555 2816 
C 1088 2816 806 2257 806 2128 
C 806 2108 813 2068 870 2068 
C 922 2068 928 2091 947 2133 
C 1056 2372 1363 2414 1485 2414 
C 1619 2414 1747 2376 1882 2327 
C 2125 2240 2227 2240 2291 2240 
C 2336 2240 2362 2240 2394 2246 
C 2182 1994 1837 1683 1549 1418 
L 902 816 
C 512 415 275 33 275 -12 
C 275 -51 307 -64 346 -64 
C 384 -64 390 -57 435 14 
C 538 163 742 384 979 384 
C 1114 384 1178 342 1306 193 
C 1427 61 1536 -64 1741 -64 
C 2368 -64 2726 732 2726 876 
C 2726 903 2720 942 2656 942 
C 2605 942 2598 917 2579 855 
C 2438 488 2061 338 1811 338 
C 1677 338 1549 376 1414 425 
C 1158 512 1088 512 1005 512 
C 941 512 870 512 813 486 
z
" id="CMMI12-7a" transform="scale(0.015625)"/>
      <path d="M 4218 1472 
C 4326 1472 4442 1472 4442 1600 
C 4442 1728 4326 1728 4218 1728 
L 755 1728 
C 646 1728 531 1728 531 1600 
C 531 1472 646 1472 755 1472 
L 4218 1472 
z
" id="CMSY10-0" transform="scale(0.015625)"/>
      <path d="M 1702 4058 
C 1702 4192 1696 4192 1606 4192 
C 1357 3916 979 3827 621 3827 
C 602 3827 570 3827 563 3808 
C 557 3795 557 3782 557 3648 
C 755 3648 1088 3686 1344 3839 
L 1344 461 
C 1344 236 1331 160 781 160 
L 589 160 
L 589 0 
C 896 0 1216 0 1523 0 
C 1830 0 2150 0 2458 0 
L 2458 160 
L 2266 160 
C 1715 160 1702 230 1702 458 
L 1702 4058 
z
" id="CMR17-31" transform="scale(0.015625)"/>
     </defs>
     <use transform="scale(0.996264)" xlink:href="#CMMI12-7a"/>
     <use transform="translate(49.755145 36.153639)scale(0.697382)" xlink:href="#CMSY10-0"/>
     <use transform="translate(103.996138 36.153639)scale(0.697382)" xlink:href="#CMR17-31"/>
    </g>
   </g>
   <g id="text_2">
    <!-- $z^{-1}$ -->
    <g transform="translate(127.904785 208.374753)scale(0.22 -0.22)">
     <use transform="scale(0.996264)" xlink:href="#CMMI12-7a"/>
     <use transform="translate(49.755145 36.153639)scale(0.697382)" xlink:href="#CMSY10-0"/>
     <use transform="translate(103.996138 36.153639)scale(0.697382)" xlink:href="#CMR17-31"/>
    </g>
   </g>
   <g id="text_3">
    <!-- $z^{-1}$ -->
    <g transform="translate(127.904785 344.274753)scale(0.22 -0.22)">
     <use transform="scale(0.996264)" xlink:href="#CMMI12-7a"/>
     <use transform="translate(49.755145 36.153639)scale(0.697382)" xlink:href="#CMSY10-0"/>
     <use transform="translate(103.996138 36.153639)scale(0.697382)" xlink:href="#CMR17-31"/>
    </g>
   </g>
   <g id="text_4">
    <!-- $b_0$ -->
    <g transform="translate(243.50201 45.294753)scale(0.22 -0.22)">
     <defs>
      <path d="M 1478 4257 
C 1485 4283 1498 4321 1498 4352 
C 1498 4416 1434 4416 1421 4416 
C 1414 4416 1184 4393 1069 4377 
C 960 4377 864 4358 749 4358 
C 595 4345 550 4339 550 4224 
C 550 4160 614 4160 678 4160 
C 1005 4160 1005 4103 1005 4040 
C 1005 3996 954 3811 928 3696 
L 774 3085 
C 710 2831 346 1387 320 1272 
C 288 1114 288 1005 288 922 
C 288 274 653 -64 1069 -64 
C 1811 -64 2579 888 2579 1814 
C 2579 2401 2246 2816 1766 2816 
C 1434 2816 1133 2542 1011 2414 
L 1478 4257 
z
M 1075 64 
C 870 64 646 217 646 715 
C 646 926 666 1047 781 1494 
C 800 1577 902 1986 928 2069 
C 941 2120 1318 2689 1754 2689 
C 2035 2689 2163 2408 2163 2076 
C 2163 1769 1984 1047 1824 715 
C 1664 370 1370 64 1075 64 
z
" id="CMMI12-62" transform="scale(0.015625)"/>
      <path d="M 2688 2025 
C 2688 2416 2682 3080 2413 3591 
C 2176 4039 1798 4198 1466 4198 
C 1158 4198 768 4058 525 3597 
C 269 3118 243 2524 243 2025 
C 243 1661 250 1106 448 619 
C 723 -39 1216 -128 1466 -128 
C 1760 -128 2208 -7 2470 600 
C 2662 1042 2688 1559 2688 2025 
z
M 1466 -26 
C 1056 -26 813 325 723 812 
C 653 1188 653 1738 653 2096 
C 653 2588 653 2997 736 3387 
C 858 3929 1216 4096 1466 4096 
C 1728 4096 2067 3923 2189 3400 
C 2272 3036 2278 2607 2278 2096 
C 2278 1680 2278 1169 2202 792 
C 2067 95 1690 -26 1466 -26 
z
" id="CMR17-30" transform="scale(0.015625)"/>
     </defs>
     <use transform="scale(0.996264)" xlink:href="#CMMI12-62"/>
     <use transform="translate(41.475874 -14.943915)scale(0.697382)" xlink:href="#CMR17-30"/>
    </g>
   </g>
   <g id="text_5">
    <!-- $b_1$ -->
    <g transform="translate(243.50201 154.014753)scale(0.22 -0.22)">
     <use transform="scale(0.996264)" xlink:href="#CMMI12-62"/>
     <use transform="translate(41.475874 -14.943915)scale(0.697382)" xlink:href="#CMR17-31"/>
    </g>
   </g>
   <g id="text_6">
    <!-- $b_2$ -->
    <g transform="translate(243.50201 262.734753)scale(0.22 -0.22)">
     <defs>
      <path d="M 2669 989 
L 2554 989 
C 2490 536 2438 459 2413 420 
C 2381 369 1920 369 1830 369 
L 602 369 
C 832 619 1280 1072 1824 1597 
C 2214 1967 2669 2402 2669 3035 
C 2669 3790 2067 4224 1395 4224 
C 691 4224 262 3604 262 3030 
C 262 2780 448 2748 525 2748 
C 589 2748 781 2787 781 3010 
C 781 3207 614 3264 525 3264 
C 486 3264 448 3258 422 3245 
C 544 3790 915 4058 1306 4058 
C 1862 4058 2227 3617 2227 3035 
C 2227 2479 1901 2000 1536 1584 
L 262 146 
L 262 0 
L 2515 0 
L 2669 989 
z
" id="CMR17-32" transform="scale(0.015625)"/>
     </defs>
     <use transform="scale(0.996264)" xlink:href="#CMMI12-62"/>
     <use transform="translate(41.475874 -14.943915)scale(0.697382)" xlink:href="#CMR17-32"/>
    </g>
   </g>
   <g id="text_7">
    <!-- $b_N$ -->
    <g transform="translate(241.24282 398.634753)scale(0.22 -0.22)">
     <defs>
      <path d="M 4736 3698 
C 4806 3974 4909 4166 5395 4166 
C 5414 4166 5491 4166 5491 4279 
C 5491 4352 5434 4352 5408 4352 
C 5280 4352 4954 4352 4826 4352 
L 4518 4352 
C 4429 4352 4314 4352 4224 4352 
C 4186 4352 4109 4352 4109 4230 
C 4109 4166 4160 4166 4205 4166 
C 4589 4166 4614 4019 4614 3903 
C 4614 3846 4608 3826 4589 3737 
L 3866 850 
L 2496 4249 
C 2451 4352 2445 4352 2304 4352 
L 1523 4352 
C 1395 4352 1338 4352 1338 4230 
C 1338 4166 1382 4166 1504 4166 
C 1536 4166 1914 4166 1914 4115 
C 1914 4102 1901 4051 1894 4032 
L 1043 635 
C 966 320 813 186 390 186 
C 358 186 294 186 294 67 
C 294 0 358 0 378 0 
C 506 0 832 0 960 0 
L 1267 0 
C 1357 0 1466 0 1555 0 
C 1600 0 1670 0 1670 122 
C 1670 180 1606 186 1581 186 
C 1370 186 1165 224 1165 454 
C 1165 505 1178 562 1190 613 
L 2054 4032 
C 2093 3968 2093 3956 2118 3898 
L 3642 115 
C 3674 38 3686 0 3744 0 
C 3808 0 3814 19 3840 128 
L 4736 3698 
z
" id="CMMI12-4e" transform="scale(0.015625)"/>
     </defs>
     <use transform="scale(0.996264)" xlink:href="#CMMI12-62"/>
     <use transform="translate(41.475874 -14.943915)scale(0.697382)" xlink:href="#CMMI12-4e"/>
    </g>
   </g>
   <g id="text_8">
    <!-- + -->
    <g transform="translate(352.524533 45.294753)scale(0.22 -0.22)">
     <defs>
      <path d="M 2451 1505 
L 4141 1505 
C 4230 1505 4339 1505 4339 1613 
C 4339 1728 4237 1728 4141 1728 
L 2451 1728 
L 2451 3413 
C 2451 3502 2451 3611 2342 3611 
C 2227 3611 2227 3509 2227 3413 
L 2227 1728 
L 531 1728 
C 442 1728 333 1728 333 1620 
C 333 1505 435 1505 531 1505 
L 2227 1505 
L 2227 -186 
C 2227 -275 2227 -384 2336 -384 
C 2451 -384 2451 -282 2451 -186 
L 2451 1505 
z
" id="CMSS17-2b" transform="scale(0.015625)"/>
     </defs>
     <use transform="scale(0.996264)" xlink:href="#CMSS17-2b"/>
    </g>
   </g>
   <g id="text_9">
    <!-- + -->
    <g transform="translate(352.524533 154.014753)scale(0.22 -0.22)">
     <use transform="scale(0.996264)" xlink:href="#CMSS17-2b"/>
    </g>
   </g>
   <g id="text_10">
    <!-- + -->
    <g transform="translate(352.524533 262.734753)scale(0.22 -0.22)">
     <use transform="scale(0.996264)" xlink:href="#CMSS17-2b"/>
    </g>
   </g>
   <g id="text_11">
    <!-- $x[n]$ -->
    <g transform="translate(16.405329 45.294753)scale(0.22 -0.22)">
     <defs>
      <path d="M 3034 2606 
C 2829 2567 2752 2414 2752 2293 
C 2752 2139 2874 2088 2963 2088 
C 3155 2088 3290 2254 3290 2427 
C 3290 2695 2982 2816 2714 2816 
C 2323 2816 2106 2433 2048 2312 
C 1901 2816 1504 2816 1389 2816 
C 736 2816 390 1980 390 1839 
C 390 1814 416 1782 461 1782 
C 512 1782 525 1820 538 1846 
C 755 2555 1184 2689 1370 2689 
C 1658 2689 1715 2420 1715 2267 
C 1715 2127 1677 1980 1600 1673 
L 1382 798 
C 1286 415 1101 64 762 64 
C 730 64 570 64 435 147 
C 666 192 717 383 717 460 
C 717 588 621 664 499 664 
C 346 664 179 530 179 326 
C 179 57 480 -64 755 -64 
C 1062 -64 1280 179 1414 441 
C 1517 64 1837 -64 2074 -64 
C 2726 -64 3072 773 3072 913 
C 3072 945 3046 971 3008 971 
C 2950 971 2944 939 2925 888 
C 2752 326 2381 64 2093 64 
C 1869 64 1747 230 1747 492 
C 1747 632 1773 734 1875 1156 
L 2099 2024 
C 2195 2408 2413 2689 2707 2689 
C 2720 2689 2899 2689 3034 2606 
z
" id="CMMI12-78" transform="scale(0.015625)"/>
      <path d="M 1504 -1600 
L 1504 -1377 
L 902 -1377 
L 902 4544 
L 1504 4544 
L 1504 4767 
L 678 4767 
L 678 -1600 
L 1504 -1600 
z
" id="CMR17-5b" transform="scale(0.015625)"/>
      <path d="M 1318 1871 
C 1331 1910 1491 2229 1728 2433 
C 1894 2586 2112 2689 2362 2689 
C 2618 2689 2707 2497 2707 2242 
C 2707 1878 2445 1150 2317 805 
C 2259 651 2227 568 2227 453 
C 2227 166 2426 -64 2733 -64 
C 3328 -64 3552 875 3552 913 
C 3552 945 3526 971 3488 971 
C 3430 971 3424 952 3392 843 
C 3245 319 3002 64 2752 64 
C 2688 64 2586 64 2586 269 
C 2586 429 2656 621 2694 710 
C 2822 1063 3091 1780 3091 2145 
C 3091 2528 2867 2816 2381 2816 
C 1811 2816 1510 2415 1395 2255 
C 1376 2618 1114 2816 832 2816 
C 627 2816 486 2695 378 2478 
C 262 2248 173 1865 173 1839 
C 173 1814 198 1782 243 1782 
C 294 1782 301 1788 339 1935 
C 442 2325 557 2689 813 2689 
C 960 2689 1011 2586 1011 2395 
C 1011 2254 947 2005 902 1807 
L 723 1118 
C 698 996 627 709 595 594 
C 550 428 480 128 480 96 
C 480 6 550 -64 646 -64 
C 723 -64 813 -26 864 70 
C 877 102 934 326 966 453 
L 1107 1028 
L 1318 1871 
z
" id="CMMI12-6e" transform="scale(0.015625)"/>
      <path d="M 915 4767 
L 90 4767 
L 90 4544 
L 691 4544 
L 691 -1377 
L 90 -1377 
L 90 -1600 
L 915 -1600 
L 915 4767 
z
" id="CMR17-5d" transform="scale(0.015625)"/>
     </defs>
     <use transform="scale(0.996264)" xlink:href="#CMMI12-78"/>
     <use transform="translate(55.43406 0)scale(0.996264)" xlink:href="#CMR17-5b"/>
     <use transform="translate(80.305118 0)scale(0.996264)" xlink:href="#CMMI12-6e"/>
     <use transform="translate(138.535165 0)scale(0.996264)" xlink:href="#CMR17-5d"/>
    </g>
   </g>
   <g id="text_12">
    <!-- $y[n]$ -->
    <g transform="translate(451.757816 45.294753)scale(0.22 -0.22)">
     <defs>
      <path d="M 1683 -700 
C 1510 -939 1261 -1152 947 -1152 
C 870 -1152 563 -1152 467 -889 
C 486 -895 518 -895 531 -895 
C 723 -895 851 -729 851 -582 
C 851 -435 730 -384 634 -384 
C 531 -384 307 -458 307 -759 
C 307 -1071 582 -1286 947 -1286 
C 1587 -1286 2234 -700 2413 6 
L 3040 2485 
C 3046 2517 3059 2556 3059 2594 
C 3059 2689 2982 2753 2886 2753 
C 2829 2753 2694 2727 2643 2535 
L 2170 658 
C 2138 543 2138 530 2086 460 
C 1958 281 1747 64 1440 64 
C 1082 64 1050 415 1050 588 
C 1050 952 1222 1443 1395 1903 
C 1466 2088 1504 2178 1504 2305 
C 1504 2574 1312 2816 998 2816 
C 410 2816 173 1890 173 1839 
C 173 1814 198 1782 243 1782 
C 301 1782 307 1807 333 1897 
C 486 2433 730 2689 979 2689 
C 1037 2689 1146 2689 1146 2478 
C 1146 2312 1075 2127 979 1884 
C 666 1047 666 837 666 683 
C 666 77 1101 -64 1421 -64 
C 1606 -64 1837 -6 2061 230 
L 2067 224 
C 1971 -147 1907 -392 1683 -700 
z
" id="CMMI12-79" transform="scale(0.015625)"/>
     </defs>
     <use transform="scale(0.996264)" xlink:href="#CMMI12-79"/>
     <use transform="translate(51.138781 0)scale(0.996264)" xlink:href="#CMR17-5b"/>
     <use transform="translate(76.009839 0)scale(0.996264)" xlink:href="#CMMI12-6e"/>
     <use transform="translate(134.239887 0)scale(0.996264)" xlink:href="#CMR17-5d"/>
    </g>
   </g>
  </g>
 </g>
 <defs>
  <clipPath id="pf323454e94">
   <rect height="418.572" width="489.24" x="7.2" y="7.2"/>
  </clipPath>
 </defs>
</svg>
