<?xml version="1.0" encoding="utf-8" standalone="no"?>
<!DOCTYPE svg PUBLIC "-//W3C//DTD SVG 1.1//EN"
  "http://www.w3.org/Graphics/SVG/1.1/DTD/svg11.dtd">
<svg height="375.256364pt" version="1.1" viewBox="0 0 714.930965 375.256364" width="714.930965pt" xmlns="http://www.w3.org/2000/svg" xmlns:xlink="http://www.w3.org/1999/xlink">
 <metadata>
  <rdf:RDF xmlns:cc="http://creativecommons.org/ns#" xmlns:dc="http://purl.org/dc/elements/1.1/" xmlns:rdf="http://www.w3.org/1999/02/22-rdf-syntax-ns#">
   <cc:Work>
    <dc:type rdf:resource="http://purl.org/dc/dcmitype/StillImage"/>
    <dc:date>2024-10-04T15:59:05.083072</dc:date>
    <dc:format>image/svg+xml</dc:format>
    <dc:creator>
     <cc:Agent>
      <dc:title>Matplotlib v3.4.3, https://matplotlib.org/</dc:title>
     </cc:Agent>
    </dc:creator>
   </cc:Work>
  </rdf:RDF>
 </metadata>
 <defs>
  <style type="text/css">*{stroke-linecap:butt;stroke-linejoin:round;}</style>
 </defs>
 <g id="figure_1">
  <g id="patch_1">
   <path d="M 0 375.256364 
L 714.930965 375.256364 
L 714.930965 0 
L 0 0 
z
" style="fill:none;"/>
  </g>
  <g id="axes_1">
   <g id="patch_2">
    <path d="M 29.35148 166.078284 
L 333.715116 166.078284 
L 333.715116 24.269588 
L 29.35148 24.269588 
z
" style="fill:#ffffff;"/>
   </g>
   <g id="matplotlib.axis_1">
    <g id="xtick_1">
     <g id="line2d_1">
      <path clip-path="url(#p447ae32e97)" d="M 29.35148 166.078284 
L 29.35148 24.269588 
" style="fill:none;stroke:#b0b0b0;stroke-linecap:square;stroke-width:0.8;"/>
     </g>
     <g id="line2d_2">
      <defs>
       <path d="M 0 0 
L 0 3.5 
" id="m575aff5541" style="stroke:#000000;stroke-width:0.8;"/>
      </defs>
      <g>
       <use style="stroke:#000000;stroke-width:0.8;" x="29.35148" xlink:href="#m575aff5541" y="166.078284"/>
      </g>
     </g>
     <g id="text_1">
      <!-- $\mathdefault{0}$ -->
      <g transform="translate(26.424985 181.380464)scale(0.12 -0.12)">
       <defs>
        <path d="M 2688 2038 
C 2688 2430 2682 3099 2413 3613 
C 2176 4063 1798 4224 1466 4224 
C 1158 4224 768 4082 525 3620 
C 269 3137 243 2539 243 2038 
C 243 1671 250 1112 448 623 
C 723 -39 1216 -128 1466 -128 
C 1760 -128 2208 -7 2470 604 
C 2662 1048 2688 1568 2688 2038 
z
M 1466 -26 
C 1056 -26 813 328 723 816 
C 653 1196 653 1749 653 2109 
C 653 2604 653 3015 736 3407 
C 858 3954 1216 4121 1466 4121 
C 1728 4121 2067 3947 2189 3420 
C 2272 3054 2278 2623 2278 2109 
C 2278 1691 2278 1176 2202 797 
C 2067 96 1690 -26 1466 -26 
z
" id="CMR17-30" transform="scale(0.015625)"/>
       </defs>
       <use transform="scale(0.996264)" xlink:href="#CMR17-30"/>
      </g>
     </g>
    </g>
    <g id="xtick_2">
     <g id="line2d_3">
      <path clip-path="url(#p447ae32e97)" d="M 67.396934 166.078284 
L 67.396934 24.269588 
" style="fill:none;stroke:#b0b0b0;stroke-linecap:square;stroke-width:0.8;"/>
     </g>
     <g id="line2d_4">
      <g>
       <use style="stroke:#000000;stroke-width:0.8;" x="67.396934" xlink:href="#m575aff5541" y="166.078284"/>
      </g>
     </g>
     <g id="text_2">
      <!-- $\mathdefault{25}$ -->
      <g transform="translate(61.543944 181.380464)scale(0.12 -0.12)">
       <defs>
        <path d="M 2669 990 
L 2554 990 
C 2490 537 2438 460 2413 422 
C 2381 371 1920 371 1830 371 
L 602 371 
C 832 620 1280 1073 1824 1596 
C 2214 1966 2669 2400 2669 3033 
C 2669 3788 2067 4224 1395 4224 
C 691 4224 262 3603 262 3027 
C 262 2777 448 2745 525 2745 
C 589 2745 781 2783 781 3007 
C 781 3206 614 3264 525 3264 
C 486 3264 448 3257 422 3244 
C 544 3788 915 4057 1306 4057 
C 1862 4057 2227 3616 2227 3033 
C 2227 2477 1901 1998 1536 1583 
L 262 147 
L 262 0 
L 2515 0 
L 2669 990 
z
" id="CMR17-32" transform="scale(0.015625)"/>
        <path d="M 730 3750 
C 794 3724 1056 3641 1325 3641 
C 1920 3641 2246 3961 2432 4140 
C 2432 4191 2432 4224 2394 4224 
C 2387 4224 2374 4224 2323 4198 
C 2099 4102 1837 4032 1517 4032 
C 1325 4032 1037 4055 723 4191 
C 653 4224 640 4224 634 4224 
C 602 4224 595 4217 595 4090 
L 595 2231 
C 595 2113 595 2080 659 2080 
C 691 2080 704 2093 736 2139 
C 941 2435 1222 2560 1542 2560 
C 1766 2560 2246 2415 2246 1293 
C 2246 1087 2246 716 2054 422 
C 1894 159 1645 25 1370 25 
C 947 25 518 319 403 812 
C 429 806 480 793 506 793 
C 589 793 749 838 749 1036 
C 749 1209 627 1280 506 1280 
C 358 1280 262 1190 262 1011 
C 262 454 704 -128 1382 -128 
C 2042 -128 2669 441 2669 1267 
C 2669 2054 2170 2662 1549 2662 
C 1222 2662 947 2540 730 2304 
L 730 3750 
z
" id="CMR17-35" transform="scale(0.015625)"/>
       </defs>
       <use transform="scale(0.996264)" xlink:href="#CMR17-32"/>
       <use transform="translate(45.690477 0)scale(0.996264)" xlink:href="#CMR17-35"/>
      </g>
     </g>
    </g>
    <g id="xtick_3">
     <g id="line2d_5">
      <path clip-path="url(#p447ae32e97)" d="M 105.442389 166.078284 
L 105.442389 24.269588 
" style="fill:none;stroke:#b0b0b0;stroke-linecap:square;stroke-width:0.8;"/>
     </g>
     <g id="line2d_6">
      <g>
       <use style="stroke:#000000;stroke-width:0.8;" x="105.442389" xlink:href="#m575aff5541" y="166.078284"/>
      </g>
     </g>
     <g id="text_3">
      <!-- $\mathdefault{50}$ -->
      <g transform="translate(99.589399 181.380464)scale(0.12 -0.12)">
       <use transform="scale(0.996264)" xlink:href="#CMR17-35"/>
       <use transform="translate(45.690477 0)scale(0.996264)" xlink:href="#CMR17-30"/>
      </g>
     </g>
    </g>
    <g id="xtick_4">
     <g id="line2d_7">
      <path clip-path="url(#p447ae32e97)" d="M 143.487843 166.078284 
L 143.487843 24.269588 
" style="fill:none;stroke:#b0b0b0;stroke-linecap:square;stroke-width:0.8;"/>
     </g>
     <g id="line2d_8">
      <g>
       <use style="stroke:#000000;stroke-width:0.8;" x="143.487843" xlink:href="#m575aff5541" y="166.078284"/>
      </g>
     </g>
     <g id="text_4">
      <!-- $\mathdefault{75}$ -->
      <g transform="translate(137.634853 181.380464)scale(0.12 -0.12)">
       <defs>
        <path d="M 2886 3955 
L 2886 4096 
L 1382 4096 
C 634 4096 621 4166 595 4288 
L 480 4288 
L 294 3104 
L 410 3104 
C 429 3226 474 3552 550 3673 
C 589 3724 1062 3724 1171 3724 
L 2579 3724 
L 1869 2670 
C 1395 1961 1069 1003 1069 166 
C 1069 89 1069 -128 1299 -128 
C 1530 -128 1530 89 1530 172 
L 1530 466 
C 1530 1514 1709 2204 2003 2644 
L 2886 3955 
z
" id="CMR17-37" transform="scale(0.015625)"/>
       </defs>
       <use transform="scale(0.996264)" xlink:href="#CMR17-37"/>
       <use transform="translate(45.690477 0)scale(0.996264)" xlink:href="#CMR17-35"/>
      </g>
     </g>
    </g>
    <g id="xtick_5">
     <g id="line2d_9">
      <path clip-path="url(#p447ae32e97)" d="M 181.533298 166.078284 
L 181.533298 24.269588 
" style="fill:none;stroke:#b0b0b0;stroke-linecap:square;stroke-width:0.8;"/>
     </g>
     <g id="line2d_10">
      <g>
       <use style="stroke:#000000;stroke-width:0.8;" x="181.533298" xlink:href="#m575aff5541" y="166.078284"/>
      </g>
     </g>
     <g id="text_5">
      <!-- $\mathdefault{100}$ -->
      <g transform="translate(172.753812 181.380464)scale(0.12 -0.12)">
       <defs>
        <path d="M 1702 4083 
C 1702 4217 1696 4224 1606 4224 
C 1357 3927 979 3833 621 3820 
C 602 3820 570 3820 563 3808 
C 557 3795 557 3782 557 3648 
C 755 3648 1088 3686 1344 3839 
L 1344 467 
C 1344 243 1331 166 781 166 
L 589 166 
L 589 0 
C 896 6 1216 12 1523 12 
C 1830 12 2150 6 2458 0 
L 2458 166 
L 2266 166 
C 1715 166 1702 236 1702 467 
L 1702 4083 
z
" id="CMR17-31" transform="scale(0.015625)"/>
       </defs>
       <use transform="scale(0.996264)" xlink:href="#CMR17-31"/>
       <use transform="translate(45.690477 0)scale(0.996264)" xlink:href="#CMR17-30"/>
       <use transform="translate(91.380954 0)scale(0.996264)" xlink:href="#CMR17-30"/>
      </g>
     </g>
    </g>
    <g id="xtick_6">
     <g id="line2d_11">
      <path clip-path="url(#p447ae32e97)" d="M 219.578752 166.078284 
L 219.578752 24.269588 
" style="fill:none;stroke:#b0b0b0;stroke-linecap:square;stroke-width:0.8;"/>
     </g>
     <g id="line2d_12">
      <g>
       <use style="stroke:#000000;stroke-width:0.8;" x="219.578752" xlink:href="#m575aff5541" y="166.078284"/>
      </g>
     </g>
     <g id="text_6">
      <!-- $\mathdefault{125}$ -->
      <g transform="translate(210.799267 181.380464)scale(0.12 -0.12)">
       <use transform="scale(0.996264)" xlink:href="#CMR17-31"/>
       <use transform="translate(45.690477 0)scale(0.996264)" xlink:href="#CMR17-32"/>
       <use transform="translate(91.380954 0)scale(0.996264)" xlink:href="#CMR17-35"/>
      </g>
     </g>
    </g>
    <g id="xtick_7">
     <g id="line2d_13">
      <path clip-path="url(#p447ae32e97)" d="M 257.624207 166.078284 
L 257.624207 24.269588 
" style="fill:none;stroke:#b0b0b0;stroke-linecap:square;stroke-width:0.8;"/>
     </g>
     <g id="line2d_14">
      <g>
       <use style="stroke:#000000;stroke-width:0.8;" x="257.624207" xlink:href="#m575aff5541" y="166.078284"/>
      </g>
     </g>
     <g id="text_7">
      <!-- $\mathdefault{150}$ -->
      <g transform="translate(248.844722 181.380464)scale(0.12 -0.12)">
       <use transform="scale(0.996264)" xlink:href="#CMR17-31"/>
       <use transform="translate(45.690477 0)scale(0.996264)" xlink:href="#CMR17-35"/>
       <use transform="translate(91.380954 0)scale(0.996264)" xlink:href="#CMR17-30"/>
      </g>
     </g>
    </g>
    <g id="xtick_8">
     <g id="line2d_15">
      <path clip-path="url(#p447ae32e97)" d="M 295.669661 166.078284 
L 295.669661 24.269588 
" style="fill:none;stroke:#b0b0b0;stroke-linecap:square;stroke-width:0.8;"/>
     </g>
     <g id="line2d_16">
      <g>
       <use style="stroke:#000000;stroke-width:0.8;" x="295.669661" xlink:href="#m575aff5541" y="166.078284"/>
      </g>
     </g>
     <g id="text_8">
      <!-- $\mathdefault{175}$ -->
      <g transform="translate(286.890176 181.380464)scale(0.12 -0.12)">
       <use transform="scale(0.996264)" xlink:href="#CMR17-31"/>
       <use transform="translate(45.690477 0)scale(0.996264)" xlink:href="#CMR17-37"/>
       <use transform="translate(91.380954 0)scale(0.996264)" xlink:href="#CMR17-35"/>
      </g>
     </g>
    </g>
    <g id="xtick_9">
     <g id="line2d_17">
      <path clip-path="url(#p447ae32e97)" d="M 333.715116 166.078284 
L 333.715116 24.269588 
" style="fill:none;stroke:#b0b0b0;stroke-linecap:square;stroke-width:0.8;"/>
     </g>
     <g id="line2d_18">
      <g>
       <use style="stroke:#000000;stroke-width:0.8;" x="333.715116" xlink:href="#m575aff5541" y="166.078284"/>
      </g>
     </g>
     <g id="text_9">
      <!-- $\mathdefault{200}$ -->
      <g transform="translate(324.935631 181.380464)scale(0.12 -0.12)">
       <use transform="scale(0.996264)" xlink:href="#CMR17-32"/>
       <use transform="translate(45.690477 0)scale(0.996264)" xlink:href="#CMR17-30"/>
       <use transform="translate(91.380954 0)scale(0.996264)" xlink:href="#CMR17-30"/>
      </g>
     </g>
    </g>
   </g>
   <g id="matplotlib.axis_2">
    <g id="ytick_1">
     <g id="line2d_19">
      <path clip-path="url(#p447ae32e97)" d="M 29.35148 166.078284 
L 333.715116 166.078284 
" style="fill:none;stroke:#b0b0b0;stroke-linecap:square;stroke-width:0.8;"/>
     </g>
     <g id="line2d_20">
      <defs>
       <path d="M 0 0 
L -3.5 0 
" id="mb9568a23bd" style="stroke:#000000;stroke-width:0.8;"/>
      </defs>
      <g>
       <use style="stroke:#000000;stroke-width:0.8;" x="29.35148" xlink:href="#mb9568a23bd" y="166.078284"/>
      </g>
     </g>
     <g id="text_10">
      <!-- $\mathdefault{−2}$ -->
      <g transform="translate(7.2 170.229374)scale(0.12 -0.12)">
       <defs>
        <path d="M 4218 1472 
C 4326 1472 4442 1472 4442 1600 
C 4442 1728 4326 1728 4218 1728 
L 755 1728 
C 646 1728 531 1728 531 1600 
C 531 1472 646 1472 755 1472 
L 4218 1472 
z
" id="CMSY10-0" transform="scale(0.015625)"/>
       </defs>
       <use transform="scale(0.996264)" xlink:href="#CMSY10-0"/>
       <use transform="translate(77.487468 0)scale(0.996264)" xlink:href="#CMR17-32"/>
      </g>
     </g>
    </g>
    <g id="ytick_2">
     <g id="line2d_21">
      <path clip-path="url(#p447ae32e97)" d="M 29.35148 130.62611 
L 333.715116 130.62611 
" style="fill:none;stroke:#b0b0b0;stroke-linecap:square;stroke-width:0.8;"/>
     </g>
     <g id="line2d_22">
      <g>
       <use style="stroke:#000000;stroke-width:0.8;" x="29.35148" xlink:href="#mb9568a23bd" y="130.62611"/>
      </g>
     </g>
     <g id="text_11">
      <!-- $\mathdefault{−1}$ -->
      <g transform="translate(7.2 134.7772)scale(0.12 -0.12)">
       <use transform="scale(0.996264)" xlink:href="#CMSY10-0"/>
       <use transform="translate(77.487468 0)scale(0.996264)" xlink:href="#CMR17-31"/>
      </g>
     </g>
    </g>
    <g id="ytick_3">
     <g id="line2d_23">
      <path clip-path="url(#p447ae32e97)" d="M 29.35148 95.173936 
L 333.715116 95.173936 
" style="fill:none;stroke:#b0b0b0;stroke-linecap:square;stroke-width:0.8;"/>
     </g>
     <g id="line2d_24">
      <g>
       <use style="stroke:#000000;stroke-width:0.8;" x="29.35148" xlink:href="#mb9568a23bd" y="95.173936"/>
      </g>
     </g>
     <g id="text_12">
      <!-- $\mathdefault{0}$ -->
      <g transform="translate(16.498489 99.325026)scale(0.12 -0.12)">
       <use transform="scale(0.996264)" xlink:href="#CMR17-30"/>
      </g>
     </g>
    </g>
    <g id="ytick_4">
     <g id="line2d_25">
      <path clip-path="url(#p447ae32e97)" d="M 29.35148 59.721762 
L 333.715116 59.721762 
" style="fill:none;stroke:#b0b0b0;stroke-linecap:square;stroke-width:0.8;"/>
     </g>
     <g id="line2d_26">
      <g>
       <use style="stroke:#000000;stroke-width:0.8;" x="29.35148" xlink:href="#mb9568a23bd" y="59.721762"/>
      </g>
     </g>
     <g id="text_13">
      <!-- $\mathdefault{1}$ -->
      <g transform="translate(16.498489 63.872852)scale(0.12 -0.12)">
       <use transform="scale(0.996264)" xlink:href="#CMR17-31"/>
      </g>
     </g>
    </g>
    <g id="ytick_5">
     <g id="line2d_27">
      <path clip-path="url(#p447ae32e97)" d="M 29.35148 24.269588 
L 333.715116 24.269588 
" style="fill:none;stroke:#b0b0b0;stroke-linecap:square;stroke-width:0.8;"/>
     </g>
     <g id="line2d_28">
      <g>
       <use style="stroke:#000000;stroke-width:0.8;" x="29.35148" xlink:href="#mb9568a23bd" y="24.269588"/>
      </g>
     </g>
     <g id="text_14">
      <!-- $\mathdefault{2}$ -->
      <g transform="translate(16.498489 28.420678)scale(0.12 -0.12)">
       <use transform="scale(0.996264)" xlink:href="#CMR17-32"/>
      </g>
     </g>
    </g>
   </g>
   <g id="line2d_29">
    <path clip-path="url(#p447ae32e97)" d="M 29.35148 130.62611 
L 103.920571 61.139849 
L 105.442389 130.62611 
L 180.01148 61.139849 
L 181.533298 130.62611 
L 256.102389 61.139849 
L 257.624207 130.62611 
L 332.193298 61.139849 
L 333.715116 130.62611 
L 335.236934 129.208023 
L 335.236934 129.208023 
" style="fill:none;stroke:#1f77b4;stroke-linecap:square;stroke-width:1.5;"/>
   </g>
   <g id="patch_3">
    <path d="M 29.35148 166.078284 
L 29.35148 24.269588 
" style="fill:none;stroke:#000000;stroke-linecap:square;stroke-linejoin:miter;stroke-width:0.8;"/>
   </g>
   <g id="patch_4">
    <path d="M 333.715116 166.078284 
L 333.715116 24.269588 
" style="fill:none;stroke:#000000;stroke-linecap:square;stroke-linejoin:miter;stroke-width:0.8;"/>
   </g>
   <g id="patch_5">
    <path d="M 29.35148 166.078284 
L 333.715116 166.078284 
" style="fill:none;stroke:#000000;stroke-linecap:square;stroke-linejoin:miter;stroke-width:0.8;"/>
   </g>
   <g id="patch_6">
    <path d="M 29.35148 24.269588 
L 333.715116 24.269588 
" style="fill:none;stroke:#000000;stroke-linecap:square;stroke-linejoin:miter;stroke-width:0.8;"/>
   </g>
   <g id="text_15">
    <!-- $x$ -->
    <g transform="translate(177.098573 18.269588)scale(0.16 -0.16)">
     <defs>
      <path d="M 3034 2624 
C 2829 2585 2752 2431 2752 2310 
C 2752 2156 2874 2105 2963 2105 
C 3155 2105 3290 2271 3290 2444 
C 3290 2694 2982 2816 2714 2816 
C 2323 2816 2106 2451 2048 2329 
C 1901 2790 1504 2816 1389 2816 
C 736 2816 390 1993 390 1849 
C 390 1823 416 1790 461 1790 
C 512 1790 525 1829 538 1855 
C 755 2572 1184 2687 1370 2687 
C 1658 2687 1715 2438 1715 2284 
C 1715 2143 1677 1993 1600 1678 
L 1382 778 
C 1286 390 1101 64 762 64 
C 730 64 570 64 435 126 
C 666 166 717 358 717 435 
C 717 563 621 640 499 640 
C 346 640 179 505 179 300 
C 179 57 480 -64 755 -64 
C 1062 -64 1280 153 1414 415 
C 1517 64 1837 -64 2074 -64 
C 2726 -64 3072 751 3072 896 
C 3072 929 3046 955 3008 955 
C 2950 955 2944 922 2925 870 
C 2752 300 2381 64 2093 64 
C 1869 64 1747 204 1747 467 
C 1747 607 1773 712 1875 1146 
L 2099 2039 
C 2195 2425 2413 2687 2707 2687 
C 2720 2687 2899 2687 3034 2624 
z
" id="CMMI12-78" transform="scale(0.015625)"/>
     </defs>
     <use transform="scale(0.996264)" xlink:href="#CMMI12-78"/>
    </g>
   </g>
  </g>
  <g id="axes_2">
   <g id="patch_7">
    <path d="M 394.587843 166.078284 
L 698.95148 166.078284 
L 698.95148 24.269588 
L 394.587843 24.269588 
z
" style="fill:#ffffff;"/>
   </g>
   <g id="matplotlib.axis_3">
    <g id="xtick_10">
     <g id="line2d_30">
      <path clip-path="url(#p969ac5f42c)" d="M 394.587843 166.078284 
L 394.587843 24.269588 
" style="fill:none;stroke:#b0b0b0;stroke-linecap:square;stroke-width:0.8;"/>
     </g>
     <g id="line2d_31">
      <g>
       <use style="stroke:#000000;stroke-width:0.8;" x="394.587843" xlink:href="#m575aff5541" y="166.078284"/>
      </g>
     </g>
     <g id="text_16">
      <!-- $\mathdefault{0}$ -->
      <g transform="translate(391.661348 181.380464)scale(0.12 -0.12)">
       <use transform="scale(0.996264)" xlink:href="#CMR17-30"/>
      </g>
     </g>
    </g>
    <g id="xtick_11">
     <g id="line2d_32">
      <path clip-path="url(#p969ac5f42c)" d="M 432.633298 166.078284 
L 432.633298 24.269588 
" style="fill:none;stroke:#b0b0b0;stroke-linecap:square;stroke-width:0.8;"/>
     </g>
     <g id="line2d_33">
      <g>
       <use style="stroke:#000000;stroke-width:0.8;" x="432.633298" xlink:href="#m575aff5541" y="166.078284"/>
      </g>
     </g>
     <g id="text_17">
      <!-- $\mathdefault{25}$ -->
      <g transform="translate(426.780308 181.380464)scale(0.12 -0.12)">
       <use transform="scale(0.996264)" xlink:href="#CMR17-32"/>
       <use transform="translate(45.690477 0)scale(0.996264)" xlink:href="#CMR17-35"/>
      </g>
     </g>
    </g>
    <g id="xtick_12">
     <g id="line2d_34">
      <path clip-path="url(#p969ac5f42c)" d="M 470.678752 166.078284 
L 470.678752 24.269588 
" style="fill:none;stroke:#b0b0b0;stroke-linecap:square;stroke-width:0.8;"/>
     </g>
     <g id="line2d_35">
      <g>
       <use style="stroke:#000000;stroke-width:0.8;" x="470.678752" xlink:href="#m575aff5541" y="166.078284"/>
      </g>
     </g>
     <g id="text_18">
      <!-- $\mathdefault{50}$ -->
      <g transform="translate(464.825762 181.380464)scale(0.12 -0.12)">
       <use transform="scale(0.996264)" xlink:href="#CMR17-35"/>
       <use transform="translate(45.690477 0)scale(0.996264)" xlink:href="#CMR17-30"/>
      </g>
     </g>
    </g>
    <g id="xtick_13">
     <g id="line2d_36">
      <path clip-path="url(#p969ac5f42c)" d="M 508.724207 166.078284 
L 508.724207 24.269588 
" style="fill:none;stroke:#b0b0b0;stroke-linecap:square;stroke-width:0.8;"/>
     </g>
     <g id="line2d_37">
      <g>
       <use style="stroke:#000000;stroke-width:0.8;" x="508.724207" xlink:href="#m575aff5541" y="166.078284"/>
      </g>
     </g>
     <g id="text_19">
      <!-- $\mathdefault{75}$ -->
      <g transform="translate(502.871217 181.380464)scale(0.12 -0.12)">
       <use transform="scale(0.996264)" xlink:href="#CMR17-37"/>
       <use transform="translate(45.690477 0)scale(0.996264)" xlink:href="#CMR17-35"/>
      </g>
     </g>
    </g>
    <g id="xtick_14">
     <g id="line2d_38">
      <path clip-path="url(#p969ac5f42c)" d="M 546.769661 166.078284 
L 546.769661 24.269588 
" style="fill:none;stroke:#b0b0b0;stroke-linecap:square;stroke-width:0.8;"/>
     </g>
     <g id="line2d_39">
      <g>
       <use style="stroke:#000000;stroke-width:0.8;" x="546.769661" xlink:href="#m575aff5541" y="166.078284"/>
      </g>
     </g>
     <g id="text_20">
      <!-- $\mathdefault{100}$ -->
      <g transform="translate(537.990176 181.380464)scale(0.12 -0.12)">
       <use transform="scale(0.996264)" xlink:href="#CMR17-31"/>
       <use transform="translate(45.690477 0)scale(0.996264)" xlink:href="#CMR17-30"/>
       <use transform="translate(91.380954 0)scale(0.996264)" xlink:href="#CMR17-30"/>
      </g>
     </g>
    </g>
    <g id="xtick_15">
     <g id="line2d_40">
      <path clip-path="url(#p969ac5f42c)" d="M 584.815116 166.078284 
L 584.815116 24.269588 
" style="fill:none;stroke:#b0b0b0;stroke-linecap:square;stroke-width:0.8;"/>
     </g>
     <g id="line2d_41">
      <g>
       <use style="stroke:#000000;stroke-width:0.8;" x="584.815116" xlink:href="#m575aff5541" y="166.078284"/>
      </g>
     </g>
     <g id="text_21">
      <!-- $\mathdefault{125}$ -->
      <g transform="translate(576.035631 181.380464)scale(0.12 -0.12)">
       <use transform="scale(0.996264)" xlink:href="#CMR17-31"/>
       <use transform="translate(45.690477 0)scale(0.996264)" xlink:href="#CMR17-32"/>
       <use transform="translate(91.380954 0)scale(0.996264)" xlink:href="#CMR17-35"/>
      </g>
     </g>
    </g>
    <g id="xtick_16">
     <g id="line2d_42">
      <path clip-path="url(#p969ac5f42c)" d="M 622.860571 166.078284 
L 622.860571 24.269588 
" style="fill:none;stroke:#b0b0b0;stroke-linecap:square;stroke-width:0.8;"/>
     </g>
     <g id="line2d_43">
      <g>
       <use style="stroke:#000000;stroke-width:0.8;" x="622.860571" xlink:href="#m575aff5541" y="166.078284"/>
      </g>
     </g>
     <g id="text_22">
      <!-- $\mathdefault{150}$ -->
      <g transform="translate(614.081085 181.380464)scale(0.12 -0.12)">
       <use transform="scale(0.996264)" xlink:href="#CMR17-31"/>
       <use transform="translate(45.690477 0)scale(0.996264)" xlink:href="#CMR17-35"/>
       <use transform="translate(91.380954 0)scale(0.996264)" xlink:href="#CMR17-30"/>
      </g>
     </g>
    </g>
    <g id="xtick_17">
     <g id="line2d_44">
      <path clip-path="url(#p969ac5f42c)" d="M 660.906025 166.078284 
L 660.906025 24.269588 
" style="fill:none;stroke:#b0b0b0;stroke-linecap:square;stroke-width:0.8;"/>
     </g>
     <g id="line2d_45">
      <g>
       <use style="stroke:#000000;stroke-width:0.8;" x="660.906025" xlink:href="#m575aff5541" y="166.078284"/>
      </g>
     </g>
     <g id="text_23">
      <!-- $\mathdefault{175}$ -->
      <g transform="translate(652.12654 181.380464)scale(0.12 -0.12)">
       <use transform="scale(0.996264)" xlink:href="#CMR17-31"/>
       <use transform="translate(45.690477 0)scale(0.996264)" xlink:href="#CMR17-37"/>
       <use transform="translate(91.380954 0)scale(0.996264)" xlink:href="#CMR17-35"/>
      </g>
     </g>
    </g>
    <g id="xtick_18">
     <g id="line2d_46">
      <path clip-path="url(#p969ac5f42c)" d="M 698.95148 166.078284 
L 698.95148 24.269588 
" style="fill:none;stroke:#b0b0b0;stroke-linecap:square;stroke-width:0.8;"/>
     </g>
     <g id="line2d_47">
      <g>
       <use style="stroke:#000000;stroke-width:0.8;" x="698.95148" xlink:href="#m575aff5541" y="166.078284"/>
      </g>
     </g>
     <g id="text_24">
      <!-- $\mathdefault{200}$ -->
      <g transform="translate(690.171994 181.380464)scale(0.12 -0.12)">
       <use transform="scale(0.996264)" xlink:href="#CMR17-32"/>
       <use transform="translate(45.690477 0)scale(0.996264)" xlink:href="#CMR17-30"/>
       <use transform="translate(91.380954 0)scale(0.996264)" xlink:href="#CMR17-30"/>
      </g>
     </g>
    </g>
   </g>
   <g id="matplotlib.axis_4">
    <g id="ytick_6">
     <g id="line2d_48">
      <path clip-path="url(#p969ac5f42c)" d="M 394.587843 166.078284 
L 698.95148 166.078284 
" style="fill:none;stroke:#b0b0b0;stroke-linecap:square;stroke-width:0.8;"/>
     </g>
     <g id="line2d_49">
      <g>
       <use style="stroke:#000000;stroke-width:0.8;" x="394.587843" xlink:href="#mb9568a23bd" y="166.078284"/>
      </g>
     </g>
     <g id="text_25">
      <!-- $\mathdefault{−2}$ -->
      <g transform="translate(372.436364 170.229374)scale(0.12 -0.12)">
       <use transform="scale(0.996264)" xlink:href="#CMSY10-0"/>
       <use transform="translate(77.487468 0)scale(0.996264)" xlink:href="#CMR17-32"/>
      </g>
     </g>
    </g>
    <g id="ytick_7">
     <g id="line2d_50">
      <path clip-path="url(#p969ac5f42c)" d="M 394.587843 130.62611 
L 698.95148 130.62611 
" style="fill:none;stroke:#b0b0b0;stroke-linecap:square;stroke-width:0.8;"/>
     </g>
     <g id="line2d_51">
      <g>
       <use style="stroke:#000000;stroke-width:0.8;" x="394.587843" xlink:href="#mb9568a23bd" y="130.62611"/>
      </g>
     </g>
     <g id="text_26">
      <!-- $\mathdefault{−1}$ -->
      <g transform="translate(372.436364 134.7772)scale(0.12 -0.12)">
       <use transform="scale(0.996264)" xlink:href="#CMSY10-0"/>
       <use transform="translate(77.487468 0)scale(0.996264)" xlink:href="#CMR17-31"/>
      </g>
     </g>
    </g>
    <g id="ytick_8">
     <g id="line2d_52">
      <path clip-path="url(#p969ac5f42c)" d="M 394.587843 95.173936 
L 698.95148 95.173936 
" style="fill:none;stroke:#b0b0b0;stroke-linecap:square;stroke-width:0.8;"/>
     </g>
     <g id="line2d_53">
      <g>
       <use style="stroke:#000000;stroke-width:0.8;" x="394.587843" xlink:href="#mb9568a23bd" y="95.173936"/>
      </g>
     </g>
     <g id="text_27">
      <!-- $\mathdefault{0}$ -->
      <g transform="translate(381.734853 99.325026)scale(0.12 -0.12)">
       <use transform="scale(0.996264)" xlink:href="#CMR17-30"/>
      </g>
     </g>
    </g>
    <g id="ytick_9">
     <g id="line2d_54">
      <path clip-path="url(#p969ac5f42c)" d="M 394.587843 59.721762 
L 698.95148 59.721762 
" style="fill:none;stroke:#b0b0b0;stroke-linecap:square;stroke-width:0.8;"/>
     </g>
     <g id="line2d_55">
      <g>
       <use style="stroke:#000000;stroke-width:0.8;" x="394.587843" xlink:href="#mb9568a23bd" y="59.721762"/>
      </g>
     </g>
     <g id="text_28">
      <!-- $\mathdefault{1}$ -->
      <g transform="translate(381.734853 63.872852)scale(0.12 -0.12)">
       <use transform="scale(0.996264)" xlink:href="#CMR17-31"/>
      </g>
     </g>
    </g>
    <g id="ytick_10">
     <g id="line2d_56">
      <path clip-path="url(#p969ac5f42c)" d="M 394.587843 24.269588 
L 698.95148 24.269588 
" style="fill:none;stroke:#b0b0b0;stroke-linecap:square;stroke-width:0.8;"/>
     </g>
     <g id="line2d_57">
      <g>
       <use style="stroke:#000000;stroke-width:0.8;" x="394.587843" xlink:href="#mb9568a23bd" y="24.269588"/>
      </g>
     </g>
     <g id="text_29">
      <!-- $\mathdefault{2}$ -->
      <g transform="translate(381.734853 28.420678)scale(0.12 -0.12)">
       <use transform="scale(0.996264)" xlink:href="#CMR17-32"/>
      </g>
     </g>
    </g>
   </g>
   <g id="line2d_58">
    <path clip-path="url(#p969ac5f42c)" d="M 394.587843 122.722235 
L 396.109661 142.05898 
L 397.63148 84.949113 
L 399.153298 152.028542 
L 400.675116 121.441907 
L 402.196934 152.334567 
L 403.718752 87.068746 
L 405.240571 114.500993 
L 406.762389 125.144616 
L 408.284207 122.320975 
L 409.806025 121.567639 
L 411.327843 114.755971 
L 412.849661 102.008219 
L 414.37148 107.247553 
L 415.893298 105.70777 
L 417.415116 104.744885 
L 418.936934 90.088147 
L 420.458752 100.913144 
L 421.980571 108.44766 
L 423.502389 132.427709 
L 425.024207 120.409743 
L 426.546025 119.818025 
L 429.589661 68.926979 
L 431.11148 118.881816 
L 432.633298 120.680047 
L 434.155116 90.934728 
L 435.676934 91.816153 
L 437.198752 86.439641 
L 438.720571 93.636237 
L 440.242389 84.191196 
L 441.764207 83.276343 
L 443.286025 77.395723 
L 444.807843 76.638718 
L 446.329661 49.494052 
L 447.85148 78.641827 
L 449.373298 72.534789 
L 450.895116 57.775818 
L 452.416934 88.639242 
L 453.938752 84.519134 
L 455.460571 110.700245 
L 456.982389 86.252474 
L 458.504207 82.162034 
L 460.026025 88.578899 
L 461.547843 49.020908 
L 463.069661 67.965352 
L 464.59148 63.077596 
L 466.113298 87.594278 
L 467.635116 75.945476 
L 469.156934 36.890917 
L 470.678752 146.254763 
L 472.200571 90.648179 
L 473.722389 114.172793 
L 475.244207 123.053209 
L 476.766025 110.418121 
L 478.287843 144.830778 
L 479.809661 124.038285 
L 481.33148 147.195145 
L 482.853298 133.506087 
L 484.375116 116.983539 
L 485.896934 148.65182 
L 487.418752 137.025662 
L 488.940571 99.773009 
L 490.462389 138.42826 
L 491.984207 106.727307 
L 493.506025 82.405032 
L 495.027843 89.077991 
L 496.549661 107.672488 
L 498.07148 77.705677 
L 499.593298 88.324715 
L 501.115116 107.560328 
L 502.636934 90.329905 
L 504.158752 82.423965 
L 505.680571 106.565871 
L 507.202389 73.223906 
L 508.724207 92.956149 
L 510.246025 106.131562 
L 511.767843 77.295455 
L 513.289661 138.192555 
L 514.81148 86.493225 
L 516.333298 119.25472 
L 517.855116 82.516819 
L 519.376934 94.077116 
L 520.898752 86.855575 
L 522.420571 88.027496 
L 523.942389 78.310634 
L 525.464207 73.939011 
L 526.986025 107.971969 
L 528.507843 90.499383 
L 530.029661 89.211496 
L 531.55148 72.948849 
L 533.073298 87.520818 
L 534.595116 67.618282 
L 536.116934 62.651474 
L 537.638752 71.964404 
L 539.160571 85.653583 
L 540.682389 80.136748 
L 542.204207 67.052255 
L 543.726025 44.336526 
L 545.247843 37.015742 
L 546.769661 153.214831 
L 548.29148 121.24878 
L 549.813298 124.314919 
L 551.335116 137.426181 
L 552.856934 132.057003 
L 554.378752 135.154603 
L 555.900571 115.509611 
L 557.422389 117.85198 
L 558.944207 114.65456 
L 560.466025 109.766706 
L 561.987843 107.255978 
L 563.509661 100.58102 
L 565.03148 99.106233 
L 566.553298 82.954082 
L 568.075116 110.412855 
L 569.596934 119.969084 
L 571.118752 99.314332 
L 572.640571 129.722057 
L 574.162389 91.488037 
L 575.684207 102.74382 
L 577.206025 84.841318 
L 578.727843 102.589486 
L 580.249661 123.237425 
L 581.77148 87.672497 
L 583.293298 119.64727 
L 584.815116 118.375317 
L 586.336934 71.307534 
L 587.858752 53.109166 
L 589.380571 80.860457 
L 590.902389 99.37137 
L 592.424207 96.488691 
L 593.946025 96.349377 
L 595.467843 89.114265 
L 596.989661 70.080043 
L 598.51148 90.630728 
L 600.033298 84.911214 
L 601.555116 99.107844 
L 603.076934 68.078859 
L 604.598752 82.580179 
L 606.120571 53.573888 
L 607.642389 62.122211 
L 609.164207 77.445365 
L 610.686025 62.80045 
L 612.207843 80.475145 
L 613.729661 50.70925 
L 615.25148 76.109047 
L 616.773298 79.634262 
L 618.295116 91.565701 
L 619.816934 77.249687 
L 621.338752 59.291132 
L 622.860571 137.58266 
L 624.382389 162.457062 
L 625.904207 72.652391 
L 627.426025 137.178502 
L 628.947843 126.636607 
L 630.469661 76.618907 
L 631.99148 125.441038 
L 633.513298 122.779728 
L 635.035116 105.984599 
L 636.556934 145.30171 
L 638.078752 133.943006 
L 639.600571 105.222769 
L 641.122389 95.659988 
L 642.644207 127.678803 
L 644.166025 82.014626 
L 645.687843 110.104251 
L 647.209661 103.998722 
L 648.73148 89.380396 
L 650.253298 100.707642 
L 651.775116 100.329611 
L 653.296934 111.045268 
L 654.818752 107.430531 
L 656.340571 108.600457 
L 657.862389 138.157677 
L 659.384207 84.935629 
L 660.906025 112.451521 
L 662.427843 97.365987 
L 663.949661 89.61139 
L 665.47148 104.442273 
L 666.993298 63.896721 
L 668.515116 81.601376 
L 670.036934 87.899087 
L 671.558752 89.201139 
L 673.080571 103.493912 
L 674.602389 54.292867 
L 676.124207 101.781956 
L 677.646025 56.203572 
L 679.167843 94.357051 
L 680.689661 86.754374 
L 682.21148 46.043526 
L 683.733298 81.733764 
L 685.255116 58.396064 
L 686.776934 82.851357 
L 688.298752 53.306246 
L 689.820571 78.011424 
L 691.342389 98.104317 
L 692.864207 75.32739 
L 694.386025 85.25299 
L 695.907843 71.455845 
L 697.429661 47.387566 
L 698.95148 111.289314 
L 700.473298 118.605204 
L 700.473298 118.605204 
" style="fill:none;stroke:#1f77b4;stroke-linecap:square;stroke-width:1.5;"/>
   </g>
   <g id="patch_8">
    <path d="M 394.587843 166.078284 
L 394.587843 24.269588 
" style="fill:none;stroke:#000000;stroke-linecap:square;stroke-linejoin:miter;stroke-width:0.8;"/>
   </g>
   <g id="patch_9">
    <path d="M 698.95148 166.078284 
L 698.95148 24.269588 
" style="fill:none;stroke:#000000;stroke-linecap:square;stroke-linejoin:miter;stroke-width:0.8;"/>
   </g>
   <g id="patch_10">
    <path d="M 394.587843 166.078284 
L 698.95148 166.078284 
" style="fill:none;stroke:#000000;stroke-linecap:square;stroke-linejoin:miter;stroke-width:0.8;"/>
   </g>
   <g id="patch_11">
    <path d="M 394.587843 24.269588 
L 698.95148 24.269588 
" style="fill:none;stroke:#000000;stroke-linecap:square;stroke-linejoin:miter;stroke-width:0.8;"/>
   </g>
   <g id="text_30">
    <!-- $y$ -->
    <g transform="translate(542.964526 18.269588)scale(0.16 -0.16)">
     <defs>
      <path d="M 1683 -673 
C 1510 -921 1261 -1152 947 -1152 
C 870 -1152 563 -1139 467 -826 
C 486 -833 518 -833 531 -833 
C 723 -833 851 -666 851 -519 
C 851 -372 730 -320 634 -320 
C 531 -320 307 -397 307 -711 
C 307 -1050 582 -1280 947 -1280 
C 1587 -1280 2234 -673 2413 -7 
L 3040 2483 
C 3046 2515 3059 2553 3059 2591 
C 3059 2687 2982 2752 2886 2752 
C 2829 2752 2694 2726 2643 2534 
L 2170 657 
C 2138 542 2138 530 2086 459 
C 1958 281 1747 64 1440 64 
C 1082 64 1050 415 1050 587 
C 1050 951 1222 1443 1395 1902 
C 1466 2087 1504 2177 1504 2305 
C 1504 2573 1312 2816 998 2816 
C 410 2816 173 1890 173 1838 
C 173 1813 198 1781 243 1781 
C 301 1781 307 1807 333 1896 
C 486 2432 730 2687 979 2687 
C 1037 2687 1146 2687 1146 2477 
C 1146 2311 1075 2126 979 1883 
C 666 1047 666 836 666 683 
C 666 76 1101 -64 1421 -64 
C 1606 -64 1837 -7 2061 230 
L 2067 223 
C 1971 -141 1907 -359 1683 -673 
z
" id="CMMI12-79" transform="scale(0.015625)"/>
     </defs>
     <use transform="scale(0.996264)" xlink:href="#CMMI12-79"/>
    </g>
   </g>
  </g>
  <g id="axes_3">
   <g id="patch_12">
    <path d="M 29.35148 350.429588 
L 333.715116 350.429588 
L 333.715116 208.620893 
L 29.35148 208.620893 
z
" style="fill:#ffffff;"/>
   </g>
   <g id="matplotlib.axis_5">
    <g id="xtick_19">
     <g id="line2d_59">
      <path clip-path="url(#p2f9e7b2f73)" d="M 29.35148 350.429588 
L 29.35148 208.620893 
" style="fill:none;stroke:#b0b0b0;stroke-linecap:square;stroke-width:0.8;"/>
     </g>
     <g id="line2d_60">
      <g>
       <use style="stroke:#000000;stroke-width:0.8;" x="29.35148" xlink:href="#m575aff5541" y="350.429588"/>
      </g>
     </g>
     <g id="text_31">
      <!-- $\mathdefault{0}$ -->
      <g transform="translate(26.424985 365.731768)scale(0.12 -0.12)">
       <use transform="scale(0.996264)" xlink:href="#CMR17-30"/>
      </g>
     </g>
    </g>
    <g id="xtick_20">
     <g id="line2d_61">
      <path clip-path="url(#p2f9e7b2f73)" d="M 67.396934 350.429588 
L 67.396934 208.620893 
" style="fill:none;stroke:#b0b0b0;stroke-linecap:square;stroke-width:0.8;"/>
     </g>
     <g id="line2d_62">
      <g>
       <use style="stroke:#000000;stroke-width:0.8;" x="67.396934" xlink:href="#m575aff5541" y="350.429588"/>
      </g>
     </g>
     <g id="text_32">
      <!-- $\mathdefault{25}$ -->
      <g transform="translate(61.543944 365.731768)scale(0.12 -0.12)">
       <use transform="scale(0.996264)" xlink:href="#CMR17-32"/>
       <use transform="translate(45.690477 0)scale(0.996264)" xlink:href="#CMR17-35"/>
      </g>
     </g>
    </g>
    <g id="xtick_21">
     <g id="line2d_63">
      <path clip-path="url(#p2f9e7b2f73)" d="M 105.442389 350.429588 
L 105.442389 208.620893 
" style="fill:none;stroke:#b0b0b0;stroke-linecap:square;stroke-width:0.8;"/>
     </g>
     <g id="line2d_64">
      <g>
       <use style="stroke:#000000;stroke-width:0.8;" x="105.442389" xlink:href="#m575aff5541" y="350.429588"/>
      </g>
     </g>
     <g id="text_33">
      <!-- $\mathdefault{50}$ -->
      <g transform="translate(99.589399 365.731768)scale(0.12 -0.12)">
       <use transform="scale(0.996264)" xlink:href="#CMR17-35"/>
       <use transform="translate(45.690477 0)scale(0.996264)" xlink:href="#CMR17-30"/>
      </g>
     </g>
    </g>
    <g id="xtick_22">
     <g id="line2d_65">
      <path clip-path="url(#p2f9e7b2f73)" d="M 143.487843 350.429588 
L 143.487843 208.620893 
" style="fill:none;stroke:#b0b0b0;stroke-linecap:square;stroke-width:0.8;"/>
     </g>
     <g id="line2d_66">
      <g>
       <use style="stroke:#000000;stroke-width:0.8;" x="143.487843" xlink:href="#m575aff5541" y="350.429588"/>
      </g>
     </g>
     <g id="text_34">
      <!-- $\mathdefault{75}$ -->
      <g transform="translate(137.634853 365.731768)scale(0.12 -0.12)">
       <use transform="scale(0.996264)" xlink:href="#CMR17-37"/>
       <use transform="translate(45.690477 0)scale(0.996264)" xlink:href="#CMR17-35"/>
      </g>
     </g>
    </g>
    <g id="xtick_23">
     <g id="line2d_67">
      <path clip-path="url(#p2f9e7b2f73)" d="M 181.533298 350.429588 
L 181.533298 208.620893 
" style="fill:none;stroke:#b0b0b0;stroke-linecap:square;stroke-width:0.8;"/>
     </g>
     <g id="line2d_68">
      <g>
       <use style="stroke:#000000;stroke-width:0.8;" x="181.533298" xlink:href="#m575aff5541" y="350.429588"/>
      </g>
     </g>
     <g id="text_35">
      <!-- $\mathdefault{100}$ -->
      <g transform="translate(172.753812 365.731768)scale(0.12 -0.12)">
       <use transform="scale(0.996264)" xlink:href="#CMR17-31"/>
       <use transform="translate(45.690477 0)scale(0.996264)" xlink:href="#CMR17-30"/>
       <use transform="translate(91.380954 0)scale(0.996264)" xlink:href="#CMR17-30"/>
      </g>
     </g>
    </g>
    <g id="xtick_24">
     <g id="line2d_69">
      <path clip-path="url(#p2f9e7b2f73)" d="M 219.578752 350.429588 
L 219.578752 208.620893 
" style="fill:none;stroke:#b0b0b0;stroke-linecap:square;stroke-width:0.8;"/>
     </g>
     <g id="line2d_70">
      <g>
       <use style="stroke:#000000;stroke-width:0.8;" x="219.578752" xlink:href="#m575aff5541" y="350.429588"/>
      </g>
     </g>
     <g id="text_36">
      <!-- $\mathdefault{125}$ -->
      <g transform="translate(210.799267 365.731768)scale(0.12 -0.12)">
       <use transform="scale(0.996264)" xlink:href="#CMR17-31"/>
       <use transform="translate(45.690477 0)scale(0.996264)" xlink:href="#CMR17-32"/>
       <use transform="translate(91.380954 0)scale(0.996264)" xlink:href="#CMR17-35"/>
      </g>
     </g>
    </g>
    <g id="xtick_25">
     <g id="line2d_71">
      <path clip-path="url(#p2f9e7b2f73)" d="M 257.624207 350.429588 
L 257.624207 208.620893 
" style="fill:none;stroke:#b0b0b0;stroke-linecap:square;stroke-width:0.8;"/>
     </g>
     <g id="line2d_72">
      <g>
       <use style="stroke:#000000;stroke-width:0.8;" x="257.624207" xlink:href="#m575aff5541" y="350.429588"/>
      </g>
     </g>
     <g id="text_37">
      <!-- $\mathdefault{150}$ -->
      <g transform="translate(248.844722 365.731768)scale(0.12 -0.12)">
       <use transform="scale(0.996264)" xlink:href="#CMR17-31"/>
       <use transform="translate(45.690477 0)scale(0.996264)" xlink:href="#CMR17-35"/>
       <use transform="translate(91.380954 0)scale(0.996264)" xlink:href="#CMR17-30"/>
      </g>
     </g>
    </g>
    <g id="xtick_26">
     <g id="line2d_73">
      <path clip-path="url(#p2f9e7b2f73)" d="M 295.669661 350.429588 
L 295.669661 208.620893 
" style="fill:none;stroke:#b0b0b0;stroke-linecap:square;stroke-width:0.8;"/>
     </g>
     <g id="line2d_74">
      <g>
       <use style="stroke:#000000;stroke-width:0.8;" x="295.669661" xlink:href="#m575aff5541" y="350.429588"/>
      </g>
     </g>
     <g id="text_38">
      <!-- $\mathdefault{175}$ -->
      <g transform="translate(286.890176 365.731768)scale(0.12 -0.12)">
       <use transform="scale(0.996264)" xlink:href="#CMR17-31"/>
       <use transform="translate(45.690477 0)scale(0.996264)" xlink:href="#CMR17-37"/>
       <use transform="translate(91.380954 0)scale(0.996264)" xlink:href="#CMR17-35"/>
      </g>
     </g>
    </g>
    <g id="xtick_27">
     <g id="line2d_75">
      <path clip-path="url(#p2f9e7b2f73)" d="M 333.715116 350.429588 
L 333.715116 208.620893 
" style="fill:none;stroke:#b0b0b0;stroke-linecap:square;stroke-width:0.8;"/>
     </g>
     <g id="line2d_76">
      <g>
       <use style="stroke:#000000;stroke-width:0.8;" x="333.715116" xlink:href="#m575aff5541" y="350.429588"/>
      </g>
     </g>
     <g id="text_39">
      <!-- $\mathdefault{200}$ -->
      <g transform="translate(324.935631 365.731768)scale(0.12 -0.12)">
       <use transform="scale(0.996264)" xlink:href="#CMR17-32"/>
       <use transform="translate(45.690477 0)scale(0.996264)" xlink:href="#CMR17-30"/>
       <use transform="translate(91.380954 0)scale(0.996264)" xlink:href="#CMR17-30"/>
      </g>
     </g>
    </g>
   </g>
   <g id="matplotlib.axis_6">
    <g id="ytick_11">
     <g id="line2d_77">
      <path clip-path="url(#p2f9e7b2f73)" d="M 29.35148 350.429588 
L 333.715116 350.429588 
" style="fill:none;stroke:#b0b0b0;stroke-linecap:square;stroke-width:0.8;"/>
     </g>
     <g id="line2d_78">
      <g>
       <use style="stroke:#000000;stroke-width:0.8;" x="29.35148" xlink:href="#mb9568a23bd" y="350.429588"/>
      </g>
     </g>
     <g id="text_40">
      <!-- $\mathdefault{−2}$ -->
      <g transform="translate(7.2 354.580678)scale(0.12 -0.12)">
       <use transform="scale(0.996264)" xlink:href="#CMSY10-0"/>
       <use transform="translate(77.487468 0)scale(0.996264)" xlink:href="#CMR17-32"/>
      </g>
     </g>
    </g>
    <g id="ytick_12">
     <g id="line2d_79">
      <path clip-path="url(#p2f9e7b2f73)" d="M 29.35148 314.977414 
L 333.715116 314.977414 
" style="fill:none;stroke:#b0b0b0;stroke-linecap:square;stroke-width:0.8;"/>
     </g>
     <g id="line2d_80">
      <g>
       <use style="stroke:#000000;stroke-width:0.8;" x="29.35148" xlink:href="#mb9568a23bd" y="314.977414"/>
      </g>
     </g>
     <g id="text_41">
      <!-- $\mathdefault{−1}$ -->
      <g transform="translate(7.2 319.128504)scale(0.12 -0.12)">
       <use transform="scale(0.996264)" xlink:href="#CMSY10-0"/>
       <use transform="translate(77.487468 0)scale(0.996264)" xlink:href="#CMR17-31"/>
      </g>
     </g>
    </g>
    <g id="ytick_13">
     <g id="line2d_81">
      <path clip-path="url(#p2f9e7b2f73)" d="M 29.35148 279.52524 
L 333.715116 279.52524 
" style="fill:none;stroke:#b0b0b0;stroke-linecap:square;stroke-width:0.8;"/>
     </g>
     <g id="line2d_82">
      <g>
       <use style="stroke:#000000;stroke-width:0.8;" x="29.35148" xlink:href="#mb9568a23bd" y="279.52524"/>
      </g>
     </g>
     <g id="text_42">
      <!-- $\mathdefault{0}$ -->
      <g transform="translate(16.498489 283.67633)scale(0.12 -0.12)">
       <use transform="scale(0.996264)" xlink:href="#CMR17-30"/>
      </g>
     </g>
    </g>
    <g id="ytick_14">
     <g id="line2d_83">
      <path clip-path="url(#p2f9e7b2f73)" d="M 29.35148 244.073067 
L 333.715116 244.073067 
" style="fill:none;stroke:#b0b0b0;stroke-linecap:square;stroke-width:0.8;"/>
     </g>
     <g id="line2d_84">
      <g>
       <use style="stroke:#000000;stroke-width:0.8;" x="29.35148" xlink:href="#mb9568a23bd" y="244.073067"/>
      </g>
     </g>
     <g id="text_43">
      <!-- $\mathdefault{1}$ -->
      <g transform="translate(16.498489 248.224156)scale(0.12 -0.12)">
       <use transform="scale(0.996264)" xlink:href="#CMR17-31"/>
      </g>
     </g>
    </g>
    <g id="ytick_15">
     <g id="line2d_85">
      <path clip-path="url(#p2f9e7b2f73)" d="M 29.35148 208.620893 
L 333.715116 208.620893 
" style="fill:none;stroke:#b0b0b0;stroke-linecap:square;stroke-width:0.8;"/>
     </g>
     <g id="line2d_86">
      <g>
       <use style="stroke:#000000;stroke-width:0.8;" x="29.35148" xlink:href="#mb9568a23bd" y="208.620893"/>
      </g>
     </g>
     <g id="text_44">
      <!-- $\mathdefault{2}$ -->
      <g transform="translate(16.498489 212.771983)scale(0.12 -0.12)">
       <use transform="scale(0.996264)" xlink:href="#CMR17-32"/>
      </g>
     </g>
    </g>
   </g>
   <g id="line2d_87">
    <path clip-path="url(#p2f9e7b2f73)" d="M 29.35148 253.064272 
L 30.873298 266.440241 
L 32.395116 277.408851 
L 33.916934 283.163212 
L 35.438752 295.890032 
L 36.960571 312.003739 
L 38.482389 309.06059 
L 40.004207 303.24999 
L 41.526025 306.748709 
L 43.047843 306.129896 
L 44.569661 307.790207 
L 46.09148 304.787343 
L 47.613298 306.544546 
L 49.135116 303.916283 
L 50.656934 293.186855 
L 52.178752 290.486022 
L 53.700571 291.664007 
L 55.222389 293.993648 
L 56.744207 289.714543 
L 58.266025 292.11695 
L 59.787843 293.207683 
L 61.309661 289.806279 
L 62.83148 280.90363 
L 64.353298 278.949932 
L 65.875116 277.284026 
L 67.396934 277.966882 
L 68.918752 280.690016 
L 70.440571 285.28552 
L 71.962389 286.309235 
L 73.484207 291.450898 
L 75.006025 288.355241 
L 76.527843 283.085816 
L 78.049661 280.21456 
L 79.57148 279.149865 
L 81.093298 278.739203 
L 82.615116 272.708137 
L 84.136934 270.632515 
L 85.658752 266.37497 
L 87.180571 264.992624 
L 88.702389 260.22422 
L 90.224207 258.591278 
L 91.746025 254.732134 
L 93.267843 260.098125 
L 94.789661 262.320681 
L 96.31148 255.703486 
L 97.833298 260.073433 
L 99.355116 266.175875 
L 100.876934 261.969986 
L 102.398752 256.996035 
L 103.920571 254.384051 
L 105.442389 250.312196 
L 106.964207 265.989657 
L 108.486025 277.992684 
L 110.007843 287.467066 
L 111.529661 306.406715 
L 113.05148 319.936213 
L 114.573298 314.344716 
L 116.095116 310.661358 
L 117.616934 312.697926 
L 119.138752 310.785906 
L 120.660571 309.868942 
L 122.182389 306.654183 
L 123.704207 307.496335 
L 125.226025 307.580685 
L 128.269661 298.221656 
L 129.79148 300.926737 
L 131.313298 297.6934 
L 132.835116 289.542682 
L 134.356934 283.108835 
L 135.878752 284.204689 
L 137.400571 274.629825 
L 138.922389 276.016424 
L 140.444207 276.540317 
L 141.966025 280.761249 
L 143.487843 280.731036 
L 145.009661 286.526642 
L 146.53148 283.044724 
L 148.053298 277.774836 
L 149.575116 275.9074 
L 151.096934 272.088606 
L 152.618752 271.374236 
L 154.140571 266.447129 
L 155.662389 275.227242 
L 157.184207 277.359633 
L 158.706025 277.843549 
L 160.227843 273.396411 
L 161.749661 276.821469 
L 163.27148 273.001436 
L 164.793298 275.655009 
L 166.315116 277.949675 
L 167.836934 272.191751 
L 169.358752 262.717826 
L 170.880571 263.546077 
L 172.402389 259.047851 
L 173.924207 247.080412 
L 175.446025 249.781748 
L 176.967843 250.242118 
L 178.489661 243.66485 
L 180.01148 238.029085 
L 181.533298 239.286473 
L 183.055116 252.554218 
L 184.576934 274.800273 
L 186.098752 288.122501 
L 187.620571 310.641476 
L 189.142389 327.542438 
L 190.664207 323.045654 
L 192.186025 324.362511 
L 193.707843 321.74475 
L 195.229661 310.865846 
L 196.75148 309.317933 
L 198.273298 310.991477 
L 199.795116 293.058624 
L 201.316934 298.561307 
L 202.838752 303.597833 
L 204.360571 307.427667 
L 205.882389 308.030597 
L 207.404207 314.647296 
L 208.926025 308.952398 
L 210.447843 298.088806 
L 211.969661 292.306143 
L 213.49148 287.372843 
L 215.013298 287.62712 
L 216.535116 293.629202 
L 218.056934 305.058637 
L 219.578752 306.207225 
L 221.100571 307.871965 
L 222.622389 310.050204 
L 224.144207 301.566096 
L 225.666025 293.931866 
L 227.187843 289.501273 
L 230.23148 272.201228 
L 231.753298 272.711856 
L 233.275116 272.7175 
L 234.796934 271.872711 
L 236.318752 272.045341 
L 237.840571 274.721458 
L 239.362389 274.064605 
L 240.884207 272.562243 
L 242.406025 262.553305 
L 243.927843 262.811819 
L 245.449661 261.642182 
L 246.97148 257.365186 
L 248.493298 248.646909 
L 250.015116 254.268179 
L 251.536934 250.854235 
L 253.058752 242.205764 
L 254.580571 238.202884 
L 256.102389 242.911482 
L 257.624207 245.453478 
L 259.146025 244.65477 
L 260.667843 263.378147 
L 262.189661 278.118017 
L 263.71148 284.825123 
L 265.233298 287.636272 
L 266.755116 304.30519 
L 268.276934 295.843294 
L 269.798752 299.524224 
L 271.320571 304.059494 
L 272.842389 315.063741 
L 274.364207 307.878859 
L 275.886025 322.199414 
L 277.407843 309.677942 
L 278.929661 304.999073 
L 280.45148 297.333139 
L 281.973298 305.643143 
L 283.495116 295.729631 
L 285.016934 300.45045 
L 286.538752 297.298233 
L 288.060571 299.155496 
L 289.582389 286.985425 
L 291.104207 284.866395 
L 292.626025 281.925476 
L 294.147843 288.786591 
L 295.669661 280.737101 
L 298.713298 281.306843 
L 300.235116 286.484002 
L 301.756934 280.842301 
L 303.278752 279.255889 
L 304.800571 272.856016 
L 306.322389 269.25993 
L 307.844207 258.349926 
L 309.366025 263.009739 
L 310.887843 259.476936 
L 312.409661 264.823499 
L 313.93148 265.746923 
L 315.453298 268.883982 
L 316.975116 254.976701 
L 320.018752 260.924003 
L 321.540571 262.605231 
L 323.062389 265.078698 
L 324.584207 269.386662 
L 326.106025 264.826647 
L 327.627843 258.224606 
L 329.149661 246.448398 
L 330.67148 240.458946 
L 332.193298 236.431475 
L 333.715116 239.174045 
L 335.236934 253.902032 
L 335.236934 253.902032 
" style="fill:none;stroke:#1f77b4;stroke-linecap:square;stroke-width:1.5;"/>
   </g>
   <g id="patch_13">
    <path d="M 29.35148 350.429588 
L 29.35148 208.620893 
" style="fill:none;stroke:#000000;stroke-linecap:square;stroke-linejoin:miter;stroke-width:0.8;"/>
   </g>
   <g id="patch_14">
    <path d="M 333.715116 350.429588 
L 333.715116 208.620893 
" style="fill:none;stroke:#000000;stroke-linecap:square;stroke-linejoin:miter;stroke-width:0.8;"/>
   </g>
   <g id="patch_15">
    <path d="M 29.35148 350.429588 
L 333.715116 350.429588 
" style="fill:none;stroke:#000000;stroke-linecap:square;stroke-linejoin:miter;stroke-width:0.8;"/>
   </g>
   <g id="patch_16">
    <path d="M 29.35148 208.620893 
L 333.715116 208.620893 
" style="fill:none;stroke:#000000;stroke-linecap:square;stroke-linejoin:miter;stroke-width:0.8;"/>
   </g>
   <g id="text_45">
    <!-- $z$ ($M=5$) -->
    <g transform="translate(146.099798 202.620893)scale(0.16 -0.16)">
     <defs>
      <path d="M 813 486 
C 1088 809 1312 1015 1632 1313 
C 2016 1657 2182 1822 2272 1922 
C 2720 2371 2944 2713 2944 2764 
C 2944 2816 2893 2816 2880 2816 
C 2835 2816 2822 2790 2790 2745 
C 2630 2470 2477 2368 2310 2368 
C 2176 2368 2106 2403 1984 2547 
C 1850 2707 1741 2816 1555 2816 
C 1088 2816 806 2265 806 2127 
C 806 2107 813 2067 870 2067 
C 922 2067 928 2094 947 2140 
C 1056 2387 1363 2415 1485 2415 
C 1619 2415 1747 2387 1882 2342 
C 2125 2239 2227 2239 2291 2239 
C 2336 2239 2362 2239 2394 2246 
C 2182 1988 1837 1670 1549 1399 
L 902 783 
C 512 380 275 32 275 -13 
C 275 -52 307 -64 346 -64 
C 384 -64 390 -58 435 19 
C 538 179 742 384 979 384 
C 1114 384 1178 356 1306 211 
C 1427 70 1536 -64 1741 -64 
C 2368 -64 2726 723 2726 876 
C 2726 902 2720 942 2656 942 
C 2605 942 2598 915 2579 849 
C 2438 460 2061 336 1811 336 
C 1677 336 1549 364 1414 409 
C 1158 512 1088 512 1005 512 
C 941 512 870 512 813 486 
z
" id="CMMI12-7a" transform="scale(0.015625)"/>
      <path d="M 1958 -1562 
C 1958 -1556 1958 -1543 1939 -1524 
C 1645 -1223 858 -403 858 1596 
C 858 3595 1632 4408 1946 4729 
C 1946 4735 1958 4748 1958 4767 
C 1958 4787 1939 4800 1914 4800 
C 1843 4800 1299 4325 986 3620 
C 666 2909 576 2218 576 1603 
C 576 1141 621 360 1005 -467 
C 1312 -1133 1837 -1600 1914 -1600 
C 1946 -1600 1958 -1588 1958 -1562 
z
" id="CMR17-28" transform="scale(0.015625)"/>
      <path d="M 5811 3886 
C 5869 4102 5882 4166 6336 4166 
C 6458 4166 6515 4166 6515 4287 
C 6515 4352 6470 4352 6349 4352 
L 5581 4352 
C 5421 4352 5414 4345 5344 4243 
L 3008 567 
L 2528 4211 
C 2509 4352 2502 4352 2336 4352 
L 1542 4352 
C 1421 4352 1363 4352 1363 4230 
C 1363 4166 1421 4166 1517 4166 
C 1907 4166 1907 4115 1907 4045 
C 1907 4032 1907 3994 1882 3898 
L 1062 650 
C 986 344 838 204 410 185 
C 390 185 314 179 314 70 
C 314 0 371 0 397 0 
C 525 0 851 12 979 12 
L 1286 12 
C 1376 12 1485 0 1574 0 
C 1619 0 1690 0 1690 121 
C 1690 179 1626 185 1600 185 
C 1389 191 1184 230 1184 459 
C 1184 523 1184 529 1210 618 
L 2093 4128 
L 2099 4128 
L 2630 172 
C 2650 19 2656 0 2714 0 
C 2784 0 2816 51 2848 108 
L 5421 4159 
L 5427 4159 
L 4499 472 
C 4442 249 4429 185 3981 185 
C 3859 185 3795 185 3795 70 
C 3795 0 3853 0 3891 0 
C 4000 0 4128 12 4237 12 
L 4992 12 
C 5101 12 5235 0 5344 0 
C 5395 0 5466 0 5466 121 
C 5466 185 5408 185 5312 185 
C 4922 185 4922 236 4922 300 
C 4922 306 4922 351 4934 402 
L 5811 3886 
z
" id="CMMI12-4d" transform="scale(0.015625)"/>
      <path d="M 4115 2048 
C 4211 2048 4307 2048 4307 2156 
C 4307 2272 4198 2272 4090 2272 
L 512 2272 
C 403 2272 294 2272 294 2156 
C 294 2048 390 2048 486 2048 
L 4115 2048 
z
M 4090 927 
C 4198 927 4307 927 4307 1043 
C 4307 1152 4211 1152 4115 1152 
L 486 1152 
C 390 1152 294 1152 294 1043 
C 294 927 403 927 512 927 
L 4090 927 
z
" id="CMR17-3d" transform="scale(0.015625)"/>
      <path d="M 1683 1596 
C 1683 2057 1638 2839 1254 3665 
C 947 4332 422 4800 346 4800 
C 326 4800 301 4793 301 4761 
C 301 4748 307 4742 314 4729 
C 621 4408 1402 3595 1402 1603 
C 1402 -396 627 -1210 314 -1530 
C 307 -1543 301 -1549 301 -1562 
C 301 -1594 326 -1600 346 -1600 
C 416 -1600 960 -1127 1274 -422 
C 1594 289 1683 981 1683 1596 
z
" id="CMR17-29" transform="scale(0.015625)"/>
     </defs>
     <use transform="scale(0.996264)" xlink:href="#CMMI12-7a"/>
     <use transform="translate(79.831111 0)scale(0.996264)" xlink:href="#CMR17-28"/>
     <use transform="translate(115.111879 0)scale(0.996264)" xlink:href="#CMMI12-4d"/>
     <use transform="translate(247.565967 0)scale(0.996264)" xlink:href="#CMR17-3d"/>
     <use transform="translate(346.954764 0)scale(0.996264)" xlink:href="#CMR17-35"/>
     <use transform="translate(392.645241 0)scale(0.996264)" xlink:href="#CMR17-29"/>
    </g>
   </g>
  </g>
  <g id="axes_4">
   <g id="patch_17">
    <path d="M 394.587843 350.429588 
L 698.95148 350.429588 
L 698.95148 208.620893 
L 394.587843 208.620893 
z
" style="fill:#ffffff;"/>
   </g>
   <g id="matplotlib.axis_7">
    <g id="xtick_28">
     <g id="line2d_88">
      <path clip-path="url(#pff7786f0e7)" d="M 394.587843 350.429588 
L 394.587843 208.620893 
" style="fill:none;stroke:#b0b0b0;stroke-linecap:square;stroke-width:0.8;"/>
     </g>
     <g id="line2d_89">
      <g>
       <use style="stroke:#000000;stroke-width:0.8;" x="394.587843" xlink:href="#m575aff5541" y="350.429588"/>
      </g>
     </g>
     <g id="text_46">
      <!-- $\mathdefault{0}$ -->
      <g transform="translate(391.661348 365.731768)scale(0.12 -0.12)">
       <use transform="scale(0.996264)" xlink:href="#CMR17-30"/>
      </g>
     </g>
    </g>
    <g id="xtick_29">
     <g id="line2d_90">
      <path clip-path="url(#pff7786f0e7)" d="M 432.633298 350.429588 
L 432.633298 208.620893 
" style="fill:none;stroke:#b0b0b0;stroke-linecap:square;stroke-width:0.8;"/>
     </g>
     <g id="line2d_91">
      <g>
       <use style="stroke:#000000;stroke-width:0.8;" x="432.633298" xlink:href="#m575aff5541" y="350.429588"/>
      </g>
     </g>
     <g id="text_47">
      <!-- $\mathdefault{25}$ -->
      <g transform="translate(426.780308 365.731768)scale(0.12 -0.12)">
       <use transform="scale(0.996264)" xlink:href="#CMR17-32"/>
       <use transform="translate(45.690477 0)scale(0.996264)" xlink:href="#CMR17-35"/>
      </g>
     </g>
    </g>
    <g id="xtick_30">
     <g id="line2d_92">
      <path clip-path="url(#pff7786f0e7)" d="M 470.678752 350.429588 
L 470.678752 208.620893 
" style="fill:none;stroke:#b0b0b0;stroke-linecap:square;stroke-width:0.8;"/>
     </g>
     <g id="line2d_93">
      <g>
       <use style="stroke:#000000;stroke-width:0.8;" x="470.678752" xlink:href="#m575aff5541" y="350.429588"/>
      </g>
     </g>
     <g id="text_48">
      <!-- $\mathdefault{50}$ -->
      <g transform="translate(464.825762 365.731768)scale(0.12 -0.12)">
       <use transform="scale(0.996264)" xlink:href="#CMR17-35"/>
       <use transform="translate(45.690477 0)scale(0.996264)" xlink:href="#CMR17-30"/>
      </g>
     </g>
    </g>
    <g id="xtick_31">
     <g id="line2d_94">
      <path clip-path="url(#pff7786f0e7)" d="M 508.724207 350.429588 
L 508.724207 208.620893 
" style="fill:none;stroke:#b0b0b0;stroke-linecap:square;stroke-width:0.8;"/>
     </g>
     <g id="line2d_95">
      <g>
       <use style="stroke:#000000;stroke-width:0.8;" x="508.724207" xlink:href="#m575aff5541" y="350.429588"/>
      </g>
     </g>
     <g id="text_49">
      <!-- $\mathdefault{75}$ -->
      <g transform="translate(502.871217 365.731768)scale(0.12 -0.12)">
       <use transform="scale(0.996264)" xlink:href="#CMR17-37"/>
       <use transform="translate(45.690477 0)scale(0.996264)" xlink:href="#CMR17-35"/>
      </g>
     </g>
    </g>
    <g id="xtick_32">
     <g id="line2d_96">
      <path clip-path="url(#pff7786f0e7)" d="M 546.769661 350.429588 
L 546.769661 208.620893 
" style="fill:none;stroke:#b0b0b0;stroke-linecap:square;stroke-width:0.8;"/>
     </g>
     <g id="line2d_97">
      <g>
       <use style="stroke:#000000;stroke-width:0.8;" x="546.769661" xlink:href="#m575aff5541" y="350.429588"/>
      </g>
     </g>
     <g id="text_50">
      <!-- $\mathdefault{100}$ -->
      <g transform="translate(537.990176 365.731768)scale(0.12 -0.12)">
       <use transform="scale(0.996264)" xlink:href="#CMR17-31"/>
       <use transform="translate(45.690477 0)scale(0.996264)" xlink:href="#CMR17-30"/>
       <use transform="translate(91.380954 0)scale(0.996264)" xlink:href="#CMR17-30"/>
      </g>
     </g>
    </g>
    <g id="xtick_33">
     <g id="line2d_98">
      <path clip-path="url(#pff7786f0e7)" d="M 584.815116 350.429588 
L 584.815116 208.620893 
" style="fill:none;stroke:#b0b0b0;stroke-linecap:square;stroke-width:0.8;"/>
     </g>
     <g id="line2d_99">
      <g>
       <use style="stroke:#000000;stroke-width:0.8;" x="584.815116" xlink:href="#m575aff5541" y="350.429588"/>
      </g>
     </g>
     <g id="text_51">
      <!-- $\mathdefault{125}$ -->
      <g transform="translate(576.035631 365.731768)scale(0.12 -0.12)">
       <use transform="scale(0.996264)" xlink:href="#CMR17-31"/>
       <use transform="translate(45.690477 0)scale(0.996264)" xlink:href="#CMR17-32"/>
       <use transform="translate(91.380954 0)scale(0.996264)" xlink:href="#CMR17-35"/>
      </g>
     </g>
    </g>
    <g id="xtick_34">
     <g id="line2d_100">
      <path clip-path="url(#pff7786f0e7)" d="M 622.860571 350.429588 
L 622.860571 208.620893 
" style="fill:none;stroke:#b0b0b0;stroke-linecap:square;stroke-width:0.8;"/>
     </g>
     <g id="line2d_101">
      <g>
       <use style="stroke:#000000;stroke-width:0.8;" x="622.860571" xlink:href="#m575aff5541" y="350.429588"/>
      </g>
     </g>
     <g id="text_52">
      <!-- $\mathdefault{150}$ -->
      <g transform="translate(614.081085 365.731768)scale(0.12 -0.12)">
       <use transform="scale(0.996264)" xlink:href="#CMR17-31"/>
       <use transform="translate(45.690477 0)scale(0.996264)" xlink:href="#CMR17-35"/>
       <use transform="translate(91.380954 0)scale(0.996264)" xlink:href="#CMR17-30"/>
      </g>
     </g>
    </g>
    <g id="xtick_35">
     <g id="line2d_102">
      <path clip-path="url(#pff7786f0e7)" d="M 660.906025 350.429588 
L 660.906025 208.620893 
" style="fill:none;stroke:#b0b0b0;stroke-linecap:square;stroke-width:0.8;"/>
     </g>
     <g id="line2d_103">
      <g>
       <use style="stroke:#000000;stroke-width:0.8;" x="660.906025" xlink:href="#m575aff5541" y="350.429588"/>
      </g>
     </g>
     <g id="text_53">
      <!-- $\mathdefault{175}$ -->
      <g transform="translate(652.12654 365.731768)scale(0.12 -0.12)">
       <use transform="scale(0.996264)" xlink:href="#CMR17-31"/>
       <use transform="translate(45.690477 0)scale(0.996264)" xlink:href="#CMR17-37"/>
       <use transform="translate(91.380954 0)scale(0.996264)" xlink:href="#CMR17-35"/>
      </g>
     </g>
    </g>
    <g id="xtick_36">
     <g id="line2d_104">
      <path clip-path="url(#pff7786f0e7)" d="M 698.95148 350.429588 
L 698.95148 208.620893 
" style="fill:none;stroke:#b0b0b0;stroke-linecap:square;stroke-width:0.8;"/>
     </g>
     <g id="line2d_105">
      <g>
       <use style="stroke:#000000;stroke-width:0.8;" x="698.95148" xlink:href="#m575aff5541" y="350.429588"/>
      </g>
     </g>
     <g id="text_54">
      <!-- $\mathdefault{200}$ -->
      <g transform="translate(690.171994 365.731768)scale(0.12 -0.12)">
       <use transform="scale(0.996264)" xlink:href="#CMR17-32"/>
       <use transform="translate(45.690477 0)scale(0.996264)" xlink:href="#CMR17-30"/>
       <use transform="translate(91.380954 0)scale(0.996264)" xlink:href="#CMR17-30"/>
      </g>
     </g>
    </g>
   </g>
   <g id="matplotlib.axis_8">
    <g id="ytick_16">
     <g id="line2d_106">
      <path clip-path="url(#pff7786f0e7)" d="M 394.587843 350.429588 
L 698.95148 350.429588 
" style="fill:none;stroke:#b0b0b0;stroke-linecap:square;stroke-width:0.8;"/>
     </g>
     <g id="line2d_107">
      <g>
       <use style="stroke:#000000;stroke-width:0.8;" x="394.587843" xlink:href="#mb9568a23bd" y="350.429588"/>
      </g>
     </g>
     <g id="text_55">
      <!-- $\mathdefault{−2}$ -->
      <g transform="translate(372.436364 354.580678)scale(0.12 -0.12)">
       <use transform="scale(0.996264)" xlink:href="#CMSY10-0"/>
       <use transform="translate(77.487468 0)scale(0.996264)" xlink:href="#CMR17-32"/>
      </g>
     </g>
    </g>
    <g id="ytick_17">
     <g id="line2d_108">
      <path clip-path="url(#pff7786f0e7)" d="M 394.587843 314.977414 
L 698.95148 314.977414 
" style="fill:none;stroke:#b0b0b0;stroke-linecap:square;stroke-width:0.8;"/>
     </g>
     <g id="line2d_109">
      <g>
       <use style="stroke:#000000;stroke-width:0.8;" x="394.587843" xlink:href="#mb9568a23bd" y="314.977414"/>
      </g>
     </g>
     <g id="text_56">
      <!-- $\mathdefault{−1}$ -->
      <g transform="translate(372.436364 319.128504)scale(0.12 -0.12)">
       <use transform="scale(0.996264)" xlink:href="#CMSY10-0"/>
       <use transform="translate(77.487468 0)scale(0.996264)" xlink:href="#CMR17-31"/>
      </g>
     </g>
    </g>
    <g id="ytick_18">
     <g id="line2d_110">
      <path clip-path="url(#pff7786f0e7)" d="M 394.587843 279.52524 
L 698.95148 279.52524 
" style="fill:none;stroke:#b0b0b0;stroke-linecap:square;stroke-width:0.8;"/>
     </g>
     <g id="line2d_111">
      <g>
       <use style="stroke:#000000;stroke-width:0.8;" x="394.587843" xlink:href="#mb9568a23bd" y="279.52524"/>
      </g>
     </g>
     <g id="text_57">
      <!-- $\mathdefault{0}$ -->
      <g transform="translate(381.734853 283.67633)scale(0.12 -0.12)">
       <use transform="scale(0.996264)" xlink:href="#CMR17-30"/>
      </g>
     </g>
    </g>
    <g id="ytick_19">
     <g id="line2d_112">
      <path clip-path="url(#pff7786f0e7)" d="M 394.587843 244.073067 
L 698.95148 244.073067 
" style="fill:none;stroke:#b0b0b0;stroke-linecap:square;stroke-width:0.8;"/>
     </g>
     <g id="line2d_113">
      <g>
       <use style="stroke:#000000;stroke-width:0.8;" x="394.587843" xlink:href="#mb9568a23bd" y="244.073067"/>
      </g>
     </g>
     <g id="text_58">
      <!-- $\mathdefault{1}$ -->
      <g transform="translate(381.734853 248.224156)scale(0.12 -0.12)">
       <use transform="scale(0.996264)" xlink:href="#CMR17-31"/>
      </g>
     </g>
    </g>
    <g id="ytick_20">
     <g id="line2d_114">
      <path clip-path="url(#pff7786f0e7)" d="M 394.587843 208.620893 
L 698.95148 208.620893 
" style="fill:none;stroke:#b0b0b0;stroke-linecap:square;stroke-width:0.8;"/>
     </g>
     <g id="line2d_115">
      <g>
       <use style="stroke:#000000;stroke-width:0.8;" x="394.587843" xlink:href="#mb9568a23bd" y="208.620893"/>
      </g>
     </g>
     <g id="text_59">
      <!-- $\mathdefault{2}$ -->
      <g transform="translate(381.734853 212.771983)scale(0.12 -0.12)">
       <use transform="scale(0.996264)" xlink:href="#CMR17-32"/>
      </g>
     </g>
    </g>
   </g>
   <g id="line2d_116">
    <path clip-path="url(#pff7786f0e7)" d="M 394.587843 259.199062 
L 396.109661 261.395136 
L 397.63148 264.633355 
L 399.153298 266.462077 
L 400.675116 270.474658 
L 402.196934 273.214385 
L 403.718752 276.553901 
L 405.240571 278.215343 
L 406.762389 281.693236 
L 408.284207 286.893937 
L 409.806025 290.952739 
L 412.849661 295.734462 
L 414.37148 297.942734 
L 415.893298 298.402261 
L 417.415116 303.426656 
L 418.936934 301.837313 
L 420.458752 301.262728 
L 421.980571 300.126511 
L 423.502389 297.144567 
L 425.024207 297.161304 
L 428.067843 293.813941 
L 429.589661 290.860252 
L 431.11148 287.529277 
L 432.633298 287.220196 
L 434.155116 287.386767 
L 435.676934 286.727599 
L 437.198752 284.991237 
L 438.720571 286.950625 
L 440.242389 286.509935 
L 441.764207 284.527371 
L 443.286025 282.13457 
L 444.807843 281.469677 
L 446.329661 282.491376 
L 447.85148 279.676754 
L 449.373298 278.136116 
L 450.895116 277.291683 
L 452.416934 276.817242 
L 453.938752 276.804774 
L 456.982389 269.483488 
L 458.504207 268.895885 
L 460.026025 268.821057 
L 461.547843 264.88897 
L 463.069661 263.790949 
L 464.59148 263.846841 
L 466.113298 262.81436 
L 467.635116 261.436447 
L 469.156934 256.770586 
L 470.678752 256.325636 
L 472.200571 262.299222 
L 473.722389 266.686932 
L 475.244207 268.927927 
L 476.766025 272.164751 
L 478.287843 276.773947 
L 479.809661 282.170083 
L 481.33148 283.541343 
L 482.853298 285.720342 
L 484.375116 290.525557 
L 485.896934 293.372451 
L 487.418752 295.662852 
L 488.940571 298.716792 
L 491.984207 306.727792 
L 493.506025 309.34227 
L 498.07148 303.273764 
L 499.593298 298.961832 
L 501.115116 297.431762 
L 502.636934 294.070248 
L 504.158752 293.735386 
L 505.680571 291.221228 
L 507.202389 288.953613 
L 508.724207 287.719127 
L 510.246025 287.361068 
L 511.767843 285.584849 
L 513.289661 281.285945 
L 514.81148 279.925828 
L 516.333298 279.008111 
L 517.855116 277.510235 
L 519.376934 275.169426 
L 520.898752 276.514131 
L 522.420571 278.009427 
L 523.942389 276.887731 
L 525.464207 277.099096 
L 526.986025 275.437774 
L 528.507843 275.334504 
L 530.029661 276.307347 
L 531.55148 275.96061 
L 534.595116 268.662141 
L 536.116934 270.591585 
L 537.638752 270.687498 
L 539.160571 267.624545 
L 540.682389 265.123303 
L 542.204207 263.260471 
L 543.726025 260.070788 
L 545.247843 257.577315 
L 546.769661 254.772187 
L 548.29148 258.175906 
L 549.813298 262.586739 
L 551.335116 265.111143 
L 552.856934 269.239471 
L 554.378752 271.303108 
L 555.900571 275.127207 
L 557.422389 283.134968 
L 558.944207 284.5107 
L 560.466025 286.512136 
L 561.987843 292.048948 
L 563.509661 295.530449 
L 565.03148 297.407136 
L 568.075116 308.368385 
L 569.596934 314.76268 
L 571.118752 314.022576 
L 572.640571 310.689477 
L 574.162389 309.752818 
L 575.684207 304.184162 
L 577.206025 303.017248 
L 578.727843 302.131639 
L 580.249661 298.444346 
L 583.293298 302.248425 
L 584.815116 301.980345 
L 586.336934 301.091802 
L 587.858752 304.108207 
L 589.380571 301.382565 
L 590.902389 299.026436 
L 592.424207 296.00488 
L 593.946025 291.943675 
L 595.467843 289.959517 
L 596.989661 289.302385 
L 598.51148 290.569334 
L 600.033298 289.193736 
L 601.555116 286.834508 
L 603.076934 285.65763 
L 606.120571 279.737203 
L 607.642389 274.64243 
L 609.164207 271.814459 
L 610.686025 269.521623 
L 612.207843 268.047216 
L 613.729661 264.642217 
L 615.25148 262.898065 
L 616.773298 261.903798 
L 618.295116 259.523134 
L 619.816934 256.544225 
L 621.338752 254.706878 
L 622.860571 254.091654 
L 624.382389 252.773608 
L 625.904207 255.742031 
L 627.426025 257.895362 
L 628.947843 258.794505 
L 630.469661 262.452643 
L 631.99148 266.604732 
L 633.513298 267.142401 
L 635.035116 271.948375 
L 638.078752 282.71783 
L 639.600571 285.61294 
L 641.122389 293.806952 
L 642.644207 295.773394 
L 645.687843 300.01105 
L 647.209661 305.942397 
L 650.253298 303.217539 
L 651.775116 302.118933 
L 653.296934 303.850792 
L 654.818752 300.169142 
L 656.340571 300.931814 
L 657.862389 297.351289 
L 659.384207 297.027966 
L 660.906025 292.408579 
L 662.427843 291.208235 
L 663.949661 287.300957 
L 665.47148 289.619976 
L 666.993298 288.975708 
L 668.515116 286.382829 
L 670.036934 280.279192 
L 671.558752 278.477723 
L 673.080571 275.586468 
L 674.602389 277.54621 
L 676.124207 273.156642 
L 677.646025 272.891884 
L 680.689661 271.239304 
L 682.21148 266.276247 
L 683.733298 265.580982 
L 685.255116 266.201173 
L 686.776934 265.870695 
L 689.820571 262.457701 
L 691.342389 260.771235 
L 692.864207 261.324036 
L 694.386025 258.266851 
L 695.907843 258.140542 
L 697.429661 253.598279 
L 698.95148 254.003605 
L 700.473298 257.683547 
L 700.473298 257.683547 
" style="fill:none;stroke:#1f77b4;stroke-linecap:square;stroke-width:1.5;"/>
   </g>
   <g id="patch_18">
    <path d="M 394.587843 350.429588 
L 394.587843 208.620893 
" style="fill:none;stroke:#000000;stroke-linecap:square;stroke-linejoin:miter;stroke-width:0.8;"/>
   </g>
   <g id="patch_19">
    <path d="M 698.95148 350.429588 
L 698.95148 208.620893 
" style="fill:none;stroke:#000000;stroke-linecap:square;stroke-linejoin:miter;stroke-width:0.8;"/>
   </g>
   <g id="patch_20">
    <path d="M 394.587843 350.429588 
L 698.95148 350.429588 
" style="fill:none;stroke:#000000;stroke-linecap:square;stroke-linejoin:miter;stroke-width:0.8;"/>
   </g>
   <g id="patch_21">
    <path d="M 394.587843 208.620893 
L 698.95148 208.620893 
" style="fill:none;stroke:#000000;stroke-linecap:square;stroke-linejoin:miter;stroke-width:0.8;"/>
   </g>
   <g id="text_60">
    <!-- $z$ ($M=15$) -->
    <g transform="translate(507.434168 202.620893)scale(0.16 -0.16)">
     <use transform="scale(0.996264)" xlink:href="#CMMI12-7a"/>
     <use transform="translate(79.831111 0)scale(0.996264)" xlink:href="#CMR17-28"/>
     <use transform="translate(115.111879 0)scale(0.996264)" xlink:href="#CMMI12-4d"/>
     <use transform="translate(247.565967 0)scale(0.996264)" xlink:href="#CMR17-3d"/>
     <use transform="translate(346.954764 0)scale(0.996264)" xlink:href="#CMR17-31"/>
     <use transform="translate(392.645241 0)scale(0.996264)" xlink:href="#CMR17-35"/>
     <use transform="translate(438.335718 0)scale(0.996264)" xlink:href="#CMR17-29"/>
    </g>
   </g>
  </g>
 </g>
 <defs>
  <clipPath id="p447ae32e97">
   <rect height="141.808696" width="304.363636" x="29.35148" y="24.269588"/>
  </clipPath>
  <clipPath id="p969ac5f42c">
   <rect height="141.808696" width="304.363636" x="394.587843" y="24.269588"/>
  </clipPath>
  <clipPath id="p2f9e7b2f73">
   <rect height="141.808696" width="304.363636" x="29.35148" y="208.620893"/>
  </clipPath>
  <clipPath id="pff7786f0e7">
   <rect height="141.808696" width="304.363636" x="394.587843" y="208.620893"/>
  </clipPath>
 </defs>
</svg>
