<?xml version="1.0" encoding="utf-8" standalone="no"?>
<!DOCTYPE svg PUBLIC "-//W3C//DTD SVG 1.1//EN"
  "http://www.w3.org/Graphics/SVG/1.1/DTD/svg11.dtd">
<svg height="483.976364pt" version="1.1" viewBox="0 0 706.220221 483.976364" width="706.220221pt" xmlns="http://www.w3.org/2000/svg" xmlns:xlink="http://www.w3.org/1999/xlink">
 <metadata>
  <rdf:RDF xmlns:cc="http://creativecommons.org/ns#" xmlns:dc="http://purl.org/dc/elements/1.1/" xmlns:rdf="http://www.w3.org/1999/02/22-rdf-syntax-ns#">
   <cc:Work>
    <dc:type rdf:resource="http://purl.org/dc/dcmitype/StillImage"/>
    <dc:date>2021-11-25T14:38:24.617612</dc:date>
    <dc:format>image/svg+xml</dc:format>
    <dc:creator>
     <cc:Agent>
      <dc:title>Matplotlib v3.4.3, https://matplotlib.org/</dc:title>
     </cc:Agent>
    </dc:creator>
   </cc:Work>
  </rdf:RDF>
 </metadata>
 <defs>
  <style type="text/css">*{stroke-linecap:butt;stroke-linejoin:round;}</style>
 </defs>
 <g id="figure_1">
  <g id="patch_1">
   <path d="M 0 483.976364 
L 706.220221 483.976364 
L 706.220221 0 
L 0 0 
z
" style="fill:none;"/>
  </g>
  <g id="axes_1">
   <g id="patch_2">
    <path d="M 29.35148 145.069588 
L 333.715116 145.069588 
L 333.715116 24.269588 
L 29.35148 24.269588 
z
" style="fill:#ffffff;"/>
   </g>
   <g id="matplotlib.axis_1">
    <g id="xtick_1">
     <g id="line2d_1">
      <path clip-path="url(#p3603999647)" d="M 43.18619 145.069588 
L 43.18619 24.269588 
" style="fill:none;stroke:#b0b0b0;stroke-linecap:square;stroke-width:0.5;"/>
     </g>
     <g id="line2d_2">
      <defs>
       <path d="M 0 0 
L 0 3.5 
" id="m6f4c455af0" style="stroke:#000000;stroke-width:0.8;"/>
      </defs>
      <g>
       <use style="stroke:#000000;stroke-width:0.8;" x="43.18619" xlink:href="#m6f4c455af0" y="145.069588"/>
      </g>
     </g>
     <g id="text_1">
      <!-- $\mathdefault{0}$ -->
      <g transform="translate(40.259695 160.371768)scale(0.12 -0.12)">
       <defs>
        <path d="M 2688 2025 
C 2688 2416 2682 3080 2413 3591 
C 2176 4039 1798 4198 1466 4198 
C 1158 4198 768 4058 525 3597 
C 269 3118 243 2524 243 2025 
C 243 1661 250 1106 448 619 
C 723 -39 1216 -128 1466 -128 
C 1760 -128 2208 -7 2470 600 
C 2662 1042 2688 1559 2688 2025 
z
M 1466 -26 
C 1056 -26 813 325 723 812 
C 653 1188 653 1738 653 2096 
C 653 2588 653 2997 736 3387 
C 858 3929 1216 4096 1466 4096 
C 1728 4096 2067 3923 2189 3400 
C 2272 3036 2278 2607 2278 2096 
C 2278 1680 2278 1169 2202 792 
C 2067 95 1690 -26 1466 -26 
z
" id="CMR17-30" transform="scale(0.015625)"/>
       </defs>
       <use transform="scale(0.996264)" xlink:href="#CMR17-30"/>
      </g>
     </g>
    </g>
    <g id="xtick_2">
     <g id="line2d_3">
      <path clip-path="url(#p3603999647)" d="M 99.084012 145.069588 
L 99.084012 24.269588 
" style="fill:none;stroke:#b0b0b0;stroke-linecap:square;stroke-width:0.5;"/>
     </g>
     <g id="line2d_4">
      <g>
       <use style="stroke:#000000;stroke-width:0.8;" x="99.084012" xlink:href="#m6f4c455af0" y="145.069588"/>
      </g>
     </g>
     <g id="text_2">
      <!-- $\mathdefault{20}$ -->
      <g transform="translate(93.231021 160.371768)scale(0.12 -0.12)">
       <defs>
        <path d="M 2669 989 
L 2554 989 
C 2490 536 2438 459 2413 420 
C 2381 369 1920 369 1830 369 
L 602 369 
C 832 619 1280 1072 1824 1597 
C 2214 1967 2669 2402 2669 3035 
C 2669 3790 2067 4224 1395 4224 
C 691 4224 262 3604 262 3030 
C 262 2780 448 2748 525 2748 
C 589 2748 781 2787 781 3010 
C 781 3207 614 3264 525 3264 
C 486 3264 448 3258 422 3245 
C 544 3790 915 4058 1306 4058 
C 1862 4058 2227 3617 2227 3035 
C 2227 2479 1901 2000 1536 1584 
L 262 146 
L 262 0 
L 2515 0 
L 2669 989 
z
" id="CMR17-32" transform="scale(0.015625)"/>
       </defs>
       <use transform="scale(0.996264)" xlink:href="#CMR17-32"/>
       <use transform="translate(45.690477 0)scale(0.996264)" xlink:href="#CMR17-30"/>
      </g>
     </g>
    </g>
    <g id="xtick_3">
     <g id="line2d_5">
      <path clip-path="url(#p3603999647)" d="M 154.981833 145.069588 
L 154.981833 24.269588 
" style="fill:none;stroke:#b0b0b0;stroke-linecap:square;stroke-width:0.5;"/>
     </g>
     <g id="line2d_6">
      <g>
       <use style="stroke:#000000;stroke-width:0.8;" x="154.981833" xlink:href="#m6f4c455af0" y="145.069588"/>
      </g>
     </g>
     <g id="text_3">
      <!-- $\mathdefault{40}$ -->
      <g transform="translate(149.128843 160.371768)scale(0.12 -0.12)">
       <defs>
        <path d="M 2150 4122 
C 2150 4256 2144 4256 2029 4256 
L 128 1254 
L 128 1088 
L 1779 1088 
L 1779 457 
C 1779 224 1766 160 1318 160 
L 1197 160 
L 1197 0 
C 1402 0 1747 0 1965 0 
C 2182 0 2528 0 2733 0 
L 2733 160 
L 2611 160 
C 2163 160 2150 224 2150 457 
L 2150 1088 
L 2803 1088 
L 2803 1254 
L 2150 1254 
L 2150 4122 
z
M 1798 3703 
L 1798 1254 
L 256 1254 
L 1798 3703 
z
" id="CMR17-34" transform="scale(0.015625)"/>
       </defs>
       <use transform="scale(0.996264)" xlink:href="#CMR17-34"/>
       <use transform="translate(45.690477 0)scale(0.996264)" xlink:href="#CMR17-30"/>
      </g>
     </g>
    </g>
    <g id="xtick_4">
     <g id="line2d_7">
      <path clip-path="url(#p3603999647)" d="M 210.879654 145.069588 
L 210.879654 24.269588 
" style="fill:none;stroke:#b0b0b0;stroke-linecap:square;stroke-width:0.5;"/>
     </g>
     <g id="line2d_8">
      <g>
       <use style="stroke:#000000;stroke-width:0.8;" x="210.879654" xlink:href="#m6f4c455af0" y="145.069588"/>
      </g>
     </g>
     <g id="text_4">
      <!-- $\mathdefault{60}$ -->
      <g transform="translate(205.026664 160.371768)scale(0.12 -0.12)">
       <defs>
        <path d="M 678 2176 
C 678 3690 1395 4032 1811 4032 
C 1946 4032 2272 4009 2400 3776 
C 2298 3776 2106 3776 2106 3553 
C 2106 3381 2246 3323 2336 3323 
C 2394 3323 2566 3348 2566 3560 
C 2566 3954 2246 4179 1805 4179 
C 1043 4179 243 3390 243 1984 
C 243 253 966 -128 1478 -128 
C 2099 -128 2688 427 2688 1283 
C 2688 2081 2170 2662 1517 2662 
C 1126 2662 838 2407 678 1960 
L 678 2176 
z
M 1478 25 
C 691 25 691 1200 691 1436 
C 691 1896 909 2560 1504 2560 
C 1613 2560 1926 2560 2138 2120 
C 2253 1870 2253 1609 2253 1289 
C 2253 944 2253 690 2118 434 
C 1978 171 1773 25 1478 25 
z
" id="CMR17-36" transform="scale(0.015625)"/>
       </defs>
       <use transform="scale(0.996264)" xlink:href="#CMR17-36"/>
       <use transform="translate(45.690477 0)scale(0.996264)" xlink:href="#CMR17-30"/>
      </g>
     </g>
    </g>
    <g id="xtick_5">
     <g id="line2d_9">
      <path clip-path="url(#p3603999647)" d="M 266.777475 145.069588 
L 266.777475 24.269588 
" style="fill:none;stroke:#b0b0b0;stroke-linecap:square;stroke-width:0.5;"/>
     </g>
     <g id="line2d_10">
      <g>
       <use style="stroke:#000000;stroke-width:0.8;" x="266.777475" xlink:href="#m6f4c455af0" y="145.069588"/>
      </g>
     </g>
     <g id="text_5">
      <!-- $\mathdefault{80}$ -->
      <g transform="translate(260.924485 160.371768)scale(0.12 -0.12)">
       <defs>
        <path d="M 1741 2264 
C 2144 2467 2554 2773 2554 3263 
C 2554 3841 1990 4179 1472 4179 
C 890 4179 378 3759 378 3180 
C 378 3021 416 2747 666 2505 
C 730 2442 998 2251 1171 2130 
C 883 1983 211 1634 211 934 
C 211 279 838 -128 1459 -128 
C 2144 -128 2720 362 2720 1010 
C 2720 1590 2330 1857 2074 2029 
L 1741 2264 
z
M 902 2822 
C 851 2854 595 3051 595 3351 
C 595 3739 998 4032 1459 4032 
C 1965 4032 2336 3676 2336 3262 
C 2336 2669 1670 2331 1638 2331 
C 1632 2331 1626 2331 1574 2370 
L 902 2822 
z
M 2080 1519 
C 2176 1449 2483 1240 2483 851 
C 2483 381 2010 25 1472 25 
C 890 25 448 438 448 940 
C 448 1443 838 1862 1280 2060 
L 2080 1519 
z
" id="CMR17-38" transform="scale(0.015625)"/>
       </defs>
       <use transform="scale(0.996264)" xlink:href="#CMR17-38"/>
       <use transform="translate(45.690477 0)scale(0.996264)" xlink:href="#CMR17-30"/>
      </g>
     </g>
    </g>
    <g id="xtick_6">
     <g id="line2d_11">
      <path clip-path="url(#p3603999647)" d="M 322.675296 145.069588 
L 322.675296 24.269588 
" style="fill:none;stroke:#b0b0b0;stroke-linecap:square;stroke-width:0.5;"/>
     </g>
     <g id="line2d_12">
      <g>
       <use style="stroke:#000000;stroke-width:0.8;" x="322.675296" xlink:href="#m6f4c455af0" y="145.069588"/>
      </g>
     </g>
     <g id="text_6">
      <!-- $\mathdefault{100}$ -->
      <g transform="translate(313.895811 160.371768)scale(0.12 -0.12)">
       <defs>
        <path d="M 1702 4058 
C 1702 4192 1696 4192 1606 4192 
C 1357 3916 979 3827 621 3827 
C 602 3827 570 3827 563 3808 
C 557 3795 557 3782 557 3648 
C 755 3648 1088 3686 1344 3839 
L 1344 461 
C 1344 236 1331 160 781 160 
L 589 160 
L 589 0 
C 896 0 1216 0 1523 0 
C 1830 0 2150 0 2458 0 
L 2458 160 
L 2266 160 
C 1715 160 1702 230 1702 458 
L 1702 4058 
z
" id="CMR17-31" transform="scale(0.015625)"/>
       </defs>
       <use transform="scale(0.996264)" xlink:href="#CMR17-31"/>
       <use transform="translate(45.690477 0)scale(0.996264)" xlink:href="#CMR17-30"/>
       <use transform="translate(91.380954 0)scale(0.996264)" xlink:href="#CMR17-30"/>
      </g>
     </g>
    </g>
   </g>
   <g id="matplotlib.axis_2">
    <g id="ytick_1">
     <g id="line2d_13">
      <path clip-path="url(#p3603999647)" d="M 29.35148 145.069588 
L 333.715116 145.069588 
" style="fill:none;stroke:#b0b0b0;stroke-linecap:square;stroke-width:0.5;"/>
     </g>
     <g id="line2d_14">
      <defs>
       <path d="M 0 0 
L -3.5 0 
" id="m9ccc49daca" style="stroke:#000000;stroke-width:0.8;"/>
      </defs>
      <g>
       <use style="stroke:#000000;stroke-width:0.8;" x="29.35148" xlink:href="#m9ccc49daca" y="145.069588"/>
      </g>
     </g>
     <g id="text_7">
      <!-- $\mathdefault{−1}$ -->
      <g transform="translate(7.2 149.220678)scale(0.12 -0.12)">
       <defs>
        <path d="M 4218 1472 
C 4326 1472 4442 1472 4442 1600 
C 4442 1728 4326 1728 4218 1728 
L 755 1728 
C 646 1728 531 1728 531 1600 
C 531 1472 646 1472 755 1472 
L 4218 1472 
z
" id="CMSY10-0" transform="scale(0.015625)"/>
       </defs>
       <use transform="scale(0.996264)" xlink:href="#CMSY10-0"/>
       <use transform="translate(77.487468 0)scale(0.996264)" xlink:href="#CMR17-31"/>
      </g>
     </g>
    </g>
    <g id="ytick_2">
     <g id="line2d_15">
      <path clip-path="url(#p3603999647)" d="M 29.35148 104.802922 
L 333.715116 104.802922 
" style="fill:none;stroke:#b0b0b0;stroke-linecap:square;stroke-width:0.5;"/>
     </g>
     <g id="line2d_16">
      <g>
       <use style="stroke:#000000;stroke-width:0.8;" x="29.35148" xlink:href="#m9ccc49daca" y="104.802922"/>
      </g>
     </g>
     <g id="text_8">
      <!-- $\mathdefault{0}$ -->
      <g transform="translate(16.498489 108.954012)scale(0.12 -0.12)">
       <use transform="scale(0.996264)" xlink:href="#CMR17-30"/>
      </g>
     </g>
    </g>
    <g id="ytick_3">
     <g id="line2d_17">
      <path clip-path="url(#p3603999647)" d="M 29.35148 64.536255 
L 333.715116 64.536255 
" style="fill:none;stroke:#b0b0b0;stroke-linecap:square;stroke-width:0.5;"/>
     </g>
     <g id="line2d_18">
      <g>
       <use style="stroke:#000000;stroke-width:0.8;" x="29.35148" xlink:href="#m9ccc49daca" y="64.536255"/>
      </g>
     </g>
     <g id="text_9">
      <!-- $\mathdefault{1}$ -->
      <g transform="translate(16.498489 68.687345)scale(0.12 -0.12)">
       <use transform="scale(0.996264)" xlink:href="#CMR17-31"/>
      </g>
     </g>
    </g>
    <g id="ytick_4">
     <g id="line2d_19">
      <path clip-path="url(#p3603999647)" d="M 29.35148 24.269588 
L 333.715116 24.269588 
" style="fill:none;stroke:#b0b0b0;stroke-linecap:square;stroke-width:0.5;"/>
     </g>
     <g id="line2d_20">
      <g>
       <use style="stroke:#000000;stroke-width:0.8;" x="29.35148" xlink:href="#m9ccc49daca" y="24.269588"/>
      </g>
     </g>
     <g id="text_10">
      <!-- $\mathdefault{2}$ -->
      <g transform="translate(16.498489 28.420678)scale(0.12 -0.12)">
       <use transform="scale(0.996264)" xlink:href="#CMR17-32"/>
      </g>
     </g>
    </g>
   </g>
   <g id="line2d_21">
    <path clip-path="url(#p3603999647)" d="M 43.18619 104.802922 
L 45.981081 104.802922 
L 48.775973 104.802922 
L 51.570864 104.802922 
L 54.365755 104.802922 
L 57.160646 104.802922 
L 59.955537 104.802922 
L 62.750428 104.802922 
L 65.545319 104.802922 
L 68.34021 104.802922 
L 71.135101 104.802922 
L 73.929992 104.802922 
L 76.724883 104.802922 
L 79.519774 104.802922 
L 82.314665 104.802922 
L 85.109556 104.802922 
L 87.904447 104.802922 
L 90.699338 104.802922 
L 93.494229 104.802922 
L 96.289121 104.802922 
L 99.084012 104.802922 
L 101.878903 104.802922 
L 104.673794 104.802922 
L 107.468685 104.802922 
L 110.263576 104.802922 
L 113.058467 104.802922 
L 115.853358 104.802922 
L 118.648249 104.802922 
L 121.44314 104.802922 
L 124.238031 104.802922 
L 127.032922 104.802922 
L 129.827813 104.802922 
L 132.622704 104.802922 
L 135.417595 104.802922 
L 138.212486 104.802922 
L 141.007378 104.802922 
L 143.802269 104.802922 
L 146.59716 104.802922 
L 149.392051 104.802922 
L 152.186942 104.802922 
L 154.981833 104.802922 
L 157.776724 104.802922 
L 160.571615 104.802922 
L 163.366506 104.802922 
L 166.161397 104.802922 
L 168.956288 104.802922 
L 171.751179 104.802922 
L 174.54607 104.802922 
L 177.340961 104.802922 
L 180.135852 104.802922 
L 182.930743 104.802922 
L 185.725634 104.802922 
L 188.520526 104.802922 
L 191.315417 104.802922 
L 194.110308 104.802922 
L 196.905199 104.802922 
L 199.70009 104.802922 
L 202.494981 104.802922 
L 205.289872 104.802922 
L 208.084763 104.802922 
L 210.879654 104.802922 
L 213.674545 64.536255 
L 216.469436 64.536255 
L 219.264327 64.536255 
L 222.059218 64.536255 
L 224.854109 64.536255 
L 227.649 64.536255 
L 230.443891 64.536255 
L 233.238782 64.536255 
L 236.033674 64.536255 
L 238.828565 64.536255 
L 241.623456 104.802922 
L 244.418347 104.802922 
L 247.213238 104.802922 
L 250.008129 104.802922 
L 252.80302 104.802922 
L 255.597911 104.802922 
L 258.392802 104.802922 
L 261.187693 104.802922 
L 263.982584 104.802922 
L 266.777475 104.802922 
L 269.572366 104.802922 
L 272.367257 104.802922 
L 275.162148 104.802922 
L 277.957039 104.802922 
L 280.75193 104.802922 
L 283.546822 104.802922 
L 286.341713 104.802922 
L 289.136604 104.802922 
L 291.931495 104.802922 
L 294.726386 104.802922 
L 297.521277 104.802922 
L 300.316168 104.802922 
L 303.111059 104.802922 
L 305.90595 104.802922 
L 308.700841 104.802922 
L 311.495732 104.802922 
L 314.290623 104.802922 
L 317.085514 104.802922 
L 319.880405 104.802922 
" style="fill:none;stroke:#1f77b4;stroke-linecap:square;stroke-width:1.5;"/>
   </g>
   <g id="patch_3">
    <path d="M 29.35148 145.069588 
L 29.35148 24.269588 
" style="fill:none;stroke:#000000;stroke-linecap:square;stroke-linejoin:miter;stroke-width:0.5;"/>
   </g>
   <g id="patch_4">
    <path d="M 333.715116 145.069588 
L 333.715116 24.269588 
" style="fill:none;stroke:#000000;stroke-linecap:square;stroke-linejoin:miter;stroke-width:0.5;"/>
   </g>
   <g id="patch_5">
    <path d="M 29.35148 145.069588 
L 333.715116 145.069588 
" style="fill:none;stroke:#000000;stroke-linecap:square;stroke-linejoin:miter;stroke-width:0.5;"/>
   </g>
   <g id="patch_6">
    <path d="M 29.35148 24.269588 
L 333.715116 24.269588 
" style="fill:none;stroke:#000000;stroke-linecap:square;stroke-linejoin:miter;stroke-width:0.5;"/>
   </g>
   <g id="text_11">
    <!-- $x$ -->
    <g transform="translate(177.098573 18.269588)scale(0.16 -0.16)">
     <defs>
      <path d="M 3034 2606 
C 2829 2567 2752 2414 2752 2293 
C 2752 2139 2874 2088 2963 2088 
C 3155 2088 3290 2254 3290 2427 
C 3290 2695 2982 2816 2714 2816 
C 2323 2816 2106 2433 2048 2312 
C 1901 2816 1504 2816 1389 2816 
C 736 2816 390 1980 390 1839 
C 390 1814 416 1782 461 1782 
C 512 1782 525 1820 538 1846 
C 755 2555 1184 2689 1370 2689 
C 1658 2689 1715 2420 1715 2267 
C 1715 2127 1677 1980 1600 1673 
L 1382 798 
C 1286 415 1101 64 762 64 
C 730 64 570 64 435 147 
C 666 192 717 383 717 460 
C 717 588 621 664 499 664 
C 346 664 179 530 179 326 
C 179 57 480 -64 755 -64 
C 1062 -64 1280 179 1414 441 
C 1517 64 1837 -64 2074 -64 
C 2726 -64 3072 773 3072 913 
C 3072 945 3046 971 3008 971 
C 2950 971 2944 939 2925 888 
C 2752 326 2381 64 2093 64 
C 1869 64 1747 230 1747 492 
C 1747 632 1773 734 1875 1156 
L 2099 2024 
C 2195 2408 2413 2689 2707 2689 
C 2720 2689 2899 2689 3034 2606 
z
" id="CMMI12-78" transform="scale(0.015625)"/>
     </defs>
     <use transform="scale(0.996264)" xlink:href="#CMMI12-78"/>
    </g>
   </g>
  </g>
  <g id="axes_2">
   <g id="patch_7">
    <path d="M 394.587843 145.069588 
L 698.95148 145.069588 
L 698.95148 24.269588 
L 394.587843 24.269588 
z
" style="fill:#ffffff;"/>
   </g>
   <g id="matplotlib.axis_3">
    <g id="xtick_7">
     <g id="line2d_22">
      <path clip-path="url(#p4146e0caca)" d="M 434.042389 145.069588 
L 434.042389 24.269588 
" style="fill:none;stroke:#b0b0b0;stroke-linecap:square;stroke-width:0.5;"/>
     </g>
     <g id="line2d_23">
      <g>
       <use style="stroke:#000000;stroke-width:0.8;" x="434.042389" xlink:href="#m6f4c455af0" y="145.069588"/>
      </g>
     </g>
     <g id="text_12">
      <!-- $\mathdefault{0}$ -->
      <g transform="translate(431.115894 160.371768)scale(0.12 -0.12)">
       <use transform="scale(0.996264)" xlink:href="#CMR17-30"/>
      </g>
     </g>
    </g>
    <g id="xtick_8">
     <g id="line2d_24">
      <path clip-path="url(#p4146e0caca)" d="M 485.282058 145.069588 
L 485.282058 24.269588 
" style="fill:none;stroke:#b0b0b0;stroke-linecap:square;stroke-width:0.5;"/>
     </g>
     <g id="line2d_25">
      <g>
       <use style="stroke:#000000;stroke-width:0.8;" x="485.282058" xlink:href="#m6f4c455af0" y="145.069588"/>
      </g>
     </g>
     <g id="text_13">
      <!-- $\mathdefault{20}$ -->
      <g transform="translate(479.429068 160.371768)scale(0.12 -0.12)">
       <use transform="scale(0.996264)" xlink:href="#CMR17-32"/>
       <use transform="translate(45.690477 0)scale(0.996264)" xlink:href="#CMR17-30"/>
      </g>
     </g>
    </g>
    <g id="xtick_9">
     <g id="line2d_26">
      <path clip-path="url(#p4146e0caca)" d="M 536.521728 145.069588 
L 536.521728 24.269588 
" style="fill:none;stroke:#b0b0b0;stroke-linecap:square;stroke-width:0.5;"/>
     </g>
     <g id="line2d_27">
      <g>
       <use style="stroke:#000000;stroke-width:0.8;" x="536.521728" xlink:href="#m6f4c455af0" y="145.069588"/>
      </g>
     </g>
     <g id="text_14">
      <!-- $\mathdefault{40}$ -->
      <g transform="translate(530.668737 160.371768)scale(0.12 -0.12)">
       <use transform="scale(0.996264)" xlink:href="#CMR17-34"/>
       <use transform="translate(45.690477 0)scale(0.996264)" xlink:href="#CMR17-30"/>
      </g>
     </g>
    </g>
    <g id="xtick_10">
     <g id="line2d_28">
      <path clip-path="url(#p4146e0caca)" d="M 587.761397 145.069588 
L 587.761397 24.269588 
" style="fill:none;stroke:#b0b0b0;stroke-linecap:square;stroke-width:0.5;"/>
     </g>
     <g id="line2d_29">
      <g>
       <use style="stroke:#000000;stroke-width:0.8;" x="587.761397" xlink:href="#m6f4c455af0" y="145.069588"/>
      </g>
     </g>
     <g id="text_15">
      <!-- $\mathdefault{60}$ -->
      <g transform="translate(581.908407 160.371768)scale(0.12 -0.12)">
       <use transform="scale(0.996264)" xlink:href="#CMR17-36"/>
       <use transform="translate(45.690477 0)scale(0.996264)" xlink:href="#CMR17-30"/>
      </g>
     </g>
    </g>
    <g id="xtick_11">
     <g id="line2d_30">
      <path clip-path="url(#p4146e0caca)" d="M 639.001066 145.069588 
L 639.001066 24.269588 
" style="fill:none;stroke:#b0b0b0;stroke-linecap:square;stroke-width:0.5;"/>
     </g>
     <g id="line2d_31">
      <g>
       <use style="stroke:#000000;stroke-width:0.8;" x="639.001066" xlink:href="#m6f4c455af0" y="145.069588"/>
      </g>
     </g>
     <g id="text_16">
      <!-- $\mathdefault{80}$ -->
      <g transform="translate(633.148076 160.371768)scale(0.12 -0.12)">
       <use transform="scale(0.996264)" xlink:href="#CMR17-38"/>
       <use transform="translate(45.690477 0)scale(0.996264)" xlink:href="#CMR17-30"/>
      </g>
     </g>
    </g>
    <g id="xtick_12">
     <g id="line2d_32">
      <path clip-path="url(#p4146e0caca)" d="M 690.240736 145.069588 
L 690.240736 24.269588 
" style="fill:none;stroke:#b0b0b0;stroke-linecap:square;stroke-width:0.5;"/>
     </g>
     <g id="line2d_33">
      <g>
       <use style="stroke:#000000;stroke-width:0.8;" x="690.240736" xlink:href="#m6f4c455af0" y="145.069588"/>
      </g>
     </g>
     <g id="text_17">
      <!-- $\mathdefault{100}$ -->
      <g transform="translate(681.461251 160.371768)scale(0.12 -0.12)">
       <use transform="scale(0.996264)" xlink:href="#CMR17-31"/>
       <use transform="translate(45.690477 0)scale(0.996264)" xlink:href="#CMR17-30"/>
       <use transform="translate(91.380954 0)scale(0.996264)" xlink:href="#CMR17-30"/>
      </g>
     </g>
    </g>
   </g>
   <g id="matplotlib.axis_4">
    <g id="ytick_5">
     <g id="line2d_34">
      <path clip-path="url(#p4146e0caca)" d="M 394.587843 126.484973 
L 698.95148 126.484973 
" style="fill:none;stroke:#b0b0b0;stroke-linecap:square;stroke-width:0.5;"/>
     </g>
     <g id="line2d_35">
      <g>
       <use style="stroke:#000000;stroke-width:0.8;" x="394.587843" xlink:href="#m9ccc49daca" y="126.484973"/>
      </g>
     </g>
     <g id="text_18">
      <!-- $\mathdefault{0}$ -->
      <g transform="translate(381.734853 130.636063)scale(0.12 -0.12)">
       <use transform="scale(0.996264)" xlink:href="#CMR17-30"/>
      </g>
     </g>
    </g>
    <g id="ytick_6">
     <g id="line2d_36">
      <path clip-path="url(#p4146e0caca)" d="M 394.587843 80.023434 
L 698.95148 80.023434 
" style="fill:none;stroke:#b0b0b0;stroke-linecap:square;stroke-width:0.5;"/>
     </g>
     <g id="line2d_37">
      <g>
       <use style="stroke:#000000;stroke-width:0.8;" x="394.587843" xlink:href="#m9ccc49daca" y="80.023434"/>
      </g>
     </g>
     <g id="text_19">
      <!-- $\mathdefault{5}$ -->
      <g transform="translate(381.734853 84.174524)scale(0.12 -0.12)">
       <defs>
        <path d="M 730 3692 
C 794 3666 1056 3584 1325 3584 
C 1920 3584 2246 3911 2432 4100 
C 2432 4157 2432 4192 2394 4192 
C 2387 4192 2374 4192 2323 4163 
C 2099 4058 1837 3973 1517 3973 
C 1325 3973 1037 3999 723 4139 
C 653 4171 640 4171 634 4171 
C 602 4171 595 4164 595 4037 
L 595 2203 
C 595 2089 595 2057 659 2057 
C 691 2057 704 2070 736 2114 
C 941 2401 1222 2522 1542 2522 
C 1766 2522 2246 2382 2246 1289 
C 2246 1085 2246 715 2054 421 
C 1894 159 1645 25 1370 25 
C 947 25 518 320 403 814 
C 429 807 480 795 506 795 
C 589 795 749 840 749 1038 
C 749 1210 627 1280 506 1280 
C 358 1280 262 1190 262 1011 
C 262 454 704 -128 1382 -128 
C 2042 -128 2669 440 2669 1264 
C 2669 2030 2170 2624 1549 2624 
C 1222 2624 947 2503 730 2274 
L 730 3692 
z
" id="CMR17-35" transform="scale(0.015625)"/>
       </defs>
       <use transform="scale(0.996264)" xlink:href="#CMR17-35"/>
      </g>
     </g>
    </g>
    <g id="ytick_7">
     <g id="line2d_38">
      <path clip-path="url(#p4146e0caca)" d="M 394.587843 33.561896 
L 698.95148 33.561896 
" style="fill:none;stroke:#b0b0b0;stroke-linecap:square;stroke-width:0.5;"/>
     </g>
     <g id="line2d_39">
      <g>
       <use style="stroke:#000000;stroke-width:0.8;" x="394.587843" xlink:href="#m9ccc49daca" y="33.561896"/>
      </g>
     </g>
     <g id="text_20">
      <!-- $\mathdefault{10}$ -->
      <g transform="translate(375.881863 37.712986)scale(0.12 -0.12)">
       <use transform="scale(0.996264)" xlink:href="#CMR17-31"/>
       <use transform="translate(45.690477 0)scale(0.996264)" xlink:href="#CMR17-30"/>
      </g>
     </g>
    </g>
   </g>
   <g id="line2d_40">
    <path clip-path="url(#p4146e0caca)" d="M 408.422554 126.484973 
L 410.984538 126.484973 
L 413.546521 126.484973 
L 416.108504 126.484973 
L 418.670488 126.484973 
L 421.232471 126.484973 
L 423.794455 126.484973 
L 426.356438 126.484973 
L 428.918422 126.484973 
L 431.480405 126.484973 
L 434.042389 126.484973 
L 436.604372 126.484973 
L 439.166356 126.484973 
L 441.728339 126.484973 
L 444.290323 126.484973 
L 446.852306 126.484973 
L 449.41429 126.484973 
L 451.976273 126.484973 
L 454.538257 126.484973 
L 457.10024 126.484973 
L 459.662223 126.484973 
L 462.224207 126.484973 
L 464.78619 126.484973 
L 467.348174 126.484973 
L 469.910157 126.484973 
L 472.472141 126.484973 
L 475.034124 126.484973 
L 477.596108 126.484973 
L 480.158091 126.484973 
L 482.720075 126.484973 
L 485.282058 126.484973 
L 487.844042 126.484973 
L 490.406025 126.484973 
L 492.968009 126.484973 
L 495.529992 126.484973 
L 498.091976 126.484973 
L 500.653959 126.484973 
L 503.215942 126.484973 
L 505.777926 126.484973 
L 508.339909 126.484973 
L 510.901893 126.484973 
L 513.463876 126.484973 
L 516.02586 126.484973 
L 518.587843 126.484973 
L 521.149827 126.484973 
L 523.71181 126.484973 
L 526.273794 126.484973 
L 528.835777 126.484973 
L 531.397761 126.484973 
L 533.959744 126.484973 
L 536.521728 126.484973 
L 539.083711 126.484973 
L 541.645695 126.484973 
L 544.207678 126.484973 
L 546.769661 126.484973 
L 549.331645 126.484973 
L 551.893628 126.484973 
L 554.455612 126.484973 
L 557.017595 126.484973 
L 559.579579 126.484973 
L 562.141562 126.484973 
L 564.703546 117.192665 
L 567.265529 107.900358 
L 569.827513 98.60805 
L 572.389496 89.315742 
L 574.95148 80.023434 
L 577.513463 70.731127 
L 580.075447 61.438819 
L 582.63743 52.146511 
L 585.199414 42.854204 
L 587.761397 33.561896 
L 590.323381 42.854204 
L 592.885364 52.146511 
L 595.447347 61.438819 
L 598.009331 70.731127 
L 600.571314 80.023434 
L 603.133298 89.315742 
L 605.695281 98.60805 
L 608.257265 107.900358 
L 610.819248 117.192665 
L 613.381232 126.484973 
L 615.943215 126.484973 
L 618.505199 126.484973 
L 621.067182 126.484973 
L 623.629166 126.484973 
L 626.191149 126.484973 
L 628.753133 126.484973 
L 631.315116 126.484973 
L 633.8771 126.484973 
L 636.439083 126.484973 
L 639.001066 126.484973 
L 641.56305 126.484973 
L 644.125033 126.484973 
L 646.687017 126.484973 
L 649.249 126.484973 
L 651.810984 126.484973 
L 654.372967 126.484973 
L 656.934951 126.484973 
L 659.496934 126.484973 
L 662.058918 126.484973 
L 664.620901 126.484973 
L 667.182885 126.484973 
L 669.744868 126.484973 
L 672.306852 126.484973 
L 674.868835 126.484973 
L 677.430819 126.484973 
L 679.992802 126.484973 
L 682.554785 126.484973 
L 685.116769 126.484973 
" style="fill:none;stroke:#1f77b4;stroke-linecap:square;stroke-width:1.5;"/>
   </g>
   <g id="patch_8">
    <path d="M 394.587843 145.069588 
L 394.587843 24.269588 
" style="fill:none;stroke:#000000;stroke-linecap:square;stroke-linejoin:miter;stroke-width:0.5;"/>
   </g>
   <g id="patch_9">
    <path d="M 698.95148 145.069588 
L 698.95148 24.269588 
" style="fill:none;stroke:#000000;stroke-linecap:square;stroke-linejoin:miter;stroke-width:0.5;"/>
   </g>
   <g id="patch_10">
    <path d="M 394.587843 145.069588 
L 698.95148 145.069588 
" style="fill:none;stroke:#000000;stroke-linecap:square;stroke-linejoin:miter;stroke-width:0.5;"/>
   </g>
   <g id="patch_11">
    <path d="M 394.587843 24.269588 
L 698.95148 24.269588 
" style="fill:none;stroke:#000000;stroke-linecap:square;stroke-linejoin:miter;stroke-width:0.5;"/>
   </g>
   <g id="text_21">
    <!-- $R_{x}$ -->
    <g transform="translate(537.641014 18.269588)scale(0.16 -0.16)">
     <defs>
      <path d="M 2355 3924 
C 2413 4160 2438 4160 2688 4160 
L 3149 4160 
C 3699 4160 4109 3995 4109 3499 
C 4109 3175 3942 2240 2656 2240 
L 1933 2240 
L 2355 3924 
z
M 3245 2169 
C 4038 2341 4659 2851 4659 3398 
C 4659 3894 4154 4352 3264 4352 
L 1530 4352 
C 1402 4352 1344 4352 1344 4226 
C 1344 4160 1389 4160 1510 4160 
C 1894 4160 1894 4112 1894 4045 
C 1894 4033 1894 3994 1869 3899 
L 1005 479 
C 947 256 934 192 493 192 
C 346 192 301 192 301 71 
C 301 7 371 7 390 7 
C 506 7 640 7 762 7 
L 1517 7 
C 1632 7 1766 7 1882 7 
C 1933 7 2003 7 2003 128 
C 2003 192 1946 192 1850 192 
C 1459 192 1459 243 1459 306 
C 1459 313 1459 357 1472 407 
L 1901 2112 
L 2669 2112 
C 3277 2112 3392 1731 3392 1522 
C 3392 1427 3328 1179 3283 1014 
C 3213 723 3194 652 3194 532 
C 3194 82 3565 -128 3994 -128 
C 4512 -128 4736 501 4736 591 
C 4736 635 4704 654 4666 654 
C 4614 654 4602 616 4589 565 
C 4435 114 4173 0 4013 0 
C 3853 0 3750 70 3750 356 
C 3750 509 3827 1088 3834 1120 
C 3866 1355 3866 1380 3866 1432 
C 3866 1896 3488 2093 3245 2169 
z
" id="CMMI12-52" transform="scale(0.015625)"/>
     </defs>
     <use transform="scale(0.996264)" xlink:href="#CMMI12-52"/>
     <use transform="translate(74.250826 -14.943915)scale(0.697382)" xlink:href="#CMMI12-78"/>
    </g>
   </g>
  </g>
  <g id="axes_3">
   <g id="patch_12">
    <path d="M 29.35148 302.109588 
L 333.715116 302.109588 
L 333.715116 181.309588 
L 29.35148 181.309588 
z
" style="fill:#ffffff;"/>
   </g>
   <g id="matplotlib.axis_5">
    <g id="xtick_13">
     <g id="line2d_41">
      <path clip-path="url(#p19f4f03b50)" d="M 43.18619 302.109588 
L 43.18619 181.309588 
" style="fill:none;stroke:#b0b0b0;stroke-linecap:square;stroke-width:0.5;"/>
     </g>
     <g id="line2d_42">
      <g>
       <use style="stroke:#000000;stroke-width:0.8;" x="43.18619" xlink:href="#m6f4c455af0" y="302.109588"/>
      </g>
     </g>
     <g id="text_22">
      <!-- $\mathdefault{0}$ -->
      <g transform="translate(40.259695 317.411768)scale(0.12 -0.12)">
       <use transform="scale(0.996264)" xlink:href="#CMR17-30"/>
      </g>
     </g>
    </g>
    <g id="xtick_14">
     <g id="line2d_43">
      <path clip-path="url(#p19f4f03b50)" d="M 99.084012 302.109588 
L 99.084012 181.309588 
" style="fill:none;stroke:#b0b0b0;stroke-linecap:square;stroke-width:0.5;"/>
     </g>
     <g id="line2d_44">
      <g>
       <use style="stroke:#000000;stroke-width:0.8;" x="99.084012" xlink:href="#m6f4c455af0" y="302.109588"/>
      </g>
     </g>
     <g id="text_23">
      <!-- $\mathdefault{20}$ -->
      <g transform="translate(93.231021 317.411768)scale(0.12 -0.12)">
       <use transform="scale(0.996264)" xlink:href="#CMR17-32"/>
       <use transform="translate(45.690477 0)scale(0.996264)" xlink:href="#CMR17-30"/>
      </g>
     </g>
    </g>
    <g id="xtick_15">
     <g id="line2d_45">
      <path clip-path="url(#p19f4f03b50)" d="M 154.981833 302.109588 
L 154.981833 181.309588 
" style="fill:none;stroke:#b0b0b0;stroke-linecap:square;stroke-width:0.5;"/>
     </g>
     <g id="line2d_46">
      <g>
       <use style="stroke:#000000;stroke-width:0.8;" x="154.981833" xlink:href="#m6f4c455af0" y="302.109588"/>
      </g>
     </g>
     <g id="text_24">
      <!-- $\mathdefault{40}$ -->
      <g transform="translate(149.128843 317.411768)scale(0.12 -0.12)">
       <use transform="scale(0.996264)" xlink:href="#CMR17-34"/>
       <use transform="translate(45.690477 0)scale(0.996264)" xlink:href="#CMR17-30"/>
      </g>
     </g>
    </g>
    <g id="xtick_16">
     <g id="line2d_47">
      <path clip-path="url(#p19f4f03b50)" d="M 210.879654 302.109588 
L 210.879654 181.309588 
" style="fill:none;stroke:#b0b0b0;stroke-linecap:square;stroke-width:0.5;"/>
     </g>
     <g id="line2d_48">
      <g>
       <use style="stroke:#000000;stroke-width:0.8;" x="210.879654" xlink:href="#m6f4c455af0" y="302.109588"/>
      </g>
     </g>
     <g id="text_25">
      <!-- $\mathdefault{60}$ -->
      <g transform="translate(205.026664 317.411768)scale(0.12 -0.12)">
       <use transform="scale(0.996264)" xlink:href="#CMR17-36"/>
       <use transform="translate(45.690477 0)scale(0.996264)" xlink:href="#CMR17-30"/>
      </g>
     </g>
    </g>
    <g id="xtick_17">
     <g id="line2d_49">
      <path clip-path="url(#p19f4f03b50)" d="M 266.777475 302.109588 
L 266.777475 181.309588 
" style="fill:none;stroke:#b0b0b0;stroke-linecap:square;stroke-width:0.5;"/>
     </g>
     <g id="line2d_50">
      <g>
       <use style="stroke:#000000;stroke-width:0.8;" x="266.777475" xlink:href="#m6f4c455af0" y="302.109588"/>
      </g>
     </g>
     <g id="text_26">
      <!-- $\mathdefault{80}$ -->
      <g transform="translate(260.924485 317.411768)scale(0.12 -0.12)">
       <use transform="scale(0.996264)" xlink:href="#CMR17-38"/>
       <use transform="translate(45.690477 0)scale(0.996264)" xlink:href="#CMR17-30"/>
      </g>
     </g>
    </g>
    <g id="xtick_18">
     <g id="line2d_51">
      <path clip-path="url(#p19f4f03b50)" d="M 322.675296 302.109588 
L 322.675296 181.309588 
" style="fill:none;stroke:#b0b0b0;stroke-linecap:square;stroke-width:0.5;"/>
     </g>
     <g id="line2d_52">
      <g>
       <use style="stroke:#000000;stroke-width:0.8;" x="322.675296" xlink:href="#m6f4c455af0" y="302.109588"/>
      </g>
     </g>
     <g id="text_27">
      <!-- $\mathdefault{100}$ -->
      <g transform="translate(313.895811 317.411768)scale(0.12 -0.12)">
       <use transform="scale(0.996264)" xlink:href="#CMR17-31"/>
       <use transform="translate(45.690477 0)scale(0.996264)" xlink:href="#CMR17-30"/>
       <use transform="translate(91.380954 0)scale(0.996264)" xlink:href="#CMR17-30"/>
      </g>
     </g>
    </g>
   </g>
   <g id="matplotlib.axis_6">
    <g id="ytick_8">
     <g id="line2d_53">
      <path clip-path="url(#p19f4f03b50)" d="M 29.35148 302.109588 
L 333.715116 302.109588 
" style="fill:none;stroke:#b0b0b0;stroke-linecap:square;stroke-width:0.5;"/>
     </g>
     <g id="line2d_54">
      <g>
       <use style="stroke:#000000;stroke-width:0.8;" x="29.35148" xlink:href="#m9ccc49daca" y="302.109588"/>
      </g>
     </g>
     <g id="text_28">
      <!-- $\mathdefault{−1}$ -->
      <g transform="translate(7.2 306.260678)scale(0.12 -0.12)">
       <use transform="scale(0.996264)" xlink:href="#CMSY10-0"/>
       <use transform="translate(77.487468 0)scale(0.996264)" xlink:href="#CMR17-31"/>
      </g>
     </g>
    </g>
    <g id="ytick_9">
     <g id="line2d_55">
      <path clip-path="url(#p19f4f03b50)" d="M 29.35148 261.842922 
L 333.715116 261.842922 
" style="fill:none;stroke:#b0b0b0;stroke-linecap:square;stroke-width:0.5;"/>
     </g>
     <g id="line2d_56">
      <g>
       <use style="stroke:#000000;stroke-width:0.8;" x="29.35148" xlink:href="#m9ccc49daca" y="261.842922"/>
      </g>
     </g>
     <g id="text_29">
      <!-- $\mathdefault{0}$ -->
      <g transform="translate(16.498489 265.994012)scale(0.12 -0.12)">
       <use transform="scale(0.996264)" xlink:href="#CMR17-30"/>
      </g>
     </g>
    </g>
    <g id="ytick_10">
     <g id="line2d_57">
      <path clip-path="url(#p19f4f03b50)" d="M 29.35148 221.576255 
L 333.715116 221.576255 
" style="fill:none;stroke:#b0b0b0;stroke-linecap:square;stroke-width:0.5;"/>
     </g>
     <g id="line2d_58">
      <g>
       <use style="stroke:#000000;stroke-width:0.8;" x="29.35148" xlink:href="#m9ccc49daca" y="221.576255"/>
      </g>
     </g>
     <g id="text_30">
      <!-- $\mathdefault{1}$ -->
      <g transform="translate(16.498489 225.727345)scale(0.12 -0.12)">
       <use transform="scale(0.996264)" xlink:href="#CMR17-31"/>
      </g>
     </g>
    </g>
    <g id="ytick_11">
     <g id="line2d_59">
      <path clip-path="url(#p19f4f03b50)" d="M 29.35148 181.309588 
L 333.715116 181.309588 
" style="fill:none;stroke:#b0b0b0;stroke-linecap:square;stroke-width:0.5;"/>
     </g>
     <g id="line2d_60">
      <g>
       <use style="stroke:#000000;stroke-width:0.8;" x="29.35148" xlink:href="#m9ccc49daca" y="181.309588"/>
      </g>
     </g>
     <g id="text_31">
      <!-- $\mathdefault{2}$ -->
      <g transform="translate(16.498489 185.460678)scale(0.12 -0.12)">
       <use transform="scale(0.996264)" xlink:href="#CMR17-32"/>
      </g>
     </g>
    </g>
   </g>
   <g id="line2d_61">
    <path clip-path="url(#p19f4f03b50)" d="M 43.18619 264.990677 
L 45.981081 226.035924 
L 48.775973 268.650053 
L 51.570864 263.822361 
L 54.365755 239.293591 
L 57.160646 254.787058 
L 59.955537 247.679115 
L 62.750428 250.160968 
L 65.545319 249.603714 
L 68.34021 244.831443 
L 71.135101 263.583469 
L 73.929992 254.936435 
L 76.724883 260.274566 
L 79.519774 273.697743 
L 82.314665 257.302987 
L 85.109556 266.933045 
L 87.904447 259.189307 
L 90.699338 243.942287 
L 93.494229 272.078749 
L 96.289121 262.884862 
L 99.084012 257.818722 
L 101.878903 274.635834 
L 104.673794 250.860263 
L 107.468685 259.57185 
L 110.263576 279.571605 
L 113.058467 253.351537 
L 115.853358 237.571131 
L 118.648249 237.010864 
L 121.44314 248.868658 
L 124.238031 244.423691 
L 127.032922 273.715046 
L 129.827813 264.012025 
L 132.622704 256.765708 
L 135.417595 240.576706 
L 138.212486 256.016604 
L 141.007378 258.174392 
L 143.802269 268.04113 
L 146.59716 257.018354 
L 149.392051 258.200909 
L 152.186942 261.109275 
L 154.981833 247.663705 
L 157.776724 227.749419 
L 160.571615 233.900077 
L 163.366506 262.669786 
L 166.161397 275.112811 
L 168.956288 248.323428 
L 171.751179 263.967794 
L 174.54607 268.503778 
L 177.340961 234.679267 
L 180.135852 237.883309 
L 182.930743 265.56574 
L 185.725634 244.559737 
L 188.520526 250.5073 
L 191.315417 258.095682 
L 194.110308 275.14991 
L 196.905199 242.749307 
L 199.70009 276.825081 
L 202.494981 266.712069 
L 205.289872 277.94636 
L 208.084763 240.803706 
L 210.879654 255.806502 
L 213.674545 263.978694 
L 216.469436 253.845959 
L 219.264327 259.312189 
L 222.059218 273.917456 
L 224.854109 263.029368 
L 227.649 257.910796 
L 230.443891 266.682613 
L 233.238782 270.986609 
L 236.033674 264.680343 
L 238.828565 278.608499 
L 241.623456 246.371316 
L 244.418347 232.424133 
L 247.213238 267.817846 
L 250.008129 284.892327 
L 252.80302 271.436207 
L 255.597911 248.351233 
L 258.392802 253.346779 
L 261.187693 261.127677 
L 263.982584 250.258322 
L 266.777475 250.914113 
L 269.572366 267.052455 
L 272.367257 246.585314 
L 275.162148 254.344417 
L 277.957039 272.334098 
L 280.75193 255.338394 
L 283.546822 231.563555 
L 286.341713 255.474228 
L 289.136604 249.256037 
L 291.931495 266.770348 
L 294.726386 265.190741 
L 297.521277 261.820544 
L 300.316168 265.463916 
L 303.111059 243.935208 
L 305.90595 262.327452 
L 308.700841 251.460194 
L 311.495732 266.724865 
L 314.290623 270.9427 
L 317.085514 249.980917 
L 319.880405 259.012136 
" style="fill:none;stroke:#1f77b4;stroke-linecap:square;stroke-width:1.5;"/>
   </g>
   <g id="patch_13">
    <path d="M 29.35148 302.109588 
L 29.35148 181.309588 
" style="fill:none;stroke:#000000;stroke-linecap:square;stroke-linejoin:miter;stroke-width:0.5;"/>
   </g>
   <g id="patch_14">
    <path d="M 333.715116 302.109588 
L 333.715116 181.309588 
" style="fill:none;stroke:#000000;stroke-linecap:square;stroke-linejoin:miter;stroke-width:0.5;"/>
   </g>
   <g id="patch_15">
    <path d="M 29.35148 302.109588 
L 333.715116 302.109588 
" style="fill:none;stroke:#000000;stroke-linecap:square;stroke-linejoin:miter;stroke-width:0.5;"/>
   </g>
   <g id="patch_16">
    <path d="M 29.35148 181.309588 
L 333.715116 181.309588 
" style="fill:none;stroke:#000000;stroke-linecap:square;stroke-linejoin:miter;stroke-width:0.5;"/>
   </g>
   <g id="text_32">
    <!-- $b$ -->
    <g transform="translate(178.215228 175.309588)scale(0.16 -0.16)">
     <defs>
      <path d="M 1478 4257 
C 1485 4283 1498 4321 1498 4352 
C 1498 4416 1434 4416 1421 4416 
C 1414 4416 1184 4393 1069 4377 
C 960 4377 864 4358 749 4358 
C 595 4345 550 4339 550 4224 
C 550 4160 614 4160 678 4160 
C 1005 4160 1005 4103 1005 4040 
C 1005 3996 954 3811 928 3696 
L 774 3085 
C 710 2831 346 1387 320 1272 
C 288 1114 288 1005 288 922 
C 288 274 653 -64 1069 -64 
C 1811 -64 2579 888 2579 1814 
C 2579 2401 2246 2816 1766 2816 
C 1434 2816 1133 2542 1011 2414 
L 1478 4257 
z
M 1075 64 
C 870 64 646 217 646 715 
C 646 926 666 1047 781 1494 
C 800 1577 902 1986 928 2069 
C 941 2120 1318 2689 1754 2689 
C 2035 2689 2163 2408 2163 2076 
C 2163 1769 1984 1047 1824 715 
C 1664 370 1370 64 1075 64 
z
" id="CMMI12-62" transform="scale(0.015625)"/>
     </defs>
     <use transform="scale(0.996264)" xlink:href="#CMMI12-62"/>
    </g>
   </g>
  </g>
  <g id="axes_4">
   <g id="patch_17">
    <path d="M 394.587843 302.109588 
L 698.95148 302.109588 
L 698.95148 181.309588 
L 394.587843 181.309588 
z
" style="fill:#ffffff;"/>
   </g>
   <g id="matplotlib.axis_7">
    <g id="xtick_19">
     <g id="line2d_62">
      <path clip-path="url(#p24c033a9e1)" d="M 434.042389 302.109588 
L 434.042389 181.309588 
" style="fill:none;stroke:#b0b0b0;stroke-linecap:square;stroke-width:0.5;"/>
     </g>
     <g id="line2d_63">
      <g>
       <use style="stroke:#000000;stroke-width:0.8;" x="434.042389" xlink:href="#m6f4c455af0" y="302.109588"/>
      </g>
     </g>
     <g id="text_33">
      <!-- $\mathdefault{0}$ -->
      <g transform="translate(431.115894 317.411768)scale(0.12 -0.12)">
       <use transform="scale(0.996264)" xlink:href="#CMR17-30"/>
      </g>
     </g>
    </g>
    <g id="xtick_20">
     <g id="line2d_64">
      <path clip-path="url(#p24c033a9e1)" d="M 485.282058 302.109588 
L 485.282058 181.309588 
" style="fill:none;stroke:#b0b0b0;stroke-linecap:square;stroke-width:0.5;"/>
     </g>
     <g id="line2d_65">
      <g>
       <use style="stroke:#000000;stroke-width:0.8;" x="485.282058" xlink:href="#m6f4c455af0" y="302.109588"/>
      </g>
     </g>
     <g id="text_34">
      <!-- $\mathdefault{20}$ -->
      <g transform="translate(479.429068 317.411768)scale(0.12 -0.12)">
       <use transform="scale(0.996264)" xlink:href="#CMR17-32"/>
       <use transform="translate(45.690477 0)scale(0.996264)" xlink:href="#CMR17-30"/>
      </g>
     </g>
    </g>
    <g id="xtick_21">
     <g id="line2d_66">
      <path clip-path="url(#p24c033a9e1)" d="M 536.521728 302.109588 
L 536.521728 181.309588 
" style="fill:none;stroke:#b0b0b0;stroke-linecap:square;stroke-width:0.5;"/>
     </g>
     <g id="line2d_67">
      <g>
       <use style="stroke:#000000;stroke-width:0.8;" x="536.521728" xlink:href="#m6f4c455af0" y="302.109588"/>
      </g>
     </g>
     <g id="text_35">
      <!-- $\mathdefault{40}$ -->
      <g transform="translate(530.668737 317.411768)scale(0.12 -0.12)">
       <use transform="scale(0.996264)" xlink:href="#CMR17-34"/>
       <use transform="translate(45.690477 0)scale(0.996264)" xlink:href="#CMR17-30"/>
      </g>
     </g>
    </g>
    <g id="xtick_22">
     <g id="line2d_68">
      <path clip-path="url(#p24c033a9e1)" d="M 587.761397 302.109588 
L 587.761397 181.309588 
" style="fill:none;stroke:#b0b0b0;stroke-linecap:square;stroke-width:0.5;"/>
     </g>
     <g id="line2d_69">
      <g>
       <use style="stroke:#000000;stroke-width:0.8;" x="587.761397" xlink:href="#m6f4c455af0" y="302.109588"/>
      </g>
     </g>
     <g id="text_36">
      <!-- $\mathdefault{60}$ -->
      <g transform="translate(581.908407 317.411768)scale(0.12 -0.12)">
       <use transform="scale(0.996264)" xlink:href="#CMR17-36"/>
       <use transform="translate(45.690477 0)scale(0.996264)" xlink:href="#CMR17-30"/>
      </g>
     </g>
    </g>
    <g id="xtick_23">
     <g id="line2d_70">
      <path clip-path="url(#p24c033a9e1)" d="M 639.001066 302.109588 
L 639.001066 181.309588 
" style="fill:none;stroke:#b0b0b0;stroke-linecap:square;stroke-width:0.5;"/>
     </g>
     <g id="line2d_71">
      <g>
       <use style="stroke:#000000;stroke-width:0.8;" x="639.001066" xlink:href="#m6f4c455af0" y="302.109588"/>
      </g>
     </g>
     <g id="text_37">
      <!-- $\mathdefault{80}$ -->
      <g transform="translate(633.148076 317.411768)scale(0.12 -0.12)">
       <use transform="scale(0.996264)" xlink:href="#CMR17-38"/>
       <use transform="translate(45.690477 0)scale(0.996264)" xlink:href="#CMR17-30"/>
      </g>
     </g>
    </g>
    <g id="xtick_24">
     <g id="line2d_72">
      <path clip-path="url(#p24c033a9e1)" d="M 690.240736 302.109588 
L 690.240736 181.309588 
" style="fill:none;stroke:#b0b0b0;stroke-linecap:square;stroke-width:0.5;"/>
     </g>
     <g id="line2d_73">
      <g>
       <use style="stroke:#000000;stroke-width:0.8;" x="690.240736" xlink:href="#m6f4c455af0" y="302.109588"/>
      </g>
     </g>
     <g id="text_38">
      <!-- $\mathdefault{100}$ -->
      <g transform="translate(681.461251 317.411768)scale(0.12 -0.12)">
       <use transform="scale(0.996264)" xlink:href="#CMR17-31"/>
       <use transform="translate(45.690477 0)scale(0.996264)" xlink:href="#CMR17-30"/>
       <use transform="translate(91.380954 0)scale(0.996264)" xlink:href="#CMR17-30"/>
      </g>
     </g>
    </g>
   </g>
   <g id="matplotlib.axis_8">
    <g id="ytick_12">
     <g id="line2d_74">
      <path clip-path="url(#p24c033a9e1)" d="M 394.587843 283.524973 
L 698.95148 283.524973 
" style="fill:none;stroke:#b0b0b0;stroke-linecap:square;stroke-width:0.5;"/>
     </g>
     <g id="line2d_75">
      <g>
       <use style="stroke:#000000;stroke-width:0.8;" x="394.587843" xlink:href="#m9ccc49daca" y="283.524973"/>
      </g>
     </g>
     <g id="text_39">
      <!-- $\mathdefault{0}$ -->
      <g transform="translate(381.734853 287.676063)scale(0.12 -0.12)">
       <use transform="scale(0.996264)" xlink:href="#CMR17-30"/>
      </g>
     </g>
    </g>
    <g id="ytick_13">
     <g id="line2d_76">
      <path clip-path="url(#p24c033a9e1)" d="M 394.587843 237.063434 
L 698.95148 237.063434 
" style="fill:none;stroke:#b0b0b0;stroke-linecap:square;stroke-width:0.5;"/>
     </g>
     <g id="line2d_77">
      <g>
       <use style="stroke:#000000;stroke-width:0.8;" x="394.587843" xlink:href="#m9ccc49daca" y="237.063434"/>
      </g>
     </g>
     <g id="text_40">
      <!-- $\mathdefault{5}$ -->
      <g transform="translate(381.734853 241.214524)scale(0.12 -0.12)">
       <use transform="scale(0.996264)" xlink:href="#CMR17-35"/>
      </g>
     </g>
    </g>
    <g id="ytick_14">
     <g id="line2d_78">
      <path clip-path="url(#p24c033a9e1)" d="M 394.587843 190.601896 
L 698.95148 190.601896 
" style="fill:none;stroke:#b0b0b0;stroke-linecap:square;stroke-width:0.5;"/>
     </g>
     <g id="line2d_79">
      <g>
       <use style="stroke:#000000;stroke-width:0.8;" x="394.587843" xlink:href="#m9ccc49daca" y="190.601896"/>
      </g>
     </g>
     <g id="text_41">
      <!-- $\mathdefault{10}$ -->
      <g transform="translate(375.881863 194.752986)scale(0.12 -0.12)">
       <use transform="scale(0.996264)" xlink:href="#CMR17-31"/>
       <use transform="translate(45.690477 0)scale(0.996264)" xlink:href="#CMR17-30"/>
      </g>
     </g>
    </g>
   </g>
   <g id="line2d_80">
    <path clip-path="url(#p24c033a9e1)" d="M 408.422554 284.251378 
L 410.984538 275.988225 
L 413.546521 277.559101 
L 416.108504 278.015895 
L 418.670488 272.812203 
L 421.232471 271.183927 
L 423.794455 267.915356 
L 426.356438 265.219521 
L 428.918422 262.395088 
L 431.480405 258.469362 
L 434.042389 258.144622 
L 436.604372 264.813971 
L 439.166356 262.881166 
L 441.728339 265.1601 
L 444.290323 269.316115 
L 446.852306 272.119035 
L 449.41429 274.775233 
L 451.976273 273.340153 
L 454.538257 278.526699 
L 457.10024 282.692873 
L 459.662223 281.362546 
L 462.224207 285.908562 
L 464.78619 283.73603 
L 467.348174 280.476209 
L 469.910157 285.615121 
L 472.472141 282.480927 
L 475.034124 277.492117 
L 477.596108 275.892558 
L 480.158091 270.536383 
L 482.720075 266.276113 
L 485.282058 269.944495 
L 487.844042 267.492847 
L 490.406025 268.855642 
L 492.968009 264.472147 
L 495.529992 259.036378 
L 498.091976 260.149344 
L 500.653959 267.180883 
L 503.215942 271.797996 
L 505.777926 273.951592 
L 508.339909 277.802111 
L 510.901893 271.790263 
L 513.463876 263.42197 
L 516.02586 258.145285 
L 518.587843 263.243688 
L 521.149827 267.650506 
L 523.71181 265.377206 
L 526.273794 264.437206 
L 528.835777 267.087688 
L 531.397761 261.659617 
L 533.959744 256.299779 
L 536.521728 260.431017 
L 539.083711 264.310322 
L 541.645695 268.142758 
L 544.207678 267.087195 
L 546.769661 267.095756 
L 549.331645 265.809421 
L 551.893628 268.776487 
L 554.455612 268.363016 
L 557.017595 278.347729 
L 559.579579 279.021667 
L 562.141562 276.769536 
L 564.703546 281.250834 
L 567.265529 282.021293 
L 569.827513 282.302026 
L 572.389496 282.017613 
L 574.95148 286.697628 
L 577.513463 282.332793 
L 580.075447 282.325995 
L 582.63743 280.719899 
L 585.199414 286.229892 
L 587.761397 291.491891 
L 590.323381 287.42865 
L 592.885364 282.485151 
L 595.447347 284.447995 
L 598.009331 286.980658 
L 600.571314 288.920697 
L 603.133298 286.714644 
L 605.695281 283.637144 
L 608.257265 281.362006 
L 610.819248 278.033847 
L 613.381232 271.642835 
L 615.943215 276.415406 
L 618.505199 279.68337 
L 621.067182 276.574118 
L 623.629166 273.676065 
L 626.191149 269.961185 
L 628.753133 266.087105 
L 631.315116 266.578055 
L 633.8771 263.838446 
L 636.439083 267.648914 
L 639.001066 270.94352 
L 641.56305 269.736156 
L 644.125033 274.092757 
L 646.687017 271.690632 
L 649.249 269.381405 
L 651.810984 268.486436 
L 654.372967 276.600585 
L 656.934951 280.170232 
L 659.496934 280.337512 
L 662.058918 278.547155 
L 664.620901 277.774581 
L 667.182885 277.779746 
L 669.744868 276.944131 
L 672.306852 281.076681 
L 674.868835 280.964866 
L 677.430819 283.36088 
L 679.992802 282.234278 
L 682.554785 280.134329 
L 685.116769 282.871715 
" style="fill:none;stroke:#1f77b4;stroke-linecap:square;stroke-width:1.5;"/>
   </g>
   <g id="patch_18">
    <path d="M 394.587843 302.109588 
L 394.587843 181.309588 
" style="fill:none;stroke:#000000;stroke-linecap:square;stroke-linejoin:miter;stroke-width:0.5;"/>
   </g>
   <g id="patch_19">
    <path d="M 698.95148 302.109588 
L 698.95148 181.309588 
" style="fill:none;stroke:#000000;stroke-linecap:square;stroke-linejoin:miter;stroke-width:0.5;"/>
   </g>
   <g id="patch_20">
    <path d="M 394.587843 302.109588 
L 698.95148 302.109588 
" style="fill:none;stroke:#000000;stroke-linecap:square;stroke-linejoin:miter;stroke-width:0.5;"/>
   </g>
   <g id="patch_21">
    <path d="M 394.587843 181.309588 
L 698.95148 181.309588 
" style="fill:none;stroke:#000000;stroke-linecap:square;stroke-linejoin:miter;stroke-width:0.5;"/>
   </g>
   <g id="text_42">
    <!-- $R_{bx}$ -->
    <g transform="translate(535.246672 175.309588)scale(0.16 -0.16)">
     <use transform="scale(0.996264)" xlink:href="#CMMI12-52"/>
     <use transform="translate(74.250826 -14.943915)scale(0.697382)" xlink:href="#CMMI12-62"/>
     <use transform="translate(103.283813 -14.943915)scale(0.697382)" xlink:href="#CMMI12-78"/>
    </g>
   </g>
  </g>
  <g id="axes_5">
   <g id="patch_22">
    <path d="M 29.35148 459.149588 
L 333.715116 459.149588 
L 333.715116 338.349588 
L 29.35148 338.349588 
z
" style="fill:#ffffff;"/>
   </g>
   <g id="matplotlib.axis_9">
    <g id="xtick_25">
     <g id="line2d_81">
      <path clip-path="url(#p8a8ed0836f)" d="M 43.18619 459.149588 
L 43.18619 338.349588 
" style="fill:none;stroke:#b0b0b0;stroke-linecap:square;stroke-width:0.5;"/>
     </g>
     <g id="line2d_82">
      <g>
       <use style="stroke:#000000;stroke-width:0.8;" x="43.18619" xlink:href="#m6f4c455af0" y="459.149588"/>
      </g>
     </g>
     <g id="text_43">
      <!-- $\mathdefault{0}$ -->
      <g transform="translate(40.259695 474.451768)scale(0.12 -0.12)">
       <use transform="scale(0.996264)" xlink:href="#CMR17-30"/>
      </g>
     </g>
    </g>
    <g id="xtick_26">
     <g id="line2d_83">
      <path clip-path="url(#p8a8ed0836f)" d="M 99.084012 459.149588 
L 99.084012 338.349588 
" style="fill:none;stroke:#b0b0b0;stroke-linecap:square;stroke-width:0.5;"/>
     </g>
     <g id="line2d_84">
      <g>
       <use style="stroke:#000000;stroke-width:0.8;" x="99.084012" xlink:href="#m6f4c455af0" y="459.149588"/>
      </g>
     </g>
     <g id="text_44">
      <!-- $\mathdefault{20}$ -->
      <g transform="translate(93.231021 474.451768)scale(0.12 -0.12)">
       <use transform="scale(0.996264)" xlink:href="#CMR17-32"/>
       <use transform="translate(45.690477 0)scale(0.996264)" xlink:href="#CMR17-30"/>
      </g>
     </g>
    </g>
    <g id="xtick_27">
     <g id="line2d_85">
      <path clip-path="url(#p8a8ed0836f)" d="M 154.981833 459.149588 
L 154.981833 338.349588 
" style="fill:none;stroke:#b0b0b0;stroke-linecap:square;stroke-width:0.5;"/>
     </g>
     <g id="line2d_86">
      <g>
       <use style="stroke:#000000;stroke-width:0.8;" x="154.981833" xlink:href="#m6f4c455af0" y="459.149588"/>
      </g>
     </g>
     <g id="text_45">
      <!-- $\mathdefault{40}$ -->
      <g transform="translate(149.128843 474.451768)scale(0.12 -0.12)">
       <use transform="scale(0.996264)" xlink:href="#CMR17-34"/>
       <use transform="translate(45.690477 0)scale(0.996264)" xlink:href="#CMR17-30"/>
      </g>
     </g>
    </g>
    <g id="xtick_28">
     <g id="line2d_87">
      <path clip-path="url(#p8a8ed0836f)" d="M 210.879654 459.149588 
L 210.879654 338.349588 
" style="fill:none;stroke:#b0b0b0;stroke-linecap:square;stroke-width:0.5;"/>
     </g>
     <g id="line2d_88">
      <g>
       <use style="stroke:#000000;stroke-width:0.8;" x="210.879654" xlink:href="#m6f4c455af0" y="459.149588"/>
      </g>
     </g>
     <g id="text_46">
      <!-- $\mathdefault{60}$ -->
      <g transform="translate(205.026664 474.451768)scale(0.12 -0.12)">
       <use transform="scale(0.996264)" xlink:href="#CMR17-36"/>
       <use transform="translate(45.690477 0)scale(0.996264)" xlink:href="#CMR17-30"/>
      </g>
     </g>
    </g>
    <g id="xtick_29">
     <g id="line2d_89">
      <path clip-path="url(#p8a8ed0836f)" d="M 266.777475 459.149588 
L 266.777475 338.349588 
" style="fill:none;stroke:#b0b0b0;stroke-linecap:square;stroke-width:0.5;"/>
     </g>
     <g id="line2d_90">
      <g>
       <use style="stroke:#000000;stroke-width:0.8;" x="266.777475" xlink:href="#m6f4c455af0" y="459.149588"/>
      </g>
     </g>
     <g id="text_47">
      <!-- $\mathdefault{80}$ -->
      <g transform="translate(260.924485 474.451768)scale(0.12 -0.12)">
       <use transform="scale(0.996264)" xlink:href="#CMR17-38"/>
       <use transform="translate(45.690477 0)scale(0.996264)" xlink:href="#CMR17-30"/>
      </g>
     </g>
    </g>
    <g id="xtick_30">
     <g id="line2d_91">
      <path clip-path="url(#p8a8ed0836f)" d="M 322.675296 459.149588 
L 322.675296 338.349588 
" style="fill:none;stroke:#b0b0b0;stroke-linecap:square;stroke-width:0.5;"/>
     </g>
     <g id="line2d_92">
      <g>
       <use style="stroke:#000000;stroke-width:0.8;" x="322.675296" xlink:href="#m6f4c455af0" y="459.149588"/>
      </g>
     </g>
     <g id="text_48">
      <!-- $\mathdefault{100}$ -->
      <g transform="translate(313.895811 474.451768)scale(0.12 -0.12)">
       <use transform="scale(0.996264)" xlink:href="#CMR17-31"/>
       <use transform="translate(45.690477 0)scale(0.996264)" xlink:href="#CMR17-30"/>
       <use transform="translate(91.380954 0)scale(0.996264)" xlink:href="#CMR17-30"/>
      </g>
     </g>
    </g>
   </g>
   <g id="matplotlib.axis_10">
    <g id="ytick_15">
     <g id="line2d_93">
      <path clip-path="url(#p8a8ed0836f)" d="M 29.35148 459.149588 
L 333.715116 459.149588 
" style="fill:none;stroke:#b0b0b0;stroke-linecap:square;stroke-width:0.5;"/>
     </g>
     <g id="line2d_94">
      <g>
       <use style="stroke:#000000;stroke-width:0.8;" x="29.35148" xlink:href="#m9ccc49daca" y="459.149588"/>
      </g>
     </g>
     <g id="text_49">
      <!-- $\mathdefault{−1}$ -->
      <g transform="translate(7.2 463.300678)scale(0.12 -0.12)">
       <use transform="scale(0.996264)" xlink:href="#CMSY10-0"/>
       <use transform="translate(77.487468 0)scale(0.996264)" xlink:href="#CMR17-31"/>
      </g>
     </g>
    </g>
    <g id="ytick_16">
     <g id="line2d_95">
      <path clip-path="url(#p8a8ed0836f)" d="M 29.35148 418.882922 
L 333.715116 418.882922 
" style="fill:none;stroke:#b0b0b0;stroke-linecap:square;stroke-width:0.5;"/>
     </g>
     <g id="line2d_96">
      <g>
       <use style="stroke:#000000;stroke-width:0.8;" x="29.35148" xlink:href="#m9ccc49daca" y="418.882922"/>
      </g>
     </g>
     <g id="text_50">
      <!-- $\mathdefault{0}$ -->
      <g transform="translate(16.498489 423.034012)scale(0.12 -0.12)">
       <use transform="scale(0.996264)" xlink:href="#CMR17-30"/>
      </g>
     </g>
    </g>
    <g id="ytick_17">
     <g id="line2d_97">
      <path clip-path="url(#p8a8ed0836f)" d="M 29.35148 378.616255 
L 333.715116 378.616255 
" style="fill:none;stroke:#b0b0b0;stroke-linecap:square;stroke-width:0.5;"/>
     </g>
     <g id="line2d_98">
      <g>
       <use style="stroke:#000000;stroke-width:0.8;" x="29.35148" xlink:href="#m9ccc49daca" y="378.616255"/>
      </g>
     </g>
     <g id="text_51">
      <!-- $\mathdefault{1}$ -->
      <g transform="translate(16.498489 382.767345)scale(0.12 -0.12)">
       <use transform="scale(0.996264)" xlink:href="#CMR17-31"/>
      </g>
     </g>
    </g>
    <g id="ytick_18">
     <g id="line2d_99">
      <path clip-path="url(#p8a8ed0836f)" d="M 29.35148 338.349588 
L 333.715116 338.349588 
" style="fill:none;stroke:#b0b0b0;stroke-linecap:square;stroke-width:0.5;"/>
     </g>
     <g id="line2d_100">
      <g>
       <use style="stroke:#000000;stroke-width:0.8;" x="29.35148" xlink:href="#m9ccc49daca" y="338.349588"/>
      </g>
     </g>
     <g id="text_52">
      <!-- $\mathdefault{2}$ -->
      <g transform="translate(16.498489 342.500678)scale(0.12 -0.12)">
       <use transform="scale(0.996264)" xlink:href="#CMR17-32"/>
      </g>
     </g>
    </g>
   </g>
   <g id="line2d_101">
    <path clip-path="url(#p8a8ed0836f)" d="M 43.18619 422.030677 
L 45.981081 383.075924 
L 48.775973 425.690053 
L 51.570864 420.862361 
L 54.365755 396.333591 
L 57.160646 411.827058 
L 59.955537 404.719115 
L 62.750428 407.200968 
L 65.545319 406.643714 
L 68.34021 401.871443 
L 71.135101 420.623469 
L 73.929992 411.976435 
L 76.724883 417.314566 
L 79.519774 430.737743 
L 82.314665 414.342987 
L 85.109556 423.973045 
L 87.904447 416.229307 
L 90.699338 400.982287 
L 93.494229 429.118749 
L 96.289121 419.924862 
L 99.084012 414.858722 
L 101.878903 431.675834 
L 104.673794 407.900263 
L 107.468685 416.61185 
L 110.263576 436.611605 
L 113.058467 410.391537 
L 115.853358 394.611131 
L 118.648249 394.050864 
L 121.44314 405.908658 
L 124.238031 401.463691 
L 127.032922 430.755046 
L 129.827813 421.052025 
L 132.622704 413.805708 
L 135.417595 397.616706 
L 138.212486 413.056604 
L 141.007378 415.214392 
L 143.802269 425.08113 
L 146.59716 414.058354 
L 149.392051 415.240909 
L 152.186942 418.149275 
L 154.981833 404.703705 
L 157.776724 384.789419 
L 160.571615 390.940077 
L 163.366506 419.709786 
L 166.161397 432.152811 
L 168.956288 405.363428 
L 171.751179 421.007794 
L 174.54607 425.543778 
L 177.340961 391.719267 
L 180.135852 394.923309 
L 182.930743 422.60574 
L 185.725634 401.599737 
L 188.520526 407.5473 
L 191.315417 415.135682 
L 194.110308 432.18991 
L 196.905199 399.789307 
L 199.70009 433.865081 
L 202.494981 423.752069 
L 205.289872 434.98636 
L 208.084763 397.843706 
L 210.879654 412.846502 
L 213.674545 380.752028 
L 216.469436 370.619293 
L 219.264327 376.085522 
L 222.059218 390.690789 
L 224.854109 379.802702 
L 227.649 374.68413 
L 230.443891 383.455946 
L 233.238782 387.759943 
L 236.033674 381.453676 
L 238.828565 395.381832 
L 241.623456 403.411316 
L 244.418347 389.464133 
L 247.213238 424.857846 
L 250.008129 441.932327 
L 252.80302 428.476207 
L 255.597911 405.391233 
L 258.392802 410.386779 
L 261.187693 418.167677 
L 263.982584 407.298322 
L 266.777475 407.954113 
L 269.572366 424.092455 
L 272.367257 403.625314 
L 275.162148 411.384417 
L 277.957039 429.374098 
L 280.75193 412.378394 
L 283.546822 388.603555 
L 286.341713 412.514228 
L 289.136604 406.296037 
L 291.931495 423.810348 
L 294.726386 422.230741 
L 297.521277 418.860544 
L 300.316168 422.503916 
L 303.111059 400.975208 
L 305.90595 419.367452 
L 308.700841 408.500194 
L 311.495732 423.764865 
L 314.290623 427.9827 
L 317.085514 407.020917 
L 319.880405 416.052136 
" style="fill:none;stroke:#1f77b4;stroke-linecap:square;stroke-width:1.5;"/>
   </g>
   <g id="patch_23">
    <path d="M 29.35148 459.149588 
L 29.35148 338.349588 
" style="fill:none;stroke:#000000;stroke-linecap:square;stroke-linejoin:miter;stroke-width:0.5;"/>
   </g>
   <g id="patch_24">
    <path d="M 333.715116 459.149588 
L 333.715116 338.349588 
" style="fill:none;stroke:#000000;stroke-linecap:square;stroke-linejoin:miter;stroke-width:0.5;"/>
   </g>
   <g id="patch_25">
    <path d="M 29.35148 459.149588 
L 333.715116 459.149588 
" style="fill:none;stroke:#000000;stroke-linecap:square;stroke-linejoin:miter;stroke-width:0.5;"/>
   </g>
   <g id="patch_26">
    <path d="M 29.35148 338.349588 
L 333.715116 338.349588 
" style="fill:none;stroke:#000000;stroke-linecap:square;stroke-linejoin:miter;stroke-width:0.5;"/>
   </g>
   <g id="text_53">
    <!-- $y=x+b$ -->
    <g transform="translate(149.579782 332.349588)scale(0.16 -0.16)">
     <defs>
      <path d="M 1683 -700 
C 1510 -939 1261 -1152 947 -1152 
C 870 -1152 563 -1152 467 -889 
C 486 -895 518 -895 531 -895 
C 723 -895 851 -729 851 -582 
C 851 -435 730 -384 634 -384 
C 531 -384 307 -458 307 -759 
C 307 -1071 582 -1286 947 -1286 
C 1587 -1286 2234 -700 2413 6 
L 3040 2485 
C 3046 2517 3059 2556 3059 2594 
C 3059 2689 2982 2753 2886 2753 
C 2829 2753 2694 2727 2643 2535 
L 2170 658 
C 2138 543 2138 530 2086 460 
C 1958 281 1747 64 1440 64 
C 1082 64 1050 415 1050 588 
C 1050 952 1222 1443 1395 1903 
C 1466 2088 1504 2178 1504 2305 
C 1504 2574 1312 2816 998 2816 
C 410 2816 173 1890 173 1839 
C 173 1814 198 1782 243 1782 
C 301 1782 307 1807 333 1897 
C 486 2433 730 2689 979 2689 
C 1037 2689 1146 2689 1146 2478 
C 1146 2312 1075 2127 979 1884 
C 666 1047 666 837 666 683 
C 666 77 1101 -64 1421 -64 
C 1606 -64 1837 -6 2061 230 
L 2067 224 
C 1971 -147 1907 -392 1683 -700 
z
" id="CMMI12-79" transform="scale(0.015625)"/>
      <path d="M 4115 2017 
C 4211 2017 4307 2017 4307 2125 
C 4307 2240 4198 2240 4090 2240 
L 512 2240 
C 403 2240 294 2240 294 2125 
C 294 2017 390 2017 486 2017 
L 4115 2017 
z
M 4090 896 
C 4198 896 4307 896 4307 1011 
C 4307 1119 4211 1119 4115 1119 
L 486 1119 
C 390 1119 294 1119 294 1011 
C 294 896 403 896 512 896 
L 4090 896 
z
" id="CMR17-3d" transform="scale(0.015625)"/>
      <path d="M 2413 1472 
L 4109 1472 
C 4198 1472 4307 1472 4307 1580 
C 4307 1695 4205 1695 4109 1695 
L 2413 1695 
L 2413 3386 
C 2413 3475 2413 3584 2304 3584 
C 2189 3584 2189 3482 2189 3386 
L 2189 1695 
L 493 1695 
C 403 1695 294 1695 294 1587 
C 294 1472 397 1472 493 1472 
L 2189 1472 
L 2189 -218 
C 2189 -307 2189 -416 2298 -416 
C 2413 -416 2413 -314 2413 -218 
L 2413 1472 
z
" id="CMR17-2b" transform="scale(0.015625)"/>
     </defs>
     <use transform="scale(0.996264)" xlink:href="#CMMI12-79"/>
     <use transform="translate(78.812789 0)scale(0.996264)" xlink:href="#CMR17-3d"/>
     <use transform="translate(178.201587 0)scale(0.996264)" xlink:href="#CMMI12-78"/>
     <use transform="translate(255.774853 0)scale(0.996264)" xlink:href="#CMR17-2b"/>
     <use transform="translate(349.628848 0)scale(0.996264)" xlink:href="#CMMI12-62"/>
    </g>
   </g>
  </g>
  <g id="axes_6">
   <g id="patch_27">
    <path d="M 394.587843 459.149588 
L 698.95148 459.149588 
L 698.95148 338.349588 
L 394.587843 338.349588 
z
" style="fill:#ffffff;"/>
   </g>
   <g id="matplotlib.axis_11">
    <g id="xtick_31">
     <g id="line2d_102">
      <path clip-path="url(#p51de3fe37c)" d="M 434.042389 459.149588 
L 434.042389 338.349588 
" style="fill:none;stroke:#b0b0b0;stroke-linecap:square;stroke-width:0.5;"/>
     </g>
     <g id="line2d_103">
      <g>
       <use style="stroke:#000000;stroke-width:0.8;" x="434.042389" xlink:href="#m6f4c455af0" y="459.149588"/>
      </g>
     </g>
     <g id="text_54">
      <!-- $\mathdefault{0}$ -->
      <g transform="translate(431.115894 474.451768)scale(0.12 -0.12)">
       <use transform="scale(0.996264)" xlink:href="#CMR17-30"/>
      </g>
     </g>
    </g>
    <g id="xtick_32">
     <g id="line2d_104">
      <path clip-path="url(#p51de3fe37c)" d="M 485.282058 459.149588 
L 485.282058 338.349588 
" style="fill:none;stroke:#b0b0b0;stroke-linecap:square;stroke-width:0.5;"/>
     </g>
     <g id="line2d_105">
      <g>
       <use style="stroke:#000000;stroke-width:0.8;" x="485.282058" xlink:href="#m6f4c455af0" y="459.149588"/>
      </g>
     </g>
     <g id="text_55">
      <!-- $\mathdefault{20}$ -->
      <g transform="translate(479.429068 474.451768)scale(0.12 -0.12)">
       <use transform="scale(0.996264)" xlink:href="#CMR17-32"/>
       <use transform="translate(45.690477 0)scale(0.996264)" xlink:href="#CMR17-30"/>
      </g>
     </g>
    </g>
    <g id="xtick_33">
     <g id="line2d_106">
      <path clip-path="url(#p51de3fe37c)" d="M 536.521728 459.149588 
L 536.521728 338.349588 
" style="fill:none;stroke:#b0b0b0;stroke-linecap:square;stroke-width:0.5;"/>
     </g>
     <g id="line2d_107">
      <g>
       <use style="stroke:#000000;stroke-width:0.8;" x="536.521728" xlink:href="#m6f4c455af0" y="459.149588"/>
      </g>
     </g>
     <g id="text_56">
      <!-- $\mathdefault{40}$ -->
      <g transform="translate(530.668737 474.451768)scale(0.12 -0.12)">
       <use transform="scale(0.996264)" xlink:href="#CMR17-34"/>
       <use transform="translate(45.690477 0)scale(0.996264)" xlink:href="#CMR17-30"/>
      </g>
     </g>
    </g>
    <g id="xtick_34">
     <g id="line2d_108">
      <path clip-path="url(#p51de3fe37c)" d="M 587.761397 459.149588 
L 587.761397 338.349588 
" style="fill:none;stroke:#b0b0b0;stroke-linecap:square;stroke-width:0.5;"/>
     </g>
     <g id="line2d_109">
      <g>
       <use style="stroke:#000000;stroke-width:0.8;" x="587.761397" xlink:href="#m6f4c455af0" y="459.149588"/>
      </g>
     </g>
     <g id="text_57">
      <!-- $\mathdefault{60}$ -->
      <g transform="translate(581.908407 474.451768)scale(0.12 -0.12)">
       <use transform="scale(0.996264)" xlink:href="#CMR17-36"/>
       <use transform="translate(45.690477 0)scale(0.996264)" xlink:href="#CMR17-30"/>
      </g>
     </g>
    </g>
    <g id="xtick_35">
     <g id="line2d_110">
      <path clip-path="url(#p51de3fe37c)" d="M 639.001066 459.149588 
L 639.001066 338.349588 
" style="fill:none;stroke:#b0b0b0;stroke-linecap:square;stroke-width:0.5;"/>
     </g>
     <g id="line2d_111">
      <g>
       <use style="stroke:#000000;stroke-width:0.8;" x="639.001066" xlink:href="#m6f4c455af0" y="459.149588"/>
      </g>
     </g>
     <g id="text_58">
      <!-- $\mathdefault{80}$ -->
      <g transform="translate(633.148076 474.451768)scale(0.12 -0.12)">
       <use transform="scale(0.996264)" xlink:href="#CMR17-38"/>
       <use transform="translate(45.690477 0)scale(0.996264)" xlink:href="#CMR17-30"/>
      </g>
     </g>
    </g>
    <g id="xtick_36">
     <g id="line2d_112">
      <path clip-path="url(#p51de3fe37c)" d="M 690.240736 459.149588 
L 690.240736 338.349588 
" style="fill:none;stroke:#b0b0b0;stroke-linecap:square;stroke-width:0.5;"/>
     </g>
     <g id="line2d_113">
      <g>
       <use style="stroke:#000000;stroke-width:0.8;" x="690.240736" xlink:href="#m6f4c455af0" y="459.149588"/>
      </g>
     </g>
     <g id="text_59">
      <!-- $\mathdefault{100}$ -->
      <g transform="translate(681.461251 474.451768)scale(0.12 -0.12)">
       <use transform="scale(0.996264)" xlink:href="#CMR17-31"/>
       <use transform="translate(45.690477 0)scale(0.996264)" xlink:href="#CMR17-30"/>
       <use transform="translate(91.380954 0)scale(0.996264)" xlink:href="#CMR17-30"/>
      </g>
     </g>
    </g>
   </g>
   <g id="matplotlib.axis_12">
    <g id="ytick_19">
     <g id="line2d_114">
      <path clip-path="url(#p51de3fe37c)" d="M 394.587843 440.564973 
L 698.95148 440.564973 
" style="fill:none;stroke:#b0b0b0;stroke-linecap:square;stroke-width:0.5;"/>
     </g>
     <g id="line2d_115">
      <g>
       <use style="stroke:#000000;stroke-width:0.8;" x="394.587843" xlink:href="#m9ccc49daca" y="440.564973"/>
      </g>
     </g>
     <g id="text_60">
      <!-- $\mathdefault{0}$ -->
      <g transform="translate(381.734853 444.716063)scale(0.12 -0.12)">
       <use transform="scale(0.996264)" xlink:href="#CMR17-30"/>
      </g>
     </g>
    </g>
    <g id="ytick_20">
     <g id="line2d_116">
      <path clip-path="url(#p51de3fe37c)" d="M 394.587843 394.103434 
L 698.95148 394.103434 
" style="fill:none;stroke:#b0b0b0;stroke-linecap:square;stroke-width:0.5;"/>
     </g>
     <g id="line2d_117">
      <g>
       <use style="stroke:#000000;stroke-width:0.8;" x="394.587843" xlink:href="#m9ccc49daca" y="394.103434"/>
      </g>
     </g>
     <g id="text_61">
      <!-- $\mathdefault{5}$ -->
      <g transform="translate(381.734853 398.254524)scale(0.12 -0.12)">
       <use transform="scale(0.996264)" xlink:href="#CMR17-35"/>
      </g>
     </g>
    </g>
    <g id="ytick_21">
     <g id="line2d_118">
      <path clip-path="url(#p51de3fe37c)" d="M 394.587843 347.641896 
L 698.95148 347.641896 
" style="fill:none;stroke:#b0b0b0;stroke-linecap:square;stroke-width:0.5;"/>
     </g>
     <g id="line2d_119">
      <g>
       <use style="stroke:#000000;stroke-width:0.8;" x="394.587843" xlink:href="#m9ccc49daca" y="347.641896"/>
      </g>
     </g>
     <g id="text_62">
      <!-- $\mathdefault{10}$ -->
      <g transform="translate(375.881863 351.792986)scale(0.12 -0.12)">
       <use transform="scale(0.996264)" xlink:href="#CMR17-31"/>
       <use transform="translate(45.690477 0)scale(0.996264)" xlink:href="#CMR17-30"/>
      </g>
     </g>
    </g>
   </g>
   <g id="line2d_120">
    <path clip-path="url(#p51de3fe37c)" d="M 408.422554 441.291378 
L 410.984538 433.028225 
L 413.546521 434.599101 
L 416.108504 435.055895 
L 418.670488 429.852203 
L 421.232471 428.223927 
L 423.794455 424.955356 
L 426.356438 422.259521 
L 428.918422 419.435088 
L 431.480405 415.509362 
L 434.042389 415.184622 
L 436.604372 421.853971 
L 439.166356 419.921166 
L 441.728339 422.2001 
L 444.290323 426.356115 
L 446.852306 429.159035 
L 449.41429 431.815233 
L 451.976273 430.380153 
L 454.538257 435.566699 
L 457.10024 439.732873 
L 459.662223 438.402546 
L 462.224207 442.948562 
L 464.78619 440.77603 
L 467.348174 437.516209 
L 469.910157 442.655121 
L 472.472141 439.520927 
L 475.034124 434.532117 
L 477.596108 432.932558 
L 480.158091 427.576383 
L 482.720075 423.316113 
L 485.282058 426.984495 
L 487.844042 424.532847 
L 490.406025 425.895642 
L 492.968009 421.512147 
L 495.529992 416.076378 
L 498.091976 417.189344 
L 500.653959 424.220883 
L 503.215942 428.837996 
L 505.777926 430.991592 
L 508.339909 434.842111 
L 510.901893 428.830263 
L 513.463876 420.46197 
L 516.02586 415.185285 
L 518.587843 420.283688 
L 521.149827 424.690506 
L 523.71181 422.417206 
L 526.273794 421.477206 
L 528.835777 424.127688 
L 531.397761 418.699617 
L 533.959744 413.339779 
L 536.521728 417.471017 
L 539.083711 421.350322 
L 541.645695 425.182758 
L 544.207678 424.127195 
L 546.769661 424.135756 
L 549.331645 422.849421 
L 551.893628 425.816487 
L 554.455612 425.403016 
L 557.017595 435.387729 
L 559.579579 436.061667 
L 562.141562 433.809536 
L 564.703546 428.998526 
L 567.265529 420.476678 
L 569.827513 411.465103 
L 572.389496 401.888383 
L 574.95148 397.276089 
L 577.513463 383.618946 
L 580.075447 374.319841 
L 582.63743 363.421437 
L 585.199414 359.639122 
L 587.761397 355.608814 
L 590.323381 360.83788 
L 592.885364 365.18669 
L 595.447347 376.441842 
L 598.009331 388.266812 
L 600.571314 399.499159 
L 603.133298 406.585414 
L 605.695281 412.800221 
L 608.257265 419.817391 
L 610.819248 425.78154 
L 613.381232 428.682835 
L 615.943215 433.455406 
L 618.505199 436.72337 
L 621.067182 433.614118 
L 623.629166 430.716065 
L 626.191149 427.001185 
L 628.753133 423.127105 
L 631.315116 423.618055 
L 633.8771 420.878446 
L 636.439083 424.688914 
L 639.001066 427.98352 
L 641.56305 426.776156 
L 644.125033 431.132757 
L 646.687017 428.730632 
L 649.249 426.421405 
L 651.810984 425.526436 
L 654.372967 433.640585 
L 656.934951 437.210232 
L 659.496934 437.377512 
L 662.058918 435.587155 
L 664.620901 434.814581 
L 667.182885 434.819746 
L 669.744868 433.984131 
L 672.306852 438.116681 
L 674.868835 438.004866 
L 677.430819 440.40088 
L 679.992802 439.274278 
L 682.554785 437.174329 
L 685.116769 439.911715 
" style="fill:none;stroke:#1f77b4;stroke-linecap:square;stroke-width:1.5;"/>
   </g>
   <g id="patch_28">
    <path d="M 394.587843 459.149588 
L 394.587843 338.349588 
" style="fill:none;stroke:#000000;stroke-linecap:square;stroke-linejoin:miter;stroke-width:0.5;"/>
   </g>
   <g id="patch_29">
    <path d="M 698.95148 459.149588 
L 698.95148 338.349588 
" style="fill:none;stroke:#000000;stroke-linecap:square;stroke-linejoin:miter;stroke-width:0.5;"/>
   </g>
   <g id="patch_30">
    <path d="M 394.587843 459.149588 
L 698.95148 459.149588 
" style="fill:none;stroke:#000000;stroke-linecap:square;stroke-linejoin:miter;stroke-width:0.5;"/>
   </g>
   <g id="patch_31">
    <path d="M 394.587843 338.349588 
L 698.95148 338.349588 
" style="fill:none;stroke:#000000;stroke-linecap:square;stroke-linejoin:miter;stroke-width:0.5;"/>
   </g>
   <g id="text_63">
    <!-- $R_{yx}$ -->
    <g transform="translate(534.705535 332.349588)scale(0.16 -0.16)">
     <use transform="scale(0.996264)" xlink:href="#CMMI12-52"/>
     <use transform="translate(74.250826 -14.943915)scale(0.697382)" xlink:href="#CMMI12-79"/>
     <use transform="translate(110.0478 -14.943915)scale(0.697382)" xlink:href="#CMMI12-78"/>
    </g>
   </g>
  </g>
 </g>
 <defs>
  <clipPath id="p3603999647">
   <rect height="120.8" width="304.363636" x="29.35148" y="24.269588"/>
  </clipPath>
  <clipPath id="p4146e0caca">
   <rect height="120.8" width="304.363636" x="394.587843" y="24.269588"/>
  </clipPath>
  <clipPath id="p19f4f03b50">
   <rect height="120.8" width="304.363636" x="29.35148" y="181.309588"/>
  </clipPath>
  <clipPath id="p24c033a9e1">
   <rect height="120.8" width="304.363636" x="394.587843" y="181.309588"/>
  </clipPath>
  <clipPath id="p8a8ed0836f">
   <rect height="120.8" width="304.363636" x="29.35148" y="338.349588"/>
  </clipPath>
  <clipPath id="p51de3fe37c">
   <rect height="120.8" width="304.363636" x="394.587843" y="338.349588"/>
  </clipPath>
 </defs>
</svg>
