<?xml version="1.0" encoding="utf-8" standalone="no"?>
<!DOCTYPE svg PUBLIC "-//W3C//DTD SVG 1.1//EN"
  "http://www.w3.org/Graphics/SVG/1.1/DTD/svg11.dtd">
<!-- Created with matplotlib (https://matplotlib.org/) -->
<svg height="288.460314pt" version="1.1" viewBox="0 0 600.263766 288.460314" width="600.263766pt" xmlns="http://www.w3.org/2000/svg" xmlns:xlink="http://www.w3.org/1999/xlink">
 <defs>
  <style type="text/css">
*{stroke-linecap:butt;stroke-linejoin:round;}
  </style>
 </defs>
 <g id="figure_1">
  <g id="patch_1">
   <path d="M 0 288.460314 
L 600.263766 288.460314 
L 600.263766 0 
L 0 0 
z
" style="fill:#ffffff;"/>
  </g>
  <g id="axes_1">
   <g id="line2d_1">
    <path clip-path="url(#pe2cd25a5a6)" d="M 136.085454 53.883884 
L 298.412727 53.883884 
L 298.412727 229.041997 
" style="fill:none;stroke:#1f77b4;stroke-linecap:square;stroke-width:1.5;"/>
   </g>
   <g id="line2d_2">
    <path clip-path="url(#pe2cd25a5a6)" d="M 136.085454 46.63362 
L 318.703636 46.63362 
L 318.703636 176.314151 
L 541.903636 176.314151 
" style="fill:none;stroke:#2ca02c;stroke-linecap:square;stroke-width:1.5;"/>
   </g>
   <g id="line2d_3">
    <path clip-path="url(#pe2cd25a5a6)" d="M 136.085454 61.89868 
L 270.005454 61.89868 
L 270.005454 229.041997 
" style="fill:none;stroke:#2ca02c;stroke-linecap:square;stroke-width:1.5;"/>
   </g>
   <g id="line2d_4">
    <path clip-path="url(#pe2cd25a5a6)" d="M 136.085454 53.883884 
L 144.242603 52.38225 
L 148.321178 51.974825 
L 150.360465 51.934549 
L 152.399753 52.020302 
L 154.43904 52.23614 
L 156.478327 52.57808 
L 160.556902 53.581758 
L 168.714051 56.022211 
L 170.753339 56.485098 
L 172.792626 56.804791 
L 174.831914 56.94848 
L 176.871201 56.894322 
L 178.910488 56.634119 
L 180.949776 56.174821 
L 182.989063 55.538579 
L 187.067638 53.890256 
L 193.1855 51.276327 
L 195.224787 50.595765 
L 197.264074 50.09545 
L 199.303362 49.813877 
L 201.342649 49.778182 
L 203.381936 50.002541 
L 205.421224 50.486926 
L 207.460511 51.216203 
L 209.499798 52.159624 
L 213.578373 54.488982 
L 217.656948 56.941982 
L 219.696235 58.007337 
L 221.735522 58.852432 
L 223.77481 59.404071 
L 225.814097 59.607739 
L 227.853385 59.434337 
L 229.892672 58.884347 
L 231.931959 57.988508 
L 233.971247 56.804868 
L 238.049821 53.905596 
L 242.128396 50.938645 
L 244.167683 49.665337 
L 246.206971 48.6392 
L 248.246258 47.922462 
L 250.285545 47.560402 
L 252.324833 47.580122 
L 254.36412 47.989689 
L 256.403407 48.777429 
L 258.442695 49.911336 
L 260.481982 51.338744 
L 264.560557 54.76303 
L 268.639131 58.262018 
L 270.678419 59.750036 
L 272.717706 60.918594 
L 274.756993 61.687425 
L 276.796281 62.01649 
L 278.835568 61.918943 
L 280.874856 61.471281 
L 284.95343 60.193983 
L 286.992718 59.904127 
L 289.032005 60.366099 
L 291.071292 62.102883 
L 293.11058 65.724764 
L 295.149867 71.838865 
L 297.189154 80.858524 
L 299.228442 92.761517 
L 301.267729 106.970869 
L 305.346304 138.569976 
L 309.424878 170.886503 
L 311.464166 187.918109 
L 313.503453 206.613946 
L 315.54274 228.043497 
L 317.582028 253.504446 
L 319.870006 289.460314 
M 334.96019 289.460314 
L 335.935614 274.10684 
L 337.974901 249.103554 
L 340.014189 229.506349 
L 342.053476 214.195279 
L 344.092763 202.425 
L 346.132051 193.691493 
L 348.171338 187.650953 
L 350.210625 184.070742 
L 352.249913 182.79929 
L 354.2892 183.747231 
L 356.328487 186.875202 
L 358.367775 192.18512 
L 360.407062 199.711969 
L 362.446349 209.511938 
L 364.485637 221.639101 
L 366.524924 236.094596 
L 368.564211 252.715183 
L 372.652474 289.460314 
M 382.892071 289.460314 
L 386.917797 256.627621 
L 388.957085 241.975854 
L 390.996372 229.444978 
L 393.03566 219.118191 
L 395.074947 210.939801 
L 397.114234 204.806653 
L 399.153522 200.607301 
L 401.192809 198.23683 
L 403.232096 197.600265 
L 405.271384 198.610137 
L 407.310671 201.180253 
L 409.349958 205.215874 
L 411.389246 210.599482 
L 413.428533 217.170731 
L 415.46782 224.6994 
L 421.585682 248.996971 
L 423.62497 255.623776 
L 425.664257 260.289793 
L 427.703544 262.430878 
L 429.742832 261.858969 
L 431.782119 258.83036 
L 433.821406 253.940477 
L 435.860694 247.921408 
L 439.939268 235.1155 
L 441.978556 229.274533 
L 444.017843 224.196889 
L 446.057131 220.035159 
L 448.096418 216.86694 
L 450.135705 214.717215 
L 452.174993 213.573295 
L 454.21428 213.393701 
L 456.253567 214.112529 
L 458.292855 215.640638 
L 460.332142 217.864841 
L 462.371429 220.646229 
L 466.450004 227.191642 
L 468.489291 230.551886 
L 470.528579 233.678137 
L 472.567866 236.357113 
L 474.607153 238.406725 
L 476.646441 239.699573 
L 478.685728 240.180722 
L 480.725015 239.873897 
L 482.764303 238.873837 
L 484.80359 237.327356 
L 486.842877 235.40908 
L 492.960739 229.13716 
L 495.000027 227.339357 
L 497.039314 225.8475 
L 499.078602 224.712792 
L 501.117889 223.960114 
L 503.157176 223.591253 
L 505.196464 223.588064 
L 507.235751 223.91546 
L 509.275038 224.524286 
L 511.314326 225.354266 
L 515.3929 227.400608 
L 519.471475 229.481788 
L 521.510762 230.370654 
L 523.55005 231.090455 
L 525.589337 231.608737 
L 527.628624 231.91005 
L 529.667912 231.995937 
L 531.707199 231.883309 
L 533.746486 231.601511 
L 537.825061 230.687028 
L 541.903636 229.589313 
L 541.903636 229.589313 
" style="fill:none;stroke:#d62728;stroke-linecap:square;stroke-width:1.5;"/>
   </g>
   <g id="line2d_5">
    <path clip-path="url(#pe2cd25a5a6)" d="M 136.085454 246.557808 
L 541.903636 246.557808 
" style="fill:none;stroke:#ffffff;stroke-linecap:square;stroke-width:35;"/>
   </g>
   <g id="patch_2">
    <path d="M 134.024008 53.883884 
Q 357.253946 53.883884 579.365849 53.883884 
" style="fill:none;stroke:#000000;stroke-linecap:round;"/>
    <path d="M 570.565849 49.483884 
L 579.365849 53.883884 
L 570.565849 58.283884 
" style="fill:none;stroke:#000000;stroke-linecap:round;"/>
   </g>
   <g id="patch_3">
    <path d="M 136.085454 227.043853 
Q 136.085454 129.081998 136.085454 32.238176 
" style="fill:none;stroke:#000000;stroke-linecap:round;"/>
    <path d="M 131.685454 41.038176 
L 136.085454 32.238176 
L 140.485454 41.038176 
" style="fill:none;stroke:#000000;stroke-linecap:round;"/>
   </g>
   <g id="text_1">
    <!-- $f_c-$ -->
    <defs>
     <path d="M 44.59375 40.09375 
C 46.59375 40.09375 47.40625 40.09375 47.40625 41.984375 
C 47.40625 43 46.59375 43 44.796875 43 
L 36.703125 43 
C 38.59375 53.09375 40 60.09375 40.796875 63.296875 
C 41.40625 65.6875 43.5 67.984375 46.09375 67.984375 
C 48.203125 67.984375 50.296875 67.09375 51.296875 66.1875 
C 47.40625 65.796875 46.203125 62.890625 46.203125 61.1875 
C 46.203125 59.1875 47.703125 58 49.59375 58 
C 51.59375 58 54.59375 59.6875 54.59375 63.5 
C 54.59375 67.6875 50.40625 70 46 70 
C 41.703125 70 37.5 66.796875 35.5 62.890625 
C 33.703125 59.390625 32.703125 55.828125 30.40625 43 
L 23.703125 43 
C 21.796875 43 20.796875 43 20.796875 41.1875 
C 20.796875 40.09375 21.40625 40.09375 23.40625 40.09375 
L 29.796875 40.09375 
C 28 30.890625 23.90625 8.515625 21.59375 -2.0625 
C 19.90625 -10.703125 18.40625 -18 13.40625 -18 
C 13.09375 -18 10.203125 -18 8.40625 -16.109375 
C 13.5 -15.703125 13.5 -11.3125 13.5 -11.203125 
C 13.5 -9.203125 12 -8 10.09375 -8 
C 8.09375 -8 5.09375 -9.703125 5.09375 -13.515625 
C 5.09375 -17.8125 9.5 -20 13.40625 -20 
C 23.59375 -20 27.796875 -1.765625 28.90625 3.171875 
C 30.703125 10.796875 35.59375 37.125 36.09375 40.09375 
z
" id="CMMI12-102"/>
     <path d="M 39.09375 38 
C 37.203125 38 36.296875 38 34.90625 36.796875 
C 34.296875 36.296875 33.203125 34.796875 33.203125 33.1875 
C 33.203125 31.1875 34.703125 29.984375 36.59375 29.984375 
C 39 29.984375 41.703125 31.984375 41.703125 35.984375 
C 41.703125 40.484375 37.09375 44 30.203125 44 
C 17.09375 44 4 30.1875 4 15.796875 
C 4 6.96875 9.40625 -1 19.59375 -1 
C 33.203125 -1 41.796875 9.71875 41.796875 11.03125 
C 41.796875 11.640625 41.203125 12.140625 40.796875 12.140625 
C 40.5 12.140625 40.40625 12.046875 39.5 11.125 
C 33.09375 2.515625 23.59375 1 19.796875 1 
C 12.90625 1 10.703125 7.078125 10.703125 12.140625 
C 10.703125 15.6875 12.40625 25.53125 16 32.390625 
C 18.59375 37.09375 24 41.984375 30.296875 41.984375 
C 31.59375 41.984375 37.09375 41.8125 39.09375 38 
z
" id="CMMI12-99"/>
     <path d="M 65.90625 23 
C 67.59375 23 69.40625 23 69.40625 25 
C 69.40625 27 67.59375 27 65.90625 27 
L 11.796875 27 
C 10.09375 27 8.296875 27 8.296875 25 
C 8.296875 23 10.09375 23 11.796875 23 
z
" id="CMSY10-0"/>
    </defs>
    <g transform="translate(235.416398 42.830861)scale(0.22 -0.22)">
     <use transform="translate(0 14.943915)scale(0.996264)" xlink:href="#CMMI12-102"/>
     <use transform="translate(48.083238 0)scale(0.697382)" xlink:href="#CMMI12-99"/>
     <use transform="translate(77.969501 14.943915)scale(0.996264)" xlink:href="#CMSY10-0"/>
    </g>
   </g>
   <g id="text_2">
    <!-- $f_c$ -->
    <g transform="translate(289.890881 42.830861)scale(0.22 -0.22)">
     <use transform="translate(0 14.943915)scale(0.996264)" xlink:href="#CMMI12-102"/>
     <use transform="translate(48.083238 0)scale(0.697382)" xlink:href="#CMMI12-99"/>
    </g>
   </g>
   <g id="text_3">
    <!-- $f_c+$ -->
    <defs>
     <path d="M 37.703125 23 
L 64.203125 23 
C 65.59375 23 67.296875 23 67.296875 24.6875 
C 67.296875 26.5 65.703125 26.5 64.203125 26.5 
L 37.703125 26.5 
L 37.703125 52.890625 
C 37.703125 54.296875 37.703125 56 36 56 
C 34.203125 56 34.203125 54.390625 34.203125 52.890625 
L 34.203125 26.5 
L 7.703125 26.5 
C 6.296875 26.5 4.59375 26.5 4.59375 24.796875 
C 4.59375 23 6.203125 23 7.703125 23 
L 34.203125 23 
L 34.203125 -3.03125 
C 34.203125 -4.40625 34.203125 -6.109375 35.90625 -6.109375 
C 37.703125 -6.109375 37.703125 -4.515625 37.703125 -3.03125 
z
" id="CMR17-43"/>
    </defs>
    <g transform="translate(318.703636 42.830861)scale(0.22 -0.22)">
     <use transform="translate(0 14.943915)scale(0.996264)" xlink:href="#CMMI12-102"/>
     <use transform="translate(48.083238 0)scale(0.697382)" xlink:href="#CMMI12-99"/>
     <use transform="translate(77.969501 14.943915)scale(0.996264)" xlink:href="#CMR17-43"/>
    </g>
   </g>
   <g id="text_4">
    <!-- $0$ -->
    <defs>
     <path d="M 42 31.84375 
C 42 37.96875 41.90625 48.421875 37.703125 56.453125 
C 34 63.484375 28.09375 66 22.90625 66 
C 18.09375 66 12 63.78125 8.203125 56.5625 
C 4.203125 49.015625 3.796875 39.671875 3.796875 31.84375 
C 3.796875 26.109375 3.90625 17.375 7 9.734375 
C 11.296875 -0.609375 19 -2 22.90625 -2 
C 27.5 -2 34.5 -0.109375 38.59375 9.4375 
C 41.59375 16.375 42 24.5 42 31.84375 
z
M 22.90625 -0.40625 
C 16.5 -0.40625 12.703125 5.125 11.296875 12.75 
C 10.203125 18.6875 10.203125 27.328125 10.203125 32.953125 
C 10.203125 40.6875 10.203125 47.109375 11.5 53.234375 
C 13.40625 61.78125 19 64.390625 22.90625 64.390625 
C 27 64.390625 32.296875 61.671875 34.203125 53.4375 
C 35.5 47.71875 35.59375 40.984375 35.59375 32.953125 
C 35.59375 26.421875 35.59375 18.375 34.40625 12.453125 
C 32.296875 1.5 26.40625 -0.40625 22.90625 -0.40625 
z
" id="CMR17-48"/>
    </defs>
    <g transform="translate(117.917185 59.362637)scale(0.22 -0.22)">
     <use transform="scale(0.996264)" xlink:href="#CMR17-48"/>
    </g>
   </g>
   <g id="text_5">
    <!-- $f$ -->
    <g transform="translate(582.485454 49.620696)scale(0.22 -0.22)">
     <use transform="scale(0.996264)" xlink:href="#CMMI12-102"/>
    </g>
   </g>
   <g id="text_6">
    <!-- $20\log_{10}|H(f)|$ -->
    <defs>
     <path d="M 41.703125 15.46875 
L 39.90625 15.46875 
C 38.90625 8.390625 38.09375 7.1875 37.703125 6.59375 
C 37.203125 5.796875 30 5.796875 28.59375 5.796875 
L 9.40625 5.796875 
C 13 9.6875 20 16.765625 28.5 24.9375 
C 34.59375 30.71875 41.703125 37.5 41.703125 47.390625 
C 41.703125 59.1875 32.296875 66 21.796875 66 
C 10.796875 66 4.09375 56.296875 4.09375 47.296875 
C 4.09375 43.390625 7 42.890625 8.203125 42.890625 
C 9.203125 42.890625 12.203125 43.484375 12.203125 46.984375 
C 12.203125 50.09375 9.59375 51 8.203125 51 
C 7.59375 51 7 50.890625 6.59375 50.6875 
C 8.5 59.1875 14.296875 63.390625 20.40625 63.390625 
C 29.09375 63.390625 34.796875 56.5 34.796875 47.390625 
C 34.796875 38.703125 29.703125 31.21875 24 24.734375 
L 4.09375 2.296875 
L 4.09375 0 
L 39.296875 0 
z
" id="CMR17-50"/>
     <path d="M 15.296875 69 
L 3.40625 67.890625 
L 3.40625 65.296875 
C 9.296875 65.296875 10.203125 64.703125 10.203125 59.921875 
L 10.203125 6.859375 
C 10.203125 3.09375 9.796875 2.59375 3.40625 2.59375 
L 3.40625 0 
C 5.796875 0.1875 10.203125 0.1875 12.703125 0.1875 
C 15.296875 0.1875 19.703125 0.1875 22.09375 0 
L 22.09375 2.59375 
C 15.703125 2.59375 15.296875 2.984375 15.296875 6.859375 
z
" id="CMR17-108"/>
     <path d="M 43.09375 21.1875 
C 43.09375 34 33.796875 44 22.90625 44 
C 12 44 2.703125 34 2.703125 21.1875 
C 2.703125 8.59375 12 -1 22.90625 -1 
C 33.796875 -1 43.09375 8.59375 43.09375 21.1875 
z
M 22.90625 0.796875 
C 18.203125 0.796875 14.203125 3.59375 11.90625 7.5 
C 9.40625 12 9.09375 17.59375 9.09375 22 
C 9.09375 26.1875 9.296875 31.390625 11.90625 35.890625 
C 13.90625 39.1875 17.796875 42.390625 22.90625 42.390625 
C 27.40625 42.390625 31.203125 39.890625 33.59375 36.390625 
C 36.703125 31.6875 36.703125 25.09375 36.703125 22 
C 36.703125 18.09375 36.5 12.09375 33.796875 7.296875 
C 31 2.6875 26.703125 0.796875 22.90625 0.796875 
z
" id="CMR17-111"/>
     <path d="M 11.09375 18.203125 
C 13 16.6875 16.296875 15 20.296875 15 
C 28.203125 15 35 21.234375 35 29.609375 
C 35 32.234375 34.203125 36.265625 31.203125 39.390625 
C 34 42.390625 38.09375 43.390625 40.40625 43.390625 
C 40.796875 43.390625 41.40625 43.390625 41.90625 43.09375 
C 41.5 42.984375 40.59375 42.59375 40.59375 40.984375 
C 40.59375 39.6875 41.5 38.796875 42.796875 38.796875 
C 44.296875 38.796875 45.09375 39.796875 45.09375 41.09375 
C 45.09375 42.984375 43.59375 45 40.40625 45 
C 36.40625 45 32.90625 43.09375 30.09375 40.484375 
C 27.09375 43.1875 23.5 44.1875 20.296875 44.1875 
C 12.40625 44.1875 5.59375 37.984375 5.59375 29.609375 
C 5.59375 23.859375 8.90625 20.21875 9.90625 19.21875 
C 6.90625 15.6875 6.90625 11.59375 6.90625 11.09375 
C 6.90625 8.5 7.90625 4.6875 11.296875 2.59375 
C 6.09375 1.28125 2 -2.875 2 -8.078125 
C 2 -15.5625 11.5 -21 22.90625 -21 
C 33.90625 -21 43.796875 -15.765625 43.796875 -7.96875 
C 43.796875 6 29 6 21.296875 6 
C 19 6 14.90625 6 14.40625 6.09375 
C 11.296875 6.59375 9.203125 9.390625 9.203125 12.890625 
C 9.203125 13.796875 9.203125 16 11.09375 18.203125 
z
M 20.296875 16.6875 
C 11.5 16.6875 11.5 27.59375 11.5 29.609375 
C 11.5 31.625 11.5 42.484375 20.296875 42.484375 
C 29.09375 42.484375 29.09375 31.625 29.09375 29.609375 
C 29.09375 27.59375 29.09375 16.6875 20.296875 16.6875 
z
M 22.90625 -19.3125 
C 12.90625 -19.3125 6 -13.796875 6 -8.078125 
C 6 -4.859375 7.703125 -1.84375 9.90625 -0.171875 
C 12.40625 1.59375 13.40625 1.59375 20.203125 1.59375 
C 28.40625 1.59375 39.796875 1.59375 39.796875 -8.078125 
C 39.796875 -13.796875 32.90625 -19.3125 22.90625 -19.3125 
z
" id="CMR17-103"/>
     <path d="M 26.59375 63.796875 
C 26.59375 65.890625 26.5 66 25.09375 66 
C 21.203125 61.359375 15.296875 59.890625 9.703125 59.6875 
C 9.40625 59.6875 8.90625 59.6875 8.796875 59.5 
C 8.703125 59.296875 8.703125 59.09375 8.703125 57 
C 11.796875 57 17 57.59375 21 59.984375 
L 21 7.296875 
C 21 3.796875 20.796875 2.59375 12.203125 2.59375 
L 9.203125 2.59375 
L 9.203125 0 
C 14 0.09375 19 0.1875 23.796875 0.1875 
C 28.59375 0.1875 33.59375 0.09375 38.40625 0 
L 38.40625 2.59375 
L 35.40625 2.59375 
C 26.796875 2.59375 26.59375 3.6875 26.59375 7.296875 
z
" id="CMR17-49"/>
     <path d="M 15.90625 71.390625 
C 15.90625 73.1875 15.90625 75 13.90625 75 
C 11.90625 75 11.90625 73.1875 11.90625 71.390625 
L 11.90625 -21.40625 
C 11.90625 -23.203125 11.90625 -25 13.90625 -25 
C 15.90625 -25 15.90625 -23.203125 15.90625 -21.40625 
z
" id="CMSY10-106"/>
     <path d="M 74.796875 60.71875 
C 75.703125 64.09375 75.90625 65.09375 83 65.09375 
C 84.796875 65.09375 85.796875 65.09375 85.796875 66.890625 
C 85.796875 68 84.90625 68 84.296875 68 
C 82.5 68 80.40625 67.796875 78.5 67.796875 
L 66.703125 67.796875 
C 64.796875 67.796875 62.703125 68 60.796875 68 
C 60.09375 68 58.90625 68 58.90625 66.09375 
C 58.90625 65.09375 59.59375 65.09375 61.5 65.09375 
C 67.5 65.09375 67.5 64.296875 67.5 63.203125 
C 67.5 63 67.5 62.40625 67.09375 60.921875 
L 61 36.890625 
L 30.796875 36.890625 
L 36.796875 60.71875 
C 37.703125 64.09375 37.90625 65.09375 45 65.09375 
C 46.796875 65.09375 47.796875 65.09375 47.796875 66.890625 
C 47.796875 68 46.90625 68 46.296875 68 
C 44.5 68 42.40625 67.796875 40.5 67.796875 
L 28.703125 67.796875 
C 26.796875 67.796875 24.703125 68 22.796875 68 
C 22.09375 68 20.90625 68 20.90625 66.09375 
C 20.90625 65.09375 21.59375 65.09375 23.5 65.09375 
C 29.5 65.09375 29.5 64.296875 29.5 63.203125 
C 29.5 63 29.5 62.40625 29.09375 60.921875 
L 15.59375 7.375 
C 14.703125 3.890625 14.5 2.890625 7.59375 2.890625 
C 5.296875 2.890625 4.59375 2.890625 4.59375 1 
C 4.59375 0 5.703125 0 6 0 
C 7.796875 0 9.90625 0.1875 11.796875 0.1875 
L 23.59375 0.1875 
C 25.5 0.1875 27.59375 0 29.5 0 
C 30.296875 0 31.40625 0 31.40625 1.890625 
C 31.40625 2.890625 30.5 2.890625 29 2.890625 
C 22.90625 2.890625 22.90625 3.6875 22.90625 4.6875 
C 22.90625 4.78125 22.90625 5.484375 23.09375 6.28125 
L 30 34 
L 60.296875 34 
C 58.59375 27.421875 53.5 6.578125 53.296875 5.984375 
C 52.203125 2.984375 50.59375 2.984375 44.703125 2.890625 
C 43.5 2.890625 42.59375 2.890625 42.59375 1 
C 42.59375 0 43.703125 0 44 0 
C 45.796875 0 47.90625 0.1875 49.796875 0.1875 
L 61.59375 0.1875 
C 63.5 0.1875 65.59375 0 67.5 0 
C 68.296875 0 69.40625 0 69.40625 1.890625 
C 69.40625 2.890625 68.5 2.890625 67 2.890625 
C 60.90625 2.890625 60.90625 3.6875 60.90625 4.6875 
C 60.90625 4.78125 60.90625 5.484375 61.09375 6.28125 
z
" id="CMMI12-72"/>
     <path d="M 30.59375 -24.40625 
C 30.59375 -24.3125 30.59375 -24.109375 30.296875 -23.8125 
C 25.703125 -19.109375 13.40625 -6.296875 13.40625 24.9375 
C 13.40625 56.171875 25.5 68.875 30.40625 73.890625 
C 30.40625 73.984375 30.59375 74.1875 30.59375 74.484375 
C 30.59375 74.796875 30.296875 75 29.90625 75 
C 28.796875 75 20.296875 67.578125 15.40625 56.5625 
C 10.40625 45.453125 9 34.65625 9 25.046875 
C 9 17.828125 9.703125 5.625 15.703125 -7.296875 
C 20.5 -17.703125 28.703125 -25 29.90625 -25 
C 30.40625 -25 30.59375 -24.8125 30.59375 -24.40625 
z
" id="CMR17-40"/>
     <path d="M 26.296875 24.9375 
C 26.296875 32.140625 25.59375 44.359375 19.59375 57.265625 
C 14.796875 67.6875 6.59375 75 5.40625 75 
C 5.09375 75 4.703125 74.890625 4.703125 74.390625 
C 4.703125 74.1875 4.796875 74.09375 4.90625 73.890625 
C 9.703125 68.875 21.90625 56.171875 21.90625 25.046875 
C 21.90625 -6.1875 9.796875 -18.90625 4.90625 -23.90625 
C 4.796875 -24.109375 4.703125 -24.203125 4.703125 -24.40625 
C 4.703125 -24.90625 5.09375 -25 5.40625 -25 
C 6.5 -25 15 -17.609375 19.90625 -6.59375 
C 24.90625 4.515625 26.296875 15.328125 26.296875 24.9375 
z
" id="CMR17-41"/>
    </defs>
    <g transform="translate(7.2 24.85462)scale(0.22 -0.22)">
     <use transform="translate(0 22.865092)scale(0.996264)" xlink:href="#CMR17-50"/>
     <use transform="translate(45.690477 22.865092)scale(0.996264)" xlink:href="#CMR17-48"/>
     <use transform="translate(107.985359 22.865092)scale(0.996264)" xlink:href="#CMR17-108"/>
     <use transform="translate(132.856418 22.865092)scale(0.996264)" xlink:href="#CMR17-111"/>
     <use transform="translate(178.546895 22.865092)scale(0.996264)" xlink:href="#CMR17-103"/>
     <use transform="translate(225.538538 0)scale(0.697382)" xlink:href="#CMR17-49"/>
     <use transform="translate(257.52172 0)scale(0.697382)" xlink:href="#CMR17-48"/>
     <use transform="translate(306.60744 22.865092)scale(0.996264)" xlink:href="#CMSY10-106"/>
     <use transform="translate(334.281524 22.865092)scale(0.996264)" xlink:href="#CMMI12-72"/>
     <use transform="translate(422.803297 22.865092)scale(0.996264)" xlink:href="#CMR17-40"/>
     <use transform="translate(458.084065 22.865092)scale(0.996264)" xlink:href="#CMMI12-102"/>
     <use transform="translate(516.804369 22.865092)scale(0.996264)" xlink:href="#CMR17-41"/>
     <use transform="translate(552.085137 22.865092)scale(0.996264)" xlink:href="#CMSY10-106"/>
    </g>
   </g>
   <g id="patch_4">
    <path d="M 231.423747 202.76828 
Q 263.918554 202.76828 295.295327 202.76828 
" style="fill:none;stroke:#1f77b4;stroke-linecap:round;"/>
    <path d="M 286.495327 198.36828 
L 295.295327 202.76828 
L 286.495327 207.16828 
" style="fill:none;stroke:#1f77b4;stroke-linecap:round;"/>
   </g>
   <g id="text_7">
    <!-- filtre réel -->
    <defs>
     <path d="M 43 70 
L 35 70 
L 35 61.984375 
L 43 61.984375 
z
M 42.703125 43 
L 35.296875 43 
L 35.296875 0 
L 42.703125 0 
z
M 16.796875 37.1875 
L 27.703125 37.1875 
L 27.703125 43 
L 16.59375 43 
L 16.59375 56.453125 
C 16.59375 61.890625 19 64.59375 22.203125 64.59375 
C 24.09375 64.59375 26 64.09375 27.703125 63.1875 
L 27.703125 69.890625 
C 26.90625 70.09375 24.59375 70.6875 22.203125 70.6875 
C 14.703125 70.6875 9.40625 63.09375 9.40625 53.15625 
L 9.40625 43 
L 2.5 43 
L 2.5 37.1875 
L 9.40625 37.1875 
L 9.40625 0 
L 16.796875 0 
z
" id="CMSS17-12"/>
     <path d="M 14.796875 69 
L 7.40625 69 
L 7.40625 0 
L 14.796875 0 
z
" id="CMSS17-108"/>
     <path d="M 16.703125 37.1875 
L 29.703125 37.1875 
L 29.703125 43 
L 16.703125 43 
L 16.703125 55 
L 9.59375 55 
L 9.59375 43 
L 1.703125 43 
L 1.703125 37.1875 
L 9.40625 37.1875 
L 9.40625 11.734375 
C 9.40625 6 10.703125 -1 17.296875 -1 
C 22.296875 -1 26.90625 0.390625 31.296875 2.6875 
L 29.703125 8.609375 
C 27.296875 6.5 24.40625 5.296875 21.296875 5.296875 
C 16.90625 5.296875 16.703125 10.921875 16.703125 13.4375 
z
" id="CMSS17-116"/>
     <path d="M 14.90625 21.390625 
C 14.90625 30.84375 21.796875 37.171875 30.59375 37.375 
L 30.59375 44 
C 24.203125 43.890625 18.203125 40.6875 14.59375 35.46875 
L 14.59375 43.484375 
L 7.5 43.484375 
L 7.5 0 
L 14.90625 0 
z
" id="CMSS17-114"/>
     <path d="M 39.09375 21.484375 
C 39.09375 24.796875 38.90625 31.265625 35.703125 36.671875 
C 32.203125 42.390625 26.5 44 22.203125 44 
C 11.796875 44 3 34.125 3 21.296875 
C 3 9.046875 12.09375 -1 23.59375 -1 
C 28.09375 -1 33.59375 0.296875 38.59375 3.890625 
C 38.59375 4.296875 38.40625 6.46875 38.296875 6.578125 
C 38.296875 6.765625 38 9.828125 38 10.234375 
C 33.203125 6.375 27.703125 5.09375 23.703125 5.09375 
C 17.296875 5.09375 10.40625 10.421875 10.09375 21.484375 
z
M 10.90625 27 
C 12.203125 32.59375 16.59375 37.890625 22.203125 37.890625 
C 23.703125 37.890625 30.703125 37.6875 32.5 27 
z
" id="CMSS17-101"/>
     <path d="M 39.09375 69 
L 31.5 69 
L 19.09375 51.890625 
L 25.203125 51.890625 
z
" id="CMSS17-19"/>
    </defs>
    <g style="fill:#1f77b4;" transform="translate(166.732428 207.250898)scale(0.18 -0.18)">
     <use transform="scale(0.996264)" xlink:href="#CMSS17-12"/>
     <use transform="translate(50.126737 0)scale(0.996264)" xlink:href="#CMSS17-108"/>
     <use transform="translate(72.30746 0)scale(0.996264)" xlink:href="#CMSS17-116"/>
     <use transform="translate(106.139027 0)scale(0.996264)" xlink:href="#CMSS17-114"/>
     <use transform="translate(138.0488 0)scale(0.996264)" xlink:href="#CMSS17-101"/>
     <use transform="translate(210.916734 0)scale(0.996264)" xlink:href="#CMSS17-114"/>
     <use transform="translate(240.224099 0)scale(0.996264)" xlink:href="#CMSS17-19"/>
     <use transform="translate(242.826507 0)scale(0.996264)" xlink:href="#CMSS17-101"/>
     <use transform="translate(284.465329 0)scale(0.996264)" xlink:href="#CMSS17-101"/>
     <use transform="translate(326.104151 0)scale(0.996264)" xlink:href="#CMSS17-108"/>
    </g>
   </g>
   <g id="text_8">
    <!-- filtre réalisable -->
    <defs>
     <path d="M 37.59375 27.953125 
C 37.59375 37.484375 30.90625 44 21.90625 44 
C 17.5 44 12.703125 43.1875 7.203125 39.984375 
L 7.796875 33.328125 
C 10.296875 35.15625 14.59375 38.09375 21.796875 38.09375 
C 26.90625 38.09375 30 34.140625 30 27.84375 
L 30 24 
C 14 23.5 4 18.890625 4 11.109375 
C 4 7.0625 6.5 -1 14.796875 -1 
C 16.296875 -1 24.40625 -0.8125 30.203125 3.5 
L 30.203125 -0.203125 
L 37.59375 -0.203125 
z
M 30 12.875 
C 30 11.109375 30 8.734375 27 6.96875 
C 24.40625 5.296875 21.09375 5.09375 19.703125 5.09375 
C 14.703125 5.09375 11.296875 7.859375 11.296875 11.296875 
C 11.296875 18.203125 26.90625 18.890625 30 19 
z
" id="CMSS17-97"/>
     <path d="M 15.296875 66 
L 6.90625 66 
L 6.90625 57.59375 
L 15.296875 57.59375 
z
M 14.796875 43 
L 7.40625 43 
L 7.40625 0 
L 14.796875 0 
z
" id="CMSS17-105"/>
     <path d="M 32.203125 40.984375 
C 26.296875 43.796875 21.703125 44 18.703125 44 
C 11.59375 44 3.09375 41.484375 3.09375 31.390625 
C 3.09375 21.296875 14.09375 19.09375 17.09375 18.484375 
C 21.703125 17.59375 26.796875 16.59375 26.796875 11.59375 
C 26.796875 5.296875 19.59375 5.296875 18.296875 5.296875 
C 14.296875 5.296875 8.796875 6.390625 3.796875 9.984375 
L 2.59375 3.296875 
C 8.296875 0 13.796875 -1 18.40625 -1 
C 30.703125 -1 33.796875 6.5 33.796875 12.1875 
C 33.796875 17.09375 31 20.390625 29.09375 21.890625 
C 25.796875 24.484375 24.59375 24.796875 16.40625 26.484375 
C 15 26.6875 10.09375 27.796875 10.09375 32.296875 
C 10.09375 37.984375 16.40625 37.984375 17.796875 37.984375 
C 24.296875 37.984375 28.296875 35.984375 31 34.484375 
z
" id="CMSS17-115"/>
     <path d="M 14.90625 69 
L 7.5 69 
L 7.5 -0.203125 
L 15.09375 -0.203125 
L 15.09375 4.296875 
C 18.90625 0.59375 23.5 -1 27.59375 -1 
C 37.203125 -1 45 8.734375 45 21.59375 
C 45 33.328125 39 44 30.09375 44 
C 23.796875 44 18.203125 41.390625 14.90625 38.6875 
z
M 15.09375 32.734375 
C 17.296875 35.5625 20.40625 37.890625 24.796875 37.890625 
C 30.703125 37.890625 37.40625 33.53125 37.40625 21.59375 
C 37.40625 8.84375 29.40625 5.09375 23.90625 5.09375 
C 21.90625 5.09375 19.796875 5.59375 17.796875 7.3125 
C 15.09375 9.75 15.09375 11.265625 15.09375 12.6875 
z
" id="CMSS17-98"/>
    </defs>
    <g style="fill:#d62728;" transform="translate(481.030909 207.250898)scale(0.18 -0.18)">
     <use transform="scale(0.996264)" xlink:href="#CMSS17-12"/>
     <use transform="translate(50.126737 0)scale(0.996264)" xlink:href="#CMSS17-108"/>
     <use transform="translate(72.30746 0)scale(0.996264)" xlink:href="#CMSS17-116"/>
     <use transform="translate(106.139027 0)scale(0.996264)" xlink:href="#CMSS17-114"/>
     <use transform="translate(138.0488 0)scale(0.996264)" xlink:href="#CMSS17-101"/>
     <use transform="translate(210.916734 0)scale(0.996264)" xlink:href="#CMSS17-114"/>
     <use transform="translate(240.224099 0)scale(0.996264)" xlink:href="#CMSS17-19"/>
     <use transform="translate(242.826507 0)scale(0.996264)" xlink:href="#CMSS17-101"/>
     <use transform="translate(284.465329 0)scale(0.996264)" xlink:href="#CMSS17-97"/>
     <use transform="translate(329.38725 0)scale(0.996264)" xlink:href="#CMSS17-108"/>
     <use transform="translate(351.567973 0)scale(0.996264)" xlink:href="#CMSS17-105"/>
     <use transform="translate(373.748696 0)scale(0.996264)" xlink:href="#CMSS17-115"/>
     <use transform="translate(409.662238 0)scale(0.996264)" xlink:href="#CMSS17-97"/>
     <use transform="translate(454.584158 0)scale(0.996264)" xlink:href="#CMSS17-98"/>
     <use transform="translate(502.789101 0)scale(0.996264)" xlink:href="#CMSS17-108"/>
     <use transform="translate(524.969824 0)scale(0.996264)" xlink:href="#CMSS17-101"/>
    </g>
   </g>
   <g id="patch_5">
    <path d="M 139.201989 237.799903 
Q 203.044262 237.799903 266.886535 237.799903 
" style="fill:none;stroke:#000000;stroke-linecap:round;"/>
    <path d="M 148.001989 242.199903 
L 139.201989 237.799903 
L 148.001989 233.399903 
" style="fill:none;stroke:#000000;stroke-linecap:round;"/>
    <path d="M 258.086535 233.399903 
L 266.886535 237.799903 
L 258.086535 242.199903 
" style="fill:none;stroke:#000000;stroke-linecap:round;"/>
   </g>
   <g id="text_9">
    <!-- bande -->
    <defs>
     <path d="M 40.90625 29.34375 
C 40.90625 35.671875 39.40625 44 28.09375 44 
C 21.703125 44 17.5 40.6875 14.703125 37.28125 
L 14.703125 43.484375 
L 7.40625 43.484375 
L 7.40625 0 
L 15 0 
L 15 24.3125 
C 15 30.65625 17.40625 37.890625 24.203125 37.890625 
C 33 37.890625 33.296875 31.953125 33.296875 28.53125 
L 33.296875 0 
L 40.90625 0 
z
" id="CMSS17-110"/>
     <path d="M 40.796875 69 
L 33.40625 69 
L 33.40625 38.984375 
C 30.296875 41.59375 25.203125 44 19.59375 44 
C 10.5 44 3.296875 34.046875 3.296875 21.484375 
C 3.296875 8.9375 10.40625 -1 19.296875 -1 
C 26.203125 -1 30.796875 2.6875 33.203125 4.796875 
L 33.203125 -0.203125 
L 40.796875 -0.203125 
z
M 33.203125 13.296875 
C 33.203125 11.875 33.203125 10.359375 30.09375 7.625 
C 28.09375 5.90625 25.703125 5.09375 23.40625 5.09375 
C 18 5.09375 10.90625 9.140625 10.90625 21.390625 
C 10.90625 34.140625 18.90625 37.890625 24.40625 37.890625 
C 28.09375 37.890625 31.09375 36.0625 33.203125 33.03125 
z
" id="CMSS17-100"/>
    </defs>
    <g transform="translate(182.239664 259.340225)scale(0.18 -0.18)">
     <use transform="scale(0.996264)" xlink:href="#CMSS17-98"/>
     <use transform="translate(48.204943 0)scale(0.996264)" xlink:href="#CMSS17-97"/>
     <use transform="translate(93.126864 0)scale(0.996264)" xlink:href="#CMSS17-110"/>
     <use transform="translate(141.331807 0)scale(0.996264)" xlink:href="#CMSS17-100"/>
     <use transform="translate(189.53675 0)scale(0.996264)" xlink:href="#CMSS17-101"/>
    </g>
    <!-- passante -->
    <defs>
     <path d="M 15.09375 4.296875 
C 18.40625 1.09375 22.90625 -1 27.703125 -1 
C 37 -1 45 8.640625 45 21.59375 
C 45 33.546875 39 44 30.40625 44 
C 25.40625 44 19.40625 42.1875 14.90625 38.59375 
L 14.90625 43.1875 
L 7.5 43.1875 
L 7.5 -20 
L 15.09375 -20 
z
M 15.09375 32.625 
C 15.90625 33.84375 19.296875 37.6875 24.796875 37.6875 
C 31.796875 37.6875 37.40625 30.40625 37.40625 21.59375 
C 37.40625 11.578125 30.59375 5.09375 23.90625 5.09375 
C 21.90625 5.09375 19.796875 5.59375 17.796875 7.3125 
C 15.09375 9.75 15.09375 11.265625 15.09375 12.6875 
z
" id="CMSS17-112"/>
    </defs>
    <g transform="translate(173.025863 277.77225)scale(0.18 -0.18)">
     <use transform="scale(0.996264)" xlink:href="#CMSS17-112"/>
     <use transform="translate(48.204943 0)scale(0.996264)" xlink:href="#CMSS17-97"/>
     <use transform="translate(93.126864 0)scale(0.996264)" xlink:href="#CMSS17-115"/>
     <use transform="translate(129.040406 0)scale(0.996264)" xlink:href="#CMSS17-115"/>
     <use transform="translate(164.953948 0)scale(0.996264)" xlink:href="#CMSS17-97"/>
     <use transform="translate(209.875868 0)scale(0.996264)" xlink:href="#CMSS17-110"/>
     <use transform="translate(258.080811 0)scale(0.996264)" xlink:href="#CMSS17-116"/>
     <use transform="translate(291.912378 0)scale(0.996264)" xlink:href="#CMSS17-101"/>
    </g>
   </g>
   <g id="patch_6">
    <path d="M 273.123847 237.799903 
Q 294.355726 237.799903 315.587605 237.799903 
" style="fill:none;stroke:#000000;stroke-linecap:round;"/>
    <path d="M 281.923847 242.199903 
L 273.123847 237.799903 
L 281.923847 233.399903 
" style="fill:none;stroke:#000000;stroke-linecap:round;"/>
    <path d="M 306.787605 233.399903 
L 315.587605 237.799903 
L 306.787605 242.199903 
" style="fill:none;stroke:#000000;stroke-linecap:round;"/>
   </g>
   <g id="text_10">
    <!-- bande -->
    <g transform="translate(273.548755 259.340225)scale(0.18 -0.18)">
     <use transform="scale(0.996264)" xlink:href="#CMSS17-98"/>
     <use transform="translate(48.204943 0)scale(0.996264)" xlink:href="#CMSS17-97"/>
     <use transform="translate(93.126864 0)scale(0.996264)" xlink:href="#CMSS17-110"/>
     <use transform="translate(141.331807 0)scale(0.996264)" xlink:href="#CMSS17-100"/>
     <use transform="translate(189.53675 0)scale(0.996264)" xlink:href="#CMSS17-101"/>
    </g>
    <!-- de transition -->
    <defs>
     <path d="M 44.203125 21.1875 
C 44.203125 33.984375 34.703125 44 23.5 44 
C 12 44 2.703125 33.6875 2.703125 21.1875 
C 2.703125 8.5 12.296875 -1 23.40625 -1 
C 34.796875 -1 44.203125 8.796875 44.203125 21.1875 
z
M 23.5 5.296875 
C 16.40625 5.296875 10.296875 11.09375 10.296875 21.984375 
C 10.296875 33.59375 17.40625 37.890625 23.40625 37.890625 
C 29.90625 37.890625 36.59375 33.1875 36.59375 21.984375 
C 36.59375 10.6875 30.09375 5.296875 23.5 5.296875 
z
" id="CMSS17-111"/>
    </defs>
    <g transform="translate(250.335914 277.77225)scale(0.18 -0.18)">
     <use transform="scale(0.996264)" xlink:href="#CMSS17-100"/>
     <use transform="translate(48.204943 0)scale(0.996264)" xlink:href="#CMSS17-101"/>
     <use transform="translate(121.072878 0)scale(0.996264)" xlink:href="#CMSS17-116"/>
     <use transform="translate(154.904445 0)scale(0.996264)" xlink:href="#CMSS17-114"/>
     <use transform="translate(186.814217 0)scale(0.996264)" xlink:href="#CMSS17-97"/>
     <use transform="translate(231.736138 0)scale(0.996264)" xlink:href="#CMSS17-110"/>
     <use transform="translate(279.941081 0)scale(0.996264)" xlink:href="#CMSS17-115"/>
     <use transform="translate(315.854623 0)scale(0.996264)" xlink:href="#CMSS17-105"/>
     <use transform="translate(338.035346 0)scale(0.996264)" xlink:href="#CMSS17-116"/>
     <use transform="translate(371.866913 0)scale(0.996264)" xlink:href="#CMSS17-105"/>
     <use transform="translate(394.047636 0)scale(0.996264)" xlink:href="#CMSS17-111"/>
     <use transform="translate(440.891259 0)scale(0.996264)" xlink:href="#CMSS17-110"/>
    </g>
   </g>
   <g id="patch_7">
    <path d="M 321.820852 237.799903 
Q 430.302463 237.799903 538.784075 237.799903 
" style="fill:none;stroke:#000000;stroke-linecap:round;"/>
    <path d="M 330.620852 242.199903 
L 321.820852 237.799903 
L 330.620852 233.399903 
" style="fill:none;stroke:#000000;stroke-linecap:round;"/>
    <path d="M 529.984075 233.399903 
L 538.784075 237.799903 
L 529.984075 242.199903 
" style="fill:none;stroke:#000000;stroke-linecap:round;"/>
   </g>
   <g id="text_11">
    <!-- bande -->
    <g transform="translate(409.497846 259.340225)scale(0.18 -0.18)">
     <use transform="scale(0.996264)" xlink:href="#CMSS17-98"/>
     <use transform="translate(48.204943 0)scale(0.996264)" xlink:href="#CMSS17-97"/>
     <use transform="translate(93.126864 0)scale(0.996264)" xlink:href="#CMSS17-110"/>
     <use transform="translate(141.331807 0)scale(0.996264)" xlink:href="#CMSS17-100"/>
     <use transform="translate(189.53675 0)scale(0.996264)" xlink:href="#CMSS17-101"/>
    </g>
    <!-- atténuée -->
    <defs>
     <path d="M 40.90625 43 
L 33.296875 43 
L 33.296875 15.25 
C 33.296875 7.8125 27.90625 4.796875 22.203125 4.796875 
C 15.59375 4.796875 15 7 15 11.125 
L 15 43 
L 7.40625 43 
L 7.40625 10.625 
C 7.40625 2.796875 10.09375 -1 17 -1 
C 20.40625 -1 28.09375 -0.203125 33.5 4.796875 
L 33.5 -0.203125 
L 40.90625 -0.203125 
z
" id="CMSS17-117"/>
    </defs>
    <g transform="translate(400.251627 277.77225)scale(0.18 -0.18)">
     <use transform="scale(0.996264)" xlink:href="#CMSS17-97"/>
     <use transform="translate(44.921921 0)scale(0.996264)" xlink:href="#CMSS17-116"/>
     <use transform="translate(78.753487 0)scale(0.996264)" xlink:href="#CMSS17-116"/>
     <use transform="translate(109.982646 0)scale(0.996264)" xlink:href="#CMSS17-19"/>
     <use transform="translate(112.585054 0)scale(0.996264)" xlink:href="#CMSS17-101"/>
     <use transform="translate(154.223876 0)scale(0.996264)" xlink:href="#CMSS17-110"/>
     <use transform="translate(202.428819 0)scale(0.996264)" xlink:href="#CMSS17-117"/>
     <use transform="translate(248.031354 0)scale(0.996264)" xlink:href="#CMSS17-19"/>
     <use transform="translate(250.633762 0)scale(0.996264)" xlink:href="#CMSS17-101"/>
     <use transform="translate(292.272584 0)scale(0.996264)" xlink:href="#CMSS17-101"/>
    </g>
   </g>
   <g id="patch_8">
    <path d="M 351.16909 64.911907 
Q 351.16909 54.265214 351.16909 43.618521 
" style="fill:none;stroke:#ff7f0e;stroke-linecap:round;"/>
    <path d="M 355.56909 56.111907 
L 351.16909 64.911907 
L 346.76909 56.111907 
" style="fill:none;stroke:#ff7f0e;stroke-linecap:round;"/>
    <path d="M 346.76909 52.418521 
L 351.16909 43.618521 
L 355.56909 52.418521 
" style="fill:none;stroke:#ff7f0e;stroke-linecap:round;"/>
   </g>
   <g id="text_12">
    <!-- ondulation en bande passante -->
    <g style="fill:#ff7f0e;" transform="translate(359.285454 49.608596)scale(0.18 -0.18)">
     <use transform="scale(0.996264)" xlink:href="#CMSS17-111"/>
     <use transform="translate(46.843624 0)scale(0.996264)" xlink:href="#CMSS17-110"/>
     <use transform="translate(95.048567 0)scale(0.996264)" xlink:href="#CMSS17-100"/>
     <use transform="translate(143.25351 0)scale(0.996264)" xlink:href="#CMSS17-117"/>
     <use transform="translate(191.458453 0)scale(0.996264)" xlink:href="#CMSS17-108"/>
     <use transform="translate(213.639176 0)scale(0.996264)" xlink:href="#CMSS17-97"/>
     <use transform="translate(258.561097 0)scale(0.996264)" xlink:href="#CMSS17-116"/>
     <use transform="translate(292.392663 0)scale(0.996264)" xlink:href="#CMSS17-105"/>
     <use transform="translate(314.573386 0)scale(0.996264)" xlink:href="#CMSS17-111"/>
     <use transform="translate(361.41701 0)scale(0.996264)" xlink:href="#CMSS17-110"/>
     <use transform="translate(440.851066 0)scale(0.996264)" xlink:href="#CMSS17-101"/>
     <use transform="translate(482.489888 0)scale(0.996264)" xlink:href="#CMSS17-110"/>
     <use transform="translate(561.923944 0)scale(0.996264)" xlink:href="#CMSS17-98"/>
     <use transform="translate(610.128887 0)scale(0.996264)" xlink:href="#CMSS17-97"/>
     <use transform="translate(655.050807 0)scale(0.996264)" xlink:href="#CMSS17-110"/>
     <use transform="translate(703.255751 0)scale(0.996264)" xlink:href="#CMSS17-100"/>
     <use transform="translate(751.460694 0)scale(0.996264)" xlink:href="#CMSS17-101"/>
     <use transform="translate(824.328628 0)scale(0.996264)" xlink:href="#CMSS17-112"/>
     <use transform="translate(872.533572 0)scale(0.996264)" xlink:href="#CMSS17-97"/>
     <use transform="translate(917.455492 0)scale(0.996264)" xlink:href="#CMSS17-115"/>
     <use transform="translate(953.369034 0)scale(0.996264)" xlink:href="#CMSS17-115"/>
     <use transform="translate(989.282576 0)scale(0.996264)" xlink:href="#CMSS17-97"/>
     <use transform="translate(1034.204497 0)scale(0.996264)" xlink:href="#CMSS17-110"/>
     <use transform="translate(1082.40944 0)scale(0.996264)" xlink:href="#CMSS17-116"/>
     <use transform="translate(1116.241007 0)scale(0.996264)" xlink:href="#CMSS17-101"/>
    </g>
   </g>
   <g id="patch_9">
    <path d="M 481.030909 57.000825 
Q 481.030909 115.096959 481.030909 173.193093 
" style="fill:none;stroke:#ff7f0e;stroke-linecap:round;"/>
    <path d="M 476.630909 65.800825 
L 481.030909 57.000825 
L 485.430909 65.800825 
" style="fill:none;stroke:#ff7f0e;stroke-linecap:round;"/>
    <path d="M 485.430909 164.393093 
L 481.030909 173.193093 
L 476.630909 164.393093 
" style="fill:none;stroke:#ff7f0e;stroke-linecap:round;"/>
   </g>
   <g id="text_13">
    <!-- atténuation -->
    <g style="fill:#ff7f0e;" transform="translate(396.581795 119.581636)scale(0.18 -0.18)">
     <use transform="scale(0.996264)" xlink:href="#CMSS17-97"/>
     <use transform="translate(44.921921 0)scale(0.996264)" xlink:href="#CMSS17-116"/>
     <use transform="translate(78.753487 0)scale(0.996264)" xlink:href="#CMSS17-116"/>
     <use transform="translate(109.982646 0)scale(0.996264)" xlink:href="#CMSS17-19"/>
     <use transform="translate(112.585054 0)scale(0.996264)" xlink:href="#CMSS17-101"/>
     <use transform="translate(154.223876 0)scale(0.996264)" xlink:href="#CMSS17-110"/>
     <use transform="translate(202.428819 0)scale(0.996264)" xlink:href="#CMSS17-117"/>
     <use transform="translate(250.633762 0)scale(0.996264)" xlink:href="#CMSS17-97"/>
     <use transform="translate(295.555683 0)scale(0.996264)" xlink:href="#CMSS17-116"/>
     <use transform="translate(329.38725 0)scale(0.996264)" xlink:href="#CMSS17-105"/>
     <use transform="translate(351.567973 0)scale(0.996264)" xlink:href="#CMSS17-111"/>
     <use transform="translate(398.411596 0)scale(0.996264)" xlink:href="#CMSS17-110"/>
    </g>
   </g>
  </g>
 </g>
 <defs>
  <clipPath id="pe2cd25a5a6">
   <rect height="217.44" width="446.4" x="136.085454" y="29.117808"/>
  </clipPath>
 </defs>
</svg>
