<?xml version="1.0" encoding="utf-8" standalone="no"?>
<!DOCTYPE svg PUBLIC "-//W3C//DTD SVG 1.1//EN"
  "http://www.w3.org/Graphics/SVG/1.1/DTD/svg11.dtd">
<svg height="329.688pt" version="1.1" viewBox="0 0 829.8 329.688" width="829.8pt" xmlns="http://www.w3.org/2000/svg" xmlns:xlink="http://www.w3.org/1999/xlink">
 <metadata>
  <rdf:RDF xmlns:cc="http://creativecommons.org/ns#" xmlns:dc="http://purl.org/dc/elements/1.1/" xmlns:rdf="http://www.w3.org/1999/02/22-rdf-syntax-ns#">
   <cc:Work>
    <dc:type rdf:resource="http://purl.org/dc/dcmitype/StillImage"/>
    <dc:date>2024-09-09T19:55:25.381417</dc:date>
    <dc:format>image/svg+xml</dc:format>
    <dc:creator>
     <cc:Agent>
      <dc:title>Matplotlib v3.4.3, https://matplotlib.org/</dc:title>
     </cc:Agent>
    </dc:creator>
   </cc:Work>
  </rdf:RDF>
 </metadata>
 <defs>
  <style type="text/css">*{stroke-linecap:butt;stroke-linejoin:round;}</style>
 </defs>
 <g id="figure_1">
  <g id="patch_1">
   <path d="M 0 329.688 
L 829.8 329.688 
L 829.8 0 
L 0 0 
z
" style="fill:none;"/>
  </g>
  <g id="axes_1">
   <g id="patch_2">
    <path clip-path="url(#p043f6e8dc0)" d="M 115.92 132.228 
L 170.28 132.228 
L 170.28 77.868 
L 115.92 77.868 
z
" style="fill:#ffffff;stroke:#000000;stroke-linejoin:miter;"/>
   </g>
   <g id="patch_3">
    <path clip-path="url(#p043f6e8dc0)" d="M 224.64 186.588 
L 279 186.588 
L 279 132.228 
L 224.64 132.228 
z
" style="fill:#ffffff;stroke:#000000;stroke-linejoin:miter;"/>
   </g>
   <g id="patch_4">
    <path clip-path="url(#p043f6e8dc0)" d="M 333.36 50.688 
L 327.924 53.406 
L 327.924 50.71518 
L 61.56 50.71518 
L 61.56 50.66082 
L 327.924 50.66082 
L 327.924 47.97 
z
" style="stroke:#000000;stroke-linejoin:miter;stroke-width:0.5;"/>
   </g>
   <g id="patch_5">
    <path clip-path="url(#p043f6e8dc0)" d="M 224.64 159.408 
L 219.204 162.126 
L 219.204 159.43518 
L 143.1 159.43518 
L 143.1 159.38082 
L 219.204 159.38082 
L 219.204 156.69 
z
" style="stroke:#000000;stroke-linejoin:miter;stroke-width:0.5;"/>
   </g>
   <g id="patch_6">
    <path clip-path="url(#p043f6e8dc0)" d="M 143.1 77.868 
L 140.382 72.432 
L 143.07282 72.432 
L 143.07282 50.688 
L 143.12718 50.688 
L 143.12718 72.432 
L 145.818 72.432 
z
" style="stroke:#000000;stroke-linejoin:miter;stroke-width:0.5;"/>
   </g>
   <g id="patch_7">
    <path clip-path="url(#p043f6e8dc0)" d="M 143.1 159.408 
L 143.1 159.408 
L 143.07282 159.408 
L 143.07282 132.228 
L 143.12718 132.228 
L 143.12718 159.408 
L 143.1 159.408 
z
" style="stroke:#000000;stroke-linejoin:miter;"/>
   </g>
   <g id="patch_8">
    <path clip-path="url(#p043f6e8dc0)" d="M 360.54 159.408 
L 360.54 159.408 
L 360.54 159.43518 
L 279 159.43518 
L 279 159.38082 
L 360.54 159.38082 
L 360.54 159.408 
z
" style="stroke:#000000;stroke-linejoin:miter;"/>
   </g>
   <g id="patch_9">
    <path clip-path="url(#p043f6e8dc0)" d="M 360.54 77.868 
L 363.258 83.304 
L 360.56718 83.304 
L 360.56718 159.408 
L 360.51282 159.408 
L 360.51282 83.304 
L 357.822 83.304 
z
" style="stroke:#000000;stroke-linejoin:miter;stroke-width:0.5;"/>
   </g>
   <g id="patch_10">
    <path clip-path="url(#p043f6e8dc0)" d="M 442.08 50.688 
L 436.644 53.406 
L 436.644 50.71518 
L 387.72 50.71518 
L 387.72 50.66082 
L 436.644 50.66082 
L 436.644 47.97 
z
" style="stroke:#000000;stroke-linejoin:miter;stroke-width:0.5;"/>
   </g>
   <g id="patch_11">
    <path clip-path="url(#p043f6e8dc0)" d="M 659.52 132.228 
L 713.88 132.228 
L 713.88 77.868 
L 659.52 77.868 
z
" style="fill:#ffffff;stroke:#000000;stroke-linejoin:miter;"/>
   </g>
   <g id="patch_12">
    <path clip-path="url(#p043f6e8dc0)" d="M 659.52 240.948 
L 713.88 240.948 
L 713.88 186.588 
L 659.52 186.588 
z
" style="fill:#ffffff;stroke:#000000;stroke-linejoin:miter;"/>
   </g>
   <g id="patch_13">
    <path clip-path="url(#p043f6e8dc0)" d="M 550.8 186.588 
L 605.16 186.588 
L 605.16 132.228 
L 550.8 132.228 
z
" style="fill:#ffffff;stroke:#000000;stroke-linejoin:miter;"/>
   </g>
   <g id="patch_14">
    <path clip-path="url(#p043f6e8dc0)" d="M 550.8 295.308 
L 605.16 295.308 
L 605.16 240.948 
L 550.8 240.948 
z
" style="fill:#ffffff;stroke:#000000;stroke-linejoin:miter;"/>
   </g>
   <g id="patch_15">
    <path clip-path="url(#p043f6e8dc0)" d="M 768.24 50.688 
L 762.804 53.406 
L 762.804 50.71518 
L 496.44 50.71518 
L 496.44 50.66082 
L 762.804 50.66082 
L 762.804 47.97 
z
" style="stroke:#000000;stroke-linejoin:miter;stroke-width:0.5;"/>
   </g>
   <g id="patch_16">
    <path clip-path="url(#p043f6e8dc0)" d="M 496.44 159.408 
L 501.876 156.69 
L 501.876 159.38082 
L 550.8 159.38082 
L 550.8 159.43518 
L 501.876 159.43518 
L 501.876 162.126 
z
" style="stroke:#000000;stroke-linejoin:miter;stroke-width:0.5;"/>
   </g>
   <g id="patch_17">
    <path clip-path="url(#p043f6e8dc0)" d="M 469.26 268.128 
L 469.26 268.128 
L 469.26 268.10082 
L 550.8 268.10082 
L 550.8 268.15518 
L 469.26 268.15518 
L 469.26 268.128 
z
" style="stroke:#000000;stroke-linejoin:miter;"/>
   </g>
   <g id="patch_18">
    <path clip-path="url(#p043f6e8dc0)" d="M 469.26 77.868 
L 471.978 83.304 
L 469.28718 83.304 
L 469.28718 132.228 
L 469.23282 132.228 
L 469.23282 83.304 
L 466.542 83.304 
z
" style="stroke:#000000;stroke-linejoin:miter;stroke-width:0.5;"/>
   </g>
   <g id="patch_19">
    <path clip-path="url(#p043f6e8dc0)" d="M 469.26 186.588 
L 471.978 192.024 
L 469.28718 192.024 
L 469.28718 268.128 
L 469.23282 268.128 
L 469.23282 192.024 
L 466.542 192.024 
z
" style="stroke:#000000;stroke-linejoin:miter;stroke-width:0.5;"/>
   </g>
   <g id="patch_20">
    <path clip-path="url(#p043f6e8dc0)" d="M 605.16 159.408 
L 610.596 156.69 
L 610.596 159.38082 
L 686.7 159.38082 
L 686.7 159.43518 
L 610.596 159.43518 
L 610.596 162.126 
z
" style="stroke:#000000;stroke-linejoin:miter;stroke-width:0.5;"/>
   </g>
   <g id="patch_21">
    <path clip-path="url(#p043f6e8dc0)" d="M 605.16 268.128 
L 610.596 265.41 
L 610.596 268.10082 
L 686.7 268.10082 
L 686.7 268.15518 
L 610.596 268.15518 
L 610.596 270.846 
z
" style="stroke:#000000;stroke-linejoin:miter;stroke-width:0.5;"/>
   </g>
   <g id="patch_22">
    <path clip-path="url(#p043f6e8dc0)" d="M 686.7 77.868 
L 683.982 72.432 
L 686.67282 72.432 
L 686.67282 50.688 
L 686.72718 50.688 
L 686.72718 72.432 
L 689.418 72.432 
z
" style="stroke:#000000;stroke-linejoin:miter;stroke-width:0.5;"/>
   </g>
   <g id="patch_23">
    <path clip-path="url(#p043f6e8dc0)" d="M 686.7 186.588 
L 683.982 181.152 
L 686.67282 181.152 
L 686.67282 132.228 
L 686.72718 132.228 
L 686.72718 181.152 
L 689.418 181.152 
z
" style="stroke:#000000;stroke-linejoin:miter;stroke-width:0.5;"/>
   </g>
   <g id="patch_24">
    <path clip-path="url(#p043f6e8dc0)" d="M 686.7 268.128 
L 686.7 268.128 
L 686.67282 268.128 
L 686.67282 240.948 
L 686.72718 240.948 
L 686.72718 268.128 
L 686.7 268.128 
z
" style="stroke:#000000;stroke-linejoin:miter;"/>
   </g>
   <g id="patch_25">
    <path clip-path="url(#p043f6e8dc0)" d="M 360.54 77.868 
C 367.74822 77.868 374.662181 75.004144 379.759162 69.907162 
C 384.856144 64.810181 387.72 57.89622 387.72 50.688 
C 387.72 43.47978 384.856144 36.565819 379.759162 31.468838 
C 374.662181 26.371856 367.74822 23.508 360.54 23.508 
C 353.33178 23.508 346.417819 26.371856 341.320838 31.468838 
C 336.223856 36.565819 333.36 43.47978 333.36 50.688 
C 333.36 57.89622 336.223856 64.810181 341.320838 69.907162 
C 346.417819 75.004144 353.33178 77.868 360.54 77.868 
z
" style="fill:#ffffff;stroke:#000000;stroke-linejoin:miter;"/>
   </g>
   <g id="patch_26">
    <path clip-path="url(#p043f6e8dc0)" d="M 469.26 77.868 
C 476.46822 77.868 483.382181 75.004144 488.479162 69.907162 
C 493.576144 64.810181 496.44 57.89622 496.44 50.688 
C 496.44 43.47978 493.576144 36.565819 488.479162 31.468838 
C 483.382181 26.371856 476.46822 23.508 469.26 23.508 
C 462.05178 23.508 455.137819 26.371856 450.040838 31.468838 
C 444.943856 36.565819 442.08 43.47978 442.08 50.688 
C 442.08 57.89622 444.943856 64.810181 450.040838 69.907162 
C 455.137819 75.004144 462.05178 77.868 469.26 77.868 
z
" style="fill:#ffffff;stroke:#000000;stroke-linejoin:miter;"/>
   </g>
   <g id="patch_27">
    <path clip-path="url(#p043f6e8dc0)" d="M 469.26 186.588 
C 476.46822 186.588 483.382181 183.724144 488.479162 178.627162 
C 493.576144 173.530181 496.44 166.61622 496.44 159.408 
C 496.44 152.19978 493.576144 145.285819 488.479162 140.188838 
C 483.382181 135.091856 476.46822 132.228 469.26 132.228 
C 462.05178 132.228 455.137819 135.091856 450.040838 140.188838 
C 444.943856 145.285819 442.08 152.19978 442.08 159.408 
C 442.08 166.61622 444.943856 173.530181 450.040838 178.627162 
C 455.137819 183.724144 462.05178 186.588 469.26 186.588 
z
" style="fill:#ffffff;stroke:#000000;stroke-linejoin:miter;"/>
   </g>
   <g id="text_1">
    <!-- $z^{-1}$ -->
    <g transform="translate(127.904785 110.526753)scale(0.22 -0.22)">
     <defs>
      <path d="M 813 486 
C 1088 809 1312 1015 1632 1313 
C 2016 1657 2182 1822 2272 1922 
C 2720 2371 2944 2713 2944 2764 
C 2944 2816 2893 2816 2880 2816 
C 2835 2816 2822 2790 2790 2745 
C 2630 2470 2477 2368 2310 2368 
C 2176 2368 2106 2403 1984 2547 
C 1850 2707 1741 2816 1555 2816 
C 1088 2816 806 2265 806 2127 
C 806 2107 813 2067 870 2067 
C 922 2067 928 2094 947 2140 
C 1056 2387 1363 2415 1485 2415 
C 1619 2415 1747 2387 1882 2342 
C 2125 2239 2227 2239 2291 2239 
C 2336 2239 2362 2239 2394 2246 
C 2182 1988 1837 1670 1549 1399 
L 902 783 
C 512 380 275 32 275 -13 
C 275 -52 307 -64 346 -64 
C 384 -64 390 -58 435 19 
C 538 179 742 384 979 384 
C 1114 384 1178 356 1306 211 
C 1427 70 1536 -64 1741 -64 
C 2368 -64 2726 723 2726 876 
C 2726 902 2720 942 2656 942 
C 2605 942 2598 915 2579 849 
C 2438 460 2061 336 1811 336 
C 1677 336 1549 364 1414 409 
C 1158 512 1088 512 1005 512 
C 941 512 870 512 813 486 
z
" id="CMMI12-7a" transform="scale(0.015625)"/>
      <path d="M 4218 1472 
C 4326 1472 4442 1472 4442 1600 
C 4442 1728 4326 1728 4218 1728 
L 755 1728 
C 646 1728 531 1728 531 1600 
C 531 1472 646 1472 755 1472 
L 4218 1472 
z
" id="CMSY10-0" transform="scale(0.015625)"/>
      <path d="M 1702 4083 
C 1702 4217 1696 4224 1606 4224 
C 1357 3927 979 3833 621 3820 
C 602 3820 570 3820 563 3808 
C 557 3795 557 3782 557 3648 
C 755 3648 1088 3686 1344 3839 
L 1344 467 
C 1344 243 1331 166 781 166 
L 589 166 
L 589 0 
C 896 6 1216 12 1523 12 
C 1830 12 2150 6 2458 0 
L 2458 166 
L 2266 166 
C 1715 166 1702 236 1702 467 
L 1702 4083 
z
" id="CMR17-31" transform="scale(0.015625)"/>
     </defs>
     <use transform="scale(0.996264)" xlink:href="#CMMI12-7a"/>
     <use transform="translate(49.755145 36.153639)scale(0.697382)" xlink:href="#CMSY10-0"/>
     <use transform="translate(103.996138 36.153639)scale(0.697382)" xlink:href="#CMR17-31"/>
    </g>
   </g>
   <g id="text_2">
    <!-- $1$ -->
    <g transform="translate(246.794048 164.886753)scale(0.22 -0.22)">
     <use transform="scale(0.996264)" xlink:href="#CMR17-31"/>
    </g>
   </g>
   <g id="text_3">
    <!-- + -->
    <g transform="translate(352.524533 56.166753)scale(0.22 -0.22)">
     <defs>
      <path d="M 2451 1472 
L 4141 1472 
C 4230 1472 4339 1472 4339 1580 
C 4339 1696 4237 1696 4141 1696 
L 2451 1696 
L 2451 3385 
C 2451 3475 2451 3584 2342 3584 
C 2227 3584 2227 3481 2227 3385 
L 2227 1696 
L 531 1696 
C 442 1696 333 1696 333 1587 
C 333 1472 435 1472 531 1472 
L 2227 1472 
L 2227 -194 
C 2227 -282 2227 -391 2336 -391 
C 2451 -391 2451 -289 2451 -194 
L 2451 1472 
z
" id="CMSS17-2b" transform="scale(0.015625)"/>
     </defs>
     <use transform="scale(0.996264)" xlink:href="#CMSS17-2b"/>
    </g>
   </g>
   <g id="text_4">
    <!-- $x[n]$ -->
    <g transform="translate(16.405329 56.166753)scale(0.22 -0.22)">
     <defs>
      <path d="M 3034 2624 
C 2829 2585 2752 2431 2752 2310 
C 2752 2156 2874 2105 2963 2105 
C 3155 2105 3290 2271 3290 2444 
C 3290 2694 2982 2816 2714 2816 
C 2323 2816 2106 2451 2048 2329 
C 1901 2790 1504 2816 1389 2816 
C 736 2816 390 1993 390 1849 
C 390 1823 416 1790 461 1790 
C 512 1790 525 1829 538 1855 
C 755 2572 1184 2687 1370 2687 
C 1658 2687 1715 2438 1715 2284 
C 1715 2143 1677 1993 1600 1678 
L 1382 778 
C 1286 390 1101 64 762 64 
C 730 64 570 64 435 126 
C 666 166 717 358 717 435 
C 717 563 621 640 499 640 
C 346 640 179 505 179 300 
C 179 57 480 -64 755 -64 
C 1062 -64 1280 153 1414 415 
C 1517 64 1837 -64 2074 -64 
C 2726 -64 3072 751 3072 896 
C 3072 929 3046 955 3008 955 
C 2950 955 2944 922 2925 870 
C 2752 300 2381 64 2093 64 
C 1869 64 1747 204 1747 467 
C 1747 607 1773 712 1875 1146 
L 2099 2039 
C 2195 2425 2413 2687 2707 2687 
C 2720 2687 2899 2687 3034 2624 
z
" id="CMMI12-78" transform="scale(0.015625)"/>
      <path d="M 1504 -1600 
L 1504 -1376 
L 902 -1376 
L 902 4575 
L 1504 4575 
L 1504 4800 
L 678 4800 
L 678 -1600 
L 1504 -1600 
z
" id="CMR17-5b" transform="scale(0.015625)"/>
      <path d="M 1318 1870 
C 1331 1909 1491 2228 1728 2432 
C 1894 2585 2112 2687 2362 2687 
C 2618 2687 2707 2496 2707 2241 
C 2707 1877 2445 1149 2317 804 
C 2259 651 2227 568 2227 453 
C 2227 166 2426 -64 2733 -64 
C 3328 -64 3552 874 3552 913 
C 3552 945 3526 970 3488 970 
C 3430 970 3424 951 3392 842 
C 3245 319 3002 64 2752 64 
C 2688 64 2586 70 2586 274 
C 2586 434 2656 625 2694 715 
C 2822 1066 3091 1781 3091 2145 
C 3091 2528 2867 2816 2381 2816 
C 1811 2816 1510 2413 1395 2253 
C 1376 2617 1114 2816 832 2816 
C 627 2816 486 2694 378 2477 
C 262 2247 173 1864 173 1838 
C 173 1813 198 1781 243 1781 
C 294 1781 301 1787 339 1934 
C 442 2324 557 2687 813 2687 
C 960 2687 1011 2585 1011 2394 
C 1011 2253 947 2004 902 1807 
L 723 1117 
C 698 996 627 708 595 593 
C 550 427 480 127 480 95 
C 480 6 550 -64 646 -64 
C 723 -64 813 -26 864 70 
C 877 102 934 325 966 453 
L 1107 1028 
L 1318 1870 
z
" id="CMMI12-6e" transform="scale(0.015625)"/>
      <path d="M 915 4800 
L 90 4800 
L 90 4575 
L 691 4575 
L 691 -1376 
L 90 -1376 
L 90 -1600 
L 915 -1600 
L 915 4800 
z
" id="CMR17-5d" transform="scale(0.015625)"/>
     </defs>
     <use transform="scale(0.996264)" xlink:href="#CMMI12-78"/>
     <use transform="translate(55.43406 0)scale(0.996264)" xlink:href="#CMR17-5b"/>
     <use transform="translate(80.305118 0)scale(0.996264)" xlink:href="#CMMI12-6e"/>
     <use transform="translate(138.535165 0)scale(0.996264)" xlink:href="#CMR17-5d"/>
    </g>
   </g>
   <g id="text_5">
    <!-- $z^{-1}$ -->
    <g transform="translate(671.504785 110.526753)scale(0.22 -0.22)">
     <use transform="scale(0.996264)" xlink:href="#CMMI12-7a"/>
     <use transform="translate(49.755145 36.153639)scale(0.697382)" xlink:href="#CMSY10-0"/>
     <use transform="translate(103.996138 36.153639)scale(0.697382)" xlink:href="#CMR17-31"/>
    </g>
   </g>
   <g id="text_6">
    <!-- $z^{-1}$ -->
    <g transform="translate(671.504785 219.246753)scale(0.22 -0.22)">
     <use transform="scale(0.996264)" xlink:href="#CMMI12-7a"/>
     <use transform="translate(49.755145 36.153639)scale(0.697382)" xlink:href="#CMSY10-0"/>
     <use transform="translate(103.996138 36.153639)scale(0.697382)" xlink:href="#CMR17-31"/>
    </g>
   </g>
   <g id="text_7">
    <!-- $-2$ -->
    <g transform="translate(564.430431 164.886753)scale(0.22 -0.22)">
     <defs>
      <path d="M 2669 990 
L 2554 990 
C 2490 537 2438 460 2413 422 
C 2381 371 1920 371 1830 371 
L 602 371 
C 832 620 1280 1073 1824 1596 
C 2214 1966 2669 2400 2669 3033 
C 2669 3788 2067 4224 1395 4224 
C 691 4224 262 3603 262 3027 
C 262 2777 448 2745 525 2745 
C 589 2745 781 2783 781 3007 
C 781 3206 614 3264 525 3264 
C 486 3264 448 3257 422 3244 
C 544 3788 915 4057 1306 4057 
C 1862 4057 2227 3616 2227 3033 
C 2227 2477 1901 1998 1536 1583 
L 262 147 
L 262 0 
L 2515 0 
L 2669 990 
z
" id="CMR17-32" transform="scale(0.015625)"/>
     </defs>
     <use transform="scale(0.996264)" xlink:href="#CMSY10-0"/>
     <use transform="translate(77.487468 0)scale(0.996264)" xlink:href="#CMR17-32"/>
    </g>
   </g>
   <g id="text_8">
    <!-- $-1$ -->
    <g transform="translate(564.430431 273.606753)scale(0.22 -0.22)">
     <use transform="scale(0.996264)" xlink:href="#CMSY10-0"/>
     <use transform="translate(77.487468 0)scale(0.996264)" xlink:href="#CMR17-31"/>
    </g>
   </g>
   <g id="text_9">
    <!-- + -->
    <g transform="translate(461.244533 56.166753)scale(0.22 -0.22)">
     <use transform="scale(0.996264)" xlink:href="#CMSS17-2b"/>
    </g>
   </g>
   <g id="text_10">
    <!-- + -->
    <g transform="translate(461.244533 164.886753)scale(0.22 -0.22)">
     <use transform="scale(0.996264)" xlink:href="#CMSS17-2b"/>
    </g>
   </g>
   <g id="text_11">
    <!-- $y[n]$ -->
    <g transform="translate(777.917816 56.166753)scale(0.22 -0.22)">
     <defs>
      <path d="M 1683 -673 
C 1510 -921 1261 -1152 947 -1152 
C 870 -1152 563 -1139 467 -826 
C 486 -833 518 -833 531 -833 
C 723 -833 851 -666 851 -519 
C 851 -372 730 -320 634 -320 
C 531 -320 307 -397 307 -711 
C 307 -1050 582 -1280 947 -1280 
C 1587 -1280 2234 -673 2413 -7 
L 3040 2483 
C 3046 2515 3059 2553 3059 2591 
C 3059 2687 2982 2752 2886 2752 
C 2829 2752 2694 2726 2643 2534 
L 2170 657 
C 2138 542 2138 530 2086 459 
C 1958 281 1747 64 1440 64 
C 1082 64 1050 415 1050 587 
C 1050 951 1222 1443 1395 1902 
C 1466 2087 1504 2177 1504 2305 
C 1504 2573 1312 2816 998 2816 
C 410 2816 173 1890 173 1838 
C 173 1813 198 1781 243 1781 
C 301 1781 307 1807 333 1896 
C 486 2432 730 2687 979 2687 
C 1037 2687 1146 2687 1146 2477 
C 1146 2311 1075 2126 979 1883 
C 666 1047 666 836 666 683 
C 666 76 1101 -64 1421 -64 
C 1606 -64 1837 -7 2061 230 
L 2067 223 
C 1971 -141 1907 -359 1683 -673 
z
" id="CMMI12-79" transform="scale(0.015625)"/>
     </defs>
     <use transform="scale(0.996264)" xlink:href="#CMMI12-79"/>
     <use transform="translate(51.138781 0)scale(0.996264)" xlink:href="#CMR17-5b"/>
     <use transform="translate(76.009839 0)scale(0.996264)" xlink:href="#CMMI12-6e"/>
     <use transform="translate(134.239887 0)scale(0.996264)" xlink:href="#CMR17-5d"/>
    </g>
   </g>
   <g id="text_12">
    <!-- $H_1$ -->
    <g transform="translate(402.253622 300.786753)scale(0.22 -0.22)">
     <defs>
      <path d="M 4787 3886 
C 4845 4102 4858 4166 5312 4166 
C 5427 4166 5491 4166 5491 4281 
C 5491 4352 5434 4352 5395 4352 
C 5280 4352 5146 4339 5024 4339 
L 4269 4339 
C 4147 4339 4013 4352 3891 4352 
C 3846 4352 3770 4352 3770 4230 
C 3770 4166 3814 4166 3936 4166 
C 4320 4166 4320 4115 4320 4045 
C 4320 4032 4320 3994 4294 3899 
L 3904 2361 
L 1971 2361 
L 2355 3886 
C 2413 4102 2426 4166 2880 4166 
C 2995 4166 3059 4166 3059 4281 
C 3059 4352 3002 4352 2963 4352 
C 2848 4352 2714 4339 2592 4339 
L 1837 4339 
C 1715 4339 1581 4352 1459 4352 
C 1414 4352 1338 4352 1338 4230 
C 1338 4166 1382 4166 1504 4166 
C 1888 4166 1888 4115 1888 4045 
C 1888 4032 1888 3994 1862 3899 
L 998 472 
C 941 249 928 185 486 185 
C 339 185 294 185 294 64 
C 294 0 365 0 384 0 
C 499 0 634 12 755 12 
L 1510 12 
C 1632 12 1766 0 1888 0 
C 1939 0 2010 0 2010 121 
C 2010 185 1952 185 1856 185 
C 1466 185 1466 236 1466 300 
C 1466 306 1466 351 1478 402 
L 1920 2176 
L 3859 2176 
C 3750 1755 3424 421 3411 383 
C 3341 191 3238 191 2861 185 
C 2784 185 2726 185 2726 64 
C 2726 0 2797 0 2816 0 
C 2931 0 3066 12 3187 12 
L 3942 12 
C 4064 12 4198 0 4320 0 
C 4371 0 4442 0 4442 121 
C 4442 185 4384 185 4288 185 
C 3898 185 3898 236 3898 300 
C 3898 306 3898 351 3910 402 
L 4787 3886 
z
" id="CMMI12-48" transform="scale(0.015625)"/>
     </defs>
     <use transform="scale(0.996264)" xlink:href="#CMMI12-48"/>
     <use transform="translate(80.824837 -14.943915)scale(0.697382)" xlink:href="#CMR17-31"/>
    </g>
   </g>
  </g>
 </g>
 <defs>
  <clipPath id="p043f6e8dc0">
   <rect height="315.288" width="815.4" x="7.2" y="7.2"/>
  </clipPath>
 </defs>
</svg>
