<?xml version="1.0" encoding="utf-8" standalone="no"?>
<!DOCTYPE svg PUBLIC "-//W3C//DTD SVG 1.1//EN"
  "http://www.w3.org/Graphics/SVG/1.1/DTD/svg11.dtd">
<svg xmlns:xlink="http://www.w3.org/1999/xlink" width="735.12pt" height="402.48pt" viewBox="0 0 735.12 402.48" xmlns="http://www.w3.org/2000/svg" version="1.1">
 <metadata>
  <rdf:RDF xmlns:dc="http://purl.org/dc/elements/1.1/" xmlns:cc="http://creativecommons.org/ns#" xmlns:rdf="http://www.w3.org/1999/02/22-rdf-syntax-ns#">
   <cc:Work>
    <dc:type rdf:resource="http://purl.org/dc/dcmitype/StillImage"/>
    <dc:date>2025-09-26T12:52:11.027869</dc:date>
    <dc:format>image/svg+xml</dc:format>
    <dc:creator>
     <cc:Agent>
      <dc:title>Matplotlib v3.10.6, https://matplotlib.org/</dc:title>
     </cc:Agent>
    </dc:creator>
   </cc:Work>
  </rdf:RDF>
 </metadata>
 <defs>
  <style type="text/css">*{stroke-linejoin: round; stroke-linecap: butt}</style>
 </defs>
 <g id="figure_1">
  <g id="patch_1">
   <path d="M 0 402.48 
L 735.12 402.48 
L 735.12 -0 
L 0 -0 
z
" style="fill: #ffffff"/>
  </g>
  <g id="axes_1">
   <g id="patch_2">
    <path d="M 118.08 62.64 
L 112.536 65.412 
L 112.536 62.66772 
L 62.64 62.66772 
L 62.64 62.61228 
L 112.536 62.61228 
L 112.536 59.868 
z
" clip-path="url(#p1dac4f7f83)" style="stroke: #000000; stroke-width: 0.5; stroke-linejoin: miter"/>
   </g>
   <g id="patch_3">
    <path d="M 672.48 62.64 
L 666.936 65.412 
L 666.936 62.66772 
L 617.04 62.66772 
L 617.04 62.61228 
L 666.936 62.61228 
L 666.936 59.868 
z
" clip-path="url(#p1dac4f7f83)" style="stroke: #000000; stroke-width: 0.5; stroke-linejoin: miter"/>
   </g>
   <g id="patch_4">
    <path d="M 228.96 201.24 
L 284.4 201.24 
L 284.4 145.8 
L 228.96 145.8 
z
" clip-path="url(#p1dac4f7f83)" style="fill: #ffffff; stroke: #000000; stroke-linejoin: miter"/>
   </g>
   <g id="patch_5">
    <path d="M 228.96 312.12 
L 284.4 312.12 
L 284.4 256.68 
L 228.96 256.68 
z
" clip-path="url(#p1dac4f7f83)" style="fill: #ffffff; stroke: #000000; stroke-linejoin: miter"/>
   </g>
   <g id="patch_6">
    <path d="M 145.8 90.36 
C 153.15143 90.36 160.202754 87.439246 165.401 82.241 
C 170.599246 77.042754 173.52 69.99143 173.52 62.64 
C 173.52 55.28857 170.599246 48.237246 165.401 43.039 
C 160.202754 37.840754 153.15143 34.92 145.8 34.92 
C 138.44857 34.92 131.397246 37.840754 126.199 43.039 
C 121.000754 48.237246 118.08 55.28857 118.08 62.64 
C 118.08 69.99143 121.000754 77.042754 126.199 82.241 
C 131.397246 87.439246 138.44857 90.36 145.8 90.36 
z
" clip-path="url(#p1dac4f7f83)" style="fill: #ffffff; stroke: #000000; stroke-linejoin: miter"/>
   </g>
   <g id="patch_7">
    <path d="M 145.8 201.24 
C 153.15143 201.24 160.202754 198.319246 165.401 193.121 
C 170.599246 187.922754 173.52 180.87143 173.52 173.52 
C 173.52 166.16857 170.599246 159.117246 165.401 153.919 
C 160.202754 148.720754 153.15143 145.8 145.8 145.8 
C 138.44857 145.8 131.397246 148.720754 126.199 153.919 
C 121.000754 159.117246 118.08 166.16857 118.08 173.52 
C 118.08 180.87143 121.000754 187.922754 126.199 193.121 
C 131.397246 198.319246 138.44857 201.24 145.8 201.24 
z
" clip-path="url(#p1dac4f7f83)" style="fill: #ffffff; stroke: #000000; stroke-linejoin: miter"/>
   </g>
   <g id="patch_8">
    <path d="M 173.52 173.52 
L 179.064 170.748 
L 179.064 173.49228 
L 228.96 173.49228 
L 228.96 173.54772 
L 179.064 173.54772 
L 179.064 176.292 
z
" clip-path="url(#p1dac4f7f83)" style="stroke: #000000; stroke-width: 0.5; stroke-linejoin: miter"/>
   </g>
   <g id="patch_9">
    <path d="M 145.8 284.4 
L 145.8 284.4 
L 145.8 284.37228 
L 228.96 284.37228 
L 228.96 284.42772 
L 145.8 284.42772 
L 145.8 284.4 
z
" clip-path="url(#p1dac4f7f83)" style="stroke: #000000; stroke-linejoin: miter"/>
   </g>
   <g id="patch_10">
    <path d="M 145.8 90.36 
L 148.572 95.904 
L 145.82772 95.904 
L 145.82772 145.8 
L 145.77228 145.8 
L 145.77228 95.904 
L 143.028 95.904 
z
" clip-path="url(#p1dac4f7f83)" style="stroke: #000000; stroke-width: 0.5; stroke-linejoin: miter"/>
   </g>
   <g id="patch_11">
    <path d="M 145.8 201.24 
L 148.572 206.784 
L 145.82772 206.784 
L 145.82772 284.4 
L 145.77228 284.4 
L 145.77228 206.784 
L 143.028 206.784 
z
" clip-path="url(#p1dac4f7f83)" style="stroke: #000000; stroke-width: 0.5; stroke-linejoin: miter"/>
   </g>
   <g id="patch_12">
    <path d="M 284.4 173.52 
L 289.944 170.748 
L 289.944 173.49228 
L 367.56 173.49228 
L 367.56 173.54772 
L 289.944 173.54772 
L 289.944 176.292 
z
" clip-path="url(#p1dac4f7f83)" style="stroke: #000000; stroke-width: 0.5; stroke-linejoin: miter"/>
   </g>
   <g id="patch_13">
    <path d="M 284.4 284.4 
L 289.944 281.628 
L 289.944 284.37228 
L 367.56 284.37228 
L 367.56 284.42772 
L 289.944 284.42772 
L 289.944 287.172 
z
" clip-path="url(#p1dac4f7f83)" style="stroke: #000000; stroke-width: 0.5; stroke-linejoin: miter"/>
   </g>
   <g id="patch_14">
    <path d="M 339.84 145.8 
L 395.28 145.8 
L 395.28 90.36 
L 339.84 90.36 
z
" clip-path="url(#p1dac4f7f83)" style="fill: #ffffff; stroke: #000000; stroke-linejoin: miter"/>
   </g>
   <g id="patch_15">
    <path d="M 339.84 256.68 
L 395.28 256.68 
L 395.28 201.24 
L 339.84 201.24 
z
" clip-path="url(#p1dac4f7f83)" style="fill: #ffffff; stroke: #000000; stroke-linejoin: miter"/>
   </g>
   <g id="patch_16">
    <path d="M 561.6 62.64 
L 556.056 65.412 
L 556.056 62.66772 
L 173.52 62.66772 
L 173.52 62.61228 
L 556.056 62.61228 
L 556.056 59.868 
z
" clip-path="url(#p1dac4f7f83)" style="stroke: #000000; stroke-width: 0.5; stroke-linejoin: miter"/>
   </g>
   <g id="patch_17">
    <path d="M 367.56 90.36 
L 364.788 84.816 
L 367.53228 84.816 
L 367.53228 62.64 
L 367.58772 62.64 
L 367.58772 84.816 
L 370.332 84.816 
z
" clip-path="url(#p1dac4f7f83)" style="stroke: #000000; stroke-width: 0.5; stroke-linejoin: miter"/>
   </g>
   <g id="patch_18">
    <path d="M 367.56 201.24 
L 364.788 195.696 
L 367.53228 195.696 
L 367.53228 145.8 
L 367.58772 145.8 
L 367.58772 195.696 
L 370.332 195.696 
z
" clip-path="url(#p1dac4f7f83)" style="stroke: #000000; stroke-width: 0.5; stroke-linejoin: miter"/>
   </g>
   <g id="patch_19">
    <path d="M 367.56 284.4 
L 367.56 284.4 
L 367.53228 284.4 
L 367.53228 256.68 
L 367.58772 256.68 
L 367.58772 284.4 
L 367.56 284.4 
z
" clip-path="url(#p1dac4f7f83)" style="stroke: #000000; stroke-linejoin: miter"/>
   </g>
   <g id="patch_20">
    <path d="M 450.72 201.24 
L 506.16 201.24 
L 506.16 145.8 
L 450.72 145.8 
z
" clip-path="url(#p1dac4f7f83)" style="fill: #ffffff; stroke: #000000; stroke-linejoin: miter"/>
   </g>
   <g id="patch_21">
    <path d="M 450.72 312.12 
L 506.16 312.12 
L 506.16 256.68 
L 450.72 256.68 
z
" clip-path="url(#p1dac4f7f83)" style="fill: #ffffff; stroke: #000000; stroke-linejoin: miter"/>
   </g>
   <g id="patch_22">
    <path d="M 589.32 90.36 
C 596.67143 90.36 603.722754 87.439246 608.921 82.241 
C 614.119246 77.042754 617.04 69.99143 617.04 62.64 
C 617.04 55.28857 614.119246 48.237246 608.921 43.039 
C 603.722754 37.840754 596.67143 34.92 589.32 34.92 
C 581.96857 34.92 574.917246 37.840754 569.719 43.039 
C 564.520754 48.237246 561.6 55.28857 561.6 62.64 
C 561.6 69.99143 564.520754 77.042754 569.719 82.241 
C 574.917246 87.439246 581.96857 90.36 589.32 90.36 
z
" clip-path="url(#p1dac4f7f83)" style="fill: #ffffff; stroke: #000000; stroke-linejoin: miter"/>
   </g>
   <g id="patch_23">
    <path d="M 589.32 201.24 
C 596.67143 201.24 603.722754 198.319246 608.921 193.121 
C 614.119246 187.922754 617.04 180.87143 617.04 173.52 
C 617.04 166.16857 614.119246 159.117246 608.921 153.919 
C 603.722754 148.720754 596.67143 145.8 589.32 145.8 
C 581.96857 145.8 574.917246 148.720754 569.719 153.919 
C 564.520754 159.117246 561.6 166.16857 561.6 173.52 
C 561.6 180.87143 564.520754 187.922754 569.719 193.121 
C 574.917246 198.319246 581.96857 201.24 589.32 201.24 
z
" clip-path="url(#p1dac4f7f83)" style="fill: #ffffff; stroke: #000000; stroke-linejoin: miter"/>
   </g>
   <g id="patch_24">
    <path d="M 450.72 173.52 
L 445.176 176.292 
L 445.176 173.54772 
L 367.56 173.54772 
L 367.56 173.49228 
L 445.176 173.49228 
L 445.176 170.748 
z
" clip-path="url(#p1dac4f7f83)" style="stroke: #000000; stroke-width: 0.5; stroke-linejoin: miter"/>
   </g>
   <g id="patch_25">
    <path d="M 450.72 284.4 
L 445.176 287.172 
L 445.176 284.42772 
L 367.56 284.42772 
L 367.56 284.37228 
L 445.176 284.37228 
L 445.176 281.628 
z
" clip-path="url(#p1dac4f7f83)" style="stroke: #000000; stroke-width: 0.5; stroke-linejoin: miter"/>
   </g>
   <g id="patch_26">
    <path d="M 561.6 173.52 
L 556.056 176.292 
L 556.056 173.54772 
L 506.16 173.54772 
L 506.16 173.49228 
L 556.056 173.49228 
L 556.056 170.748 
z
" clip-path="url(#p1dac4f7f83)" style="stroke: #000000; stroke-width: 0.5; stroke-linejoin: miter"/>
   </g>
   <g id="patch_27">
    <path d="M 589.32 284.4 
L 589.32 284.4 
L 589.32 284.42772 
L 506.16 284.42772 
L 506.16 284.37228 
L 589.32 284.37228 
L 589.32 284.4 
z
" clip-path="url(#p1dac4f7f83)" style="stroke: #000000; stroke-linejoin: miter"/>
   </g>
   <g id="patch_28">
    <path d="M 589.32 90.36 
L 592.092 95.904 
L 589.34772 95.904 
L 589.34772 145.8 
L 589.29228 145.8 
L 589.29228 95.904 
L 586.548 95.904 
z
" clip-path="url(#p1dac4f7f83)" style="stroke: #000000; stroke-width: 0.5; stroke-linejoin: miter"/>
   </g>
   <g id="patch_29">
    <path d="M 589.32 201.24 
L 592.092 206.784 
L 589.34772 206.784 
L 589.34772 284.4 
L 589.29228 284.4 
L 589.29228 206.784 
L 586.548 206.784 
z
" clip-path="url(#p1dac4f7f83)" style="stroke: #000000; stroke-width: 0.5; stroke-linejoin: miter"/>
   </g>
   <g id="text_1">
    <!-- $x[n]$ -->
    <g transform="translate(16.945329 68.118753) scale(0.22 -0.22)">
     <defs>
      <path id="CMMI12-78" d="M 3034 2624 
C 2829 2585 2752 2431 2752 2310 
C 2752 2156 2874 2105 2963 2105 
C 3155 2105 3290 2271 3290 2444 
C 3290 2694 2982 2816 2714 2816 
C 2323 2816 2106 2451 2048 2329 
C 1901 2790 1504 2816 1389 2816 
C 736 2816 390 1993 390 1849 
C 390 1823 416 1790 461 1790 
C 512 1790 525 1829 538 1855 
C 755 2572 1184 2687 1370 2687 
C 1658 2687 1715 2438 1715 2284 
C 1715 2143 1677 1993 1600 1678 
L 1382 778 
C 1286 390 1101 64 762 64 
C 730 64 570 64 435 126 
C 666 166 717 358 717 435 
C 717 563 621 640 499 640 
C 346 640 179 505 179 300 
C 179 57 480 -64 755 -64 
C 1062 -64 1280 153 1414 415 
C 1517 64 1837 -64 2074 -64 
C 2726 -64 3072 751 3072 896 
C 3072 929 3046 955 3008 955 
C 2950 955 2944 922 2925 870 
C 2752 300 2381 64 2093 64 
C 1869 64 1747 204 1747 467 
C 1747 607 1773 712 1875 1146 
L 2099 2039 
C 2195 2425 2413 2687 2707 2687 
C 2720 2687 2899 2687 3034 2624 
z
" transform="scale(0.015625)"/>
      <path id="CMR17-5b" d="M 1504 -1600 
L 1504 -1376 
L 902 -1376 
L 902 4575 
L 1504 4575 
L 1504 4800 
L 678 4800 
L 678 -1600 
L 1504 -1600 
z
" transform="scale(0.015625)"/>
      <path id="CMMI12-6e" d="M 1318 1870 
C 1331 1909 1491 2228 1728 2432 
C 1894 2585 2112 2687 2362 2687 
C 2618 2687 2707 2496 2707 2241 
C 2707 1877 2445 1149 2317 804 
C 2259 651 2227 568 2227 453 
C 2227 166 2426 -64 2733 -64 
C 3328 -64 3552 874 3552 913 
C 3552 945 3526 970 3488 970 
C 3430 970 3424 951 3392 842 
C 3245 319 3002 64 2752 64 
C 2688 64 2586 70 2586 274 
C 2586 434 2656 625 2694 715 
C 2822 1066 3091 1781 3091 2145 
C 3091 2528 2867 2816 2381 2816 
C 1811 2816 1510 2413 1395 2253 
C 1376 2617 1114 2816 832 2816 
C 627 2816 486 2694 378 2477 
C 262 2247 173 1864 173 1838 
C 173 1813 198 1781 243 1781 
C 294 1781 301 1787 339 1934 
C 442 2324 557 2687 813 2687 
C 960 2687 1011 2585 1011 2394 
C 1011 2253 947 2004 902 1807 
L 723 1117 
C 698 996 627 708 595 593 
C 550 427 480 127 480 95 
C 480 6 550 -64 646 -64 
C 723 -64 813 -26 864 70 
C 877 102 934 325 966 453 
L 1107 1028 
L 1318 1870 
z
" transform="scale(0.015625)"/>
      <path id="CMR17-5d" d="M 915 4800 
L 90 4800 
L 90 4575 
L 691 4575 
L 691 -1376 
L 90 -1376 
L 90 -1600 
L 915 -1600 
L 915 4800 
z
" transform="scale(0.015625)"/>
     </defs>
     <use xlink:href="#CMMI12-78" transform="scale(0.996264)"/>
     <use xlink:href="#CMR17-5b" transform="translate(55.43406 0) scale(0.996264)"/>
     <use xlink:href="#CMMI12-6e" transform="translate(80.305118 0) scale(0.996264)"/>
     <use xlink:href="#CMR17-5d" transform="translate(138.535165 0) scale(0.996264)"/>
    </g>
   </g>
   <g id="text_2">
    <!-- $y[n]$ -->
    <g transform="translate(682.697816 68.118753) scale(0.22 -0.22)">
     <defs>
      <path id="CMMI12-79" d="M 1683 -673 
C 1510 -921 1261 -1152 947 -1152 
C 870 -1152 563 -1139 467 -826 
C 486 -833 518 -833 531 -833 
C 723 -833 851 -666 851 -519 
C 851 -372 730 -320 634 -320 
C 531 -320 307 -397 307 -711 
C 307 -1050 582 -1280 947 -1280 
C 1587 -1280 2234 -673 2413 -7 
L 3040 2483 
C 3046 2515 3059 2553 3059 2591 
C 3059 2687 2982 2752 2886 2752 
C 2829 2752 2694 2726 2643 2534 
L 2170 657 
C 2138 542 2138 530 2086 459 
C 1958 281 1747 64 1440 64 
C 1082 64 1050 415 1050 587 
C 1050 951 1222 1443 1395 1902 
C 1466 2087 1504 2177 1504 2305 
C 1504 2573 1312 2816 998 2816 
C 410 2816 173 1890 173 1838 
C 173 1813 198 1781 243 1781 
C 301 1781 307 1807 333 1896 
C 486 2432 730 2687 979 2687 
C 1037 2687 1146 2687 1146 2477 
C 1146 2311 1075 2126 979 1883 
C 666 1047 666 836 666 683 
C 666 76 1101 -64 1421 -64 
C 1606 -64 1837 -7 2061 230 
L 2067 223 
C 1971 -141 1907 -359 1683 -673 
z
" transform="scale(0.015625)"/>
     </defs>
     <use xlink:href="#CMMI12-79" transform="scale(0.996264)"/>
     <use xlink:href="#CMR17-5b" transform="translate(51.138781 0) scale(0.996264)"/>
     <use xlink:href="#CMMI12-6e" transform="translate(76.009839 0) scale(0.996264)"/>
     <use xlink:href="#CMR17-5d" transform="translate(134.239887 0) scale(0.996264)"/>
    </g>
   </g>
   <g id="text_3">
    <!-- $-1/4$ -->
    <g transform="translate(232.739237 178.999452) scale(0.22 -0.22)">
     <defs>
      <path id="CMSY10-0" d="M 4218 1472 
C 4326 1472 4442 1472 4442 1600 
C 4442 1728 4326 1728 4218 1728 
L 755 1728 
C 646 1728 531 1728 531 1600 
C 531 1472 646 1472 755 1472 
L 4218 1472 
z
" transform="scale(0.015625)"/>
      <path id="CMR17-31" d="M 1702 4083 
C 1702 4217 1696 4224 1606 4224 
C 1357 3927 979 3833 621 3820 
C 602 3820 570 3820 563 3808 
C 557 3795 557 3782 557 3648 
C 755 3648 1088 3686 1344 3839 
L 1344 467 
C 1344 243 1331 166 781 166 
L 589 166 
L 589 0 
C 896 6 1216 12 1523 12 
C 1830 12 2150 6 2458 0 
L 2458 166 
L 2266 166 
C 1715 166 1702 236 1702 467 
L 1702 4083 
z
" transform="scale(0.015625)"/>
      <path id="CMMI12-3d" d="M 2746 4563 
C 2746 4569 2784 4665 2784 4678 
C 2784 4755 2720 4800 2669 4800 
C 2637 4800 2579 4800 2528 4659 
L 384 -1364 
C 384 -1370 346 -1466 346 -1479 
C 346 -1556 410 -1600 461 -1600 
C 499 -1600 557 -1594 602 -1460 
L 2746 4563 
z
" transform="scale(0.015625)"/>
      <path id="CMR17-34" d="M 2150 4147 
C 2150 4281 2144 4288 2029 4288 
L 128 1254 
L 128 1088 
L 1779 1088 
L 1779 460 
C 1779 230 1766 166 1318 166 
L 1197 166 
L 1197 0 
C 1402 12 1747 12 1965 12 
C 2182 12 2528 12 2733 0 
L 2733 166 
L 2611 166 
C 2163 166 2150 230 2150 460 
L 2150 1088 
L 2803 1088 
L 2803 1254 
L 2150 1254 
L 2150 4147 
z
M 1798 3723 
L 1798 1254 
L 256 1254 
L 1798 3723 
z
" transform="scale(0.015625)"/>
     </defs>
     <use xlink:href="#CMSY10-0" transform="scale(0.996264)"/>
     <use xlink:href="#CMR17-31" transform="translate(77.487468 0) scale(0.996264)"/>
     <use xlink:href="#CMMI12-3d" transform="translate(123.177945 0) scale(0.996264)"/>
     <use xlink:href="#CMR17-34" transform="translate(171.952864 0) scale(0.996264)"/>
    </g>
   </g>
   <g id="text_4">
    <!-- $1/8$ -->
    <g transform="translate(241.262854 289.879452) scale(0.22 -0.22)">
     <defs>
      <path id="CMR17-38" d="M 1741 2289 
C 2144 2494 2554 2803 2554 3298 
C 2554 3884 1990 4224 1472 4224 
C 890 4224 378 3800 378 3215 
C 378 3054 416 2777 666 2533 
C 730 2469 998 2276 1171 2154 
C 883 2006 211 1652 211 945 
C 211 282 838 -128 1459 -128 
C 2144 -128 2720 366 2720 1022 
C 2720 1607 2330 1877 2074 2051 
L 1741 2289 
z
M 902 2855 
C 851 2887 595 3086 595 3388 
C 595 3781 998 4076 1459 4076 
C 1965 4076 2336 3716 2336 3298 
C 2336 2700 1670 2359 1638 2359 
C 1632 2359 1626 2359 1574 2398 
L 902 2855 
z
M 2080 1536 
C 2176 1466 2483 1253 2483 861 
C 2483 385 2010 25 1472 25 
C 890 25 448 443 448 951 
C 448 1459 838 1884 1280 2083 
L 2080 1536 
z
" transform="scale(0.015625)"/>
     </defs>
     <use xlink:href="#CMR17-31" transform="scale(0.996264)"/>
     <use xlink:href="#CMMI12-3d" transform="translate(45.690477 0) scale(0.996264)"/>
     <use xlink:href="#CMR17-38" transform="translate(94.465396 0) scale(0.996264)"/>
    </g>
   </g>
   <g id="text_5">
    <!-- + -->
    <g transform="translate(137.784533 68.118753) scale(0.22 -0.22)">
     <defs>
      <path id="CMSS17-2b" d="M 2451 1472 
L 4141 1472 
C 4230 1472 4339 1472 4339 1580 
C 4339 1696 4237 1696 4141 1696 
L 2451 1696 
L 2451 3385 
C 2451 3475 2451 3584 2342 3584 
C 2227 3584 2227 3481 2227 3385 
L 2227 1696 
L 531 1696 
C 442 1696 333 1696 333 1587 
C 333 1472 435 1472 531 1472 
L 2227 1472 
L 2227 -194 
C 2227 -282 2227 -391 2336 -391 
C 2451 -391 2451 -289 2451 -194 
L 2451 1472 
z
" transform="scale(0.015625)"/>
     </defs>
     <use xlink:href="#CMSS17-2b" transform="scale(0.996264)"/>
    </g>
   </g>
   <g id="text_6">
    <!-- + -->
    <g transform="translate(137.784533 178.998753) scale(0.22 -0.22)">
     <use xlink:href="#CMSS17-2b" transform="scale(0.996264)"/>
    </g>
   </g>
   <g id="text_7">
    <!-- $z^{-1}$ -->
    <g transform="translate(352.364785 123.558753) scale(0.22 -0.22)">
     <defs>
      <path id="CMMI12-7a" d="M 813 486 
C 1088 809 1312 1015 1632 1313 
C 2016 1657 2182 1822 2272 1922 
C 2720 2371 2944 2713 2944 2764 
C 2944 2816 2893 2816 2880 2816 
C 2835 2816 2822 2790 2790 2745 
C 2630 2470 2477 2368 2310 2368 
C 2176 2368 2106 2403 1984 2547 
C 1850 2707 1741 2816 1555 2816 
C 1088 2816 806 2265 806 2127 
C 806 2107 813 2067 870 2067 
C 922 2067 928 2094 947 2140 
C 1056 2387 1363 2415 1485 2415 
C 1619 2415 1747 2387 1882 2342 
C 2125 2239 2227 2239 2291 2239 
C 2336 2239 2362 2239 2394 2246 
C 2182 1988 1837 1670 1549 1399 
L 902 783 
C 512 380 275 32 275 -13 
C 275 -52 307 -64 346 -64 
C 384 -64 390 -58 435 19 
C 538 179 742 384 979 384 
C 1114 384 1178 356 1306 211 
C 1427 70 1536 -64 1741 -64 
C 2368 -64 2726 723 2726 876 
C 2726 902 2720 942 2656 942 
C 2605 942 2598 915 2579 849 
C 2438 460 2061 336 1811 336 
C 1677 336 1549 364 1414 409 
C 1158 512 1088 512 1005 512 
C 941 512 870 512 813 486 
z
" transform="scale(0.015625)"/>
     </defs>
     <use xlink:href="#CMMI12-7a" transform="scale(0.996264)"/>
     <use xlink:href="#CMSY10-0" transform="translate(49.755145 36.153639) scale(0.697382)"/>
     <use xlink:href="#CMR17-31" transform="translate(103.996138 36.153639) scale(0.697382)"/>
    </g>
   </g>
   <g id="text_8">
    <!-- $z^{-1}$ -->
    <g transform="translate(352.364785 234.438753) scale(0.22 -0.22)">
     <use xlink:href="#CMMI12-7a" transform="scale(0.996264)"/>
     <use xlink:href="#CMSY10-0" transform="translate(49.755145 36.153639) scale(0.697382)"/>
     <use xlink:href="#CMR17-31" transform="translate(103.996138 36.153639) scale(0.697382)"/>
    </g>
   </g>
   <g id="text_9">
    <!-- $-7/4$ -->
    <g transform="translate(454.499237 178.999452) scale(0.22 -0.22)">
     <defs>
      <path id="CMR17-37" d="M 2886 3955 
L 2886 4096 
L 1382 4096 
C 634 4096 621 4166 595 4288 
L 480 4288 
L 294 3104 
L 410 3104 
C 429 3226 474 3552 550 3673 
C 589 3724 1062 3724 1171 3724 
L 2579 3724 
L 1869 2670 
C 1395 1961 1069 1003 1069 166 
C 1069 89 1069 -128 1299 -128 
C 1530 -128 1530 89 1530 172 
L 1530 466 
C 1530 1514 1709 2204 2003 2644 
L 2886 3955 
z
" transform="scale(0.015625)"/>
     </defs>
     <use xlink:href="#CMSY10-0" transform="scale(0.996264)"/>
     <use xlink:href="#CMR17-37" transform="translate(77.487468 0) scale(0.996264)"/>
     <use xlink:href="#CMMI12-3d" transform="translate(123.177945 0) scale(0.996264)"/>
     <use xlink:href="#CMR17-34" transform="translate(171.952864 0) scale(0.996264)"/>
    </g>
   </g>
   <g id="text_10">
    <!-- $-1/2$ -->
    <g transform="translate(454.499237 289.879452) scale(0.22 -0.22)">
     <defs>
      <path id="CMR17-32" d="M 2669 990 
L 2554 990 
C 2490 537 2438 460 2413 422 
C 2381 371 1920 371 1830 371 
L 602 371 
C 832 620 1280 1073 1824 1596 
C 2214 1966 2669 2400 2669 3033 
C 2669 3788 2067 4224 1395 4224 
C 691 4224 262 3603 262 3027 
C 262 2777 448 2745 525 2745 
C 589 2745 781 2783 781 3007 
C 781 3206 614 3264 525 3264 
C 486 3264 448 3257 422 3244 
C 544 3788 915 4057 1306 4057 
C 1862 4057 2227 3616 2227 3033 
C 2227 2477 1901 1998 1536 1583 
L 262 147 
L 262 0 
L 2515 0 
L 2669 990 
z
" transform="scale(0.015625)"/>
     </defs>
     <use xlink:href="#CMSY10-0" transform="scale(0.996264)"/>
     <use xlink:href="#CMR17-31" transform="translate(77.487468 0) scale(0.996264)"/>
     <use xlink:href="#CMMI12-3d" transform="translate(123.177945 0) scale(0.996264)"/>
     <use xlink:href="#CMR17-32" transform="translate(171.952864 0) scale(0.996264)"/>
    </g>
   </g>
   <g id="text_11">
    <!-- + -->
    <g transform="translate(581.304533 68.118753) scale(0.22 -0.22)">
     <use xlink:href="#CMSS17-2b" transform="scale(0.996264)"/>
    </g>
   </g>
   <g id="text_12">
    <!-- + -->
    <g transform="translate(581.304533 178.998753) scale(0.22 -0.22)">
     <use xlink:href="#CMSS17-2b" transform="scale(0.996264)"/>
    </g>
   </g>
   <g id="text_13">
    <!-- $H_2$ -->
    <g transform="translate(354.913622 373.038753) scale(0.22 -0.22)">
     <defs>
      <path id="CMMI12-48" d="M 4787 3886 
C 4845 4102 4858 4166 5312 4166 
C 5427 4166 5491 4166 5491 4281 
C 5491 4352 5434 4352 5395 4352 
C 5280 4352 5146 4339 5024 4339 
L 4269 4339 
C 4147 4339 4013 4352 3891 4352 
C 3846 4352 3770 4352 3770 4230 
C 3770 4166 3814 4166 3936 4166 
C 4320 4166 4320 4115 4320 4045 
C 4320 4032 4320 3994 4294 3899 
L 3904 2361 
L 1971 2361 
L 2355 3886 
C 2413 4102 2426 4166 2880 4166 
C 2995 4166 3059 4166 3059 4281 
C 3059 4352 3002 4352 2963 4352 
C 2848 4352 2714 4339 2592 4339 
L 1837 4339 
C 1715 4339 1581 4352 1459 4352 
C 1414 4352 1338 4352 1338 4230 
C 1338 4166 1382 4166 1504 4166 
C 1888 4166 1888 4115 1888 4045 
C 1888 4032 1888 3994 1862 3899 
L 998 472 
C 941 249 928 185 486 185 
C 339 185 294 185 294 64 
C 294 0 365 0 384 0 
C 499 0 634 12 755 12 
L 1510 12 
C 1632 12 1766 0 1888 0 
C 1939 0 2010 0 2010 121 
C 2010 185 1952 185 1856 185 
C 1466 185 1466 236 1466 300 
C 1466 306 1466 351 1478 402 
L 1920 2176 
L 3859 2176 
C 3750 1755 3424 421 3411 383 
C 3341 191 3238 191 2861 185 
C 2784 185 2726 185 2726 64 
C 2726 0 2797 0 2816 0 
C 2931 0 3066 12 3187 12 
L 3942 12 
C 4064 12 4198 0 4320 0 
C 4371 0 4442 0 4442 121 
C 4442 185 4384 185 4288 185 
C 3898 185 3898 236 3898 300 
C 3898 306 3898 351 3910 402 
L 4787 3886 
z
" transform="scale(0.015625)"/>
     </defs>
     <use xlink:href="#CMMI12-48" transform="scale(0.996264)"/>
     <use xlink:href="#CMR17-32" transform="translate(80.824837 -14.943915) scale(0.697382)"/>
    </g>
   </g>
  </g>
 </g>
 <defs>
  <clipPath id="p1dac4f7f83">
   <rect x="7.2" y="7.2" width="720.72" height="388.08"/>
  </clipPath>
 </defs>
</svg>
