<?xml version="1.0" encoding="utf-8" standalone="no"?>
<!DOCTYPE svg PUBLIC "-//W3C//DTD SVG 1.1//EN"
  "http://www.w3.org/Graphics/SVG/1.1/DTD/svg11.dtd">
<!-- Created with matplotlib (https://matplotlib.org/) -->
<svg height="229.927412pt" version="1.1" viewBox="0 0 327.220763 229.927412" width="327.220763pt" xmlns="http://www.w3.org/2000/svg" xmlns:xlink="http://www.w3.org/1999/xlink">
 <defs>
  <style type="text/css">
*{stroke-linecap:butt;stroke-linejoin:round;}
  </style>
 </defs>
 <g id="figure_1">
  <g id="patch_1">
   <path d="M 0 229.927412 
L 327.220763 229.927412 
L 327.220763 -0 
L 0 -0 
z
" style="fill:#ffffff;"/>
  </g>
  <g id="axes_1">
   <g id="patch_2">
    <path clip-path="url(#pe9fd6ece96)" d="M 309.442451 150.192354 
L 305.983178 151.92199 
L 305.983178 150.20965 
L 67.29336 150.20965 
L 67.29336 150.175057 
L 305.983178 150.175057 
L 305.983178 148.462717 
z
" style="stroke:#000000;stroke-linejoin:miter;stroke-width:0.5;"/>
   </g>
   <g id="patch_3">
    <path clip-path="url(#pe9fd6ece96)" d="M 67.29336 29.117808 
L 69.022997 32.577081 
L 67.310657 32.577081 
L 67.310657 150.192354 
L 67.276064 150.192354 
L 67.276064 32.577081 
L 65.563724 32.577081 
z
" style="stroke:#000000;stroke-linejoin:miter;stroke-width:0.5;"/>
   </g>
   <g id="line2d_1">
    <path clip-path="url(#pe9fd6ece96)" d="M 67.29336 56.79199 
L 171.071542 56.79199 
L 171.071542 150.192354 
L 292.146087 150.192354 
" style="fill:none;stroke:#1f77b4;stroke-linecap:square;stroke-width:1.5;"/>
   </g>
   <g id="text_1">
    <!-- $K$ -->
    <defs>
     <path d="M 50 40.21875 
C 49.90625 40.515625 49.5 41.3125 49.5 41.609375 
C 49.5 41.703125 49.59375 41.796875 51.296875 43.09375 
L 61 50.65625 
C 74.40625 61.015625 78.796875 64.5 85.703125 65.09375 
C 86.40625 65.1875 87.40625 65.1875 87.40625 66.890625 
C 87.40625 67.484375 87.09375 68 86.296875 68 
C 85.203125 68 84 67.796875 82.90625 67.796875 
L 79.09375 67.796875 
C 76 67.796875 72.703125 68 69.703125 68 
C 69 68 67.796875 68 67.796875 66.1875 
C 67.796875 65.1875 68.5 65.09375 69.09375 65.09375 
C 70.203125 64.984375 71.5 64.59375 71.5 63.203125 
C 71.5 61.203125 68.5 58.828125 67.703125 58.21875 
L 28.5 27.875 
L 36.796875 60.71875 
C 37.703125 64.09375 37.90625 65.09375 45 65.09375 
C 46.90625 65.09375 47.796875 65.09375 47.796875 66.984375 
C 47.796875 68 46.796875 68 46.296875 68 
C 44.5 68 42.40625 67.796875 40.5 67.796875 
L 28.703125 67.796875 
C 26.90625 67.796875 24.703125 68 22.90625 68 
C 22.09375 68 21 68 21 66.09375 
C 21 65.09375 21.90625 65.09375 23.40625 65.09375 
C 29.5 65.09375 29.5 64.296875 29.5 63.203125 
C 29.5 63 29.5 62.40625 29.09375 60.90625 
L 15.59375 7.375 
C 14.703125 3.890625 14.5 2.890625 7.5 2.890625 
C 5.59375 2.890625 4.59375 2.890625 4.59375 1.09375 
C 4.59375 0 5.5 0 6.09375 0 
C 8 0 10 0.1875 11.90625 0.1875 
L 23.59375 0.1875 
C 25.5 0.1875 27.59375 0 29.5 0 
C 30.296875 0 31.40625 0 31.40625 1.890625 
C 31.40625 2.890625 30.5 2.890625 29 2.890625 
C 22.90625 2.890625 22.90625 3.6875 22.90625 4.6875 
C 22.90625 5.375 23.5 7.875 23.90625 9.453125 
L 27.796875 24.890625 
L 43 36.734375 
C 45.90625 30.359375 51.203125 17.625 55.296875 7.875 
C 55.59375 7.265625 55.796875 6.671875 55.796875 5.984375 
C 55.796875 2.984375 51.796875 2.890625 50.90625 2.890625 
C 50 2.890625 49 2.890625 49 1 
C 49 0 50.09375 0 50.40625 0 
C 53.90625 0 57.59375 0.1875 61.09375 0.1875 
L 65.90625 0.1875 
C 67.40625 0.1875 69.09375 0 70.59375 0 
C 71.203125 0 72.296875 0 72.296875 1.890625 
C 72.296875 2.890625 71.40625 2.890625 70.40625 2.890625 
C 66.703125 2.984375 65.40625 3.78125 63.90625 7.375 
z
" id="CMMI12-75"/>
    </defs>
    <g transform="translate(45.575713 62.270743)scale(0.22 -0.22)">
     <use transform="scale(0.996264)" xlink:href="#CMMI12-75"/>
    </g>
   </g>
   <g id="text_2">
    <!-- $f_c$ -->
    <defs>
     <path d="M 44.59375 40.09375 
C 46.59375 40.09375 47.40625 40.09375 47.40625 41.984375 
C 47.40625 43 46.59375 43 44.796875 43 
L 36.703125 43 
C 38.59375 53.09375 40 60.09375 40.796875 63.296875 
C 41.40625 65.6875 43.5 67.984375 46.09375 67.984375 
C 48.203125 67.984375 50.296875 67.09375 51.296875 66.1875 
C 47.40625 65.796875 46.203125 62.890625 46.203125 61.1875 
C 46.203125 59.1875 47.703125 58 49.59375 58 
C 51.59375 58 54.59375 59.6875 54.59375 63.5 
C 54.59375 67.6875 50.40625 70 46 70 
C 41.703125 70 37.5 66.796875 35.5 62.890625 
C 33.703125 59.390625 32.703125 55.828125 30.40625 43 
L 23.703125 43 
C 21.796875 43 20.796875 43 20.796875 41.1875 
C 20.796875 40.09375 21.40625 40.09375 23.40625 40.09375 
L 29.796875 40.09375 
C 28 30.890625 23.90625 8.515625 21.59375 -2.0625 
C 19.90625 -10.703125 18.40625 -18 13.40625 -18 
C 13.09375 -18 10.203125 -18 8.40625 -16.109375 
C 13.5 -15.703125 13.5 -11.3125 13.5 -11.203125 
C 13.5 -9.203125 12 -8 10.09375 -8 
C 8.09375 -8 5.09375 -9.703125 5.09375 -13.515625 
C 5.09375 -17.8125 9.5 -20 13.40625 -20 
C 23.59375 -20 27.796875 -1.765625 28.90625 3.171875 
C 30.703125 10.796875 35.59375 37.125 36.09375 40.09375 
z
" id="CMMI12-102"/>
     <path d="M 39.09375 38 
C 37.203125 38 36.296875 38 34.90625 36.796875 
C 34.296875 36.296875 33.203125 34.796875 33.203125 33.1875 
C 33.203125 31.1875 34.703125 29.984375 36.59375 29.984375 
C 39 29.984375 41.703125 31.984375 41.703125 35.984375 
C 41.703125 40.484375 37.09375 44 30.203125 44 
C 17.09375 44 4 30.1875 4 15.796875 
C 4 6.96875 9.40625 -1 19.59375 -1 
C 33.203125 -1 41.796875 9.71875 41.796875 11.03125 
C 41.796875 11.640625 41.203125 12.140625 40.796875 12.140625 
C 40.5 12.140625 40.40625 12.046875 39.5 11.125 
C 33.09375 2.515625 23.59375 1 19.796875 1 
C 12.90625 1 10.703125 7.078125 10.703125 12.140625 
C 10.703125 15.6875 12.40625 25.53125 16 32.390625 
C 18.59375 37.09375 24 41.984375 30.296875 41.984375 
C 31.59375 41.984375 37.09375 41.8125 39.09375 38 
z
" id="CMMI12-99"/>
    </defs>
    <g transform="translate(162.549696 168.87232)scale(0.22 -0.22)">
     <use transform="translate(0 14.943915)scale(0.996264)" xlink:href="#CMMI12-102"/>
     <use transform="translate(48.083238 0)scale(0.697382)" xlink:href="#CMMI12-99"/>
    </g>
   </g>
   <g id="text_3">
    <!-- $0$ -->
    <defs>
     <path d="M 42 31.84375 
C 42 37.96875 41.90625 48.421875 37.703125 56.453125 
C 34 63.484375 28.09375 66 22.90625 66 
C 18.09375 66 12 63.78125 8.203125 56.5625 
C 4.203125 49.015625 3.796875 39.671875 3.796875 31.84375 
C 3.796875 26.109375 3.90625 17.375 7 9.734375 
C 11.296875 -0.609375 19 -2 22.90625 -2 
C 27.5 -2 34.5 -0.109375 38.59375 9.4375 
C 41.59375 16.375 42 24.5 42 31.84375 
z
M 22.90625 -0.40625 
C 16.5 -0.40625 12.703125 5.125 11.296875 12.75 
C 10.203125 18.6875 10.203125 27.328125 10.203125 32.953125 
C 10.203125 40.6875 10.203125 47.109375 11.5 53.234375 
C 13.40625 61.78125 19 64.390625 22.90625 64.390625 
C 27 64.390625 32.296875 61.671875 34.203125 53.4375 
C 35.5 47.71875 35.59375 40.984375 35.59375 32.953125 
C 35.59375 26.421875 35.59375 18.375 34.40625 12.453125 
C 32.296875 1.5 26.40625 -0.40625 22.90625 -0.40625 
z
" id="CMR17-48"/>
    </defs>
    <g transform="translate(57.241455 165.413047)scale(0.22 -0.22)">
     <use transform="scale(0.996264)" xlink:href="#CMR17-48"/>
    </g>
   </g>
   <g id="text_4">
    <!-- $f$ -->
    <g transform="translate(309.442451 165.413047)scale(0.22 -0.22)">
     <use transform="scale(0.996264)" xlink:href="#CMMI12-102"/>
    </g>
   </g>
   <g id="text_5">
    <!-- $|H(f)|$ -->
    <defs>
     <path d="M 15.90625 71.390625 
C 15.90625 73.1875 15.90625 75 13.90625 75 
C 11.90625 75 11.90625 73.1875 11.90625 71.390625 
L 11.90625 -21.40625 
C 11.90625 -23.203125 11.90625 -25 13.90625 -25 
C 15.90625 -25 15.90625 -23.203125 15.90625 -21.40625 
z
" id="CMSY10-106"/>
     <path d="M 74.796875 60.71875 
C 75.703125 64.09375 75.90625 65.09375 83 65.09375 
C 84.796875 65.09375 85.796875 65.09375 85.796875 66.890625 
C 85.796875 68 84.90625 68 84.296875 68 
C 82.5 68 80.40625 67.796875 78.5 67.796875 
L 66.703125 67.796875 
C 64.796875 67.796875 62.703125 68 60.796875 68 
C 60.09375 68 58.90625 68 58.90625 66.09375 
C 58.90625 65.09375 59.59375 65.09375 61.5 65.09375 
C 67.5 65.09375 67.5 64.296875 67.5 63.203125 
C 67.5 63 67.5 62.40625 67.09375 60.921875 
L 61 36.890625 
L 30.796875 36.890625 
L 36.796875 60.71875 
C 37.703125 64.09375 37.90625 65.09375 45 65.09375 
C 46.796875 65.09375 47.796875 65.09375 47.796875 66.890625 
C 47.796875 68 46.90625 68 46.296875 68 
C 44.5 68 42.40625 67.796875 40.5 67.796875 
L 28.703125 67.796875 
C 26.796875 67.796875 24.703125 68 22.796875 68 
C 22.09375 68 20.90625 68 20.90625 66.09375 
C 20.90625 65.09375 21.59375 65.09375 23.5 65.09375 
C 29.5 65.09375 29.5 64.296875 29.5 63.203125 
C 29.5 63 29.5 62.40625 29.09375 60.921875 
L 15.59375 7.375 
C 14.703125 3.890625 14.5 2.890625 7.59375 2.890625 
C 5.296875 2.890625 4.59375 2.890625 4.59375 1 
C 4.59375 0 5.703125 0 6 0 
C 7.796875 0 9.90625 0.1875 11.796875 0.1875 
L 23.59375 0.1875 
C 25.5 0.1875 27.59375 0 29.5 0 
C 30.296875 0 31.40625 0 31.40625 1.890625 
C 31.40625 2.890625 30.5 2.890625 29 2.890625 
C 22.90625 2.890625 22.90625 3.6875 22.90625 4.6875 
C 22.90625 4.78125 22.90625 5.484375 23.09375 6.28125 
L 30 34 
L 60.296875 34 
C 58.59375 27.421875 53.5 6.578125 53.296875 5.984375 
C 52.203125 2.984375 50.59375 2.984375 44.703125 2.890625 
C 43.5 2.890625 42.59375 2.890625 42.59375 1 
C 42.59375 0 43.703125 0 44 0 
C 45.796875 0 47.90625 0.1875 49.796875 0.1875 
L 61.59375 0.1875 
C 63.5 0.1875 65.59375 0 67.5 0 
C 68.296875 0 69.40625 0 69.40625 1.890625 
C 69.40625 2.890625 68.5 2.890625 67 2.890625 
C 60.90625 2.890625 60.90625 3.6875 60.90625 4.6875 
C 60.90625 4.78125 60.90625 5.484375 61.09375 6.28125 
z
" id="CMMI12-72"/>
     <path d="M 30.59375 -24.40625 
C 30.59375 -24.3125 30.59375 -24.109375 30.296875 -23.8125 
C 25.703125 -19.109375 13.40625 -6.296875 13.40625 24.9375 
C 13.40625 56.171875 25.5 68.875 30.40625 73.890625 
C 30.40625 73.984375 30.59375 74.1875 30.59375 74.484375 
C 30.59375 74.796875 30.296875 75 29.90625 75 
C 28.796875 75 20.296875 67.578125 15.40625 56.5625 
C 10.40625 45.453125 9 34.65625 9 25.046875 
C 9 17.828125 9.703125 5.625 15.703125 -7.296875 
C 20.5 -17.703125 28.703125 -25 29.90625 -25 
C 30.40625 -25 30.59375 -24.8125 30.59375 -24.40625 
z
" id="CMR17-40"/>
     <path d="M 26.296875 24.9375 
C 26.296875 32.140625 25.59375 44.359375 19.59375 57.265625 
C 14.796875 67.6875 6.59375 75 5.40625 75 
C 5.09375 75 4.703125 74.890625 4.703125 74.390625 
C 4.703125 74.1875 4.796875 74.09375 4.90625 73.890625 
C 9.703125 68.875 21.90625 56.171875 21.90625 25.046875 
C 21.90625 -6.1875 9.796875 -18.90625 4.90625 -23.90625 
C 4.796875 -24.109375 4.703125 -24.203125 4.703125 -24.40625 
C 4.703125 -24.90625 5.09375 -25 5.40625 -25 
C 6.5 -25 15 -17.609375 19.90625 -6.59375 
C 24.90625 4.515625 26.296875 15.328125 26.296875 24.9375 
z
" id="CMR17-41"/>
    </defs>
    <g transform="translate(7.2 23.638356)scale(0.22 -0.22)">
     <use transform="scale(0.996264)" xlink:href="#CMSY10-106"/>
     <use transform="translate(27.674085 0)scale(0.996264)" xlink:href="#CMMI12-72"/>
     <use transform="translate(116.195857 0)scale(0.996264)" xlink:href="#CMR17-40"/>
     <use transform="translate(151.476625 0)scale(0.996264)" xlink:href="#CMMI12-102"/>
     <use transform="translate(210.19693 0)scale(0.996264)" xlink:href="#CMR17-41"/>
     <use transform="translate(245.477698 0)scale(0.996264)" xlink:href="#CMSY10-106"/>
    </g>
   </g>
   <g id="patch_4">
    <path d="M 70.409808 184.785081 
Q 119.183056 184.785081 167.956304 184.785081 
" style="fill:none;stroke:#000000;stroke-linecap:round;"/>
    <path d="M 79.209808 189.185081 
L 70.409808 184.785081 
L 79.209808 180.385081 
" style="fill:none;stroke:#000000;stroke-linecap:round;"/>
    <path d="M 159.156304 180.385081 
L 167.956304 184.785081 
L 159.156304 189.185081 
" style="fill:none;stroke:#000000;stroke-linecap:round;"/>
   </g>
   <g id="text_6">
    <!-- bande -->
    <defs>
     <path d="M 14.90625 69 
L 7.5 69 
L 7.5 -0.203125 
L 15.09375 -0.203125 
L 15.09375 4.296875 
C 18.90625 0.59375 23.5 -1 27.59375 -1 
C 37.203125 -1 45 8.734375 45 21.59375 
C 45 33.328125 39 44 30.09375 44 
C 23.796875 44 18.203125 41.390625 14.90625 38.6875 
z
M 15.09375 32.734375 
C 17.296875 35.5625 20.40625 37.890625 24.796875 37.890625 
C 30.703125 37.890625 37.40625 33.53125 37.40625 21.59375 
C 37.40625 8.84375 29.40625 5.09375 23.90625 5.09375 
C 21.90625 5.09375 19.796875 5.59375 17.796875 7.3125 
C 15.09375 9.75 15.09375 11.265625 15.09375 12.6875 
z
" id="CMSS17-98"/>
     <path d="M 37.59375 27.953125 
C 37.59375 37.484375 30.90625 44 21.90625 44 
C 17.5 44 12.703125 43.1875 7.203125 39.984375 
L 7.796875 33.328125 
C 10.296875 35.15625 14.59375 38.09375 21.796875 38.09375 
C 26.90625 38.09375 30 34.140625 30 27.84375 
L 30 24 
C 14 23.5 4 18.890625 4 11.109375 
C 4 7.0625 6.5 -1 14.796875 -1 
C 16.296875 -1 24.40625 -0.8125 30.203125 3.5 
L 30.203125 -0.203125 
L 37.59375 -0.203125 
z
M 30 12.875 
C 30 11.109375 30 8.734375 27 6.96875 
C 24.40625 5.296875 21.09375 5.09375 19.703125 5.09375 
C 14.703125 5.09375 11.296875 7.859375 11.296875 11.296875 
C 11.296875 18.203125 26.90625 18.890625 30 19 
z
" id="CMSS17-97"/>
     <path d="M 40.90625 29.34375 
C 40.90625 35.671875 39.40625 44 28.09375 44 
C 21.703125 44 17.5 40.6875 14.703125 37.28125 
L 14.703125 43.484375 
L 7.40625 43.484375 
L 7.40625 0 
L 15 0 
L 15 24.3125 
C 15 30.65625 17.40625 37.890625 24.203125 37.890625 
C 33 37.890625 33.296875 31.953125 33.296875 28.53125 
L 33.296875 0 
L 40.90625 0 
z
" id="CMSS17-110"/>
     <path d="M 40.796875 69 
L 33.40625 69 
L 33.40625 38.984375 
C 30.296875 41.59375 25.203125 44 19.59375 44 
C 10.5 44 3.296875 34.046875 3.296875 21.484375 
C 3.296875 8.9375 10.40625 -1 19.296875 -1 
C 26.203125 -1 30.796875 2.6875 33.203125 4.796875 
L 33.203125 -0.203125 
L 40.796875 -0.203125 
z
M 33.203125 13.296875 
C 33.203125 11.875 33.203125 10.359375 30.09375 7.625 
C 28.09375 5.90625 25.703125 5.09375 23.40625 5.09375 
C 18 5.09375 10.90625 9.140625 10.90625 21.390625 
C 10.90625 34.140625 18.90625 37.890625 24.40625 37.890625 
C 28.09375 37.890625 31.09375 36.0625 33.203125 33.03125 
z
" id="CMSS17-100"/>
     <path d="M 39.09375 21.484375 
C 39.09375 24.796875 38.90625 31.265625 35.703125 36.671875 
C 32.203125 42.390625 26.5 44 22.203125 44 
C 11.796875 44 3 34.125 3 21.296875 
C 3 9.046875 12.09375 -1 23.59375 -1 
C 28.09375 -1 33.59375 0.296875 38.59375 3.890625 
C 38.59375 4.296875 38.40625 6.46875 38.296875 6.578125 
C 38.296875 6.765625 38 9.828125 38 10.234375 
C 33.203125 6.375 27.703125 5.09375 23.703125 5.09375 
C 17.296875 5.09375 10.40625 10.421875 10.09375 21.484375 
z
M 10.90625 27 
C 12.203125 32.59375 16.59375 37.890625 22.203125 37.890625 
C 23.703125 37.890625 30.703125 37.6875 32.5 27 
z
" id="CMSS17-101"/>
    </defs>
    <g transform="translate(98.376661 200.807323)scale(0.18 -0.18)">
     <use transform="scale(0.996264)" xlink:href="#CMSS17-98"/>
     <use transform="translate(48.204943 0)scale(0.996264)" xlink:href="#CMSS17-97"/>
     <use transform="translate(93.126864 0)scale(0.996264)" xlink:href="#CMSS17-110"/>
     <use transform="translate(141.331807 0)scale(0.996264)" xlink:href="#CMSS17-100"/>
     <use transform="translate(189.53675 0)scale(0.996264)" xlink:href="#CMSS17-101"/>
    </g>
    <!-- passante -->
    <defs>
     <path d="M 15.09375 4.296875 
C 18.40625 1.09375 22.90625 -1 27.703125 -1 
C 37 -1 45 8.640625 45 21.59375 
C 45 33.546875 39 44 30.40625 44 
C 25.40625 44 19.40625 42.1875 14.90625 38.59375 
L 14.90625 43.1875 
L 7.5 43.1875 
L 7.5 -20 
L 15.09375 -20 
z
M 15.09375 32.625 
C 15.90625 33.84375 19.296875 37.6875 24.796875 37.6875 
C 31.796875 37.6875 37.40625 30.40625 37.40625 21.59375 
C 37.40625 11.578125 30.59375 5.09375 23.90625 5.09375 
C 21.90625 5.09375 19.796875 5.59375 17.796875 7.3125 
C 15.09375 9.75 15.09375 11.265625 15.09375 12.6875 
z
" id="CMSS17-112"/>
     <path d="M 32.203125 40.984375 
C 26.296875 43.796875 21.703125 44 18.703125 44 
C 11.59375 44 3.09375 41.484375 3.09375 31.390625 
C 3.09375 21.296875 14.09375 19.09375 17.09375 18.484375 
C 21.703125 17.59375 26.796875 16.59375 26.796875 11.59375 
C 26.796875 5.296875 19.59375 5.296875 18.296875 5.296875 
C 14.296875 5.296875 8.796875 6.390625 3.796875 9.984375 
L 2.59375 3.296875 
C 8.296875 0 13.796875 -1 18.40625 -1 
C 30.703125 -1 33.796875 6.5 33.796875 12.1875 
C 33.796875 17.09375 31 20.390625 29.09375 21.890625 
C 25.796875 24.484375 24.59375 24.796875 16.40625 26.484375 
C 15 26.6875 10.09375 27.796875 10.09375 32.296875 
C 10.09375 37.984375 16.40625 37.984375 17.796875 37.984375 
C 24.296875 37.984375 28.296875 35.984375 31 34.484375 
z
" id="CMSS17-115"/>
     <path d="M 16.703125 37.1875 
L 29.703125 37.1875 
L 29.703125 43 
L 16.703125 43 
L 16.703125 55 
L 9.59375 55 
L 9.59375 43 
L 1.703125 43 
L 1.703125 37.1875 
L 9.40625 37.1875 
L 9.40625 11.734375 
C 9.40625 6 10.703125 -1 17.296875 -1 
C 22.296875 -1 26.90625 0.390625 31.296875 2.6875 
L 29.703125 8.609375 
C 27.296875 6.5 24.40625 5.296875 21.296875 5.296875 
C 16.90625 5.296875 16.703125 10.921875 16.703125 13.4375 
z
" id="CMSS17-116"/>
    </defs>
    <g transform="translate(89.162861 219.239347)scale(0.18 -0.18)">
     <use transform="scale(0.996264)" xlink:href="#CMSS17-112"/>
     <use transform="translate(48.204943 0)scale(0.996264)" xlink:href="#CMSS17-97"/>
     <use transform="translate(93.126864 0)scale(0.996264)" xlink:href="#CMSS17-115"/>
     <use transform="translate(129.040406 0)scale(0.996264)" xlink:href="#CMSS17-115"/>
     <use transform="translate(164.953948 0)scale(0.996264)" xlink:href="#CMSS17-97"/>
     <use transform="translate(209.875868 0)scale(0.996264)" xlink:href="#CMSS17-110"/>
     <use transform="translate(258.080811 0)scale(0.996264)" xlink:href="#CMSS17-116"/>
     <use transform="translate(291.912378 0)scale(0.996264)" xlink:href="#CMSS17-101"/>
    </g>
   </g>
   <g id="patch_5">
    <path d="M 174.188518 184.785081 
Q 231.607147 184.785081 289.025775 184.785081 
" style="fill:none;stroke:#000000;stroke-linecap:round;"/>
    <path d="M 182.988518 189.185081 
L 174.188518 184.785081 
L 182.988518 180.385081 
" style="fill:none;stroke:#000000;stroke-linecap:round;"/>
    <path d="M 280.225775 180.385081 
L 289.025775 184.785081 
L 280.225775 189.185081 
" style="fill:none;stroke:#000000;stroke-linecap:round;"/>
   </g>
   <g id="text_7">
    <!-- bande -->
    <g transform="translate(210.803025 200.807323)scale(0.18 -0.18)">
     <use transform="scale(0.996264)" xlink:href="#CMSS17-98"/>
     <use transform="translate(48.204943 0)scale(0.996264)" xlink:href="#CMSS17-97"/>
     <use transform="translate(93.126864 0)scale(0.996264)" xlink:href="#CMSS17-110"/>
     <use transform="translate(141.331807 0)scale(0.996264)" xlink:href="#CMSS17-100"/>
     <use transform="translate(189.53675 0)scale(0.996264)" xlink:href="#CMSS17-101"/>
    </g>
    <!-- atténuée -->
    <defs>
     <path d="M 39.09375 69 
L 31.5 69 
L 19.09375 51.890625 
L 25.203125 51.890625 
z
" id="CMSS17-19"/>
     <path d="M 40.90625 43 
L 33.296875 43 
L 33.296875 15.25 
C 33.296875 7.8125 27.90625 4.796875 22.203125 4.796875 
C 15.59375 4.796875 15 7 15 11.125 
L 15 43 
L 7.40625 43 
L 7.40625 10.625 
C 7.40625 2.796875 10.09375 -1 17 -1 
C 20.40625 -1 28.09375 -0.203125 33.5 4.796875 
L 33.5 -0.203125 
L 40.90625 -0.203125 
z
" id="CMSS17-117"/>
    </defs>
    <g transform="translate(201.556806 219.239347)scale(0.18 -0.18)">
     <use transform="scale(0.996264)" xlink:href="#CMSS17-97"/>
     <use transform="translate(44.921921 0)scale(0.996264)" xlink:href="#CMSS17-116"/>
     <use transform="translate(78.753487 0)scale(0.996264)" xlink:href="#CMSS17-116"/>
     <use transform="translate(109.982646 0)scale(0.996264)" xlink:href="#CMSS17-19"/>
     <use transform="translate(112.585054 0)scale(0.996264)" xlink:href="#CMSS17-101"/>
     <use transform="translate(154.223876 0)scale(0.996264)" xlink:href="#CMSS17-110"/>
     <use transform="translate(202.428819 0)scale(0.996264)" xlink:href="#CMSS17-117"/>
     <use transform="translate(248.031354 0)scale(0.996264)" xlink:href="#CMSS17-19"/>
     <use transform="translate(250.633762 0)scale(0.996264)" xlink:href="#CMSS17-101"/>
     <use transform="translate(292.272584 0)scale(0.996264)" xlink:href="#CMSS17-101"/>
    </g>
   </g>
  </g>
 </g>
 <defs>
  <clipPath id="pe9fd6ece96">
   <rect height="190.26" width="259.445455" x="49.996997" y="29.117808"/>
  </clipPath>
 </defs>
</svg>
