<?xml version="1.0" encoding="utf-8" standalone="no"?>
<!DOCTYPE svg PUBLIC "-//W3C//DTD SVG 1.1//EN"
  "http://www.w3.org/Graphics/SVG/1.1/DTD/svg11.dtd">
<svg height="226.577808pt" version="1.1" viewBox="0 0 327.220763 226.577808" width="327.220763pt" xmlns="http://www.w3.org/2000/svg" xmlns:xlink="http://www.w3.org/1999/xlink">
 <metadata>
  <rdf:RDF xmlns:cc="http://creativecommons.org/ns#" xmlns:dc="http://purl.org/dc/elements/1.1/" xmlns:rdf="http://www.w3.org/1999/02/22-rdf-syntax-ns#">
   <cc:Work>
    <dc:type rdf:resource="http://purl.org/dc/dcmitype/StillImage"/>
    <dc:date>2021-09-28T12:58:25.013815</dc:date>
    <dc:format>image/svg+xml</dc:format>
    <dc:creator>
     <cc:Agent>
      <dc:title>Matplotlib v3.4.3, https://matplotlib.org/</dc:title>
     </cc:Agent>
    </dc:creator>
   </cc:Work>
  </rdf:RDF>
 </metadata>
 <defs>
  <style type="text/css">*{stroke-linecap:butt;stroke-linejoin:round;}</style>
 </defs>
 <g id="figure_1">
  <g id="patch_1">
   <path d="M 0 226.577808 
L 327.220763 226.577808 
L 327.220763 0 
L 0 0 
z
" style="fill:none;"/>
  </g>
  <g id="axes_1">
   <g id="patch_2">
    <path clip-path="url(#p280725a542)" d="M 309.442451 150.192354 
L 305.983178 151.92199 
L 305.983178 150.20965 
L 67.29336 150.20965 
L 67.29336 150.175057 
L 305.983178 150.175057 
L 305.983178 148.462717 
z
" style="stroke:#000000;stroke-linejoin:miter;stroke-width:0.5;"/>
   </g>
   <g id="patch_3">
    <path clip-path="url(#p280725a542)" d="M 67.29336 29.117808 
L 69.022997 32.577081 
L 67.310657 32.577081 
L 67.310657 150.192354 
L 67.276064 150.192354 
L 67.276064 32.577081 
L 65.563724 32.577081 
z
" style="stroke:#000000;stroke-linejoin:miter;stroke-width:0.5;"/>
   </g>
   <g id="line2d_1">
    <path clip-path="url(#p280725a542)" d="M 67.29336 56.79199 
L 292.146087 56.79199 
" style="fill:none;stroke:#1f77b4;stroke-linecap:square;stroke-width:1.5;"/>
   </g>
   <g id="text_1">
    <!-- $K$ -->
    <g transform="translate(45.575713 62.270743)scale(0.22 -0.22)">
     <defs>
      <path d="M 3200 2571 
C 3194 2590 3168 2641 3168 2661 
C 3168 2667 3174 2673 3283 2756 
L 3904 3242 
C 4762 3905 5043 4128 5485 4167 
C 5530 4167 5594 4167 5594 4282 
C 5594 4320 5574 4352 5523 4352 
C 5453 4352 5376 4352 5306 4352 
L 5062 4352 
C 4864 4352 4653 4352 4461 4352 
C 4416 4352 4339 4352 4339 4237 
C 4339 4173 4384 4167 4422 4167 
C 4493 4160 4576 4135 4576 4046 
C 4576 3919 4384 3765 4333 3727 
L 1824 1784 
L 2355 3887 
C 2413 4103 2426 4167 2880 4167 
C 3002 4167 3059 4167 3059 4288 
C 3059 4352 2995 4352 2963 4352 
C 2848 4352 2714 4352 2592 4352 
L 1837 4352 
C 1722 4352 1581 4352 1466 4352 
C 1414 4352 1344 4352 1344 4231 
C 1344 4167 1402 4167 1498 4167 
C 1888 4167 1888 4116 1888 4046 
C 1888 4034 1888 3995 1862 3899 
L 998 472 
C 941 249 928 185 480 185 
C 358 185 294 185 294 70 
C 294 0 352 0 390 0 
C 512 0 640 0 762 0 
L 1510 0 
C 1632 0 1766 0 1888 0 
C 1939 0 2010 0 2010 121 
C 2010 185 1952 185 1856 185 
C 1466 185 1466 236 1466 300 
C 1466 345 1504 504 1530 606 
L 1779 1593 
L 2752 2351 
C 2938 1943 3277 1128 3539 505 
C 3558 466 3571 428 3571 383 
C 3571 185 3315 185 3258 185 
C 3200 185 3136 185 3136 64 
C 3136 0 3206 0 3226 0 
C 3450 0 3686 0 3910 0 
L 4218 0 
C 4314 0 4422 0 4518 0 
C 4557 0 4627 0 4627 121 
C 4627 185 4570 185 4506 185 
C 4269 185 4186 236 4090 466 
L 3200 2571 
z
" id="CMMI12-4b" transform="scale(0.015625)"/>
     </defs>
     <use transform="scale(0.996264)" xlink:href="#CMMI12-4b"/>
    </g>
   </g>
   <g id="text_2">
    <!-- $0$ -->
    <g transform="translate(57.241455 165.413047)scale(0.22 -0.22)">
     <defs>
      <path d="M 2688 2025 
C 2688 2416 2682 3080 2413 3591 
C 2176 4039 1798 4198 1466 4198 
C 1158 4198 768 4058 525 3597 
C 269 3118 243 2524 243 2025 
C 243 1661 250 1106 448 619 
C 723 -39 1216 -128 1466 -128 
C 1760 -128 2208 -7 2470 600 
C 2662 1042 2688 1559 2688 2025 
z
M 1466 -26 
C 1056 -26 813 325 723 812 
C 653 1188 653 1738 653 2096 
C 653 2588 653 2997 736 3387 
C 858 3929 1216 4096 1466 4096 
C 1728 4096 2067 3923 2189 3400 
C 2272 3036 2278 2607 2278 2096 
C 2278 1680 2278 1169 2202 792 
C 2067 95 1690 -26 1466 -26 
z
" id="CMR17-30" transform="scale(0.015625)"/>
     </defs>
     <use transform="scale(0.996264)" xlink:href="#CMR17-30"/>
    </g>
   </g>
   <g id="text_3">
    <!-- $f$ -->
    <g transform="translate(309.442451 165.413047)scale(0.22 -0.22)">
     <defs>
      <path d="M 2854 2566 
C 2982 2566 3034 2566 3034 2688 
C 3034 2752 2982 2752 2867 2752 
L 2349 2752 
C 2470 3429 2560 3897 2611 4107 
C 2650 4265 2784 4416 2950 4416 
C 3085 4416 3219 4358 3283 4298 
C 3034 4272 2957 4082 2957 3969 
C 2957 3837 3053 3759 3174 3759 
C 3302 3759 3494 3870 3494 4119 
C 3494 4393 3226 4544 2944 4544 
C 2669 4544 2400 4334 2272 4078 
C 2157 3848 2093 3611 1946 2752 
L 1517 2752 
C 1395 2752 1331 2752 1331 2637 
C 1331 2566 1370 2566 1498 2566 
L 1907 2566 
C 1792 1976 1530 542 1382 -137 
C 1274 -689 1178 -1152 858 -1152 
C 838 -1152 653 -1152 538 -1031 
C 864 -1005 864 -726 864 -720 
C 864 -593 768 -517 646 -517 
C 518 -517 326 -625 326 -867 
C 326 -1140 608 -1280 858 -1280 
C 1510 -1280 1779 -118 1850 199 
C 1965 688 2278 2376 2310 2566 
L 2854 2566 
z
" id="CMMI12-66" transform="scale(0.015625)"/>
     </defs>
     <use transform="scale(0.996264)" xlink:href="#CMMI12-66"/>
    </g>
   </g>
   <g id="text_4">
    <!-- $|H(f)|$ -->
    <g transform="translate(7.2 23.638356)scale(0.22 -0.22)">
     <defs>
      <path d="M 1018 4570 
C 1018 4685 1018 4800 890 4800 
C 762 4800 762 4685 762 4570 
L 762 -1370 
C 762 -1485 762 -1600 890 -1600 
C 1018 -1600 1018 -1485 1018 -1370 
L 1018 4570 
z
" id="CMSY10-6a" transform="scale(0.015625)"/>
      <path d="M 4787 3887 
C 4845 4103 4858 4167 5312 4167 
C 5427 4167 5491 4167 5491 4282 
C 5491 4352 5434 4352 5395 4352 
C 5280 4352 5146 4352 5024 4352 
L 4269 4352 
C 4147 4352 4013 4352 3891 4352 
C 3846 4352 3770 4352 3770 4231 
C 3770 4167 3814 4167 3936 4167 
C 4320 4167 4320 4116 4320 4046 
C 4320 4034 4320 3995 4294 3900 
L 3904 2361 
L 1971 2361 
L 2355 3887 
C 2413 4103 2426 4167 2880 4167 
C 2995 4167 3059 4167 3059 4282 
C 3059 4352 3002 4352 2963 4352 
C 2848 4352 2714 4352 2592 4352 
L 1837 4352 
C 1715 4352 1581 4352 1459 4352 
C 1414 4352 1338 4352 1338 4231 
C 1338 4167 1382 4167 1504 4167 
C 1888 4167 1888 4116 1888 4046 
C 1888 4034 1888 3995 1862 3899 
L 998 472 
C 941 249 928 185 486 185 
C 339 185 294 185 294 64 
C 294 0 365 0 384 0 
C 499 0 634 0 755 0 
L 1510 0 
C 1632 0 1766 0 1888 0 
C 1939 0 2010 0 2010 121 
C 2010 185 1952 185 1856 185 
C 1466 185 1466 236 1466 300 
C 1466 307 1466 351 1478 402 
L 1920 2176 
L 3859 2176 
C 3750 1753 3424 416 3411 376 
C 3341 185 3238 185 2861 185 
C 2784 185 2726 185 2726 64 
C 2726 0 2797 0 2816 0 
C 2931 0 3066 0 3187 0 
L 3942 0 
C 4064 0 4198 0 4320 0 
C 4371 0 4442 0 4442 121 
C 4442 185 4384 185 4288 185 
C 3898 185 3898 236 3898 300 
C 3898 307 3898 351 3910 402 
L 4787 3887 
z
" id="CMMI12-48" transform="scale(0.015625)"/>
      <path d="M 1958 -1561 
C 1958 -1555 1958 -1542 1939 -1523 
C 1645 -1224 858 -407 858 1581 
C 858 3569 1632 4379 1946 4697 
C 1946 4704 1958 4717 1958 4736 
C 1958 4755 1939 4768 1914 4768 
C 1843 4768 1299 4296 986 3594 
C 666 2887 576 2199 576 1588 
C 576 1128 621 351 1005 -471 
C 1312 -1135 1837 -1600 1914 -1600 
C 1946 -1600 1958 -1587 1958 -1561 
z
" id="CMR17-28" transform="scale(0.015625)"/>
      <path d="M 1683 1581 
C 1683 2040 1638 2817 1254 3639 
C 947 4303 422 4768 346 4768 
C 326 4768 301 4761 301 4729 
C 301 4717 307 4710 314 4697 
C 621 4378 1402 3568 1402 1584 
C 1402 -407 627 -1217 314 -1537 
C 307 -1549 301 -1556 301 -1568 
C 301 -1600 326 -1600 346 -1600 
C 416 -1600 960 -1128 1274 -426 
C 1594 281 1683 969 1683 1581 
z
" id="CMR17-29" transform="scale(0.015625)"/>
     </defs>
     <use transform="scale(0.996264)" xlink:href="#CMSY10-6a"/>
     <use transform="translate(27.674085 0)scale(0.996264)" xlink:href="#CMMI12-48"/>
     <use transform="translate(116.195857 0)scale(0.996264)" xlink:href="#CMR17-28"/>
     <use transform="translate(151.476625 0)scale(0.996264)" xlink:href="#CMMI12-66"/>
     <use transform="translate(210.19693 0)scale(0.996264)" xlink:href="#CMR17-29"/>
     <use transform="translate(245.477698 0)scale(0.996264)" xlink:href="#CMSY10-6a"/>
    </g>
   </g>
  </g>
 </g>
 <defs>
  <clipPath id="p280725a542">
   <rect height="190.26" width="259.445455" x="49.996997" y="29.117808"/>
  </clipPath>
 </defs>
</svg>
