<?xml version="1.0" encoding="utf-8" standalone="no"?>
<!DOCTYPE svg PUBLIC "-//W3C//DTD SVG 1.1//EN"
  "http://www.w3.org/Graphics/SVG/1.1/DTD/svg11.dtd">
<svg height="228.016741pt" version="1.1" viewBox="0 0 327.220763 228.016741" width="327.220763pt" xmlns="http://www.w3.org/2000/svg" xmlns:xlink="http://www.w3.org/1999/xlink">
 <metadata>
  <rdf:RDF xmlns:cc="http://creativecommons.org/ns#" xmlns:dc="http://purl.org/dc/elements/1.1/" xmlns:rdf="http://www.w3.org/1999/02/22-rdf-syntax-ns#">
   <cc:Work>
    <dc:type rdf:resource="http://purl.org/dc/dcmitype/StillImage"/>
    <dc:date>2021-09-28T12:58:24.518237</dc:date>
    <dc:format>image/svg+xml</dc:format>
    <dc:creator>
     <cc:Agent>
      <dc:title>Matplotlib v3.4.3, https://matplotlib.org/</dc:title>
     </cc:Agent>
    </dc:creator>
   </cc:Work>
  </rdf:RDF>
 </metadata>
 <defs>
  <style type="text/css">*{stroke-linecap:butt;stroke-linejoin:round;}</style>
 </defs>
 <g id="figure_1">
  <g id="patch_1">
   <path d="M 0 228.016741 
L 327.220763 228.016741 
L 327.220763 0 
L 0 0 
z
" style="fill:none;"/>
  </g>
  <g id="axes_1">
   <g id="patch_2">
    <path clip-path="url(#p6ede587a33)" d="M 309.442451 150.192354 
L 305.983178 151.92199 
L 305.983178 150.20965 
L 67.29336 150.20965 
L 67.29336 150.175057 
L 305.983178 150.175057 
L 305.983178 148.462717 
z
" style="stroke:#000000;stroke-linejoin:miter;stroke-width:0.5;"/>
   </g>
   <g id="patch_3">
    <path clip-path="url(#p6ede587a33)" d="M 67.29336 29.117808 
L 69.022997 32.577081 
L 67.310657 32.577081 
L 67.310657 150.192354 
L 67.276064 150.192354 
L 67.276064 32.577081 
L 65.563724 32.577081 
z
" style="stroke:#000000;stroke-linejoin:miter;stroke-width:0.5;"/>
   </g>
   <g id="line2d_1">
    <path clip-path="url(#p6ede587a33)" d="M 67.29336 150.192354 
L 136.478815 150.192354 
L 136.478815 56.79199 
L 205.664269 56.79199 
L 205.664269 150.192354 
L 292.146087 150.192354 
" style="fill:none;stroke:#1f77b4;stroke-linecap:square;stroke-width:1.5;"/>
   </g>
   <g id="text_1">
    <!-- $K$ -->
    <g transform="translate(45.575713 62.270743)scale(0.22 -0.22)">
     <defs>
      <path d="M 3200 2571 
C 3194 2590 3168 2641 3168 2661 
C 3168 2667 3174 2673 3283 2756 
L 3904 3242 
C 4762 3905 5043 4128 5485 4167 
C 5530 4167 5594 4167 5594 4282 
C 5594 4320 5574 4352 5523 4352 
C 5453 4352 5376 4352 5306 4352 
L 5062 4352 
C 4864 4352 4653 4352 4461 4352 
C 4416 4352 4339 4352 4339 4237 
C 4339 4173 4384 4167 4422 4167 
C 4493 4160 4576 4135 4576 4046 
C 4576 3919 4384 3765 4333 3727 
L 1824 1784 
L 2355 3887 
C 2413 4103 2426 4167 2880 4167 
C 3002 4167 3059 4167 3059 4288 
C 3059 4352 2995 4352 2963 4352 
C 2848 4352 2714 4352 2592 4352 
L 1837 4352 
C 1722 4352 1581 4352 1466 4352 
C 1414 4352 1344 4352 1344 4231 
C 1344 4167 1402 4167 1498 4167 
C 1888 4167 1888 4116 1888 4046 
C 1888 4034 1888 3995 1862 3899 
L 998 472 
C 941 249 928 185 480 185 
C 358 185 294 185 294 70 
C 294 0 352 0 390 0 
C 512 0 640 0 762 0 
L 1510 0 
C 1632 0 1766 0 1888 0 
C 1939 0 2010 0 2010 121 
C 2010 185 1952 185 1856 185 
C 1466 185 1466 236 1466 300 
C 1466 345 1504 504 1530 606 
L 1779 1593 
L 2752 2351 
C 2938 1943 3277 1128 3539 505 
C 3558 466 3571 428 3571 383 
C 3571 185 3315 185 3258 185 
C 3200 185 3136 185 3136 64 
C 3136 0 3206 0 3226 0 
C 3450 0 3686 0 3910 0 
L 4218 0 
C 4314 0 4422 0 4518 0 
C 4557 0 4627 0 4627 121 
C 4627 185 4570 185 4506 185 
C 4269 185 4186 236 4090 466 
L 3200 2571 
z
" id="CMMI12-4b" transform="scale(0.015625)"/>
     </defs>
     <use transform="scale(0.996264)" xlink:href="#CMMI12-4b"/>
    </g>
   </g>
   <g id="text_2">
    <!-- $f_c-$ -->
    <g transform="translate(119.184287 168.87232)scale(0.22 -0.22)">
     <defs>
      <path d="M 2854 2566 
C 2982 2566 3034 2566 3034 2688 
C 3034 2752 2982 2752 2867 2752 
L 2349 2752 
C 2470 3429 2560 3897 2611 4107 
C 2650 4265 2784 4416 2950 4416 
C 3085 4416 3219 4358 3283 4298 
C 3034 4272 2957 4082 2957 3969 
C 2957 3837 3053 3759 3174 3759 
C 3302 3759 3494 3870 3494 4119 
C 3494 4393 3226 4544 2944 4544 
C 2669 4544 2400 4334 2272 4078 
C 2157 3848 2093 3611 1946 2752 
L 1517 2752 
C 1395 2752 1331 2752 1331 2637 
C 1331 2566 1370 2566 1498 2566 
L 1907 2566 
C 1792 1976 1530 542 1382 -137 
C 1274 -689 1178 -1152 858 -1152 
C 838 -1152 653 -1152 538 -1031 
C 864 -1005 864 -726 864 -720 
C 864 -593 768 -517 646 -517 
C 518 -517 326 -625 326 -867 
C 326 -1140 608 -1280 858 -1280 
C 1510 -1280 1779 -118 1850 199 
C 1965 688 2278 2376 2310 2566 
L 2854 2566 
z
" id="CMMI12-66" transform="scale(0.015625)"/>
      <path d="M 2502 2431 
C 2381 2431 2323 2431 2234 2355 
C 2195 2323 2125 2227 2125 2125 
C 2125 1997 2221 1920 2342 1920 
C 2496 1920 2669 2044 2669 2292 
C 2669 2588 2374 2816 1933 2816 
C 1094 2816 256 1903 256 996 
C 256 441 602 -64 1254 -64 
C 2125 -64 2675 622 2675 706 
C 2675 744 2637 776 2611 776 
C 2592 776 2586 770 2528 713 
C 2118 162 1510 64 1267 64 
C 826 64 685 446 685 764 
C 685 988 794 1605 1024 2039 
C 1190 2338 1536 2682 1939 2682 
C 2022 2682 2374 2682 2502 2431 
z
" id="CMMI12-63" transform="scale(0.015625)"/>
      <path d="M 4218 1472 
C 4326 1472 4442 1472 4442 1600 
C 4442 1728 4326 1728 4218 1728 
L 755 1728 
C 646 1728 531 1728 531 1600 
C 531 1472 646 1472 755 1472 
L 4218 1472 
z
" id="CMSY10-0" transform="scale(0.015625)"/>
     </defs>
     <use transform="scale(0.996264)" xlink:href="#CMMI12-66"/>
     <use transform="translate(48.083238 -14.943915)scale(0.697382)" xlink:href="#CMMI12-63"/>
     <use transform="translate(77.969501 0)scale(0.996264)" xlink:href="#CMSY10-0"/>
    </g>
   </g>
   <g id="text_3">
    <!-- $f_c+$ -->
    <g transform="translate(189.004735 168.87232)scale(0.22 -0.22)">
     <defs>
      <path d="M 2413 1472 
L 4109 1472 
C 4198 1472 4307 1472 4307 1580 
C 4307 1695 4205 1695 4109 1695 
L 2413 1695 
L 2413 3386 
C 2413 3475 2413 3584 2304 3584 
C 2189 3584 2189 3482 2189 3386 
L 2189 1695 
L 493 1695 
C 403 1695 294 1695 294 1587 
C 294 1472 397 1472 493 1472 
L 2189 1472 
L 2189 -218 
C 2189 -307 2189 -416 2298 -416 
C 2413 -416 2413 -314 2413 -218 
L 2413 1472 
z
" id="CMR17-2b" transform="scale(0.015625)"/>
     </defs>
     <use transform="scale(0.996264)" xlink:href="#CMMI12-66"/>
     <use transform="translate(48.083238 -14.943915)scale(0.697382)" xlink:href="#CMMI12-63"/>
     <use transform="translate(77.969501 0)scale(0.996264)" xlink:href="#CMR17-2b"/>
    </g>
   </g>
   <g id="text_4">
    <!-- $0$ -->
    <g transform="translate(57.241455 165.413047)scale(0.22 -0.22)">
     <defs>
      <path d="M 2688 2025 
C 2688 2416 2682 3080 2413 3591 
C 2176 4039 1798 4198 1466 4198 
C 1158 4198 768 4058 525 3597 
C 269 3118 243 2524 243 2025 
C 243 1661 250 1106 448 619 
C 723 -39 1216 -128 1466 -128 
C 1760 -128 2208 -7 2470 600 
C 2662 1042 2688 1559 2688 2025 
z
M 1466 -26 
C 1056 -26 813 325 723 812 
C 653 1188 653 1738 653 2096 
C 653 2588 653 2997 736 3387 
C 858 3929 1216 4096 1466 4096 
C 1728 4096 2067 3923 2189 3400 
C 2272 3036 2278 2607 2278 2096 
C 2278 1680 2278 1169 2202 792 
C 2067 95 1690 -26 1466 -26 
z
" id="CMR17-30" transform="scale(0.015625)"/>
     </defs>
     <use transform="scale(0.996264)" xlink:href="#CMR17-30"/>
    </g>
   </g>
   <g id="text_5">
    <!-- $f$ -->
    <g transform="translate(309.442451 165.413047)scale(0.22 -0.22)">
     <use transform="scale(0.996264)" xlink:href="#CMMI12-66"/>
    </g>
   </g>
   <g id="text_6">
    <!-- $|H(f)|$ -->
    <g transform="translate(7.2 23.638356)scale(0.22 -0.22)">
     <defs>
      <path d="M 1018 4570 
C 1018 4685 1018 4800 890 4800 
C 762 4800 762 4685 762 4570 
L 762 -1370 
C 762 -1485 762 -1600 890 -1600 
C 1018 -1600 1018 -1485 1018 -1370 
L 1018 4570 
z
" id="CMSY10-6a" transform="scale(0.015625)"/>
      <path d="M 4787 3887 
C 4845 4103 4858 4167 5312 4167 
C 5427 4167 5491 4167 5491 4282 
C 5491 4352 5434 4352 5395 4352 
C 5280 4352 5146 4352 5024 4352 
L 4269 4352 
C 4147 4352 4013 4352 3891 4352 
C 3846 4352 3770 4352 3770 4231 
C 3770 4167 3814 4167 3936 4167 
C 4320 4167 4320 4116 4320 4046 
C 4320 4034 4320 3995 4294 3900 
L 3904 2361 
L 1971 2361 
L 2355 3887 
C 2413 4103 2426 4167 2880 4167 
C 2995 4167 3059 4167 3059 4282 
C 3059 4352 3002 4352 2963 4352 
C 2848 4352 2714 4352 2592 4352 
L 1837 4352 
C 1715 4352 1581 4352 1459 4352 
C 1414 4352 1338 4352 1338 4231 
C 1338 4167 1382 4167 1504 4167 
C 1888 4167 1888 4116 1888 4046 
C 1888 4034 1888 3995 1862 3899 
L 998 472 
C 941 249 928 185 486 185 
C 339 185 294 185 294 64 
C 294 0 365 0 384 0 
C 499 0 634 0 755 0 
L 1510 0 
C 1632 0 1766 0 1888 0 
C 1939 0 2010 0 2010 121 
C 2010 185 1952 185 1856 185 
C 1466 185 1466 236 1466 300 
C 1466 307 1466 351 1478 402 
L 1920 2176 
L 3859 2176 
C 3750 1753 3424 416 3411 376 
C 3341 185 3238 185 2861 185 
C 2784 185 2726 185 2726 64 
C 2726 0 2797 0 2816 0 
C 2931 0 3066 0 3187 0 
L 3942 0 
C 4064 0 4198 0 4320 0 
C 4371 0 4442 0 4442 121 
C 4442 185 4384 185 4288 185 
C 3898 185 3898 236 3898 300 
C 3898 307 3898 351 3910 402 
L 4787 3887 
z
" id="CMMI12-48" transform="scale(0.015625)"/>
      <path d="M 1958 -1561 
C 1958 -1555 1958 -1542 1939 -1523 
C 1645 -1224 858 -407 858 1581 
C 858 3569 1632 4379 1946 4697 
C 1946 4704 1958 4717 1958 4736 
C 1958 4755 1939 4768 1914 4768 
C 1843 4768 1299 4296 986 3594 
C 666 2887 576 2199 576 1588 
C 576 1128 621 351 1005 -471 
C 1312 -1135 1837 -1600 1914 -1600 
C 1946 -1600 1958 -1587 1958 -1561 
z
" id="CMR17-28" transform="scale(0.015625)"/>
      <path d="M 1683 1581 
C 1683 2040 1638 2817 1254 3639 
C 947 4303 422 4768 346 4768 
C 326 4768 301 4761 301 4729 
C 301 4717 307 4710 314 4697 
C 621 4378 1402 3568 1402 1584 
C 1402 -407 627 -1217 314 -1537 
C 307 -1549 301 -1556 301 -1568 
C 301 -1600 326 -1600 346 -1600 
C 416 -1600 960 -1128 1274 -426 
C 1594 281 1683 969 1683 1581 
z
" id="CMR17-29" transform="scale(0.015625)"/>
     </defs>
     <use transform="scale(0.996264)" xlink:href="#CMSY10-6a"/>
     <use transform="translate(27.674085 0)scale(0.996264)" xlink:href="#CMMI12-48"/>
     <use transform="translate(116.195857 0)scale(0.996264)" xlink:href="#CMR17-28"/>
     <use transform="translate(151.476625 0)scale(0.996264)" xlink:href="#CMMI12-66"/>
     <use transform="translate(210.19693 0)scale(0.996264)" xlink:href="#CMR17-29"/>
     <use transform="translate(245.477698 0)scale(0.996264)" xlink:href="#CMSY10-6a"/>
    </g>
   </g>
   <g id="patch_4">
    <path d="M 70.408753 184.785081 
Q 101.886213 184.785081 133.363674 184.785081 
" style="fill:none;stroke:#000000;stroke-linecap:round;"/>
    <path d="M 79.208753 189.185081 
L 70.408753 184.785081 
L 79.208753 180.385081 
" style="fill:none;stroke:#000000;stroke-linecap:round;"/>
    <path d="M 124.563674 180.385081 
L 133.363674 184.785081 
L 124.563674 189.185081 
" style="fill:none;stroke:#000000;stroke-linecap:round;"/>
   </g>
   <g id="text_7">
    <!-- bande -->
    <g transform="translate(82.671323 201.334282)scale(0.16 -0.16)">
     <defs>
      <path d="M 954 4416 
L 480 4416 
L 480 -13 
L 966 -13 
L 966 274 
C 1210 38 1504 -64 1766 -64 
C 2381 -64 2880 549 2880 1352 
C 2880 2086 2496 2756 1926 2756 
C 1523 2756 1165 2591 954 2419 
L 954 4416 
z
M 966 2046 
C 1107 2222 1306 2368 1587 2368 
C 1965 2368 2394 2097 2394 1352 
C 2394 558 1882 325 1530 325 
C 1402 325 1267 356 1139 464 
C 966 615 966 709 966 797 
L 966 2046 
z
" id="CMSS17-62" transform="scale(0.015625)"/>
      <path d="M 2406 1791 
C 2406 2392 1978 2808 1402 2808 
C 1120 2808 813 2757 461 2553 
L 499 2135 
C 659 2248 934 2432 1395 2432 
C 1722 2432 1920 2180 1920 1782 
L 1920 1536 
C 896 1536 256 1238 256 726 
C 256 461 416 -64 947 -64 
C 1043 -64 1562 -64 1933 217 
L 1933 -19 
L 2406 -19 
L 2406 1791 
z
M 1920 816 
C 1920 701 1920 548 1728 434 
C 1562 325 1350 325 1261 325 
C 941 325 723 511 723 744 
C 723 1211 1722 1211 1920 1211 
L 1920 816 
z
" id="CMSS17-61" transform="scale(0.015625)"/>
      <path d="M 2618 1877 
C 2618 2283 2522 2816 1798 2816 
C 1389 2816 1120 2606 941 2389 
L 941 2758 
L 474 2758 
L 474 0 
L 960 0 
L 960 1559 
C 960 1964 1114 2428 1549 2428 
C 2112 2428 2131 2048 2131 1829 
L 2131 0 
L 2618 0 
L 2618 1877 
z
" id="CMSS17-6e" transform="scale(0.015625)"/>
      <path d="M 2611 4416 
L 2138 4416 
L 2138 2438 
C 1939 2603 1613 2756 1254 2756 
C 672 2756 211 2131 211 1347 
C 211 562 666 -64 1235 -64 
C 1677 -64 1971 172 2125 306 
L 2125 -13 
L 2611 -13 
L 2611 4416 
z
M 2125 836 
C 2125 747 2125 653 1926 482 
C 1798 375 1645 325 1498 325 
C 1152 325 698 576 698 1340 
C 698 2134 1210 2368 1562 2368 
C 1798 2368 1990 2254 2125 2065 
L 2125 836 
z
" id="CMSS17-64" transform="scale(0.015625)"/>
      <path d="M 2502 1377 
C 2502 1590 2490 2003 2285 2345 
C 2061 2713 1696 2816 1421 2816 
C 755 2816 192 2188 192 1375 
C 192 582 774 -64 1510 -64 
C 1798 -64 2150 19 2470 248 
C 2470 274 2458 414 2451 420 
C 2451 433 2432 630 2432 656 
C 2125 407 1773 325 1517 325 
C 1107 325 666 667 646 1377 
L 2502 1377 
z
M 698 1728 
C 781 2084 1062 2421 1421 2421 
C 1517 2421 1965 2421 2080 1728 
L 698 1728 
z
" id="CMSS17-65" transform="scale(0.015625)"/>
     </defs>
     <use transform="scale(0.996264)" xlink:href="#CMSS17-62"/>
     <use transform="translate(48.204943 0)scale(0.996264)" xlink:href="#CMSS17-61"/>
     <use transform="translate(93.126864 0)scale(0.996264)" xlink:href="#CMSS17-6e"/>
     <use transform="translate(141.331807 0)scale(0.996264)" xlink:href="#CMSS17-64"/>
     <use transform="translate(189.53675 0)scale(0.996264)" xlink:href="#CMSS17-65"/>
    </g>
    <!-- atténuée -->
    <g transform="translate(74.101691 217.717264)scale(0.16 -0.16)">
     <defs>
      <path d="M 1069 2368 
L 1901 2368 
L 1901 2737 
L 1069 2737 
L 1069 3520 
L 614 3520 
L 614 2737 
L 109 2737 
L 109 2368 
L 602 2368 
L 602 749 
C 602 384 685 -64 1107 -64 
C 1427 -64 1722 25 2003 172 
L 1901 548 
C 1747 414 1562 337 1363 337 
C 1082 337 1069 696 1069 856 
L 1069 2368 
z
" id="CMSS17-74" transform="scale(0.015625)"/>
      <path d="M 2502 4448 
L 2016 4448 
L 1222 3328 
L 1613 3328 
L 2502 4448 
z
" id="CMSS17-13" transform="scale(0.015625)"/>
      <path d="M 2618 2739 
L 2131 2739 
L 2131 972 
C 2131 498 1786 306 1421 306 
C 998 306 960 447 960 709 
L 960 2739 
L 474 2739 
L 474 678 
C 474 179 646 -64 1088 -64 
C 1306 -64 1798 -13 2144 306 
L 2144 0 
L 2618 0 
L 2618 2739 
z
" id="CMSS17-75" transform="scale(0.015625)"/>
     </defs>
     <use transform="scale(0.996264)" xlink:href="#CMSS17-61"/>
     <use transform="translate(44.921921 0)scale(0.996264)" xlink:href="#CMSS17-74"/>
     <use transform="translate(78.753487 0)scale(0.996264)" xlink:href="#CMSS17-74"/>
     <use transform="translate(109.982646 0)scale(0.996264)" xlink:href="#CMSS17-13"/>
     <use transform="translate(112.585054 0)scale(0.996264)" xlink:href="#CMSS17-65"/>
     <use transform="translate(154.223876 0)scale(0.996264)" xlink:href="#CMSS17-6e"/>
     <use transform="translate(202.428819 0)scale(0.996264)" xlink:href="#CMSS17-75"/>
     <use transform="translate(248.031354 0)scale(0.996264)" xlink:href="#CMSS17-13"/>
     <use transform="translate(250.633762 0)scale(0.996264)" xlink:href="#CMSS17-65"/>
     <use transform="translate(292.272584 0)scale(0.996264)" xlink:href="#CMSS17-65"/>
    </g>
   </g>
   <g id="patch_5">
    <path d="M 139.594207 184.785081 
Q 171.071668 184.785081 202.549128 184.785081 
" style="fill:none;stroke:#000000;stroke-linecap:round;"/>
    <path d="M 148.394207 189.185081 
L 139.594207 184.785081 
L 148.394207 180.385081 
" style="fill:none;stroke:#000000;stroke-linecap:round;"/>
    <path d="M 193.749128 180.385081 
L 202.549128 184.785081 
L 193.749128 189.185081 
" style="fill:none;stroke:#000000;stroke-linecap:round;"/>
   </g>
   <g id="text_8">
    <!-- bande -->
    <g transform="translate(151.856778 201.334282)scale(0.16 -0.16)">
     <use transform="scale(0.996264)" xlink:href="#CMSS17-62"/>
     <use transform="translate(48.204943 0)scale(0.996264)" xlink:href="#CMSS17-61"/>
     <use transform="translate(93.126864 0)scale(0.996264)" xlink:href="#CMSS17-6e"/>
     <use transform="translate(141.331807 0)scale(0.996264)" xlink:href="#CMSS17-64"/>
     <use transform="translate(189.53675 0)scale(0.996264)" xlink:href="#CMSS17-65"/>
    </g>
    <!-- passante -->
    <g transform="translate(143.323121 217.717264)scale(0.16 -0.16)">
     <defs>
      <path d="M 966 333 
C 1178 129 1466 -5 1773 -5 
C 2368 -5 2880 603 2880 1412 
C 2880 2159 2496 2816 1946 2816 
C 1626 2816 1242 2702 954 2472 
L 954 2765 
L 480 2765 
L 480 -1216 
L 966 -1216 
L 966 333 
z
M 966 2100 
C 1018 2176 1235 2415 1587 2415 
C 2035 2415 2394 1960 2394 1412 
C 2394 787 1958 384 1530 384 
C 1402 384 1267 415 1139 523 
C 966 674 966 768 966 857 
L 966 2100 
z
" id="CMSS17-70" transform="scale(0.015625)"/>
      <path d="M 2061 2627 
C 1683 2807 1389 2807 1197 2807 
C 742 2807 198 2648 198 2003 
C 198 1359 902 1218 1094 1179 
C 1389 1122 1715 1058 1715 740 
C 1715 337 1254 337 1171 337 
C 915 337 563 407 243 638 
L 166 210 
C 531 0 883 -64 1178 -64 
C 1965 -64 2163 416 2163 781 
C 2163 1094 1984 1305 1862 1401 
C 1651 1568 1574 1587 1050 1696 
C 960 1709 646 1779 646 2066 
C 646 2432 1050 2432 1139 2432 
C 1555 2432 1811 2303 1984 2208 
L 2061 2627 
z
" id="CMSS17-73" transform="scale(0.015625)"/>
     </defs>
     <use transform="scale(0.996264)" xlink:href="#CMSS17-70"/>
     <use transform="translate(48.204943 0)scale(0.996264)" xlink:href="#CMSS17-61"/>
     <use transform="translate(93.126864 0)scale(0.996264)" xlink:href="#CMSS17-73"/>
     <use transform="translate(129.040406 0)scale(0.996264)" xlink:href="#CMSS17-73"/>
     <use transform="translate(164.953948 0)scale(0.996264)" xlink:href="#CMSS17-61"/>
     <use transform="translate(209.875868 0)scale(0.996264)" xlink:href="#CMSS17-6e"/>
     <use transform="translate(258.080811 0)scale(0.996264)" xlink:href="#CMSS17-74"/>
     <use transform="translate(291.912378 0)scale(0.996264)" xlink:href="#CMSS17-65"/>
    </g>
   </g>
   <g id="patch_6">
    <path d="M 208.78019 184.785081 
Q 248.905052 184.785081 289.029914 184.785081 
" style="fill:none;stroke:#000000;stroke-linecap:round;"/>
    <path d="M 217.58019 189.185081 
L 208.78019 184.785081 
L 217.58019 180.385081 
" style="fill:none;stroke:#000000;stroke-linecap:round;"/>
    <path d="M 280.229914 180.385081 
L 289.029914 184.785081 
L 280.229914 189.185081 
" style="fill:none;stroke:#000000;stroke-linecap:round;"/>
   </g>
   <g id="text_9">
    <!-- bande -->
    <g transform="translate(229.690414 201.334282)scale(0.16 -0.16)">
     <use transform="scale(0.996264)" xlink:href="#CMSS17-62"/>
     <use transform="translate(48.204943 0)scale(0.996264)" xlink:href="#CMSS17-61"/>
     <use transform="translate(93.126864 0)scale(0.996264)" xlink:href="#CMSS17-6e"/>
     <use transform="translate(141.331807 0)scale(0.996264)" xlink:href="#CMSS17-64"/>
     <use transform="translate(189.53675 0)scale(0.996264)" xlink:href="#CMSS17-65"/>
    </g>
    <!-- atténuée -->
    <g transform="translate(221.120782 217.717264)scale(0.16 -0.16)">
     <use transform="scale(0.996264)" xlink:href="#CMSS17-61"/>
     <use transform="translate(44.921921 0)scale(0.996264)" xlink:href="#CMSS17-74"/>
     <use transform="translate(78.753487 0)scale(0.996264)" xlink:href="#CMSS17-74"/>
     <use transform="translate(109.982646 0)scale(0.996264)" xlink:href="#CMSS17-13"/>
     <use transform="translate(112.585054 0)scale(0.996264)" xlink:href="#CMSS17-65"/>
     <use transform="translate(154.223876 0)scale(0.996264)" xlink:href="#CMSS17-6e"/>
     <use transform="translate(202.428819 0)scale(0.996264)" xlink:href="#CMSS17-75"/>
     <use transform="translate(248.031354 0)scale(0.996264)" xlink:href="#CMSS17-13"/>
     <use transform="translate(250.633762 0)scale(0.996264)" xlink:href="#CMSS17-65"/>
     <use transform="translate(292.272584 0)scale(0.996264)" xlink:href="#CMSS17-65"/>
    </g>
   </g>
  </g>
 </g>
 <defs>
  <clipPath id="p6ede587a33">
   <rect height="190.26" width="259.445455" x="49.996997" y="29.117808"/>
  </clipPath>
 </defs>
</svg>
