<?xml version="1.0" encoding="utf-8" standalone="no"?>
<!DOCTYPE svg PUBLIC "-//W3C//DTD SVG 1.1//EN"
  "http://www.w3.org/Graphics/SVG/1.1/DTD/svg11.dtd">
<svg height="294.594472pt" version="1.1" viewBox="0 0 404.256818 294.594472" width="404.256818pt" xmlns="http://www.w3.org/2000/svg" xmlns:xlink="http://www.w3.org/1999/xlink">
 <metadata>
  <rdf:RDF xmlns:cc="http://creativecommons.org/ns#" xmlns:dc="http://purl.org/dc/elements/1.1/" xmlns:rdf="http://www.w3.org/1999/02/22-rdf-syntax-ns#">
   <cc:Work>
    <dc:type rdf:resource="http://purl.org/dc/dcmitype/StillImage"/>
    <dc:date>2023-08-22T16:59:40.306998</dc:date>
    <dc:format>image/svg+xml</dc:format>
    <dc:creator>
     <cc:Agent>
      <dc:title>Matplotlib v3.4.3, https://matplotlib.org/</dc:title>
     </cc:Agent>
    </dc:creator>
   </cc:Work>
  </rdf:RDF>
 </metadata>
 <defs>
  <style type="text/css">*{stroke-linecap:butt;stroke-linejoin:round;}</style>
 </defs>
 <g id="figure_1">
  <g id="patch_1">
   <path d="M 0 294.594472 
L 404.256818 294.594472 
L 404.256818 0 
L 0 0 
z
" style="fill:none;"/>
  </g>
  <g id="axes_1">
   <g id="patch_2">
    <path d="M 62.256818 251.82 
L 397.056818 251.82 
L 397.056818 7.2 
L 62.256818 7.2 
z
" style="fill:#ffffff;"/>
   </g>
   <g id="matplotlib.axis_1">
    <g id="xtick_1">
     <g id="line2d_1">
      <path clip-path="url(#p9272d31f18)" d="M 77.474999 251.82 
L 77.474999 7.2 
" style="fill:none;stroke:#b0b0b0;stroke-linecap:square;stroke-width:0.8;"/>
     </g>
     <g id="line2d_2">
      <defs>
       <path d="M 0 0 
L 0 3.5 
" id="mb95e4c3967" style="stroke:#000000;stroke-width:0.8;"/>
      </defs>
      <g>
       <use style="stroke:#000000;stroke-width:0.8;" x="77.474999" xlink:href="#mb95e4c3967" y="251.82"/>
      </g>
     </g>
     <g id="text_1">
      <!-- $\mathdefault{0}$ -->
      <g transform="translate(74.548504 267.12218)scale(0.12 -0.12)">
       <defs>
        <path d="M 2688 2038 
C 2688 2430 2682 3099 2413 3613 
C 2176 4063 1798 4224 1466 4224 
C 1158 4224 768 4082 525 3620 
C 269 3137 243 2539 243 2038 
C 243 1671 250 1112 448 623 
C 723 -39 1216 -128 1466 -128 
C 1760 -128 2208 -7 2470 604 
C 2662 1048 2688 1568 2688 2038 
z
M 1466 -26 
C 1056 -26 813 328 723 816 
C 653 1196 653 1749 653 2109 
C 653 2604 653 3015 736 3407 
C 858 3954 1216 4121 1466 4121 
C 1728 4121 2067 3947 2189 3420 
C 2272 3054 2278 2623 2278 2109 
C 2278 1691 2278 1176 2202 797 
C 2067 96 1690 -26 1466 -26 
z
" id="CMR17-30" transform="scale(0.015625)"/>
       </defs>
       <use transform="scale(0.996264)" xlink:href="#CMR17-30"/>
      </g>
     </g>
    </g>
    <g id="xtick_2">
     <g id="line2d_3">
      <path clip-path="url(#p9272d31f18)" d="M 115.56807 251.82 
L 115.56807 7.2 
" style="fill:none;stroke:#b0b0b0;stroke-linecap:square;stroke-width:0.8;"/>
     </g>
     <g id="line2d_4">
      <g>
       <use style="stroke:#000000;stroke-width:0.8;" x="115.56807" xlink:href="#mb95e4c3967" y="251.82"/>
      </g>
     </g>
     <g id="text_2">
      <!-- $\mathdefault{1}$ -->
      <g transform="translate(112.641575 267.12218)scale(0.12 -0.12)">
       <defs>
        <path d="M 1702 4083 
C 1702 4217 1696 4224 1606 4224 
C 1357 3927 979 3833 621 3820 
C 602 3820 570 3820 563 3808 
C 557 3795 557 3782 557 3648 
C 755 3648 1088 3686 1344 3839 
L 1344 467 
C 1344 243 1331 166 781 166 
L 589 166 
L 589 0 
C 896 6 1216 12 1523 12 
C 1830 12 2150 6 2458 0 
L 2458 166 
L 2266 166 
C 1715 166 1702 236 1702 467 
L 1702 4083 
z
" id="CMR17-31" transform="scale(0.015625)"/>
       </defs>
       <use transform="scale(0.996264)" xlink:href="#CMR17-31"/>
      </g>
     </g>
    </g>
    <g id="xtick_3">
     <g id="line2d_5">
      <path clip-path="url(#p9272d31f18)" d="M 153.661141 251.82 
L 153.661141 7.2 
" style="fill:none;stroke:#b0b0b0;stroke-linecap:square;stroke-width:0.8;"/>
     </g>
     <g id="line2d_6">
      <g>
       <use style="stroke:#000000;stroke-width:0.8;" x="153.661141" xlink:href="#mb95e4c3967" y="251.82"/>
      </g>
     </g>
     <g id="text_3">
      <!-- $\mathdefault{2}$ -->
      <g transform="translate(150.734646 267.12218)scale(0.12 -0.12)">
       <defs>
        <path d="M 2669 990 
L 2554 990 
C 2490 537 2438 460 2413 422 
C 2381 371 1920 371 1830 371 
L 602 371 
C 832 620 1280 1073 1824 1596 
C 2214 1966 2669 2400 2669 3033 
C 2669 3788 2067 4224 1395 4224 
C 691 4224 262 3603 262 3027 
C 262 2777 448 2745 525 2745 
C 589 2745 781 2783 781 3007 
C 781 3206 614 3264 525 3264 
C 486 3264 448 3257 422 3244 
C 544 3788 915 4057 1306 4057 
C 1862 4057 2227 3616 2227 3033 
C 2227 2477 1901 1998 1536 1583 
L 262 147 
L 262 0 
L 2515 0 
L 2669 990 
z
" id="CMR17-32" transform="scale(0.015625)"/>
       </defs>
       <use transform="scale(0.996264)" xlink:href="#CMR17-32"/>
      </g>
     </g>
    </g>
    <g id="xtick_4">
     <g id="line2d_7">
      <path clip-path="url(#p9272d31f18)" d="M 191.754212 251.82 
L 191.754212 7.2 
" style="fill:none;stroke:#b0b0b0;stroke-linecap:square;stroke-width:0.8;"/>
     </g>
     <g id="line2d_8">
      <g>
       <use style="stroke:#000000;stroke-width:0.8;" x="191.754212" xlink:href="#mb95e4c3967" y="251.82"/>
      </g>
     </g>
     <g id="text_4">
      <!-- $\mathdefault{3}$ -->
      <g transform="translate(188.827717 267.12218)scale(0.12 -0.12)">
       <defs>
        <path d="M 1414 2176 
C 1984 2176 2234 1673 2234 1094 
C 2234 322 1824 25 1453 25 
C 1114 25 563 193 390 691 
C 422 678 454 678 486 678 
C 640 678 755 780 755 947 
C 755 1132 614 1216 486 1216 
C 378 1216 211 1164 211 927 
C 211 335 787 -128 1466 -128 
C 2176 -128 2720 432 2720 1087 
C 2720 1718 2208 2176 1600 2246 
C 2086 2347 2554 2776 2554 3353 
C 2554 3856 2048 4224 1472 4224 
C 890 4224 378 3862 378 3347 
C 378 3123 544 3084 627 3084 
C 762 3084 877 3167 877 3334 
C 877 3500 762 3584 627 3584 
C 602 3584 570 3584 544 3571 
C 730 3999 1235 4076 1459 4076 
C 1683 4076 2106 3966 2106 3347 
C 2106 3167 2080 2851 1862 2574 
C 1670 2329 1453 2316 1242 2297 
C 1210 2297 1062 2284 1037 2284 
C 992 2278 966 2272 966 2227 
C 966 2182 973 2176 1101 2176 
L 1414 2176 
z
" id="CMR17-33" transform="scale(0.015625)"/>
       </defs>
       <use transform="scale(0.996264)" xlink:href="#CMR17-33"/>
      </g>
     </g>
    </g>
    <g id="xtick_5">
     <g id="line2d_9">
      <path clip-path="url(#p9272d31f18)" d="M 229.847283 251.82 
L 229.847283 7.2 
" style="fill:none;stroke:#b0b0b0;stroke-linecap:square;stroke-width:0.8;"/>
     </g>
     <g id="line2d_10">
      <g>
       <use style="stroke:#000000;stroke-width:0.8;" x="229.847283" xlink:href="#mb95e4c3967" y="251.82"/>
      </g>
     </g>
     <g id="text_5">
      <!-- $\mathdefault{4}$ -->
      <g transform="translate(226.920788 267.12218)scale(0.12 -0.12)">
       <defs>
        <path d="M 2150 4147 
C 2150 4281 2144 4288 2029 4288 
L 128 1254 
L 128 1088 
L 1779 1088 
L 1779 460 
C 1779 230 1766 166 1318 166 
L 1197 166 
L 1197 0 
C 1402 12 1747 12 1965 12 
C 2182 12 2528 12 2733 0 
L 2733 166 
L 2611 166 
C 2163 166 2150 230 2150 460 
L 2150 1088 
L 2803 1088 
L 2803 1254 
L 2150 1254 
L 2150 4147 
z
M 1798 3723 
L 1798 1254 
L 256 1254 
L 1798 3723 
z
" id="CMR17-34" transform="scale(0.015625)"/>
       </defs>
       <use transform="scale(0.996264)" xlink:href="#CMR17-34"/>
      </g>
     </g>
    </g>
    <g id="xtick_6">
     <g id="line2d_11">
      <path clip-path="url(#p9272d31f18)" d="M 267.940354 251.82 
L 267.940354 7.2 
" style="fill:none;stroke:#b0b0b0;stroke-linecap:square;stroke-width:0.8;"/>
     </g>
     <g id="line2d_12">
      <g>
       <use style="stroke:#000000;stroke-width:0.8;" x="267.940354" xlink:href="#mb95e4c3967" y="251.82"/>
      </g>
     </g>
     <g id="text_6">
      <!-- $\mathdefault{5}$ -->
      <g transform="translate(265.013859 267.12218)scale(0.12 -0.12)">
       <defs>
        <path d="M 730 3750 
C 794 3724 1056 3641 1325 3641 
C 1920 3641 2246 3961 2432 4140 
C 2432 4191 2432 4224 2394 4224 
C 2387 4224 2374 4224 2323 4198 
C 2099 4102 1837 4032 1517 4032 
C 1325 4032 1037 4055 723 4191 
C 653 4224 640 4224 634 4224 
C 602 4224 595 4217 595 4090 
L 595 2231 
C 595 2113 595 2080 659 2080 
C 691 2080 704 2093 736 2139 
C 941 2435 1222 2560 1542 2560 
C 1766 2560 2246 2415 2246 1293 
C 2246 1087 2246 716 2054 422 
C 1894 159 1645 25 1370 25 
C 947 25 518 319 403 812 
C 429 806 480 793 506 793 
C 589 793 749 838 749 1036 
C 749 1209 627 1280 506 1280 
C 358 1280 262 1190 262 1011 
C 262 454 704 -128 1382 -128 
C 2042 -128 2669 441 2669 1267 
C 2669 2054 2170 2662 1549 2662 
C 1222 2662 947 2540 730 2304 
L 730 3750 
z
" id="CMR17-35" transform="scale(0.015625)"/>
       </defs>
       <use transform="scale(0.996264)" xlink:href="#CMR17-35"/>
      </g>
     </g>
    </g>
    <g id="xtick_7">
     <g id="line2d_13">
      <path clip-path="url(#p9272d31f18)" d="M 306.033425 251.82 
L 306.033425 7.2 
" style="fill:none;stroke:#b0b0b0;stroke-linecap:square;stroke-width:0.8;"/>
     </g>
     <g id="line2d_14">
      <g>
       <use style="stroke:#000000;stroke-width:0.8;" x="306.033425" xlink:href="#mb95e4c3967" y="251.82"/>
      </g>
     </g>
     <g id="text_7">
      <!-- $\mathdefault{6}$ -->
      <g transform="translate(303.10693 267.12218)scale(0.12 -0.12)">
       <defs>
        <path d="M 678 2198 
C 678 3712 1395 4076 1811 4076 
C 1946 4076 2272 4049 2400 3782 
C 2298 3782 2106 3782 2106 3558 
C 2106 3385 2246 3328 2336 3328 
C 2394 3328 2566 3353 2566 3571 
C 2566 3987 2246 4224 1805 4224 
C 1043 4224 243 3411 243 2011 
C 243 257 966 -128 1478 -128 
C 2099 -128 2688 431 2688 1295 
C 2688 2101 2170 2688 1517 2688 
C 1126 2688 838 2430 678 1979 
L 678 2198 
z
M 1478 25 
C 691 25 691 1212 691 1450 
C 691 1914 909 2585 1504 2585 
C 1613 2585 1926 2585 2138 2140 
C 2253 1889 2253 1624 2253 1302 
C 2253 954 2253 696 2118 438 
C 1978 173 1773 25 1478 25 
z
" id="CMR17-36" transform="scale(0.015625)"/>
       </defs>
       <use transform="scale(0.996264)" xlink:href="#CMR17-36"/>
      </g>
     </g>
    </g>
    <g id="xtick_8">
     <g id="line2d_15">
      <path clip-path="url(#p9272d31f18)" d="M 344.126496 251.82 
L 344.126496 7.2 
" style="fill:none;stroke:#b0b0b0;stroke-linecap:square;stroke-width:0.8;"/>
     </g>
     <g id="line2d_16">
      <g>
       <use style="stroke:#000000;stroke-width:0.8;" x="344.126496" xlink:href="#mb95e4c3967" y="251.82"/>
      </g>
     </g>
     <g id="text_8">
      <!-- $\mathdefault{7}$ -->
      <g transform="translate(341.2 267.12218)scale(0.12 -0.12)">
       <defs>
        <path d="M 2886 3955 
L 2886 4096 
L 1382 4096 
C 634 4096 621 4166 595 4288 
L 480 4288 
L 294 3104 
L 410 3104 
C 429 3226 474 3552 550 3673 
C 589 3724 1062 3724 1171 3724 
L 2579 3724 
L 1869 2670 
C 1395 1961 1069 1003 1069 166 
C 1069 89 1069 -128 1299 -128 
C 1530 -128 1530 89 1530 172 
L 1530 466 
C 1530 1514 1709 2204 2003 2644 
L 2886 3955 
z
" id="CMR17-37" transform="scale(0.015625)"/>
       </defs>
       <use transform="scale(0.996264)" xlink:href="#CMR17-37"/>
      </g>
     </g>
    </g>
    <g id="xtick_9">
     <g id="line2d_17">
      <path clip-path="url(#p9272d31f18)" d="M 382.219566 251.82 
L 382.219566 7.2 
" style="fill:none;stroke:#b0b0b0;stroke-linecap:square;stroke-width:0.8;"/>
     </g>
     <g id="line2d_18">
      <g>
       <use style="stroke:#000000;stroke-width:0.8;" x="382.219566" xlink:href="#mb95e4c3967" y="251.82"/>
      </g>
     </g>
     <g id="text_9">
      <!-- $\mathdefault{8}$ -->
      <g transform="translate(379.293071 267.12218)scale(0.12 -0.12)">
       <defs>
        <path d="M 1741 2289 
C 2144 2494 2554 2803 2554 3298 
C 2554 3884 1990 4224 1472 4224 
C 890 4224 378 3800 378 3215 
C 378 3054 416 2777 666 2533 
C 730 2469 998 2276 1171 2154 
C 883 2006 211 1652 211 945 
C 211 282 838 -128 1459 -128 
C 2144 -128 2720 366 2720 1022 
C 2720 1607 2330 1877 2074 2051 
L 1741 2289 
z
M 902 2855 
C 851 2887 595 3086 595 3388 
C 595 3781 998 4076 1459 4076 
C 1965 4076 2336 3716 2336 3298 
C 2336 2700 1670 2359 1638 2359 
C 1632 2359 1626 2359 1574 2398 
L 902 2855 
z
M 2080 1536 
C 2176 1466 2483 1253 2483 861 
C 2483 385 2010 25 1472 25 
C 890 25 448 443 448 951 
C 448 1459 838 1884 1280 2083 
L 2080 1536 
z
" id="CMR17-38" transform="scale(0.015625)"/>
       </defs>
       <use transform="scale(0.996264)" xlink:href="#CMR17-38"/>
      </g>
     </g>
    </g>
    <g id="text_10">
     <!-- $t$ (s) -->
     <g transform="translate(216.910305 283.907548)scale(0.14 -0.14)">
      <defs>
       <path d="M 1286 2566 
L 1875 2566 
C 1997 2566 2061 2566 2061 2681 
C 2061 2752 2022 2752 1894 2752 
L 1331 2752 
L 1568 3664 
C 1594 3752 1594 3764 1594 3808 
C 1594 3910 1510 3968 1427 3968 
C 1376 3968 1229 3948 1178 3746 
L 928 2752 
L 326 2752 
C 198 2752 141 2752 141 2630 
C 141 2566 186 2566 307 2566 
L 877 2566 
L 454 881 
C 403 657 384 593 384 510 
C 384 210 595 -64 954 -64 
C 1600 -64 1946 868 1946 913 
C 1946 951 1920 970 1882 970 
C 1869 970 1843 970 1830 944 
C 1824 938 1818 932 1773 830 
C 1638 510 1344 64 973 64 
C 781 64 768 223 768 364 
C 768 370 768 491 787 568 
L 1286 2566 
z
" id="CMMI12-74" transform="scale(0.015625)"/>
       <path d="M 1958 -1562 
C 1958 -1556 1958 -1543 1939 -1524 
C 1645 -1223 858 -403 858 1596 
C 858 3595 1632 4408 1946 4729 
C 1946 4735 1958 4748 1958 4767 
C 1958 4787 1939 4800 1914 4800 
C 1843 4800 1299 4325 986 3620 
C 666 2909 576 2218 576 1603 
C 576 1141 621 360 1005 -467 
C 1312 -1133 1837 -1600 1914 -1600 
C 1946 -1600 1958 -1588 1958 -1562 
z
" id="CMR17-28" transform="scale(0.015625)"/>
       <path d="M 1978 2688 
C 1978 2803 1971 2809 1933 2809 
C 1907 2809 1901 2803 1824 2707 
C 1805 2681 1747 2617 1728 2592 
C 1523 2809 1235 2816 1126 2816 
C 416 2816 160 2444 160 2073 
C 160 1497 813 1363 998 1324 
C 1402 1241 1542 1216 1677 1100 
C 1760 1024 1901 883 1901 652 
C 1901 384 1747 38 1158 38 
C 602 38 403 460 288 1024 
C 269 1113 269 1120 218 1120 
C 166 1120 160 1113 160 985 
L 160 64 
C 160 -52 166 -58 205 -58 
C 237 -58 243 -52 275 0 
C 314 57 410 211 448 275 
C 576 102 800 -64 1158 -64 
C 1792 -64 2131 281 2131 780 
C 2131 1107 1958 1280 1875 1356 
C 1683 1555 1459 1600 1190 1651 
C 838 1728 390 1817 390 2208 
C 390 2374 480 2726 1126 2726 
C 1811 2726 1850 2086 1862 1881 
C 1869 1849 1901 1843 1920 1843 
C 1978 1843 1978 1862 1978 1971 
L 1978 2688 
z
" id="CMR17-73" transform="scale(0.015625)"/>
       <path d="M 1683 1596 
C 1683 2057 1638 2839 1254 3665 
C 947 4332 422 4800 346 4800 
C 326 4800 301 4793 301 4761 
C 301 4748 307 4742 314 4729 
C 621 4408 1402 3595 1402 1603 
C 1402 -396 627 -1210 314 -1530 
C 307 -1543 301 -1549 301 -1562 
C 301 -1594 326 -1600 346 -1600 
C 416 -1600 960 -1127 1274 -422 
C 1594 289 1683 981 1683 1596 
z
" id="CMR17-29" transform="scale(0.015625)"/>
      </defs>
      <use transform="scale(0.996264)" xlink:href="#CMMI12-74"/>
      <use transform="translate(65.302297 0)scale(0.996264)" xlink:href="#CMR17-28"/>
      <use transform="translate(100.583064 0)scale(0.996264)" xlink:href="#CMR17-73"/>
      <use transform="translate(136.384402 0)scale(0.996264)" xlink:href="#CMR17-29"/>
     </g>
    </g>
   </g>
   <g id="matplotlib.axis_2">
    <g id="ytick_1">
     <g id="line2d_19">
      <path clip-path="url(#p9272d31f18)" d="M 62.256818 224.374826 
L 397.056818 224.374826 
" style="fill:none;stroke:#b0b0b0;stroke-linecap:square;stroke-width:0.8;"/>
     </g>
     <g id="line2d_20">
      <defs>
       <path d="M 0 0 
L -3.5 0 
" id="m8d780c57f1" style="stroke:#000000;stroke-width:0.8;"/>
      </defs>
      <g>
       <use style="stroke:#000000;stroke-width:0.8;" x="62.256818" xlink:href="#m8d780c57f1" y="224.374826"/>
      </g>
     </g>
     <g id="text_11">
      <!-- $\mathdefault{−0.02}$ -->
      <g transform="translate(25.147696 228.525916)scale(0.12 -0.12)">
       <defs>
        <path d="M 4218 1472 
C 4326 1472 4442 1472 4442 1600 
C 4442 1728 4326 1728 4218 1728 
L 755 1728 
C 646 1728 531 1728 531 1600 
C 531 1472 646 1472 755 1472 
L 4218 1472 
z
" id="CMSY10-0" transform="scale(0.015625)"/>
        <path d="M 1178 307 
C 1178 492 1024 620 870 620 
C 685 620 557 467 557 313 
C 557 128 710 0 864 0 
C 1050 0 1178 153 1178 307 
z
" id="CMMI12-3a" transform="scale(0.015625)"/>
       </defs>
       <use transform="scale(0.996264)" xlink:href="#CMSY10-0"/>
       <use transform="translate(77.487468 0)scale(0.996264)" xlink:href="#CMR17-30"/>
       <use transform="translate(123.177945 0)scale(0.996264)" xlink:href="#CMMI12-3a"/>
       <use transform="translate(150.275122 0)scale(0.996264)" xlink:href="#CMR17-30"/>
       <use transform="translate(195.965599 0)scale(0.996264)" xlink:href="#CMR17-32"/>
      </g>
     </g>
    </g>
    <g id="ytick_2">
     <g id="line2d_21">
      <path clip-path="url(#p9272d31f18)" d="M 62.256818 179.176578 
L 397.056818 179.176578 
" style="fill:none;stroke:#b0b0b0;stroke-linecap:square;stroke-width:0.8;"/>
     </g>
     <g id="line2d_22">
      <g>
       <use style="stroke:#000000;stroke-width:0.8;" x="62.256818" xlink:href="#m8d780c57f1" y="179.176578"/>
      </g>
     </g>
     <g id="text_12">
      <!-- $\mathdefault{0.00}$ -->
      <g transform="translate(34.446186 183.327667)scale(0.12 -0.12)">
       <use transform="scale(0.996264)" xlink:href="#CMR17-30"/>
       <use transform="translate(45.690477 0)scale(0.996264)" xlink:href="#CMMI12-3a"/>
       <use transform="translate(72.787654 0)scale(0.996264)" xlink:href="#CMR17-30"/>
       <use transform="translate(118.478131 0)scale(0.996264)" xlink:href="#CMR17-30"/>
      </g>
     </g>
    </g>
    <g id="ytick_3">
     <g id="line2d_23">
      <path clip-path="url(#p9272d31f18)" d="M 62.256818 133.978329 
L 397.056818 133.978329 
" style="fill:none;stroke:#b0b0b0;stroke-linecap:square;stroke-width:0.8;"/>
     </g>
     <g id="line2d_24">
      <g>
       <use style="stroke:#000000;stroke-width:0.8;" x="62.256818" xlink:href="#m8d780c57f1" y="133.978329"/>
      </g>
     </g>
     <g id="text_13">
      <!-- $\mathdefault{0.02}$ -->
      <g transform="translate(34.446186 138.129419)scale(0.12 -0.12)">
       <use transform="scale(0.996264)" xlink:href="#CMR17-30"/>
       <use transform="translate(45.690477 0)scale(0.996264)" xlink:href="#CMMI12-3a"/>
       <use transform="translate(72.787654 0)scale(0.996264)" xlink:href="#CMR17-30"/>
       <use transform="translate(118.478131 0)scale(0.996264)" xlink:href="#CMR17-32"/>
      </g>
     </g>
    </g>
    <g id="ytick_4">
     <g id="line2d_25">
      <path clip-path="url(#p9272d31f18)" d="M 62.256818 88.78008 
L 397.056818 88.78008 
" style="fill:none;stroke:#b0b0b0;stroke-linecap:square;stroke-width:0.8;"/>
     </g>
     <g id="line2d_26">
      <g>
       <use style="stroke:#000000;stroke-width:0.8;" x="62.256818" xlink:href="#m8d780c57f1" y="88.78008"/>
      </g>
     </g>
     <g id="text_14">
      <!-- $\mathdefault{0.04}$ -->
      <g transform="translate(34.446186 92.93117)scale(0.12 -0.12)">
       <use transform="scale(0.996264)" xlink:href="#CMR17-30"/>
       <use transform="translate(45.690477 0)scale(0.996264)" xlink:href="#CMMI12-3a"/>
       <use transform="translate(72.787654 0)scale(0.996264)" xlink:href="#CMR17-30"/>
       <use transform="translate(118.478131 0)scale(0.996264)" xlink:href="#CMR17-34"/>
      </g>
     </g>
    </g>
    <g id="ytick_5">
     <g id="line2d_27">
      <path clip-path="url(#p9272d31f18)" d="M 62.256818 43.581831 
L 397.056818 43.581831 
" style="fill:none;stroke:#b0b0b0;stroke-linecap:square;stroke-width:0.8;"/>
     </g>
     <g id="line2d_28">
      <g>
       <use style="stroke:#000000;stroke-width:0.8;" x="62.256818" xlink:href="#m8d780c57f1" y="43.581831"/>
      </g>
     </g>
     <g id="text_15">
      <!-- $\mathdefault{0.06}$ -->
      <g transform="translate(34.446186 47.732921)scale(0.12 -0.12)">
       <use transform="scale(0.996264)" xlink:href="#CMR17-30"/>
       <use transform="translate(45.690477 0)scale(0.996264)" xlink:href="#CMMI12-3a"/>
       <use transform="translate(72.787654 0)scale(0.996264)" xlink:href="#CMR17-30"/>
       <use transform="translate(118.478131 0)scale(0.996264)" xlink:href="#CMR17-36"/>
      </g>
     </g>
    </g>
    <g id="text_16">
     <!-- $h(t)$ -->
     <g transform="translate(17.660772 141.217714)rotate(-90)scale(0.14 -0.14)">
      <defs>
       <path d="M 1798 4255 
C 1805 4281 1818 4319 1818 4351 
C 1818 4416 1754 4416 1741 4416 
C 1734 4416 1421 4390 1389 4383 
C 1280 4377 1184 4364 1069 4358 
C 909 4345 864 4339 864 4223 
C 864 4159 915 4159 1005 4159 
C 1318 4159 1325 4103 1325 4040 
C 1325 4002 1312 3951 1306 3932 
L 378 249 
C 352 153 352 140 352 102 
C 352 -39 461 -64 525 -64 
C 634 -64 717 19 749 89 
L 1037 1245 
C 1069 1385 1107 1519 1139 1660 
C 1210 1928 1210 1934 1331 2119 
C 1453 2305 1741 2687 2234 2687 
C 2490 2687 2579 2496 2579 2241 
C 2579 1883 2330 1187 2189 804 
C 2131 651 2099 568 2099 453 
C 2099 166 2298 -64 2605 -64 
C 3200 -64 3424 874 3424 913 
C 3424 945 3398 970 3360 970 
C 3302 970 3296 951 3264 842 
C 3117 332 2880 64 2624 64 
C 2560 64 2458 70 2458 274 
C 2458 440 2534 645 2560 715 
C 2675 1021 2963 1775 2963 2145 
C 2963 2528 2739 2816 2253 2816 
C 1888 2816 1568 2643 1306 2311 
L 1798 4255 
z
" id="CMMI12-68" transform="scale(0.015625)"/>
      </defs>
      <use transform="scale(0.996264)" xlink:href="#CMMI12-68"/>
      <use transform="translate(56.154624 0)scale(0.996264)" xlink:href="#CMR17-28"/>
      <use transform="translate(91.435392 0)scale(0.996264)" xlink:href="#CMMI12-74"/>
      <use transform="translate(126.661722 0)scale(0.996264)" xlink:href="#CMR17-29"/>
     </g>
    </g>
   </g>
   <g id="line2d_29">
    <path clip-path="url(#p9272d31f18)" d="M 77.474999 148.700089 
L 77.85593 121.663989 
L 78.236861 124.88976 
L 78.617792 121.619823 
L 78.998722 113.442304 
L 79.760584 88.206803 
L 80.903376 46.457656 
L 81.665237 26.620035 
L 82.046168 20.86641 
L 82.427099 18.319091 
L 82.808029 19.124178 
L 83.18896 23.297411 
L 83.569891 30.733565 
L 84.331752 54.429741 
L 85.093614 87.354177 
L 87.379198 198.27123 
L 88.141059 224.000989 
L 88.52199 232.694839 
L 88.902921 238.290836 
L 89.283851 240.700909 
L 89.664782 239.96418 
L 90.045713 236.246732 
L 90.426643 229.835591 
L 91.188505 210.609018 
L 93.474089 142.289631 
L 93.85502 135.240387 
L 94.235951 130.524732 
L 94.616881 128.311122 
L 94.997812 128.637221 
L 95.378743 131.410107 
L 95.759673 136.413322 
L 96.521535 151.714133 
L 98.426188 198.255642 
L 99.18805 210.028262 
L 99.568981 213.08401 
L 99.949911 214.095612 
L 100.330842 213.089982 
L 100.711773 210.205634 
L 101.473634 199.842372 
L 103.759218 160.218585 
L 104.140149 156.473667 
L 104.52108 154.254231 
L 104.90201 153.633752 
L 105.282941 154.587935 
L 105.663872 156.999098 
L 106.425733 165.318397 
L 108.330387 191.549798 
L 108.711318 195.095274 
L 109.092248 197.497044 
L 109.473179 198.642419 
L 109.85411 198.500246 
L 110.23504 197.120572 
L 110.615971 194.629322 
L 111.377832 187.132138 
L 112.901555 169.777843 
L 113.663417 164.278092 
L 114.044347 163.001307 
L 114.425278 162.8061 
L 114.806209 163.67997 
L 115.18714 165.542681 
L 115.949001 171.618203 
L 117.853655 189.791655 
L 118.234585 192.049406 
L 118.615516 193.440226 
L 118.996447 193.890246 
L 119.377377 193.38683 
L 119.758308 191.978232 
L 120.520169 186.914393 
L 122.805754 167.97518 
L 123.186684 166.418836 
L 123.567615 165.692286 
L 123.948546 165.829252 
L 124.329477 166.808375 
L 124.710407 168.555464 
L 125.472269 173.828668 
L 126.995992 186.277948 
L 127.757853 190.372457 
L 128.138784 191.380652 
L 128.519714 191.610312 
L 128.900645 191.058476 
L 129.281576 189.771228 
L 130.043437 185.395357 
L 131.948091 171.5322 
L 132.329021 169.658859 
L 132.709952 168.407047 
L 133.090883 167.845367 
L 133.471814 167.998243 
L 133.852744 168.845097 
L 134.233675 170.322342 
L 134.995536 174.728869 
L 136.519259 185.043435 
L 137.281121 188.4234 
L 137.662051 189.255968 
L 138.042982 189.447735 
L 138.423913 188.997095 
L 138.804844 187.942522 
L 139.566705 184.355277 
L 141.471358 172.982672 
L 141.852289 171.441507 
L 142.23322 170.407659 
L 142.614151 169.93715 
L 142.995081 170.049959 
L 143.376012 170.729375 
L 143.756943 171.923642 
L 144.518804 175.499215 
L 146.042527 183.892528 
L 146.804388 186.652199 
L 147.185319 187.336371 
L 147.56625 187.500285 
L 147.947181 187.142449 
L 148.328111 186.293931 
L 149.089973 183.39523 
L 150.994626 174.18174 
L 151.375557 172.931281 
L 151.756488 172.091547 
L 152.137418 171.708022 
L 152.518349 171.79697 
L 152.89928 172.344902 
L 153.28021 173.309915 
L 154.042072 176.201591 
L 155.565795 182.991434 
L 156.327656 185.222722 
L 156.708587 185.775114 
L 157.089518 185.906349 
L 157.470448 185.615297 
L 157.851379 184.927206 
L 158.61324 182.579169 
L 160.517894 175.1255 
L 160.898825 174.115713 
L 161.279755 173.438758 
L 161.660686 173.131327 
L 162.041617 173.206432 
L 162.422547 173.652991 
L 162.803478 174.436916 
L 163.56534 176.781832 
L 165.089062 182.278097 
L 165.850924 184.079943 
L 166.231855 184.524128 
L 166.612785 184.627071 
L 166.993716 184.388039 
L 167.374647 183.82766 
L 168.136508 181.921096 
L 170.041162 175.884105 
L 170.422092 175.068304 
L 170.803023 174.522552 
L 171.183954 174.276416 
L 171.564884 174.340264 
L 171.945815 174.704944 
L 172.326746 175.342677 
L 173.088607 177.246326 
L 174.61233 181.699435 
L 175.374192 183.155767 
L 175.755122 183.513327 
L 176.136053 183.59423 
L 176.516984 183.398037 
L 176.897914 182.941614 
L 177.659776 181.393028 
L 179.564429 176.501128 
L 180.326291 175.401202 
L 180.707221 175.203807 
L 181.088152 175.257671 
L 181.469083 175.555247 
L 182.230944 176.777563 
L 184.897459 182.405227 
L 185.27839 182.693273 
L 185.659321 182.757015 
L 186.040251 182.596215 
L 186.421182 182.224653 
L 187.183044 180.967107 
L 189.087697 177.003192 
L 189.849558 176.114479 
L 190.230489 175.956092 
L 190.61142 176.001358 
L 190.992351 176.244057 
L 191.754212 177.237126 
L 194.420727 181.795912 
L 194.801658 182.027965 
L 195.182588 182.078172 
L 195.563519 181.946434 
L 195.94445 181.644005 
L 196.706311 180.622907 
L 198.610965 177.411158 
L 199.372826 176.693149 
L 199.753757 176.566084 
L 200.134688 176.604078 
L 200.515618 176.802007 
L 201.27748 177.608791 
L 203.943995 181.301551 
L 204.324925 181.488472 
L 204.705856 181.527974 
L 205.086787 181.420048 
L 205.848648 180.80717 
L 206.99144 179.258421 
L 208.134233 177.742527 
L 208.896094 177.162462 
L 209.277025 177.060546 
L 209.657955 177.092407 
L 210.419817 177.532565 
L 211.181678 178.3588 
L 212.705401 180.278215 
L 213.467262 180.900506 
L 213.848193 181.051062 
L 214.229124 181.082107 
L 214.990985 180.793339 
L 215.752847 180.120128 
L 217.6575 178.011695 
L 218.419362 177.54308 
L 219.181223 177.488034 
L 219.943084 177.846295 
L 220.704946 178.516887 
L 222.609599 180.363055 
L 223.371461 180.69641 
L 224.133322 180.648369 
L 224.895184 180.243251 
L 226.037976 179.2244 
L 227.180768 178.230348 
L 227.942629 177.851774 
L 228.704491 177.808564 
L 229.466352 178.100159 
L 230.609144 178.968611 
L 231.751936 179.90446 
L 232.513798 180.31119 
L 233.275659 180.427972 
L 234.037521 180.235936 
L 234.799382 179.792093 
L 237.084966 178.223781 
L 237.846828 178.049586 
L 238.608689 178.155791 
L 239.370551 178.507241 
L 242.037066 180.097044 
L 242.798927 180.190677 
L 243.560788 180.034085 
L 244.703581 179.445384 
L 246.227303 178.552252 
L 246.989165 178.305191 
L 247.751026 178.278651 
L 248.512888 178.471807 
L 249.65568 179.043465 
L 251.179403 179.811497 
L 251.941264 179.986654 
L 252.703125 179.958608 
L 253.464987 179.740915 
L 256.512433 178.469874 
L 257.274294 178.449111 
L 258.036155 178.606313 
L 259.559878 179.246697 
L 260.70267 179.692042 
L 261.464532 179.833376 
L 262.226393 179.809979 
L 263.369185 179.500842 
L 265.65477 178.667344 
L 266.797562 178.587214 
L 267.940354 178.823096 
L 270.606869 179.668024 
L 271.749661 179.689595 
L 272.892453 179.43846 
L 275.178037 178.763324 
L 276.320829 178.699101 
L 277.463622 178.890864 
L 280.511067 179.608334 
L 281.653859 179.544701 
L 283.177582 179.185089 
L 284.701305 178.841215 
L 285.844097 178.789749 
L 286.986889 178.945642 
L 290.034335 179.526635 
L 291.177127 179.47455 
L 293.081781 179.09936 
L 294.605503 178.870858 
L 295.748296 178.888902 
L 297.652949 179.209254 
L 299.176672 179.438954 
L 300.700395 179.417766 
L 305.271563 178.943649 
L 307.557148 179.262566 
L 309.08087 179.406688 
L 310.604593 179.334505 
L 314.4139 178.97089 
L 316.318554 179.148812 
L 318.604138 179.363143 
L 320.508792 179.266534 
L 323.556237 179.006354 
L 325.460891 179.114581 
L 328.508337 179.329397 
L 330.793921 179.178085 
L 333.079505 179.038603 
L 335.365089 179.158867 
L 338.031604 179.300414 
L 340.698119 179.148435 
L 342.983703 179.067212 
L 350.221387 179.153584 
L 352.887902 179.09552 
L 358.982793 179.196332 
L 362.41117 179.110948 
L 368.886992 179.176721 
L 372.315368 179.131683 
L 378.029329 179.189352 
L 381.838636 179.140254 
L 381.838636 179.140254 
" style="fill:none;stroke:#1f77b4;stroke-linecap:square;stroke-width:1.5;"/>
   </g>
   <g id="patch_3">
    <path d="M 62.256818 251.82 
L 62.256818 7.2 
" style="fill:none;stroke:#000000;stroke-linecap:square;stroke-linejoin:miter;stroke-width:0.8;"/>
   </g>
   <g id="patch_4">
    <path d="M 397.056818 251.82 
L 397.056818 7.2 
" style="fill:none;stroke:#000000;stroke-linecap:square;stroke-linejoin:miter;stroke-width:0.8;"/>
   </g>
   <g id="patch_5">
    <path d="M 62.256818 251.82 
L 397.056818 251.82 
" style="fill:none;stroke:#000000;stroke-linecap:square;stroke-linejoin:miter;stroke-width:0.8;"/>
   </g>
   <g id="patch_6">
    <path d="M 62.256818 7.2 
L 397.056818 7.2 
" style="fill:none;stroke:#000000;stroke-linecap:square;stroke-linejoin:miter;stroke-width:0.8;"/>
   </g>
  </g>
 </g>
 <defs>
  <clipPath id="p9272d31f18">
   <rect height="244.62" width="334.8" x="62.256818" y="7.2"/>
  </clipPath>
 </defs>
</svg>
