<?xml version="1.0" encoding="utf-8" standalone="no"?>
<!DOCTYPE svg PUBLIC "-//W3C//DTD SVG 1.1//EN"
  "http://www.w3.org/Graphics/SVG/1.1/DTD/svg11.dtd">
<svg height="597.725562pt" version="1.1" viewBox="0 0 603.656131 597.725562" width="603.656131pt" xmlns="http://www.w3.org/2000/svg" xmlns:xlink="http://www.w3.org/1999/xlink">
 <metadata>
  <rdf:RDF xmlns:cc="http://creativecommons.org/ns#" xmlns:dc="http://purl.org/dc/elements/1.1/" xmlns:rdf="http://www.w3.org/1999/02/22-rdf-syntax-ns#">
   <cc:Work>
    <dc:type rdf:resource="http://purl.org/dc/dcmitype/StillImage"/>
    <dc:date>2023-08-22T16:59:42.027270</dc:date>
    <dc:format>image/svg+xml</dc:format>
    <dc:creator>
     <cc:Agent>
      <dc:title>Matplotlib v3.4.3, https://matplotlib.org/</dc:title>
     </cc:Agent>
    </dc:creator>
   </cc:Work>
  </rdf:RDF>
 </metadata>
 <defs>
  <style type="text/css">*{stroke-linecap:butt;stroke-linejoin:round;}</style>
 </defs>
 <g id="figure_1">
  <g id="patch_1">
   <path d="M 0 597.725562 
L 603.656131 597.725562 
L 603.656131 0 
L 0 0 
z
" style="fill:none;"/>
  </g>
  <g id="axes_1">
   <g id="patch_2">
    <path d="M 38.456131 171.233443 
L 596.456131 171.233443 
L 596.456131 11.35109 
L 38.456131 11.35109 
z
" style="fill:#ffffff;"/>
   </g>
   <g id="matplotlib.axis_1">
    <g id="xtick_1">
     <g id="line2d_1">
      <path clip-path="url(#pef31b51c70)" d="M 63.819768 171.233443 
L 63.819768 11.35109 
" style="fill:none;stroke:#b0b0b0;stroke-linecap:square;stroke-width:0.8;"/>
     </g>
     <g id="line2d_2">
      <defs>
       <path d="M 0 0 
L 0 3.5 
" id="m303d7f0a54" style="stroke:#000000;stroke-width:0.8;"/>
      </defs>
      <g>
       <use style="stroke:#000000;stroke-width:0.8;" x="63.819768" xlink:href="#m303d7f0a54" y="171.233443"/>
      </g>
     </g>
     <g id="text_1">
      <!-- $\mathdefault{0}$ -->
      <g transform="translate(60.893272 186.535623)scale(0.12 -0.12)">
       <defs>
        <path d="M 2688 2038 
C 2688 2430 2682 3099 2413 3613 
C 2176 4063 1798 4224 1466 4224 
C 1158 4224 768 4082 525 3620 
C 269 3137 243 2539 243 2038 
C 243 1671 250 1112 448 623 
C 723 -39 1216 -128 1466 -128 
C 1760 -128 2208 -7 2470 604 
C 2662 1048 2688 1568 2688 2038 
z
M 1466 -26 
C 1056 -26 813 328 723 816 
C 653 1196 653 1749 653 2109 
C 653 2604 653 3015 736 3407 
C 858 3954 1216 4121 1466 4121 
C 1728 4121 2067 3947 2189 3420 
C 2272 3054 2278 2623 2278 2109 
C 2278 1691 2278 1176 2202 797 
C 2067 96 1690 -26 1466 -26 
z
" id="CMR17-30" transform="scale(0.015625)"/>
       </defs>
       <use transform="scale(0.996264)" xlink:href="#CMR17-30"/>
      </g>
     </g>
    </g>
    <g id="xtick_2">
     <g id="line2d_3">
      <path clip-path="url(#pef31b51c70)" d="M 127.308219 171.233443 
L 127.308219 11.35109 
" style="fill:none;stroke:#b0b0b0;stroke-linecap:square;stroke-width:0.8;"/>
     </g>
     <g id="line2d_4">
      <g>
       <use style="stroke:#000000;stroke-width:0.8;" x="127.308219" xlink:href="#m303d7f0a54" y="171.233443"/>
      </g>
     </g>
     <g id="text_2">
      <!-- $\mathdefault{1}$ -->
      <g transform="translate(124.381724 186.535623)scale(0.12 -0.12)">
       <defs>
        <path d="M 1702 4083 
C 1702 4217 1696 4224 1606 4224 
C 1357 3927 979 3833 621 3820 
C 602 3820 570 3820 563 3808 
C 557 3795 557 3782 557 3648 
C 755 3648 1088 3686 1344 3839 
L 1344 467 
C 1344 243 1331 166 781 166 
L 589 166 
L 589 0 
C 896 6 1216 12 1523 12 
C 1830 12 2150 6 2458 0 
L 2458 166 
L 2266 166 
C 1715 166 1702 236 1702 467 
L 1702 4083 
z
" id="CMR17-31" transform="scale(0.015625)"/>
       </defs>
       <use transform="scale(0.996264)" xlink:href="#CMR17-31"/>
      </g>
     </g>
    </g>
    <g id="xtick_3">
     <g id="line2d_5">
      <path clip-path="url(#pef31b51c70)" d="M 190.79667 171.233443 
L 190.79667 11.35109 
" style="fill:none;stroke:#b0b0b0;stroke-linecap:square;stroke-width:0.8;"/>
     </g>
     <g id="line2d_6">
      <g>
       <use style="stroke:#000000;stroke-width:0.8;" x="190.79667" xlink:href="#m303d7f0a54" y="171.233443"/>
      </g>
     </g>
     <g id="text_3">
      <!-- $\mathdefault{2}$ -->
      <g transform="translate(187.870175 186.535623)scale(0.12 -0.12)">
       <defs>
        <path d="M 2669 990 
L 2554 990 
C 2490 537 2438 460 2413 422 
C 2381 371 1920 371 1830 371 
L 602 371 
C 832 620 1280 1073 1824 1596 
C 2214 1966 2669 2400 2669 3033 
C 2669 3788 2067 4224 1395 4224 
C 691 4224 262 3603 262 3027 
C 262 2777 448 2745 525 2745 
C 589 2745 781 2783 781 3007 
C 781 3206 614 3264 525 3264 
C 486 3264 448 3257 422 3244 
C 544 3788 915 4057 1306 4057 
C 1862 4057 2227 3616 2227 3033 
C 2227 2477 1901 1998 1536 1583 
L 262 147 
L 262 0 
L 2515 0 
L 2669 990 
z
" id="CMR17-32" transform="scale(0.015625)"/>
       </defs>
       <use transform="scale(0.996264)" xlink:href="#CMR17-32"/>
      </g>
     </g>
    </g>
    <g id="xtick_4">
     <g id="line2d_7">
      <path clip-path="url(#pef31b51c70)" d="M 254.285122 171.233443 
L 254.285122 11.35109 
" style="fill:none;stroke:#b0b0b0;stroke-linecap:square;stroke-width:0.8;"/>
     </g>
     <g id="line2d_8">
      <g>
       <use style="stroke:#000000;stroke-width:0.8;" x="254.285122" xlink:href="#m303d7f0a54" y="171.233443"/>
      </g>
     </g>
     <g id="text_4">
      <!-- $\mathdefault{3}$ -->
      <g transform="translate(251.358627 186.535623)scale(0.12 -0.12)">
       <defs>
        <path d="M 1414 2176 
C 1984 2176 2234 1673 2234 1094 
C 2234 322 1824 25 1453 25 
C 1114 25 563 193 390 691 
C 422 678 454 678 486 678 
C 640 678 755 780 755 947 
C 755 1132 614 1216 486 1216 
C 378 1216 211 1164 211 927 
C 211 335 787 -128 1466 -128 
C 2176 -128 2720 432 2720 1087 
C 2720 1718 2208 2176 1600 2246 
C 2086 2347 2554 2776 2554 3353 
C 2554 3856 2048 4224 1472 4224 
C 890 4224 378 3862 378 3347 
C 378 3123 544 3084 627 3084 
C 762 3084 877 3167 877 3334 
C 877 3500 762 3584 627 3584 
C 602 3584 570 3584 544 3571 
C 730 3999 1235 4076 1459 4076 
C 1683 4076 2106 3966 2106 3347 
C 2106 3167 2080 2851 1862 2574 
C 1670 2329 1453 2316 1242 2297 
C 1210 2297 1062 2284 1037 2284 
C 992 2278 966 2272 966 2227 
C 966 2182 973 2176 1101 2176 
L 1414 2176 
z
" id="CMR17-33" transform="scale(0.015625)"/>
       </defs>
       <use transform="scale(0.996264)" xlink:href="#CMR17-33"/>
      </g>
     </g>
    </g>
    <g id="xtick_5">
     <g id="line2d_9">
      <path clip-path="url(#pef31b51c70)" d="M 317.773573 171.233443 
L 317.773573 11.35109 
" style="fill:none;stroke:#b0b0b0;stroke-linecap:square;stroke-width:0.8;"/>
     </g>
     <g id="line2d_10">
      <g>
       <use style="stroke:#000000;stroke-width:0.8;" x="317.773573" xlink:href="#m303d7f0a54" y="171.233443"/>
      </g>
     </g>
     <g id="text_5">
      <!-- $\mathdefault{4}$ -->
      <g transform="translate(314.847078 186.535623)scale(0.12 -0.12)">
       <defs>
        <path d="M 2150 4147 
C 2150 4281 2144 4288 2029 4288 
L 128 1254 
L 128 1088 
L 1779 1088 
L 1779 460 
C 1779 230 1766 166 1318 166 
L 1197 166 
L 1197 0 
C 1402 12 1747 12 1965 12 
C 2182 12 2528 12 2733 0 
L 2733 166 
L 2611 166 
C 2163 166 2150 230 2150 460 
L 2150 1088 
L 2803 1088 
L 2803 1254 
L 2150 1254 
L 2150 4147 
z
M 1798 3723 
L 1798 1254 
L 256 1254 
L 1798 3723 
z
" id="CMR17-34" transform="scale(0.015625)"/>
       </defs>
       <use transform="scale(0.996264)" xlink:href="#CMR17-34"/>
      </g>
     </g>
    </g>
    <g id="xtick_6">
     <g id="line2d_11">
      <path clip-path="url(#pef31b51c70)" d="M 381.262025 171.233443 
L 381.262025 11.35109 
" style="fill:none;stroke:#b0b0b0;stroke-linecap:square;stroke-width:0.8;"/>
     </g>
     <g id="line2d_12">
      <g>
       <use style="stroke:#000000;stroke-width:0.8;" x="381.262025" xlink:href="#m303d7f0a54" y="171.233443"/>
      </g>
     </g>
     <g id="text_6">
      <!-- $\mathdefault{5}$ -->
      <g transform="translate(378.33553 186.535623)scale(0.12 -0.12)">
       <defs>
        <path d="M 730 3750 
C 794 3724 1056 3641 1325 3641 
C 1920 3641 2246 3961 2432 4140 
C 2432 4191 2432 4224 2394 4224 
C 2387 4224 2374 4224 2323 4198 
C 2099 4102 1837 4032 1517 4032 
C 1325 4032 1037 4055 723 4191 
C 653 4224 640 4224 634 4224 
C 602 4224 595 4217 595 4090 
L 595 2231 
C 595 2113 595 2080 659 2080 
C 691 2080 704 2093 736 2139 
C 941 2435 1222 2560 1542 2560 
C 1766 2560 2246 2415 2246 1293 
C 2246 1087 2246 716 2054 422 
C 1894 159 1645 25 1370 25 
C 947 25 518 319 403 812 
C 429 806 480 793 506 793 
C 589 793 749 838 749 1036 
C 749 1209 627 1280 506 1280 
C 358 1280 262 1190 262 1011 
C 262 454 704 -128 1382 -128 
C 2042 -128 2669 441 2669 1267 
C 2669 2054 2170 2662 1549 2662 
C 1222 2662 947 2540 730 2304 
L 730 3750 
z
" id="CMR17-35" transform="scale(0.015625)"/>
       </defs>
       <use transform="scale(0.996264)" xlink:href="#CMR17-35"/>
      </g>
     </g>
    </g>
    <g id="xtick_7">
     <g id="line2d_13">
      <path clip-path="url(#pef31b51c70)" d="M 444.750476 171.233443 
L 444.750476 11.35109 
" style="fill:none;stroke:#b0b0b0;stroke-linecap:square;stroke-width:0.8;"/>
     </g>
     <g id="line2d_14">
      <g>
       <use style="stroke:#000000;stroke-width:0.8;" x="444.750476" xlink:href="#m303d7f0a54" y="171.233443"/>
      </g>
     </g>
     <g id="text_7">
      <!-- $\mathdefault{6}$ -->
      <g transform="translate(441.823981 186.535623)scale(0.12 -0.12)">
       <defs>
        <path d="M 678 2198 
C 678 3712 1395 4076 1811 4076 
C 1946 4076 2272 4049 2400 3782 
C 2298 3782 2106 3782 2106 3558 
C 2106 3385 2246 3328 2336 3328 
C 2394 3328 2566 3353 2566 3571 
C 2566 3987 2246 4224 1805 4224 
C 1043 4224 243 3411 243 2011 
C 243 257 966 -128 1478 -128 
C 2099 -128 2688 431 2688 1295 
C 2688 2101 2170 2688 1517 2688 
C 1126 2688 838 2430 678 1979 
L 678 2198 
z
M 1478 25 
C 691 25 691 1212 691 1450 
C 691 1914 909 2585 1504 2585 
C 1613 2585 1926 2585 2138 2140 
C 2253 1889 2253 1624 2253 1302 
C 2253 954 2253 696 2118 438 
C 1978 173 1773 25 1478 25 
z
" id="CMR17-36" transform="scale(0.015625)"/>
       </defs>
       <use transform="scale(0.996264)" xlink:href="#CMR17-36"/>
      </g>
     </g>
    </g>
    <g id="xtick_8">
     <g id="line2d_15">
      <path clip-path="url(#pef31b51c70)" d="M 508.238928 171.233443 
L 508.238928 11.35109 
" style="fill:none;stroke:#b0b0b0;stroke-linecap:square;stroke-width:0.8;"/>
     </g>
     <g id="line2d_16">
      <g>
       <use style="stroke:#000000;stroke-width:0.8;" x="508.238928" xlink:href="#m303d7f0a54" y="171.233443"/>
      </g>
     </g>
     <g id="text_8">
      <!-- $\mathdefault{7}$ -->
      <g transform="translate(505.312433 186.535623)scale(0.12 -0.12)">
       <defs>
        <path d="M 2886 3955 
L 2886 4096 
L 1382 4096 
C 634 4096 621 4166 595 4288 
L 480 4288 
L 294 3104 
L 410 3104 
C 429 3226 474 3552 550 3673 
C 589 3724 1062 3724 1171 3724 
L 2579 3724 
L 1869 2670 
C 1395 1961 1069 1003 1069 166 
C 1069 89 1069 -128 1299 -128 
C 1530 -128 1530 89 1530 172 
L 1530 466 
C 1530 1514 1709 2204 2003 2644 
L 2886 3955 
z
" id="CMR17-37" transform="scale(0.015625)"/>
       </defs>
       <use transform="scale(0.996264)" xlink:href="#CMR17-37"/>
      </g>
     </g>
    </g>
    <g id="xtick_9">
     <g id="line2d_17">
      <path clip-path="url(#pef31b51c70)" d="M 571.727379 171.233443 
L 571.727379 11.35109 
" style="fill:none;stroke:#b0b0b0;stroke-linecap:square;stroke-width:0.8;"/>
     </g>
     <g id="line2d_18">
      <g>
       <use style="stroke:#000000;stroke-width:0.8;" x="571.727379" xlink:href="#m303d7f0a54" y="171.233443"/>
      </g>
     </g>
     <g id="text_9">
      <!-- $\mathdefault{8}$ -->
      <g transform="translate(568.800884 186.535623)scale(0.12 -0.12)">
       <defs>
        <path d="M 1741 2289 
C 2144 2494 2554 2803 2554 3298 
C 2554 3884 1990 4224 1472 4224 
C 890 4224 378 3800 378 3215 
C 378 3054 416 2777 666 2533 
C 730 2469 998 2276 1171 2154 
C 883 2006 211 1652 211 945 
C 211 282 838 -128 1459 -128 
C 2144 -128 2720 366 2720 1022 
C 2720 1607 2330 1877 2074 2051 
L 1741 2289 
z
M 902 2855 
C 851 2887 595 3086 595 3388 
C 595 3781 998 4076 1459 4076 
C 1965 4076 2336 3716 2336 3298 
C 2336 2700 1670 2359 1638 2359 
C 1632 2359 1626 2359 1574 2398 
L 902 2855 
z
M 2080 1536 
C 2176 1466 2483 1253 2483 861 
C 2483 385 2010 25 1472 25 
C 890 25 448 443 448 951 
C 448 1459 838 1884 1280 2083 
L 2080 1536 
z
" id="CMR17-38" transform="scale(0.015625)"/>
       </defs>
       <use transform="scale(0.996264)" xlink:href="#CMR17-38"/>
      </g>
     </g>
    </g>
    <g id="text_10">
     <!-- $t$ (s) -->
     <g transform="translate(304.709619 203.320991)scale(0.14 -0.14)">
      <defs>
       <path d="M 1286 2566 
L 1875 2566 
C 1997 2566 2061 2566 2061 2681 
C 2061 2752 2022 2752 1894 2752 
L 1331 2752 
L 1568 3664 
C 1594 3752 1594 3764 1594 3808 
C 1594 3910 1510 3968 1427 3968 
C 1376 3968 1229 3948 1178 3746 
L 928 2752 
L 326 2752 
C 198 2752 141 2752 141 2630 
C 141 2566 186 2566 307 2566 
L 877 2566 
L 454 881 
C 403 657 384 593 384 510 
C 384 210 595 -64 954 -64 
C 1600 -64 1946 868 1946 913 
C 1946 951 1920 970 1882 970 
C 1869 970 1843 970 1830 944 
C 1824 938 1818 932 1773 830 
C 1638 510 1344 64 973 64 
C 781 64 768 223 768 364 
C 768 370 768 491 787 568 
L 1286 2566 
z
" id="CMMI12-74" transform="scale(0.015625)"/>
       <path d="M 1958 -1562 
C 1958 -1556 1958 -1543 1939 -1524 
C 1645 -1223 858 -403 858 1596 
C 858 3595 1632 4408 1946 4729 
C 1946 4735 1958 4748 1958 4767 
C 1958 4787 1939 4800 1914 4800 
C 1843 4800 1299 4325 986 3620 
C 666 2909 576 2218 576 1603 
C 576 1141 621 360 1005 -467 
C 1312 -1133 1837 -1600 1914 -1600 
C 1946 -1600 1958 -1588 1958 -1562 
z
" id="CMR17-28" transform="scale(0.015625)"/>
       <path d="M 1978 2688 
C 1978 2803 1971 2809 1933 2809 
C 1907 2809 1901 2803 1824 2707 
C 1805 2681 1747 2617 1728 2592 
C 1523 2809 1235 2816 1126 2816 
C 416 2816 160 2444 160 2073 
C 160 1497 813 1363 998 1324 
C 1402 1241 1542 1216 1677 1100 
C 1760 1024 1901 883 1901 652 
C 1901 384 1747 38 1158 38 
C 602 38 403 460 288 1024 
C 269 1113 269 1120 218 1120 
C 166 1120 160 1113 160 985 
L 160 64 
C 160 -52 166 -58 205 -58 
C 237 -58 243 -52 275 0 
C 314 57 410 211 448 275 
C 576 102 800 -64 1158 -64 
C 1792 -64 2131 281 2131 780 
C 2131 1107 1958 1280 1875 1356 
C 1683 1555 1459 1600 1190 1651 
C 838 1728 390 1817 390 2208 
C 390 2374 480 2726 1126 2726 
C 1811 2726 1850 2086 1862 1881 
C 1869 1849 1901 1843 1920 1843 
C 1978 1843 1978 1862 1978 1971 
L 1978 2688 
z
" id="CMR17-73" transform="scale(0.015625)"/>
       <path d="M 1683 1596 
C 1683 2057 1638 2839 1254 3665 
C 947 4332 422 4800 346 4800 
C 326 4800 301 4793 301 4761 
C 301 4748 307 4742 314 4729 
C 621 4408 1402 3595 1402 1603 
C 1402 -396 627 -1210 314 -1530 
C 307 -1543 301 -1549 301 -1562 
C 301 -1594 326 -1600 346 -1600 
C 416 -1600 960 -1127 1274 -422 
C 1594 289 1683 981 1683 1596 
z
" id="CMR17-29" transform="scale(0.015625)"/>
      </defs>
      <use transform="scale(0.996264)" xlink:href="#CMMI12-74"/>
      <use transform="translate(65.302297 0)scale(0.996264)" xlink:href="#CMR17-28"/>
      <use transform="translate(100.583064 0)scale(0.996264)" xlink:href="#CMR17-73"/>
      <use transform="translate(136.384402 0)scale(0.996264)" xlink:href="#CMR17-29"/>
     </g>
    </g>
   </g>
   <g id="matplotlib.axis_2">
    <g id="ytick_1">
     <g id="line2d_19">
      <path clip-path="url(#pef31b51c70)" d="M 38.456131 171.233443 
L 596.456131 171.233443 
" style="fill:none;stroke:#b0b0b0;stroke-linecap:square;stroke-width:0.8;"/>
     </g>
     <g id="line2d_20">
      <defs>
       <path d="M 0 0 
L -3.5 0 
" id="m7238661d03" style="stroke:#000000;stroke-width:0.8;"/>
      </defs>
      <g>
       <use style="stroke:#000000;stroke-width:0.8;" x="38.456131" xlink:href="#m7238661d03" y="171.233443"/>
      </g>
     </g>
     <g id="text_11">
      <!-- $\mathdefault{−1.0}$ -->
      <g transform="translate(7.2 175.384533)scale(0.12 -0.12)">
       <defs>
        <path d="M 4218 1472 
C 4326 1472 4442 1472 4442 1600 
C 4442 1728 4326 1728 4218 1728 
L 755 1728 
C 646 1728 531 1728 531 1600 
C 531 1472 646 1472 755 1472 
L 4218 1472 
z
" id="CMSY10-0" transform="scale(0.015625)"/>
        <path d="M 1178 307 
C 1178 492 1024 620 870 620 
C 685 620 557 467 557 313 
C 557 128 710 0 864 0 
C 1050 0 1178 153 1178 307 
z
" id="CMMI12-3a" transform="scale(0.015625)"/>
       </defs>
       <use transform="scale(0.996264)" xlink:href="#CMSY10-0"/>
       <use transform="translate(77.487468 0)scale(0.996264)" xlink:href="#CMR17-31"/>
       <use transform="translate(123.177945 0)scale(0.996264)" xlink:href="#CMMI12-3a"/>
       <use transform="translate(150.275122 0)scale(0.996264)" xlink:href="#CMR17-30"/>
      </g>
     </g>
    </g>
    <g id="ytick_2">
     <g id="line2d_21">
      <path clip-path="url(#pef31b51c70)" d="M 38.456131 131.262855 
L 596.456131 131.262855 
" style="fill:none;stroke:#b0b0b0;stroke-linecap:square;stroke-width:0.8;"/>
     </g>
     <g id="line2d_22">
      <g>
       <use style="stroke:#000000;stroke-width:0.8;" x="38.456131" xlink:href="#m7238661d03" y="131.262855"/>
      </g>
     </g>
     <g id="text_12">
      <!-- $\mathdefault{−0.5}$ -->
      <g transform="translate(7.2 135.413945)scale(0.12 -0.12)">
       <use transform="scale(0.996264)" xlink:href="#CMSY10-0"/>
       <use transform="translate(77.487468 0)scale(0.996264)" xlink:href="#CMR17-30"/>
       <use transform="translate(123.177945 0)scale(0.996264)" xlink:href="#CMMI12-3a"/>
       <use transform="translate(150.275122 0)scale(0.996264)" xlink:href="#CMR17-35"/>
      </g>
     </g>
    </g>
    <g id="ytick_3">
     <g id="line2d_23">
      <path clip-path="url(#pef31b51c70)" d="M 38.456131 91.292266 
L 596.456131 91.292266 
" style="fill:none;stroke:#b0b0b0;stroke-linecap:square;stroke-width:0.8;"/>
     </g>
     <g id="line2d_24">
      <g>
       <use style="stroke:#000000;stroke-width:0.8;" x="38.456131" xlink:href="#m7238661d03" y="91.292266"/>
      </g>
     </g>
     <g id="text_13">
      <!-- $\mathdefault{0.0}$ -->
      <g transform="translate(16.498489 95.443356)scale(0.12 -0.12)">
       <use transform="scale(0.996264)" xlink:href="#CMR17-30"/>
       <use transform="translate(45.690477 0)scale(0.996264)" xlink:href="#CMMI12-3a"/>
       <use transform="translate(72.787654 0)scale(0.996264)" xlink:href="#CMR17-30"/>
      </g>
     </g>
    </g>
    <g id="ytick_4">
     <g id="line2d_25">
      <path clip-path="url(#pef31b51c70)" d="M 38.456131 51.321678 
L 596.456131 51.321678 
" style="fill:none;stroke:#b0b0b0;stroke-linecap:square;stroke-width:0.8;"/>
     </g>
     <g id="line2d_26">
      <g>
       <use style="stroke:#000000;stroke-width:0.8;" x="38.456131" xlink:href="#m7238661d03" y="51.321678"/>
      </g>
     </g>
     <g id="text_14">
      <!-- $\mathdefault{0.5}$ -->
      <g transform="translate(16.498489 55.472768)scale(0.12 -0.12)">
       <use transform="scale(0.996264)" xlink:href="#CMR17-30"/>
       <use transform="translate(45.690477 0)scale(0.996264)" xlink:href="#CMMI12-3a"/>
       <use transform="translate(72.787654 0)scale(0.996264)" xlink:href="#CMR17-35"/>
      </g>
     </g>
    </g>
    <g id="ytick_5">
     <g id="line2d_27">
      <path clip-path="url(#pef31b51c70)" d="M 38.456131 11.35109 
L 596.456131 11.35109 
" style="fill:none;stroke:#b0b0b0;stroke-linecap:square;stroke-width:0.8;"/>
     </g>
     <g id="line2d_28">
      <g>
       <use style="stroke:#000000;stroke-width:0.8;" x="38.456131" xlink:href="#m7238661d03" y="11.35109"/>
      </g>
     </g>
     <g id="text_15">
      <!-- $\mathdefault{1.0}$ -->
      <g transform="translate(16.498489 15.50218)scale(0.12 -0.12)">
       <use transform="scale(0.996264)" xlink:href="#CMR17-31"/>
       <use transform="translate(45.690477 0)scale(0.996264)" xlink:href="#CMMI12-3a"/>
       <use transform="translate(72.787654 0)scale(0.996264)" xlink:href="#CMR17-30"/>
      </g>
     </g>
    </g>
   </g>
   <g id="line2d_29">
    <path clip-path="url(#pef31b51c70)" d="M 63.819768 91.292266 
L 127.308219 91.292266 
L 130.482642 87.414007 
L 132.387295 85.454834 
L 133.657064 84.440631 
L 134.926833 83.748898 
L 136.196602 83.458308 
L 136.831487 83.486899 
L 137.466371 83.642574 
L 138.101256 83.932338 
L 138.73614 84.36172 
L 140.005909 85.652192 
L 141.275678 87.516959 
L 142.545447 89.916898 
L 143.815216 92.764772 
L 146.354754 99.206082 
L 148.259408 103.863005 
L 149.529177 106.415036 
L 150.164062 107.426804 
L 150.798946 108.22054 
L 151.433831 108.767296 
L 152.068715 109.040968 
L 152.7036 109.019008 
L 153.338484 108.683117 
L 153.973369 108.019871 
L 154.608253 107.0213 
L 155.243138 105.685368 
L 155.878022 104.016362 
L 157.147791 99.729441 
L 158.41756 94.328706 
L 160.322214 84.764085 
L 163.496636 68.355758 
L 164.766405 63.044955 
L 165.40129 60.904245 
L 166.036174 59.181098 
L 166.671059 57.925066 
L 167.305943 57.17927 
L 167.940828 56.979319 
L 168.575712 57.352332 
L 169.210597 58.31608 
L 169.845482 59.878296 
L 170.480366 62.036133 
L 171.115251 64.775823 
L 172.38502 71.890392 
L 173.654789 80.892992 
L 175.559442 96.82373 
L 178.733865 124.139594 
L 180.003634 133.096214 
L 181.273403 139.822572 
L 181.908287 142.155967 
L 182.543172 143.718789 
L 183.178056 144.462481 
L 183.812941 144.351534 
L 184.447825 143.364465 
L 185.08271 141.494554 
L 185.717594 138.750335 
L 186.352479 135.155812 
L 187.622248 125.588567 
L 188.892017 113.284836 
L 190.79667 91.292266 
L 193.971093 53.085608 
L 195.240862 40.265013 
L 196.510631 30.299442 
L 197.145516 26.635672 
L 197.7804 23.957746 
L 198.415285 22.326384 
L 199.050169 21.785372 
L 199.685054 22.360542 
L 200.319938 24.05906 
L 200.954823 26.869044 
L 201.589707 30.759509 
L 202.224592 35.680659 
L 203.494361 48.32587 
L 204.76413 64.0621 
L 206.668783 91.292266 
L 209.208321 128.185688 
L 210.47809 144.137377 
L 211.747859 156.9411 
L 212.382744 161.875755 
L 213.017629 165.709844 
L 213.652513 168.373664 
L 214.287398 169.816832 
L 214.922282 170.009251 
L 215.557167 168.941735 
L 216.192051 166.626257 
L 216.826936 163.09583 
L 217.46182 158.404021 
L 218.731589 145.847825 
L 220.001358 129.756328 
L 221.906012 101.311298 
L 225.080434 52.859459 
L 226.350203 36.803226 
L 227.619972 24.289679 
L 228.254857 19.620151 
L 228.889741 16.111577 
L 229.524626 13.816696 
L 230.15951 12.767701 
L 230.794395 12.97577 
L 231.429279 14.430969 
L 232.064164 17.102523 
L 232.699048 20.939458 
L 233.333933 25.871583 
L 234.603702 38.65279 
L 235.873471 54.557844 
L 237.778125 81.870428 
L 240.317663 118.36455 
L 241.587432 133.990919 
L 242.857201 146.532997 
L 243.492085 151.407982 
L 244.12697 155.257365 
L 244.761854 158.032383 
L 245.396739 159.702995 
L 246.031623 160.258149 
L 246.666508 159.705708 
L 247.301392 158.07205 
L 247.936277 155.401339 
L 248.571161 151.754498 
L 249.206046 147.207899 
L 250.475815 135.788546 
L 251.745584 121.998533 
L 256.82466 63.182733 
L 258.094429 52.322575 
L 258.729314 47.983181 
L 259.364198 44.446637 
L 259.999083 41.751221 
L 260.633967 39.919959 
L 261.268852 38.960578 
L 261.903736 38.865744 
L 262.538621 39.613562 
L 263.173505 41.168325 
L 263.80839 43.481501 
L 264.443274 46.492915 
L 265.713043 54.319937 
L 266.982812 63.990791 
L 272.061888 106.117906 
L 273.331657 114.060567 
L 274.601426 119.959896 
L 275.236311 122.063577 
L 275.871195 123.582431 
L 276.50608 124.514271 
L 277.140964 124.867281 
L 277.775849 124.659467 
L 278.410734 123.917961 
L 279.045618 122.678168 
L 279.680503 120.98279 
L 280.950272 116.426078 
L 282.220041 110.692924 
L 287.299117 85.592457 
L 288.568886 80.863492 
L 289.838655 77.31812 
L 290.473539 76.027059 
L 291.108424 75.064214 
L 291.743308 74.427195 
L 292.378193 74.107865 
L 293.013077 74.092828 
L 293.647962 74.363993 
L 294.282846 74.899201 
L 294.917731 75.672896 
L 296.1875 77.820789 
L 297.457269 80.562227 
L 302.536345 92.621728 
L 303.806114 94.943381 
L 305.075883 96.751387 
L 306.345652 98.008759 
L 306.980537 98.43048 
L 307.615421 98.718226 
L 308.250306 98.877153 
L 308.88519 98.913769 
L 310.154959 98.651073 
L 311.424728 97.998161 
L 312.694497 97.027297 
L 313.964266 95.808969 
L 315.86892 93.658485 
L 317.773573 91.292266 
L 571.092495 91.292266 
L 571.092495 91.292266 
" style="fill:none;stroke:#1f77b4;stroke-linecap:square;stroke-opacity:0.5;stroke-width:1.5;"/>
   </g>
   <g id="line2d_30">
    <path clip-path="url(#pef31b51c70)" d="M 63.819768 91.292266 
L 129.212873 91.200195 
L 131.117526 90.92172 
L 133.02218 90.382073 
L 134.926833 89.502833 
L 136.831487 88.292748 
L 141.275678 85.232656 
L 142.545447 84.738129 
L 143.815216 84.621441 
L 144.450101 84.736387 
L 145.084985 84.980438 
L 145.71987 85.361014 
L 146.989639 86.547877 
L 148.259408 88.298315 
L 149.529177 90.560345 
L 151.433831 94.664563 
L 154.608253 101.879078 
L 155.878022 104.236575 
L 157.147791 105.940945 
L 157.782676 106.482421 
L 158.41756 106.786577 
L 159.052445 106.834763 
L 159.687329 106.612078 
L 160.322214 106.107782 
L 160.957098 105.315641 
L 161.591983 104.23422 
L 162.226867 102.867106 
L 163.496636 99.316079 
L 164.766405 94.795599 
L 166.671059 86.68902 
L 169.845482 72.381805 
L 171.115251 67.541511 
L 172.38502 63.832252 
L 173.019904 62.522498 
L 173.654789 61.632738 
L 174.289673 61.198932 
L 174.924558 61.25057 
L 175.559442 61.809755 
L 176.194327 62.890391 
L 176.829211 64.497483 
L 177.464096 66.62659 
L 178.09898 69.263447 
L 179.368749 75.95327 
L 180.638518 84.254151 
L 182.543172 98.683977 
L 185.08271 118.331648 
L 186.352479 126.756407 
L 187.622248 133.339847 
L 188.257132 135.755614 
L 188.892017 137.504722 
L 189.526901 138.537756 
L 190.161786 138.816816 
L 190.79667 138.31647 
L 191.431555 137.024499 
L 192.06644 134.942391 
L 192.701324 132.085592 
L 193.336209 128.483504 
L 194.605978 119.229025 
L 195.875747 107.677113 
L 197.7804 87.567382 
L 200.319938 60.081027 
L 201.589707 48.126339 
L 202.859476 38.528823 
L 203.494361 34.847873 
L 204.129245 32.015681 
L 204.76413 30.09393 
L 205.399014 29.129925 
L 206.033899 29.15553 
L 206.668783 30.18635 
L 207.303668 32.221186 
L 207.938552 35.241764 
L 208.573437 39.212773 
L 209.843206 49.781959 
L 211.112975 63.325748 
L 213.017629 87.370036 
L 216.192051 128.651495 
L 217.46182 142.375589 
L 218.731589 153.019054 
L 219.366474 156.941658 
L 220.001358 159.831147 
L 220.636243 161.633415 
L 221.271127 162.3126 
L 221.906012 161.851793 
L 222.540896 160.253406 
L 223.175781 157.539189 
L 223.810665 153.749906 
L 224.44555 148.944657 
L 225.715319 136.608051 
L 226.985088 121.323456 
L 228.889741 95.08118 
L 231.429279 59.938209 
L 232.699048 44.882778 
L 233.968817 32.846393 
L 234.603702 28.209241 
L 235.238587 24.595111 
L 235.873471 22.059426 
L 236.508356 20.639435 
L 237.14324 20.35364 
L 237.778125 21.201545 
L 238.413009 23.163739 
L 239.047894 26.202293 
L 239.682778 30.261479 
L 240.952547 41.136277 
L 242.222316 55.032225 
L 244.12697 79.43182 
L 246.666508 112.854199 
L 247.936277 127.495477 
L 249.206046 139.489436 
L 249.84093 144.259993 
L 250.475815 148.117376 
L 251.110699 151.010102 
L 251.745584 152.903749 
L 252.380468 153.781344 
L 253.015353 153.643429 
L 253.650237 152.507811 
L 254.285122 150.409002 
L 254.920006 147.397365 
L 255.554891 143.537979 
L 256.82466 133.601384 
L 258.094429 121.356625 
L 260.633967 93.54421 
L 262.538621 73.47475 
L 263.80839 62.085954 
L 265.078159 53.085143 
L 265.713043 49.63596 
L 266.347928 46.944483 
L 266.982812 45.036168 
L 267.617697 43.922517 
L 268.252581 43.601209 
L 268.887466 44.056486 
L 269.52235 45.259751 
L 270.157235 47.17039 
L 270.792119 49.736785 
L 272.061888 56.582569 
L 273.331657 65.21238 
L 275.871195 85.098034 
L 277.775849 99.567256 
L 279.045618 107.830148 
L 280.315387 114.426869 
L 280.950272 116.99478 
L 281.585156 119.039068 
L 282.220041 120.544935 
L 282.854925 121.50769 
L 283.48981 121.932485 
L 284.124694 121.833875 
L 284.759579 121.235205 
L 285.394463 120.167851 
L 286.029348 118.670333 
L 287.299117 114.568542 
L 288.568886 109.341082 
L 291.108424 97.336868 
L 293.013077 88.721333 
L 294.282846 83.861456 
L 295.552615 80.014542 
L 296.1875 78.522699 
L 296.822384 77.333673 
L 297.457269 76.451101 
L 298.092153 75.872784 
L 298.727038 75.591058 
L 299.361923 75.593258 
L 299.996807 75.86225 
L 300.631692 76.377029 
L 301.266576 77.113353 
L 302.536345 79.141512 
L 303.806114 81.713594 
L 308.88519 92.8374 
L 310.154959 94.910069 
L 311.424728 96.478931 
L 312.694497 97.514291 
L 313.329382 97.833866 
L 313.964266 98.026789 
L 314.599151 98.099354 
L 315.86892 97.915334 
L 317.138689 97.354709 
L 318.408458 96.509056 
L 320.947996 94.467028 
L 323.487534 92.516135 
L 324.757303 91.762562 
L 326.027072 91.218568 
L 327.296841 90.89706 
L 328.56661 90.784998 
L 330.471264 90.929571 
L 336.820109 91.970271 
L 338.724762 91.934561 
L 341.2643 91.609526 
L 345.073608 91.047344 
L 347.613146 90.953959 
L 350.152684 91.119459 
L 354.596875 91.497888 
L 357.136413 91.493323 
L 366.024797 91.190453 
L 373.008526 91.379951 
L 382.531794 91.265226 
L 388.880639 91.349067 
L 397.769022 91.260281 
L 404.752752 91.341155 
L 413.641135 91.264273 
L 421.259749 91.323702 
L 429.513248 91.268856 
L 437.766747 91.308495 
L 446.020245 91.282265 
L 454.273744 91.297008 
L 462.527243 91.291863 
L 470.780741 91.289182 
L 479.669125 91.303671 
L 489.827277 91.271578 
L 571.092495 91.286197 
L 571.092495 91.286197 
" style="fill:none;stroke:#1f77b4;stroke-linecap:square;stroke-width:1.5;"/>
   </g>
   <g id="patch_3">
    <path d="M 38.456131 171.233443 
L 38.456131 11.35109 
" style="fill:none;stroke:#000000;stroke-linecap:square;stroke-linejoin:miter;stroke-width:0.8;"/>
   </g>
   <g id="patch_4">
    <path d="M 596.456131 171.233443 
L 596.456131 11.35109 
" style="fill:none;stroke:#000000;stroke-linecap:square;stroke-linejoin:miter;stroke-width:0.8;"/>
   </g>
   <g id="patch_5">
    <path d="M 38.456131 171.233443 
L 596.456131 171.233443 
" style="fill:none;stroke:#000000;stroke-linecap:square;stroke-linejoin:miter;stroke-width:0.8;"/>
   </g>
   <g id="patch_6">
    <path d="M 38.456131 11.35109 
L 596.456131 11.35109 
" style="fill:none;stroke:#000000;stroke-linecap:square;stroke-linejoin:miter;stroke-width:0.8;"/>
   </g>
   <g id="legend_1">
    <g id="patch_7">
     <path d="M 502.594731 61.575147 
L 586.656131 61.575147 
Q 589.456131 61.575147 589.456131 58.775147 
L 589.456131 21.15109 
Q 589.456131 18.35109 586.656131 18.35109 
L 502.594731 18.35109 
Q 499.794731 18.35109 499.794731 21.15109 
L 499.794731 58.775147 
Q 499.794731 61.575147 502.594731 61.575147 
z
" style="fill:#ffffff;opacity:0.8;stroke:#cccccc;stroke-linejoin:miter;"/>
    </g>
    <g id="line2d_31">
     <path d="M 505.394731 28.85109 
L 533.394731 28.85109 
" style="fill:none;stroke:#1f77b4;stroke-linecap:square;stroke-opacity:0.5;stroke-width:1.5;"/>
    </g>
    <g id="line2d_32"/>
    <g id="text_16">
     <!-- Entrée -->
     <g transform="translate(544.594731 33.75109)scale(0.14 -0.14)">
      <defs>
       <path d="M 3885 1614 
L 3770 1614 
C 3629 676 3546 166 2419 166 
L 1530 166 
C 1274 166 1261 198 1261 415 
L 1261 2176 
L 1862 2176 
C 2464 2176 2522 1959 2522 1429 
L 2637 1429 
L 2637 3086 
L 2522 3086 
C 2522 2558 2464 2342 1862 2342 
L 1261 2342 
L 1261 3924 
C 1261 4141 1274 4172 1530 4172 
L 2406 4172 
C 3398 4172 3514 3778 3603 2933 
L 3718 2933 
L 3565 4339 
L 326 4339 
L 326 4172 
C 768 4172 838 4172 838 3886 
L 838 453 
C 838 166 768 166 326 166 
L 326 0 
L 3654 0 
L 3885 1614 
z
" id="CMR17-45" transform="scale(0.015625)"/>
       <path d="M 2656 1954 
C 2656 2282 2592 2816 1837 2816 
C 1331 2816 1069 2424 973 2166 
L 966 2166 
L 966 2816 
L 211 2745 
L 211 2578 
C 589 2578 646 2540 646 2231 
L 646 443 
C 646 198 621 166 211 166 
L 211 0 
C 365 12 646 12 813 12 
C 979 12 1267 12 1421 0 
L 1421 166 
C 1011 166 986 192 986 443 
L 986 1678 
C 986 2269 1344 2713 1792 2713 
C 2266 2713 2317 2289 2317 1980 
L 2317 443 
C 2317 198 2291 166 1882 166 
L 1882 0 
C 2035 12 2317 12 2483 12 
C 2650 12 2938 12 3091 0 
L 3091 166 
C 2682 166 2656 192 2656 443 
L 2656 1954 
z
" id="CMR17-6e" transform="scale(0.015625)"/>
       <path d="M 966 2585 
L 1862 2585 
L 1862 2752 
L 966 2752 
L 966 3968 
L 851 3968 
C 838 3292 614 2700 70 2687 
L 70 2585 
L 627 2585 
L 627 778 
C 627 655 627 -64 1370 -64 
C 1747 -64 1965 308 1965 784 
L 1965 1151 
L 1850 1151 
L 1850 790 
C 1850 347 1677 51 1408 51 
C 1222 51 966 179 966 765 
L 966 2585 
z
" id="CMR17-74" transform="scale(0.015625)"/>
       <path d="M 960 1517 
C 960 2134 1222 2713 1702 2713 
C 1747 2713 1792 2707 1837 2687 
C 1837 2687 1696 2642 1696 2475 
C 1696 2321 1818 2257 1914 2257 
C 1990 2257 2131 2302 2131 2482 
C 2131 2687 1926 2816 1709 2816 
C 1222 2816 1011 2340 947 2115 
L 941 2115 
L 941 2816 
L 198 2745 
L 198 2578 
C 576 2578 634 2540 634 2231 
L 634 443 
C 634 198 608 166 198 166 
L 198 0 
C 352 12 646 12 813 12 
C 998 12 1325 12 1498 0 
L 1498 166 
C 1037 166 960 166 960 455 
L 960 1517 
z
" id="CMR17-72" transform="scale(0.015625)"/>
       <path d="M 2221 4157 
C 2298 4226 2317 4239 2317 4308 
C 2317 4403 2234 4480 2144 4480 
C 2067 4480 2042 4447 1978 4371 
L 1254 3468 
C 1210 3411 1210 3404 1210 3398 
C 1210 3391 1267 3334 1280 3321 
L 2221 4157 
z
" id="CMR17-13" transform="scale(0.015625)"/>
       <path d="M 2438 1503 
C 2464 1529 2464 1542 2464 1606 
C 2464 2251 2118 2816 1389 2816 
C 710 2816 173 2175 173 1394 
C 173 554 781 -64 1459 -64 
C 2176 -64 2458 619 2458 755 
C 2458 800 2419 800 2406 800 
C 2362 800 2355 787 2330 709 
C 2189 270 1837 51 1504 51 
C 1229 51 954 206 781 490 
C 582 819 582 1200 582 1503 
L 2438 1503 
z
M 589 1600 
C 634 2511 1126 2713 1382 2713 
C 1818 2713 2112 2308 2118 1600 
L 589 1600 
z
" id="CMR17-65" transform="scale(0.015625)"/>
      </defs>
      <use transform="scale(0.996264)" xlink:href="#CMR17-45"/>
      <use transform="translate(62.586301 0)scale(0.996264)" xlink:href="#CMR17-6e"/>
      <use transform="translate(110.879216 0)scale(0.996264)" xlink:href="#CMR17-74"/>
      <use transform="translate(146.159984 0)scale(0.996264)" xlink:href="#CMR17-72"/>
      <use transform="translate(178.838344 0)scale(0.996264)" xlink:href="#CMR17-13"/>
      <use transform="translate(181.440752 0)scale(0.996264)" xlink:href="#CMR17-65"/>
      <use transform="translate(221.926412 0)scale(0.996264)" xlink:href="#CMR17-65"/>
     </g>
    </g>
    <g id="line2d_33">
     <path d="M 505.394731 48.363118 
L 533.394731 48.363118 
" style="fill:none;stroke:#1f77b4;stroke-linecap:square;stroke-width:1.5;"/>
    </g>
    <g id="line2d_34"/>
    <g id="text_17">
     <!-- Sortie -->
     <g transform="translate(544.594731 53.263118)scale(0.14 -0.14)">
      <defs>
       <path d="M 2803 4351 
C 2803 4467 2797 4473 2758 4473 
C 2720 4473 2707 4447 2682 4390 
L 2490 3965 
C 2246 4320 1875 4480 1472 4480 
C 819 4480 294 3958 294 3301 
C 294 3101 339 2817 557 2546 
C 794 2250 1018 2198 1530 2063 
C 1722 2011 2042 1927 2106 1901 
C 2470 1747 2662 1360 2662 999 
C 2662 534 2336 38 1779 38 
C 1094 38 454 425 410 1328 
C 403 1431 397 1437 352 1437 
C 301 1437 294 1431 294 1302 
L 294 0 
C 294 -116 301 -122 339 -122 
C 384 -122 397 -90 486 109 
C 493 128 493 141 614 386 
C 934 -39 1472 -128 1779 -128 
C 2477 -128 2970 457 2970 1141 
C 2970 1476 2848 1734 2778 1850 
C 2509 2263 2221 2340 1914 2417 
C 1869 2437 1856 2437 1498 2527 
C 1152 2617 1005 2662 845 2836 
C 666 3036 602 3243 602 3449 
C 602 3868 934 4326 1478 4326 
C 2157 4326 2579 3842 2675 3036 
C 2694 2920 2701 2914 2746 2914 
C 2803 2914 2803 2933 2803 3043 
L 2803 4351 
z
" id="CMR17-53" transform="scale(0.015625)"/>
       <path d="M 2758 1356 
C 2758 2176 2163 2816 1466 2816 
C 768 2816 173 2176 173 1356 
C 173 550 768 -64 1466 -64 
C 2163 -64 2758 550 2758 1356 
z
M 1466 51 
C 1165 51 909 230 762 480 
C 602 768 582 1126 582 1408 
C 582 1676 595 2009 762 2297 
C 890 2508 1139 2713 1466 2713 
C 1754 2713 1997 2553 2150 2329 
C 2349 2028 2349 1606 2349 1408 
C 2349 1158 2336 774 2163 467 
C 1984 172 1709 51 1466 51 
z
" id="CMR17-6f" transform="scale(0.015625)"/>
       <path d="M 992 3961 
C 992 4102 877 4224 730 4224 
C 589 4224 467 4108 467 3961 
C 467 3820 582 3699 730 3699 
C 870 3699 992 3814 992 3961 
z
M 243 2745 
L 243 2579 
C 602 2579 653 2540 653 2231 
L 653 443 
C 653 198 627 166 218 166 
L 218 0 
C 371 12 646 12 806 12 
C 960 12 1222 12 1370 0 
L 1370 166 
C 992 166 979 205 979 436 
L 979 2816 
L 243 2745 
z
" id="CMR17-69" transform="scale(0.015625)"/>
      </defs>
      <use transform="scale(0.996264)" xlink:href="#CMR17-53"/>
      <use transform="translate(50.89537 0)scale(0.996264)" xlink:href="#CMR17-6f"/>
      <use transform="translate(96.585847 0)scale(0.996264)" xlink:href="#CMR17-72"/>
      <use transform="translate(131.866615 0)scale(0.996264)" xlink:href="#CMR17-74"/>
      <use transform="translate(167.147382 0)scale(0.996264)" xlink:href="#CMR17-69"/>
      <use transform="translate(192.018441 0)scale(0.996264)" xlink:href="#CMR17-65"/>
     </g>
    </g>
   </g>
  </g>
  <g id="axes_2">
   <g id="patch_8">
    <path d="M 38.456131 363.092266 
L 596.456131 363.092266 
L 596.456131 203.209913 
L 38.456131 203.209913 
z
" style="fill:#ffffff;"/>
   </g>
   <g id="matplotlib.axis_3">
    <g id="xtick_10">
     <g id="line2d_35">
      <path clip-path="url(#p272f6c8f13)" d="M 63.819768 363.092266 
L 63.819768 203.209913 
" style="fill:none;stroke:#b0b0b0;stroke-linecap:square;stroke-width:0.8;"/>
     </g>
     <g id="line2d_36">
      <g>
       <use style="stroke:#000000;stroke-width:0.8;" x="63.819768" xlink:href="#m303d7f0a54" y="363.092266"/>
      </g>
     </g>
     <g id="text_18">
      <!-- $\mathdefault{0}$ -->
      <g transform="translate(60.893272 378.394446)scale(0.12 -0.12)">
       <use transform="scale(0.996264)" xlink:href="#CMR17-30"/>
      </g>
     </g>
    </g>
    <g id="xtick_11">
     <g id="line2d_37">
      <path clip-path="url(#p272f6c8f13)" d="M 127.308219 363.092266 
L 127.308219 203.209913 
" style="fill:none;stroke:#b0b0b0;stroke-linecap:square;stroke-width:0.8;"/>
     </g>
     <g id="line2d_38">
      <g>
       <use style="stroke:#000000;stroke-width:0.8;" x="127.308219" xlink:href="#m303d7f0a54" y="363.092266"/>
      </g>
     </g>
     <g id="text_19">
      <!-- $\mathdefault{1}$ -->
      <g transform="translate(124.381724 378.394446)scale(0.12 -0.12)">
       <use transform="scale(0.996264)" xlink:href="#CMR17-31"/>
      </g>
     </g>
    </g>
    <g id="xtick_12">
     <g id="line2d_39">
      <path clip-path="url(#p272f6c8f13)" d="M 190.79667 363.092266 
L 190.79667 203.209913 
" style="fill:none;stroke:#b0b0b0;stroke-linecap:square;stroke-width:0.8;"/>
     </g>
     <g id="line2d_40">
      <g>
       <use style="stroke:#000000;stroke-width:0.8;" x="190.79667" xlink:href="#m303d7f0a54" y="363.092266"/>
      </g>
     </g>
     <g id="text_20">
      <!-- $\mathdefault{2}$ -->
      <g transform="translate(187.870175 378.394446)scale(0.12 -0.12)">
       <use transform="scale(0.996264)" xlink:href="#CMR17-32"/>
      </g>
     </g>
    </g>
    <g id="xtick_13">
     <g id="line2d_41">
      <path clip-path="url(#p272f6c8f13)" d="M 254.285122 363.092266 
L 254.285122 203.209913 
" style="fill:none;stroke:#b0b0b0;stroke-linecap:square;stroke-width:0.8;"/>
     </g>
     <g id="line2d_42">
      <g>
       <use style="stroke:#000000;stroke-width:0.8;" x="254.285122" xlink:href="#m303d7f0a54" y="363.092266"/>
      </g>
     </g>
     <g id="text_21">
      <!-- $\mathdefault{3}$ -->
      <g transform="translate(251.358627 378.394446)scale(0.12 -0.12)">
       <use transform="scale(0.996264)" xlink:href="#CMR17-33"/>
      </g>
     </g>
    </g>
    <g id="xtick_14">
     <g id="line2d_43">
      <path clip-path="url(#p272f6c8f13)" d="M 317.773573 363.092266 
L 317.773573 203.209913 
" style="fill:none;stroke:#b0b0b0;stroke-linecap:square;stroke-width:0.8;"/>
     </g>
     <g id="line2d_44">
      <g>
       <use style="stroke:#000000;stroke-width:0.8;" x="317.773573" xlink:href="#m303d7f0a54" y="363.092266"/>
      </g>
     </g>
     <g id="text_22">
      <!-- $\mathdefault{4}$ -->
      <g transform="translate(314.847078 378.394446)scale(0.12 -0.12)">
       <use transform="scale(0.996264)" xlink:href="#CMR17-34"/>
      </g>
     </g>
    </g>
    <g id="xtick_15">
     <g id="line2d_45">
      <path clip-path="url(#p272f6c8f13)" d="M 381.262025 363.092266 
L 381.262025 203.209913 
" style="fill:none;stroke:#b0b0b0;stroke-linecap:square;stroke-width:0.8;"/>
     </g>
     <g id="line2d_46">
      <g>
       <use style="stroke:#000000;stroke-width:0.8;" x="381.262025" xlink:href="#m303d7f0a54" y="363.092266"/>
      </g>
     </g>
     <g id="text_23">
      <!-- $\mathdefault{5}$ -->
      <g transform="translate(378.33553 378.394446)scale(0.12 -0.12)">
       <use transform="scale(0.996264)" xlink:href="#CMR17-35"/>
      </g>
     </g>
    </g>
    <g id="xtick_16">
     <g id="line2d_47">
      <path clip-path="url(#p272f6c8f13)" d="M 444.750476 363.092266 
L 444.750476 203.209913 
" style="fill:none;stroke:#b0b0b0;stroke-linecap:square;stroke-width:0.8;"/>
     </g>
     <g id="line2d_48">
      <g>
       <use style="stroke:#000000;stroke-width:0.8;" x="444.750476" xlink:href="#m303d7f0a54" y="363.092266"/>
      </g>
     </g>
     <g id="text_24">
      <!-- $\mathdefault{6}$ -->
      <g transform="translate(441.823981 378.394446)scale(0.12 -0.12)">
       <use transform="scale(0.996264)" xlink:href="#CMR17-36"/>
      </g>
     </g>
    </g>
    <g id="xtick_17">
     <g id="line2d_49">
      <path clip-path="url(#p272f6c8f13)" d="M 508.238928 363.092266 
L 508.238928 203.209913 
" style="fill:none;stroke:#b0b0b0;stroke-linecap:square;stroke-width:0.8;"/>
     </g>
     <g id="line2d_50">
      <g>
       <use style="stroke:#000000;stroke-width:0.8;" x="508.238928" xlink:href="#m303d7f0a54" y="363.092266"/>
      </g>
     </g>
     <g id="text_25">
      <!-- $\mathdefault{7}$ -->
      <g transform="translate(505.312433 378.394446)scale(0.12 -0.12)">
       <use transform="scale(0.996264)" xlink:href="#CMR17-37"/>
      </g>
     </g>
    </g>
    <g id="xtick_18">
     <g id="line2d_51">
      <path clip-path="url(#p272f6c8f13)" d="M 571.727379 363.092266 
L 571.727379 203.209913 
" style="fill:none;stroke:#b0b0b0;stroke-linecap:square;stroke-width:0.8;"/>
     </g>
     <g id="line2d_52">
      <g>
       <use style="stroke:#000000;stroke-width:0.8;" x="571.727379" xlink:href="#m303d7f0a54" y="363.092266"/>
      </g>
     </g>
     <g id="text_26">
      <!-- $\mathdefault{8}$ -->
      <g transform="translate(568.800884 378.394446)scale(0.12 -0.12)">
       <use transform="scale(0.996264)" xlink:href="#CMR17-38"/>
      </g>
     </g>
    </g>
    <g id="text_27">
     <!-- $t$ (s) -->
     <g transform="translate(304.709619 395.179814)scale(0.14 -0.14)">
      <use transform="scale(0.996264)" xlink:href="#CMMI12-74"/>
      <use transform="translate(65.302297 0)scale(0.996264)" xlink:href="#CMR17-28"/>
      <use transform="translate(100.583064 0)scale(0.996264)" xlink:href="#CMR17-73"/>
      <use transform="translate(136.384402 0)scale(0.996264)" xlink:href="#CMR17-29"/>
     </g>
    </g>
   </g>
   <g id="matplotlib.axis_4">
    <g id="ytick_6">
     <g id="line2d_53">
      <path clip-path="url(#p272f6c8f13)" d="M 38.456131 363.092266 
L 596.456131 363.092266 
" style="fill:none;stroke:#b0b0b0;stroke-linecap:square;stroke-width:0.8;"/>
     </g>
     <g id="line2d_54">
      <g>
       <use style="stroke:#000000;stroke-width:0.8;" x="38.456131" xlink:href="#m7238661d03" y="363.092266"/>
      </g>
     </g>
     <g id="text_28">
      <!-- $\mathdefault{−1.0}$ -->
      <g transform="translate(7.2 367.243356)scale(0.12 -0.12)">
       <use transform="scale(0.996264)" xlink:href="#CMSY10-0"/>
       <use transform="translate(77.487468 0)scale(0.996264)" xlink:href="#CMR17-31"/>
       <use transform="translate(123.177945 0)scale(0.996264)" xlink:href="#CMMI12-3a"/>
       <use transform="translate(150.275122 0)scale(0.996264)" xlink:href="#CMR17-30"/>
      </g>
     </g>
    </g>
    <g id="ytick_7">
     <g id="line2d_55">
      <path clip-path="url(#p272f6c8f13)" d="M 38.456131 323.121678 
L 596.456131 323.121678 
" style="fill:none;stroke:#b0b0b0;stroke-linecap:square;stroke-width:0.8;"/>
     </g>
     <g id="line2d_56">
      <g>
       <use style="stroke:#000000;stroke-width:0.8;" x="38.456131" xlink:href="#m7238661d03" y="323.121678"/>
      </g>
     </g>
     <g id="text_29">
      <!-- $\mathdefault{−0.5}$ -->
      <g transform="translate(7.2 327.272768)scale(0.12 -0.12)">
       <use transform="scale(0.996264)" xlink:href="#CMSY10-0"/>
       <use transform="translate(77.487468 0)scale(0.996264)" xlink:href="#CMR17-30"/>
       <use transform="translate(123.177945 0)scale(0.996264)" xlink:href="#CMMI12-3a"/>
       <use transform="translate(150.275122 0)scale(0.996264)" xlink:href="#CMR17-35"/>
      </g>
     </g>
    </g>
    <g id="ytick_8">
     <g id="line2d_57">
      <path clip-path="url(#p272f6c8f13)" d="M 38.456131 283.15109 
L 596.456131 283.15109 
" style="fill:none;stroke:#b0b0b0;stroke-linecap:square;stroke-width:0.8;"/>
     </g>
     <g id="line2d_58">
      <g>
       <use style="stroke:#000000;stroke-width:0.8;" x="38.456131" xlink:href="#m7238661d03" y="283.15109"/>
      </g>
     </g>
     <g id="text_30">
      <!-- $\mathdefault{0.0}$ -->
      <g transform="translate(16.498489 287.30218)scale(0.12 -0.12)">
       <use transform="scale(0.996264)" xlink:href="#CMR17-30"/>
       <use transform="translate(45.690477 0)scale(0.996264)" xlink:href="#CMMI12-3a"/>
       <use transform="translate(72.787654 0)scale(0.996264)" xlink:href="#CMR17-30"/>
      </g>
     </g>
    </g>
    <g id="ytick_9">
     <g id="line2d_59">
      <path clip-path="url(#p272f6c8f13)" d="M 38.456131 243.180502 
L 596.456131 243.180502 
" style="fill:none;stroke:#b0b0b0;stroke-linecap:square;stroke-width:0.8;"/>
     </g>
     <g id="line2d_60">
      <g>
       <use style="stroke:#000000;stroke-width:0.8;" x="38.456131" xlink:href="#m7238661d03" y="243.180502"/>
      </g>
     </g>
     <g id="text_31">
      <!-- $\mathdefault{0.5}$ -->
      <g transform="translate(16.498489 247.331592)scale(0.12 -0.12)">
       <use transform="scale(0.996264)" xlink:href="#CMR17-30"/>
       <use transform="translate(45.690477 0)scale(0.996264)" xlink:href="#CMMI12-3a"/>
       <use transform="translate(72.787654 0)scale(0.996264)" xlink:href="#CMR17-35"/>
      </g>
     </g>
    </g>
    <g id="ytick_10">
     <g id="line2d_61">
      <path clip-path="url(#p272f6c8f13)" d="M 38.456131 203.209913 
L 596.456131 203.209913 
" style="fill:none;stroke:#b0b0b0;stroke-linecap:square;stroke-width:0.8;"/>
     </g>
     <g id="line2d_62">
      <g>
       <use style="stroke:#000000;stroke-width:0.8;" x="38.456131" xlink:href="#m7238661d03" y="203.209913"/>
      </g>
     </g>
     <g id="text_32">
      <!-- $\mathdefault{1.0}$ -->
      <g transform="translate(16.498489 207.361003)scale(0.12 -0.12)">
       <use transform="scale(0.996264)" xlink:href="#CMR17-31"/>
       <use transform="translate(45.690477 0)scale(0.996264)" xlink:href="#CMMI12-3a"/>
       <use transform="translate(72.787654 0)scale(0.996264)" xlink:href="#CMR17-30"/>
      </g>
     </g>
    </g>
   </g>
   <g id="line2d_63">
    <path clip-path="url(#p272f6c8f13)" d="M 63.819768 283.15109 
L 127.308219 283.15109 
L 128.577988 280.05449 
L 129.847757 277.641744 
L 130.482642 276.875935 
L 131.117526 276.477086 
L 131.752411 276.478982 
L 132.387295 276.895384 
L 133.02218 277.718205 
L 133.657064 278.916547 
L 134.926833 282.203786 
L 137.466371 289.665251 
L 138.101256 291.038384 
L 138.73614 291.986483 
L 139.371025 292.420374 
L 140.005909 292.276923 
L 140.640794 291.525261 
L 141.275678 290.171473 
L 141.910563 288.26125 
L 143.180332 283.15109 
L 145.084985 274.540006 
L 145.71987 272.162282 
L 146.354754 270.346267 
L 146.989639 269.252735 
L 147.624523 269.005374 
L 148.259408 269.679613 
L 148.894293 271.293966 
L 149.529177 273.804704 
L 150.164062 277.104468 
L 151.433831 285.345622 
L 153.338484 297.960418 
L 153.973369 301.077288 
L 154.608253 303.203217 
L 155.243138 304.135329 
L 155.878022 303.739109 
L 156.512907 301.961723 
L 157.147791 298.840463 
L 157.782676 294.505451 
L 159.052445 283.15109 
L 160.957098 264.709332 
L 161.591983 259.81636 
L 162.226867 256.197325 
L 162.861752 254.157184 
L 163.496636 253.910528 
L 164.131521 255.562597 
L 164.766405 259.09685 
L 165.40129 264.37026 
L 166.671059 278.960802 
L 168.575712 304.127123 
L 169.210597 311.232244 
L 169.845482 316.815984 
L 170.480366 320.448212 
L 171.115251 321.810401 
L 171.750135 320.721419 
L 172.38502 317.155075 
L 173.019904 311.247891 
L 173.654789 303.296214 
L 174.924558 283.15109 
L 176.829211 251.882546 
L 177.464096 243.933709 
L 178.09898 238.245121 
L 178.733865 235.261747 
L 179.368749 235.265569 
L 180.003634 238.351739 
L 180.638518 244.416454 
L 181.273403 253.157711 
L 182.543172 276.567313 
L 184.447825 315.333478 
L 185.08271 325.901279 
L 185.717594 334.009699 
L 186.352479 339.070442 
L 186.987363 340.678569 
L 187.622248 338.643671 
L 188.257132 333.007625 
L 188.892017 324.047438 
L 189.526901 312.262643 
L 190.79667 283.15109 
L 192.06644 252.755569 
L 192.701324 239.51907 
L 193.336209 228.79793 
L 193.971093 221.331419 
L 194.605978 217.662582 
L 195.240862 218.099099 
L 195.875747 222.688858 
L 196.510631 231.212127 
L 197.145516 243.191117 
L 198.415285 274.490283 
L 200.319938 324.703497 
L 200.954823 338.011238 
L 201.589707 348.021237 
L 202.224592 354.047435 
L 202.859476 355.651032 
L 203.494361 352.67218 
L 204.129245 345.243892 
L 204.76413 333.787027 
L 206.033899 301.749802 
L 207.938552 246.582704 
L 208.573437 230.953371 
L 209.208321 218.491186 
L 209.843206 210.017894 
L 210.47809 206.106235 
L 211.112975 207.040965 
L 211.747859 212.798281 
L 212.382744 223.045115 
L 213.017629 237.158498 
L 214.287398 273.289893 
L 216.192051 329.710056 
L 216.826936 344.29603 
L 217.46182 355.071642 
L 218.096705 361.33985 
L 218.731589 362.689671 
L 219.366474 359.023415 
L 220.001358 350.563718 
L 220.636243 337.839861 
L 221.906012 303.031147 
L 223.810665 244.663576 
L 224.44555 228.495644 
L 225.080434 215.793239 
L 225.715319 207.35584 
L 226.350203 203.709488 
L 226.985088 205.073582 
L 227.619972 211.347527 
L 228.254857 222.118085 
L 228.889741 236.686868 
L 230.15951 273.289893 
L 232.064164 329.002873 
L 232.699048 343.060628 
L 233.333933 353.2594 
L 233.968817 358.980902 
L 234.603702 359.896144 
L 235.238587 355.98443 
L 235.873471 347.53233 
L 236.508356 335.11288 
L 237.778125 301.846179 
L 239.682778 247.515779 
L 240.317663 232.808745 
L 240.952547 221.431732 
L 241.587432 214.063219 
L 242.222316 211.118752 
L 242.857201 212.727557 
L 243.492085 218.727867 
L 244.12697 228.681061 
L 244.761854 241.903429 
L 246.031623 274.490283 
L 247.301392 308.177657 
L 247.936277 322.772676 
L 248.571161 334.638222 
L 249.206046 343.073278 
L 249.84093 347.606805 
L 250.475815 348.023874 
L 251.110699 344.374846 
L 251.745584 336.967303 
L 252.380468 326.341557 
L 253.650237 298.514486 
L 255.554891 254.370067 
L 256.189776 242.729418 
L 256.82466 233.885946 
L 257.459545 228.331031 
L 258.094429 226.335725 
L 258.729314 227.93859 
L 259.364198 232.948803 
L 259.999083 240.963988 
L 261.268852 263.539129 
L 263.173505 301.93567 
L 263.80839 312.699768 
L 264.443274 321.300362 
L 265.078159 327.260504 
L 265.713043 330.285189 
L 266.347928 330.274848 
L 266.982812 327.325805 
L 267.617697 321.718056 
L 268.252581 313.891545 
L 269.52235 293.934637 
L 271.427004 263.377816 
L 272.061888 255.582027 
L 272.696773 249.796944 
L 273.331657 246.311205 
L 273.966542 245.256345 
L 274.601426 246.60422 
L 275.236311 250.174904 
L 275.871195 255.654123 
L 277.140964 270.568429 
L 279.045618 294.913353 
L 279.680503 301.500843 
L 280.315387 306.644308 
L 280.950272 310.085829 
L 281.585156 311.687745 
L 282.220041 311.436031 
L 282.854925 309.435483 
L 283.48981 305.897357 
L 284.124694 301.12065 
L 285.394463 289.34183 
L 286.664232 277.289765 
L 287.299117 272.10961 
L 287.934001 267.900186 
L 288.568886 264.87348 
L 289.20377 263.154434 
L 289.838655 262.777662 
L 290.473539 263.690271 
L 291.108424 265.76024 
L 291.743308 268.789494 
L 293.013077 276.705383 
L 294.917731 289.004646 
L 295.552615 292.196285 
L 296.1875 294.622842 
L 296.822384 296.181317 
L 297.457269 296.830259 
L 298.092153 296.58831 
L 298.727038 295.528955 
L 299.361923 293.772096 
L 300.631692 288.811079 
L 302.536345 280.513134 
L 303.17123 278.210458 
L 303.806114 276.361649 
L 304.440999 275.049368 
L 305.075883 274.318047 
L 305.710768 274.174124 
L 306.345652 274.588582 
L 306.980537 275.501398 
L 307.615421 276.82745 
L 308.88519 280.294836 
L 310.789844 285.803146 
L 311.424728 287.295561 
L 312.059613 288.47819 
L 312.694497 289.297056 
L 313.329382 289.719841 
L 313.964266 289.736159 
L 314.599151 289.356853 
L 315.234035 288.612493 
L 315.86892 287.551199 
L 317.138689 284.741535 
L 317.773573 283.15109 
L 571.092495 283.15109 
L 571.092495 283.15109 
" style="fill:none;stroke:#1f77b4;stroke-linecap:square;stroke-opacity:0.5;stroke-width:1.5;"/>
   </g>
   <g id="line2d_64">
    <path clip-path="url(#p272f6c8f13)" d="M 63.819768 283.15109 
L 128.577988 283.068803 
L 130.482642 282.694706 
L 132.387295 282.066083 
L 136.196602 280.549546 
L 137.466371 280.310806 
L 138.73614 280.401861 
L 140.005909 280.896638 
L 141.275678 281.793842 
L 143.180332 283.659566 
L 145.084985 285.510762 
L 146.354754 286.295828 
L 146.989639 286.463044 
L 147.624523 286.452178 
L 148.259408 286.252689 
L 148.894293 285.864006 
L 149.529177 285.296364 
L 150.798946 283.720021 
L 153.338484 279.990385 
L 153.973369 279.250151 
L 154.608253 278.695528 
L 155.243138 278.371101 
L 155.878022 278.310564 
L 156.512907 278.533942 
L 157.147791 279.045445 
L 157.782676 279.832169 
L 159.052445 282.093102 
L 162.226867 288.696865 
L 162.861752 289.53383 
L 163.496636 290.034175 
L 164.131521 290.148021 
L 164.766405 289.846151 
L 165.40129 289.123026 
L 166.036174 287.998504 
L 166.671059 286.518088 
L 167.940828 282.790188 
L 169.845482 276.867689 
L 170.480366 275.286428 
L 171.115251 274.09337 
L 171.750135 273.381256 
L 172.38502 273.218348 
L 173.019904 273.642955 
L 173.654789 274.659536 
L 174.289673 276.236693 
L 174.924558 278.307295 
L 176.194327 283.497832 
L 178.09898 291.681241 
L 178.733865 293.851708 
L 179.368749 295.483711 
L 180.003634 296.454153 
L 180.638518 296.674481 
L 181.273403 296.097675 
L 181.908287 294.722976 
L 182.543172 292.597985 
L 183.178056 289.817867 
L 184.447825 282.885333 
L 186.352479 272.049287 
L 186.987363 269.197469 
L 187.622248 267.06298 
L 188.257132 265.80221 
L 188.892017 265.524879 
L 189.526901 266.285528 
L 190.161786 268.078085 
L 190.79667 270.833923 
L 191.431555 274.423681 
L 192.701324 283.3211 
L 194.605978 297.092553 
L 195.240862 300.682474 
L 195.875747 303.351445 
L 196.510631 304.90875 
L 197.145516 305.224277 
L 197.7804 304.238429 
L 198.415285 301.968059 
L 199.050169 298.507936 
L 200.319938 288.762952 
L 202.859476 266.143692 
L 203.494361 261.801288 
L 204.129245 258.603786 
L 204.76413 256.774939 
L 205.399014 256.462523 
L 206.033899 257.727251 
L 206.668783 260.536661 
L 207.303668 264.764511 
L 208.573437 276.537705 
L 211.112975 303.40185 
L 211.747859 308.46654 
L 212.382744 312.147536 
L 213.017629 314.191791 
L 213.652513 314.438575 
L 214.287398 312.831383 
L 214.922282 309.423798 
L 215.557167 304.378808 
L 216.826936 290.525137 
L 219.366474 259.546965 
L 220.001358 253.833833 
L 220.636243 249.75107 
L 221.271127 247.574939 
L 221.906012 247.472654 
L 222.540896 249.490139 
L 223.175781 253.546888 
L 223.810665 259.438403 
L 225.080434 275.354875 
L 226.985088 302.400719 
L 227.619972 310.127449 
L 228.254857 316.375313 
L 228.889741 320.746742 
L 229.524626 322.950336 
L 230.15951 322.820181 
L 230.794395 320.327866 
L 231.429279 315.586364 
L 232.064164 308.845416 
L 233.333933 290.962391 
L 235.238587 261.226353 
L 235.873471 252.897159 
L 236.508356 246.261715 
L 237.14324 241.738419 
L 237.778125 239.62425 
L 238.413009 240.075304 
L 239.047894 243.095608 
L 239.682778 248.535003 
L 240.317663 256.096333 
L 241.587432 275.766355 
L 243.492085 307.707681 
L 244.12697 316.458112 
L 244.761854 323.309226 
L 245.396739 327.833259 
L 246.031623 329.738026 
L 246.666508 328.885841 
L 247.301392 325.303248 
L 247.936277 319.180921 
L 248.571161 310.863624 
L 249.84093 289.668618 
L 251.745584 256.118464 
L 252.380468 247.152021 
L 253.015353 240.271633 
L 253.650237 235.902163 
L 254.285122 234.320509 
L 254.920006 235.637966 
L 255.554891 239.792482 
L 256.189776 246.551352 
L 256.82466 255.524257 
L 258.094429 277.90697 
L 259.999083 312.385014 
L 260.633967 321.349328 
L 261.268852 328.068981 
L 261.903736 332.134345 
L 262.538621 333.293697 
L 263.173505 331.468941 
L 263.80839 326.760879 
L 264.443274 319.443688 
L 265.713043 298.839752 
L 268.252581 252.10442 
L 268.887466 243.361855 
L 269.52235 236.98617 
L 270.157235 233.360085 
L 270.792119 232.701443 
L 271.427004 235.049972 
L 272.061888 240.264817 
L 272.696773 248.032995 
L 273.966542 269.239264 
L 275.871195 305.261323 
L 276.50608 315.524565 
L 277.140964 323.834935 
L 277.775849 329.699039 
L 278.410734 332.771464 
L 279.045618 332.875326 
L 279.680503 330.012569 
L 280.315387 324.36343 
L 280.950272 316.275102 
L 282.220041 294.867234 
L 284.124694 259.721895 
L 284.759579 250.008053 
L 285.394463 242.322307 
L 286.029348 237.115338 
L 286.664232 234.686531 
L 287.299117 235.166597 
L 287.934001 238.510507 
L 288.568886 244.501097 
L 289.20377 252.763102 
L 290.473539 273.959052 
L 292.378193 307.509972 
L 293.013077 316.467902 
L 293.647962 323.360846 
L 294.282846 327.790735 
L 294.917731 329.511031 
L 295.552615 328.440539 
L 296.1875 324.667082 
L 296.822384 318.440885 
L 297.457269 310.158129 
L 298.727038 289.57923 
L 300.631692 258.281699 
L 301.266576 250.259331 
L 301.901461 244.299863 
L 302.536345 240.740819 
L 303.17123 239.770971 
L 303.806114 241.420327 
L 304.440999 245.559908 
L 305.075883 251.911208 
L 306.345652 269.506111 
L 308.250306 299.552053 
L 308.88519 308.113163 
L 309.520075 315.049879 
L 310.154959 319.963009 
L 310.789844 322.581561 
L 311.424728 322.777765 
L 312.059613 320.573125 
L 312.694497 316.135267 
L 313.329382 309.765838 
L 314.599151 292.98119 
L 316.503804 265.840513 
L 317.138689 258.484237 
L 317.773573 252.753878 
L 318.408458 248.995878 
L 319.043342 247.428455 
L 319.678227 248.111008 
L 320.313111 250.968188 
L 320.947996 255.795334 
L 321.582881 262.271894 
L 322.85265 278.440252 
L 324.757303 303.063231 
L 325.392188 309.367456 
L 326.027072 314.045615 
L 326.661957 316.836028 
L 327.296841 317.595733 
L 327.931726 316.307585 
L 328.56661 313.079523 
L 329.201495 308.136158 
L 330.471264 294.486513 
L 332.375917 271.318096 
L 333.010802 264.755094 
L 333.645686 259.4562 
L 334.280571 255.720079 
L 334.915455 253.744569 
L 335.55034 253.616189 
L 336.185224 255.306682 
L 336.820109 258.676696 
L 337.454993 263.486258 
L 338.724762 276.065016 
L 340.629416 296.12618 
L 341.2643 301.474901 
L 341.899185 305.582902 
L 342.53407 308.219774 
L 343.168954 309.250471 
L 343.803839 308.641963 
L 344.438723 306.463439 
L 345.073608 302.880182 
L 345.708492 298.141576 
L 346.978261 286.510562 
L 348.24803 274.516189 
L 348.882915 269.318318 
L 349.517799 265.084524 
L 350.152684 262.060667 
L 350.787568 260.412749 
L 351.422453 260.21801 
L 352.057337 261.461707 
L 352.692222 264.039674 
L 353.327106 267.766414 
L 354.596875 277.599626 
L 356.501529 293.381389 
L 357.136413 297.597369 
L 357.771298 300.833686 
L 358.406182 302.905176 
L 359.041067 303.702722 
L 359.675951 303.198747 
L 360.310836 301.447506 
L 360.94572 298.580287 
L 362.215489 290.346916 
L 364.755028 271.86275 
L 365.389912 268.51787 
L 366.024797 266.145728 
L 366.659681 264.878298 
L 367.294566 264.776233 
L 367.92945 265.826288 
L 368.564335 267.943396 
L 369.199219 270.977205 
L 370.468988 278.933331 
L 372.373642 291.626008 
L 373.008526 294.997695 
L 373.643411 297.572932 
L 374.278295 299.203914 
L 374.91318 299.804321 
L 375.548064 299.353681 
L 376.182949 297.897549 
L 376.817833 295.543564 
L 378.087602 288.833155 
L 379.992256 277.194783 
L 380.62714 273.868636 
L 381.262025 271.176947 
L 381.896909 269.277396 
L 382.531794 268.275568 
L 383.166678 268.219232 
L 383.801563 269.096311 
L 384.436447 270.836633 
L 385.071332 273.317277 
L 386.341101 279.798021 
L 388.245755 290.100405 
L 388.880639 292.829453 
L 389.515524 294.90936 
L 390.150408 296.221013 
L 390.785293 296.695234 
L 391.420177 296.316271 
L 392.055062 295.121893 
L 392.689946 293.200147 
L 393.959715 287.737501 
L 395.864369 278.285358 
L 396.499253 275.588282 
L 397.134138 273.407884 
L 397.769022 271.871672 
L 398.403907 271.064828 
L 399.038791 271.025597 
L 399.673676 271.743681 
L 400.30856 273.161683 
L 400.943445 275.179479 
L 402.213214 280.444181 
L 404.117867 288.802283 
L 404.752752 291.013817 
L 405.387636 292.697866 
L 406.022521 293.758114 
L 406.657406 294.138782 
L 407.29229 293.827431 
L 407.927175 292.855017 
L 408.562059 291.293242 
L 409.831828 286.859048 
L 411.736482 279.195049 
L 412.371366 277.010165 
L 413.006251 275.244972 
L 413.641135 274.002639 
L 414.27602 273.351978 
L 414.910904 273.32373 
L 415.545789 273.909277 
L 416.180673 275.061834 
L 416.815558 276.700012 
L 418.085327 280.970275 
L 419.98998 287.742403 
L 420.624865 289.532423 
L 421.259749 290.894284 
L 421.894634 291.750133 
L 422.529518 292.054995 
L 423.164403 291.799037 
L 423.799287 291.007592 
L 424.434172 289.738993 
L 425.703941 286.141789 
L 427.608594 279.93205 
L 428.243479 278.163575 
L 428.878364 276.735917 
L 429.513248 275.732497 
L 430.148133 275.208869 
L 430.783017 275.189709 
L 431.417902 275.667797 
L 432.052786 276.604996 
L 432.687671 277.93515 
L 433.95744 281.398558 
L 435.862093 286.884148 
L 436.496978 288.332319 
L 437.131862 289.432928 
L 437.766747 290.123077 
L 438.401631 290.366533 
L 439.036516 290.155552 
L 439.6714 289.510883 
L 440.306285 288.479998 
L 441.576054 285.56124 
L 443.480707 280.52974 
L 444.115592 279.098463 
L 444.750476 277.944016 
L 445.385361 277.133838 
L 446.020245 276.712759 
L 446.65513 276.700573 
L 447.290014 277.091222 
L 447.924899 277.853603 
L 448.559783 278.933932 
L 449.829553 281.743403 
L 451.734206 286.187229 
L 452.369091 287.358859 
L 453.003975 288.248312 
L 453.63886 288.804774 
L 454.273744 288.999065 
L 454.908629 288.825097 
L 455.543513 288.299869 
L 456.178398 287.462021 
L 457.448167 285.09347 
L 459.35282 281.016292 
L 460.622589 278.924256 
L 461.257474 278.270071 
L 461.892358 277.931456 
L 462.527243 277.924286 
L 463.162127 278.24348 
L 463.797012 278.863675 
L 464.431896 279.741139 
L 465.701665 282.020254 
L 467.606319 285.620342 
L 468.241203 286.568294 
L 468.876088 287.287146 
L 469.510972 287.73585 
L 470.145857 287.890902 
L 470.780741 287.747522 
L 471.415626 287.319633 
L 472.050511 286.63869 
L 473.32028 284.716624 
L 475.859818 280.475042 
L 476.494702 279.720047 
L 477.129587 279.191798 
L 477.764471 278.919486 
L 478.399356 278.915841 
L 479.03424 279.17661 
L 479.669125 279.681108 
L 480.938894 281.266676 
L 483.478432 285.159184 
L 484.113316 285.926165 
L 484.748201 286.507144 
L 485.383085 286.86896 
L 486.01797 286.992682 
L 486.652854 286.874558 
L 487.287739 286.525995 
L 487.922623 285.972591 
L 489.192392 284.412875 
L 491.73193 280.976641 
L 492.366815 280.366074 
L 493.0017 279.939522 
L 493.636584 279.720541 
L 494.271469 279.719337 
L 494.906353 279.932355 
L 495.541238 280.342726 
L 496.811007 281.629875 
L 499.350545 284.78411 
L 500.620314 285.874205 
L 501.255198 286.165948 
L 501.890083 286.264646 
L 502.524967 286.167358 
L 503.159852 285.883424 
L 504.429621 284.848961 
L 508.238928 280.890481 
L 508.873812 280.546056 
L 509.508697 280.369973 
L 510.143581 280.370417 
L 510.778466 280.544416 
L 511.41335 280.878216 
L 512.683119 281.923104 
L 515.857542 284.98115 
L 516.492427 285.360624 
L 517.127311 285.595857 
L 517.762196 285.674572 
L 518.39708 285.594464 
L 519.031965 285.363182 
L 520.301734 284.52302 
L 524.111041 281.316154 
L 524.745925 281.038048 
L 525.38081 280.89647 
L 526.015694 280.897981 
L 526.650579 281.0401 
L 527.920348 281.693413 
L 529.825001 283.221561 
L 531.09477 284.231004 
L 532.364539 284.943897 
L 532.999424 285.13356 
L 533.634308 285.19632 
L 534.269193 285.130374 
L 535.538962 284.644957 
L 536.808731 283.811549 
L 539.348269 281.984583 
L 540.618038 281.437129 
L 541.252923 281.323302 
L 541.887807 281.325459 
L 543.157576 281.662376 
L 544.427345 282.350938 
L 547.601768 284.357913 
L 548.871537 284.758675 
L 550.141306 284.754427 
L 551.411075 284.359598 
L 552.680844 283.683322 
L 555.220382 282.203273 
L 556.490151 281.760844 
L 557.75992 281.671839 
L 559.029689 281.94626 
L 560.299458 282.505214 
L 563.473881 284.131093 
L 564.74365 284.454675 
L 566.013419 284.449882 
L 567.283188 284.128741 
L 569.187841 283.263268 
L 571.092495 282.380973 
L 571.092495 282.380973 
" style="fill:none;stroke:#1f77b4;stroke-linecap:square;stroke-width:1.5;"/>
   </g>
   <g id="patch_9">
    <path d="M 38.456131 363.092266 
L 38.456131 203.209913 
" style="fill:none;stroke:#000000;stroke-linecap:square;stroke-linejoin:miter;stroke-width:0.8;"/>
   </g>
   <g id="patch_10">
    <path d="M 596.456131 363.092266 
L 596.456131 203.209913 
" style="fill:none;stroke:#000000;stroke-linecap:square;stroke-linejoin:miter;stroke-width:0.8;"/>
   </g>
   <g id="patch_11">
    <path d="M 38.456131 363.092266 
L 596.456131 363.092266 
" style="fill:none;stroke:#000000;stroke-linecap:square;stroke-linejoin:miter;stroke-width:0.8;"/>
   </g>
   <g id="patch_12">
    <path d="M 38.456131 203.209913 
L 596.456131 203.209913 
" style="fill:none;stroke:#000000;stroke-linecap:square;stroke-linejoin:miter;stroke-width:0.8;"/>
   </g>
   <g id="legend_2">
    <g id="patch_13">
     <path d="M 502.594731 253.43397 
L 586.656131 253.43397 
Q 589.456131 253.43397 589.456131 250.63397 
L 589.456131 213.009913 
Q 589.456131 210.209913 586.656131 210.209913 
L 502.594731 210.209913 
Q 499.794731 210.209913 499.794731 213.009913 
L 499.794731 250.63397 
Q 499.794731 253.43397 502.594731 253.43397 
z
" style="fill:#ffffff;opacity:0.8;stroke:#cccccc;stroke-linejoin:miter;"/>
    </g>
    <g id="line2d_65">
     <path d="M 505.394731 220.709913 
L 533.394731 220.709913 
" style="fill:none;stroke:#1f77b4;stroke-linecap:square;stroke-opacity:0.5;stroke-width:1.5;"/>
    </g>
    <g id="line2d_66"/>
    <g id="text_33">
     <!-- Entrée -->
     <g transform="translate(544.594731 225.609913)scale(0.14 -0.14)">
      <use transform="scale(0.996264)" xlink:href="#CMR17-45"/>
      <use transform="translate(62.586301 0)scale(0.996264)" xlink:href="#CMR17-6e"/>
      <use transform="translate(110.879216 0)scale(0.996264)" xlink:href="#CMR17-74"/>
      <use transform="translate(146.159984 0)scale(0.996264)" xlink:href="#CMR17-72"/>
      <use transform="translate(178.838344 0)scale(0.996264)" xlink:href="#CMR17-13"/>
      <use transform="translate(181.440752 0)scale(0.996264)" xlink:href="#CMR17-65"/>
      <use transform="translate(221.926412 0)scale(0.996264)" xlink:href="#CMR17-65"/>
     </g>
    </g>
    <g id="line2d_67">
     <path d="M 505.394731 240.221942 
L 533.394731 240.221942 
" style="fill:none;stroke:#1f77b4;stroke-linecap:square;stroke-width:1.5;"/>
    </g>
    <g id="line2d_68"/>
    <g id="text_34">
     <!-- Sortie -->
     <g transform="translate(544.594731 245.121942)scale(0.14 -0.14)">
      <use transform="scale(0.996264)" xlink:href="#CMR17-53"/>
      <use transform="translate(50.89537 0)scale(0.996264)" xlink:href="#CMR17-6f"/>
      <use transform="translate(96.585847 0)scale(0.996264)" xlink:href="#CMR17-72"/>
      <use transform="translate(131.866615 0)scale(0.996264)" xlink:href="#CMR17-74"/>
      <use transform="translate(167.147382 0)scale(0.996264)" xlink:href="#CMR17-69"/>
      <use transform="translate(192.018441 0)scale(0.996264)" xlink:href="#CMR17-65"/>
     </g>
    </g>
   </g>
  </g>
  <g id="axes_3">
   <g id="patch_14">
    <path d="M 38.456131 554.95109 
L 596.456131 554.95109 
L 596.456131 395.068737 
L 38.456131 395.068737 
z
" style="fill:#ffffff;"/>
   </g>
   <g id="matplotlib.axis_5">
    <g id="xtick_19">
     <g id="line2d_69">
      <path clip-path="url(#p2ad6d86e02)" d="M 63.819768 554.95109 
L 63.819768 395.068737 
" style="fill:none;stroke:#b0b0b0;stroke-linecap:square;stroke-width:0.8;"/>
     </g>
     <g id="line2d_70">
      <g>
       <use style="stroke:#000000;stroke-width:0.8;" x="63.819768" xlink:href="#m303d7f0a54" y="554.95109"/>
      </g>
     </g>
     <g id="text_35">
      <!-- $\mathdefault{0}$ -->
      <g transform="translate(60.893272 570.25327)scale(0.12 -0.12)">
       <use transform="scale(0.996264)" xlink:href="#CMR17-30"/>
      </g>
     </g>
    </g>
    <g id="xtick_20">
     <g id="line2d_71">
      <path clip-path="url(#p2ad6d86e02)" d="M 127.308219 554.95109 
L 127.308219 395.068737 
" style="fill:none;stroke:#b0b0b0;stroke-linecap:square;stroke-width:0.8;"/>
     </g>
     <g id="line2d_72">
      <g>
       <use style="stroke:#000000;stroke-width:0.8;" x="127.308219" xlink:href="#m303d7f0a54" y="554.95109"/>
      </g>
     </g>
     <g id="text_36">
      <!-- $\mathdefault{1}$ -->
      <g transform="translate(124.381724 570.25327)scale(0.12 -0.12)">
       <use transform="scale(0.996264)" xlink:href="#CMR17-31"/>
      </g>
     </g>
    </g>
    <g id="xtick_21">
     <g id="line2d_73">
      <path clip-path="url(#p2ad6d86e02)" d="M 190.79667 554.95109 
L 190.79667 395.068737 
" style="fill:none;stroke:#b0b0b0;stroke-linecap:square;stroke-width:0.8;"/>
     </g>
     <g id="line2d_74">
      <g>
       <use style="stroke:#000000;stroke-width:0.8;" x="190.79667" xlink:href="#m303d7f0a54" y="554.95109"/>
      </g>
     </g>
     <g id="text_37">
      <!-- $\mathdefault{2}$ -->
      <g transform="translate(187.870175 570.25327)scale(0.12 -0.12)">
       <use transform="scale(0.996264)" xlink:href="#CMR17-32"/>
      </g>
     </g>
    </g>
    <g id="xtick_22">
     <g id="line2d_75">
      <path clip-path="url(#p2ad6d86e02)" d="M 254.285122 554.95109 
L 254.285122 395.068737 
" style="fill:none;stroke:#b0b0b0;stroke-linecap:square;stroke-width:0.8;"/>
     </g>
     <g id="line2d_76">
      <g>
       <use style="stroke:#000000;stroke-width:0.8;" x="254.285122" xlink:href="#m303d7f0a54" y="554.95109"/>
      </g>
     </g>
     <g id="text_38">
      <!-- $\mathdefault{3}$ -->
      <g transform="translate(251.358627 570.25327)scale(0.12 -0.12)">
       <use transform="scale(0.996264)" xlink:href="#CMR17-33"/>
      </g>
     </g>
    </g>
    <g id="xtick_23">
     <g id="line2d_77">
      <path clip-path="url(#p2ad6d86e02)" d="M 317.773573 554.95109 
L 317.773573 395.068737 
" style="fill:none;stroke:#b0b0b0;stroke-linecap:square;stroke-width:0.8;"/>
     </g>
     <g id="line2d_78">
      <g>
       <use style="stroke:#000000;stroke-width:0.8;" x="317.773573" xlink:href="#m303d7f0a54" y="554.95109"/>
      </g>
     </g>
     <g id="text_39">
      <!-- $\mathdefault{4}$ -->
      <g transform="translate(314.847078 570.25327)scale(0.12 -0.12)">
       <use transform="scale(0.996264)" xlink:href="#CMR17-34"/>
      </g>
     </g>
    </g>
    <g id="xtick_24">
     <g id="line2d_79">
      <path clip-path="url(#p2ad6d86e02)" d="M 381.262025 554.95109 
L 381.262025 395.068737 
" style="fill:none;stroke:#b0b0b0;stroke-linecap:square;stroke-width:0.8;"/>
     </g>
     <g id="line2d_80">
      <g>
       <use style="stroke:#000000;stroke-width:0.8;" x="381.262025" xlink:href="#m303d7f0a54" y="554.95109"/>
      </g>
     </g>
     <g id="text_40">
      <!-- $\mathdefault{5}$ -->
      <g transform="translate(378.33553 570.25327)scale(0.12 -0.12)">
       <use transform="scale(0.996264)" xlink:href="#CMR17-35"/>
      </g>
     </g>
    </g>
    <g id="xtick_25">
     <g id="line2d_81">
      <path clip-path="url(#p2ad6d86e02)" d="M 444.750476 554.95109 
L 444.750476 395.068737 
" style="fill:none;stroke:#b0b0b0;stroke-linecap:square;stroke-width:0.8;"/>
     </g>
     <g id="line2d_82">
      <g>
       <use style="stroke:#000000;stroke-width:0.8;" x="444.750476" xlink:href="#m303d7f0a54" y="554.95109"/>
      </g>
     </g>
     <g id="text_41">
      <!-- $\mathdefault{6}$ -->
      <g transform="translate(441.823981 570.25327)scale(0.12 -0.12)">
       <use transform="scale(0.996264)" xlink:href="#CMR17-36"/>
      </g>
     </g>
    </g>
    <g id="xtick_26">
     <g id="line2d_83">
      <path clip-path="url(#p2ad6d86e02)" d="M 508.238928 554.95109 
L 508.238928 395.068737 
" style="fill:none;stroke:#b0b0b0;stroke-linecap:square;stroke-width:0.8;"/>
     </g>
     <g id="line2d_84">
      <g>
       <use style="stroke:#000000;stroke-width:0.8;" x="508.238928" xlink:href="#m303d7f0a54" y="554.95109"/>
      </g>
     </g>
     <g id="text_42">
      <!-- $\mathdefault{7}$ -->
      <g transform="translate(505.312433 570.25327)scale(0.12 -0.12)">
       <use transform="scale(0.996264)" xlink:href="#CMR17-37"/>
      </g>
     </g>
    </g>
    <g id="xtick_27">
     <g id="line2d_85">
      <path clip-path="url(#p2ad6d86e02)" d="M 571.727379 554.95109 
L 571.727379 395.068737 
" style="fill:none;stroke:#b0b0b0;stroke-linecap:square;stroke-width:0.8;"/>
     </g>
     <g id="line2d_86">
      <g>
       <use style="stroke:#000000;stroke-width:0.8;" x="571.727379" xlink:href="#m303d7f0a54" y="554.95109"/>
      </g>
     </g>
     <g id="text_43">
      <!-- $\mathdefault{8}$ -->
      <g transform="translate(568.800884 570.25327)scale(0.12 -0.12)">
       <use transform="scale(0.996264)" xlink:href="#CMR17-38"/>
      </g>
     </g>
    </g>
    <g id="text_44">
     <!-- $t$ (s) -->
     <g transform="translate(304.709619 587.038638)scale(0.14 -0.14)">
      <use transform="scale(0.996264)" xlink:href="#CMMI12-74"/>
      <use transform="translate(65.302297 0)scale(0.996264)" xlink:href="#CMR17-28"/>
      <use transform="translate(100.583064 0)scale(0.996264)" xlink:href="#CMR17-73"/>
      <use transform="translate(136.384402 0)scale(0.996264)" xlink:href="#CMR17-29"/>
     </g>
    </g>
   </g>
   <g id="matplotlib.axis_6">
    <g id="ytick_11">
     <g id="line2d_87">
      <path clip-path="url(#p2ad6d86e02)" d="M 38.456131 554.95109 
L 596.456131 554.95109 
" style="fill:none;stroke:#b0b0b0;stroke-linecap:square;stroke-width:0.8;"/>
     </g>
     <g id="line2d_88">
      <g>
       <use style="stroke:#000000;stroke-width:0.8;" x="38.456131" xlink:href="#m7238661d03" y="554.95109"/>
      </g>
     </g>
     <g id="text_45">
      <!-- $\mathdefault{−1.0}$ -->
      <g transform="translate(7.2 559.10218)scale(0.12 -0.12)">
       <use transform="scale(0.996264)" xlink:href="#CMSY10-0"/>
       <use transform="translate(77.487468 0)scale(0.996264)" xlink:href="#CMR17-31"/>
       <use transform="translate(123.177945 0)scale(0.996264)" xlink:href="#CMMI12-3a"/>
       <use transform="translate(150.275122 0)scale(0.996264)" xlink:href="#CMR17-30"/>
      </g>
     </g>
    </g>
    <g id="ytick_12">
     <g id="line2d_89">
      <path clip-path="url(#p2ad6d86e02)" d="M 38.456131 514.980502 
L 596.456131 514.980502 
" style="fill:none;stroke:#b0b0b0;stroke-linecap:square;stroke-width:0.8;"/>
     </g>
     <g id="line2d_90">
      <g>
       <use style="stroke:#000000;stroke-width:0.8;" x="38.456131" xlink:href="#m7238661d03" y="514.980502"/>
      </g>
     </g>
     <g id="text_46">
      <!-- $\mathdefault{−0.5}$ -->
      <g transform="translate(7.2 519.131592)scale(0.12 -0.12)">
       <use transform="scale(0.996264)" xlink:href="#CMSY10-0"/>
       <use transform="translate(77.487468 0)scale(0.996264)" xlink:href="#CMR17-30"/>
       <use transform="translate(123.177945 0)scale(0.996264)" xlink:href="#CMMI12-3a"/>
       <use transform="translate(150.275122 0)scale(0.996264)" xlink:href="#CMR17-35"/>
      </g>
     </g>
    </g>
    <g id="ytick_13">
     <g id="line2d_91">
      <path clip-path="url(#p2ad6d86e02)" d="M 38.456131 475.009913 
L 596.456131 475.009913 
" style="fill:none;stroke:#b0b0b0;stroke-linecap:square;stroke-width:0.8;"/>
     </g>
     <g id="line2d_92">
      <g>
       <use style="stroke:#000000;stroke-width:0.8;" x="38.456131" xlink:href="#m7238661d03" y="475.009913"/>
      </g>
     </g>
     <g id="text_47">
      <!-- $\mathdefault{0.0}$ -->
      <g transform="translate(16.498489 479.161003)scale(0.12 -0.12)">
       <use transform="scale(0.996264)" xlink:href="#CMR17-30"/>
       <use transform="translate(45.690477 0)scale(0.996264)" xlink:href="#CMMI12-3a"/>
       <use transform="translate(72.787654 0)scale(0.996264)" xlink:href="#CMR17-30"/>
      </g>
     </g>
    </g>
    <g id="ytick_14">
     <g id="line2d_93">
      <path clip-path="url(#p2ad6d86e02)" d="M 38.456131 435.039325 
L 596.456131 435.039325 
" style="fill:none;stroke:#b0b0b0;stroke-linecap:square;stroke-width:0.8;"/>
     </g>
     <g id="line2d_94">
      <g>
       <use style="stroke:#000000;stroke-width:0.8;" x="38.456131" xlink:href="#m7238661d03" y="435.039325"/>
      </g>
     </g>
     <g id="text_48">
      <!-- $\mathdefault{0.5}$ -->
      <g transform="translate(16.498489 439.190415)scale(0.12 -0.12)">
       <use transform="scale(0.996264)" xlink:href="#CMR17-30"/>
       <use transform="translate(45.690477 0)scale(0.996264)" xlink:href="#CMMI12-3a"/>
       <use transform="translate(72.787654 0)scale(0.996264)" xlink:href="#CMR17-35"/>
      </g>
     </g>
    </g>
    <g id="ytick_15">
     <g id="line2d_95">
      <path clip-path="url(#p2ad6d86e02)" d="M 38.456131 395.068737 
L 596.456131 395.068737 
" style="fill:none;stroke:#b0b0b0;stroke-linecap:square;stroke-width:0.8;"/>
     </g>
     <g id="line2d_96">
      <g>
       <use style="stroke:#000000;stroke-width:0.8;" x="38.456131" xlink:href="#m7238661d03" y="395.068737"/>
      </g>
     </g>
     <g id="text_49">
      <!-- $\mathdefault{1.0}$ -->
      <g transform="translate(16.498489 399.219827)scale(0.12 -0.12)">
       <use transform="scale(0.996264)" xlink:href="#CMR17-31"/>
       <use transform="translate(45.690477 0)scale(0.996264)" xlink:href="#CMMI12-3a"/>
       <use transform="translate(72.787654 0)scale(0.996264)" xlink:href="#CMR17-30"/>
      </g>
     </g>
    </g>
   </g>
   <g id="line2d_97">
    <path clip-path="url(#p2ad6d86e02)" d="M 63.819768 475.009913 
L 127.308219 475.009913 
L 128.577988 470.609805 
L 129.212873 469.157182 
L 129.847757 468.497664 
L 130.482642 468.734758 
L 131.117526 469.857337 
L 131.752411 471.73764 
L 134.291949 481.235444 
L 134.926833 482.434319 
L 135.561718 482.631416 
L 136.196602 481.743616 
L 136.831487 479.833896 
L 138.101256 473.917395 
L 139.371025 467.853686 
L 140.005909 465.884081 
L 140.640794 465.111334 
L 141.275678 465.730446 
L 141.910563 467.74864 
L 142.545447 470.970229 
L 144.450101 483.332045 
L 145.084985 486.391952 
L 145.71987 487.999089 
L 146.354754 487.814736 
L 146.989639 485.739953 
L 147.624523 481.947548 
L 148.894293 471.182923 
L 149.529177 465.663528 
L 150.164062 461.141424 
L 150.798946 458.348609 
L 151.433831 457.810475 
L 152.068715 459.753964 
L 152.7036 464.054184 
L 153.338484 470.230073 
L 155.243138 491.210516 
L 155.878022 495.597933 
L 156.512907 497.244775 
L 157.147791 495.747959 
L 157.782676 491.143875 
L 158.41756 483.928441 
L 160.322214 457.040353 
L 160.957098 450.633795 
L 161.591983 447.427402 
L 162.226867 448.056149 
L 162.861752 452.625555 
L 163.496636 460.669151 
L 166.036174 502.611163 
L 166.671059 507.850893 
L 167.305943 508.584928 
L 167.940828 504.503709 
L 168.575712 495.985947 
L 169.845482 470.346779 
L 171.115251 445.163507 
L 171.750135 437.439585 
L 172.38502 434.81595 
L 173.019904 437.871862 
L 173.654789 446.384732 
L 174.289673 459.331968 
L 176.194327 505.750369 
L 176.829211 516.340341 
L 177.464096 521.366303 
L 178.09898 519.915882 
L 178.733865 511.982242 
L 179.368749 498.494923 
L 181.908287 431.289868 
L 182.543172 423.410189 
L 183.178056 422.678225 
L 183.812941 429.402662 
L 184.447825 442.827525 
L 185.717594 482.054656 
L 186.987363 519.423237 
L 187.622248 530.502494 
L 188.257132 533.942175 
L 188.892017 529.06627 
L 189.526901 516.375928 
L 190.161786 497.504816 
L 192.06644 431.819447 
L 192.701324 417.337576 
L 193.336209 410.762475 
L 193.971093 413.190242 
L 194.605978 424.450383 
L 195.240862 443.105767 
L 197.145516 514.969886 
L 197.7804 532.887501 
L 198.415285 542.888163 
L 199.050169 543.420642 
L 199.685054 534.260382 
L 200.319938 516.56232 
L 201.589707 466.024345 
L 202.224592 440.239459 
L 202.859476 419.037299 
L 203.494361 405.488823 
L 204.129245 401.613933 
L 204.76413 408.079873 
L 205.399014 424.089695 
L 206.033899 447.479069 
L 207.938552 526.971703 
L 208.573437 544.004301 
L 209.208321 551.440303 
L 209.843206 548.143109 
L 210.47809 534.491368 
L 211.112975 512.337418 
L 213.017629 429.017321 
L 213.652513 408.754369 
L 214.287398 397.723728 
L 214.922282 397.534343 
L 215.557167 408.266082 
L 216.192051 428.450947 
L 218.731589 536.416616 
L 219.366474 550.882239 
L 220.001358 554.694124 
L 220.636243 547.296947 
L 221.271127 529.72091 
L 222.540896 475.009913 
L 223.810665 420.321142 
L 224.44555 402.766929 
L 225.080434 395.390451 
L 225.715319 399.214663 
L 226.350203 413.678083 
L 226.985088 436.717523 
L 228.889741 521.474135 
L 229.524626 541.60427 
L 230.15951 552.296099 
L 230.794395 552.091311 
L 231.429279 541.07627 
L 232.064164 520.861696 
L 234.603702 415.759916 
L 235.238587 402.176574 
L 235.873471 398.908914 
L 236.508356 406.327375 
L 237.14324 423.293949 
L 238.413009 475.009913 
L 239.682778 525.645851 
L 240.317663 541.551887 
L 240.952547 547.96447 
L 241.587432 544.097785 
L 242.222316 530.62152 
L 242.857201 509.548482 
L 244.761854 433.762253 
L 245.396739 416.207268 
L 246.031623 407.131664 
L 246.666508 407.675393 
L 247.301392 417.609152 
L 247.936277 435.388328 
L 250.475815 525.094082 
L 251.110699 536.23367 
L 251.745584 538.622661 
L 252.380468 532.098611 
L 253.015353 517.752804 
L 254.285122 475.009913 
L 255.554891 434.113565 
L 256.189776 421.580979 
L 256.82466 416.776698 
L 257.459545 420.189855 
L 258.094429 431.146368 
L 258.729314 447.931455 
L 260.633967 506.759745 
L 261.268852 519.991772 
L 261.903736 526.609638 
L 262.538621 525.873614 
L 263.173505 518.094096 
L 263.80839 504.558591 
L 266.347928 438.628644 
L 266.982812 430.835199 
L 267.617697 429.422338 
L 268.252581 434.377508 
L 268.887466 444.798072 
L 270.157235 475.009913 
L 271.427004 503.106715 
L 272.061888 511.450406 
L 272.696773 514.435743 
L 273.331657 511.849798 
L 273.966542 504.266047 
L 274.601426 492.933987 
L 276.50608 454.477585 
L 277.140964 446.15041 
L 277.775849 442.168934 
L 278.410734 442.898745 
L 279.045618 448.032069 
L 279.680503 456.66016 
L 281.585156 489.005451 
L 282.220041 496.846926 
L 282.854925 501.294307 
L 283.48981 501.896839 
L 284.124694 498.761887 
L 284.759579 492.512391 
L 287.299117 459.320541 
L 287.934001 454.851431 
L 288.568886 453.405105 
L 289.20377 455.013257 
L 289.838655 459.280879 
L 291.108424 472.600998 
L 292.378193 485.630457 
L 293.013077 489.793742 
L 293.647962 491.671218 
L 294.282846 491.144451 
L 294.917731 488.43559 
L 295.552615 484.055108 
L 297.457269 468.301092 
L 298.092153 464.635887 
L 298.727038 462.632048 
L 299.361923 462.455493 
L 299.996807 464.009809 
L 300.631692 466.967361 
L 303.17123 482.030297 
L 303.806114 483.984124 
L 304.440999 484.586447 
L 305.075883 483.842957 
L 305.710768 481.94046 
L 306.980537 476.06952 
L 308.250306 470.322196 
L 308.88519 468.458828 
L 309.520075 467.585508 
L 310.154959 467.76716 
L 310.789844 468.927176 
L 311.424728 470.865442 
L 313.329382 478.231497 
L 313.964266 480.093828 
L 314.599151 481.215677 
L 315.234035 481.465493 
L 315.86892 480.82593 
L 316.503804 479.393351 
L 317.773573 475.009913 
L 571.092495 475.009913 
L 571.092495 475.009913 
" style="fill:none;stroke:#1f77b4;stroke-linecap:square;stroke-opacity:0.5;stroke-width:1.5;"/>
   </g>
   <g id="line2d_98">
    <path clip-path="url(#p2ad6d86e02)" d="M 63.819768 475.009913 
L 127.943104 474.978124 
L 129.847757 474.607411 
L 133.02218 473.83063 
L 134.926833 473.649717 
L 136.831487 473.769521 
L 140.005909 474.339127 
L 147.624523 475.758661 
L 148.894293 475.724899 
L 150.164062 475.492666 
L 154.608253 474.284507 
L 155.878022 474.302644 
L 157.782676 474.692017 
L 159.687329 475.144378 
L 160.957098 475.286139 
L 162.861752 475.222416 
L 165.40129 475.064186 
L 167.940828 475.207361 
L 169.845482 475.234759 
L 171.750135 474.953537 
L 174.289673 474.490286 
L 175.559442 474.506562 
L 176.829211 474.751104 
L 180.003634 475.571636 
L 181.273403 475.578731 
L 182.543172 475.336042 
L 185.08271 474.65198 
L 186.352479 474.53778 
L 187.622248 474.657829 
L 190.79667 475.251881 
L 192.06644 475.263446 
L 197.145516 474.883489 
L 200.954823 475.316261 
L 202.224592 475.188566 
L 206.033899 474.560917 
L 207.303668 474.676553 
L 211.112975 475.457201 
L 212.382744 475.415221 
L 214.287398 475.037331 
L 216.192051 474.704155 
L 217.46182 474.697927 
L 219.366474 474.963862 
L 221.271127 475.195179 
L 222.540896 475.169804 
L 226.350203 474.798597 
L 228.254857 474.997268 
L 230.794395 475.348249 
L 232.064164 475.300847 
L 233.968817 474.938189 
L 235.873471 474.609136 
L 237.14324 474.618829 
L 239.047894 474.975522 
L 240.952547 475.35216 
L 242.222316 475.389485 
L 244.12697 475.098723 
L 246.031623 474.756206 
L 247.301392 474.716868 
L 249.206046 474.971123 
L 251.110699 475.255096 
L 252.380468 475.256706 
L 254.285122 474.96704 
L 256.189776 474.687242 
L 257.459545 474.711358 
L 259.364198 475.062336 
L 261.268852 475.403169 
L 262.538621 475.401675 
L 263.80839 475.191475 
L 266.347928 474.633788 
L 267.617697 474.581144 
L 268.887466 474.747052 
L 272.061888 475.368791 
L 273.331657 475.355807 
L 275.236311 475.033342 
L 277.140964 474.732818 
L 278.410734 474.73142 
L 280.315387 475.002687 
L 282.220041 475.260479 
L 283.48981 475.253162 
L 285.394463 474.99138 
L 287.299117 474.742677 
L 288.568886 474.747262 
L 290.473539 475.003621 
L 292.378193 475.271688 
L 293.647962 475.297398 
L 295.552615 475.086057 
L 298.092153 474.767466 
L 299.996807 474.812519 
L 304.440999 475.187947 
L 307.615421 474.996458 
L 310.154959 474.91848 
L 319.043342 475.131034 
L 320.947996 475.558789 
L 323.487534 476.158597 
L 325.392188 476.381764 
L 327.296841 476.329427 
L 329.201495 476.021778 
L 332.375917 475.192793 
L 334.915455 474.605474 
L 336.820109 474.40343 
L 338.724762 474.463105 
L 341.2643 474.857443 
L 344.438723 475.403995 
L 346.343377 475.519284 
L 348.24803 475.414122 
L 355.23176 474.646393 
L 357.771298 474.81813 
L 362.215489 475.261886 
L 364.755028 475.235643 
L 372.373642 474.821595 
L 380.62714 475.151941 
L 388.245755 474.876206 
L 396.499253 475.119139 
L 404.117867 474.900517 
L 412.371366 475.100355 
L 419.98998 474.919597 
L 428.878364 475.065928 
L 435.862093 474.936533 
L 444.750476 475.055255 
L 451.734206 474.950604 
L 461.257474 475.032564 
L 468.241203 474.971416 
L 477.129587 475.028157 
L 484.748201 474.988292 
L 493.0017 475.024622 
L 501.255198 475.00113 
L 509.508697 475.013715 
L 517.762196 475.010212 
L 526.015694 475.006328 
L 534.904077 475.021418 
L 545.697114 474.989726 
L 571.092495 475.020901 
L 571.092495 475.020901 
" style="fill:none;stroke:#1f77b4;stroke-linecap:square;stroke-width:1.5;"/>
   </g>
   <g id="patch_15">
    <path d="M 38.456131 554.95109 
L 38.456131 395.068737 
" style="fill:none;stroke:#000000;stroke-linecap:square;stroke-linejoin:miter;stroke-width:0.8;"/>
   </g>
   <g id="patch_16">
    <path d="M 596.456131 554.95109 
L 596.456131 395.068737 
" style="fill:none;stroke:#000000;stroke-linecap:square;stroke-linejoin:miter;stroke-width:0.8;"/>
   </g>
   <g id="patch_17">
    <path d="M 38.456131 554.95109 
L 596.456131 554.95109 
" style="fill:none;stroke:#000000;stroke-linecap:square;stroke-linejoin:miter;stroke-width:0.8;"/>
   </g>
   <g id="patch_18">
    <path d="M 38.456131 395.068737 
L 596.456131 395.068737 
" style="fill:none;stroke:#000000;stroke-linecap:square;stroke-linejoin:miter;stroke-width:0.8;"/>
   </g>
   <g id="legend_3">
    <g id="patch_19">
     <path d="M 502.594731 445.292794 
L 586.656131 445.292794 
Q 589.456131 445.292794 589.456131 442.492794 
L 589.456131 404.868737 
Q 589.456131 402.068737 586.656131 402.068737 
L 502.594731 402.068737 
Q 499.794731 402.068737 499.794731 404.868737 
L 499.794731 442.492794 
Q 499.794731 445.292794 502.594731 445.292794 
z
" style="fill:#ffffff;opacity:0.8;stroke:#cccccc;stroke-linejoin:miter;"/>
    </g>
    <g id="line2d_99">
     <path d="M 505.394731 412.568737 
L 533.394731 412.568737 
" style="fill:none;stroke:#1f77b4;stroke-linecap:square;stroke-opacity:0.5;stroke-width:1.5;"/>
    </g>
    <g id="line2d_100"/>
    <g id="text_50">
     <!-- Entrée -->
     <g transform="translate(544.594731 417.468737)scale(0.14 -0.14)">
      <use transform="scale(0.996264)" xlink:href="#CMR17-45"/>
      <use transform="translate(62.586301 0)scale(0.996264)" xlink:href="#CMR17-6e"/>
      <use transform="translate(110.879216 0)scale(0.996264)" xlink:href="#CMR17-74"/>
      <use transform="translate(146.159984 0)scale(0.996264)" xlink:href="#CMR17-72"/>
      <use transform="translate(178.838344 0)scale(0.996264)" xlink:href="#CMR17-13"/>
      <use transform="translate(181.440752 0)scale(0.996264)" xlink:href="#CMR17-65"/>
      <use transform="translate(221.926412 0)scale(0.996264)" xlink:href="#CMR17-65"/>
     </g>
    </g>
    <g id="line2d_101">
     <path d="M 505.394731 432.080765 
L 533.394731 432.080765 
" style="fill:none;stroke:#1f77b4;stroke-linecap:square;stroke-width:1.5;"/>
    </g>
    <g id="line2d_102"/>
    <g id="text_51">
     <!-- Sortie -->
     <g transform="translate(544.594731 436.980765)scale(0.14 -0.14)">
      <use transform="scale(0.996264)" xlink:href="#CMR17-53"/>
      <use transform="translate(50.89537 0)scale(0.996264)" xlink:href="#CMR17-6f"/>
      <use transform="translate(96.585847 0)scale(0.996264)" xlink:href="#CMR17-72"/>
      <use transform="translate(131.866615 0)scale(0.996264)" xlink:href="#CMR17-74"/>
      <use transform="translate(167.147382 0)scale(0.996264)" xlink:href="#CMR17-69"/>
      <use transform="translate(192.018441 0)scale(0.996264)" xlink:href="#CMR17-65"/>
     </g>
    </g>
   </g>
  </g>
 </g>
 <defs>
  <clipPath id="pef31b51c70">
   <rect height="159.882353" width="558" x="38.456131" y="11.35109"/>
  </clipPath>
  <clipPath id="p272f6c8f13">
   <rect height="159.882353" width="558" x="38.456131" y="203.209913"/>
  </clipPath>
  <clipPath id="p2ad6d86e02">
   <rect height="159.882353" width="558" x="38.456131" y="395.068737"/>
  </clipPath>
 </defs>
</svg>
