<?xml version="1.0" encoding="utf-8" standalone="no"?>
<!DOCTYPE svg PUBLIC "-//W3C//DTD SVG 1.1//EN"
  "http://www.w3.org/Graphics/SVG/1.1/DTD/svg11.dtd">
<svg height="213.061944pt" version="1.1" viewBox="0 0 706.15148 213.061944" width="706.15148pt" xmlns="http://www.w3.org/2000/svg" xmlns:xlink="http://www.w3.org/1999/xlink">
 <metadata>
  <rdf:RDF xmlns:cc="http://creativecommons.org/ns#" xmlns:dc="http://purl.org/dc/elements/1.1/" xmlns:rdf="http://www.w3.org/1999/02/22-rdf-syntax-ns#">
   <cc:Work>
    <dc:type rdf:resource="http://purl.org/dc/dcmitype/StillImage"/>
    <dc:date>2024-10-04T15:59:09.590269</dc:date>
    <dc:format>image/svg+xml</dc:format>
    <dc:creator>
     <cc:Agent>
      <dc:title>Matplotlib v3.4.3, https://matplotlib.org/</dc:title>
     </cc:Agent>
    </dc:creator>
   </cc:Work>
  </rdf:RDF>
 </metadata>
 <defs>
  <style type="text/css">*{stroke-linecap:butt;stroke-linejoin:round;}</style>
 </defs>
 <g id="figure_1">
  <g id="patch_1">
   <path d="M 0 213.061944 
L 706.15148 213.061944 
L 706.15148 0 
L 0 0 
z
" style="fill:none;"/>
  </g>
  <g id="axes_1">
   <g id="patch_2">
    <path d="M 29.35148 188.235168 
L 333.715116 188.235168 
L 333.715116 25.155168 
L 29.35148 25.155168 
z
" style="fill:#ffffff;"/>
   </g>
   <g id="matplotlib.axis_1">
    <g id="xtick_1">
     <g id="line2d_1">
      <path clip-path="url(#pb36698068c)" d="M 29.35148 188.235168 
L 29.35148 25.155168 
" style="fill:none;stroke:#b0b0b0;stroke-linecap:square;stroke-width:0.5;"/>
     </g>
     <g id="line2d_2">
      <defs>
       <path d="M 0 0 
L 0 3.5 
" id="mb4400bf064" style="stroke:#000000;stroke-width:0.8;"/>
      </defs>
      <g>
       <use style="stroke:#000000;stroke-width:0.8;" x="29.35148" xlink:href="#mb4400bf064" y="188.235168"/>
      </g>
     </g>
     <g id="text_1">
      <!-- $\mathdefault{−1.00}$ -->
      <g transform="translate(14.296919 203.537348)scale(0.12 -0.12)">
       <defs>
        <path d="M 4218 1472 
C 4326 1472 4442 1472 4442 1600 
C 4442 1728 4326 1728 4218 1728 
L 755 1728 
C 646 1728 531 1728 531 1600 
C 531 1472 646 1472 755 1472 
L 4218 1472 
z
" id="CMSY10-0" transform="scale(0.015625)"/>
        <path d="M 1702 4083 
C 1702 4217 1696 4224 1606 4224 
C 1357 3927 979 3833 621 3820 
C 602 3820 570 3820 563 3808 
C 557 3795 557 3782 557 3648 
C 755 3648 1088 3686 1344 3839 
L 1344 467 
C 1344 243 1331 166 781 166 
L 589 166 
L 589 0 
C 896 6 1216 12 1523 12 
C 1830 12 2150 6 2458 0 
L 2458 166 
L 2266 166 
C 1715 166 1702 236 1702 467 
L 1702 4083 
z
" id="CMR17-31" transform="scale(0.015625)"/>
        <path d="M 1178 307 
C 1178 492 1024 620 870 620 
C 685 620 557 467 557 313 
C 557 128 710 0 864 0 
C 1050 0 1178 153 1178 307 
z
" id="CMMI12-3a" transform="scale(0.015625)"/>
        <path d="M 2688 2038 
C 2688 2430 2682 3099 2413 3613 
C 2176 4063 1798 4224 1466 4224 
C 1158 4224 768 4082 525 3620 
C 269 3137 243 2539 243 2038 
C 243 1671 250 1112 448 623 
C 723 -39 1216 -128 1466 -128 
C 1760 -128 2208 -7 2470 604 
C 2662 1048 2688 1568 2688 2038 
z
M 1466 -26 
C 1056 -26 813 328 723 816 
C 653 1196 653 1749 653 2109 
C 653 2604 653 3015 736 3407 
C 858 3954 1216 4121 1466 4121 
C 1728 4121 2067 3947 2189 3420 
C 2272 3054 2278 2623 2278 2109 
C 2278 1691 2278 1176 2202 797 
C 2067 96 1690 -26 1466 -26 
z
" id="CMR17-30" transform="scale(0.015625)"/>
       </defs>
       <use transform="scale(0.996264)" xlink:href="#CMSY10-0"/>
       <use transform="translate(77.487468 0)scale(0.996264)" xlink:href="#CMR17-31"/>
       <use transform="translate(123.177945 0)scale(0.996264)" xlink:href="#CMMI12-3a"/>
       <use transform="translate(150.275122 0)scale(0.996264)" xlink:href="#CMR17-30"/>
       <use transform="translate(195.965599 0)scale(0.996264)" xlink:href="#CMR17-30"/>
      </g>
     </g>
    </g>
    <g id="xtick_2">
     <g id="line2d_3">
      <path clip-path="url(#pb36698068c)" d="M 67.396934 188.235168 
L 67.396934 25.155168 
" style="fill:none;stroke:#b0b0b0;stroke-linecap:square;stroke-width:0.5;"/>
     </g>
     <g id="line2d_4">
      <g>
       <use style="stroke:#000000;stroke-width:0.8;" x="67.396934" xlink:href="#mb4400bf064" y="188.235168"/>
      </g>
     </g>
     <g id="text_2">
      <!-- $\mathdefault{−0.75}$ -->
      <g transform="translate(52.342374 203.537348)scale(0.12 -0.12)">
       <defs>
        <path d="M 2886 3955 
L 2886 4096 
L 1382 4096 
C 634 4096 621 4166 595 4288 
L 480 4288 
L 294 3104 
L 410 3104 
C 429 3226 474 3552 550 3673 
C 589 3724 1062 3724 1171 3724 
L 2579 3724 
L 1869 2670 
C 1395 1961 1069 1003 1069 166 
C 1069 89 1069 -128 1299 -128 
C 1530 -128 1530 89 1530 172 
L 1530 466 
C 1530 1514 1709 2204 2003 2644 
L 2886 3955 
z
" id="CMR17-37" transform="scale(0.015625)"/>
        <path d="M 730 3750 
C 794 3724 1056 3641 1325 3641 
C 1920 3641 2246 3961 2432 4140 
C 2432 4191 2432 4224 2394 4224 
C 2387 4224 2374 4224 2323 4198 
C 2099 4102 1837 4032 1517 4032 
C 1325 4032 1037 4055 723 4191 
C 653 4224 640 4224 634 4224 
C 602 4224 595 4217 595 4090 
L 595 2231 
C 595 2113 595 2080 659 2080 
C 691 2080 704 2093 736 2139 
C 941 2435 1222 2560 1542 2560 
C 1766 2560 2246 2415 2246 1293 
C 2246 1087 2246 716 2054 422 
C 1894 159 1645 25 1370 25 
C 947 25 518 319 403 812 
C 429 806 480 793 506 793 
C 589 793 749 838 749 1036 
C 749 1209 627 1280 506 1280 
C 358 1280 262 1190 262 1011 
C 262 454 704 -128 1382 -128 
C 2042 -128 2669 441 2669 1267 
C 2669 2054 2170 2662 1549 2662 
C 1222 2662 947 2540 730 2304 
L 730 3750 
z
" id="CMR17-35" transform="scale(0.015625)"/>
       </defs>
       <use transform="scale(0.996264)" xlink:href="#CMSY10-0"/>
       <use transform="translate(77.487468 0)scale(0.996264)" xlink:href="#CMR17-30"/>
       <use transform="translate(123.177945 0)scale(0.996264)" xlink:href="#CMMI12-3a"/>
       <use transform="translate(150.275122 0)scale(0.996264)" xlink:href="#CMR17-37"/>
       <use transform="translate(195.965599 0)scale(0.996264)" xlink:href="#CMR17-35"/>
      </g>
     </g>
    </g>
    <g id="xtick_3">
     <g id="line2d_5">
      <path clip-path="url(#pb36698068c)" d="M 105.442389 188.235168 
L 105.442389 25.155168 
" style="fill:none;stroke:#b0b0b0;stroke-linecap:square;stroke-width:0.5;"/>
     </g>
     <g id="line2d_6">
      <g>
       <use style="stroke:#000000;stroke-width:0.8;" x="105.442389" xlink:href="#mb4400bf064" y="188.235168"/>
      </g>
     </g>
     <g id="text_3">
      <!-- $\mathdefault{−0.50}$ -->
      <g transform="translate(90.387828 203.537348)scale(0.12 -0.12)">
       <use transform="scale(0.996264)" xlink:href="#CMSY10-0"/>
       <use transform="translate(77.487468 0)scale(0.996264)" xlink:href="#CMR17-30"/>
       <use transform="translate(123.177945 0)scale(0.996264)" xlink:href="#CMMI12-3a"/>
       <use transform="translate(150.275122 0)scale(0.996264)" xlink:href="#CMR17-35"/>
       <use transform="translate(195.965599 0)scale(0.996264)" xlink:href="#CMR17-30"/>
      </g>
     </g>
    </g>
    <g id="xtick_4">
     <g id="line2d_7">
      <path clip-path="url(#pb36698068c)" d="M 143.487843 188.235168 
L 143.487843 25.155168 
" style="fill:none;stroke:#b0b0b0;stroke-linecap:square;stroke-width:0.5;"/>
     </g>
     <g id="line2d_8">
      <g>
       <use style="stroke:#000000;stroke-width:0.8;" x="143.487843" xlink:href="#mb4400bf064" y="188.235168"/>
      </g>
     </g>
     <g id="text_4">
      <!-- $\mathdefault{−0.25}$ -->
      <g transform="translate(128.433283 203.537348)scale(0.12 -0.12)">
       <defs>
        <path d="M 2669 990 
L 2554 990 
C 2490 537 2438 460 2413 422 
C 2381 371 1920 371 1830 371 
L 602 371 
C 832 620 1280 1073 1824 1596 
C 2214 1966 2669 2400 2669 3033 
C 2669 3788 2067 4224 1395 4224 
C 691 4224 262 3603 262 3027 
C 262 2777 448 2745 525 2745 
C 589 2745 781 2783 781 3007 
C 781 3206 614 3264 525 3264 
C 486 3264 448 3257 422 3244 
C 544 3788 915 4057 1306 4057 
C 1862 4057 2227 3616 2227 3033 
C 2227 2477 1901 1998 1536 1583 
L 262 147 
L 262 0 
L 2515 0 
L 2669 990 
z
" id="CMR17-32" transform="scale(0.015625)"/>
       </defs>
       <use transform="scale(0.996264)" xlink:href="#CMSY10-0"/>
       <use transform="translate(77.487468 0)scale(0.996264)" xlink:href="#CMR17-30"/>
       <use transform="translate(123.177945 0)scale(0.996264)" xlink:href="#CMMI12-3a"/>
       <use transform="translate(150.275122 0)scale(0.996264)" xlink:href="#CMR17-32"/>
       <use transform="translate(195.965599 0)scale(0.996264)" xlink:href="#CMR17-35"/>
      </g>
     </g>
    </g>
    <g id="xtick_5">
     <g id="line2d_9">
      <path clip-path="url(#pb36698068c)" d="M 181.533298 188.235168 
L 181.533298 25.155168 
" style="fill:none;stroke:#b0b0b0;stroke-linecap:square;stroke-width:0.5;"/>
     </g>
     <g id="line2d_10">
      <g>
       <use style="stroke:#000000;stroke-width:0.8;" x="181.533298" xlink:href="#mb4400bf064" y="188.235168"/>
      </g>
     </g>
     <g id="text_5">
      <!-- $\mathdefault{0.00}$ -->
      <g transform="translate(171.127982 203.537348)scale(0.12 -0.12)">
       <use transform="scale(0.996264)" xlink:href="#CMR17-30"/>
       <use transform="translate(45.690477 0)scale(0.996264)" xlink:href="#CMMI12-3a"/>
       <use transform="translate(72.787654 0)scale(0.996264)" xlink:href="#CMR17-30"/>
       <use transform="translate(118.478131 0)scale(0.996264)" xlink:href="#CMR17-30"/>
      </g>
     </g>
    </g>
    <g id="xtick_6">
     <g id="line2d_11">
      <path clip-path="url(#pb36698068c)" d="M 219.578752 188.235168 
L 219.578752 25.155168 
" style="fill:none;stroke:#b0b0b0;stroke-linecap:square;stroke-width:0.5;"/>
     </g>
     <g id="line2d_12">
      <g>
       <use style="stroke:#000000;stroke-width:0.8;" x="219.578752" xlink:href="#mb4400bf064" y="188.235168"/>
      </g>
     </g>
     <g id="text_6">
      <!-- $\mathdefault{0.25}$ -->
      <g transform="translate(209.173436 203.537348)scale(0.12 -0.12)">
       <use transform="scale(0.996264)" xlink:href="#CMR17-30"/>
       <use transform="translate(45.690477 0)scale(0.996264)" xlink:href="#CMMI12-3a"/>
       <use transform="translate(72.787654 0)scale(0.996264)" xlink:href="#CMR17-32"/>
       <use transform="translate(118.478131 0)scale(0.996264)" xlink:href="#CMR17-35"/>
      </g>
     </g>
    </g>
    <g id="xtick_7">
     <g id="line2d_13">
      <path clip-path="url(#pb36698068c)" d="M 257.624207 188.235168 
L 257.624207 25.155168 
" style="fill:none;stroke:#b0b0b0;stroke-linecap:square;stroke-width:0.5;"/>
     </g>
     <g id="line2d_14">
      <g>
       <use style="stroke:#000000;stroke-width:0.8;" x="257.624207" xlink:href="#mb4400bf064" y="188.235168"/>
      </g>
     </g>
     <g id="text_7">
      <!-- $\mathdefault{0.50}$ -->
      <g transform="translate(247.218891 203.537348)scale(0.12 -0.12)">
       <use transform="scale(0.996264)" xlink:href="#CMR17-30"/>
       <use transform="translate(45.690477 0)scale(0.996264)" xlink:href="#CMMI12-3a"/>
       <use transform="translate(72.787654 0)scale(0.996264)" xlink:href="#CMR17-35"/>
       <use transform="translate(118.478131 0)scale(0.996264)" xlink:href="#CMR17-30"/>
      </g>
     </g>
    </g>
    <g id="xtick_8">
     <g id="line2d_15">
      <path clip-path="url(#pb36698068c)" d="M 295.669661 188.235168 
L 295.669661 25.155168 
" style="fill:none;stroke:#b0b0b0;stroke-linecap:square;stroke-width:0.5;"/>
     </g>
     <g id="line2d_16">
      <g>
       <use style="stroke:#000000;stroke-width:0.8;" x="295.669661" xlink:href="#mb4400bf064" y="188.235168"/>
      </g>
     </g>
     <g id="text_8">
      <!-- $\mathdefault{0.75}$ -->
      <g transform="translate(285.264345 203.537348)scale(0.12 -0.12)">
       <use transform="scale(0.996264)" xlink:href="#CMR17-30"/>
       <use transform="translate(45.690477 0)scale(0.996264)" xlink:href="#CMMI12-3a"/>
       <use transform="translate(72.787654 0)scale(0.996264)" xlink:href="#CMR17-37"/>
       <use transform="translate(118.478131 0)scale(0.996264)" xlink:href="#CMR17-35"/>
      </g>
     </g>
    </g>
    <g id="xtick_9">
     <g id="line2d_17">
      <path clip-path="url(#pb36698068c)" d="M 333.715116 188.235168 
L 333.715116 25.155168 
" style="fill:none;stroke:#b0b0b0;stroke-linecap:square;stroke-width:0.5;"/>
     </g>
     <g id="line2d_18">
      <g>
       <use style="stroke:#000000;stroke-width:0.8;" x="333.715116" xlink:href="#mb4400bf064" y="188.235168"/>
      </g>
     </g>
     <g id="text_9">
      <!-- $\mathdefault{1.00}$ -->
      <g transform="translate(323.3098 203.537348)scale(0.12 -0.12)">
       <use transform="scale(0.996264)" xlink:href="#CMR17-31"/>
       <use transform="translate(45.690477 0)scale(0.996264)" xlink:href="#CMMI12-3a"/>
       <use transform="translate(72.787654 0)scale(0.996264)" xlink:href="#CMR17-30"/>
       <use transform="translate(118.478131 0)scale(0.996264)" xlink:href="#CMR17-30"/>
      </g>
     </g>
    </g>
   </g>
   <g id="matplotlib.axis_2">
    <g id="ytick_1">
     <g id="line2d_19">
      <path clip-path="url(#pb36698068c)" d="M 29.35148 179.175168 
L 333.715116 179.175168 
" style="fill:none;stroke:#b0b0b0;stroke-linecap:square;stroke-width:0.5;"/>
     </g>
     <g id="line2d_20">
      <defs>
       <path d="M 0 0 
L -3.5 0 
" id="mf83f5a97b4" style="stroke:#000000;stroke-width:0.8;"/>
      </defs>
      <g>
       <use style="stroke:#000000;stroke-width:0.8;" x="29.35148" xlink:href="#mf83f5a97b4" y="179.175168"/>
      </g>
     </g>
     <g id="text_10">
      <!-- $\mathdefault{−4}$ -->
      <g transform="translate(7.2 183.326258)scale(0.12 -0.12)">
       <defs>
        <path d="M 2150 4147 
C 2150 4281 2144 4288 2029 4288 
L 128 1254 
L 128 1088 
L 1779 1088 
L 1779 460 
C 1779 230 1766 166 1318 166 
L 1197 166 
L 1197 0 
C 1402 12 1747 12 1965 12 
C 2182 12 2528 12 2733 0 
L 2733 166 
L 2611 166 
C 2163 166 2150 230 2150 460 
L 2150 1088 
L 2803 1088 
L 2803 1254 
L 2150 1254 
L 2150 4147 
z
M 1798 3723 
L 1798 1254 
L 256 1254 
L 1798 3723 
z
" id="CMR17-34" transform="scale(0.015625)"/>
       </defs>
       <use transform="scale(0.996264)" xlink:href="#CMSY10-0"/>
       <use transform="translate(77.487468 0)scale(0.996264)" xlink:href="#CMR17-34"/>
      </g>
     </g>
    </g>
    <g id="ytick_2">
     <g id="line2d_21">
      <path clip-path="url(#pb36698068c)" d="M 29.35148 142.935168 
L 333.715116 142.935168 
" style="fill:none;stroke:#b0b0b0;stroke-linecap:square;stroke-width:0.5;"/>
     </g>
     <g id="line2d_22">
      <g>
       <use style="stroke:#000000;stroke-width:0.8;" x="29.35148" xlink:href="#mf83f5a97b4" y="142.935168"/>
      </g>
     </g>
     <g id="text_11">
      <!-- $\mathdefault{−2}$ -->
      <g transform="translate(7.2 147.086258)scale(0.12 -0.12)">
       <use transform="scale(0.996264)" xlink:href="#CMSY10-0"/>
       <use transform="translate(77.487468 0)scale(0.996264)" xlink:href="#CMR17-32"/>
      </g>
     </g>
    </g>
    <g id="ytick_3">
     <g id="line2d_23">
      <path clip-path="url(#pb36698068c)" d="M 29.35148 106.695168 
L 333.715116 106.695168 
" style="fill:none;stroke:#b0b0b0;stroke-linecap:square;stroke-width:0.5;"/>
     </g>
     <g id="line2d_24">
      <g>
       <use style="stroke:#000000;stroke-width:0.8;" x="29.35148" xlink:href="#mf83f5a97b4" y="106.695168"/>
      </g>
     </g>
     <g id="text_12">
      <!-- $\mathdefault{0}$ -->
      <g transform="translate(16.498489 110.846258)scale(0.12 -0.12)">
       <use transform="scale(0.996264)" xlink:href="#CMR17-30"/>
      </g>
     </g>
    </g>
    <g id="ytick_4">
     <g id="line2d_25">
      <path clip-path="url(#pb36698068c)" d="M 29.35148 70.455168 
L 333.715116 70.455168 
" style="fill:none;stroke:#b0b0b0;stroke-linecap:square;stroke-width:0.5;"/>
     </g>
     <g id="line2d_26">
      <g>
       <use style="stroke:#000000;stroke-width:0.8;" x="29.35148" xlink:href="#mf83f5a97b4" y="70.455168"/>
      </g>
     </g>
     <g id="text_13">
      <!-- $\mathdefault{2}$ -->
      <g transform="translate(16.498489 74.606258)scale(0.12 -0.12)">
       <use transform="scale(0.996264)" xlink:href="#CMR17-32"/>
      </g>
     </g>
    </g>
    <g id="ytick_5">
     <g id="line2d_27">
      <path clip-path="url(#pb36698068c)" d="M 29.35148 34.215168 
L 333.715116 34.215168 
" style="fill:none;stroke:#b0b0b0;stroke-linecap:square;stroke-width:0.5;"/>
     </g>
     <g id="line2d_28">
      <g>
       <use style="stroke:#000000;stroke-width:0.8;" x="29.35148" xlink:href="#mf83f5a97b4" y="34.215168"/>
      </g>
     </g>
     <g id="text_14">
      <!-- $\mathdefault{4}$ -->
      <g transform="translate(16.498489 38.366258)scale(0.12 -0.12)">
       <use transform="scale(0.996264)" xlink:href="#CMR17-34"/>
      </g>
     </g>
    </g>
   </g>
   <g id="line2d_29">
    <path clip-path="url(#pb36698068c)" d="M 29.35148 179.175168 
L 36.960571 174.513798 
L 44.569661 169.607808 
L 53.700571 163.435991 
L 62.83148 156.998028 
L 73.484207 149.213349 
L 87.180571 138.886145 
L 108.486025 122.459858 
L 129.79148 106.118807 
L 141.966025 97.04895 
L 152.618752 89.382994 
L 161.749661 83.072233 
L 170.880571 77.051102 
L 178.489661 72.288622 
L 186.098752 67.787071 
L 193.707843 63.573627 
L 199.795116 60.428575 
L 205.882389 57.499223 
L 211.969661 54.799488 
L 218.056934 52.343286 
L 224.144207 50.144533 
L 230.23148 48.217144 
L 236.318752 46.575038 
L 240.884207 45.539045 
L 245.449661 44.677221 
L 250.015116 43.995438 
L 254.580571 43.499566 
L 259.146025 43.195476 
L 263.71148 43.089039 
L 268.276934 43.186126 
L 272.842389 43.492608 
L 277.407843 44.014355 
L 281.973298 44.757239 
L 286.538752 45.72713 
L 291.104207 46.9299 
L 295.669661 48.371418 
L 300.235116 50.057557 
L 304.800571 51.994186 
L 309.366025 54.187177 
L 313.93148 56.642401 
L 318.496934 59.365728 
L 323.062389 62.36303 
L 327.627843 65.640177 
L 332.193298 69.20304 
L 333.715116 70.455168 
L 333.715116 70.455168 
" style="fill:none;stroke:#808080;stroke-linecap:square;"/>
   </g>
   <g id="line2d_30">
    <path clip-path="url(#pb36698068c)" d="M 29.35148 165.518615 
L 30.873298 163.533172 
L 32.395116 174.316552 
L 33.916934 188.405341 
L 35.438752 153.198408 
L 36.960571 166.848437 
L 38.482389 168.044948 
L 40.004207 161.715548 
L 41.526025 150.832964 
L 43.047843 168.10386 
L 44.569661 167.855568 
L 46.09148 174.771756 
L 47.613298 167.091551 
L 49.135116 192.068635 
L 50.656934 184.329793 
L 52.178752 162.371482 
L 53.700571 127.090146 
L 55.222389 169.997803 
L 56.744207 170.242034 
L 58.266025 144.933463 
L 59.787843 169.1043 
L 61.309661 143.364681 
L 62.83148 144.033336 
L 64.353298 175.957202 
L 65.875116 154.731799 
L 67.396934 177.598261 
L 68.918752 170.728875 
L 70.440571 160.676987 
L 71.962389 147.458817 
L 73.484207 145.379223 
L 75.006025 143.785226 
L 76.527843 145.783361 
L 78.049661 142.621484 
L 79.57148 153.606169 
L 81.093298 145.816666 
L 82.615116 141.890654 
L 84.136934 164.658676 
L 85.658752 126.024453 
L 87.180571 132.048206 
L 88.702389 131.246584 
L 90.224207 138.042354 
L 91.746025 130.901054 
L 93.267843 175.449225 
L 94.789661 133.458378 
L 96.31148 136.492645 
L 97.833298 128.686196 
L 99.355116 130.305005 
L 100.876934 115.973687 
L 102.398752 138.58511 
L 103.920571 111.503432 
L 105.442389 130.524331 
L 106.964207 93.129832 
L 108.486025 136.007572 
L 110.007843 126.986823 
L 111.529661 129.752005 
L 113.05148 102.398189 
L 114.573298 120.987259 
L 116.095116 111.97322 
L 117.616934 112.416829 
L 119.138752 102.602762 
L 120.660571 108.594875 
L 122.182389 113.306753 
L 123.704207 140.544478 
L 125.226025 131.274415 
L 126.747843 87.179737 
L 128.269661 95.923775 
L 129.79148 80.977135 
L 131.313298 109.193212 
L 132.835116 125.662477 
L 134.356934 94.049527 
L 135.878752 102.854576 
L 137.400571 107.524084 
L 138.922389 91.164551 
L 140.444207 102.276364 
L 141.966025 85.091875 
L 143.487843 86.186208 
L 145.009661 98.233741 
L 146.53148 102.421669 
L 148.053298 131.516278 
L 149.575116 100.66919 
L 151.096934 129.160327 
L 152.618752 66.545479 
L 154.140571 121.082958 
L 155.662389 103.012626 
L 157.184207 101.643432 
L 158.706025 88.187001 
L 160.227843 80.703882 
L 161.749661 59.034611 
L 163.27148 96.562815 
L 164.793298 100.612971 
L 166.315116 84.728807 
L 167.836934 94.047993 
L 169.358752 63.63534 
L 170.880571 71.511546 
L 172.402389 73.342208 
L 173.924207 64.064454 
L 175.446025 70.82901 
L 176.967843 94.952884 
L 178.489661 90.701832 
L 180.01148 94.551546 
L 181.533298 39.321559 
L 183.055116 51.624145 
L 184.576934 37.704977 
L 186.098752 68.516227 
L 187.620571 35.46502 
L 189.142389 90.095331 
L 190.664207 49.186172 
L 192.186025 70.348267 
L 193.707843 73.280892 
L 195.229661 66.337488 
L 196.75148 60.27415 
L 198.273298 55.026469 
L 199.795116 68.338295 
L 201.316934 117.024856 
L 202.838752 91.197268 
L 204.360571 18.342626 
L 205.882389 66.76874 
L 207.404207 83.152937 
L 208.926025 62.458136 
L 210.447843 43.996207 
L 211.969661 68.118949 
L 213.49148 55.962501 
L 215.013298 44.8528 
L 216.535116 62.432904 
L 218.056934 91.563718 
L 219.578752 27.240635 
L 221.100571 57.517146 
L 222.622389 32.427039 
L 224.144207 20.328405 
L 225.666025 56.040583 
L 227.187843 55.712397 
L 228.709661 54.47421 
L 230.23148 67.900994 
L 231.753298 40.917765 
L 233.275116 62.402053 
L 234.796934 16.211778 
L 236.318752 58.123587 
L 237.840571 22.295234 
L 239.362389 56.605139 
L 240.884207 66.300984 
L 242.406025 23.701667 
L 243.927843 48.633054 
L 245.449661 62.462249 
L 246.97148 64.951165 
L 248.493298 43.14536 
L 250.015116 41.205169 
L 251.536934 43.407788 
L 253.058752 65.899357 
L 254.580571 5.624949 
L 256.102389 49.001459 
L 257.624207 68.449456 
L 259.146025 13.663034 
L 260.667843 36.70293 
L 262.189661 52.842477 
L 263.71148 43.679815 
L 265.233298 41.453313 
L 266.755116 29.410401 
L 268.276934 76.140293 
L 269.798752 42.672105 
L 271.320571 36.633973 
L 272.842389 22.863008 
L 274.364207 39.268004 
L 275.886025 59.479318 
L 278.929661 50.972064 
L 280.45148 59.133781 
L 281.973298 40.050417 
L 283.495116 83.644336 
L 285.016934 23.760657 
L 286.538752 66.853926 
L 288.060571 39.769086 
L 289.582389 28.794067 
L 291.104207 54.576447 
L 292.626025 36.739909 
L 294.147843 30.161788 
L 295.669661 28.720222 
L 297.19148 34.011615 
L 298.713298 25.46363 
L 300.235116 68.151158 
L 301.756934 52.267397 
L 303.278752 65.577306 
L 304.800571 58.360832 
L 306.322389 15.265697 
L 307.844207 29.003337 
L 309.366025 30.817002 
L 310.887843 57.18065 
L 312.409661 61.639102 
L 313.93148 48.270362 
L 315.453298 20.604125 
L 316.975116 86.657797 
L 318.496934 78.713034 
L 320.018752 77.348884 
L 321.540571 104.476687 
L 323.062389 69.249773 
L 324.584207 78.365951 
L 326.106025 73.329853 
L 327.627843 74.078099 
L 329.149661 77.150346 
L 330.67148 55.922909 
L 332.193298 70.036485 
L 333.715116 67.185963 
L 333.715116 67.185963 
" style="fill:none;stroke:#1f77b4;stroke-linecap:square;"/>
   </g>
   <g id="line2d_31">
    <path clip-path="url(#pb36698068c)" d="M 29.35148 191.145902 
L 38.482389 181.191368 
L 47.613298 171.600734 
L 56.744207 162.374002 
L 65.875116 153.511171 
L 75.006025 145.012241 
L 82.615116 138.207779 
L 90.224207 131.656026 
L 97.833298 125.356982 
L 105.442389 119.310647 
L 113.05148 113.517022 
L 120.660571 107.976105 
L 128.269661 102.687897 
L 135.878752 97.652398 
L 143.487843 92.869609 
L 151.096934 88.339528 
L 158.706025 84.062157 
L 166.315116 80.037494 
L 173.924207 76.265541 
L 181.533298 72.746296 
L 189.142389 69.479761 
L 196.75148 66.465934 
L 204.360571 63.704817 
L 211.969661 61.196409 
L 219.578752 58.940709 
L 227.187843 56.937719 
L 234.796934 55.187438 
L 242.406025 53.689866 
L 250.015116 52.445002 
L 257.624207 51.452848 
L 265.233298 50.713403 
L 272.842389 50.226667 
L 280.45148 49.99264 
L 288.060571 50.011322 
L 295.669661 50.282713 
L 303.278752 50.806813 
L 310.887843 51.583622 
L 318.496934 52.61314 
L 326.106025 53.895367 
L 333.715116 55.430304 
L 333.715116 55.430304 
" style="fill:none;stroke:#2ca02c;stroke-linecap:square;"/>
   </g>
   <g id="line2d_32">
    <path clip-path="url(#pb36698068c)" d="M 29.35148 191.145902 
L 29.35148 165.518615 
" style="fill:none;stroke:#ff7f0e;stroke-linecap:square;"/>
   </g>
   <g id="line2d_33">
    <path clip-path="url(#pb36698068c)" d="M 30.873298 189.461542 
L 30.873298 163.533172 
" style="fill:none;stroke:#ff7f0e;stroke-linecap:square;"/>
   </g>
   <g id="line2d_34">
    <path clip-path="url(#pb36698068c)" d="M 32.395116 187.78729 
L 32.395116 174.316552 
" style="fill:none;stroke:#ff7f0e;stroke-linecap:square;"/>
   </g>
   <g id="line2d_35">
    <path clip-path="url(#pb36698068c)" d="M 33.916934 186.123147 
L 33.916934 188.405341 
" style="fill:none;stroke:#ff7f0e;stroke-linecap:square;"/>
   </g>
   <g id="line2d_36">
    <path clip-path="url(#pb36698068c)" d="M 35.438752 184.469112 
L 35.438752 153.198408 
" style="fill:none;stroke:#ff7f0e;stroke-linecap:square;"/>
   </g>
   <g id="line2d_37">
    <path clip-path="url(#pb36698068c)" d="M 36.960571 182.825186 
L 36.960571 166.848437 
" style="fill:none;stroke:#ff7f0e;stroke-linecap:square;"/>
   </g>
   <g id="line2d_38">
    <path clip-path="url(#pb36698068c)" d="M 38.482389 181.191368 
L 38.482389 168.044948 
" style="fill:none;stroke:#ff7f0e;stroke-linecap:square;"/>
   </g>
   <g id="line2d_39">
    <path clip-path="url(#pb36698068c)" d="M 40.004207 179.567658 
L 40.004207 161.715548 
" style="fill:none;stroke:#ff7f0e;stroke-linecap:square;"/>
   </g>
   <g id="line2d_40">
    <path clip-path="url(#pb36698068c)" d="M 41.526025 177.954056 
L 41.526025 150.832964 
" style="fill:none;stroke:#ff7f0e;stroke-linecap:square;"/>
   </g>
   <g id="line2d_41">
    <path clip-path="url(#pb36698068c)" d="M 43.047843 176.350563 
L 43.047843 168.10386 
" style="fill:none;stroke:#ff7f0e;stroke-linecap:square;"/>
   </g>
   <g id="line2d_42">
    <path clip-path="url(#pb36698068c)" d="M 44.569661 174.757179 
L 44.569661 167.855568 
" style="fill:none;stroke:#ff7f0e;stroke-linecap:square;"/>
   </g>
   <g id="line2d_43">
    <path clip-path="url(#pb36698068c)" d="M 46.09148 173.173902 
L 46.09148 174.771756 
" style="fill:none;stroke:#ff7f0e;stroke-linecap:square;"/>
   </g>
   <g id="line2d_44">
    <path clip-path="url(#pb36698068c)" d="M 47.613298 171.600734 
L 47.613298 167.091551 
" style="fill:none;stroke:#ff7f0e;stroke-linecap:square;"/>
   </g>
   <g id="line2d_45">
    <path clip-path="url(#pb36698068c)" d="M 49.135116 170.037675 
L 49.135116 192.068635 
" style="fill:none;stroke:#ff7f0e;stroke-linecap:square;"/>
   </g>
   <g id="line2d_46">
    <path clip-path="url(#pb36698068c)" d="M 50.656934 168.484723 
L 50.656934 184.329793 
" style="fill:none;stroke:#ff7f0e;stroke-linecap:square;"/>
   </g>
   <g id="line2d_47">
    <path clip-path="url(#pb36698068c)" d="M 52.178752 166.941881 
L 52.178752 162.371482 
" style="fill:none;stroke:#ff7f0e;stroke-linecap:square;"/>
   </g>
   <g id="line2d_48">
    <path clip-path="url(#pb36698068c)" d="M 53.700571 165.409146 
L 53.700571 127.090146 
" style="fill:none;stroke:#ff7f0e;stroke-linecap:square;"/>
   </g>
   <g id="line2d_49">
    <path clip-path="url(#pb36698068c)" d="M 55.222389 163.88652 
L 55.222389 169.997803 
" style="fill:none;stroke:#ff7f0e;stroke-linecap:square;"/>
   </g>
   <g id="line2d_50">
    <path clip-path="url(#pb36698068c)" d="M 56.744207 162.374002 
L 56.744207 170.242034 
" style="fill:none;stroke:#ff7f0e;stroke-linecap:square;"/>
   </g>
   <g id="line2d_51">
    <path clip-path="url(#pb36698068c)" d="M 58.266025 160.871593 
L 58.266025 144.933463 
" style="fill:none;stroke:#ff7f0e;stroke-linecap:square;"/>
   </g>
   <g id="line2d_52">
    <path clip-path="url(#pb36698068c)" d="M 59.787843 159.379292 
L 59.787843 169.1043 
" style="fill:none;stroke:#ff7f0e;stroke-linecap:square;"/>
   </g>
   <g id="line2d_53">
    <path clip-path="url(#pb36698068c)" d="M 61.309661 157.897099 
L 61.309661 143.364681 
" style="fill:none;stroke:#ff7f0e;stroke-linecap:square;"/>
   </g>
   <g id="line2d_54">
    <path clip-path="url(#pb36698068c)" d="M 62.83148 156.425015 
L 62.83148 144.033336 
" style="fill:none;stroke:#ff7f0e;stroke-linecap:square;"/>
   </g>
   <g id="line2d_55">
    <path clip-path="url(#pb36698068c)" d="M 64.353298 154.963039 
L 64.353298 175.957202 
" style="fill:none;stroke:#ff7f0e;stroke-linecap:square;"/>
   </g>
   <g id="line2d_56">
    <path clip-path="url(#pb36698068c)" d="M 65.875116 153.511171 
L 65.875116 154.731799 
" style="fill:none;stroke:#ff7f0e;stroke-linecap:square;"/>
   </g>
   <g id="line2d_57">
    <path clip-path="url(#pb36698068c)" d="M 67.396934 152.069412 
L 67.396934 177.598261 
" style="fill:none;stroke:#ff7f0e;stroke-linecap:square;"/>
   </g>
   <g id="line2d_58">
    <path clip-path="url(#pb36698068c)" d="M 68.918752 150.637761 
L 68.918752 170.728875 
" style="fill:none;stroke:#ff7f0e;stroke-linecap:square;"/>
   </g>
   <g id="line2d_59">
    <path clip-path="url(#pb36698068c)" d="M 70.440571 149.216218 
L 70.440571 160.676987 
" style="fill:none;stroke:#ff7f0e;stroke-linecap:square;"/>
   </g>
   <g id="line2d_60">
    <path clip-path="url(#pb36698068c)" d="M 71.962389 147.804784 
L 71.962389 147.458817 
" style="fill:none;stroke:#ff7f0e;stroke-linecap:square;"/>
   </g>
   <g id="line2d_61">
    <path clip-path="url(#pb36698068c)" d="M 73.484207 146.403458 
L 73.484207 145.379223 
" style="fill:none;stroke:#ff7f0e;stroke-linecap:square;"/>
   </g>
   <g id="line2d_62">
    <path clip-path="url(#pb36698068c)" d="M 75.006025 145.012241 
L 75.006025 143.785226 
" style="fill:none;stroke:#ff7f0e;stroke-linecap:square;"/>
   </g>
   <g id="line2d_63">
    <path clip-path="url(#pb36698068c)" d="M 76.527843 143.631132 
L 76.527843 145.783361 
" style="fill:none;stroke:#ff7f0e;stroke-linecap:square;"/>
   </g>
   <g id="line2d_64">
    <path clip-path="url(#pb36698068c)" d="M 78.049661 142.260131 
L 78.049661 142.621484 
" style="fill:none;stroke:#ff7f0e;stroke-linecap:square;"/>
   </g>
   <g id="line2d_65">
    <path clip-path="url(#pb36698068c)" d="M 79.57148 140.899238 
L 79.57148 153.606169 
" style="fill:none;stroke:#ff7f0e;stroke-linecap:square;"/>
   </g>
   <g id="line2d_66">
    <path clip-path="url(#pb36698068c)" d="M 81.093298 139.548454 
L 81.093298 145.816666 
" style="fill:none;stroke:#ff7f0e;stroke-linecap:square;"/>
   </g>
   <g id="line2d_67">
    <path clip-path="url(#pb36698068c)" d="M 82.615116 138.207779 
L 82.615116 141.890654 
" style="fill:none;stroke:#ff7f0e;stroke-linecap:square;"/>
   </g>
   <g id="line2d_68">
    <path clip-path="url(#pb36698068c)" d="M 84.136934 136.877212 
L 84.136934 164.658676 
" style="fill:none;stroke:#ff7f0e;stroke-linecap:square;"/>
   </g>
   <g id="line2d_69">
    <path clip-path="url(#pb36698068c)" d="M 85.658752 135.556753 
L 85.658752 126.024453 
" style="fill:none;stroke:#ff7f0e;stroke-linecap:square;"/>
   </g>
   <g id="line2d_70">
    <path clip-path="url(#pb36698068c)" d="M 87.180571 134.246402 
L 87.180571 132.048206 
" style="fill:none;stroke:#ff7f0e;stroke-linecap:square;"/>
   </g>
   <g id="line2d_71">
    <path clip-path="url(#pb36698068c)" d="M 88.702389 132.94616 
L 88.702389 131.246584 
" style="fill:none;stroke:#ff7f0e;stroke-linecap:square;"/>
   </g>
   <g id="line2d_72">
    <path clip-path="url(#pb36698068c)" d="M 90.224207 131.656026 
L 90.224207 138.042354 
" style="fill:none;stroke:#ff7f0e;stroke-linecap:square;"/>
   </g>
   <g id="line2d_73">
    <path clip-path="url(#pb36698068c)" d="M 91.746025 130.376 
L 91.746025 130.901054 
" style="fill:none;stroke:#ff7f0e;stroke-linecap:square;"/>
   </g>
   <g id="line2d_74">
    <path clip-path="url(#pb36698068c)" d="M 93.267843 129.106083 
L 93.267843 175.449225 
" style="fill:none;stroke:#ff7f0e;stroke-linecap:square;"/>
   </g>
   <g id="line2d_75">
    <path clip-path="url(#pb36698068c)" d="M 94.789661 127.846275 
L 94.789661 133.458378 
" style="fill:none;stroke:#ff7f0e;stroke-linecap:square;"/>
   </g>
   <g id="line2d_76">
    <path clip-path="url(#pb36698068c)" d="M 96.31148 126.596574 
L 96.31148 136.492645 
" style="fill:none;stroke:#ff7f0e;stroke-linecap:square;"/>
   </g>
   <g id="line2d_77">
    <path clip-path="url(#pb36698068c)" d="M 97.833298 125.356982 
L 97.833298 128.686196 
" style="fill:none;stroke:#ff7f0e;stroke-linecap:square;"/>
   </g>
   <g id="line2d_78">
    <path clip-path="url(#pb36698068c)" d="M 99.355116 124.127498 
L 99.355116 130.305005 
" style="fill:none;stroke:#ff7f0e;stroke-linecap:square;"/>
   </g>
   <g id="line2d_79">
    <path clip-path="url(#pb36698068c)" d="M 100.876934 122.908123 
L 100.876934 115.973687 
" style="fill:none;stroke:#ff7f0e;stroke-linecap:square;"/>
   </g>
   <g id="line2d_80">
    <path clip-path="url(#pb36698068c)" d="M 102.398752 121.698856 
L 102.398752 138.58511 
" style="fill:none;stroke:#ff7f0e;stroke-linecap:square;"/>
   </g>
   <g id="line2d_81">
    <path clip-path="url(#pb36698068c)" d="M 103.920571 120.499698 
L 103.920571 111.503432 
" style="fill:none;stroke:#ff7f0e;stroke-linecap:square;"/>
   </g>
   <g id="line2d_82">
    <path clip-path="url(#pb36698068c)" d="M 105.442389 119.310647 
L 105.442389 130.524331 
" style="fill:none;stroke:#ff7f0e;stroke-linecap:square;"/>
   </g>
   <g id="line2d_83">
    <path clip-path="url(#pb36698068c)" d="M 106.964207 118.131705 
L 106.964207 93.129832 
" style="fill:none;stroke:#ff7f0e;stroke-linecap:square;"/>
   </g>
   <g id="line2d_84">
    <path clip-path="url(#pb36698068c)" d="M 108.486025 116.962872 
L 108.486025 136.007572 
" style="fill:none;stroke:#ff7f0e;stroke-linecap:square;"/>
   </g>
   <g id="line2d_85">
    <path clip-path="url(#pb36698068c)" d="M 110.007843 115.804147 
L 110.007843 126.986823 
" style="fill:none;stroke:#ff7f0e;stroke-linecap:square;"/>
   </g>
   <g id="line2d_86">
    <path clip-path="url(#pb36698068c)" d="M 111.529661 114.65553 
L 111.529661 129.752005 
" style="fill:none;stroke:#ff7f0e;stroke-linecap:square;"/>
   </g>
   <g id="line2d_87">
    <path clip-path="url(#pb36698068c)" d="M 113.05148 113.517022 
L 113.05148 102.398189 
" style="fill:none;stroke:#ff7f0e;stroke-linecap:square;"/>
   </g>
   <g id="line2d_88">
    <path clip-path="url(#pb36698068c)" d="M 114.573298 112.388622 
L 114.573298 120.987259 
" style="fill:none;stroke:#ff7f0e;stroke-linecap:square;"/>
   </g>
   <g id="line2d_89">
    <path clip-path="url(#pb36698068c)" d="M 116.095116 111.27033 
L 116.095116 111.97322 
" style="fill:none;stroke:#ff7f0e;stroke-linecap:square;"/>
   </g>
   <g id="line2d_90">
    <path clip-path="url(#pb36698068c)" d="M 117.616934 110.162146 
L 117.616934 112.416829 
" style="fill:none;stroke:#ff7f0e;stroke-linecap:square;"/>
   </g>
   <g id="line2d_91">
    <path clip-path="url(#pb36698068c)" d="M 119.138752 109.064071 
L 119.138752 102.602762 
" style="fill:none;stroke:#ff7f0e;stroke-linecap:square;"/>
   </g>
   <g id="line2d_92">
    <path clip-path="url(#pb36698068c)" d="M 120.660571 107.976105 
L 120.660571 108.594875 
" style="fill:none;stroke:#ff7f0e;stroke-linecap:square;"/>
   </g>
   <g id="line2d_93">
    <path clip-path="url(#pb36698068c)" d="M 122.182389 106.898247 
L 122.182389 113.306753 
" style="fill:none;stroke:#ff7f0e;stroke-linecap:square;"/>
   </g>
   <g id="line2d_94">
    <path clip-path="url(#pb36698068c)" d="M 123.704207 105.830497 
L 123.704207 140.544478 
" style="fill:none;stroke:#ff7f0e;stroke-linecap:square;"/>
   </g>
   <g id="line2d_95">
    <path clip-path="url(#pb36698068c)" d="M 125.226025 104.772855 
L 125.226025 131.274415 
" style="fill:none;stroke:#ff7f0e;stroke-linecap:square;"/>
   </g>
   <g id="line2d_96">
    <path clip-path="url(#pb36698068c)" d="M 126.747843 103.725322 
L 126.747843 87.179737 
" style="fill:none;stroke:#ff7f0e;stroke-linecap:square;"/>
   </g>
   <g id="line2d_97">
    <path clip-path="url(#pb36698068c)" d="M 128.269661 102.687897 
L 128.269661 95.923775 
" style="fill:none;stroke:#ff7f0e;stroke-linecap:square;"/>
   </g>
   <g id="line2d_98">
    <path clip-path="url(#pb36698068c)" d="M 129.79148 101.660581 
L 129.79148 80.977135 
" style="fill:none;stroke:#ff7f0e;stroke-linecap:square;"/>
   </g>
   <g id="line2d_99">
    <path clip-path="url(#pb36698068c)" d="M 131.313298 100.643373 
L 131.313298 109.193212 
" style="fill:none;stroke:#ff7f0e;stroke-linecap:square;"/>
   </g>
   <g id="line2d_100">
    <path clip-path="url(#pb36698068c)" d="M 132.835116 99.636273 
L 132.835116 125.662477 
" style="fill:none;stroke:#ff7f0e;stroke-linecap:square;"/>
   </g>
   <g id="line2d_101">
    <path clip-path="url(#pb36698068c)" d="M 134.356934 98.639281 
L 134.356934 94.049527 
" style="fill:none;stroke:#ff7f0e;stroke-linecap:square;"/>
   </g>
   <g id="line2d_102">
    <path clip-path="url(#pb36698068c)" d="M 135.878752 97.652398 
L 135.878752 102.854576 
" style="fill:none;stroke:#ff7f0e;stroke-linecap:square;"/>
   </g>
   <g id="line2d_103">
    <path clip-path="url(#pb36698068c)" d="M 137.400571 96.675624 
L 137.400571 107.524084 
" style="fill:none;stroke:#ff7f0e;stroke-linecap:square;"/>
   </g>
   <g id="line2d_104">
    <path clip-path="url(#pb36698068c)" d="M 138.922389 95.708958 
L 138.922389 91.164551 
" style="fill:none;stroke:#ff7f0e;stroke-linecap:square;"/>
   </g>
   <g id="line2d_105">
    <path clip-path="url(#pb36698068c)" d="M 140.444207 94.7524 
L 140.444207 102.276364 
" style="fill:none;stroke:#ff7f0e;stroke-linecap:square;"/>
   </g>
   <g id="line2d_106">
    <path clip-path="url(#pb36698068c)" d="M 141.966025 93.80595 
L 141.966025 85.091875 
" style="fill:none;stroke:#ff7f0e;stroke-linecap:square;"/>
   </g>
   <g id="line2d_107">
    <path clip-path="url(#pb36698068c)" d="M 143.487843 92.869609 
L 143.487843 86.186208 
" style="fill:none;stroke:#ff7f0e;stroke-linecap:square;"/>
   </g>
   <g id="line2d_108">
    <path clip-path="url(#pb36698068c)" d="M 145.009661 91.943376 
L 145.009661 98.233741 
" style="fill:none;stroke:#ff7f0e;stroke-linecap:square;"/>
   </g>
   <g id="line2d_109">
    <path clip-path="url(#pb36698068c)" d="M 146.53148 91.027252 
L 146.53148 102.421669 
" style="fill:none;stroke:#ff7f0e;stroke-linecap:square;"/>
   </g>
   <g id="line2d_110">
    <path clip-path="url(#pb36698068c)" d="M 148.053298 90.121235 
L 148.053298 131.516278 
" style="fill:none;stroke:#ff7f0e;stroke-linecap:square;"/>
   </g>
   <g id="line2d_111">
    <path clip-path="url(#pb36698068c)" d="M 149.575116 89.225328 
L 149.575116 100.66919 
" style="fill:none;stroke:#ff7f0e;stroke-linecap:square;"/>
   </g>
   <g id="line2d_112">
    <path clip-path="url(#pb36698068c)" d="M 151.096934 88.339528 
L 151.096934 129.160327 
" style="fill:none;stroke:#ff7f0e;stroke-linecap:square;"/>
   </g>
   <g id="line2d_113">
    <path clip-path="url(#pb36698068c)" d="M 152.618752 87.463837 
L 152.618752 66.545479 
" style="fill:none;stroke:#ff7f0e;stroke-linecap:square;"/>
   </g>
   <g id="line2d_114">
    <path clip-path="url(#pb36698068c)" d="M 154.140571 86.598255 
L 154.140571 121.082958 
" style="fill:none;stroke:#ff7f0e;stroke-linecap:square;"/>
   </g>
   <g id="line2d_115">
    <path clip-path="url(#pb36698068c)" d="M 155.662389 85.74278 
L 155.662389 103.012626 
" style="fill:none;stroke:#ff7f0e;stroke-linecap:square;"/>
   </g>
   <g id="line2d_116">
    <path clip-path="url(#pb36698068c)" d="M 157.184207 84.897414 
L 157.184207 101.643432 
" style="fill:none;stroke:#ff7f0e;stroke-linecap:square;"/>
   </g>
   <g id="line2d_117">
    <path clip-path="url(#pb36698068c)" d="M 158.706025 84.062157 
L 158.706025 88.187001 
" style="fill:none;stroke:#ff7f0e;stroke-linecap:square;"/>
   </g>
   <g id="line2d_118">
    <path clip-path="url(#pb36698068c)" d="M 160.227843 83.237007 
L 160.227843 80.703882 
" style="fill:none;stroke:#ff7f0e;stroke-linecap:square;"/>
   </g>
   <g id="line2d_119">
    <path clip-path="url(#pb36698068c)" d="M 161.749661 82.421967 
L 161.749661 59.034611 
" style="fill:none;stroke:#ff7f0e;stroke-linecap:square;"/>
   </g>
   <g id="line2d_120">
    <path clip-path="url(#pb36698068c)" d="M 163.27148 81.617034 
L 163.27148 96.562815 
" style="fill:none;stroke:#ff7f0e;stroke-linecap:square;"/>
   </g>
   <g id="line2d_121">
    <path clip-path="url(#pb36698068c)" d="M 164.793298 80.82221 
L 164.793298 100.612971 
" style="fill:none;stroke:#ff7f0e;stroke-linecap:square;"/>
   </g>
   <g id="line2d_122">
    <path clip-path="url(#pb36698068c)" d="M 166.315116 80.037494 
L 166.315116 84.728807 
" style="fill:none;stroke:#ff7f0e;stroke-linecap:square;"/>
   </g>
   <g id="line2d_123">
    <path clip-path="url(#pb36698068c)" d="M 167.836934 79.262887 
L 167.836934 94.047993 
" style="fill:none;stroke:#ff7f0e;stroke-linecap:square;"/>
   </g>
   <g id="line2d_124">
    <path clip-path="url(#pb36698068c)" d="M 169.358752 78.498388 
L 169.358752 63.63534 
" style="fill:none;stroke:#ff7f0e;stroke-linecap:square;"/>
   </g>
   <g id="line2d_125">
    <path clip-path="url(#pb36698068c)" d="M 170.880571 77.743997 
L 170.880571 71.511546 
" style="fill:none;stroke:#ff7f0e;stroke-linecap:square;"/>
   </g>
   <g id="line2d_126">
    <path clip-path="url(#pb36698068c)" d="M 172.402389 76.999715 
L 172.402389 73.342208 
" style="fill:none;stroke:#ff7f0e;stroke-linecap:square;"/>
   </g>
   <g id="line2d_127">
    <path clip-path="url(#pb36698068c)" d="M 173.924207 76.265541 
L 173.924207 64.064454 
" style="fill:none;stroke:#ff7f0e;stroke-linecap:square;"/>
   </g>
   <g id="line2d_128">
    <path clip-path="url(#pb36698068c)" d="M 175.446025 75.541475 
L 175.446025 70.82901 
" style="fill:none;stroke:#ff7f0e;stroke-linecap:square;"/>
   </g>
   <g id="line2d_129">
    <path clip-path="url(#pb36698068c)" d="M 176.967843 74.827518 
L 176.967843 94.952884 
" style="fill:none;stroke:#ff7f0e;stroke-linecap:square;"/>
   </g>
   <g id="line2d_130">
    <path clip-path="url(#pb36698068c)" d="M 178.489661 74.123669 
L 178.489661 90.701832 
" style="fill:none;stroke:#ff7f0e;stroke-linecap:square;"/>
   </g>
   <g id="line2d_131">
    <path clip-path="url(#pb36698068c)" d="M 180.01148 73.429928 
L 180.01148 94.551546 
" style="fill:none;stroke:#ff7f0e;stroke-linecap:square;"/>
   </g>
   <g id="line2d_132">
    <path clip-path="url(#pb36698068c)" d="M 181.533298 72.746296 
L 181.533298 39.321559 
" style="fill:none;stroke:#ff7f0e;stroke-linecap:square;"/>
   </g>
   <g id="line2d_133">
    <path clip-path="url(#pb36698068c)" d="M 183.055116 72.072772 
L 183.055116 51.624145 
" style="fill:none;stroke:#ff7f0e;stroke-linecap:square;"/>
   </g>
   <g id="line2d_134">
    <path clip-path="url(#pb36698068c)" d="M 184.576934 71.409357 
L 184.576934 37.704977 
" style="fill:none;stroke:#ff7f0e;stroke-linecap:square;"/>
   </g>
   <g id="line2d_135">
    <path clip-path="url(#pb36698068c)" d="M 186.098752 70.75605 
L 186.098752 68.516227 
" style="fill:none;stroke:#ff7f0e;stroke-linecap:square;"/>
   </g>
   <g id="line2d_136">
    <path clip-path="url(#pb36698068c)" d="M 187.620571 70.112851 
L 187.620571 35.46502 
" style="fill:none;stroke:#ff7f0e;stroke-linecap:square;"/>
   </g>
   <g id="line2d_137">
    <path clip-path="url(#pb36698068c)" d="M 189.142389 69.479761 
L 189.142389 90.095331 
" style="fill:none;stroke:#ff7f0e;stroke-linecap:square;"/>
   </g>
   <g id="line2d_138">
    <path clip-path="url(#pb36698068c)" d="M 190.664207 68.856779 
L 190.664207 49.186172 
" style="fill:none;stroke:#ff7f0e;stroke-linecap:square;"/>
   </g>
   <g id="line2d_139">
    <path clip-path="url(#pb36698068c)" d="M 192.186025 68.243905 
L 192.186025 70.348267 
" style="fill:none;stroke:#ff7f0e;stroke-linecap:square;"/>
   </g>
   <g id="line2d_140">
    <path clip-path="url(#pb36698068c)" d="M 193.707843 67.64114 
L 193.707843 73.280892 
" style="fill:none;stroke:#ff7f0e;stroke-linecap:square;"/>
   </g>
   <g id="line2d_141">
    <path clip-path="url(#pb36698068c)" d="M 195.229661 67.048483 
L 195.229661 66.337488 
" style="fill:none;stroke:#ff7f0e;stroke-linecap:square;"/>
   </g>
   <g id="line2d_142">
    <path clip-path="url(#pb36698068c)" d="M 196.75148 66.465934 
L 196.75148 60.27415 
" style="fill:none;stroke:#ff7f0e;stroke-linecap:square;"/>
   </g>
   <g id="line2d_143">
    <path clip-path="url(#pb36698068c)" d="M 198.273298 65.893494 
L 198.273298 55.026469 
" style="fill:none;stroke:#ff7f0e;stroke-linecap:square;"/>
   </g>
   <g id="line2d_144">
    <path clip-path="url(#pb36698068c)" d="M 199.795116 65.331162 
L 199.795116 68.338295 
" style="fill:none;stroke:#ff7f0e;stroke-linecap:square;"/>
   </g>
   <g id="line2d_145">
    <path clip-path="url(#pb36698068c)" d="M 201.316934 64.778939 
L 201.316934 117.024856 
" style="fill:none;stroke:#ff7f0e;stroke-linecap:square;"/>
   </g>
   <g id="line2d_146">
    <path clip-path="url(#pb36698068c)" d="M 202.838752 64.236824 
L 202.838752 91.197268 
" style="fill:none;stroke:#ff7f0e;stroke-linecap:square;"/>
   </g>
   <g id="line2d_147">
    <path clip-path="url(#pb36698068c)" d="M 204.360571 63.704817 
L 204.360571 18.342626 
" style="fill:none;stroke:#ff7f0e;stroke-linecap:square;"/>
   </g>
   <g id="line2d_148">
    <path clip-path="url(#pb36698068c)" d="M 205.882389 63.182919 
L 205.882389 66.76874 
" style="fill:none;stroke:#ff7f0e;stroke-linecap:square;"/>
   </g>
   <g id="line2d_149">
    <path clip-path="url(#pb36698068c)" d="M 207.404207 62.671129 
L 207.404207 83.152937 
" style="fill:none;stroke:#ff7f0e;stroke-linecap:square;"/>
   </g>
   <g id="line2d_150">
    <path clip-path="url(#pb36698068c)" d="M 208.926025 62.169447 
L 208.926025 62.458136 
" style="fill:none;stroke:#ff7f0e;stroke-linecap:square;"/>
   </g>
   <g id="line2d_151">
    <path clip-path="url(#pb36698068c)" d="M 210.447843 61.677874 
L 210.447843 43.996207 
" style="fill:none;stroke:#ff7f0e;stroke-linecap:square;"/>
   </g>
   <g id="line2d_152">
    <path clip-path="url(#pb36698068c)" d="M 211.969661 61.196409 
L 211.969661 68.118949 
" style="fill:none;stroke:#ff7f0e;stroke-linecap:square;"/>
   </g>
   <g id="line2d_153">
    <path clip-path="url(#pb36698068c)" d="M 213.49148 60.725052 
L 213.49148 55.962501 
" style="fill:none;stroke:#ff7f0e;stroke-linecap:square;"/>
   </g>
   <g id="line2d_154">
    <path clip-path="url(#pb36698068c)" d="M 215.013298 60.263804 
L 215.013298 44.8528 
" style="fill:none;stroke:#ff7f0e;stroke-linecap:square;"/>
   </g>
   <g id="line2d_155">
    <path clip-path="url(#pb36698068c)" d="M 216.535116 59.812664 
L 216.535116 62.432904 
" style="fill:none;stroke:#ff7f0e;stroke-linecap:square;"/>
   </g>
   <g id="line2d_156">
    <path clip-path="url(#pb36698068c)" d="M 218.056934 59.371632 
L 218.056934 91.563718 
" style="fill:none;stroke:#ff7f0e;stroke-linecap:square;"/>
   </g>
   <g id="line2d_157">
    <path clip-path="url(#pb36698068c)" d="M 219.578752 58.940709 
L 219.578752 27.240635 
" style="fill:none;stroke:#ff7f0e;stroke-linecap:square;"/>
   </g>
   <g id="line2d_158">
    <path clip-path="url(#pb36698068c)" d="M 221.100571 58.519895 
L 221.100571 57.517146 
" style="fill:none;stroke:#ff7f0e;stroke-linecap:square;"/>
   </g>
   <g id="line2d_159">
    <path clip-path="url(#pb36698068c)" d="M 222.622389 58.109188 
L 222.622389 32.427039 
" style="fill:none;stroke:#ff7f0e;stroke-linecap:square;"/>
   </g>
   <g id="line2d_160">
    <path clip-path="url(#pb36698068c)" d="M 224.144207 57.70859 
L 224.144207 20.328405 
" style="fill:none;stroke:#ff7f0e;stroke-linecap:square;"/>
   </g>
   <g id="line2d_161">
    <path clip-path="url(#pb36698068c)" d="M 225.666025 57.3181 
L 225.666025 56.040583 
" style="fill:none;stroke:#ff7f0e;stroke-linecap:square;"/>
   </g>
   <g id="line2d_162">
    <path clip-path="url(#pb36698068c)" d="M 227.187843 56.937719 
L 227.187843 55.712397 
" style="fill:none;stroke:#ff7f0e;stroke-linecap:square;"/>
   </g>
   <g id="line2d_163">
    <path clip-path="url(#pb36698068c)" d="M 228.709661 56.567446 
L 228.709661 54.47421 
" style="fill:none;stroke:#ff7f0e;stroke-linecap:square;"/>
   </g>
   <g id="line2d_164">
    <path clip-path="url(#pb36698068c)" d="M 230.23148 56.207281 
L 230.23148 67.900994 
" style="fill:none;stroke:#ff7f0e;stroke-linecap:square;"/>
   </g>
   <g id="line2d_165">
    <path clip-path="url(#pb36698068c)" d="M 231.753298 55.857225 
L 231.753298 40.917765 
" style="fill:none;stroke:#ff7f0e;stroke-linecap:square;"/>
   </g>
   <g id="line2d_166">
    <path clip-path="url(#pb36698068c)" d="M 233.275116 55.517277 
L 233.275116 62.402053 
" style="fill:none;stroke:#ff7f0e;stroke-linecap:square;"/>
   </g>
   <g id="line2d_167">
    <path clip-path="url(#pb36698068c)" d="M 234.796934 55.187438 
L 234.796934 16.211778 
" style="fill:none;stroke:#ff7f0e;stroke-linecap:square;"/>
   </g>
   <g id="line2d_168">
    <path clip-path="url(#pb36698068c)" d="M 236.318752 54.867707 
L 236.318752 58.123587 
" style="fill:none;stroke:#ff7f0e;stroke-linecap:square;"/>
   </g>
   <g id="line2d_169">
    <path clip-path="url(#pb36698068c)" d="M 237.840571 54.558084 
L 237.840571 22.295234 
" style="fill:none;stroke:#ff7f0e;stroke-linecap:square;"/>
   </g>
   <g id="line2d_170">
    <path clip-path="url(#pb36698068c)" d="M 239.362389 54.258569 
L 239.362389 56.605139 
" style="fill:none;stroke:#ff7f0e;stroke-linecap:square;"/>
   </g>
   <g id="line2d_171">
    <path clip-path="url(#pb36698068c)" d="M 240.884207 53.969163 
L 240.884207 66.300984 
" style="fill:none;stroke:#ff7f0e;stroke-linecap:square;"/>
   </g>
   <g id="line2d_172">
    <path clip-path="url(#pb36698068c)" d="M 242.406025 53.689866 
L 242.406025 23.701667 
" style="fill:none;stroke:#ff7f0e;stroke-linecap:square;"/>
   </g>
   <g id="line2d_173">
    <path clip-path="url(#pb36698068c)" d="M 243.927843 53.420676 
L 243.927843 48.633054 
" style="fill:none;stroke:#ff7f0e;stroke-linecap:square;"/>
   </g>
   <g id="line2d_174">
    <path clip-path="url(#pb36698068c)" d="M 245.449661 53.161595 
L 245.449661 62.462249 
" style="fill:none;stroke:#ff7f0e;stroke-linecap:square;"/>
   </g>
   <g id="line2d_175">
    <path clip-path="url(#pb36698068c)" d="M 246.97148 52.912623 
L 246.97148 64.951165 
" style="fill:none;stroke:#ff7f0e;stroke-linecap:square;"/>
   </g>
   <g id="line2d_176">
    <path clip-path="url(#pb36698068c)" d="M 248.493298 52.673758 
L 248.493298 43.14536 
" style="fill:none;stroke:#ff7f0e;stroke-linecap:square;"/>
   </g>
   <g id="line2d_177">
    <path clip-path="url(#pb36698068c)" d="M 250.015116 52.445002 
L 250.015116 41.205169 
" style="fill:none;stroke:#ff7f0e;stroke-linecap:square;"/>
   </g>
   <g id="line2d_178">
    <path clip-path="url(#pb36698068c)" d="M 251.536934 52.226355 
L 251.536934 43.407788 
" style="fill:none;stroke:#ff7f0e;stroke-linecap:square;"/>
   </g>
   <g id="line2d_179">
    <path clip-path="url(#pb36698068c)" d="M 253.058752 52.017816 
L 253.058752 65.899357 
" style="fill:none;stroke:#ff7f0e;stroke-linecap:square;"/>
   </g>
   <g id="line2d_180">
    <path clip-path="url(#pb36698068c)" d="M 254.580571 51.819385 
L 254.580571 5.624949 
" style="fill:none;stroke:#ff7f0e;stroke-linecap:square;"/>
   </g>
   <g id="line2d_181">
    <path clip-path="url(#pb36698068c)" d="M 256.102389 51.631062 
L 256.102389 49.001459 
" style="fill:none;stroke:#ff7f0e;stroke-linecap:square;"/>
   </g>
   <g id="line2d_182">
    <path clip-path="url(#pb36698068c)" d="M 257.624207 51.452848 
L 257.624207 68.449456 
" style="fill:none;stroke:#ff7f0e;stroke-linecap:square;"/>
   </g>
   <g id="line2d_183">
    <path clip-path="url(#pb36698068c)" d="M 259.146025 51.284743 
L 259.146025 13.663034 
" style="fill:none;stroke:#ff7f0e;stroke-linecap:square;"/>
   </g>
   <g id="line2d_184">
    <path clip-path="url(#pb36698068c)" d="M 260.667843 51.126745 
L 260.667843 36.70293 
" style="fill:none;stroke:#ff7f0e;stroke-linecap:square;"/>
   </g>
   <g id="line2d_185">
    <path clip-path="url(#pb36698068c)" d="M 262.189661 50.978856 
L 262.189661 52.842477 
" style="fill:none;stroke:#ff7f0e;stroke-linecap:square;"/>
   </g>
   <g id="line2d_186">
    <path clip-path="url(#pb36698068c)" d="M 263.71148 50.841075 
L 263.71148 43.679815 
" style="fill:none;stroke:#ff7f0e;stroke-linecap:square;"/>
   </g>
   <g id="line2d_187">
    <path clip-path="url(#pb36698068c)" d="M 265.233298 50.713403 
L 265.233298 41.453313 
" style="fill:none;stroke:#ff7f0e;stroke-linecap:square;"/>
   </g>
   <g id="line2d_188">
    <path clip-path="url(#pb36698068c)" d="M 266.755116 50.595839 
L 266.755116 29.410401 
" style="fill:none;stroke:#ff7f0e;stroke-linecap:square;"/>
   </g>
   <g id="line2d_189">
    <path clip-path="url(#pb36698068c)" d="M 268.276934 50.488384 
L 268.276934 76.140293 
" style="fill:none;stroke:#ff7f0e;stroke-linecap:square;"/>
   </g>
   <g id="line2d_190">
    <path clip-path="url(#pb36698068c)" d="M 269.798752 50.391036 
L 269.798752 42.672105 
" style="fill:none;stroke:#ff7f0e;stroke-linecap:square;"/>
   </g>
   <g id="line2d_191">
    <path clip-path="url(#pb36698068c)" d="M 271.320571 50.303798 
L 271.320571 36.633973 
" style="fill:none;stroke:#ff7f0e;stroke-linecap:square;"/>
   </g>
   <g id="line2d_192">
    <path clip-path="url(#pb36698068c)" d="M 272.842389 50.226667 
L 272.842389 22.863008 
" style="fill:none;stroke:#ff7f0e;stroke-linecap:square;"/>
   </g>
   <g id="line2d_193">
    <path clip-path="url(#pb36698068c)" d="M 274.364207 50.159645 
L 274.364207 39.268004 
" style="fill:none;stroke:#ff7f0e;stroke-linecap:square;"/>
   </g>
   <g id="line2d_194">
    <path clip-path="url(#pb36698068c)" d="M 275.886025 50.102731 
L 275.886025 59.479318 
" style="fill:none;stroke:#ff7f0e;stroke-linecap:square;"/>
   </g>
   <g id="line2d_195">
    <path clip-path="url(#pb36698068c)" d="M 277.407843 50.055926 
L 277.407843 55.168368 
" style="fill:none;stroke:#ff7f0e;stroke-linecap:square;"/>
   </g>
   <g id="line2d_196">
    <path clip-path="url(#pb36698068c)" d="M 278.929661 50.019229 
L 278.929661 50.972064 
" style="fill:none;stroke:#ff7f0e;stroke-linecap:square;"/>
   </g>
   <g id="line2d_197">
    <path clip-path="url(#pb36698068c)" d="M 280.45148 49.99264 
L 280.45148 59.133781 
" style="fill:none;stroke:#ff7f0e;stroke-linecap:square;"/>
   </g>
   <g id="line2d_198">
    <path clip-path="url(#pb36698068c)" d="M 281.973298 49.97616 
L 281.973298 40.050417 
" style="fill:none;stroke:#ff7f0e;stroke-linecap:square;"/>
   </g>
   <g id="line2d_199">
    <path clip-path="url(#pb36698068c)" d="M 283.495116 49.969788 
L 283.495116 83.644336 
" style="fill:none;stroke:#ff7f0e;stroke-linecap:square;"/>
   </g>
   <g id="line2d_200">
    <path clip-path="url(#pb36698068c)" d="M 285.016934 49.973524 
L 285.016934 23.760657 
" style="fill:none;stroke:#ff7f0e;stroke-linecap:square;"/>
   </g>
   <g id="line2d_201">
    <path clip-path="url(#pb36698068c)" d="M 286.538752 49.987369 
L 286.538752 66.853926 
" style="fill:none;stroke:#ff7f0e;stroke-linecap:square;"/>
   </g>
   <g id="line2d_202">
    <path clip-path="url(#pb36698068c)" d="M 288.060571 50.011322 
L 288.060571 39.769086 
" style="fill:none;stroke:#ff7f0e;stroke-linecap:square;"/>
   </g>
   <g id="line2d_203">
    <path clip-path="url(#pb36698068c)" d="M 289.582389 50.045383 
L 289.582389 28.794067 
" style="fill:none;stroke:#ff7f0e;stroke-linecap:square;"/>
   </g>
   <g id="line2d_204">
    <path clip-path="url(#pb36698068c)" d="M 291.104207 50.089553 
L 291.104207 54.576447 
" style="fill:none;stroke:#ff7f0e;stroke-linecap:square;"/>
   </g>
   <g id="line2d_205">
    <path clip-path="url(#pb36698068c)" d="M 292.626025 50.143832 
L 292.626025 36.739909 
" style="fill:none;stroke:#ff7f0e;stroke-linecap:square;"/>
   </g>
   <g id="line2d_206">
    <path clip-path="url(#pb36698068c)" d="M 294.147843 50.208218 
L 294.147843 30.161788 
" style="fill:none;stroke:#ff7f0e;stroke-linecap:square;"/>
   </g>
   <g id="line2d_207">
    <path clip-path="url(#pb36698068c)" d="M 295.669661 50.282713 
L 295.669661 28.720222 
" style="fill:none;stroke:#ff7f0e;stroke-linecap:square;"/>
   </g>
   <g id="line2d_208">
    <path clip-path="url(#pb36698068c)" d="M 297.19148 50.367316 
L 297.19148 34.011615 
" style="fill:none;stroke:#ff7f0e;stroke-linecap:square;"/>
   </g>
   <g id="line2d_209">
    <path clip-path="url(#pb36698068c)" d="M 298.713298 50.462028 
L 298.713298 25.46363 
" style="fill:none;stroke:#ff7f0e;stroke-linecap:square;"/>
   </g>
   <g id="line2d_210">
    <path clip-path="url(#pb36698068c)" d="M 300.235116 50.566848 
L 300.235116 68.151158 
" style="fill:none;stroke:#ff7f0e;stroke-linecap:square;"/>
   </g>
   <g id="line2d_211">
    <path clip-path="url(#pb36698068c)" d="M 301.756934 50.681776 
L 301.756934 52.267397 
" style="fill:none;stroke:#ff7f0e;stroke-linecap:square;"/>
   </g>
   <g id="line2d_212">
    <path clip-path="url(#pb36698068c)" d="M 303.278752 50.806813 
L 303.278752 65.577306 
" style="fill:none;stroke:#ff7f0e;stroke-linecap:square;"/>
   </g>
   <g id="line2d_213">
    <path clip-path="url(#pb36698068c)" d="M 304.800571 50.941958 
L 304.800571 58.360832 
" style="fill:none;stroke:#ff7f0e;stroke-linecap:square;"/>
   </g>
   <g id="line2d_214">
    <path clip-path="url(#pb36698068c)" d="M 306.322389 51.087212 
L 306.322389 15.265697 
" style="fill:none;stroke:#ff7f0e;stroke-linecap:square;"/>
   </g>
   <g id="line2d_215">
    <path clip-path="url(#pb36698068c)" d="M 307.844207 51.242573 
L 307.844207 29.003337 
" style="fill:none;stroke:#ff7f0e;stroke-linecap:square;"/>
   </g>
   <g id="line2d_216">
    <path clip-path="url(#pb36698068c)" d="M 309.366025 51.408044 
L 309.366025 30.817002 
" style="fill:none;stroke:#ff7f0e;stroke-linecap:square;"/>
   </g>
   <g id="line2d_217">
    <path clip-path="url(#pb36698068c)" d="M 310.887843 51.583622 
L 310.887843 57.18065 
" style="fill:none;stroke:#ff7f0e;stroke-linecap:square;"/>
   </g>
   <g id="line2d_218">
    <path clip-path="url(#pb36698068c)" d="M 312.409661 51.769309 
L 312.409661 61.639102 
" style="fill:none;stroke:#ff7f0e;stroke-linecap:square;"/>
   </g>
   <g id="line2d_219">
    <path clip-path="url(#pb36698068c)" d="M 313.93148 51.965104 
L 313.93148 48.270362 
" style="fill:none;stroke:#ff7f0e;stroke-linecap:square;"/>
   </g>
   <g id="line2d_220">
    <path clip-path="url(#pb36698068c)" d="M 315.453298 52.171008 
L 315.453298 20.604125 
" style="fill:none;stroke:#ff7f0e;stroke-linecap:square;"/>
   </g>
   <g id="line2d_221">
    <path clip-path="url(#pb36698068c)" d="M 316.975116 52.38702 
L 316.975116 86.657797 
" style="fill:none;stroke:#ff7f0e;stroke-linecap:square;"/>
   </g>
   <g id="line2d_222">
    <path clip-path="url(#pb36698068c)" d="M 318.496934 52.61314 
L 318.496934 78.713034 
" style="fill:none;stroke:#ff7f0e;stroke-linecap:square;"/>
   </g>
   <g id="line2d_223">
    <path clip-path="url(#pb36698068c)" d="M 320.018752 52.849369 
L 320.018752 77.348884 
" style="fill:none;stroke:#ff7f0e;stroke-linecap:square;"/>
   </g>
   <g id="line2d_224">
    <path clip-path="url(#pb36698068c)" d="M 321.540571 53.095706 
L 321.540571 104.476687 
" style="fill:none;stroke:#ff7f0e;stroke-linecap:square;"/>
   </g>
   <g id="line2d_225">
    <path clip-path="url(#pb36698068c)" d="M 323.062389 53.352151 
L 323.062389 69.249773 
" style="fill:none;stroke:#ff7f0e;stroke-linecap:square;"/>
   </g>
   <g id="line2d_226">
    <path clip-path="url(#pb36698068c)" d="M 324.584207 53.618705 
L 324.584207 78.365951 
" style="fill:none;stroke:#ff7f0e;stroke-linecap:square;"/>
   </g>
   <g id="line2d_227">
    <path clip-path="url(#pb36698068c)" d="M 326.106025 53.895367 
L 326.106025 73.329853 
" style="fill:none;stroke:#ff7f0e;stroke-linecap:square;"/>
   </g>
   <g id="line2d_228">
    <path clip-path="url(#pb36698068c)" d="M 327.627843 54.182138 
L 327.627843 74.078099 
" style="fill:none;stroke:#ff7f0e;stroke-linecap:square;"/>
   </g>
   <g id="line2d_229">
    <path clip-path="url(#pb36698068c)" d="M 329.149661 54.479017 
L 329.149661 77.150346 
" style="fill:none;stroke:#ff7f0e;stroke-linecap:square;"/>
   </g>
   <g id="line2d_230">
    <path clip-path="url(#pb36698068c)" d="M 330.67148 54.786004 
L 330.67148 55.922909 
" style="fill:none;stroke:#ff7f0e;stroke-linecap:square;"/>
   </g>
   <g id="line2d_231">
    <path clip-path="url(#pb36698068c)" d="M 332.193298 55.1031 
L 332.193298 70.036485 
" style="fill:none;stroke:#ff7f0e;stroke-linecap:square;"/>
   </g>
   <g id="line2d_232">
    <path clip-path="url(#pb36698068c)" d="M 333.715116 55.430304 
L 333.715116 67.185963 
" style="fill:none;stroke:#ff7f0e;stroke-linecap:square;"/>
   </g>
   <g id="line2d_233">
    <path clip-path="url(#pb36698068c)" d="M 195.305752 121.958967 
L 227.111752 121.958967 
L 227.111752 13.408514 
L 195.305752 13.408514 
L 195.305752 121.958967 
" style="fill:none;stroke:#000000;stroke-linecap:square;stroke-width:0.8;"/>
   </g>
   <g id="patch_3">
    <path d="M 29.35148 188.235168 
L 29.35148 25.155168 
" style="fill:none;stroke:#000000;stroke-linecap:square;stroke-linejoin:miter;stroke-width:0.5;"/>
   </g>
   <g id="patch_4">
    <path d="M 333.715116 188.235168 
L 333.715116 25.155168 
" style="fill:none;stroke:#000000;stroke-linecap:square;stroke-linejoin:miter;stroke-width:0.5;"/>
   </g>
   <g id="patch_5">
    <path d="M 29.35148 188.235168 
L 333.715116 188.235168 
" style="fill:none;stroke:#000000;stroke-linecap:square;stroke-linejoin:miter;stroke-width:0.5;"/>
   </g>
   <g id="patch_6">
    <path d="M 29.35148 25.155168 
L 333.715116 25.155168 
" style="fill:none;stroke:#000000;stroke-linecap:square;stroke-linejoin:miter;stroke-width:0.5;"/>
   </g>
   <g id="text_15">
    <!-- Moindres carrés (différences) -->
    <g transform="translate(83.422598 19.155168)scale(0.16 -0.16)">
     <defs>
      <path d="M 1338 4249 
C 1299 4345 1293 4352 1158 4352 
L 339 4352 
L 339 4185 
C 781 4185 851 4185 851 3898 
L 851 624 
C 851 465 851 166 339 166 
L 339 0 
C 486 12 755 12 915 12 
C 1075 12 1344 12 1491 0 
L 1491 166 
C 979 166 979 465 979 624 
L 979 4159 
L 986 4159 
L 2490 102 
C 2515 38 2528 0 2579 0 
C 2630 0 2643 38 2669 102 
L 4186 4191 
L 4192 4191 
L 4192 453 
C 4192 166 4122 166 3680 166 
L 3680 0 
C 3853 12 4198 12 4384 12 
C 4570 12 4922 12 5094 0 
L 5094 166 
C 4653 166 4582 166 4582 453 
L 4582 3898 
C 4582 4185 4653 4185 5094 4185 
L 5094 4352 
L 4282 4352 
C 4147 4352 4141 4345 4102 4249 
L 2720 516 
L 1338 4249 
z
" id="CMR17-4d" transform="scale(0.015625)"/>
      <path d="M 2758 1356 
C 2758 2176 2163 2816 1466 2816 
C 768 2816 173 2176 173 1356 
C 173 550 768 -64 1466 -64 
C 2163 -64 2758 550 2758 1356 
z
M 1466 51 
C 1165 51 909 230 762 480 
C 602 768 582 1126 582 1408 
C 582 1676 595 2009 762 2297 
C 890 2508 1139 2713 1466 2713 
C 1754 2713 1997 2553 2150 2329 
C 2349 2028 2349 1606 2349 1408 
C 2349 1158 2336 774 2163 467 
C 1984 172 1709 51 1466 51 
z
" id="CMR17-6f" transform="scale(0.015625)"/>
      <path d="M 992 3961 
C 992 4102 877 4224 730 4224 
C 589 4224 467 4108 467 3961 
C 467 3820 582 3699 730 3699 
C 870 3699 992 3814 992 3961 
z
M 243 2745 
L 243 2579 
C 602 2579 653 2540 653 2231 
L 653 443 
C 653 198 627 166 218 166 
L 218 0 
C 371 12 646 12 806 12 
C 960 12 1222 12 1370 0 
L 1370 166 
C 992 166 979 205 979 436 
L 979 2816 
L 243 2745 
z
" id="CMR17-69" transform="scale(0.015625)"/>
      <path d="M 2656 1954 
C 2656 2282 2592 2816 1837 2816 
C 1331 2816 1069 2424 973 2166 
L 966 2166 
L 966 2816 
L 211 2745 
L 211 2578 
C 589 2578 646 2540 646 2231 
L 646 443 
C 646 198 621 166 211 166 
L 211 0 
C 365 12 646 12 813 12 
C 979 12 1267 12 1421 0 
L 1421 166 
C 1011 166 986 192 986 443 
L 986 1678 
C 986 2269 1344 2713 1792 2713 
C 2266 2713 2317 2289 2317 1980 
L 2317 443 
C 2317 198 2291 166 1882 166 
L 1882 0 
C 2035 12 2317 12 2483 12 
C 2650 12 2938 12 3091 0 
L 3091 166 
C 2682 166 2656 192 2656 443 
L 2656 1954 
z
" id="CMR17-6e" transform="scale(0.015625)"/>
      <path d="M 1869 4345 
L 1869 4179 
C 2246 4179 2304 4141 2304 3843 
L 2304 2371 
C 2278 2403 2016 2816 1498 2816 
C 845 2816 211 2228 211 1376 
C 211 529 806 -64 1434 -64 
C 1978 -64 2259 361 2291 406 
L 2291 -64 
L 3066 -13 
L 3066 154 
C 2688 154 2630 193 2630 503 
L 2630 4416 
L 1869 4345 
z
M 2291 762 
C 2291 568 2176 393 2029 264 
C 1811 70 1594 38 1472 38 
C 1286 38 621 135 621 1369 
C 621 2636 1363 2713 1530 2713 
C 1824 2713 2061 2545 2208 2313 
C 2291 2177 2291 2157 2291 2041 
L 2291 762 
z
" id="CMR17-64" transform="scale(0.015625)"/>
      <path d="M 960 1517 
C 960 2134 1222 2713 1702 2713 
C 1747 2713 1792 2707 1837 2687 
C 1837 2687 1696 2642 1696 2475 
C 1696 2321 1818 2257 1914 2257 
C 1990 2257 2131 2302 2131 2482 
C 2131 2687 1926 2816 1709 2816 
C 1222 2816 1011 2340 947 2115 
L 941 2115 
L 941 2816 
L 198 2745 
L 198 2578 
C 576 2578 634 2540 634 2231 
L 634 443 
C 634 198 608 166 198 166 
L 198 0 
C 352 12 646 12 813 12 
C 998 12 1325 12 1498 0 
L 1498 166 
C 1037 166 960 166 960 455 
L 960 1517 
z
" id="CMR17-72" transform="scale(0.015625)"/>
      <path d="M 2438 1503 
C 2464 1529 2464 1542 2464 1606 
C 2464 2251 2118 2816 1389 2816 
C 710 2816 173 2175 173 1394 
C 173 554 781 -64 1459 -64 
C 2176 -64 2458 619 2458 755 
C 2458 800 2419 800 2406 800 
C 2362 800 2355 787 2330 709 
C 2189 270 1837 51 1504 51 
C 1229 51 954 206 781 490 
C 582 819 582 1200 582 1503 
L 2438 1503 
z
M 589 1600 
C 634 2511 1126 2713 1382 2713 
C 1818 2713 2112 2308 2118 1600 
L 589 1600 
z
" id="CMR17-65" transform="scale(0.015625)"/>
      <path d="M 1978 2688 
C 1978 2803 1971 2809 1933 2809 
C 1907 2809 1901 2803 1824 2707 
C 1805 2681 1747 2617 1728 2592 
C 1523 2809 1235 2816 1126 2816 
C 416 2816 160 2444 160 2073 
C 160 1497 813 1363 998 1324 
C 1402 1241 1542 1216 1677 1100 
C 1760 1024 1901 883 1901 652 
C 1901 384 1747 38 1158 38 
C 602 38 403 460 288 1024 
C 269 1113 269 1120 218 1120 
C 166 1120 160 1113 160 985 
L 160 64 
C 160 -52 166 -58 205 -58 
C 237 -58 243 -52 275 0 
C 314 57 410 211 448 275 
C 576 102 800 -64 1158 -64 
C 1792 -64 2131 281 2131 780 
C 2131 1107 1958 1280 1875 1356 
C 1683 1555 1459 1600 1190 1651 
C 838 1728 390 1817 390 2208 
C 390 2374 480 2726 1126 2726 
C 1811 2726 1850 2086 1862 1881 
C 1869 1849 1901 1843 1920 1843 
C 1978 1843 1978 1862 1978 1971 
L 1978 2688 
z
" id="CMR17-73" transform="scale(0.015625)"/>
      <path d="M 2234 2240 
C 2112 2240 1933 2240 1933 2015 
C 1933 1836 2080 1785 2163 1785 
C 2208 1785 2394 1804 2394 2028 
C 2394 2476 1958 2816 1466 2816 
C 787 2816 211 2201 211 1379 
C 211 521 813 -64 1466 -64 
C 2259 -64 2458 676 2458 747 
C 2458 773 2451 792 2406 792 
C 2362 792 2355 786 2330 702 
C 2163 180 1798 51 1523 51 
C 1114 51 621 431 621 1385 
C 621 2358 1094 2700 1472 2700 
C 1722 2700 2093 2582 2234 2240 
z
" id="CMR17-63" transform="scale(0.015625)"/>
      <path d="M 2304 1656 
C 2304 2048 2304 2275 2035 2534 
C 1798 2751 1523 2816 1306 2816 
C 800 2816 435 2408 435 1977 
C 435 1740 627 1728 666 1728 
C 749 1728 896 1779 896 1958 
C 896 2118 774 2188 666 2188 
C 640 2188 608 2182 589 2176 
C 723 2594 1069 2713 1293 2713 
C 1613 2713 1965 2421 1965 1875 
L 1965 1632 
C 1587 1619 1133 1568 774 1373 
C 371 1147 256 822 256 576 
C 256 77 832 -64 1171 -64 
C 1523 -64 1850 135 1990 505 
C 2003 219 2182 -39 2464 -39 
C 2598 -39 2938 51 2938 563 
L 2938 926 
L 2822 926 
L 2822 557 
C 2822 161 2650 109 2566 109 
C 2304 109 2304 446 2304 732 
L 2304 1656 
z
M 1965 887 
C 1965 323 1568 38 1216 38 
C 896 38 646 278 646 576 
C 646 771 730 1114 1101 1322 
C 1408 1497 1760 1523 1965 1536 
L 1965 887 
z
" id="CMR17-61" transform="scale(0.015625)"/>
      <path d="M 2221 4157 
C 2298 4226 2317 4239 2317 4308 
C 2317 4403 2234 4480 2144 4480 
C 2067 4480 2042 4447 1978 4371 
L 1254 3468 
C 1210 3411 1210 3404 1210 3398 
C 1210 3391 1267 3334 1280 3321 
L 2221 4157 
z
" id="CMR17-13" transform="scale(0.015625)"/>
      <path d="M 1958 -1562 
C 1958 -1556 1958 -1543 1939 -1524 
C 1645 -1223 858 -403 858 1596 
C 858 3595 1632 4408 1946 4729 
C 1946 4735 1958 4748 1958 4767 
C 1958 4787 1939 4800 1914 4800 
C 1843 4800 1299 4325 986 3620 
C 666 2909 576 2218 576 1603 
C 576 1141 621 360 1005 -467 
C 1312 -1133 1837 -1600 1914 -1600 
C 1946 -1600 1958 -1588 1958 -1562 
z
" id="CMR17-28" transform="scale(0.015625)"/>
      <path d="M 2554 2585 
L 3283 2585 
L 3283 2752 
L 2541 2752 
L 2541 3520 
C 2541 4047 2810 4377 3085 4377 
C 3168 4377 3264 4352 3328 4307 
C 3277 4294 3142 4250 3142 4091 
C 3142 3926 3270 3875 3360 3875 
C 3450 3875 3578 3926 3578 4091 
C 3578 4333 3347 4480 3091 4480 
C 2842 4480 2637 4358 2477 4206 
C 2330 4415 2086 4480 1837 4480 
C 1338 4480 634 4193 634 3494 
L 634 2752 
L 122 2752 
L 122 2585 
L 634 2585 
L 634 441 
C 634 198 608 166 198 166 
L 198 0 
C 352 12 634 12 794 12 
C 960 12 1242 12 1395 0 
L 1395 166 
C 986 166 960 192 960 441 
L 960 2585 
L 2227 2585 
L 2227 441 
C 2227 198 2202 166 1792 166 
L 1792 0 
C 1946 12 2240 12 2406 12 
C 2592 12 2918 12 3091 0 
L 3091 166 
C 2630 166 2554 166 2554 454 
L 2554 2585 
z
M 947 2752 
L 947 3494 
C 947 4072 1395 4377 1824 4377 
C 1920 4377 2170 4358 2323 4218 
C 2208 4212 2099 4161 2099 4002 
C 2099 3837 2246 3793 2259 3793 
C 2227 3679 2227 3552 2227 3507 
L 2227 2752 
L 947 2752 
z
" id="CMR17-b" transform="scale(0.015625)"/>
      <path d="M 1683 1596 
C 1683 2057 1638 2839 1254 3665 
C 947 4332 422 4800 346 4800 
C 326 4800 301 4793 301 4761 
C 301 4748 307 4742 314 4729 
C 621 4408 1402 3595 1402 1603 
C 1402 -396 627 -1210 314 -1530 
C 307 -1543 301 -1549 301 -1562 
C 301 -1594 326 -1600 346 -1600 
C 416 -1600 960 -1127 1274 -422 
C 1594 289 1683 981 1683 1596 
z
" id="CMR17-29" transform="scale(0.015625)"/>
     </defs>
     <use transform="scale(0.996264)" xlink:href="#CMR17-4d"/>
     <use transform="translate(84.686941 0)scale(0.996264)" xlink:href="#CMR17-6f"/>
     <use transform="translate(130.377418 0)scale(0.996264)" xlink:href="#CMR17-69"/>
     <use transform="translate(155.248476 0)scale(0.996264)" xlink:href="#CMR17-6e"/>
     <use transform="translate(206.143846 0)scale(0.996264)" xlink:href="#CMR17-64"/>
     <use transform="translate(257.039216 0)scale(0.996264)" xlink:href="#CMR17-72"/>
     <use transform="translate(292.319984 0)scale(0.996264)" xlink:href="#CMR17-65"/>
     <use transform="translate(332.805644 0)scale(0.996264)" xlink:href="#CMR17-73"/>
     <use transform="translate(398.682948 0)scale(0.996264)" xlink:href="#CMR17-63"/>
     <use transform="translate(439.168608 0)scale(0.996264)" xlink:href="#CMR17-61"/>
     <use transform="translate(484.859086 0)scale(0.996264)" xlink:href="#CMR17-72"/>
     <use transform="translate(520.139853 0)scale(0.996264)" xlink:href="#CMR17-72"/>
     <use transform="translate(552.818213 0)scale(0.996264)" xlink:href="#CMR17-13"/>
     <use transform="translate(555.420621 0)scale(0.996264)" xlink:href="#CMR17-65"/>
     <use transform="translate(595.906282 0)scale(0.996264)" xlink:href="#CMR17-73"/>
     <use transform="translate(661.783586 0)scale(0.996264)" xlink:href="#CMR17-28"/>
     <use transform="translate(697.064353 0)scale(0.996264)" xlink:href="#CMR17-64"/>
     <use transform="translate(747.959723 0)scale(0.996264)" xlink:href="#CMR17-69"/>
     <use transform="translate(772.830782 0)scale(0.996264)" xlink:href="#CMR17-b"/>
     <use transform="translate(822.573051 0)scale(0.996264)" xlink:href="#CMR17-13"/>
     <use transform="translate(825.175459 0)scale(0.996264)" xlink:href="#CMR17-65"/>
     <use transform="translate(865.661119 0)scale(0.996264)" xlink:href="#CMR17-72"/>
     <use transform="translate(900.941887 0)scale(0.996264)" xlink:href="#CMR17-65"/>
     <use transform="translate(941.427548 0)scale(0.996264)" xlink:href="#CMR17-6e"/>
     <use transform="translate(992.322917 0)scale(0.996264)" xlink:href="#CMR17-63"/>
     <use transform="translate(1032.808578 0)scale(0.996264)" xlink:href="#CMR17-65"/>
     <use transform="translate(1073.294238 0)scale(0.996264)" xlink:href="#CMR17-73"/>
     <use transform="translate(1109.095576 0)scale(0.996264)" xlink:href="#CMR17-29"/>
    </g>
   </g>
  </g>
  <g id="axes_2">
   <g id="patch_7">
    <path d="M 394.587843 188.235168 
L 698.95148 188.235168 
L 698.95148 25.155168 
L 394.587843 25.155168 
z
" style="fill:#ffffff;"/>
   </g>
   <g id="matplotlib.axis_3">
    <g id="xtick_10">
     <g id="line2d_234">
      <path clip-path="url(#pbe364e2ae5)" d="M 408.422554 188.235168 
L 408.422554 25.155168 
" style="fill:none;stroke:#b0b0b0;stroke-linecap:square;stroke-width:0.5;"/>
     </g>
     <g id="line2d_235">
      <g>
       <use style="stroke:#000000;stroke-width:0.8;" x="408.422554" xlink:href="#mb4400bf064" y="188.235168"/>
      </g>
     </g>
     <g id="text_16">
      <!-- $\mathdefault{0.10}$ -->
      <g transform="translate(398.017238 203.537348)scale(0.12 -0.12)">
       <use transform="scale(0.996264)" xlink:href="#CMR17-30"/>
       <use transform="translate(45.690477 0)scale(0.996264)" xlink:href="#CMMI12-3a"/>
       <use transform="translate(72.787654 0)scale(0.996264)" xlink:href="#CMR17-31"/>
       <use transform="translate(118.478131 0)scale(0.996264)" xlink:href="#CMR17-30"/>
      </g>
     </g>
    </g>
    <g id="xtick_11">
     <g id="line2d_236">
      <path clip-path="url(#pbe364e2ae5)" d="M 481.236821 188.235168 
L 481.236821 25.155168 
" style="fill:none;stroke:#b0b0b0;stroke-linecap:square;stroke-width:0.5;"/>
     </g>
     <g id="line2d_237">
      <g>
       <use style="stroke:#000000;stroke-width:0.8;" x="481.236821" xlink:href="#mb4400bf064" y="188.235168"/>
      </g>
     </g>
     <g id="text_17">
      <!-- $\mathdefault{0.15}$ -->
      <g transform="translate(470.831505 203.537348)scale(0.12 -0.12)">
       <use transform="scale(0.996264)" xlink:href="#CMR17-30"/>
       <use transform="translate(45.690477 0)scale(0.996264)" xlink:href="#CMMI12-3a"/>
       <use transform="translate(72.787654 0)scale(0.996264)" xlink:href="#CMR17-31"/>
       <use transform="translate(118.478131 0)scale(0.996264)" xlink:href="#CMR17-35"/>
      </g>
     </g>
    </g>
    <g id="xtick_12">
     <g id="line2d_238">
      <path clip-path="url(#pbe364e2ae5)" d="M 554.051088 188.235168 
L 554.051088 25.155168 
" style="fill:none;stroke:#b0b0b0;stroke-linecap:square;stroke-width:0.5;"/>
     </g>
     <g id="line2d_239">
      <g>
       <use style="stroke:#000000;stroke-width:0.8;" x="554.051088" xlink:href="#mb4400bf064" y="188.235168"/>
      </g>
     </g>
     <g id="text_18">
      <!-- $\mathdefault{0.20}$ -->
      <g transform="translate(543.645772 203.537348)scale(0.12 -0.12)">
       <use transform="scale(0.996264)" xlink:href="#CMR17-30"/>
       <use transform="translate(45.690477 0)scale(0.996264)" xlink:href="#CMMI12-3a"/>
       <use transform="translate(72.787654 0)scale(0.996264)" xlink:href="#CMR17-32"/>
       <use transform="translate(118.478131 0)scale(0.996264)" xlink:href="#CMR17-30"/>
      </g>
     </g>
    </g>
    <g id="xtick_13">
     <g id="line2d_240">
      <path clip-path="url(#pbe364e2ae5)" d="M 626.865355 188.235168 
L 626.865355 25.155168 
" style="fill:none;stroke:#b0b0b0;stroke-linecap:square;stroke-width:0.5;"/>
     </g>
     <g id="line2d_241">
      <g>
       <use style="stroke:#000000;stroke-width:0.8;" x="626.865355" xlink:href="#mb4400bf064" y="188.235168"/>
      </g>
     </g>
     <g id="text_19">
      <!-- $\mathdefault{0.25}$ -->
      <g transform="translate(616.460039 203.537348)scale(0.12 -0.12)">
       <use transform="scale(0.996264)" xlink:href="#CMR17-30"/>
       <use transform="translate(45.690477 0)scale(0.996264)" xlink:href="#CMMI12-3a"/>
       <use transform="translate(72.787654 0)scale(0.996264)" xlink:href="#CMR17-32"/>
       <use transform="translate(118.478131 0)scale(0.996264)" xlink:href="#CMR17-35"/>
      </g>
     </g>
    </g>
   </g>
   <g id="matplotlib.axis_4">
    <g id="ytick_6">
     <g id="line2d_242">
      <path clip-path="url(#pbe364e2ae5)" d="M 394.587843 165.303708 
L 698.95148 165.303708 
" style="fill:none;stroke:#b0b0b0;stroke-linecap:square;stroke-width:0.5;"/>
     </g>
     <g id="line2d_243">
      <g>
       <use style="stroke:#000000;stroke-width:0.8;" x="394.587843" xlink:href="#mf83f5a97b4" y="165.303708"/>
      </g>
     </g>
     <g id="text_20">
      <!-- $\mathdefault{0}$ -->
      <g transform="translate(381.734853 169.454798)scale(0.12 -0.12)">
       <use transform="scale(0.996264)" xlink:href="#CMR17-30"/>
      </g>
     </g>
    </g>
    <g id="ytick_7">
     <g id="line2d_244">
      <path clip-path="url(#pbe364e2ae5)" d="M 394.587843 138.081255 
L 698.95148 138.081255 
" style="fill:none;stroke:#b0b0b0;stroke-linecap:square;stroke-width:0.5;"/>
     </g>
     <g id="line2d_245">
      <g>
       <use style="stroke:#000000;stroke-width:0.8;" x="394.587843" xlink:href="#mf83f5a97b4" y="138.081255"/>
      </g>
     </g>
     <g id="text_21">
      <!-- $\mathdefault{1}$ -->
      <g transform="translate(381.734853 142.232345)scale(0.12 -0.12)">
       <use transform="scale(0.996264)" xlink:href="#CMR17-31"/>
      </g>
     </g>
    </g>
    <g id="ytick_8">
     <g id="line2d_246">
      <path clip-path="url(#pbe364e2ae5)" d="M 394.587843 110.858802 
L 698.95148 110.858802 
" style="fill:none;stroke:#b0b0b0;stroke-linecap:square;stroke-width:0.5;"/>
     </g>
     <g id="line2d_247">
      <g>
       <use style="stroke:#000000;stroke-width:0.8;" x="394.587843" xlink:href="#mf83f5a97b4" y="110.858802"/>
      </g>
     </g>
     <g id="text_22">
      <!-- $\mathdefault{2}$ -->
      <g transform="translate(381.734853 115.009892)scale(0.12 -0.12)">
       <use transform="scale(0.996264)" xlink:href="#CMR17-32"/>
      </g>
     </g>
    </g>
    <g id="ytick_9">
     <g id="line2d_248">
      <path clip-path="url(#pbe364e2ae5)" d="M 394.587843 83.636349 
L 698.95148 83.636349 
" style="fill:none;stroke:#b0b0b0;stroke-linecap:square;stroke-width:0.5;"/>
     </g>
     <g id="line2d_249">
      <g>
       <use style="stroke:#000000;stroke-width:0.8;" x="394.587843" xlink:href="#mf83f5a97b4" y="83.636349"/>
      </g>
     </g>
     <g id="text_23">
      <!-- $\mathdefault{3}$ -->
      <g transform="translate(381.734853 87.787439)scale(0.12 -0.12)">
       <defs>
        <path d="M 1414 2176 
C 1984 2176 2234 1673 2234 1094 
C 2234 322 1824 25 1453 25 
C 1114 25 563 193 390 691 
C 422 678 454 678 486 678 
C 640 678 755 780 755 947 
C 755 1132 614 1216 486 1216 
C 378 1216 211 1164 211 927 
C 211 335 787 -128 1466 -128 
C 2176 -128 2720 432 2720 1087 
C 2720 1718 2208 2176 1600 2246 
C 2086 2347 2554 2776 2554 3353 
C 2554 3856 2048 4224 1472 4224 
C 890 4224 378 3862 378 3347 
C 378 3123 544 3084 627 3084 
C 762 3084 877 3167 877 3334 
C 877 3500 762 3584 627 3584 
C 602 3584 570 3584 544 3571 
C 730 3999 1235 4076 1459 4076 
C 1683 4076 2106 3966 2106 3347 
C 2106 3167 2080 2851 1862 2574 
C 1670 2329 1453 2316 1242 2297 
C 1210 2297 1062 2284 1037 2284 
C 992 2278 966 2272 966 2227 
C 966 2182 973 2176 1101 2176 
L 1414 2176 
z
" id="CMR17-33" transform="scale(0.015625)"/>
       </defs>
       <use transform="scale(0.996264)" xlink:href="#CMR17-33"/>
      </g>
     </g>
    </g>
    <g id="ytick_10">
     <g id="line2d_250">
      <path clip-path="url(#pbe364e2ae5)" d="M 394.587843 56.413896 
L 698.95148 56.413896 
" style="fill:none;stroke:#b0b0b0;stroke-linecap:square;stroke-width:0.5;"/>
     </g>
     <g id="line2d_251">
      <g>
       <use style="stroke:#000000;stroke-width:0.8;" x="394.587843" xlink:href="#mf83f5a97b4" y="56.413896"/>
      </g>
     </g>
     <g id="text_24">
      <!-- $\mathdefault{4}$ -->
      <g transform="translate(381.734853 60.564986)scale(0.12 -0.12)">
       <use transform="scale(0.996264)" xlink:href="#CMR17-34"/>
      </g>
     </g>
    </g>
    <g id="ytick_11">
     <g id="line2d_252">
      <path clip-path="url(#pbe364e2ae5)" d="M 394.587843 29.191443 
L 698.95148 29.191443 
" style="fill:none;stroke:#b0b0b0;stroke-linecap:square;stroke-width:0.5;"/>
     </g>
     <g id="line2d_253">
      <g>
       <use style="stroke:#000000;stroke-width:0.8;" x="394.587843" xlink:href="#mf83f5a97b4" y="29.191443"/>
      </g>
     </g>
     <g id="text_25">
      <!-- $\mathdefault{5}$ -->
      <g transform="translate(381.734853 33.342533)scale(0.12 -0.12)">
       <use transform="scale(0.996264)" xlink:href="#CMR17-35"/>
      </g>
     </g>
    </g>
   </g>
   <g id="line2d_254">
    <path clip-path="url(#pbe364e2ae5)" d="M 408.422554 98.118694 
L 422.985407 96.947094 
L 437.548261 95.795421 
L 452.111114 94.664002 
L 466.673968 93.553162 
L 481.236821 92.46323 
L 495.799675 91.394531 
L 510.362528 90.347392 
L 524.925381 89.32214 
L 539.488235 88.319101 
L 554.051088 87.338603 
L 568.613942 86.380972 
L 583.176795 85.446534 
L 597.739648 84.535616 
L 612.302502 83.648545 
L 626.865355 82.785648 
L 641.428209 81.947251 
L 655.991062 81.13368 
L 670.553916 80.345264 
L 685.116769 79.582327 
" style="fill:none;stroke:#808080;stroke-linecap:square;"/>
   </g>
   <g id="line2d_255">
    <path clip-path="url(#pbe364e2ae5)" d="M 408.422554 95.563423 
L 422.985407 87.679606 
L 437.548261 107.678534 
L 452.111114 180.822441 
L 466.673968 142.020549 
L 481.236821 32.567895 
L 495.799675 105.320523 
L 510.362528 129.935205 
L 524.925381 98.844519 
L 539.488235 71.108371 
L 554.051088 107.349001 
L 568.613942 89.085847 
L 583.176795 72.395267 
L 597.739648 98.806612 
L 612.302502 142.571082 
L 626.865355 45.935757 
L 641.428209 91.421457 
L 655.991062 53.727513 
L 670.553916 35.551217 
L 685.116769 89.203153 
" style="fill:none;stroke:#1f77b4;stroke-linecap:square;"/>
   </g>
   <g id="line2d_256">
    <path clip-path="url(#pbe364e2ae5)" d="M 408.422554 104.865605 
L 422.985407 104.005604 
L 437.548261 103.160789 
L 452.111114 102.33116 
L 466.673968 101.516717 
L 481.236821 100.71746 
L 495.799675 99.93339 
L 510.362528 99.164506 
L 524.925381 98.410808 
L 539.488235 97.672296 
L 554.051088 96.948971 
L 568.613942 96.240832 
L 583.176795 95.547879 
L 597.739648 94.870112 
L 612.302502 94.207531 
L 626.865355 93.560137 
L 641.428209 92.927929 
L 655.991062 92.310907 
L 670.553916 91.709072 
L 685.116769 91.122422 
" style="fill:none;stroke:#2ca02c;stroke-linecap:square;"/>
   </g>
   <g id="line2d_257">
    <path clip-path="url(#pbe364e2ae5)" d="M 408.422554 104.865605 
L 408.422554 95.563423 
" style="fill:none;stroke:#ff7f0e;stroke-linecap:square;stroke-width:1.5;"/>
   </g>
   <g id="line2d_258">
    <path clip-path="url(#pbe364e2ae5)" d="M 422.985407 104.005604 
L 422.985407 87.679606 
" style="fill:none;stroke:#ff7f0e;stroke-linecap:square;stroke-width:1.5;"/>
   </g>
   <g id="line2d_259">
    <path clip-path="url(#pbe364e2ae5)" d="M 437.548261 103.160789 
L 437.548261 107.678534 
" style="fill:none;stroke:#ff7f0e;stroke-linecap:square;stroke-width:1.5;"/>
   </g>
   <g id="line2d_260">
    <path clip-path="url(#pbe364e2ae5)" d="M 452.111114 102.33116 
L 452.111114 180.822441 
" style="fill:none;stroke:#ff7f0e;stroke-linecap:square;stroke-width:1.5;"/>
   </g>
   <g id="line2d_261">
    <path clip-path="url(#pbe364e2ae5)" d="M 466.673968 101.516717 
L 466.673968 142.020549 
" style="fill:none;stroke:#ff7f0e;stroke-linecap:square;stroke-width:1.5;"/>
   </g>
   <g id="line2d_262">
    <path clip-path="url(#pbe364e2ae5)" d="M 481.236821 100.71746 
L 481.236821 32.567895 
" style="fill:none;stroke:#ff7f0e;stroke-linecap:square;stroke-width:1.5;"/>
   </g>
   <g id="line2d_263">
    <path clip-path="url(#pbe364e2ae5)" d="M 495.799675 99.93339 
L 495.799675 105.320523 
" style="fill:none;stroke:#ff7f0e;stroke-linecap:square;stroke-width:1.5;"/>
   </g>
   <g id="line2d_264">
    <path clip-path="url(#pbe364e2ae5)" d="M 510.362528 99.164506 
L 510.362528 129.935205 
" style="fill:none;stroke:#ff7f0e;stroke-linecap:square;stroke-width:1.5;"/>
   </g>
   <g id="line2d_265">
    <path clip-path="url(#pbe364e2ae5)" d="M 524.925381 98.410808 
L 524.925381 98.844519 
" style="fill:none;stroke:#ff7f0e;stroke-linecap:square;stroke-width:1.5;"/>
   </g>
   <g id="line2d_266">
    <path clip-path="url(#pbe364e2ae5)" d="M 539.488235 97.672296 
L 539.488235 71.108371 
" style="fill:none;stroke:#ff7f0e;stroke-linecap:square;stroke-width:1.5;"/>
   </g>
   <g id="line2d_267">
    <path clip-path="url(#pbe364e2ae5)" d="M 554.051088 96.948971 
L 554.051088 107.349001 
" style="fill:none;stroke:#ff7f0e;stroke-linecap:square;stroke-width:1.5;"/>
   </g>
   <g id="line2d_268">
    <path clip-path="url(#pbe364e2ae5)" d="M 568.613942 96.240832 
L 568.613942 89.085847 
" style="fill:none;stroke:#ff7f0e;stroke-linecap:square;stroke-width:1.5;"/>
   </g>
   <g id="line2d_269">
    <path clip-path="url(#pbe364e2ae5)" d="M 583.176795 95.547879 
L 583.176795 72.395267 
" style="fill:none;stroke:#ff7f0e;stroke-linecap:square;stroke-width:1.5;"/>
   </g>
   <g id="line2d_270">
    <path clip-path="url(#pbe364e2ae5)" d="M 597.739648 94.870112 
L 597.739648 98.806612 
" style="fill:none;stroke:#ff7f0e;stroke-linecap:square;stroke-width:1.5;"/>
   </g>
   <g id="line2d_271">
    <path clip-path="url(#pbe364e2ae5)" d="M 612.302502 94.207531 
L 612.302502 142.571082 
" style="fill:none;stroke:#ff7f0e;stroke-linecap:square;stroke-width:1.5;"/>
   </g>
   <g id="line2d_272">
    <path clip-path="url(#pbe364e2ae5)" d="M 626.865355 93.560137 
L 626.865355 45.935757 
" style="fill:none;stroke:#ff7f0e;stroke-linecap:square;stroke-width:1.5;"/>
   </g>
   <g id="line2d_273">
    <path clip-path="url(#pbe364e2ae5)" d="M 641.428209 92.927929 
L 641.428209 91.421457 
" style="fill:none;stroke:#ff7f0e;stroke-linecap:square;stroke-width:1.5;"/>
   </g>
   <g id="line2d_274">
    <path clip-path="url(#pbe364e2ae5)" d="M 655.991062 92.310907 
L 655.991062 53.727513 
" style="fill:none;stroke:#ff7f0e;stroke-linecap:square;stroke-width:1.5;"/>
   </g>
   <g id="line2d_275">
    <path clip-path="url(#pbe364e2ae5)" d="M 670.553916 91.709072 
L 670.553916 35.551217 
" style="fill:none;stroke:#ff7f0e;stroke-linecap:square;stroke-width:1.5;"/>
   </g>
   <g id="line2d_276">
    <path clip-path="url(#pbe364e2ae5)" d="M 685.116769 91.122422 
L 685.116769 89.203153 
" style="fill:none;stroke:#ff7f0e;stroke-linecap:square;stroke-width:1.5;"/>
   </g>
   <g id="patch_8">
    <path d="M 394.587843 188.235168 
L 394.587843 25.155168 
" style="fill:none;stroke:#000000;stroke-linecap:square;stroke-linejoin:miter;stroke-width:0.5;"/>
   </g>
   <g id="patch_9">
    <path d="M 698.95148 188.235168 
L 698.95148 25.155168 
" style="fill:none;stroke:#000000;stroke-linecap:square;stroke-linejoin:miter;stroke-width:0.5;"/>
   </g>
   <g id="patch_10">
    <path d="M 394.587843 188.235168 
L 698.95148 188.235168 
" style="fill:none;stroke:#000000;stroke-linecap:square;stroke-linejoin:miter;stroke-width:0.5;"/>
   </g>
   <g id="patch_11">
    <path d="M 394.587843 25.155168 
L 698.95148 25.155168 
" style="fill:none;stroke:#000000;stroke-linecap:square;stroke-linejoin:miter;stroke-width:0.5;"/>
   </g>
   <g id="text_26">
    <!-- Moindres carrés (différences) -->
    <g transform="translate(448.658962 19.155168)scale(0.16 -0.16)">
     <use transform="scale(0.996264)" xlink:href="#CMR17-4d"/>
     <use transform="translate(84.686941 0)scale(0.996264)" xlink:href="#CMR17-6f"/>
     <use transform="translate(130.377418 0)scale(0.996264)" xlink:href="#CMR17-69"/>
     <use transform="translate(155.248476 0)scale(0.996264)" xlink:href="#CMR17-6e"/>
     <use transform="translate(206.143846 0)scale(0.996264)" xlink:href="#CMR17-64"/>
     <use transform="translate(257.039216 0)scale(0.996264)" xlink:href="#CMR17-72"/>
     <use transform="translate(292.319984 0)scale(0.996264)" xlink:href="#CMR17-65"/>
     <use transform="translate(332.805644 0)scale(0.996264)" xlink:href="#CMR17-73"/>
     <use transform="translate(398.682948 0)scale(0.996264)" xlink:href="#CMR17-63"/>
     <use transform="translate(439.168608 0)scale(0.996264)" xlink:href="#CMR17-61"/>
     <use transform="translate(484.859086 0)scale(0.996264)" xlink:href="#CMR17-72"/>
     <use transform="translate(520.139853 0)scale(0.996264)" xlink:href="#CMR17-72"/>
     <use transform="translate(552.818213 0)scale(0.996264)" xlink:href="#CMR17-13"/>
     <use transform="translate(555.420621 0)scale(0.996264)" xlink:href="#CMR17-65"/>
     <use transform="translate(595.906282 0)scale(0.996264)" xlink:href="#CMR17-73"/>
     <use transform="translate(661.783586 0)scale(0.996264)" xlink:href="#CMR17-28"/>
     <use transform="translate(697.064353 0)scale(0.996264)" xlink:href="#CMR17-64"/>
     <use transform="translate(747.959723 0)scale(0.996264)" xlink:href="#CMR17-69"/>
     <use transform="translate(772.830782 0)scale(0.996264)" xlink:href="#CMR17-b"/>
     <use transform="translate(822.573051 0)scale(0.996264)" xlink:href="#CMR17-13"/>
     <use transform="translate(825.175459 0)scale(0.996264)" xlink:href="#CMR17-65"/>
     <use transform="translate(865.661119 0)scale(0.996264)" xlink:href="#CMR17-72"/>
     <use transform="translate(900.941887 0)scale(0.996264)" xlink:href="#CMR17-65"/>
     <use transform="translate(941.427548 0)scale(0.996264)" xlink:href="#CMR17-6e"/>
     <use transform="translate(992.322917 0)scale(0.996264)" xlink:href="#CMR17-63"/>
     <use transform="translate(1032.808578 0)scale(0.996264)" xlink:href="#CMR17-65"/>
     <use transform="translate(1073.294238 0)scale(0.996264)" xlink:href="#CMR17-73"/>
     <use transform="translate(1109.095576 0)scale(0.996264)" xlink:href="#CMR17-29"/>
    </g>
   </g>
  </g>
 </g>
 <defs>
  <clipPath id="pb36698068c">
   <rect height="163.08" width="304.363636" x="29.35148" y="25.155168"/>
  </clipPath>
  <clipPath id="pbe364e2ae5">
   <rect height="163.08" width="304.363636" x="394.587843" y="25.155168"/>
  </clipPath>
 </defs>
</svg>
