<?xml version="1.0" encoding="utf-8" standalone="no"?>
<!DOCTYPE svg PUBLIC "-//W3C//DTD SVG 1.1//EN"
  "http://www.w3.org/Graphics/SVG/1.1/DTD/svg11.dtd">
<svg height="375.256364pt" version="1.1" viewBox="0 0 716.556796 375.256364" width="716.556796pt" xmlns="http://www.w3.org/2000/svg" xmlns:xlink="http://www.w3.org/1999/xlink">
 <metadata>
  <rdf:RDF xmlns:cc="http://creativecommons.org/ns#" xmlns:dc="http://purl.org/dc/elements/1.1/" xmlns:rdf="http://www.w3.org/1999/02/22-rdf-syntax-ns#">
   <cc:Work>
    <dc:type rdf:resource="http://purl.org/dc/dcmitype/StillImage"/>
    <dc:date>2021-11-25T14:38:30.877367</dc:date>
    <dc:format>image/svg+xml</dc:format>
    <dc:creator>
     <cc:Agent>
      <dc:title>Matplotlib v3.4.3, https://matplotlib.org/</dc:title>
     </cc:Agent>
    </dc:creator>
   </cc:Work>
  </rdf:RDF>
 </metadata>
 <defs>
  <style type="text/css">*{stroke-linecap:butt;stroke-linejoin:round;}</style>
 </defs>
 <g id="figure_1">
  <g id="patch_1">
   <path d="M 0 375.256364 
L 716.556796 375.256364 
L 716.556796 0 
L 0 0 
z
" style="fill:none;"/>
  </g>
  <g id="axes_1">
   <g id="patch_2">
    <path d="M 29.35148 160.169588 
L 333.715116 160.169588 
L 333.715116 24.269588 
L 29.35148 24.269588 
z
" style="fill:#ffffff;"/>
   </g>
   <g id="matplotlib.axis_1">
    <g id="xtick_1">
     <g id="line2d_1">
      <path clip-path="url(#p24cc41b3cd)" d="M 29.35148 160.169588 
L 29.35148 24.269588 
" style="fill:none;stroke:#b0b0b0;stroke-linecap:square;stroke-width:0.5;"/>
     </g>
     <g id="line2d_2">
      <defs>
       <path d="M 0 0 
L 0 3.5 
" id="md839560a1e" style="stroke:#000000;stroke-width:0.8;"/>
      </defs>
      <g>
       <use style="stroke:#000000;stroke-width:0.8;" x="29.35148" xlink:href="#md839560a1e" y="160.169588"/>
      </g>
     </g>
     <g id="text_1">
      <!-- $\mathdefault{−1.00}$ -->
      <g transform="translate(14.296919 175.471768)scale(0.12 -0.12)">
       <defs>
        <path d="M 4218 1472 
C 4326 1472 4442 1472 4442 1600 
C 4442 1728 4326 1728 4218 1728 
L 755 1728 
C 646 1728 531 1728 531 1600 
C 531 1472 646 1472 755 1472 
L 4218 1472 
z
" id="CMSY10-0" transform="scale(0.015625)"/>
        <path d="M 1702 4058 
C 1702 4192 1696 4192 1606 4192 
C 1357 3916 979 3827 621 3827 
C 602 3827 570 3827 563 3808 
C 557 3795 557 3782 557 3648 
C 755 3648 1088 3686 1344 3839 
L 1344 461 
C 1344 236 1331 160 781 160 
L 589 160 
L 589 0 
C 896 0 1216 0 1523 0 
C 1830 0 2150 0 2458 0 
L 2458 160 
L 2266 160 
C 1715 160 1702 230 1702 458 
L 1702 4058 
z
" id="CMR17-31" transform="scale(0.015625)"/>
        <path d="M 1178 307 
C 1178 492 1024 619 870 619 
C 685 619 557 466 557 313 
C 557 128 710 0 864 0 
C 1050 0 1178 153 1178 307 
z
" id="CMMI12-3a" transform="scale(0.015625)"/>
        <path d="M 2688 2025 
C 2688 2416 2682 3080 2413 3591 
C 2176 4039 1798 4198 1466 4198 
C 1158 4198 768 4058 525 3597 
C 269 3118 243 2524 243 2025 
C 243 1661 250 1106 448 619 
C 723 -39 1216 -128 1466 -128 
C 1760 -128 2208 -7 2470 600 
C 2662 1042 2688 1559 2688 2025 
z
M 1466 -26 
C 1056 -26 813 325 723 812 
C 653 1188 653 1738 653 2096 
C 653 2588 653 2997 736 3387 
C 858 3929 1216 4096 1466 4096 
C 1728 4096 2067 3923 2189 3400 
C 2272 3036 2278 2607 2278 2096 
C 2278 1680 2278 1169 2202 792 
C 2067 95 1690 -26 1466 -26 
z
" id="CMR17-30" transform="scale(0.015625)"/>
       </defs>
       <use transform="scale(0.996264)" xlink:href="#CMSY10-0"/>
       <use transform="translate(77.487468 0)scale(0.996264)" xlink:href="#CMR17-31"/>
       <use transform="translate(123.177945 0)scale(0.996264)" xlink:href="#CMMI12-3a"/>
       <use transform="translate(150.275122 0)scale(0.996264)" xlink:href="#CMR17-30"/>
       <use transform="translate(195.965599 0)scale(0.996264)" xlink:href="#CMR17-30"/>
      </g>
     </g>
    </g>
    <g id="xtick_2">
     <g id="line2d_3">
      <path clip-path="url(#p24cc41b3cd)" d="M 67.396934 160.169588 
L 67.396934 24.269588 
" style="fill:none;stroke:#b0b0b0;stroke-linecap:square;stroke-width:0.5;"/>
     </g>
     <g id="line2d_4">
      <g>
       <use style="stroke:#000000;stroke-width:0.8;" x="67.396934" xlink:href="#md839560a1e" y="160.169588"/>
      </g>
     </g>
     <g id="text_2">
      <!-- $\mathdefault{−0.75}$ -->
      <g transform="translate(52.342374 175.471768)scale(0.12 -0.12)">
       <defs>
        <path d="M 2886 3941 
L 2886 4081 
L 1382 4081 
C 634 4081 621 4165 595 4288 
L 480 4288 
L 294 3094 
L 410 3094 
C 429 3215 474 3540 550 3661 
C 589 3712 1062 3712 1171 3712 
L 2579 3712 
L 1869 2661 
C 1395 1954 1069 999 1069 165 
C 1069 89 1069 -128 1299 -128 
C 1530 -128 1530 89 1530 171 
L 1530 465 
C 1530 1508 1709 2196 2003 2636 
L 2886 3941 
z
" id="CMR17-37" transform="scale(0.015625)"/>
        <path d="M 730 3692 
C 794 3666 1056 3584 1325 3584 
C 1920 3584 2246 3911 2432 4100 
C 2432 4157 2432 4192 2394 4192 
C 2387 4192 2374 4192 2323 4163 
C 2099 4058 1837 3973 1517 3973 
C 1325 3973 1037 3999 723 4139 
C 653 4171 640 4171 634 4171 
C 602 4171 595 4164 595 4037 
L 595 2203 
C 595 2089 595 2057 659 2057 
C 691 2057 704 2070 736 2114 
C 941 2401 1222 2522 1542 2522 
C 1766 2522 2246 2382 2246 1289 
C 2246 1085 2246 715 2054 421 
C 1894 159 1645 25 1370 25 
C 947 25 518 320 403 814 
C 429 807 480 795 506 795 
C 589 795 749 840 749 1038 
C 749 1210 627 1280 506 1280 
C 358 1280 262 1190 262 1011 
C 262 454 704 -128 1382 -128 
C 2042 -128 2669 440 2669 1264 
C 2669 2030 2170 2624 1549 2624 
C 1222 2624 947 2503 730 2274 
L 730 3692 
z
" id="CMR17-35" transform="scale(0.015625)"/>
       </defs>
       <use transform="scale(0.996264)" xlink:href="#CMSY10-0"/>
       <use transform="translate(77.487468 0)scale(0.996264)" xlink:href="#CMR17-30"/>
       <use transform="translate(123.177945 0)scale(0.996264)" xlink:href="#CMMI12-3a"/>
       <use transform="translate(150.275122 0)scale(0.996264)" xlink:href="#CMR17-37"/>
       <use transform="translate(195.965599 0)scale(0.996264)" xlink:href="#CMR17-35"/>
      </g>
     </g>
    </g>
    <g id="xtick_3">
     <g id="line2d_5">
      <path clip-path="url(#p24cc41b3cd)" d="M 105.442389 160.169588 
L 105.442389 24.269588 
" style="fill:none;stroke:#b0b0b0;stroke-linecap:square;stroke-width:0.5;"/>
     </g>
     <g id="line2d_6">
      <g>
       <use style="stroke:#000000;stroke-width:0.8;" x="105.442389" xlink:href="#md839560a1e" y="160.169588"/>
      </g>
     </g>
     <g id="text_3">
      <!-- $\mathdefault{−0.50}$ -->
      <g transform="translate(90.387828 175.471768)scale(0.12 -0.12)">
       <use transform="scale(0.996264)" xlink:href="#CMSY10-0"/>
       <use transform="translate(77.487468 0)scale(0.996264)" xlink:href="#CMR17-30"/>
       <use transform="translate(123.177945 0)scale(0.996264)" xlink:href="#CMMI12-3a"/>
       <use transform="translate(150.275122 0)scale(0.996264)" xlink:href="#CMR17-35"/>
       <use transform="translate(195.965599 0)scale(0.996264)" xlink:href="#CMR17-30"/>
      </g>
     </g>
    </g>
    <g id="xtick_4">
     <g id="line2d_7">
      <path clip-path="url(#p24cc41b3cd)" d="M 143.487843 160.169588 
L 143.487843 24.269588 
" style="fill:none;stroke:#b0b0b0;stroke-linecap:square;stroke-width:0.5;"/>
     </g>
     <g id="line2d_8">
      <g>
       <use style="stroke:#000000;stroke-width:0.8;" x="143.487843" xlink:href="#md839560a1e" y="160.169588"/>
      </g>
     </g>
     <g id="text_4">
      <!-- $\mathdefault{−0.25}$ -->
      <g transform="translate(128.433283 175.471768)scale(0.12 -0.12)">
       <defs>
        <path d="M 2669 989 
L 2554 989 
C 2490 536 2438 459 2413 420 
C 2381 369 1920 369 1830 369 
L 602 369 
C 832 619 1280 1072 1824 1597 
C 2214 1967 2669 2402 2669 3035 
C 2669 3790 2067 4224 1395 4224 
C 691 4224 262 3604 262 3030 
C 262 2780 448 2748 525 2748 
C 589 2748 781 2787 781 3010 
C 781 3207 614 3264 525 3264 
C 486 3264 448 3258 422 3245 
C 544 3790 915 4058 1306 4058 
C 1862 4058 2227 3617 2227 3035 
C 2227 2479 1901 2000 1536 1584 
L 262 146 
L 262 0 
L 2515 0 
L 2669 989 
z
" id="CMR17-32" transform="scale(0.015625)"/>
       </defs>
       <use transform="scale(0.996264)" xlink:href="#CMSY10-0"/>
       <use transform="translate(77.487468 0)scale(0.996264)" xlink:href="#CMR17-30"/>
       <use transform="translate(123.177945 0)scale(0.996264)" xlink:href="#CMMI12-3a"/>
       <use transform="translate(150.275122 0)scale(0.996264)" xlink:href="#CMR17-32"/>
       <use transform="translate(195.965599 0)scale(0.996264)" xlink:href="#CMR17-35"/>
      </g>
     </g>
    </g>
    <g id="xtick_5">
     <g id="line2d_9">
      <path clip-path="url(#p24cc41b3cd)" d="M 181.533298 160.169588 
L 181.533298 24.269588 
" style="fill:none;stroke:#b0b0b0;stroke-linecap:square;stroke-width:0.5;"/>
     </g>
     <g id="line2d_10">
      <g>
       <use style="stroke:#000000;stroke-width:0.8;" x="181.533298" xlink:href="#md839560a1e" y="160.169588"/>
      </g>
     </g>
     <g id="text_5">
      <!-- $\mathdefault{0.00}$ -->
      <g transform="translate(171.127982 175.471768)scale(0.12 -0.12)">
       <use transform="scale(0.996264)" xlink:href="#CMR17-30"/>
       <use transform="translate(45.690477 0)scale(0.996264)" xlink:href="#CMMI12-3a"/>
       <use transform="translate(72.787654 0)scale(0.996264)" xlink:href="#CMR17-30"/>
       <use transform="translate(118.478131 0)scale(0.996264)" xlink:href="#CMR17-30"/>
      </g>
     </g>
    </g>
    <g id="xtick_6">
     <g id="line2d_11">
      <path clip-path="url(#p24cc41b3cd)" d="M 219.578752 160.169588 
L 219.578752 24.269588 
" style="fill:none;stroke:#b0b0b0;stroke-linecap:square;stroke-width:0.5;"/>
     </g>
     <g id="line2d_12">
      <g>
       <use style="stroke:#000000;stroke-width:0.8;" x="219.578752" xlink:href="#md839560a1e" y="160.169588"/>
      </g>
     </g>
     <g id="text_6">
      <!-- $\mathdefault{0.25}$ -->
      <g transform="translate(209.173436 175.471768)scale(0.12 -0.12)">
       <use transform="scale(0.996264)" xlink:href="#CMR17-30"/>
       <use transform="translate(45.690477 0)scale(0.996264)" xlink:href="#CMMI12-3a"/>
       <use transform="translate(72.787654 0)scale(0.996264)" xlink:href="#CMR17-32"/>
       <use transform="translate(118.478131 0)scale(0.996264)" xlink:href="#CMR17-35"/>
      </g>
     </g>
    </g>
    <g id="xtick_7">
     <g id="line2d_13">
      <path clip-path="url(#p24cc41b3cd)" d="M 257.624207 160.169588 
L 257.624207 24.269588 
" style="fill:none;stroke:#b0b0b0;stroke-linecap:square;stroke-width:0.5;"/>
     </g>
     <g id="line2d_14">
      <g>
       <use style="stroke:#000000;stroke-width:0.8;" x="257.624207" xlink:href="#md839560a1e" y="160.169588"/>
      </g>
     </g>
     <g id="text_7">
      <!-- $\mathdefault{0.50}$ -->
      <g transform="translate(247.218891 175.471768)scale(0.12 -0.12)">
       <use transform="scale(0.996264)" xlink:href="#CMR17-30"/>
       <use transform="translate(45.690477 0)scale(0.996264)" xlink:href="#CMMI12-3a"/>
       <use transform="translate(72.787654 0)scale(0.996264)" xlink:href="#CMR17-35"/>
       <use transform="translate(118.478131 0)scale(0.996264)" xlink:href="#CMR17-30"/>
      </g>
     </g>
    </g>
    <g id="xtick_8">
     <g id="line2d_15">
      <path clip-path="url(#p24cc41b3cd)" d="M 295.669661 160.169588 
L 295.669661 24.269588 
" style="fill:none;stroke:#b0b0b0;stroke-linecap:square;stroke-width:0.5;"/>
     </g>
     <g id="line2d_16">
      <g>
       <use style="stroke:#000000;stroke-width:0.8;" x="295.669661" xlink:href="#md839560a1e" y="160.169588"/>
      </g>
     </g>
     <g id="text_8">
      <!-- $\mathdefault{0.75}$ -->
      <g transform="translate(285.264345 175.471768)scale(0.12 -0.12)">
       <use transform="scale(0.996264)" xlink:href="#CMR17-30"/>
       <use transform="translate(45.690477 0)scale(0.996264)" xlink:href="#CMMI12-3a"/>
       <use transform="translate(72.787654 0)scale(0.996264)" xlink:href="#CMR17-37"/>
       <use transform="translate(118.478131 0)scale(0.996264)" xlink:href="#CMR17-35"/>
      </g>
     </g>
    </g>
    <g id="xtick_9">
     <g id="line2d_17">
      <path clip-path="url(#p24cc41b3cd)" d="M 333.715116 160.169588 
L 333.715116 24.269588 
" style="fill:none;stroke:#b0b0b0;stroke-linecap:square;stroke-width:0.5;"/>
     </g>
     <g id="line2d_18">
      <g>
       <use style="stroke:#000000;stroke-width:0.8;" x="333.715116" xlink:href="#md839560a1e" y="160.169588"/>
      </g>
     </g>
     <g id="text_9">
      <!-- $\mathdefault{1.00}$ -->
      <g transform="translate(323.3098 175.471768)scale(0.12 -0.12)">
       <use transform="scale(0.996264)" xlink:href="#CMR17-31"/>
       <use transform="translate(45.690477 0)scale(0.996264)" xlink:href="#CMMI12-3a"/>
       <use transform="translate(72.787654 0)scale(0.996264)" xlink:href="#CMR17-30"/>
       <use transform="translate(118.478131 0)scale(0.996264)" xlink:href="#CMR17-30"/>
      </g>
     </g>
    </g>
   </g>
   <g id="matplotlib.axis_2">
    <g id="ytick_1">
     <g id="line2d_19">
      <path clip-path="url(#p24cc41b3cd)" d="M 29.35148 152.619588 
L 333.715116 152.619588 
" style="fill:none;stroke:#b0b0b0;stroke-linecap:square;stroke-width:0.5;"/>
     </g>
     <g id="line2d_20">
      <defs>
       <path d="M 0 0 
L -3.5 0 
" id="m708340ac47" style="stroke:#000000;stroke-width:0.8;"/>
      </defs>
      <g>
       <use style="stroke:#000000;stroke-width:0.8;" x="29.35148" xlink:href="#m708340ac47" y="152.619588"/>
      </g>
     </g>
     <g id="text_10">
      <!-- $\mathdefault{−4}$ -->
      <g transform="translate(7.2 156.770678)scale(0.12 -0.12)">
       <defs>
        <path d="M 2150 4122 
C 2150 4256 2144 4256 2029 4256 
L 128 1254 
L 128 1088 
L 1779 1088 
L 1779 457 
C 1779 224 1766 160 1318 160 
L 1197 160 
L 1197 0 
C 1402 0 1747 0 1965 0 
C 2182 0 2528 0 2733 0 
L 2733 160 
L 2611 160 
C 2163 160 2150 224 2150 457 
L 2150 1088 
L 2803 1088 
L 2803 1254 
L 2150 1254 
L 2150 4122 
z
M 1798 3703 
L 1798 1254 
L 256 1254 
L 1798 3703 
z
" id="CMR17-34" transform="scale(0.015625)"/>
       </defs>
       <use transform="scale(0.996264)" xlink:href="#CMSY10-0"/>
       <use transform="translate(77.487468 0)scale(0.996264)" xlink:href="#CMR17-34"/>
      </g>
     </g>
    </g>
    <g id="ytick_2">
     <g id="line2d_21">
      <path clip-path="url(#p24cc41b3cd)" d="M 29.35148 122.419588 
L 333.715116 122.419588 
" style="fill:none;stroke:#b0b0b0;stroke-linecap:square;stroke-width:0.5;"/>
     </g>
     <g id="line2d_22">
      <g>
       <use style="stroke:#000000;stroke-width:0.8;" x="29.35148" xlink:href="#m708340ac47" y="122.419588"/>
      </g>
     </g>
     <g id="text_11">
      <!-- $\mathdefault{−2}$ -->
      <g transform="translate(7.2 126.570678)scale(0.12 -0.12)">
       <use transform="scale(0.996264)" xlink:href="#CMSY10-0"/>
       <use transform="translate(77.487468 0)scale(0.996264)" xlink:href="#CMR17-32"/>
      </g>
     </g>
    </g>
    <g id="ytick_3">
     <g id="line2d_23">
      <path clip-path="url(#p24cc41b3cd)" d="M 29.35148 92.219588 
L 333.715116 92.219588 
" style="fill:none;stroke:#b0b0b0;stroke-linecap:square;stroke-width:0.5;"/>
     </g>
     <g id="line2d_24">
      <g>
       <use style="stroke:#000000;stroke-width:0.8;" x="29.35148" xlink:href="#m708340ac47" y="92.219588"/>
      </g>
     </g>
     <g id="text_12">
      <!-- $\mathdefault{0}$ -->
      <g transform="translate(16.498489 96.370678)scale(0.12 -0.12)">
       <use transform="scale(0.996264)" xlink:href="#CMR17-30"/>
      </g>
     </g>
    </g>
    <g id="ytick_4">
     <g id="line2d_25">
      <path clip-path="url(#p24cc41b3cd)" d="M 29.35148 62.019588 
L 333.715116 62.019588 
" style="fill:none;stroke:#b0b0b0;stroke-linecap:square;stroke-width:0.5;"/>
     </g>
     <g id="line2d_26">
      <g>
       <use style="stroke:#000000;stroke-width:0.8;" x="29.35148" xlink:href="#m708340ac47" y="62.019588"/>
      </g>
     </g>
     <g id="text_13">
      <!-- $\mathdefault{2}$ -->
      <g transform="translate(16.498489 66.170678)scale(0.12 -0.12)">
       <use transform="scale(0.996264)" xlink:href="#CMR17-32"/>
      </g>
     </g>
    </g>
    <g id="ytick_5">
     <g id="line2d_27">
      <path clip-path="url(#p24cc41b3cd)" d="M 29.35148 31.819588 
L 333.715116 31.819588 
" style="fill:none;stroke:#b0b0b0;stroke-linecap:square;stroke-width:0.5;"/>
     </g>
     <g id="line2d_28">
      <g>
       <use style="stroke:#000000;stroke-width:0.8;" x="29.35148" xlink:href="#m708340ac47" y="31.819588"/>
      </g>
     </g>
     <g id="text_14">
      <!-- $\mathdefault{4}$ -->
      <g transform="translate(16.498489 35.970678)scale(0.12 -0.12)">
       <use transform="scale(0.996264)" xlink:href="#CMR17-34"/>
      </g>
     </g>
    </g>
   </g>
   <g id="line2d_29">
    <path clip-path="url(#p24cc41b3cd)" d="M 29.35148 152.619588 
L 36.960571 148.735113 
L 46.09148 143.806654 
L 55.222389 138.623791 
L 65.875116 132.307793 
L 78.049661 124.810462 
L 93.267843 115.156126 
L 135.878752 87.931188 
L 148.053298 80.500539 
L 158.706025 74.261913 
L 167.836934 69.159502 
L 176.967843 64.324543 
L 184.576934 60.52795 
L 192.186025 56.966917 
L 199.795116 53.664094 
L 207.404207 50.642131 
L 213.49148 48.442 
L 219.578752 46.447713 
L 225.666025 44.670866 
L 231.753298 43.123056 
L 237.840571 41.815879 
L 243.927843 40.760932 
L 250.015116 39.969813 
L 256.102389 39.454118 
L 262.189661 39.225444 
L 266.755116 39.249271 
L 271.320571 39.445964 
L 275.886025 39.820414 
L 280.45148 40.377513 
L 285.016934 41.122155 
L 289.582389 42.05923 
L 294.147843 43.193633 
L 298.713298 44.530255 
L 303.278752 46.073988 
L 307.844207 47.829726 
L 312.409661 49.802359 
L 316.975116 51.996782 
L 321.540571 54.417886 
L 326.106025 57.070563 
L 330.67148 59.959707 
L 333.715116 62.019588 
L 333.715116 62.019588 
" style="fill:none;stroke:#808080;stroke-linecap:square;"/>
   </g>
   <g id="line2d_30">
    <path clip-path="url(#p24cc41b3cd)" d="M 29.35148 174.799828 
L 30.873298 138.543788 
L 32.395116 171.404645 
L 33.916934 177.050034 
L 35.438752 158.861397 
L 36.960571 170.96558 
L 38.482389 109.514645 
L 40.004207 159.834555 
L 41.526025 114.392922 
L 43.047843 168.24896 
L 44.569661 141.461307 
L 46.09148 142.279815 
L 47.613298 118.296559 
L 49.135116 148.548194 
L 52.178752 115.484619 
L 53.700571 115.88376 
L 55.222389 140.527292 
L 56.744207 134.266795 
L 58.266025 124.862611 
L 59.787843 130.192145 
L 61.309661 136.336032 
L 62.83148 161.617236 
L 64.353298 118.590632 
L 65.875116 150.325174 
L 67.396934 123.663713 
L 68.918752 119.276069 
L 70.440571 133.258555 
L 71.962389 118.670084 
L 73.484207 133.529659 
L 75.006025 114.281026 
L 76.527843 123.817419 
L 78.049661 152.658337 
L 79.57148 149.993503 
L 81.093298 122.817629 
L 82.615116 129.760226 
L 84.136934 128.580863 
L 85.658752 98.901114 
L 87.180571 92.951846 
L 88.702389 128.954364 
L 90.224207 151.546263 
L 91.746025 117.197489 
L 93.267843 102.809621 
L 94.789661 125.75917 
L 96.31148 123.854166 
L 97.833298 115.091776 
L 99.355116 110.00494 
L 100.876934 123.717155 
L 102.398752 91.991794 
L 103.920571 94.4334 
L 105.442389 98.837601 
L 106.964207 125.047969 
L 108.486025 97.187331 
L 110.007843 102.35246 
L 111.529661 116.912753 
L 113.05148 98.981606 
L 114.573298 89.027436 
L 116.095116 95.679092 
L 117.616934 93.547791 
L 119.138752 90.330917 
L 120.660571 79.298521 
L 122.182389 87.746576 
L 123.704207 129.600348 
L 125.226025 89.044061 
L 126.747843 120.823431 
L 128.269661 99.209902 
L 129.79148 100.624621 
L 131.313298 76.447806 
L 132.835116 96.71258 
L 134.356934 94.910512 
L 137.400571 68.499706 
L 138.922389 75.345858 
L 140.444207 74.684103 
L 141.966025 80.688612 
L 145.009661 57.786636 
L 146.53148 80.001982 
L 148.053298 79.497038 
L 149.575116 74.868131 
L 151.096934 82.953903 
L 152.618752 77.709531 
L 154.140571 80.315009 
L 155.662389 70.444839 
L 157.184207 43.181705 
L 158.706025 77.429049 
L 160.227843 103.460602 
L 161.749661 106.160339 
L 163.27148 60.73156 
L 164.793298 68.410048 
L 166.315116 45.315532 
L 167.836934 66.121357 
L 169.358752 82.166194 
L 170.880571 58.868229 
L 172.402389 54.827415 
L 173.924207 47.650946 
L 175.446025 53.261304 
L 176.967843 72.042515 
L 178.489661 71.52837 
L 180.01148 91.579874 
L 181.533298 60.815783 
L 183.055116 81.764858 
L 184.576934 61.964105 
L 186.098752 36.707675 
L 187.620571 53.500888 
L 189.142389 53.558199 
L 190.664207 36.908497 
L 192.186025 45.205865 
L 193.707843 43.559575 
L 195.229661 24.021865 
L 196.75148 57.961731 
L 198.273298 43.427519 
L 199.795116 58.64255 
L 201.316934 51.555685 
L 202.838752 39.528933 
L 204.360571 25.680284 
L 205.882389 49.425235 
L 207.404207 38.912143 
L 208.926025 33.114418 
L 210.447843 65.023201 
L 211.969661 37.935963 
L 213.49148 32.045885 
L 215.013298 64.318831 
L 216.535116 59.089913 
L 218.056934 62.255895 
L 219.578752 57.438957 
L 221.100571 48.938717 
L 222.622389 28.00741 
L 224.144207 58.817526 
L 225.666025 51.175021 
L 227.187843 46.572396 
L 228.709661 28.337163 
L 230.23148 48.453366 
L 231.753298 65.051966 
L 233.275116 69.842026 
L 234.796934 67.764584 
L 236.318752 22.991142 
L 237.840571 31.720116 
L 239.362389 48.644387 
L 240.884207 38.491853 
L 242.406025 21.032465 
L 243.927843 39.370142 
L 245.449661 55.542001 
L 246.97148 52.774955 
L 248.493298 49.393205 
L 251.536934 23.143582 
L 253.058752 47.230536 
L 254.580571 52.964843 
L 256.102389 62.415163 
L 257.624207 50.031921 
L 259.146025 55.722094 
L 260.667843 62.54937 
L 262.189661 38.656925 
L 263.71148 43.156084 
L 265.233298 9.260216 
L 266.755116 59.378946 
L 268.276934 39.722026 
L 269.798752 41.479701 
L 271.320571 14.991761 
L 272.842389 15.665864 
L 274.364207 19.620282 
L 275.886025 36.042144 
L 277.407843 42.771769 
L 278.929661 26.588921 
L 280.45148 63.975963 
L 281.973298 38.40298 
L 283.495116 43.405953 
L 285.016934 29.918395 
L 286.538752 20.256094 
L 288.060571 49.196427 
L 289.582389 70.417987 
L 291.104207 35.684103 
L 292.626025 63.286869 
L 294.147843 23.116656 
L 295.669661 43.780999 
L 297.19148 42.822291 
L 298.713298 48.051175 
L 300.235116 29.668868 
L 301.756934 46.774687 
L 303.278752 41.829471 
L 304.800571 61.96571 
L 306.322389 47.807088 
L 307.844207 44.875004 
L 309.366025 79.469766 
L 310.887843 43.502821 
L 312.409661 55.88288 
L 313.93148 34.499461 
L 315.453298 86.84019 
L 316.975116 22.641469 
L 318.496934 44.871681 
L 320.018752 45.077748 
L 321.540571 66.40249 
L 323.062389 67.07689 
L 324.584207 44.872145 
L 326.106025 57.94719 
L 327.627843 81.510821 
L 329.149661 60.843077 
L 330.67148 74.314268 
L 332.193298 42.650975 
L 333.715116 63.627365 
L 333.715116 63.627365 
" style="fill:none;stroke:#1f77b4;stroke-linecap:square;stroke-width:1.5;"/>
   </g>
   <g id="patch_3">
    <path d="M 29.35148 160.169588 
L 29.35148 24.269588 
" style="fill:none;stroke:#000000;stroke-linecap:square;stroke-linejoin:miter;stroke-width:0.5;"/>
   </g>
   <g id="patch_4">
    <path d="M 333.715116 160.169588 
L 333.715116 24.269588 
" style="fill:none;stroke:#000000;stroke-linecap:square;stroke-linejoin:miter;stroke-width:0.5;"/>
   </g>
   <g id="patch_5">
    <path d="M 29.35148 160.169588 
L 333.715116 160.169588 
" style="fill:none;stroke:#000000;stroke-linecap:square;stroke-linejoin:miter;stroke-width:0.5;"/>
   </g>
   <g id="patch_6">
    <path d="M 29.35148 24.269588 
L 333.715116 24.269588 
" style="fill:none;stroke:#000000;stroke-linecap:square;stroke-linejoin:miter;stroke-width:0.5;"/>
   </g>
   <g id="text_15">
    <!-- Observations $y$ -->
    <g transform="translate(131.034307 18.269588)scale(0.16 -0.16)">
     <defs>
      <path d="M 4307 2135 
C 4307 3437 3366 4416 2304 4416 
C 1216 4416 294 3424 294 2135 
C 294 845 1229 -128 2298 -128 
C 3392 -128 4307 864 4307 2135 
z
M 2304 -13 
C 1574 -13 781 711 781 2217 
C 781 3716 1651 4301 2298 4301 
C 2976 4301 3821 3698 3821 2217 
C 3821 686 3008 -13 2304 -13 
z
" id="CMR17-4f" transform="scale(0.015625)"/>
      <path d="M 960 4396 
L 198 4326 
L 198 4160 
C 576 4160 634 4122 634 3817 
L 634 -13 
L 749 -13 
L 934 441 
C 1120 141 1395 -64 1766 -64 
C 2406 -64 3053 500 3053 1370 
C 3053 2188 2477 2790 1830 2790 
C 1434 2790 1152 2579 960 2330 
L 960 4396 
z
M 973 2004 
C 973 2118 973 2138 1062 2272 
C 1312 2657 1670 2688 1792 2688 
C 1984 2688 2643 2585 2643 1376 
C 2643 108 1888 38 1734 38 
C 1536 38 1248 114 1043 486 
C 973 608 973 621 973 735 
L 973 2004 
z
" id="CMR17-62" transform="scale(0.015625)"/>
      <path d="M 1978 2697 
C 1978 2813 1971 2819 1933 2819 
C 1907 2819 1901 2813 1824 2717 
C 1805 2691 1747 2626 1728 2601 
C 1523 2819 1235 2819 1126 2819 
C 416 2819 160 2447 160 2076 
C 160 1498 813 1365 998 1325 
C 1402 1243 1542 1217 1677 1101 
C 1760 1025 1901 884 1901 654 
C 1901 384 1747 38 1158 38 
C 602 38 403 460 288 1021 
C 269 1110 269 1117 218 1117 
C 166 1117 160 1110 160 983 
L 160 63 
C 160 -51 166 -58 205 -58 
C 237 -58 243 -51 275 0 
C 314 57 410 211 448 276 
C 576 103 800 -64 1158 -64 
C 1792 -64 2131 283 2131 784 
C 2131 1112 1958 1285 1875 1362 
C 1683 1561 1459 1606 1190 1657 
C 838 1735 390 1825 390 2217 
C 390 2383 480 2737 1126 2737 
C 1811 2737 1850 2094 1862 1888 
C 1869 1856 1901 1849 1920 1849 
C 1978 1849 1978 1869 1978 1978 
L 1978 2697 
z
" id="CMR17-73" transform="scale(0.015625)"/>
      <path d="M 2438 1472 
C 2464 1498 2464 1511 2464 1576 
C 2464 2238 2118 2816 1389 2816 
C 710 2816 173 2169 173 1383 
C 173 551 781 -64 1459 -64 
C 2176 -64 2458 607 2458 740 
C 2458 784 2419 784 2406 784 
C 2362 784 2355 771 2330 696 
C 2189 265 1837 51 1504 51 
C 1229 51 954 203 781 480 
C 582 803 582 1176 582 1472 
L 2438 1472 
z
M 589 1568 
C 634 2505 1126 2714 1382 2714 
C 1818 2714 2112 2297 2118 1568 
L 589 1568 
z
" id="CMR17-65" transform="scale(0.015625)"/>
      <path d="M 960 1497 
C 960 2112 1222 2688 1702 2688 
C 1747 2688 1792 2682 1837 2662 
C 1837 2662 1696 2617 1696 2452 
C 1696 2298 1818 2234 1914 2234 
C 1990 2234 2131 2279 2131 2458 
C 2131 2663 1926 2790 1709 2790 
C 1222 2790 1011 2317 947 2093 
L 941 2093 
L 941 2790 
L 198 2720 
L 198 2554 
C 576 2554 634 2515 634 2208 
L 634 428 
C 634 184 608 153 198 153 
L 198 -13 
C 352 0 646 0 813 0 
C 998 0 1325 0 1498 -13 
L 1498 153 
C 1037 153 960 153 960 440 
L 960 1497 
z
" id="CMR17-72" transform="scale(0.015625)"/>
      <path d="M 2502 2163 
C 2560 2304 2662 2560 3034 2560 
L 3034 2726 
C 2912 2726 2752 2726 2630 2726 
C 2496 2726 2285 2726 2157 2732 
L 2157 2566 
C 2317 2553 2406 2477 2406 2311 
C 2406 2253 2406 2240 2368 2151 
L 1664 377 
L 902 2286 
C 864 2369 864 2381 864 2407 
C 864 2560 1075 2560 1171 2560 
L 1171 2732 
C 1018 2726 736 2726 576 2726 
C 403 2726 205 2726 64 2732 
L 64 2560 
C 307 2560 442 2560 518 2362 
L 1446 44 
C 1485 -51 1491 -64 1549 -64 
C 1606 -64 1613 -51 1651 44 
L 2502 2163 
z
" id="CMR17-76" transform="scale(0.015625)"/>
      <path d="M 2304 1653 
C 2304 2072 2304 2294 2035 2543 
C 1798 2752 1523 2816 1306 2816 
C 800 2816 435 2407 435 1971 
C 435 1728 627 1728 666 1728 
C 749 1728 896 1778 896 1954 
C 896 2112 774 2181 666 2181 
C 640 2181 608 2174 589 2168 
C 723 2592 1069 2714 1293 2714 
C 1613 2714 1965 2429 1965 1885 
L 1965 1600 
C 1587 1600 1133 1549 774 1357 
C 371 1133 256 813 256 570 
C 256 77 832 -64 1171 -64 
C 1523 -64 1850 139 1990 511 
C 2003 233 2182 -18 2464 -18 
C 2598 -18 2938 70 2938 567 
L 2938 920 
L 2822 920 
L 2822 562 
C 2822 178 2650 128 2566 128 
C 2304 128 2304 458 2304 738 
L 2304 1653 
z
M 1965 870 
C 1965 317 1568 38 1216 38 
C 896 38 646 275 646 570 
C 646 761 730 1100 1101 1305 
C 1408 1478 1760 1504 1965 1504 
L 1965 870 
z
" id="CMR17-61" transform="scale(0.015625)"/>
      <path d="M 966 2560 
L 1862 2560 
L 1862 2725 
L 966 2725 
L 966 3904 
L 851 3904 
C 838 3245 614 2668 70 2668 
L 70 2560 
L 627 2560 
L 627 771 
C 627 650 627 -64 1370 -64 
C 1747 -64 1965 306 1965 777 
L 1965 1140 
L 1850 1140 
L 1850 783 
C 1850 344 1677 51 1408 51 
C 1222 51 966 178 966 758 
L 966 2560 
z
" id="CMR17-74" transform="scale(0.015625)"/>
      <path d="M 992 3909 
C 992 4049 877 4170 730 4170 
C 589 4170 467 4056 467 3909 
C 467 3769 582 3648 730 3648 
C 870 3648 992 3763 992 3909 
z
M 243 2706 
L 243 2541 
C 602 2541 653 2502 653 2197 
L 653 427 
C 653 184 627 153 218 153 
L 218 -13 
C 371 0 646 0 806 0 
C 960 0 1222 0 1370 -13 
L 1370 153 
C 992 153 979 191 979 420 
L 979 2776 
L 243 2706 
z
" id="CMR17-69" transform="scale(0.015625)"/>
      <path d="M 2758 1356 
C 2758 2176 2163 2816 1466 2816 
C 768 2816 173 2176 173 1356 
C 173 551 768 -64 1466 -64 
C 2163 -64 2758 551 2758 1356 
z
M 1466 51 
C 1165 51 909 230 762 480 
C 602 767 582 1126 582 1408 
C 582 1677 595 2010 762 2298 
C 890 2509 1139 2714 1466 2714 
C 1754 2714 1997 2554 2150 2330 
C 2349 2029 2349 1607 2349 1408 
C 2349 1158 2336 775 2163 467 
C 1984 173 1709 51 1466 51 
z
" id="CMR17-6f" transform="scale(0.015625)"/>
      <path d="M 2656 1933 
C 2656 2259 2592 2790 1837 2790 
C 1331 2790 1069 2400 973 2144 
L 966 2144 
L 966 2790 
L 211 2720 
L 211 2554 
C 589 2554 646 2515 646 2208 
L 646 428 
C 646 184 621 153 211 153 
L 211 -13 
C 365 0 646 0 813 0 
C 979 0 1267 0 1421 -13 
L 1421 153 
C 1011 153 986 178 986 428 
L 986 1658 
C 986 2247 1344 2688 1792 2688 
C 2266 2688 2317 2266 2317 1958 
L 2317 428 
C 2317 184 2291 153 1882 153 
L 1882 -13 
C 2035 0 2317 0 2483 0 
C 2650 0 2938 0 3091 -13 
L 3091 153 
C 2682 153 2656 178 2656 428 
L 2656 1933 
z
" id="CMR17-6e" transform="scale(0.015625)"/>
      <path d="M 1683 -700 
C 1510 -939 1261 -1152 947 -1152 
C 870 -1152 563 -1152 467 -889 
C 486 -895 518 -895 531 -895 
C 723 -895 851 -729 851 -582 
C 851 -435 730 -384 634 -384 
C 531 -384 307 -458 307 -759 
C 307 -1071 582 -1286 947 -1286 
C 1587 -1286 2234 -700 2413 6 
L 3040 2485 
C 3046 2517 3059 2556 3059 2594 
C 3059 2689 2982 2753 2886 2753 
C 2829 2753 2694 2727 2643 2535 
L 2170 658 
C 2138 543 2138 530 2086 460 
C 1958 281 1747 64 1440 64 
C 1082 64 1050 415 1050 588 
C 1050 952 1222 1443 1395 1903 
C 1466 2088 1504 2178 1504 2305 
C 1504 2574 1312 2816 998 2816 
C 410 2816 173 1890 173 1839 
C 173 1814 198 1782 243 1782 
C 301 1782 307 1807 333 1897 
C 486 2433 730 2689 979 2689 
C 1037 2689 1146 2689 1146 2478 
C 1146 2312 1075 2127 979 1884 
C 666 1047 666 837 666 683 
C 666 77 1101 -64 1421 -64 
C 1606 -64 1837 -6 2061 230 
L 2067 224 
C 1971 -147 1907 -392 1683 -700 
z
" id="CMMI12-79" transform="scale(0.015625)"/>
     </defs>
     <use transform="scale(0.996264)" xlink:href="#CMR17-4f"/>
     <use transform="translate(71.714788 0)scale(0.996264)" xlink:href="#CMR17-62"/>
     <use transform="translate(122.610158 0)scale(0.996264)" xlink:href="#CMR17-73"/>
     <use transform="translate(158.411496 0)scale(0.996264)" xlink:href="#CMR17-65"/>
     <use transform="translate(198.897156 0)scale(0.996264)" xlink:href="#CMR17-72"/>
     <use transform="translate(234.177924 0)scale(0.996264)" xlink:href="#CMR17-76"/>
     <use transform="translate(277.266023 0)scale(0.996264)" xlink:href="#CMR17-61"/>
     <use transform="translate(322.9565 0)scale(0.996264)" xlink:href="#CMR17-74"/>
     <use transform="translate(358.237268 0)scale(0.996264)" xlink:href="#CMR17-69"/>
     <use transform="translate(383.108327 0)scale(0.996264)" xlink:href="#CMR17-6f"/>
     <use transform="translate(428.798804 0)scale(0.996264)" xlink:href="#CMR17-6e"/>
     <use transform="translate(479.694174 0)scale(0.996264)" xlink:href="#CMR17-73"/>
     <use transform="translate(545.571478 0)scale(0.996264)" xlink:href="#CMMI12-79"/>
    </g>
   </g>
   <g id="legend_1">
    <g id="patch_7">
     <path d="M 39.15148 74.493645 
L 91.712248 74.493645 
Q 94.512248 74.493645 94.512248 71.693645 
L 94.512248 34.069588 
Q 94.512248 31.269588 91.712248 31.269588 
L 39.15148 31.269588 
Q 36.35148 31.269588 36.35148 34.069588 
L 36.35148 71.693645 
Q 36.35148 74.493645 39.15148 74.493645 
z
" style="fill:#ffffff;opacity:0.8;stroke:#cccccc;stroke-linejoin:miter;"/>
    </g>
    <g id="line2d_31">
     <path d="M 41.95148 41.769588 
L 69.95148 41.769588 
" style="fill:none;stroke:#808080;stroke-linecap:square;"/>
    </g>
    <g id="line2d_32"/>
    <g id="text_16">
     <!-- $x$ -->
     <g transform="translate(81.15148 46.669588)scale(0.14 -0.14)">
      <defs>
       <path d="M 3034 2606 
C 2829 2567 2752 2414 2752 2293 
C 2752 2139 2874 2088 2963 2088 
C 3155 2088 3290 2254 3290 2427 
C 3290 2695 2982 2816 2714 2816 
C 2323 2816 2106 2433 2048 2312 
C 1901 2816 1504 2816 1389 2816 
C 736 2816 390 1980 390 1839 
C 390 1814 416 1782 461 1782 
C 512 1782 525 1820 538 1846 
C 755 2555 1184 2689 1370 2689 
C 1658 2689 1715 2420 1715 2267 
C 1715 2127 1677 1980 1600 1673 
L 1382 798 
C 1286 415 1101 64 762 64 
C 730 64 570 64 435 147 
C 666 192 717 383 717 460 
C 717 588 621 664 499 664 
C 346 664 179 530 179 326 
C 179 57 480 -64 755 -64 
C 1062 -64 1280 179 1414 441 
C 1517 64 1837 -64 2074 -64 
C 2726 -64 3072 773 3072 913 
C 3072 945 3046 971 3008 971 
C 2950 971 2944 939 2925 888 
C 2752 326 2381 64 2093 64 
C 1869 64 1747 230 1747 492 
C 1747 632 1773 734 1875 1156 
L 2099 2024 
C 2195 2408 2413 2689 2707 2689 
C 2720 2689 2899 2689 3034 2606 
z
" id="CMMI12-78" transform="scale(0.015625)"/>
      </defs>
      <use transform="scale(0.996264)" xlink:href="#CMMI12-78"/>
     </g>
    </g>
    <g id="line2d_33">
     <path d="M 41.95148 61.281617 
L 69.95148 61.281617 
" style="fill:none;stroke:#1f77b4;stroke-linecap:square;stroke-width:1.5;"/>
    </g>
    <g id="line2d_34"/>
    <g id="text_17">
     <!-- $y$ -->
     <g transform="translate(81.15148 66.181617)scale(0.14 -0.14)">
      <use transform="scale(0.996264)" xlink:href="#CMMI12-79"/>
     </g>
    </g>
   </g>
  </g>
  <g id="axes_2">
   <g id="patch_8">
    <path d="M 29.35148 350.429588 
L 333.715116 350.429588 
L 333.715116 214.529588 
L 29.35148 214.529588 
z
" style="fill:#ffffff;"/>
   </g>
   <g id="matplotlib.axis_3">
    <g id="xtick_10">
     <g id="line2d_35">
      <path clip-path="url(#pcc6dca0ff8)" d="M 29.35148 350.429588 
L 29.35148 214.529588 
" style="fill:none;stroke:#b0b0b0;stroke-linecap:square;stroke-width:0.5;"/>
     </g>
     <g id="line2d_36">
      <g>
       <use style="stroke:#000000;stroke-width:0.8;" x="29.35148" xlink:href="#md839560a1e" y="350.429588"/>
      </g>
     </g>
     <g id="text_18">
      <!-- $\mathdefault{−1.00}$ -->
      <g transform="translate(14.296919 365.731768)scale(0.12 -0.12)">
       <use transform="scale(0.996264)" xlink:href="#CMSY10-0"/>
       <use transform="translate(77.487468 0)scale(0.996264)" xlink:href="#CMR17-31"/>
       <use transform="translate(123.177945 0)scale(0.996264)" xlink:href="#CMMI12-3a"/>
       <use transform="translate(150.275122 0)scale(0.996264)" xlink:href="#CMR17-30"/>
       <use transform="translate(195.965599 0)scale(0.996264)" xlink:href="#CMR17-30"/>
      </g>
     </g>
    </g>
    <g id="xtick_11">
     <g id="line2d_37">
      <path clip-path="url(#pcc6dca0ff8)" d="M 67.396934 350.429588 
L 67.396934 214.529588 
" style="fill:none;stroke:#b0b0b0;stroke-linecap:square;stroke-width:0.5;"/>
     </g>
     <g id="line2d_38">
      <g>
       <use style="stroke:#000000;stroke-width:0.8;" x="67.396934" xlink:href="#md839560a1e" y="350.429588"/>
      </g>
     </g>
     <g id="text_19">
      <!-- $\mathdefault{−0.75}$ -->
      <g transform="translate(52.342374 365.731768)scale(0.12 -0.12)">
       <use transform="scale(0.996264)" xlink:href="#CMSY10-0"/>
       <use transform="translate(77.487468 0)scale(0.996264)" xlink:href="#CMR17-30"/>
       <use transform="translate(123.177945 0)scale(0.996264)" xlink:href="#CMMI12-3a"/>
       <use transform="translate(150.275122 0)scale(0.996264)" xlink:href="#CMR17-37"/>
       <use transform="translate(195.965599 0)scale(0.996264)" xlink:href="#CMR17-35"/>
      </g>
     </g>
    </g>
    <g id="xtick_12">
     <g id="line2d_39">
      <path clip-path="url(#pcc6dca0ff8)" d="M 105.442389 350.429588 
L 105.442389 214.529588 
" style="fill:none;stroke:#b0b0b0;stroke-linecap:square;stroke-width:0.5;"/>
     </g>
     <g id="line2d_40">
      <g>
       <use style="stroke:#000000;stroke-width:0.8;" x="105.442389" xlink:href="#md839560a1e" y="350.429588"/>
      </g>
     </g>
     <g id="text_20">
      <!-- $\mathdefault{−0.50}$ -->
      <g transform="translate(90.387828 365.731768)scale(0.12 -0.12)">
       <use transform="scale(0.996264)" xlink:href="#CMSY10-0"/>
       <use transform="translate(77.487468 0)scale(0.996264)" xlink:href="#CMR17-30"/>
       <use transform="translate(123.177945 0)scale(0.996264)" xlink:href="#CMMI12-3a"/>
       <use transform="translate(150.275122 0)scale(0.996264)" xlink:href="#CMR17-35"/>
       <use transform="translate(195.965599 0)scale(0.996264)" xlink:href="#CMR17-30"/>
      </g>
     </g>
    </g>
    <g id="xtick_13">
     <g id="line2d_41">
      <path clip-path="url(#pcc6dca0ff8)" d="M 143.487843 350.429588 
L 143.487843 214.529588 
" style="fill:none;stroke:#b0b0b0;stroke-linecap:square;stroke-width:0.5;"/>
     </g>
     <g id="line2d_42">
      <g>
       <use style="stroke:#000000;stroke-width:0.8;" x="143.487843" xlink:href="#md839560a1e" y="350.429588"/>
      </g>
     </g>
     <g id="text_21">
      <!-- $\mathdefault{−0.25}$ -->
      <g transform="translate(128.433283 365.731768)scale(0.12 -0.12)">
       <use transform="scale(0.996264)" xlink:href="#CMSY10-0"/>
       <use transform="translate(77.487468 0)scale(0.996264)" xlink:href="#CMR17-30"/>
       <use transform="translate(123.177945 0)scale(0.996264)" xlink:href="#CMMI12-3a"/>
       <use transform="translate(150.275122 0)scale(0.996264)" xlink:href="#CMR17-32"/>
       <use transform="translate(195.965599 0)scale(0.996264)" xlink:href="#CMR17-35"/>
      </g>
     </g>
    </g>
    <g id="xtick_14">
     <g id="line2d_43">
      <path clip-path="url(#pcc6dca0ff8)" d="M 181.533298 350.429588 
L 181.533298 214.529588 
" style="fill:none;stroke:#b0b0b0;stroke-linecap:square;stroke-width:0.5;"/>
     </g>
     <g id="line2d_44">
      <g>
       <use style="stroke:#000000;stroke-width:0.8;" x="181.533298" xlink:href="#md839560a1e" y="350.429588"/>
      </g>
     </g>
     <g id="text_22">
      <!-- $\mathdefault{0.00}$ -->
      <g transform="translate(171.127982 365.731768)scale(0.12 -0.12)">
       <use transform="scale(0.996264)" xlink:href="#CMR17-30"/>
       <use transform="translate(45.690477 0)scale(0.996264)" xlink:href="#CMMI12-3a"/>
       <use transform="translate(72.787654 0)scale(0.996264)" xlink:href="#CMR17-30"/>
       <use transform="translate(118.478131 0)scale(0.996264)" xlink:href="#CMR17-30"/>
      </g>
     </g>
    </g>
    <g id="xtick_15">
     <g id="line2d_45">
      <path clip-path="url(#pcc6dca0ff8)" d="M 219.578752 350.429588 
L 219.578752 214.529588 
" style="fill:none;stroke:#b0b0b0;stroke-linecap:square;stroke-width:0.5;"/>
     </g>
     <g id="line2d_46">
      <g>
       <use style="stroke:#000000;stroke-width:0.8;" x="219.578752" xlink:href="#md839560a1e" y="350.429588"/>
      </g>
     </g>
     <g id="text_23">
      <!-- $\mathdefault{0.25}$ -->
      <g transform="translate(209.173436 365.731768)scale(0.12 -0.12)">
       <use transform="scale(0.996264)" xlink:href="#CMR17-30"/>
       <use transform="translate(45.690477 0)scale(0.996264)" xlink:href="#CMMI12-3a"/>
       <use transform="translate(72.787654 0)scale(0.996264)" xlink:href="#CMR17-32"/>
       <use transform="translate(118.478131 0)scale(0.996264)" xlink:href="#CMR17-35"/>
      </g>
     </g>
    </g>
    <g id="xtick_16">
     <g id="line2d_47">
      <path clip-path="url(#pcc6dca0ff8)" d="M 257.624207 350.429588 
L 257.624207 214.529588 
" style="fill:none;stroke:#b0b0b0;stroke-linecap:square;stroke-width:0.5;"/>
     </g>
     <g id="line2d_48">
      <g>
       <use style="stroke:#000000;stroke-width:0.8;" x="257.624207" xlink:href="#md839560a1e" y="350.429588"/>
      </g>
     </g>
     <g id="text_24">
      <!-- $\mathdefault{0.50}$ -->
      <g transform="translate(247.218891 365.731768)scale(0.12 -0.12)">
       <use transform="scale(0.996264)" xlink:href="#CMR17-30"/>
       <use transform="translate(45.690477 0)scale(0.996264)" xlink:href="#CMMI12-3a"/>
       <use transform="translate(72.787654 0)scale(0.996264)" xlink:href="#CMR17-35"/>
       <use transform="translate(118.478131 0)scale(0.996264)" xlink:href="#CMR17-30"/>
      </g>
     </g>
    </g>
    <g id="xtick_17">
     <g id="line2d_49">
      <path clip-path="url(#pcc6dca0ff8)" d="M 295.669661 350.429588 
L 295.669661 214.529588 
" style="fill:none;stroke:#b0b0b0;stroke-linecap:square;stroke-width:0.5;"/>
     </g>
     <g id="line2d_50">
      <g>
       <use style="stroke:#000000;stroke-width:0.8;" x="295.669661" xlink:href="#md839560a1e" y="350.429588"/>
      </g>
     </g>
     <g id="text_25">
      <!-- $\mathdefault{0.75}$ -->
      <g transform="translate(285.264345 365.731768)scale(0.12 -0.12)">
       <use transform="scale(0.996264)" xlink:href="#CMR17-30"/>
       <use transform="translate(45.690477 0)scale(0.996264)" xlink:href="#CMMI12-3a"/>
       <use transform="translate(72.787654 0)scale(0.996264)" xlink:href="#CMR17-37"/>
       <use transform="translate(118.478131 0)scale(0.996264)" xlink:href="#CMR17-35"/>
      </g>
     </g>
    </g>
    <g id="xtick_18">
     <g id="line2d_51">
      <path clip-path="url(#pcc6dca0ff8)" d="M 333.715116 350.429588 
L 333.715116 214.529588 
" style="fill:none;stroke:#b0b0b0;stroke-linecap:square;stroke-width:0.5;"/>
     </g>
     <g id="line2d_52">
      <g>
       <use style="stroke:#000000;stroke-width:0.8;" x="333.715116" xlink:href="#md839560a1e" y="350.429588"/>
      </g>
     </g>
     <g id="text_26">
      <!-- $\mathdefault{1.00}$ -->
      <g transform="translate(323.3098 365.731768)scale(0.12 -0.12)">
       <use transform="scale(0.996264)" xlink:href="#CMR17-31"/>
       <use transform="translate(45.690477 0)scale(0.996264)" xlink:href="#CMMI12-3a"/>
       <use transform="translate(72.787654 0)scale(0.996264)" xlink:href="#CMR17-30"/>
       <use transform="translate(118.478131 0)scale(0.996264)" xlink:href="#CMR17-30"/>
      </g>
     </g>
    </g>
   </g>
   <g id="matplotlib.axis_4">
    <g id="ytick_6">
     <g id="line2d_53">
      <path clip-path="url(#pcc6dca0ff8)" d="M 29.35148 342.879588 
L 333.715116 342.879588 
" style="fill:none;stroke:#b0b0b0;stroke-linecap:square;stroke-width:0.5;"/>
     </g>
     <g id="line2d_54">
      <g>
       <use style="stroke:#000000;stroke-width:0.8;" x="29.35148" xlink:href="#m708340ac47" y="342.879588"/>
      </g>
     </g>
     <g id="text_27">
      <!-- $\mathdefault{−4}$ -->
      <g transform="translate(7.2 347.030678)scale(0.12 -0.12)">
       <use transform="scale(0.996264)" xlink:href="#CMSY10-0"/>
       <use transform="translate(77.487468 0)scale(0.996264)" xlink:href="#CMR17-34"/>
      </g>
     </g>
    </g>
    <g id="ytick_7">
     <g id="line2d_55">
      <path clip-path="url(#pcc6dca0ff8)" d="M 29.35148 312.679588 
L 333.715116 312.679588 
" style="fill:none;stroke:#b0b0b0;stroke-linecap:square;stroke-width:0.5;"/>
     </g>
     <g id="line2d_56">
      <g>
       <use style="stroke:#000000;stroke-width:0.8;" x="29.35148" xlink:href="#m708340ac47" y="312.679588"/>
      </g>
     </g>
     <g id="text_28">
      <!-- $\mathdefault{−2}$ -->
      <g transform="translate(7.2 316.830678)scale(0.12 -0.12)">
       <use transform="scale(0.996264)" xlink:href="#CMSY10-0"/>
       <use transform="translate(77.487468 0)scale(0.996264)" xlink:href="#CMR17-32"/>
      </g>
     </g>
    </g>
    <g id="ytick_8">
     <g id="line2d_57">
      <path clip-path="url(#pcc6dca0ff8)" d="M 29.35148 282.479588 
L 333.715116 282.479588 
" style="fill:none;stroke:#b0b0b0;stroke-linecap:square;stroke-width:0.5;"/>
     </g>
     <g id="line2d_58">
      <g>
       <use style="stroke:#000000;stroke-width:0.8;" x="29.35148" xlink:href="#m708340ac47" y="282.479588"/>
      </g>
     </g>
     <g id="text_29">
      <!-- $\mathdefault{0}$ -->
      <g transform="translate(16.498489 286.630678)scale(0.12 -0.12)">
       <use transform="scale(0.996264)" xlink:href="#CMR17-30"/>
      </g>
     </g>
    </g>
    <g id="ytick_9">
     <g id="line2d_59">
      <path clip-path="url(#pcc6dca0ff8)" d="M 29.35148 252.279588 
L 333.715116 252.279588 
" style="fill:none;stroke:#b0b0b0;stroke-linecap:square;stroke-width:0.5;"/>
     </g>
     <g id="line2d_60">
      <g>
       <use style="stroke:#000000;stroke-width:0.8;" x="29.35148" xlink:href="#m708340ac47" y="252.279588"/>
      </g>
     </g>
     <g id="text_30">
      <!-- $\mathdefault{2}$ -->
      <g transform="translate(16.498489 256.430678)scale(0.12 -0.12)">
       <use transform="scale(0.996264)" xlink:href="#CMR17-32"/>
      </g>
     </g>
    </g>
    <g id="ytick_10">
     <g id="line2d_61">
      <path clip-path="url(#pcc6dca0ff8)" d="M 29.35148 222.079588 
L 333.715116 222.079588 
" style="fill:none;stroke:#b0b0b0;stroke-linecap:square;stroke-width:0.5;"/>
     </g>
     <g id="line2d_62">
      <g>
       <use style="stroke:#000000;stroke-width:0.8;" x="29.35148" xlink:href="#m708340ac47" y="222.079588"/>
      </g>
     </g>
     <g id="text_31">
      <!-- $\mathdefault{4}$ -->
      <g transform="translate(16.498489 226.230678)scale(0.12 -0.12)">
       <use transform="scale(0.996264)" xlink:href="#CMR17-34"/>
      </g>
     </g>
    </g>
   </g>
   <g id="line2d_63">
    <path clip-path="url(#pcc6dca0ff8)" d="M 29.35148 342.879588 
L 36.960571 338.995113 
L 46.09148 334.066654 
L 55.222389 328.883791 
L 65.875116 322.567793 
L 78.049661 315.070462 
L 93.267843 305.416126 
L 135.878752 278.191188 
L 148.053298 270.760539 
L 158.706025 264.521913 
L 167.836934 259.419502 
L 176.967843 254.584543 
L 184.576934 250.78795 
L 192.186025 247.226917 
L 199.795116 243.924094 
L 207.404207 240.902131 
L 213.49148 238.702 
L 219.578752 236.707713 
L 225.666025 234.930866 
L 231.753298 233.383056 
L 237.840571 232.075879 
L 243.927843 231.020932 
L 250.015116 230.229813 
L 256.102389 229.714118 
L 262.189661 229.485444 
L 266.755116 229.509271 
L 271.320571 229.705964 
L 275.886025 230.080414 
L 280.45148 230.637513 
L 285.016934 231.382155 
L 289.582389 232.31923 
L 294.147843 233.453633 
L 298.713298 234.790255 
L 303.278752 236.333988 
L 307.844207 238.089726 
L 312.409661 240.062359 
L 316.975116 242.256782 
L 321.540571 244.677886 
L 326.106025 247.330563 
L 330.67148 250.219707 
L 333.715116 252.279588 
L 333.715116 252.279588 
" style="fill:none;stroke:#808080;stroke-linecap:square;"/>
   </g>
   <g id="line2d_64">
    <path clip-path="url(#pcc6dca0ff8)" d="M 29.35148 313.550612 
L 32.395116 318.515709 
L 33.916934 319.819558 
L 35.438752 322.635988 
L 36.960571 324.615422 
L 40.004207 326.961882 
L 41.526025 329.377267 
L 43.047843 331.479628 
L 44.569661 333.111779 
L 46.09148 330.881395 
L 47.613298 330.771007 
L 49.135116 330.281636 
L 50.656934 327.358666 
L 52.178752 326.931855 
L 53.700571 324.566762 
L 55.222389 325.054833 
L 56.744207 323.726033 
L 58.266025 323.939891 
L 59.787843 322.203926 
L 61.309661 320.844912 
L 62.83148 319.921792 
L 64.353298 321.639881 
L 65.875116 321.712147 
L 67.396934 321.262615 
L 70.440571 322.61125 
L 73.484207 318.464194 
L 75.006025 318.668781 
L 76.527843 319.736487 
L 78.049661 318.77956 
L 79.57148 315.839179 
L 81.093298 316.197606 
L 82.615116 314.874056 
L 87.180571 313.504833 
L 88.702389 312.170918 
L 90.224207 310.216105 
L 91.746025 309.443934 
L 93.267843 309.505461 
L 94.789661 306.731911 
L 96.31148 304.349859 
L 97.833298 304.054615 
L 99.355116 302.515684 
L 100.876934 300.538013 
L 102.398752 300.376912 
L 103.920571 300.406709 
L 105.442389 298.475536 
L 106.964207 294.863149 
L 108.486025 293.390604 
L 110.007843 294.73014 
L 111.529661 292.894385 
L 113.05148 292.742848 
L 114.573298 291.948754 
L 116.095116 291.479738 
L 117.616934 289.116271 
L 119.138752 289.35231 
L 120.660571 289.376166 
L 122.182389 288.515315 
L 123.704207 285.687902 
L 125.226025 284.595828 
L 126.747843 283.21241 
L 128.269661 281.401203 
L 131.313298 278.338918 
L 135.878752 276.079385 
L 137.400571 276.262154 
L 138.922389 275.760302 
L 140.444207 273.296035 
L 141.966025 272.366074 
L 143.487843 268.483988 
L 145.009661 267.394945 
L 146.53148 267.536744 
L 148.053298 269.022371 
L 149.575116 267.22332 
L 151.096934 265.898297 
L 152.618752 264.083044 
L 154.140571 263.964126 
L 155.662389 264.305143 
L 157.184207 263.51435 
L 158.706025 262.22129 
L 160.227843 261.155002 
L 161.749661 260.928736 
L 164.793298 260.132329 
L 166.315116 260.967916 
L 167.836934 259.86101 
L 169.358752 260.063776 
L 170.880571 259.146231 
L 172.402389 257.459373 
L 173.924207 257.975332 
L 175.446025 256.78179 
L 176.967843 253.454184 
L 178.489661 250.406461 
L 180.01148 249.547861 
L 181.533298 247.328452 
L 183.055116 247.960762 
L 186.098752 245.649888 
L 187.620571 245.284261 
L 189.142389 244.519337 
L 190.664207 243.420804 
L 192.186025 243.229 
L 193.707843 241.572482 
L 195.229661 239.651784 
L 196.75148 238.32395 
L 198.273298 237.179959 
L 199.795116 234.694011 
L 201.316934 234.811747 
L 202.838752 235.930859 
L 204.360571 236.368609 
L 205.882389 236.562647 
L 207.404207 237.164158 
L 208.926025 236.304235 
L 210.447843 237.067133 
L 211.969661 238.424791 
L 213.49148 237.855324 
L 215.013298 237.100806 
L 216.535116 236.591347 
L 218.056934 237.266161 
L 219.578752 238.781816 
L 221.100571 240.886031 
L 222.622389 239.564326 
L 224.144207 239.204725 
L 225.666025 239.981223 
L 227.187843 238.654656 
L 228.709661 237.809481 
L 230.23148 238.175694 
L 231.753298 237.736852 
L 233.275116 237.421104 
L 234.796934 236.77797 
L 236.318752 235.738546 
L 237.840571 234.448789 
L 239.362389 235.409946 
L 240.884207 235.117311 
L 242.406025 235.679319 
L 243.927843 235.852295 
L 245.449661 237.221541 
L 246.97148 237.926341 
L 250.015116 235.272292 
L 251.536934 232.347074 
L 253.058752 234.166464 
L 254.580571 234.56656 
L 256.102389 234.208325 
L 257.624207 233.033321 
L 259.146025 232.764991 
L 262.189661 230.802505 
L 263.71148 230.302346 
L 265.233298 229.162131 
L 266.755116 230.528406 
L 268.276934 231.291376 
L 269.798752 231.100146 
L 271.320571 229.947824 
L 272.842389 227.83987 
L 274.364207 227.798096 
L 275.886025 228.53289 
L 277.407843 227.189627 
L 278.929661 228.421124 
L 280.45148 227.419153 
L 281.973298 229.145192 
L 283.495116 228.317359 
L 285.016934 228.733817 
L 286.538752 228.143275 
L 288.060571 229.732421 
L 289.582389 231.040602 
L 291.104207 233.157873 
L 292.626025 233.74612 
L 294.147843 233.851282 
L 295.669661 236.495324 
L 297.19148 235.471667 
L 298.713298 236.345662 
L 300.235116 235.900337 
L 301.756934 238.746427 
L 303.278752 238.865696 
L 304.800571 238.649459 
L 306.322389 237.382447 
L 307.844207 238.918366 
L 309.366025 239.107867 
L 310.887843 240.195642 
L 312.409661 240.903951 
L 313.93148 242.838378 
L 315.453298 243.477973 
L 316.975116 245.710243 
L 318.496934 245.504057 
L 320.018752 246.593952 
L 321.540571 248.106646 
L 324.584207 252.6945 
L 326.106025 253.331991 
L 327.627843 255.76783 
L 329.149661 257.584665 
L 330.67148 260.470671 
L 332.193298 260.739641 
L 333.715116 264.218547 
L 333.715116 264.218547 
" style="fill:none;stroke:#2ca02c;stroke-linecap:square;stroke-width:1.5;"/>
   </g>
   <g id="patch_9">
    <path d="M 29.35148 350.429588 
L 29.35148 214.529588 
" style="fill:none;stroke:#000000;stroke-linecap:square;stroke-linejoin:miter;stroke-width:0.5;"/>
   </g>
   <g id="patch_10">
    <path d="M 333.715116 350.429588 
L 333.715116 214.529588 
" style="fill:none;stroke:#000000;stroke-linecap:square;stroke-linejoin:miter;stroke-width:0.5;"/>
   </g>
   <g id="patch_11">
    <path d="M 29.35148 350.429588 
L 333.715116 350.429588 
" style="fill:none;stroke:#000000;stroke-linecap:square;stroke-linejoin:miter;stroke-width:0.5;"/>
   </g>
   <g id="patch_12">
    <path d="M 29.35148 214.529588 
L 333.715116 214.529588 
" style="fill:none;stroke:#000000;stroke-linecap:square;stroke-linejoin:miter;stroke-width:0.5;"/>
   </g>
   <g id="text_32">
    <!-- Filtre moyenneur ($N=20$) -->
    <g transform="translate(88.841965 208.529588)scale(0.16 -0.16)">
     <defs>
      <path d="M 3482 4325 
L 326 4325 
L 326 4160 
C 768 4160 838 4160 838 3874 
L 838 446 
C 838 160 768 160 326 160 
L 326 0 
C 512 0 870 0 1069 0 
C 1331 0 1638 0 1901 0 
L 1901 160 
L 1760 160 
C 1274 160 1261 223 1261 452 
L 1261 2075 
L 1837 2075 
C 2432 2075 2490 1865 2490 1332 
L 2605 1332 
L 2605 2987 
L 2490 2987 
C 2490 2450 2432 2240 1837 2240 
L 1261 2240 
L 1261 3911 
C 1261 4128 1274 4160 1530 4160 
L 2355 4160 
C 3322 4160 3430 3765 3520 2916 
L 3635 2916 
L 3482 4325 
z
" id="CMR17-46" transform="scale(0.015625)"/>
      <path d="M 979 4396 
L 218 4326 
L 218 4160 
C 595 4160 653 4122 653 3817 
L 653 426 
C 653 184 627 153 218 153 
L 218 -13 
C 371 0 653 0 813 0 
C 979 0 1261 0 1414 -13 
L 1414 153 
C 1005 153 979 178 979 426 
L 979 4396 
z
" id="CMR17-6c" transform="scale(0.015625)"/>
      <path d="M 4326 1933 
C 4326 2252 4269 2790 3507 2790 
C 3072 2790 2771 2496 2656 2151 
L 2650 2151 
C 2573 2676 2195 2790 1837 2790 
C 1331 2790 1069 2400 973 2144 
L 966 2144 
L 966 2790 
L 211 2720 
L 211 2554 
C 589 2554 646 2515 646 2208 
L 646 428 
C 646 184 621 153 211 153 
L 211 -13 
C 365 0 646 0 813 0 
C 979 0 1267 0 1421 -13 
L 1421 153 
C 1011 153 986 178 986 428 
L 986 1658 
C 986 2247 1344 2688 1792 2688 
C 2266 2688 2317 2266 2317 1958 
L 2317 428 
C 2317 184 2291 153 1882 153 
L 1882 -13 
C 2035 0 2317 0 2483 0 
C 2650 0 2938 0 3091 -13 
L 3091 153 
C 2682 153 2656 178 2656 428 
L 2656 1658 
C 2656 2247 3014 2688 3462 2688 
C 3936 2688 3987 2266 3987 1958 
L 3987 428 
C 3987 184 3962 153 3552 153 
L 3552 -13 
C 3706 0 3987 0 4154 0 
C 4320 0 4608 0 4762 -13 
L 4762 153 
C 4352 153 4326 178 4326 428 
L 4326 1933 
z
" id="CMR17-6d" transform="scale(0.015625)"/>
      <path d="M 2496 2197 
C 2656 2586 2944 2586 3034 2586 
L 3034 2752 
C 2912 2752 2752 2752 2630 2752 
C 2496 2752 2285 2752 2157 2758 
L 2157 2592 
C 2400 2573 2406 2394 2406 2343 
C 2406 2280 2394 2248 2362 2171 
L 1664 449 
L 902 2306 
C 870 2382 870 2426 870 2433 
C 870 2573 1018 2586 1171 2586 
L 1171 2758 
C 1018 2752 742 2752 582 2752 
C 410 2752 205 2752 64 2758 
L 64 2586 
C 410 2586 448 2554 531 2350 
L 1485 15 
C 1197 -738 1030 -1178 627 -1178 
C 557 -1178 397 -1159 282 -1044 
C 429 -1031 493 -942 493 -833 
C 493 -725 416 -629 288 -629 
C 147 -629 77 -725 77 -840 
C 77 -1095 339 -1280 627 -1280 
C 998 -1280 1229 -922 1357 -604 
L 2496 2197 
z
" id="CMR17-79" transform="scale(0.015625)"/>
      <path d="M 1882 2693 
L 1882 2528 
C 2259 2528 2317 2489 2317 2186 
L 2317 1032 
C 2317 500 2029 38 1555 38 
C 1030 38 986 348 986 678 
L 986 2763 
L 211 2693 
L 211 2528 
C 467 2528 640 2528 646 2274 
L 646 1058 
C 646 633 646 361 813 183 
C 896 101 1056 -64 1517 -64 
C 2061 -64 2272 377 2323 506 
L 2330 506 
L 2330 -63 
L 3091 -63 
L 3091 128 
C 2714 128 2656 166 2656 473 
L 2656 2763 
L 1882 2693 
z
" id="CMR17-75" transform="scale(0.015625)"/>
      <path d="M 1958 -1561 
C 1958 -1555 1958 -1542 1939 -1523 
C 1645 -1224 858 -407 858 1581 
C 858 3569 1632 4379 1946 4697 
C 1946 4704 1958 4717 1958 4736 
C 1958 4755 1939 4768 1914 4768 
C 1843 4768 1299 4296 986 3594 
C 666 2887 576 2199 576 1588 
C 576 1128 621 351 1005 -471 
C 1312 -1135 1837 -1600 1914 -1600 
C 1946 -1600 1958 -1587 1958 -1561 
z
" id="CMR17-28" transform="scale(0.015625)"/>
      <path d="M 4736 3698 
C 4806 3974 4909 4166 5395 4166 
C 5414 4166 5491 4166 5491 4279 
C 5491 4352 5434 4352 5408 4352 
C 5280 4352 4954 4352 4826 4352 
L 4518 4352 
C 4429 4352 4314 4352 4224 4352 
C 4186 4352 4109 4352 4109 4230 
C 4109 4166 4160 4166 4205 4166 
C 4589 4166 4614 4019 4614 3903 
C 4614 3846 4608 3826 4589 3737 
L 3866 850 
L 2496 4249 
C 2451 4352 2445 4352 2304 4352 
L 1523 4352 
C 1395 4352 1338 4352 1338 4230 
C 1338 4166 1382 4166 1504 4166 
C 1536 4166 1914 4166 1914 4115 
C 1914 4102 1901 4051 1894 4032 
L 1043 635 
C 966 320 813 186 390 186 
C 358 186 294 186 294 67 
C 294 0 358 0 378 0 
C 506 0 832 0 960 0 
L 1267 0 
C 1357 0 1466 0 1555 0 
C 1600 0 1670 0 1670 122 
C 1670 180 1606 186 1581 186 
C 1370 186 1165 224 1165 454 
C 1165 505 1178 562 1190 613 
L 2054 4032 
C 2093 3968 2093 3956 2118 3898 
L 3642 115 
C 3674 38 3686 0 3744 0 
C 3808 0 3814 19 3840 128 
L 4736 3698 
z
" id="CMMI12-4e" transform="scale(0.015625)"/>
      <path d="M 4115 2017 
C 4211 2017 4307 2017 4307 2125 
C 4307 2240 4198 2240 4090 2240 
L 512 2240 
C 403 2240 294 2240 294 2125 
C 294 2017 390 2017 486 2017 
L 4115 2017 
z
M 4090 896 
C 4198 896 4307 896 4307 1011 
C 4307 1119 4211 1119 4115 1119 
L 486 1119 
C 390 1119 294 1119 294 1011 
C 294 896 403 896 512 896 
L 4090 896 
z
" id="CMR17-3d" transform="scale(0.015625)"/>
      <path d="M 1683 1581 
C 1683 2040 1638 2817 1254 3639 
C 947 4303 422 4768 346 4768 
C 326 4768 301 4761 301 4729 
C 301 4717 307 4710 314 4697 
C 621 4378 1402 3568 1402 1584 
C 1402 -407 627 -1217 314 -1537 
C 307 -1549 301 -1556 301 -1568 
C 301 -1600 326 -1600 346 -1600 
C 416 -1600 960 -1128 1274 -426 
C 1594 281 1683 969 1683 1581 
z
" id="CMR17-29" transform="scale(0.015625)"/>
     </defs>
     <use transform="scale(0.996264)" xlink:href="#CMR17-46"/>
     <use transform="translate(59.983847 0)scale(0.996264)" xlink:href="#CMR17-69"/>
     <use transform="translate(84.854905 0)scale(0.996264)" xlink:href="#CMR17-6c"/>
     <use transform="translate(109.725964 0)scale(0.996264)" xlink:href="#CMR17-74"/>
     <use transform="translate(145.006731 0)scale(0.996264)" xlink:href="#CMR17-72"/>
     <use transform="translate(180.287499 0)scale(0.996264)" xlink:href="#CMR17-65"/>
     <use transform="translate(250.849126 0)scale(0.996264)" xlink:href="#CMR17-6d"/>
     <use transform="translate(327.768716 0)scale(0.996264)" xlink:href="#CMR17-6f"/>
     <use transform="translate(370.856739 0)scale(0.996264)" xlink:href="#CMR17-79"/>
     <use transform="translate(416.547201 0)scale(0.996264)" xlink:href="#CMR17-65"/>
     <use transform="translate(457.032861 0)scale(0.996264)" xlink:href="#CMR17-6e"/>
     <use transform="translate(507.928231 0)scale(0.996264)" xlink:href="#CMR17-6e"/>
     <use transform="translate(558.823601 0)scale(0.996264)" xlink:href="#CMR17-65"/>
     <use transform="translate(599.309261 0)scale(0.996264)" xlink:href="#CMR17-75"/>
     <use transform="translate(650.204631 0)scale(0.996264)" xlink:href="#CMR17-72"/>
     <use transform="translate(715.561365 0)scale(0.996264)" xlink:href="#CMR17-28"/>
     <use transform="translate(750.842133 0)scale(0.996264)" xlink:href="#CMMI12-4e"/>
     <use transform="translate(867.037914 0)scale(0.996264)" xlink:href="#CMR17-3d"/>
     <use transform="translate(966.426712 0)scale(0.996264)" xlink:href="#CMR17-32"/>
     <use transform="translate(1012.117189 0)scale(0.996264)" xlink:href="#CMR17-30"/>
     <use transform="translate(1057.807666 0)scale(0.996264)" xlink:href="#CMR17-29"/>
    </g>
   </g>
   <g id="legend_2">
    <g id="patch_13">
     <path d="M 39.15148 264.753645 
L 146.24247 264.753645 
Q 149.04247 264.753645 149.04247 261.953645 
L 149.04247 224.329588 
Q 149.04247 221.529588 146.24247 221.529588 
L 39.15148 221.529588 
Q 36.35148 221.529588 36.35148 224.329588 
L 36.35148 261.953645 
Q 36.35148 264.753645 39.15148 264.753645 
z
" style="fill:#ffffff;opacity:0.8;stroke:#cccccc;stroke-linejoin:miter;"/>
    </g>
    <g id="line2d_65">
     <path d="M 41.95148 232.029588 
L 69.95148 232.029588 
" style="fill:none;stroke:#808080;stroke-linecap:square;"/>
    </g>
    <g id="line2d_66"/>
    <g id="text_33">
     <!-- $x$ -->
     <g transform="translate(81.15148 236.929588)scale(0.14 -0.14)">
      <use transform="scale(0.996264)" xlink:href="#CMMI12-78"/>
     </g>
    </g>
    <g id="line2d_67">
     <path d="M 41.95148 251.541617 
L 69.95148 251.541617 
" style="fill:none;stroke:#2ca02c;stroke-linecap:square;stroke-width:1.5;"/>
    </g>
    <g id="line2d_68"/>
    <g id="text_34">
     <!-- estimation -->
     <g transform="translate(81.15148 256.441617)scale(0.14 -0.14)">
      <use transform="scale(0.996264)" xlink:href="#CMR17-65"/>
      <use transform="translate(40.48566 0)scale(0.996264)" xlink:href="#CMR17-73"/>
      <use transform="translate(76.286998 0)scale(0.996264)" xlink:href="#CMR17-74"/>
      <use transform="translate(111.567766 0)scale(0.996264)" xlink:href="#CMR17-69"/>
      <use transform="translate(136.438824 0)scale(0.996264)" xlink:href="#CMR17-6d"/>
      <use transform="translate(213.358414 0)scale(0.996264)" xlink:href="#CMR17-61"/>
      <use transform="translate(259.048891 0)scale(0.996264)" xlink:href="#CMR17-74"/>
      <use transform="translate(294.329659 0)scale(0.996264)" xlink:href="#CMR17-69"/>
      <use transform="translate(319.200718 0)scale(0.996264)" xlink:href="#CMR17-6f"/>
      <use transform="translate(364.891195 0)scale(0.996264)" xlink:href="#CMR17-6e"/>
     </g>
    </g>
   </g>
  </g>
  <g id="axes_3">
   <g id="patch_14">
    <path d="M 394.587843 350.429588 
L 698.95148 350.429588 
L 698.95148 214.529588 
L 394.587843 214.529588 
z
" style="fill:#ffffff;"/>
   </g>
   <g id="matplotlib.axis_5">
    <g id="xtick_19">
     <g id="line2d_69">
      <path clip-path="url(#p1a801e7f1e)" d="M 394.587843 350.429588 
L 394.587843 214.529588 
" style="fill:none;stroke:#b0b0b0;stroke-linecap:square;stroke-width:0.5;"/>
     </g>
     <g id="line2d_70">
      <g>
       <use style="stroke:#000000;stroke-width:0.8;" x="394.587843" xlink:href="#md839560a1e" y="350.429588"/>
      </g>
     </g>
     <g id="text_35">
      <!-- $\mathdefault{−1.00}$ -->
      <g transform="translate(379.533283 365.731768)scale(0.12 -0.12)">
       <use transform="scale(0.996264)" xlink:href="#CMSY10-0"/>
       <use transform="translate(77.487468 0)scale(0.996264)" xlink:href="#CMR17-31"/>
       <use transform="translate(123.177945 0)scale(0.996264)" xlink:href="#CMMI12-3a"/>
       <use transform="translate(150.275122 0)scale(0.996264)" xlink:href="#CMR17-30"/>
       <use transform="translate(195.965599 0)scale(0.996264)" xlink:href="#CMR17-30"/>
      </g>
     </g>
    </g>
    <g id="xtick_20">
     <g id="line2d_71">
      <path clip-path="url(#p1a801e7f1e)" d="M 432.633298 350.429588 
L 432.633298 214.529588 
" style="fill:none;stroke:#b0b0b0;stroke-linecap:square;stroke-width:0.5;"/>
     </g>
     <g id="line2d_72">
      <g>
       <use style="stroke:#000000;stroke-width:0.8;" x="432.633298" xlink:href="#md839560a1e" y="350.429588"/>
      </g>
     </g>
     <g id="text_36">
      <!-- $\mathdefault{−0.75}$ -->
      <g transform="translate(417.578737 365.731768)scale(0.12 -0.12)">
       <use transform="scale(0.996264)" xlink:href="#CMSY10-0"/>
       <use transform="translate(77.487468 0)scale(0.996264)" xlink:href="#CMR17-30"/>
       <use transform="translate(123.177945 0)scale(0.996264)" xlink:href="#CMMI12-3a"/>
       <use transform="translate(150.275122 0)scale(0.996264)" xlink:href="#CMR17-37"/>
       <use transform="translate(195.965599 0)scale(0.996264)" xlink:href="#CMR17-35"/>
      </g>
     </g>
    </g>
    <g id="xtick_21">
     <g id="line2d_73">
      <path clip-path="url(#p1a801e7f1e)" d="M 470.678752 350.429588 
L 470.678752 214.529588 
" style="fill:none;stroke:#b0b0b0;stroke-linecap:square;stroke-width:0.5;"/>
     </g>
     <g id="line2d_74">
      <g>
       <use style="stroke:#000000;stroke-width:0.8;" x="470.678752" xlink:href="#md839560a1e" y="350.429588"/>
      </g>
     </g>
     <g id="text_37">
      <!-- $\mathdefault{−0.50}$ -->
      <g transform="translate(455.624192 365.731768)scale(0.12 -0.12)">
       <use transform="scale(0.996264)" xlink:href="#CMSY10-0"/>
       <use transform="translate(77.487468 0)scale(0.996264)" xlink:href="#CMR17-30"/>
       <use transform="translate(123.177945 0)scale(0.996264)" xlink:href="#CMMI12-3a"/>
       <use transform="translate(150.275122 0)scale(0.996264)" xlink:href="#CMR17-35"/>
       <use transform="translate(195.965599 0)scale(0.996264)" xlink:href="#CMR17-30"/>
      </g>
     </g>
    </g>
    <g id="xtick_22">
     <g id="line2d_75">
      <path clip-path="url(#p1a801e7f1e)" d="M 508.724207 350.429588 
L 508.724207 214.529588 
" style="fill:none;stroke:#b0b0b0;stroke-linecap:square;stroke-width:0.5;"/>
     </g>
     <g id="line2d_76">
      <g>
       <use style="stroke:#000000;stroke-width:0.8;" x="508.724207" xlink:href="#md839560a1e" y="350.429588"/>
      </g>
     </g>
     <g id="text_38">
      <!-- $\mathdefault{−0.25}$ -->
      <g transform="translate(493.669646 365.731768)scale(0.12 -0.12)">
       <use transform="scale(0.996264)" xlink:href="#CMSY10-0"/>
       <use transform="translate(77.487468 0)scale(0.996264)" xlink:href="#CMR17-30"/>
       <use transform="translate(123.177945 0)scale(0.996264)" xlink:href="#CMMI12-3a"/>
       <use transform="translate(150.275122 0)scale(0.996264)" xlink:href="#CMR17-32"/>
       <use transform="translate(195.965599 0)scale(0.996264)" xlink:href="#CMR17-35"/>
      </g>
     </g>
    </g>
    <g id="xtick_23">
     <g id="line2d_77">
      <path clip-path="url(#p1a801e7f1e)" d="M 546.769661 350.429588 
L 546.769661 214.529588 
" style="fill:none;stroke:#b0b0b0;stroke-linecap:square;stroke-width:0.5;"/>
     </g>
     <g id="line2d_78">
      <g>
       <use style="stroke:#000000;stroke-width:0.8;" x="546.769661" xlink:href="#md839560a1e" y="350.429588"/>
      </g>
     </g>
     <g id="text_39">
      <!-- $\mathdefault{0.00}$ -->
      <g transform="translate(536.364345 365.731768)scale(0.12 -0.12)">
       <use transform="scale(0.996264)" xlink:href="#CMR17-30"/>
       <use transform="translate(45.690477 0)scale(0.996264)" xlink:href="#CMMI12-3a"/>
       <use transform="translate(72.787654 0)scale(0.996264)" xlink:href="#CMR17-30"/>
       <use transform="translate(118.478131 0)scale(0.996264)" xlink:href="#CMR17-30"/>
      </g>
     </g>
    </g>
    <g id="xtick_24">
     <g id="line2d_79">
      <path clip-path="url(#p1a801e7f1e)" d="M 584.815116 350.429588 
L 584.815116 214.529588 
" style="fill:none;stroke:#b0b0b0;stroke-linecap:square;stroke-width:0.5;"/>
     </g>
     <g id="line2d_80">
      <g>
       <use style="stroke:#000000;stroke-width:0.8;" x="584.815116" xlink:href="#md839560a1e" y="350.429588"/>
      </g>
     </g>
     <g id="text_40">
      <!-- $\mathdefault{0.25}$ -->
      <g transform="translate(574.4098 365.731768)scale(0.12 -0.12)">
       <use transform="scale(0.996264)" xlink:href="#CMR17-30"/>
       <use transform="translate(45.690477 0)scale(0.996264)" xlink:href="#CMMI12-3a"/>
       <use transform="translate(72.787654 0)scale(0.996264)" xlink:href="#CMR17-32"/>
       <use transform="translate(118.478131 0)scale(0.996264)" xlink:href="#CMR17-35"/>
      </g>
     </g>
    </g>
    <g id="xtick_25">
     <g id="line2d_81">
      <path clip-path="url(#p1a801e7f1e)" d="M 622.860571 350.429588 
L 622.860571 214.529588 
" style="fill:none;stroke:#b0b0b0;stroke-linecap:square;stroke-width:0.5;"/>
     </g>
     <g id="line2d_82">
      <g>
       <use style="stroke:#000000;stroke-width:0.8;" x="622.860571" xlink:href="#md839560a1e" y="350.429588"/>
      </g>
     </g>
     <g id="text_41">
      <!-- $\mathdefault{0.50}$ -->
      <g transform="translate(612.455255 365.731768)scale(0.12 -0.12)">
       <use transform="scale(0.996264)" xlink:href="#CMR17-30"/>
       <use transform="translate(45.690477 0)scale(0.996264)" xlink:href="#CMMI12-3a"/>
       <use transform="translate(72.787654 0)scale(0.996264)" xlink:href="#CMR17-35"/>
       <use transform="translate(118.478131 0)scale(0.996264)" xlink:href="#CMR17-30"/>
      </g>
     </g>
    </g>
    <g id="xtick_26">
     <g id="line2d_83">
      <path clip-path="url(#p1a801e7f1e)" d="M 660.906025 350.429588 
L 660.906025 214.529588 
" style="fill:none;stroke:#b0b0b0;stroke-linecap:square;stroke-width:0.5;"/>
     </g>
     <g id="line2d_84">
      <g>
       <use style="stroke:#000000;stroke-width:0.8;" x="660.906025" xlink:href="#md839560a1e" y="350.429588"/>
      </g>
     </g>
     <g id="text_42">
      <!-- $\mathdefault{0.75}$ -->
      <g transform="translate(650.500709 365.731768)scale(0.12 -0.12)">
       <use transform="scale(0.996264)" xlink:href="#CMR17-30"/>
       <use transform="translate(45.690477 0)scale(0.996264)" xlink:href="#CMMI12-3a"/>
       <use transform="translate(72.787654 0)scale(0.996264)" xlink:href="#CMR17-37"/>
       <use transform="translate(118.478131 0)scale(0.996264)" xlink:href="#CMR17-35"/>
      </g>
     </g>
    </g>
    <g id="xtick_27">
     <g id="line2d_85">
      <path clip-path="url(#p1a801e7f1e)" d="M 698.95148 350.429588 
L 698.95148 214.529588 
" style="fill:none;stroke:#b0b0b0;stroke-linecap:square;stroke-width:0.5;"/>
     </g>
     <g id="line2d_86">
      <g>
       <use style="stroke:#000000;stroke-width:0.8;" x="698.95148" xlink:href="#md839560a1e" y="350.429588"/>
      </g>
     </g>
     <g id="text_43">
      <!-- $\mathdefault{1.00}$ -->
      <g transform="translate(688.546164 365.731768)scale(0.12 -0.12)">
       <use transform="scale(0.996264)" xlink:href="#CMR17-31"/>
       <use transform="translate(45.690477 0)scale(0.996264)" xlink:href="#CMMI12-3a"/>
       <use transform="translate(72.787654 0)scale(0.996264)" xlink:href="#CMR17-30"/>
       <use transform="translate(118.478131 0)scale(0.996264)" xlink:href="#CMR17-30"/>
      </g>
     </g>
    </g>
   </g>
   <g id="matplotlib.axis_6">
    <g id="ytick_11">
     <g id="line2d_87">
      <path clip-path="url(#p1a801e7f1e)" d="M 394.587843 342.879588 
L 698.95148 342.879588 
" style="fill:none;stroke:#b0b0b0;stroke-linecap:square;stroke-width:0.5;"/>
     </g>
     <g id="line2d_88">
      <g>
       <use style="stroke:#000000;stroke-width:0.8;" x="394.587843" xlink:href="#m708340ac47" y="342.879588"/>
      </g>
     </g>
     <g id="text_44">
      <!-- $\mathdefault{−4}$ -->
      <g transform="translate(372.436364 347.030678)scale(0.12 -0.12)">
       <use transform="scale(0.996264)" xlink:href="#CMSY10-0"/>
       <use transform="translate(77.487468 0)scale(0.996264)" xlink:href="#CMR17-34"/>
      </g>
     </g>
    </g>
    <g id="ytick_12">
     <g id="line2d_89">
      <path clip-path="url(#p1a801e7f1e)" d="M 394.587843 312.679588 
L 698.95148 312.679588 
" style="fill:none;stroke:#b0b0b0;stroke-linecap:square;stroke-width:0.5;"/>
     </g>
     <g id="line2d_90">
      <g>
       <use style="stroke:#000000;stroke-width:0.8;" x="394.587843" xlink:href="#m708340ac47" y="312.679588"/>
      </g>
     </g>
     <g id="text_45">
      <!-- $\mathdefault{−2}$ -->
      <g transform="translate(372.436364 316.830678)scale(0.12 -0.12)">
       <use transform="scale(0.996264)" xlink:href="#CMSY10-0"/>
       <use transform="translate(77.487468 0)scale(0.996264)" xlink:href="#CMR17-32"/>
      </g>
     </g>
    </g>
    <g id="ytick_13">
     <g id="line2d_91">
      <path clip-path="url(#p1a801e7f1e)" d="M 394.587843 282.479588 
L 698.95148 282.479588 
" style="fill:none;stroke:#b0b0b0;stroke-linecap:square;stroke-width:0.5;"/>
     </g>
     <g id="line2d_92">
      <g>
       <use style="stroke:#000000;stroke-width:0.8;" x="394.587843" xlink:href="#m708340ac47" y="282.479588"/>
      </g>
     </g>
     <g id="text_46">
      <!-- $\mathdefault{0}$ -->
      <g transform="translate(381.734853 286.630678)scale(0.12 -0.12)">
       <use transform="scale(0.996264)" xlink:href="#CMR17-30"/>
      </g>
     </g>
    </g>
    <g id="ytick_14">
     <g id="line2d_93">
      <path clip-path="url(#p1a801e7f1e)" d="M 394.587843 252.279588 
L 698.95148 252.279588 
" style="fill:none;stroke:#b0b0b0;stroke-linecap:square;stroke-width:0.5;"/>
     </g>
     <g id="line2d_94">
      <g>
       <use style="stroke:#000000;stroke-width:0.8;" x="394.587843" xlink:href="#m708340ac47" y="252.279588"/>
      </g>
     </g>
     <g id="text_47">
      <!-- $\mathdefault{2}$ -->
      <g transform="translate(381.734853 256.430678)scale(0.12 -0.12)">
       <use transform="scale(0.996264)" xlink:href="#CMR17-32"/>
      </g>
     </g>
    </g>
    <g id="ytick_15">
     <g id="line2d_95">
      <path clip-path="url(#p1a801e7f1e)" d="M 394.587843 222.079588 
L 698.95148 222.079588 
" style="fill:none;stroke:#b0b0b0;stroke-linecap:square;stroke-width:0.5;"/>
     </g>
     <g id="line2d_96">
      <g>
       <use style="stroke:#000000;stroke-width:0.8;" x="394.587843" xlink:href="#m708340ac47" y="222.079588"/>
      </g>
     </g>
     <g id="text_48">
      <!-- $\mathdefault{4}$ -->
      <g transform="translate(381.734853 226.230678)scale(0.12 -0.12)">
       <use transform="scale(0.996264)" xlink:href="#CMR17-34"/>
      </g>
     </g>
    </g>
   </g>
   <g id="line2d_97">
    <path clip-path="url(#p1a801e7f1e)" d="M 394.587843 342.879588 
L 402.196934 338.995113 
L 411.327843 334.066654 
L 420.458752 328.883791 
L 431.11148 322.567793 
L 443.286025 315.070462 
L 458.504207 305.416126 
L 501.115116 278.191188 
L 513.289661 270.760539 
L 523.942389 264.521913 
L 533.073298 259.419502 
L 542.204207 254.584543 
L 549.813298 250.78795 
L 557.422389 247.226917 
L 565.03148 243.924094 
L 572.640571 240.902131 
L 578.727843 238.702 
L 584.815116 236.707713 
L 590.902389 234.930866 
L 596.989661 233.383056 
L 603.076934 232.075879 
L 609.164207 231.020932 
L 615.25148 230.229813 
L 621.338752 229.714118 
L 627.426025 229.485444 
L 631.99148 229.509271 
L 636.556934 229.705964 
L 641.122389 230.080414 
L 645.687843 230.637513 
L 650.253298 231.382155 
L 654.818752 232.31923 
L 659.384207 233.453633 
L 663.949661 234.790255 
L 668.515116 236.333988 
L 673.080571 238.089726 
L 677.646025 240.062359 
L 682.21148 242.256782 
L 686.776934 244.677886 
L 691.342389 247.330563 
L 695.907843 250.219707 
L 698.95148 252.279588 
L 698.95148 252.279588 
" style="fill:none;stroke:#808080;stroke-linecap:square;"/>
   </g>
   <g id="line2d_98">
    <path clip-path="url(#p1a801e7f1e)" d="M 394.587843 355.908479 
L 403.718752 346.844341 
L 412.849661 338.131832 
L 421.980571 329.770953 
L 431.11148 321.761704 
L 438.720571 315.355936 
L 446.329661 309.194355 
L 453.938752 303.276962 
L 461.547843 297.603756 
L 469.156934 292.174737 
L 476.766025 286.989905 
L 484.375116 282.049261 
L 491.984207 277.352804 
L 499.593298 272.900535 
L 507.202389 268.692453 
L 514.81148 264.728558 
L 522.420571 261.008851 
L 530.029661 257.533331 
L 537.638752 254.301998 
L 545.247843 251.314853 
L 552.856934 248.571895 
L 560.466025 246.073124 
L 568.075116 243.81854 
L 575.684207 241.808144 
L 583.293298 240.041936 
L 590.902389 238.519915 
L 598.51148 237.242081 
L 606.120571 236.208434 
L 613.729661 235.418975 
L 621.338752 234.873703 
L 628.947843 234.572618 
L 636.556934 234.515721 
L 644.166025 234.703011 
L 651.775116 235.134489 
L 659.384207 235.810153 
L 666.993298 236.730005 
L 674.602389 237.894045 
L 682.21148 239.302272 
L 689.820571 240.954686 
L 697.429661 242.851287 
L 698.95148 243.25991 
L 698.95148 243.25991 
" style="fill:none;stroke:#2ca02c;stroke-linecap:square;stroke-width:1.5;"/>
   </g>
   <g id="patch_15">
    <path d="M 394.587843 350.429588 
L 394.587843 214.529588 
" style="fill:none;stroke:#000000;stroke-linecap:square;stroke-linejoin:miter;stroke-width:0.5;"/>
   </g>
   <g id="patch_16">
    <path d="M 698.95148 350.429588 
L 698.95148 214.529588 
" style="fill:none;stroke:#000000;stroke-linecap:square;stroke-linejoin:miter;stroke-width:0.5;"/>
   </g>
   <g id="patch_17">
    <path d="M 394.587843 350.429588 
L 698.95148 350.429588 
" style="fill:none;stroke:#000000;stroke-linecap:square;stroke-linejoin:miter;stroke-width:0.5;"/>
   </g>
   <g id="patch_18">
    <path d="M 394.587843 214.529588 
L 698.95148 214.529588 
" style="fill:none;stroke:#000000;stroke-linecap:square;stroke-linejoin:miter;stroke-width:0.5;"/>
   </g>
   <g id="text_49">
    <!-- Moindres carrés -->
    <g transform="translate(492.708133 208.529588)scale(0.16 -0.16)">
     <defs>
      <path d="M 1338 4224 
C 1299 4320 1293 4320 1158 4320 
L 339 4320 
L 339 4160 
C 781 4160 851 4160 851 3875 
L 851 610 
C 851 451 851 153 339 153 
L 339 -13 
C 486 0 755 0 915 0 
C 1075 0 1344 0 1491 -13 
L 1491 153 
C 979 153 979 451 979 610 
L 979 4135 
L 986 4135 
L 2490 89 
C 2515 25 2528 -13 2579 -13 
C 2630 -13 2643 25 2669 89 
L 4186 4166 
L 4192 4166 
L 4192 438 
C 4192 153 4122 153 3680 153 
L 3680 -13 
C 3853 0 4198 0 4384 0 
C 4570 0 4922 0 5094 -13 
L 5094 153 
C 4653 153 4582 153 4582 438 
L 4582 3875 
C 4582 4160 4653 4160 5094 4160 
L 5094 4320 
L 4282 4320 
C 4147 4320 4141 4314 4102 4218 
L 2720 502 
L 1338 4224 
z
" id="CMR17-4d" transform="scale(0.015625)"/>
      <path d="M 1869 4326 
L 1869 4160 
C 2246 4160 2304 4122 2304 3820 
L 2304 2345 
C 2278 2377 2016 2790 1498 2790 
C 845 2790 211 2208 211 1364 
C 211 525 806 -64 1434 -64 
C 1978 -64 2259 337 2291 380 
L 2291 -63 
L 3066 -63 
L 3066 128 
C 2688 128 2630 166 2630 473 
L 2630 4396 
L 1869 4326 
z
M 2291 755 
C 2291 563 2176 390 2029 262 
C 1811 70 1594 38 1472 38 
C 1286 38 621 134 621 1356 
C 621 2612 1363 2688 1530 2688 
C 1824 2688 2061 2522 2208 2291 
C 2291 2157 2291 2138 2291 2023 
L 2291 755 
z
" id="CMR17-64" transform="scale(0.015625)"/>
      <path d="M 2234 2240 
C 2112 2240 1933 2240 1933 2017 
C 1933 1838 2080 1787 2163 1787 
C 2208 1787 2394 1807 2394 2024 
C 2394 2467 1958 2803 1466 2803 
C 787 2803 211 2178 211 1363 
C 211 516 813 -64 1466 -64 
C 2259 -64 2458 677 2458 748 
C 2458 774 2451 793 2406 793 
C 2362 793 2355 787 2330 703 
C 2163 180 1798 51 1523 51 
C 1114 51 621 427 621 1369 
C 621 2338 1094 2688 1472 2688 
C 1722 2688 2093 2573 2234 2240 
z
" id="CMR17-63" transform="scale(0.015625)"/>
      <path d="M 2221 4091 
C 2298 4161 2317 4174 2317 4244 
C 2317 4339 2234 4416 2144 4416 
C 2067 4416 2042 4384 1978 4308 
L 1254 3390 
C 1210 3333 1210 3327 1210 3320 
C 1210 3314 1267 3256 1280 3244 
L 2221 4091 
z
" id="CMR17-13" transform="scale(0.015625)"/>
     </defs>
     <use transform="scale(0.996264)" xlink:href="#CMR17-4d"/>
     <use transform="translate(84.686941 0)scale(0.996264)" xlink:href="#CMR17-6f"/>
     <use transform="translate(130.377418 0)scale(0.996264)" xlink:href="#CMR17-69"/>
     <use transform="translate(155.248476 0)scale(0.996264)" xlink:href="#CMR17-6e"/>
     <use transform="translate(206.143846 0)scale(0.996264)" xlink:href="#CMR17-64"/>
     <use transform="translate(257.039216 0)scale(0.996264)" xlink:href="#CMR17-72"/>
     <use transform="translate(292.319984 0)scale(0.996264)" xlink:href="#CMR17-65"/>
     <use transform="translate(332.805644 0)scale(0.996264)" xlink:href="#CMR17-73"/>
     <use transform="translate(398.682948 0)scale(0.996264)" xlink:href="#CMR17-63"/>
     <use transform="translate(439.168608 0)scale(0.996264)" xlink:href="#CMR17-61"/>
     <use transform="translate(484.859086 0)scale(0.996264)" xlink:href="#CMR17-72"/>
     <use transform="translate(520.139853 0)scale(0.996264)" xlink:href="#CMR17-72"/>
     <use transform="translate(552.818213 0)scale(0.996264)" xlink:href="#CMR17-13"/>
     <use transform="translate(555.420621 0)scale(0.996264)" xlink:href="#CMR17-65"/>
     <use transform="translate(595.906282 0)scale(0.996264)" xlink:href="#CMR17-73"/>
    </g>
   </g>
   <g id="legend_3">
    <g id="patch_19">
     <path d="M 404.387843 264.753645 
L 511.478834 264.753645 
Q 514.278834 264.753645 514.278834 261.953645 
L 514.278834 224.329588 
Q 514.278834 221.529588 511.478834 221.529588 
L 404.387843 221.529588 
Q 401.587843 221.529588 401.587843 224.329588 
L 401.587843 261.953645 
Q 401.587843 264.753645 404.387843 264.753645 
z
" style="fill:#ffffff;opacity:0.8;stroke:#cccccc;stroke-linejoin:miter;"/>
    </g>
    <g id="line2d_99">
     <path d="M 407.187843 232.029588 
L 435.187843 232.029588 
" style="fill:none;stroke:#808080;stroke-linecap:square;"/>
    </g>
    <g id="line2d_100"/>
    <g id="text_50">
     <!-- $x$ -->
     <g transform="translate(446.387843 236.929588)scale(0.14 -0.14)">
      <use transform="scale(0.996264)" xlink:href="#CMMI12-78"/>
     </g>
    </g>
    <g id="line2d_101">
     <path d="M 407.187843 251.541617 
L 435.187843 251.541617 
" style="fill:none;stroke:#2ca02c;stroke-linecap:square;stroke-width:1.5;"/>
    </g>
    <g id="line2d_102"/>
    <g id="text_51">
     <!-- estimation -->
     <g transform="translate(446.387843 256.441617)scale(0.14 -0.14)">
      <use transform="scale(0.996264)" xlink:href="#CMR17-65"/>
      <use transform="translate(40.48566 0)scale(0.996264)" xlink:href="#CMR17-73"/>
      <use transform="translate(76.286998 0)scale(0.996264)" xlink:href="#CMR17-74"/>
      <use transform="translate(111.567766 0)scale(0.996264)" xlink:href="#CMR17-69"/>
      <use transform="translate(136.438824 0)scale(0.996264)" xlink:href="#CMR17-6d"/>
      <use transform="translate(213.358414 0)scale(0.996264)" xlink:href="#CMR17-61"/>
      <use transform="translate(259.048891 0)scale(0.996264)" xlink:href="#CMR17-74"/>
      <use transform="translate(294.329659 0)scale(0.996264)" xlink:href="#CMR17-69"/>
      <use transform="translate(319.200718 0)scale(0.996264)" xlink:href="#CMR17-6f"/>
      <use transform="translate(364.891195 0)scale(0.996264)" xlink:href="#CMR17-6e"/>
     </g>
    </g>
   </g>
  </g>
 </g>
 <defs>
  <clipPath id="p24cc41b3cd">
   <rect height="135.9" width="304.363636" x="29.35148" y="24.269588"/>
  </clipPath>
  <clipPath id="pcc6dca0ff8">
   <rect height="135.9" width="304.363636" x="29.35148" y="214.529588"/>
  </clipPath>
  <clipPath id="p1a801e7f1e">
   <rect height="135.9" width="304.363636" x="394.587843" y="214.529588"/>
  </clipPath>
 </defs>
</svg>
