<?xml version="1.0" encoding="utf-8" standalone="no"?>
<!DOCTYPE svg PUBLIC "-//W3C//DTD SVG 1.1//EN"
  "http://www.w3.org/Graphics/SVG/1.1/DTD/svg11.dtd">
<svg height="213.061944pt" version="1.1" viewBox="0 0 706.15148 213.061944" width="706.15148pt" xmlns="http://www.w3.org/2000/svg" xmlns:xlink="http://www.w3.org/1999/xlink">
 <metadata>
  <rdf:RDF xmlns:cc="http://creativecommons.org/ns#" xmlns:dc="http://purl.org/dc/elements/1.1/" xmlns:rdf="http://www.w3.org/1999/02/22-rdf-syntax-ns#">
   <cc:Work>
    <dc:type rdf:resource="http://purl.org/dc/dcmitype/StillImage"/>
    <dc:date>2021-11-25T14:38:31.951046</dc:date>
    <dc:format>image/svg+xml</dc:format>
    <dc:creator>
     <cc:Agent>
      <dc:title>Matplotlib v3.4.3, https://matplotlib.org/</dc:title>
     </cc:Agent>
    </dc:creator>
   </cc:Work>
  </rdf:RDF>
 </metadata>
 <defs>
  <style type="text/css">*{stroke-linecap:butt;stroke-linejoin:round;}</style>
 </defs>
 <g id="figure_1">
  <g id="patch_1">
   <path d="M 0 213.061944 
L 706.15148 213.061944 
L 706.15148 0 
L 0 0 
z
" style="fill:none;"/>
  </g>
  <g id="axes_1">
   <g id="patch_2">
    <path d="M 29.35148 188.235168 
L 333.715116 188.235168 
L 333.715116 25.155168 
L 29.35148 25.155168 
z
" style="fill:#ffffff;"/>
   </g>
   <g id="matplotlib.axis_1">
    <g id="xtick_1">
     <g id="line2d_1">
      <path clip-path="url(#p2f36bd5fc2)" d="M 29.35148 188.235168 
L 29.35148 25.155168 
" style="fill:none;stroke:#b0b0b0;stroke-linecap:square;stroke-width:0.5;"/>
     </g>
     <g id="line2d_2">
      <defs>
       <path d="M 0 0 
L 0 3.5 
" id="m0d48d5629b" style="stroke:#000000;stroke-width:0.8;"/>
      </defs>
      <g>
       <use style="stroke:#000000;stroke-width:0.8;" x="29.35148" xlink:href="#m0d48d5629b" y="188.235168"/>
      </g>
     </g>
     <g id="text_1">
      <!-- $\mathdefault{−1.00}$ -->
      <g transform="translate(14.296919 203.537348)scale(0.12 -0.12)">
       <defs>
        <path d="M 4218 1472 
C 4326 1472 4442 1472 4442 1600 
C 4442 1728 4326 1728 4218 1728 
L 755 1728 
C 646 1728 531 1728 531 1600 
C 531 1472 646 1472 755 1472 
L 4218 1472 
z
" id="CMSY10-0" transform="scale(0.015625)"/>
        <path d="M 1702 4058 
C 1702 4192 1696 4192 1606 4192 
C 1357 3916 979 3827 621 3827 
C 602 3827 570 3827 563 3808 
C 557 3795 557 3782 557 3648 
C 755 3648 1088 3686 1344 3839 
L 1344 461 
C 1344 236 1331 160 781 160 
L 589 160 
L 589 0 
C 896 0 1216 0 1523 0 
C 1830 0 2150 0 2458 0 
L 2458 160 
L 2266 160 
C 1715 160 1702 230 1702 458 
L 1702 4058 
z
" id="CMR17-31" transform="scale(0.015625)"/>
        <path d="M 1178 307 
C 1178 492 1024 619 870 619 
C 685 619 557 466 557 313 
C 557 128 710 0 864 0 
C 1050 0 1178 153 1178 307 
z
" id="CMMI12-3a" transform="scale(0.015625)"/>
        <path d="M 2688 2025 
C 2688 2416 2682 3080 2413 3591 
C 2176 4039 1798 4198 1466 4198 
C 1158 4198 768 4058 525 3597 
C 269 3118 243 2524 243 2025 
C 243 1661 250 1106 448 619 
C 723 -39 1216 -128 1466 -128 
C 1760 -128 2208 -7 2470 600 
C 2662 1042 2688 1559 2688 2025 
z
M 1466 -26 
C 1056 -26 813 325 723 812 
C 653 1188 653 1738 653 2096 
C 653 2588 653 2997 736 3387 
C 858 3929 1216 4096 1466 4096 
C 1728 4096 2067 3923 2189 3400 
C 2272 3036 2278 2607 2278 2096 
C 2278 1680 2278 1169 2202 792 
C 2067 95 1690 -26 1466 -26 
z
" id="CMR17-30" transform="scale(0.015625)"/>
       </defs>
       <use transform="scale(0.996264)" xlink:href="#CMSY10-0"/>
       <use transform="translate(77.487468 0)scale(0.996264)" xlink:href="#CMR17-31"/>
       <use transform="translate(123.177945 0)scale(0.996264)" xlink:href="#CMMI12-3a"/>
       <use transform="translate(150.275122 0)scale(0.996264)" xlink:href="#CMR17-30"/>
       <use transform="translate(195.965599 0)scale(0.996264)" xlink:href="#CMR17-30"/>
      </g>
     </g>
    </g>
    <g id="xtick_2">
     <g id="line2d_3">
      <path clip-path="url(#p2f36bd5fc2)" d="M 67.396934 188.235168 
L 67.396934 25.155168 
" style="fill:none;stroke:#b0b0b0;stroke-linecap:square;stroke-width:0.5;"/>
     </g>
     <g id="line2d_4">
      <g>
       <use style="stroke:#000000;stroke-width:0.8;" x="67.396934" xlink:href="#m0d48d5629b" y="188.235168"/>
      </g>
     </g>
     <g id="text_2">
      <!-- $\mathdefault{−0.75}$ -->
      <g transform="translate(52.342374 203.537348)scale(0.12 -0.12)">
       <defs>
        <path d="M 2886 3941 
L 2886 4081 
L 1382 4081 
C 634 4081 621 4165 595 4288 
L 480 4288 
L 294 3094 
L 410 3094 
C 429 3215 474 3540 550 3661 
C 589 3712 1062 3712 1171 3712 
L 2579 3712 
L 1869 2661 
C 1395 1954 1069 999 1069 165 
C 1069 89 1069 -128 1299 -128 
C 1530 -128 1530 89 1530 171 
L 1530 465 
C 1530 1508 1709 2196 2003 2636 
L 2886 3941 
z
" id="CMR17-37" transform="scale(0.015625)"/>
        <path d="M 730 3692 
C 794 3666 1056 3584 1325 3584 
C 1920 3584 2246 3911 2432 4100 
C 2432 4157 2432 4192 2394 4192 
C 2387 4192 2374 4192 2323 4163 
C 2099 4058 1837 3973 1517 3973 
C 1325 3973 1037 3999 723 4139 
C 653 4171 640 4171 634 4171 
C 602 4171 595 4164 595 4037 
L 595 2203 
C 595 2089 595 2057 659 2057 
C 691 2057 704 2070 736 2114 
C 941 2401 1222 2522 1542 2522 
C 1766 2522 2246 2382 2246 1289 
C 2246 1085 2246 715 2054 421 
C 1894 159 1645 25 1370 25 
C 947 25 518 320 403 814 
C 429 807 480 795 506 795 
C 589 795 749 840 749 1038 
C 749 1210 627 1280 506 1280 
C 358 1280 262 1190 262 1011 
C 262 454 704 -128 1382 -128 
C 2042 -128 2669 440 2669 1264 
C 2669 2030 2170 2624 1549 2624 
C 1222 2624 947 2503 730 2274 
L 730 3692 
z
" id="CMR17-35" transform="scale(0.015625)"/>
       </defs>
       <use transform="scale(0.996264)" xlink:href="#CMSY10-0"/>
       <use transform="translate(77.487468 0)scale(0.996264)" xlink:href="#CMR17-30"/>
       <use transform="translate(123.177945 0)scale(0.996264)" xlink:href="#CMMI12-3a"/>
       <use transform="translate(150.275122 0)scale(0.996264)" xlink:href="#CMR17-37"/>
       <use transform="translate(195.965599 0)scale(0.996264)" xlink:href="#CMR17-35"/>
      </g>
     </g>
    </g>
    <g id="xtick_3">
     <g id="line2d_5">
      <path clip-path="url(#p2f36bd5fc2)" d="M 105.442389 188.235168 
L 105.442389 25.155168 
" style="fill:none;stroke:#b0b0b0;stroke-linecap:square;stroke-width:0.5;"/>
     </g>
     <g id="line2d_6">
      <g>
       <use style="stroke:#000000;stroke-width:0.8;" x="105.442389" xlink:href="#m0d48d5629b" y="188.235168"/>
      </g>
     </g>
     <g id="text_3">
      <!-- $\mathdefault{−0.50}$ -->
      <g transform="translate(90.387828 203.537348)scale(0.12 -0.12)">
       <use transform="scale(0.996264)" xlink:href="#CMSY10-0"/>
       <use transform="translate(77.487468 0)scale(0.996264)" xlink:href="#CMR17-30"/>
       <use transform="translate(123.177945 0)scale(0.996264)" xlink:href="#CMMI12-3a"/>
       <use transform="translate(150.275122 0)scale(0.996264)" xlink:href="#CMR17-35"/>
       <use transform="translate(195.965599 0)scale(0.996264)" xlink:href="#CMR17-30"/>
      </g>
     </g>
    </g>
    <g id="xtick_4">
     <g id="line2d_7">
      <path clip-path="url(#p2f36bd5fc2)" d="M 143.487843 188.235168 
L 143.487843 25.155168 
" style="fill:none;stroke:#b0b0b0;stroke-linecap:square;stroke-width:0.5;"/>
     </g>
     <g id="line2d_8">
      <g>
       <use style="stroke:#000000;stroke-width:0.8;" x="143.487843" xlink:href="#m0d48d5629b" y="188.235168"/>
      </g>
     </g>
     <g id="text_4">
      <!-- $\mathdefault{−0.25}$ -->
      <g transform="translate(128.433283 203.537348)scale(0.12 -0.12)">
       <defs>
        <path d="M 2669 989 
L 2554 989 
C 2490 536 2438 459 2413 420 
C 2381 369 1920 369 1830 369 
L 602 369 
C 832 619 1280 1072 1824 1597 
C 2214 1967 2669 2402 2669 3035 
C 2669 3790 2067 4224 1395 4224 
C 691 4224 262 3604 262 3030 
C 262 2780 448 2748 525 2748 
C 589 2748 781 2787 781 3010 
C 781 3207 614 3264 525 3264 
C 486 3264 448 3258 422 3245 
C 544 3790 915 4058 1306 4058 
C 1862 4058 2227 3617 2227 3035 
C 2227 2479 1901 2000 1536 1584 
L 262 146 
L 262 0 
L 2515 0 
L 2669 989 
z
" id="CMR17-32" transform="scale(0.015625)"/>
       </defs>
       <use transform="scale(0.996264)" xlink:href="#CMSY10-0"/>
       <use transform="translate(77.487468 0)scale(0.996264)" xlink:href="#CMR17-30"/>
       <use transform="translate(123.177945 0)scale(0.996264)" xlink:href="#CMMI12-3a"/>
       <use transform="translate(150.275122 0)scale(0.996264)" xlink:href="#CMR17-32"/>
       <use transform="translate(195.965599 0)scale(0.996264)" xlink:href="#CMR17-35"/>
      </g>
     </g>
    </g>
    <g id="xtick_5">
     <g id="line2d_9">
      <path clip-path="url(#p2f36bd5fc2)" d="M 181.533298 188.235168 
L 181.533298 25.155168 
" style="fill:none;stroke:#b0b0b0;stroke-linecap:square;stroke-width:0.5;"/>
     </g>
     <g id="line2d_10">
      <g>
       <use style="stroke:#000000;stroke-width:0.8;" x="181.533298" xlink:href="#m0d48d5629b" y="188.235168"/>
      </g>
     </g>
     <g id="text_5">
      <!-- $\mathdefault{0.00}$ -->
      <g transform="translate(171.127982 203.537348)scale(0.12 -0.12)">
       <use transform="scale(0.996264)" xlink:href="#CMR17-30"/>
       <use transform="translate(45.690477 0)scale(0.996264)" xlink:href="#CMMI12-3a"/>
       <use transform="translate(72.787654 0)scale(0.996264)" xlink:href="#CMR17-30"/>
       <use transform="translate(118.478131 0)scale(0.996264)" xlink:href="#CMR17-30"/>
      </g>
     </g>
    </g>
    <g id="xtick_6">
     <g id="line2d_11">
      <path clip-path="url(#p2f36bd5fc2)" d="M 219.578752 188.235168 
L 219.578752 25.155168 
" style="fill:none;stroke:#b0b0b0;stroke-linecap:square;stroke-width:0.5;"/>
     </g>
     <g id="line2d_12">
      <g>
       <use style="stroke:#000000;stroke-width:0.8;" x="219.578752" xlink:href="#m0d48d5629b" y="188.235168"/>
      </g>
     </g>
     <g id="text_6">
      <!-- $\mathdefault{0.25}$ -->
      <g transform="translate(209.173436 203.537348)scale(0.12 -0.12)">
       <use transform="scale(0.996264)" xlink:href="#CMR17-30"/>
       <use transform="translate(45.690477 0)scale(0.996264)" xlink:href="#CMMI12-3a"/>
       <use transform="translate(72.787654 0)scale(0.996264)" xlink:href="#CMR17-32"/>
       <use transform="translate(118.478131 0)scale(0.996264)" xlink:href="#CMR17-35"/>
      </g>
     </g>
    </g>
    <g id="xtick_7">
     <g id="line2d_13">
      <path clip-path="url(#p2f36bd5fc2)" d="M 257.624207 188.235168 
L 257.624207 25.155168 
" style="fill:none;stroke:#b0b0b0;stroke-linecap:square;stroke-width:0.5;"/>
     </g>
     <g id="line2d_14">
      <g>
       <use style="stroke:#000000;stroke-width:0.8;" x="257.624207" xlink:href="#m0d48d5629b" y="188.235168"/>
      </g>
     </g>
     <g id="text_7">
      <!-- $\mathdefault{0.50}$ -->
      <g transform="translate(247.218891 203.537348)scale(0.12 -0.12)">
       <use transform="scale(0.996264)" xlink:href="#CMR17-30"/>
       <use transform="translate(45.690477 0)scale(0.996264)" xlink:href="#CMMI12-3a"/>
       <use transform="translate(72.787654 0)scale(0.996264)" xlink:href="#CMR17-35"/>
       <use transform="translate(118.478131 0)scale(0.996264)" xlink:href="#CMR17-30"/>
      </g>
     </g>
    </g>
    <g id="xtick_8">
     <g id="line2d_15">
      <path clip-path="url(#p2f36bd5fc2)" d="M 295.669661 188.235168 
L 295.669661 25.155168 
" style="fill:none;stroke:#b0b0b0;stroke-linecap:square;stroke-width:0.5;"/>
     </g>
     <g id="line2d_16">
      <g>
       <use style="stroke:#000000;stroke-width:0.8;" x="295.669661" xlink:href="#m0d48d5629b" y="188.235168"/>
      </g>
     </g>
     <g id="text_8">
      <!-- $\mathdefault{0.75}$ -->
      <g transform="translate(285.264345 203.537348)scale(0.12 -0.12)">
       <use transform="scale(0.996264)" xlink:href="#CMR17-30"/>
       <use transform="translate(45.690477 0)scale(0.996264)" xlink:href="#CMMI12-3a"/>
       <use transform="translate(72.787654 0)scale(0.996264)" xlink:href="#CMR17-37"/>
       <use transform="translate(118.478131 0)scale(0.996264)" xlink:href="#CMR17-35"/>
      </g>
     </g>
    </g>
    <g id="xtick_9">
     <g id="line2d_17">
      <path clip-path="url(#p2f36bd5fc2)" d="M 333.715116 188.235168 
L 333.715116 25.155168 
" style="fill:none;stroke:#b0b0b0;stroke-linecap:square;stroke-width:0.5;"/>
     </g>
     <g id="line2d_18">
      <g>
       <use style="stroke:#000000;stroke-width:0.8;" x="333.715116" xlink:href="#m0d48d5629b" y="188.235168"/>
      </g>
     </g>
     <g id="text_9">
      <!-- $\mathdefault{1.00}$ -->
      <g transform="translate(323.3098 203.537348)scale(0.12 -0.12)">
       <use transform="scale(0.996264)" xlink:href="#CMR17-31"/>
       <use transform="translate(45.690477 0)scale(0.996264)" xlink:href="#CMMI12-3a"/>
       <use transform="translate(72.787654 0)scale(0.996264)" xlink:href="#CMR17-30"/>
       <use transform="translate(118.478131 0)scale(0.996264)" xlink:href="#CMR17-30"/>
      </g>
     </g>
    </g>
   </g>
   <g id="matplotlib.axis_2">
    <g id="ytick_1">
     <g id="line2d_19">
      <path clip-path="url(#p2f36bd5fc2)" d="M 29.35148 179.175168 
L 333.715116 179.175168 
" style="fill:none;stroke:#b0b0b0;stroke-linecap:square;stroke-width:0.5;"/>
     </g>
     <g id="line2d_20">
      <defs>
       <path d="M 0 0 
L -3.5 0 
" id="m3b134c21f5" style="stroke:#000000;stroke-width:0.8;"/>
      </defs>
      <g>
       <use style="stroke:#000000;stroke-width:0.8;" x="29.35148" xlink:href="#m3b134c21f5" y="179.175168"/>
      </g>
     </g>
     <g id="text_10">
      <!-- $\mathdefault{−4}$ -->
      <g transform="translate(7.2 183.326258)scale(0.12 -0.12)">
       <defs>
        <path d="M 2150 4122 
C 2150 4256 2144 4256 2029 4256 
L 128 1254 
L 128 1088 
L 1779 1088 
L 1779 457 
C 1779 224 1766 160 1318 160 
L 1197 160 
L 1197 0 
C 1402 0 1747 0 1965 0 
C 2182 0 2528 0 2733 0 
L 2733 160 
L 2611 160 
C 2163 160 2150 224 2150 457 
L 2150 1088 
L 2803 1088 
L 2803 1254 
L 2150 1254 
L 2150 4122 
z
M 1798 3703 
L 1798 1254 
L 256 1254 
L 1798 3703 
z
" id="CMR17-34" transform="scale(0.015625)"/>
       </defs>
       <use transform="scale(0.996264)" xlink:href="#CMSY10-0"/>
       <use transform="translate(77.487468 0)scale(0.996264)" xlink:href="#CMR17-34"/>
      </g>
     </g>
    </g>
    <g id="ytick_2">
     <g id="line2d_21">
      <path clip-path="url(#p2f36bd5fc2)" d="M 29.35148 142.935168 
L 333.715116 142.935168 
" style="fill:none;stroke:#b0b0b0;stroke-linecap:square;stroke-width:0.5;"/>
     </g>
     <g id="line2d_22">
      <g>
       <use style="stroke:#000000;stroke-width:0.8;" x="29.35148" xlink:href="#m3b134c21f5" y="142.935168"/>
      </g>
     </g>
     <g id="text_11">
      <!-- $\mathdefault{−2}$ -->
      <g transform="translate(7.2 147.086258)scale(0.12 -0.12)">
       <use transform="scale(0.996264)" xlink:href="#CMSY10-0"/>
       <use transform="translate(77.487468 0)scale(0.996264)" xlink:href="#CMR17-32"/>
      </g>
     </g>
    </g>
    <g id="ytick_3">
     <g id="line2d_23">
      <path clip-path="url(#p2f36bd5fc2)" d="M 29.35148 106.695168 
L 333.715116 106.695168 
" style="fill:none;stroke:#b0b0b0;stroke-linecap:square;stroke-width:0.5;"/>
     </g>
     <g id="line2d_24">
      <g>
       <use style="stroke:#000000;stroke-width:0.8;" x="29.35148" xlink:href="#m3b134c21f5" y="106.695168"/>
      </g>
     </g>
     <g id="text_12">
      <!-- $\mathdefault{0}$ -->
      <g transform="translate(16.498489 110.846258)scale(0.12 -0.12)">
       <use transform="scale(0.996264)" xlink:href="#CMR17-30"/>
      </g>
     </g>
    </g>
    <g id="ytick_4">
     <g id="line2d_25">
      <path clip-path="url(#p2f36bd5fc2)" d="M 29.35148 70.455168 
L 333.715116 70.455168 
" style="fill:none;stroke:#b0b0b0;stroke-linecap:square;stroke-width:0.5;"/>
     </g>
     <g id="line2d_26">
      <g>
       <use style="stroke:#000000;stroke-width:0.8;" x="29.35148" xlink:href="#m3b134c21f5" y="70.455168"/>
      </g>
     </g>
     <g id="text_13">
      <!-- $\mathdefault{2}$ -->
      <g transform="translate(16.498489 74.606258)scale(0.12 -0.12)">
       <use transform="scale(0.996264)" xlink:href="#CMR17-32"/>
      </g>
     </g>
    </g>
    <g id="ytick_5">
     <g id="line2d_27">
      <path clip-path="url(#p2f36bd5fc2)" d="M 29.35148 34.215168 
L 333.715116 34.215168 
" style="fill:none;stroke:#b0b0b0;stroke-linecap:square;stroke-width:0.5;"/>
     </g>
     <g id="line2d_28">
      <g>
       <use style="stroke:#000000;stroke-width:0.8;" x="29.35148" xlink:href="#m3b134c21f5" y="34.215168"/>
      </g>
     </g>
     <g id="text_14">
      <!-- $\mathdefault{4}$ -->
      <g transform="translate(16.498489 38.366258)scale(0.12 -0.12)">
       <use transform="scale(0.996264)" xlink:href="#CMR17-34"/>
      </g>
     </g>
    </g>
   </g>
   <g id="line2d_29">
    <path clip-path="url(#p2f36bd5fc2)" d="M 29.35148 179.175168 
L 36.960571 174.513798 
L 44.569661 169.607808 
L 53.700571 163.435991 
L 62.83148 156.998028 
L 73.484207 149.213349 
L 87.180571 138.886145 
L 108.486025 122.459858 
L 129.79148 106.118807 
L 141.966025 97.04895 
L 152.618752 89.382994 
L 161.749661 83.072233 
L 170.880571 77.051102 
L 178.489661 72.288622 
L 186.098752 67.787071 
L 193.707843 63.573627 
L 199.795116 60.428575 
L 205.882389 57.499223 
L 211.969661 54.799488 
L 218.056934 52.343286 
L 224.144207 50.144533 
L 230.23148 48.217144 
L 236.318752 46.575038 
L 240.884207 45.539045 
L 245.449661 44.677221 
L 250.015116 43.995438 
L 254.580571 43.499566 
L 259.146025 43.195476 
L 263.71148 43.089039 
L 268.276934 43.186126 
L 272.842389 43.492608 
L 277.407843 44.014355 
L 281.973298 44.757239 
L 286.538752 45.72713 
L 291.104207 46.9299 
L 295.669661 48.371418 
L 300.235116 50.057557 
L 304.800571 51.994186 
L 309.366025 54.187177 
L 313.93148 56.642401 
L 318.496934 59.365728 
L 323.062389 62.36303 
L 327.627843 65.640177 
L 332.193298 69.20304 
L 333.715116 70.455168 
L 333.715116 70.455168 
" style="fill:none;stroke:#808080;stroke-linecap:square;"/>
   </g>
   <g id="line2d_30">
    <path clip-path="url(#p2f36bd5fc2)" d="M 29.35148 205.791455 
L 30.873298 162.284208 
L 32.395116 201.717236 
L 33.916934 208.491703 
L 35.438752 186.665339 
L 36.960571 201.190359 
L 38.482389 127.449236 
L 40.004207 187.833128 
L 41.526025 133.303168 
L 43.047843 197.930415 
L 44.569661 165.785231 
L 46.09148 166.76744 
L 47.613298 137.987533 
L 49.135116 174.289495 
L 52.178752 134.613205 
L 53.700571 135.092175 
L 55.222389 164.664412 
L 56.744207 157.151816 
L 58.266025 145.866796 
L 59.787843 152.262236 
L 61.309661 159.634901 
L 62.83148 189.972345 
L 64.353298 138.34042 
L 65.875116 176.421871 
L 67.396934 144.428118 
L 68.918752 139.162945 
L 70.440571 155.941929 
L 71.962389 138.435763 
L 73.484207 156.267253 
L 75.006025 133.168893 
L 76.527843 144.612565 
L 78.049661 179.221667 
L 79.57148 176.023865 
L 81.093298 143.412817 
L 82.615116 151.743934 
L 84.136934 150.328698 
L 85.658752 114.712999 
L 87.180571 107.573878 
L 88.702389 150.776899 
L 90.224207 177.887177 
L 91.746025 136.668649 
L 93.267843 119.403208 
L 94.789661 146.942666 
L 96.31148 144.656661 
L 97.833298 134.141794 
L 99.355116 128.037591 
L 100.876934 144.492248 
L 102.398752 106.421814 
L 103.920571 109.351742 
L 105.442389 114.636784 
L 106.964207 146.089225 
L 108.486025 112.656459 
L 110.007843 118.854614 
L 111.529661 136.326966 
L 113.05148 114.80959 
L 114.573298 102.864585 
L 116.095116 110.846572 
L 117.616934 108.289011 
L 119.138752 104.428763 
L 120.660571 91.189887 
L 122.182389 101.327554 
L 123.704207 151.55208 
L 125.226025 102.884535 
L 126.747843 141.019779 
L 128.269661 115.083544 
L 129.79148 116.781207 
L 131.313298 87.769029 
L 132.835116 112.086758 
L 134.356934 109.924277 
L 137.400571 78.23131 
L 138.922389 86.446691 
L 140.444207 85.652586 
L 141.966025 92.857997 
L 145.009661 65.375625 
L 146.53148 92.034041 
L 148.053298 91.428107 
L 149.575116 85.873419 
L 151.096934 95.576345 
L 152.618752 89.283099 
L 154.140571 92.409673 
L 155.662389 80.565469 
L 157.184207 47.849708 
L 158.706025 88.946521 
L 160.227843 120.184384 
L 161.749661 123.424069 
L 163.27148 68.909534 
L 164.793298 78.123719 
L 166.315116 50.4103 
L 167.836934 75.37729 
L 169.358752 94.631095 
L 170.880571 66.673537 
L 172.402389 61.82456 
L 173.924207 53.212797 
L 175.446025 59.945227 
L 176.967843 82.482681 
L 178.489661 81.865706 
L 180.01148 105.92751 
L 181.533298 69.010602 
L 183.055116 94.149492 
L 184.576934 70.388588 
L 186.098752 40.080872 
L 187.620571 60.232728 
L 189.142389 60.301501 
L 190.664207 40.321859 
L 192.186025 50.2787 
L 193.707843 48.303152 
L 195.229661 24.8579 
L 196.75148 65.585739 
L 198.273298 48.144685 
L 199.795116 66.402722 
L 201.316934 57.898485 
L 202.838752 43.466382 
L 204.360571 26.848003 
L 205.882389 55.341944 
L 207.404207 42.726234 
L 208.926025 35.768964 
L 210.447843 74.059504 
L 211.969661 41.554818 
L 213.49148 34.486724 
L 215.013298 73.21426 
L 216.535116 66.939557 
L 218.056934 70.738736 
L 219.578752 64.95841 
L 221.100571 54.758122 
L 222.622389 29.640554 
L 224.144207 66.612693 
L 225.666025 57.441688 
L 227.187843 51.918538 
L 228.709661 30.036258 
L 230.23148 54.175701 
L 231.753298 74.094021 
L 233.275116 79.842093 
L 234.796934 77.349163 
L 236.318752 23.621033 
L 237.840571 34.095802 
L 239.362389 54.404927 
L 240.884207 42.221886 
L 242.406025 21.270621 
L 243.927843 43.275832 
L 245.449661 62.682063 
L 246.97148 59.361608 
L 248.493298 55.303509 
L 251.536934 23.80396 
L 253.058752 52.708306 
L 254.580571 59.589474 
L 256.102389 70.929858 
L 257.624207 56.069967 
L 259.146025 62.898174 
L 260.667843 71.090906 
L 262.189661 42.419972 
L 263.71148 47.818963 
L 265.233298 7.143922 
L 266.755116 67.286397 
L 268.276934 43.698093 
L 269.798752 45.807303 
L 271.320571 14.021775 
L 272.842389 14.830699 
L 274.364207 19.576001 
L 275.886025 39.282235 
L 277.407843 47.357785 
L 278.929661 27.938368 
L 280.45148 72.802818 
L 281.973298 42.115238 
L 283.495116 48.118806 
L 285.016934 31.933736 
L 286.538752 20.338975 
L 288.060571 55.067374 
L 289.582389 80.533246 
L 291.104207 38.852586 
L 292.626025 71.975905 
L 294.147843 23.771649 
L 295.669661 48.568861 
L 297.19148 47.418411 
L 298.713298 53.693072 
L 300.235116 31.634304 
L 301.756934 52.161287 
L 303.278752 46.227027 
L 304.800571 70.390514 
L 306.322389 53.400167 
L 307.844207 49.881667 
L 309.366025 91.395382 
L 310.887843 48.235047 
L 312.409661 63.091118 
L 313.93148 37.431015 
L 315.453298 100.23989 
L 316.975116 23.201425 
L 318.496934 49.87768 
L 320.018752 50.124959 
L 321.540571 75.71465 
L 323.062389 76.523931 
L 324.584207 49.878237 
L 326.106025 65.568291 
L 327.627843 93.844647 
L 329.149661 69.043354 
L 330.67148 85.208784 
L 332.193298 47.212833 
L 333.715116 72.3845 
L 333.715116 72.3845 
" style="fill:none;stroke:#1f77b4;stroke-linecap:square;"/>
   </g>
   <g id="line2d_31">
    <path clip-path="url(#p2f36bd5fc2)" d="M 29.35148 194.809837 
L 36.960571 185.716397 
L 44.569661 176.91598 
L 52.178752 168.408589 
L 59.787843 160.194223 
L 67.396934 152.272881 
L 75.006025 144.644564 
L 82.615116 137.309272 
L 90.224207 130.267005 
L 97.833298 123.517762 
L 105.442389 117.061545 
L 113.05148 110.898352 
L 120.660571 105.028184 
L 128.269661 99.451041 
L 135.878752 94.166922 
L 143.487843 89.175829 
L 151.096934 84.47776 
L 158.706025 80.072716 
L 166.315116 75.960697 
L 173.924207 72.141703 
L 181.533298 68.615733 
L 189.142389 65.382789 
L 196.75148 62.442869 
L 204.360571 59.795974 
L 210.447843 57.889436 
L 216.535116 56.170433 
L 222.622389 54.638967 
L 228.709661 53.295036 
L 234.796934 52.138642 
L 240.884207 51.169783 
L 246.97148 50.38846 
L 253.058752 49.794673 
L 259.146025 49.388422 
L 265.233298 49.169707 
L 271.320571 49.138527 
L 277.407843 49.294884 
L 283.495116 49.638776 
L 289.582389 50.170205 
L 295.669661 50.889169 
L 301.756934 51.795669 
L 307.844207 52.889705 
L 313.93148 54.171276 
L 320.018752 55.640384 
L 326.106025 57.297028 
L 332.193298 59.141207 
L 333.715116 59.631554 
L 333.715116 59.631554 
" style="fill:none;stroke:#2ca02c;stroke-linecap:square;"/>
   </g>
   <g id="line2d_32">
    <path clip-path="url(#p2f36bd5fc2)" d="M 29.35148 194.809837 
L 29.35148 205.791455 
" style="fill:none;stroke:#ff7f0e;stroke-linecap:square;"/>
   </g>
   <g id="line2d_33">
    <path clip-path="url(#p2f36bd5fc2)" d="M 30.873298 192.967707 
L 30.873298 162.284208 
" style="fill:none;stroke:#ff7f0e;stroke-linecap:square;"/>
   </g>
   <g id="line2d_34">
    <path clip-path="url(#p2f36bd5fc2)" d="M 32.395116 191.137298 
L 32.395116 201.717236 
" style="fill:none;stroke:#ff7f0e;stroke-linecap:square;"/>
   </g>
   <g id="line2d_35">
    <path clip-path="url(#p2f36bd5fc2)" d="M 33.916934 189.31861 
L 33.916934 208.491703 
" style="fill:none;stroke:#ff7f0e;stroke-linecap:square;"/>
   </g>
   <g id="line2d_36">
    <path clip-path="url(#p2f36bd5fc2)" d="M 35.438752 187.511643 
L 35.438752 186.665339 
" style="fill:none;stroke:#ff7f0e;stroke-linecap:square;"/>
   </g>
   <g id="line2d_37">
    <path clip-path="url(#p2f36bd5fc2)" d="M 36.960571 185.716397 
L 36.960571 201.190359 
" style="fill:none;stroke:#ff7f0e;stroke-linecap:square;"/>
   </g>
   <g id="line2d_38">
    <path clip-path="url(#p2f36bd5fc2)" d="M 38.482389 183.932871 
L 38.482389 127.449236 
" style="fill:none;stroke:#ff7f0e;stroke-linecap:square;"/>
   </g>
   <g id="line2d_39">
    <path clip-path="url(#p2f36bd5fc2)" d="M 40.004207 182.161067 
L 40.004207 187.833128 
" style="fill:none;stroke:#ff7f0e;stroke-linecap:square;"/>
   </g>
   <g id="line2d_40">
    <path clip-path="url(#p2f36bd5fc2)" d="M 41.526025 180.400984 
L 41.526025 133.303168 
" style="fill:none;stroke:#ff7f0e;stroke-linecap:square;"/>
   </g>
   <g id="line2d_41">
    <path clip-path="url(#p2f36bd5fc2)" d="M 43.047843 178.652622 
L 43.047843 197.930415 
" style="fill:none;stroke:#ff7f0e;stroke-linecap:square;"/>
   </g>
   <g id="line2d_42">
    <path clip-path="url(#p2f36bd5fc2)" d="M 44.569661 176.91598 
L 44.569661 165.785231 
" style="fill:none;stroke:#ff7f0e;stroke-linecap:square;"/>
   </g>
   <g id="line2d_43">
    <path clip-path="url(#p2f36bd5fc2)" d="M 46.09148 175.19106 
L 46.09148 166.76744 
" style="fill:none;stroke:#ff7f0e;stroke-linecap:square;"/>
   </g>
   <g id="line2d_44">
    <path clip-path="url(#p2f36bd5fc2)" d="M 47.613298 173.477861 
L 47.613298 137.987533 
" style="fill:none;stroke:#ff7f0e;stroke-linecap:square;"/>
   </g>
   <g id="line2d_45">
    <path clip-path="url(#p2f36bd5fc2)" d="M 49.135116 171.776383 
L 49.135116 174.289495 
" style="fill:none;stroke:#ff7f0e;stroke-linecap:square;"/>
   </g>
   <g id="line2d_46">
    <path clip-path="url(#p2f36bd5fc2)" d="M 50.656934 170.086625 
L 50.656934 154.201584 
" style="fill:none;stroke:#ff7f0e;stroke-linecap:square;"/>
   </g>
   <g id="line2d_47">
    <path clip-path="url(#p2f36bd5fc2)" d="M 52.178752 168.408589 
L 52.178752 134.613205 
" style="fill:none;stroke:#ff7f0e;stroke-linecap:square;"/>
   </g>
   <g id="line2d_48">
    <path clip-path="url(#p2f36bd5fc2)" d="M 53.700571 166.742274 
L 53.700571 135.092175 
" style="fill:none;stroke:#ff7f0e;stroke-linecap:square;"/>
   </g>
   <g id="line2d_49">
    <path clip-path="url(#p2f36bd5fc2)" d="M 55.222389 165.08768 
L 55.222389 164.664412 
" style="fill:none;stroke:#ff7f0e;stroke-linecap:square;"/>
   </g>
   <g id="line2d_50">
    <path clip-path="url(#p2f36bd5fc2)" d="M 56.744207 163.444806 
L 56.744207 157.151816 
" style="fill:none;stroke:#ff7f0e;stroke-linecap:square;"/>
   </g>
   <g id="line2d_51">
    <path clip-path="url(#p2f36bd5fc2)" d="M 58.266025 161.813654 
L 58.266025 145.866796 
" style="fill:none;stroke:#ff7f0e;stroke-linecap:square;"/>
   </g>
   <g id="line2d_52">
    <path clip-path="url(#p2f36bd5fc2)" d="M 59.787843 160.194223 
L 59.787843 152.262236 
" style="fill:none;stroke:#ff7f0e;stroke-linecap:square;"/>
   </g>
   <g id="line2d_53">
    <path clip-path="url(#p2f36bd5fc2)" d="M 61.309661 158.586512 
L 61.309661 159.634901 
" style="fill:none;stroke:#ff7f0e;stroke-linecap:square;"/>
   </g>
   <g id="line2d_54">
    <path clip-path="url(#p2f36bd5fc2)" d="M 62.83148 156.990523 
L 62.83148 189.972345 
" style="fill:none;stroke:#ff7f0e;stroke-linecap:square;"/>
   </g>
   <g id="line2d_55">
    <path clip-path="url(#p2f36bd5fc2)" d="M 64.353298 155.406255 
L 64.353298 138.34042 
" style="fill:none;stroke:#ff7f0e;stroke-linecap:square;"/>
   </g>
   <g id="line2d_56">
    <path clip-path="url(#p2f36bd5fc2)" d="M 65.875116 153.833707 
L 65.875116 176.421871 
" style="fill:none;stroke:#ff7f0e;stroke-linecap:square;"/>
   </g>
   <g id="line2d_57">
    <path clip-path="url(#p2f36bd5fc2)" d="M 67.396934 152.272881 
L 67.396934 144.428118 
" style="fill:none;stroke:#ff7f0e;stroke-linecap:square;"/>
   </g>
   <g id="line2d_58">
    <path clip-path="url(#p2f36bd5fc2)" d="M 68.918752 150.723776 
L 68.918752 139.162945 
" style="fill:none;stroke:#ff7f0e;stroke-linecap:square;"/>
   </g>
   <g id="line2d_59">
    <path clip-path="url(#p2f36bd5fc2)" d="M 70.440571 149.186391 
L 70.440571 155.941929 
" style="fill:none;stroke:#ff7f0e;stroke-linecap:square;"/>
   </g>
   <g id="line2d_60">
    <path clip-path="url(#p2f36bd5fc2)" d="M 71.962389 147.660728 
L 71.962389 138.435763 
" style="fill:none;stroke:#ff7f0e;stroke-linecap:square;"/>
   </g>
   <g id="line2d_61">
    <path clip-path="url(#p2f36bd5fc2)" d="M 73.484207 146.146785 
L 73.484207 156.267253 
" style="fill:none;stroke:#ff7f0e;stroke-linecap:square;"/>
   </g>
   <g id="line2d_62">
    <path clip-path="url(#p2f36bd5fc2)" d="M 75.006025 144.644564 
L 75.006025 133.168893 
" style="fill:none;stroke:#ff7f0e;stroke-linecap:square;"/>
   </g>
   <g id="line2d_63">
    <path clip-path="url(#p2f36bd5fc2)" d="M 76.527843 143.154064 
L 76.527843 144.612565 
" style="fill:none;stroke:#ff7f0e;stroke-linecap:square;"/>
   </g>
   <g id="line2d_64">
    <path clip-path="url(#p2f36bd5fc2)" d="M 78.049661 141.675284 
L 78.049661 179.221667 
" style="fill:none;stroke:#ff7f0e;stroke-linecap:square;"/>
   </g>
   <g id="line2d_65">
    <path clip-path="url(#p2f36bd5fc2)" d="M 79.57148 140.208226 
L 79.57148 176.023865 
" style="fill:none;stroke:#ff7f0e;stroke-linecap:square;"/>
   </g>
   <g id="line2d_66">
    <path clip-path="url(#p2f36bd5fc2)" d="M 81.093298 138.752888 
L 81.093298 143.412817 
" style="fill:none;stroke:#ff7f0e;stroke-linecap:square;"/>
   </g>
   <g id="line2d_67">
    <path clip-path="url(#p2f36bd5fc2)" d="M 82.615116 137.309272 
L 82.615116 151.743934 
" style="fill:none;stroke:#ff7f0e;stroke-linecap:square;"/>
   </g>
   <g id="line2d_68">
    <path clip-path="url(#p2f36bd5fc2)" d="M 84.136934 135.877377 
L 84.136934 150.328698 
" style="fill:none;stroke:#ff7f0e;stroke-linecap:square;"/>
   </g>
   <g id="line2d_69">
    <path clip-path="url(#p2f36bd5fc2)" d="M 85.658752 134.457202 
L 85.658752 114.712999 
" style="fill:none;stroke:#ff7f0e;stroke-linecap:square;"/>
   </g>
   <g id="line2d_70">
    <path clip-path="url(#p2f36bd5fc2)" d="M 87.180571 133.048749 
L 87.180571 107.573878 
" style="fill:none;stroke:#ff7f0e;stroke-linecap:square;"/>
   </g>
   <g id="line2d_71">
    <path clip-path="url(#p2f36bd5fc2)" d="M 88.702389 131.652016 
L 88.702389 150.776899 
" style="fill:none;stroke:#ff7f0e;stroke-linecap:square;"/>
   </g>
   <g id="line2d_72">
    <path clip-path="url(#p2f36bd5fc2)" d="M 90.224207 130.267005 
L 90.224207 177.887177 
" style="fill:none;stroke:#ff7f0e;stroke-linecap:square;"/>
   </g>
   <g id="line2d_73">
    <path clip-path="url(#p2f36bd5fc2)" d="M 91.746025 128.893714 
L 91.746025 136.668649 
" style="fill:none;stroke:#ff7f0e;stroke-linecap:square;"/>
   </g>
   <g id="line2d_74">
    <path clip-path="url(#p2f36bd5fc2)" d="M 93.267843 127.532145 
L 93.267843 119.403208 
" style="fill:none;stroke:#ff7f0e;stroke-linecap:square;"/>
   </g>
   <g id="line2d_75">
    <path clip-path="url(#p2f36bd5fc2)" d="M 94.789661 126.182296 
L 94.789661 146.942666 
" style="fill:none;stroke:#ff7f0e;stroke-linecap:square;"/>
   </g>
   <g id="line2d_76">
    <path clip-path="url(#p2f36bd5fc2)" d="M 96.31148 124.844169 
L 96.31148 144.656661 
" style="fill:none;stroke:#ff7f0e;stroke-linecap:square;"/>
   </g>
   <g id="line2d_77">
    <path clip-path="url(#p2f36bd5fc2)" d="M 97.833298 123.517762 
L 97.833298 134.141794 
" style="fill:none;stroke:#ff7f0e;stroke-linecap:square;"/>
   </g>
   <g id="line2d_78">
    <path clip-path="url(#p2f36bd5fc2)" d="M 99.355116 122.203077 
L 99.355116 128.037591 
" style="fill:none;stroke:#ff7f0e;stroke-linecap:square;"/>
   </g>
   <g id="line2d_79">
    <path clip-path="url(#p2f36bd5fc2)" d="M 100.876934 120.900112 
L 100.876934 144.492248 
" style="fill:none;stroke:#ff7f0e;stroke-linecap:square;"/>
   </g>
   <g id="line2d_80">
    <path clip-path="url(#p2f36bd5fc2)" d="M 102.398752 119.608869 
L 102.398752 106.421814 
" style="fill:none;stroke:#ff7f0e;stroke-linecap:square;"/>
   </g>
   <g id="line2d_81">
    <path clip-path="url(#p2f36bd5fc2)" d="M 103.920571 118.329346 
L 103.920571 109.351742 
" style="fill:none;stroke:#ff7f0e;stroke-linecap:square;"/>
   </g>
   <g id="line2d_82">
    <path clip-path="url(#p2f36bd5fc2)" d="M 105.442389 117.061545 
L 105.442389 114.636784 
" style="fill:none;stroke:#ff7f0e;stroke-linecap:square;"/>
   </g>
   <g id="line2d_83">
    <path clip-path="url(#p2f36bd5fc2)" d="M 106.964207 115.805464 
L 106.964207 146.089225 
" style="fill:none;stroke:#ff7f0e;stroke-linecap:square;"/>
   </g>
   <g id="line2d_84">
    <path clip-path="url(#p2f36bd5fc2)" d="M 108.486025 114.561105 
L 108.486025 112.656459 
" style="fill:none;stroke:#ff7f0e;stroke-linecap:square;"/>
   </g>
   <g id="line2d_85">
    <path clip-path="url(#p2f36bd5fc2)" d="M 110.007843 113.328466 
L 110.007843 118.854614 
" style="fill:none;stroke:#ff7f0e;stroke-linecap:square;"/>
   </g>
   <g id="line2d_86">
    <path clip-path="url(#p2f36bd5fc2)" d="M 111.529661 112.107548 
L 111.529661 136.326966 
" style="fill:none;stroke:#ff7f0e;stroke-linecap:square;"/>
   </g>
   <g id="line2d_87">
    <path clip-path="url(#p2f36bd5fc2)" d="M 113.05148 110.898352 
L 113.05148 114.80959 
" style="fill:none;stroke:#ff7f0e;stroke-linecap:square;"/>
   </g>
   <g id="line2d_88">
    <path clip-path="url(#p2f36bd5fc2)" d="M 114.573298 109.700876 
L 114.573298 102.864585 
" style="fill:none;stroke:#ff7f0e;stroke-linecap:square;"/>
   </g>
   <g id="line2d_89">
    <path clip-path="url(#p2f36bd5fc2)" d="M 116.095116 108.515122 
L 116.095116 110.846572 
" style="fill:none;stroke:#ff7f0e;stroke-linecap:square;"/>
   </g>
   <g id="line2d_90">
    <path clip-path="url(#p2f36bd5fc2)" d="M 117.616934 107.341088 
L 117.616934 108.289011 
" style="fill:none;stroke:#ff7f0e;stroke-linecap:square;"/>
   </g>
   <g id="line2d_91">
    <path clip-path="url(#p2f36bd5fc2)" d="M 119.138752 106.178776 
L 119.138752 104.428763 
" style="fill:none;stroke:#ff7f0e;stroke-linecap:square;"/>
   </g>
   <g id="line2d_92">
    <path clip-path="url(#p2f36bd5fc2)" d="M 120.660571 105.028184 
L 120.660571 91.189887 
" style="fill:none;stroke:#ff7f0e;stroke-linecap:square;"/>
   </g>
   <g id="line2d_93">
    <path clip-path="url(#p2f36bd5fc2)" d="M 122.182389 103.889313 
L 122.182389 101.327554 
" style="fill:none;stroke:#ff7f0e;stroke-linecap:square;"/>
   </g>
   <g id="line2d_94">
    <path clip-path="url(#p2f36bd5fc2)" d="M 123.704207 102.762164 
L 123.704207 151.55208 
" style="fill:none;stroke:#ff7f0e;stroke-linecap:square;"/>
   </g>
   <g id="line2d_95">
    <path clip-path="url(#p2f36bd5fc2)" d="M 125.226025 101.646735 
L 125.226025 102.884535 
" style="fill:none;stroke:#ff7f0e;stroke-linecap:square;"/>
   </g>
   <g id="line2d_96">
    <path clip-path="url(#p2f36bd5fc2)" d="M 126.747843 100.543027 
L 126.747843 141.019779 
" style="fill:none;stroke:#ff7f0e;stroke-linecap:square;"/>
   </g>
   <g id="line2d_97">
    <path clip-path="url(#p2f36bd5fc2)" d="M 128.269661 99.451041 
L 128.269661 115.083544 
" style="fill:none;stroke:#ff7f0e;stroke-linecap:square;"/>
   </g>
   <g id="line2d_98">
    <path clip-path="url(#p2f36bd5fc2)" d="M 129.79148 98.370775 
L 129.79148 116.781207 
" style="fill:none;stroke:#ff7f0e;stroke-linecap:square;"/>
   </g>
   <g id="line2d_99">
    <path clip-path="url(#p2f36bd5fc2)" d="M 131.313298 97.30223 
L 131.313298 87.769029 
" style="fill:none;stroke:#ff7f0e;stroke-linecap:square;"/>
   </g>
   <g id="line2d_100">
    <path clip-path="url(#p2f36bd5fc2)" d="M 132.835116 96.245407 
L 132.835116 112.086758 
" style="fill:none;stroke:#ff7f0e;stroke-linecap:square;"/>
   </g>
   <g id="line2d_101">
    <path clip-path="url(#p2f36bd5fc2)" d="M 134.356934 95.200304 
L 134.356934 109.924277 
" style="fill:none;stroke:#ff7f0e;stroke-linecap:square;"/>
   </g>
   <g id="line2d_102">
    <path clip-path="url(#p2f36bd5fc2)" d="M 135.878752 94.166922 
L 135.878752 93.976364 
" style="fill:none;stroke:#ff7f0e;stroke-linecap:square;"/>
   </g>
   <g id="line2d_103">
    <path clip-path="url(#p2f36bd5fc2)" d="M 137.400571 93.145262 
L 137.400571 78.23131 
" style="fill:none;stroke:#ff7f0e;stroke-linecap:square;"/>
   </g>
   <g id="line2d_104">
    <path clip-path="url(#p2f36bd5fc2)" d="M 138.922389 92.135322 
L 138.922389 86.446691 
" style="fill:none;stroke:#ff7f0e;stroke-linecap:square;"/>
   </g>
   <g id="line2d_105">
    <path clip-path="url(#p2f36bd5fc2)" d="M 140.444207 91.137103 
L 140.444207 85.652586 
" style="fill:none;stroke:#ff7f0e;stroke-linecap:square;"/>
   </g>
   <g id="line2d_106">
    <path clip-path="url(#p2f36bd5fc2)" d="M 141.966025 90.150606 
L 141.966025 92.857997 
" style="fill:none;stroke:#ff7f0e;stroke-linecap:square;"/>
   </g>
   <g id="line2d_107">
    <path clip-path="url(#p2f36bd5fc2)" d="M 143.487843 89.175829 
L 143.487843 78.803699 
" style="fill:none;stroke:#ff7f0e;stroke-linecap:square;"/>
   </g>
   <g id="line2d_108">
    <path clip-path="url(#p2f36bd5fc2)" d="M 145.009661 88.212773 
L 145.009661 65.375625 
" style="fill:none;stroke:#ff7f0e;stroke-linecap:square;"/>
   </g>
   <g id="line2d_109">
    <path clip-path="url(#p2f36bd5fc2)" d="M 146.53148 87.261438 
L 146.53148 92.034041 
" style="fill:none;stroke:#ff7f0e;stroke-linecap:square;"/>
   </g>
   <g id="line2d_110">
    <path clip-path="url(#p2f36bd5fc2)" d="M 148.053298 86.321825 
L 148.053298 91.428107 
" style="fill:none;stroke:#ff7f0e;stroke-linecap:square;"/>
   </g>
   <g id="line2d_111">
    <path clip-path="url(#p2f36bd5fc2)" d="M 149.575116 85.393932 
L 149.575116 85.873419 
" style="fill:none;stroke:#ff7f0e;stroke-linecap:square;"/>
   </g>
   <g id="line2d_112">
    <path clip-path="url(#p2f36bd5fc2)" d="M 151.096934 84.47776 
L 151.096934 95.576345 
" style="fill:none;stroke:#ff7f0e;stroke-linecap:square;"/>
   </g>
   <g id="line2d_113">
    <path clip-path="url(#p2f36bd5fc2)" d="M 152.618752 83.573309 
L 152.618752 89.283099 
" style="fill:none;stroke:#ff7f0e;stroke-linecap:square;"/>
   </g>
   <g id="line2d_114">
    <path clip-path="url(#p2f36bd5fc2)" d="M 154.140571 82.68058 
L 154.140571 92.409673 
" style="fill:none;stroke:#ff7f0e;stroke-linecap:square;"/>
   </g>
   <g id="line2d_115">
    <path clip-path="url(#p2f36bd5fc2)" d="M 155.662389 81.799571 
L 155.662389 80.565469 
" style="fill:none;stroke:#ff7f0e;stroke-linecap:square;"/>
   </g>
   <g id="line2d_116">
    <path clip-path="url(#p2f36bd5fc2)" d="M 157.184207 80.930283 
L 157.184207 47.849708 
" style="fill:none;stroke:#ff7f0e;stroke-linecap:square;"/>
   </g>
   <g id="line2d_117">
    <path clip-path="url(#p2f36bd5fc2)" d="M 158.706025 80.072716 
L 158.706025 88.946521 
" style="fill:none;stroke:#ff7f0e;stroke-linecap:square;"/>
   </g>
   <g id="line2d_118">
    <path clip-path="url(#p2f36bd5fc2)" d="M 160.227843 79.22687 
L 160.227843 120.184384 
" style="fill:none;stroke:#ff7f0e;stroke-linecap:square;"/>
   </g>
   <g id="line2d_119">
    <path clip-path="url(#p2f36bd5fc2)" d="M 161.749661 78.392746 
L 161.749661 123.424069 
" style="fill:none;stroke:#ff7f0e;stroke-linecap:square;"/>
   </g>
   <g id="line2d_120">
    <path clip-path="url(#p2f36bd5fc2)" d="M 163.27148 77.570342 
L 163.27148 68.909534 
" style="fill:none;stroke:#ff7f0e;stroke-linecap:square;"/>
   </g>
   <g id="line2d_121">
    <path clip-path="url(#p2f36bd5fc2)" d="M 164.793298 76.759659 
L 164.793298 78.123719 
" style="fill:none;stroke:#ff7f0e;stroke-linecap:square;"/>
   </g>
   <g id="line2d_122">
    <path clip-path="url(#p2f36bd5fc2)" d="M 166.315116 75.960697 
L 166.315116 50.4103 
" style="fill:none;stroke:#ff7f0e;stroke-linecap:square;"/>
   </g>
   <g id="line2d_123">
    <path clip-path="url(#p2f36bd5fc2)" d="M 167.836934 75.173456 
L 167.836934 75.37729 
" style="fill:none;stroke:#ff7f0e;stroke-linecap:square;"/>
   </g>
   <g id="line2d_124">
    <path clip-path="url(#p2f36bd5fc2)" d="M 169.358752 74.397936 
L 169.358752 94.631095 
" style="fill:none;stroke:#ff7f0e;stroke-linecap:square;"/>
   </g>
   <g id="line2d_125">
    <path clip-path="url(#p2f36bd5fc2)" d="M 170.880571 73.634138 
L 170.880571 66.673537 
" style="fill:none;stroke:#ff7f0e;stroke-linecap:square;"/>
   </g>
   <g id="line2d_126">
    <path clip-path="url(#p2f36bd5fc2)" d="M 172.402389 72.88206 
L 172.402389 61.82456 
" style="fill:none;stroke:#ff7f0e;stroke-linecap:square;"/>
   </g>
   <g id="line2d_127">
    <path clip-path="url(#p2f36bd5fc2)" d="M 173.924207 72.141703 
L 173.924207 53.212797 
" style="fill:none;stroke:#ff7f0e;stroke-linecap:square;"/>
   </g>
   <g id="line2d_128">
    <path clip-path="url(#p2f36bd5fc2)" d="M 175.446025 71.413067 
L 175.446025 59.945227 
" style="fill:none;stroke:#ff7f0e;stroke-linecap:square;"/>
   </g>
   <g id="line2d_129">
    <path clip-path="url(#p2f36bd5fc2)" d="M 176.967843 70.696152 
L 176.967843 82.482681 
" style="fill:none;stroke:#ff7f0e;stroke-linecap:square;"/>
   </g>
   <g id="line2d_130">
    <path clip-path="url(#p2f36bd5fc2)" d="M 178.489661 69.990958 
L 178.489661 81.865706 
" style="fill:none;stroke:#ff7f0e;stroke-linecap:square;"/>
   </g>
   <g id="line2d_131">
    <path clip-path="url(#p2f36bd5fc2)" d="M 180.01148 69.297485 
L 180.01148 105.92751 
" style="fill:none;stroke:#ff7f0e;stroke-linecap:square;"/>
   </g>
   <g id="line2d_132">
    <path clip-path="url(#p2f36bd5fc2)" d="M 181.533298 68.615733 
L 181.533298 69.010602 
" style="fill:none;stroke:#ff7f0e;stroke-linecap:square;"/>
   </g>
   <g id="line2d_133">
    <path clip-path="url(#p2f36bd5fc2)" d="M 183.055116 67.945702 
L 183.055116 94.149492 
" style="fill:none;stroke:#ff7f0e;stroke-linecap:square;"/>
   </g>
   <g id="line2d_134">
    <path clip-path="url(#p2f36bd5fc2)" d="M 184.576934 67.287392 
L 184.576934 70.388588 
" style="fill:none;stroke:#ff7f0e;stroke-linecap:square;"/>
   </g>
   <g id="line2d_135">
    <path clip-path="url(#p2f36bd5fc2)" d="M 186.098752 66.640804 
L 186.098752 40.080872 
" style="fill:none;stroke:#ff7f0e;stroke-linecap:square;"/>
   </g>
   <g id="line2d_136">
    <path clip-path="url(#p2f36bd5fc2)" d="M 187.620571 66.005936 
L 187.620571 60.232728 
" style="fill:none;stroke:#ff7f0e;stroke-linecap:square;"/>
   </g>
   <g id="line2d_137">
    <path clip-path="url(#p2f36bd5fc2)" d="M 189.142389 65.382789 
L 189.142389 60.301501 
" style="fill:none;stroke:#ff7f0e;stroke-linecap:square;"/>
   </g>
   <g id="line2d_138">
    <path clip-path="url(#p2f36bd5fc2)" d="M 190.664207 64.771363 
L 190.664207 40.321859 
" style="fill:none;stroke:#ff7f0e;stroke-linecap:square;"/>
   </g>
   <g id="line2d_139">
    <path clip-path="url(#p2f36bd5fc2)" d="M 192.186025 64.171658 
L 192.186025 50.2787 
" style="fill:none;stroke:#ff7f0e;stroke-linecap:square;"/>
   </g>
   <g id="line2d_140">
    <path clip-path="url(#p2f36bd5fc2)" d="M 193.707843 63.583674 
L 193.707843 48.303152 
" style="fill:none;stroke:#ff7f0e;stroke-linecap:square;"/>
   </g>
   <g id="line2d_141">
    <path clip-path="url(#p2f36bd5fc2)" d="M 195.229661 63.007411 
L 195.229661 24.8579 
" style="fill:none;stroke:#ff7f0e;stroke-linecap:square;"/>
   </g>
   <g id="line2d_142">
    <path clip-path="url(#p2f36bd5fc2)" d="M 196.75148 62.442869 
L 196.75148 65.585739 
" style="fill:none;stroke:#ff7f0e;stroke-linecap:square;"/>
   </g>
   <g id="line2d_143">
    <path clip-path="url(#p2f36bd5fc2)" d="M 198.273298 61.890048 
L 198.273298 48.144685 
" style="fill:none;stroke:#ff7f0e;stroke-linecap:square;"/>
   </g>
   <g id="line2d_144">
    <path clip-path="url(#p2f36bd5fc2)" d="M 199.795116 61.348948 
L 199.795116 66.402722 
" style="fill:none;stroke:#ff7f0e;stroke-linecap:square;"/>
   </g>
   <g id="line2d_145">
    <path clip-path="url(#p2f36bd5fc2)" d="M 201.316934 60.819569 
L 201.316934 57.898485 
" style="fill:none;stroke:#ff7f0e;stroke-linecap:square;"/>
   </g>
   <g id="line2d_146">
    <path clip-path="url(#p2f36bd5fc2)" d="M 202.838752 60.301911 
L 202.838752 43.466382 
" style="fill:none;stroke:#ff7f0e;stroke-linecap:square;"/>
   </g>
   <g id="line2d_147">
    <path clip-path="url(#p2f36bd5fc2)" d="M 204.360571 59.795974 
L 204.360571 26.848003 
" style="fill:none;stroke:#ff7f0e;stroke-linecap:square;"/>
   </g>
   <g id="line2d_148">
    <path clip-path="url(#p2f36bd5fc2)" d="M 205.882389 59.301758 
L 205.882389 55.341944 
" style="fill:none;stroke:#ff7f0e;stroke-linecap:square;"/>
   </g>
   <g id="line2d_149">
    <path clip-path="url(#p2f36bd5fc2)" d="M 207.404207 58.819263 
L 207.404207 42.726234 
" style="fill:none;stroke:#ff7f0e;stroke-linecap:square;"/>
   </g>
   <g id="line2d_150">
    <path clip-path="url(#p2f36bd5fc2)" d="M 208.926025 58.348489 
L 208.926025 35.768964 
" style="fill:none;stroke:#ff7f0e;stroke-linecap:square;"/>
   </g>
   <g id="line2d_151">
    <path clip-path="url(#p2f36bd5fc2)" d="M 210.447843 57.889436 
L 210.447843 74.059504 
" style="fill:none;stroke:#ff7f0e;stroke-linecap:square;"/>
   </g>
   <g id="line2d_152">
    <path clip-path="url(#p2f36bd5fc2)" d="M 211.969661 57.442104 
L 211.969661 41.554818 
" style="fill:none;stroke:#ff7f0e;stroke-linecap:square;"/>
   </g>
   <g id="line2d_153">
    <path clip-path="url(#p2f36bd5fc2)" d="M 213.49148 57.006492 
L 213.49148 34.486724 
" style="fill:none;stroke:#ff7f0e;stroke-linecap:square;"/>
   </g>
   <g id="line2d_154">
    <path clip-path="url(#p2f36bd5fc2)" d="M 215.013298 56.582602 
L 215.013298 73.21426 
" style="fill:none;stroke:#ff7f0e;stroke-linecap:square;"/>
   </g>
   <g id="line2d_155">
    <path clip-path="url(#p2f36bd5fc2)" d="M 216.535116 56.170433 
L 216.535116 66.939557 
" style="fill:none;stroke:#ff7f0e;stroke-linecap:square;"/>
   </g>
   <g id="line2d_156">
    <path clip-path="url(#p2f36bd5fc2)" d="M 218.056934 55.769985 
L 218.056934 70.738736 
" style="fill:none;stroke:#ff7f0e;stroke-linecap:square;"/>
   </g>
   <g id="line2d_157">
    <path clip-path="url(#p2f36bd5fc2)" d="M 219.578752 55.381258 
L 219.578752 64.95841 
" style="fill:none;stroke:#ff7f0e;stroke-linecap:square;"/>
   </g>
   <g id="line2d_158">
    <path clip-path="url(#p2f36bd5fc2)" d="M 221.100571 55.004252 
L 221.100571 54.758122 
" style="fill:none;stroke:#ff7f0e;stroke-linecap:square;"/>
   </g>
   <g id="line2d_159">
    <path clip-path="url(#p2f36bd5fc2)" d="M 222.622389 54.638967 
L 222.622389 29.640554 
" style="fill:none;stroke:#ff7f0e;stroke-linecap:square;"/>
   </g>
   <g id="line2d_160">
    <path clip-path="url(#p2f36bd5fc2)" d="M 224.144207 54.285403 
L 224.144207 66.612693 
" style="fill:none;stroke:#ff7f0e;stroke-linecap:square;"/>
   </g>
   <g id="line2d_161">
    <path clip-path="url(#p2f36bd5fc2)" d="M 225.666025 53.94356 
L 225.666025 57.441688 
" style="fill:none;stroke:#ff7f0e;stroke-linecap:square;"/>
   </g>
   <g id="line2d_162">
    <path clip-path="url(#p2f36bd5fc2)" d="M 227.187843 53.613437 
L 227.187843 51.918538 
" style="fill:none;stroke:#ff7f0e;stroke-linecap:square;"/>
   </g>
   <g id="line2d_163">
    <path clip-path="url(#p2f36bd5fc2)" d="M 228.709661 53.295036 
L 228.709661 30.036258 
" style="fill:none;stroke:#ff7f0e;stroke-linecap:square;"/>
   </g>
   <g id="line2d_164">
    <path clip-path="url(#p2f36bd5fc2)" d="M 230.23148 52.988356 
L 230.23148 54.175701 
" style="fill:none;stroke:#ff7f0e;stroke-linecap:square;"/>
   </g>
   <g id="line2d_165">
    <path clip-path="url(#p2f36bd5fc2)" d="M 231.753298 52.693397 
L 231.753298 74.094021 
" style="fill:none;stroke:#ff7f0e;stroke-linecap:square;"/>
   </g>
   <g id="line2d_166">
    <path clip-path="url(#p2f36bd5fc2)" d="M 233.275116 52.410159 
L 233.275116 79.842093 
" style="fill:none;stroke:#ff7f0e;stroke-linecap:square;"/>
   </g>
   <g id="line2d_167">
    <path clip-path="url(#p2f36bd5fc2)" d="M 234.796934 52.138642 
L 234.796934 77.349163 
" style="fill:none;stroke:#ff7f0e;stroke-linecap:square;"/>
   </g>
   <g id="line2d_168">
    <path clip-path="url(#p2f36bd5fc2)" d="M 236.318752 51.878846 
L 236.318752 23.621033 
" style="fill:none;stroke:#ff7f0e;stroke-linecap:square;"/>
   </g>
   <g id="line2d_169">
    <path clip-path="url(#p2f36bd5fc2)" d="M 237.840571 51.63077 
L 237.840571 34.095802 
" style="fill:none;stroke:#ff7f0e;stroke-linecap:square;"/>
   </g>
   <g id="line2d_170">
    <path clip-path="url(#p2f36bd5fc2)" d="M 239.362389 51.394416 
L 239.362389 54.404927 
" style="fill:none;stroke:#ff7f0e;stroke-linecap:square;"/>
   </g>
   <g id="line2d_171">
    <path clip-path="url(#p2f36bd5fc2)" d="M 240.884207 51.169783 
L 240.884207 42.221886 
" style="fill:none;stroke:#ff7f0e;stroke-linecap:square;"/>
   </g>
   <g id="line2d_172">
    <path clip-path="url(#p2f36bd5fc2)" d="M 242.406025 50.956871 
L 242.406025 21.270621 
" style="fill:none;stroke:#ff7f0e;stroke-linecap:square;"/>
   </g>
   <g id="line2d_173">
    <path clip-path="url(#p2f36bd5fc2)" d="M 243.927843 50.75568 
L 243.927843 43.275832 
" style="fill:none;stroke:#ff7f0e;stroke-linecap:square;"/>
   </g>
   <g id="line2d_174">
    <path clip-path="url(#p2f36bd5fc2)" d="M 245.449661 50.566209 
L 245.449661 62.682063 
" style="fill:none;stroke:#ff7f0e;stroke-linecap:square;"/>
   </g>
   <g id="line2d_175">
    <path clip-path="url(#p2f36bd5fc2)" d="M 246.97148 50.38846 
L 246.97148 59.361608 
" style="fill:none;stroke:#ff7f0e;stroke-linecap:square;"/>
   </g>
   <g id="line2d_176">
    <path clip-path="url(#p2f36bd5fc2)" d="M 248.493298 50.222432 
L 248.493298 55.303509 
" style="fill:none;stroke:#ff7f0e;stroke-linecap:square;"/>
   </g>
   <g id="line2d_177">
    <path clip-path="url(#p2f36bd5fc2)" d="M 250.015116 50.068125 
L 250.015116 40.012237 
" style="fill:none;stroke:#ff7f0e;stroke-linecap:square;"/>
   </g>
   <g id="line2d_178">
    <path clip-path="url(#p2f36bd5fc2)" d="M 251.536934 49.925538 
L 251.536934 23.80396 
" style="fill:none;stroke:#ff7f0e;stroke-linecap:square;"/>
   </g>
   <g id="line2d_179">
    <path clip-path="url(#p2f36bd5fc2)" d="M 253.058752 49.794673 
L 253.058752 52.708306 
" style="fill:none;stroke:#ff7f0e;stroke-linecap:square;"/>
   </g>
   <g id="line2d_180">
    <path clip-path="url(#p2f36bd5fc2)" d="M 254.580571 49.675529 
L 254.580571 59.589474 
" style="fill:none;stroke:#ff7f0e;stroke-linecap:square;"/>
   </g>
   <g id="line2d_181">
    <path clip-path="url(#p2f36bd5fc2)" d="M 256.102389 49.568106 
L 256.102389 70.929858 
" style="fill:none;stroke:#ff7f0e;stroke-linecap:square;"/>
   </g>
   <g id="line2d_182">
    <path clip-path="url(#p2f36bd5fc2)" d="M 257.624207 49.472403 
L 257.624207 56.069967 
" style="fill:none;stroke:#ff7f0e;stroke-linecap:square;"/>
   </g>
   <g id="line2d_183">
    <path clip-path="url(#p2f36bd5fc2)" d="M 259.146025 49.388422 
L 259.146025 62.898174 
" style="fill:none;stroke:#ff7f0e;stroke-linecap:square;"/>
   </g>
   <g id="line2d_184">
    <path clip-path="url(#p2f36bd5fc2)" d="M 260.667843 49.316162 
L 260.667843 71.090906 
" style="fill:none;stroke:#ff7f0e;stroke-linecap:square;"/>
   </g>
   <g id="line2d_185">
    <path clip-path="url(#p2f36bd5fc2)" d="M 262.189661 49.255622 
L 262.189661 42.419972 
" style="fill:none;stroke:#ff7f0e;stroke-linecap:square;"/>
   </g>
   <g id="line2d_186">
    <path clip-path="url(#p2f36bd5fc2)" d="M 263.71148 49.206804 
L 263.71148 47.818963 
" style="fill:none;stroke:#ff7f0e;stroke-linecap:square;"/>
   </g>
   <g id="line2d_187">
    <path clip-path="url(#p2f36bd5fc2)" d="M 265.233298 49.169707 
L 265.233298 7.143922 
" style="fill:none;stroke:#ff7f0e;stroke-linecap:square;"/>
   </g>
   <g id="line2d_188">
    <path clip-path="url(#p2f36bd5fc2)" d="M 266.755116 49.14433 
L 266.755116 67.286397 
" style="fill:none;stroke:#ff7f0e;stroke-linecap:square;"/>
   </g>
   <g id="line2d_189">
    <path clip-path="url(#p2f36bd5fc2)" d="M 268.276934 49.130675 
L 268.276934 43.698093 
" style="fill:none;stroke:#ff7f0e;stroke-linecap:square;"/>
   </g>
   <g id="line2d_190">
    <path clip-path="url(#p2f36bd5fc2)" d="M 269.798752 49.128741 
L 269.798752 45.807303 
" style="fill:none;stroke:#ff7f0e;stroke-linecap:square;"/>
   </g>
   <g id="line2d_191">
    <path clip-path="url(#p2f36bd5fc2)" d="M 271.320571 49.138527 
L 271.320571 14.021775 
" style="fill:none;stroke:#ff7f0e;stroke-linecap:square;"/>
   </g>
   <g id="line2d_192">
    <path clip-path="url(#p2f36bd5fc2)" d="M 272.842389 49.160035 
L 272.842389 14.830699 
" style="fill:none;stroke:#ff7f0e;stroke-linecap:square;"/>
   </g>
   <g id="line2d_193">
    <path clip-path="url(#p2f36bd5fc2)" d="M 274.364207 49.193264 
L 274.364207 19.576001 
" style="fill:none;stroke:#ff7f0e;stroke-linecap:square;"/>
   </g>
   <g id="line2d_194">
    <path clip-path="url(#p2f36bd5fc2)" d="M 275.886025 49.238213 
L 275.886025 39.282235 
" style="fill:none;stroke:#ff7f0e;stroke-linecap:square;"/>
   </g>
   <g id="line2d_195">
    <path clip-path="url(#p2f36bd5fc2)" d="M 277.407843 49.294884 
L 277.407843 47.357785 
" style="fill:none;stroke:#ff7f0e;stroke-linecap:square;"/>
   </g>
   <g id="line2d_196">
    <path clip-path="url(#p2f36bd5fc2)" d="M 278.929661 49.363275 
L 278.929661 27.938368 
" style="fill:none;stroke:#ff7f0e;stroke-linecap:square;"/>
   </g>
   <g id="line2d_197">
    <path clip-path="url(#p2f36bd5fc2)" d="M 280.45148 49.443388 
L 280.45148 72.802818 
" style="fill:none;stroke:#ff7f0e;stroke-linecap:square;"/>
   </g>
   <g id="line2d_198">
    <path clip-path="url(#p2f36bd5fc2)" d="M 281.973298 49.535222 
L 281.973298 42.115238 
" style="fill:none;stroke:#ff7f0e;stroke-linecap:square;"/>
   </g>
   <g id="line2d_199">
    <path clip-path="url(#p2f36bd5fc2)" d="M 283.495116 49.638776 
L 283.495116 48.118806 
" style="fill:none;stroke:#ff7f0e;stroke-linecap:square;"/>
   </g>
   <g id="line2d_200">
    <path clip-path="url(#p2f36bd5fc2)" d="M 285.016934 49.754052 
L 285.016934 31.933736 
" style="fill:none;stroke:#ff7f0e;stroke-linecap:square;"/>
   </g>
   <g id="line2d_201">
    <path clip-path="url(#p2f36bd5fc2)" d="M 286.538752 49.881048 
L 286.538752 20.338975 
" style="fill:none;stroke:#ff7f0e;stroke-linecap:square;"/>
   </g>
   <g id="line2d_202">
    <path clip-path="url(#p2f36bd5fc2)" d="M 288.060571 50.019766 
L 288.060571 55.067374 
" style="fill:none;stroke:#ff7f0e;stroke-linecap:square;"/>
   </g>
   <g id="line2d_203">
    <path clip-path="url(#p2f36bd5fc2)" d="M 289.582389 50.170205 
L 289.582389 80.533246 
" style="fill:none;stroke:#ff7f0e;stroke-linecap:square;"/>
   </g>
   <g id="line2d_204">
    <path clip-path="url(#p2f36bd5fc2)" d="M 291.104207 50.332364 
L 291.104207 38.852586 
" style="fill:none;stroke:#ff7f0e;stroke-linecap:square;"/>
   </g>
   <g id="line2d_205">
    <path clip-path="url(#p2f36bd5fc2)" d="M 292.626025 50.506245 
L 292.626025 71.975905 
" style="fill:none;stroke:#ff7f0e;stroke-linecap:square;"/>
   </g>
   <g id="line2d_206">
    <path clip-path="url(#p2f36bd5fc2)" d="M 294.147843 50.691846 
L 294.147843 23.771649 
" style="fill:none;stroke:#ff7f0e;stroke-linecap:square;"/>
   </g>
   <g id="line2d_207">
    <path clip-path="url(#p2f36bd5fc2)" d="M 295.669661 50.889169 
L 295.669661 48.568861 
" style="fill:none;stroke:#ff7f0e;stroke-linecap:square;"/>
   </g>
   <g id="line2d_208">
    <path clip-path="url(#p2f36bd5fc2)" d="M 297.19148 51.098212 
L 297.19148 47.418411 
" style="fill:none;stroke:#ff7f0e;stroke-linecap:square;"/>
   </g>
   <g id="line2d_209">
    <path clip-path="url(#p2f36bd5fc2)" d="M 298.713298 51.318977 
L 298.713298 53.693072 
" style="fill:none;stroke:#ff7f0e;stroke-linecap:square;"/>
   </g>
   <g id="line2d_210">
    <path clip-path="url(#p2f36bd5fc2)" d="M 300.235116 51.551462 
L 300.235116 31.634304 
" style="fill:none;stroke:#ff7f0e;stroke-linecap:square;"/>
   </g>
   <g id="line2d_211">
    <path clip-path="url(#p2f36bd5fc2)" d="M 301.756934 51.795669 
L 301.756934 52.161287 
" style="fill:none;stroke:#ff7f0e;stroke-linecap:square;"/>
   </g>
   <g id="line2d_212">
    <path clip-path="url(#p2f36bd5fc2)" d="M 303.278752 52.051596 
L 303.278752 46.227027 
" style="fill:none;stroke:#ff7f0e;stroke-linecap:square;"/>
   </g>
   <g id="line2d_213">
    <path clip-path="url(#p2f36bd5fc2)" d="M 304.800571 52.319245 
L 304.800571 70.390514 
" style="fill:none;stroke:#ff7f0e;stroke-linecap:square;"/>
   </g>
   <g id="line2d_214">
    <path clip-path="url(#p2f36bd5fc2)" d="M 306.322389 52.598614 
L 306.322389 53.400167 
" style="fill:none;stroke:#ff7f0e;stroke-linecap:square;"/>
   </g>
   <g id="line2d_215">
    <path clip-path="url(#p2f36bd5fc2)" d="M 307.844207 52.889705 
L 307.844207 49.881667 
" style="fill:none;stroke:#ff7f0e;stroke-linecap:square;"/>
   </g>
   <g id="line2d_216">
    <path clip-path="url(#p2f36bd5fc2)" d="M 309.366025 53.192516 
L 309.366025 91.395382 
" style="fill:none;stroke:#ff7f0e;stroke-linecap:square;"/>
   </g>
   <g id="line2d_217">
    <path clip-path="url(#p2f36bd5fc2)" d="M 310.887843 53.507049 
L 310.887843 48.235047 
" style="fill:none;stroke:#ff7f0e;stroke-linecap:square;"/>
   </g>
   <g id="line2d_218">
    <path clip-path="url(#p2f36bd5fc2)" d="M 312.409661 53.833302 
L 312.409661 63.091118 
" style="fill:none;stroke:#ff7f0e;stroke-linecap:square;"/>
   </g>
   <g id="line2d_219">
    <path clip-path="url(#p2f36bd5fc2)" d="M 313.93148 54.171276 
L 313.93148 37.431015 
" style="fill:none;stroke:#ff7f0e;stroke-linecap:square;"/>
   </g>
   <g id="line2d_220">
    <path clip-path="url(#p2f36bd5fc2)" d="M 315.453298 54.520972 
L 315.453298 100.23989 
" style="fill:none;stroke:#ff7f0e;stroke-linecap:square;"/>
   </g>
   <g id="line2d_221">
    <path clip-path="url(#p2f36bd5fc2)" d="M 316.975116 54.882388 
L 316.975116 23.201425 
" style="fill:none;stroke:#ff7f0e;stroke-linecap:square;"/>
   </g>
   <g id="line2d_222">
    <path clip-path="url(#p2f36bd5fc2)" d="M 318.496934 55.255526 
L 318.496934 49.87768 
" style="fill:none;stroke:#ff7f0e;stroke-linecap:square;"/>
   </g>
   <g id="line2d_223">
    <path clip-path="url(#p2f36bd5fc2)" d="M 320.018752 55.640384 
L 320.018752 50.124959 
" style="fill:none;stroke:#ff7f0e;stroke-linecap:square;"/>
   </g>
   <g id="line2d_224">
    <path clip-path="url(#p2f36bd5fc2)" d="M 321.540571 56.036964 
L 321.540571 75.71465 
" style="fill:none;stroke:#ff7f0e;stroke-linecap:square;"/>
   </g>
   <g id="line2d_225">
    <path clip-path="url(#p2f36bd5fc2)" d="M 323.062389 56.445264 
L 323.062389 76.523931 
" style="fill:none;stroke:#ff7f0e;stroke-linecap:square;"/>
   </g>
   <g id="line2d_226">
    <path clip-path="url(#p2f36bd5fc2)" d="M 324.584207 56.865285 
L 324.584207 49.878237 
" style="fill:none;stroke:#ff7f0e;stroke-linecap:square;"/>
   </g>
   <g id="line2d_227">
    <path clip-path="url(#p2f36bd5fc2)" d="M 326.106025 57.297028 
L 326.106025 65.568291 
" style="fill:none;stroke:#ff7f0e;stroke-linecap:square;"/>
   </g>
   <g id="line2d_228">
    <path clip-path="url(#p2f36bd5fc2)" d="M 327.627843 57.740491 
L 327.627843 93.844647 
" style="fill:none;stroke:#ff7f0e;stroke-linecap:square;"/>
   </g>
   <g id="line2d_229">
    <path clip-path="url(#p2f36bd5fc2)" d="M 329.149661 58.195675 
L 329.149661 69.043354 
" style="fill:none;stroke:#ff7f0e;stroke-linecap:square;"/>
   </g>
   <g id="line2d_230">
    <path clip-path="url(#p2f36bd5fc2)" d="M 330.67148 58.662581 
L 330.67148 85.208784 
" style="fill:none;stroke:#ff7f0e;stroke-linecap:square;"/>
   </g>
   <g id="line2d_231">
    <path clip-path="url(#p2f36bd5fc2)" d="M 332.193298 59.141207 
L 332.193298 47.212833 
" style="fill:none;stroke:#ff7f0e;stroke-linecap:square;"/>
   </g>
   <g id="line2d_232">
    <path clip-path="url(#p2f36bd5fc2)" d="M 333.715116 59.631554 
L 333.715116 72.3845 
" style="fill:none;stroke:#ff7f0e;stroke-linecap:square;"/>
   </g>
   <g id="line2d_233">
    <path clip-path="url(#p2f36bd5fc2)" d="M 195.305752 76.420079 
L 227.111752 76.420079 
L 227.111752 24.487427 
L 195.305752 24.487427 
L 195.305752 76.420079 
" style="fill:none;stroke:#000000;stroke-linecap:square;stroke-width:0.8;"/>
   </g>
   <g id="patch_3">
    <path d="M 29.35148 188.235168 
L 29.35148 25.155168 
" style="fill:none;stroke:#000000;stroke-linecap:square;stroke-linejoin:miter;stroke-width:0.5;"/>
   </g>
   <g id="patch_4">
    <path d="M 333.715116 188.235168 
L 333.715116 25.155168 
" style="fill:none;stroke:#000000;stroke-linecap:square;stroke-linejoin:miter;stroke-width:0.5;"/>
   </g>
   <g id="patch_5">
    <path d="M 29.35148 188.235168 
L 333.715116 188.235168 
" style="fill:none;stroke:#000000;stroke-linecap:square;stroke-linejoin:miter;stroke-width:0.5;"/>
   </g>
   <g id="patch_6">
    <path d="M 29.35148 25.155168 
L 333.715116 25.155168 
" style="fill:none;stroke:#000000;stroke-linecap:square;stroke-linejoin:miter;stroke-width:0.5;"/>
   </g>
   <g id="text_15">
    <!-- Moindres carrés (différences) -->
    <g transform="translate(83.422598 19.155168)scale(0.16 -0.16)">
     <defs>
      <path d="M 1338 4224 
C 1299 4320 1293 4320 1158 4320 
L 339 4320 
L 339 4160 
C 781 4160 851 4160 851 3875 
L 851 610 
C 851 451 851 153 339 153 
L 339 -13 
C 486 0 755 0 915 0 
C 1075 0 1344 0 1491 -13 
L 1491 153 
C 979 153 979 451 979 610 
L 979 4135 
L 986 4135 
L 2490 89 
C 2515 25 2528 -13 2579 -13 
C 2630 -13 2643 25 2669 89 
L 4186 4166 
L 4192 4166 
L 4192 438 
C 4192 153 4122 153 3680 153 
L 3680 -13 
C 3853 0 4198 0 4384 0 
C 4570 0 4922 0 5094 -13 
L 5094 153 
C 4653 153 4582 153 4582 438 
L 4582 3875 
C 4582 4160 4653 4160 5094 4160 
L 5094 4320 
L 4282 4320 
C 4147 4320 4141 4314 4102 4218 
L 2720 502 
L 1338 4224 
z
" id="CMR17-4d" transform="scale(0.015625)"/>
      <path d="M 2758 1356 
C 2758 2176 2163 2816 1466 2816 
C 768 2816 173 2176 173 1356 
C 173 551 768 -64 1466 -64 
C 2163 -64 2758 551 2758 1356 
z
M 1466 51 
C 1165 51 909 230 762 480 
C 602 767 582 1126 582 1408 
C 582 1677 595 2010 762 2298 
C 890 2509 1139 2714 1466 2714 
C 1754 2714 1997 2554 2150 2330 
C 2349 2029 2349 1607 2349 1408 
C 2349 1158 2336 775 2163 467 
C 1984 173 1709 51 1466 51 
z
" id="CMR17-6f" transform="scale(0.015625)"/>
      <path d="M 992 3909 
C 992 4049 877 4170 730 4170 
C 589 4170 467 4056 467 3909 
C 467 3769 582 3648 730 3648 
C 870 3648 992 3763 992 3909 
z
M 243 2706 
L 243 2541 
C 602 2541 653 2502 653 2197 
L 653 427 
C 653 184 627 153 218 153 
L 218 -13 
C 371 0 646 0 806 0 
C 960 0 1222 0 1370 -13 
L 1370 153 
C 992 153 979 191 979 420 
L 979 2776 
L 243 2706 
z
" id="CMR17-69" transform="scale(0.015625)"/>
      <path d="M 2656 1933 
C 2656 2259 2592 2790 1837 2790 
C 1331 2790 1069 2400 973 2144 
L 966 2144 
L 966 2790 
L 211 2720 
L 211 2554 
C 589 2554 646 2515 646 2208 
L 646 428 
C 646 184 621 153 211 153 
L 211 -13 
C 365 0 646 0 813 0 
C 979 0 1267 0 1421 -13 
L 1421 153 
C 1011 153 986 178 986 428 
L 986 1658 
C 986 2247 1344 2688 1792 2688 
C 2266 2688 2317 2266 2317 1958 
L 2317 428 
C 2317 184 2291 153 1882 153 
L 1882 -13 
C 2035 0 2317 0 2483 0 
C 2650 0 2938 0 3091 -13 
L 3091 153 
C 2682 153 2656 178 2656 428 
L 2656 1933 
z
" id="CMR17-6e" transform="scale(0.015625)"/>
      <path d="M 1869 4326 
L 1869 4160 
C 2246 4160 2304 4122 2304 3820 
L 2304 2345 
C 2278 2377 2016 2790 1498 2790 
C 845 2790 211 2208 211 1364 
C 211 525 806 -64 1434 -64 
C 1978 -64 2259 337 2291 380 
L 2291 -63 
L 3066 -63 
L 3066 128 
C 2688 128 2630 166 2630 473 
L 2630 4396 
L 1869 4326 
z
M 2291 755 
C 2291 563 2176 390 2029 262 
C 1811 70 1594 38 1472 38 
C 1286 38 621 134 621 1356 
C 621 2612 1363 2688 1530 2688 
C 1824 2688 2061 2522 2208 2291 
C 2291 2157 2291 2138 2291 2023 
L 2291 755 
z
" id="CMR17-64" transform="scale(0.015625)"/>
      <path d="M 960 1497 
C 960 2112 1222 2688 1702 2688 
C 1747 2688 1792 2682 1837 2662 
C 1837 2662 1696 2617 1696 2452 
C 1696 2298 1818 2234 1914 2234 
C 1990 2234 2131 2279 2131 2458 
C 2131 2663 1926 2790 1709 2790 
C 1222 2790 1011 2317 947 2093 
L 941 2093 
L 941 2790 
L 198 2720 
L 198 2554 
C 576 2554 634 2515 634 2208 
L 634 428 
C 634 184 608 153 198 153 
L 198 -13 
C 352 0 646 0 813 0 
C 998 0 1325 0 1498 -13 
L 1498 153 
C 1037 153 960 153 960 440 
L 960 1497 
z
" id="CMR17-72" transform="scale(0.015625)"/>
      <path d="M 2438 1472 
C 2464 1498 2464 1511 2464 1576 
C 2464 2238 2118 2816 1389 2816 
C 710 2816 173 2169 173 1383 
C 173 551 781 -64 1459 -64 
C 2176 -64 2458 607 2458 740 
C 2458 784 2419 784 2406 784 
C 2362 784 2355 771 2330 696 
C 2189 265 1837 51 1504 51 
C 1229 51 954 203 781 480 
C 582 803 582 1176 582 1472 
L 2438 1472 
z
M 589 1568 
C 634 2505 1126 2714 1382 2714 
C 1818 2714 2112 2297 2118 1568 
L 589 1568 
z
" id="CMR17-65" transform="scale(0.015625)"/>
      <path d="M 1978 2697 
C 1978 2813 1971 2819 1933 2819 
C 1907 2819 1901 2813 1824 2717 
C 1805 2691 1747 2626 1728 2601 
C 1523 2819 1235 2819 1126 2819 
C 416 2819 160 2447 160 2076 
C 160 1498 813 1365 998 1325 
C 1402 1243 1542 1217 1677 1101 
C 1760 1025 1901 884 1901 654 
C 1901 384 1747 38 1158 38 
C 602 38 403 460 288 1021 
C 269 1110 269 1117 218 1117 
C 166 1117 160 1110 160 983 
L 160 63 
C 160 -51 166 -58 205 -58 
C 237 -58 243 -51 275 0 
C 314 57 410 211 448 276 
C 576 103 800 -64 1158 -64 
C 1792 -64 2131 283 2131 784 
C 2131 1112 1958 1285 1875 1362 
C 1683 1561 1459 1606 1190 1657 
C 838 1735 390 1825 390 2217 
C 390 2383 480 2737 1126 2737 
C 1811 2737 1850 2094 1862 1888 
C 1869 1856 1901 1849 1920 1849 
C 1978 1849 1978 1869 1978 1978 
L 1978 2697 
z
" id="CMR17-73" transform="scale(0.015625)"/>
      <path d="M 2234 2240 
C 2112 2240 1933 2240 1933 2017 
C 1933 1838 2080 1787 2163 1787 
C 2208 1787 2394 1807 2394 2024 
C 2394 2467 1958 2803 1466 2803 
C 787 2803 211 2178 211 1363 
C 211 516 813 -64 1466 -64 
C 2259 -64 2458 677 2458 748 
C 2458 774 2451 793 2406 793 
C 2362 793 2355 787 2330 703 
C 2163 180 1798 51 1523 51 
C 1114 51 621 427 621 1369 
C 621 2338 1094 2688 1472 2688 
C 1722 2688 2093 2573 2234 2240 
z
" id="CMR17-63" transform="scale(0.015625)"/>
      <path d="M 2304 1653 
C 2304 2072 2304 2294 2035 2543 
C 1798 2752 1523 2816 1306 2816 
C 800 2816 435 2407 435 1971 
C 435 1728 627 1728 666 1728 
C 749 1728 896 1778 896 1954 
C 896 2112 774 2181 666 2181 
C 640 2181 608 2174 589 2168 
C 723 2592 1069 2714 1293 2714 
C 1613 2714 1965 2429 1965 1885 
L 1965 1600 
C 1587 1600 1133 1549 774 1357 
C 371 1133 256 813 256 570 
C 256 77 832 -64 1171 -64 
C 1523 -64 1850 139 1990 511 
C 2003 233 2182 -18 2464 -18 
C 2598 -18 2938 70 2938 567 
L 2938 920 
L 2822 920 
L 2822 562 
C 2822 178 2650 128 2566 128 
C 2304 128 2304 458 2304 738 
L 2304 1653 
z
M 1965 870 
C 1965 317 1568 38 1216 38 
C 896 38 646 275 646 570 
C 646 761 730 1100 1101 1305 
C 1408 1478 1760 1504 1965 1504 
L 1965 870 
z
" id="CMR17-61" transform="scale(0.015625)"/>
      <path d="M 2221 4091 
C 2298 4161 2317 4174 2317 4244 
C 2317 4339 2234 4416 2144 4416 
C 2067 4416 2042 4384 1978 4308 
L 1254 3390 
C 1210 3333 1210 3327 1210 3320 
C 1210 3314 1267 3256 1280 3244 
L 2221 4091 
z
" id="CMR17-13" transform="scale(0.015625)"/>
      <path d="M 1958 -1561 
C 1958 -1555 1958 -1542 1939 -1523 
C 1645 -1224 858 -407 858 1581 
C 858 3569 1632 4379 1946 4697 
C 1946 4704 1958 4717 1958 4736 
C 1958 4755 1939 4768 1914 4768 
C 1843 4768 1299 4296 986 3594 
C 666 2887 576 2199 576 1588 
C 576 1128 621 351 1005 -471 
C 1312 -1135 1837 -1600 1914 -1600 
C 1946 -1600 1958 -1587 1958 -1561 
z
" id="CMR17-28" transform="scale(0.015625)"/>
      <path d="M 2554 2560 
L 3283 2560 
L 3283 2725 
L 2541 2725 
L 2541 3494 
C 2541 4022 2810 4352 3085 4352 
C 3168 4352 3264 4327 3328 4282 
C 3277 4269 3142 4225 3142 4067 
C 3142 3901 3270 3850 3360 3850 
C 3450 3850 3578 3901 3578 4067 
C 3578 4308 3347 4454 3091 4454 
C 2842 4454 2637 4333 2477 4181 
C 2330 4390 2086 4454 1837 4454 
C 1338 4454 634 4168 634 3469 
L 634 2725 
L 122 2725 
L 122 2560 
L 634 2560 
L 634 427 
C 634 184 608 153 198 153 
L 198 -13 
C 352 0 634 0 794 0 
C 960 0 1242 0 1395 -13 
L 1395 153 
C 986 153 960 178 960 427 
L 960 2560 
L 2227 2560 
L 2227 427 
C 2227 184 2202 153 1792 153 
L 1792 -13 
C 1946 0 2240 0 2406 0 
C 2592 0 2918 0 3091 -13 
L 3091 153 
C 2630 153 2554 153 2554 439 
L 2554 2560 
z
M 947 2725 
L 947 3469 
C 947 4047 1395 4352 1824 4352 
C 1920 4352 2170 4332 2323 4187 
C 2208 4187 2099 4136 2099 3977 
C 2099 3812 2246 3767 2259 3767 
C 2227 3652 2227 3526 2227 3481 
L 2227 2725 
L 947 2725 
z
" id="CMR17-b" transform="scale(0.015625)"/>
      <path d="M 1683 1581 
C 1683 2040 1638 2817 1254 3639 
C 947 4303 422 4768 346 4768 
C 326 4768 301 4761 301 4729 
C 301 4717 307 4710 314 4697 
C 621 4378 1402 3568 1402 1584 
C 1402 -407 627 -1217 314 -1537 
C 307 -1549 301 -1556 301 -1568 
C 301 -1600 326 -1600 346 -1600 
C 416 -1600 960 -1128 1274 -426 
C 1594 281 1683 969 1683 1581 
z
" id="CMR17-29" transform="scale(0.015625)"/>
     </defs>
     <use transform="scale(0.996264)" xlink:href="#CMR17-4d"/>
     <use transform="translate(84.686941 0)scale(0.996264)" xlink:href="#CMR17-6f"/>
     <use transform="translate(130.377418 0)scale(0.996264)" xlink:href="#CMR17-69"/>
     <use transform="translate(155.248476 0)scale(0.996264)" xlink:href="#CMR17-6e"/>
     <use transform="translate(206.143846 0)scale(0.996264)" xlink:href="#CMR17-64"/>
     <use transform="translate(257.039216 0)scale(0.996264)" xlink:href="#CMR17-72"/>
     <use transform="translate(292.319984 0)scale(0.996264)" xlink:href="#CMR17-65"/>
     <use transform="translate(332.805644 0)scale(0.996264)" xlink:href="#CMR17-73"/>
     <use transform="translate(398.682948 0)scale(0.996264)" xlink:href="#CMR17-63"/>
     <use transform="translate(439.168608 0)scale(0.996264)" xlink:href="#CMR17-61"/>
     <use transform="translate(484.859086 0)scale(0.996264)" xlink:href="#CMR17-72"/>
     <use transform="translate(520.139853 0)scale(0.996264)" xlink:href="#CMR17-72"/>
     <use transform="translate(552.818213 0)scale(0.996264)" xlink:href="#CMR17-13"/>
     <use transform="translate(555.420621 0)scale(0.996264)" xlink:href="#CMR17-65"/>
     <use transform="translate(595.906282 0)scale(0.996264)" xlink:href="#CMR17-73"/>
     <use transform="translate(661.783586 0)scale(0.996264)" xlink:href="#CMR17-28"/>
     <use transform="translate(697.064353 0)scale(0.996264)" xlink:href="#CMR17-64"/>
     <use transform="translate(747.959723 0)scale(0.996264)" xlink:href="#CMR17-69"/>
     <use transform="translate(772.830782 0)scale(0.996264)" xlink:href="#CMR17-b"/>
     <use transform="translate(822.573051 0)scale(0.996264)" xlink:href="#CMR17-13"/>
     <use transform="translate(825.175459 0)scale(0.996264)" xlink:href="#CMR17-65"/>
     <use transform="translate(865.661119 0)scale(0.996264)" xlink:href="#CMR17-72"/>
     <use transform="translate(900.941887 0)scale(0.996264)" xlink:href="#CMR17-65"/>
     <use transform="translate(941.427548 0)scale(0.996264)" xlink:href="#CMR17-6e"/>
     <use transform="translate(992.322917 0)scale(0.996264)" xlink:href="#CMR17-63"/>
     <use transform="translate(1032.808578 0)scale(0.996264)" xlink:href="#CMR17-65"/>
     <use transform="translate(1073.294238 0)scale(0.996264)" xlink:href="#CMR17-73"/>
     <use transform="translate(1109.095576 0)scale(0.996264)" xlink:href="#CMR17-29"/>
    </g>
   </g>
  </g>
  <g id="axes_2">
   <g id="patch_7">
    <path d="M 394.587843 188.235168 
L 698.95148 188.235168 
L 698.95148 25.155168 
L 394.587843 25.155168 
z
" style="fill:#ffffff;"/>
   </g>
   <g id="matplotlib.axis_3">
    <g id="xtick_10">
     <g id="line2d_234">
      <path clip-path="url(#pb071e7831c)" d="M 408.422554 188.235168 
L 408.422554 25.155168 
" style="fill:none;stroke:#b0b0b0;stroke-linecap:square;stroke-width:0.5;"/>
     </g>
     <g id="line2d_235">
      <g>
       <use style="stroke:#000000;stroke-width:0.8;" x="408.422554" xlink:href="#m0d48d5629b" y="188.235168"/>
      </g>
     </g>
     <g id="text_16">
      <!-- $\mathdefault{0.10}$ -->
      <g transform="translate(398.017238 203.537348)scale(0.12 -0.12)">
       <use transform="scale(0.996264)" xlink:href="#CMR17-30"/>
       <use transform="translate(45.690477 0)scale(0.996264)" xlink:href="#CMMI12-3a"/>
       <use transform="translate(72.787654 0)scale(0.996264)" xlink:href="#CMR17-31"/>
       <use transform="translate(118.478131 0)scale(0.996264)" xlink:href="#CMR17-30"/>
      </g>
     </g>
    </g>
    <g id="xtick_11">
     <g id="line2d_236">
      <path clip-path="url(#pb071e7831c)" d="M 481.236821 188.235168 
L 481.236821 25.155168 
" style="fill:none;stroke:#b0b0b0;stroke-linecap:square;stroke-width:0.5;"/>
     </g>
     <g id="line2d_237">
      <g>
       <use style="stroke:#000000;stroke-width:0.8;" x="481.236821" xlink:href="#m0d48d5629b" y="188.235168"/>
      </g>
     </g>
     <g id="text_17">
      <!-- $\mathdefault{0.15}$ -->
      <g transform="translate(470.831505 203.537348)scale(0.12 -0.12)">
       <use transform="scale(0.996264)" xlink:href="#CMR17-30"/>
       <use transform="translate(45.690477 0)scale(0.996264)" xlink:href="#CMMI12-3a"/>
       <use transform="translate(72.787654 0)scale(0.996264)" xlink:href="#CMR17-31"/>
       <use transform="translate(118.478131 0)scale(0.996264)" xlink:href="#CMR17-35"/>
      </g>
     </g>
    </g>
    <g id="xtick_12">
     <g id="line2d_238">
      <path clip-path="url(#pb071e7831c)" d="M 554.051088 188.235168 
L 554.051088 25.155168 
" style="fill:none;stroke:#b0b0b0;stroke-linecap:square;stroke-width:0.5;"/>
     </g>
     <g id="line2d_239">
      <g>
       <use style="stroke:#000000;stroke-width:0.8;" x="554.051088" xlink:href="#m0d48d5629b" y="188.235168"/>
      </g>
     </g>
     <g id="text_18">
      <!-- $\mathdefault{0.20}$ -->
      <g transform="translate(543.645772 203.537348)scale(0.12 -0.12)">
       <use transform="scale(0.996264)" xlink:href="#CMR17-30"/>
       <use transform="translate(45.690477 0)scale(0.996264)" xlink:href="#CMMI12-3a"/>
       <use transform="translate(72.787654 0)scale(0.996264)" xlink:href="#CMR17-32"/>
       <use transform="translate(118.478131 0)scale(0.996264)" xlink:href="#CMR17-30"/>
      </g>
     </g>
    </g>
    <g id="xtick_13">
     <g id="line2d_240">
      <path clip-path="url(#pb071e7831c)" d="M 626.865355 188.235168 
L 626.865355 25.155168 
" style="fill:none;stroke:#b0b0b0;stroke-linecap:square;stroke-width:0.5;"/>
     </g>
     <g id="line2d_241">
      <g>
       <use style="stroke:#000000;stroke-width:0.8;" x="626.865355" xlink:href="#m0d48d5629b" y="188.235168"/>
      </g>
     </g>
     <g id="text_19">
      <!-- $\mathdefault{0.25}$ -->
      <g transform="translate(616.460039 203.537348)scale(0.12 -0.12)">
       <use transform="scale(0.996264)" xlink:href="#CMR17-30"/>
       <use transform="translate(45.690477 0)scale(0.996264)" xlink:href="#CMMI12-3a"/>
       <use transform="translate(72.787654 0)scale(0.996264)" xlink:href="#CMR17-32"/>
       <use transform="translate(118.478131 0)scale(0.996264)" xlink:href="#CMR17-35"/>
      </g>
     </g>
    </g>
   </g>
   <g id="matplotlib.axis_4">
    <g id="ytick_6">
     <g id="line2d_242">
      <path clip-path="url(#pb071e7831c)" d="M 394.587843 169.504031 
L 698.95148 169.504031 
" style="fill:none;stroke:#b0b0b0;stroke-linecap:square;stroke-width:0.5;"/>
     </g>
     <g id="line2d_243">
      <g>
       <use style="stroke:#000000;stroke-width:0.8;" x="394.587843" xlink:href="#m3b134c21f5" y="169.504031"/>
      </g>
     </g>
     <g id="text_20">
      <!-- $\mathdefault{2.0}$ -->
      <g transform="translate(372.630202 173.655121)scale(0.12 -0.12)">
       <use transform="scale(0.996264)" xlink:href="#CMR17-32"/>
       <use transform="translate(45.690477 0)scale(0.996264)" xlink:href="#CMMI12-3a"/>
       <use transform="translate(72.787654 0)scale(0.996264)" xlink:href="#CMR17-30"/>
      </g>
     </g>
    </g>
    <g id="ytick_7">
     <g id="line2d_244">
      <path clip-path="url(#pb071e7831c)" d="M 394.587843 141.053629 
L 698.95148 141.053629 
" style="fill:none;stroke:#b0b0b0;stroke-linecap:square;stroke-width:0.5;"/>
     </g>
     <g id="line2d_245">
      <g>
       <use style="stroke:#000000;stroke-width:0.8;" x="394.587843" xlink:href="#m3b134c21f5" y="141.053629"/>
      </g>
     </g>
     <g id="text_21">
      <!-- $\mathdefault{2.5}$ -->
      <g transform="translate(372.630202 145.204719)scale(0.12 -0.12)">
       <use transform="scale(0.996264)" xlink:href="#CMR17-32"/>
       <use transform="translate(45.690477 0)scale(0.996264)" xlink:href="#CMMI12-3a"/>
       <use transform="translate(72.787654 0)scale(0.996264)" xlink:href="#CMR17-35"/>
      </g>
     </g>
    </g>
    <g id="ytick_8">
     <g id="line2d_246">
      <path clip-path="url(#pb071e7831c)" d="M 394.587843 112.603227 
L 698.95148 112.603227 
" style="fill:none;stroke:#b0b0b0;stroke-linecap:square;stroke-width:0.5;"/>
     </g>
     <g id="line2d_247">
      <g>
       <use style="stroke:#000000;stroke-width:0.8;" x="394.587843" xlink:href="#m3b134c21f5" y="112.603227"/>
      </g>
     </g>
     <g id="text_22">
      <!-- $\mathdefault{3.0}$ -->
      <g transform="translate(372.630202 116.754317)scale(0.12 -0.12)">
       <defs>
        <path d="M 1414 2157 
C 1984 2157 2234 1662 2234 1090 
C 2234 320 1824 25 1453 25 
C 1114 25 563 194 390 693 
C 422 680 454 680 486 680 
C 640 680 755 782 755 948 
C 755 1133 614 1216 486 1216 
C 378 1216 211 1165 211 926 
C 211 335 787 -128 1466 -128 
C 2176 -128 2720 430 2720 1085 
C 2720 1707 2208 2157 1600 2227 
C 2086 2328 2554 2756 2554 3329 
C 2554 3820 2048 4179 1472 4179 
C 890 4179 378 3829 378 3329 
C 378 3110 544 3072 627 3072 
C 762 3072 877 3155 877 3321 
C 877 3486 762 3569 627 3569 
C 602 3569 570 3569 544 3557 
C 730 3959 1235 4032 1459 4032 
C 1683 4032 2106 3925 2106 3320 
C 2106 3143 2080 2828 1862 2550 
C 1670 2304 1453 2304 1242 2284 
C 1210 2284 1062 2269 1037 2269 
C 992 2263 966 2257 966 2208 
C 966 2163 973 2157 1101 2157 
L 1414 2157 
z
" id="CMR17-33" transform="scale(0.015625)"/>
       </defs>
       <use transform="scale(0.996264)" xlink:href="#CMR17-33"/>
       <use transform="translate(45.690477 0)scale(0.996264)" xlink:href="#CMMI12-3a"/>
       <use transform="translate(72.787654 0)scale(0.996264)" xlink:href="#CMR17-30"/>
      </g>
     </g>
    </g>
    <g id="ytick_9">
     <g id="line2d_248">
      <path clip-path="url(#pb071e7831c)" d="M 394.587843 84.152825 
L 698.95148 84.152825 
" style="fill:none;stroke:#b0b0b0;stroke-linecap:square;stroke-width:0.5;"/>
     </g>
     <g id="line2d_249">
      <g>
       <use style="stroke:#000000;stroke-width:0.8;" x="394.587843" xlink:href="#m3b134c21f5" y="84.152825"/>
      </g>
     </g>
     <g id="text_23">
      <!-- $\mathdefault{3.5}$ -->
      <g transform="translate(372.630202 88.303915)scale(0.12 -0.12)">
       <use transform="scale(0.996264)" xlink:href="#CMR17-33"/>
       <use transform="translate(45.690477 0)scale(0.996264)" xlink:href="#CMMI12-3a"/>
       <use transform="translate(72.787654 0)scale(0.996264)" xlink:href="#CMR17-35"/>
      </g>
     </g>
    </g>
    <g id="ytick_10">
     <g id="line2d_250">
      <path clip-path="url(#pb071e7831c)" d="M 394.587843 55.702423 
L 698.95148 55.702423 
" style="fill:none;stroke:#b0b0b0;stroke-linecap:square;stroke-width:0.5;"/>
     </g>
     <g id="line2d_251">
      <g>
       <use style="stroke:#000000;stroke-width:0.8;" x="394.587843" xlink:href="#m3b134c21f5" y="55.702423"/>
      </g>
     </g>
     <g id="text_24">
      <!-- $\mathdefault{4.0}$ -->
      <g transform="translate(372.630202 59.853513)scale(0.12 -0.12)">
       <use transform="scale(0.996264)" xlink:href="#CMR17-34"/>
       <use transform="translate(45.690477 0)scale(0.996264)" xlink:href="#CMMI12-3a"/>
       <use transform="translate(72.787654 0)scale(0.996264)" xlink:href="#CMR17-30"/>
      </g>
     </g>
    </g>
    <g id="ytick_11">
     <g id="line2d_252">
      <path clip-path="url(#pb071e7831c)" d="M 394.587843 27.252021 
L 698.95148 27.252021 
" style="fill:none;stroke:#b0b0b0;stroke-linecap:square;stroke-width:0.5;"/>
     </g>
     <g id="line2d_253">
      <g>
       <use style="stroke:#000000;stroke-width:0.8;" x="394.587843" xlink:href="#m3b134c21f5" y="27.252021"/>
      </g>
     </g>
     <g id="text_25">
      <!-- $\mathdefault{4.5}$ -->
      <g transform="translate(372.630202 31.403111)scale(0.12 -0.12)">
       <use transform="scale(0.996264)" xlink:href="#CMR17-34"/>
       <use transform="translate(45.690477 0)scale(0.996264)" xlink:href="#CMMI12-3a"/>
       <use transform="translate(72.787654 0)scale(0.996264)" xlink:href="#CMR17-35"/>
      </g>
     </g>
    </g>
   </g>
   <g id="line2d_254">
    <path clip-path="url(#pb071e7831c)" d="M 408.422554 142.874455 
L 422.985407 140.425558 
L 437.548261 138.018313 
L 452.111114 135.653401 
L 466.673968 133.331507 
L 481.236821 131.053313 
L 495.799675 128.819501 
L 510.362528 126.630755 
L 524.925381 124.487757 
L 539.488235 122.39119 
L 554.051088 120.341737 
L 568.613942 118.34008 
L 583.176795 116.386903 
L 597.739648 114.482888 
L 612.302502 112.628719 
L 626.865355 110.825077 
L 641.428209 109.072646 
L 655.991062 107.372109 
L 670.553916 105.724148 
L 685.116769 104.129446 
" style="fill:none;stroke:#808080;stroke-linecap:square;"/>
   </g>
   <g id="line2d_255">
    <path clip-path="url(#pb071e7831c)" d="M 408.422554 154.212947 
L 422.985407 99.444185 
L 437.548261 156.778454 
L 452.111114 130.07327 
L 466.673968 84.753279 
L 481.236821 32.567895 
L 495.799675 122.045167 
L 510.362528 82.429052 
L 524.925381 60.581686 
L 539.488235 180.822441 
L 554.051088 78.750546 
L 568.613942 56.555168 
L 583.176795 178.168189 
L 597.739648 158.464237 
L 612.302502 170.394496 
L 626.865355 152.242996 
L 641.428209 120.211839 
L 655.991062 41.337123 
L 670.553916 157.437812 
L 685.116769 128.638826 
" style="fill:none;stroke:#1f77b4;stroke-linecap:square;"/>
   </g>
   <g id="line2d_256">
    <path clip-path="url(#pb071e7831c)" d="M 408.422554 144.343641 
L 422.985407 142.607661 
L 437.548261 140.908487 
L 452.111114 139.24612 
L 466.673968 137.620559 
L 481.236821 136.031805 
L 495.799675 134.479858 
L 510.362528 132.964717 
L 524.925381 131.486382 
L 539.488235 130.044854 
L 554.051088 128.640133 
L 568.613942 127.272218 
L 583.176795 125.941109 
L 597.739648 124.646807 
L 612.302502 123.389312 
L 626.865355 122.168623 
L 641.428209 120.98474 
L 655.991062 119.837664 
L 670.553916 118.727395 
L 685.116769 117.653932 
" style="fill:none;stroke:#2ca02c;stroke-linecap:square;"/>
   </g>
   <g id="line2d_257">
    <path clip-path="url(#pb071e7831c)" d="M 408.422554 144.343641 
L 408.422554 154.212947 
" style="fill:none;stroke:#ff7f0e;stroke-linecap:square;stroke-width:1.5;"/>
   </g>
   <g id="line2d_258">
    <path clip-path="url(#pb071e7831c)" d="M 422.985407 142.607661 
L 422.985407 99.444185 
" style="fill:none;stroke:#ff7f0e;stroke-linecap:square;stroke-width:1.5;"/>
   </g>
   <g id="line2d_259">
    <path clip-path="url(#pb071e7831c)" d="M 437.548261 140.908487 
L 437.548261 156.778454 
" style="fill:none;stroke:#ff7f0e;stroke-linecap:square;stroke-width:1.5;"/>
   </g>
   <g id="line2d_260">
    <path clip-path="url(#pb071e7831c)" d="M 452.111114 139.24612 
L 452.111114 130.07327 
" style="fill:none;stroke:#ff7f0e;stroke-linecap:square;stroke-width:1.5;"/>
   </g>
   <g id="line2d_261">
    <path clip-path="url(#pb071e7831c)" d="M 466.673968 137.620559 
L 466.673968 84.753279 
" style="fill:none;stroke:#ff7f0e;stroke-linecap:square;stroke-width:1.5;"/>
   </g>
   <g id="line2d_262">
    <path clip-path="url(#pb071e7831c)" d="M 481.236821 136.031805 
L 481.236821 32.567895 
" style="fill:none;stroke:#ff7f0e;stroke-linecap:square;stroke-width:1.5;"/>
   </g>
   <g id="line2d_263">
    <path clip-path="url(#pb071e7831c)" d="M 495.799675 134.479858 
L 495.799675 122.045167 
" style="fill:none;stroke:#ff7f0e;stroke-linecap:square;stroke-width:1.5;"/>
   </g>
   <g id="line2d_264">
    <path clip-path="url(#pb071e7831c)" d="M 510.362528 132.964717 
L 510.362528 82.429052 
" style="fill:none;stroke:#ff7f0e;stroke-linecap:square;stroke-width:1.5;"/>
   </g>
   <g id="line2d_265">
    <path clip-path="url(#pb071e7831c)" d="M 524.925381 131.486382 
L 524.925381 60.581686 
" style="fill:none;stroke:#ff7f0e;stroke-linecap:square;stroke-width:1.5;"/>
   </g>
   <g id="line2d_266">
    <path clip-path="url(#pb071e7831c)" d="M 539.488235 130.044854 
L 539.488235 180.822441 
" style="fill:none;stroke:#ff7f0e;stroke-linecap:square;stroke-width:1.5;"/>
   </g>
   <g id="line2d_267">
    <path clip-path="url(#pb071e7831c)" d="M 554.051088 128.640133 
L 554.051088 78.750546 
" style="fill:none;stroke:#ff7f0e;stroke-linecap:square;stroke-width:1.5;"/>
   </g>
   <g id="line2d_268">
    <path clip-path="url(#pb071e7831c)" d="M 568.613942 127.272218 
L 568.613942 56.555168 
" style="fill:none;stroke:#ff7f0e;stroke-linecap:square;stroke-width:1.5;"/>
   </g>
   <g id="line2d_269">
    <path clip-path="url(#pb071e7831c)" d="M 583.176795 125.941109 
L 583.176795 178.168189 
" style="fill:none;stroke:#ff7f0e;stroke-linecap:square;stroke-width:1.5;"/>
   </g>
   <g id="line2d_270">
    <path clip-path="url(#pb071e7831c)" d="M 597.739648 124.646807 
L 597.739648 158.464237 
" style="fill:none;stroke:#ff7f0e;stroke-linecap:square;stroke-width:1.5;"/>
   </g>
   <g id="line2d_271">
    <path clip-path="url(#pb071e7831c)" d="M 612.302502 123.389312 
L 612.302502 170.394496 
" style="fill:none;stroke:#ff7f0e;stroke-linecap:square;stroke-width:1.5;"/>
   </g>
   <g id="line2d_272">
    <path clip-path="url(#pb071e7831c)" d="M 626.865355 122.168623 
L 626.865355 152.242996 
" style="fill:none;stroke:#ff7f0e;stroke-linecap:square;stroke-width:1.5;"/>
   </g>
   <g id="line2d_273">
    <path clip-path="url(#pb071e7831c)" d="M 641.428209 120.98474 
L 641.428209 120.211839 
" style="fill:none;stroke:#ff7f0e;stroke-linecap:square;stroke-width:1.5;"/>
   </g>
   <g id="line2d_274">
    <path clip-path="url(#pb071e7831c)" d="M 655.991062 119.837664 
L 655.991062 41.337123 
" style="fill:none;stroke:#ff7f0e;stroke-linecap:square;stroke-width:1.5;"/>
   </g>
   <g id="line2d_275">
    <path clip-path="url(#pb071e7831c)" d="M 670.553916 118.727395 
L 670.553916 157.437812 
" style="fill:none;stroke:#ff7f0e;stroke-linecap:square;stroke-width:1.5;"/>
   </g>
   <g id="line2d_276">
    <path clip-path="url(#pb071e7831c)" d="M 685.116769 117.653932 
L 685.116769 128.638826 
" style="fill:none;stroke:#ff7f0e;stroke-linecap:square;stroke-width:1.5;"/>
   </g>
   <g id="patch_8">
    <path d="M 394.587843 188.235168 
L 394.587843 25.155168 
" style="fill:none;stroke:#000000;stroke-linecap:square;stroke-linejoin:miter;stroke-width:0.5;"/>
   </g>
   <g id="patch_9">
    <path d="M 698.95148 188.235168 
L 698.95148 25.155168 
" style="fill:none;stroke:#000000;stroke-linecap:square;stroke-linejoin:miter;stroke-width:0.5;"/>
   </g>
   <g id="patch_10">
    <path d="M 394.587843 188.235168 
L 698.95148 188.235168 
" style="fill:none;stroke:#000000;stroke-linecap:square;stroke-linejoin:miter;stroke-width:0.5;"/>
   </g>
   <g id="patch_11">
    <path d="M 394.587843 25.155168 
L 698.95148 25.155168 
" style="fill:none;stroke:#000000;stroke-linecap:square;stroke-linejoin:miter;stroke-width:0.5;"/>
   </g>
   <g id="text_26">
    <!-- Moindres carrés (différences) -->
    <g transform="translate(448.658962 19.155168)scale(0.16 -0.16)">
     <use transform="scale(0.996264)" xlink:href="#CMR17-4d"/>
     <use transform="translate(84.686941 0)scale(0.996264)" xlink:href="#CMR17-6f"/>
     <use transform="translate(130.377418 0)scale(0.996264)" xlink:href="#CMR17-69"/>
     <use transform="translate(155.248476 0)scale(0.996264)" xlink:href="#CMR17-6e"/>
     <use transform="translate(206.143846 0)scale(0.996264)" xlink:href="#CMR17-64"/>
     <use transform="translate(257.039216 0)scale(0.996264)" xlink:href="#CMR17-72"/>
     <use transform="translate(292.319984 0)scale(0.996264)" xlink:href="#CMR17-65"/>
     <use transform="translate(332.805644 0)scale(0.996264)" xlink:href="#CMR17-73"/>
     <use transform="translate(398.682948 0)scale(0.996264)" xlink:href="#CMR17-63"/>
     <use transform="translate(439.168608 0)scale(0.996264)" xlink:href="#CMR17-61"/>
     <use transform="translate(484.859086 0)scale(0.996264)" xlink:href="#CMR17-72"/>
     <use transform="translate(520.139853 0)scale(0.996264)" xlink:href="#CMR17-72"/>
     <use transform="translate(552.818213 0)scale(0.996264)" xlink:href="#CMR17-13"/>
     <use transform="translate(555.420621 0)scale(0.996264)" xlink:href="#CMR17-65"/>
     <use transform="translate(595.906282 0)scale(0.996264)" xlink:href="#CMR17-73"/>
     <use transform="translate(661.783586 0)scale(0.996264)" xlink:href="#CMR17-28"/>
     <use transform="translate(697.064353 0)scale(0.996264)" xlink:href="#CMR17-64"/>
     <use transform="translate(747.959723 0)scale(0.996264)" xlink:href="#CMR17-69"/>
     <use transform="translate(772.830782 0)scale(0.996264)" xlink:href="#CMR17-b"/>
     <use transform="translate(822.573051 0)scale(0.996264)" xlink:href="#CMR17-13"/>
     <use transform="translate(825.175459 0)scale(0.996264)" xlink:href="#CMR17-65"/>
     <use transform="translate(865.661119 0)scale(0.996264)" xlink:href="#CMR17-72"/>
     <use transform="translate(900.941887 0)scale(0.996264)" xlink:href="#CMR17-65"/>
     <use transform="translate(941.427548 0)scale(0.996264)" xlink:href="#CMR17-6e"/>
     <use transform="translate(992.322917 0)scale(0.996264)" xlink:href="#CMR17-63"/>
     <use transform="translate(1032.808578 0)scale(0.996264)" xlink:href="#CMR17-65"/>
     <use transform="translate(1073.294238 0)scale(0.996264)" xlink:href="#CMR17-73"/>
     <use transform="translate(1109.095576 0)scale(0.996264)" xlink:href="#CMR17-29"/>
    </g>
   </g>
  </g>
 </g>
 <defs>
  <clipPath id="p2f36bd5fc2">
   <rect height="163.08" width="304.363636" x="29.35148" y="25.155168"/>
  </clipPath>
  <clipPath id="pb071e7831c">
   <rect height="163.08" width="304.363636" x="394.587843" y="25.155168"/>
  </clipPath>
 </defs>
</svg>
