<?xml version="1.0" encoding="utf-8" standalone="no"?>
<!DOCTYPE svg PUBLIC "-//W3C//DTD SVG 1.1//EN"
  "http://www.w3.org/Graphics/SVG/1.1/DTD/svg11.dtd">
<svg height="213.061944pt" version="1.1" viewBox="0 0 706.15148 213.061944" width="706.15148pt" xmlns="http://www.w3.org/2000/svg" xmlns:xlink="http://www.w3.org/1999/xlink">
 <metadata>
  <rdf:RDF xmlns:cc="http://creativecommons.org/ns#" xmlns:dc="http://purl.org/dc/elements/1.1/" xmlns:rdf="http://www.w3.org/1999/02/22-rdf-syntax-ns#">
   <cc:Work>
    <dc:type rdf:resource="http://purl.org/dc/dcmitype/StillImage"/>
    <dc:date>2021-11-22T15:52:48.144332</dc:date>
    <dc:format>image/svg+xml</dc:format>
    <dc:creator>
     <cc:Agent>
      <dc:title>Matplotlib v3.4.3, https://matplotlib.org/</dc:title>
     </cc:Agent>
    </dc:creator>
   </cc:Work>
  </rdf:RDF>
 </metadata>
 <defs>
  <style type="text/css">*{stroke-linecap:butt;stroke-linejoin:round;}</style>
 </defs>
 <g id="figure_1">
  <g id="patch_1">
   <path d="M 0 213.061944 
L 706.15148 213.061944 
L 706.15148 0 
L 0 0 
z
" style="fill:none;"/>
  </g>
  <g id="axes_1">
   <g id="patch_2">
    <path d="M 29.35148 188.235168 
L 333.715116 188.235168 
L 333.715116 25.155168 
L 29.35148 25.155168 
z
" style="fill:#ffffff;"/>
   </g>
   <g id="matplotlib.axis_1">
    <g id="xtick_1">
     <g id="line2d_1">
      <path clip-path="url(#p9c8b81449d)" d="M 29.35148 188.235168 
L 29.35148 25.155168 
" style="fill:none;stroke:#b0b0b0;stroke-linecap:square;stroke-width:0.5;"/>
     </g>
     <g id="line2d_2">
      <defs>
       <path d="M 0 0 
L 0 3.5 
" id="m1c969304b8" style="stroke:#000000;stroke-width:0.8;"/>
      </defs>
      <g>
       <use style="stroke:#000000;stroke-width:0.8;" x="29.35148" xlink:href="#m1c969304b8" y="188.235168"/>
      </g>
     </g>
     <g id="text_1">
      <!-- $\mathdefault{−1.00}$ -->
      <g transform="translate(14.296919 203.537348)scale(0.12 -0.12)">
       <defs>
        <path d="M 4218 1472 
C 4326 1472 4442 1472 4442 1600 
C 4442 1728 4326 1728 4218 1728 
L 755 1728 
C 646 1728 531 1728 531 1600 
C 531 1472 646 1472 755 1472 
L 4218 1472 
z
" id="CMSY10-0" transform="scale(0.015625)"/>
        <path d="M 1702 4058 
C 1702 4192 1696 4192 1606 4192 
C 1357 3916 979 3827 621 3827 
C 602 3827 570 3827 563 3808 
C 557 3795 557 3782 557 3648 
C 755 3648 1088 3686 1344 3839 
L 1344 461 
C 1344 236 1331 160 781 160 
L 589 160 
L 589 0 
C 896 0 1216 0 1523 0 
C 1830 0 2150 0 2458 0 
L 2458 160 
L 2266 160 
C 1715 160 1702 230 1702 458 
L 1702 4058 
z
" id="CMR17-31" transform="scale(0.015625)"/>
        <path d="M 1178 307 
C 1178 492 1024 619 870 619 
C 685 619 557 466 557 313 
C 557 128 710 0 864 0 
C 1050 0 1178 153 1178 307 
z
" id="CMMI12-3a" transform="scale(0.015625)"/>
        <path d="M 2688 2025 
C 2688 2416 2682 3080 2413 3591 
C 2176 4039 1798 4198 1466 4198 
C 1158 4198 768 4058 525 3597 
C 269 3118 243 2524 243 2025 
C 243 1661 250 1106 448 619 
C 723 -39 1216 -128 1466 -128 
C 1760 -128 2208 -7 2470 600 
C 2662 1042 2688 1559 2688 2025 
z
M 1466 -26 
C 1056 -26 813 325 723 812 
C 653 1188 653 1738 653 2096 
C 653 2588 653 2997 736 3387 
C 858 3929 1216 4096 1466 4096 
C 1728 4096 2067 3923 2189 3400 
C 2272 3036 2278 2607 2278 2096 
C 2278 1680 2278 1169 2202 792 
C 2067 95 1690 -26 1466 -26 
z
" id="CMR17-30" transform="scale(0.015625)"/>
       </defs>
       <use transform="scale(0.996264)" xlink:href="#CMSY10-0"/>
       <use transform="translate(77.487468 0)scale(0.996264)" xlink:href="#CMR17-31"/>
       <use transform="translate(123.177945 0)scale(0.996264)" xlink:href="#CMMI12-3a"/>
       <use transform="translate(150.275122 0)scale(0.996264)" xlink:href="#CMR17-30"/>
       <use transform="translate(195.965599 0)scale(0.996264)" xlink:href="#CMR17-30"/>
      </g>
     </g>
    </g>
    <g id="xtick_2">
     <g id="line2d_3">
      <path clip-path="url(#p9c8b81449d)" d="M 67.396934 188.235168 
L 67.396934 25.155168 
" style="fill:none;stroke:#b0b0b0;stroke-linecap:square;stroke-width:0.5;"/>
     </g>
     <g id="line2d_4">
      <g>
       <use style="stroke:#000000;stroke-width:0.8;" x="67.396934" xlink:href="#m1c969304b8" y="188.235168"/>
      </g>
     </g>
     <g id="text_2">
      <!-- $\mathdefault{−0.75}$ -->
      <g transform="translate(52.342374 203.537348)scale(0.12 -0.12)">
       <defs>
        <path d="M 2886 3941 
L 2886 4081 
L 1382 4081 
C 634 4081 621 4165 595 4288 
L 480 4288 
L 294 3094 
L 410 3094 
C 429 3215 474 3540 550 3661 
C 589 3712 1062 3712 1171 3712 
L 2579 3712 
L 1869 2661 
C 1395 1954 1069 999 1069 165 
C 1069 89 1069 -128 1299 -128 
C 1530 -128 1530 89 1530 171 
L 1530 465 
C 1530 1508 1709 2196 2003 2636 
L 2886 3941 
z
" id="CMR17-37" transform="scale(0.015625)"/>
        <path d="M 730 3692 
C 794 3666 1056 3584 1325 3584 
C 1920 3584 2246 3911 2432 4100 
C 2432 4157 2432 4192 2394 4192 
C 2387 4192 2374 4192 2323 4163 
C 2099 4058 1837 3973 1517 3973 
C 1325 3973 1037 3999 723 4139 
C 653 4171 640 4171 634 4171 
C 602 4171 595 4164 595 4037 
L 595 2203 
C 595 2089 595 2057 659 2057 
C 691 2057 704 2070 736 2114 
C 941 2401 1222 2522 1542 2522 
C 1766 2522 2246 2382 2246 1289 
C 2246 1085 2246 715 2054 421 
C 1894 159 1645 25 1370 25 
C 947 25 518 320 403 814 
C 429 807 480 795 506 795 
C 589 795 749 840 749 1038 
C 749 1210 627 1280 506 1280 
C 358 1280 262 1190 262 1011 
C 262 454 704 -128 1382 -128 
C 2042 -128 2669 440 2669 1264 
C 2669 2030 2170 2624 1549 2624 
C 1222 2624 947 2503 730 2274 
L 730 3692 
z
" id="CMR17-35" transform="scale(0.015625)"/>
       </defs>
       <use transform="scale(0.996264)" xlink:href="#CMSY10-0"/>
       <use transform="translate(77.487468 0)scale(0.996264)" xlink:href="#CMR17-30"/>
       <use transform="translate(123.177945 0)scale(0.996264)" xlink:href="#CMMI12-3a"/>
       <use transform="translate(150.275122 0)scale(0.996264)" xlink:href="#CMR17-37"/>
       <use transform="translate(195.965599 0)scale(0.996264)" xlink:href="#CMR17-35"/>
      </g>
     </g>
    </g>
    <g id="xtick_3">
     <g id="line2d_5">
      <path clip-path="url(#p9c8b81449d)" d="M 105.442389 188.235168 
L 105.442389 25.155168 
" style="fill:none;stroke:#b0b0b0;stroke-linecap:square;stroke-width:0.5;"/>
     </g>
     <g id="line2d_6">
      <g>
       <use style="stroke:#000000;stroke-width:0.8;" x="105.442389" xlink:href="#m1c969304b8" y="188.235168"/>
      </g>
     </g>
     <g id="text_3">
      <!-- $\mathdefault{−0.50}$ -->
      <g transform="translate(90.387828 203.537348)scale(0.12 -0.12)">
       <use transform="scale(0.996264)" xlink:href="#CMSY10-0"/>
       <use transform="translate(77.487468 0)scale(0.996264)" xlink:href="#CMR17-30"/>
       <use transform="translate(123.177945 0)scale(0.996264)" xlink:href="#CMMI12-3a"/>
       <use transform="translate(150.275122 0)scale(0.996264)" xlink:href="#CMR17-35"/>
       <use transform="translate(195.965599 0)scale(0.996264)" xlink:href="#CMR17-30"/>
      </g>
     </g>
    </g>
    <g id="xtick_4">
     <g id="line2d_7">
      <path clip-path="url(#p9c8b81449d)" d="M 143.487843 188.235168 
L 143.487843 25.155168 
" style="fill:none;stroke:#b0b0b0;stroke-linecap:square;stroke-width:0.5;"/>
     </g>
     <g id="line2d_8">
      <g>
       <use style="stroke:#000000;stroke-width:0.8;" x="143.487843" xlink:href="#m1c969304b8" y="188.235168"/>
      </g>
     </g>
     <g id="text_4">
      <!-- $\mathdefault{−0.25}$ -->
      <g transform="translate(128.433283 203.537348)scale(0.12 -0.12)">
       <defs>
        <path d="M 2669 989 
L 2554 989 
C 2490 536 2438 459 2413 420 
C 2381 369 1920 369 1830 369 
L 602 369 
C 832 619 1280 1072 1824 1597 
C 2214 1967 2669 2402 2669 3035 
C 2669 3790 2067 4224 1395 4224 
C 691 4224 262 3604 262 3030 
C 262 2780 448 2748 525 2748 
C 589 2748 781 2787 781 3010 
C 781 3207 614 3264 525 3264 
C 486 3264 448 3258 422 3245 
C 544 3790 915 4058 1306 4058 
C 1862 4058 2227 3617 2227 3035 
C 2227 2479 1901 2000 1536 1584 
L 262 146 
L 262 0 
L 2515 0 
L 2669 989 
z
" id="CMR17-32" transform="scale(0.015625)"/>
       </defs>
       <use transform="scale(0.996264)" xlink:href="#CMSY10-0"/>
       <use transform="translate(77.487468 0)scale(0.996264)" xlink:href="#CMR17-30"/>
       <use transform="translate(123.177945 0)scale(0.996264)" xlink:href="#CMMI12-3a"/>
       <use transform="translate(150.275122 0)scale(0.996264)" xlink:href="#CMR17-32"/>
       <use transform="translate(195.965599 0)scale(0.996264)" xlink:href="#CMR17-35"/>
      </g>
     </g>
    </g>
    <g id="xtick_5">
     <g id="line2d_9">
      <path clip-path="url(#p9c8b81449d)" d="M 181.533298 188.235168 
L 181.533298 25.155168 
" style="fill:none;stroke:#b0b0b0;stroke-linecap:square;stroke-width:0.5;"/>
     </g>
     <g id="line2d_10">
      <g>
       <use style="stroke:#000000;stroke-width:0.8;" x="181.533298" xlink:href="#m1c969304b8" y="188.235168"/>
      </g>
     </g>
     <g id="text_5">
      <!-- $\mathdefault{0.00}$ -->
      <g transform="translate(171.127982 203.537348)scale(0.12 -0.12)">
       <use transform="scale(0.996264)" xlink:href="#CMR17-30"/>
       <use transform="translate(45.690477 0)scale(0.996264)" xlink:href="#CMMI12-3a"/>
       <use transform="translate(72.787654 0)scale(0.996264)" xlink:href="#CMR17-30"/>
       <use transform="translate(118.478131 0)scale(0.996264)" xlink:href="#CMR17-30"/>
      </g>
     </g>
    </g>
    <g id="xtick_6">
     <g id="line2d_11">
      <path clip-path="url(#p9c8b81449d)" d="M 219.578752 188.235168 
L 219.578752 25.155168 
" style="fill:none;stroke:#b0b0b0;stroke-linecap:square;stroke-width:0.5;"/>
     </g>
     <g id="line2d_12">
      <g>
       <use style="stroke:#000000;stroke-width:0.8;" x="219.578752" xlink:href="#m1c969304b8" y="188.235168"/>
      </g>
     </g>
     <g id="text_6">
      <!-- $\mathdefault{0.25}$ -->
      <g transform="translate(209.173436 203.537348)scale(0.12 -0.12)">
       <use transform="scale(0.996264)" xlink:href="#CMR17-30"/>
       <use transform="translate(45.690477 0)scale(0.996264)" xlink:href="#CMMI12-3a"/>
       <use transform="translate(72.787654 0)scale(0.996264)" xlink:href="#CMR17-32"/>
       <use transform="translate(118.478131 0)scale(0.996264)" xlink:href="#CMR17-35"/>
      </g>
     </g>
    </g>
    <g id="xtick_7">
     <g id="line2d_13">
      <path clip-path="url(#p9c8b81449d)" d="M 257.624207 188.235168 
L 257.624207 25.155168 
" style="fill:none;stroke:#b0b0b0;stroke-linecap:square;stroke-width:0.5;"/>
     </g>
     <g id="line2d_14">
      <g>
       <use style="stroke:#000000;stroke-width:0.8;" x="257.624207" xlink:href="#m1c969304b8" y="188.235168"/>
      </g>
     </g>
     <g id="text_7">
      <!-- $\mathdefault{0.50}$ -->
      <g transform="translate(247.218891 203.537348)scale(0.12 -0.12)">
       <use transform="scale(0.996264)" xlink:href="#CMR17-30"/>
       <use transform="translate(45.690477 0)scale(0.996264)" xlink:href="#CMMI12-3a"/>
       <use transform="translate(72.787654 0)scale(0.996264)" xlink:href="#CMR17-35"/>
       <use transform="translate(118.478131 0)scale(0.996264)" xlink:href="#CMR17-30"/>
      </g>
     </g>
    </g>
    <g id="xtick_8">
     <g id="line2d_15">
      <path clip-path="url(#p9c8b81449d)" d="M 295.669661 188.235168 
L 295.669661 25.155168 
" style="fill:none;stroke:#b0b0b0;stroke-linecap:square;stroke-width:0.5;"/>
     </g>
     <g id="line2d_16">
      <g>
       <use style="stroke:#000000;stroke-width:0.8;" x="295.669661" xlink:href="#m1c969304b8" y="188.235168"/>
      </g>
     </g>
     <g id="text_8">
      <!-- $\mathdefault{0.75}$ -->
      <g transform="translate(285.264345 203.537348)scale(0.12 -0.12)">
       <use transform="scale(0.996264)" xlink:href="#CMR17-30"/>
       <use transform="translate(45.690477 0)scale(0.996264)" xlink:href="#CMMI12-3a"/>
       <use transform="translate(72.787654 0)scale(0.996264)" xlink:href="#CMR17-37"/>
       <use transform="translate(118.478131 0)scale(0.996264)" xlink:href="#CMR17-35"/>
      </g>
     </g>
    </g>
    <g id="xtick_9">
     <g id="line2d_17">
      <path clip-path="url(#p9c8b81449d)" d="M 333.715116 188.235168 
L 333.715116 25.155168 
" style="fill:none;stroke:#b0b0b0;stroke-linecap:square;stroke-width:0.5;"/>
     </g>
     <g id="line2d_18">
      <g>
       <use style="stroke:#000000;stroke-width:0.8;" x="333.715116" xlink:href="#m1c969304b8" y="188.235168"/>
      </g>
     </g>
     <g id="text_9">
      <!-- $\mathdefault{1.00}$ -->
      <g transform="translate(323.3098 203.537348)scale(0.12 -0.12)">
       <use transform="scale(0.996264)" xlink:href="#CMR17-31"/>
       <use transform="translate(45.690477 0)scale(0.996264)" xlink:href="#CMMI12-3a"/>
       <use transform="translate(72.787654 0)scale(0.996264)" xlink:href="#CMR17-30"/>
       <use transform="translate(118.478131 0)scale(0.996264)" xlink:href="#CMR17-30"/>
      </g>
     </g>
    </g>
   </g>
   <g id="matplotlib.axis_2">
    <g id="ytick_1">
     <g id="line2d_19">
      <path clip-path="url(#p9c8b81449d)" d="M 29.35148 179.175168 
L 333.715116 179.175168 
" style="fill:none;stroke:#b0b0b0;stroke-linecap:square;stroke-width:0.5;"/>
     </g>
     <g id="line2d_20">
      <defs>
       <path d="M 0 0 
L -3.5 0 
" id="m6268b5e2b9" style="stroke:#000000;stroke-width:0.8;"/>
      </defs>
      <g>
       <use style="stroke:#000000;stroke-width:0.8;" x="29.35148" xlink:href="#m6268b5e2b9" y="179.175168"/>
      </g>
     </g>
     <g id="text_10">
      <!-- $\mathdefault{−4}$ -->
      <g transform="translate(7.2 183.326258)scale(0.12 -0.12)">
       <defs>
        <path d="M 2150 4122 
C 2150 4256 2144 4256 2029 4256 
L 128 1254 
L 128 1088 
L 1779 1088 
L 1779 457 
C 1779 224 1766 160 1318 160 
L 1197 160 
L 1197 0 
C 1402 0 1747 0 1965 0 
C 2182 0 2528 0 2733 0 
L 2733 160 
L 2611 160 
C 2163 160 2150 224 2150 457 
L 2150 1088 
L 2803 1088 
L 2803 1254 
L 2150 1254 
L 2150 4122 
z
M 1798 3703 
L 1798 1254 
L 256 1254 
L 1798 3703 
z
" id="CMR17-34" transform="scale(0.015625)"/>
       </defs>
       <use transform="scale(0.996264)" xlink:href="#CMSY10-0"/>
       <use transform="translate(77.487468 0)scale(0.996264)" xlink:href="#CMR17-34"/>
      </g>
     </g>
    </g>
    <g id="ytick_2">
     <g id="line2d_21">
      <path clip-path="url(#p9c8b81449d)" d="M 29.35148 142.935168 
L 333.715116 142.935168 
" style="fill:none;stroke:#b0b0b0;stroke-linecap:square;stroke-width:0.5;"/>
     </g>
     <g id="line2d_22">
      <g>
       <use style="stroke:#000000;stroke-width:0.8;" x="29.35148" xlink:href="#m6268b5e2b9" y="142.935168"/>
      </g>
     </g>
     <g id="text_11">
      <!-- $\mathdefault{−2}$ -->
      <g transform="translate(7.2 147.086258)scale(0.12 -0.12)">
       <use transform="scale(0.996264)" xlink:href="#CMSY10-0"/>
       <use transform="translate(77.487468 0)scale(0.996264)" xlink:href="#CMR17-32"/>
      </g>
     </g>
    </g>
    <g id="ytick_3">
     <g id="line2d_23">
      <path clip-path="url(#p9c8b81449d)" d="M 29.35148 106.695168 
L 333.715116 106.695168 
" style="fill:none;stroke:#b0b0b0;stroke-linecap:square;stroke-width:0.5;"/>
     </g>
     <g id="line2d_24">
      <g>
       <use style="stroke:#000000;stroke-width:0.8;" x="29.35148" xlink:href="#m6268b5e2b9" y="106.695168"/>
      </g>
     </g>
     <g id="text_12">
      <!-- $\mathdefault{0}$ -->
      <g transform="translate(16.498489 110.846258)scale(0.12 -0.12)">
       <use transform="scale(0.996264)" xlink:href="#CMR17-30"/>
      </g>
     </g>
    </g>
    <g id="ytick_4">
     <g id="line2d_25">
      <path clip-path="url(#p9c8b81449d)" d="M 29.35148 70.455168 
L 333.715116 70.455168 
" style="fill:none;stroke:#b0b0b0;stroke-linecap:square;stroke-width:0.5;"/>
     </g>
     <g id="line2d_26">
      <g>
       <use style="stroke:#000000;stroke-width:0.8;" x="29.35148" xlink:href="#m6268b5e2b9" y="70.455168"/>
      </g>
     </g>
     <g id="text_13">
      <!-- $\mathdefault{2}$ -->
      <g transform="translate(16.498489 74.606258)scale(0.12 -0.12)">
       <use transform="scale(0.996264)" xlink:href="#CMR17-32"/>
      </g>
     </g>
    </g>
    <g id="ytick_5">
     <g id="line2d_27">
      <path clip-path="url(#p9c8b81449d)" d="M 29.35148 34.215168 
L 333.715116 34.215168 
" style="fill:none;stroke:#b0b0b0;stroke-linecap:square;stroke-width:0.5;"/>
     </g>
     <g id="line2d_28">
      <g>
       <use style="stroke:#000000;stroke-width:0.8;" x="29.35148" xlink:href="#m6268b5e2b9" y="34.215168"/>
      </g>
     </g>
     <g id="text_14">
      <!-- $\mathdefault{4}$ -->
      <g transform="translate(16.498489 38.366258)scale(0.12 -0.12)">
       <use transform="scale(0.996264)" xlink:href="#CMR17-34"/>
      </g>
     </g>
    </g>
   </g>
   <g id="line2d_29">
    <path clip-path="url(#p9c8b81449d)" d="M 29.35148 179.175168 
L 36.960571 174.513798 
L 44.569661 169.607808 
L 53.700571 163.435991 
L 62.83148 156.998028 
L 73.484207 149.213349 
L 87.180571 138.886145 
L 108.486025 122.459858 
L 129.79148 106.118807 
L 141.966025 97.04895 
L 152.618752 89.382994 
L 161.749661 83.072233 
L 170.880571 77.051102 
L 178.489661 72.288622 
L 186.098752 67.787071 
L 193.707843 63.573627 
L 199.795116 60.428575 
L 205.882389 57.499223 
L 211.969661 54.799488 
L 218.056934 52.343286 
L 224.144207 50.144533 
L 230.23148 48.217144 
L 236.318752 46.575038 
L 240.884207 45.539045 
L 245.449661 44.677221 
L 250.015116 43.995438 
L 254.580571 43.499566 
L 259.146025 43.195476 
L 263.71148 43.089039 
L 268.276934 43.186126 
L 272.842389 43.492608 
L 277.407843 44.014355 
L 281.973298 44.757239 
L 286.538752 45.72713 
L 291.104207 46.9299 
L 295.669661 48.371418 
L 300.235116 50.057557 
L 304.800571 51.994186 
L 309.366025 54.187177 
L 313.93148 56.642401 
L 318.496934 59.365728 
L 323.062389 62.36303 
L 327.627843 65.640177 
L 332.193298 69.20304 
L 333.715116 70.455168 
L 333.715116 70.455168 
" style="fill:none;stroke:#808080;stroke-linecap:square;"/>
   </g>
   <g id="line2d_30">
    <path clip-path="url(#p9c8b81449d)" d="M 29.35148 180.153013 
L 30.873298 172.523402 
L 32.395116 191.096639 
L 33.916934 162.442936 
L 35.438752 145.32909 
L 36.960571 188.530806 
L 38.482389 196.517591 
L 40.004207 188.673467 
L 41.526025 170.145136 
L 43.047843 177.506811 
L 44.569661 202.143809 
L 46.09148 178.112178 
L 47.613298 167.815803 
L 49.135116 167.49991 
L 50.656934 128.700912 
L 52.178752 146.325982 
L 53.700571 158.853639 
L 55.222389 159.953521 
L 56.744207 123.313427 
L 58.266025 152.764292 
L 59.787843 170.817079 
L 61.309661 161.967116 
L 62.83148 152.250198 
L 64.353298 163.869587 
L 65.875116 173.453017 
L 67.396934 132.22003 
L 68.918752 172.148473 
L 70.440571 159.834512 
L 71.962389 183.285524 
L 73.484207 135.674825 
L 75.006025 184.792271 
L 76.527843 141.943718 
L 78.049661 109.226159 
L 79.57148 122.448983 
L 81.093298 154.630246 
L 82.615116 153.484327 
L 84.136934 156.603966 
L 85.658752 102.172833 
L 87.180571 149.318927 
L 88.702389 133.231977 
L 90.224207 132.82399 
L 91.746025 189.14553 
L 93.267843 129.014176 
L 94.789661 106.464066 
L 96.31148 160.814881 
L 97.833298 124.085265 
L 99.355116 123.142482 
L 100.876934 117.447306 
L 102.398752 121.226113 
L 103.920571 134.07779 
L 105.442389 116.288436 
L 106.964207 121.438863 
L 108.486025 83.970862 
L 110.007843 118.66689 
L 111.529661 119.879595 
L 113.05148 79.960776 
L 114.573298 143.982537 
L 116.095116 142.931614 
L 117.616934 130.16508 
L 119.138752 100.464281 
L 120.660571 121.516008 
L 122.182389 127.958231 
L 123.704207 107.955902 
L 125.226025 110.230875 
L 126.747843 142.586201 
L 128.269661 121.368814 
L 129.79148 113.046622 
L 131.313298 124.088758 
L 132.835116 103.3994 
L 134.356934 92.960783 
L 135.878752 122.514005 
L 137.400571 110.765106 
L 138.922389 75.562614 
L 140.444207 75.050592 
L 141.966025 130.231815 
L 143.487843 79.085118 
L 145.009661 80.129094 
L 146.53148 92.136112 
L 148.053298 95.736727 
L 149.575116 96.24521 
L 151.096934 73.146056 
L 152.618752 75.953711 
L 154.140571 104.999121 
L 155.662389 95.311633 
L 157.184207 60.891697 
L 158.706025 98.204494 
L 160.227843 58.756599 
L 161.749661 99.092157 
L 163.27148 99.291768 
L 164.793298 79.037989 
L 166.315116 99.78082 
L 167.836934 112.26482 
L 169.358752 94.436633 
L 170.880571 42.3436 
L 173.924207 113.700737 
L 175.446025 71.259338 
L 176.967843 95.224706 
L 178.489661 56.651706 
L 180.01148 47.656401 
L 181.533298 51.110169 
L 183.055116 69.777566 
L 184.576934 60.074257 
L 187.620571 87.690623 
L 189.142389 59.238207 
L 190.664207 52.510506 
L 192.186025 35.950655 
L 193.707843 22.205457 
L 195.229661 50.240942 
L 196.75148 45.854199 
L 198.273298 10.623805 
L 199.795116 54.475706 
L 201.316934 80.885606 
L 202.838752 79.849767 
L 204.360571 34.753584 
L 205.882389 57.564673 
L 207.404207 54.517635 
L 208.926025 59.000505 
L 210.447843 43.998027 
L 211.969661 70.64377 
L 213.49148 59.347921 
L 215.013298 58.755391 
L 216.535116 35.533694 
L 218.056934 35.666432 
L 219.578752 72.411638 
L 221.100571 44.746609 
L 222.622389 40.415766 
L 224.144207 44.806896 
L 225.666025 85.95314 
L 227.187843 40.005845 
L 228.709661 51.240714 
L 230.23148 31.158768 
L 231.753298 66.854097 
L 233.275116 57.671259 
L 234.796934 13.887239 
L 236.318752 37.07292 
L 237.840571 27.658799 
L 239.362389 39.044484 
L 240.884207 35.767844 
L 242.406025 41.393147 
L 243.927843 54.485869 
L 245.449661 58.432195 
L 248.493298 57.401933 
L 250.015116 57.580751 
L 254.580571 20.850461 
L 256.102389 36.370866 
L 257.624207 60.798024 
L 259.146025 58.074586 
L 260.667843 3.342444 
L 262.189661 67.797576 
L 263.71148 54.976992 
L 265.233298 38.251083 
L 266.755116 72.331253 
L 268.276934 80.707986 
L 269.798752 23.019987 
L 271.320571 29.804345 
L 272.842389 70.235622 
L 274.364207 14.090178 
L 275.886025 77.297409 
L 277.407843 30.240537 
L 278.929661 77.892843 
L 280.45148 60.549823 
L 281.973298 40.528675 
L 283.495116 70.209609 
L 285.016934 44.487069 
L 286.538752 62.41734 
L 288.060571 7.878361 
L 289.582389 53.798797 
L 291.104207 26.15911 
L 292.626025 39.322979 
L 294.147843 54.686445 
L 295.669661 63.791084 
L 297.19148 39.684463 
L 298.713298 56.792071 
L 300.235116 29.175259 
L 301.756934 40.329473 
L 303.278752 53.576942 
L 304.800571 61.583258 
L 306.322389 36.203868 
L 307.844207 56.659679 
L 309.366025 65.828708 
L 310.887843 73.498588 
L 312.409661 29.701571 
L 313.93148 77.064399 
L 315.453298 58.74549 
L 316.975116 72.099824 
L 318.496934 59.69087 
L 320.018752 40.218254 
L 321.540571 57.279118 
L 323.062389 61.506354 
L 324.584207 52.740978 
L 326.106025 52.28756 
L 327.627843 45.156251 
L 329.149661 69.850499 
L 330.67148 45.425879 
L 332.193298 43.196576 
L 333.715116 57.397374 
L 333.715116 57.397374 
" style="fill:none;stroke:#1f77b4;stroke-linecap:square;"/>
   </g>
   <g id="line2d_31">
    <path clip-path="url(#p9c8b81449d)" d="M 29.35148 193.474415 
L 38.482389 183.129279 
L 47.613298 173.16373 
L 56.744207 163.577769 
L 65.875116 154.371396 
L 73.484207 146.98938 
L 81.093298 139.870968 
L 88.702389 133.016158 
L 96.31148 126.42495 
L 103.920571 120.097345 
L 111.529661 114.033342 
L 119.138752 108.232942 
L 126.747843 102.696145 
L 134.356934 97.42295 
L 141.966025 92.413357 
L 149.575116 87.667367 
L 157.184207 83.18498 
L 164.793298 78.966195 
L 172.402389 75.011012 
L 180.01148 71.319432 
L 187.620571 67.891454 
L 195.229661 64.727079 
L 202.838752 61.826307 
L 210.447843 59.189137 
L 218.056934 56.815569 
L 225.666025 54.705604 
L 233.275116 52.859242 
L 240.884207 51.276482 
L 248.493298 49.957324 
L 256.102389 48.901769 
L 263.71148 48.109817 
L 271.320571 47.581467 
L 278.929661 47.31672 
L 286.538752 47.315575 
L 294.147843 47.578032 
L 301.756934 48.104092 
L 309.366025 48.893755 
L 316.975116 49.94702 
L 324.584207 51.263887 
L 332.193298 52.844358 
L 333.715116 53.192084 
L 333.715116 53.192084 
" style="fill:none;stroke:#2ca02c;stroke-linecap:square;"/>
   </g>
   <g id="line2d_32">
    <path clip-path="url(#p9c8b81449d)" d="M 29.35148 193.474415 
L 29.35148 180.153013 
" style="fill:none;stroke:#ff7f0e;stroke-linecap:square;"/>
   </g>
   <g id="line2d_33">
    <path clip-path="url(#p9c8b81449d)" d="M 30.873298 191.723865 
L 30.873298 172.523402 
" style="fill:none;stroke:#ff7f0e;stroke-linecap:square;"/>
   </g>
   <g id="line2d_34">
    <path clip-path="url(#p9c8b81449d)" d="M 32.395116 189.98386 
L 32.395116 191.096639 
" style="fill:none;stroke:#ff7f0e;stroke-linecap:square;"/>
   </g>
   <g id="line2d_35">
    <path clip-path="url(#p9c8b81449d)" d="M 33.916934 188.254398 
L 33.916934 162.442936 
" style="fill:none;stroke:#ff7f0e;stroke-linecap:square;"/>
   </g>
   <g id="line2d_36">
    <path clip-path="url(#p9c8b81449d)" d="M 35.438752 186.535481 
L 35.438752 145.32909 
" style="fill:none;stroke:#ff7f0e;stroke-linecap:square;"/>
   </g>
   <g id="line2d_37">
    <path clip-path="url(#p9c8b81449d)" d="M 36.960571 184.827108 
L 36.960571 188.530806 
" style="fill:none;stroke:#ff7f0e;stroke-linecap:square;"/>
   </g>
   <g id="line2d_38">
    <path clip-path="url(#p9c8b81449d)" d="M 38.482389 183.129279 
L 38.482389 196.517591 
" style="fill:none;stroke:#ff7f0e;stroke-linecap:square;"/>
   </g>
   <g id="line2d_39">
    <path clip-path="url(#p9c8b81449d)" d="M 40.004207 181.441994 
L 40.004207 188.673467 
" style="fill:none;stroke:#ff7f0e;stroke-linecap:square;"/>
   </g>
   <g id="line2d_40">
    <path clip-path="url(#p9c8b81449d)" d="M 41.526025 179.765253 
L 41.526025 170.145136 
" style="fill:none;stroke:#ff7f0e;stroke-linecap:square;"/>
   </g>
   <g id="line2d_41">
    <path clip-path="url(#p9c8b81449d)" d="M 43.047843 178.099056 
L 43.047843 177.506811 
" style="fill:none;stroke:#ff7f0e;stroke-linecap:square;"/>
   </g>
   <g id="line2d_42">
    <path clip-path="url(#p9c8b81449d)" d="M 44.569661 176.443403 
L 44.569661 202.143809 
" style="fill:none;stroke:#ff7f0e;stroke-linecap:square;"/>
   </g>
   <g id="line2d_43">
    <path clip-path="url(#p9c8b81449d)" d="M 46.09148 174.798295 
L 46.09148 178.112178 
" style="fill:none;stroke:#ff7f0e;stroke-linecap:square;"/>
   </g>
   <g id="line2d_44">
    <path clip-path="url(#p9c8b81449d)" d="M 47.613298 173.16373 
L 47.613298 167.815803 
" style="fill:none;stroke:#ff7f0e;stroke-linecap:square;"/>
   </g>
   <g id="line2d_45">
    <path clip-path="url(#p9c8b81449d)" d="M 49.135116 171.53971 
L 49.135116 167.49991 
" style="fill:none;stroke:#ff7f0e;stroke-linecap:square;"/>
   </g>
   <g id="line2d_46">
    <path clip-path="url(#p9c8b81449d)" d="M 50.656934 169.926233 
L 50.656934 128.700912 
" style="fill:none;stroke:#ff7f0e;stroke-linecap:square;"/>
   </g>
   <g id="line2d_47">
    <path clip-path="url(#p9c8b81449d)" d="M 52.178752 168.323301 
L 52.178752 146.325982 
" style="fill:none;stroke:#ff7f0e;stroke-linecap:square;"/>
   </g>
   <g id="line2d_48">
    <path clip-path="url(#p9c8b81449d)" d="M 53.700571 166.730913 
L 53.700571 158.853639 
" style="fill:none;stroke:#ff7f0e;stroke-linecap:square;"/>
   </g>
   <g id="line2d_49">
    <path clip-path="url(#p9c8b81449d)" d="M 55.222389 165.149069 
L 55.222389 159.953521 
" style="fill:none;stroke:#ff7f0e;stroke-linecap:square;"/>
   </g>
   <g id="line2d_50">
    <path clip-path="url(#p9c8b81449d)" d="M 56.744207 163.577769 
L 56.744207 123.313427 
" style="fill:none;stroke:#ff7f0e;stroke-linecap:square;"/>
   </g>
   <g id="line2d_51">
    <path clip-path="url(#p9c8b81449d)" d="M 58.266025 162.017013 
L 58.266025 152.764292 
" style="fill:none;stroke:#ff7f0e;stroke-linecap:square;"/>
   </g>
   <g id="line2d_52">
    <path clip-path="url(#p9c8b81449d)" d="M 59.787843 160.466801 
L 59.787843 170.817079 
" style="fill:none;stroke:#ff7f0e;stroke-linecap:square;"/>
   </g>
   <g id="line2d_53">
    <path clip-path="url(#p9c8b81449d)" d="M 61.309661 158.927134 
L 61.309661 161.967116 
" style="fill:none;stroke:#ff7f0e;stroke-linecap:square;"/>
   </g>
   <g id="line2d_54">
    <path clip-path="url(#p9c8b81449d)" d="M 62.83148 157.39801 
L 62.83148 152.250198 
" style="fill:none;stroke:#ff7f0e;stroke-linecap:square;"/>
   </g>
   <g id="line2d_55">
    <path clip-path="url(#p9c8b81449d)" d="M 64.353298 155.879431 
L 64.353298 163.869587 
" style="fill:none;stroke:#ff7f0e;stroke-linecap:square;"/>
   </g>
   <g id="line2d_56">
    <path clip-path="url(#p9c8b81449d)" d="M 65.875116 154.371396 
L 65.875116 173.453017 
" style="fill:none;stroke:#ff7f0e;stroke-linecap:square;"/>
   </g>
   <g id="line2d_57">
    <path clip-path="url(#p9c8b81449d)" d="M 67.396934 152.873904 
L 67.396934 132.22003 
" style="fill:none;stroke:#ff7f0e;stroke-linecap:square;"/>
   </g>
   <g id="line2d_58">
    <path clip-path="url(#p9c8b81449d)" d="M 68.918752 151.386957 
L 68.918752 172.148473 
" style="fill:none;stroke:#ff7f0e;stroke-linecap:square;"/>
   </g>
   <g id="line2d_59">
    <path clip-path="url(#p9c8b81449d)" d="M 70.440571 149.910554 
L 70.440571 159.834512 
" style="fill:none;stroke:#ff7f0e;stroke-linecap:square;"/>
   </g>
   <g id="line2d_60">
    <path clip-path="url(#p9c8b81449d)" d="M 71.962389 148.444695 
L 71.962389 183.285524 
" style="fill:none;stroke:#ff7f0e;stroke-linecap:square;"/>
   </g>
   <g id="line2d_61">
    <path clip-path="url(#p9c8b81449d)" d="M 73.484207 146.98938 
L 73.484207 135.674825 
" style="fill:none;stroke:#ff7f0e;stroke-linecap:square;"/>
   </g>
   <g id="line2d_62">
    <path clip-path="url(#p9c8b81449d)" d="M 75.006025 145.54461 
L 75.006025 184.792271 
" style="fill:none;stroke:#ff7f0e;stroke-linecap:square;"/>
   </g>
   <g id="line2d_63">
    <path clip-path="url(#p9c8b81449d)" d="M 76.527843 144.110383 
L 76.527843 141.943718 
" style="fill:none;stroke:#ff7f0e;stroke-linecap:square;"/>
   </g>
   <g id="line2d_64">
    <path clip-path="url(#p9c8b81449d)" d="M 78.049661 142.686701 
L 78.049661 109.226159 
" style="fill:none;stroke:#ff7f0e;stroke-linecap:square;"/>
   </g>
   <g id="line2d_65">
    <path clip-path="url(#p9c8b81449d)" d="M 79.57148 141.273562 
L 79.57148 122.448983 
" style="fill:none;stroke:#ff7f0e;stroke-linecap:square;"/>
   </g>
   <g id="line2d_66">
    <path clip-path="url(#p9c8b81449d)" d="M 81.093298 139.870968 
L 81.093298 154.630246 
" style="fill:none;stroke:#ff7f0e;stroke-linecap:square;"/>
   </g>
   <g id="line2d_67">
    <path clip-path="url(#p9c8b81449d)" d="M 82.615116 138.478918 
L 82.615116 153.484327 
" style="fill:none;stroke:#ff7f0e;stroke-linecap:square;"/>
   </g>
   <g id="line2d_68">
    <path clip-path="url(#p9c8b81449d)" d="M 84.136934 137.097411 
L 84.136934 156.603966 
" style="fill:none;stroke:#ff7f0e;stroke-linecap:square;"/>
   </g>
   <g id="line2d_69">
    <path clip-path="url(#p9c8b81449d)" d="M 85.658752 135.726449 
L 85.658752 102.172833 
" style="fill:none;stroke:#ff7f0e;stroke-linecap:square;"/>
   </g>
   <g id="line2d_70">
    <path clip-path="url(#p9c8b81449d)" d="M 87.180571 134.366032 
L 87.180571 149.318927 
" style="fill:none;stroke:#ff7f0e;stroke-linecap:square;"/>
   </g>
   <g id="line2d_71">
    <path clip-path="url(#p9c8b81449d)" d="M 88.702389 133.016158 
L 88.702389 133.231977 
" style="fill:none;stroke:#ff7f0e;stroke-linecap:square;"/>
   </g>
   <g id="line2d_72">
    <path clip-path="url(#p9c8b81449d)" d="M 90.224207 131.676828 
L 90.224207 132.82399 
" style="fill:none;stroke:#ff7f0e;stroke-linecap:square;"/>
   </g>
   <g id="line2d_73">
    <path clip-path="url(#p9c8b81449d)" d="M 91.746025 130.348042 
L 91.746025 189.14553 
" style="fill:none;stroke:#ff7f0e;stroke-linecap:square;"/>
   </g>
   <g id="line2d_74">
    <path clip-path="url(#p9c8b81449d)" d="M 93.267843 129.029801 
L 93.267843 129.014176 
" style="fill:none;stroke:#ff7f0e;stroke-linecap:square;"/>
   </g>
   <g id="line2d_75">
    <path clip-path="url(#p9c8b81449d)" d="M 94.789661 127.722103 
L 94.789661 106.464066 
" style="fill:none;stroke:#ff7f0e;stroke-linecap:square;"/>
   </g>
   <g id="line2d_76">
    <path clip-path="url(#p9c8b81449d)" d="M 96.31148 126.42495 
L 96.31148 160.814881 
" style="fill:none;stroke:#ff7f0e;stroke-linecap:square;"/>
   </g>
   <g id="line2d_77">
    <path clip-path="url(#p9c8b81449d)" d="M 97.833298 125.138341 
L 97.833298 124.085265 
" style="fill:none;stroke:#ff7f0e;stroke-linecap:square;"/>
   </g>
   <g id="line2d_78">
    <path clip-path="url(#p9c8b81449d)" d="M 99.355116 123.862276 
L 99.355116 123.142482 
" style="fill:none;stroke:#ff7f0e;stroke-linecap:square;"/>
   </g>
   <g id="line2d_79">
    <path clip-path="url(#p9c8b81449d)" d="M 100.876934 122.596755 
L 100.876934 117.447306 
" style="fill:none;stroke:#ff7f0e;stroke-linecap:square;"/>
   </g>
   <g id="line2d_80">
    <path clip-path="url(#p9c8b81449d)" d="M 102.398752 121.341778 
L 102.398752 121.226113 
" style="fill:none;stroke:#ff7f0e;stroke-linecap:square;"/>
   </g>
   <g id="line2d_81">
    <path clip-path="url(#p9c8b81449d)" d="M 103.920571 120.097345 
L 103.920571 134.07779 
" style="fill:none;stroke:#ff7f0e;stroke-linecap:square;"/>
   </g>
   <g id="line2d_82">
    <path clip-path="url(#p9c8b81449d)" d="M 105.442389 118.863456 
L 105.442389 116.288436 
" style="fill:none;stroke:#ff7f0e;stroke-linecap:square;"/>
   </g>
   <g id="line2d_83">
    <path clip-path="url(#p9c8b81449d)" d="M 106.964207 117.640112 
L 106.964207 121.438863 
" style="fill:none;stroke:#ff7f0e;stroke-linecap:square;"/>
   </g>
   <g id="line2d_84">
    <path clip-path="url(#p9c8b81449d)" d="M 108.486025 116.427311 
L 108.486025 83.970862 
" style="fill:none;stroke:#ff7f0e;stroke-linecap:square;"/>
   </g>
   <g id="line2d_85">
    <path clip-path="url(#p9c8b81449d)" d="M 110.007843 115.225055 
L 110.007843 118.66689 
" style="fill:none;stroke:#ff7f0e;stroke-linecap:square;"/>
   </g>
   <g id="line2d_86">
    <path clip-path="url(#p9c8b81449d)" d="M 111.529661 114.033342 
L 111.529661 119.879595 
" style="fill:none;stroke:#ff7f0e;stroke-linecap:square;"/>
   </g>
   <g id="line2d_87">
    <path clip-path="url(#p9c8b81449d)" d="M 113.05148 112.852174 
L 113.05148 79.960776 
" style="fill:none;stroke:#ff7f0e;stroke-linecap:square;"/>
   </g>
   <g id="line2d_88">
    <path clip-path="url(#p9c8b81449d)" d="M 114.573298 111.68155 
L 114.573298 143.982537 
" style="fill:none;stroke:#ff7f0e;stroke-linecap:square;"/>
   </g>
   <g id="line2d_89">
    <path clip-path="url(#p9c8b81449d)" d="M 116.095116 110.52147 
L 116.095116 142.931614 
" style="fill:none;stroke:#ff7f0e;stroke-linecap:square;"/>
   </g>
   <g id="line2d_90">
    <path clip-path="url(#p9c8b81449d)" d="M 117.616934 109.371934 
L 117.616934 130.16508 
" style="fill:none;stroke:#ff7f0e;stroke-linecap:square;"/>
   </g>
   <g id="line2d_91">
    <path clip-path="url(#p9c8b81449d)" d="M 119.138752 108.232942 
L 119.138752 100.464281 
" style="fill:none;stroke:#ff7f0e;stroke-linecap:square;"/>
   </g>
   <g id="line2d_92">
    <path clip-path="url(#p9c8b81449d)" d="M 120.660571 107.104495 
L 120.660571 121.516008 
" style="fill:none;stroke:#ff7f0e;stroke-linecap:square;"/>
   </g>
   <g id="line2d_93">
    <path clip-path="url(#p9c8b81449d)" d="M 122.182389 105.986591 
L 122.182389 127.958231 
" style="fill:none;stroke:#ff7f0e;stroke-linecap:square;"/>
   </g>
   <g id="line2d_94">
    <path clip-path="url(#p9c8b81449d)" d="M 123.704207 104.879232 
L 123.704207 107.955902 
" style="fill:none;stroke:#ff7f0e;stroke-linecap:square;"/>
   </g>
   <g id="line2d_95">
    <path clip-path="url(#p9c8b81449d)" d="M 125.226025 103.782416 
L 125.226025 110.230875 
" style="fill:none;stroke:#ff7f0e;stroke-linecap:square;"/>
   </g>
   <g id="line2d_96">
    <path clip-path="url(#p9c8b81449d)" d="M 126.747843 102.696145 
L 126.747843 142.586201 
" style="fill:none;stroke:#ff7f0e;stroke-linecap:square;"/>
   </g>
   <g id="line2d_97">
    <path clip-path="url(#p9c8b81449d)" d="M 128.269661 101.620418 
L 128.269661 121.368814 
" style="fill:none;stroke:#ff7f0e;stroke-linecap:square;"/>
   </g>
   <g id="line2d_98">
    <path clip-path="url(#p9c8b81449d)" d="M 129.79148 100.555234 
L 129.79148 113.046622 
" style="fill:none;stroke:#ff7f0e;stroke-linecap:square;"/>
   </g>
   <g id="line2d_99">
    <path clip-path="url(#p9c8b81449d)" d="M 131.313298 99.500595 
L 131.313298 124.088758 
" style="fill:none;stroke:#ff7f0e;stroke-linecap:square;"/>
   </g>
   <g id="line2d_100">
    <path clip-path="url(#p9c8b81449d)" d="M 132.835116 98.456501 
L 132.835116 103.3994 
" style="fill:none;stroke:#ff7f0e;stroke-linecap:square;"/>
   </g>
   <g id="line2d_101">
    <path clip-path="url(#p9c8b81449d)" d="M 134.356934 97.42295 
L 134.356934 92.960783 
" style="fill:none;stroke:#ff7f0e;stroke-linecap:square;"/>
   </g>
   <g id="line2d_102">
    <path clip-path="url(#p9c8b81449d)" d="M 135.878752 96.399943 
L 135.878752 122.514005 
" style="fill:none;stroke:#ff7f0e;stroke-linecap:square;"/>
   </g>
   <g id="line2d_103">
    <path clip-path="url(#p9c8b81449d)" d="M 137.400571 95.38748 
L 137.400571 110.765106 
" style="fill:none;stroke:#ff7f0e;stroke-linecap:square;"/>
   </g>
   <g id="line2d_104">
    <path clip-path="url(#p9c8b81449d)" d="M 138.922389 94.385562 
L 138.922389 75.562614 
" style="fill:none;stroke:#ff7f0e;stroke-linecap:square;"/>
   </g>
   <g id="line2d_105">
    <path clip-path="url(#p9c8b81449d)" d="M 140.444207 93.394188 
L 140.444207 75.050592 
" style="fill:none;stroke:#ff7f0e;stroke-linecap:square;"/>
   </g>
   <g id="line2d_106">
    <path clip-path="url(#p9c8b81449d)" d="M 141.966025 92.413357 
L 141.966025 130.231815 
" style="fill:none;stroke:#ff7f0e;stroke-linecap:square;"/>
   </g>
   <g id="line2d_107">
    <path clip-path="url(#p9c8b81449d)" d="M 143.487843 91.443071 
L 143.487843 79.085118 
" style="fill:none;stroke:#ff7f0e;stroke-linecap:square;"/>
   </g>
   <g id="line2d_108">
    <path clip-path="url(#p9c8b81449d)" d="M 145.009661 90.483329 
L 145.009661 80.129094 
" style="fill:none;stroke:#ff7f0e;stroke-linecap:square;"/>
   </g>
   <g id="line2d_109">
    <path clip-path="url(#p9c8b81449d)" d="M 146.53148 89.534131 
L 146.53148 92.136112 
" style="fill:none;stroke:#ff7f0e;stroke-linecap:square;"/>
   </g>
   <g id="line2d_110">
    <path clip-path="url(#p9c8b81449d)" d="M 148.053298 88.595477 
L 148.053298 95.736727 
" style="fill:none;stroke:#ff7f0e;stroke-linecap:square;"/>
   </g>
   <g id="line2d_111">
    <path clip-path="url(#p9c8b81449d)" d="M 149.575116 87.667367 
L 149.575116 96.24521 
" style="fill:none;stroke:#ff7f0e;stroke-linecap:square;"/>
   </g>
   <g id="line2d_112">
    <path clip-path="url(#p9c8b81449d)" d="M 151.096934 86.749801 
L 151.096934 73.146056 
" style="fill:none;stroke:#ff7f0e;stroke-linecap:square;"/>
   </g>
   <g id="line2d_113">
    <path clip-path="url(#p9c8b81449d)" d="M 152.618752 85.84278 
L 152.618752 75.953711 
" style="fill:none;stroke:#ff7f0e;stroke-linecap:square;"/>
   </g>
   <g id="line2d_114">
    <path clip-path="url(#p9c8b81449d)" d="M 154.140571 84.946302 
L 154.140571 104.999121 
" style="fill:none;stroke:#ff7f0e;stroke-linecap:square;"/>
   </g>
   <g id="line2d_115">
    <path clip-path="url(#p9c8b81449d)" d="M 155.662389 84.060369 
L 155.662389 95.311633 
" style="fill:none;stroke:#ff7f0e;stroke-linecap:square;"/>
   </g>
   <g id="line2d_116">
    <path clip-path="url(#p9c8b81449d)" d="M 157.184207 83.18498 
L 157.184207 60.891697 
" style="fill:none;stroke:#ff7f0e;stroke-linecap:square;"/>
   </g>
   <g id="line2d_117">
    <path clip-path="url(#p9c8b81449d)" d="M 158.706025 82.320134 
L 158.706025 98.204494 
" style="fill:none;stroke:#ff7f0e;stroke-linecap:square;"/>
   </g>
   <g id="line2d_118">
    <path clip-path="url(#p9c8b81449d)" d="M 160.227843 81.465833 
L 160.227843 58.756599 
" style="fill:none;stroke:#ff7f0e;stroke-linecap:square;"/>
   </g>
   <g id="line2d_119">
    <path clip-path="url(#p9c8b81449d)" d="M 161.749661 80.622076 
L 161.749661 99.092157 
" style="fill:none;stroke:#ff7f0e;stroke-linecap:square;"/>
   </g>
   <g id="line2d_120">
    <path clip-path="url(#p9c8b81449d)" d="M 163.27148 79.788863 
L 163.27148 99.291768 
" style="fill:none;stroke:#ff7f0e;stroke-linecap:square;"/>
   </g>
   <g id="line2d_121">
    <path clip-path="url(#p9c8b81449d)" d="M 164.793298 78.966195 
L 164.793298 79.037989 
" style="fill:none;stroke:#ff7f0e;stroke-linecap:square;"/>
   </g>
   <g id="line2d_122">
    <path clip-path="url(#p9c8b81449d)" d="M 166.315116 78.15407 
L 166.315116 99.78082 
" style="fill:none;stroke:#ff7f0e;stroke-linecap:square;"/>
   </g>
   <g id="line2d_123">
    <path clip-path="url(#p9c8b81449d)" d="M 167.836934 77.352489 
L 167.836934 112.26482 
" style="fill:none;stroke:#ff7f0e;stroke-linecap:square;"/>
   </g>
   <g id="line2d_124">
    <path clip-path="url(#p9c8b81449d)" d="M 169.358752 76.561453 
L 169.358752 94.436633 
" style="fill:none;stroke:#ff7f0e;stroke-linecap:square;"/>
   </g>
   <g id="line2d_125">
    <path clip-path="url(#p9c8b81449d)" d="M 170.880571 75.78096 
L 170.880571 42.3436 
" style="fill:none;stroke:#ff7f0e;stroke-linecap:square;"/>
   </g>
   <g id="line2d_126">
    <path clip-path="url(#p9c8b81449d)" d="M 172.402389 75.011012 
L 172.402389 77.331592 
" style="fill:none;stroke:#ff7f0e;stroke-linecap:square;"/>
   </g>
   <g id="line2d_127">
    <path clip-path="url(#p9c8b81449d)" d="M 173.924207 74.251608 
L 173.924207 113.700737 
" style="fill:none;stroke:#ff7f0e;stroke-linecap:square;"/>
   </g>
   <g id="line2d_128">
    <path clip-path="url(#p9c8b81449d)" d="M 175.446025 73.502748 
L 175.446025 71.259338 
" style="fill:none;stroke:#ff7f0e;stroke-linecap:square;"/>
   </g>
   <g id="line2d_129">
    <path clip-path="url(#p9c8b81449d)" d="M 176.967843 72.764432 
L 176.967843 95.224706 
" style="fill:none;stroke:#ff7f0e;stroke-linecap:square;"/>
   </g>
   <g id="line2d_130">
    <path clip-path="url(#p9c8b81449d)" d="M 178.489661 72.03666 
L 178.489661 56.651706 
" style="fill:none;stroke:#ff7f0e;stroke-linecap:square;"/>
   </g>
   <g id="line2d_131">
    <path clip-path="url(#p9c8b81449d)" d="M 180.01148 71.319432 
L 180.01148 47.656401 
" style="fill:none;stroke:#ff7f0e;stroke-linecap:square;"/>
   </g>
   <g id="line2d_132">
    <path clip-path="url(#p9c8b81449d)" d="M 181.533298 70.612748 
L 181.533298 51.110169 
" style="fill:none;stroke:#ff7f0e;stroke-linecap:square;"/>
   </g>
   <g id="line2d_133">
    <path clip-path="url(#p9c8b81449d)" d="M 183.055116 69.916609 
L 183.055116 69.777566 
" style="fill:none;stroke:#ff7f0e;stroke-linecap:square;"/>
   </g>
   <g id="line2d_134">
    <path clip-path="url(#p9c8b81449d)" d="M 184.576934 69.231013 
L 184.576934 60.074257 
" style="fill:none;stroke:#ff7f0e;stroke-linecap:square;"/>
   </g>
   <g id="line2d_135">
    <path clip-path="url(#p9c8b81449d)" d="M 186.098752 68.555962 
L 186.098752 73.9925 
" style="fill:none;stroke:#ff7f0e;stroke-linecap:square;"/>
   </g>
   <g id="line2d_136">
    <path clip-path="url(#p9c8b81449d)" d="M 187.620571 67.891454 
L 187.620571 87.690623 
" style="fill:none;stroke:#ff7f0e;stroke-linecap:square;"/>
   </g>
   <g id="line2d_137">
    <path clip-path="url(#p9c8b81449d)" d="M 189.142389 67.237491 
L 189.142389 59.238207 
" style="fill:none;stroke:#ff7f0e;stroke-linecap:square;"/>
   </g>
   <g id="line2d_138">
    <path clip-path="url(#p9c8b81449d)" d="M 190.664207 66.594072 
L 190.664207 52.510506 
" style="fill:none;stroke:#ff7f0e;stroke-linecap:square;"/>
   </g>
   <g id="line2d_139">
    <path clip-path="url(#p9c8b81449d)" d="M 192.186025 65.961197 
L 192.186025 35.950655 
" style="fill:none;stroke:#ff7f0e;stroke-linecap:square;"/>
   </g>
   <g id="line2d_140">
    <path clip-path="url(#p9c8b81449d)" d="M 193.707843 65.338866 
L 193.707843 22.205457 
" style="fill:none;stroke:#ff7f0e;stroke-linecap:square;"/>
   </g>
   <g id="line2d_141">
    <path clip-path="url(#p9c8b81449d)" d="M 195.229661 64.727079 
L 195.229661 50.240942 
" style="fill:none;stroke:#ff7f0e;stroke-linecap:square;"/>
   </g>
   <g id="line2d_142">
    <path clip-path="url(#p9c8b81449d)" d="M 196.75148 64.125837 
L 196.75148 45.854199 
" style="fill:none;stroke:#ff7f0e;stroke-linecap:square;"/>
   </g>
   <g id="line2d_143">
    <path clip-path="url(#p9c8b81449d)" d="M 198.273298 63.535138 
L 198.273298 10.623805 
" style="fill:none;stroke:#ff7f0e;stroke-linecap:square;"/>
   </g>
   <g id="line2d_144">
    <path clip-path="url(#p9c8b81449d)" d="M 199.795116 62.954984 
L 199.795116 54.475706 
" style="fill:none;stroke:#ff7f0e;stroke-linecap:square;"/>
   </g>
   <g id="line2d_145">
    <path clip-path="url(#p9c8b81449d)" d="M 201.316934 62.385373 
L 201.316934 80.885606 
" style="fill:none;stroke:#ff7f0e;stroke-linecap:square;"/>
   </g>
   <g id="line2d_146">
    <path clip-path="url(#p9c8b81449d)" d="M 202.838752 61.826307 
L 202.838752 79.849767 
" style="fill:none;stroke:#ff7f0e;stroke-linecap:square;"/>
   </g>
   <g id="line2d_147">
    <path clip-path="url(#p9c8b81449d)" d="M 204.360571 61.277785 
L 204.360571 34.753584 
" style="fill:none;stroke:#ff7f0e;stroke-linecap:square;"/>
   </g>
   <g id="line2d_148">
    <path clip-path="url(#p9c8b81449d)" d="M 205.882389 60.739807 
L 205.882389 57.564673 
" style="fill:none;stroke:#ff7f0e;stroke-linecap:square;"/>
   </g>
   <g id="line2d_149">
    <path clip-path="url(#p9c8b81449d)" d="M 207.404207 60.212373 
L 207.404207 54.517635 
" style="fill:none;stroke:#ff7f0e;stroke-linecap:square;"/>
   </g>
   <g id="line2d_150">
    <path clip-path="url(#p9c8b81449d)" d="M 208.926025 59.695483 
L 208.926025 59.000505 
" style="fill:none;stroke:#ff7f0e;stroke-linecap:square;"/>
   </g>
   <g id="line2d_151">
    <path clip-path="url(#p9c8b81449d)" d="M 210.447843 59.189137 
L 210.447843 43.998027 
" style="fill:none;stroke:#ff7f0e;stroke-linecap:square;"/>
   </g>
   <g id="line2d_152">
    <path clip-path="url(#p9c8b81449d)" d="M 211.969661 58.693335 
L 211.969661 70.64377 
" style="fill:none;stroke:#ff7f0e;stroke-linecap:square;"/>
   </g>
   <g id="line2d_153">
    <path clip-path="url(#p9c8b81449d)" d="M 213.49148 58.208078 
L 213.49148 59.347921 
" style="fill:none;stroke:#ff7f0e;stroke-linecap:square;"/>
   </g>
   <g id="line2d_154">
    <path clip-path="url(#p9c8b81449d)" d="M 215.013298 57.733364 
L 215.013298 58.755391 
" style="fill:none;stroke:#ff7f0e;stroke-linecap:square;"/>
   </g>
   <g id="line2d_155">
    <path clip-path="url(#p9c8b81449d)" d="M 216.535116 57.269195 
L 216.535116 35.533694 
" style="fill:none;stroke:#ff7f0e;stroke-linecap:square;"/>
   </g>
   <g id="line2d_156">
    <path clip-path="url(#p9c8b81449d)" d="M 218.056934 56.815569 
L 218.056934 35.666432 
" style="fill:none;stroke:#ff7f0e;stroke-linecap:square;"/>
   </g>
   <g id="line2d_157">
    <path clip-path="url(#p9c8b81449d)" d="M 219.578752 56.372488 
L 219.578752 72.411638 
" style="fill:none;stroke:#ff7f0e;stroke-linecap:square;"/>
   </g>
   <g id="line2d_158">
    <path clip-path="url(#p9c8b81449d)" d="M 221.100571 55.939951 
L 221.100571 44.746609 
" style="fill:none;stroke:#ff7f0e;stroke-linecap:square;"/>
   </g>
   <g id="line2d_159">
    <path clip-path="url(#p9c8b81449d)" d="M 222.622389 55.517958 
L 222.622389 40.415766 
" style="fill:none;stroke:#ff7f0e;stroke-linecap:square;"/>
   </g>
   <g id="line2d_160">
    <path clip-path="url(#p9c8b81449d)" d="M 224.144207 55.106509 
L 224.144207 44.806896 
" style="fill:none;stroke:#ff7f0e;stroke-linecap:square;"/>
   </g>
   <g id="line2d_161">
    <path clip-path="url(#p9c8b81449d)" d="M 225.666025 54.705604 
L 225.666025 85.95314 
" style="fill:none;stroke:#ff7f0e;stroke-linecap:square;"/>
   </g>
   <g id="line2d_162">
    <path clip-path="url(#p9c8b81449d)" d="M 227.187843 54.315244 
L 227.187843 40.005845 
" style="fill:none;stroke:#ff7f0e;stroke-linecap:square;"/>
   </g>
   <g id="line2d_163">
    <path clip-path="url(#p9c8b81449d)" d="M 228.709661 53.935427 
L 228.709661 51.240714 
" style="fill:none;stroke:#ff7f0e;stroke-linecap:square;"/>
   </g>
   <g id="line2d_164">
    <path clip-path="url(#p9c8b81449d)" d="M 230.23148 53.566155 
L 230.23148 31.158768 
" style="fill:none;stroke:#ff7f0e;stroke-linecap:square;"/>
   </g>
   <g id="line2d_165">
    <path clip-path="url(#p9c8b81449d)" d="M 231.753298 53.207426 
L 231.753298 66.854097 
" style="fill:none;stroke:#ff7f0e;stroke-linecap:square;"/>
   </g>
   <g id="line2d_166">
    <path clip-path="url(#p9c8b81449d)" d="M 233.275116 52.859242 
L 233.275116 57.671259 
" style="fill:none;stroke:#ff7f0e;stroke-linecap:square;"/>
   </g>
   <g id="line2d_167">
    <path clip-path="url(#p9c8b81449d)" d="M 234.796934 52.521602 
L 234.796934 13.887239 
" style="fill:none;stroke:#ff7f0e;stroke-linecap:square;"/>
   </g>
   <g id="line2d_168">
    <path clip-path="url(#p9c8b81449d)" d="M 236.318752 52.194506 
L 236.318752 37.07292 
" style="fill:none;stroke:#ff7f0e;stroke-linecap:square;"/>
   </g>
   <g id="line2d_169">
    <path clip-path="url(#p9c8b81449d)" d="M 237.840571 51.877954 
L 237.840571 27.658799 
" style="fill:none;stroke:#ff7f0e;stroke-linecap:square;"/>
   </g>
   <g id="line2d_170">
    <path clip-path="url(#p9c8b81449d)" d="M 239.362389 51.571946 
L 239.362389 39.044484 
" style="fill:none;stroke:#ff7f0e;stroke-linecap:square;"/>
   </g>
   <g id="line2d_171">
    <path clip-path="url(#p9c8b81449d)" d="M 240.884207 51.276482 
L 240.884207 35.767844 
" style="fill:none;stroke:#ff7f0e;stroke-linecap:square;"/>
   </g>
   <g id="line2d_172">
    <path clip-path="url(#p9c8b81449d)" d="M 242.406025 50.991562 
L 242.406025 41.393147 
" style="fill:none;stroke:#ff7f0e;stroke-linecap:square;"/>
   </g>
   <g id="line2d_173">
    <path clip-path="url(#p9c8b81449d)" d="M 243.927843 50.717187 
L 243.927843 54.485869 
" style="fill:none;stroke:#ff7f0e;stroke-linecap:square;"/>
   </g>
   <g id="line2d_174">
    <path clip-path="url(#p9c8b81449d)" d="M 245.449661 50.453355 
L 245.449661 58.432195 
" style="fill:none;stroke:#ff7f0e;stroke-linecap:square;"/>
   </g>
   <g id="line2d_175">
    <path clip-path="url(#p9c8b81449d)" d="M 246.97148 50.200068 
L 246.97148 57.891316 
" style="fill:none;stroke:#ff7f0e;stroke-linecap:square;"/>
   </g>
   <g id="line2d_176">
    <path clip-path="url(#p9c8b81449d)" d="M 248.493298 49.957324 
L 248.493298 57.401933 
" style="fill:none;stroke:#ff7f0e;stroke-linecap:square;"/>
   </g>
   <g id="line2d_177">
    <path clip-path="url(#p9c8b81449d)" d="M 250.015116 49.725125 
L 250.015116 57.580751 
" style="fill:none;stroke:#ff7f0e;stroke-linecap:square;"/>
   </g>
   <g id="line2d_178">
    <path clip-path="url(#p9c8b81449d)" d="M 251.536934 49.50347 
L 251.536934 45.548025 
" style="fill:none;stroke:#ff7f0e;stroke-linecap:square;"/>
   </g>
   <g id="line2d_179">
    <path clip-path="url(#p9c8b81449d)" d="M 253.058752 49.292359 
L 253.058752 33.792844 
" style="fill:none;stroke:#ff7f0e;stroke-linecap:square;"/>
   </g>
   <g id="line2d_180">
    <path clip-path="url(#p9c8b81449d)" d="M 254.580571 49.091792 
L 254.580571 20.850461 
" style="fill:none;stroke:#ff7f0e;stroke-linecap:square;"/>
   </g>
   <g id="line2d_181">
    <path clip-path="url(#p9c8b81449d)" d="M 256.102389 48.901769 
L 256.102389 36.370866 
" style="fill:none;stroke:#ff7f0e;stroke-linecap:square;"/>
   </g>
   <g id="line2d_182">
    <path clip-path="url(#p9c8b81449d)" d="M 257.624207 48.722291 
L 257.624207 60.798024 
" style="fill:none;stroke:#ff7f0e;stroke-linecap:square;"/>
   </g>
   <g id="line2d_183">
    <path clip-path="url(#p9c8b81449d)" d="M 259.146025 48.553356 
L 259.146025 58.074586 
" style="fill:none;stroke:#ff7f0e;stroke-linecap:square;"/>
   </g>
   <g id="line2d_184">
    <path clip-path="url(#p9c8b81449d)" d="M 260.667843 48.394966 
L 260.667843 3.342444 
" style="fill:none;stroke:#ff7f0e;stroke-linecap:square;"/>
   </g>
   <g id="line2d_185">
    <path clip-path="url(#p9c8b81449d)" d="M 262.189661 48.247119 
L 262.189661 67.797576 
" style="fill:none;stroke:#ff7f0e;stroke-linecap:square;"/>
   </g>
   <g id="line2d_186">
    <path clip-path="url(#p9c8b81449d)" d="M 263.71148 48.109817 
L 263.71148 54.976992 
" style="fill:none;stroke:#ff7f0e;stroke-linecap:square;"/>
   </g>
   <g id="line2d_187">
    <path clip-path="url(#p9c8b81449d)" d="M 265.233298 47.983059 
L 265.233298 38.251083 
" style="fill:none;stroke:#ff7f0e;stroke-linecap:square;"/>
   </g>
   <g id="line2d_188">
    <path clip-path="url(#p9c8b81449d)" d="M 266.755116 47.866845 
L 266.755116 72.331253 
" style="fill:none;stroke:#ff7f0e;stroke-linecap:square;"/>
   </g>
   <g id="line2d_189">
    <path clip-path="url(#p9c8b81449d)" d="M 268.276934 47.761175 
L 268.276934 80.707986 
" style="fill:none;stroke:#ff7f0e;stroke-linecap:square;"/>
   </g>
   <g id="line2d_190">
    <path clip-path="url(#p9c8b81449d)" d="M 269.798752 47.666049 
L 269.798752 23.019987 
" style="fill:none;stroke:#ff7f0e;stroke-linecap:square;"/>
   </g>
   <g id="line2d_191">
    <path clip-path="url(#p9c8b81449d)" d="M 271.320571 47.581467 
L 271.320571 29.804345 
" style="fill:none;stroke:#ff7f0e;stroke-linecap:square;"/>
   </g>
   <g id="line2d_192">
    <path clip-path="url(#p9c8b81449d)" d="M 272.842389 47.507429 
L 272.842389 70.235622 
" style="fill:none;stroke:#ff7f0e;stroke-linecap:square;"/>
   </g>
   <g id="line2d_193">
    <path clip-path="url(#p9c8b81449d)" d="M 274.364207 47.443936 
L 274.364207 14.090178 
" style="fill:none;stroke:#ff7f0e;stroke-linecap:square;"/>
   </g>
   <g id="line2d_194">
    <path clip-path="url(#p9c8b81449d)" d="M 275.886025 47.390986 
L 275.886025 77.297409 
" style="fill:none;stroke:#ff7f0e;stroke-linecap:square;"/>
   </g>
   <g id="line2d_195">
    <path clip-path="url(#p9c8b81449d)" d="M 277.407843 47.348581 
L 277.407843 30.240537 
" style="fill:none;stroke:#ff7f0e;stroke-linecap:square;"/>
   </g>
   <g id="line2d_196">
    <path clip-path="url(#p9c8b81449d)" d="M 278.929661 47.31672 
L 278.929661 77.892843 
" style="fill:none;stroke:#ff7f0e;stroke-linecap:square;"/>
   </g>
   <g id="line2d_197">
    <path clip-path="url(#p9c8b81449d)" d="M 280.45148 47.295402 
L 280.45148 60.549823 
" style="fill:none;stroke:#ff7f0e;stroke-linecap:square;"/>
   </g>
   <g id="line2d_198">
    <path clip-path="url(#p9c8b81449d)" d="M 281.973298 47.284629 
L 281.973298 40.528675 
" style="fill:none;stroke:#ff7f0e;stroke-linecap:square;"/>
   </g>
   <g id="line2d_199">
    <path clip-path="url(#p9c8b81449d)" d="M 283.495116 47.2844 
L 283.495116 70.209609 
" style="fill:none;stroke:#ff7f0e;stroke-linecap:square;"/>
   </g>
   <g id="line2d_200">
    <path clip-path="url(#p9c8b81449d)" d="M 285.016934 47.294715 
L 285.016934 44.487069 
" style="fill:none;stroke:#ff7f0e;stroke-linecap:square;"/>
   </g>
   <g id="line2d_201">
    <path clip-path="url(#p9c8b81449d)" d="M 286.538752 47.315575 
L 286.538752 62.41734 
" style="fill:none;stroke:#ff7f0e;stroke-linecap:square;"/>
   </g>
   <g id="line2d_202">
    <path clip-path="url(#p9c8b81449d)" d="M 288.060571 47.346978 
L 288.060571 7.878361 
" style="fill:none;stroke:#ff7f0e;stroke-linecap:square;"/>
   </g>
   <g id="line2d_203">
    <path clip-path="url(#p9c8b81449d)" d="M 289.582389 47.388925 
L 289.582389 53.798797 
" style="fill:none;stroke:#ff7f0e;stroke-linecap:square;"/>
   </g>
   <g id="line2d_204">
    <path clip-path="url(#p9c8b81449d)" d="M 291.104207 47.441417 
L 291.104207 26.15911 
" style="fill:none;stroke:#ff7f0e;stroke-linecap:square;"/>
   </g>
   <g id="line2d_205">
    <path clip-path="url(#p9c8b81449d)" d="M 292.626025 47.504452 
L 292.626025 39.322979 
" style="fill:none;stroke:#ff7f0e;stroke-linecap:square;"/>
   </g>
   <g id="line2d_206">
    <path clip-path="url(#p9c8b81449d)" d="M 294.147843 47.578032 
L 294.147843 54.686445 
" style="fill:none;stroke:#ff7f0e;stroke-linecap:square;"/>
   </g>
   <g id="line2d_207">
    <path clip-path="url(#p9c8b81449d)" d="M 295.669661 47.662156 
L 295.669661 63.791084 
" style="fill:none;stroke:#ff7f0e;stroke-linecap:square;"/>
   </g>
   <g id="line2d_208">
    <path clip-path="url(#p9c8b81449d)" d="M 297.19148 47.756824 
L 297.19148 39.684463 
" style="fill:none;stroke:#ff7f0e;stroke-linecap:square;"/>
   </g>
   <g id="line2d_209">
    <path clip-path="url(#p9c8b81449d)" d="M 298.713298 47.862036 
L 298.713298 56.792071 
" style="fill:none;stroke:#ff7f0e;stroke-linecap:square;"/>
   </g>
   <g id="line2d_210">
    <path clip-path="url(#p9c8b81449d)" d="M 300.235116 47.977792 
L 300.235116 29.175259 
" style="fill:none;stroke:#ff7f0e;stroke-linecap:square;"/>
   </g>
   <g id="line2d_211">
    <path clip-path="url(#p9c8b81449d)" d="M 301.756934 48.104092 
L 301.756934 40.329473 
" style="fill:none;stroke:#ff7f0e;stroke-linecap:square;"/>
   </g>
   <g id="line2d_212">
    <path clip-path="url(#p9c8b81449d)" d="M 303.278752 48.240937 
L 303.278752 53.576942 
" style="fill:none;stroke:#ff7f0e;stroke-linecap:square;"/>
   </g>
   <g id="line2d_213">
    <path clip-path="url(#p9c8b81449d)" d="M 304.800571 48.388325 
L 304.800571 61.583258 
" style="fill:none;stroke:#ff7f0e;stroke-linecap:square;"/>
   </g>
   <g id="line2d_214">
    <path clip-path="url(#p9c8b81449d)" d="M 306.322389 48.546257 
L 306.322389 36.203868 
" style="fill:none;stroke:#ff7f0e;stroke-linecap:square;"/>
   </g>
   <g id="line2d_215">
    <path clip-path="url(#p9c8b81449d)" d="M 307.844207 48.714734 
L 307.844207 56.659679 
" style="fill:none;stroke:#ff7f0e;stroke-linecap:square;"/>
   </g>
   <g id="line2d_216">
    <path clip-path="url(#p9c8b81449d)" d="M 309.366025 48.893755 
L 309.366025 65.828708 
" style="fill:none;stroke:#ff7f0e;stroke-linecap:square;"/>
   </g>
   <g id="line2d_217">
    <path clip-path="url(#p9c8b81449d)" d="M 310.887843 49.08332 
L 310.887843 73.498588 
" style="fill:none;stroke:#ff7f0e;stroke-linecap:square;"/>
   </g>
   <g id="line2d_218">
    <path clip-path="url(#p9c8b81449d)" d="M 312.409661 49.283429 
L 312.409661 29.701571 
" style="fill:none;stroke:#ff7f0e;stroke-linecap:square;"/>
   </g>
   <g id="line2d_219">
    <path clip-path="url(#p9c8b81449d)" d="M 313.93148 49.494082 
L 313.93148 77.064399 
" style="fill:none;stroke:#ff7f0e;stroke-linecap:square;"/>
   </g>
   <g id="line2d_220">
    <path clip-path="url(#p9c8b81449d)" d="M 315.453298 49.715279 
L 315.453298 58.74549 
" style="fill:none;stroke:#ff7f0e;stroke-linecap:square;"/>
   </g>
   <g id="line2d_221">
    <path clip-path="url(#p9c8b81449d)" d="M 316.975116 49.94702 
L 316.975116 72.099824 
" style="fill:none;stroke:#ff7f0e;stroke-linecap:square;"/>
   </g>
   <g id="line2d_222">
    <path clip-path="url(#p9c8b81449d)" d="M 318.496934 50.189305 
L 318.496934 59.69087 
" style="fill:none;stroke:#ff7f0e;stroke-linecap:square;"/>
   </g>
   <g id="line2d_223">
    <path clip-path="url(#p9c8b81449d)" d="M 320.018752 50.442135 
L 320.018752 40.218254 
" style="fill:none;stroke:#ff7f0e;stroke-linecap:square;"/>
   </g>
   <g id="line2d_224">
    <path clip-path="url(#p9c8b81449d)" d="M 321.540571 50.705508 
L 321.540571 57.279118 
" style="fill:none;stroke:#ff7f0e;stroke-linecap:square;"/>
   </g>
   <g id="line2d_225">
    <path clip-path="url(#p9c8b81449d)" d="M 323.062389 50.979426 
L 323.062389 61.506354 
" style="fill:none;stroke:#ff7f0e;stroke-linecap:square;"/>
   </g>
   <g id="line2d_226">
    <path clip-path="url(#p9c8b81449d)" d="M 324.584207 51.263887 
L 324.584207 52.740978 
" style="fill:none;stroke:#ff7f0e;stroke-linecap:square;"/>
   </g>
   <g id="line2d_227">
    <path clip-path="url(#p9c8b81449d)" d="M 326.106025 51.558893 
L 326.106025 52.28756 
" style="fill:none;stroke:#ff7f0e;stroke-linecap:square;"/>
   </g>
   <g id="line2d_228">
    <path clip-path="url(#p9c8b81449d)" d="M 327.627843 51.864443 
L 327.627843 45.156251 
" style="fill:none;stroke:#ff7f0e;stroke-linecap:square;"/>
   </g>
   <g id="line2d_229">
    <path clip-path="url(#p9c8b81449d)" d="M 329.149661 52.180537 
L 329.149661 69.850499 
" style="fill:none;stroke:#ff7f0e;stroke-linecap:square;"/>
   </g>
   <g id="line2d_230">
    <path clip-path="url(#p9c8b81449d)" d="M 330.67148 52.507175 
L 330.67148 45.425879 
" style="fill:none;stroke:#ff7f0e;stroke-linecap:square;"/>
   </g>
   <g id="line2d_231">
    <path clip-path="url(#p9c8b81449d)" d="M 332.193298 52.844358 
L 332.193298 43.196576 
" style="fill:none;stroke:#ff7f0e;stroke-linecap:square;"/>
   </g>
   <g id="line2d_232">
    <path clip-path="url(#p9c8b81449d)" d="M 333.715116 53.192084 
L 333.715116 57.397374 
" style="fill:none;stroke:#ff7f0e;stroke-linecap:square;"/>
   </g>
   <g id="line2d_233">
    <path clip-path="url(#p9c8b81449d)" d="M 195.305752 89.719607 
L 227.111752 89.719607 
L 227.111752 6.857339 
L 195.305752 6.857339 
L 195.305752 89.719607 
" style="fill:none;stroke:#000000;stroke-linecap:square;stroke-width:0.8;"/>
   </g>
   <g id="patch_3">
    <path d="M 29.35148 188.235168 
L 29.35148 25.155168 
" style="fill:none;stroke:#000000;stroke-linecap:square;stroke-linejoin:miter;stroke-width:0.5;"/>
   </g>
   <g id="patch_4">
    <path d="M 333.715116 188.235168 
L 333.715116 25.155168 
" style="fill:none;stroke:#000000;stroke-linecap:square;stroke-linejoin:miter;stroke-width:0.5;"/>
   </g>
   <g id="patch_5">
    <path d="M 29.35148 188.235168 
L 333.715116 188.235168 
" style="fill:none;stroke:#000000;stroke-linecap:square;stroke-linejoin:miter;stroke-width:0.5;"/>
   </g>
   <g id="patch_6">
    <path d="M 29.35148 25.155168 
L 333.715116 25.155168 
" style="fill:none;stroke:#000000;stroke-linecap:square;stroke-linejoin:miter;stroke-width:0.5;"/>
   </g>
   <g id="text_15">
    <!-- Moindres carrés (différences) -->
    <g transform="translate(83.422598 19.155168)scale(0.16 -0.16)">
     <defs>
      <path d="M 1338 4224 
C 1299 4320 1293 4320 1158 4320 
L 339 4320 
L 339 4160 
C 781 4160 851 4160 851 3875 
L 851 610 
C 851 451 851 153 339 153 
L 339 -13 
C 486 0 755 0 915 0 
C 1075 0 1344 0 1491 -13 
L 1491 153 
C 979 153 979 451 979 610 
L 979 4135 
L 986 4135 
L 2490 89 
C 2515 25 2528 -13 2579 -13 
C 2630 -13 2643 25 2669 89 
L 4186 4166 
L 4192 4166 
L 4192 438 
C 4192 153 4122 153 3680 153 
L 3680 -13 
C 3853 0 4198 0 4384 0 
C 4570 0 4922 0 5094 -13 
L 5094 153 
C 4653 153 4582 153 4582 438 
L 4582 3875 
C 4582 4160 4653 4160 5094 4160 
L 5094 4320 
L 4282 4320 
C 4147 4320 4141 4314 4102 4218 
L 2720 502 
L 1338 4224 
z
" id="CMR17-4d" transform="scale(0.015625)"/>
      <path d="M 2758 1356 
C 2758 2176 2163 2816 1466 2816 
C 768 2816 173 2176 173 1356 
C 173 551 768 -64 1466 -64 
C 2163 -64 2758 551 2758 1356 
z
M 1466 51 
C 1165 51 909 230 762 480 
C 602 767 582 1126 582 1408 
C 582 1677 595 2010 762 2298 
C 890 2509 1139 2714 1466 2714 
C 1754 2714 1997 2554 2150 2330 
C 2349 2029 2349 1607 2349 1408 
C 2349 1158 2336 775 2163 467 
C 1984 173 1709 51 1466 51 
z
" id="CMR17-6f" transform="scale(0.015625)"/>
      <path d="M 992 3909 
C 992 4049 877 4170 730 4170 
C 589 4170 467 4056 467 3909 
C 467 3769 582 3648 730 3648 
C 870 3648 992 3763 992 3909 
z
M 243 2706 
L 243 2541 
C 602 2541 653 2502 653 2197 
L 653 427 
C 653 184 627 153 218 153 
L 218 -13 
C 371 0 646 0 806 0 
C 960 0 1222 0 1370 -13 
L 1370 153 
C 992 153 979 191 979 420 
L 979 2776 
L 243 2706 
z
" id="CMR17-69" transform="scale(0.015625)"/>
      <path d="M 2656 1933 
C 2656 2259 2592 2790 1837 2790 
C 1331 2790 1069 2400 973 2144 
L 966 2144 
L 966 2790 
L 211 2720 
L 211 2554 
C 589 2554 646 2515 646 2208 
L 646 428 
C 646 184 621 153 211 153 
L 211 -13 
C 365 0 646 0 813 0 
C 979 0 1267 0 1421 -13 
L 1421 153 
C 1011 153 986 178 986 428 
L 986 1658 
C 986 2247 1344 2688 1792 2688 
C 2266 2688 2317 2266 2317 1958 
L 2317 428 
C 2317 184 2291 153 1882 153 
L 1882 -13 
C 2035 0 2317 0 2483 0 
C 2650 0 2938 0 3091 -13 
L 3091 153 
C 2682 153 2656 178 2656 428 
L 2656 1933 
z
" id="CMR17-6e" transform="scale(0.015625)"/>
      <path d="M 1869 4326 
L 1869 4160 
C 2246 4160 2304 4122 2304 3820 
L 2304 2345 
C 2278 2377 2016 2790 1498 2790 
C 845 2790 211 2208 211 1364 
C 211 525 806 -64 1434 -64 
C 1978 -64 2259 337 2291 380 
L 2291 -63 
L 3066 -63 
L 3066 128 
C 2688 128 2630 166 2630 473 
L 2630 4396 
L 1869 4326 
z
M 2291 755 
C 2291 563 2176 390 2029 262 
C 1811 70 1594 38 1472 38 
C 1286 38 621 134 621 1356 
C 621 2612 1363 2688 1530 2688 
C 1824 2688 2061 2522 2208 2291 
C 2291 2157 2291 2138 2291 2023 
L 2291 755 
z
" id="CMR17-64" transform="scale(0.015625)"/>
      <path d="M 960 1497 
C 960 2112 1222 2688 1702 2688 
C 1747 2688 1792 2682 1837 2662 
C 1837 2662 1696 2617 1696 2452 
C 1696 2298 1818 2234 1914 2234 
C 1990 2234 2131 2279 2131 2458 
C 2131 2663 1926 2790 1709 2790 
C 1222 2790 1011 2317 947 2093 
L 941 2093 
L 941 2790 
L 198 2720 
L 198 2554 
C 576 2554 634 2515 634 2208 
L 634 428 
C 634 184 608 153 198 153 
L 198 -13 
C 352 0 646 0 813 0 
C 998 0 1325 0 1498 -13 
L 1498 153 
C 1037 153 960 153 960 440 
L 960 1497 
z
" id="CMR17-72" transform="scale(0.015625)"/>
      <path d="M 2438 1472 
C 2464 1498 2464 1511 2464 1576 
C 2464 2238 2118 2816 1389 2816 
C 710 2816 173 2169 173 1383 
C 173 551 781 -64 1459 -64 
C 2176 -64 2458 607 2458 740 
C 2458 784 2419 784 2406 784 
C 2362 784 2355 771 2330 696 
C 2189 265 1837 51 1504 51 
C 1229 51 954 203 781 480 
C 582 803 582 1176 582 1472 
L 2438 1472 
z
M 589 1568 
C 634 2505 1126 2714 1382 2714 
C 1818 2714 2112 2297 2118 1568 
L 589 1568 
z
" id="CMR17-65" transform="scale(0.015625)"/>
      <path d="M 1978 2697 
C 1978 2813 1971 2819 1933 2819 
C 1907 2819 1901 2813 1824 2717 
C 1805 2691 1747 2626 1728 2601 
C 1523 2819 1235 2819 1126 2819 
C 416 2819 160 2447 160 2076 
C 160 1498 813 1365 998 1325 
C 1402 1243 1542 1217 1677 1101 
C 1760 1025 1901 884 1901 654 
C 1901 384 1747 38 1158 38 
C 602 38 403 460 288 1021 
C 269 1110 269 1117 218 1117 
C 166 1117 160 1110 160 983 
L 160 63 
C 160 -51 166 -58 205 -58 
C 237 -58 243 -51 275 0 
C 314 57 410 211 448 276 
C 576 103 800 -64 1158 -64 
C 1792 -64 2131 283 2131 784 
C 2131 1112 1958 1285 1875 1362 
C 1683 1561 1459 1606 1190 1657 
C 838 1735 390 1825 390 2217 
C 390 2383 480 2737 1126 2737 
C 1811 2737 1850 2094 1862 1888 
C 1869 1856 1901 1849 1920 1849 
C 1978 1849 1978 1869 1978 1978 
L 1978 2697 
z
" id="CMR17-73" transform="scale(0.015625)"/>
      <path d="M 2234 2240 
C 2112 2240 1933 2240 1933 2017 
C 1933 1838 2080 1787 2163 1787 
C 2208 1787 2394 1807 2394 2024 
C 2394 2467 1958 2803 1466 2803 
C 787 2803 211 2178 211 1363 
C 211 516 813 -64 1466 -64 
C 2259 -64 2458 677 2458 748 
C 2458 774 2451 793 2406 793 
C 2362 793 2355 787 2330 703 
C 2163 180 1798 51 1523 51 
C 1114 51 621 427 621 1369 
C 621 2338 1094 2688 1472 2688 
C 1722 2688 2093 2573 2234 2240 
z
" id="CMR17-63" transform="scale(0.015625)"/>
      <path d="M 2304 1653 
C 2304 2072 2304 2294 2035 2543 
C 1798 2752 1523 2816 1306 2816 
C 800 2816 435 2407 435 1971 
C 435 1728 627 1728 666 1728 
C 749 1728 896 1778 896 1954 
C 896 2112 774 2181 666 2181 
C 640 2181 608 2174 589 2168 
C 723 2592 1069 2714 1293 2714 
C 1613 2714 1965 2429 1965 1885 
L 1965 1600 
C 1587 1600 1133 1549 774 1357 
C 371 1133 256 813 256 570 
C 256 77 832 -64 1171 -64 
C 1523 -64 1850 139 1990 511 
C 2003 233 2182 -18 2464 -18 
C 2598 -18 2938 70 2938 567 
L 2938 920 
L 2822 920 
L 2822 562 
C 2822 178 2650 128 2566 128 
C 2304 128 2304 458 2304 738 
L 2304 1653 
z
M 1965 870 
C 1965 317 1568 38 1216 38 
C 896 38 646 275 646 570 
C 646 761 730 1100 1101 1305 
C 1408 1478 1760 1504 1965 1504 
L 1965 870 
z
" id="CMR17-61" transform="scale(0.015625)"/>
      <path d="M 2221 4091 
C 2298 4161 2317 4174 2317 4244 
C 2317 4339 2234 4416 2144 4416 
C 2067 4416 2042 4384 1978 4308 
L 1254 3390 
C 1210 3333 1210 3327 1210 3320 
C 1210 3314 1267 3256 1280 3244 
L 2221 4091 
z
" id="CMR17-13" transform="scale(0.015625)"/>
      <path d="M 1958 -1561 
C 1958 -1555 1958 -1542 1939 -1523 
C 1645 -1224 858 -407 858 1581 
C 858 3569 1632 4379 1946 4697 
C 1946 4704 1958 4717 1958 4736 
C 1958 4755 1939 4768 1914 4768 
C 1843 4768 1299 4296 986 3594 
C 666 2887 576 2199 576 1588 
C 576 1128 621 351 1005 -471 
C 1312 -1135 1837 -1600 1914 -1600 
C 1946 -1600 1958 -1587 1958 -1561 
z
" id="CMR17-28" transform="scale(0.015625)"/>
      <path d="M 2554 2560 
L 3283 2560 
L 3283 2725 
L 2541 2725 
L 2541 3494 
C 2541 4022 2810 4352 3085 4352 
C 3168 4352 3264 4327 3328 4282 
C 3277 4269 3142 4225 3142 4067 
C 3142 3901 3270 3850 3360 3850 
C 3450 3850 3578 3901 3578 4067 
C 3578 4308 3347 4454 3091 4454 
C 2842 4454 2637 4333 2477 4181 
C 2330 4390 2086 4454 1837 4454 
C 1338 4454 634 4168 634 3469 
L 634 2725 
L 122 2725 
L 122 2560 
L 634 2560 
L 634 427 
C 634 184 608 153 198 153 
L 198 -13 
C 352 0 634 0 794 0 
C 960 0 1242 0 1395 -13 
L 1395 153 
C 986 153 960 178 960 427 
L 960 2560 
L 2227 2560 
L 2227 427 
C 2227 184 2202 153 1792 153 
L 1792 -13 
C 1946 0 2240 0 2406 0 
C 2592 0 2918 0 3091 -13 
L 3091 153 
C 2630 153 2554 153 2554 439 
L 2554 2560 
z
M 947 2725 
L 947 3469 
C 947 4047 1395 4352 1824 4352 
C 1920 4352 2170 4332 2323 4187 
C 2208 4187 2099 4136 2099 3977 
C 2099 3812 2246 3767 2259 3767 
C 2227 3652 2227 3526 2227 3481 
L 2227 2725 
L 947 2725 
z
" id="CMR17-b" transform="scale(0.015625)"/>
      <path d="M 1683 1581 
C 1683 2040 1638 2817 1254 3639 
C 947 4303 422 4768 346 4768 
C 326 4768 301 4761 301 4729 
C 301 4717 307 4710 314 4697 
C 621 4378 1402 3568 1402 1584 
C 1402 -407 627 -1217 314 -1537 
C 307 -1549 301 -1556 301 -1568 
C 301 -1600 326 -1600 346 -1600 
C 416 -1600 960 -1128 1274 -426 
C 1594 281 1683 969 1683 1581 
z
" id="CMR17-29" transform="scale(0.015625)"/>
     </defs>
     <use transform="scale(0.996264)" xlink:href="#CMR17-4d"/>
     <use transform="translate(84.686941 0)scale(0.996264)" xlink:href="#CMR17-6f"/>
     <use transform="translate(130.377418 0)scale(0.996264)" xlink:href="#CMR17-69"/>
     <use transform="translate(155.248476 0)scale(0.996264)" xlink:href="#CMR17-6e"/>
     <use transform="translate(206.143846 0)scale(0.996264)" xlink:href="#CMR17-64"/>
     <use transform="translate(257.039216 0)scale(0.996264)" xlink:href="#CMR17-72"/>
     <use transform="translate(292.319984 0)scale(0.996264)" xlink:href="#CMR17-65"/>
     <use transform="translate(332.805644 0)scale(0.996264)" xlink:href="#CMR17-73"/>
     <use transform="translate(398.682948 0)scale(0.996264)" xlink:href="#CMR17-63"/>
     <use transform="translate(439.168608 0)scale(0.996264)" xlink:href="#CMR17-61"/>
     <use transform="translate(484.859086 0)scale(0.996264)" xlink:href="#CMR17-72"/>
     <use transform="translate(520.139853 0)scale(0.996264)" xlink:href="#CMR17-72"/>
     <use transform="translate(552.818213 0)scale(0.996264)" xlink:href="#CMR17-13"/>
     <use transform="translate(555.420621 0)scale(0.996264)" xlink:href="#CMR17-65"/>
     <use transform="translate(595.906282 0)scale(0.996264)" xlink:href="#CMR17-73"/>
     <use transform="translate(661.783586 0)scale(0.996264)" xlink:href="#CMR17-28"/>
     <use transform="translate(697.064353 0)scale(0.996264)" xlink:href="#CMR17-64"/>
     <use transform="translate(747.959723 0)scale(0.996264)" xlink:href="#CMR17-69"/>
     <use transform="translate(772.830782 0)scale(0.996264)" xlink:href="#CMR17-b"/>
     <use transform="translate(822.573051 0)scale(0.996264)" xlink:href="#CMR17-13"/>
     <use transform="translate(825.175459 0)scale(0.996264)" xlink:href="#CMR17-65"/>
     <use transform="translate(865.661119 0)scale(0.996264)" xlink:href="#CMR17-72"/>
     <use transform="translate(900.941887 0)scale(0.996264)" xlink:href="#CMR17-65"/>
     <use transform="translate(941.427548 0)scale(0.996264)" xlink:href="#CMR17-6e"/>
     <use transform="translate(992.322917 0)scale(0.996264)" xlink:href="#CMR17-63"/>
     <use transform="translate(1032.808578 0)scale(0.996264)" xlink:href="#CMR17-65"/>
     <use transform="translate(1073.294238 0)scale(0.996264)" xlink:href="#CMR17-73"/>
     <use transform="translate(1109.095576 0)scale(0.996264)" xlink:href="#CMR17-29"/>
    </g>
   </g>
  </g>
  <g id="axes_2">
   <g id="patch_7">
    <path d="M 394.587843 188.235168 
L 698.95148 188.235168 
L 698.95148 25.155168 
L 394.587843 25.155168 
z
" style="fill:#ffffff;"/>
   </g>
   <g id="matplotlib.axis_3">
    <g id="xtick_10">
     <g id="line2d_234">
      <path clip-path="url(#p51f9f680e1)" d="M 408.422554 188.235168 
L 408.422554 25.155168 
" style="fill:none;stroke:#b0b0b0;stroke-linecap:square;stroke-width:0.5;"/>
     </g>
     <g id="line2d_235">
      <g>
       <use style="stroke:#000000;stroke-width:0.8;" x="408.422554" xlink:href="#m1c969304b8" y="188.235168"/>
      </g>
     </g>
     <g id="text_16">
      <!-- $\mathdefault{0.10}$ -->
      <g transform="translate(398.017238 203.537348)scale(0.12 -0.12)">
       <use transform="scale(0.996264)" xlink:href="#CMR17-30"/>
       <use transform="translate(45.690477 0)scale(0.996264)" xlink:href="#CMMI12-3a"/>
       <use transform="translate(72.787654 0)scale(0.996264)" xlink:href="#CMR17-31"/>
       <use transform="translate(118.478131 0)scale(0.996264)" xlink:href="#CMR17-30"/>
      </g>
     </g>
    </g>
    <g id="xtick_11">
     <g id="line2d_236">
      <path clip-path="url(#p51f9f680e1)" d="M 481.236821 188.235168 
L 481.236821 25.155168 
" style="fill:none;stroke:#b0b0b0;stroke-linecap:square;stroke-width:0.5;"/>
     </g>
     <g id="line2d_237">
      <g>
       <use style="stroke:#000000;stroke-width:0.8;" x="481.236821" xlink:href="#m1c969304b8" y="188.235168"/>
      </g>
     </g>
     <g id="text_17">
      <!-- $\mathdefault{0.15}$ -->
      <g transform="translate(470.831505 203.537348)scale(0.12 -0.12)">
       <use transform="scale(0.996264)" xlink:href="#CMR17-30"/>
       <use transform="translate(45.690477 0)scale(0.996264)" xlink:href="#CMMI12-3a"/>
       <use transform="translate(72.787654 0)scale(0.996264)" xlink:href="#CMR17-31"/>
       <use transform="translate(118.478131 0)scale(0.996264)" xlink:href="#CMR17-35"/>
      </g>
     </g>
    </g>
    <g id="xtick_12">
     <g id="line2d_238">
      <path clip-path="url(#p51f9f680e1)" d="M 554.051088 188.235168 
L 554.051088 25.155168 
" style="fill:none;stroke:#b0b0b0;stroke-linecap:square;stroke-width:0.5;"/>
     </g>
     <g id="line2d_239">
      <g>
       <use style="stroke:#000000;stroke-width:0.8;" x="554.051088" xlink:href="#m1c969304b8" y="188.235168"/>
      </g>
     </g>
     <g id="text_18">
      <!-- $\mathdefault{0.20}$ -->
      <g transform="translate(543.645772 203.537348)scale(0.12 -0.12)">
       <use transform="scale(0.996264)" xlink:href="#CMR17-30"/>
       <use transform="translate(45.690477 0)scale(0.996264)" xlink:href="#CMMI12-3a"/>
       <use transform="translate(72.787654 0)scale(0.996264)" xlink:href="#CMR17-32"/>
       <use transform="translate(118.478131 0)scale(0.996264)" xlink:href="#CMR17-30"/>
      </g>
     </g>
    </g>
    <g id="xtick_13">
     <g id="line2d_240">
      <path clip-path="url(#p51f9f680e1)" d="M 626.865355 188.235168 
L 626.865355 25.155168 
" style="fill:none;stroke:#b0b0b0;stroke-linecap:square;stroke-width:0.5;"/>
     </g>
     <g id="line2d_241">
      <g>
       <use style="stroke:#000000;stroke-width:0.8;" x="626.865355" xlink:href="#m1c969304b8" y="188.235168"/>
      </g>
     </g>
     <g id="text_19">
      <!-- $\mathdefault{0.25}$ -->
      <g transform="translate(616.460039 203.537348)scale(0.12 -0.12)">
       <use transform="scale(0.996264)" xlink:href="#CMR17-30"/>
       <use transform="translate(45.690477 0)scale(0.996264)" xlink:href="#CMMI12-3a"/>
       <use transform="translate(72.787654 0)scale(0.996264)" xlink:href="#CMR17-32"/>
       <use transform="translate(118.478131 0)scale(0.996264)" xlink:href="#CMR17-35"/>
      </g>
     </g>
    </g>
   </g>
   <g id="matplotlib.axis_4">
    <g id="ytick_6">
     <g id="line2d_242">
      <path clip-path="url(#p51f9f680e1)" d="M 394.587843 185.982816 
L 698.95148 185.982816 
" style="fill:none;stroke:#b0b0b0;stroke-linecap:square;stroke-width:0.5;"/>
     </g>
     <g id="line2d_243">
      <g>
       <use style="stroke:#000000;stroke-width:0.8;" x="394.587843" xlink:href="#m6268b5e2b9" y="185.982816"/>
      </g>
     </g>
     <g id="text_20">
      <!-- $\mathdefault{1}$ -->
      <g transform="translate(381.734853 190.133905)scale(0.12 -0.12)">
       <use transform="scale(0.996264)" xlink:href="#CMR17-31"/>
      </g>
     </g>
    </g>
    <g id="ytick_7">
     <g id="line2d_244">
      <path clip-path="url(#p51f9f680e1)" d="M 394.587843 150.321112 
L 698.95148 150.321112 
" style="fill:none;stroke:#b0b0b0;stroke-linecap:square;stroke-width:0.5;"/>
     </g>
     <g id="line2d_245">
      <g>
       <use style="stroke:#000000;stroke-width:0.8;" x="394.587843" xlink:href="#m6268b5e2b9" y="150.321112"/>
      </g>
     </g>
     <g id="text_21">
      <!-- $\mathdefault{2}$ -->
      <g transform="translate(381.734853 154.472202)scale(0.12 -0.12)">
       <use transform="scale(0.996264)" xlink:href="#CMR17-32"/>
      </g>
     </g>
    </g>
    <g id="ytick_8">
     <g id="line2d_246">
      <path clip-path="url(#p51f9f680e1)" d="M 394.587843 114.659409 
L 698.95148 114.659409 
" style="fill:none;stroke:#b0b0b0;stroke-linecap:square;stroke-width:0.5;"/>
     </g>
     <g id="line2d_247">
      <g>
       <use style="stroke:#000000;stroke-width:0.8;" x="394.587843" xlink:href="#m6268b5e2b9" y="114.659409"/>
      </g>
     </g>
     <g id="text_22">
      <!-- $\mathdefault{3}$ -->
      <g transform="translate(381.734853 118.810499)scale(0.12 -0.12)">
       <defs>
        <path d="M 1414 2157 
C 1984 2157 2234 1662 2234 1090 
C 2234 320 1824 25 1453 25 
C 1114 25 563 194 390 693 
C 422 680 454 680 486 680 
C 640 680 755 782 755 948 
C 755 1133 614 1216 486 1216 
C 378 1216 211 1165 211 926 
C 211 335 787 -128 1466 -128 
C 2176 -128 2720 430 2720 1085 
C 2720 1707 2208 2157 1600 2227 
C 2086 2328 2554 2756 2554 3329 
C 2554 3820 2048 4179 1472 4179 
C 890 4179 378 3829 378 3329 
C 378 3110 544 3072 627 3072 
C 762 3072 877 3155 877 3321 
C 877 3486 762 3569 627 3569 
C 602 3569 570 3569 544 3557 
C 730 3959 1235 4032 1459 4032 
C 1683 4032 2106 3925 2106 3320 
C 2106 3143 2080 2828 1862 2550 
C 1670 2304 1453 2304 1242 2284 
C 1210 2284 1062 2269 1037 2269 
C 992 2263 966 2257 966 2208 
C 966 2163 973 2157 1101 2157 
L 1414 2157 
z
" id="CMR17-33" transform="scale(0.015625)"/>
       </defs>
       <use transform="scale(0.996264)" xlink:href="#CMR17-33"/>
      </g>
     </g>
    </g>
    <g id="ytick_9">
     <g id="line2d_248">
      <path clip-path="url(#p51f9f680e1)" d="M 394.587843 78.997706 
L 698.95148 78.997706 
" style="fill:none;stroke:#b0b0b0;stroke-linecap:square;stroke-width:0.5;"/>
     </g>
     <g id="line2d_249">
      <g>
       <use style="stroke:#000000;stroke-width:0.8;" x="394.587843" xlink:href="#m6268b5e2b9" y="78.997706"/>
      </g>
     </g>
     <g id="text_23">
      <!-- $\mathdefault{4}$ -->
      <g transform="translate(381.734853 83.148796)scale(0.12 -0.12)">
       <use transform="scale(0.996264)" xlink:href="#CMR17-34"/>
      </g>
     </g>
    </g>
    <g id="ytick_10">
     <g id="line2d_250">
      <path clip-path="url(#p51f9f680e1)" d="M 394.587843 43.336003 
L 698.95148 43.336003 
" style="fill:none;stroke:#b0b0b0;stroke-linecap:square;stroke-width:0.5;"/>
     </g>
     <g id="line2d_251">
      <g>
       <use style="stroke:#000000;stroke-width:0.8;" x="394.587843" xlink:href="#m6268b5e2b9" y="43.336003"/>
      </g>
     </g>
     <g id="text_24">
      <!-- $\mathdefault{5}$ -->
      <g transform="translate(381.734853 47.487093)scale(0.12 -0.12)">
       <use transform="scale(0.996264)" xlink:href="#CMR17-35"/>
      </g>
     </g>
    </g>
   </g>
   <g id="line2d_252">
    <path clip-path="url(#p51f9f680e1)" d="M 408.422554 133.631435 
L 422.985407 132.096627 
L 437.548261 130.587923 
L 452.111114 129.105751 
L 466.673968 127.65054 
L 481.236821 126.222717 
L 495.799675 124.82271 
L 510.362528 123.450946 
L 524.925381 122.107855 
L 539.488235 120.793864 
L 554.051088 119.509401 
L 568.613942 118.254894 
L 583.176795 117.03077 
L 597.739648 115.837458 
L 612.302502 114.675386 
L 626.865355 113.544981 
L 641.428209 112.446672 
L 655.991062 111.380886 
L 670.553916 110.348052 
L 685.116769 109.348597 
" style="fill:none;stroke:#808080;stroke-linecap:square;"/>
   </g>
   <g id="line2d_253">
    <path clip-path="url(#p51f9f680e1)" d="M 408.422554 101.904311 
L 422.985407 32.567895 
L 437.548261 118.87217 
L 452.111114 170.849102 
L 466.673968 168.810483 
L 481.236821 80.057356 
L 495.799675 124.951521 
L 510.362528 118.954691 
L 524.925381 127.777359 
L 539.488235 98.251205 
L 554.051088 150.692298 
L 568.613942 128.461103 
L 583.176795 127.294955 
L 597.739648 81.592678 
L 612.302502 81.853917 
L 626.865355 154.171612 
L 641.428209 99.724478 
L 655.991062 91.201011 
L 670.553916 99.843128 
L 685.116769 180.822441 
" style="fill:none;stroke:#1f77b4;stroke-linecap:square;"/>
   </g>
   <g id="line2d_254">
    <path clip-path="url(#p51f9f680e1)" d="M 408.422554 137.864449 
L 422.985407 136.701904 
L 437.548261 135.560111 
L 452.111114 134.439069 
L 466.673968 133.338779 
L 481.236821 132.25924 
L 495.799675 131.200454 
L 510.362528 130.162419 
L 524.925381 129.145135 
L 539.488235 128.148604 
L 554.051088 127.172824 
L 568.613942 126.217795 
L 583.176795 125.283519 
L 597.739648 124.369994 
L 612.302502 123.477221 
L 626.865355 122.605199 
L 641.428209 121.753929 
L 655.991062 120.923411 
L 670.553916 120.113645 
L 685.116769 119.32463 
" style="fill:none;stroke:#2ca02c;stroke-linecap:square;"/>
   </g>
   <g id="line2d_255">
    <path clip-path="url(#p51f9f680e1)" d="M 408.422554 137.864449 
L 408.422554 101.904311 
" style="fill:none;stroke:#ff7f0e;stroke-linecap:square;stroke-width:1.5;"/>
   </g>
   <g id="line2d_256">
    <path clip-path="url(#p51f9f680e1)" d="M 422.985407 136.701904 
L 422.985407 32.567895 
" style="fill:none;stroke:#ff7f0e;stroke-linecap:square;stroke-width:1.5;"/>
   </g>
   <g id="line2d_257">
    <path clip-path="url(#p51f9f680e1)" d="M 437.548261 135.560111 
L 437.548261 118.87217 
" style="fill:none;stroke:#ff7f0e;stroke-linecap:square;stroke-width:1.5;"/>
   </g>
   <g id="line2d_258">
    <path clip-path="url(#p51f9f680e1)" d="M 452.111114 134.439069 
L 452.111114 170.849102 
" style="fill:none;stroke:#ff7f0e;stroke-linecap:square;stroke-width:1.5;"/>
   </g>
   <g id="line2d_259">
    <path clip-path="url(#p51f9f680e1)" d="M 466.673968 133.338779 
L 466.673968 168.810483 
" style="fill:none;stroke:#ff7f0e;stroke-linecap:square;stroke-width:1.5;"/>
   </g>
   <g id="line2d_260">
    <path clip-path="url(#p51f9f680e1)" d="M 481.236821 132.25924 
L 481.236821 80.057356 
" style="fill:none;stroke:#ff7f0e;stroke-linecap:square;stroke-width:1.5;"/>
   </g>
   <g id="line2d_261">
    <path clip-path="url(#p51f9f680e1)" d="M 495.799675 131.200454 
L 495.799675 124.951521 
" style="fill:none;stroke:#ff7f0e;stroke-linecap:square;stroke-width:1.5;"/>
   </g>
   <g id="line2d_262">
    <path clip-path="url(#p51f9f680e1)" d="M 510.362528 130.162419 
L 510.362528 118.954691 
" style="fill:none;stroke:#ff7f0e;stroke-linecap:square;stroke-width:1.5;"/>
   </g>
   <g id="line2d_263">
    <path clip-path="url(#p51f9f680e1)" d="M 524.925381 129.145135 
L 524.925381 127.777359 
" style="fill:none;stroke:#ff7f0e;stroke-linecap:square;stroke-width:1.5;"/>
   </g>
   <g id="line2d_264">
    <path clip-path="url(#p51f9f680e1)" d="M 539.488235 128.148604 
L 539.488235 98.251205 
" style="fill:none;stroke:#ff7f0e;stroke-linecap:square;stroke-width:1.5;"/>
   </g>
   <g id="line2d_265">
    <path clip-path="url(#p51f9f680e1)" d="M 554.051088 127.172824 
L 554.051088 150.692298 
" style="fill:none;stroke:#ff7f0e;stroke-linecap:square;stroke-width:1.5;"/>
   </g>
   <g id="line2d_266">
    <path clip-path="url(#p51f9f680e1)" d="M 568.613942 126.217795 
L 568.613942 128.461103 
" style="fill:none;stroke:#ff7f0e;stroke-linecap:square;stroke-width:1.5;"/>
   </g>
   <g id="line2d_267">
    <path clip-path="url(#p51f9f680e1)" d="M 583.176795 125.283519 
L 583.176795 127.294955 
" style="fill:none;stroke:#ff7f0e;stroke-linecap:square;stroke-width:1.5;"/>
   </g>
   <g id="line2d_268">
    <path clip-path="url(#p51f9f680e1)" d="M 597.739648 124.369994 
L 597.739648 81.592678 
" style="fill:none;stroke:#ff7f0e;stroke-linecap:square;stroke-width:1.5;"/>
   </g>
   <g id="line2d_269">
    <path clip-path="url(#p51f9f680e1)" d="M 612.302502 123.477221 
L 612.302502 81.853917 
" style="fill:none;stroke:#ff7f0e;stroke-linecap:square;stroke-width:1.5;"/>
   </g>
   <g id="line2d_270">
    <path clip-path="url(#p51f9f680e1)" d="M 626.865355 122.605199 
L 626.865355 154.171612 
" style="fill:none;stroke:#ff7f0e;stroke-linecap:square;stroke-width:1.5;"/>
   </g>
   <g id="line2d_271">
    <path clip-path="url(#p51f9f680e1)" d="M 641.428209 121.753929 
L 641.428209 99.724478 
" style="fill:none;stroke:#ff7f0e;stroke-linecap:square;stroke-width:1.5;"/>
   </g>
   <g id="line2d_272">
    <path clip-path="url(#p51f9f680e1)" d="M 655.991062 120.923411 
L 655.991062 91.201011 
" style="fill:none;stroke:#ff7f0e;stroke-linecap:square;stroke-width:1.5;"/>
   </g>
   <g id="line2d_273">
    <path clip-path="url(#p51f9f680e1)" d="M 670.553916 120.113645 
L 670.553916 99.843128 
" style="fill:none;stroke:#ff7f0e;stroke-linecap:square;stroke-width:1.5;"/>
   </g>
   <g id="line2d_274">
    <path clip-path="url(#p51f9f680e1)" d="M 685.116769 119.32463 
L 685.116769 180.822441 
" style="fill:none;stroke:#ff7f0e;stroke-linecap:square;stroke-width:1.5;"/>
   </g>
   <g id="patch_8">
    <path d="M 394.587843 188.235168 
L 394.587843 25.155168 
" style="fill:none;stroke:#000000;stroke-linecap:square;stroke-linejoin:miter;stroke-width:0.5;"/>
   </g>
   <g id="patch_9">
    <path d="M 698.95148 188.235168 
L 698.95148 25.155168 
" style="fill:none;stroke:#000000;stroke-linecap:square;stroke-linejoin:miter;stroke-width:0.5;"/>
   </g>
   <g id="patch_10">
    <path d="M 394.587843 188.235168 
L 698.95148 188.235168 
" style="fill:none;stroke:#000000;stroke-linecap:square;stroke-linejoin:miter;stroke-width:0.5;"/>
   </g>
   <g id="patch_11">
    <path d="M 394.587843 25.155168 
L 698.95148 25.155168 
" style="fill:none;stroke:#000000;stroke-linecap:square;stroke-linejoin:miter;stroke-width:0.5;"/>
   </g>
   <g id="text_25">
    <!-- Moindres carrés (différences) -->
    <g transform="translate(448.658962 19.155168)scale(0.16 -0.16)">
     <use transform="scale(0.996264)" xlink:href="#CMR17-4d"/>
     <use transform="translate(84.686941 0)scale(0.996264)" xlink:href="#CMR17-6f"/>
     <use transform="translate(130.377418 0)scale(0.996264)" xlink:href="#CMR17-69"/>
     <use transform="translate(155.248476 0)scale(0.996264)" xlink:href="#CMR17-6e"/>
     <use transform="translate(206.143846 0)scale(0.996264)" xlink:href="#CMR17-64"/>
     <use transform="translate(257.039216 0)scale(0.996264)" xlink:href="#CMR17-72"/>
     <use transform="translate(292.319984 0)scale(0.996264)" xlink:href="#CMR17-65"/>
     <use transform="translate(332.805644 0)scale(0.996264)" xlink:href="#CMR17-73"/>
     <use transform="translate(398.682948 0)scale(0.996264)" xlink:href="#CMR17-63"/>
     <use transform="translate(439.168608 0)scale(0.996264)" xlink:href="#CMR17-61"/>
     <use transform="translate(484.859086 0)scale(0.996264)" xlink:href="#CMR17-72"/>
     <use transform="translate(520.139853 0)scale(0.996264)" xlink:href="#CMR17-72"/>
     <use transform="translate(552.818213 0)scale(0.996264)" xlink:href="#CMR17-13"/>
     <use transform="translate(555.420621 0)scale(0.996264)" xlink:href="#CMR17-65"/>
     <use transform="translate(595.906282 0)scale(0.996264)" xlink:href="#CMR17-73"/>
     <use transform="translate(661.783586 0)scale(0.996264)" xlink:href="#CMR17-28"/>
     <use transform="translate(697.064353 0)scale(0.996264)" xlink:href="#CMR17-64"/>
     <use transform="translate(747.959723 0)scale(0.996264)" xlink:href="#CMR17-69"/>
     <use transform="translate(772.830782 0)scale(0.996264)" xlink:href="#CMR17-b"/>
     <use transform="translate(822.573051 0)scale(0.996264)" xlink:href="#CMR17-13"/>
     <use transform="translate(825.175459 0)scale(0.996264)" xlink:href="#CMR17-65"/>
     <use transform="translate(865.661119 0)scale(0.996264)" xlink:href="#CMR17-72"/>
     <use transform="translate(900.941887 0)scale(0.996264)" xlink:href="#CMR17-65"/>
     <use transform="translate(941.427548 0)scale(0.996264)" xlink:href="#CMR17-6e"/>
     <use transform="translate(992.322917 0)scale(0.996264)" xlink:href="#CMR17-63"/>
     <use transform="translate(1032.808578 0)scale(0.996264)" xlink:href="#CMR17-65"/>
     <use transform="translate(1073.294238 0)scale(0.996264)" xlink:href="#CMR17-73"/>
     <use transform="translate(1109.095576 0)scale(0.996264)" xlink:href="#CMR17-29"/>
    </g>
   </g>
  </g>
 </g>
 <defs>
  <clipPath id="p9c8b81449d">
   <rect height="163.08" width="304.363636" x="29.35148" y="25.155168"/>
  </clipPath>
  <clipPath id="p51f9f680e1">
   <rect height="163.08" width="304.363636" x="394.587843" y="25.155168"/>
  </clipPath>
 </defs>
</svg>
