<?xml version="1.0" encoding="utf-8" standalone="no"?>
<!DOCTYPE svg PUBLIC "-//W3C//DTD SVG 1.1//EN"
  "http://www.w3.org/Graphics/SVG/1.1/DTD/svg11.dtd">
<svg height="283.487735pt" version="1.1" viewBox="0 0 273.31588 283.487735" width="273.31588pt" xmlns="http://www.w3.org/2000/svg" xmlns:xlink="http://www.w3.org/1999/xlink">
 <metadata>
  <rdf:RDF xmlns:cc="http://creativecommons.org/ns#" xmlns:dc="http://purl.org/dc/elements/1.1/" xmlns:rdf="http://www.w3.org/1999/02/22-rdf-syntax-ns#">
   <cc:Work>
    <dc:type rdf:resource="http://purl.org/dc/dcmitype/StillImage"/>
    <dc:date>2022-09-28T15:00:21.192347</dc:date>
    <dc:format>image/svg+xml</dc:format>
    <dc:creator>
     <cc:Agent>
      <dc:title>Matplotlib v3.4.3, https://matplotlib.org/</dc:title>
     </cc:Agent>
    </dc:creator>
   </cc:Work>
  </rdf:RDF>
 </metadata>
 <defs>
  <style type="text/css">*{stroke-linecap:butt;stroke-linejoin:round;}</style>
 </defs>
 <g id="figure_1">
  <g id="patch_1">
   <path d="M 0 283.487735 
L 273.31588 283.487735 
L 273.31588 0 
L 0 0 
z
" style="fill:none;"/>
  </g>
  <g id="axes_1">
   <g id="patch_2">
    <path d="M 45.749385 242.263055 
L 263.189385 242.263055 
L 263.189385 24.823055 
L 45.749385 24.823055 
z
" style="fill:#ffffff;"/>
   </g>
   <g id="matplotlib.axis_1">
    <g id="xtick_1">
     <g id="line2d_1">
      <path clip-path="url(#p9f652c736f)" d="M 45.749385 242.263055 
L 45.749385 24.823055 
" style="fill:none;stroke:#b0b0b0;stroke-linecap:square;stroke-width:0.8;"/>
     </g>
     <g id="line2d_2">
      <defs>
       <path d="M 0 0 
L 0 3.5 
" id="m61fbc1dcd5" style="stroke:#000000;stroke-width:0.8;"/>
      </defs>
      <g>
       <use style="stroke:#000000;stroke-width:0.8;" x="45.749385" xlink:href="#m61fbc1dcd5" y="242.263055"/>
      </g>
     </g>
     <g id="text_1">
      <!-- $\mathdefault{−3}$ -->
      <g transform="translate(38.173645 257.565235)scale(0.12 -0.12)">
       <defs>
        <path d="M 4218 1472 
C 4326 1472 4442 1472 4442 1600 
C 4442 1728 4326 1728 4218 1728 
L 755 1728 
C 646 1728 531 1728 531 1600 
C 531 1472 646 1472 755 1472 
L 4218 1472 
z
" id="CMSY10-0" transform="scale(0.015625)"/>
        <path d="M 1414 2176 
C 1984 2176 2234 1673 2234 1094 
C 2234 322 1824 25 1453 25 
C 1114 25 563 193 390 691 
C 422 678 454 678 486 678 
C 640 678 755 780 755 947 
C 755 1132 614 1216 486 1216 
C 378 1216 211 1164 211 927 
C 211 335 787 -128 1466 -128 
C 2176 -128 2720 432 2720 1087 
C 2720 1718 2208 2176 1600 2246 
C 2086 2347 2554 2776 2554 3353 
C 2554 3856 2048 4224 1472 4224 
C 890 4224 378 3862 378 3347 
C 378 3123 544 3084 627 3084 
C 762 3084 877 3167 877 3334 
C 877 3500 762 3584 627 3584 
C 602 3584 570 3584 544 3571 
C 730 3999 1235 4076 1459 4076 
C 1683 4076 2106 3966 2106 3347 
C 2106 3167 2080 2851 1862 2574 
C 1670 2329 1453 2316 1242 2297 
C 1210 2297 1062 2284 1037 2284 
C 992 2278 966 2272 966 2227 
C 966 2182 973 2176 1101 2176 
L 1414 2176 
z
" id="CMR17-33" transform="scale(0.015625)"/>
       </defs>
       <use transform="scale(0.996264)" xlink:href="#CMSY10-0"/>
       <use transform="translate(77.487468 0)scale(0.996264)" xlink:href="#CMR17-33"/>
      </g>
     </g>
    </g>
    <g id="xtick_2">
     <g id="line2d_3">
      <path clip-path="url(#p9f652c736f)" d="M 81.989385 242.263055 
L 81.989385 24.823055 
" style="fill:none;stroke:#b0b0b0;stroke-linecap:square;stroke-width:0.8;"/>
     </g>
     <g id="line2d_4">
      <g>
       <use style="stroke:#000000;stroke-width:0.8;" x="81.989385" xlink:href="#m61fbc1dcd5" y="242.263055"/>
      </g>
     </g>
     <g id="text_2">
      <!-- $\mathdefault{−2}$ -->
      <g transform="translate(74.413645 257.565235)scale(0.12 -0.12)">
       <defs>
        <path d="M 2669 990 
L 2554 990 
C 2490 537 2438 460 2413 422 
C 2381 371 1920 371 1830 371 
L 602 371 
C 832 620 1280 1073 1824 1596 
C 2214 1966 2669 2400 2669 3033 
C 2669 3788 2067 4224 1395 4224 
C 691 4224 262 3603 262 3027 
C 262 2777 448 2745 525 2745 
C 589 2745 781 2783 781 3007 
C 781 3206 614 3264 525 3264 
C 486 3264 448 3257 422 3244 
C 544 3788 915 4057 1306 4057 
C 1862 4057 2227 3616 2227 3033 
C 2227 2477 1901 1998 1536 1583 
L 262 147 
L 262 0 
L 2515 0 
L 2669 990 
z
" id="CMR17-32" transform="scale(0.015625)"/>
       </defs>
       <use transform="scale(0.996264)" xlink:href="#CMSY10-0"/>
       <use transform="translate(77.487468 0)scale(0.996264)" xlink:href="#CMR17-32"/>
      </g>
     </g>
    </g>
    <g id="xtick_3">
     <g id="line2d_5">
      <path clip-path="url(#p9f652c736f)" d="M 118.229385 242.263055 
L 118.229385 24.823055 
" style="fill:none;stroke:#b0b0b0;stroke-linecap:square;stroke-width:0.8;"/>
     </g>
     <g id="line2d_6">
      <g>
       <use style="stroke:#000000;stroke-width:0.8;" x="118.229385" xlink:href="#m61fbc1dcd5" y="242.263055"/>
      </g>
     </g>
     <g id="text_3">
      <!-- $\mathdefault{−1}$ -->
      <g transform="translate(110.653645 257.565235)scale(0.12 -0.12)">
       <defs>
        <path d="M 1702 4083 
C 1702 4217 1696 4224 1606 4224 
C 1357 3927 979 3833 621 3820 
C 602 3820 570 3820 563 3808 
C 557 3795 557 3782 557 3648 
C 755 3648 1088 3686 1344 3839 
L 1344 467 
C 1344 243 1331 166 781 166 
L 589 166 
L 589 0 
C 896 6 1216 12 1523 12 
C 1830 12 2150 6 2458 0 
L 2458 166 
L 2266 166 
C 1715 166 1702 236 1702 467 
L 1702 4083 
z
" id="CMR17-31" transform="scale(0.015625)"/>
       </defs>
       <use transform="scale(0.996264)" xlink:href="#CMSY10-0"/>
       <use transform="translate(77.487468 0)scale(0.996264)" xlink:href="#CMR17-31"/>
      </g>
     </g>
    </g>
    <g id="xtick_4">
     <g id="line2d_7">
      <path clip-path="url(#p9f652c736f)" d="M 154.469385 242.263055 
L 154.469385 24.823055 
" style="fill:none;stroke:#b0b0b0;stroke-linecap:square;stroke-width:0.8;"/>
     </g>
     <g id="line2d_8">
      <g>
       <use style="stroke:#000000;stroke-width:0.8;" x="154.469385" xlink:href="#m61fbc1dcd5" y="242.263055"/>
      </g>
     </g>
     <g id="text_4">
      <!-- $\mathdefault{0}$ -->
      <g transform="translate(151.542889 257.565235)scale(0.12 -0.12)">
       <defs>
        <path d="M 2688 2038 
C 2688 2430 2682 3099 2413 3613 
C 2176 4063 1798 4224 1466 4224 
C 1158 4224 768 4082 525 3620 
C 269 3137 243 2539 243 2038 
C 243 1671 250 1112 448 623 
C 723 -39 1216 -128 1466 -128 
C 1760 -128 2208 -7 2470 604 
C 2662 1048 2688 1568 2688 2038 
z
M 1466 -26 
C 1056 -26 813 328 723 816 
C 653 1196 653 1749 653 2109 
C 653 2604 653 3015 736 3407 
C 858 3954 1216 4121 1466 4121 
C 1728 4121 2067 3947 2189 3420 
C 2272 3054 2278 2623 2278 2109 
C 2278 1691 2278 1176 2202 797 
C 2067 96 1690 -26 1466 -26 
z
" id="CMR17-30" transform="scale(0.015625)"/>
       </defs>
       <use transform="scale(0.996264)" xlink:href="#CMR17-30"/>
      </g>
     </g>
    </g>
    <g id="xtick_5">
     <g id="line2d_9">
      <path clip-path="url(#p9f652c736f)" d="M 190.709385 242.263055 
L 190.709385 24.823055 
" style="fill:none;stroke:#b0b0b0;stroke-linecap:square;stroke-width:0.8;"/>
     </g>
     <g id="line2d_10">
      <g>
       <use style="stroke:#000000;stroke-width:0.8;" x="190.709385" xlink:href="#m61fbc1dcd5" y="242.263055"/>
      </g>
     </g>
     <g id="text_5">
      <!-- $\mathdefault{1}$ -->
      <g transform="translate(187.782889 257.565235)scale(0.12 -0.12)">
       <use transform="scale(0.996264)" xlink:href="#CMR17-31"/>
      </g>
     </g>
    </g>
    <g id="xtick_6">
     <g id="line2d_11">
      <path clip-path="url(#p9f652c736f)" d="M 226.949385 242.263055 
L 226.949385 24.823055 
" style="fill:none;stroke:#b0b0b0;stroke-linecap:square;stroke-width:0.8;"/>
     </g>
     <g id="line2d_12">
      <g>
       <use style="stroke:#000000;stroke-width:0.8;" x="226.949385" xlink:href="#m61fbc1dcd5" y="242.263055"/>
      </g>
     </g>
     <g id="text_6">
      <!-- $\mathdefault{2}$ -->
      <g transform="translate(224.022889 257.565235)scale(0.12 -0.12)">
       <use transform="scale(0.996264)" xlink:href="#CMR17-32"/>
      </g>
     </g>
    </g>
    <g id="xtick_7">
     <g id="line2d_13">
      <path clip-path="url(#p9f652c736f)" d="M 263.189385 242.263055 
L 263.189385 24.823055 
" style="fill:none;stroke:#b0b0b0;stroke-linecap:square;stroke-width:0.8;"/>
     </g>
     <g id="line2d_14">
      <g>
       <use style="stroke:#000000;stroke-width:0.8;" x="263.189385" xlink:href="#m61fbc1dcd5" y="242.263055"/>
      </g>
     </g>
     <g id="text_7">
      <!-- $\mathdefault{3}$ -->
      <g transform="translate(260.262889 257.565235)scale(0.12 -0.12)">
       <use transform="scale(0.996264)" xlink:href="#CMR17-33"/>
      </g>
     </g>
    </g>
    <g id="text_8">
     <!-- $\sigma$ -->
     <g transform="translate(150.588202 273.575707)scale(0.14 -0.14)">
      <defs>
       <path d="M 3251 2406 
C 3334 2406 3546 2406 3546 2611 
C 3546 2752 3424 2752 3309 2752 
L 1894 2752 
C 934 2752 243 1685 243 932 
C 243 389 595 -64 1171 -64 
C 1926 -64 2752 746 2752 1704 
C 2752 1953 2694 2195 2541 2406 
L 3251 2406 
z
M 1178 64 
C 851 64 614 312 614 753 
C 614 1136 845 2406 1786 2406 
C 2061 2406 2368 2272 2368 1780 
C 2368 1557 2266 1021 2042 651 
C 1811 274 1466 64 1178 64 
z
" id="CMMI12-1b" transform="scale(0.015625)"/>
      </defs>
      <use transform="scale(0.996264)" xlink:href="#CMMI12-1b"/>
     </g>
    </g>
   </g>
   <g id="matplotlib.axis_2">
    <g id="ytick_1">
     <g id="line2d_15">
      <path clip-path="url(#p9f652c736f)" d="M 45.749385 242.263055 
L 263.189385 242.263055 
" style="fill:none;stroke:#b0b0b0;stroke-linecap:square;stroke-width:0.8;"/>
     </g>
     <g id="line2d_16">
      <defs>
       <path d="M 0 0 
L -3.5 0 
" id="m78c726fa61" style="stroke:#000000;stroke-width:0.8;"/>
      </defs>
      <g>
       <use style="stroke:#000000;stroke-width:0.8;" x="45.749385" xlink:href="#m78c726fa61" y="242.263055"/>
      </g>
     </g>
     <g id="text_9">
      <!-- $\mathdefault{−3}$ -->
      <g transform="translate(23.597905 246.414145)scale(0.12 -0.12)">
       <use transform="scale(0.996264)" xlink:href="#CMSY10-0"/>
       <use transform="translate(77.487468 0)scale(0.996264)" xlink:href="#CMR17-33"/>
      </g>
     </g>
    </g>
    <g id="ytick_2">
     <g id="line2d_17">
      <path clip-path="url(#p9f652c736f)" d="M 45.749385 206.023055 
L 263.189385 206.023055 
" style="fill:none;stroke:#b0b0b0;stroke-linecap:square;stroke-width:0.8;"/>
     </g>
     <g id="line2d_18">
      <g>
       <use style="stroke:#000000;stroke-width:0.8;" x="45.749385" xlink:href="#m78c726fa61" y="206.023055"/>
      </g>
     </g>
     <g id="text_10">
      <!-- $\mathdefault{−2}$ -->
      <g transform="translate(23.597905 210.174145)scale(0.12 -0.12)">
       <use transform="scale(0.996264)" xlink:href="#CMSY10-0"/>
       <use transform="translate(77.487468 0)scale(0.996264)" xlink:href="#CMR17-32"/>
      </g>
     </g>
    </g>
    <g id="ytick_3">
     <g id="line2d_19">
      <path clip-path="url(#p9f652c736f)" d="M 45.749385 169.783055 
L 263.189385 169.783055 
" style="fill:none;stroke:#b0b0b0;stroke-linecap:square;stroke-width:0.8;"/>
     </g>
     <g id="line2d_20">
      <g>
       <use style="stroke:#000000;stroke-width:0.8;" x="45.749385" xlink:href="#m78c726fa61" y="169.783055"/>
      </g>
     </g>
     <g id="text_11">
      <!-- $\mathdefault{−1}$ -->
      <g transform="translate(23.597905 173.934145)scale(0.12 -0.12)">
       <use transform="scale(0.996264)" xlink:href="#CMSY10-0"/>
       <use transform="translate(77.487468 0)scale(0.996264)" xlink:href="#CMR17-31"/>
      </g>
     </g>
    </g>
    <g id="ytick_4">
     <g id="line2d_21">
      <path clip-path="url(#p9f652c736f)" d="M 45.749385 133.543055 
L 263.189385 133.543055 
" style="fill:none;stroke:#b0b0b0;stroke-linecap:square;stroke-width:0.8;"/>
     </g>
     <g id="line2d_22">
      <g>
       <use style="stroke:#000000;stroke-width:0.8;" x="45.749385" xlink:href="#m78c726fa61" y="133.543055"/>
      </g>
     </g>
     <g id="text_12">
      <!-- $\mathdefault{0}$ -->
      <g transform="translate(32.896394 137.694145)scale(0.12 -0.12)">
       <use transform="scale(0.996264)" xlink:href="#CMR17-30"/>
      </g>
     </g>
    </g>
    <g id="ytick_5">
     <g id="line2d_23">
      <path clip-path="url(#p9f652c736f)" d="M 45.749385 97.303055 
L 263.189385 97.303055 
" style="fill:none;stroke:#b0b0b0;stroke-linecap:square;stroke-width:0.8;"/>
     </g>
     <g id="line2d_24">
      <g>
       <use style="stroke:#000000;stroke-width:0.8;" x="45.749385" xlink:href="#m78c726fa61" y="97.303055"/>
      </g>
     </g>
     <g id="text_13">
      <!-- $\mathdefault{1}$ -->
      <g transform="translate(32.896394 101.454145)scale(0.12 -0.12)">
       <use transform="scale(0.996264)" xlink:href="#CMR17-31"/>
      </g>
     </g>
    </g>
    <g id="ytick_6">
     <g id="line2d_25">
      <path clip-path="url(#p9f652c736f)" d="M 45.749385 61.063055 
L 263.189385 61.063055 
" style="fill:none;stroke:#b0b0b0;stroke-linecap:square;stroke-width:0.8;"/>
     </g>
     <g id="line2d_26">
      <g>
       <use style="stroke:#000000;stroke-width:0.8;" x="45.749385" xlink:href="#m78c726fa61" y="61.063055"/>
      </g>
     </g>
     <g id="text_14">
      <!-- $\mathdefault{2}$ -->
      <g transform="translate(32.896394 65.214145)scale(0.12 -0.12)">
       <use transform="scale(0.996264)" xlink:href="#CMR17-32"/>
      </g>
     </g>
    </g>
    <g id="ytick_7">
     <g id="line2d_27">
      <path clip-path="url(#p9f652c736f)" d="M 45.749385 24.823055 
L 263.189385 24.823055 
" style="fill:none;stroke:#b0b0b0;stroke-linecap:square;stroke-width:0.8;"/>
     </g>
     <g id="line2d_28">
      <g>
       <use style="stroke:#000000;stroke-width:0.8;" x="45.749385" xlink:href="#m78c726fa61" y="24.823055"/>
      </g>
     </g>
     <g id="text_15">
      <!-- $\mathdefault{3}$ -->
      <g transform="translate(32.896394 28.974145)scale(0.12 -0.12)">
       <use transform="scale(0.996264)" xlink:href="#CMR17-33"/>
      </g>
     </g>
    </g>
    <g id="text_16">
     <!-- $\omega$ -->
     <g transform="translate(16.885876 137.795115)rotate(-90)scale(0.14 -0.14)">
      <defs>
       <path d="M 3802 2406 
C 3802 2592 3750 2828 3526 2828 
C 3398 2828 3251 2668 3251 2540 
C 3251 2483 3277 2444 3328 2387 
C 3424 2278 3546 2105 3546 1804 
C 3546 1574 3405 1209 3302 1011 
C 3123 659 2829 358 2496 358 
C 2093 358 1939 614 1869 972 
C 1939 1139 2086 1555 2086 1721 
C 2086 1792 2061 1849 1978 1849 
C 1933 1849 1882 1824 1850 1772 
C 1760 1632 1677 1126 1683 992 
C 1562 755 1216 358 806 358 
C 378 358 262 736 262 1100 
C 262 1766 678 2348 794 2508 
C 858 2604 902 2668 902 2681 
C 902 2726 877 2796 819 2796 
C 717 2796 685 2713 634 2636 
C 307 2131 77 1420 77 806 
C 77 409 224 -64 704 -64 
C 1235 -64 1568 390 1702 633 
C 1754 275 1946 -64 2413 -64 
C 2899 -64 3206 364 3437 883 
C 3603 1254 3802 2054 3802 2406 
z
" id="CMMI12-21" transform="scale(0.015625)"/>
      </defs>
      <use transform="scale(0.996264)" xlink:href="#CMMI12-21"/>
     </g>
    </g>
   </g>
   <g id="line2d_29">
    <defs>
     <path d="M 0 4 
C 1.060812 4 2.078319 3.578535 2.828427 2.828427 
C 3.578535 2.078319 4 1.060812 4 0 
C 4 -1.060812 3.578535 -2.078319 2.828427 -2.828427 
C 2.078319 -3.578535 1.060812 -4 0 -4 
C -1.060812 -4 -2.078319 -3.578535 -2.828427 -2.828427 
C -3.578535 -2.078319 -4 -1.060812 -4 0 
C -4 1.060812 -3.578535 2.078319 -2.828427 2.828427 
C -2.078319 3.578535 -1.060812 4 0 4 
z
" id="mbd514bf799" style="stroke:#1f77b4;stroke-width:1.5;"/>
    </defs>
    <g clip-path="url(#p9f652c736f)">
     <use style="fill-opacity:0;stroke:#1f77b4;stroke-width:1.5;" x="81.989385" xlink:href="#mbd514bf799" y="133.543055"/>
    </g>
   </g>
   <g id="line2d_30">
    <defs>
     <path d="M -4 4 
L 4 -4 
M -4 -4 
L 4 4 
" id="m077a7577d0" style="stroke:#1f77b4;stroke-width:1.5;"/>
    </defs>
    <g clip-path="url(#p9f652c736f)">
     <use style="fill:#1f77b4;stroke:#1f77b4;stroke-width:1.5;" x="154.469385" xlink:href="#m077a7577d0" y="115.423055"/>
     <use style="fill:#1f77b4;stroke:#1f77b4;stroke-width:1.5;" x="154.469385" xlink:href="#m077a7577d0" y="151.663055"/>
    </g>
   </g>
   <g id="line2d_31">
    <path clip-path="url(#p9f652c736f)" d="M 190.709385 133.543055 
L 189.862113 125.752526 
L 187.359918 118.326274 
L 183.319797 111.611541 
L 177.930663 105.922302 
L 171.444506 101.524578 
L 164.164611 98.624003 
L 156.431379 97.356204 
L 148.606405 97.780462 
L 141.055578 99.876938 
L 134.131965 103.547605 
L 128.159308 108.620826 
L 123.41688 114.859383 
L 120.126434 121.971567 
L 118.441825 129.624822 
L 118.441825 137.461288 
L 120.126434 145.114542 
L 123.41688 152.226727 
L 128.159308 158.465283 
L 134.131965 163.538504 
L 141.055578 167.209171 
L 148.606405 169.305648 
L 156.431379 169.729906 
L 164.164611 168.462107 
L 171.444506 165.561531 
L 177.930663 161.163808 
L 183.319797 155.474568 
L 187.359918 148.759836 
L 189.862113 141.333584 
L 190.709385 133.543055 
" style="fill:none;stroke:#000000;stroke-linecap:square;"/>
   </g>
   <g id="patch_3">
    <path d="M 45.749385 242.263055 
L 45.749385 24.823055 
" style="fill:none;stroke:#000000;stroke-linecap:square;stroke-linejoin:miter;stroke-width:0.8;"/>
   </g>
   <g id="patch_4">
    <path d="M 263.189385 242.263055 
L 263.189385 24.823055 
" style="fill:none;stroke:#000000;stroke-linecap:square;stroke-linejoin:miter;stroke-width:0.8;"/>
   </g>
   <g id="patch_5">
    <path d="M 45.749385 242.263055 
L 263.189385 242.263055 
" style="fill:none;stroke:#000000;stroke-linecap:square;stroke-linejoin:miter;stroke-width:0.8;"/>
   </g>
   <g id="patch_6">
    <path d="M 45.749385 24.823055 
L 263.189385 24.823055 
" style="fill:none;stroke:#000000;stroke-linecap:square;stroke-linejoin:miter;stroke-width:0.8;"/>
   </g>
   <g id="text_17">
    <!-- B -->
    <g transform="translate(148.666613 18.823055)scale(0.168 -0.168)">
     <defs>
      <path d="M 333 4352 
L 333 4185 
C 774 4185 845 4185 845 3897 
L 845 451 
C 845 166 774 166 333 166 
L 333 0 
L 2534 0 
C 3354 0 3885 578 3885 1155 
C 3885 1726 3360 2214 2675 2259 
C 3290 2380 3718 2790 3718 3276 
C 3718 3808 3194 4352 2368 4352 
L 333 4352 
z
M 1248 2304 
L 1248 3936 
C 1248 4153 1261 4185 1517 4185 
L 2336 4185 
C 2970 4185 3251 3673 3251 3276 
C 3251 2790 2861 2304 2170 2304 
L 1248 2304 
z
M 1517 166 
C 1261 166 1248 198 1248 413 
L 1248 2201 
L 2432 2201 
C 3091 2201 3411 1624 3411 1161 
C 3411 698 3046 166 2349 166 
L 1517 166 
z
" id="CMR17-42" transform="scale(0.015625)"/>
     </defs>
     <use transform="scale(0.996264)" xlink:href="#CMR17-42"/>
    </g>
   </g>
  </g>
 </g>
 <defs>
  <clipPath id="p9f652c736f">
   <rect height="217.44" width="217.44" x="45.749385" y="24.823055"/>
  </clipPath>
 </defs>
</svg>
