<?xml version="1.0" encoding="utf-8" standalone="no"?>
<!DOCTYPE svg PUBLIC "-//W3C//DTD SVG 1.1//EN"
  "http://www.w3.org/Graphics/SVG/1.1/DTD/svg11.dtd">
<!-- Created with matplotlib (https://matplotlib.org/) -->
<svg height="358.186776pt" version="1.1" viewBox="0 0 606.582626 358.186776" width="606.582626pt" xmlns="http://www.w3.org/2000/svg" xmlns:xlink="http://www.w3.org/1999/xlink">
 <defs>
  <style type="text/css">
*{stroke-linecap:butt;stroke-linejoin:round;}
  </style>
 </defs>
 <g id="figure_1">
  <g id="patch_1">
   <path d="M 0 358.186776 
L 606.582626 358.186776 
L 606.582626 0 
L 0 0 
z
" style="fill:none;"/>
  </g>
  <g id="axes_1">
   <g id="patch_2">
    <path d="M 38.456131 155.454545 
L 292.092495 155.454545 
L 292.092495 7.2 
L 38.456131 7.2 
z
" style="fill:#ffffff;"/>
   </g>
   <g id="matplotlib.axis_1">
    <g id="xtick_1">
     <g id="line2d_1">
      <path clip-path="url(#pe1f7d6b8af)" d="M 38.456131 155.454545 
L 38.456131 7.2 
" style="fill:none;stroke:#b0b0b0;stroke-linecap:square;stroke-width:0.8;"/>
     </g>
     <g id="line2d_2">
      <defs>
       <path d="M 0 0 
L 0 3.5 
" id="m302141fce9" style="stroke:#000000;stroke-width:0.8;"/>
      </defs>
      <g>
       <use style="stroke:#000000;stroke-width:0.8;" x="38.456131" xlink:href="#m302141fce9" y="155.454545"/>
      </g>
     </g>
     <g id="text_1">
      <!-- $-3$ -->
      <defs>
       <path d="M 65.90625 23 
C 67.59375 23 69.40625 23 69.40625 25 
C 69.40625 27 67.59375 27 65.90625 27 
L 11.796875 27 
C 10.09375 27 8.296875 27 8.296875 25 
C 8.296875 23 10.09375 23 11.796875 23 
z
" id="CMSY10-0"/>
       <path d="M 22.09375 34 
C 31 34 34.90625 26.140625 34.90625 17.09375 
C 34.90625 5.03125 28.5 0.390625 22.703125 0.390625 
C 17.40625 0.390625 8.796875 3.015625 6.09375 10.796875 
C 6.59375 10.59375 7.09375 10.59375 7.59375 10.59375 
C 10 10.59375 11.796875 12.1875 11.796875 14.796875 
C 11.796875 17.6875 9.59375 19 7.59375 19 
C 5.90625 19 3.296875 18.1875 3.296875 14.484375 
C 3.296875 5.234375 12.296875 -2 22.90625 -2 
C 34 -2 42.5 6.75 42.5 16.984375 
C 42.5 26.84375 34.5 34 25 35.09375 
C 32.59375 36.671875 39.90625 43.375 39.90625 52.390625 
C 39.90625 60.25 32 66 23 66 
C 13.90625 66 5.90625 60.34375 5.90625 52.296875 
C 5.90625 48.796875 8.5 48.1875 9.796875 48.1875 
C 11.90625 48.1875 13.703125 49.484375 13.703125 52.09375 
C 13.703125 54.6875 11.90625 56 9.796875 56 
C 9.40625 56 8.90625 56 8.5 55.796875 
C 11.40625 62.484375 19.296875 63.6875 22.796875 63.6875 
C 26.296875 63.6875 32.90625 61.96875 32.90625 52.296875 
C 32.90625 49.484375 32.5 44.546875 29.09375 40.21875 
C 26.09375 36.390625 22.703125 36.1875 19.40625 35.890625 
C 18.90625 35.890625 16.59375 35.6875 16.203125 35.6875 
C 15.5 35.59375 15.09375 35.5 15.09375 34.796875 
C 15.09375 34.09375 15.203125 34 17.203125 34 
z
" id="CMR17-51"/>
      </defs>
      <g transform="translate(30.880391 170.756725)scale(0.12 -0.12)">
       <use transform="scale(0.996264)" xlink:href="#CMSY10-0"/>
       <use transform="translate(77.487468 0)scale(0.996264)" xlink:href="#CMR17-51"/>
      </g>
     </g>
    </g>
    <g id="xtick_2">
     <g id="line2d_3">
      <path clip-path="url(#pe1f7d6b8af)" d="M 80.728858 155.454545 
L 80.728858 7.2 
" style="fill:none;stroke:#b0b0b0;stroke-linecap:square;stroke-width:0.8;"/>
     </g>
     <g id="line2d_4">
      <g>
       <use style="stroke:#000000;stroke-width:0.8;" x="80.728858" xlink:href="#m302141fce9" y="155.454545"/>
      </g>
     </g>
     <g id="text_2">
      <!-- $-2$ -->
      <defs>
       <path d="M 41.703125 15.46875 
L 39.90625 15.46875 
C 38.90625 8.390625 38.09375 7.1875 37.703125 6.59375 
C 37.203125 5.796875 30 5.796875 28.59375 5.796875 
L 9.40625 5.796875 
C 13 9.6875 20 16.765625 28.5 24.9375 
C 34.59375 30.71875 41.703125 37.5 41.703125 47.390625 
C 41.703125 59.1875 32.296875 66 21.796875 66 
C 10.796875 66 4.09375 56.296875 4.09375 47.296875 
C 4.09375 43.390625 7 42.890625 8.203125 42.890625 
C 9.203125 42.890625 12.203125 43.484375 12.203125 46.984375 
C 12.203125 50.09375 9.59375 51 8.203125 51 
C 7.59375 51 7 50.890625 6.59375 50.6875 
C 8.5 59.1875 14.296875 63.390625 20.40625 63.390625 
C 29.09375 63.390625 34.796875 56.5 34.796875 47.390625 
C 34.796875 38.703125 29.703125 31.21875 24 24.734375 
L 4.09375 2.296875 
L 4.09375 0 
L 39.296875 0 
z
" id="CMR17-50"/>
      </defs>
      <g transform="translate(73.153119 170.756725)scale(0.12 -0.12)">
       <use transform="scale(0.996264)" xlink:href="#CMSY10-0"/>
       <use transform="translate(77.487468 0)scale(0.996264)" xlink:href="#CMR17-50"/>
      </g>
     </g>
    </g>
    <g id="xtick_3">
     <g id="line2d_5">
      <path clip-path="url(#pe1f7d6b8af)" d="M 123.001586 155.454545 
L 123.001586 7.2 
" style="fill:none;stroke:#b0b0b0;stroke-linecap:square;stroke-width:0.8;"/>
     </g>
     <g id="line2d_6">
      <g>
       <use style="stroke:#000000;stroke-width:0.8;" x="123.001586" xlink:href="#m302141fce9" y="155.454545"/>
      </g>
     </g>
     <g id="text_3">
      <!-- $-1$ -->
      <defs>
       <path d="M 26.59375 63.796875 
C 26.59375 65.890625 26.5 66 25.09375 66 
C 21.203125 61.359375 15.296875 59.890625 9.703125 59.6875 
C 9.40625 59.6875 8.90625 59.6875 8.796875 59.5 
C 8.703125 59.296875 8.703125 59.09375 8.703125 57 
C 11.796875 57 17 57.59375 21 59.984375 
L 21 7.296875 
C 21 3.796875 20.796875 2.59375 12.203125 2.59375 
L 9.203125 2.59375 
L 9.203125 0 
C 14 0.09375 19 0.1875 23.796875 0.1875 
C 28.59375 0.1875 33.59375 0.09375 38.40625 0 
L 38.40625 2.59375 
L 35.40625 2.59375 
C 26.796875 2.59375 26.59375 3.6875 26.59375 7.296875 
z
" id="CMR17-49"/>
      </defs>
      <g transform="translate(115.425846 170.756725)scale(0.12 -0.12)">
       <use transform="scale(0.996264)" xlink:href="#CMSY10-0"/>
       <use transform="translate(77.487468 0)scale(0.996264)" xlink:href="#CMR17-49"/>
      </g>
     </g>
    </g>
    <g id="xtick_4">
     <g id="line2d_7">
      <path clip-path="url(#pe1f7d6b8af)" d="M 165.274313 155.454545 
L 165.274313 7.2 
" style="fill:none;stroke:#b0b0b0;stroke-linecap:square;stroke-width:0.8;"/>
     </g>
     <g id="line2d_8">
      <g>
       <use style="stroke:#000000;stroke-width:0.8;" x="165.274313" xlink:href="#m302141fce9" y="155.454545"/>
      </g>
     </g>
     <g id="text_4">
      <!-- $0$ -->
      <defs>
       <path d="M 42 31.84375 
C 42 37.96875 41.90625 48.421875 37.703125 56.453125 
C 34 63.484375 28.09375 66 22.90625 66 
C 18.09375 66 12 63.78125 8.203125 56.5625 
C 4.203125 49.015625 3.796875 39.671875 3.796875 31.84375 
C 3.796875 26.109375 3.90625 17.375 7 9.734375 
C 11.296875 -0.609375 19 -2 22.90625 -2 
C 27.5 -2 34.5 -0.109375 38.59375 9.4375 
C 41.59375 16.375 42 24.5 42 31.84375 
z
M 22.90625 -0.40625 
C 16.5 -0.40625 12.703125 5.125 11.296875 12.75 
C 10.203125 18.6875 10.203125 27.328125 10.203125 32.953125 
C 10.203125 40.6875 10.203125 47.109375 11.5 53.234375 
C 13.40625 61.78125 19 64.390625 22.90625 64.390625 
C 27 64.390625 32.296875 61.671875 34.203125 53.4375 
C 35.5 47.71875 35.59375 40.984375 35.59375 32.953125 
C 35.59375 26.421875 35.59375 18.375 34.40625 12.453125 
C 32.296875 1.5 26.40625 -0.40625 22.90625 -0.40625 
z
" id="CMR17-48"/>
      </defs>
      <g transform="translate(162.347818 170.756725)scale(0.12 -0.12)">
       <use transform="scale(0.996264)" xlink:href="#CMR17-48"/>
      </g>
     </g>
    </g>
    <g id="xtick_5">
     <g id="line2d_9">
      <path clip-path="url(#pe1f7d6b8af)" d="M 207.54704 155.454545 
L 207.54704 7.2 
" style="fill:none;stroke:#b0b0b0;stroke-linecap:square;stroke-width:0.8;"/>
     </g>
     <g id="line2d_10">
      <g>
       <use style="stroke:#000000;stroke-width:0.8;" x="207.54704" xlink:href="#m302141fce9" y="155.454545"/>
      </g>
     </g>
     <g id="text_5">
      <!-- $1$ -->
      <g transform="translate(204.620545 170.756725)scale(0.12 -0.12)">
       <use transform="scale(0.996264)" xlink:href="#CMR17-49"/>
      </g>
     </g>
    </g>
    <g id="xtick_6">
     <g id="line2d_11">
      <path clip-path="url(#pe1f7d6b8af)" d="M 249.819768 155.454545 
L 249.819768 7.2 
" style="fill:none;stroke:#b0b0b0;stroke-linecap:square;stroke-width:0.8;"/>
     </g>
     <g id="line2d_12">
      <g>
       <use style="stroke:#000000;stroke-width:0.8;" x="249.819768" xlink:href="#m302141fce9" y="155.454545"/>
      </g>
     </g>
     <g id="text_6">
      <!-- $2$ -->
      <g transform="translate(246.893272 170.756725)scale(0.12 -0.12)">
       <use transform="scale(0.996264)" xlink:href="#CMR17-50"/>
      </g>
     </g>
    </g>
    <g id="xtick_7">
     <g id="line2d_13">
      <path clip-path="url(#pe1f7d6b8af)" d="M 292.092495 155.454545 
L 292.092495 7.2 
" style="fill:none;stroke:#b0b0b0;stroke-linecap:square;stroke-width:0.8;"/>
     </g>
     <g id="line2d_14">
      <g>
       <use style="stroke:#000000;stroke-width:0.8;" x="292.092495" xlink:href="#m302141fce9" y="155.454545"/>
      </g>
     </g>
     <g id="text_7">
      <!-- $3$ -->
      <g transform="translate(289.166 170.756725)scale(0.12 -0.12)">
       <use transform="scale(0.996264)" xlink:href="#CMR17-51"/>
      </g>
     </g>
    </g>
   </g>
   <g id="matplotlib.axis_2">
    <g id="ytick_1">
     <g id="line2d_15">
      <path clip-path="url(#pe1f7d6b8af)" d="M 38.456131 155.454545 
L 292.092495 155.454545 
" style="fill:none;stroke:#b0b0b0;stroke-linecap:square;stroke-width:0.8;"/>
     </g>
     <g id="line2d_16">
      <defs>
       <path d="M 0 0 
L -3.5 0 
" id="m5d54b3d9b2" style="stroke:#000000;stroke-width:0.8;"/>
      </defs>
      <g>
       <use style="stroke:#000000;stroke-width:0.8;" x="38.456131" xlink:href="#m5d54b3d9b2" y="155.454545"/>
      </g>
     </g>
     <g id="text_8">
      <!-- $-0.5$ -->
      <defs>
       <path d="M 18.40625 4.796875 
C 18.40625 7.6875 16 9.6875 13.59375 9.6875 
C 10.703125 9.6875 8.703125 7.296875 8.703125 4.890625 
C 8.703125 2 11.09375 0 13.5 0 
C 16.40625 0 18.40625 2.390625 18.40625 4.796875 
z
" id="CMMI12-58"/>
       <path d="M 11.40625 58.59375 
C 12.40625 58.1875 16.5 56.890625 20.703125 56.890625 
C 30 56.890625 35.09375 61.890625 38 64.6875 
C 38 65.484375 38 66 37.40625 66 
C 37.296875 66 37.09375 66 36.296875 65.59375 
C 32.796875 64.09375 28.703125 63 23.703125 63 
C 20.703125 63 16.203125 63.359375 11.296875 65.484375 
C 10.203125 66 10 66 9.90625 66 
C 9.40625 66 9.296875 65.890625 9.296875 63.90625 
L 9.296875 34.859375 
C 9.296875 33.015625 9.296875 32.5 10.296875 32.5 
C 10.796875 32.5 11 32.703125 11.5 33.421875 
C 14.703125 38.046875 19.09375 40 24.09375 40 
C 27.59375 40 35.09375 37.734375 35.09375 20.203125 
C 35.09375 16.984375 35.09375 11.1875 32.09375 6.59375 
C 29.59375 2.484375 25.703125 0.390625 21.40625 0.390625 
C 14.796875 0.390625 8.09375 4.984375 6.296875 12.6875 
C 6.703125 12.59375 7.5 12.390625 7.90625 12.390625 
C 9.203125 12.390625 11.703125 13.09375 11.703125 16.1875 
C 11.703125 18.890625 9.796875 20 7.90625 20 
C 5.59375 20 4.09375 18.59375 4.09375 15.796875 
C 4.09375 7.09375 11 -2 21.59375 -2 
C 31.90625 -2 41.703125 6.890625 41.703125 19.796875 
C 41.703125 32.09375 33.90625 41.59375 24.203125 41.59375 
C 19.09375 41.59375 14.796875 39.6875 11.40625 36 
z
" id="CMR17-53"/>
      </defs>
      <g transform="translate(7.2 159.605635)scale(0.12 -0.12)">
       <use transform="scale(0.996264)" xlink:href="#CMSY10-0"/>
       <use transform="translate(77.487468 0)scale(0.996264)" xlink:href="#CMR17-48"/>
       <use transform="translate(123.177945 0)scale(0.996264)" xlink:href="#CMMI12-58"/>
       <use transform="translate(150.275122 0)scale(0.996264)" xlink:href="#CMR17-53"/>
      </g>
     </g>
    </g>
    <g id="ytick_2">
     <g id="line2d_17">
      <path clip-path="url(#pe1f7d6b8af)" d="M 38.456131 114.272727 
L 292.092495 114.272727 
" style="fill:none;stroke:#b0b0b0;stroke-linecap:square;stroke-width:0.8;"/>
     </g>
     <g id="line2d_18">
      <g>
       <use style="stroke:#000000;stroke-width:0.8;" x="38.456131" xlink:href="#m5d54b3d9b2" y="114.272727"/>
      </g>
     </g>
     <g id="text_9">
      <!-- $0.0$ -->
      <g transform="translate(16.498489 118.423817)scale(0.12 -0.12)">
       <use transform="scale(0.996264)" xlink:href="#CMR17-48"/>
       <use transform="translate(45.690477 0)scale(0.996264)" xlink:href="#CMMI12-58"/>
       <use transform="translate(72.787654 0)scale(0.996264)" xlink:href="#CMR17-48"/>
      </g>
     </g>
    </g>
    <g id="ytick_3">
     <g id="line2d_19">
      <path clip-path="url(#pe1f7d6b8af)" d="M 38.456131 73.090909 
L 292.092495 73.090909 
" style="fill:none;stroke:#b0b0b0;stroke-linecap:square;stroke-width:0.8;"/>
     </g>
     <g id="line2d_20">
      <g>
       <use style="stroke:#000000;stroke-width:0.8;" x="38.456131" xlink:href="#m5d54b3d9b2" y="73.090909"/>
      </g>
     </g>
     <g id="text_10">
      <!-- $0.5$ -->
      <g transform="translate(16.498489 77.241999)scale(0.12 -0.12)">
       <use transform="scale(0.996264)" xlink:href="#CMR17-48"/>
       <use transform="translate(45.690477 0)scale(0.996264)" xlink:href="#CMMI12-58"/>
       <use transform="translate(72.787654 0)scale(0.996264)" xlink:href="#CMR17-53"/>
      </g>
     </g>
    </g>
    <g id="ytick_4">
     <g id="line2d_21">
      <path clip-path="url(#pe1f7d6b8af)" d="M 38.456131 31.909091 
L 292.092495 31.909091 
" style="fill:none;stroke:#b0b0b0;stroke-linecap:square;stroke-width:0.8;"/>
     </g>
     <g id="line2d_22">
      <g>
       <use style="stroke:#000000;stroke-width:0.8;" x="38.456131" xlink:href="#m5d54b3d9b2" y="31.909091"/>
      </g>
     </g>
     <g id="text_11">
      <!-- $1.0$ -->
      <g transform="translate(16.498489 36.060181)scale(0.12 -0.12)">
       <use transform="scale(0.996264)" xlink:href="#CMR17-49"/>
       <use transform="translate(45.690477 0)scale(0.996264)" xlink:href="#CMMI12-58"/>
       <use transform="translate(72.787654 0)scale(0.996264)" xlink:href="#CMR17-48"/>
      </g>
     </g>
    </g>
   </g>
   <g id="line2d_23">
    <path clip-path="url(#pe1f7d6b8af)" d="M 38.456131 114.272727 
L 40.569768 112.882467 
L 42.683404 111.47909 
L 44.79704 110.096467 
L 46.910677 108.769134 
L 49.024313 107.531516 
L 51.137949 106.417124 
L 53.251586 105.457761 
L 55.365222 104.682727 
L 57.478858 104.118067 
L 59.592495 103.785863 
L 61.706131 103.703591 
L 63.819768 103.88356 
L 65.933404 104.332446 
L 68.04704 105.050933 
L 70.160677 106.033469 
L 72.274313 107.268155 
L 74.387949 108.736755 
L 76.501586 110.414847 
L 78.615222 112.272109 
L 80.728858 114.272727 
L 82.842495 116.375941 
L 84.956131 118.5367 
L 87.069768 120.706425 
L 89.183404 122.833872 
L 91.29704 124.86606 
L 93.410677 126.749273 
L 95.524313 128.430097 
L 97.637949 129.856478 
L 99.751586 130.978781 
L 101.865222 131.750834 
L 103.978858 132.130922 
L 106.092495 132.082728 
L 108.206131 131.576179 
L 110.319768 130.58821 
L 112.433404 129.103392 
L 114.54704 127.114444 
L 116.660677 124.622589 
L 118.774313 121.637771 
L 120.887949 118.178696 
L 123.001586 114.272727 
L 125.115222 109.955604 
L 127.228858 105.271007 
L 129.342495 100.269973 
L 131.456131 95.010152 
L 133.569768 89.554952 
L 135.683404 83.972545 
L 137.79704 78.334788 
L 139.910677 72.71606 
L 142.024313 67.192031 
L 144.137949 61.838408 
L 146.251586 56.729654 
L 148.365222 51.937726 
L 150.478858 47.530841 
L 152.592495 43.572301 
L 154.706131 40.119402 
L 156.819768 37.222428 
L 158.933404 34.923784 
L 161.04704 33.257248 
L 163.160677 32.24738 
L 165.274313 31.909091 
L 167.387949 32.24738 
L 169.501586 33.257248 
L 171.615222 34.923784 
L 173.728858 37.222428 
L 175.842495 40.119402 
L 177.956131 43.572301 
L 180.069768 47.530841 
L 182.183404 51.937726 
L 184.29704 56.729654 
L 186.410677 61.838408 
L 188.524313 67.192031 
L 190.637949 72.71606 
L 192.751586 78.334788 
L 194.865222 83.972545 
L 196.978858 89.554952 
L 199.092495 95.010152 
L 201.206131 100.269973 
L 203.319768 105.271007 
L 205.433404 109.955604 
L 207.54704 114.272727 
L 209.660677 118.178696 
L 211.774313 121.637771 
L 213.887949 124.622589 
L 216.001586 127.114444 
L 218.115222 129.103392 
L 220.228858 130.58821 
L 222.342495 131.576179 
L 224.456131 132.082728 
L 226.569768 132.130922 
L 228.683404 131.750834 
L 230.79704 130.978781 
L 232.910677 129.856478 
L 235.024313 128.430097 
L 237.137949 126.749273 
L 239.251586 124.86606 
L 241.365222 122.833872 
L 243.478858 120.706425 
L 245.592495 118.5367 
L 247.706131 116.375941 
L 249.819768 114.272727 
L 251.933404 112.272109 
L 254.04704 110.414847 
L 256.160677 108.736755 
L 258.274313 107.268155 
L 260.387949 106.033469 
L 262.501586 105.050933 
L 264.615222 104.332446 
L 266.728858 103.88356 
L 268.842495 103.703591 
L 270.956131 103.785863 
L 273.069768 104.118067 
L 275.183404 104.682727 
L 277.29704 105.457761 
L 279.410677 106.417124 
L 281.524313 107.531516 
L 283.637949 108.769134 
L 285.751586 110.096467 
L 287.865222 111.47909 
L 289.978858 112.882467 
" style="fill:none;stroke:#000000;stroke-linecap:square;"/>
   </g>
   <g id="patch_3">
    <path d="M 38.456131 155.454545 
L 38.456131 7.2 
" style="fill:none;stroke:#000000;stroke-linecap:square;stroke-linejoin:miter;stroke-width:0.8;"/>
   </g>
   <g id="patch_4">
    <path d="M 292.092495 155.454545 
L 292.092495 7.2 
" style="fill:none;stroke:#000000;stroke-linecap:square;stroke-linejoin:miter;stroke-width:0.8;"/>
   </g>
   <g id="patch_5">
    <path d="M 38.456131 155.454545 
L 292.092495 155.454545 
" style="fill:none;stroke:#000000;stroke-linecap:square;stroke-linejoin:miter;stroke-width:0.8;"/>
   </g>
   <g id="patch_6">
    <path d="M 38.456131 7.2 
L 292.092495 7.2 
" style="fill:none;stroke:#000000;stroke-linecap:square;stroke-linejoin:miter;stroke-width:0.8;"/>
   </g>
   <g id="text_12">
    <!-- A -->
    <defs>
     <path d="M 36.296875 69.390625 
C 35.796875 70.6875 35.59375 71 34.59375 71 
C 33.59375 71 33.40625 70.6875 32.90625 69.390625 
L 11.703125 9.0625 
C 9.796875 3.6875 5.796875 2.59375 2.296875 2.59375 
L 2.296875 0 
C 4.09375 0.1875 8.09375 0.1875 10 0.1875 
C 12.5 0.1875 16.5 0.1875 18.90625 0 
L 18.90625 2.59375 
C 14.203125 2.796875 13.5 5.96875 13.5 7.171875 
C 13.5 8.0625 13.703125 8.5625 13.90625 9.15625 
L 19.203125 24 
L 45.40625 24 
L 51.40625 7.078125 
C 51.90625 5.875 51.90625 5.671875 51.90625 5.28125 
C 51.90625 2.59375 47.59375 2.59375 45.703125 2.59375 
L 45.703125 0 
C 48.59375 0.1875 53.796875 0.1875 56.90625 0.1875 
C 59.5 0.1875 64.5 0.1875 66.90625 0 
L 66.90625 2.59375 
C 61.59375 2.59375 59.796875 2.59375 58.5 6.28125 
z
M 32.296875 61.3125 
L 44.5 26.59375 
L 20.09375 26.59375 
z
" id="CMR17-65"/>
    </defs>
    <g transform="translate(46.910677 25.12224)scale(0.14 -0.14)">
     <use transform="scale(0.996264)" xlink:href="#CMR17-65"/>
    </g>
   </g>
  </g>
  <g id="axes_2">
   <g id="patch_7">
    <path d="M 342.819768 155.454545 
L 596.456131 155.454545 
L 596.456131 7.2 
L 342.819768 7.2 
z
" style="fill:#ffffff;"/>
   </g>
   <g id="matplotlib.axis_3">
    <g id="xtick_8">
     <g id="line2d_24">
      <path clip-path="url(#pb4a9a8ac00)" d="M 342.819768 155.454545 
L 342.819768 7.2 
" style="fill:none;stroke:#b0b0b0;stroke-linecap:square;stroke-width:0.8;"/>
     </g>
     <g id="line2d_25">
      <g>
       <use style="stroke:#000000;stroke-width:0.8;" x="342.819768" xlink:href="#m302141fce9" y="155.454545"/>
      </g>
     </g>
     <g id="text_13">
      <!-- $-3$ -->
      <g transform="translate(335.244028 170.756725)scale(0.12 -0.12)">
       <use transform="scale(0.996264)" xlink:href="#CMSY10-0"/>
       <use transform="translate(77.487468 0)scale(0.996264)" xlink:href="#CMR17-51"/>
      </g>
     </g>
    </g>
    <g id="xtick_9">
     <g id="line2d_26">
      <path clip-path="url(#pb4a9a8ac00)" d="M 385.092495 155.454545 
L 385.092495 7.2 
" style="fill:none;stroke:#b0b0b0;stroke-linecap:square;stroke-width:0.8;"/>
     </g>
     <g id="line2d_27">
      <g>
       <use style="stroke:#000000;stroke-width:0.8;" x="385.092495" xlink:href="#m302141fce9" y="155.454545"/>
      </g>
     </g>
     <g id="text_14">
      <!-- $-2$ -->
      <g transform="translate(377.516755 170.756725)scale(0.12 -0.12)">
       <use transform="scale(0.996264)" xlink:href="#CMSY10-0"/>
       <use transform="translate(77.487468 0)scale(0.996264)" xlink:href="#CMR17-50"/>
      </g>
     </g>
    </g>
    <g id="xtick_10">
     <g id="line2d_28">
      <path clip-path="url(#pb4a9a8ac00)" d="M 427.365222 155.454545 
L 427.365222 7.2 
" style="fill:none;stroke:#b0b0b0;stroke-linecap:square;stroke-width:0.8;"/>
     </g>
     <g id="line2d_29">
      <g>
       <use style="stroke:#000000;stroke-width:0.8;" x="427.365222" xlink:href="#m302141fce9" y="155.454545"/>
      </g>
     </g>
     <g id="text_15">
      <!-- $-1$ -->
      <g transform="translate(419.789482 170.756725)scale(0.12 -0.12)">
       <use transform="scale(0.996264)" xlink:href="#CMSY10-0"/>
       <use transform="translate(77.487468 0)scale(0.996264)" xlink:href="#CMR17-49"/>
      </g>
     </g>
    </g>
    <g id="xtick_11">
     <g id="line2d_30">
      <path clip-path="url(#pb4a9a8ac00)" d="M 469.637949 155.454545 
L 469.637949 7.2 
" style="fill:none;stroke:#b0b0b0;stroke-linecap:square;stroke-width:0.8;"/>
     </g>
     <g id="line2d_31">
      <g>
       <use style="stroke:#000000;stroke-width:0.8;" x="469.637949" xlink:href="#m302141fce9" y="155.454545"/>
      </g>
     </g>
     <g id="text_16">
      <!-- $0$ -->
      <g transform="translate(466.711454 170.756725)scale(0.12 -0.12)">
       <use transform="scale(0.996264)" xlink:href="#CMR17-48"/>
      </g>
     </g>
    </g>
    <g id="xtick_12">
     <g id="line2d_32">
      <path clip-path="url(#pb4a9a8ac00)" d="M 511.910677 155.454545 
L 511.910677 7.2 
" style="fill:none;stroke:#b0b0b0;stroke-linecap:square;stroke-width:0.8;"/>
     </g>
     <g id="line2d_33">
      <g>
       <use style="stroke:#000000;stroke-width:0.8;" x="511.910677" xlink:href="#m302141fce9" y="155.454545"/>
      </g>
     </g>
     <g id="text_17">
      <!-- $1$ -->
      <g transform="translate(508.984182 170.756725)scale(0.12 -0.12)">
       <use transform="scale(0.996264)" xlink:href="#CMR17-49"/>
      </g>
     </g>
    </g>
    <g id="xtick_13">
     <g id="line2d_34">
      <path clip-path="url(#pb4a9a8ac00)" d="M 554.183404 155.454545 
L 554.183404 7.2 
" style="fill:none;stroke:#b0b0b0;stroke-linecap:square;stroke-width:0.8;"/>
     </g>
     <g id="line2d_35">
      <g>
       <use style="stroke:#000000;stroke-width:0.8;" x="554.183404" xlink:href="#m302141fce9" y="155.454545"/>
      </g>
     </g>
     <g id="text_18">
      <!-- $2$ -->
      <g transform="translate(551.256909 170.756725)scale(0.12 -0.12)">
       <use transform="scale(0.996264)" xlink:href="#CMR17-50"/>
      </g>
     </g>
    </g>
    <g id="xtick_14">
     <g id="line2d_36">
      <path clip-path="url(#pb4a9a8ac00)" d="M 596.456131 155.454545 
L 596.456131 7.2 
" style="fill:none;stroke:#b0b0b0;stroke-linecap:square;stroke-width:0.8;"/>
     </g>
     <g id="line2d_37">
      <g>
       <use style="stroke:#000000;stroke-width:0.8;" x="596.456131" xlink:href="#m302141fce9" y="155.454545"/>
      </g>
     </g>
     <g id="text_19">
      <!-- $3$ -->
      <g transform="translate(593.529636 170.756725)scale(0.12 -0.12)">
       <use transform="scale(0.996264)" xlink:href="#CMR17-51"/>
      </g>
     </g>
    </g>
   </g>
   <g id="matplotlib.axis_4">
    <g id="ytick_5">
     <g id="line2d_38">
      <path clip-path="url(#pb4a9a8ac00)" d="M 342.819768 155.454545 
L 596.456131 155.454545 
" style="fill:none;stroke:#b0b0b0;stroke-linecap:square;stroke-width:0.8;"/>
     </g>
     <g id="line2d_39">
      <g>
       <use style="stroke:#000000;stroke-width:0.8;" x="342.819768" xlink:href="#m5d54b3d9b2" y="155.454545"/>
      </g>
     </g>
     <g id="text_20">
      <!-- $-0.5$ -->
      <g transform="translate(311.563636 159.605635)scale(0.12 -0.12)">
       <use transform="scale(0.996264)" xlink:href="#CMSY10-0"/>
       <use transform="translate(77.487468 0)scale(0.996264)" xlink:href="#CMR17-48"/>
       <use transform="translate(123.177945 0)scale(0.996264)" xlink:href="#CMMI12-58"/>
       <use transform="translate(150.275122 0)scale(0.996264)" xlink:href="#CMR17-53"/>
      </g>
     </g>
    </g>
    <g id="ytick_6">
     <g id="line2d_40">
      <path clip-path="url(#pb4a9a8ac00)" d="M 342.819768 114.272727 
L 596.456131 114.272727 
" style="fill:none;stroke:#b0b0b0;stroke-linecap:square;stroke-width:0.8;"/>
     </g>
     <g id="line2d_41">
      <g>
       <use style="stroke:#000000;stroke-width:0.8;" x="342.819768" xlink:href="#m5d54b3d9b2" y="114.272727"/>
      </g>
     </g>
     <g id="text_21">
      <!-- $0.0$ -->
      <g transform="translate(320.862126 118.423817)scale(0.12 -0.12)">
       <use transform="scale(0.996264)" xlink:href="#CMR17-48"/>
       <use transform="translate(45.690477 0)scale(0.996264)" xlink:href="#CMMI12-58"/>
       <use transform="translate(72.787654 0)scale(0.996264)" xlink:href="#CMR17-48"/>
      </g>
     </g>
    </g>
    <g id="ytick_7">
     <g id="line2d_42">
      <path clip-path="url(#pb4a9a8ac00)" d="M 342.819768 73.090909 
L 596.456131 73.090909 
" style="fill:none;stroke:#b0b0b0;stroke-linecap:square;stroke-width:0.8;"/>
     </g>
     <g id="line2d_43">
      <g>
       <use style="stroke:#000000;stroke-width:0.8;" x="342.819768" xlink:href="#m5d54b3d9b2" y="73.090909"/>
      </g>
     </g>
     <g id="text_22">
      <!-- $0.5$ -->
      <g transform="translate(320.862126 77.241999)scale(0.12 -0.12)">
       <use transform="scale(0.996264)" xlink:href="#CMR17-48"/>
       <use transform="translate(45.690477 0)scale(0.996264)" xlink:href="#CMMI12-58"/>
       <use transform="translate(72.787654 0)scale(0.996264)" xlink:href="#CMR17-53"/>
      </g>
     </g>
    </g>
    <g id="ytick_8">
     <g id="line2d_44">
      <path clip-path="url(#pb4a9a8ac00)" d="M 342.819768 31.909091 
L 596.456131 31.909091 
" style="fill:none;stroke:#b0b0b0;stroke-linecap:square;stroke-width:0.8;"/>
     </g>
     <g id="line2d_45">
      <g>
       <use style="stroke:#000000;stroke-width:0.8;" x="342.819768" xlink:href="#m5d54b3d9b2" y="31.909091"/>
      </g>
     </g>
     <g id="text_23">
      <!-- $1.0$ -->
      <g transform="translate(320.862126 36.060181)scale(0.12 -0.12)">
       <use transform="scale(0.996264)" xlink:href="#CMR17-49"/>
       <use transform="translate(45.690477 0)scale(0.996264)" xlink:href="#CMMI12-58"/>
       <use transform="translate(72.787654 0)scale(0.996264)" xlink:href="#CMR17-48"/>
      </g>
     </g>
    </g>
   </g>
   <g id="line2d_46">
    <path clip-path="url(#pb4a9a8ac00)" d="M 342.819768 96.152727 
L 344.933404 94.762467 
L 347.04704 93.35909 
L 349.160677 91.976467 
L 351.274313 90.649134 
L 353.387949 89.411516 
L 355.501586 88.297124 
L 357.615222 87.337761 
L 359.728858 86.562727 
L 361.842495 85.998067 
L 363.956131 85.665863 
L 366.069768 85.583591 
L 368.183404 85.76356 
L 370.29704 86.212446 
L 372.410677 86.930933 
L 374.524313 87.913469 
L 376.637949 89.148155 
L 378.751586 90.616755 
L 380.865222 92.294847 
L 382.978858 94.152109 
L 385.092495 96.152727 
L 387.206131 98.255941 
L 389.319768 100.4167 
L 391.433404 102.586425 
L 393.54704 104.713872 
L 395.660677 106.74606 
L 397.774313 108.629273 
L 399.887949 110.310097 
L 402.001586 111.736478 
L 404.115222 112.858781 
L 406.228858 113.630834 
L 408.342495 114.010922 
L 410.456131 113.962728 
L 412.569768 113.456179 
L 414.683404 112.46821 
L 416.79704 110.983392 
L 418.910677 108.994444 
L 421.024313 106.502589 
L 423.137949 103.517771 
L 425.251586 100.058696 
L 427.365222 96.152727 
L 429.478858 91.835604 
L 431.592495 87.151007 
L 433.706131 82.149973 
L 435.819768 76.890152 
L 437.933404 71.434952 
L 440.04704 65.852545 
L 442.160677 60.214788 
L 444.274313 54.59606 
L 446.387949 49.072031 
L 448.501586 43.718408 
L 450.615222 38.609654 
L 452.728858 33.817726 
L 454.842495 29.410841 
L 456.956131 25.452301 
L 459.069768 21.999402 
L 461.183404 19.102428 
L 463.29704 16.803784 
L 465.410677 15.137248 
L 467.524313 14.12738 
L 469.637949 13.789091 
L 471.751586 14.12738 
L 473.865222 15.137248 
L 475.978858 16.803784 
L 478.092495 19.102428 
L 480.206131 21.999402 
L 482.319768 25.452301 
L 484.433404 29.410841 
L 486.54704 33.817726 
L 488.660677 38.609654 
L 490.774313 43.718408 
L 492.887949 49.072031 
L 495.001586 54.59606 
L 497.115222 60.214788 
L 499.228858 65.852545 
L 501.342495 71.434952 
L 503.456131 76.890152 
L 505.569768 82.149973 
L 507.683404 87.151007 
L 509.79704 91.835604 
L 511.910677 96.152727 
L 514.024313 100.058696 
L 516.137949 103.517771 
L 518.251586 106.502589 
L 520.365222 108.994444 
L 522.478858 110.983392 
L 524.592495 112.46821 
L 526.706131 113.456179 
L 528.819768 113.962728 
L 530.933404 114.010922 
L 533.04704 113.630834 
L 535.160677 112.858781 
L 537.274313 111.736478 
L 539.387949 110.310097 
L 541.501586 108.629273 
L 543.615222 106.74606 
L 545.728858 104.713872 
L 547.842495 102.586425 
L 549.956131 100.4167 
L 552.069768 98.255941 
L 554.183404 96.152727 
L 556.29704 94.152109 
L 558.410677 92.294847 
L 560.524313 90.616755 
L 562.637949 89.148155 
L 564.751586 87.913469 
L 566.865222 86.930933 
L 568.978858 86.212446 
L 571.092495 85.76356 
L 573.206131 85.583591 
L 575.319768 85.665863 
L 577.433404 85.998067 
L 579.54704 86.562727 
L 581.660677 87.337761 
L 583.774313 88.297124 
L 585.887949 89.411516 
L 588.001586 90.649134 
L 590.115222 91.976467 
L 592.228858 93.35909 
L 594.342495 94.762467 
" style="fill:none;stroke:#000000;stroke-linecap:square;"/>
   </g>
   <g id="patch_8">
    <path d="M 342.819768 155.454545 
L 342.819768 7.2 
" style="fill:none;stroke:#000000;stroke-linecap:square;stroke-linejoin:miter;stroke-width:0.8;"/>
   </g>
   <g id="patch_9">
    <path d="M 596.456131 155.454545 
L 596.456131 7.2 
" style="fill:none;stroke:#000000;stroke-linecap:square;stroke-linejoin:miter;stroke-width:0.8;"/>
   </g>
   <g id="patch_10">
    <path d="M 342.819768 155.454545 
L 596.456131 155.454545 
" style="fill:none;stroke:#000000;stroke-linecap:square;stroke-linejoin:miter;stroke-width:0.8;"/>
   </g>
   <g id="patch_11">
    <path d="M 342.819768 7.2 
L 596.456131 7.2 
" style="fill:none;stroke:#000000;stroke-linecap:square;stroke-linejoin:miter;stroke-width:0.8;"/>
   </g>
   <g id="text_24">
    <!-- B -->
    <defs>
     <path d="M 5.203125 68 
L 5.203125 65.390625 
C 12.09375 65.390625 13.203125 65.390625 13.203125 60.890625 
L 13.203125 7.046875 
C 13.203125 2.59375 12.09375 2.59375 5.203125 2.59375 
L 5.203125 0 
L 39.59375 0 
C 52.40625 0 60.703125 9.03125 60.703125 18.046875 
C 60.703125 26.96875 52.5 34.59375 41.796875 35.296875 
C 51.40625 37.1875 58.09375 43.59375 58.09375 51.1875 
C 58.09375 59.5 49.90625 68 37 68 
z
M 19.5 36 
L 19.5 61.5 
C 19.5 64.890625 19.703125 65.390625 23.703125 65.390625 
L 36.5 65.390625 
C 46.40625 65.390625 50.796875 57.390625 50.796875 51.1875 
C 50.796875 43.59375 44.703125 36 33.90625 36 
z
M 23.703125 2.59375 
C 19.703125 2.59375 19.5 3.09375 19.5 6.453125 
L 19.5 34.390625 
L 38 34.390625 
C 48.296875 34.390625 53.296875 25.375 53.296875 18.140625 
C 53.296875 10.90625 47.59375 2.59375 36.703125 2.59375 
z
" id="CMR17-66"/>
    </defs>
    <g transform="translate(351.274313 25.12224)scale(0.14 -0.14)">
     <use transform="scale(0.996264)" xlink:href="#CMR17-66"/>
    </g>
   </g>
  </g>
  <g id="axes_3">
   <g id="patch_12">
    <path d="M 38.456131 333.36 
L 292.092495 333.36 
L 292.092495 185.105455 
L 38.456131 185.105455 
z
" style="fill:#ffffff;"/>
   </g>
   <g id="matplotlib.axis_5">
    <g id="xtick_15">
     <g id="line2d_47">
      <path clip-path="url(#p48cff72699)" d="M 38.456131 333.36 
L 38.456131 185.105455 
" style="fill:none;stroke:#b0b0b0;stroke-linecap:square;stroke-width:0.8;"/>
     </g>
     <g id="line2d_48">
      <g>
       <use style="stroke:#000000;stroke-width:0.8;" x="38.456131" xlink:href="#m302141fce9" y="333.36"/>
      </g>
     </g>
     <g id="text_25">
      <!-- $-3$ -->
      <g transform="translate(30.880391 348.66218)scale(0.12 -0.12)">
       <use transform="scale(0.996264)" xlink:href="#CMSY10-0"/>
       <use transform="translate(77.487468 0)scale(0.996264)" xlink:href="#CMR17-51"/>
      </g>
     </g>
    </g>
    <g id="xtick_16">
     <g id="line2d_49">
      <path clip-path="url(#p48cff72699)" d="M 80.728858 333.36 
L 80.728858 185.105455 
" style="fill:none;stroke:#b0b0b0;stroke-linecap:square;stroke-width:0.8;"/>
     </g>
     <g id="line2d_50">
      <g>
       <use style="stroke:#000000;stroke-width:0.8;" x="80.728858" xlink:href="#m302141fce9" y="333.36"/>
      </g>
     </g>
     <g id="text_26">
      <!-- $-2$ -->
      <g transform="translate(73.153119 348.66218)scale(0.12 -0.12)">
       <use transform="scale(0.996264)" xlink:href="#CMSY10-0"/>
       <use transform="translate(77.487468 0)scale(0.996264)" xlink:href="#CMR17-50"/>
      </g>
     </g>
    </g>
    <g id="xtick_17">
     <g id="line2d_51">
      <path clip-path="url(#p48cff72699)" d="M 123.001586 333.36 
L 123.001586 185.105455 
" style="fill:none;stroke:#b0b0b0;stroke-linecap:square;stroke-width:0.8;"/>
     </g>
     <g id="line2d_52">
      <g>
       <use style="stroke:#000000;stroke-width:0.8;" x="123.001586" xlink:href="#m302141fce9" y="333.36"/>
      </g>
     </g>
     <g id="text_27">
      <!-- $-1$ -->
      <g transform="translate(115.425846 348.66218)scale(0.12 -0.12)">
       <use transform="scale(0.996264)" xlink:href="#CMSY10-0"/>
       <use transform="translate(77.487468 0)scale(0.996264)" xlink:href="#CMR17-49"/>
      </g>
     </g>
    </g>
    <g id="xtick_18">
     <g id="line2d_53">
      <path clip-path="url(#p48cff72699)" d="M 165.274313 333.36 
L 165.274313 185.105455 
" style="fill:none;stroke:#b0b0b0;stroke-linecap:square;stroke-width:0.8;"/>
     </g>
     <g id="line2d_54">
      <g>
       <use style="stroke:#000000;stroke-width:0.8;" x="165.274313" xlink:href="#m302141fce9" y="333.36"/>
      </g>
     </g>
     <g id="text_28">
      <!-- $0$ -->
      <g transform="translate(162.347818 348.66218)scale(0.12 -0.12)">
       <use transform="scale(0.996264)" xlink:href="#CMR17-48"/>
      </g>
     </g>
    </g>
    <g id="xtick_19">
     <g id="line2d_55">
      <path clip-path="url(#p48cff72699)" d="M 207.54704 333.36 
L 207.54704 185.105455 
" style="fill:none;stroke:#b0b0b0;stroke-linecap:square;stroke-width:0.8;"/>
     </g>
     <g id="line2d_56">
      <g>
       <use style="stroke:#000000;stroke-width:0.8;" x="207.54704" xlink:href="#m302141fce9" y="333.36"/>
      </g>
     </g>
     <g id="text_29">
      <!-- $1$ -->
      <g transform="translate(204.620545 348.66218)scale(0.12 -0.12)">
       <use transform="scale(0.996264)" xlink:href="#CMR17-49"/>
      </g>
     </g>
    </g>
    <g id="xtick_20">
     <g id="line2d_57">
      <path clip-path="url(#p48cff72699)" d="M 249.819768 333.36 
L 249.819768 185.105455 
" style="fill:none;stroke:#b0b0b0;stroke-linecap:square;stroke-width:0.8;"/>
     </g>
     <g id="line2d_58">
      <g>
       <use style="stroke:#000000;stroke-width:0.8;" x="249.819768" xlink:href="#m302141fce9" y="333.36"/>
      </g>
     </g>
     <g id="text_30">
      <!-- $2$ -->
      <g transform="translate(246.893272 348.66218)scale(0.12 -0.12)">
       <use transform="scale(0.996264)" xlink:href="#CMR17-50"/>
      </g>
     </g>
    </g>
    <g id="xtick_21">
     <g id="line2d_59">
      <path clip-path="url(#p48cff72699)" d="M 292.092495 333.36 
L 292.092495 185.105455 
" style="fill:none;stroke:#b0b0b0;stroke-linecap:square;stroke-width:0.8;"/>
     </g>
     <g id="line2d_60">
      <g>
       <use style="stroke:#000000;stroke-width:0.8;" x="292.092495" xlink:href="#m302141fce9" y="333.36"/>
      </g>
     </g>
     <g id="text_31">
      <!-- $3$ -->
      <g transform="translate(289.166 348.66218)scale(0.12 -0.12)">
       <use transform="scale(0.996264)" xlink:href="#CMR17-51"/>
      </g>
     </g>
    </g>
   </g>
   <g id="matplotlib.axis_6">
    <g id="ytick_9">
     <g id="line2d_61">
      <path clip-path="url(#p48cff72699)" d="M 38.456131 333.36 
L 292.092495 333.36 
" style="fill:none;stroke:#b0b0b0;stroke-linecap:square;stroke-width:0.8;"/>
     </g>
     <g id="line2d_62">
      <g>
       <use style="stroke:#000000;stroke-width:0.8;" x="38.456131" xlink:href="#m5d54b3d9b2" y="333.36"/>
      </g>
     </g>
     <g id="text_32">
      <!-- $-0.5$ -->
      <g transform="translate(7.2 337.51109)scale(0.12 -0.12)">
       <use transform="scale(0.996264)" xlink:href="#CMSY10-0"/>
       <use transform="translate(77.487468 0)scale(0.996264)" xlink:href="#CMR17-48"/>
       <use transform="translate(123.177945 0)scale(0.996264)" xlink:href="#CMMI12-58"/>
       <use transform="translate(150.275122 0)scale(0.996264)" xlink:href="#CMR17-53"/>
      </g>
     </g>
    </g>
    <g id="ytick_10">
     <g id="line2d_63">
      <path clip-path="url(#p48cff72699)" d="M 38.456131 292.178182 
L 292.092495 292.178182 
" style="fill:none;stroke:#b0b0b0;stroke-linecap:square;stroke-width:0.8;"/>
     </g>
     <g id="line2d_64">
      <g>
       <use style="stroke:#000000;stroke-width:0.8;" x="38.456131" xlink:href="#m5d54b3d9b2" y="292.178182"/>
      </g>
     </g>
     <g id="text_33">
      <!-- $0.0$ -->
      <g transform="translate(16.498489 296.329272)scale(0.12 -0.12)">
       <use transform="scale(0.996264)" xlink:href="#CMR17-48"/>
       <use transform="translate(45.690477 0)scale(0.996264)" xlink:href="#CMMI12-58"/>
       <use transform="translate(72.787654 0)scale(0.996264)" xlink:href="#CMR17-48"/>
      </g>
     </g>
    </g>
    <g id="ytick_11">
     <g id="line2d_65">
      <path clip-path="url(#p48cff72699)" d="M 38.456131 250.996364 
L 292.092495 250.996364 
" style="fill:none;stroke:#b0b0b0;stroke-linecap:square;stroke-width:0.8;"/>
     </g>
     <g id="line2d_66">
      <g>
       <use style="stroke:#000000;stroke-width:0.8;" x="38.456131" xlink:href="#m5d54b3d9b2" y="250.996364"/>
      </g>
     </g>
     <g id="text_34">
      <!-- $0.5$ -->
      <g transform="translate(16.498489 255.147454)scale(0.12 -0.12)">
       <use transform="scale(0.996264)" xlink:href="#CMR17-48"/>
       <use transform="translate(45.690477 0)scale(0.996264)" xlink:href="#CMMI12-58"/>
       <use transform="translate(72.787654 0)scale(0.996264)" xlink:href="#CMR17-53"/>
      </g>
     </g>
    </g>
    <g id="ytick_12">
     <g id="line2d_67">
      <path clip-path="url(#p48cff72699)" d="M 38.456131 209.814545 
L 292.092495 209.814545 
" style="fill:none;stroke:#b0b0b0;stroke-linecap:square;stroke-width:0.8;"/>
     </g>
     <g id="line2d_68">
      <g>
       <use style="stroke:#000000;stroke-width:0.8;" x="38.456131" xlink:href="#m5d54b3d9b2" y="209.814545"/>
      </g>
     </g>
     <g id="text_35">
      <!-- $1.0$ -->
      <g transform="translate(16.498489 213.965635)scale(0.12 -0.12)">
       <use transform="scale(0.996264)" xlink:href="#CMR17-49"/>
       <use transform="translate(45.690477 0)scale(0.996264)" xlink:href="#CMMI12-58"/>
       <use transform="translate(72.787654 0)scale(0.996264)" xlink:href="#CMR17-48"/>
      </g>
     </g>
    </g>
   </g>
   <g id="line2d_69">
    <path clip-path="url(#p48cff72699)" d="M 38.456131 292.178182 
L 40.569768 290.787922 
L 42.683404 289.384545 
L 44.79704 288.001922 
L 46.910677 286.674589 
L 49.024313 285.43697 
L 51.137949 284.322579 
L 53.251586 283.363216 
L 55.365222 282.588182 
L 57.478858 282.023522 
L 59.592495 281.691318 
L 61.706131 281.609046 
L 63.819768 281.789015 
L 65.933404 282.237901 
L 68.04704 282.956387 
L 70.160677 283.938923 
L 72.274313 285.173609 
L 74.387949 286.642209 
L 76.501586 288.320302 
L 78.615222 290.177564 
L 80.728858 292.178182 
L 82.842495 290.074968 
L 84.956131 287.914209 
L 87.069768 285.744484 
L 89.183404 283.617037 
L 91.29704 281.58485 
L 93.410677 279.701636 
L 95.524313 278.020812 
L 97.637949 276.594431 
L 99.751586 275.472128 
L 101.865222 274.700075 
L 103.978858 274.319987 
L 106.092495 274.368181 
L 108.206131 274.87473 
L 110.319768 275.862699 
L 112.433404 277.347517 
L 114.54704 279.336465 
L 116.660677 281.82832 
L 118.774313 284.813138 
L 120.887949 288.272213 
L 123.001586 292.178182 
L 125.115222 287.861058 
L 127.228858 283.176462 
L 129.342495 278.175427 
L 131.456131 272.915607 
L 133.569768 267.460407 
L 135.683404 261.877999 
L 137.79704 256.240243 
L 139.910677 250.621514 
L 142.024313 245.097485 
L 144.137949 239.743862 
L 146.251586 234.635109 
L 148.365222 229.84318 
L 150.478858 225.436295 
L 152.592495 221.477756 
L 154.706131 218.024856 
L 156.819768 215.127883 
L 158.933404 212.829239 
L 161.04704 211.162703 
L 163.160677 210.152835 
L 165.274313 209.814545 
L 167.387949 210.152835 
L 169.501586 211.162703 
L 171.615222 212.829239 
L 173.728858 215.127883 
L 175.842495 218.024856 
L 177.956131 221.477756 
L 180.069768 225.436295 
L 182.183404 229.84318 
L 184.29704 234.635109 
L 186.410677 239.743862 
L 188.524313 245.097485 
L 190.637949 250.621514 
L 192.751586 256.240243 
L 194.865222 261.877999 
L 196.978858 267.460407 
L 199.092495 272.915607 
L 201.206131 278.175427 
L 203.319768 283.176462 
L 205.433404 287.861058 
L 207.54704 292.178182 
L 209.660677 288.272213 
L 211.774313 284.813138 
L 213.887949 281.82832 
L 216.001586 279.336465 
L 218.115222 277.347517 
L 220.228858 275.862699 
L 222.342495 274.87473 
L 224.456131 274.368181 
L 226.569768 274.319987 
L 228.683404 274.700075 
L 230.79704 275.472128 
L 232.910677 276.594431 
L 235.024313 278.020812 
L 237.137949 279.701636 
L 239.251586 281.58485 
L 241.365222 283.617037 
L 243.478858 285.744484 
L 245.592495 287.914209 
L 247.706131 290.074968 
L 249.819768 292.178182 
L 251.933404 290.177564 
L 254.04704 288.320302 
L 256.160677 286.642209 
L 258.274313 285.173609 
L 260.387949 283.938923 
L 262.501586 282.956387 
L 264.615222 282.237901 
L 266.728858 281.789015 
L 268.842495 281.609046 
L 270.956131 281.691318 
L 273.069768 282.023522 
L 275.183404 282.588182 
L 277.29704 283.363216 
L 279.410677 284.322579 
L 281.524313 285.43697 
L 283.637949 286.674589 
L 285.751586 288.001922 
L 287.865222 289.384545 
L 289.978858 290.787922 
" style="fill:none;stroke:#000000;stroke-linecap:square;"/>
   </g>
   <g id="patch_13">
    <path d="M 38.456131 333.36 
L 38.456131 185.105455 
" style="fill:none;stroke:#000000;stroke-linecap:square;stroke-linejoin:miter;stroke-width:0.8;"/>
   </g>
   <g id="patch_14">
    <path d="M 292.092495 333.36 
L 292.092495 185.105455 
" style="fill:none;stroke:#000000;stroke-linecap:square;stroke-linejoin:miter;stroke-width:0.8;"/>
   </g>
   <g id="patch_15">
    <path d="M 38.456131 333.36 
L 292.092495 333.36 
" style="fill:none;stroke:#000000;stroke-linecap:square;stroke-linejoin:miter;stroke-width:0.8;"/>
   </g>
   <g id="patch_16">
    <path d="M 38.456131 185.105455 
L 292.092495 185.105455 
" style="fill:none;stroke:#000000;stroke-linecap:square;stroke-linejoin:miter;stroke-width:0.8;"/>
   </g>
   <g id="text_36">
    <!-- C -->
    <defs>
     <path d="M 62.09375 67.984375 
C 62.09375 69.796875 62 69.890625 61.40625 69.890625 
C 61 69.890625 60.90625 69.796875 60.203125 68.59375 
L 55.796875 60.140625 
C 50.90625 66.390625 44.90625 70 37.203125 70 
C 20.09375 70 4.59375 54.796875 4.59375 34.046875 
C 4.59375 13.078125 20.09375 -2 37.296875 -2 
C 52.59375 -2 62.09375 11.578125 62.09375 23.15625 
C 62.09375 24.171875 62.09375 24.578125 61.203125 24.578125 
C 60.40625 24.578125 60.40625 24.265625 60.296875 23.359375 
C 59.5 9.25 49.5 0.59375 38.703125 0.59375 
C 28.5 0.59375 12.203125 7.84375 12.203125 34.046875 
C 12.203125 60.34375 28.796875 67.390625 38.5 67.390625 
C 49.796875 67.390625 58 57.515625 59.90625 43.515625 
C 60.09375 42.296875 60.09375 42.109375 61 42.109375 
C 62.09375 42.109375 62.09375 42.296875 62.09375 44.125 
z
" id="CMR17-67"/>
    </defs>
    <g transform="translate(46.910677 203.027695)scale(0.14 -0.14)">
     <use transform="scale(0.996264)" xlink:href="#CMR17-67"/>
    </g>
   </g>
  </g>
  <g id="axes_4">
   <g id="patch_17">
    <path d="M 342.819768 333.36 
L 596.456131 333.36 
L 596.456131 185.105455 
L 342.819768 185.105455 
z
" style="fill:#ffffff;"/>
   </g>
   <g id="matplotlib.axis_7">
    <g id="xtick_22">
     <g id="line2d_70">
      <path clip-path="url(#pf9cee1ef13)" d="M 342.819768 333.36 
L 342.819768 185.105455 
" style="fill:none;stroke:#b0b0b0;stroke-linecap:square;stroke-width:0.8;"/>
     </g>
     <g id="line2d_71">
      <g>
       <use style="stroke:#000000;stroke-width:0.8;" x="342.819768" xlink:href="#m302141fce9" y="333.36"/>
      </g>
     </g>
     <g id="text_37">
      <!-- $-3$ -->
      <g transform="translate(335.244028 348.66218)scale(0.12 -0.12)">
       <use transform="scale(0.996264)" xlink:href="#CMSY10-0"/>
       <use transform="translate(77.487468 0)scale(0.996264)" xlink:href="#CMR17-51"/>
      </g>
     </g>
    </g>
    <g id="xtick_23">
     <g id="line2d_72">
      <path clip-path="url(#pf9cee1ef13)" d="M 385.092495 333.36 
L 385.092495 185.105455 
" style="fill:none;stroke:#b0b0b0;stroke-linecap:square;stroke-width:0.8;"/>
     </g>
     <g id="line2d_73">
      <g>
       <use style="stroke:#000000;stroke-width:0.8;" x="385.092495" xlink:href="#m302141fce9" y="333.36"/>
      </g>
     </g>
     <g id="text_38">
      <!-- $-2$ -->
      <g transform="translate(377.516755 348.66218)scale(0.12 -0.12)">
       <use transform="scale(0.996264)" xlink:href="#CMSY10-0"/>
       <use transform="translate(77.487468 0)scale(0.996264)" xlink:href="#CMR17-50"/>
      </g>
     </g>
    </g>
    <g id="xtick_24">
     <g id="line2d_74">
      <path clip-path="url(#pf9cee1ef13)" d="M 427.365222 333.36 
L 427.365222 185.105455 
" style="fill:none;stroke:#b0b0b0;stroke-linecap:square;stroke-width:0.8;"/>
     </g>
     <g id="line2d_75">
      <g>
       <use style="stroke:#000000;stroke-width:0.8;" x="427.365222" xlink:href="#m302141fce9" y="333.36"/>
      </g>
     </g>
     <g id="text_39">
      <!-- $-1$ -->
      <g transform="translate(419.789482 348.66218)scale(0.12 -0.12)">
       <use transform="scale(0.996264)" xlink:href="#CMSY10-0"/>
       <use transform="translate(77.487468 0)scale(0.996264)" xlink:href="#CMR17-49"/>
      </g>
     </g>
    </g>
    <g id="xtick_25">
     <g id="line2d_76">
      <path clip-path="url(#pf9cee1ef13)" d="M 469.637949 333.36 
L 469.637949 185.105455 
" style="fill:none;stroke:#b0b0b0;stroke-linecap:square;stroke-width:0.8;"/>
     </g>
     <g id="line2d_77">
      <g>
       <use style="stroke:#000000;stroke-width:0.8;" x="469.637949" xlink:href="#m302141fce9" y="333.36"/>
      </g>
     </g>
     <g id="text_40">
      <!-- $0$ -->
      <g transform="translate(466.711454 348.66218)scale(0.12 -0.12)">
       <use transform="scale(0.996264)" xlink:href="#CMR17-48"/>
      </g>
     </g>
    </g>
    <g id="xtick_26">
     <g id="line2d_78">
      <path clip-path="url(#pf9cee1ef13)" d="M 511.910677 333.36 
L 511.910677 185.105455 
" style="fill:none;stroke:#b0b0b0;stroke-linecap:square;stroke-width:0.8;"/>
     </g>
     <g id="line2d_79">
      <g>
       <use style="stroke:#000000;stroke-width:0.8;" x="511.910677" xlink:href="#m302141fce9" y="333.36"/>
      </g>
     </g>
     <g id="text_41">
      <!-- $1$ -->
      <g transform="translate(508.984182 348.66218)scale(0.12 -0.12)">
       <use transform="scale(0.996264)" xlink:href="#CMR17-49"/>
      </g>
     </g>
    </g>
    <g id="xtick_27">
     <g id="line2d_80">
      <path clip-path="url(#pf9cee1ef13)" d="M 554.183404 333.36 
L 554.183404 185.105455 
" style="fill:none;stroke:#b0b0b0;stroke-linecap:square;stroke-width:0.8;"/>
     </g>
     <g id="line2d_81">
      <g>
       <use style="stroke:#000000;stroke-width:0.8;" x="554.183404" xlink:href="#m302141fce9" y="333.36"/>
      </g>
     </g>
     <g id="text_42">
      <!-- $2$ -->
      <g transform="translate(551.256909 348.66218)scale(0.12 -0.12)">
       <use transform="scale(0.996264)" xlink:href="#CMR17-50"/>
      </g>
     </g>
    </g>
    <g id="xtick_28">
     <g id="line2d_82">
      <path clip-path="url(#pf9cee1ef13)" d="M 596.456131 333.36 
L 596.456131 185.105455 
" style="fill:none;stroke:#b0b0b0;stroke-linecap:square;stroke-width:0.8;"/>
     </g>
     <g id="line2d_83">
      <g>
       <use style="stroke:#000000;stroke-width:0.8;" x="596.456131" xlink:href="#m302141fce9" y="333.36"/>
      </g>
     </g>
     <g id="text_43">
      <!-- $3$ -->
      <g transform="translate(593.529636 348.66218)scale(0.12 -0.12)">
       <use transform="scale(0.996264)" xlink:href="#CMR17-51"/>
      </g>
     </g>
    </g>
   </g>
   <g id="matplotlib.axis_8">
    <g id="ytick_13">
     <g id="line2d_84">
      <path clip-path="url(#pf9cee1ef13)" d="M 342.819768 333.36 
L 596.456131 333.36 
" style="fill:none;stroke:#b0b0b0;stroke-linecap:square;stroke-width:0.8;"/>
     </g>
     <g id="line2d_85">
      <g>
       <use style="stroke:#000000;stroke-width:0.8;" x="342.819768" xlink:href="#m5d54b3d9b2" y="333.36"/>
      </g>
     </g>
     <g id="text_44">
      <!-- $-0.5$ -->
      <g transform="translate(311.563636 337.51109)scale(0.12 -0.12)">
       <use transform="scale(0.996264)" xlink:href="#CMSY10-0"/>
       <use transform="translate(77.487468 0)scale(0.996264)" xlink:href="#CMR17-48"/>
       <use transform="translate(123.177945 0)scale(0.996264)" xlink:href="#CMMI12-58"/>
       <use transform="translate(150.275122 0)scale(0.996264)" xlink:href="#CMR17-53"/>
      </g>
     </g>
    </g>
    <g id="ytick_14">
     <g id="line2d_86">
      <path clip-path="url(#pf9cee1ef13)" d="M 342.819768 292.178182 
L 596.456131 292.178182 
" style="fill:none;stroke:#b0b0b0;stroke-linecap:square;stroke-width:0.8;"/>
     </g>
     <g id="line2d_87">
      <g>
       <use style="stroke:#000000;stroke-width:0.8;" x="342.819768" xlink:href="#m5d54b3d9b2" y="292.178182"/>
      </g>
     </g>
     <g id="text_45">
      <!-- $0.0$ -->
      <g transform="translate(320.862126 296.329272)scale(0.12 -0.12)">
       <use transform="scale(0.996264)" xlink:href="#CMR17-48"/>
       <use transform="translate(45.690477 0)scale(0.996264)" xlink:href="#CMMI12-58"/>
       <use transform="translate(72.787654 0)scale(0.996264)" xlink:href="#CMR17-48"/>
      </g>
     </g>
    </g>
    <g id="ytick_15">
     <g id="line2d_88">
      <path clip-path="url(#pf9cee1ef13)" d="M 342.819768 250.996364 
L 596.456131 250.996364 
" style="fill:none;stroke:#b0b0b0;stroke-linecap:square;stroke-width:0.8;"/>
     </g>
     <g id="line2d_89">
      <g>
       <use style="stroke:#000000;stroke-width:0.8;" x="342.819768" xlink:href="#m5d54b3d9b2" y="250.996364"/>
      </g>
     </g>
     <g id="text_46">
      <!-- $0.5$ -->
      <g transform="translate(320.862126 255.147454)scale(0.12 -0.12)">
       <use transform="scale(0.996264)" xlink:href="#CMR17-48"/>
       <use transform="translate(45.690477 0)scale(0.996264)" xlink:href="#CMMI12-58"/>
       <use transform="translate(72.787654 0)scale(0.996264)" xlink:href="#CMR17-53"/>
      </g>
     </g>
    </g>
    <g id="ytick_16">
     <g id="line2d_90">
      <path clip-path="url(#pf9cee1ef13)" d="M 342.819768 209.814545 
L 596.456131 209.814545 
" style="fill:none;stroke:#b0b0b0;stroke-linecap:square;stroke-width:0.8;"/>
     </g>
     <g id="line2d_91">
      <g>
       <use style="stroke:#000000;stroke-width:0.8;" x="342.819768" xlink:href="#m5d54b3d9b2" y="209.814545"/>
      </g>
     </g>
     <g id="text_47">
      <!-- $1.0$ -->
      <g transform="translate(320.862126 213.965635)scale(0.12 -0.12)">
       <use transform="scale(0.996264)" xlink:href="#CMR17-49"/>
       <use transform="translate(45.690477 0)scale(0.996264)" xlink:href="#CMMI12-58"/>
       <use transform="translate(72.787654 0)scale(0.996264)" xlink:href="#CMR17-48"/>
      </g>
     </g>
    </g>
   </g>
   <g id="line2d_92">
    <path clip-path="url(#pf9cee1ef13)" d="M 342.819768 305.026909 
L 344.933404 303.219571 
L 347.04704 301.395181 
L 349.160677 299.597771 
L 351.274313 297.872238 
L 353.387949 296.263334 
L 355.501586 294.814625 
L 357.615222 293.567453 
L 359.728858 292.559909 
L 361.842495 291.825851 
L 363.956131 291.393986 
L 366.069768 291.287032 
L 368.183404 291.520992 
L 370.29704 292.104544 
L 372.410677 293.038576 
L 374.524313 294.315873 
L 376.637949 295.920965 
L 378.751586 297.830144 
L 380.865222 300.011665 
L 382.978858 302.426105 
L 385.092495 305.026909 
L 387.206131 307.761087 
L 389.319768 310.570073 
L 391.433404 313.390717 
L 393.54704 316.156397 
L 395.660677 318.798241 
L 397.774313 321.246419 
L 399.887949 323.43149 
L 402.001586 325.285785 
L 404.115222 326.744779 
L 406.228858 327.748448 
L 408.342495 328.242563 
L 410.456131 328.17991 
L 412.569768 327.521397 
L 414.683404 326.237037 
L 416.79704 324.306774 
L 418.910677 321.721141 
L 421.024313 318.48173 
L 423.137949 314.601466 
L 425.251586 310.104669 
L 427.365222 305.026909 
L 429.478858 299.414648 
L 431.592495 293.324673 
L 433.706131 286.823328 
L 435.819768 279.985562 
L 437.933404 272.893801 
L 440.04704 265.636672 
L 442.160677 258.307588 
L 444.274313 251.003241 
L 446.387949 243.822004 
L 448.501586 236.862294 
L 450.615222 230.220914 
L 452.728858 223.991407 
L 454.842495 218.262456 
L 456.956131 213.116355 
L 459.069768 208.627586 
L 461.183404 204.86152 
L 463.29704 201.873283 
L 465.410677 199.706786 
L 467.524313 198.393958 
L 469.637949 197.954182 
L 471.751586 198.393958 
L 473.865222 199.706786 
L 475.978858 201.873283 
L 478.092495 204.86152 
L 480.206131 208.627586 
L 482.319768 213.116355 
L 484.433404 218.262456 
L 486.54704 223.991407 
L 488.660677 230.220914 
L 490.774313 236.862294 
L 492.887949 243.822004 
L 495.001586 251.003241 
L 497.115222 258.307588 
L 499.228858 265.636672 
L 501.342495 272.893801 
L 503.456131 279.985562 
L 505.569768 286.823328 
L 507.683404 293.324673 
L 509.79704 299.414648 
L 511.910677 305.026909 
L 514.024313 310.104669 
L 516.137949 314.601466 
L 518.251586 318.48173 
L 520.365222 321.721141 
L 522.478858 324.306774 
L 524.592495 326.237037 
L 526.706131 327.521397 
L 528.819768 328.17991 
L 530.933404 328.242563 
L 533.04704 327.748448 
L 535.160677 326.744779 
L 537.274313 325.285785 
L 539.387949 323.43149 
L 541.501586 321.246419 
L 543.615222 318.798241 
L 545.728858 316.156397 
L 547.842495 313.390717 
L 549.956131 310.570073 
L 552.069768 307.761087 
L 554.183404 305.026909 
L 556.29704 302.426105 
L 558.410677 300.011665 
L 560.524313 297.830144 
L 562.637949 295.920965 
L 564.751586 294.315873 
L 566.865222 293.038576 
L 568.978858 292.104544 
L 571.092495 291.520992 
L 573.206131 291.287032 
L 575.319768 291.393986 
L 577.433404 291.825851 
L 579.54704 292.559909 
L 581.660677 293.567453 
L 583.774313 294.814625 
L 585.887949 296.263334 
L 588.001586 297.872238 
L 590.115222 299.597771 
L 592.228858 301.395181 
L 594.342495 303.219571 
" style="fill:none;stroke:#000000;stroke-linecap:square;"/>
   </g>
   <g id="patch_18">
    <path d="M 342.819768 333.36 
L 342.819768 185.105455 
" style="fill:none;stroke:#000000;stroke-linecap:square;stroke-linejoin:miter;stroke-width:0.8;"/>
   </g>
   <g id="patch_19">
    <path d="M 596.456131 333.36 
L 596.456131 185.105455 
" style="fill:none;stroke:#000000;stroke-linecap:square;stroke-linejoin:miter;stroke-width:0.8;"/>
   </g>
   <g id="patch_20">
    <path d="M 342.819768 333.36 
L 596.456131 333.36 
" style="fill:none;stroke:#000000;stroke-linecap:square;stroke-linejoin:miter;stroke-width:0.8;"/>
   </g>
   <g id="patch_21">
    <path d="M 342.819768 185.105455 
L 596.456131 185.105455 
" style="fill:none;stroke:#000000;stroke-linecap:square;stroke-linejoin:miter;stroke-width:0.8;"/>
   </g>
   <g id="text_48">
    <!-- D -->
    <defs>
     <path d="M 5.203125 68 
L 5.203125 65.390625 
C 12.09375 65.390625 13.203125 65.390625 13.203125 60.90625 
L 13.203125 7.078125 
C 13.203125 2.59375 12.09375 2.59375 5.203125 2.59375 
L 5.203125 0 
L 37 0 
C 53.09375 0 66 14.734375 66 33.4375 
C 66 52.25 53.296875 68 37 68 
z
M 23.796875 2.59375 
C 19.796875 2.59375 19.59375 3.09375 19.59375 6.46875 
L 19.59375 61.5 
C 19.59375 64.890625 19.796875 65.390625 23.796875 65.390625 
L 35 65.390625 
C 43.296875 65.390625 58.59375 60.515625 58.59375 33.4375 
C 58.59375 19.40625 54.5 13.734375 52.59375 11.046875 
C 50.203125 7.96875 44.5 2.59375 35 2.59375 
z
" id="CMR17-68"/>
    </defs>
    <g transform="translate(351.274313 203.027695)scale(0.14 -0.14)">
     <use transform="scale(0.996264)" xlink:href="#CMR17-68"/>
    </g>
   </g>
  </g>
 </g>
 <defs>
  <clipPath id="pe1f7d6b8af">
   <rect height="148.254545" width="253.636364" x="38.456131" y="7.2"/>
  </clipPath>
  <clipPath id="pb4a9a8ac00">
   <rect height="148.254545" width="253.636364" x="342.819768" y="7.2"/>
  </clipPath>
  <clipPath id="p48cff72699">
   <rect height="148.254545" width="253.636364" x="38.456131" y="185.105455"/>
  </clipPath>
  <clipPath id="pf9cee1ef13">
   <rect height="148.254545" width="253.636364" x="342.819768" y="185.105455"/>
  </clipPath>
 </defs>
</svg>
