<?xml version="1.0" encoding="utf-8" standalone="no"?>
<!DOCTYPE svg PUBLIC "-//W3C//DTD SVG 1.1//EN"
  "http://www.w3.org/Graphics/SVG/1.1/DTD/svg11.dtd">
<svg height="163.06693pt" version="1.1" viewBox="0 0 864.25299 163.06693" width="864.25299pt" xmlns="http://www.w3.org/2000/svg" xmlns:xlink="http://www.w3.org/1999/xlink">
 <metadata>
  <rdf:RDF xmlns:cc="http://creativecommons.org/ns#" xmlns:dc="http://purl.org/dc/elements/1.1/" xmlns:rdf="http://www.w3.org/1999/02/22-rdf-syntax-ns#">
   <cc:Work>
    <dc:type rdf:resource="http://purl.org/dc/dcmitype/StillImage"/>
    <dc:date>2021-08-24T16:39:02.817656</dc:date>
    <dc:format>image/svg+xml</dc:format>
    <dc:creator>
     <cc:Agent>
      <dc:title>Matplotlib v3.4.3, https://matplotlib.org/</dc:title>
     </cc:Agent>
    </dc:creator>
   </cc:Work>
  </rdf:RDF>
 </metadata>
 <defs>
  <style type="text/css">*{stroke-linecap:butt;stroke-linejoin:round;}</style>
 </defs>
 <g id="figure_1">
  <g id="patch_1">
   <path d="M 0 163.06693 
L 864.25299 163.06693 
L 864.25299 0 
L 0 0 
z
" style="fill:none;"/>
  </g>
  <g id="axes_1">
   <g id="patch_2">
    <path d="M 20.05299 120.07109 
L 202.009512 120.07109 
L 202.009512 11.35109 
L 20.05299 11.35109 
z
" style="fill:#ffffff;"/>
   </g>
   <g id="matplotlib.axis_1">
    <g id="xtick_1">
     <g id="line2d_1">
      <path clip-path="url(#pf07f38678c)" d="M 36.594492 120.07109 
L 36.594492 11.35109 
" style="fill:none;stroke:#b0b0b0;stroke-linecap:square;stroke-width:0.8;"/>
     </g>
     <g id="line2d_2">
      <defs>
       <path d="M 0 0 
L 0 3.5 
" id="m811b5a38ce" style="stroke:#000000;stroke-width:0.8;"/>
      </defs>
      <g>
       <use style="stroke:#000000;stroke-width:0.8;" x="36.594492" xlink:href="#m811b5a38ce" y="120.07109"/>
      </g>
     </g>
     <g id="text_1">
      <!-- $\mathdefault{0}$ -->
      <g transform="translate(33.667997 135.37327)scale(0.12 -0.12)">
       <defs>
        <path d="M 2688 2025 
C 2688 2416 2682 3080 2413 3591 
C 2176 4039 1798 4198 1466 4198 
C 1158 4198 768 4058 525 3597 
C 269 3118 243 2524 243 2025 
C 243 1661 250 1106 448 619 
C 723 -39 1216 -128 1466 -128 
C 1760 -128 2208 -7 2470 600 
C 2662 1042 2688 1559 2688 2025 
z
M 1466 -26 
C 1056 -26 813 325 723 812 
C 653 1188 653 1738 653 2096 
C 653 2588 653 2997 736 3387 
C 858 3929 1216 4096 1466 4096 
C 1728 4096 2067 3923 2189 3400 
C 2272 3036 2278 2607 2278 2096 
C 2278 1680 2278 1169 2202 792 
C 2067 95 1690 -26 1466 -26 
z
" id="CMR17-30" transform="scale(0.015625)"/>
       </defs>
       <use transform="scale(0.996264)" xlink:href="#CMR17-30"/>
      </g>
     </g>
    </g>
    <g id="xtick_2">
     <g id="line2d_3">
      <path clip-path="url(#pf07f38678c)" d="M 69.677496 120.07109 
L 69.677496 11.35109 
" style="fill:none;stroke:#b0b0b0;stroke-linecap:square;stroke-width:0.8;"/>
     </g>
     <g id="line2d_4">
      <g>
       <use style="stroke:#000000;stroke-width:0.8;" x="69.677496" xlink:href="#m811b5a38ce" y="120.07109"/>
      </g>
     </g>
     <g id="text_2">
      <!-- $\mathdefault{1}$ -->
      <g transform="translate(66.751001 135.37327)scale(0.12 -0.12)">
       <defs>
        <path d="M 1702 4058 
C 1702 4192 1696 4192 1606 4192 
C 1357 3916 979 3827 621 3827 
C 602 3827 570 3827 563 3808 
C 557 3795 557 3782 557 3648 
C 755 3648 1088 3686 1344 3839 
L 1344 461 
C 1344 236 1331 160 781 160 
L 589 160 
L 589 0 
C 896 0 1216 0 1523 0 
C 1830 0 2150 0 2458 0 
L 2458 160 
L 2266 160 
C 1715 160 1702 230 1702 458 
L 1702 4058 
z
" id="CMR17-31" transform="scale(0.015625)"/>
       </defs>
       <use transform="scale(0.996264)" xlink:href="#CMR17-31"/>
      </g>
     </g>
    </g>
    <g id="xtick_3">
     <g id="line2d_5">
      <path clip-path="url(#pf07f38678c)" d="M 102.7605 120.07109 
L 102.7605 11.35109 
" style="fill:none;stroke:#b0b0b0;stroke-linecap:square;stroke-width:0.8;"/>
     </g>
     <g id="line2d_6">
      <g>
       <use style="stroke:#000000;stroke-width:0.8;" x="102.7605" xlink:href="#m811b5a38ce" y="120.07109"/>
      </g>
     </g>
     <g id="text_3">
      <!-- $\mathdefault{2}$ -->
      <g transform="translate(99.834005 135.37327)scale(0.12 -0.12)">
       <defs>
        <path d="M 2669 989 
L 2554 989 
C 2490 536 2438 459 2413 420 
C 2381 369 1920 369 1830 369 
L 602 369 
C 832 619 1280 1072 1824 1597 
C 2214 1967 2669 2402 2669 3035 
C 2669 3790 2067 4224 1395 4224 
C 691 4224 262 3604 262 3030 
C 262 2780 448 2748 525 2748 
C 589 2748 781 2787 781 3010 
C 781 3207 614 3264 525 3264 
C 486 3264 448 3258 422 3245 
C 544 3790 915 4058 1306 4058 
C 1862 4058 2227 3617 2227 3035 
C 2227 2479 1901 2000 1536 1584 
L 262 146 
L 262 0 
L 2515 0 
L 2669 989 
z
" id="CMR17-32" transform="scale(0.015625)"/>
       </defs>
       <use transform="scale(0.996264)" xlink:href="#CMR17-32"/>
      </g>
     </g>
    </g>
    <g id="xtick_4">
     <g id="line2d_7">
      <path clip-path="url(#pf07f38678c)" d="M 135.843504 120.07109 
L 135.843504 11.35109 
" style="fill:none;stroke:#b0b0b0;stroke-linecap:square;stroke-width:0.8;"/>
     </g>
     <g id="line2d_8">
      <g>
       <use style="stroke:#000000;stroke-width:0.8;" x="135.843504" xlink:href="#m811b5a38ce" y="120.07109"/>
      </g>
     </g>
     <g id="text_4">
      <!-- $\mathdefault{3}$ -->
      <g transform="translate(132.917009 135.37327)scale(0.12 -0.12)">
       <defs>
        <path d="M 1414 2157 
C 1984 2157 2234 1662 2234 1090 
C 2234 320 1824 25 1453 25 
C 1114 25 563 194 390 693 
C 422 680 454 680 486 680 
C 640 680 755 782 755 948 
C 755 1133 614 1216 486 1216 
C 378 1216 211 1165 211 926 
C 211 335 787 -128 1466 -128 
C 2176 -128 2720 430 2720 1085 
C 2720 1707 2208 2157 1600 2227 
C 2086 2328 2554 2756 2554 3329 
C 2554 3820 2048 4179 1472 4179 
C 890 4179 378 3829 378 3329 
C 378 3110 544 3072 627 3072 
C 762 3072 877 3155 877 3321 
C 877 3486 762 3569 627 3569 
C 602 3569 570 3569 544 3557 
C 730 3959 1235 4032 1459 4032 
C 1683 4032 2106 3925 2106 3320 
C 2106 3143 2080 2828 1862 2550 
C 1670 2304 1453 2304 1242 2284 
C 1210 2284 1062 2269 1037 2269 
C 992 2263 966 2257 966 2208 
C 966 2163 973 2157 1101 2157 
L 1414 2157 
z
" id="CMR17-33" transform="scale(0.015625)"/>
       </defs>
       <use transform="scale(0.996264)" xlink:href="#CMR17-33"/>
      </g>
     </g>
    </g>
    <g id="xtick_5">
     <g id="line2d_9">
      <path clip-path="url(#pf07f38678c)" d="M 168.926508 120.07109 
L 168.926508 11.35109 
" style="fill:none;stroke:#b0b0b0;stroke-linecap:square;stroke-width:0.8;"/>
     </g>
     <g id="line2d_10">
      <g>
       <use style="stroke:#000000;stroke-width:0.8;" x="168.926508" xlink:href="#m811b5a38ce" y="120.07109"/>
      </g>
     </g>
     <g id="text_5">
      <!-- $\mathdefault{4}$ -->
      <g transform="translate(166.000013 135.37327)scale(0.12 -0.12)">
       <defs>
        <path d="M 2150 4122 
C 2150 4256 2144 4256 2029 4256 
L 128 1254 
L 128 1088 
L 1779 1088 
L 1779 457 
C 1779 224 1766 160 1318 160 
L 1197 160 
L 1197 0 
C 1402 0 1747 0 1965 0 
C 2182 0 2528 0 2733 0 
L 2733 160 
L 2611 160 
C 2163 160 2150 224 2150 457 
L 2150 1088 
L 2803 1088 
L 2803 1254 
L 2150 1254 
L 2150 4122 
z
M 1798 3703 
L 1798 1254 
L 256 1254 
L 1798 3703 
z
" id="CMR17-34" transform="scale(0.015625)"/>
       </defs>
       <use transform="scale(0.996264)" xlink:href="#CMR17-34"/>
      </g>
     </g>
    </g>
    <g id="text_6">
     <!-- $c=0.5$ -->
     <g transform="translate(87.20324 152.767454)scale(0.16 -0.16)">
      <defs>
       <path d="M 2502 2431 
C 2381 2431 2323 2431 2234 2355 
C 2195 2323 2125 2227 2125 2125 
C 2125 1997 2221 1920 2342 1920 
C 2496 1920 2669 2044 2669 2292 
C 2669 2588 2374 2816 1933 2816 
C 1094 2816 256 1903 256 996 
C 256 441 602 -64 1254 -64 
C 2125 -64 2675 622 2675 706 
C 2675 744 2637 776 2611 776 
C 2592 776 2586 770 2528 713 
C 2118 162 1510 64 1267 64 
C 826 64 685 446 685 764 
C 685 988 794 1605 1024 2039 
C 1190 2338 1536 2682 1939 2682 
C 2022 2682 2374 2682 2502 2431 
z
" id="CMMI12-63" transform="scale(0.015625)"/>
       <path d="M 4115 2017 
C 4211 2017 4307 2017 4307 2125 
C 4307 2240 4198 2240 4090 2240 
L 512 2240 
C 403 2240 294 2240 294 2125 
C 294 2017 390 2017 486 2017 
L 4115 2017 
z
M 4090 896 
C 4198 896 4307 896 4307 1011 
C 4307 1119 4211 1119 4115 1119 
L 486 1119 
C 390 1119 294 1119 294 1011 
C 294 896 403 896 512 896 
L 4090 896 
z
" id="CMR17-3d" transform="scale(0.015625)"/>
       <path d="M 1178 307 
C 1178 492 1024 619 870 619 
C 685 619 557 466 557 313 
C 557 128 710 0 864 0 
C 1050 0 1178 153 1178 307 
z
" id="CMMI12-3a" transform="scale(0.015625)"/>
       <path d="M 730 3692 
C 794 3666 1056 3584 1325 3584 
C 1920 3584 2246 3911 2432 4100 
C 2432 4157 2432 4192 2394 4192 
C 2387 4192 2374 4192 2323 4163 
C 2099 4058 1837 3973 1517 3973 
C 1325 3973 1037 3999 723 4139 
C 653 4171 640 4171 634 4171 
C 602 4171 595 4164 595 4037 
L 595 2203 
C 595 2089 595 2057 659 2057 
C 691 2057 704 2070 736 2114 
C 941 2401 1222 2522 1542 2522 
C 1766 2522 2246 2382 2246 1289 
C 2246 1085 2246 715 2054 421 
C 1894 159 1645 25 1370 25 
C 947 25 518 320 403 814 
C 429 807 480 795 506 795 
C 589 795 749 840 749 1038 
C 749 1210 627 1280 506 1280 
C 358 1280 262 1190 262 1011 
C 262 454 704 -128 1382 -128 
C 2042 -128 2669 440 2669 1264 
C 2669 2030 2170 2624 1549 2624 
C 1222 2624 947 2503 730 2274 
L 730 3692 
z
" id="CMR17-35" transform="scale(0.015625)"/>
      </defs>
      <use transform="scale(0.996264)" xlink:href="#CMMI12-63"/>
      <use transform="translate(69.657242 0)scale(0.996264)" xlink:href="#CMR17-3d"/>
      <use transform="translate(169.04604 0)scale(0.996264)" xlink:href="#CMR17-30"/>
      <use transform="translate(214.736517 0)scale(0.996264)" xlink:href="#CMMI12-3a"/>
      <use transform="translate(241.833694 0)scale(0.996264)" xlink:href="#CMR17-35"/>
     </g>
    </g>
   </g>
   <g id="matplotlib.axis_2">
    <g id="ytick_1">
     <g id="line2d_11">
      <path clip-path="url(#pf07f38678c)" d="M 20.05299 104.539661 
L 202.009512 104.539661 
" style="fill:none;stroke:#b0b0b0;stroke-linecap:square;stroke-width:0.8;"/>
     </g>
     <g id="line2d_12">
      <defs>
       <path d="M 0 0 
L -3.5 0 
" id="m2467c931b0" style="stroke:#000000;stroke-width:0.8;"/>
      </defs>
      <g>
       <use style="stroke:#000000;stroke-width:0.8;" x="20.05299" xlink:href="#m2467c931b0" y="104.539661"/>
      </g>
     </g>
     <g id="text_7">
      <!-- $\mathdefault{0}$ -->
      <g transform="translate(7.2 108.690751)scale(0.12 -0.12)">
       <use transform="scale(0.996264)" xlink:href="#CMR17-30"/>
      </g>
     </g>
    </g>
    <g id="ytick_2">
     <g id="line2d_13">
      <path clip-path="url(#pf07f38678c)" d="M 20.05299 73.476804 
L 202.009512 73.476804 
" style="fill:none;stroke:#b0b0b0;stroke-linecap:square;stroke-width:0.8;"/>
     </g>
     <g id="line2d_14">
      <g>
       <use style="stroke:#000000;stroke-width:0.8;" x="20.05299" xlink:href="#m2467c931b0" y="73.476804"/>
      </g>
     </g>
     <g id="text_8">
      <!-- $\mathdefault{1}$ -->
      <g transform="translate(7.2 77.627894)scale(0.12 -0.12)">
       <use transform="scale(0.996264)" xlink:href="#CMR17-31"/>
      </g>
     </g>
    </g>
    <g id="ytick_3">
     <g id="line2d_15">
      <path clip-path="url(#pf07f38678c)" d="M 20.05299 42.413947 
L 202.009512 42.413947 
" style="fill:none;stroke:#b0b0b0;stroke-linecap:square;stroke-width:0.8;"/>
     </g>
     <g id="line2d_16">
      <g>
       <use style="stroke:#000000;stroke-width:0.8;" x="20.05299" xlink:href="#m2467c931b0" y="42.413947"/>
      </g>
     </g>
     <g id="text_9">
      <!-- $\mathdefault{2}$ -->
      <g transform="translate(7.2 46.565037)scale(0.12 -0.12)">
       <use transform="scale(0.996264)" xlink:href="#CMR17-32"/>
      </g>
     </g>
    </g>
    <g id="ytick_4">
     <g id="line2d_17">
      <path clip-path="url(#pf07f38678c)" d="M 20.05299 11.35109 
L 202.009512 11.35109 
" style="fill:none;stroke:#b0b0b0;stroke-linecap:square;stroke-width:0.8;"/>
     </g>
     <g id="line2d_18">
      <g>
       <use style="stroke:#000000;stroke-width:0.8;" x="20.05299" xlink:href="#m2467c931b0" y="11.35109"/>
      </g>
     </g>
     <g id="text_10">
      <!-- $\mathdefault{3}$ -->
      <g transform="translate(7.2 15.50218)scale(0.12 -0.12)">
       <use transform="scale(0.996264)" xlink:href="#CMR17-33"/>
      </g>
     </g>
    </g>
   </g>
   <g id="line2d_19">
    <path clip-path="url(#pf07f38678c)" d="M 3.511488 104.539661 
L 36.263662 104.539661 
L 36.594492 73.476804 
L 42.549433 76.150347 
L 48.835204 78.723188 
L 55.451804 81.17995 
L 62.068405 83.40292 
L 69.015836 85.509735 
L 76.294097 87.492004 
L 84.234018 89.419746 
L 92.504769 91.196382 
L 101.43718 92.881426 
L 111.031251 94.455028 
L 121.286982 95.903028 
L 132.204374 97.216715 
L 144.114255 98.423022 
L 157.347457 99.531781 
L 171.903978 100.520743 
L 188.11465 101.394036 
L 206.641133 102.162249 
L 228.145085 102.821916 
L 234.761686 102.985381 
L 234.761686 102.985381 
" style="fill:none;stroke:#1f77b4;stroke-linecap:square;stroke-width:1.5;"/>
   </g>
   <g id="patch_3">
    <path d="M 20.05299 120.07109 
L 20.05299 11.35109 
" style="fill:none;stroke:#000000;stroke-linecap:square;stroke-linejoin:miter;stroke-width:0.8;"/>
   </g>
   <g id="patch_4">
    <path d="M 202.009512 120.07109 
L 202.009512 11.35109 
" style="fill:none;stroke:#000000;stroke-linecap:square;stroke-linejoin:miter;stroke-width:0.8;"/>
   </g>
   <g id="patch_5">
    <path d="M 20.05299 120.07109 
L 202.009512 120.07109 
" style="fill:none;stroke:#000000;stroke-linecap:square;stroke-linejoin:miter;stroke-width:0.8;"/>
   </g>
   <g id="patch_6">
    <path d="M 20.05299 11.35109 
L 202.009512 11.35109 
" style="fill:none;stroke:#000000;stroke-linecap:square;stroke-linejoin:miter;stroke-width:0.8;"/>
   </g>
  </g>
  <g id="axes_2">
   <g id="patch_7">
    <path d="M 238.400816 120.07109 
L 420.357338 120.07109 
L 420.357338 11.35109 
L 238.400816 11.35109 
z
" style="fill:#ffffff;"/>
   </g>
   <g id="matplotlib.axis_3">
    <g id="xtick_6">
     <g id="line2d_20">
      <path clip-path="url(#p26fc92b078)" d="M 254.942318 120.07109 
L 254.942318 11.35109 
" style="fill:none;stroke:#b0b0b0;stroke-linecap:square;stroke-width:0.8;"/>
     </g>
     <g id="line2d_21">
      <g>
       <use style="stroke:#000000;stroke-width:0.8;" x="254.942318" xlink:href="#m811b5a38ce" y="120.07109"/>
      </g>
     </g>
     <g id="text_11">
      <!-- $\mathdefault{0}$ -->
      <g transform="translate(252.015823 135.37327)scale(0.12 -0.12)">
       <use transform="scale(0.996264)" xlink:href="#CMR17-30"/>
      </g>
     </g>
    </g>
    <g id="xtick_7">
     <g id="line2d_22">
      <path clip-path="url(#p26fc92b078)" d="M 288.025322 120.07109 
L 288.025322 11.35109 
" style="fill:none;stroke:#b0b0b0;stroke-linecap:square;stroke-width:0.8;"/>
     </g>
     <g id="line2d_23">
      <g>
       <use style="stroke:#000000;stroke-width:0.8;" x="288.025322" xlink:href="#m811b5a38ce" y="120.07109"/>
      </g>
     </g>
     <g id="text_12">
      <!-- $\mathdefault{1}$ -->
      <g transform="translate(285.098827 135.37327)scale(0.12 -0.12)">
       <use transform="scale(0.996264)" xlink:href="#CMR17-31"/>
      </g>
     </g>
    </g>
    <g id="xtick_8">
     <g id="line2d_24">
      <path clip-path="url(#p26fc92b078)" d="M 321.108326 120.07109 
L 321.108326 11.35109 
" style="fill:none;stroke:#b0b0b0;stroke-linecap:square;stroke-width:0.8;"/>
     </g>
     <g id="line2d_25">
      <g>
       <use style="stroke:#000000;stroke-width:0.8;" x="321.108326" xlink:href="#m811b5a38ce" y="120.07109"/>
      </g>
     </g>
     <g id="text_13">
      <!-- $\mathdefault{2}$ -->
      <g transform="translate(318.181831 135.37327)scale(0.12 -0.12)">
       <use transform="scale(0.996264)" xlink:href="#CMR17-32"/>
      </g>
     </g>
    </g>
    <g id="xtick_9">
     <g id="line2d_26">
      <path clip-path="url(#p26fc92b078)" d="M 354.19133 120.07109 
L 354.19133 11.35109 
" style="fill:none;stroke:#b0b0b0;stroke-linecap:square;stroke-width:0.8;"/>
     </g>
     <g id="line2d_27">
      <g>
       <use style="stroke:#000000;stroke-width:0.8;" x="354.19133" xlink:href="#m811b5a38ce" y="120.07109"/>
      </g>
     </g>
     <g id="text_14">
      <!-- $\mathdefault{3}$ -->
      <g transform="translate(351.264835 135.37327)scale(0.12 -0.12)">
       <use transform="scale(0.996264)" xlink:href="#CMR17-33"/>
      </g>
     </g>
    </g>
    <g id="xtick_10">
     <g id="line2d_28">
      <path clip-path="url(#p26fc92b078)" d="M 387.274334 120.07109 
L 387.274334 11.35109 
" style="fill:none;stroke:#b0b0b0;stroke-linecap:square;stroke-width:0.8;"/>
     </g>
     <g id="line2d_29">
      <g>
       <use style="stroke:#000000;stroke-width:0.8;" x="387.274334" xlink:href="#m811b5a38ce" y="120.07109"/>
      </g>
     </g>
     <g id="text_15">
      <!-- $\mathdefault{4}$ -->
      <g transform="translate(384.347839 135.37327)scale(0.12 -0.12)">
       <use transform="scale(0.996264)" xlink:href="#CMR17-34"/>
      </g>
     </g>
    </g>
    <g id="text_16">
     <!-- $c=0.25$ -->
     <g transform="translate(301.649073 152.767454)scale(0.16 -0.16)">
      <use transform="scale(0.996264)" xlink:href="#CMMI12-63"/>
      <use transform="translate(69.657242 0)scale(0.996264)" xlink:href="#CMR17-3d"/>
      <use transform="translate(169.04604 0)scale(0.996264)" xlink:href="#CMR17-30"/>
      <use transform="translate(214.736517 0)scale(0.996264)" xlink:href="#CMMI12-3a"/>
      <use transform="translate(241.833694 0)scale(0.996264)" xlink:href="#CMR17-32"/>
      <use transform="translate(287.524171 0)scale(0.996264)" xlink:href="#CMR17-35"/>
     </g>
    </g>
   </g>
   <g id="matplotlib.axis_4">
    <g id="ytick_5">
     <g id="line2d_30">
      <path clip-path="url(#p26fc92b078)" d="M 238.400816 104.539661 
L 420.357338 104.539661 
" style="fill:none;stroke:#b0b0b0;stroke-linecap:square;stroke-width:0.8;"/>
     </g>
     <g id="line2d_31">
      <g>
       <use style="stroke:#000000;stroke-width:0.8;" x="238.400816" xlink:href="#m2467c931b0" y="104.539661"/>
      </g>
     </g>
     <g id="text_17">
      <!-- $\mathdefault{0}$ -->
      <g transform="translate(225.547826 108.690751)scale(0.12 -0.12)">
       <use transform="scale(0.996264)" xlink:href="#CMR17-30"/>
      </g>
     </g>
    </g>
    <g id="ytick_6">
     <g id="line2d_32">
      <path clip-path="url(#p26fc92b078)" d="M 238.400816 73.476804 
L 420.357338 73.476804 
" style="fill:none;stroke:#b0b0b0;stroke-linecap:square;stroke-width:0.8;"/>
     </g>
     <g id="line2d_33">
      <g>
       <use style="stroke:#000000;stroke-width:0.8;" x="238.400816" xlink:href="#m2467c931b0" y="73.476804"/>
      </g>
     </g>
     <g id="text_18">
      <!-- $\mathdefault{1}$ -->
      <g transform="translate(225.547826 77.627894)scale(0.12 -0.12)">
       <use transform="scale(0.996264)" xlink:href="#CMR17-31"/>
      </g>
     </g>
    </g>
    <g id="ytick_7">
     <g id="line2d_34">
      <path clip-path="url(#p26fc92b078)" d="M 238.400816 42.413947 
L 420.357338 42.413947 
" style="fill:none;stroke:#b0b0b0;stroke-linecap:square;stroke-width:0.8;"/>
     </g>
     <g id="line2d_35">
      <g>
       <use style="stroke:#000000;stroke-width:0.8;" x="238.400816" xlink:href="#m2467c931b0" y="42.413947"/>
      </g>
     </g>
     <g id="text_19">
      <!-- $\mathdefault{2}$ -->
      <g transform="translate(225.547826 46.565037)scale(0.12 -0.12)">
       <use transform="scale(0.996264)" xlink:href="#CMR17-32"/>
      </g>
     </g>
    </g>
    <g id="ytick_8">
     <g id="line2d_36">
      <path clip-path="url(#p26fc92b078)" d="M 238.400816 11.35109 
L 420.357338 11.35109 
" style="fill:none;stroke:#b0b0b0;stroke-linecap:square;stroke-width:0.8;"/>
     </g>
     <g id="line2d_37">
      <g>
       <use style="stroke:#000000;stroke-width:0.8;" x="238.400816" xlink:href="#m2467c931b0" y="11.35109"/>
      </g>
     </g>
     <g id="text_20">
      <!-- $\mathdefault{3}$ -->
      <g transform="translate(225.547826 15.50218)scale(0.12 -0.12)">
       <use transform="scale(0.996264)" xlink:href="#CMR17-33"/>
      </g>
     </g>
    </g>
   </g>
   <g id="line2d_38">
    <path clip-path="url(#p26fc92b078)" d="M 221.859314 104.539661 
L 254.611488 104.539661 
L 254.942318 73.476804 
L 266.52137 76.079285 
L 278.431251 78.528836 
L 291.002793 80.886121 
L 304.235994 83.137053 
L 318.130856 85.270368 
L 332.687378 87.277571 
L 347.905559 89.152818 
L 364.116231 90.92683 
L 381.319393 92.586297 
L 399.845876 94.147905 
L 419.695678 95.595394 
L 441.199631 96.93689 
L 453.109512 97.591252 
L 453.109512 97.591252 
" style="fill:none;stroke:#1f77b4;stroke-linecap:square;stroke-width:1.5;"/>
   </g>
   <g id="patch_8">
    <path d="M 238.400816 120.07109 
L 238.400816 11.35109 
" style="fill:none;stroke:#000000;stroke-linecap:square;stroke-linejoin:miter;stroke-width:0.8;"/>
   </g>
   <g id="patch_9">
    <path d="M 420.357338 120.07109 
L 420.357338 11.35109 
" style="fill:none;stroke:#000000;stroke-linecap:square;stroke-linejoin:miter;stroke-width:0.8;"/>
   </g>
   <g id="patch_10">
    <path d="M 238.400816 120.07109 
L 420.357338 120.07109 
" style="fill:none;stroke:#000000;stroke-linecap:square;stroke-linejoin:miter;stroke-width:0.8;"/>
   </g>
   <g id="patch_11">
    <path d="M 238.400816 11.35109 
L 420.357338 11.35109 
" style="fill:none;stroke:#000000;stroke-linecap:square;stroke-linejoin:miter;stroke-width:0.8;"/>
   </g>
  </g>
  <g id="axes_3">
   <g id="patch_12">
    <path d="M 456.748642 120.07109 
L 638.705164 120.07109 
L 638.705164 11.35109 
L 456.748642 11.35109 
z
" style="fill:#ffffff;"/>
   </g>
   <g id="matplotlib.axis_5">
    <g id="xtick_11">
     <g id="line2d_39">
      <path clip-path="url(#paa8182d4b8)" d="M 473.290144 120.07109 
L 473.290144 11.35109 
" style="fill:none;stroke:#b0b0b0;stroke-linecap:square;stroke-width:0.8;"/>
     </g>
     <g id="line2d_40">
      <g>
       <use style="stroke:#000000;stroke-width:0.8;" x="473.290144" xlink:href="#m811b5a38ce" y="120.07109"/>
      </g>
     </g>
     <g id="text_21">
      <!-- $\mathdefault{0}$ -->
      <g transform="translate(470.363649 135.37327)scale(0.12 -0.12)">
       <use transform="scale(0.996264)" xlink:href="#CMR17-30"/>
      </g>
     </g>
    </g>
    <g id="xtick_12">
     <g id="line2d_41">
      <path clip-path="url(#paa8182d4b8)" d="M 506.373148 120.07109 
L 506.373148 11.35109 
" style="fill:none;stroke:#b0b0b0;stroke-linecap:square;stroke-width:0.8;"/>
     </g>
     <g id="line2d_42">
      <g>
       <use style="stroke:#000000;stroke-width:0.8;" x="506.373148" xlink:href="#m811b5a38ce" y="120.07109"/>
      </g>
     </g>
     <g id="text_22">
      <!-- $\mathdefault{1}$ -->
      <g transform="translate(503.446653 135.37327)scale(0.12 -0.12)">
       <use transform="scale(0.996264)" xlink:href="#CMR17-31"/>
      </g>
     </g>
    </g>
    <g id="xtick_13">
     <g id="line2d_43">
      <path clip-path="url(#paa8182d4b8)" d="M 539.456152 120.07109 
L 539.456152 11.35109 
" style="fill:none;stroke:#b0b0b0;stroke-linecap:square;stroke-width:0.8;"/>
     </g>
     <g id="line2d_44">
      <g>
       <use style="stroke:#000000;stroke-width:0.8;" x="539.456152" xlink:href="#m811b5a38ce" y="120.07109"/>
      </g>
     </g>
     <g id="text_23">
      <!-- $\mathdefault{2}$ -->
      <g transform="translate(536.529657 135.37327)scale(0.12 -0.12)">
       <use transform="scale(0.996264)" xlink:href="#CMR17-32"/>
      </g>
     </g>
    </g>
    <g id="xtick_14">
     <g id="line2d_45">
      <path clip-path="url(#paa8182d4b8)" d="M 572.539156 120.07109 
L 572.539156 11.35109 
" style="fill:none;stroke:#b0b0b0;stroke-linecap:square;stroke-width:0.8;"/>
     </g>
     <g id="line2d_46">
      <g>
       <use style="stroke:#000000;stroke-width:0.8;" x="572.539156" xlink:href="#m811b5a38ce" y="120.07109"/>
      </g>
     </g>
     <g id="text_24">
      <!-- $\mathdefault{3}$ -->
      <g transform="translate(569.612661 135.37327)scale(0.12 -0.12)">
       <use transform="scale(0.996264)" xlink:href="#CMR17-33"/>
      </g>
     </g>
    </g>
    <g id="xtick_15">
     <g id="line2d_47">
      <path clip-path="url(#paa8182d4b8)" d="M 605.62216 120.07109 
L 605.62216 11.35109 
" style="fill:none;stroke:#b0b0b0;stroke-linecap:square;stroke-width:0.8;"/>
     </g>
     <g id="line2d_48">
      <g>
       <use style="stroke:#000000;stroke-width:0.8;" x="605.62216" xlink:href="#m811b5a38ce" y="120.07109"/>
      </g>
     </g>
     <g id="text_25">
      <!-- $\mathdefault{4}$ -->
      <g transform="translate(602.695665 135.37327)scale(0.12 -0.12)">
       <use transform="scale(0.996264)" xlink:href="#CMR17-34"/>
      </g>
     </g>
    </g>
    <g id="text_26">
     <!-- $c=0.0$ -->
     <g transform="translate(523.898892 152.767454)scale(0.16 -0.16)">
      <use transform="scale(0.996264)" xlink:href="#CMMI12-63"/>
      <use transform="translate(69.657242 0)scale(0.996264)" xlink:href="#CMR17-3d"/>
      <use transform="translate(169.04604 0)scale(0.996264)" xlink:href="#CMR17-30"/>
      <use transform="translate(214.736517 0)scale(0.996264)" xlink:href="#CMMI12-3a"/>
      <use transform="translate(241.833694 0)scale(0.996264)" xlink:href="#CMR17-30"/>
     </g>
    </g>
   </g>
   <g id="matplotlib.axis_6">
    <g id="ytick_9">
     <g id="line2d_49">
      <path clip-path="url(#paa8182d4b8)" d="M 456.748642 104.539661 
L 638.705164 104.539661 
" style="fill:none;stroke:#b0b0b0;stroke-linecap:square;stroke-width:0.8;"/>
     </g>
     <g id="line2d_50">
      <g>
       <use style="stroke:#000000;stroke-width:0.8;" x="456.748642" xlink:href="#m2467c931b0" y="104.539661"/>
      </g>
     </g>
     <g id="text_27">
      <!-- $\mathdefault{0}$ -->
      <g transform="translate(443.895652 108.690751)scale(0.12 -0.12)">
       <use transform="scale(0.996264)" xlink:href="#CMR17-30"/>
      </g>
     </g>
    </g>
    <g id="ytick_10">
     <g id="line2d_51">
      <path clip-path="url(#paa8182d4b8)" d="M 456.748642 73.476804 
L 638.705164 73.476804 
" style="fill:none;stroke:#b0b0b0;stroke-linecap:square;stroke-width:0.8;"/>
     </g>
     <g id="line2d_52">
      <g>
       <use style="stroke:#000000;stroke-width:0.8;" x="456.748642" xlink:href="#m2467c931b0" y="73.476804"/>
      </g>
     </g>
     <g id="text_28">
      <!-- $\mathdefault{1}$ -->
      <g transform="translate(443.895652 77.627894)scale(0.12 -0.12)">
       <use transform="scale(0.996264)" xlink:href="#CMR17-31"/>
      </g>
     </g>
    </g>
    <g id="ytick_11">
     <g id="line2d_53">
      <path clip-path="url(#paa8182d4b8)" d="M 456.748642 42.413947 
L 638.705164 42.413947 
" style="fill:none;stroke:#b0b0b0;stroke-linecap:square;stroke-width:0.8;"/>
     </g>
     <g id="line2d_54">
      <g>
       <use style="stroke:#000000;stroke-width:0.8;" x="456.748642" xlink:href="#m2467c931b0" y="42.413947"/>
      </g>
     </g>
     <g id="text_29">
      <!-- $\mathdefault{2}$ -->
      <g transform="translate(443.895652 46.565037)scale(0.12 -0.12)">
       <use transform="scale(0.996264)" xlink:href="#CMR17-32"/>
      </g>
     </g>
    </g>
    <g id="ytick_12">
     <g id="line2d_55">
      <path clip-path="url(#paa8182d4b8)" d="M 456.748642 11.35109 
L 638.705164 11.35109 
" style="fill:none;stroke:#b0b0b0;stroke-linecap:square;stroke-width:0.8;"/>
     </g>
     <g id="line2d_56">
      <g>
       <use style="stroke:#000000;stroke-width:0.8;" x="456.748642" xlink:href="#m2467c931b0" y="11.35109"/>
      </g>
     </g>
     <g id="text_30">
      <!-- $\mathdefault{3}$ -->
      <g transform="translate(443.895652 15.50218)scale(0.12 -0.12)">
       <use transform="scale(0.996264)" xlink:href="#CMR17-33"/>
      </g>
     </g>
    </g>
   </g>
   <g id="line2d_57">
    <path clip-path="url(#paa8182d4b8)" d="M 440.20714 104.539661 
L 472.959314 104.539661 
L 473.290144 73.476804 
L 671.457338 73.476804 
L 671.457338 73.476804 
" style="fill:none;stroke:#1f77b4;stroke-linecap:square;stroke-width:1.5;"/>
   </g>
   <g id="patch_13">
    <path d="M 456.748642 120.07109 
L 456.748642 11.35109 
" style="fill:none;stroke:#000000;stroke-linecap:square;stroke-linejoin:miter;stroke-width:0.8;"/>
   </g>
   <g id="patch_14">
    <path d="M 638.705164 120.07109 
L 638.705164 11.35109 
" style="fill:none;stroke:#000000;stroke-linecap:square;stroke-linejoin:miter;stroke-width:0.8;"/>
   </g>
   <g id="patch_15">
    <path d="M 456.748642 120.07109 
L 638.705164 120.07109 
" style="fill:none;stroke:#000000;stroke-linecap:square;stroke-linejoin:miter;stroke-width:0.8;"/>
   </g>
   <g id="patch_16">
    <path d="M 456.748642 11.35109 
L 638.705164 11.35109 
" style="fill:none;stroke:#000000;stroke-linecap:square;stroke-linejoin:miter;stroke-width:0.8;"/>
   </g>
  </g>
  <g id="axes_4">
   <g id="patch_17">
    <path d="M 675.096469 120.07109 
L 857.05299 120.07109 
L 857.05299 11.35109 
L 675.096469 11.35109 
z
" style="fill:#ffffff;"/>
   </g>
   <g id="matplotlib.axis_7">
    <g id="xtick_16">
     <g id="line2d_58">
      <path clip-path="url(#p450c153bc3)" d="M 691.63797 120.07109 
L 691.63797 11.35109 
" style="fill:none;stroke:#b0b0b0;stroke-linecap:square;stroke-width:0.8;"/>
     </g>
     <g id="line2d_59">
      <g>
       <use style="stroke:#000000;stroke-width:0.8;" x="691.63797" xlink:href="#m811b5a38ce" y="120.07109"/>
      </g>
     </g>
     <g id="text_31">
      <!-- $\mathdefault{0}$ -->
      <g transform="translate(688.711475 135.37327)scale(0.12 -0.12)">
       <use transform="scale(0.996264)" xlink:href="#CMR17-30"/>
      </g>
     </g>
    </g>
    <g id="xtick_17">
     <g id="line2d_60">
      <path clip-path="url(#p450c153bc3)" d="M 724.720974 120.07109 
L 724.720974 11.35109 
" style="fill:none;stroke:#b0b0b0;stroke-linecap:square;stroke-width:0.8;"/>
     </g>
     <g id="line2d_61">
      <g>
       <use style="stroke:#000000;stroke-width:0.8;" x="724.720974" xlink:href="#m811b5a38ce" y="120.07109"/>
      </g>
     </g>
     <g id="text_32">
      <!-- $\mathdefault{1}$ -->
      <g transform="translate(721.794479 135.37327)scale(0.12 -0.12)">
       <use transform="scale(0.996264)" xlink:href="#CMR17-31"/>
      </g>
     </g>
    </g>
    <g id="xtick_18">
     <g id="line2d_62">
      <path clip-path="url(#p450c153bc3)" d="M 757.803978 120.07109 
L 757.803978 11.35109 
" style="fill:none;stroke:#b0b0b0;stroke-linecap:square;stroke-width:0.8;"/>
     </g>
     <g id="line2d_63">
      <g>
       <use style="stroke:#000000;stroke-width:0.8;" x="757.803978" xlink:href="#m811b5a38ce" y="120.07109"/>
      </g>
     </g>
     <g id="text_33">
      <!-- $\mathdefault{2}$ -->
      <g transform="translate(754.877483 135.37327)scale(0.12 -0.12)">
       <use transform="scale(0.996264)" xlink:href="#CMR17-32"/>
      </g>
     </g>
    </g>
    <g id="xtick_19">
     <g id="line2d_64">
      <path clip-path="url(#p450c153bc3)" d="M 790.886982 120.07109 
L 790.886982 11.35109 
" style="fill:none;stroke:#b0b0b0;stroke-linecap:square;stroke-width:0.8;"/>
     </g>
     <g id="line2d_65">
      <g>
       <use style="stroke:#000000;stroke-width:0.8;" x="790.886982" xlink:href="#m811b5a38ce" y="120.07109"/>
      </g>
     </g>
     <g id="text_34">
      <!-- $\mathdefault{3}$ -->
      <g transform="translate(787.960487 135.37327)scale(0.12 -0.12)">
       <use transform="scale(0.996264)" xlink:href="#CMR17-33"/>
      </g>
     </g>
    </g>
    <g id="xtick_20">
     <g id="line2d_66">
      <path clip-path="url(#p450c153bc3)" d="M 823.969986 120.07109 
L 823.969986 11.35109 
" style="fill:none;stroke:#b0b0b0;stroke-linecap:square;stroke-width:0.8;"/>
     </g>
     <g id="line2d_67">
      <g>
       <use style="stroke:#000000;stroke-width:0.8;" x="823.969986" xlink:href="#m811b5a38ce" y="120.07109"/>
      </g>
     </g>
     <g id="text_35">
      <!-- $\mathdefault{4}$ -->
      <g transform="translate(821.043491 135.37327)scale(0.12 -0.12)">
       <use transform="scale(0.996264)" xlink:href="#CMR17-34"/>
      </g>
     </g>
    </g>
    <g id="text_36">
     <!-- $c=-0.25$ -->
     <g transform="translate(732.145727 152.767454)scale(0.16 -0.16)">
      <defs>
       <path d="M 4218 1472 
C 4326 1472 4442 1472 4442 1600 
C 4442 1728 4326 1728 4218 1728 
L 755 1728 
C 646 1728 531 1728 531 1600 
C 531 1472 646 1472 755 1472 
L 4218 1472 
z
" id="CMSY10-0" transform="scale(0.015625)"/>
      </defs>
      <use transform="scale(0.996264)" xlink:href="#CMMI12-63"/>
      <use transform="translate(69.657242 0)scale(0.996264)" xlink:href="#CMR17-3d"/>
      <use transform="translate(169.04604 0)scale(0.996264)" xlink:href="#CMSY10-0"/>
      <use transform="translate(246.533507 0)scale(0.996264)" xlink:href="#CMR17-30"/>
      <use transform="translate(292.223984 0)scale(0.996264)" xlink:href="#CMMI12-3a"/>
      <use transform="translate(319.321161 0)scale(0.996264)" xlink:href="#CMR17-32"/>
      <use transform="translate(365.011638 0)scale(0.996264)" xlink:href="#CMR17-35"/>
     </g>
    </g>
   </g>
   <g id="matplotlib.axis_8">
    <g id="ytick_13">
     <g id="line2d_68">
      <path clip-path="url(#p450c153bc3)" d="M 675.096469 104.539661 
L 857.05299 104.539661 
" style="fill:none;stroke:#b0b0b0;stroke-linecap:square;stroke-width:0.8;"/>
     </g>
     <g id="line2d_69">
      <g>
       <use style="stroke:#000000;stroke-width:0.8;" x="675.096469" xlink:href="#m2467c931b0" y="104.539661"/>
      </g>
     </g>
     <g id="text_37">
      <!-- $\mathdefault{0}$ -->
      <g transform="translate(662.243478 108.690751)scale(0.12 -0.12)">
       <use transform="scale(0.996264)" xlink:href="#CMR17-30"/>
      </g>
     </g>
    </g>
    <g id="ytick_14">
     <g id="line2d_70">
      <path clip-path="url(#p450c153bc3)" d="M 675.096469 73.476804 
L 857.05299 73.476804 
" style="fill:none;stroke:#b0b0b0;stroke-linecap:square;stroke-width:0.8;"/>
     </g>
     <g id="line2d_71">
      <g>
       <use style="stroke:#000000;stroke-width:0.8;" x="675.096469" xlink:href="#m2467c931b0" y="73.476804"/>
      </g>
     </g>
     <g id="text_38">
      <!-- $\mathdefault{1}$ -->
      <g transform="translate(662.243478 77.627894)scale(0.12 -0.12)">
       <use transform="scale(0.996264)" xlink:href="#CMR17-31"/>
      </g>
     </g>
    </g>
    <g id="ytick_15">
     <g id="line2d_72">
      <path clip-path="url(#p450c153bc3)" d="M 675.096469 42.413947 
L 857.05299 42.413947 
" style="fill:none;stroke:#b0b0b0;stroke-linecap:square;stroke-width:0.8;"/>
     </g>
     <g id="line2d_73">
      <g>
       <use style="stroke:#000000;stroke-width:0.8;" x="675.096469" xlink:href="#m2467c931b0" y="42.413947"/>
      </g>
     </g>
     <g id="text_39">
      <!-- $\mathdefault{2}$ -->
      <g transform="translate(662.243478 46.565037)scale(0.12 -0.12)">
       <use transform="scale(0.996264)" xlink:href="#CMR17-32"/>
      </g>
     </g>
    </g>
    <g id="ytick_16">
     <g id="line2d_74">
      <path clip-path="url(#p450c153bc3)" d="M 675.096469 11.35109 
L 857.05299 11.35109 
" style="fill:none;stroke:#b0b0b0;stroke-linecap:square;stroke-width:0.8;"/>
     </g>
     <g id="line2d_75">
      <g>
       <use style="stroke:#000000;stroke-width:0.8;" x="675.096469" xlink:href="#m2467c931b0" y="11.35109"/>
      </g>
     </g>
     <g id="text_40">
      <!-- $\mathdefault{3}$ -->
      <g transform="translate(662.243478 15.50218)scale(0.12 -0.12)">
       <use transform="scale(0.996264)" xlink:href="#CMR17-33"/>
      </g>
     </g>
    </g>
   </g>
   <g id="line2d_76">
    <path clip-path="url(#p450c153bc3)" d="M 658.554967 104.539661 
L 691.30714 104.539661 
L 691.63797 73.476804 
L 702.886192 70.720999 
L 713.472753 67.904341 
L 723.728484 64.952186 
L 733.653386 61.868949 
L 743.247457 58.660418 
L 752.510698 55.333797 
L 761.443109 51.897739 
L 770.37552 48.22174 
L 778.977101 44.439483 
L 787.247852 40.563355 
L 795.518603 36.437238 
L 803.458524 32.226019 
L 811.067615 27.946117 
L 818.676706 23.412907 
L 825.954967 18.82595 
L 833.233227 13.979644 
L 840.511488 8.859325 
L 847.458919 3.70191 
L 853.489748 -1 
L 853.489748 -1 
" style="fill:none;stroke:#1f77b4;stroke-linecap:square;stroke-width:1.5;"/>
   </g>
   <g id="patch_18">
    <path d="M 675.096469 120.07109 
L 675.096469 11.35109 
" style="fill:none;stroke:#000000;stroke-linecap:square;stroke-linejoin:miter;stroke-width:0.8;"/>
   </g>
   <g id="patch_19">
    <path d="M 857.05299 120.07109 
L 857.05299 11.35109 
" style="fill:none;stroke:#000000;stroke-linecap:square;stroke-linejoin:miter;stroke-width:0.8;"/>
   </g>
   <g id="patch_20">
    <path d="M 675.096469 120.07109 
L 857.05299 120.07109 
" style="fill:none;stroke:#000000;stroke-linecap:square;stroke-linejoin:miter;stroke-width:0.8;"/>
   </g>
   <g id="patch_21">
    <path d="M 675.096469 11.35109 
L 857.05299 11.35109 
" style="fill:none;stroke:#000000;stroke-linecap:square;stroke-linejoin:miter;stroke-width:0.8;"/>
   </g>
  </g>
 </g>
 <defs>
  <clipPath id="pf07f38678c">
   <rect height="108.72" width="181.956522" x="20.05299" y="11.35109"/>
  </clipPath>
  <clipPath id="p26fc92b078">
   <rect height="108.72" width="181.956522" x="238.400816" y="11.35109"/>
  </clipPath>
  <clipPath id="paa8182d4b8">
   <rect height="108.72" width="181.956522" x="456.748642" y="11.35109"/>
  </clipPath>
  <clipPath id="p450c153bc3">
   <rect height="108.72" width="181.956522" x="675.096469" y="11.35109"/>
  </clipPath>
 </defs>
</svg>
