<?xml version="1.0" encoding="utf-8" standalone="no"?>
<!DOCTYPE svg PUBLIC "-//W3C//DTD SVG 1.1//EN"
  "http://www.w3.org/Graphics/SVG/1.1/DTD/svg11.dtd">
<svg height="320.22468pt" version="1.1" viewBox="0 0 512.605156 320.22468" width="512.605156pt" xmlns="http://www.w3.org/2000/svg" xmlns:xlink="http://www.w3.org/1999/xlink">
 <metadata>
  <rdf:RDF xmlns:cc="http://creativecommons.org/ns#" xmlns:dc="http://purl.org/dc/elements/1.1/" xmlns:rdf="http://www.w3.org/1999/02/22-rdf-syntax-ns#">
   <cc:Work>
    <dc:type rdf:resource="http://purl.org/dc/dcmitype/StillImage"/>
    <dc:date>2023-09-06T10:11:33.408383</dc:date>
    <dc:format>image/svg+xml</dc:format>
    <dc:creator>
     <cc:Agent>
      <dc:title>Matplotlib v3.4.3, https://matplotlib.org/</dc:title>
     </cc:Agent>
    </dc:creator>
   </cc:Work>
  </rdf:RDF>
 </metadata>
 <defs>
  <style type="text/css">*{stroke-linecap:butt;stroke-linejoin:round;}</style>
 </defs>
 <g id="figure_1">
  <g id="patch_1">
   <path d="M 0 320.22468 
L 512.605156 320.22468 
L 512.605156 0 
L 0 0 
z
" style="fill:none;"/>
  </g>
  <g id="axes_1">
   <g id="patch_2">
    <path d="M 59.005156 279 
L 505.405156 279 
L 505.405156 7.2 
L 59.005156 7.2 
z
" style="fill:#ffffff;"/>
   </g>
   <g id="matplotlib.axis_1">
    <g id="xtick_1">
     <g id="line2d_1">
      <path clip-path="url(#p435544d97c)" d="M 79.296065 279 
L 79.296065 7.2 
" style="fill:none;stroke:#b0b0b0;stroke-linecap:square;stroke-width:0.8;"/>
     </g>
     <g id="line2d_2">
      <defs>
       <path d="M 0 0 
L 0 3.5 
" id="m9c0f8eb2a2" style="stroke:#000000;stroke-width:0.8;"/>
      </defs>
      <g>
       <use style="stroke:#000000;stroke-width:0.8;" x="79.296065" xlink:href="#m9c0f8eb2a2" y="279"/>
      </g>
     </g>
     <g id="text_1">
      <!-- $\mathdefault{0.0}$ -->
      <g transform="translate(71.817245 294.30218)scale(0.12 -0.12)">
       <defs>
        <path d="M 2688 2038 
C 2688 2430 2682 3099 2413 3613 
C 2176 4063 1798 4224 1466 4224 
C 1158 4224 768 4082 525 3620 
C 269 3137 243 2539 243 2038 
C 243 1671 250 1112 448 623 
C 723 -39 1216 -128 1466 -128 
C 1760 -128 2208 -7 2470 604 
C 2662 1048 2688 1568 2688 2038 
z
M 1466 -26 
C 1056 -26 813 328 723 816 
C 653 1196 653 1749 653 2109 
C 653 2604 653 3015 736 3407 
C 858 3954 1216 4121 1466 4121 
C 1728 4121 2067 3947 2189 3420 
C 2272 3054 2278 2623 2278 2109 
C 2278 1691 2278 1176 2202 797 
C 2067 96 1690 -26 1466 -26 
z
" id="CMR17-30" transform="scale(0.015625)"/>
        <path d="M 1178 307 
C 1178 492 1024 620 870 620 
C 685 620 557 467 557 313 
C 557 128 710 0 864 0 
C 1050 0 1178 153 1178 307 
z
" id="CMMI12-3a" transform="scale(0.015625)"/>
       </defs>
       <use transform="scale(0.996264)" xlink:href="#CMR17-30"/>
       <use transform="translate(45.690477 0)scale(0.996264)" xlink:href="#CMMI12-3a"/>
       <use transform="translate(72.787654 0)scale(0.996264)" xlink:href="#CMR17-30"/>
      </g>
     </g>
    </g>
    <g id="xtick_2">
     <g id="line2d_3">
      <path clip-path="url(#p435544d97c)" d="M 160.618535 279 
L 160.618535 7.2 
" style="fill:none;stroke:#b0b0b0;stroke-linecap:square;stroke-width:0.8;"/>
     </g>
     <g id="line2d_4">
      <g>
       <use style="stroke:#000000;stroke-width:0.8;" x="160.618535" xlink:href="#m9c0f8eb2a2" y="279"/>
      </g>
     </g>
     <g id="text_2">
      <!-- $\mathdefault{0.1}$ -->
      <g transform="translate(153.139714 294.30218)scale(0.12 -0.12)">
       <defs>
        <path d="M 1702 4083 
C 1702 4217 1696 4224 1606 4224 
C 1357 3927 979 3833 621 3820 
C 602 3820 570 3820 563 3808 
C 557 3795 557 3782 557 3648 
C 755 3648 1088 3686 1344 3839 
L 1344 467 
C 1344 243 1331 166 781 166 
L 589 166 
L 589 0 
C 896 6 1216 12 1523 12 
C 1830 12 2150 6 2458 0 
L 2458 166 
L 2266 166 
C 1715 166 1702 236 1702 467 
L 1702 4083 
z
" id="CMR17-31" transform="scale(0.015625)"/>
       </defs>
       <use transform="scale(0.996264)" xlink:href="#CMR17-30"/>
       <use transform="translate(45.690477 0)scale(0.996264)" xlink:href="#CMMI12-3a"/>
       <use transform="translate(72.787654 0)scale(0.996264)" xlink:href="#CMR17-31"/>
      </g>
     </g>
    </g>
    <g id="xtick_3">
     <g id="line2d_5">
      <path clip-path="url(#p435544d97c)" d="M 241.941004 279 
L 241.941004 7.2 
" style="fill:none;stroke:#b0b0b0;stroke-linecap:square;stroke-width:0.8;"/>
     </g>
     <g id="line2d_6">
      <g>
       <use style="stroke:#000000;stroke-width:0.8;" x="241.941004" xlink:href="#m9c0f8eb2a2" y="279"/>
      </g>
     </g>
     <g id="text_3">
      <!-- $\mathdefault{0.2}$ -->
      <g transform="translate(234.462183 294.30218)scale(0.12 -0.12)">
       <defs>
        <path d="M 2669 990 
L 2554 990 
C 2490 537 2438 460 2413 422 
C 2381 371 1920 371 1830 371 
L 602 371 
C 832 620 1280 1073 1824 1596 
C 2214 1966 2669 2400 2669 3033 
C 2669 3788 2067 4224 1395 4224 
C 691 4224 262 3603 262 3027 
C 262 2777 448 2745 525 2745 
C 589 2745 781 2783 781 3007 
C 781 3206 614 3264 525 3264 
C 486 3264 448 3257 422 3244 
C 544 3788 915 4057 1306 4057 
C 1862 4057 2227 3616 2227 3033 
C 2227 2477 1901 1998 1536 1583 
L 262 147 
L 262 0 
L 2515 0 
L 2669 990 
z
" id="CMR17-32" transform="scale(0.015625)"/>
       </defs>
       <use transform="scale(0.996264)" xlink:href="#CMR17-30"/>
       <use transform="translate(45.690477 0)scale(0.996264)" xlink:href="#CMMI12-3a"/>
       <use transform="translate(72.787654 0)scale(0.996264)" xlink:href="#CMR17-32"/>
      </g>
     </g>
    </g>
    <g id="xtick_4">
     <g id="line2d_7">
      <path clip-path="url(#p435544d97c)" d="M 323.263473 279 
L 323.263473 7.2 
" style="fill:none;stroke:#b0b0b0;stroke-linecap:square;stroke-width:0.8;"/>
     </g>
     <g id="line2d_8">
      <g>
       <use style="stroke:#000000;stroke-width:0.8;" x="323.263473" xlink:href="#m9c0f8eb2a2" y="279"/>
      </g>
     </g>
     <g id="text_4">
      <!-- $\mathdefault{0.3}$ -->
      <g transform="translate(315.784652 294.30218)scale(0.12 -0.12)">
       <defs>
        <path d="M 1414 2176 
C 1984 2176 2234 1673 2234 1094 
C 2234 322 1824 25 1453 25 
C 1114 25 563 193 390 691 
C 422 678 454 678 486 678 
C 640 678 755 780 755 947 
C 755 1132 614 1216 486 1216 
C 378 1216 211 1164 211 927 
C 211 335 787 -128 1466 -128 
C 2176 -128 2720 432 2720 1087 
C 2720 1718 2208 2176 1600 2246 
C 2086 2347 2554 2776 2554 3353 
C 2554 3856 2048 4224 1472 4224 
C 890 4224 378 3862 378 3347 
C 378 3123 544 3084 627 3084 
C 762 3084 877 3167 877 3334 
C 877 3500 762 3584 627 3584 
C 602 3584 570 3584 544 3571 
C 730 3999 1235 4076 1459 4076 
C 1683 4076 2106 3966 2106 3347 
C 2106 3167 2080 2851 1862 2574 
C 1670 2329 1453 2316 1242 2297 
C 1210 2297 1062 2284 1037 2284 
C 992 2278 966 2272 966 2227 
C 966 2182 973 2176 1101 2176 
L 1414 2176 
z
" id="CMR17-33" transform="scale(0.015625)"/>
       </defs>
       <use transform="scale(0.996264)" xlink:href="#CMR17-30"/>
       <use transform="translate(45.690477 0)scale(0.996264)" xlink:href="#CMMI12-3a"/>
       <use transform="translate(72.787654 0)scale(0.996264)" xlink:href="#CMR17-33"/>
      </g>
     </g>
    </g>
    <g id="xtick_5">
     <g id="line2d_9">
      <path clip-path="url(#p435544d97c)" d="M 404.585943 279 
L 404.585943 7.2 
" style="fill:none;stroke:#b0b0b0;stroke-linecap:square;stroke-width:0.8;"/>
     </g>
     <g id="line2d_10">
      <g>
       <use style="stroke:#000000;stroke-width:0.8;" x="404.585943" xlink:href="#m9c0f8eb2a2" y="279"/>
      </g>
     </g>
     <g id="text_5">
      <!-- $\mathdefault{0.4}$ -->
      <g transform="translate(397.107122 294.30218)scale(0.12 -0.12)">
       <defs>
        <path d="M 2150 4147 
C 2150 4281 2144 4288 2029 4288 
L 128 1254 
L 128 1088 
L 1779 1088 
L 1779 460 
C 1779 230 1766 166 1318 166 
L 1197 166 
L 1197 0 
C 1402 12 1747 12 1965 12 
C 2182 12 2528 12 2733 0 
L 2733 166 
L 2611 166 
C 2163 166 2150 230 2150 460 
L 2150 1088 
L 2803 1088 
L 2803 1254 
L 2150 1254 
L 2150 4147 
z
M 1798 3723 
L 1798 1254 
L 256 1254 
L 1798 3723 
z
" id="CMR17-34" transform="scale(0.015625)"/>
       </defs>
       <use transform="scale(0.996264)" xlink:href="#CMR17-30"/>
       <use transform="translate(45.690477 0)scale(0.996264)" xlink:href="#CMMI12-3a"/>
       <use transform="translate(72.787654 0)scale(0.996264)" xlink:href="#CMR17-34"/>
      </g>
     </g>
    </g>
    <g id="xtick_6">
     <g id="line2d_11">
      <path clip-path="url(#p435544d97c)" d="M 485.908412 279 
L 485.908412 7.2 
" style="fill:none;stroke:#b0b0b0;stroke-linecap:square;stroke-width:0.8;"/>
     </g>
     <g id="line2d_12">
      <g>
       <use style="stroke:#000000;stroke-width:0.8;" x="485.908412" xlink:href="#m9c0f8eb2a2" y="279"/>
      </g>
     </g>
     <g id="text_6">
      <!-- $\mathdefault{0.5}$ -->
      <g transform="translate(478.429591 294.30218)scale(0.12 -0.12)">
       <defs>
        <path d="M 730 3750 
C 794 3724 1056 3641 1325 3641 
C 1920 3641 2246 3961 2432 4140 
C 2432 4191 2432 4224 2394 4224 
C 2387 4224 2374 4224 2323 4198 
C 2099 4102 1837 4032 1517 4032 
C 1325 4032 1037 4055 723 4191 
C 653 4224 640 4224 634 4224 
C 602 4224 595 4217 595 4090 
L 595 2231 
C 595 2113 595 2080 659 2080 
C 691 2080 704 2093 736 2139 
C 941 2435 1222 2560 1542 2560 
C 1766 2560 2246 2415 2246 1293 
C 2246 1087 2246 716 2054 422 
C 1894 159 1645 25 1370 25 
C 947 25 518 319 403 812 
C 429 806 480 793 506 793 
C 589 793 749 838 749 1036 
C 749 1209 627 1280 506 1280 
C 358 1280 262 1190 262 1011 
C 262 454 704 -128 1382 -128 
C 2042 -128 2669 441 2669 1267 
C 2669 2054 2170 2662 1549 2662 
C 1222 2662 947 2540 730 2304 
L 730 3750 
z
" id="CMR17-35" transform="scale(0.015625)"/>
       </defs>
       <use transform="scale(0.996264)" xlink:href="#CMR17-30"/>
       <use transform="translate(45.690477 0)scale(0.996264)" xlink:href="#CMMI12-3a"/>
       <use transform="translate(72.787654 0)scale(0.996264)" xlink:href="#CMR17-35"/>
      </g>
     </g>
    </g>
    <g id="text_7">
     <!-- fréquence réduite -->
     <g transform="translate(230.991492 310.312652)scale(0.14 -0.14)">
      <defs>
       <path d="M 979 2585 
L 1709 2585 
L 1709 2752 
L 966 2752 
L 966 3539 
C 966 4076 1235 4377 1510 4377 
C 1594 4377 1690 4363 1754 4339 
C 1702 4326 1568 4281 1568 4121 
C 1568 3955 1696 3904 1786 3904 
C 1875 3904 2003 3955 2003 4121 
C 2003 4353 1773 4480 1517 4480 
C 1152 4480 653 4211 653 3526 
L 653 2752 
L 141 2752 
L 141 2585 
L 653 2585 
L 653 441 
C 653 198 627 166 218 166 
L 218 0 
C 371 12 666 12 832 12 
C 1018 12 1344 12 1517 0 
L 1517 166 
C 1056 166 979 166 979 454 
L 979 2585 
z
" id="CMR17-66" transform="scale(0.015625)"/>
       <path d="M 960 1517 
C 960 2134 1222 2713 1702 2713 
C 1747 2713 1792 2707 1837 2687 
C 1837 2687 1696 2642 1696 2475 
C 1696 2321 1818 2257 1914 2257 
C 1990 2257 2131 2302 2131 2482 
C 2131 2687 1926 2816 1709 2816 
C 1222 2816 1011 2340 947 2115 
L 941 2115 
L 941 2816 
L 198 2745 
L 198 2578 
C 576 2578 634 2540 634 2231 
L 634 443 
C 634 198 608 166 198 166 
L 198 0 
C 352 12 646 12 813 12 
C 998 12 1325 12 1498 0 
L 1498 166 
C 1037 166 960 166 960 455 
L 960 1517 
z
" id="CMR17-72" transform="scale(0.015625)"/>
       <path d="M 2221 4157 
C 2298 4226 2317 4239 2317 4308 
C 2317 4403 2234 4480 2144 4480 
C 2067 4480 2042 4447 1978 4371 
L 1254 3468 
C 1210 3411 1210 3404 1210 3398 
C 1210 3391 1267 3334 1280 3321 
L 2221 4157 
z
" id="CMR17-13" transform="scale(0.015625)"/>
       <path d="M 2438 1503 
C 2464 1529 2464 1542 2464 1606 
C 2464 2251 2118 2816 1389 2816 
C 710 2816 173 2175 173 1394 
C 173 554 781 -64 1459 -64 
C 2176 -64 2458 619 2458 755 
C 2458 800 2419 800 2406 800 
C 2362 800 2355 787 2330 709 
C 2189 270 1837 51 1504 51 
C 1229 51 954 206 781 490 
C 582 819 582 1200 582 1503 
L 2438 1503 
z
M 589 1600 
C 634 2511 1126 2713 1382 2713 
C 1818 2713 2112 2308 2118 1600 
L 589 1600 
z
" id="CMR17-65" transform="scale(0.015625)"/>
       <path d="M 2630 2816 
L 2528 2816 
L 2336 2177 
C 2189 2519 1920 2816 1491 2816 
C 838 2816 211 2228 211 1376 
C 211 529 800 -64 1440 -64 
C 1933 -64 2208 316 2291 458 
L 2291 -834 
C 2291 -1081 2266 -1114 1856 -1114 
L 1856 -1280 
C 2010 -1268 2291 -1268 2458 -1268 
C 2624 -1268 2912 -1268 3066 -1280 
L 3066 -1114 
C 2656 -1114 2630 -1088 2630 -834 
L 2630 2816 
z
M 2304 871 
C 2304 594 2074 335 2054 316 
C 1856 90 1626 38 1472 38 
C 992 38 621 652 621 1369 
C 621 2125 1043 2700 1536 2700 
C 2048 2700 2304 2112 2304 1776 
L 2304 871 
z
" id="CMR17-71" transform="scale(0.015625)"/>
       <path d="M 1882 2745 
L 1882 2579 
C 2259 2579 2317 2540 2317 2229 
L 2317 1053 
C 2317 510 2029 38 1555 38 
C 1030 38 986 355 986 691 
L 986 2816 
L 211 2745 
L 211 2579 
C 467 2579 640 2579 646 2320 
L 646 1079 
C 646 646 646 368 813 187 
C 896 103 1056 -64 1517 -64 
C 2061 -64 2272 400 2323 536 
L 2330 536 
L 2330 -64 
L 3091 -13 
L 3091 154 
C 2714 154 2656 193 2656 503 
L 2656 2816 
L 1882 2745 
z
" id="CMR17-75" transform="scale(0.015625)"/>
       <path d="M 2656 1954 
C 2656 2282 2592 2816 1837 2816 
C 1331 2816 1069 2424 973 2166 
L 966 2166 
L 966 2816 
L 211 2745 
L 211 2578 
C 589 2578 646 2540 646 2231 
L 646 443 
C 646 198 621 166 211 166 
L 211 0 
C 365 12 646 12 813 12 
C 979 12 1267 12 1421 0 
L 1421 166 
C 1011 166 986 192 986 443 
L 986 1678 
C 986 2269 1344 2713 1792 2713 
C 2266 2713 2317 2289 2317 1980 
L 2317 443 
C 2317 198 2291 166 1882 166 
L 1882 0 
C 2035 12 2317 12 2483 12 
C 2650 12 2938 12 3091 0 
L 3091 166 
C 2682 166 2656 192 2656 443 
L 2656 1954 
z
" id="CMR17-6e" transform="scale(0.015625)"/>
       <path d="M 2234 2240 
C 2112 2240 1933 2240 1933 2015 
C 1933 1836 2080 1785 2163 1785 
C 2208 1785 2394 1804 2394 2028 
C 2394 2476 1958 2816 1466 2816 
C 787 2816 211 2201 211 1379 
C 211 521 813 -64 1466 -64 
C 2259 -64 2458 676 2458 747 
C 2458 773 2451 792 2406 792 
C 2362 792 2355 786 2330 702 
C 2163 180 1798 51 1523 51 
C 1114 51 621 431 621 1385 
C 621 2358 1094 2700 1472 2700 
C 1722 2700 2093 2582 2234 2240 
z
" id="CMR17-63" transform="scale(0.015625)"/>
       <path d="M 1869 4345 
L 1869 4179 
C 2246 4179 2304 4141 2304 3843 
L 2304 2371 
C 2278 2403 2016 2816 1498 2816 
C 845 2816 211 2228 211 1376 
C 211 529 806 -64 1434 -64 
C 1978 -64 2259 361 2291 406 
L 2291 -64 
L 3066 -13 
L 3066 154 
C 2688 154 2630 193 2630 503 
L 2630 4416 
L 1869 4345 
z
M 2291 762 
C 2291 568 2176 393 2029 264 
C 1811 70 1594 38 1472 38 
C 1286 38 621 135 621 1369 
C 621 2636 1363 2713 1530 2713 
C 1824 2713 2061 2545 2208 2313 
C 2291 2177 2291 2157 2291 2041 
L 2291 762 
z
" id="CMR17-64" transform="scale(0.015625)"/>
       <path d="M 992 3961 
C 992 4102 877 4224 730 4224 
C 589 4224 467 4108 467 3961 
C 467 3820 582 3699 730 3699 
C 870 3699 992 3814 992 3961 
z
M 243 2745 
L 243 2579 
C 602 2579 653 2540 653 2231 
L 653 443 
C 653 198 627 166 218 166 
L 218 0 
C 371 12 646 12 806 12 
C 960 12 1222 12 1370 0 
L 1370 166 
C 992 166 979 205 979 436 
L 979 2816 
L 243 2745 
z
" id="CMR17-69" transform="scale(0.015625)"/>
       <path d="M 966 2585 
L 1862 2585 
L 1862 2752 
L 966 2752 
L 966 3968 
L 851 3968 
C 838 3292 614 2700 70 2687 
L 70 2585 
L 627 2585 
L 627 778 
C 627 655 627 -64 1370 -64 
C 1747 -64 1965 308 1965 784 
L 1965 1151 
L 1850 1151 
L 1850 790 
C 1850 347 1677 51 1408 51 
C 1222 51 966 179 966 765 
L 966 2585 
z
" id="CMR17-74" transform="scale(0.015625)"/>
      </defs>
      <use transform="scale(0.996264)" xlink:href="#CMR17-66"/>
      <use transform="translate(27.473512 0)scale(0.996264)" xlink:href="#CMR17-72"/>
      <use transform="translate(60.151872 0)scale(0.996264)" xlink:href="#CMR17-13"/>
      <use transform="translate(62.75428 0)scale(0.996264)" xlink:href="#CMR17-65"/>
      <use transform="translate(103.239941 0)scale(0.996264)" xlink:href="#CMR17-71"/>
      <use transform="translate(151.532857 0)scale(0.996264)" xlink:href="#CMR17-75"/>
      <use transform="translate(202.428226 0)scale(0.996264)" xlink:href="#CMR17-65"/>
      <use transform="translate(242.913887 0)scale(0.996264)" xlink:href="#CMR17-6e"/>
      <use transform="translate(293.809257 0)scale(0.996264)" xlink:href="#CMR17-63"/>
      <use transform="translate(334.294917 0)scale(0.996264)" xlink:href="#CMR17-65"/>
      <use transform="translate(404.856544 0)scale(0.996264)" xlink:href="#CMR17-72"/>
      <use transform="translate(437.534903 0)scale(0.996264)" xlink:href="#CMR17-13"/>
      <use transform="translate(440.137312 0)scale(0.996264)" xlink:href="#CMR17-65"/>
      <use transform="translate(480.622972 0)scale(0.996264)" xlink:href="#CMR17-64"/>
      <use transform="translate(531.518342 0)scale(0.996264)" xlink:href="#CMR17-75"/>
      <use transform="translate(582.413712 0)scale(0.996264)" xlink:href="#CMR17-69"/>
      <use transform="translate(607.28477 0)scale(0.996264)" xlink:href="#CMR17-74"/>
      <use transform="translate(642.565538 0)scale(0.996264)" xlink:href="#CMR17-65"/>
     </g>
    </g>
   </g>
   <g id="matplotlib.axis_2">
    <g id="ytick_1">
     <g id="line2d_13">
      <path clip-path="url(#p435544d97c)" d="M 59.005156 273.48842 
L 505.405156 273.48842 
" style="fill:none;stroke:#b0b0b0;stroke-linecap:square;stroke-width:0.8;"/>
     </g>
     <g id="line2d_14">
      <defs>
       <path d="M 0 0 
L -3.5 0 
" id="mcc551f4be8" style="stroke:#000000;stroke-width:0.8;"/>
      </defs>
      <g>
       <use style="stroke:#000000;stroke-width:0.8;" x="59.005156" xlink:href="#mcc551f4be8" y="273.48842"/>
      </g>
     </g>
     <g id="text_8">
      <!-- $\mathdefault{−160}$ -->
      <g transform="translate(25.147696 277.63951)scale(0.12 -0.12)">
       <defs>
        <path d="M 4218 1472 
C 4326 1472 4442 1472 4442 1600 
C 4442 1728 4326 1728 4218 1728 
L 755 1728 
C 646 1728 531 1728 531 1600 
C 531 1472 646 1472 755 1472 
L 4218 1472 
z
" id="CMSY10-0" transform="scale(0.015625)"/>
        <path d="M 678 2198 
C 678 3712 1395 4076 1811 4076 
C 1946 4076 2272 4049 2400 3782 
C 2298 3782 2106 3782 2106 3558 
C 2106 3385 2246 3328 2336 3328 
C 2394 3328 2566 3353 2566 3571 
C 2566 3987 2246 4224 1805 4224 
C 1043 4224 243 3411 243 2011 
C 243 257 966 -128 1478 -128 
C 2099 -128 2688 431 2688 1295 
C 2688 2101 2170 2688 1517 2688 
C 1126 2688 838 2430 678 1979 
L 678 2198 
z
M 1478 25 
C 691 25 691 1212 691 1450 
C 691 1914 909 2585 1504 2585 
C 1613 2585 1926 2585 2138 2140 
C 2253 1889 2253 1624 2253 1302 
C 2253 954 2253 696 2118 438 
C 1978 173 1773 25 1478 25 
z
" id="CMR17-36" transform="scale(0.015625)"/>
       </defs>
       <use transform="scale(0.996264)" xlink:href="#CMSY10-0"/>
       <use transform="translate(77.487468 0)scale(0.996264)" xlink:href="#CMR17-31"/>
       <use transform="translate(123.177945 0)scale(0.996264)" xlink:href="#CMR17-36"/>
       <use transform="translate(168.868422 0)scale(0.996264)" xlink:href="#CMR17-30"/>
      </g>
     </g>
    </g>
    <g id="ytick_2">
     <g id="line2d_15">
      <path clip-path="url(#p435544d97c)" d="M 59.005156 241.904923 
L 505.405156 241.904923 
" style="fill:none;stroke:#b0b0b0;stroke-linecap:square;stroke-width:0.8;"/>
     </g>
     <g id="line2d_16">
      <g>
       <use style="stroke:#000000;stroke-width:0.8;" x="59.005156" xlink:href="#mcc551f4be8" y="241.904923"/>
      </g>
     </g>
     <g id="text_9">
      <!-- $\mathdefault{−140}$ -->
      <g transform="translate(25.147696 246.056013)scale(0.12 -0.12)">
       <use transform="scale(0.996264)" xlink:href="#CMSY10-0"/>
       <use transform="translate(77.487468 0)scale(0.996264)" xlink:href="#CMR17-31"/>
       <use transform="translate(123.177945 0)scale(0.996264)" xlink:href="#CMR17-34"/>
       <use transform="translate(168.868422 0)scale(0.996264)" xlink:href="#CMR17-30"/>
      </g>
     </g>
    </g>
    <g id="ytick_3">
     <g id="line2d_17">
      <path clip-path="url(#p435544d97c)" d="M 59.005156 210.321426 
L 505.405156 210.321426 
" style="fill:none;stroke:#b0b0b0;stroke-linecap:square;stroke-width:0.8;"/>
     </g>
     <g id="line2d_18">
      <g>
       <use style="stroke:#000000;stroke-width:0.8;" x="59.005156" xlink:href="#mcc551f4be8" y="210.321426"/>
      </g>
     </g>
     <g id="text_10">
      <!-- $\mathdefault{−120}$ -->
      <g transform="translate(25.147696 214.472516)scale(0.12 -0.12)">
       <use transform="scale(0.996264)" xlink:href="#CMSY10-0"/>
       <use transform="translate(77.487468 0)scale(0.996264)" xlink:href="#CMR17-31"/>
       <use transform="translate(123.177945 0)scale(0.996264)" xlink:href="#CMR17-32"/>
       <use transform="translate(168.868422 0)scale(0.996264)" xlink:href="#CMR17-30"/>
      </g>
     </g>
    </g>
    <g id="ytick_4">
     <g id="line2d_19">
      <path clip-path="url(#p435544d97c)" d="M 59.005156 178.737929 
L 505.405156 178.737929 
" style="fill:none;stroke:#b0b0b0;stroke-linecap:square;stroke-width:0.8;"/>
     </g>
     <g id="line2d_20">
      <g>
       <use style="stroke:#000000;stroke-width:0.8;" x="59.005156" xlink:href="#mcc551f4be8" y="178.737929"/>
      </g>
     </g>
     <g id="text_11">
      <!-- $\mathdefault{−100}$ -->
      <g transform="translate(25.147696 182.889019)scale(0.12 -0.12)">
       <use transform="scale(0.996264)" xlink:href="#CMSY10-0"/>
       <use transform="translate(77.487468 0)scale(0.996264)" xlink:href="#CMR17-31"/>
       <use transform="translate(123.177945 0)scale(0.996264)" xlink:href="#CMR17-30"/>
       <use transform="translate(168.868422 0)scale(0.996264)" xlink:href="#CMR17-30"/>
      </g>
     </g>
    </g>
    <g id="ytick_5">
     <g id="line2d_21">
      <path clip-path="url(#p435544d97c)" d="M 59.005156 147.154432 
L 505.405156 147.154432 
" style="fill:none;stroke:#b0b0b0;stroke-linecap:square;stroke-width:0.8;"/>
     </g>
     <g id="line2d_22">
      <g>
       <use style="stroke:#000000;stroke-width:0.8;" x="59.005156" xlink:href="#mcc551f4be8" y="147.154432"/>
      </g>
     </g>
     <g id="text_12">
      <!-- $\mathdefault{−80}$ -->
      <g transform="translate(31.000686 151.305522)scale(0.12 -0.12)">
       <defs>
        <path d="M 1741 2289 
C 2144 2494 2554 2803 2554 3298 
C 2554 3884 1990 4224 1472 4224 
C 890 4224 378 3800 378 3215 
C 378 3054 416 2777 666 2533 
C 730 2469 998 2276 1171 2154 
C 883 2006 211 1652 211 945 
C 211 282 838 -128 1459 -128 
C 2144 -128 2720 366 2720 1022 
C 2720 1607 2330 1877 2074 2051 
L 1741 2289 
z
M 902 2855 
C 851 2887 595 3086 595 3388 
C 595 3781 998 4076 1459 4076 
C 1965 4076 2336 3716 2336 3298 
C 2336 2700 1670 2359 1638 2359 
C 1632 2359 1626 2359 1574 2398 
L 902 2855 
z
M 2080 1536 
C 2176 1466 2483 1253 2483 861 
C 2483 385 2010 25 1472 25 
C 890 25 448 443 448 951 
C 448 1459 838 1884 1280 2083 
L 2080 1536 
z
" id="CMR17-38" transform="scale(0.015625)"/>
       </defs>
       <use transform="scale(0.996264)" xlink:href="#CMSY10-0"/>
       <use transform="translate(77.487468 0)scale(0.996264)" xlink:href="#CMR17-38"/>
       <use transform="translate(123.177945 0)scale(0.996264)" xlink:href="#CMR17-30"/>
      </g>
     </g>
    </g>
    <g id="ytick_6">
     <g id="line2d_23">
      <path clip-path="url(#p435544d97c)" d="M 59.005156 115.570935 
L 505.405156 115.570935 
" style="fill:none;stroke:#b0b0b0;stroke-linecap:square;stroke-width:0.8;"/>
     </g>
     <g id="line2d_24">
      <g>
       <use style="stroke:#000000;stroke-width:0.8;" x="59.005156" xlink:href="#mcc551f4be8" y="115.570935"/>
      </g>
     </g>
     <g id="text_13">
      <!-- $\mathdefault{−60}$ -->
      <g transform="translate(31.000686 119.722025)scale(0.12 -0.12)">
       <use transform="scale(0.996264)" xlink:href="#CMSY10-0"/>
       <use transform="translate(77.487468 0)scale(0.996264)" xlink:href="#CMR17-36"/>
       <use transform="translate(123.177945 0)scale(0.996264)" xlink:href="#CMR17-30"/>
      </g>
     </g>
    </g>
    <g id="ytick_7">
     <g id="line2d_25">
      <path clip-path="url(#p435544d97c)" d="M 59.005156 83.987438 
L 505.405156 83.987438 
" style="fill:none;stroke:#b0b0b0;stroke-linecap:square;stroke-width:0.8;"/>
     </g>
     <g id="line2d_26">
      <g>
       <use style="stroke:#000000;stroke-width:0.8;" x="59.005156" xlink:href="#mcc551f4be8" y="83.987438"/>
      </g>
     </g>
     <g id="text_14">
      <!-- $\mathdefault{−40}$ -->
      <g transform="translate(31.000686 88.138528)scale(0.12 -0.12)">
       <use transform="scale(0.996264)" xlink:href="#CMSY10-0"/>
       <use transform="translate(77.487468 0)scale(0.996264)" xlink:href="#CMR17-34"/>
       <use transform="translate(123.177945 0)scale(0.996264)" xlink:href="#CMR17-30"/>
      </g>
     </g>
    </g>
    <g id="ytick_8">
     <g id="line2d_27">
      <path clip-path="url(#p435544d97c)" d="M 59.005156 52.403941 
L 505.405156 52.403941 
" style="fill:none;stroke:#b0b0b0;stroke-linecap:square;stroke-width:0.8;"/>
     </g>
     <g id="line2d_28">
      <g>
       <use style="stroke:#000000;stroke-width:0.8;" x="59.005156" xlink:href="#mcc551f4be8" y="52.403941"/>
      </g>
     </g>
     <g id="text_15">
      <!-- $\mathdefault{−20}$ -->
      <g transform="translate(31.000686 56.555031)scale(0.12 -0.12)">
       <use transform="scale(0.996264)" xlink:href="#CMSY10-0"/>
       <use transform="translate(77.487468 0)scale(0.996264)" xlink:href="#CMR17-32"/>
       <use transform="translate(123.177945 0)scale(0.996264)" xlink:href="#CMR17-30"/>
      </g>
     </g>
    </g>
    <g id="ytick_9">
     <g id="line2d_29">
      <path clip-path="url(#p435544d97c)" d="M 59.005156 20.820444 
L 505.405156 20.820444 
" style="fill:none;stroke:#b0b0b0;stroke-linecap:square;stroke-width:0.8;"/>
     </g>
     <g id="line2d_30">
      <g>
       <use style="stroke:#000000;stroke-width:0.8;" x="59.005156" xlink:href="#mcc551f4be8" y="20.820444"/>
      </g>
     </g>
     <g id="text_16">
      <!-- $\mathdefault{0}$ -->
      <g transform="translate(46.152166 24.971534)scale(0.12 -0.12)">
       <use transform="scale(0.996264)" xlink:href="#CMR17-30"/>
      </g>
     </g>
    </g>
    <g id="text_17">
     <!-- $20 \log_{10}(|H(f)|)$ -->
     <g transform="translate(17.660772 189.980609)rotate(-90)scale(0.14 -0.14)">
      <defs>
       <path d="M 979 4416 
L 218 4345 
L 218 4179 
C 595 4179 653 4141 653 3835 
L 653 439 
C 653 198 627 166 218 166 
L 218 0 
C 371 12 653 12 813 12 
C 979 12 1261 12 1414 0 
L 1414 166 
C 1005 166 979 191 979 439 
L 979 4416 
z
" id="CMR17-6c" transform="scale(0.015625)"/>
       <path d="M 2758 1356 
C 2758 2176 2163 2816 1466 2816 
C 768 2816 173 2176 173 1356 
C 173 550 768 -64 1466 -64 
C 2163 -64 2758 550 2758 1356 
z
M 1466 51 
C 1165 51 909 230 762 480 
C 602 768 582 1126 582 1408 
C 582 1676 595 2009 762 2297 
C 890 2508 1139 2713 1466 2713 
C 1754 2713 1997 2553 2150 2329 
C 2349 2028 2349 1606 2349 1408 
C 2349 1158 2336 774 2163 467 
C 1984 172 1709 51 1466 51 
z
" id="CMR17-6f" transform="scale(0.015625)"/>
       <path d="M 710 1165 
C 832 1068 1043 960 1299 960 
C 1805 960 2240 1359 2240 1895 
C 2240 2063 2189 2321 1997 2521 
C 2176 2713 2438 2777 2586 2777 
C 2611 2777 2650 2777 2682 2758 
C 2656 2751 2598 2726 2598 2623 
C 2598 2540 2656 2483 2739 2483 
C 2835 2483 2886 2547 2886 2630 
C 2886 2751 2790 2880 2586 2880 
C 2330 2880 2106 2758 1926 2591 
C 1734 2764 1504 2828 1299 2828 
C 794 2828 358 2431 358 1895 
C 358 1527 570 1294 634 1230 
C 442 1004 442 742 442 710 
C 442 544 506 300 723 166 
C 390 82 128 -184 128 -517 
C 128 -996 736 -1344 1466 -1344 
C 2170 -1344 2803 -1009 2803 -510 
C 2803 384 1856 384 1363 384 
C 1216 384 954 384 922 390 
C 723 422 589 601 589 825 
C 589 883 589 1024 710 1165 
z
M 1299 1068 
C 736 1068 736 1766 736 1895 
C 736 2024 736 2719 1299 2719 
C 1862 2719 1862 2024 1862 1895 
C 1862 1766 1862 1068 1299 1068 
z
M 1466 -1236 
C 826 -1236 384 -883 384 -517 
C 384 -311 493 -118 634 -11 
C 794 102 858 102 1293 102 
C 1818 102 2547 102 2547 -517 
C 2547 -883 2106 -1236 1466 -1236 
z
" id="CMR17-67" transform="scale(0.015625)"/>
       <path d="M 1958 -1562 
C 1958 -1556 1958 -1543 1939 -1524 
C 1645 -1223 858 -403 858 1596 
C 858 3595 1632 4408 1946 4729 
C 1946 4735 1958 4748 1958 4767 
C 1958 4787 1939 4800 1914 4800 
C 1843 4800 1299 4325 986 3620 
C 666 2909 576 2218 576 1603 
C 576 1141 621 360 1005 -467 
C 1312 -1133 1837 -1600 1914 -1600 
C 1946 -1600 1958 -1588 1958 -1562 
z
" id="CMR17-28" transform="scale(0.015625)"/>
       <path d="M 1018 4569 
C 1018 4684 1018 4800 890 4800 
C 762 4800 762 4684 762 4569 
L 762 -1370 
C 762 -1485 762 -1600 890 -1600 
C 1018 -1600 1018 -1485 1018 -1370 
L 1018 4569 
z
" id="CMSY10-6a" transform="scale(0.015625)"/>
       <path d="M 4787 3886 
C 4845 4102 4858 4166 5312 4166 
C 5427 4166 5491 4166 5491 4281 
C 5491 4352 5434 4352 5395 4352 
C 5280 4352 5146 4339 5024 4339 
L 4269 4339 
C 4147 4339 4013 4352 3891 4352 
C 3846 4352 3770 4352 3770 4230 
C 3770 4166 3814 4166 3936 4166 
C 4320 4166 4320 4115 4320 4045 
C 4320 4032 4320 3994 4294 3899 
L 3904 2361 
L 1971 2361 
L 2355 3886 
C 2413 4102 2426 4166 2880 4166 
C 2995 4166 3059 4166 3059 4281 
C 3059 4352 3002 4352 2963 4352 
C 2848 4352 2714 4339 2592 4339 
L 1837 4339 
C 1715 4339 1581 4352 1459 4352 
C 1414 4352 1338 4352 1338 4230 
C 1338 4166 1382 4166 1504 4166 
C 1888 4166 1888 4115 1888 4045 
C 1888 4032 1888 3994 1862 3899 
L 998 472 
C 941 249 928 185 486 185 
C 339 185 294 185 294 64 
C 294 0 365 0 384 0 
C 499 0 634 12 755 12 
L 1510 12 
C 1632 12 1766 0 1888 0 
C 1939 0 2010 0 2010 121 
C 2010 185 1952 185 1856 185 
C 1466 185 1466 236 1466 300 
C 1466 306 1466 351 1478 402 
L 1920 2176 
L 3859 2176 
C 3750 1755 3424 421 3411 383 
C 3341 191 3238 191 2861 185 
C 2784 185 2726 185 2726 64 
C 2726 0 2797 0 2816 0 
C 2931 0 3066 12 3187 12 
L 3942 12 
C 4064 12 4198 0 4320 0 
C 4371 0 4442 0 4442 121 
C 4442 185 4384 185 4288 185 
C 3898 185 3898 236 3898 300 
C 3898 306 3898 351 3910 402 
L 4787 3886 
z
" id="CMMI12-48" transform="scale(0.015625)"/>
       <path d="M 2854 2566 
C 2982 2566 3034 2566 3034 2687 
C 3034 2752 2982 2752 2867 2752 
L 2349 2752 
C 2470 3398 2560 3846 2611 4051 
C 2650 4204 2784 4351 2950 4351 
C 3085 4351 3219 4294 3283 4236 
C 3034 4211 2957 4025 2957 3916 
C 2957 3788 3053 3712 3174 3712 
C 3302 3712 3494 3820 3494 4064 
C 3494 4332 3226 4480 2944 4480 
C 2669 4480 2400 4275 2272 4025 
C 2157 3801 2093 3573 1946 2752 
L 1517 2752 
C 1395 2752 1331 2752 1331 2636 
C 1331 2566 1370 2566 1498 2566 
L 1907 2566 
C 1792 1977 1530 545 1382 -132 
C 1274 -685 1178 -1152 858 -1152 
C 838 -1152 653 -1152 538 -1031 
C 864 -1005 864 -724 864 -717 
C 864 -589 768 -512 646 -512 
C 518 -512 326 -621 326 -865 
C 326 -1140 608 -1280 858 -1280 
C 1510 -1280 1779 -113 1850 203 
C 1965 691 2278 2376 2310 2566 
L 2854 2566 
z
" id="CMMI12-66" transform="scale(0.015625)"/>
       <path d="M 1683 1596 
C 1683 2057 1638 2839 1254 3665 
C 947 4332 422 4800 346 4800 
C 326 4800 301 4793 301 4761 
C 301 4748 307 4742 314 4729 
C 621 4408 1402 3595 1402 1603 
C 1402 -396 627 -1210 314 -1530 
C 307 -1543 301 -1549 301 -1562 
C 301 -1594 326 -1600 346 -1600 
C 416 -1600 960 -1127 1274 -422 
C 1594 289 1683 981 1683 1596 
z
" id="CMR17-29" transform="scale(0.015625)"/>
      </defs>
      <use transform="scale(0.996264)" xlink:href="#CMR17-32"/>
      <use transform="translate(45.690477 0)scale(0.996264)" xlink:href="#CMR17-30"/>
      <use transform="translate(107.985359 0)scale(0.996264)" xlink:href="#CMR17-6c"/>
      <use transform="translate(132.856418 0)scale(0.996264)" xlink:href="#CMR17-6f"/>
      <use transform="translate(178.546895 0)scale(0.996264)" xlink:href="#CMR17-67"/>
      <use transform="translate(225.538538 -22.865092)scale(0.697382)" xlink:href="#CMR17-31"/>
      <use transform="translate(257.52172 -22.865092)scale(0.697382)" xlink:href="#CMR17-30"/>
      <use transform="translate(290.003034 0)scale(0.996264)" xlink:href="#CMR17-28"/>
      <use transform="translate(325.283802 0)scale(0.996264)" xlink:href="#CMSY10-6a"/>
      <use transform="translate(352.957887 0)scale(0.996264)" xlink:href="#CMMI12-48"/>
      <use transform="translate(441.479659 0)scale(0.996264)" xlink:href="#CMR17-28"/>
      <use transform="translate(476.760427 0)scale(0.996264)" xlink:href="#CMMI12-66"/>
      <use transform="translate(535.480732 0)scale(0.996264)" xlink:href="#CMR17-29"/>
      <use transform="translate(570.7615 0)scale(0.996264)" xlink:href="#CMSY10-6a"/>
      <use transform="translate(598.435585 0)scale(0.996264)" xlink:href="#CMR17-29"/>
     </g>
    </g>
   </g>
   <g id="line2d_31">
    <path clip-path="url(#p435544d97c)" d="M 79.296065 21.426454 
L 87.237713 21.312203 
L 97.561854 20.904586 
L 112.650984 20.293989 
L 120.592632 20.200094 
L 128.534279 20.333883 
L 138.064256 20.749941 
L 155.53588 21.58066 
L 161.889198 21.64141 
L 168.242516 21.490506 
L 175.389999 21.089232 
L 197.626612 19.605231 
L 203.185765 19.569278 
L 207.950753 19.752058 
L 212.715742 20.171327 
L 216.686565 20.727551 
L 220.657389 21.494991 
L 224.628213 22.49752 
L 228.599036 23.762802 
L 231.775695 24.986655 
L 234.952354 26.421735 
L 238.129013 28.095361 
L 241.305672 30.043339 
L 244.482331 32.314478 
L 246.864825 34.270697 
L 249.24732 36.488728 
L 251.629814 39.027435 
L 254.012308 41.974712 
L 255.600638 44.232538 
L 257.188967 46.796467 
L 258.777297 49.76442 
L 260.365626 53.2977 
L 261.953955 57.691974 
L 262.74812 60.385414 
L 263.542285 63.588149 
L 264.33645 67.567546 
L 265.130614 72.887067 
L 265.924779 81.119024 
L 266.718944 101.95649 
L 268.307273 78.406431 
L 269.101438 72.496983 
L 269.895603 68.60784 
L 270.689768 65.766043 
L 271.483932 63.569973 
L 272.278097 61.814606 
L 273.072262 60.38114 
L 274.660591 58.204872 
L 276.248921 56.684204 
L 277.83725 55.635141 
L 279.42558 54.952002 
L 281.013909 54.570179 
L 282.602239 54.44914 
L 284.190568 54.56391 
L 285.778898 54.900606 
L 287.367227 55.454203 
L 288.955557 56.22771 
L 290.543886 57.232513 
L 292.132216 58.48998 
L 293.720545 60.034874 
L 295.308875 61.921872 
L 296.897204 64.238259 
L 298.485533 67.130497 
L 300.073863 70.867232 
L 300.868028 73.208075 
L 301.662192 76.020954 
L 302.456357 79.534283 
L 303.250522 84.208443 
L 304.044687 91.219819 
L 304.838851 105.828687 
L 305.633016 107.894312 
L 306.427181 92.33892 
L 307.221346 85.397643 
L 308.01551 80.938517 
L 308.809675 77.688563 
L 309.60384 75.161077 
L 310.398005 73.117526 
L 311.192169 71.423161 
L 312.780499 68.775992 
L 314.368828 66.826697 
L 315.957158 65.375514 
L 317.545487 64.308168 
L 319.133817 63.554468 
L 320.722146 63.069643 
L 322.310476 62.825011 
L 323.898805 62.803029 
L 325.487135 62.994653 
L 327.075464 63.39808 
L 328.663794 64.018507 
L 330.252123 64.868803 
L 331.840453 65.971323 
L 333.428782 67.361438 
L 335.017111 69.094105 
L 336.605441 71.256533 
L 338.19377 73.994569 
L 338.987935 75.654806 
L 339.7821 77.575107 
L 340.576265 79.835786 
L 341.370429 82.565465 
L 342.164594 85.98955 
L 342.958759 90.560679 
L 343.752924 97.42745 
L 344.547088 111.618506 
L 345.341253 114.799128 
L 346.135418 98.731374 
L 346.929583 91.639927 
L 347.723747 87.078699 
L 348.517912 83.742648 
L 349.312077 81.136507 
L 350.106242 79.018476 
L 351.694571 75.753562 
L 353.2829 73.352277 
L 354.87123 71.537494 
L 356.459559 70.158716 
L 358.047889 69.12626 
L 359.636218 68.383657 
L 361.224548 67.894469 
L 362.812877 67.635467 
L 364.401207 67.592937 
L 365.989536 67.760744 
L 367.577866 68.139529 
L 369.166195 68.736778 
L 370.754525 69.567821 
L 372.342854 70.658016 
L 373.931184 72.046886 
L 375.519513 73.795778 
L 377.107843 76.00285 
L 378.696172 78.835068 
L 379.490337 80.573803 
L 380.284502 82.606857 
L 381.078666 85.033921 
L 381.872831 88.020999 
L 382.666996 91.8762 
L 383.461161 97.279178 
L 384.255325 106.314737 
L 385.04949 142.475672 
L 385.843655 108.554336 
L 386.63782 98.563877 
L 387.431984 92.917459 
L 388.226149 88.996119 
L 389.020314 86.013757 
L 389.814479 83.626812 
L 390.608643 81.654092 
L 392.196973 78.560714 
L 393.785302 76.247039 
L 395.373632 74.476198 
L 396.961961 73.116059 
L 398.550291 72.086559 
L 400.13862 71.336798 
L 401.72695 70.833838 
L 403.315279 70.556816 
L 404.903609 70.493748 
L 406.491938 70.639885 
L 408.080268 70.997094 
L 409.668597 71.574097 
L 411.256926 72.38763 
L 412.845256 73.464868 
L 414.433585 74.847937 
L 416.021915 76.602325 
L 417.610244 78.83346 
L 419.198574 81.722733 
L 419.992739 83.511378 
L 420.786903 85.618245 
L 421.581068 88.157585 
L 422.375233 91.324772 
L 423.169398 95.497399 
L 423.963562 101.568953 
L 424.757727 112.768597 
L 425.551892 131.214369 
L 426.346057 107.074908 
L 427.140221 98.85747 
L 427.934386 93.809026 
L 428.728551 90.180788 
L 429.522715 87.36759 
L 430.31688 85.087289 
L 431.90521 81.567757 
L 433.493539 78.960047 
L 435.081869 76.963601 
L 436.670198 75.417467 
L 438.258528 74.226513 
L 439.846857 73.331061 
L 441.435187 72.692575 
L 443.023516 72.286282 
L 444.611846 72.097197 
L 446.200175 72.117998 
L 447.788504 72.348064 
L 449.376834 72.793399 
L 450.965163 73.467404 
L 452.553493 74.392749 
L 454.141822 75.604909 
L 455.730152 77.158702 
L 457.318481 79.140825 
L 458.906811 81.69592 
L 459.700976 83.262919 
L 460.49514 85.08799 
L 461.289305 87.25028 
L 462.08347 89.876213 
L 462.877635 93.186533 
L 463.671799 97.621953 
L 464.465964 104.288822 
L 465.260129 117.878434 
L 466.054293 122.878521 
L 466.848458 105.961791 
L 467.642623 98.651867 
L 468.436788 93.950837 
L 469.230952 90.500471 
L 470.025117 87.791515 
L 470.819282 85.576884 
L 472.407611 82.128786 
L 473.995941 79.551535 
L 475.58427 77.564726 
L 477.1726 76.016328 
L 478.760929 74.815793 
L 480.349259 73.906068 
L 481.937588 73.250256 
L 483.525918 72.824703 
L 485.114247 72.61525 
L 485.114247 72.61525 
" style="fill:none;stroke:#1f77b4;stroke-linecap:square;stroke-width:1.5;"/>
   </g>
   <g id="line2d_32">
    <path clip-path="url(#p435544d97c)" d="M 79.296065 20.848323 
L 180.949152 20.948897 
L 190.479129 21.246506 
L 198.420776 21.702225 
L 205.568259 22.327756 
L 211.921577 23.092689 
L 218.274895 24.086728 
L 223.834048 25.168891 
L 229.393201 26.471375 
L 234.952354 28.016039 
L 239.717343 29.55037 
L 244.482331 31.295607 
L 249.24732 33.269396 
L 254.012308 35.491768 
L 258.777297 37.986031 
L 262.74812 40.292168 
L 266.718944 42.825632 
L 270.689768 45.609758 
L 274.660591 48.673379 
L 278.631415 52.053065 
L 281.808074 55.016032 
L 284.984733 58.243634 
L 288.161392 61.778076 
L 291.338051 65.677088 
L 293.720545 68.889078 
L 296.103039 72.401693 
L 298.485533 76.286389 
L 300.868028 80.652034 
L 302.456357 83.913653 
L 304.044687 87.550838 
L 305.633016 91.699014 
L 307.221346 96.596015 
L 308.809675 102.723565 
L 309.60384 106.570044 
L 310.398005 111.330675 
L 311.192169 117.759437 
L 311.986334 128.305581 
L 312.780499 175.292705 
L 313.574664 129.040121 
L 314.368828 120.603134 
L 315.162993 115.979113 
L 315.957158 112.948486 
L 316.751322 110.803588 
L 317.545487 109.226866 
L 318.339652 108.048255 
L 319.133817 107.166007 
L 319.927981 106.514406 
L 320.722146 106.048543 
L 321.516311 105.736358 
L 323.10464 105.483872 
L 324.69297 105.625575 
L 326.281299 106.078357 
L 327.869629 106.784702 
L 329.457958 107.70097 
L 331.840453 109.389405 
L 335.017111 112.042214 
L 340.576265 116.816512 
L 342.164594 117.944612 
L 343.752924 118.862355 
L 345.341253 119.52789 
L 346.929583 119.921399 
L 348.517912 120.049351 
L 350.106242 119.942852 
L 352.488736 119.4532 
L 356.459559 118.23623 
L 359.636218 117.352799 
L 362.018713 116.93627 
L 363.607042 116.826459 
L 365.195372 116.878378 
L 366.783701 117.115883 
L 368.372031 117.565947 
L 369.96036 118.261981 
L 371.54869 119.248694 
L 373.137019 120.590094 
L 374.725348 122.384232 
L 376.313678 124.793815 
L 377.107843 126.314096 
L 377.902007 128.119938 
L 378.696172 130.304949 
L 379.490337 133.023066 
L 380.284502 136.554882 
L 381.078666 141.501089 
L 381.872831 149.591134 
L 382.666996 173.192159 
L 383.461161 155.367998 
L 384.255325 144.00775 
L 385.04949 137.836952 
L 385.843655 133.579353 
L 386.63782 130.333667 
L 387.431984 127.719849 
L 389.020314 123.68375 
L 390.608643 120.662329 
L 392.196973 118.305711 
L 393.785302 116.431245 
L 395.373632 114.932351 
L 396.961961 113.742345 
L 398.550291 112.817767 
L 400.13862 112.129891 
L 401.72695 111.660113 
L 403.315279 111.3974 
L 404.903609 111.336924 
L 406.491938 111.47953 
L 408.080268 111.831868 
L 409.668597 112.407231 
L 411.256926 113.227331 
L 412.845256 114.325553 
L 414.433585 115.75281 
L 416.021915 117.588596 
L 417.610244 119.963439 
L 418.404409 121.419143 
L 419.198574 123.110286 
L 419.992739 125.104075 
L 420.786903 127.504992 
L 421.581068 130.488561 
L 422.375233 134.384971 
L 423.169398 139.939502 
L 423.963562 149.558369 
L 424.757727 201.826057 
L 425.551892 148.9385 
L 426.346057 139.589691 
L 427.140221 134.107419 
L 427.934386 130.233828 
L 428.728551 127.253301 
L 429.522715 124.845538 
L 431.111045 121.132085 
L 432.699374 118.371995 
L 434.287704 116.244419 
L 435.876033 114.579462 
L 437.464363 113.277317 
L 439.052692 112.275499 
L 440.641022 111.533553 
L 442.229351 111.025207 
L 443.817681 110.734138 
L 445.40601 110.651666 
L 446.99434 110.775632 
L 448.582669 111.110134 
L 450.170999 111.666052 
L 451.759328 112.462485 
L 453.347658 113.52957 
L 454.935987 114.913617 
L 456.524317 116.686738 
L 458.112646 118.966114 
L 459.700976 121.956892 
L 460.49514 123.831487 
L 461.289305 126.064578 
L 462.08347 128.796764 
L 462.877635 132.279224 
L 463.671799 137.032118 
L 464.465964 144.455796 
L 465.260129 162.014663 
L 466.054293 155.556687 
L 466.848458 142.340033 
L 467.642623 135.766899 
L 468.436788 131.37864 
L 469.230952 128.099368 
L 470.025117 125.497078 
L 470.819282 123.354459 
L 472.407611 119.995539 
L 473.995941 117.469457 
L 475.58427 115.514354 
L 477.1726 113.986494 
L 478.760929 112.79957 
L 480.349259 111.898896 
L 481.937588 111.248964 
L 483.525918 110.826946 
L 485.114247 110.619153 
L 485.114247 110.619153 
" style="fill:none;stroke:#ff7f0e;stroke-linecap:square;stroke-width:1.5;"/>
   </g>
   <g id="line2d_33">
    <path clip-path="url(#p435544d97c)" d="M 79.296065 20.815815 
L 157.12421 20.925927 
L 171.419175 21.181976 
L 182.537482 21.588226 
L 192.067458 22.145291 
L 200.803271 22.872389 
L 208.744918 23.748539 
L 216.686565 24.861346 
L 223.834048 26.090571 
L 230.981531 27.558855 
L 237.334849 29.083258 
L 243.688166 30.831464 
L 250.041484 32.82118 
L 255.600638 34.775251 
L 261.159791 36.942778 
L 266.718944 39.339204 
L 272.278097 41.981878 
L 277.83725 44.890612 
L 282.602239 47.612884 
L 287.367227 50.564257 
L 292.132216 53.764309 
L 296.897204 57.236111 
L 301.662192 61.007195 
L 305.633016 64.402178 
L 309.60384 68.051105 
L 313.574664 71.981627 
L 317.545487 76.227102 
L 321.516311 80.828095 
L 325.487135 85.834184 
L 328.663794 90.170961 
L 331.840453 94.841952 
L 335.017111 99.887972 
L 338.19377 105.350921 
L 341.370429 111.263735 
L 344.547088 117.623564 
L 353.2829 135.636542 
L 354.87123 138.255682 
L 356.459559 140.366799 
L 358.047889 141.900291 
L 359.636218 142.871972 
L 361.224548 143.379341 
L 362.812877 143.567577 
L 368.372031 143.72811 
L 369.96036 144.053443 
L 371.54869 144.6356 
L 373.137019 145.539966 
L 374.725348 146.846581 
L 376.313678 148.670849 
L 377.107843 149.831894 
L 377.902007 151.203753 
L 378.696172 152.837675 
L 379.490337 154.810077 
L 380.284502 157.242325 
L 381.078666 160.344649 
L 381.872831 164.531544 
L 382.666996 170.819307 
L 383.461161 183.237003 
L 384.255325 192.749423 
L 385.04949 173.59919 
L 385.843655 165.858885 
L 386.63782 160.930462 
L 387.431984 157.320412 
L 388.226149 154.484741 
L 389.020314 152.163243 
L 390.608643 148.539113 
L 392.196973 145.819623 
L 393.785302 143.71449 
L 395.373632 142.06605 
L 396.961961 140.779761 
L 398.550291 139.795291 
L 400.13862 139.072745 
L 401.72695 138.5855 
L 403.315279 138.316262 
L 404.903609 138.254874 
L 406.491938 138.397175 
L 408.080268 138.744622 
L 409.668597 139.304542 
L 411.256926 140.091119 
L 412.845256 141.127363 
L 414.433585 142.448667 
L 416.021915 144.109267 
L 417.610244 146.194502 
L 419.198574 148.846148 
L 419.992739 150.457201 
L 420.786903 152.321713 
L 421.581068 154.516273 
L 422.375233 157.162544 
L 423.169398 160.471256 
L 423.963562 164.857873 
L 424.757727 171.341435 
L 425.551892 183.968619 
L 426.346057 193.513555 
L 427.140221 174.601345 
L 427.934386 167.031721 
L 428.728551 162.261636 
L 429.522715 158.80209 
L 430.31688 156.110441 
L 431.111045 153.927173 
L 432.699374 150.56394 
L 434.287704 148.086983 
L 435.876033 146.208556 
L 437.464363 144.773388 
L 439.052692 143.689309 
L 440.641022 142.898408 
L 442.229351 142.363349 
L 443.817681 142.060311 
L 445.40601 141.975183 
L 446.99434 142.101572 
L 448.582669 142.439965 
L 450.170999 142.997802 
L 451.759328 143.790482 
L 453.347658 144.843596 
L 454.935987 146.197141 
L 456.524317 147.913367 
L 458.112646 150.09216 
L 459.700976 152.90405 
L 460.49514 154.637851 
L 461.289305 156.671862 
L 462.08347 159.109376 
L 462.877635 162.123567 
L 463.671799 166.039165 
L 464.465964 171.585056 
L 465.260129 181.084884 
L 466.054293 266.645455 
L 466.848458 181.200558 
L 467.642623 171.735697 
L 468.436788 166.242705 
L 469.230952 162.384488 
L 470.025117 159.429468 
L 470.819282 157.052018 
L 471.613447 155.07858 
L 473.201776 151.966648 
L 474.790106 149.621865 
L 476.378435 147.813128 
L 477.966765 146.411126 
L 479.555094 145.337448 
L 481.143424 144.542348 
L 482.731753 143.993848 
L 484.320082 143.672017 
L 485.114247 143.592379 
L 485.114247 143.592379 
" style="fill:none;stroke:#2ca02c;stroke-linecap:square;stroke-width:1.5;"/>
   </g>
   <g id="line2d_34">
    <path clip-path="url(#p435544d97c)" d="M 79.296065 20.838539 
L 185.71414 20.935842 
L 194.449953 21.257618 
L 201.597435 21.726813 
L 207.950753 22.343262 
L 214.304071 23.183989 
L 219.863224 24.131104 
L 225.422377 25.300405 
L 230.981531 26.716407 
L 235.746519 28.146229 
L 240.511508 29.794469 
L 245.276496 31.681268 
L 250.041484 33.829802 
L 254.012308 35.839817 
L 257.983132 38.069517 
L 261.953955 40.541758 
L 265.924779 43.284725 
L 269.895603 46.334081 
L 273.072262 49.024937 
L 276.248921 51.972349 
L 279.42558 55.216869 
L 282.602239 58.813415 
L 284.984733 61.787347 
L 287.367227 65.048115 
L 289.749721 68.660219 
L 292.132216 72.719247 
L 294.51471 77.377227 
L 296.103039 80.938986 
L 297.691369 85.015007 
L 299.279698 89.839018 
L 300.868028 95.878881 
L 301.662192 99.662715 
L 302.456357 104.32589 
L 303.250522 110.562914 
L 304.044687 120.525638 
L 304.838851 161.793974 
L 305.633016 123.752583 
L 306.427181 114.737035 
L 307.221346 109.95961 
L 308.01551 106.889905 
L 308.809675 104.759879 
L 309.60384 103.233088 
L 310.398005 102.132555 
L 311.192169 101.354306 
L 311.986334 100.832689 
L 312.780499 100.524243 
L 313.574664 100.399387 
L 314.368828 100.437816 
L 315.162993 100.625819 
L 315.957158 100.954697 
L 316.751322 101.419836 
L 318.339652 102.75844 
L 319.927981 104.677484 
L 321.516311 107.28614 
L 322.310476 108.914977 
L 323.10464 110.821069 
L 323.898805 113.080162 
L 324.69297 115.81428 
L 325.487135 119.236932 
L 326.281299 123.772837 
L 327.075464 130.475747 
L 327.869629 143.646936 
L 328.663794 151.395603 
L 329.457958 133.576934 
L 330.252123 126.316816 
L 331.046288 121.784981 
L 331.840453 118.549485 
L 332.634617 116.081982 
L 333.428782 114.128234 
L 334.222947 112.546286 
L 335.017111 111.248881 
L 335.811276 110.178663 
L 337.399606 108.57268 
L 338.987935 107.525609 
L 340.576265 106.925236 
L 342.164594 106.707136 
L 343.752924 106.836106 
L 345.341253 107.297812 
L 346.929583 108.095791 
L 348.517912 109.252332 
L 350.106242 110.813659 
L 351.694571 112.862185 
L 353.2829 115.543832 
L 354.077065 117.199656 
L 354.87123 119.134566 
L 355.665395 121.433943 
L 356.459559 124.236434 
L 357.253724 127.78946 
L 358.047889 132.603756 
L 358.842054 140.044074 
L 359.636218 157.181194 
L 360.430383 152.070767 
L 361.224548 138.67603 
L 362.018713 132.163666 
L 362.812877 127.881552 
L 363.607042 124.728369 
L 364.401207 122.264844 
L 365.195372 120.270835 
L 365.989536 118.620252 
L 367.577866 116.060095 
L 369.166195 114.211113 
L 370.754525 112.882842 
L 372.342854 111.967196 
L 373.931184 111.399501 
L 375.519513 111.141014 
L 377.107843 111.170458 
L 378.696172 111.480009 
L 380.284502 112.073957 
L 381.872831 112.969497 
L 383.461161 114.199973 
L 385.04949 115.82197 
L 386.63782 117.929871 
L 388.226149 120.687526 
L 389.020314 122.397311 
L 389.814479 124.406454 
L 390.608643 126.814143 
L 391.402808 129.785598 
L 392.196973 133.627371 
L 392.991137 139.01486 
L 393.785302 148.013326 
L 394.579467 183.132656 
L 395.373632 150.458866 
L 396.167796 140.434248 
L 396.961961 134.793884 
L 397.756126 130.891573 
L 398.550291 127.93614 
L 399.344455 125.582405 
L 400.13862 123.648532 
L 401.72695 120.648845 
L 403.315279 118.45001 
L 404.903609 116.815902 
L 406.491938 115.615891 
L 408.080268 114.772143 
L 409.668597 114.236831 
L 411.256926 113.981184 
L 412.845256 113.989986 
L 414.433585 114.258991 
L 416.021915 114.79426 
L 417.610244 115.613157 
L 419.198574 116.747392 
L 420.786903 118.249308 
L 422.375233 120.204456 
L 423.963562 122.758163 
L 424.757727 124.33516 
L 425.551892 126.178761 
L 426.346057 128.370276 
L 427.140221 131.040329 
L 427.934386 134.418726 
L 428.728551 138.969583 
L 429.522715 145.883009 
L 430.31688 160.53718 
L 431.111045 161.906593 
L 431.90521 146.435257 
L 432.699374 139.416152 
L 433.493539 134.861043 
L 434.287704 131.512082 
L 435.081869 128.886648 
L 435.876033 126.747787 
L 437.464363 123.444712 
L 439.052692 121.016101 
L 440.641022 119.188729 
L 442.229351 117.814727 
L 443.817681 116.806853 
L 445.40601 116.111354 
L 446.99434 115.695128 
L 448.582669 115.539232 
L 450.170999 115.63565 
L 451.759328 115.986037 
L 453.347658 116.601977 
L 454.935987 117.506859 
L 456.524317 118.740065 
L 458.112646 120.365203 
L 459.700976 122.486701 
L 461.289305 125.286151 
L 462.08347 127.037975 
L 462.877635 129.114351 
L 463.671799 131.631099 
L 464.465964 134.786931 
L 465.260129 138.967698 
L 466.054293 145.09386 
L 466.848458 156.560467 
L 467.642623 172.655641 
L 468.436788 149.98541 
L 469.230952 141.902811 
L 470.025117 136.900718 
L 470.819282 133.295662 
L 471.613447 130.497796 
L 472.407611 128.230482 
L 473.995941 124.738723 
L 475.58427 122.167698 
L 477.1726 120.22086 
L 478.760929 118.739907 
L 480.349259 117.632127 
L 481.937588 116.840503 
L 483.525918 116.329721 
L 485.114247 116.079118 
L 485.114247 116.079118 
" style="fill:none;stroke:#d62728;stroke-linecap:square;stroke-width:1.5;"/>
   </g>
   <g id="patch_3">
    <path d="M 59.005156 279 
L 59.005156 7.2 
" style="fill:none;stroke:#000000;stroke-linecap:square;stroke-linejoin:miter;stroke-width:0.8;"/>
   </g>
   <g id="patch_4">
    <path d="M 505.405156 279 
L 505.405156 7.2 
" style="fill:none;stroke:#000000;stroke-linecap:square;stroke-linejoin:miter;stroke-width:0.8;"/>
   </g>
   <g id="patch_5">
    <path d="M 59.005156 279 
L 505.405156 279 
" style="fill:none;stroke:#000000;stroke-linecap:square;stroke-linejoin:miter;stroke-width:0.8;"/>
   </g>
   <g id="patch_6">
    <path d="M 59.005156 7.2 
L 505.405156 7.2 
" style="fill:none;stroke:#000000;stroke-linecap:square;stroke-linejoin:miter;stroke-width:0.8;"/>
   </g>
   <g id="legend_1">
    <g id="patch_7">
     <path d="M 68.805156 272 
L 214.12603 272 
Q 216.92603 272 216.92603 269.2 
L 216.92603 192.551886 
Q 216.92603 189.751886 214.12603 189.751886 
L 68.805156 189.751886 
Q 66.005156 189.751886 66.005156 192.551886 
L 66.005156 269.2 
Q 66.005156 272 68.805156 272 
z
" style="fill:#ffffff;opacity:0.8;stroke:#cccccc;stroke-linejoin:miter;"/>
    </g>
    <g id="line2d_35">
     <path d="M 71.605156 200.251886 
L 99.605156 200.251886 
" style="fill:none;stroke:#1f77b4;stroke-linecap:square;stroke-width:1.5;"/>
    </g>
    <g id="line2d_36"/>
    <g id="text_18">
     <!-- Rectangulaire -->
     <g transform="translate(110.805156 205.151886)scale(0.14 -0.14)">
      <defs>
       <path d="M 2509 2156 
C 3117 2278 3629 2689 3629 3203 
C 3629 3806 2950 4352 2054 4352 
L 333 4352 
L 333 4185 
C 774 4185 845 4185 845 3896 
L 845 428 
C 845 140 774 140 333 140 
L 333 -26 
C 518 -13 851 -13 1050 -13 
C 1248 -13 1581 -13 1766 -26 
L 1766 140 
C 1325 140 1254 140 1254 428 
L 1254 2112 
L 2003 2112 
C 2368 2112 2573 1964 2662 1881 
C 2918 1632 2918 1459 2918 1024 
C 2918 595 2918 377 3110 160 
C 3354 -103 3680 -128 3821 -128 
C 4294 -128 4365 403 4365 512 
C 4365 550 4365 595 4307 595 
C 4256 595 4250 556 4250 531 
C 4218 115 4032 -26 3834 -26 
C 3482 -26 3443 377 3405 768 
C 3386 902 3373 998 3360 1139 
C 3322 1459 3270 1926 2509 2156 
z
M 1984 2214 
L 1254 2214 
L 1254 3935 
C 1254 4153 1267 4185 1523 4185 
L 1990 4185 
C 2522 4185 3142 3999 3142 3203 
C 3142 2374 2464 2214 1984 2214 
z
" id="CMR17-52" transform="scale(0.015625)"/>
       <path d="M 2304 1656 
C 2304 2048 2304 2275 2035 2534 
C 1798 2751 1523 2816 1306 2816 
C 800 2816 435 2408 435 1977 
C 435 1740 627 1728 666 1728 
C 749 1728 896 1779 896 1958 
C 896 2118 774 2188 666 2188 
C 640 2188 608 2182 589 2176 
C 723 2594 1069 2713 1293 2713 
C 1613 2713 1965 2421 1965 1875 
L 1965 1632 
C 1587 1619 1133 1568 774 1373 
C 371 1147 256 822 256 576 
C 256 77 832 -64 1171 -64 
C 1523 -64 1850 135 1990 505 
C 2003 219 2182 -39 2464 -39 
C 2598 -39 2938 51 2938 563 
L 2938 926 
L 2822 926 
L 2822 557 
C 2822 161 2650 109 2566 109 
C 2304 109 2304 446 2304 732 
L 2304 1656 
z
M 1965 887 
C 1965 323 1568 38 1216 38 
C 896 38 646 278 646 576 
C 646 771 730 1114 1101 1322 
C 1408 1497 1760 1523 1965 1536 
L 1965 887 
z
" id="CMR17-61" transform="scale(0.015625)"/>
      </defs>
      <use transform="scale(0.996264)" xlink:href="#CMR17-52"/>
      <use transform="translate(67.791102 0)scale(0.996264)" xlink:href="#CMR17-65"/>
      <use transform="translate(108.276762 0)scale(0.996264)" xlink:href="#CMR17-63"/>
      <use transform="translate(148.762423 0)scale(0.996264)" xlink:href="#CMR17-74"/>
      <use transform="translate(184.043191 0)scale(0.996264)" xlink:href="#CMR17-61"/>
      <use transform="translate(229.733668 0)scale(0.996264)" xlink:href="#CMR17-6e"/>
      <use transform="translate(280.629038 0)scale(0.996264)" xlink:href="#CMR17-67"/>
      <use transform="translate(326.319515 0)scale(0.996264)" xlink:href="#CMR17-75"/>
      <use transform="translate(377.214884 0)scale(0.996264)" xlink:href="#CMR17-6c"/>
      <use transform="translate(402.085943 0)scale(0.996264)" xlink:href="#CMR17-61"/>
      <use transform="translate(447.77642 0)scale(0.996264)" xlink:href="#CMR17-69"/>
      <use transform="translate(472.647479 0)scale(0.996264)" xlink:href="#CMR17-72"/>
      <use transform="translate(507.928246 0)scale(0.996264)" xlink:href="#CMR17-65"/>
     </g>
    </g>
    <g id="line2d_37">
     <path d="M 71.605156 219.763915 
L 99.605156 219.763915 
" style="fill:none;stroke:#ff7f0e;stroke-linecap:square;stroke-width:1.5;"/>
    </g>
    <g id="line2d_38"/>
    <g id="text_19">
     <!-- Hamming -->
     <g transform="translate(110.805156 224.663915)scale(0.14 -0.14)">
      <defs>
       <path d="M 3590 3898 
C 3590 4185 3661 4185 4102 4185 
L 4102 4352 
C 3917 4339 3578 4339 3379 4339 
C 3181 4339 2842 4339 2656 4352 
L 2656 4185 
C 3098 4185 3168 4185 3168 3898 
L 3168 2342 
L 1261 2342 
L 1261 3898 
C 1261 4185 1331 4185 1773 4185 
L 1773 4352 
C 1587 4339 1248 4339 1050 4339 
C 851 4339 512 4339 326 4352 
L 326 4185 
C 768 4185 838 4185 838 3898 
L 838 452 
C 838 166 768 166 326 166 
L 326 0 
C 512 12 851 12 1050 12 
C 1248 12 1587 12 1773 0 
L 1773 166 
C 1331 166 1261 166 1261 452 
L 1261 2176 
L 3168 2176 
L 3168 452 
C 3168 166 3098 166 2656 166 
L 2656 0 
C 2842 12 3181 12 3379 12 
C 3578 12 3917 12 4102 0 
L 4102 166 
C 3661 166 3590 166 3590 452 
L 3590 3898 
z
" id="CMR17-48" transform="scale(0.015625)"/>
       <path d="M 4326 1954 
C 4326 2276 4269 2816 3507 2816 
C 3072 2816 2771 2520 2656 2173 
L 2650 2173 
C 2573 2700 2195 2816 1837 2816 
C 1331 2816 1069 2424 973 2166 
L 966 2166 
L 966 2816 
L 211 2745 
L 211 2578 
C 589 2578 646 2540 646 2231 
L 646 443 
C 646 198 621 166 211 166 
L 211 0 
C 365 12 646 12 813 12 
C 979 12 1267 12 1421 0 
L 1421 166 
C 1011 166 986 192 986 443 
L 986 1678 
C 986 2269 1344 2713 1792 2713 
C 2266 2713 2317 2289 2317 1980 
L 2317 443 
C 2317 198 2291 166 1882 166 
L 1882 0 
C 2035 12 2317 12 2483 12 
C 2650 12 2938 12 3091 0 
L 3091 166 
C 2682 166 2656 192 2656 443 
L 2656 1678 
C 2656 2269 3014 2713 3462 2713 
C 3936 2713 3987 2289 3987 1980 
L 3987 443 
C 3987 198 3962 166 3552 166 
L 3552 0 
C 3706 12 3987 12 4154 12 
C 4320 12 4608 12 4762 0 
L 4762 166 
C 4352 166 4326 192 4326 443 
L 4326 1954 
z
" id="CMR17-6d" transform="scale(0.015625)"/>
      </defs>
      <use transform="scale(0.996264)" xlink:href="#CMR17-48"/>
      <use transform="translate(69.07243 0)scale(0.996264)" xlink:href="#CMR17-61"/>
      <use transform="translate(114.762907 0)scale(0.996264)" xlink:href="#CMR17-6d"/>
      <use transform="translate(191.682497 0)scale(0.996264)" xlink:href="#CMR17-6d"/>
      <use transform="translate(268.602087 0)scale(0.996264)" xlink:href="#CMR17-69"/>
      <use transform="translate(293.473145 0)scale(0.996264)" xlink:href="#CMR17-6e"/>
      <use transform="translate(344.368515 0)scale(0.996264)" xlink:href="#CMR17-67"/>
     </g>
    </g>
    <g id="line2d_39">
     <path d="M 71.605156 239.275943 
L 99.605156 239.275943 
" style="fill:none;stroke:#2ca02c;stroke-linecap:square;stroke-width:1.5;"/>
    </g>
    <g id="line2d_40"/>
    <g id="text_20">
     <!-- Blackman -->
     <g transform="translate(110.805156 244.175943)scale(0.14 -0.14)">
      <defs>
       <path d="M 333 4352 
L 333 4185 
C 774 4185 845 4185 845 3897 
L 845 451 
C 845 166 774 166 333 166 
L 333 0 
L 2534 0 
C 3354 0 3885 578 3885 1155 
C 3885 1726 3360 2214 2675 2259 
C 3290 2380 3718 2790 3718 3276 
C 3718 3808 3194 4352 2368 4352 
L 333 4352 
z
M 1248 2304 
L 1248 3936 
C 1248 4153 1261 4185 1517 4185 
L 2336 4185 
C 2970 4185 3251 3673 3251 3276 
C 3251 2790 2861 2304 2170 2304 
L 1248 2304 
z
M 1517 166 
C 1261 166 1248 198 1248 413 
L 1248 2201 
L 2432 2201 
C 3091 2201 3411 1624 3411 1161 
C 3411 698 3046 166 2349 166 
L 1517 166 
z
" id="CMR17-42" transform="scale(0.015625)"/>
       <path d="M 1670 1679 
C 1664 1692 1632 1730 1632 1749 
C 1632 1762 2086 2175 2144 2226 
C 2509 2532 2739 2563 2906 2570 
L 2906 2735 
C 2867 2735 2854 2735 2848 2729 
L 2534 2722 
C 2355 2722 2080 2722 1907 2735 
L 1907 2570 
C 1997 2563 2061 2513 2061 2423 
C 2061 2296 1933 2175 1926 2175 
L 960 1298 
L 960 4416 
L 198 4345 
L 198 4179 
C 576 4179 634 4141 634 3835 
L 634 439 
C 634 198 608 166 198 166 
L 198 0 
C 352 12 634 12 794 12 
C 954 12 1235 12 1389 0 
L 1389 166 
C 979 166 954 191 954 439 
L 954 1139 
L 1395 1540 
L 2042 586 
C 2118 471 2182 382 2182 299 
C 2182 185 2067 166 1990 166 
L 1990 0 
C 2144 12 2419 12 2579 12 
C 2694 12 2931 6 3040 0 
L 3040 166 
C 2739 166 2669 223 2477 503 
L 1670 1679 
z
" id="CMR17-6b" transform="scale(0.015625)"/>
      </defs>
      <use transform="scale(0.996264)" xlink:href="#CMR17-42"/>
      <use transform="translate(65.188754 0)scale(0.996264)" xlink:href="#CMR17-6c"/>
      <use transform="translate(90.059813 0)scale(0.996264)" xlink:href="#CMR17-61"/>
      <use transform="translate(135.75029 0)scale(0.996264)" xlink:href="#CMR17-63"/>
      <use transform="translate(173.633497 0)scale(0.996264)" xlink:href="#CMR17-6b"/>
      <use transform="translate(221.926412 0)scale(0.996264)" xlink:href="#CMR17-6d"/>
      <use transform="translate(298.846002 0)scale(0.996264)" xlink:href="#CMR17-61"/>
      <use transform="translate(344.536479 0)scale(0.996264)" xlink:href="#CMR17-6e"/>
     </g>
    </g>
    <g id="line2d_41">
     <path d="M 71.605156 258.787972 
L 99.605156 258.787972 
" style="fill:none;stroke:#d62728;stroke-linecap:square;stroke-width:1.5;"/>
    </g>
    <g id="line2d_42"/>
    <g id="text_21">
     <!-- Kaiser $\beta=4.538$ -->
     <g transform="translate(110.805156 263.687972)scale(0.14 -0.14)">
      <defs>
       <path d="M 2362 2669 
L 3469 3771 
C 3699 3994 3942 4172 4301 4185 
L 4301 4352 
C 4173 4345 4013 4339 3885 4339 
C 3712 4339 3411 4339 3245 4352 
L 3245 4185 
C 3411 4172 3437 4057 3437 4013 
C 3437 3968 3411 3898 3386 3860 
L 1261 1739 
L 1261 3898 
C 1261 4185 1331 4185 1773 4185 
L 1773 4352 
C 1587 4339 1248 4339 1050 4339 
C 851 4339 512 4339 326 4352 
L 326 4185 
C 768 4185 838 4185 838 3898 
L 838 453 
C 838 166 768 166 326 166 
L 326 0 
C 512 12 851 12 1050 12 
C 1248 12 1587 12 1773 0 
L 1773 166 
C 1331 166 1261 166 1261 453 
L 1261 1580 
L 2080 2389 
L 3290 542 
C 3328 478 3373 395 3373 332 
C 3373 166 3194 166 3110 166 
L 3110 0 
C 3315 12 3610 12 3821 12 
C 3974 12 4237 12 4384 0 
L 4384 166 
C 4077 166 3981 204 3789 497 
L 2362 2669 
z
" id="CMR17-4b" transform="scale(0.015625)"/>
       <path d="M 1978 2688 
C 1978 2803 1971 2809 1933 2809 
C 1907 2809 1901 2803 1824 2707 
C 1805 2681 1747 2617 1728 2592 
C 1523 2809 1235 2816 1126 2816 
C 416 2816 160 2444 160 2073 
C 160 1497 813 1363 998 1324 
C 1402 1241 1542 1216 1677 1100 
C 1760 1024 1901 883 1901 652 
C 1901 384 1747 38 1158 38 
C 602 38 403 460 288 1024 
C 269 1113 269 1120 218 1120 
C 166 1120 160 1113 160 985 
L 160 64 
C 160 -52 166 -58 205 -58 
C 237 -58 243 -52 275 0 
C 314 57 410 211 448 275 
C 576 102 800 -64 1158 -64 
C 1792 -64 2131 281 2131 780 
C 2131 1107 1958 1280 1875 1356 
C 1683 1555 1459 1600 1190 1651 
C 838 1728 390 1817 390 2208 
C 390 2374 480 2726 1126 2726 
C 1811 2726 1850 2086 1862 1881 
C 1869 1849 1901 1843 1920 1843 
C 1978 1843 1978 1862 1978 1971 
L 1978 2688 
z
" id="CMR17-73" transform="scale(0.015625)"/>
       <path d="M 3622 3739 
C 3622 4131 3296 4544 2714 4544 
C 1888 4544 1363 3510 1197 2830 
L 186 -1152 
C 173 -1204 211 -1216 243 -1216 
C 288 -1216 320 -1210 326 -1178 
L 774 592 
C 838 231 1190 -64 1568 -64 
C 2483 -64 3347 657 3347 1618 
C 3347 1863 3290 2108 3155 2314 
C 3078 2437 2982 2527 2880 2599 
C 3341 2823 3622 3222 3622 3739 
z
M 2509 2605 
C 2406 2571 2304 2560 2182 2560 
C 2093 2560 2010 2553 1894 2588 
C 1958 2627 2054 2639 2189 2639 
C 2304 2639 2419 2627 2509 2605 
z
M 3290 3798 
C 3290 3438 3117 2915 2701 2684 
C 2579 2723 2413 2752 2272 2752 
C 2138 2752 1754 2765 1754 2582 
C 1754 2411 2106 2430 2214 2430 
C 2381 2430 2528 2469 2682 2514 
C 2886 2347 2976 2127 2976 1805 
C 2976 1431 2874 1128 2752 850 
C 2541 373 2042 64 1600 64 
C 1133 64 890 438 890 876 
C 890 934 890 1018 915 1115 
L 1331 2784 
C 1542 3641 2080 4413 2701 4413 
C 3162 4413 3290 4086 3290 3798 
z
" id="CMMI12-c" transform="scale(0.015625)"/>
       <path d="M 4115 2048 
C 4211 2048 4307 2048 4307 2156 
C 4307 2272 4198 2272 4090 2272 
L 512 2272 
C 403 2272 294 2272 294 2156 
C 294 2048 390 2048 486 2048 
L 4115 2048 
z
M 4090 927 
C 4198 927 4307 927 4307 1043 
C 4307 1152 4211 1152 4115 1152 
L 486 1152 
C 390 1152 294 1152 294 1043 
C 294 927 403 927 512 927 
L 4090 927 
z
" id="CMR17-3d" transform="scale(0.015625)"/>
      </defs>
      <use transform="scale(0.996264)" xlink:href="#CMR17-4b"/>
      <use transform="translate(71.674777 0)scale(0.996264)" xlink:href="#CMR17-61"/>
      <use transform="translate(117.365254 0)scale(0.996264)" xlink:href="#CMR17-69"/>
      <use transform="translate(142.236313 0)scale(0.996264)" xlink:href="#CMR17-73"/>
      <use transform="translate(178.037651 0)scale(0.996264)" xlink:href="#CMR17-65"/>
      <use transform="translate(218.523311 0)scale(0.996264)" xlink:href="#CMR17-72"/>
      <use transform="translate(283.880045 0)scale(0.996264)" xlink:href="#CMMI12-c"/>
      <use transform="translate(372.14807 0)scale(0.996264)" xlink:href="#CMR17-3d"/>
      <use transform="translate(471.536867 0)scale(0.996264)" xlink:href="#CMR17-34"/>
      <use transform="translate(517.227344 0)scale(0.996264)" xlink:href="#CMMI12-3a"/>
      <use transform="translate(544.324521 0)scale(0.996264)" xlink:href="#CMR17-35"/>
      <use transform="translate(590.014998 0)scale(0.996264)" xlink:href="#CMR17-33"/>
      <use transform="translate(635.705475 0)scale(0.996264)" xlink:href="#CMR17-38"/>
     </g>
    </g>
   </g>
  </g>
 </g>
 <defs>
  <clipPath id="p435544d97c">
   <rect height="271.8" width="446.4" x="59.005156" y="7.2"/>
  </clipPath>
 </defs>
</svg>
