<?xml version="1.0" encoding="utf-8" standalone="no"?>
<!DOCTYPE svg PUBLIC "-//W3C//DTD SVG 1.1//EN"
  "http://www.w3.org/Graphics/SVG/1.1/DTD/svg11.dtd">
<svg height="303.826776pt" version="1.1" viewBox="0 0 594.357642 303.826776" width="594.357642pt" xmlns="http://www.w3.org/2000/svg" xmlns:xlink="http://www.w3.org/1999/xlink">
 <metadata>
  <rdf:RDF xmlns:cc="http://creativecommons.org/ns#" xmlns:dc="http://purl.org/dc/elements/1.1/" xmlns:rdf="http://www.w3.org/1999/02/22-rdf-syntax-ns#">
   <cc:Work>
    <dc:type rdf:resource="http://purl.org/dc/dcmitype/StillImage"/>
    <dc:date>2021-10-04T17:01:21.960841</dc:date>
    <dc:format>image/svg+xml</dc:format>
    <dc:creator>
     <cc:Agent>
      <dc:title>Matplotlib v3.4.3, https://matplotlib.org/</dc:title>
     </cc:Agent>
    </dc:creator>
   </cc:Work>
  </rdf:RDF>
 </metadata>
 <defs>
  <style type="text/css">*{stroke-linecap:butt;stroke-linejoin:round;}</style>
 </defs>
 <g id="figure_1">
  <g id="patch_1">
   <path d="M -0 303.826776 
L 594.357642 303.826776 
L 594.357642 0 
L -0 0 
z
" style="fill:none;"/>
  </g>
  <g id="axes_1">
   <g id="patch_2">
    <path d="M 29.157642 279 
L 587.157642 279 
L 587.157642 7.2 
L 29.157642 7.2 
z
" style="fill:#ffffff;"/>
   </g>
   <g id="matplotlib.axis_1">
    <g id="xtick_1">
     <g id="line2d_1">
      <path clip-path="url(#p071886103d)" d="M 105.248551 279 
L 105.248551 7.2 
" style="fill:none;stroke:#b0b0b0;stroke-linecap:square;stroke-width:0.8;"/>
     </g>
     <g id="line2d_2">
      <defs>
       <path d="M 0 0 
L 0 3.5 
" id="m5008602222" style="stroke:#000000;stroke-width:0.8;"/>
      </defs>
      <g>
       <use style="stroke:#000000;stroke-width:0.8;" x="105.248551" xlink:href="#m5008602222" y="279"/>
      </g>
     </g>
     <g id="text_1">
      <!-- $\mathdefault{−0.4}$ -->
      <g transform="translate(93.120485 294.30218)scale(0.12 -0.12)">
       <defs>
        <path d="M 4218 1472 
C 4326 1472 4442 1472 4442 1600 
C 4442 1728 4326 1728 4218 1728 
L 755 1728 
C 646 1728 531 1728 531 1600 
C 531 1472 646 1472 755 1472 
L 4218 1472 
z
" id="CMSY10-0" transform="scale(0.015625)"/>
        <path d="M 2688 2025 
C 2688 2416 2682 3080 2413 3591 
C 2176 4039 1798 4198 1466 4198 
C 1158 4198 768 4058 525 3597 
C 269 3118 243 2524 243 2025 
C 243 1661 250 1106 448 619 
C 723 -39 1216 -128 1466 -128 
C 1760 -128 2208 -7 2470 600 
C 2662 1042 2688 1559 2688 2025 
z
M 1466 -26 
C 1056 -26 813 325 723 812 
C 653 1188 653 1738 653 2096 
C 653 2588 653 2997 736 3387 
C 858 3929 1216 4096 1466 4096 
C 1728 4096 2067 3923 2189 3400 
C 2272 3036 2278 2607 2278 2096 
C 2278 1680 2278 1169 2202 792 
C 2067 95 1690 -26 1466 -26 
z
" id="CMR17-30" transform="scale(0.015625)"/>
        <path d="M 1178 307 
C 1178 492 1024 619 870 619 
C 685 619 557 466 557 313 
C 557 128 710 0 864 0 
C 1050 0 1178 153 1178 307 
z
" id="CMMI12-3a" transform="scale(0.015625)"/>
        <path d="M 2150 4122 
C 2150 4256 2144 4256 2029 4256 
L 128 1254 
L 128 1088 
L 1779 1088 
L 1779 457 
C 1779 224 1766 160 1318 160 
L 1197 160 
L 1197 0 
C 1402 0 1747 0 1965 0 
C 2182 0 2528 0 2733 0 
L 2733 160 
L 2611 160 
C 2163 160 2150 224 2150 457 
L 2150 1088 
L 2803 1088 
L 2803 1254 
L 2150 1254 
L 2150 4122 
z
M 1798 3703 
L 1798 1254 
L 256 1254 
L 1798 3703 
z
" id="CMR17-34" transform="scale(0.015625)"/>
       </defs>
       <use transform="scale(0.996264)" xlink:href="#CMSY10-0"/>
       <use transform="translate(77.487468 0)scale(0.996264)" xlink:href="#CMR17-30"/>
       <use transform="translate(123.177945 0)scale(0.996264)" xlink:href="#CMMI12-3a"/>
       <use transform="translate(150.275122 0)scale(0.996264)" xlink:href="#CMR17-34"/>
      </g>
     </g>
    </g>
    <g id="xtick_2">
     <g id="line2d_3">
      <path clip-path="url(#p071886103d)" d="M 206.703096 279 
L 206.703096 7.2 
" style="fill:none;stroke:#b0b0b0;stroke-linecap:square;stroke-width:0.8;"/>
     </g>
     <g id="line2d_4">
      <g>
       <use style="stroke:#000000;stroke-width:0.8;" x="206.703096" xlink:href="#m5008602222" y="279"/>
      </g>
     </g>
     <g id="text_2">
      <!-- $\mathdefault{−0.2}$ -->
      <g transform="translate(194.575031 294.30218)scale(0.12 -0.12)">
       <defs>
        <path d="M 2669 989 
L 2554 989 
C 2490 536 2438 459 2413 420 
C 2381 369 1920 369 1830 369 
L 602 369 
C 832 619 1280 1072 1824 1597 
C 2214 1967 2669 2402 2669 3035 
C 2669 3790 2067 4224 1395 4224 
C 691 4224 262 3604 262 3030 
C 262 2780 448 2748 525 2748 
C 589 2748 781 2787 781 3010 
C 781 3207 614 3264 525 3264 
C 486 3264 448 3258 422 3245 
C 544 3790 915 4058 1306 4058 
C 1862 4058 2227 3617 2227 3035 
C 2227 2479 1901 2000 1536 1584 
L 262 146 
L 262 0 
L 2515 0 
L 2669 989 
z
" id="CMR17-32" transform="scale(0.015625)"/>
       </defs>
       <use transform="scale(0.996264)" xlink:href="#CMSY10-0"/>
       <use transform="translate(77.487468 0)scale(0.996264)" xlink:href="#CMR17-30"/>
       <use transform="translate(123.177945 0)scale(0.996264)" xlink:href="#CMMI12-3a"/>
       <use transform="translate(150.275122 0)scale(0.996264)" xlink:href="#CMR17-32"/>
      </g>
     </g>
    </g>
    <g id="xtick_3">
     <g id="line2d_5">
      <path clip-path="url(#p071886103d)" d="M 308.157642 279 
L 308.157642 7.2 
" style="fill:none;stroke:#b0b0b0;stroke-linecap:square;stroke-width:0.8;"/>
     </g>
     <g id="line2d_6">
      <g>
       <use style="stroke:#000000;stroke-width:0.8;" x="308.157642" xlink:href="#m5008602222" y="279"/>
      </g>
     </g>
     <g id="text_3">
      <!-- $\mathdefault{0.0}$ -->
      <g transform="translate(300.678821 294.30218)scale(0.12 -0.12)">
       <use transform="scale(0.996264)" xlink:href="#CMR17-30"/>
       <use transform="translate(45.690477 0)scale(0.996264)" xlink:href="#CMMI12-3a"/>
       <use transform="translate(72.787654 0)scale(0.996264)" xlink:href="#CMR17-30"/>
      </g>
     </g>
    </g>
    <g id="xtick_4">
     <g id="line2d_7">
      <path clip-path="url(#p071886103d)" d="M 409.612187 279 
L 409.612187 7.2 
" style="fill:none;stroke:#b0b0b0;stroke-linecap:square;stroke-width:0.8;"/>
     </g>
     <g id="line2d_8">
      <g>
       <use style="stroke:#000000;stroke-width:0.8;" x="409.612187" xlink:href="#m5008602222" y="279"/>
      </g>
     </g>
     <g id="text_4">
      <!-- $\mathdefault{0.2}$ -->
      <g transform="translate(402.133366 294.30218)scale(0.12 -0.12)">
       <use transform="scale(0.996264)" xlink:href="#CMR17-30"/>
       <use transform="translate(45.690477 0)scale(0.996264)" xlink:href="#CMMI12-3a"/>
       <use transform="translate(72.787654 0)scale(0.996264)" xlink:href="#CMR17-32"/>
      </g>
     </g>
    </g>
    <g id="xtick_5">
     <g id="line2d_9">
      <path clip-path="url(#p071886103d)" d="M 511.066733 279 
L 511.066733 7.2 
" style="fill:none;stroke:#b0b0b0;stroke-linecap:square;stroke-width:0.8;"/>
     </g>
     <g id="line2d_10">
      <g>
       <use style="stroke:#000000;stroke-width:0.8;" x="511.066733" xlink:href="#m5008602222" y="279"/>
      </g>
     </g>
     <g id="text_5">
      <!-- $\mathdefault{0.4}$ -->
      <g transform="translate(503.587912 294.30218)scale(0.12 -0.12)">
       <use transform="scale(0.996264)" xlink:href="#CMR17-30"/>
       <use transform="translate(45.690477 0)scale(0.996264)" xlink:href="#CMMI12-3a"/>
       <use transform="translate(72.787654 0)scale(0.996264)" xlink:href="#CMR17-34"/>
      </g>
     </g>
    </g>
   </g>
   <g id="matplotlib.axis_2">
    <g id="ytick_1">
     <g id="line2d_11">
      <path clip-path="url(#p071886103d)" d="M 29.157642 266.645455 
L 587.157642 266.645455 
" style="fill:none;stroke:#b0b0b0;stroke-linecap:square;stroke-width:0.8;"/>
     </g>
     <g id="line2d_12">
      <defs>
       <path d="M 0 0 
L -3.5 0 
" id="m11f95f3b2d" style="stroke:#000000;stroke-width:0.8;"/>
      </defs>
      <g>
       <use style="stroke:#000000;stroke-width:0.8;" x="29.157642" xlink:href="#m11f95f3b2d" y="266.645455"/>
      </g>
     </g>
     <g id="text_6">
      <!-- $\mathdefault{0.0}$ -->
      <g transform="translate(7.2 270.796544)scale(0.12 -0.12)">
       <use transform="scale(0.996264)" xlink:href="#CMR17-30"/>
       <use transform="translate(45.690477 0)scale(0.996264)" xlink:href="#CMMI12-3a"/>
       <use transform="translate(72.787654 0)scale(0.996264)" xlink:href="#CMR17-30"/>
      </g>
     </g>
    </g>
    <g id="ytick_2">
     <g id="line2d_13">
      <path clip-path="url(#p071886103d)" d="M 29.157642 221.39402 
L 587.157642 221.39402 
" style="fill:none;stroke:#b0b0b0;stroke-linecap:square;stroke-width:0.8;"/>
     </g>
     <g id="line2d_14">
      <g>
       <use style="stroke:#000000;stroke-width:0.8;" x="29.157642" xlink:href="#m11f95f3b2d" y="221.39402"/>
      </g>
     </g>
     <g id="text_7">
      <!-- $\mathdefault{0.2}$ -->
      <g transform="translate(7.2 225.54511)scale(0.12 -0.12)">
       <use transform="scale(0.996264)" xlink:href="#CMR17-30"/>
       <use transform="translate(45.690477 0)scale(0.996264)" xlink:href="#CMMI12-3a"/>
       <use transform="translate(72.787654 0)scale(0.996264)" xlink:href="#CMR17-32"/>
      </g>
     </g>
    </g>
    <g id="ytick_3">
     <g id="line2d_15">
      <path clip-path="url(#p071886103d)" d="M 29.157642 176.142586 
L 587.157642 176.142586 
" style="fill:none;stroke:#b0b0b0;stroke-linecap:square;stroke-width:0.8;"/>
     </g>
     <g id="line2d_16">
      <g>
       <use style="stroke:#000000;stroke-width:0.8;" x="29.157642" xlink:href="#m11f95f3b2d" y="176.142586"/>
      </g>
     </g>
     <g id="text_8">
      <!-- $\mathdefault{0.4}$ -->
      <g transform="translate(7.2 180.293676)scale(0.12 -0.12)">
       <use transform="scale(0.996264)" xlink:href="#CMR17-30"/>
       <use transform="translate(45.690477 0)scale(0.996264)" xlink:href="#CMMI12-3a"/>
       <use transform="translate(72.787654 0)scale(0.996264)" xlink:href="#CMR17-34"/>
      </g>
     </g>
    </g>
    <g id="ytick_4">
     <g id="line2d_17">
      <path clip-path="url(#p071886103d)" d="M 29.157642 130.891151 
L 587.157642 130.891151 
" style="fill:none;stroke:#b0b0b0;stroke-linecap:square;stroke-width:0.8;"/>
     </g>
     <g id="line2d_18">
      <g>
       <use style="stroke:#000000;stroke-width:0.8;" x="29.157642" xlink:href="#m11f95f3b2d" y="130.891151"/>
      </g>
     </g>
     <g id="text_9">
      <!-- $\mathdefault{0.6}$ -->
      <g transform="translate(7.2 135.042241)scale(0.12 -0.12)">
       <defs>
        <path d="M 678 2176 
C 678 3690 1395 4032 1811 4032 
C 1946 4032 2272 4009 2400 3776 
C 2298 3776 2106 3776 2106 3553 
C 2106 3381 2246 3323 2336 3323 
C 2394 3323 2566 3348 2566 3560 
C 2566 3954 2246 4179 1805 4179 
C 1043 4179 243 3390 243 1984 
C 243 253 966 -128 1478 -128 
C 2099 -128 2688 427 2688 1283 
C 2688 2081 2170 2662 1517 2662 
C 1126 2662 838 2407 678 1960 
L 678 2176 
z
M 1478 25 
C 691 25 691 1200 691 1436 
C 691 1896 909 2560 1504 2560 
C 1613 2560 1926 2560 2138 2120 
C 2253 1870 2253 1609 2253 1289 
C 2253 944 2253 690 2118 434 
C 1978 171 1773 25 1478 25 
z
" id="CMR17-36" transform="scale(0.015625)"/>
       </defs>
       <use transform="scale(0.996264)" xlink:href="#CMR17-30"/>
       <use transform="translate(45.690477 0)scale(0.996264)" xlink:href="#CMMI12-3a"/>
       <use transform="translate(72.787654 0)scale(0.996264)" xlink:href="#CMR17-36"/>
      </g>
     </g>
    </g>
    <g id="ytick_5">
     <g id="line2d_19">
      <path clip-path="url(#p071886103d)" d="M 29.157642 85.639717 
L 587.157642 85.639717 
" style="fill:none;stroke:#b0b0b0;stroke-linecap:square;stroke-width:0.8;"/>
     </g>
     <g id="line2d_20">
      <g>
       <use style="stroke:#000000;stroke-width:0.8;" x="29.157642" xlink:href="#m11f95f3b2d" y="85.639717"/>
      </g>
     </g>
     <g id="text_10">
      <!-- $\mathdefault{0.8}$ -->
      <g transform="translate(7.2 89.790807)scale(0.12 -0.12)">
       <defs>
        <path d="M 1741 2264 
C 2144 2467 2554 2773 2554 3263 
C 2554 3841 1990 4179 1472 4179 
C 890 4179 378 3759 378 3180 
C 378 3021 416 2747 666 2505 
C 730 2442 998 2251 1171 2130 
C 883 1983 211 1634 211 934 
C 211 279 838 -128 1459 -128 
C 2144 -128 2720 362 2720 1010 
C 2720 1590 2330 1857 2074 2029 
L 1741 2264 
z
M 902 2822 
C 851 2854 595 3051 595 3351 
C 595 3739 998 4032 1459 4032 
C 1965 4032 2336 3676 2336 3262 
C 2336 2669 1670 2331 1638 2331 
C 1632 2331 1626 2331 1574 2370 
L 902 2822 
z
M 2080 1519 
C 2176 1449 2483 1240 2483 851 
C 2483 381 2010 25 1472 25 
C 890 25 448 438 448 940 
C 448 1443 838 1862 1280 2060 
L 2080 1519 
z
" id="CMR17-38" transform="scale(0.015625)"/>
       </defs>
       <use transform="scale(0.996264)" xlink:href="#CMR17-30"/>
       <use transform="translate(45.690477 0)scale(0.996264)" xlink:href="#CMMI12-3a"/>
       <use transform="translate(72.787654 0)scale(0.996264)" xlink:href="#CMR17-38"/>
      </g>
     </g>
    </g>
    <g id="ytick_6">
     <g id="line2d_21">
      <path clip-path="url(#p071886103d)" d="M 29.157642 40.388282 
L 587.157642 40.388282 
" style="fill:none;stroke:#b0b0b0;stroke-linecap:square;stroke-width:0.8;"/>
     </g>
     <g id="line2d_22">
      <g>
       <use style="stroke:#000000;stroke-width:0.8;" x="29.157642" xlink:href="#m11f95f3b2d" y="40.388282"/>
      </g>
     </g>
     <g id="text_11">
      <!-- $\mathdefault{1.0}$ -->
      <g transform="translate(7.2 44.539372)scale(0.12 -0.12)">
       <defs>
        <path d="M 1702 4058 
C 1702 4192 1696 4192 1606 4192 
C 1357 3916 979 3827 621 3827 
C 602 3827 570 3827 563 3808 
C 557 3795 557 3782 557 3648 
C 755 3648 1088 3686 1344 3839 
L 1344 461 
C 1344 236 1331 160 781 160 
L 589 160 
L 589 0 
C 896 0 1216 0 1523 0 
C 1830 0 2150 0 2458 0 
L 2458 160 
L 2266 160 
C 1715 160 1702 230 1702 458 
L 1702 4058 
z
" id="CMR17-31" transform="scale(0.015625)"/>
       </defs>
       <use transform="scale(0.996264)" xlink:href="#CMR17-31"/>
       <use transform="translate(45.690477 0)scale(0.996264)" xlink:href="#CMMI12-3a"/>
       <use transform="translate(72.787654 0)scale(0.996264)" xlink:href="#CMR17-30"/>
      </g>
     </g>
    </g>
   </g>
   <g id="line2d_23">
    <path clip-path="url(#p071886103d)" d="M 54.521278 266.645455 
L 181.33946 266.645455 
L 181.33946 40.388282 
L 434.975824 40.388282 
L 434.975824 266.645455 
L 561.794005 266.645455 
" style="fill:none;stroke:#000000;stroke-dasharray:2.96,1.28;stroke-dashoffset:0;stroke-width:0.8;"/>
   </g>
   <g id="line2d_24">
    <path clip-path="url(#p071886103d)" d="M 54.521278 257.77424 
L 56.043096 257.876411 
L 57.564914 258.180715 
L 59.086733 258.680563 
L 61.115824 259.6319 
L 63.144914 260.874484 
L 65.681278 262.763164 
L 68.724914 265.367944 
L 69.73946 266.281951 
L 70.246733 266.54838 
L 75.31946 262.083883 
L 77.855824 260.170857 
L 79.884914 258.910625 
L 81.914005 257.949945 
L 83.435824 257.452692 
L 84.957642 257.162572 
L 86.47946 257.089143 
L 88.001278 257.237409 
L 89.523096 257.607645 
L 91.044914 258.19532 
L 92.566733 258.991106 
L 94.595824 260.351019 
L 96.624914 262.010034 
L 99.161278 264.414599 
L 101.190369 266.517073 
L 101.697642 266.233549 
L 107.277642 260.37204 
L 109.814005 258.066548 
L 111.843096 256.54165 
L 113.364914 255.633861 
L 114.886733 254.959174 
L 116.408551 254.541068 
L 117.930369 254.398366 
L 119.452187 254.5447 
L 120.974005 254.98806 
L 122.495824 255.730431 
L 124.017642 256.767526 
L 125.53946 258.088624 
L 127.061278 259.676516 
L 129.090369 262.166957 
L 131.11946 265.015737 
L 132.134005 266.546524 
L 132.641278 265.957942 
L 137.206733 258.576476 
L 140.250369 253.840148 
L 142.27946 251.043191 
L 143.801278 249.239031 
L 145.323096 247.754969 
L 146.844914 246.651138 
L 147.85946 246.15513 
L 148.874005 245.870166 
L 149.888551 245.811793 
L 150.903096 245.994662 
L 151.917642 246.432424 
L 152.932187 247.137619 
L 153.946733 248.121581 
L 154.961278 249.394343 
L 155.975824 250.96456 
L 156.990369 252.839426 
L 158.512187 256.234916 
L 160.034005 260.34068 
L 162.063096 266.36514 
L 163.584914 260.60088 
L 165.614005 251.844883 
L 167.643096 241.923382 
L 169.672187 230.923647 
L 172.208551 215.829856 
L 175.252187 196.102925 
L 179.310369 167.965352 
L 187.426733 110.930812 
L 190.470369 91.203881 
L 193.006733 76.11009 
L 195.035824 65.110354 
L 197.064914 55.188853 
L 199.094005 46.432857 
L 200.615824 40.668597 
L 202.137642 35.610889 
L 203.65946 31.267036 
L 205.181278 27.635763 
L 206.703096 24.707388 
L 207.717642 23.137171 
L 208.732187 21.864408 
L 209.746733 20.880447 
L 210.761278 20.175252 
L 211.775824 19.73749 
L 212.790369 19.554621 
L 213.804914 19.612994 
L 214.81946 19.897958 
L 215.834005 20.393966 
L 216.848551 21.084696 
L 218.370369 22.448597 
L 219.892187 24.152848 
L 221.921278 26.848698 
L 224.457642 30.692592 
L 232.574005 43.481865 
L 234.603096 46.161819 
L 236.632187 48.444423 
L 238.154005 49.856684 
L 239.675824 50.989958 
L 241.197642 51.831363 
L 242.71946 52.374478 
L 244.241278 52.619223 
L 245.763096 52.571621 
L 247.284914 52.243471 
L 248.806733 51.651921 
L 250.328551 50.818961 
L 251.850369 49.770843 
L 253.87946 48.090728 
L 256.415824 45.648165 
L 260.474005 41.343754 
L 264.024914 37.65273 
L 266.561278 35.313049 
L 268.590369 33.723821 
L 270.61946 32.446318 
L 272.141278 31.718574 
L 273.663096 31.202578 
L 275.184914 30.906066 
L 276.706733 30.831965 
L 278.228551 30.97841 
L 279.750369 31.338855 
L 281.272187 31.902275 
L 283.301278 32.94238 
L 285.330369 34.269394 
L 287.866733 36.244601 
L 291.417642 39.368612 
L 296.490369 43.857041 
L 299.026733 45.808502 
L 301.055824 47.116801 
L 303.084914 48.144857 
L 304.606733 48.707683 
L 306.128551 49.078114 
L 307.650369 49.248126 
L 309.172187 49.214042 
L 310.694005 48.976598 
L 312.215824 48.540933 
L 313.737642 47.916486 
L 315.766733 46.814196 
L 317.795824 45.443354 
L 320.332187 43.433869 
L 323.883096 40.291208 
L 328.955824 35.826711 
L 331.492187 33.913685 
L 333.521278 32.653453 
L 335.550369 31.692772 
L 337.072187 31.19552 
L 338.594005 30.905399 
L 340.115824 30.83197 
L 341.637642 30.980236 
L 343.15946 31.350473 
L 344.681278 31.938148 
L 346.203096 32.733933 
L 348.232187 34.093847 
L 350.261278 35.752861 
L 352.797642 38.157427 
L 356.348551 41.889269 
L 360.914005 46.661697 
L 363.450369 48.967189 
L 365.47946 50.492087 
L 367.001278 51.399876 
L 368.523096 52.074563 
L 370.044914 52.492668 
L 371.566733 52.635371 
L 373.088551 52.489037 
L 374.610369 52.045677 
L 376.132187 51.303306 
L 377.654005 50.26621 
L 379.175824 48.945113 
L 380.697642 47.35722 
L 382.726733 44.86678 
L 384.755824 42.018 
L 387.79946 37.278138 
L 393.886733 27.582976 
L 395.915824 24.786019 
L 397.437642 22.981859 
L 398.95946 21.497797 
L 400.481278 20.393966 
L 401.495824 19.897958 
L 402.510369 19.612994 
L 403.524914 19.554621 
L 404.53946 19.73749 
L 405.554005 20.175252 
L 406.568551 20.880447 
L 407.583096 21.864408 
L 408.597642 23.137171 
L 409.612187 24.707388 
L 410.626733 26.582253 
L 412.148551 29.977744 
L 413.670369 34.083508 
L 415.192187 38.90365 
L 416.714005 44.433737 
L 418.235824 50.660713 
L 420.264914 60.008777 
L 422.294005 70.481872 
L 424.830369 85.001204 
L 427.366733 100.875857 
L 430.410369 121.298337 
L 435.483096 157.136483 
L 440.555824 192.67821 
L 443.59946 212.652568 
L 446.135824 228.017812 
L 448.672187 241.923382 
L 450.701278 251.844883 
L 452.730369 260.60088 
L 454.252187 266.36514 
L 454.75946 265.160822 
L 456.281278 260.34068 
L 457.803096 256.234916 
L 459.324914 252.839426 
L 460.846733 250.141785 
L 461.861278 248.721288 
L 462.875824 247.594096 
L 463.890369 246.750855 
L 464.904914 246.180871 
L 465.91946 245.872194 
L 466.934005 245.811718 
L 467.948551 245.985276 
L 468.963096 246.377757 
L 469.977642 246.97321 
L 471.49946 248.210338 
L 473.021278 249.807872 
L 474.543096 251.70509 
L 476.572187 254.593954 
L 479.615824 259.400057 
L 483.674005 265.957942 
L 484.181278 266.546524 
L 486.717642 262.848836 
L 488.746733 260.261198 
L 490.775824 258.088624 
L 492.297642 256.767526 
L 493.81946 255.730431 
L 495.341278 254.98806 
L 496.863096 254.5447 
L 498.384914 254.398366 
L 499.906733 254.541068 
L 501.428551 254.959174 
L 502.950369 255.633861 
L 504.472187 256.54165 
L 506.501278 258.066548 
L 508.530369 259.88219 
L 511.574005 262.970002 
L 514.617642 266.233549 
L 515.124914 266.517073 
L 518.168551 263.415973 
L 520.704914 261.146498 
L 522.734005 259.630516 
L 524.763096 258.438055 
L 526.284914 257.77974 
L 527.806733 257.336282 
L 529.328551 257.11382 
L 530.850369 257.113676 
L 532.372187 257.332408 
L 533.894005 257.76195 
L 535.415824 258.389843 
L 537.444914 259.506462 
L 539.474005 260.896709 
L 542.010369 262.928979 
L 546.068551 266.54838 
L 546.575824 266.281951 
L 550.126733 263.176695 
L 552.663096 261.225235 
L 554.692187 259.916936 
L 556.721278 258.88888 
L 558.243096 258.326053 
L 559.764914 257.955623 
L 561.286733 257.785611 
L 561.286733 257.785611 
" style="fill:none;stroke:#1f77b4;stroke-linecap:square;stroke-width:1.5;"/>
   </g>
   <g id="line2d_25">
    <path clip-path="url(#p071886103d)" d="M 54.521278 261.526791 
L 55.535824 261.606199 
L 56.550369 261.84201 
L 58.072187 262.472045 
L 59.594005 263.393785 
L 61.623096 264.965311 
L 63.144914 266.296263 
L 63.652187 266.539753 
L 66.695824 263.935343 
L 68.217642 262.862593 
L 69.73946 262.047127 
L 71.261278 261.547084 
L 72.275824 261.408178 
L 73.290369 261.431525 
L 74.304914 261.617348 
L 75.826733 262.189052 
L 77.348551 263.078454 
L 78.870369 264.227328 
L 81.406733 266.504287 
L 81.914005 266.307442 
L 84.957642 263.571604 
L 86.47946 262.451619 
L 88.001278 261.608672 
L 89.015824 261.232639 
L 90.030369 261.021559 
L 91.044914 260.983885 
L 92.05946 261.122877 
L 93.074005 261.436446 
L 94.595824 262.21642 
L 96.117642 263.324502 
L 98.146733 265.188081 
L 99.161278 266.224845 
L 99.668551 266.534722 
L 103.21946 262.95358 
L 104.741278 261.712823 
L 106.263096 260.788117 
L 107.277642 260.384461 
L 108.292187 260.170272 
L 109.306733 260.155925 
L 110.321278 260.345902 
L 111.335824 260.738547 
L 112.350369 261.325983 
L 113.872187 262.540172 
L 115.394005 264.088517 
L 117.423096 266.502564 
L 117.930369 266.151212 
L 120.974005 262.417291 
L 122.495824 260.828561 
L 124.017642 259.590745 
L 125.032187 259.012172 
L 126.046733 258.659829 
L 127.061278 258.551685 
L 128.075824 258.698849 
L 129.090369 259.105026 
L 130.104914 259.766177 
L 131.11946 260.670383 
L 132.641278 262.437254 
L 134.163096 264.607412 
L 135.177642 266.214885 
L 135.684914 266.240708 
L 139.743096 259.63916 
L 141.264914 257.640217 
L 142.27946 256.591512 
L 143.294005 255.822394 
L 144.308551 255.370999 
L 145.323096 255.267881 
L 146.337642 255.534787 
L 147.352187 256.183601 
L 148.366733 257.215513 
L 149.381278 258.62041 
L 150.395824 260.376537 
L 151.917642 263.592923 
L 152.932187 266.055691 
L 153.43946 265.930254 
L 159.01946 251.323682 
L 160.034005 249.300327 
L 161.048551 247.711485 
L 162.063096 246.65198 
L 162.570369 246.349192 
L 163.077642 246.212152 
L 163.584914 246.251115 
L 164.092187 246.475802 
L 164.59946 246.895347 
L 165.106733 247.518232 
L 165.614005 248.352245 
L 166.628551 250.680999 
L 167.643096 253.928093 
L 168.657642 258.126015 
L 169.672187 263.292227 
L 170.17946 266.239607 
L 170.686733 263.862461 
L 172.208551 252.875375 
L 173.730369 239.858926 
L 175.252187 225.009136 
L 177.281278 202.83143 
L 179.817642 172.449466 
L 185.397642 104.202307 
L 187.426733 82.024601 
L 188.948551 67.17481 
L 190.470369 54.158362 
L 191.992187 43.171276 
L 193.006733 37.035055 
L 194.021278 31.868843 
L 195.035824 27.670921 
L 196.050369 24.423827 
L 197.064914 22.095073 
L 198.07946 20.638174 
L 198.586733 20.21863 
L 199.094005 19.993943 
L 199.601278 19.95498 
L 200.108551 20.09202 
L 200.615824 20.394808 
L 201.630369 21.454313 
L 202.644914 23.043155 
L 203.65946 25.06651 
L 205.181278 28.703461 
L 208.224914 36.958882 
L 210.254005 42.236615 
L 211.775824 45.657429 
L 213.297642 48.413327 
L 214.312187 49.818224 
L 215.326733 50.850136 
L 216.341278 51.49895 
L 217.355824 51.765856 
L 218.370369 51.662738 
L 219.384914 51.211343 
L 220.39946 50.442225 
L 221.414005 49.39352 
L 222.935824 47.394577 
L 224.964914 44.200049 
L 229.023096 37.589492 
L 230.544914 35.540765 
L 232.066733 33.931777 
L 233.081278 33.147118 
L 234.095824 32.612457 
L 235.110369 32.335771 
L 236.124914 32.317197 
L 237.13946 32.549273 
L 238.154005 33.01738 
L 239.168551 33.700376 
L 240.690369 35.067666 
L 242.212187 36.74706 
L 248.806733 44.493565 
L 250.328551 45.707754 
L 251.343096 46.29519 
L 252.357642 46.687835 
L 253.372187 46.877812 
L 254.386733 46.863464 
L 255.401278 46.649276 
L 256.415824 46.24562 
L 257.937642 45.320914 
L 259.45946 44.080157 
L 261.488551 42.096245 
L 265.546733 37.954501 
L 267.068551 36.665404 
L 268.590369 35.659977 
L 270.112187 35.001008 
L 271.126733 34.77413 
L 272.141278 34.723546 
L 273.155824 34.848661 
L 274.170369 35.143588 
L 275.692187 35.879154 
L 277.214005 36.915003 
L 279.243096 38.63066 
L 284.315824 43.213795 
L 285.837642 44.283877 
L 287.35946 45.072819 
L 288.881278 45.52943 
L 289.895824 45.634297 
L 290.910369 45.57618 
L 291.924914 45.357772 
L 293.446733 44.747365 
L 294.968551 43.838738 
L 296.997642 42.276898 
L 303.084914 37.136613 
L 304.606733 36.214873 
L 306.128551 35.584838 
L 307.143096 35.349027 
L 308.157642 35.269618 
L 309.172187 35.349027 
L 310.186733 35.584838 
L 311.708551 36.214873 
L 313.230369 37.136613 
L 315.25946 38.708138 
L 321.346733 43.838738 
L 322.868551 44.747365 
L 324.390369 45.357772 
L 325.404914 45.57618 
L 326.41946 45.634297 
L 327.434005 45.52943 
L 328.448551 45.263835 
L 329.970369 44.581068 
L 331.492187 43.597706 
L 333.521278 41.933578 
L 339.608551 36.540669 
L 341.130369 35.597387 
L 342.652187 34.975467 
L 343.666733 34.764387 
L 344.681278 34.726713 
L 345.695824 34.865705 
L 346.710369 35.179274 
L 348.232187 35.959248 
L 349.754005 37.067329 
L 351.783096 38.930909 
L 357.870369 44.938206 
L 359.392187 45.977496 
L 360.406733 46.470263 
L 361.421278 46.780836 
L 362.435824 46.896041 
L 363.450369 46.808406 
L 364.464914 46.516499 
L 365.47946 46.025088 
L 366.494005 45.345128 
L 368.015824 44.010278 
L 369.537642 42.370937 
L 372.074005 39.252893 
L 374.610369 36.160119 
L 376.132187 34.571389 
L 377.654005 33.333573 
L 378.668551 32.755 
L 379.683096 32.402657 
L 380.697642 32.294513 
L 381.712187 32.441677 
L 382.726733 32.847854 
L 383.741278 33.509004 
L 384.755824 34.413211 
L 386.277642 36.180082 
L 387.79946 38.35024 
L 390.335824 42.496304 
L 392.872187 46.639461 
L 394.394005 48.777977 
L 395.408551 49.950178 
L 396.423096 50.864278 
L 397.437642 51.478858 
L 398.452187 51.75941 
L 399.466733 51.679641 
L 400.481278 51.222615 
L 401.495824 50.381705 
L 402.510369 49.161314 
L 403.524914 47.577349 
L 404.53946 45.657429 
L 406.061278 42.236615 
L 408.090369 36.958882 
L 411.641278 27.427163 
L 413.163096 24.006563 
L 414.177642 22.188413 
L 415.192187 20.852617 
L 415.69946 20.394808 
L 416.206733 20.09202 
L 416.714005 19.95498 
L 417.221278 19.993943 
L 417.728551 20.21863 
L 418.235824 20.638174 
L 418.743096 21.26106 
L 419.250369 22.095073 
L 420.264914 24.423827 
L 421.27946 27.670921 
L 422.294005 31.868843 
L 423.308551 37.035055 
L 424.323096 43.171276 
L 425.844914 54.158362 
L 427.366733 67.17481 
L 428.888551 82.024601 
L 430.917642 104.202307 
L 433.454005 134.58427 
L 439.034005 202.83143 
L 441.063096 225.009136 
L 442.584914 239.858926 
L 444.106733 252.875375 
L 445.628551 263.862461 
L 446.135824 266.239607 
L 447.150369 260.587602 
L 448.164914 255.906747 
L 449.17946 252.187382 
L 450.194005 249.40442 
L 451.208551 247.518232 
L 451.715824 246.895347 
L 452.223096 246.475802 
L 452.730369 246.251115 
L 453.237642 246.212152 
L 453.744914 246.349192 
L 454.252187 246.65198 
L 455.266733 247.711485 
L 456.281278 249.300327 
L 457.295824 251.323682 
L 458.817642 254.960633 
L 461.861278 263.216054 
L 462.875824 265.930254 
L 463.383096 266.055691 
L 464.904914 262.450429 
L 466.426733 259.456388 
L 467.441278 257.872423 
L 468.455824 256.652031 
L 469.470369 255.811122 
L 470.484914 255.354096 
L 471.49946 255.274327 
L 472.514005 255.554879 
L 473.528551 256.169459 
L 474.543096 257.083559 
L 475.557642 258.25576 
L 477.07946 260.394276 
L 479.615824 264.537433 
L 480.630369 266.240708 
L 481.137642 266.214885 
L 483.166733 263.121656 
L 484.688551 261.20777 
L 485.703096 260.188949 
L 486.717642 259.40429 
L 487.732187 258.869629 
L 488.746733 258.592944 
L 489.761278 258.57437 
L 490.775824 258.806445 
L 491.790369 259.274552 
L 492.804914 259.957548 
L 494.326733 261.324838 
L 495.848551 263.004232 
L 498.892187 266.502564 
L 500.921278 264.088517 
L 502.443096 262.540172 
L 503.964914 261.325983 
L 504.97946 260.738547 
L 505.994005 260.345902 
L 507.008551 260.155925 
L 508.023096 260.170272 
L 509.037642 260.384461 
L 510.052187 260.788117 
L 511.574005 261.712823 
L 513.095824 262.95358 
L 515.124914 264.937492 
L 516.646733 266.534722 
L 517.154005 266.224845 
L 519.690369 263.75524 
L 521.212187 262.552343 
L 522.734005 261.656577 
L 523.748551 261.25818 
L 524.763096 261.031302 
L 525.777642 260.980718 
L 526.792187 261.105833 
L 527.806733 261.40076 
L 529.328551 262.136326 
L 530.850369 263.172175 
L 532.87946 264.887833 
L 534.401278 266.307442 
L 534.908551 266.504287 
L 537.444914 264.227328 
L 538.966733 263.078454 
L 540.488551 262.189052 
L 542.010369 261.617348 
L 543.024914 261.431525 
L 544.03946 261.408178 
L 545.054005 261.547084 
L 546.575824 262.047127 
L 548.097642 262.862593 
L 549.61946 263.935343 
L 552.155824 266.085038 
L 552.663096 266.539753 
L 553.170369 266.296263 
L 555.706733 264.139937 
L 557.228551 263.057644 
L 558.750369 262.227053 
L 560.272187 261.704893 
L 561.286733 261.546681 
L 561.286733 261.546681 
" style="fill:none;stroke:#ff7f0e;stroke-linecap:square;stroke-width:1.5;"/>
   </g>
   <g id="patch_3">
    <path d="M 29.157642 279 
L 29.157642 7.2 
" style="fill:none;stroke:#000000;stroke-linecap:square;stroke-linejoin:miter;stroke-width:0.8;"/>
   </g>
   <g id="patch_4">
    <path d="M 587.157642 279 
L 587.157642 7.2 
" style="fill:none;stroke:#000000;stroke-linecap:square;stroke-linejoin:miter;stroke-width:0.8;"/>
   </g>
   <g id="patch_5">
    <path d="M 29.157642 279 
L 587.157642 279 
" style="fill:none;stroke:#000000;stroke-linecap:square;stroke-linejoin:miter;stroke-width:0.8;"/>
   </g>
   <g id="patch_6">
    <path d="M 29.157642 7.2 
L 587.157642 7.2 
" style="fill:none;stroke:#000000;stroke-linecap:square;stroke-linejoin:miter;stroke-width:0.8;"/>
   </g>
   <g id="legend_1">
    <g id="patch_7">
     <path d="M 486.780879 57.424057 
L 577.357642 57.424057 
Q 580.157642 57.424057 580.157642 54.624057 
L 580.157642 17 
Q 580.157642 14.2 577.357642 14.2 
L 486.780879 14.2 
Q 483.980879 14.2 483.980879 17 
L 483.980879 54.624057 
Q 483.980879 57.424057 486.780879 57.424057 
z
" style="fill:#ffffff;opacity:0.8;stroke:#cccccc;stroke-linejoin:miter;"/>
    </g>
    <g id="line2d_26">
     <path d="M 489.580879 24.7 
L 517.580879 24.7 
" style="fill:none;stroke:#1f77b4;stroke-linecap:square;stroke-width:1.5;"/>
    </g>
    <g id="line2d_27"/>
    <g id="text_12">
     <!-- $N$ = 8 -->
     <g transform="translate(528.780879 29.6)scale(0.14 -0.14)">
      <defs>
       <path d="M 4736 3698 
C 4806 3974 4909 4166 5395 4166 
C 5414 4166 5491 4166 5491 4279 
C 5491 4352 5434 4352 5408 4352 
C 5280 4352 4954 4352 4826 4352 
L 4518 4352 
C 4429 4352 4314 4352 4224 4352 
C 4186 4352 4109 4352 4109 4230 
C 4109 4166 4160 4166 4205 4166 
C 4589 4166 4614 4019 4614 3903 
C 4614 3846 4608 3826 4589 3737 
L 3866 850 
L 2496 4249 
C 2451 4352 2445 4352 2304 4352 
L 1523 4352 
C 1395 4352 1338 4352 1338 4230 
C 1338 4166 1382 4166 1504 4166 
C 1536 4166 1914 4166 1914 4115 
C 1914 4102 1901 4051 1894 4032 
L 1043 635 
C 966 320 813 186 390 186 
C 358 186 294 186 294 67 
C 294 0 358 0 378 0 
C 506 0 832 0 960 0 
L 1267 0 
C 1357 0 1466 0 1555 0 
C 1600 0 1670 0 1670 122 
C 1670 180 1606 186 1581 186 
C 1370 186 1165 224 1165 454 
C 1165 505 1178 562 1190 613 
L 2054 4032 
C 2093 3968 2093 3956 2118 3898 
L 3642 115 
C 3674 38 3686 0 3744 0 
C 3808 0 3814 19 3840 128 
L 4736 3698 
z
" id="CMMI12-4e" transform="scale(0.015625)"/>
       <path d="M 4115 2017 
C 4211 2017 4307 2017 4307 2125 
C 4307 2240 4198 2240 4090 2240 
L 512 2240 
C 403 2240 294 2240 294 2125 
C 294 2017 390 2017 486 2017 
L 4115 2017 
z
M 4090 896 
C 4198 896 4307 896 4307 1011 
C 4307 1119 4211 1119 4115 1119 
L 486 1119 
C 390 1119 294 1119 294 1011 
C 294 896 403 896 512 896 
L 4090 896 
z
" id="CMR17-3d" transform="scale(0.015625)"/>
      </defs>
      <use transform="scale(0.996264)" xlink:href="#CMMI12-4e"/>
      <use transform="translate(118.597739 0)scale(0.996264)" xlink:href="#CMR17-3d"/>
      <use transform="translate(220.388494 0)scale(0.996264)" xlink:href="#CMR17-38"/>
     </g>
    </g>
    <g id="line2d_28">
     <path d="M 489.580879 44.212028 
L 517.580879 44.212028 
" style="fill:none;stroke:#ff7f0e;stroke-linecap:square;stroke-width:1.5;"/>
    </g>
    <g id="line2d_29"/>
    <g id="text_13">
     <!-- $N$ = 14 -->
     <g transform="translate(528.780879 49.112028)scale(0.14 -0.14)">
      <use transform="scale(0.996264)" xlink:href="#CMMI12-4e"/>
      <use transform="translate(118.597739 0)scale(0.996264)" xlink:href="#CMR17-3d"/>
      <use transform="translate(220.388494 0)scale(0.996264)" xlink:href="#CMR17-31"/>
      <use transform="translate(266.078971 0)scale(0.996264)" xlink:href="#CMR17-34"/>
     </g>
    </g>
   </g>
  </g>
 </g>
 <defs>
  <clipPath id="p071886103d">
   <rect height="271.8" width="558" x="29.157642" y="7.2"/>
  </clipPath>
 </defs>
</svg>
