<?xml version="1.0" encoding="utf-8" standalone="no"?>
<!DOCTYPE svg PUBLIC "-//W3C//DTD SVG 1.1//EN"
  "http://www.w3.org/Graphics/SVG/1.1/DTD/svg11.dtd">
<svg height="216pt" version="1.1" viewBox="0 0 576 216" width="576pt" xmlns="http://www.w3.org/2000/svg" xmlns:xlink="http://www.w3.org/1999/xlink">
 <metadata>
  <rdf:RDF xmlns:cc="http://creativecommons.org/ns#" xmlns:dc="http://purl.org/dc/elements/1.1/" xmlns:rdf="http://www.w3.org/1999/02/22-rdf-syntax-ns#">
   <cc:Work>
    <dc:type rdf:resource="http://purl.org/dc/dcmitype/StillImage"/>
    <dc:date>2023-09-05T20:18:28.088365</dc:date>
    <dc:format>image/svg+xml</dc:format>
    <dc:creator>
     <cc:Agent>
      <dc:title>Matplotlib v3.4.3, https://matplotlib.org/</dc:title>
     </cc:Agent>
    </dc:creator>
   </cc:Work>
  </rdf:RDF>
 </metadata>
 <defs>
  <style type="text/css">*{stroke-linecap:butt;stroke-linejoin:round;}</style>
 </defs>
 <g id="figure_1">
  <g id="patch_1">
   <path d="M 0 216 
L 576 216 
L 576 0 
L 0 0 
z
" style="fill:none;"/>
  </g>
  <g id="axes_1">
   <g id="patch_2">
    <path d="M 72 189 
L 518.4 189 
L 518.4 25.92 
L 72 25.92 
z
" style="fill:#ffffff;"/>
   </g>
   <g id="matplotlib.axis_1">
    <g id="xtick_1">
     <g id="line2d_1">
      <defs>
       <path d="M 0 0 
L 0 3.5 
" id="m16e894feda" style="stroke:#000000;stroke-width:0.8;"/>
      </defs>
      <g>
       <use style="stroke:#000000;stroke-width:0.8;" x="132.872727" xlink:href="#m16e894feda" y="189"/>
      </g>
     </g>
     <g id="text_1">
      <!-- −0.4 -->
      <g transform="translate(120.731321 203.598437)scale(0.1 -0.1)">
       <defs>
        <path d="M 678 2272 
L 4684 2272 
L 4684 1741 
L 678 1741 
L 678 2272 
z
" id="DejaVuSans-2212" transform="scale(0.015625)"/>
        <path d="M 2034 4250 
Q 1547 4250 1301 3770 
Q 1056 3291 1056 2328 
Q 1056 1369 1301 889 
Q 1547 409 2034 409 
Q 2525 409 2770 889 
Q 3016 1369 3016 2328 
Q 3016 3291 2770 3770 
Q 2525 4250 2034 4250 
z
M 2034 4750 
Q 2819 4750 3233 4129 
Q 3647 3509 3647 2328 
Q 3647 1150 3233 529 
Q 2819 -91 2034 -91 
Q 1250 -91 836 529 
Q 422 1150 422 2328 
Q 422 3509 836 4129 
Q 1250 4750 2034 4750 
z
" id="DejaVuSans-30" transform="scale(0.015625)"/>
        <path d="M 684 794 
L 1344 794 
L 1344 0 
L 684 0 
L 684 794 
z
" id="DejaVuSans-2e" transform="scale(0.015625)"/>
        <path d="M 2419 4116 
L 825 1625 
L 2419 1625 
L 2419 4116 
z
M 2253 4666 
L 3047 4666 
L 3047 1625 
L 3713 1625 
L 3713 1100 
L 3047 1100 
L 3047 0 
L 2419 0 
L 2419 1100 
L 313 1100 
L 313 1709 
L 2253 4666 
z
" id="DejaVuSans-34" transform="scale(0.015625)"/>
       </defs>
       <use xlink:href="#DejaVuSans-2212"/>
       <use x="83.789062" xlink:href="#DejaVuSans-30"/>
       <use x="147.412109" xlink:href="#DejaVuSans-2e"/>
       <use x="179.199219" xlink:href="#DejaVuSans-34"/>
      </g>
     </g>
    </g>
    <g id="xtick_2">
     <g id="line2d_2">
      <g>
       <use style="stroke:#000000;stroke-width:0.8;" x="214.036364" xlink:href="#m16e894feda" y="189"/>
      </g>
     </g>
     <g id="text_2">
      <!-- −0.2 -->
      <g transform="translate(201.894957 203.598437)scale(0.1 -0.1)">
       <defs>
        <path d="M 1228 531 
L 3431 531 
L 3431 0 
L 469 0 
L 469 531 
Q 828 903 1448 1529 
Q 2069 2156 2228 2338 
Q 2531 2678 2651 2914 
Q 2772 3150 2772 3378 
Q 2772 3750 2511 3984 
Q 2250 4219 1831 4219 
Q 1534 4219 1204 4116 
Q 875 4013 500 3803 
L 500 4441 
Q 881 4594 1212 4672 
Q 1544 4750 1819 4750 
Q 2544 4750 2975 4387 
Q 3406 4025 3406 3419 
Q 3406 3131 3298 2873 
Q 3191 2616 2906 2266 
Q 2828 2175 2409 1742 
Q 1991 1309 1228 531 
z
" id="DejaVuSans-32" transform="scale(0.015625)"/>
       </defs>
       <use xlink:href="#DejaVuSans-2212"/>
       <use x="83.789062" xlink:href="#DejaVuSans-30"/>
       <use x="147.412109" xlink:href="#DejaVuSans-2e"/>
       <use x="179.199219" xlink:href="#DejaVuSans-32"/>
      </g>
     </g>
    </g>
    <g id="xtick_3">
     <g id="line2d_3">
      <g>
       <use style="stroke:#000000;stroke-width:0.8;" x="295.2" xlink:href="#m16e894feda" y="189"/>
      </g>
     </g>
     <g id="text_3">
      <!-- 0.0 -->
      <g transform="translate(287.248437 203.598437)scale(0.1 -0.1)">
       <use xlink:href="#DejaVuSans-30"/>
       <use x="63.623047" xlink:href="#DejaVuSans-2e"/>
       <use x="95.410156" xlink:href="#DejaVuSans-30"/>
      </g>
     </g>
    </g>
    <g id="xtick_4">
     <g id="line2d_4">
      <g>
       <use style="stroke:#000000;stroke-width:0.8;" x="376.363636" xlink:href="#m16e894feda" y="189"/>
      </g>
     </g>
     <g id="text_4">
      <!-- 0.2 -->
      <g transform="translate(368.412074 203.598437)scale(0.1 -0.1)">
       <use xlink:href="#DejaVuSans-30"/>
       <use x="63.623047" xlink:href="#DejaVuSans-2e"/>
       <use x="95.410156" xlink:href="#DejaVuSans-32"/>
      </g>
     </g>
    </g>
    <g id="xtick_5">
     <g id="line2d_5">
      <g>
       <use style="stroke:#000000;stroke-width:0.8;" x="457.527273" xlink:href="#m16e894feda" y="189"/>
      </g>
     </g>
     <g id="text_5">
      <!-- 0.4 -->
      <g transform="translate(449.57571 203.598437)scale(0.1 -0.1)">
       <use xlink:href="#DejaVuSans-30"/>
       <use x="63.623047" xlink:href="#DejaVuSans-2e"/>
       <use x="95.410156" xlink:href="#DejaVuSans-34"/>
      </g>
     </g>
    </g>
    <g id="text_6">
     <!-- $k$ -->
     <g transform="translate(292.3 217.276563)scale(0.1 -0.1)">
      <defs>
       <path d="M 1172 4863 
L 1747 4863 
L 1197 2028 
L 3169 3500 
L 3916 3500 
L 1716 1825 
L 3322 0 
L 2625 0 
L 1131 1709 
L 800 0 
L 225 0 
L 1172 4863 
z
" id="DejaVuSans-Oblique-6b" transform="scale(0.015625)"/>
      </defs>
      <use transform="translate(0 0.015625)" xlink:href="#DejaVuSans-Oblique-6b"/>
     </g>
    </g>
   </g>
   <g id="matplotlib.axis_2">
    <g id="ytick_1">
     <g id="line2d_6">
      <defs>
       <path d="M 0 0 
L -3.5 0 
" id="maeb107d466" style="stroke:#000000;stroke-width:0.8;"/>
      </defs>
      <g>
       <use style="stroke:#000000;stroke-width:0.8;" x="72" xlink:href="#maeb107d466" y="181.587273"/>
      </g>
     </g>
     <g id="text_7">
      <!-- 0.0 -->
      <g transform="translate(49.096875 185.386491)scale(0.1 -0.1)">
       <use xlink:href="#DejaVuSans-30"/>
       <use x="63.623047" xlink:href="#DejaVuSans-2e"/>
       <use x="95.410156" xlink:href="#DejaVuSans-30"/>
      </g>
     </g>
    </g>
    <g id="ytick_2">
     <g id="line2d_7">
      <g>
       <use style="stroke:#000000;stroke-width:0.8;" x="72" xlink:href="#maeb107d466" y="154.382283"/>
      </g>
     </g>
     <g id="text_8">
      <!-- 0.2 -->
      <g transform="translate(49.096875 158.181502)scale(0.1 -0.1)">
       <use xlink:href="#DejaVuSans-30"/>
       <use x="63.623047" xlink:href="#DejaVuSans-2e"/>
       <use x="95.410156" xlink:href="#DejaVuSans-32"/>
      </g>
     </g>
    </g>
    <g id="ytick_3">
     <g id="line2d_8">
      <g>
       <use style="stroke:#000000;stroke-width:0.8;" x="72" xlink:href="#maeb107d466" y="127.177293"/>
      </g>
     </g>
     <g id="text_9">
      <!-- 0.4 -->
      <g transform="translate(49.096875 130.976512)scale(0.1 -0.1)">
       <use xlink:href="#DejaVuSans-30"/>
       <use x="63.623047" xlink:href="#DejaVuSans-2e"/>
       <use x="95.410156" xlink:href="#DejaVuSans-34"/>
      </g>
     </g>
    </g>
    <g id="ytick_4">
     <g id="line2d_9">
      <g>
       <use style="stroke:#000000;stroke-width:0.8;" x="72" xlink:href="#maeb107d466" y="99.972303"/>
      </g>
     </g>
     <g id="text_10">
      <!-- 0.6 -->
      <g transform="translate(49.096875 103.771522)scale(0.1 -0.1)">
       <defs>
        <path d="M 2113 2584 
Q 1688 2584 1439 2293 
Q 1191 2003 1191 1497 
Q 1191 994 1439 701 
Q 1688 409 2113 409 
Q 2538 409 2786 701 
Q 3034 994 3034 1497 
Q 3034 2003 2786 2293 
Q 2538 2584 2113 2584 
z
M 3366 4563 
L 3366 3988 
Q 3128 4100 2886 4159 
Q 2644 4219 2406 4219 
Q 1781 4219 1451 3797 
Q 1122 3375 1075 2522 
Q 1259 2794 1537 2939 
Q 1816 3084 2150 3084 
Q 2853 3084 3261 2657 
Q 3669 2231 3669 1497 
Q 3669 778 3244 343 
Q 2819 -91 2113 -91 
Q 1303 -91 875 529 
Q 447 1150 447 2328 
Q 447 3434 972 4092 
Q 1497 4750 2381 4750 
Q 2619 4750 2861 4703 
Q 3103 4656 3366 4563 
z
" id="DejaVuSans-36" transform="scale(0.015625)"/>
       </defs>
       <use xlink:href="#DejaVuSans-30"/>
       <use x="63.623047" xlink:href="#DejaVuSans-2e"/>
       <use x="95.410156" xlink:href="#DejaVuSans-36"/>
      </g>
     </g>
    </g>
    <g id="ytick_5">
     <g id="line2d_10">
      <g>
       <use style="stroke:#000000;stroke-width:0.8;" x="72" xlink:href="#maeb107d466" y="72.767314"/>
      </g>
     </g>
     <g id="text_11">
      <!-- 0.8 -->
      <g transform="translate(49.096875 76.566532)scale(0.1 -0.1)">
       <defs>
        <path d="M 2034 2216 
Q 1584 2216 1326 1975 
Q 1069 1734 1069 1313 
Q 1069 891 1326 650 
Q 1584 409 2034 409 
Q 2484 409 2743 651 
Q 3003 894 3003 1313 
Q 3003 1734 2745 1975 
Q 2488 2216 2034 2216 
z
M 1403 2484 
Q 997 2584 770 2862 
Q 544 3141 544 3541 
Q 544 4100 942 4425 
Q 1341 4750 2034 4750 
Q 2731 4750 3128 4425 
Q 3525 4100 3525 3541 
Q 3525 3141 3298 2862 
Q 3072 2584 2669 2484 
Q 3125 2378 3379 2068 
Q 3634 1759 3634 1313 
Q 3634 634 3220 271 
Q 2806 -91 2034 -91 
Q 1263 -91 848 271 
Q 434 634 434 1313 
Q 434 1759 690 2068 
Q 947 2378 1403 2484 
z
M 1172 3481 
Q 1172 3119 1398 2916 
Q 1625 2713 2034 2713 
Q 2441 2713 2670 2916 
Q 2900 3119 2900 3481 
Q 2900 3844 2670 4047 
Q 2441 4250 2034 4250 
Q 1625 4250 1398 4047 
Q 1172 3844 1172 3481 
z
" id="DejaVuSans-38" transform="scale(0.015625)"/>
       </defs>
       <use xlink:href="#DejaVuSans-30"/>
       <use x="63.623047" xlink:href="#DejaVuSans-2e"/>
       <use x="95.410156" xlink:href="#DejaVuSans-38"/>
      </g>
     </g>
    </g>
    <g id="ytick_6">
     <g id="line2d_11">
      <g>
       <use style="stroke:#000000;stroke-width:0.8;" x="72" xlink:href="#maeb107d466" y="45.562324"/>
      </g>
     </g>
     <g id="text_12">
      <!-- 1.0 -->
      <g transform="translate(49.096875 49.361542)scale(0.1 -0.1)">
       <defs>
        <path d="M 794 531 
L 1825 531 
L 1825 4091 
L 703 3866 
L 703 4441 
L 1819 4666 
L 2450 4666 
L 2450 531 
L 3481 531 
L 3481 0 
L 794 0 
L 794 531 
z
" id="DejaVuSans-31" transform="scale(0.015625)"/>
       </defs>
       <use xlink:href="#DejaVuSans-31"/>
       <use x="63.623047" xlink:href="#DejaVuSans-2e"/>
       <use x="95.410156" xlink:href="#DejaVuSans-30"/>
      </g>
     </g>
    </g>
    <g id="text_13">
     <!-- $H[k]$ -->
     <g transform="translate(43.017187 118.06)rotate(-90)scale(0.1 -0.1)">
      <defs>
       <path d="M 1081 4666 
L 1716 4666 
L 1344 2753 
L 3634 2753 
L 4006 4666 
L 4641 4666 
L 3731 0 
L 3097 0 
L 3531 2222 
L 1241 2222 
L 806 0 
L 172 0 
L 1081 4666 
z
" id="DejaVuSans-Oblique-48" transform="scale(0.015625)"/>
       <path d="M 550 4863 
L 1875 4863 
L 1875 4416 
L 1125 4416 
L 1125 -397 
L 1875 -397 
L 1875 -844 
L 550 -844 
L 550 4863 
z
" id="DejaVuSans-5b" transform="scale(0.015625)"/>
       <path d="M 1947 4863 
L 1947 -844 
L 622 -844 
L 622 -397 
L 1369 -397 
L 1369 4416 
L 622 4416 
L 622 4863 
L 1947 4863 
z
" id="DejaVuSans-5d" transform="scale(0.015625)"/>
      </defs>
      <use transform="translate(0 0.015625)" xlink:href="#DejaVuSans-Oblique-48"/>
      <use transform="translate(75.195312 0.015625)" xlink:href="#DejaVuSans-5b"/>
      <use transform="translate(114.208984 0.015625)" xlink:href="#DejaVuSans-Oblique-6b"/>
      <use transform="translate(172.119141 0.015625)" xlink:href="#DejaVuSans-5d"/>
     </g>
    </g>
   </g>
   <g id="line2d_12">
    <path clip-path="url(#p03eff884ab)" d="M 92.290909 181.587273 
L 193.745455 181.587273 
L 193.745455 45.562324 
L 396.654545 45.562324 
L 396.654545 181.587273 
L 498.109091 181.587273 
" style="fill:none;stroke:#1f77b4;stroke-linecap:square;stroke-width:1.5;"/>
   </g>
   <g id="line2d_13">
    <path clip-path="url(#p03eff884ab)" d="M 92.290909 179.427715 
L 93.508364 179.579756 
L 94.725818 180.014677 
L 96.349091 180.925037 
L 97.160727 181.459375 
L 97.566545 181.442459 
L 99.595636 180.192538 
L 100.813091 179.671512 
L 102.030545 179.418334 
L 103.248 179.470018 
L 104.465455 179.821163 
L 105.682909 180.424446 
L 107.306182 181.473907 
L 107.712 181.421042 
L 109.741091 180.135781 
L 110.958545 179.597829 
L 112.176 179.335663 
L 113.393455 179.38945 
L 114.610909 179.755544 
L 115.828364 180.386447 
L 117.451636 181.488059 
L 117.857455 181.392215 
L 119.886545 180.035164 
L 121.104 179.46463 
L 122.321455 179.185691 
L 123.133091 179.185773 
L 124.350545 179.469741 
L 125.568 180.061171 
L 127.191273 181.189309 
L 127.597091 181.504448 
L 128.002909 181.351239 
L 130.032 179.875406 
L 131.249455 179.251738 
L 132.466909 178.945683 
L 133.278545 178.945812 
L 134.090182 179.114308 
L 135.307636 179.66357 
L 136.525091 180.504932 
L 137.742545 181.527647 
L 138.554182 180.932729 
L 140.177455 179.627086 
L 141.394909 178.920177 
L 142.206545 178.64301 
L 143.018182 178.547617 
L 143.829818 178.64462 
L 144.641455 178.932822 
L 145.858909 179.691456 
L 147.076364 180.755662 
L 147.888 181.56759 
L 151.134545 178.629443 
L 151.946182 178.199663 
L 152.757818 177.974251 
L 153.569455 177.974586 
L 154.381091 178.208594 
L 155.192727 178.669792 
L 156.410182 179.737829 
L 158.033455 181.524173 
L 160.468364 178.54898 
L 161.685818 177.482849 
L 162.497455 177.058949 
L 163.309091 176.911545 
L 164.120727 177.063873 
L 164.932364 177.521545 
L 165.744 178.271322 
L 166.555636 179.280945 
L 167.773091 181.168021 
L 168.178909 181.312184 
L 170.613818 177.19909 
L 171.425455 176.121926 
L 172.237091 175.337395 
L 173.048727 174.91812 
L 173.860364 174.919544 
L 174.672 175.375442 
L 175.483636 176.294309 
L 176.295273 177.656868 
L 177.106909 179.414869 
L 177.918545 181.491299 
L 178.730182 179.392503 
L 181.165091 172.608034 
L 181.976727 170.90838 
L 182.788364 169.770783 
L 183.194182 169.464 
L 183.6 169.357676 
L 184.005818 169.469776 
L 184.411636 169.816906 
L 184.817455 170.414106 
L 185.223273 171.274654 
L 186.034909 173.829083 
L 186.846545 177.545014 
L 187.252364 179.848667 
L 187.658182 180.724624 
L 188.469818 174.643117 
L 189.687273 163.441719 
L 190.904727 150.065811 
L 192.528 129.769777 
L 196.586182 77.083785 
L 197.803636 63.707877 
L 199.021091 52.50648 
L 200.238545 43.823718 
L 201.050182 39.514282 
L 201.861818 36.384948 
L 202.673455 34.389157 
L 203.079273 33.791957 
L 203.485091 33.444827 
L 203.890909 33.332727 
L 204.296727 33.439051 
L 204.702545 33.745834 
L 205.514182 34.883431 
L 206.325818 36.583085 
L 207.543273 39.81538 
L 210.384 47.734728 
L 211.195636 49.492729 
L 212.007273 50.855287 
L 212.818909 51.774154 
L 213.630545 52.230052 
L 214.442182 52.231477 
L 215.253818 51.812201 
L 216.065455 51.027671 
L 216.877091 49.950506 
L 218.500364 47.263562 
L 220.529455 43.843177 
L 221.746909 42.246373 
L 222.558545 41.496596 
L 223.370182 41.038924 
L 224.181818 40.886596 
L 224.993455 41.034 
L 225.805091 41.4579 
L 226.616727 42.119604 
L 227.834182 43.443526 
L 231.486545 47.812418 
L 232.704 48.737825 
L 233.515636 49.087154 
L 234.327273 49.204222 
L 235.138909 49.08982 
L 235.950545 48.75877 
L 237.168 47.91911 
L 238.791273 46.379665 
L 241.226182 43.993338 
L 242.443636 43.119995 
L 243.255273 42.74042 
L 244.066909 42.546912 
L 244.878545 42.546709 
L 245.690182 42.735027 
L 246.907636 43.332654 
L 248.125091 44.219777 
L 252.183273 47.486027 
L 253.400727 48.035288 
L 254.212364 48.203785 
L 255.024 48.203913 
L 255.835636 48.038712 
L 257.053091 47.512288 
L 258.270545 46.727169 
L 262.328727 43.808866 
L 263.546182 43.313361 
L 264.763636 43.141624 
L 265.575273 43.217637 
L 266.792727 43.600911 
L 268.010182 44.25154 
L 270.039273 45.661538 
L 272.068364 46.998281 
L 273.285818 47.548713 
L 274.503273 47.813885 
L 275.720727 47.760535 
L 276.938182 47.399933 
L 278.155636 46.785788 
L 280.184727 45.448958 
L 282.213818 44.17488 
L 283.431273 43.647996 
L 284.648727 43.393408 
L 285.866182 43.444886 
L 287.083636 43.793453 
L 288.301091 44.388873 
L 290.330182 45.690222 
L 292.359273 46.936568 
L 293.576727 47.454055 
L 294.794182 47.70481 
L 296.011636 47.653864 
L 297.229091 47.308321 
L 298.446545 46.716374 
L 300.475636 45.41751 
L 302.504727 44.167589 
L 303.722182 43.646563 
L 304.939636 43.393385 
L 306.157091 43.445069 
L 307.374545 43.796214 
L 308.592 44.399497 
L 310.621091 45.728555 
L 312.650182 47.013815 
L 313.867636 47.551767 
L 315.085091 47.813933 
L 316.302545 47.760146 
L 317.52 47.394052 
L 318.737455 46.763149 
L 320.766545 45.367266 
L 322.795636 44.010215 
L 324.013091 43.439681 
L 325.230545 43.160742 
L 326.042182 43.160824 
L 327.259636 43.444792 
L 328.477091 44.036222 
L 330.100364 45.16436 
L 332.941091 47.274191 
L 334.158545 47.897858 
L 335.376 48.203913 
L 336.187636 48.203785 
L 336.999273 48.035288 
L 338.216727 47.486027 
L 339.434182 46.644664 
L 343.898182 43.095639 
L 345.115636 42.618061 
L 345.927273 42.522668 
L 346.738909 42.619671 
L 347.550545 42.907873 
L 348.768 43.666507 
L 349.985455 44.730713 
L 353.637818 48.238573 
L 354.855273 48.949934 
L 355.666909 49.175345 
L 356.478545 49.17501 
L 357.290182 48.941003 
L 358.101818 48.479804 
L 359.319273 47.411767 
L 360.942545 45.499224 
L 363.377455 42.524031 
L 364.594909 41.4579 
L 365.406545 41.034 
L 366.218182 40.886596 
L 367.029818 41.038924 
L 367.841455 41.496596 
L 368.653091 42.246373 
L 369.464727 43.255996 
L 370.682182 45.143072 
L 373.928727 50.520595 
L 374.740364 51.461399 
L 375.552 52.07142 
L 376.363636 52.286018 
L 376.769455 52.230052 
L 377.581091 51.774154 
L 378.392727 50.855287 
L 379.204364 49.492729 
L 380.016 47.734728 
L 381.233455 44.532224 
L 384.074182 36.583085 
L 384.885818 34.883431 
L 385.697455 33.745834 
L 386.103273 33.439051 
L 386.509091 33.332727 
L 386.914909 33.444827 
L 387.320727 33.791957 
L 387.726545 34.389157 
L 388.132364 35.249705 
L 388.944 37.804134 
L 389.755636 41.520065 
L 390.567273 46.424972 
L 391.378909 52.50648 
L 392.596364 63.707877 
L 393.813818 77.083785 
L 395.437091 97.37982 
L 399.495273 150.065811 
L 400.712727 163.441719 
L 401.930182 174.643117 
L 402.741818 180.724624 
L 403.147636 179.848667 
L 403.959273 175.539231 
L 404.770909 172.409897 
L 405.582545 170.414106 
L 405.988364 169.816906 
L 406.394182 169.469776 
L 406.8 169.357676 
L 407.205818 169.464 
L 407.611636 169.770783 
L 408.423273 170.90838 
L 409.234909 172.608034 
L 410.452364 175.840329 
L 412.481455 181.491299 
L 413.698909 178.490589 
L 414.510545 176.922459 
L 415.322182 175.777538 
L 416.133818 175.089525 
L 416.945455 174.863578 
L 417.757091 175.078176 
L 418.568727 175.688198 
L 419.380364 176.629001 
L 420.597818 178.484216 
L 422.221091 181.312184 
L 422.626909 181.168021 
L 423.844364 179.280945 
L 424.656 178.271322 
L 425.467636 177.521545 
L 426.279273 177.063873 
L 427.090909 176.911545 
L 427.902545 177.058949 
L 428.714182 177.482849 
L 429.525818 178.144553 
L 430.743273 179.468475 
L 432.366545 181.524173 
L 433.178182 180.645454 
L 434.395636 179.337179 
L 435.613091 178.411771 
L 436.424727 178.062443 
L 437.236364 177.945374 
L 438.048 178.059776 
L 438.859636 178.390826 
L 440.077091 179.230486 
L 441.700364 180.769932 
L 442.512 181.56759 
L 444.135273 180.018287 
L 445.352727 179.144944 
L 446.164364 178.765369 
L 446.976 178.571861 
L 447.787636 178.571658 
L 448.599273 178.759976 
L 449.816727 179.357603 
L 451.034182 180.244726 
L 452.657455 181.527647 
L 454.280727 180.198101 
L 455.498182 179.443698 
L 456.715636 179.009235 
L 457.527273 178.924646 
L 458.338909 179.008212 
L 459.556364 179.428236 
L 460.773818 180.138555 
L 462.802909 181.504448 
L 464.832 180.061171 
L 466.049455 179.469741 
L 467.266909 179.185773 
L 468.078545 179.185691 
L 469.296 179.46463 
L 470.513455 180.035164 
L 472.136727 181.099497 
L 472.542545 181.392215 
L 472.948364 181.488059 
L 474.977455 180.151315 
L 476.194909 179.600883 
L 477.412364 179.335712 
L 478.629818 179.389061 
L 479.847273 179.749664 
L 481.064727 180.363809 
L 483.093818 181.473907 
L 485.122909 180.199829 
L 486.340364 179.672945 
L 487.557818 179.418357 
L 488.775273 179.469835 
L 489.992727 179.818402 
L 491.210182 180.413822 
L 492.833455 181.442459 
L 493.239273 181.459375 
L 495.268364 180.213029 
L 496.485818 179.695541 
L 497.703273 179.444786 
L 497.703273 179.444786 
" style="fill:none;stroke:#ff7f0e;stroke-linecap:square;stroke-width:1.5;"/>
   </g>
   <g id="patch_3">
    <path d="M 72 189 
L 72 25.92 
" style="fill:none;stroke:#000000;stroke-linecap:square;stroke-linejoin:miter;stroke-width:0.8;"/>
   </g>
   <g id="patch_4">
    <path d="M 518.4 189 
L 518.4 25.92 
" style="fill:none;stroke:#000000;stroke-linecap:square;stroke-linejoin:miter;stroke-width:0.8;"/>
   </g>
   <g id="patch_5">
    <path d="M 72 189 
L 518.4 189 
" style="fill:none;stroke:#000000;stroke-linecap:square;stroke-linejoin:miter;stroke-width:0.8;"/>
   </g>
   <g id="patch_6">
    <path d="M 72 25.92 
L 518.4 25.92 
" style="fill:none;stroke:#000000;stroke-linecap:square;stroke-linejoin:miter;stroke-width:0.8;"/>
   </g>
  </g>
 </g>
 <defs>
  <clipPath id="p03eff884ab">
   <rect height="163.08" width="446.4" x="72" y="25.92"/>
  </clipPath>
 </defs>
</svg>
