<?xml version="1.0" encoding="utf-8" standalone="no"?>
<!DOCTYPE svg PUBLIC "-//W3C//DTD SVG 1.1//EN"
  "http://www.w3.org/Graphics/SVG/1.1/DTD/svg11.dtd">
<svg height="320.22468pt" version="1.1" viewBox="0 0 506.752166 320.22468" width="506.752166pt" xmlns="http://www.w3.org/2000/svg" xmlns:xlink="http://www.w3.org/1999/xlink">
 <metadata>
  <rdf:RDF xmlns:cc="http://creativecommons.org/ns#" xmlns:dc="http://purl.org/dc/elements/1.1/" xmlns:rdf="http://www.w3.org/1999/02/22-rdf-syntax-ns#">
   <cc:Work>
    <dc:type rdf:resource="http://purl.org/dc/dcmitype/StillImage"/>
    <dc:date>2024-09-17T14:24:57.653262</dc:date>
    <dc:format>image/svg+xml</dc:format>
    <dc:creator>
     <cc:Agent>
      <dc:title>Matplotlib v3.4.3, https://matplotlib.org/</dc:title>
     </cc:Agent>
    </dc:creator>
   </cc:Work>
  </rdf:RDF>
 </metadata>
 <defs>
  <style type="text/css">*{stroke-linecap:butt;stroke-linejoin:round;}</style>
 </defs>
 <g id="figure_1">
  <g id="patch_1">
   <path d="M 0 320.22468 
L 506.752166 320.22468 
L 506.752166 0 
L 0 0 
z
" style="fill:none;"/>
  </g>
  <g id="axes_1">
   <g id="patch_2">
    <path d="M 53.152166 279 
L 499.552166 279 
L 499.552166 7.2 
L 53.152166 7.2 
z
" style="fill:#ffffff;"/>
   </g>
   <g id="matplotlib.axis_1">
    <g id="xtick_1">
     <g id="line2d_1">
      <path clip-path="url(#pebf3a02526)" d="M 73.443075 279 
L 73.443075 7.2 
" style="fill:none;stroke:#b0b0b0;stroke-linecap:square;stroke-width:0.8;"/>
     </g>
     <g id="line2d_2">
      <defs>
       <path d="M 0 0 
L 0 3.5 
" id="mf2ae0d1909" style="stroke:#000000;stroke-width:0.8;"/>
      </defs>
      <g>
       <use style="stroke:#000000;stroke-width:0.8;" x="73.443075" xlink:href="#mf2ae0d1909" y="279"/>
      </g>
     </g>
     <g id="text_1">
      <!-- $\mathdefault{0.0}$ -->
      <g transform="translate(65.964254 294.30218)scale(0.12 -0.12)">
       <defs>
        <path d="M 2688 2038 
C 2688 2430 2682 3099 2413 3613 
C 2176 4063 1798 4224 1466 4224 
C 1158 4224 768 4082 525 3620 
C 269 3137 243 2539 243 2038 
C 243 1671 250 1112 448 623 
C 723 -39 1216 -128 1466 -128 
C 1760 -128 2208 -7 2470 604 
C 2662 1048 2688 1568 2688 2038 
z
M 1466 -26 
C 1056 -26 813 328 723 816 
C 653 1196 653 1749 653 2109 
C 653 2604 653 3015 736 3407 
C 858 3954 1216 4121 1466 4121 
C 1728 4121 2067 3947 2189 3420 
C 2272 3054 2278 2623 2278 2109 
C 2278 1691 2278 1176 2202 797 
C 2067 96 1690 -26 1466 -26 
z
" id="CMR17-30" transform="scale(0.015625)"/>
        <path d="M 1178 307 
C 1178 492 1024 620 870 620 
C 685 620 557 467 557 313 
C 557 128 710 0 864 0 
C 1050 0 1178 153 1178 307 
z
" id="CMMI12-3a" transform="scale(0.015625)"/>
       </defs>
       <use transform="scale(0.996264)" xlink:href="#CMR17-30"/>
       <use transform="translate(45.690477 0)scale(0.996264)" xlink:href="#CMMI12-3a"/>
       <use transform="translate(72.787654 0)scale(0.996264)" xlink:href="#CMR17-30"/>
      </g>
     </g>
    </g>
    <g id="xtick_2">
     <g id="line2d_3">
      <path clip-path="url(#pebf3a02526)" d="M 154.765544 279 
L 154.765544 7.2 
" style="fill:none;stroke:#b0b0b0;stroke-linecap:square;stroke-width:0.8;"/>
     </g>
     <g id="line2d_4">
      <g>
       <use style="stroke:#000000;stroke-width:0.8;" x="154.765544" xlink:href="#mf2ae0d1909" y="279"/>
      </g>
     </g>
     <g id="text_2">
      <!-- $\mathdefault{0.1}$ -->
      <g transform="translate(147.286724 294.30218)scale(0.12 -0.12)">
       <defs>
        <path d="M 1702 4083 
C 1702 4217 1696 4224 1606 4224 
C 1357 3927 979 3833 621 3820 
C 602 3820 570 3820 563 3808 
C 557 3795 557 3782 557 3648 
C 755 3648 1088 3686 1344 3839 
L 1344 467 
C 1344 243 1331 166 781 166 
L 589 166 
L 589 0 
C 896 6 1216 12 1523 12 
C 1830 12 2150 6 2458 0 
L 2458 166 
L 2266 166 
C 1715 166 1702 236 1702 467 
L 1702 4083 
z
" id="CMR17-31" transform="scale(0.015625)"/>
       </defs>
       <use transform="scale(0.996264)" xlink:href="#CMR17-30"/>
       <use transform="translate(45.690477 0)scale(0.996264)" xlink:href="#CMMI12-3a"/>
       <use transform="translate(72.787654 0)scale(0.996264)" xlink:href="#CMR17-31"/>
      </g>
     </g>
    </g>
    <g id="xtick_3">
     <g id="line2d_5">
      <path clip-path="url(#pebf3a02526)" d="M 236.088014 279 
L 236.088014 7.2 
" style="fill:none;stroke:#b0b0b0;stroke-linecap:square;stroke-width:0.8;"/>
     </g>
     <g id="line2d_6">
      <g>
       <use style="stroke:#000000;stroke-width:0.8;" x="236.088014" xlink:href="#mf2ae0d1909" y="279"/>
      </g>
     </g>
     <g id="text_3">
      <!-- $\mathdefault{0.2}$ -->
      <g transform="translate(228.609193 294.30218)scale(0.12 -0.12)">
       <defs>
        <path d="M 2669 990 
L 2554 990 
C 2490 537 2438 460 2413 422 
C 2381 371 1920 371 1830 371 
L 602 371 
C 832 620 1280 1073 1824 1596 
C 2214 1966 2669 2400 2669 3033 
C 2669 3788 2067 4224 1395 4224 
C 691 4224 262 3603 262 3027 
C 262 2777 448 2745 525 2745 
C 589 2745 781 2783 781 3007 
C 781 3206 614 3264 525 3264 
C 486 3264 448 3257 422 3244 
C 544 3788 915 4057 1306 4057 
C 1862 4057 2227 3616 2227 3033 
C 2227 2477 1901 1998 1536 1583 
L 262 147 
L 262 0 
L 2515 0 
L 2669 990 
z
" id="CMR17-32" transform="scale(0.015625)"/>
       </defs>
       <use transform="scale(0.996264)" xlink:href="#CMR17-30"/>
       <use transform="translate(45.690477 0)scale(0.996264)" xlink:href="#CMMI12-3a"/>
       <use transform="translate(72.787654 0)scale(0.996264)" xlink:href="#CMR17-32"/>
      </g>
     </g>
    </g>
    <g id="xtick_4">
     <g id="line2d_7">
      <path clip-path="url(#pebf3a02526)" d="M 317.410483 279 
L 317.410483 7.2 
" style="fill:none;stroke:#b0b0b0;stroke-linecap:square;stroke-width:0.8;"/>
     </g>
     <g id="line2d_8">
      <g>
       <use style="stroke:#000000;stroke-width:0.8;" x="317.410483" xlink:href="#mf2ae0d1909" y="279"/>
      </g>
     </g>
     <g id="text_4">
      <!-- $\mathdefault{0.3}$ -->
      <g transform="translate(309.931662 294.30218)scale(0.12 -0.12)">
       <defs>
        <path d="M 1414 2176 
C 1984 2176 2234 1673 2234 1094 
C 2234 322 1824 25 1453 25 
C 1114 25 563 193 390 691 
C 422 678 454 678 486 678 
C 640 678 755 780 755 947 
C 755 1132 614 1216 486 1216 
C 378 1216 211 1164 211 927 
C 211 335 787 -128 1466 -128 
C 2176 -128 2720 432 2720 1087 
C 2720 1718 2208 2176 1600 2246 
C 2086 2347 2554 2776 2554 3353 
C 2554 3856 2048 4224 1472 4224 
C 890 4224 378 3862 378 3347 
C 378 3123 544 3084 627 3084 
C 762 3084 877 3167 877 3334 
C 877 3500 762 3584 627 3584 
C 602 3584 570 3584 544 3571 
C 730 3999 1235 4076 1459 4076 
C 1683 4076 2106 3966 2106 3347 
C 2106 3167 2080 2851 1862 2574 
C 1670 2329 1453 2316 1242 2297 
C 1210 2297 1062 2284 1037 2284 
C 992 2278 966 2272 966 2227 
C 966 2182 973 2176 1101 2176 
L 1414 2176 
z
" id="CMR17-33" transform="scale(0.015625)"/>
       </defs>
       <use transform="scale(0.996264)" xlink:href="#CMR17-30"/>
       <use transform="translate(45.690477 0)scale(0.996264)" xlink:href="#CMMI12-3a"/>
       <use transform="translate(72.787654 0)scale(0.996264)" xlink:href="#CMR17-33"/>
      </g>
     </g>
    </g>
    <g id="xtick_5">
     <g id="line2d_9">
      <path clip-path="url(#pebf3a02526)" d="M 398.732952 279 
L 398.732952 7.2 
" style="fill:none;stroke:#b0b0b0;stroke-linecap:square;stroke-width:0.8;"/>
     </g>
     <g id="line2d_10">
      <g>
       <use style="stroke:#000000;stroke-width:0.8;" x="398.732952" xlink:href="#mf2ae0d1909" y="279"/>
      </g>
     </g>
     <g id="text_5">
      <!-- $\mathdefault{0.4}$ -->
      <g transform="translate(391.254132 294.30218)scale(0.12 -0.12)">
       <defs>
        <path d="M 2150 4147 
C 2150 4281 2144 4288 2029 4288 
L 128 1254 
L 128 1088 
L 1779 1088 
L 1779 460 
C 1779 230 1766 166 1318 166 
L 1197 166 
L 1197 0 
C 1402 12 1747 12 1965 12 
C 2182 12 2528 12 2733 0 
L 2733 166 
L 2611 166 
C 2163 166 2150 230 2150 460 
L 2150 1088 
L 2803 1088 
L 2803 1254 
L 2150 1254 
L 2150 4147 
z
M 1798 3723 
L 1798 1254 
L 256 1254 
L 1798 3723 
z
" id="CMR17-34" transform="scale(0.015625)"/>
       </defs>
       <use transform="scale(0.996264)" xlink:href="#CMR17-30"/>
       <use transform="translate(45.690477 0)scale(0.996264)" xlink:href="#CMMI12-3a"/>
       <use transform="translate(72.787654 0)scale(0.996264)" xlink:href="#CMR17-34"/>
      </g>
     </g>
    </g>
    <g id="xtick_6">
     <g id="line2d_11">
      <path clip-path="url(#pebf3a02526)" d="M 480.055422 279 
L 480.055422 7.2 
" style="fill:none;stroke:#b0b0b0;stroke-linecap:square;stroke-width:0.8;"/>
     </g>
     <g id="line2d_12">
      <g>
       <use style="stroke:#000000;stroke-width:0.8;" x="480.055422" xlink:href="#mf2ae0d1909" y="279"/>
      </g>
     </g>
     <g id="text_6">
      <!-- $\mathdefault{0.5}$ -->
      <g transform="translate(472.576601 294.30218)scale(0.12 -0.12)">
       <defs>
        <path d="M 730 3750 
C 794 3724 1056 3641 1325 3641 
C 1920 3641 2246 3961 2432 4140 
C 2432 4191 2432 4224 2394 4224 
C 2387 4224 2374 4224 2323 4198 
C 2099 4102 1837 4032 1517 4032 
C 1325 4032 1037 4055 723 4191 
C 653 4224 640 4224 634 4224 
C 602 4224 595 4217 595 4090 
L 595 2231 
C 595 2113 595 2080 659 2080 
C 691 2080 704 2093 736 2139 
C 941 2435 1222 2560 1542 2560 
C 1766 2560 2246 2415 2246 1293 
C 2246 1087 2246 716 2054 422 
C 1894 159 1645 25 1370 25 
C 947 25 518 319 403 812 
C 429 806 480 793 506 793 
C 589 793 749 838 749 1036 
C 749 1209 627 1280 506 1280 
C 358 1280 262 1190 262 1011 
C 262 454 704 -128 1382 -128 
C 2042 -128 2669 441 2669 1267 
C 2669 2054 2170 2662 1549 2662 
C 1222 2662 947 2540 730 2304 
L 730 3750 
z
" id="CMR17-35" transform="scale(0.015625)"/>
       </defs>
       <use transform="scale(0.996264)" xlink:href="#CMR17-30"/>
       <use transform="translate(45.690477 0)scale(0.996264)" xlink:href="#CMMI12-3a"/>
       <use transform="translate(72.787654 0)scale(0.996264)" xlink:href="#CMR17-35"/>
      </g>
     </g>
    </g>
    <g id="text_7">
     <!-- fréquence réduite -->
     <g transform="translate(225.138501 310.312652)scale(0.14 -0.14)">
      <defs>
       <path d="M 979 2585 
L 1709 2585 
L 1709 2752 
L 966 2752 
L 966 3539 
C 966 4076 1235 4377 1510 4377 
C 1594 4377 1690 4363 1754 4339 
C 1702 4326 1568 4281 1568 4121 
C 1568 3955 1696 3904 1786 3904 
C 1875 3904 2003 3955 2003 4121 
C 2003 4353 1773 4480 1517 4480 
C 1152 4480 653 4211 653 3526 
L 653 2752 
L 141 2752 
L 141 2585 
L 653 2585 
L 653 441 
C 653 198 627 166 218 166 
L 218 0 
C 371 12 666 12 832 12 
C 1018 12 1344 12 1517 0 
L 1517 166 
C 1056 166 979 166 979 454 
L 979 2585 
z
" id="CMR17-66" transform="scale(0.015625)"/>
       <path d="M 960 1517 
C 960 2134 1222 2713 1702 2713 
C 1747 2713 1792 2707 1837 2687 
C 1837 2687 1696 2642 1696 2475 
C 1696 2321 1818 2257 1914 2257 
C 1990 2257 2131 2302 2131 2482 
C 2131 2687 1926 2816 1709 2816 
C 1222 2816 1011 2340 947 2115 
L 941 2115 
L 941 2816 
L 198 2745 
L 198 2578 
C 576 2578 634 2540 634 2231 
L 634 443 
C 634 198 608 166 198 166 
L 198 0 
C 352 12 646 12 813 12 
C 998 12 1325 12 1498 0 
L 1498 166 
C 1037 166 960 166 960 455 
L 960 1517 
z
" id="CMR17-72" transform="scale(0.015625)"/>
       <path d="M 2221 4157 
C 2298 4226 2317 4239 2317 4308 
C 2317 4403 2234 4480 2144 4480 
C 2067 4480 2042 4447 1978 4371 
L 1254 3468 
C 1210 3411 1210 3404 1210 3398 
C 1210 3391 1267 3334 1280 3321 
L 2221 4157 
z
" id="CMR17-13" transform="scale(0.015625)"/>
       <path d="M 2438 1503 
C 2464 1529 2464 1542 2464 1606 
C 2464 2251 2118 2816 1389 2816 
C 710 2816 173 2175 173 1394 
C 173 554 781 -64 1459 -64 
C 2176 -64 2458 619 2458 755 
C 2458 800 2419 800 2406 800 
C 2362 800 2355 787 2330 709 
C 2189 270 1837 51 1504 51 
C 1229 51 954 206 781 490 
C 582 819 582 1200 582 1503 
L 2438 1503 
z
M 589 1600 
C 634 2511 1126 2713 1382 2713 
C 1818 2713 2112 2308 2118 1600 
L 589 1600 
z
" id="CMR17-65" transform="scale(0.015625)"/>
       <path d="M 2630 2816 
L 2528 2816 
L 2336 2177 
C 2189 2519 1920 2816 1491 2816 
C 838 2816 211 2228 211 1376 
C 211 529 800 -64 1440 -64 
C 1933 -64 2208 316 2291 458 
L 2291 -834 
C 2291 -1081 2266 -1114 1856 -1114 
L 1856 -1280 
C 2010 -1268 2291 -1268 2458 -1268 
C 2624 -1268 2912 -1268 3066 -1280 
L 3066 -1114 
C 2656 -1114 2630 -1088 2630 -834 
L 2630 2816 
z
M 2304 871 
C 2304 594 2074 335 2054 316 
C 1856 90 1626 38 1472 38 
C 992 38 621 652 621 1369 
C 621 2125 1043 2700 1536 2700 
C 2048 2700 2304 2112 2304 1776 
L 2304 871 
z
" id="CMR17-71" transform="scale(0.015625)"/>
       <path d="M 1882 2745 
L 1882 2579 
C 2259 2579 2317 2540 2317 2229 
L 2317 1053 
C 2317 510 2029 38 1555 38 
C 1030 38 986 355 986 691 
L 986 2816 
L 211 2745 
L 211 2579 
C 467 2579 640 2579 646 2320 
L 646 1079 
C 646 646 646 368 813 187 
C 896 103 1056 -64 1517 -64 
C 2061 -64 2272 400 2323 536 
L 2330 536 
L 2330 -64 
L 3091 -13 
L 3091 154 
C 2714 154 2656 193 2656 503 
L 2656 2816 
L 1882 2745 
z
" id="CMR17-75" transform="scale(0.015625)"/>
       <path d="M 2656 1954 
C 2656 2282 2592 2816 1837 2816 
C 1331 2816 1069 2424 973 2166 
L 966 2166 
L 966 2816 
L 211 2745 
L 211 2578 
C 589 2578 646 2540 646 2231 
L 646 443 
C 646 198 621 166 211 166 
L 211 0 
C 365 12 646 12 813 12 
C 979 12 1267 12 1421 0 
L 1421 166 
C 1011 166 986 192 986 443 
L 986 1678 
C 986 2269 1344 2713 1792 2713 
C 2266 2713 2317 2289 2317 1980 
L 2317 443 
C 2317 198 2291 166 1882 166 
L 1882 0 
C 2035 12 2317 12 2483 12 
C 2650 12 2938 12 3091 0 
L 3091 166 
C 2682 166 2656 192 2656 443 
L 2656 1954 
z
" id="CMR17-6e" transform="scale(0.015625)"/>
       <path d="M 2234 2240 
C 2112 2240 1933 2240 1933 2015 
C 1933 1836 2080 1785 2163 1785 
C 2208 1785 2394 1804 2394 2028 
C 2394 2476 1958 2816 1466 2816 
C 787 2816 211 2201 211 1379 
C 211 521 813 -64 1466 -64 
C 2259 -64 2458 676 2458 747 
C 2458 773 2451 792 2406 792 
C 2362 792 2355 786 2330 702 
C 2163 180 1798 51 1523 51 
C 1114 51 621 431 621 1385 
C 621 2358 1094 2700 1472 2700 
C 1722 2700 2093 2582 2234 2240 
z
" id="CMR17-63" transform="scale(0.015625)"/>
       <path d="M 1869 4345 
L 1869 4179 
C 2246 4179 2304 4141 2304 3843 
L 2304 2371 
C 2278 2403 2016 2816 1498 2816 
C 845 2816 211 2228 211 1376 
C 211 529 806 -64 1434 -64 
C 1978 -64 2259 361 2291 406 
L 2291 -64 
L 3066 -13 
L 3066 154 
C 2688 154 2630 193 2630 503 
L 2630 4416 
L 1869 4345 
z
M 2291 762 
C 2291 568 2176 393 2029 264 
C 1811 70 1594 38 1472 38 
C 1286 38 621 135 621 1369 
C 621 2636 1363 2713 1530 2713 
C 1824 2713 2061 2545 2208 2313 
C 2291 2177 2291 2157 2291 2041 
L 2291 762 
z
" id="CMR17-64" transform="scale(0.015625)"/>
       <path d="M 992 3961 
C 992 4102 877 4224 730 4224 
C 589 4224 467 4108 467 3961 
C 467 3820 582 3699 730 3699 
C 870 3699 992 3814 992 3961 
z
M 243 2745 
L 243 2579 
C 602 2579 653 2540 653 2231 
L 653 443 
C 653 198 627 166 218 166 
L 218 0 
C 371 12 646 12 806 12 
C 960 12 1222 12 1370 0 
L 1370 166 
C 992 166 979 205 979 436 
L 979 2816 
L 243 2745 
z
" id="CMR17-69" transform="scale(0.015625)"/>
       <path d="M 966 2585 
L 1862 2585 
L 1862 2752 
L 966 2752 
L 966 3968 
L 851 3968 
C 838 3292 614 2700 70 2687 
L 70 2585 
L 627 2585 
L 627 778 
C 627 655 627 -64 1370 -64 
C 1747 -64 1965 308 1965 784 
L 1965 1151 
L 1850 1151 
L 1850 790 
C 1850 347 1677 51 1408 51 
C 1222 51 966 179 966 765 
L 966 2585 
z
" id="CMR17-74" transform="scale(0.015625)"/>
      </defs>
      <use transform="scale(0.996264)" xlink:href="#CMR17-66"/>
      <use transform="translate(27.473512 0)scale(0.996264)" xlink:href="#CMR17-72"/>
      <use transform="translate(60.151872 0)scale(0.996264)" xlink:href="#CMR17-13"/>
      <use transform="translate(62.75428 0)scale(0.996264)" xlink:href="#CMR17-65"/>
      <use transform="translate(103.239941 0)scale(0.996264)" xlink:href="#CMR17-71"/>
      <use transform="translate(151.532857 0)scale(0.996264)" xlink:href="#CMR17-75"/>
      <use transform="translate(202.428226 0)scale(0.996264)" xlink:href="#CMR17-65"/>
      <use transform="translate(242.913887 0)scale(0.996264)" xlink:href="#CMR17-6e"/>
      <use transform="translate(293.809257 0)scale(0.996264)" xlink:href="#CMR17-63"/>
      <use transform="translate(334.294917 0)scale(0.996264)" xlink:href="#CMR17-65"/>
      <use transform="translate(404.856544 0)scale(0.996264)" xlink:href="#CMR17-72"/>
      <use transform="translate(437.534903 0)scale(0.996264)" xlink:href="#CMR17-13"/>
      <use transform="translate(440.137312 0)scale(0.996264)" xlink:href="#CMR17-65"/>
      <use transform="translate(480.622972 0)scale(0.996264)" xlink:href="#CMR17-64"/>
      <use transform="translate(531.518342 0)scale(0.996264)" xlink:href="#CMR17-75"/>
      <use transform="translate(582.413712 0)scale(0.996264)" xlink:href="#CMR17-69"/>
      <use transform="translate(607.28477 0)scale(0.996264)" xlink:href="#CMR17-74"/>
      <use transform="translate(642.565538 0)scale(0.996264)" xlink:href="#CMR17-65"/>
     </g>
    </g>
   </g>
   <g id="matplotlib.axis_2">
    <g id="ytick_1">
     <g id="line2d_13">
      <path clip-path="url(#pebf3a02526)" d="M 53.152166 232.313773 
L 499.552166 232.313773 
" style="fill:none;stroke:#b0b0b0;stroke-linecap:square;stroke-width:0.8;"/>
     </g>
     <g id="line2d_14">
      <defs>
       <path d="M 0 0 
L -3.5 0 
" id="mb820cb59a6" style="stroke:#000000;stroke-width:0.8;"/>
      </defs>
      <g>
       <use style="stroke:#000000;stroke-width:0.8;" x="53.152166" xlink:href="#mb820cb59a6" y="232.313773"/>
      </g>
     </g>
     <g id="text_8">
      <!-- $\mathdefault{−80}$ -->
      <g transform="translate(25.147696 236.464863)scale(0.12 -0.12)">
       <defs>
        <path d="M 4218 1472 
C 4326 1472 4442 1472 4442 1600 
C 4442 1728 4326 1728 4218 1728 
L 755 1728 
C 646 1728 531 1728 531 1600 
C 531 1472 646 1472 755 1472 
L 4218 1472 
z
" id="CMSY10-0" transform="scale(0.015625)"/>
        <path d="M 1741 2289 
C 2144 2494 2554 2803 2554 3298 
C 2554 3884 1990 4224 1472 4224 
C 890 4224 378 3800 378 3215 
C 378 3054 416 2777 666 2533 
C 730 2469 998 2276 1171 2154 
C 883 2006 211 1652 211 945 
C 211 282 838 -128 1459 -128 
C 2144 -128 2720 366 2720 1022 
C 2720 1607 2330 1877 2074 2051 
L 1741 2289 
z
M 902 2855 
C 851 2887 595 3086 595 3388 
C 595 3781 998 4076 1459 4076 
C 1965 4076 2336 3716 2336 3298 
C 2336 2700 1670 2359 1638 2359 
C 1632 2359 1626 2359 1574 2398 
L 902 2855 
z
M 2080 1536 
C 2176 1466 2483 1253 2483 861 
C 2483 385 2010 25 1472 25 
C 890 25 448 443 448 951 
C 448 1459 838 1884 1280 2083 
L 2080 1536 
z
" id="CMR17-38" transform="scale(0.015625)"/>
       </defs>
       <use transform="scale(0.996264)" xlink:href="#CMSY10-0"/>
       <use transform="translate(77.487468 0)scale(0.996264)" xlink:href="#CMR17-38"/>
       <use transform="translate(123.177945 0)scale(0.996264)" xlink:href="#CMR17-30"/>
      </g>
     </g>
    </g>
    <g id="ytick_2">
     <g id="line2d_15">
      <path clip-path="url(#pebf3a02526)" d="M 53.152166 179.651654 
L 499.552166 179.651654 
" style="fill:none;stroke:#b0b0b0;stroke-linecap:square;stroke-width:0.8;"/>
     </g>
     <g id="line2d_16">
      <g>
       <use style="stroke:#000000;stroke-width:0.8;" x="53.152166" xlink:href="#mb820cb59a6" y="179.651654"/>
      </g>
     </g>
     <g id="text_9">
      <!-- $\mathdefault{−60}$ -->
      <g transform="translate(25.147696 183.802744)scale(0.12 -0.12)">
       <defs>
        <path d="M 678 2198 
C 678 3712 1395 4076 1811 4076 
C 1946 4076 2272 4049 2400 3782 
C 2298 3782 2106 3782 2106 3558 
C 2106 3385 2246 3328 2336 3328 
C 2394 3328 2566 3353 2566 3571 
C 2566 3987 2246 4224 1805 4224 
C 1043 4224 243 3411 243 2011 
C 243 257 966 -128 1478 -128 
C 2099 -128 2688 431 2688 1295 
C 2688 2101 2170 2688 1517 2688 
C 1126 2688 838 2430 678 1979 
L 678 2198 
z
M 1478 25 
C 691 25 691 1212 691 1450 
C 691 1914 909 2585 1504 2585 
C 1613 2585 1926 2585 2138 2140 
C 2253 1889 2253 1624 2253 1302 
C 2253 954 2253 696 2118 438 
C 1978 173 1773 25 1478 25 
z
" id="CMR17-36" transform="scale(0.015625)"/>
       </defs>
       <use transform="scale(0.996264)" xlink:href="#CMSY10-0"/>
       <use transform="translate(77.487468 0)scale(0.996264)" xlink:href="#CMR17-36"/>
       <use transform="translate(123.177945 0)scale(0.996264)" xlink:href="#CMR17-30"/>
      </g>
     </g>
    </g>
    <g id="ytick_3">
     <g id="line2d_17">
      <path clip-path="url(#pebf3a02526)" d="M 53.152166 126.989535 
L 499.552166 126.989535 
" style="fill:none;stroke:#b0b0b0;stroke-linecap:square;stroke-width:0.8;"/>
     </g>
     <g id="line2d_18">
      <g>
       <use style="stroke:#000000;stroke-width:0.8;" x="53.152166" xlink:href="#mb820cb59a6" y="126.989535"/>
      </g>
     </g>
     <g id="text_10">
      <!-- $\mathdefault{−40}$ -->
      <g transform="translate(25.147696 131.140625)scale(0.12 -0.12)">
       <use transform="scale(0.996264)" xlink:href="#CMSY10-0"/>
       <use transform="translate(77.487468 0)scale(0.996264)" xlink:href="#CMR17-34"/>
       <use transform="translate(123.177945 0)scale(0.996264)" xlink:href="#CMR17-30"/>
      </g>
     </g>
    </g>
    <g id="ytick_4">
     <g id="line2d_19">
      <path clip-path="url(#pebf3a02526)" d="M 53.152166 74.327416 
L 499.552166 74.327416 
" style="fill:none;stroke:#b0b0b0;stroke-linecap:square;stroke-width:0.8;"/>
     </g>
     <g id="line2d_20">
      <g>
       <use style="stroke:#000000;stroke-width:0.8;" x="53.152166" xlink:href="#mb820cb59a6" y="74.327416"/>
      </g>
     </g>
     <g id="text_11">
      <!-- $\mathdefault{−20}$ -->
      <g transform="translate(25.147696 78.478505)scale(0.12 -0.12)">
       <use transform="scale(0.996264)" xlink:href="#CMSY10-0"/>
       <use transform="translate(77.487468 0)scale(0.996264)" xlink:href="#CMR17-32"/>
       <use transform="translate(123.177945 0)scale(0.996264)" xlink:href="#CMR17-30"/>
      </g>
     </g>
    </g>
    <g id="ytick_5">
     <g id="line2d_21">
      <path clip-path="url(#pebf3a02526)" d="M 53.152166 21.665297 
L 499.552166 21.665297 
" style="fill:none;stroke:#b0b0b0;stroke-linecap:square;stroke-width:0.8;"/>
     </g>
     <g id="line2d_22">
      <g>
       <use style="stroke:#000000;stroke-width:0.8;" x="53.152166" xlink:href="#mb820cb59a6" y="21.665297"/>
      </g>
     </g>
     <g id="text_12">
      <!-- $\mathdefault{0}$ -->
      <g transform="translate(40.299176 25.816386)scale(0.12 -0.12)">
       <use transform="scale(0.996264)" xlink:href="#CMR17-30"/>
      </g>
     </g>
    </g>
    <g id="text_13">
     <!-- $20 \log_{10}(|H(f)|)$ -->
     <g transform="translate(17.660772 189.980609)rotate(-90)scale(0.14 -0.14)">
      <defs>
       <path d="M 979 4416 
L 218 4345 
L 218 4179 
C 595 4179 653 4141 653 3835 
L 653 439 
C 653 198 627 166 218 166 
L 218 0 
C 371 12 653 12 813 12 
C 979 12 1261 12 1414 0 
L 1414 166 
C 1005 166 979 191 979 439 
L 979 4416 
z
" id="CMR17-6c" transform="scale(0.015625)"/>
       <path d="M 2758 1356 
C 2758 2176 2163 2816 1466 2816 
C 768 2816 173 2176 173 1356 
C 173 550 768 -64 1466 -64 
C 2163 -64 2758 550 2758 1356 
z
M 1466 51 
C 1165 51 909 230 762 480 
C 602 768 582 1126 582 1408 
C 582 1676 595 2009 762 2297 
C 890 2508 1139 2713 1466 2713 
C 1754 2713 1997 2553 2150 2329 
C 2349 2028 2349 1606 2349 1408 
C 2349 1158 2336 774 2163 467 
C 1984 172 1709 51 1466 51 
z
" id="CMR17-6f" transform="scale(0.015625)"/>
       <path d="M 710 1165 
C 832 1068 1043 960 1299 960 
C 1805 960 2240 1359 2240 1895 
C 2240 2063 2189 2321 1997 2521 
C 2176 2713 2438 2777 2586 2777 
C 2611 2777 2650 2777 2682 2758 
C 2656 2751 2598 2726 2598 2623 
C 2598 2540 2656 2483 2739 2483 
C 2835 2483 2886 2547 2886 2630 
C 2886 2751 2790 2880 2586 2880 
C 2330 2880 2106 2758 1926 2591 
C 1734 2764 1504 2828 1299 2828 
C 794 2828 358 2431 358 1895 
C 358 1527 570 1294 634 1230 
C 442 1004 442 742 442 710 
C 442 544 506 300 723 166 
C 390 82 128 -184 128 -517 
C 128 -996 736 -1344 1466 -1344 
C 2170 -1344 2803 -1009 2803 -510 
C 2803 384 1856 384 1363 384 
C 1216 384 954 384 922 390 
C 723 422 589 601 589 825 
C 589 883 589 1024 710 1165 
z
M 1299 1068 
C 736 1068 736 1766 736 1895 
C 736 2024 736 2719 1299 2719 
C 1862 2719 1862 2024 1862 1895 
C 1862 1766 1862 1068 1299 1068 
z
M 1466 -1236 
C 826 -1236 384 -883 384 -517 
C 384 -311 493 -118 634 -11 
C 794 102 858 102 1293 102 
C 1818 102 2547 102 2547 -517 
C 2547 -883 2106 -1236 1466 -1236 
z
" id="CMR17-67" transform="scale(0.015625)"/>
       <path d="M 1958 -1562 
C 1958 -1556 1958 -1543 1939 -1524 
C 1645 -1223 858 -403 858 1596 
C 858 3595 1632 4408 1946 4729 
C 1946 4735 1958 4748 1958 4767 
C 1958 4787 1939 4800 1914 4800 
C 1843 4800 1299 4325 986 3620 
C 666 2909 576 2218 576 1603 
C 576 1141 621 360 1005 -467 
C 1312 -1133 1837 -1600 1914 -1600 
C 1946 -1600 1958 -1588 1958 -1562 
z
" id="CMR17-28" transform="scale(0.015625)"/>
       <path d="M 1018 4569 
C 1018 4684 1018 4800 890 4800 
C 762 4800 762 4684 762 4569 
L 762 -1370 
C 762 -1485 762 -1600 890 -1600 
C 1018 -1600 1018 -1485 1018 -1370 
L 1018 4569 
z
" id="CMSY10-6a" transform="scale(0.015625)"/>
       <path d="M 4787 3886 
C 4845 4102 4858 4166 5312 4166 
C 5427 4166 5491 4166 5491 4281 
C 5491 4352 5434 4352 5395 4352 
C 5280 4352 5146 4339 5024 4339 
L 4269 4339 
C 4147 4339 4013 4352 3891 4352 
C 3846 4352 3770 4352 3770 4230 
C 3770 4166 3814 4166 3936 4166 
C 4320 4166 4320 4115 4320 4045 
C 4320 4032 4320 3994 4294 3899 
L 3904 2361 
L 1971 2361 
L 2355 3886 
C 2413 4102 2426 4166 2880 4166 
C 2995 4166 3059 4166 3059 4281 
C 3059 4352 3002 4352 2963 4352 
C 2848 4352 2714 4339 2592 4339 
L 1837 4339 
C 1715 4339 1581 4352 1459 4352 
C 1414 4352 1338 4352 1338 4230 
C 1338 4166 1382 4166 1504 4166 
C 1888 4166 1888 4115 1888 4045 
C 1888 4032 1888 3994 1862 3899 
L 998 472 
C 941 249 928 185 486 185 
C 339 185 294 185 294 64 
C 294 0 365 0 384 0 
C 499 0 634 12 755 12 
L 1510 12 
C 1632 12 1766 0 1888 0 
C 1939 0 2010 0 2010 121 
C 2010 185 1952 185 1856 185 
C 1466 185 1466 236 1466 300 
C 1466 306 1466 351 1478 402 
L 1920 2176 
L 3859 2176 
C 3750 1755 3424 421 3411 383 
C 3341 191 3238 191 2861 185 
C 2784 185 2726 185 2726 64 
C 2726 0 2797 0 2816 0 
C 2931 0 3066 12 3187 12 
L 3942 12 
C 4064 12 4198 0 4320 0 
C 4371 0 4442 0 4442 121 
C 4442 185 4384 185 4288 185 
C 3898 185 3898 236 3898 300 
C 3898 306 3898 351 3910 402 
L 4787 3886 
z
" id="CMMI12-48" transform="scale(0.015625)"/>
       <path d="M 2854 2566 
C 2982 2566 3034 2566 3034 2687 
C 3034 2752 2982 2752 2867 2752 
L 2349 2752 
C 2470 3398 2560 3846 2611 4051 
C 2650 4204 2784 4351 2950 4351 
C 3085 4351 3219 4294 3283 4236 
C 3034 4211 2957 4025 2957 3916 
C 2957 3788 3053 3712 3174 3712 
C 3302 3712 3494 3820 3494 4064 
C 3494 4332 3226 4480 2944 4480 
C 2669 4480 2400 4275 2272 4025 
C 2157 3801 2093 3573 1946 2752 
L 1517 2752 
C 1395 2752 1331 2752 1331 2636 
C 1331 2566 1370 2566 1498 2566 
L 1907 2566 
C 1792 1977 1530 545 1382 -132 
C 1274 -685 1178 -1152 858 -1152 
C 838 -1152 653 -1152 538 -1031 
C 864 -1005 864 -724 864 -717 
C 864 -589 768 -512 646 -512 
C 518 -512 326 -621 326 -865 
C 326 -1140 608 -1280 858 -1280 
C 1510 -1280 1779 -113 1850 203 
C 1965 691 2278 2376 2310 2566 
L 2854 2566 
z
" id="CMMI12-66" transform="scale(0.015625)"/>
       <path d="M 1683 1596 
C 1683 2057 1638 2839 1254 3665 
C 947 4332 422 4800 346 4800 
C 326 4800 301 4793 301 4761 
C 301 4748 307 4742 314 4729 
C 621 4408 1402 3595 1402 1603 
C 1402 -396 627 -1210 314 -1530 
C 307 -1543 301 -1549 301 -1562 
C 301 -1594 326 -1600 346 -1600 
C 416 -1600 960 -1127 1274 -422 
C 1594 289 1683 981 1683 1596 
z
" id="CMR17-29" transform="scale(0.015625)"/>
      </defs>
      <use transform="scale(0.996264)" xlink:href="#CMR17-32"/>
      <use transform="translate(45.690477 0)scale(0.996264)" xlink:href="#CMR17-30"/>
      <use transform="translate(107.985359 0)scale(0.996264)" xlink:href="#CMR17-6c"/>
      <use transform="translate(132.856418 0)scale(0.996264)" xlink:href="#CMR17-6f"/>
      <use transform="translate(178.546895 0)scale(0.996264)" xlink:href="#CMR17-67"/>
      <use transform="translate(225.538538 -22.865092)scale(0.697382)" xlink:href="#CMR17-31"/>
      <use transform="translate(257.52172 -22.865092)scale(0.697382)" xlink:href="#CMR17-30"/>
      <use transform="translate(290.003034 0)scale(0.996264)" xlink:href="#CMR17-28"/>
      <use transform="translate(325.283802 0)scale(0.996264)" xlink:href="#CMSY10-6a"/>
      <use transform="translate(352.957887 0)scale(0.996264)" xlink:href="#CMMI12-48"/>
      <use transform="translate(441.479659 0)scale(0.996264)" xlink:href="#CMR17-28"/>
      <use transform="translate(476.760427 0)scale(0.996264)" xlink:href="#CMMI12-66"/>
      <use transform="translate(535.480732 0)scale(0.996264)" xlink:href="#CMR17-29"/>
      <use transform="translate(570.7615 0)scale(0.996264)" xlink:href="#CMSY10-6a"/>
      <use transform="translate(598.435585 0)scale(0.996264)" xlink:href="#CMR17-29"/>
     </g>
    </g>
   </g>
   <g id="line2d_23">
    <path clip-path="url(#pebf3a02526)" d="M 73.443075 22.675753 
L 79.796393 22.55232 
L 86.943876 22.159698 
L 109.180488 20.702641 
L 115.533806 20.635989 
L 121.887124 20.815016 
L 128.240442 21.21555 
L 138.564584 22.132182 
L 147.300396 22.814417 
L 152.859549 23.025574 
L 157.624538 23.004965 
L 162.389526 22.782553 
L 167.948679 22.290992 
L 175.096162 21.411801 
L 185.420303 20.124388 
L 190.979457 19.678477 
L 194.95028 19.555384 
L 198.921104 19.640643 
L 202.891928 19.971375 
L 206.068587 20.436505 
L 209.245246 21.099255 
L 212.421905 21.977871 
L 215.598564 23.091631 
L 218.775222 24.461643 
L 221.951881 26.111852 
L 225.12854 28.070373 
L 228.305199 30.371331 
L 230.687694 32.347099 
L 233.070188 34.561838 
L 235.452682 37.043493 
L 237.835176 39.827552 
L 240.21767 42.960282 
L 242.600165 46.503907 
L 244.982659 50.545355 
L 247.365153 55.211997 
L 248.953483 58.763977 
L 250.541812 62.767725 
L 252.130142 67.35425 
L 253.718471 72.730832 
L 255.3068 79.255763 
L 256.100965 83.144647 
L 256.89513 87.635672 
L 257.689295 92.975892 
L 258.483459 99.611112 
L 259.277624 108.480847 
L 260.071789 122.20676 
L 260.865954 156.951016 
L 262.454283 117.683799 
L 263.248448 107.830423 
L 264.042613 101.345692 
L 264.836777 96.607298 
L 265.630942 92.945585 
L 266.425107 90.018697 
L 267.219272 87.628546 
L 268.013436 85.650183 
L 268.807601 83.99985 
L 269.601766 82.618786 
L 271.190095 80.504508 
L 272.778425 79.077209 
L 274.366754 78.199863 
L 275.955084 77.787224 
L 277.543413 77.785925 
L 279.131743 78.164225 
L 280.720072 78.906661 
L 282.308402 80.011599 
L 283.896731 81.490848 
L 285.485061 83.371225 
L 287.07339 85.698563 
L 288.66172 88.5456 
L 290.250049 92.027052 
L 291.838378 96.329861 
L 293.426708 101.780134 
L 294.220873 105.112988 
L 295.015037 109.016095 
L 295.809202 113.70627 
L 296.603367 119.564373 
L 297.397532 127.358037 
L 298.191696 139.04876 
L 298.985861 163.407492 
L 299.780026 166.851702 
L 300.574191 140.914741 
L 301.368355 129.3409 
L 302.16252 121.905783 
L 302.956685 116.486831 
L 303.75085 112.272518 
L 304.545014 108.865114 
L 305.339179 106.03994 
L 306.927509 101.626067 
L 308.515838 98.375825 
L 310.104167 95.956132 
L 311.692497 94.176447 
L 313.280826 92.919732 
L 314.869156 92.111338 
L 316.457485 91.703441 
L 318.045815 91.666788 
L 319.634144 91.986299 
L 321.222474 92.658972 
L 322.810803 93.693469 
L 324.399133 95.111246 
L 325.987462 96.949581 
L 327.575792 99.267449 
L 329.164121 102.156488 
L 330.752451 105.762105 
L 332.34078 110.32749 
L 333.134945 113.095758 
L 333.92911 116.297656 
L 334.723274 120.067097 
L 335.517439 124.618545 
L 336.311604 130.327844 
L 337.105769 137.949715 
L 337.899933 149.399323 
L 338.694098 173.061398 
L 339.488263 178.364748 
L 340.282428 151.573478 
L 341.076592 139.749245 
L 341.870757 132.143883 
L 342.664922 126.581373 
L 343.459087 122.23591 
L 344.253251 118.70432 
L 345.047416 115.759381 
L 346.635746 111.114374 
L 348.224075 107.640188 
L 349.812404 105.001235 
L 351.400734 103.00553 
L 352.989063 101.534997 
L 354.577393 100.514085 
L 356.165722 99.89407 
L 357.754052 99.6447 
L 359.342381 99.749703 
L 360.930711 100.204567 
L 362.51904 101.015965 
L 364.10737 102.202602 
L 365.695699 103.797783 
L 367.284029 105.854458 
L 368.872358 108.454576 
L 370.460688 111.7268 
L 372.049017 115.882503 
L 372.843182 118.398506 
L 373.637347 121.297662 
L 374.431511 124.687563 
L 375.225676 128.734434 
L 376.019841 133.715068 
L 376.814006 140.143205 
L 377.60817 149.152097 
L 378.402335 164.217929 
L 379.1965 224.512438 
L 379.990665 167.952221 
L 380.784829 151.294195 
L 381.578994 141.879394 
L 382.373159 135.340977 
L 383.167324 130.368206 
L 383.961488 126.388229 
L 384.755653 123.098928 
L 386.343982 117.941049 
L 387.932312 114.083243 
L 389.520641 111.130554 
L 391.108971 108.862667 
L 392.6973 107.146086 
L 394.28563 105.895939 
L 395.873959 105.057307 
L 397.462289 104.595402 
L 399.050618 104.490244 
L 400.638948 104.733912 
L 402.227277 105.329519 
L 403.815607 106.29161 
L 405.403936 107.64809 
L 406.992266 109.444269 
L 408.580595 111.75039 
L 410.168925 114.675644 
L 411.757254 118.395824 
L 413.345584 123.21338 
L 414.139748 126.195756 
L 414.933913 129.708732 
L 415.728078 133.942811 
L 416.522243 139.223757 
L 417.316407 146.181169 
L 418.110572 156.304839 
L 418.904737 174.979054 
L 419.698902 205.735415 
L 420.493066 165.485433 
L 421.287231 151.78373 
L 422.081396 143.365988 
L 422.87556 137.316286 
L 423.669725 132.625578 
L 424.46389 128.82342 
L 425.258055 125.652063 
L 426.846384 120.630007 
L 428.434714 116.835307 
L 430.023043 113.906874 
L 431.611373 111.640344 
L 433.199702 109.910767 
L 434.788032 108.638321 
L 436.376361 107.771324 
L 437.964691 107.277227 
L 439.55302 107.137738 
L 441.141349 107.346337 
L 442.729679 107.907443 
L 444.318008 108.836973 
L 445.906338 110.164468 
L 447.494667 111.937427 
L 449.082997 114.229308 
L 450.671326 117.154513 
L 452.259656 120.898149 
L 453.053821 123.168673 
L 453.847985 125.781476 
L 454.64215 128.824588 
L 455.436315 132.429976 
L 456.23048 136.808439 
L 457.024644 142.328045 
L 457.818809 149.723637 
L 458.612974 160.839931 
L 459.407138 183.499163 
L 460.201303 191.836275 
L 460.995468 163.629428 
L 461.789633 151.440909 
L 462.583797 143.602441 
L 463.377962 137.849323 
L 464.172127 133.332428 
L 464.966292 129.639766 
L 465.760456 126.54004 
L 467.348786 121.596623 
L 468.937115 117.832751 
L 470.525445 114.909196 
L 472.113774 112.632094 
L 473.702104 110.882209 
L 475.290433 109.583144 
L 476.878763 108.68545 
L 478.467092 108.158163 
L 479.261257 108.027621 
L 479.261257 108.027621 
" style="fill:none;stroke:#1f77b4;stroke-linecap:square;stroke-width:1.5;"/>
   </g>
   <g id="line2d_24">
    <path clip-path="url(#pebf3a02526)" d="M 73.443075 21.840809 
L 176.684491 21.921847 
L 183.831974 22.235696 
L 190.185292 22.726659 
L 195.744445 23.367464 
L 201.303598 24.246345 
L 206.068587 25.218536 
L 210.833575 26.418259 
L 215.598564 27.869608 
L 219.569387 29.288815 
L 223.540211 30.91406 
L 227.511035 32.76031 
L 231.481858 34.843366 
L 235.452682 37.18021 
L 239.423506 39.789429 
L 243.394329 42.691752 
L 247.365153 45.910738 
L 251.335977 49.473678 
L 254.512636 52.593141 
L 257.689295 55.972727 
L 260.865954 59.635398 
L 264.042613 63.608655 
L 267.219272 67.926032 
L 270.395931 72.629277 
L 273.572589 77.771645 
L 276.749248 83.423114 
L 279.131743 88.051852 
L 281.514237 93.07398 
L 283.896731 98.562413 
L 286.279225 104.619286 
L 288.66172 111.395176 
L 290.250049 116.423571 
L 291.838378 121.980727 
L 293.426708 128.22794 
L 295.015037 135.425946 
L 296.603367 144.037714 
L 297.397532 149.13274 
L 298.191696 155.000745 
L 298.985861 161.965259 
L 299.780026 170.543929 
L 301.368355 191.241628 
L 302.16252 188.235249 
L 302.956685 179.629382 
L 303.75085 172.951583 
L 304.545014 168.15899 
L 305.339179 164.655608 
L 306.133344 162.048469 
L 306.927509 160.094955 
L 307.721673 158.639973 
L 308.515838 157.579928 
L 309.310003 156.842848 
L 310.104167 156.377074 
L 310.898332 156.144516 
L 311.692497 156.116486 
L 312.486662 156.270993 
L 313.280826 156.590953 
L 314.074991 157.062948 
L 315.663321 158.422684 
L 317.25165 160.28816 
L 318.83998 162.61842 
L 320.428309 165.383733 
L 322.016639 168.556904 
L 324.399133 174.000021 
L 327.575792 182.130802 
L 329.958286 188.198228 
L 331.546615 191.784248 
L 333.134945 194.749094 
L 334.723274 196.989264 
L 335.517439 197.82701 
L 336.311604 198.46846 
L 337.105769 198.89916 
L 337.899933 199.096852 
L 338.694098 199.035066 
L 339.488263 198.690441 
L 340.282428 198.051698 
L 341.076592 197.126684 
L 341.870757 195.944289 
L 343.459087 193.000032 
L 349.01824 181.560046 
L 350.606569 178.838525 
L 352.194899 176.484083 
L 353.783228 174.501116 
L 355.371558 172.883883 
L 356.959887 171.624004 
L 358.548217 170.714366 
L 360.136546 170.151295 
L 361.724876 169.935969 
L 363.313205 170.075687 
L 364.901535 170.58537 
L 366.489864 171.489671 
L 368.078193 172.826177 
L 369.666523 174.65042 
L 371.254852 177.043856 
L 372.843182 180.126612 
L 374.431511 184.076622 
L 376.019841 189.148638 
L 377.60817 195.617913 
L 379.1965 203.090269 
L 379.990665 206.119789 
L 380.784829 207.242626 
L 381.578994 205.81591 
L 382.373159 202.587675 
L 384.755653 191.456985 
L 386.343982 185.589953 
L 387.932312 180.97675 
L 389.520641 177.332287 
L 391.108971 174.444229 
L 392.6973 172.168341 
L 394.28563 170.407314 
L 395.873959 169.095355 
L 397.462289 168.188525 
L 399.050618 167.658916 
L 400.638948 167.491278 
L 402.227277 167.68133 
L 403.815607 168.235359 
L 405.403936 169.171054 
L 406.992266 170.519782 
L 408.580595 172.330927 
L 410.168925 174.679563 
L 411.757254 177.680033 
L 413.345584 181.510529 
L 414.933913 186.458147 
L 415.728078 189.488292 
L 416.522243 192.991973 
L 417.316407 197.057569 
L 419.698902 211.345044 
L 420.493066 212.895043 
L 421.287231 210.200323 
L 423.669725 195.82339 
L 425.258055 188.592406 
L 426.846384 183.16494 
L 428.434714 178.99361 
L 430.023043 175.736311 
L 431.611373 173.182789 
L 433.199702 171.199541 
L 434.788032 169.699365 
L 436.376361 168.624685 
L 437.964691 167.938204 
L 439.55302 167.61761 
L 441.141349 167.652708 
L 442.729679 168.0442 
L 444.318008 168.803794 
L 445.906338 169.955664 
L 447.494667 171.539682 
L 449.082997 173.617314 
L 450.671326 176.282149 
L 452.259656 179.67906 
L 453.847985 184.040493 
L 454.64215 186.695717 
L 455.436315 189.756785 
L 456.23048 193.31696 
L 457.024644 197.490749 
L 458.612974 207.923679 
L 459.407138 213.215783 
L 460.201303 215.457409 
L 460.995468 212.583873 
L 463.377962 196.899017 
L 464.172127 192.825841 
L 465.760456 186.35776 
L 467.348786 181.489372 
L 468.937115 177.727904 
L 470.525445 174.784348 
L 472.113774 172.482015 
L 473.702104 170.708262 
L 475.290433 169.389399 
L 476.878763 168.477125 
L 478.467092 167.940962 
L 479.261257 167.808189 
L 479.261257 167.808189 
" style="fill:none;stroke:#ff7f0e;stroke-linecap:square;stroke-width:1.5;"/>
   </g>
   <g id="line2d_25">
    <path clip-path="url(#pebf3a02526)" d="M 73.443075 21.870002 
L 150.477055 21.972704 
L 163.183691 22.234839 
L 172.713668 22.650848 
L 180.655315 23.212504 
L 187.802798 23.935428 
L 194.156116 24.787309 
L 200.509433 25.868237 
L 206.068587 27.026116 
L 211.62774 28.403387 
L 217.186893 30.020455 
L 222.746046 31.897763 
L 227.511035 33.729678 
L 232.276023 35.781284 
L 237.041011 38.066318 
L 241.806 40.599141 
L 246.570988 43.394959 
L 251.335977 46.470091 
L 256.100965 49.842282 
L 260.865954 53.53109 
L 264.836777 56.862625 
L 268.807601 60.44326 
L 272.778425 64.288766 
L 276.749248 68.416918 
L 280.720072 72.847924 
L 284.690896 77.604963 
L 288.66172 82.714869 
L 292.632543 88.208995 
L 296.603367 94.12435 
L 300.574191 100.505055 
L 304.545014 107.404271 
L 307.721673 113.339988 
L 310.898332 119.68845 
L 314.074991 126.496734 
L 317.25165 133.820635 
L 320.428309 141.725885 
L 323.604968 150.288355 
L 326.781627 159.590869 
L 329.958286 169.7105 
L 333.134945 180.6805 
L 337.105769 195.387468 
L 341.076592 210.063187 
L 342.664922 215.302465 
L 344.253251 219.788446 
L 345.841581 223.290323 
L 346.635746 224.634488 
L 347.42991 225.709936 
L 348.224075 226.53322 
L 349.01824 227.130766 
L 349.812404 227.536102 
L 351.400734 227.921333 
L 353.783228 227.988955 
L 355.371558 228.056545 
L 356.959887 228.360066 
L 358.548217 229.039528 
L 359.342381 229.558165 
L 360.136546 230.215862 
L 360.930711 231.028487 
L 361.724876 232.013736 
L 362.51904 233.192163 
L 363.313205 234.588443 
L 364.10737 236.23303 
L 364.901535 238.164326 
L 365.695699 240.431532 
L 366.489864 243.098097 
L 367.284029 246.244692 
L 368.078193 249.966568 
L 369.666523 259.30618 
L 370.460688 264.141834 
L 371.254852 266.645455 
L 372.049017 264.65883 
L 375.225676 245.378729 
L 376.814006 238.689544 
L 378.402335 233.645408 
L 379.990665 229.761632 
L 381.578994 226.74456 
L 383.167324 224.411715 
L 384.755653 222.645202 
L 386.343982 221.366704 
L 387.932312 220.523748 
L 389.520641 220.081932 
L 391.108971 220.020493 
L 392.6973 220.329913 
L 394.28563 221.010918 
L 395.873959 222.074606 
L 397.462289 223.543713 
L 399.050618 225.455233 
L 400.638948 227.864898 
L 402.227277 230.854259 
L 403.815607 234.540922 
L 405.403936 239.089295 
L 406.992266 244.698119 
L 408.580595 251.419268 
L 410.168925 258.106493 
L 410.963089 260.094563 
L 411.757254 260.202325 
L 412.551419 258.476032 
L 414.139748 252.541167 
L 415.728078 246.695606 
L 417.316407 241.972515 
L 418.904737 238.300758 
L 420.493066 235.481771 
L 422.081396 233.353631 
L 423.669725 231.800825 
L 425.258055 230.743279 
L 426.846384 230.126188 
L 428.434714 229.912971 
L 430.023043 230.080666 
L 431.611373 230.616977 
L 433.199702 231.518282 
L 434.788032 232.788073 
L 436.376361 234.435106 
L 437.964691 236.470058 
L 439.55302 238.898098 
L 441.141349 241.701821 
L 445.906338 250.80828 
L 446.700503 251.865988 
L 447.494667 252.568306 
L 448.288832 252.855131 
L 449.082997 252.715511 
L 449.877162 252.191627 
L 450.671326 251.364086 
L 452.259656 249.173625 
L 455.436315 244.560821 
L 457.024644 242.671602 
L 458.612974 241.167482 
L 460.201303 240.05456 
L 461.789633 239.321544 
L 463.377962 238.95223 
L 464.966292 238.929949 
L 466.554621 239.238095 
L 468.142951 239.858218 
L 469.73128 240.765841 
L 471.31961 241.92337 
L 473.702104 243.983466 
L 476.084598 246.074154 
L 477.672928 247.179068 
L 478.467092 247.563341 
L 479.261257 247.804033 
L 479.261257 247.804033 
" style="fill:none;stroke:#2ca02c;stroke-linecap:square;stroke-width:1.5;"/>
   </g>
   <g id="line2d_26">
    <path clip-path="url(#pebf3a02526)" d="M 73.443075 21.832028 
L 102.033006 21.716402 
L 123.475454 21.753036 
L 151.27122 21.814851 
L 176.684491 21.754613 
L 183.831974 21.984688 
L 190.185292 22.405538 
L 195.744445 22.994623 
L 200.509433 23.698676 
L 205.274422 24.615502 
L 210.03941 25.772263 
L 214.010234 26.93908 
L 217.981058 28.307243 
L 221.951881 29.893071 
L 225.922705 31.713627 
L 229.893529 33.787096 
L 233.864353 36.133273 
L 237.835176 38.77416 
L 241.806 41.734755 
L 244.982659 44.352754 
L 248.159318 47.211116 
L 251.335977 50.329948 
L 254.512636 53.733021 
L 257.689295 57.448913 
L 260.865954 61.512635 
L 264.042613 65.968007 
L 267.219272 70.871282 
L 270.395931 76.296878 
L 272.778425 80.768881 
L 275.160919 85.649824 
L 277.543413 91.019095 
L 279.925907 96.989008 
L 282.308402 103.727356 
L 283.896731 108.772989 
L 285.485061 114.399982 
L 287.07339 120.800277 
L 288.66172 128.296977 
L 290.250049 137.504172 
L 291.044214 143.127071 
L 291.838378 149.843648 
L 292.632543 158.330867 
L 293.426708 170.215089 
L 294.220873 191.428325 
L 295.015037 206.684498 
L 295.809202 179.59781 
L 296.603367 168.357142 
L 297.397532 161.698988 
L 298.191696 157.226209 
L 298.985861 154.048005 
L 299.780026 151.736928 
L 300.574191 150.05588 
L 301.368355 148.860595 
L 302.16252 148.05765 
L 302.956685 147.583964 
L 303.75085 147.39584 
L 304.545014 147.462705 
L 305.339179 147.763349 
L 306.133344 148.283609 
L 306.927509 149.014893 
L 307.721673 149.95326 
L 308.515838 151.09884 
L 310.104167 154.030398 
L 311.692497 157.878355 
L 313.280826 162.735844 
L 314.869156 168.573851 
L 316.457485 174.59849 
L 317.25165 176.843816 
L 318.045815 177.854483 
L 318.83998 177.361903 
L 319.634144 175.644282 
L 323.604968 163.862406 
L 325.193298 160.476448 
L 326.781627 157.946023 
L 328.369957 156.140168 
L 329.958286 154.95454 
L 330.752451 154.570086 
L 331.546615 154.314942 
L 332.34078 154.183669 
L 333.134945 154.172053 
L 333.92911 154.276982 
L 335.517439 154.828993 
L 337.105769 155.833782 
L 338.694098 157.298896 
L 340.282428 159.24402 
L 341.870757 161.698171 
L 343.459087 164.690791 
L 345.047416 168.223768 
L 349.01824 177.872219 
L 349.812404 179.139418 
L 350.606569 179.793982 
L 351.400734 179.742356 
L 352.194899 179.02508 
L 352.989063 177.794595 
L 354.577393 174.543419 
L 356.959887 169.57009 
L 358.548217 166.792337 
L 360.136546 164.540129 
L 361.724876 162.792389 
L 363.313205 161.510866 
L 364.901535 160.659714 
L 366.489864 160.211068 
L 368.078193 160.146064 
L 369.666523 160.454564 
L 371.254852 161.134664 
L 372.843182 162.19223 
L 374.431511 163.640272 
L 376.019841 165.497438 
L 377.60817 167.783758 
L 379.1965 170.508949 
L 380.784829 173.64192 
L 383.961488 180.292293 
L 384.755653 181.630224 
L 385.549818 182.60628 
L 386.343982 183.105554 
L 387.138147 183.068231 
L 387.932312 182.514629 
L 388.726477 181.536317 
L 390.314806 178.812727 
L 393.491465 172.937711 
L 395.079795 170.474195 
L 396.668124 168.439598 
L 398.256454 166.828414 
L 399.844783 165.619172 
L 401.433113 164.789282 
L 403.021442 164.320371 
L 404.609771 164.199965 
L 406.198101 164.421878 
L 407.78643 164.986162 
L 409.37476 165.898901 
L 410.963089 167.171718 
L 412.551419 168.820421 
L 414.139748 170.861356 
L 415.728078 173.301947 
L 417.316407 176.117377 
L 421.287231 183.56935 
L 422.081396 184.634645 
L 422.87556 185.328603 
L 423.669725 185.570719 
L 424.46389 185.335159 
L 425.258055 184.660846 
L 426.052219 183.636454 
L 427.640549 180.968258 
L 430.817208 175.327853 
L 432.405537 172.937915 
L 433.993867 170.940449 
L 435.582196 169.335931 
L 437.170526 168.108898 
L 438.758855 167.241482 
L 440.347185 166.718695 
L 441.935514 166.530343 
L 443.523844 166.671621 
L 445.112173 167.143233 
L 446.700503 167.951279 
L 448.288832 169.10683 
L 449.877162 170.624699 
L 451.465491 172.520136 
L 453.053821 174.800421 
L 454.64215 177.44454 
L 458.612974 184.587102 
L 459.407138 185.67211 
L 460.201303 186.431513 
L 460.995468 186.77964 
L 461.789633 186.673908 
L 462.583797 186.130407 
L 463.377962 185.217819 
L 464.966292 182.680052 
L 468.937115 175.710558 
L 470.525445 173.407826 
L 472.113774 171.487731 
L 473.702104 169.946844 
L 475.290433 168.770437 
L 476.878763 167.942835 
L 478.467092 167.45151 
L 479.261257 167.3293 
L 479.261257 167.3293 
" style="fill:none;stroke:#d62728;stroke-linecap:square;stroke-width:1.5;"/>
   </g>
   <g id="patch_3">
    <path d="M 53.152166 279 
L 53.152166 7.2 
" style="fill:none;stroke:#000000;stroke-linecap:square;stroke-linejoin:miter;stroke-width:0.8;"/>
   </g>
   <g id="patch_4">
    <path d="M 499.552166 279 
L 499.552166 7.2 
" style="fill:none;stroke:#000000;stroke-linecap:square;stroke-linejoin:miter;stroke-width:0.8;"/>
   </g>
   <g id="patch_5">
    <path d="M 53.152166 279 
L 499.552166 279 
" style="fill:none;stroke:#000000;stroke-linecap:square;stroke-linejoin:miter;stroke-width:0.8;"/>
   </g>
   <g id="patch_6">
    <path d="M 53.152166 7.2 
L 499.552166 7.2 
" style="fill:none;stroke:#000000;stroke-linecap:square;stroke-linejoin:miter;stroke-width:0.8;"/>
   </g>
   <g id="legend_1">
    <g id="patch_7">
     <path d="M 344.431292 96.448114 
L 489.752166 96.448114 
Q 492.552166 96.448114 492.552166 93.648114 
L 492.552166 17 
Q 492.552166 14.2 489.752166 14.2 
L 344.431292 14.2 
Q 341.631292 14.2 341.631292 17 
L 341.631292 93.648114 
Q 341.631292 96.448114 344.431292 96.448114 
z
" style="fill:#ffffff;opacity:0.8;stroke:#cccccc;stroke-linejoin:miter;"/>
    </g>
    <g id="line2d_27">
     <path d="M 347.231292 24.7 
L 375.231292 24.7 
" style="fill:none;stroke:#1f77b4;stroke-linecap:square;stroke-width:1.5;"/>
    </g>
    <g id="line2d_28"/>
    <g id="text_14">
     <!-- Rectangulaire -->
     <g transform="translate(386.431292 29.6)scale(0.14 -0.14)">
      <defs>
       <path d="M 2509 2156 
C 3117 2278 3629 2689 3629 3203 
C 3629 3806 2950 4352 2054 4352 
L 333 4352 
L 333 4185 
C 774 4185 845 4185 845 3896 
L 845 428 
C 845 140 774 140 333 140 
L 333 -26 
C 518 -13 851 -13 1050 -13 
C 1248 -13 1581 -13 1766 -26 
L 1766 140 
C 1325 140 1254 140 1254 428 
L 1254 2112 
L 2003 2112 
C 2368 2112 2573 1964 2662 1881 
C 2918 1632 2918 1459 2918 1024 
C 2918 595 2918 377 3110 160 
C 3354 -103 3680 -128 3821 -128 
C 4294 -128 4365 403 4365 512 
C 4365 550 4365 595 4307 595 
C 4256 595 4250 556 4250 531 
C 4218 115 4032 -26 3834 -26 
C 3482 -26 3443 377 3405 768 
C 3386 902 3373 998 3360 1139 
C 3322 1459 3270 1926 2509 2156 
z
M 1984 2214 
L 1254 2214 
L 1254 3935 
C 1254 4153 1267 4185 1523 4185 
L 1990 4185 
C 2522 4185 3142 3999 3142 3203 
C 3142 2374 2464 2214 1984 2214 
z
" id="CMR17-52" transform="scale(0.015625)"/>
       <path d="M 2304 1656 
C 2304 2048 2304 2275 2035 2534 
C 1798 2751 1523 2816 1306 2816 
C 800 2816 435 2408 435 1977 
C 435 1740 627 1728 666 1728 
C 749 1728 896 1779 896 1958 
C 896 2118 774 2188 666 2188 
C 640 2188 608 2182 589 2176 
C 723 2594 1069 2713 1293 2713 
C 1613 2713 1965 2421 1965 1875 
L 1965 1632 
C 1587 1619 1133 1568 774 1373 
C 371 1147 256 822 256 576 
C 256 77 832 -64 1171 -64 
C 1523 -64 1850 135 1990 505 
C 2003 219 2182 -39 2464 -39 
C 2598 -39 2938 51 2938 563 
L 2938 926 
L 2822 926 
L 2822 557 
C 2822 161 2650 109 2566 109 
C 2304 109 2304 446 2304 732 
L 2304 1656 
z
M 1965 887 
C 1965 323 1568 38 1216 38 
C 896 38 646 278 646 576 
C 646 771 730 1114 1101 1322 
C 1408 1497 1760 1523 1965 1536 
L 1965 887 
z
" id="CMR17-61" transform="scale(0.015625)"/>
      </defs>
      <use transform="scale(0.996264)" xlink:href="#CMR17-52"/>
      <use transform="translate(67.791102 0)scale(0.996264)" xlink:href="#CMR17-65"/>
      <use transform="translate(108.276762 0)scale(0.996264)" xlink:href="#CMR17-63"/>
      <use transform="translate(148.762423 0)scale(0.996264)" xlink:href="#CMR17-74"/>
      <use transform="translate(184.043191 0)scale(0.996264)" xlink:href="#CMR17-61"/>
      <use transform="translate(229.733668 0)scale(0.996264)" xlink:href="#CMR17-6e"/>
      <use transform="translate(280.629038 0)scale(0.996264)" xlink:href="#CMR17-67"/>
      <use transform="translate(326.319515 0)scale(0.996264)" xlink:href="#CMR17-75"/>
      <use transform="translate(377.214884 0)scale(0.996264)" xlink:href="#CMR17-6c"/>
      <use transform="translate(402.085943 0)scale(0.996264)" xlink:href="#CMR17-61"/>
      <use transform="translate(447.77642 0)scale(0.996264)" xlink:href="#CMR17-69"/>
      <use transform="translate(472.647479 0)scale(0.996264)" xlink:href="#CMR17-72"/>
      <use transform="translate(507.928246 0)scale(0.996264)" xlink:href="#CMR17-65"/>
     </g>
    </g>
    <g id="line2d_29">
     <path d="M 347.231292 44.212028 
L 375.231292 44.212028 
" style="fill:none;stroke:#ff7f0e;stroke-linecap:square;stroke-width:1.5;"/>
    </g>
    <g id="line2d_30"/>
    <g id="text_15">
     <!-- Hamming -->
     <g transform="translate(386.431292 49.112028)scale(0.14 -0.14)">
      <defs>
       <path d="M 3590 3898 
C 3590 4185 3661 4185 4102 4185 
L 4102 4352 
C 3917 4339 3578 4339 3379 4339 
C 3181 4339 2842 4339 2656 4352 
L 2656 4185 
C 3098 4185 3168 4185 3168 3898 
L 3168 2342 
L 1261 2342 
L 1261 3898 
C 1261 4185 1331 4185 1773 4185 
L 1773 4352 
C 1587 4339 1248 4339 1050 4339 
C 851 4339 512 4339 326 4352 
L 326 4185 
C 768 4185 838 4185 838 3898 
L 838 452 
C 838 166 768 166 326 166 
L 326 0 
C 512 12 851 12 1050 12 
C 1248 12 1587 12 1773 0 
L 1773 166 
C 1331 166 1261 166 1261 452 
L 1261 2176 
L 3168 2176 
L 3168 452 
C 3168 166 3098 166 2656 166 
L 2656 0 
C 2842 12 3181 12 3379 12 
C 3578 12 3917 12 4102 0 
L 4102 166 
C 3661 166 3590 166 3590 452 
L 3590 3898 
z
" id="CMR17-48" transform="scale(0.015625)"/>
       <path d="M 4326 1954 
C 4326 2276 4269 2816 3507 2816 
C 3072 2816 2771 2520 2656 2173 
L 2650 2173 
C 2573 2700 2195 2816 1837 2816 
C 1331 2816 1069 2424 973 2166 
L 966 2166 
L 966 2816 
L 211 2745 
L 211 2578 
C 589 2578 646 2540 646 2231 
L 646 443 
C 646 198 621 166 211 166 
L 211 0 
C 365 12 646 12 813 12 
C 979 12 1267 12 1421 0 
L 1421 166 
C 1011 166 986 192 986 443 
L 986 1678 
C 986 2269 1344 2713 1792 2713 
C 2266 2713 2317 2289 2317 1980 
L 2317 443 
C 2317 198 2291 166 1882 166 
L 1882 0 
C 2035 12 2317 12 2483 12 
C 2650 12 2938 12 3091 0 
L 3091 166 
C 2682 166 2656 192 2656 443 
L 2656 1678 
C 2656 2269 3014 2713 3462 2713 
C 3936 2713 3987 2289 3987 1980 
L 3987 443 
C 3987 198 3962 166 3552 166 
L 3552 0 
C 3706 12 3987 12 4154 12 
C 4320 12 4608 12 4762 0 
L 4762 166 
C 4352 166 4326 192 4326 443 
L 4326 1954 
z
" id="CMR17-6d" transform="scale(0.015625)"/>
      </defs>
      <use transform="scale(0.996264)" xlink:href="#CMR17-48"/>
      <use transform="translate(69.07243 0)scale(0.996264)" xlink:href="#CMR17-61"/>
      <use transform="translate(114.762907 0)scale(0.996264)" xlink:href="#CMR17-6d"/>
      <use transform="translate(191.682497 0)scale(0.996264)" xlink:href="#CMR17-6d"/>
      <use transform="translate(268.602087 0)scale(0.996264)" xlink:href="#CMR17-69"/>
      <use transform="translate(293.473145 0)scale(0.996264)" xlink:href="#CMR17-6e"/>
      <use transform="translate(344.368515 0)scale(0.996264)" xlink:href="#CMR17-67"/>
     </g>
    </g>
    <g id="line2d_31">
     <path d="M 347.231292 63.724057 
L 375.231292 63.724057 
" style="fill:none;stroke:#2ca02c;stroke-linecap:square;stroke-width:1.5;"/>
    </g>
    <g id="line2d_32"/>
    <g id="text_16">
     <!-- Blackman -->
     <g transform="translate(386.431292 68.624057)scale(0.14 -0.14)">
      <defs>
       <path d="M 333 4352 
L 333 4185 
C 774 4185 845 4185 845 3897 
L 845 451 
C 845 166 774 166 333 166 
L 333 0 
L 2534 0 
C 3354 0 3885 578 3885 1155 
C 3885 1726 3360 2214 2675 2259 
C 3290 2380 3718 2790 3718 3276 
C 3718 3808 3194 4352 2368 4352 
L 333 4352 
z
M 1248 2304 
L 1248 3936 
C 1248 4153 1261 4185 1517 4185 
L 2336 4185 
C 2970 4185 3251 3673 3251 3276 
C 3251 2790 2861 2304 2170 2304 
L 1248 2304 
z
M 1517 166 
C 1261 166 1248 198 1248 413 
L 1248 2201 
L 2432 2201 
C 3091 2201 3411 1624 3411 1161 
C 3411 698 3046 166 2349 166 
L 1517 166 
z
" id="CMR17-42" transform="scale(0.015625)"/>
       <path d="M 1670 1679 
C 1664 1692 1632 1730 1632 1749 
C 1632 1762 2086 2175 2144 2226 
C 2509 2532 2739 2563 2906 2570 
L 2906 2735 
C 2867 2735 2854 2735 2848 2729 
L 2534 2722 
C 2355 2722 2080 2722 1907 2735 
L 1907 2570 
C 1997 2563 2061 2513 2061 2423 
C 2061 2296 1933 2175 1926 2175 
L 960 1298 
L 960 4416 
L 198 4345 
L 198 4179 
C 576 4179 634 4141 634 3835 
L 634 439 
C 634 198 608 166 198 166 
L 198 0 
C 352 12 634 12 794 12 
C 954 12 1235 12 1389 0 
L 1389 166 
C 979 166 954 191 954 439 
L 954 1139 
L 1395 1540 
L 2042 586 
C 2118 471 2182 382 2182 299 
C 2182 185 2067 166 1990 166 
L 1990 0 
C 2144 12 2419 12 2579 12 
C 2694 12 2931 6 3040 0 
L 3040 166 
C 2739 166 2669 223 2477 503 
L 1670 1679 
z
" id="CMR17-6b" transform="scale(0.015625)"/>
      </defs>
      <use transform="scale(0.996264)" xlink:href="#CMR17-42"/>
      <use transform="translate(65.188754 0)scale(0.996264)" xlink:href="#CMR17-6c"/>
      <use transform="translate(90.059813 0)scale(0.996264)" xlink:href="#CMR17-61"/>
      <use transform="translate(135.75029 0)scale(0.996264)" xlink:href="#CMR17-63"/>
      <use transform="translate(173.633497 0)scale(0.996264)" xlink:href="#CMR17-6b"/>
      <use transform="translate(221.926412 0)scale(0.996264)" xlink:href="#CMR17-6d"/>
      <use transform="translate(298.846002 0)scale(0.996264)" xlink:href="#CMR17-61"/>
      <use transform="translate(344.536479 0)scale(0.996264)" xlink:href="#CMR17-6e"/>
     </g>
    </g>
    <g id="line2d_33">
     <path d="M 347.231292 83.236085 
L 375.231292 83.236085 
" style="fill:none;stroke:#d62728;stroke-linecap:square;stroke-width:1.5;"/>
    </g>
    <g id="line2d_34"/>
    <g id="text_17">
     <!-- Kaiser $\beta=4.538$ -->
     <g transform="translate(386.431292 88.136085)scale(0.14 -0.14)">
      <defs>
       <path d="M 2362 2669 
L 3469 3771 
C 3699 3994 3942 4172 4301 4185 
L 4301 4352 
C 4173 4345 4013 4339 3885 4339 
C 3712 4339 3411 4339 3245 4352 
L 3245 4185 
C 3411 4172 3437 4057 3437 4013 
C 3437 3968 3411 3898 3386 3860 
L 1261 1739 
L 1261 3898 
C 1261 4185 1331 4185 1773 4185 
L 1773 4352 
C 1587 4339 1248 4339 1050 4339 
C 851 4339 512 4339 326 4352 
L 326 4185 
C 768 4185 838 4185 838 3898 
L 838 453 
C 838 166 768 166 326 166 
L 326 0 
C 512 12 851 12 1050 12 
C 1248 12 1587 12 1773 0 
L 1773 166 
C 1331 166 1261 166 1261 453 
L 1261 1580 
L 2080 2389 
L 3290 542 
C 3328 478 3373 395 3373 332 
C 3373 166 3194 166 3110 166 
L 3110 0 
C 3315 12 3610 12 3821 12 
C 3974 12 4237 12 4384 0 
L 4384 166 
C 4077 166 3981 204 3789 497 
L 2362 2669 
z
" id="CMR17-4b" transform="scale(0.015625)"/>
       <path d="M 1978 2688 
C 1978 2803 1971 2809 1933 2809 
C 1907 2809 1901 2803 1824 2707 
C 1805 2681 1747 2617 1728 2592 
C 1523 2809 1235 2816 1126 2816 
C 416 2816 160 2444 160 2073 
C 160 1497 813 1363 998 1324 
C 1402 1241 1542 1216 1677 1100 
C 1760 1024 1901 883 1901 652 
C 1901 384 1747 38 1158 38 
C 602 38 403 460 288 1024 
C 269 1113 269 1120 218 1120 
C 166 1120 160 1113 160 985 
L 160 64 
C 160 -52 166 -58 205 -58 
C 237 -58 243 -52 275 0 
C 314 57 410 211 448 275 
C 576 102 800 -64 1158 -64 
C 1792 -64 2131 281 2131 780 
C 2131 1107 1958 1280 1875 1356 
C 1683 1555 1459 1600 1190 1651 
C 838 1728 390 1817 390 2208 
C 390 2374 480 2726 1126 2726 
C 1811 2726 1850 2086 1862 1881 
C 1869 1849 1901 1843 1920 1843 
C 1978 1843 1978 1862 1978 1971 
L 1978 2688 
z
" id="CMR17-73" transform="scale(0.015625)"/>
       <path d="M 3622 3739 
C 3622 4131 3296 4544 2714 4544 
C 1888 4544 1363 3510 1197 2830 
L 186 -1152 
C 173 -1204 211 -1216 243 -1216 
C 288 -1216 320 -1210 326 -1178 
L 774 592 
C 838 231 1190 -64 1568 -64 
C 2483 -64 3347 657 3347 1618 
C 3347 1863 3290 2108 3155 2314 
C 3078 2437 2982 2527 2880 2599 
C 3341 2823 3622 3222 3622 3739 
z
M 2509 2605 
C 2406 2571 2304 2560 2182 2560 
C 2093 2560 2010 2553 1894 2588 
C 1958 2627 2054 2639 2189 2639 
C 2304 2639 2419 2627 2509 2605 
z
M 3290 3798 
C 3290 3438 3117 2915 2701 2684 
C 2579 2723 2413 2752 2272 2752 
C 2138 2752 1754 2765 1754 2582 
C 1754 2411 2106 2430 2214 2430 
C 2381 2430 2528 2469 2682 2514 
C 2886 2347 2976 2127 2976 1805 
C 2976 1431 2874 1128 2752 850 
C 2541 373 2042 64 1600 64 
C 1133 64 890 438 890 876 
C 890 934 890 1018 915 1115 
L 1331 2784 
C 1542 3641 2080 4413 2701 4413 
C 3162 4413 3290 4086 3290 3798 
z
" id="CMMI12-c" transform="scale(0.015625)"/>
       <path d="M 4115 2048 
C 4211 2048 4307 2048 4307 2156 
C 4307 2272 4198 2272 4090 2272 
L 512 2272 
C 403 2272 294 2272 294 2156 
C 294 2048 390 2048 486 2048 
L 4115 2048 
z
M 4090 927 
C 4198 927 4307 927 4307 1043 
C 4307 1152 4211 1152 4115 1152 
L 486 1152 
C 390 1152 294 1152 294 1043 
C 294 927 403 927 512 927 
L 4090 927 
z
" id="CMR17-3d" transform="scale(0.015625)"/>
      </defs>
      <use transform="scale(0.996264)" xlink:href="#CMR17-4b"/>
      <use transform="translate(71.674777 0)scale(0.996264)" xlink:href="#CMR17-61"/>
      <use transform="translate(117.365254 0)scale(0.996264)" xlink:href="#CMR17-69"/>
      <use transform="translate(142.236313 0)scale(0.996264)" xlink:href="#CMR17-73"/>
      <use transform="translate(178.037651 0)scale(0.996264)" xlink:href="#CMR17-65"/>
      <use transform="translate(218.523311 0)scale(0.996264)" xlink:href="#CMR17-72"/>
      <use transform="translate(283.880045 0)scale(0.996264)" xlink:href="#CMMI12-c"/>
      <use transform="translate(372.14807 0)scale(0.996264)" xlink:href="#CMR17-3d"/>
      <use transform="translate(471.536867 0)scale(0.996264)" xlink:href="#CMR17-34"/>
      <use transform="translate(517.227344 0)scale(0.996264)" xlink:href="#CMMI12-3a"/>
      <use transform="translate(544.324521 0)scale(0.996264)" xlink:href="#CMR17-35"/>
      <use transform="translate(590.014998 0)scale(0.996264)" xlink:href="#CMR17-33"/>
      <use transform="translate(635.705475 0)scale(0.996264)" xlink:href="#CMR17-38"/>
     </g>
    </g>
   </g>
  </g>
 </g>
 <defs>
  <clipPath id="pebf3a02526">
   <rect height="271.8" width="446.4" x="53.152166" y="7.2"/>
  </clipPath>
 </defs>
</svg>
