<?xml version="1.0" encoding="utf-8" standalone="no"?>
<!DOCTYPE svg PUBLIC "-//W3C//DTD SVG 1.1//EN"
  "http://www.w3.org/Graphics/SVG/1.1/DTD/svg11.dtd">
<svg height="416.16pt" version="1.1" viewBox="0 0 704.16 416.16" width="704.16pt" xmlns="http://www.w3.org/2000/svg" xmlns:xlink="http://www.w3.org/1999/xlink">
 <metadata>
  <rdf:RDF xmlns:cc="http://creativecommons.org/ns#" xmlns:dc="http://purl.org/dc/elements/1.1/" xmlns:rdf="http://www.w3.org/1999/02/22-rdf-syntax-ns#">
   <cc:Work>
    <dc:type rdf:resource="http://purl.org/dc/dcmitype/StillImage"/>
    <dc:date>2024-10-04T15:45:39.345448</dc:date>
    <dc:format>image/svg+xml</dc:format>
    <dc:creator>
     <cc:Agent>
      <dc:title>Matplotlib v3.4.3, https://matplotlib.org/</dc:title>
     </cc:Agent>
    </dc:creator>
   </cc:Work>
  </rdf:RDF>
 </metadata>
 <defs>
  <style type="text/css">*{stroke-linecap:butt;stroke-linejoin:round;}</style>
 </defs>
 <g id="figure_1">
  <g id="patch_1">
   <path d="M 0 416.16 
L 704.16 416.16 
L 704.16 0 
L 0 0 
z
" style="fill:none;"/>
  </g>
  <g id="axes_1">
   <g id="patch_2">
    <path d="M 29.35148 113.413224 
L 696.96 113.413224 
L 696.96 23.660772 
L 29.35148 23.660772 
z
" style="fill:#ffffff;"/>
   </g>
   <g id="matplotlib.axis_1">
    <g id="xtick_1">
     <g id="line2d_1">
      <path clip-path="url(#pe2e546e655)" d="M 59.697322 113.413224 
L 59.697322 23.660772 
" style="fill:none;stroke:#b0b0b0;stroke-linecap:square;stroke-width:0.5;"/>
     </g>
     <g id="line2d_2">
      <defs>
       <path d="M 0 0 
L 0 3.5 
" id="mef1bbe48ce" style="stroke:#000000;stroke-width:0.8;"/>
      </defs>
      <g>
       <use style="stroke:#000000;stroke-width:0.8;" x="59.697322" xlink:href="#mef1bbe48ce" y="113.413224"/>
      </g>
     </g>
     <g id="text_1">
      <!-- $\mathdefault{0}$ -->
      <g transform="translate(56.770826 128.715404)scale(0.12 -0.12)">
       <defs>
        <path d="M 2688 2038 
C 2688 2430 2682 3099 2413 3613 
C 2176 4063 1798 4224 1466 4224 
C 1158 4224 768 4082 525 3620 
C 269 3137 243 2539 243 2038 
C 243 1671 250 1112 448 623 
C 723 -39 1216 -128 1466 -128 
C 1760 -128 2208 -7 2470 604 
C 2662 1048 2688 1568 2688 2038 
z
M 1466 -26 
C 1056 -26 813 328 723 816 
C 653 1196 653 1749 653 2109 
C 653 2604 653 3015 736 3407 
C 858 3954 1216 4121 1466 4121 
C 1728 4121 2067 3947 2189 3420 
C 2272 3054 2278 2623 2278 2109 
C 2278 1691 2278 1176 2202 797 
C 2067 96 1690 -26 1466 -26 
z
" id="CMR17-30" transform="scale(0.015625)"/>
       </defs>
       <use transform="scale(0.996264)" xlink:href="#CMR17-30"/>
      </g>
     </g>
    </g>
    <g id="xtick_2">
     <g id="line2d_3">
      <path clip-path="url(#pe2e546e655)" d="M 135.561926 113.413224 
L 135.561926 23.660772 
" style="fill:none;stroke:#b0b0b0;stroke-linecap:square;stroke-width:0.5;"/>
     </g>
     <g id="line2d_4">
      <g>
       <use style="stroke:#000000;stroke-width:0.8;" x="135.561926" xlink:href="#mef1bbe48ce" y="113.413224"/>
      </g>
     </g>
     <g id="text_2">
      <!-- $\mathdefault{25}$ -->
      <g transform="translate(129.708936 128.715404)scale(0.12 -0.12)">
       <defs>
        <path d="M 2669 990 
L 2554 990 
C 2490 537 2438 460 2413 422 
C 2381 371 1920 371 1830 371 
L 602 371 
C 832 620 1280 1073 1824 1596 
C 2214 1966 2669 2400 2669 3033 
C 2669 3788 2067 4224 1395 4224 
C 691 4224 262 3603 262 3027 
C 262 2777 448 2745 525 2745 
C 589 2745 781 2783 781 3007 
C 781 3206 614 3264 525 3264 
C 486 3264 448 3257 422 3244 
C 544 3788 915 4057 1306 4057 
C 1862 4057 2227 3616 2227 3033 
C 2227 2477 1901 1998 1536 1583 
L 262 147 
L 262 0 
L 2515 0 
L 2669 990 
z
" id="CMR17-32" transform="scale(0.015625)"/>
        <path d="M 730 3750 
C 794 3724 1056 3641 1325 3641 
C 1920 3641 2246 3961 2432 4140 
C 2432 4191 2432 4224 2394 4224 
C 2387 4224 2374 4224 2323 4198 
C 2099 4102 1837 4032 1517 4032 
C 1325 4032 1037 4055 723 4191 
C 653 4224 640 4224 634 4224 
C 602 4224 595 4217 595 4090 
L 595 2231 
C 595 2113 595 2080 659 2080 
C 691 2080 704 2093 736 2139 
C 941 2435 1222 2560 1542 2560 
C 1766 2560 2246 2415 2246 1293 
C 2246 1087 2246 716 2054 422 
C 1894 159 1645 25 1370 25 
C 947 25 518 319 403 812 
C 429 806 480 793 506 793 
C 589 793 749 838 749 1036 
C 749 1209 627 1280 506 1280 
C 358 1280 262 1190 262 1011 
C 262 454 704 -128 1382 -128 
C 2042 -128 2669 441 2669 1267 
C 2669 2054 2170 2662 1549 2662 
C 1222 2662 947 2540 730 2304 
L 730 3750 
z
" id="CMR17-35" transform="scale(0.015625)"/>
       </defs>
       <use transform="scale(0.996264)" xlink:href="#CMR17-32"/>
       <use transform="translate(45.690477 0)scale(0.996264)" xlink:href="#CMR17-35"/>
      </g>
     </g>
    </g>
    <g id="xtick_3">
     <g id="line2d_5">
      <path clip-path="url(#pe2e546e655)" d="M 211.426531 113.413224 
L 211.426531 23.660772 
" style="fill:none;stroke:#b0b0b0;stroke-linecap:square;stroke-width:0.5;"/>
     </g>
     <g id="line2d_6">
      <g>
       <use style="stroke:#000000;stroke-width:0.8;" x="211.426531" xlink:href="#mef1bbe48ce" y="113.413224"/>
      </g>
     </g>
     <g id="text_3">
      <!-- $\mathdefault{50}$ -->
      <g transform="translate(205.57354 128.715404)scale(0.12 -0.12)">
       <use transform="scale(0.996264)" xlink:href="#CMR17-35"/>
       <use transform="translate(45.690477 0)scale(0.996264)" xlink:href="#CMR17-30"/>
      </g>
     </g>
    </g>
    <g id="xtick_4">
     <g id="line2d_7">
      <path clip-path="url(#pe2e546e655)" d="M 287.291135 113.413224 
L 287.291135 23.660772 
" style="fill:none;stroke:#b0b0b0;stroke-linecap:square;stroke-width:0.5;"/>
     </g>
     <g id="line2d_8">
      <g>
       <use style="stroke:#000000;stroke-width:0.8;" x="287.291135" xlink:href="#mef1bbe48ce" y="113.413224"/>
      </g>
     </g>
     <g id="text_4">
      <!-- $\mathdefault{75}$ -->
      <g transform="translate(281.438145 128.715404)scale(0.12 -0.12)">
       <defs>
        <path d="M 2886 3955 
L 2886 4096 
L 1382 4096 
C 634 4096 621 4166 595 4288 
L 480 4288 
L 294 3104 
L 410 3104 
C 429 3226 474 3552 550 3673 
C 589 3724 1062 3724 1171 3724 
L 2579 3724 
L 1869 2670 
C 1395 1961 1069 1003 1069 166 
C 1069 89 1069 -128 1299 -128 
C 1530 -128 1530 89 1530 172 
L 1530 466 
C 1530 1514 1709 2204 2003 2644 
L 2886 3955 
z
" id="CMR17-37" transform="scale(0.015625)"/>
       </defs>
       <use transform="scale(0.996264)" xlink:href="#CMR17-37"/>
       <use transform="translate(45.690477 0)scale(0.996264)" xlink:href="#CMR17-35"/>
      </g>
     </g>
    </g>
    <g id="xtick_5">
     <g id="line2d_9">
      <path clip-path="url(#pe2e546e655)" d="M 363.15574 113.413224 
L 363.15574 23.660772 
" style="fill:none;stroke:#b0b0b0;stroke-linecap:square;stroke-width:0.5;"/>
     </g>
     <g id="line2d_10">
      <g>
       <use style="stroke:#000000;stroke-width:0.8;" x="363.15574" xlink:href="#mef1bbe48ce" y="113.413224"/>
      </g>
     </g>
     <g id="text_5">
      <!-- $\mathdefault{100}$ -->
      <g transform="translate(354.376254 128.715404)scale(0.12 -0.12)">
       <defs>
        <path d="M 1702 4083 
C 1702 4217 1696 4224 1606 4224 
C 1357 3927 979 3833 621 3820 
C 602 3820 570 3820 563 3808 
C 557 3795 557 3782 557 3648 
C 755 3648 1088 3686 1344 3839 
L 1344 467 
C 1344 243 1331 166 781 166 
L 589 166 
L 589 0 
C 896 6 1216 12 1523 12 
C 1830 12 2150 6 2458 0 
L 2458 166 
L 2266 166 
C 1715 166 1702 236 1702 467 
L 1702 4083 
z
" id="CMR17-31" transform="scale(0.015625)"/>
       </defs>
       <use transform="scale(0.996264)" xlink:href="#CMR17-31"/>
       <use transform="translate(45.690477 0)scale(0.996264)" xlink:href="#CMR17-30"/>
       <use transform="translate(91.380954 0)scale(0.996264)" xlink:href="#CMR17-30"/>
      </g>
     </g>
    </g>
    <g id="xtick_6">
     <g id="line2d_11">
      <path clip-path="url(#pe2e546e655)" d="M 439.020344 113.413224 
L 439.020344 23.660772 
" style="fill:none;stroke:#b0b0b0;stroke-linecap:square;stroke-width:0.5;"/>
     </g>
     <g id="line2d_12">
      <g>
       <use style="stroke:#000000;stroke-width:0.8;" x="439.020344" xlink:href="#mef1bbe48ce" y="113.413224"/>
      </g>
     </g>
     <g id="text_6">
      <!-- $\mathdefault{125}$ -->
      <g transform="translate(430.240859 128.715404)scale(0.12 -0.12)">
       <use transform="scale(0.996264)" xlink:href="#CMR17-31"/>
       <use transform="translate(45.690477 0)scale(0.996264)" xlink:href="#CMR17-32"/>
       <use transform="translate(91.380954 0)scale(0.996264)" xlink:href="#CMR17-35"/>
      </g>
     </g>
    </g>
    <g id="xtick_7">
     <g id="line2d_13">
      <path clip-path="url(#pe2e546e655)" d="M 514.884949 113.413224 
L 514.884949 23.660772 
" style="fill:none;stroke:#b0b0b0;stroke-linecap:square;stroke-width:0.5;"/>
     </g>
     <g id="line2d_14">
      <g>
       <use style="stroke:#000000;stroke-width:0.8;" x="514.884949" xlink:href="#mef1bbe48ce" y="113.413224"/>
      </g>
     </g>
     <g id="text_7">
      <!-- $\mathdefault{150}$ -->
      <g transform="translate(506.105464 128.715404)scale(0.12 -0.12)">
       <use transform="scale(0.996264)" xlink:href="#CMR17-31"/>
       <use transform="translate(45.690477 0)scale(0.996264)" xlink:href="#CMR17-35"/>
       <use transform="translate(91.380954 0)scale(0.996264)" xlink:href="#CMR17-30"/>
      </g>
     </g>
    </g>
    <g id="xtick_8">
     <g id="line2d_15">
      <path clip-path="url(#pe2e546e655)" d="M 590.749554 113.413224 
L 590.749554 23.660772 
" style="fill:none;stroke:#b0b0b0;stroke-linecap:square;stroke-width:0.5;"/>
     </g>
     <g id="line2d_16">
      <g>
       <use style="stroke:#000000;stroke-width:0.8;" x="590.749554" xlink:href="#mef1bbe48ce" y="113.413224"/>
      </g>
     </g>
     <g id="text_8">
      <!-- $\mathdefault{175}$ -->
      <g transform="translate(581.970068 128.715404)scale(0.12 -0.12)">
       <use transform="scale(0.996264)" xlink:href="#CMR17-31"/>
       <use transform="translate(45.690477 0)scale(0.996264)" xlink:href="#CMR17-37"/>
       <use transform="translate(91.380954 0)scale(0.996264)" xlink:href="#CMR17-35"/>
      </g>
     </g>
    </g>
    <g id="xtick_9">
     <g id="line2d_17">
      <path clip-path="url(#pe2e546e655)" d="M 666.614158 113.413224 
L 666.614158 23.660772 
" style="fill:none;stroke:#b0b0b0;stroke-linecap:square;stroke-width:0.5;"/>
     </g>
     <g id="line2d_18">
      <g>
       <use style="stroke:#000000;stroke-width:0.8;" x="666.614158" xlink:href="#mef1bbe48ce" y="113.413224"/>
      </g>
     </g>
     <g id="text_9">
      <!-- $\mathdefault{200}$ -->
      <g transform="translate(657.834673 128.715404)scale(0.12 -0.12)">
       <use transform="scale(0.996264)" xlink:href="#CMR17-32"/>
       <use transform="translate(45.690477 0)scale(0.996264)" xlink:href="#CMR17-30"/>
       <use transform="translate(91.380954 0)scale(0.996264)" xlink:href="#CMR17-30"/>
      </g>
     </g>
    </g>
   </g>
   <g id="matplotlib.axis_2">
    <g id="ytick_1">
     <g id="line2d_19">
      <path clip-path="url(#pe2e546e655)" d="M 29.35148 98.454482 
L 696.96 98.454482 
" style="fill:none;stroke:#b0b0b0;stroke-linecap:square;stroke-width:0.5;"/>
     </g>
     <g id="line2d_20">
      <defs>
       <path d="M 0 0 
L -3.5 0 
" id="m1ea03b73b0" style="stroke:#000000;stroke-width:0.8;"/>
      </defs>
      <g>
       <use style="stroke:#000000;stroke-width:0.8;" x="29.35148" xlink:href="#m1ea03b73b0" y="98.454482"/>
      </g>
     </g>
     <g id="text_10">
      <!-- $\mathdefault{−2}$ -->
      <g transform="translate(7.2 102.605572)scale(0.12 -0.12)">
       <defs>
        <path d="M 4218 1472 
C 4326 1472 4442 1472 4442 1600 
C 4442 1728 4326 1728 4218 1728 
L 755 1728 
C 646 1728 531 1728 531 1600 
C 531 1472 646 1472 755 1472 
L 4218 1472 
z
" id="CMSY10-0" transform="scale(0.015625)"/>
       </defs>
       <use transform="scale(0.996264)" xlink:href="#CMSY10-0"/>
       <use transform="translate(77.487468 0)scale(0.996264)" xlink:href="#CMR17-32"/>
      </g>
     </g>
    </g>
    <g id="ytick_2">
     <g id="line2d_21">
      <path clip-path="url(#pe2e546e655)" d="M 29.35148 68.536998 
L 696.96 68.536998 
" style="fill:none;stroke:#b0b0b0;stroke-linecap:square;stroke-width:0.5;"/>
     </g>
     <g id="line2d_22">
      <g>
       <use style="stroke:#000000;stroke-width:0.8;" x="29.35148" xlink:href="#m1ea03b73b0" y="68.536998"/>
      </g>
     </g>
     <g id="text_11">
      <!-- $\mathdefault{0}$ -->
      <g transform="translate(16.498489 72.688088)scale(0.12 -0.12)">
       <use transform="scale(0.996264)" xlink:href="#CMR17-30"/>
      </g>
     </g>
    </g>
    <g id="ytick_3">
     <g id="line2d_23">
      <path clip-path="url(#pe2e546e655)" d="M 29.35148 38.619514 
L 696.96 38.619514 
" style="fill:none;stroke:#b0b0b0;stroke-linecap:square;stroke-width:0.5;"/>
     </g>
     <g id="line2d_24">
      <g>
       <use style="stroke:#000000;stroke-width:0.8;" x="29.35148" xlink:href="#m1ea03b73b0" y="38.619514"/>
      </g>
     </g>
     <g id="text_12">
      <!-- $\mathdefault{2}$ -->
      <g transform="translate(16.498489 42.770604)scale(0.12 -0.12)">
       <use transform="scale(0.996264)" xlink:href="#CMR17-32"/>
      </g>
     </g>
    </g>
   </g>
   <g id="line2d_25">
    <path clip-path="url(#pe2e546e655)" d="M 59.697322 66.852481 
L 62.731906 64.111575 
L 65.76649 65.512145 
L 68.801074 55.507082 
L 71.835658 55.440088 
L 74.870242 48.428607 
L 77.904827 52.259242 
L 80.939411 54.188529 
L 83.973995 58.318585 
L 87.008579 52.828911 
L 90.043163 56.404452 
L 93.077748 64.853908 
L 96.112332 71.186247 
L 99.146916 67.335698 
L 102.1815 72.370486 
L 105.216084 76.822472 
L 108.250668 72.41997 
L 111.285253 81.85306 
L 114.319837 85.514847 
L 117.354421 84.539982 
L 120.389005 83.754897 
L 123.423589 80.58127 
L 126.458174 79.711602 
L 129.492758 78.561224 
L 132.527342 73.199791 
L 135.561926 64.856514 
L 138.59651 63.146907 
L 141.631094 63.030616 
L 144.665679 60.885557 
L 147.700263 52.977704 
L 150.734847 56.030921 
L 153.769431 49.619479 
L 159.8386 60.212188 
L 162.873184 59.499369 
L 165.907768 62.844253 
L 168.942352 58.768711 
L 171.976936 73.077155 
L 175.01152 74.98816 
L 178.046105 70.15463 
L 181.080689 80.302658 
L 184.115273 75.020781 
L 187.149857 83.146171 
L 190.184441 81.530855 
L 193.219026 84.000007 
L 196.25361 84.744103 
L 199.288194 80.661991 
L 202.322778 79.321547 
L 205.357362 79.285443 
L 208.391946 71.333449 
L 211.426531 69.169239 
L 214.461115 60.877931 
L 217.495699 65.35833 
L 220.530283 54.248328 
L 223.564867 56.743312 
L 226.599452 49.698854 
L 229.634036 51.755857 
L 235.703204 51.431501 
L 238.737788 59.120715 
L 241.772373 63.055628 
L 244.806957 60.703197 
L 247.841541 68.336826 
L 250.876125 69.860238 
L 253.910709 71.54851 
L 256.945293 79.379647 
L 259.979878 74.631826 
L 263.014462 87.365325 
L 266.049046 79.245522 
L 269.08363 80.772978 
L 272.118214 76.727674 
L 275.152799 89.419594 
L 278.187383 77.207573 
L 281.221967 77.660978 
L 284.256551 73.820199 
L 287.291135 74.415617 
L 290.325719 66.430412 
L 293.360304 59.738714 
L 296.394888 58.106541 
L 299.429472 53.831518 
L 302.464056 51.844751 
L 305.49864 49.488714 
L 308.533225 50.689458 
L 311.567809 62.062168 
L 314.602393 55.022976 
L 317.636977 55.119251 
L 320.671561 64.775395 
L 323.706145 67.145658 
L 326.74073 71.670566 
L 329.775314 78.175434 
L 332.809898 76.940028 
L 335.844482 82.590585 
L 338.879066 82.099862 
L 341.913651 90.151186 
L 344.948235 83.017378 
L 347.982819 81.827406 
L 351.017403 77.499383 
L 354.051987 77.298203 
L 357.086571 73.572693 
L 360.121156 70.171231 
L 363.15574 68.534747 
L 366.190324 59.039061 
L 369.224908 60.393531 
L 372.259492 56.796976 
L 375.294077 51.690742 
L 378.328661 54.794104 
L 381.363245 56.892385 
L 384.397829 55.146651 
L 387.432413 59.467507 
L 390.466997 59.536989 
L 393.501582 59.054578 
L 396.536166 65.04349 
L 399.57075 64.025094 
L 402.605334 67.981807 
L 405.639918 75.881479 
L 408.674503 69.345718 
L 411.709087 74.731584 
L 414.743671 84.647905 
L 417.778255 80.425307 
L 420.812839 85.186045 
L 423.847424 88.488613 
L 426.882008 85.519994 
L 429.916592 75.610449 
L 432.951176 77.865743 
L 435.98576 70.731772 
L 439.020344 75.379795 
L 442.054929 66.296954 
L 445.089513 61.568605 
L 448.124097 53.386564 
L 451.158681 53.799522 
L 454.193265 55.985036 
L 457.22785 47.987751 
L 460.262434 53.380183 
L 463.297018 53.59709 
L 466.331602 57.302932 
L 469.366186 56.487927 
L 472.40077 65.120544 
L 475.435355 66.437328 
L 478.469939 76.909366 
L 481.504523 70.253437 
L 484.539107 77.795664 
L 487.573691 82.686186 
L 490.608276 84.937304 
L 493.64286 81.005139 
L 496.677444 83.009269 
L 499.712028 89.35631 
L 502.746612 79.062443 
L 505.781196 77.479738 
L 508.815781 75.073013 
L 511.850365 78.284276 
L 514.884949 69.130413 
L 517.919533 67.327877 
L 520.954117 58.449032 
L 523.988702 55.818876 
L 527.023286 58.124262 
L 530.05787 56.680978 
L 533.092454 52.751356 
L 536.127038 54.389094 
L 539.161622 53.46393 
L 542.196207 58.574559 
L 545.230791 61.996463 
L 548.265375 65.855751 
L 551.299959 62.178641 
L 554.334543 74.743557 
L 557.369128 76.334801 
L 560.403712 76.035193 
L 563.438296 76.396011 
L 566.47288 84.843296 
L 569.507464 82.872658 
L 572.542048 84.343346 
L 575.576633 82.319908 
L 578.611217 81.873491 
L 581.645801 79.291323 
L 584.680385 76.478084 
L 587.714969 71.180166 
L 593.784138 63.709568 
L 596.818722 57.744379 
L 599.853306 61.009342 
L 602.88789 55.787741 
L 605.922475 52.329371 
L 608.957059 61.415592 
L 611.991643 48.221249 
L 615.026227 57.772236 
L 618.060811 58.385966 
L 621.095395 58.793322 
L 624.12998 61.146001 
L 627.164564 60.648178 
L 630.199148 74.843379 
L 633.233732 72.635707 
L 636.268316 75.535042 
L 639.302901 79.015201 
L 642.337485 81.551725 
L 645.372069 86.107223 
L 648.406653 79.660266 
L 651.441237 80.837657 
L 654.475821 77.945248 
L 657.510406 78.587133 
L 660.54499 73.998939 
L 663.579574 74.05952 
L 666.614158 71.064083 
L 666.614158 71.064083 
" style="fill:none;stroke:#1f77b4;stroke-linecap:square;"/>
   </g>
   <g id="patch_3">
    <path d="M 29.35148 113.413224 
L 29.35148 23.660772 
" style="fill:none;stroke:#000000;stroke-linecap:square;stroke-linejoin:miter;stroke-width:0.5;"/>
   </g>
   <g id="patch_4">
    <path d="M 696.96 113.413224 
L 696.96 23.660772 
" style="fill:none;stroke:#000000;stroke-linecap:square;stroke-linejoin:miter;stroke-width:0.5;"/>
   </g>
   <g id="patch_5">
    <path d="M 29.35148 113.413224 
L 696.96 113.413224 
" style="fill:none;stroke:#000000;stroke-linecap:square;stroke-linejoin:miter;stroke-width:0.5;"/>
   </g>
   <g id="patch_6">
    <path d="M 29.35148 23.660772 
L 696.96 23.660772 
" style="fill:none;stroke:#000000;stroke-linecap:square;stroke-linejoin:miter;stroke-width:0.5;"/>
   </g>
   <g id="text_13">
    <!-- RSB = $10$ dB\quad$(\sigma\approx0.22)$ -->
    <g transform="translate(284.194984 17.660772)scale(0.14 -0.14)">
     <defs>
      <path d="M 2509 2156 
C 3117 2278 3629 2689 3629 3203 
C 3629 3806 2950 4352 2054 4352 
L 333 4352 
L 333 4185 
C 774 4185 845 4185 845 3896 
L 845 428 
C 845 140 774 140 333 140 
L 333 -26 
C 518 -13 851 -13 1050 -13 
C 1248 -13 1581 -13 1766 -26 
L 1766 140 
C 1325 140 1254 140 1254 428 
L 1254 2112 
L 2003 2112 
C 2368 2112 2573 1964 2662 1881 
C 2918 1632 2918 1459 2918 1024 
C 2918 595 2918 377 3110 160 
C 3354 -103 3680 -128 3821 -128 
C 4294 -128 4365 403 4365 512 
C 4365 550 4365 595 4307 595 
C 4256 595 4250 556 4250 531 
C 4218 115 4032 -26 3834 -26 
C 3482 -26 3443 377 3405 768 
C 3386 902 3373 998 3360 1139 
C 3322 1459 3270 1926 2509 2156 
z
M 1984 2214 
L 1254 2214 
L 1254 3935 
C 1254 4153 1267 4185 1523 4185 
L 1990 4185 
C 2522 4185 3142 3999 3142 3203 
C 3142 2374 2464 2214 1984 2214 
z
" id="CMR17-52" transform="scale(0.015625)"/>
      <path d="M 2803 4351 
C 2803 4467 2797 4473 2758 4473 
C 2720 4473 2707 4447 2682 4390 
L 2490 3965 
C 2246 4320 1875 4480 1472 4480 
C 819 4480 294 3958 294 3301 
C 294 3101 339 2817 557 2546 
C 794 2250 1018 2198 1530 2063 
C 1722 2011 2042 1927 2106 1901 
C 2470 1747 2662 1360 2662 999 
C 2662 534 2336 38 1779 38 
C 1094 38 454 425 410 1328 
C 403 1431 397 1437 352 1437 
C 301 1437 294 1431 294 1302 
L 294 0 
C 294 -116 301 -122 339 -122 
C 384 -122 397 -90 486 109 
C 493 128 493 141 614 386 
C 934 -39 1472 -128 1779 -128 
C 2477 -128 2970 457 2970 1141 
C 2970 1476 2848 1734 2778 1850 
C 2509 2263 2221 2340 1914 2417 
C 1869 2437 1856 2437 1498 2527 
C 1152 2617 1005 2662 845 2836 
C 666 3036 602 3243 602 3449 
C 602 3868 934 4326 1478 4326 
C 2157 4326 2579 3842 2675 3036 
C 2694 2920 2701 2914 2746 2914 
C 2803 2914 2803 2933 2803 3043 
L 2803 4351 
z
" id="CMR17-53" transform="scale(0.015625)"/>
      <path d="M 333 4352 
L 333 4185 
C 774 4185 845 4185 845 3897 
L 845 451 
C 845 166 774 166 333 166 
L 333 0 
L 2534 0 
C 3354 0 3885 578 3885 1155 
C 3885 1726 3360 2214 2675 2259 
C 3290 2380 3718 2790 3718 3276 
C 3718 3808 3194 4352 2368 4352 
L 333 4352 
z
M 1248 2304 
L 1248 3936 
C 1248 4153 1261 4185 1517 4185 
L 2336 4185 
C 2970 4185 3251 3673 3251 3276 
C 3251 2790 2861 2304 2170 2304 
L 1248 2304 
z
M 1517 166 
C 1261 166 1248 198 1248 413 
L 1248 2201 
L 2432 2201 
C 3091 2201 3411 1624 3411 1161 
C 3411 698 3046 166 2349 166 
L 1517 166 
z
" id="CMR17-42" transform="scale(0.015625)"/>
      <path d="M 4115 2048 
C 4211 2048 4307 2048 4307 2156 
C 4307 2272 4198 2272 4090 2272 
L 512 2272 
C 403 2272 294 2272 294 2156 
C 294 2048 390 2048 486 2048 
L 4115 2048 
z
M 4090 927 
C 4198 927 4307 927 4307 1043 
C 4307 1152 4211 1152 4115 1152 
L 486 1152 
C 390 1152 294 1152 294 1043 
C 294 927 403 927 512 927 
L 4090 927 
z
" id="CMR17-3d" transform="scale(0.015625)"/>
      <path d="M 1869 4345 
L 1869 4179 
C 2246 4179 2304 4141 2304 3843 
L 2304 2371 
C 2278 2403 2016 2816 1498 2816 
C 845 2816 211 2228 211 1376 
C 211 529 806 -64 1434 -64 
C 1978 -64 2259 361 2291 406 
L 2291 -64 
L 3066 -13 
L 3066 154 
C 2688 154 2630 193 2630 503 
L 2630 4416 
L 1869 4345 
z
M 2291 762 
C 2291 568 2176 393 2029 264 
C 1811 70 1594 38 1472 38 
C 1286 38 621 135 621 1369 
C 621 2636 1363 2713 1530 2713 
C 1824 2713 2061 2545 2208 2313 
C 2291 2177 2291 2157 2291 2041 
L 2291 762 
z
" id="CMR17-64" transform="scale(0.015625)"/>
      <path d="M 1958 -1562 
C 1958 -1556 1958 -1543 1939 -1524 
C 1645 -1223 858 -403 858 1596 
C 858 3595 1632 4408 1946 4729 
C 1946 4735 1958 4748 1958 4767 
C 1958 4787 1939 4800 1914 4800 
C 1843 4800 1299 4325 986 3620 
C 666 2909 576 2218 576 1603 
C 576 1141 621 360 1005 -467 
C 1312 -1133 1837 -1600 1914 -1600 
C 1946 -1600 1958 -1588 1958 -1562 
z
" id="CMR17-28" transform="scale(0.015625)"/>
      <path d="M 3251 2406 
C 3334 2406 3546 2406 3546 2611 
C 3546 2752 3424 2752 3309 2752 
L 1894 2752 
C 934 2752 243 1685 243 932 
C 243 389 595 -64 1171 -64 
C 1926 -64 2752 746 2752 1704 
C 2752 1953 2694 2195 2541 2406 
L 3251 2406 
z
M 1178 64 
C 851 64 614 312 614 753 
C 614 1136 845 2406 1786 2406 
C 2061 2406 2368 2272 2368 1780 
C 2368 1557 2266 1021 2042 651 
C 1811 274 1466 64 1178 64 
z
" id="CMMI12-1b" transform="scale(0.015625)"/>
      <path d="M 4621 2912 
C 4621 3046 4576 3104 4531 3104 
C 4506 3104 4448 3078 4442 2931 
C 4416 2483 3968 2214 3552 2214 
C 3181 2214 2861 2417 2528 2647 
C 2182 2880 1837 3110 1421 3110 
C 826 3110 352 2653 352 2054 
C 352 1913 403 1862 442 1862 
C 506 1862 531 1984 531 2009 
C 563 2555 1088 2752 1421 2752 
C 1792 2752 2112 2548 2445 2319 
C 2790 2086 3136 1856 3552 1856 
C 4147 1856 4621 2312 4621 2912 
z
M 4621 1395 
C 4621 1580 4544 1593 4531 1593 
C 4506 1593 4448 1561 4442 1420 
C 4416 972 3968 704 3552 704 
C 3181 704 2861 907 2528 1136 
C 2182 1369 1837 1600 1421 1600 
C 826 1600 352 1143 352 543 
C 352 403 403 351 442 351 
C 506 351 531 473 531 499 
C 563 1044 1088 1241 1421 1241 
C 1792 1241 2112 1038 2445 808 
C 2790 575 3136 345 3552 345 
C 4160 345 4621 822 4621 1395 
z
" id="CMSY10-19" transform="scale(0.015625)"/>
      <path d="M 1178 307 
C 1178 492 1024 620 870 620 
C 685 620 557 467 557 313 
C 557 128 710 0 864 0 
C 1050 0 1178 153 1178 307 
z
" id="CMMI12-3a" transform="scale(0.015625)"/>
      <path d="M 1683 1596 
C 1683 2057 1638 2839 1254 3665 
C 947 4332 422 4800 346 4800 
C 326 4800 301 4793 301 4761 
C 301 4748 307 4742 314 4729 
C 621 4408 1402 3595 1402 1603 
C 1402 -396 627 -1210 314 -1530 
C 307 -1543 301 -1549 301 -1562 
C 301 -1594 326 -1600 346 -1600 
C 416 -1600 960 -1127 1274 -422 
C 1594 289 1683 981 1683 1596 
z
" id="CMR17-29" transform="scale(0.015625)"/>
     </defs>
     <use transform="scale(0.996264)" xlink:href="#CMR17-52"/>
     <use transform="translate(67.791102 0)scale(0.996264)" xlink:href="#CMR17-53"/>
     <use transform="translate(118.686472 0)scale(0.996264)" xlink:href="#CMR17-42"/>
     <use transform="translate(213.951193 0)scale(0.996264)" xlink:href="#CMR17-3d"/>
     <use transform="translate(315.741947 0)scale(0.996264)" xlink:href="#CMR17-31"/>
     <use transform="translate(361.432424 0)scale(0.996264)" xlink:href="#CMR17-30"/>
     <use transform="translate(437.198868 0)scale(0.996264)" xlink:href="#CMR17-64"/>
     <use transform="translate(488.094238 0)scale(0.996264)" xlink:href="#CMR17-42"/>
     <use transform="translate(644.664038 0)scale(0.996264)" xlink:href="#CMR17-28"/>
     <use transform="translate(679.944805 0)scale(0.996264)" xlink:href="#CMMI12-1b"/>
     <use transform="translate(766.638868 0)scale(0.996264)" xlink:href="#CMSY10-19"/>
     <use transform="translate(871.800344 0)scale(0.996264)" xlink:href="#CMR17-30"/>
     <use transform="translate(917.490821 0)scale(0.996264)" xlink:href="#CMMI12-3a"/>
     <use transform="translate(944.587998 0)scale(0.996264)" xlink:href="#CMR17-32"/>
     <use transform="translate(990.278475 0)scale(0.996264)" xlink:href="#CMR17-32"/>
     <use transform="translate(1035.968952 0)scale(0.996264)" xlink:href="#CMR17-29"/>
    </g>
   </g>
  </g>
  <g id="axes_2">
   <g id="patch_7">
    <path d="M 29.35148 252.373224 
L 696.96 252.373224 
L 696.96 162.620772 
L 29.35148 162.620772 
z
" style="fill:#ffffff;"/>
   </g>
   <g id="matplotlib.axis_3">
    <g id="xtick_10">
     <g id="line2d_26">
      <path clip-path="url(#pf54f4e0371)" d="M 59.697322 252.373224 
L 59.697322 162.620772 
" style="fill:none;stroke:#b0b0b0;stroke-linecap:square;stroke-width:0.5;"/>
     </g>
     <g id="line2d_27">
      <g>
       <use style="stroke:#000000;stroke-width:0.8;" x="59.697322" xlink:href="#mef1bbe48ce" y="252.373224"/>
      </g>
     </g>
     <g id="text_14">
      <!-- $\mathdefault{0}$ -->
      <g transform="translate(56.770826 267.675404)scale(0.12 -0.12)">
       <use transform="scale(0.996264)" xlink:href="#CMR17-30"/>
      </g>
     </g>
    </g>
    <g id="xtick_11">
     <g id="line2d_28">
      <path clip-path="url(#pf54f4e0371)" d="M 135.561926 252.373224 
L 135.561926 162.620772 
" style="fill:none;stroke:#b0b0b0;stroke-linecap:square;stroke-width:0.5;"/>
     </g>
     <g id="line2d_29">
      <g>
       <use style="stroke:#000000;stroke-width:0.8;" x="135.561926" xlink:href="#mef1bbe48ce" y="252.373224"/>
      </g>
     </g>
     <g id="text_15">
      <!-- $\mathdefault{25}$ -->
      <g transform="translate(129.708936 267.675404)scale(0.12 -0.12)">
       <use transform="scale(0.996264)" xlink:href="#CMR17-32"/>
       <use transform="translate(45.690477 0)scale(0.996264)" xlink:href="#CMR17-35"/>
      </g>
     </g>
    </g>
    <g id="xtick_12">
     <g id="line2d_30">
      <path clip-path="url(#pf54f4e0371)" d="M 211.426531 252.373224 
L 211.426531 162.620772 
" style="fill:none;stroke:#b0b0b0;stroke-linecap:square;stroke-width:0.5;"/>
     </g>
     <g id="line2d_31">
      <g>
       <use style="stroke:#000000;stroke-width:0.8;" x="211.426531" xlink:href="#mef1bbe48ce" y="252.373224"/>
      </g>
     </g>
     <g id="text_16">
      <!-- $\mathdefault{50}$ -->
      <g transform="translate(205.57354 267.675404)scale(0.12 -0.12)">
       <use transform="scale(0.996264)" xlink:href="#CMR17-35"/>
       <use transform="translate(45.690477 0)scale(0.996264)" xlink:href="#CMR17-30"/>
      </g>
     </g>
    </g>
    <g id="xtick_13">
     <g id="line2d_32">
      <path clip-path="url(#pf54f4e0371)" d="M 287.291135 252.373224 
L 287.291135 162.620772 
" style="fill:none;stroke:#b0b0b0;stroke-linecap:square;stroke-width:0.5;"/>
     </g>
     <g id="line2d_33">
      <g>
       <use style="stroke:#000000;stroke-width:0.8;" x="287.291135" xlink:href="#mef1bbe48ce" y="252.373224"/>
      </g>
     </g>
     <g id="text_17">
      <!-- $\mathdefault{75}$ -->
      <g transform="translate(281.438145 267.675404)scale(0.12 -0.12)">
       <use transform="scale(0.996264)" xlink:href="#CMR17-37"/>
       <use transform="translate(45.690477 0)scale(0.996264)" xlink:href="#CMR17-35"/>
      </g>
     </g>
    </g>
    <g id="xtick_14">
     <g id="line2d_34">
      <path clip-path="url(#pf54f4e0371)" d="M 363.15574 252.373224 
L 363.15574 162.620772 
" style="fill:none;stroke:#b0b0b0;stroke-linecap:square;stroke-width:0.5;"/>
     </g>
     <g id="line2d_35">
      <g>
       <use style="stroke:#000000;stroke-width:0.8;" x="363.15574" xlink:href="#mef1bbe48ce" y="252.373224"/>
      </g>
     </g>
     <g id="text_18">
      <!-- $\mathdefault{100}$ -->
      <g transform="translate(354.376254 267.675404)scale(0.12 -0.12)">
       <use transform="scale(0.996264)" xlink:href="#CMR17-31"/>
       <use transform="translate(45.690477 0)scale(0.996264)" xlink:href="#CMR17-30"/>
       <use transform="translate(91.380954 0)scale(0.996264)" xlink:href="#CMR17-30"/>
      </g>
     </g>
    </g>
    <g id="xtick_15">
     <g id="line2d_36">
      <path clip-path="url(#pf54f4e0371)" d="M 439.020344 252.373224 
L 439.020344 162.620772 
" style="fill:none;stroke:#b0b0b0;stroke-linecap:square;stroke-width:0.5;"/>
     </g>
     <g id="line2d_37">
      <g>
       <use style="stroke:#000000;stroke-width:0.8;" x="439.020344" xlink:href="#mef1bbe48ce" y="252.373224"/>
      </g>
     </g>
     <g id="text_19">
      <!-- $\mathdefault{125}$ -->
      <g transform="translate(430.240859 267.675404)scale(0.12 -0.12)">
       <use transform="scale(0.996264)" xlink:href="#CMR17-31"/>
       <use transform="translate(45.690477 0)scale(0.996264)" xlink:href="#CMR17-32"/>
       <use transform="translate(91.380954 0)scale(0.996264)" xlink:href="#CMR17-35"/>
      </g>
     </g>
    </g>
    <g id="xtick_16">
     <g id="line2d_38">
      <path clip-path="url(#pf54f4e0371)" d="M 514.884949 252.373224 
L 514.884949 162.620772 
" style="fill:none;stroke:#b0b0b0;stroke-linecap:square;stroke-width:0.5;"/>
     </g>
     <g id="line2d_39">
      <g>
       <use style="stroke:#000000;stroke-width:0.8;" x="514.884949" xlink:href="#mef1bbe48ce" y="252.373224"/>
      </g>
     </g>
     <g id="text_20">
      <!-- $\mathdefault{150}$ -->
      <g transform="translate(506.105464 267.675404)scale(0.12 -0.12)">
       <use transform="scale(0.996264)" xlink:href="#CMR17-31"/>
       <use transform="translate(45.690477 0)scale(0.996264)" xlink:href="#CMR17-35"/>
       <use transform="translate(91.380954 0)scale(0.996264)" xlink:href="#CMR17-30"/>
      </g>
     </g>
    </g>
    <g id="xtick_17">
     <g id="line2d_40">
      <path clip-path="url(#pf54f4e0371)" d="M 590.749554 252.373224 
L 590.749554 162.620772 
" style="fill:none;stroke:#b0b0b0;stroke-linecap:square;stroke-width:0.5;"/>
     </g>
     <g id="line2d_41">
      <g>
       <use style="stroke:#000000;stroke-width:0.8;" x="590.749554" xlink:href="#mef1bbe48ce" y="252.373224"/>
      </g>
     </g>
     <g id="text_21">
      <!-- $\mathdefault{175}$ -->
      <g transform="translate(581.970068 267.675404)scale(0.12 -0.12)">
       <use transform="scale(0.996264)" xlink:href="#CMR17-31"/>
       <use transform="translate(45.690477 0)scale(0.996264)" xlink:href="#CMR17-37"/>
       <use transform="translate(91.380954 0)scale(0.996264)" xlink:href="#CMR17-35"/>
      </g>
     </g>
    </g>
    <g id="xtick_18">
     <g id="line2d_42">
      <path clip-path="url(#pf54f4e0371)" d="M 666.614158 252.373224 
L 666.614158 162.620772 
" style="fill:none;stroke:#b0b0b0;stroke-linecap:square;stroke-width:0.5;"/>
     </g>
     <g id="line2d_43">
      <g>
       <use style="stroke:#000000;stroke-width:0.8;" x="666.614158" xlink:href="#mef1bbe48ce" y="252.373224"/>
      </g>
     </g>
     <g id="text_22">
      <!-- $\mathdefault{200}$ -->
      <g transform="translate(657.834673 267.675404)scale(0.12 -0.12)">
       <use transform="scale(0.996264)" xlink:href="#CMR17-32"/>
       <use transform="translate(45.690477 0)scale(0.996264)" xlink:href="#CMR17-30"/>
       <use transform="translate(91.380954 0)scale(0.996264)" xlink:href="#CMR17-30"/>
      </g>
     </g>
    </g>
   </g>
   <g id="matplotlib.axis_4">
    <g id="ytick_4">
     <g id="line2d_44">
      <path clip-path="url(#pf54f4e0371)" d="M 29.35148 237.414482 
L 696.96 237.414482 
" style="fill:none;stroke:#b0b0b0;stroke-linecap:square;stroke-width:0.5;"/>
     </g>
     <g id="line2d_45">
      <g>
       <use style="stroke:#000000;stroke-width:0.8;" x="29.35148" xlink:href="#m1ea03b73b0" y="237.414482"/>
      </g>
     </g>
     <g id="text_23">
      <!-- $\mathdefault{−2}$ -->
      <g transform="translate(7.2 241.565572)scale(0.12 -0.12)">
       <use transform="scale(0.996264)" xlink:href="#CMSY10-0"/>
       <use transform="translate(77.487468 0)scale(0.996264)" xlink:href="#CMR17-32"/>
      </g>
     </g>
    </g>
    <g id="ytick_5">
     <g id="line2d_46">
      <path clip-path="url(#pf54f4e0371)" d="M 29.35148 207.496998 
L 696.96 207.496998 
" style="fill:none;stroke:#b0b0b0;stroke-linecap:square;stroke-width:0.5;"/>
     </g>
     <g id="line2d_47">
      <g>
       <use style="stroke:#000000;stroke-width:0.8;" x="29.35148" xlink:href="#m1ea03b73b0" y="207.496998"/>
      </g>
     </g>
     <g id="text_24">
      <!-- $\mathdefault{0}$ -->
      <g transform="translate(16.498489 211.648088)scale(0.12 -0.12)">
       <use transform="scale(0.996264)" xlink:href="#CMR17-30"/>
      </g>
     </g>
    </g>
    <g id="ytick_6">
     <g id="line2d_48">
      <path clip-path="url(#pf54f4e0371)" d="M 29.35148 177.579514 
L 696.96 177.579514 
" style="fill:none;stroke:#b0b0b0;stroke-linecap:square;stroke-width:0.5;"/>
     </g>
     <g id="line2d_49">
      <g>
       <use style="stroke:#000000;stroke-width:0.8;" x="29.35148" xlink:href="#m1ea03b73b0" y="177.579514"/>
      </g>
     </g>
     <g id="text_25">
      <!-- $\mathdefault{2}$ -->
      <g transform="translate(16.498489 181.730604)scale(0.12 -0.12)">
       <use transform="scale(0.996264)" xlink:href="#CMR17-32"/>
      </g>
     </g>
    </g>
   </g>
   <g id="line2d_50">
    <path clip-path="url(#pf54f4e0371)" d="M 59.697322 206.461697 
L 62.731906 195.61908 
L 65.76649 178.416686 
L 68.801074 172.322118 
L 71.835658 194.54898 
L 74.870242 183.767609 
L 77.904827 180.149605 
L 80.939411 174.334987 
L 83.973995 197.907128 
L 87.008579 186.328257 
L 90.043163 199.802477 
L 93.077748 197.867523 
L 96.112332 213.544291 
L 99.146916 203.984581 
L 102.1815 224.499368 
L 105.216084 207.734143 
L 108.250668 227.941478 
L 111.285253 227.710068 
L 114.319837 217.029144 
L 117.354421 220.213298 
L 120.389005 230.409912 
L 123.423589 210.820002 
L 126.458174 200.340898 
L 129.492758 237.383579 
L 132.527342 205.771685 
L 135.561926 217.260334 
L 138.59651 196.094725 
L 141.631094 196.899524 
L 144.665679 194.826581 
L 147.700263 198.937923 
L 150.734847 196.924818 
L 153.769431 193.158315 
L 156.804015 173.369466 
L 159.8386 183.90965 
L 162.873184 176.005602 
L 165.907768 187.28094 
L 168.942352 191.777531 
L 171.976936 186.472958 
L 175.01152 194.135686 
L 178.046105 221.819948 
L 181.080689 224.278249 
L 184.115273 227.761348 
L 187.149857 228.543105 
L 190.184441 204.743066 
L 193.219026 222.267276 
L 196.25361 236.430776 
L 199.288194 225.129752 
L 202.322778 212.939501 
L 205.357362 236.721572 
L 208.391946 205.749733 
L 211.426531 208.146386 
L 214.461115 209.391645 
L 217.495699 203.205784 
L 220.530283 181.968778 
L 223.564867 218.100789 
L 226.599452 174.422874 
L 229.634036 174.523582 
L 232.66862 181.146558 
L 235.703204 200.970349 
L 238.737788 215.588869 
L 241.772373 207.171451 
L 244.806957 204.90761 
L 247.841541 214.895115 
L 250.876125 218.643049 
L 253.910709 224.975303 
L 256.945293 208.121142 
L 259.979878 207.376299 
L 263.014462 226.353423 
L 266.049046 224.164113 
L 269.08363 209.94703 
L 272.118214 223.306192 
L 275.152799 209.843337 
L 278.187383 201.342896 
L 281.221967 215.20564 
L 284.256551 203.140497 
L 287.291135 198.1302 
L 290.325719 224.455973 
L 293.360304 210.68523 
L 296.394888 205.065168 
L 299.429472 201.031705 
L 302.464056 211.074594 
L 305.49864 184.359195 
L 308.533225 200.622279 
L 311.567809 202.245015 
L 314.602393 208.593213 
L 317.636977 193.723913 
L 320.671561 186.30433 
L 323.706145 211.602079 
L 326.74073 175.119879 
L 329.775314 214.482247 
L 332.809898 210.369913 
L 335.844482 223.735496 
L 338.879066 210.151867 
L 341.913651 216.47058 
L 344.948235 217.045415 
L 347.982819 228.403895 
L 351.017403 208.843414 
L 354.051987 218.455776 
L 357.086571 218.770516 
L 360.121156 228.043011 
L 363.15574 202.851737 
L 366.190324 208.583197 
L 369.224908 205.163833 
L 372.259492 197.062723 
L 375.294077 203.700623 
L 378.328661 195.204778 
L 381.363245 196.855539 
L 384.397829 192.48293 
L 387.432413 181.951594 
L 390.466997 200.342523 
L 393.501582 185.38928 
L 396.536166 230.508116 
L 399.57075 212.560285 
L 402.605334 222.581839 
L 405.639918 219.497477 
L 408.674503 213.28374 
L 411.709087 223.073538 
L 414.743671 225.593918 
L 417.778255 225.813386 
L 420.812839 229.941303 
L 423.847424 199.332635 
L 426.882008 219.828578 
L 429.916592 192.826505 
L 432.951176 201.345442 
L 435.98576 224.332979 
L 439.020344 203.642115 
L 442.054929 195.204244 
L 445.089513 208.847383 
L 448.124097 204.694082 
L 451.158681 191.742705 
L 454.193265 176.865022 
L 457.22785 197.924844 
L 460.262434 189.214695 
L 463.297018 174.153193 
L 466.331602 201.802422 
L 469.366186 217.84408 
L 472.40077 196.931867 
L 475.435355 193.007714 
L 478.469939 185.049139 
L 481.504523 222.732517 
L 484.539107 232.711357 
L 487.573691 204.413921 
L 490.608276 224.835831 
L 493.64286 213.930669 
L 496.677444 200.974444 
L 499.712028 225.215202 
L 502.746612 214.986424 
L 505.781196 212.161527 
L 508.815781 188.636479 
L 511.850365 203.017231 
L 514.884949 201.529059 
L 517.919533 192.293601 
L 520.954117 208.066208 
L 523.988702 200.836697 
L 527.023286 192.302294 
L 530.05787 181.745629 
L 533.092454 188.233642 
L 536.127038 172.870037 
L 539.161622 203.978445 
L 542.196207 185.631636 
L 545.230791 204.273676 
L 548.265375 202.320491 
L 551.299959 201.249034 
L 554.334543 222.298068 
L 557.369128 205.223582 
L 560.403712 206.957847 
L 563.438296 240.577977 
L 566.47288 228.951163 
L 569.507464 218.841145 
L 572.542048 223.068044 
L 575.576633 231.590199 
L 578.611217 214.699241 
L 581.645801 198.440814 
L 584.680385 210.228655 
L 587.714969 206.173188 
L 590.749554 208.187135 
L 593.784138 189.281761 
L 596.818722 212.239045 
L 599.853306 220.492092 
L 602.88789 211.806094 
L 605.922475 174.528773 
L 608.957059 190.808477 
L 611.991643 189.076842 
L 615.026227 208.554606 
L 618.060811 194.454079 
L 621.095395 203.952913 
L 624.12998 193.643886 
L 627.164564 209.36041 
L 630.199148 200.962238 
L 633.233732 228.670991 
L 636.268316 217.30052 
L 639.302901 206.954508 
L 642.337485 207.796565 
L 645.372069 221.68486 
L 648.406653 251.829745 
L 651.441237 211.200129 
L 654.475821 211.744017 
L 657.510406 214.904968 
L 660.54499 214.348321 
L 663.579574 198.372396 
L 666.614158 214.520186 
L 666.614158 214.520186 
" style="fill:none;stroke:#1f77b4;stroke-linecap:square;"/>
   </g>
   <g id="patch_8">
    <path d="M 29.35148 252.373224 
L 29.35148 162.620772 
" style="fill:none;stroke:#000000;stroke-linecap:square;stroke-linejoin:miter;stroke-width:0.5;"/>
   </g>
   <g id="patch_9">
    <path d="M 696.96 252.373224 
L 696.96 162.620772 
" style="fill:none;stroke:#000000;stroke-linecap:square;stroke-linejoin:miter;stroke-width:0.5;"/>
   </g>
   <g id="patch_10">
    <path d="M 29.35148 252.373224 
L 696.96 252.373224 
" style="fill:none;stroke:#000000;stroke-linecap:square;stroke-linejoin:miter;stroke-width:0.5;"/>
   </g>
   <g id="patch_11">
    <path d="M 29.35148 162.620772 
L 696.96 162.620772 
" style="fill:none;stroke:#000000;stroke-linecap:square;stroke-linejoin:miter;stroke-width:0.5;"/>
   </g>
   <g id="text_26">
    <!-- RSB = $0$ dB\quad$(\sigma\approx0.71)$ -->
    <g transform="translate(287.609228 156.620772)scale(0.14 -0.14)">
     <use transform="scale(0.996264)" xlink:href="#CMR17-52"/>
     <use transform="translate(67.791102 0)scale(0.996264)" xlink:href="#CMR17-53"/>
     <use transform="translate(118.686472 0)scale(0.996264)" xlink:href="#CMR17-42"/>
     <use transform="translate(213.951193 0)scale(0.996264)" xlink:href="#CMR17-3d"/>
     <use transform="translate(315.741947 0)scale(0.996264)" xlink:href="#CMR17-30"/>
     <use transform="translate(391.508391 0)scale(0.996264)" xlink:href="#CMR17-64"/>
     <use transform="translate(442.403761 0)scale(0.996264)" xlink:href="#CMR17-42"/>
     <use transform="translate(598.97356 0)scale(0.996264)" xlink:href="#CMR17-28"/>
     <use transform="translate(634.254328 0)scale(0.996264)" xlink:href="#CMMI12-1b"/>
     <use transform="translate(720.948391 0)scale(0.996264)" xlink:href="#CMSY10-19"/>
     <use transform="translate(826.109867 0)scale(0.996264)" xlink:href="#CMR17-30"/>
     <use transform="translate(871.800344 0)scale(0.996264)" xlink:href="#CMMI12-3a"/>
     <use transform="translate(898.897521 0)scale(0.996264)" xlink:href="#CMR17-37"/>
     <use transform="translate(944.587998 0)scale(0.996264)" xlink:href="#CMR17-31"/>
     <use transform="translate(990.278475 0)scale(0.996264)" xlink:href="#CMR17-29"/>
    </g>
   </g>
  </g>
  <g id="axes_3">
   <g id="patch_12">
    <path d="M 29.35148 391.333224 
L 696.96 391.333224 
L 696.96 301.580772 
L 29.35148 301.580772 
z
" style="fill:#ffffff;"/>
   </g>
   <g id="matplotlib.axis_5">
    <g id="xtick_19">
     <g id="line2d_51">
      <path clip-path="url(#pefc89c0dd4)" d="M 59.697322 391.333224 
L 59.697322 301.580772 
" style="fill:none;stroke:#b0b0b0;stroke-linecap:square;stroke-width:0.5;"/>
     </g>
     <g id="line2d_52">
      <g>
       <use style="stroke:#000000;stroke-width:0.8;" x="59.697322" xlink:href="#mef1bbe48ce" y="391.333224"/>
      </g>
     </g>
     <g id="text_27">
      <!-- $\mathdefault{0}$ -->
      <g transform="translate(56.770826 406.635404)scale(0.12 -0.12)">
       <use transform="scale(0.996264)" xlink:href="#CMR17-30"/>
      </g>
     </g>
    </g>
    <g id="xtick_20">
     <g id="line2d_53">
      <path clip-path="url(#pefc89c0dd4)" d="M 135.561926 391.333224 
L 135.561926 301.580772 
" style="fill:none;stroke:#b0b0b0;stroke-linecap:square;stroke-width:0.5;"/>
     </g>
     <g id="line2d_54">
      <g>
       <use style="stroke:#000000;stroke-width:0.8;" x="135.561926" xlink:href="#mef1bbe48ce" y="391.333224"/>
      </g>
     </g>
     <g id="text_28">
      <!-- $\mathdefault{25}$ -->
      <g transform="translate(129.708936 406.635404)scale(0.12 -0.12)">
       <use transform="scale(0.996264)" xlink:href="#CMR17-32"/>
       <use transform="translate(45.690477 0)scale(0.996264)" xlink:href="#CMR17-35"/>
      </g>
     </g>
    </g>
    <g id="xtick_21">
     <g id="line2d_55">
      <path clip-path="url(#pefc89c0dd4)" d="M 211.426531 391.333224 
L 211.426531 301.580772 
" style="fill:none;stroke:#b0b0b0;stroke-linecap:square;stroke-width:0.5;"/>
     </g>
     <g id="line2d_56">
      <g>
       <use style="stroke:#000000;stroke-width:0.8;" x="211.426531" xlink:href="#mef1bbe48ce" y="391.333224"/>
      </g>
     </g>
     <g id="text_29">
      <!-- $\mathdefault{50}$ -->
      <g transform="translate(205.57354 406.635404)scale(0.12 -0.12)">
       <use transform="scale(0.996264)" xlink:href="#CMR17-35"/>
       <use transform="translate(45.690477 0)scale(0.996264)" xlink:href="#CMR17-30"/>
      </g>
     </g>
    </g>
    <g id="xtick_22">
     <g id="line2d_57">
      <path clip-path="url(#pefc89c0dd4)" d="M 287.291135 391.333224 
L 287.291135 301.580772 
" style="fill:none;stroke:#b0b0b0;stroke-linecap:square;stroke-width:0.5;"/>
     </g>
     <g id="line2d_58">
      <g>
       <use style="stroke:#000000;stroke-width:0.8;" x="287.291135" xlink:href="#mef1bbe48ce" y="391.333224"/>
      </g>
     </g>
     <g id="text_30">
      <!-- $\mathdefault{75}$ -->
      <g transform="translate(281.438145 406.635404)scale(0.12 -0.12)">
       <use transform="scale(0.996264)" xlink:href="#CMR17-37"/>
       <use transform="translate(45.690477 0)scale(0.996264)" xlink:href="#CMR17-35"/>
      </g>
     </g>
    </g>
    <g id="xtick_23">
     <g id="line2d_59">
      <path clip-path="url(#pefc89c0dd4)" d="M 363.15574 391.333224 
L 363.15574 301.580772 
" style="fill:none;stroke:#b0b0b0;stroke-linecap:square;stroke-width:0.5;"/>
     </g>
     <g id="line2d_60">
      <g>
       <use style="stroke:#000000;stroke-width:0.8;" x="363.15574" xlink:href="#mef1bbe48ce" y="391.333224"/>
      </g>
     </g>
     <g id="text_31">
      <!-- $\mathdefault{100}$ -->
      <g transform="translate(354.376254 406.635404)scale(0.12 -0.12)">
       <use transform="scale(0.996264)" xlink:href="#CMR17-31"/>
       <use transform="translate(45.690477 0)scale(0.996264)" xlink:href="#CMR17-30"/>
       <use transform="translate(91.380954 0)scale(0.996264)" xlink:href="#CMR17-30"/>
      </g>
     </g>
    </g>
    <g id="xtick_24">
     <g id="line2d_61">
      <path clip-path="url(#pefc89c0dd4)" d="M 439.020344 391.333224 
L 439.020344 301.580772 
" style="fill:none;stroke:#b0b0b0;stroke-linecap:square;stroke-width:0.5;"/>
     </g>
     <g id="line2d_62">
      <g>
       <use style="stroke:#000000;stroke-width:0.8;" x="439.020344" xlink:href="#mef1bbe48ce" y="391.333224"/>
      </g>
     </g>
     <g id="text_32">
      <!-- $\mathdefault{125}$ -->
      <g transform="translate(430.240859 406.635404)scale(0.12 -0.12)">
       <use transform="scale(0.996264)" xlink:href="#CMR17-31"/>
       <use transform="translate(45.690477 0)scale(0.996264)" xlink:href="#CMR17-32"/>
       <use transform="translate(91.380954 0)scale(0.996264)" xlink:href="#CMR17-35"/>
      </g>
     </g>
    </g>
    <g id="xtick_25">
     <g id="line2d_63">
      <path clip-path="url(#pefc89c0dd4)" d="M 514.884949 391.333224 
L 514.884949 301.580772 
" style="fill:none;stroke:#b0b0b0;stroke-linecap:square;stroke-width:0.5;"/>
     </g>
     <g id="line2d_64">
      <g>
       <use style="stroke:#000000;stroke-width:0.8;" x="514.884949" xlink:href="#mef1bbe48ce" y="391.333224"/>
      </g>
     </g>
     <g id="text_33">
      <!-- $\mathdefault{150}$ -->
      <g transform="translate(506.105464 406.635404)scale(0.12 -0.12)">
       <use transform="scale(0.996264)" xlink:href="#CMR17-31"/>
       <use transform="translate(45.690477 0)scale(0.996264)" xlink:href="#CMR17-35"/>
       <use transform="translate(91.380954 0)scale(0.996264)" xlink:href="#CMR17-30"/>
      </g>
     </g>
    </g>
    <g id="xtick_26">
     <g id="line2d_65">
      <path clip-path="url(#pefc89c0dd4)" d="M 590.749554 391.333224 
L 590.749554 301.580772 
" style="fill:none;stroke:#b0b0b0;stroke-linecap:square;stroke-width:0.5;"/>
     </g>
     <g id="line2d_66">
      <g>
       <use style="stroke:#000000;stroke-width:0.8;" x="590.749554" xlink:href="#mef1bbe48ce" y="391.333224"/>
      </g>
     </g>
     <g id="text_34">
      <!-- $\mathdefault{175}$ -->
      <g transform="translate(581.970068 406.635404)scale(0.12 -0.12)">
       <use transform="scale(0.996264)" xlink:href="#CMR17-31"/>
       <use transform="translate(45.690477 0)scale(0.996264)" xlink:href="#CMR17-37"/>
       <use transform="translate(91.380954 0)scale(0.996264)" xlink:href="#CMR17-35"/>
      </g>
     </g>
    </g>
    <g id="xtick_27">
     <g id="line2d_67">
      <path clip-path="url(#pefc89c0dd4)" d="M 666.614158 391.333224 
L 666.614158 301.580772 
" style="fill:none;stroke:#b0b0b0;stroke-linecap:square;stroke-width:0.5;"/>
     </g>
     <g id="line2d_68">
      <g>
       <use style="stroke:#000000;stroke-width:0.8;" x="666.614158" xlink:href="#mef1bbe48ce" y="391.333224"/>
      </g>
     </g>
     <g id="text_35">
      <!-- $\mathdefault{200}$ -->
      <g transform="translate(657.834673 406.635404)scale(0.12 -0.12)">
       <use transform="scale(0.996264)" xlink:href="#CMR17-32"/>
       <use transform="translate(45.690477 0)scale(0.996264)" xlink:href="#CMR17-30"/>
       <use transform="translate(91.380954 0)scale(0.996264)" xlink:href="#CMR17-30"/>
      </g>
     </g>
    </g>
   </g>
   <g id="matplotlib.axis_6">
    <g id="ytick_7">
     <g id="line2d_69">
      <path clip-path="url(#pefc89c0dd4)" d="M 29.35148 376.374482 
L 696.96 376.374482 
" style="fill:none;stroke:#b0b0b0;stroke-linecap:square;stroke-width:0.5;"/>
     </g>
     <g id="line2d_70">
      <g>
       <use style="stroke:#000000;stroke-width:0.8;" x="29.35148" xlink:href="#m1ea03b73b0" y="376.374482"/>
      </g>
     </g>
     <g id="text_36">
      <!-- $\mathdefault{−2}$ -->
      <g transform="translate(7.2 380.525572)scale(0.12 -0.12)">
       <use transform="scale(0.996264)" xlink:href="#CMSY10-0"/>
       <use transform="translate(77.487468 0)scale(0.996264)" xlink:href="#CMR17-32"/>
      </g>
     </g>
    </g>
    <g id="ytick_8">
     <g id="line2d_71">
      <path clip-path="url(#pefc89c0dd4)" d="M 29.35148 346.456998 
L 696.96 346.456998 
" style="fill:none;stroke:#b0b0b0;stroke-linecap:square;stroke-width:0.5;"/>
     </g>
     <g id="line2d_72">
      <g>
       <use style="stroke:#000000;stroke-width:0.8;" x="29.35148" xlink:href="#m1ea03b73b0" y="346.456998"/>
      </g>
     </g>
     <g id="text_37">
      <!-- $\mathdefault{0}$ -->
      <g transform="translate(16.498489 350.608088)scale(0.12 -0.12)">
       <use transform="scale(0.996264)" xlink:href="#CMR17-30"/>
      </g>
     </g>
    </g>
    <g id="ytick_9">
     <g id="line2d_73">
      <path clip-path="url(#pefc89c0dd4)" d="M 29.35148 316.539514 
L 696.96 316.539514 
" style="fill:none;stroke:#b0b0b0;stroke-linecap:square;stroke-width:0.5;"/>
     </g>
     <g id="line2d_74">
      <g>
       <use style="stroke:#000000;stroke-width:0.8;" x="29.35148" xlink:href="#m1ea03b73b0" y="316.539514"/>
      </g>
     </g>
     <g id="text_38">
      <!-- $\mathdefault{2}$ -->
      <g transform="translate(16.498489 320.690604)scale(0.12 -0.12)">
       <use transform="scale(0.996264)" xlink:href="#CMR17-32"/>
      </g>
     </g>
    </g>
   </g>
   <g id="line2d_75">
    <path clip-path="url(#pefc89c0dd4)" d="M 59.697322 303.160138 
L 62.731906 307.120824 
L 68.801074 407.212824 
L 71.835658 278.889778 
L 74.870242 356.425287 
L 77.904827 386.935901 
L 80.939411 343.153066 
L 83.973995 357.645863 
L 87.008579 354.126577 
L 90.043163 340.22637 
L 93.077748 349.724444 
L 96.112332 325.451981 
L 99.146916 282.44761 
L 102.1815 330.893251 
L 105.216084 413.755858 
L 108.250668 361.201957 
L 111.285253 391.372399 
L 114.319837 323.398927 
L 117.354421 335.731991 
L 120.338007 417.16 
M 120.449789 417.16 
L 123.423589 349.064673 
L 126.458174 324.40197 
L 129.492758 308.295422 
L 132.527342 372.44831 
L 135.561926 322.964633 
L 138.59651 360.604389 
L 141.631094 325.102928 
L 144.665679 360.000818 
L 147.700263 326.515849 
L 150.734847 348.720133 
L 153.769431 331.541299 
L 156.804015 327.542506 
L 159.8386 284.489288 
L 162.873184 357.017007 
L 165.907768 357.79208 
L 168.942352 338.345311 
L 171.976936 304.116004 
L 175.01152 392.758836 
L 178.046105 370.586518 
L 181.080689 318.07751 
L 184.115273 380.084534 
L 187.149857 317.789281 
L 190.184441 346.359776 
L 193.219026 394.267879 
L 196.25361 341.306799 
L 199.288194 378.66298 
L 202.322778 383.934019 
L 205.357362 350.716307 
L 208.391946 370.499095 
L 211.426531 375.412171 
L 214.461115 324.769233 
L 217.495699 347.287205 
L 220.530283 273.290264 
L 223.564867 307.294738 
L 226.599452 298.842236 
L 229.634036 346.540041 
L 232.66862 380.014836 
L 235.703204 283.613947 
L 238.737788 329.490778 
L 241.772373 410.068908 
L 244.806957 334.487118 
L 247.841541 282.275724 
L 250.876125 312.770535 
L 253.910709 375.286277 
L 256.945293 306.332696 
L 259.979878 311.198186 
L 263.014462 354.158262 
L 266.049046 372.43645 
L 269.08363 388.999569 
L 272.118214 345.693557 
L 275.152799 377.153464 
L 278.187383 312.901986 
L 281.221967 359.487359 
L 284.256551 355.515829 
L 287.291135 357.515604 
L 290.325719 410.080616 
L 293.360304 367.783126 
L 296.394888 312.887907 
L 299.429472 358.939762 
L 302.464056 285.389059 
L 305.49864 371.248827 
L 308.533225 336.865804 
L 311.567809 308.021947 
L 314.602393 351.012537 
L 317.636977 327.695484 
L 320.671561 390.286435 
L 323.706145 339.327488 
L 326.74073 319.9455 
L 329.775314 357.606384 
L 332.809898 330.967146 
L 335.844482 320.786388 
L 338.879066 319.998189 
L 341.913651 286.101707 
L 344.948235 337.516165 
L 347.982819 384.869646 
L 351.017403 350.1777 
L 354.051987 392.095303 
L 357.086571 381.769986 
L 360.121156 358.739947 
L 363.15574 357.982994 
L 366.190324 343.315579 
L 369.224908 332.470075 
L 372.259492 272.604217 
L 375.294077 368.902771 
L 378.328661 301.542039 
L 381.363245 325.039729 
L 384.397829 366.93522 
L 387.432413 311.135714 
L 390.466997 338.602915 
L 393.501582 402.013173 
L 396.536166 361.384364 
L 399.57075 347.117215 
L 402.605334 390.333317 
L 405.513371 417.16 
M 405.696547 417.16 
L 408.674503 355.769128 
L 411.709087 358.169441 
L 414.743671 387.857548 
L 417.778255 276.82348 
L 420.812839 352.649586 
L 423.847424 357.534415 
L 426.882008 306.233017 
L 429.916592 358.463192 
L 432.951176 366.398039 
L 435.98576 280.324534 
L 439.020344 383.30711 
L 442.054929 402.545826 
L 445.089513 296.982301 
L 448.124097 303.862353 
L 451.158681 330.187495 
L 454.193265 374.486325 
L 457.22785 350.812085 
L 460.262434 297.942799 
L 463.297018 305.034451 
L 466.331602 362.31339 
L 469.366186 358.315654 
L 472.40077 270.399399 
L 475.435355 380.527345 
L 478.469939 309.234949 
L 481.504523 320.628713 
L 484.539107 289.092556 
L 487.573691 377.24575 
L 490.608276 366.802653 
L 493.64286 348.780941 
L 496.677444 359.751374 
L 499.712028 362.52435 
L 502.746612 305.727828 
L 505.781196 372.552996 
L 508.815781 359.908057 
L 511.850365 370.453293 
L 514.884949 328.13085 
L 517.919533 301.174987 
L 520.954117 386.257275 
L 523.988702 320.236217 
L 527.023286 302.080232 
L 530.05787 324.08925 
L 533.092454 270.92544 
L 536.127038 332.750223 
L 539.161622 360.695576 
L 542.196207 290.1565 
L 545.230791 351.24411 
L 548.265375 262.460998 
L 551.299959 367.32733 
L 554.334543 378.053124 
L 557.369128 334.497302 
L 560.403712 367.074304 
L 563.438296 356.885922 
L 566.47288 351.779211 
L 569.507464 357.831638 
L 572.542048 374.204178 
L 575.576633 309.442591 
L 578.611217 315.151126 
L 581.645801 354.419205 
L 584.680385 365.164247 
L 587.714969 355.951847 
L 590.749554 364.058995 
L 593.784138 393.807868 
L 596.818722 334.48879 
L 599.853306 309.681724 
L 602.88789 365.400377 
L 605.922475 354.697397 
L 608.957059 332.661407 
L 611.991643 338.756816 
L 615.026227 290.61415 
L 618.060811 377.633328 
L 621.095395 346.359897 
L 627.164564 381.358418 
L 630.199148 366.020963 
L 633.233732 340.25597 
L 636.268316 344.405444 
L 642.337485 388.025096 
L 645.372069 349.511427 
L 648.406653 363.287479 
L 651.441237 287.240641 
L 654.475821 391.06178 
L 657.510406 361.964968 
L 660.54499 350.485124 
L 663.579574 344.272421 
L 666.614158 347.118946 
L 666.614158 347.118946 
" style="fill:none;stroke:#1f77b4;stroke-linecap:square;"/>
   </g>
   <g id="patch_13">
    <path d="M 29.35148 391.333224 
L 29.35148 301.580772 
" style="fill:none;stroke:#000000;stroke-linecap:square;stroke-linejoin:miter;stroke-width:0.5;"/>
   </g>
   <g id="patch_14">
    <path d="M 696.96 391.333224 
L 696.96 301.580772 
" style="fill:none;stroke:#000000;stroke-linecap:square;stroke-linejoin:miter;stroke-width:0.5;"/>
   </g>
   <g id="patch_15">
    <path d="M 29.35148 391.333224 
L 696.96 391.333224 
" style="fill:none;stroke:#000000;stroke-linecap:square;stroke-linejoin:miter;stroke-width:0.5;"/>
   </g>
   <g id="patch_16">
    <path d="M 29.35148 301.580772 
L 696.96 301.580772 
" style="fill:none;stroke:#000000;stroke-linecap:square;stroke-linejoin:miter;stroke-width:0.5;"/>
   </g>
   <g id="text_39">
    <!-- RSB = $-10$ dB\quad$(\sigma\approx2.23)$ -->
    <g transform="translate(278.770866 295.580772)scale(0.14 -0.14)">
     <defs>
      <path d="M 1414 2176 
C 1984 2176 2234 1673 2234 1094 
C 2234 322 1824 25 1453 25 
C 1114 25 563 193 390 691 
C 422 678 454 678 486 678 
C 640 678 755 780 755 947 
C 755 1132 614 1216 486 1216 
C 378 1216 211 1164 211 927 
C 211 335 787 -128 1466 -128 
C 2176 -128 2720 432 2720 1087 
C 2720 1718 2208 2176 1600 2246 
C 2086 2347 2554 2776 2554 3353 
C 2554 3856 2048 4224 1472 4224 
C 890 4224 378 3862 378 3347 
C 378 3123 544 3084 627 3084 
C 762 3084 877 3167 877 3334 
C 877 3500 762 3584 627 3584 
C 602 3584 570 3584 544 3571 
C 730 3999 1235 4076 1459 4076 
C 1683 4076 2106 3966 2106 3347 
C 2106 3167 2080 2851 1862 2574 
C 1670 2329 1453 2316 1242 2297 
C 1210 2297 1062 2284 1037 2284 
C 992 2278 966 2272 966 2227 
C 966 2182 973 2176 1101 2176 
L 1414 2176 
z
" id="CMR17-33" transform="scale(0.015625)"/>
     </defs>
     <use transform="scale(0.996264)" xlink:href="#CMR17-52"/>
     <use transform="translate(67.791102 0)scale(0.996264)" xlink:href="#CMR17-53"/>
     <use transform="translate(118.686472 0)scale(0.996264)" xlink:href="#CMR17-42"/>
     <use transform="translate(213.951193 0)scale(0.996264)" xlink:href="#CMR17-3d"/>
     <use transform="translate(315.741947 0)scale(0.996264)" xlink:href="#CMSY10-0"/>
     <use transform="translate(393.229415 0)scale(0.996264)" xlink:href="#CMR17-31"/>
     <use transform="translate(438.919892 0)scale(0.996264)" xlink:href="#CMR17-30"/>
     <use transform="translate(514.686336 0)scale(0.996264)" xlink:href="#CMR17-64"/>
     <use transform="translate(565.581705 0)scale(0.996264)" xlink:href="#CMR17-42"/>
     <use transform="translate(722.151505 0)scale(0.996264)" xlink:href="#CMR17-28"/>
     <use transform="translate(757.432273 0)scale(0.996264)" xlink:href="#CMMI12-1b"/>
     <use transform="translate(844.126335 0)scale(0.996264)" xlink:href="#CMSY10-19"/>
     <use transform="translate(949.287812 0)scale(0.996264)" xlink:href="#CMR17-32"/>
     <use transform="translate(994.978289 0)scale(0.996264)" xlink:href="#CMMI12-3a"/>
     <use transform="translate(1022.075466 0)scale(0.996264)" xlink:href="#CMR17-32"/>
     <use transform="translate(1067.765943 0)scale(0.996264)" xlink:href="#CMR17-33"/>
     <use transform="translate(1113.45642 0)scale(0.996264)" xlink:href="#CMR17-29"/>
    </g>
   </g>
  </g>
 </g>
 <defs>
  <clipPath id="pe2e546e655">
   <rect height="89.752452" width="667.60852" x="29.35148" y="23.660772"/>
  </clipPath>
  <clipPath id="pf54f4e0371">
   <rect height="89.752452" width="667.60852" x="29.35148" y="162.620772"/>
  </clipPath>
  <clipPath id="pefc89c0dd4">
   <rect height="89.752452" width="667.60852" x="29.35148" y="301.580772"/>
  </clipPath>
 </defs>
</svg>
