<?xml version="1.0" encoding="utf-8" standalone="no"?>
<!DOCTYPE svg PUBLIC "-//W3C//DTD SVG 1.1//EN"
  "http://www.w3.org/Graphics/SVG/1.1/DTD/svg11.dtd">
<svg height="388.207732pt" version="1.1" viewBox="0 0 594.55148 388.207732" width="594.55148pt" xmlns="http://www.w3.org/2000/svg" xmlns:xlink="http://www.w3.org/1999/xlink">
 <metadata>
  <rdf:RDF xmlns:cc="http://creativecommons.org/ns#" xmlns:dc="http://purl.org/dc/elements/1.1/" xmlns:rdf="http://www.w3.org/1999/02/22-rdf-syntax-ns#">
   <cc:Work>
    <dc:type rdf:resource="http://purl.org/dc/dcmitype/StillImage"/>
    <dc:date>2022-10-20T10:16:30.171637</dc:date>
    <dc:format>image/svg+xml</dc:format>
    <dc:creator>
     <cc:Agent>
      <dc:title>Matplotlib v3.4.3, https://matplotlib.org/</dc:title>
     </cc:Agent>
    </dc:creator>
   </cc:Work>
  </rdf:RDF>
 </metadata>
 <defs>
  <style type="text/css">*{stroke-linecap:butt;stroke-linejoin:round;}</style>
 </defs>
 <g id="figure_1">
  <g id="patch_1">
   <path d="M 0 388.207732 
L 594.55148 388.207732 
L 594.55148 0 
L 0 0 
z
" style="fill:none;"/>
  </g>
  <g id="axes_1">
   <g id="patch_2">
    <path d="M 29.35148 114.878099 
L 587.35148 114.878099 
L 587.35148 37.220957 
L 29.35148 37.220957 
z
" style="fill:#ffffff;"/>
   </g>
   <g id="matplotlib.axis_1">
    <g id="xtick_1">
     <g id="line2d_1">
      <path clip-path="url(#pda1ceee33d)" d="M 54.715116 114.878099 
L 54.715116 37.220957 
" style="fill:none;stroke:#b0b0b0;stroke-linecap:square;stroke-width:0.5;"/>
     </g>
     <g id="line2d_2">
      <defs>
       <path d="M 0 0 
L 0 3.5 
" id="m14527fba93" style="stroke:#000000;stroke-width:0.8;"/>
      </defs>
      <g>
       <use style="stroke:#000000;stroke-width:0.8;" x="54.715116" xlink:href="#m14527fba93" y="114.878099"/>
      </g>
     </g>
     <g id="text_1">
      <!-- $\mathdefault{0}$ -->
      <g transform="translate(51.788621 130.180279)scale(0.12 -0.12)">
       <defs>
        <path d="M 2688 2038 
C 2688 2430 2682 3099 2413 3613 
C 2176 4063 1798 4224 1466 4224 
C 1158 4224 768 4082 525 3620 
C 269 3137 243 2539 243 2038 
C 243 1671 250 1112 448 623 
C 723 -39 1216 -128 1466 -128 
C 1760 -128 2208 -7 2470 604 
C 2662 1048 2688 1568 2688 2038 
z
M 1466 -26 
C 1056 -26 813 328 723 816 
C 653 1196 653 1749 653 2109 
C 653 2604 653 3015 736 3407 
C 858 3954 1216 4121 1466 4121 
C 1728 4121 2067 3947 2189 3420 
C 2272 3054 2278 2623 2278 2109 
C 2278 1691 2278 1176 2202 797 
C 2067 96 1690 -26 1466 -26 
z
" id="CMR17-30" transform="scale(0.015625)"/>
       </defs>
       <use transform="scale(0.996264)" xlink:href="#CMR17-30"/>
      </g>
     </g>
    </g>
    <g id="xtick_2">
     <g id="line2d_3">
      <path clip-path="url(#pda1ceee33d)" d="M 118.124207 114.878099 
L 118.124207 37.220957 
" style="fill:none;stroke:#b0b0b0;stroke-linecap:square;stroke-width:0.5;"/>
     </g>
     <g id="line2d_4">
      <g>
       <use style="stroke:#000000;stroke-width:0.8;" x="118.124207" xlink:href="#m14527fba93" y="114.878099"/>
      </g>
     </g>
     <g id="text_2">
      <!-- $\mathdefault{25}$ -->
      <g transform="translate(112.271217 130.180279)scale(0.12 -0.12)">
       <defs>
        <path d="M 2669 990 
L 2554 990 
C 2490 537 2438 460 2413 422 
C 2381 371 1920 371 1830 371 
L 602 371 
C 832 620 1280 1073 1824 1596 
C 2214 1966 2669 2400 2669 3033 
C 2669 3788 2067 4224 1395 4224 
C 691 4224 262 3603 262 3027 
C 262 2777 448 2745 525 2745 
C 589 2745 781 2783 781 3007 
C 781 3206 614 3264 525 3264 
C 486 3264 448 3257 422 3244 
C 544 3788 915 4057 1306 4057 
C 1862 4057 2227 3616 2227 3033 
C 2227 2477 1901 1998 1536 1583 
L 262 147 
L 262 0 
L 2515 0 
L 2669 990 
z
" id="CMR17-32" transform="scale(0.015625)"/>
        <path d="M 730 3750 
C 794 3724 1056 3641 1325 3641 
C 1920 3641 2246 3961 2432 4140 
C 2432 4191 2432 4224 2394 4224 
C 2387 4224 2374 4224 2323 4198 
C 2099 4102 1837 4032 1517 4032 
C 1325 4032 1037 4055 723 4191 
C 653 4224 640 4224 634 4224 
C 602 4224 595 4217 595 4090 
L 595 2231 
C 595 2113 595 2080 659 2080 
C 691 2080 704 2093 736 2139 
C 941 2435 1222 2560 1542 2560 
C 1766 2560 2246 2415 2246 1293 
C 2246 1087 2246 716 2054 422 
C 1894 159 1645 25 1370 25 
C 947 25 518 319 403 812 
C 429 806 480 793 506 793 
C 589 793 749 838 749 1036 
C 749 1209 627 1280 506 1280 
C 358 1280 262 1190 262 1011 
C 262 454 704 -128 1382 -128 
C 2042 -128 2669 441 2669 1267 
C 2669 2054 2170 2662 1549 2662 
C 1222 2662 947 2540 730 2304 
L 730 3750 
z
" id="CMR17-35" transform="scale(0.015625)"/>
       </defs>
       <use transform="scale(0.996264)" xlink:href="#CMR17-32"/>
       <use transform="translate(45.690477 0)scale(0.996264)" xlink:href="#CMR17-35"/>
      </g>
     </g>
    </g>
    <g id="xtick_3">
     <g id="line2d_5">
      <path clip-path="url(#pda1ceee33d)" d="M 181.533298 114.878099 
L 181.533298 37.220957 
" style="fill:none;stroke:#b0b0b0;stroke-linecap:square;stroke-width:0.5;"/>
     </g>
     <g id="line2d_6">
      <g>
       <use style="stroke:#000000;stroke-width:0.8;" x="181.533298" xlink:href="#m14527fba93" y="114.878099"/>
      </g>
     </g>
     <g id="text_3">
      <!-- $\mathdefault{50}$ -->
      <g transform="translate(175.680308 130.180279)scale(0.12 -0.12)">
       <use transform="scale(0.996264)" xlink:href="#CMR17-35"/>
       <use transform="translate(45.690477 0)scale(0.996264)" xlink:href="#CMR17-30"/>
      </g>
     </g>
    </g>
    <g id="xtick_4">
     <g id="line2d_7">
      <path clip-path="url(#pda1ceee33d)" d="M 244.942389 114.878099 
L 244.942389 37.220957 
" style="fill:none;stroke:#b0b0b0;stroke-linecap:square;stroke-width:0.5;"/>
     </g>
     <g id="line2d_8">
      <g>
       <use style="stroke:#000000;stroke-width:0.8;" x="244.942389" xlink:href="#m14527fba93" y="114.878099"/>
      </g>
     </g>
     <g id="text_4">
      <!-- $\mathdefault{75}$ -->
      <g transform="translate(239.089399 130.180279)scale(0.12 -0.12)">
       <defs>
        <path d="M 2886 3955 
L 2886 4096 
L 1382 4096 
C 634 4096 621 4166 595 4288 
L 480 4288 
L 294 3104 
L 410 3104 
C 429 3226 474 3552 550 3673 
C 589 3724 1062 3724 1171 3724 
L 2579 3724 
L 1869 2670 
C 1395 1961 1069 1003 1069 166 
C 1069 89 1069 -128 1299 -128 
C 1530 -128 1530 89 1530 172 
L 1530 466 
C 1530 1514 1709 2204 2003 2644 
L 2886 3955 
z
" id="CMR17-37" transform="scale(0.015625)"/>
       </defs>
       <use transform="scale(0.996264)" xlink:href="#CMR17-37"/>
       <use transform="translate(45.690477 0)scale(0.996264)" xlink:href="#CMR17-35"/>
      </g>
     </g>
    </g>
    <g id="xtick_5">
     <g id="line2d_9">
      <path clip-path="url(#pda1ceee33d)" d="M 308.35148 114.878099 
L 308.35148 37.220957 
" style="fill:none;stroke:#b0b0b0;stroke-linecap:square;stroke-width:0.5;"/>
     </g>
     <g id="line2d_10">
      <g>
       <use style="stroke:#000000;stroke-width:0.8;" x="308.35148" xlink:href="#m14527fba93" y="114.878099"/>
      </g>
     </g>
     <g id="text_5">
      <!-- $\mathdefault{100}$ -->
      <g transform="translate(299.571994 130.180279)scale(0.12 -0.12)">
       <defs>
        <path d="M 1702 4083 
C 1702 4217 1696 4224 1606 4224 
C 1357 3927 979 3833 621 3820 
C 602 3820 570 3820 563 3808 
C 557 3795 557 3782 557 3648 
C 755 3648 1088 3686 1344 3839 
L 1344 467 
C 1344 243 1331 166 781 166 
L 589 166 
L 589 0 
C 896 6 1216 12 1523 12 
C 1830 12 2150 6 2458 0 
L 2458 166 
L 2266 166 
C 1715 166 1702 236 1702 467 
L 1702 4083 
z
" id="CMR17-31" transform="scale(0.015625)"/>
       </defs>
       <use transform="scale(0.996264)" xlink:href="#CMR17-31"/>
       <use transform="translate(45.690477 0)scale(0.996264)" xlink:href="#CMR17-30"/>
       <use transform="translate(91.380954 0)scale(0.996264)" xlink:href="#CMR17-30"/>
      </g>
     </g>
    </g>
    <g id="xtick_6">
     <g id="line2d_11">
      <path clip-path="url(#pda1ceee33d)" d="M 371.760571 114.878099 
L 371.760571 37.220957 
" style="fill:none;stroke:#b0b0b0;stroke-linecap:square;stroke-width:0.5;"/>
     </g>
     <g id="line2d_12">
      <g>
       <use style="stroke:#000000;stroke-width:0.8;" x="371.760571" xlink:href="#m14527fba93" y="114.878099"/>
      </g>
     </g>
     <g id="text_6">
      <!-- $\mathdefault{125}$ -->
      <g transform="translate(362.981085 130.180279)scale(0.12 -0.12)">
       <use transform="scale(0.996264)" xlink:href="#CMR17-31"/>
       <use transform="translate(45.690477 0)scale(0.996264)" xlink:href="#CMR17-32"/>
       <use transform="translate(91.380954 0)scale(0.996264)" xlink:href="#CMR17-35"/>
      </g>
     </g>
    </g>
    <g id="xtick_7">
     <g id="line2d_13">
      <path clip-path="url(#pda1ceee33d)" d="M 435.169661 114.878099 
L 435.169661 37.220957 
" style="fill:none;stroke:#b0b0b0;stroke-linecap:square;stroke-width:0.5;"/>
     </g>
     <g id="line2d_14">
      <g>
       <use style="stroke:#000000;stroke-width:0.8;" x="435.169661" xlink:href="#m14527fba93" y="114.878099"/>
      </g>
     </g>
     <g id="text_7">
      <!-- $\mathdefault{150}$ -->
      <g transform="translate(426.390176 130.180279)scale(0.12 -0.12)">
       <use transform="scale(0.996264)" xlink:href="#CMR17-31"/>
       <use transform="translate(45.690477 0)scale(0.996264)" xlink:href="#CMR17-35"/>
       <use transform="translate(91.380954 0)scale(0.996264)" xlink:href="#CMR17-30"/>
      </g>
     </g>
    </g>
    <g id="xtick_8">
     <g id="line2d_15">
      <path clip-path="url(#pda1ceee33d)" d="M 498.578752 114.878099 
L 498.578752 37.220957 
" style="fill:none;stroke:#b0b0b0;stroke-linecap:square;stroke-width:0.5;"/>
     </g>
     <g id="line2d_16">
      <g>
       <use style="stroke:#000000;stroke-width:0.8;" x="498.578752" xlink:href="#m14527fba93" y="114.878099"/>
      </g>
     </g>
     <g id="text_8">
      <!-- $\mathdefault{175}$ -->
      <g transform="translate(489.799267 130.180279)scale(0.12 -0.12)">
       <use transform="scale(0.996264)" xlink:href="#CMR17-31"/>
       <use transform="translate(45.690477 0)scale(0.996264)" xlink:href="#CMR17-37"/>
       <use transform="translate(91.380954 0)scale(0.996264)" xlink:href="#CMR17-35"/>
      </g>
     </g>
    </g>
    <g id="xtick_9">
     <g id="line2d_17">
      <path clip-path="url(#pda1ceee33d)" d="M 561.987843 114.878099 
L 561.987843 37.220957 
" style="fill:none;stroke:#b0b0b0;stroke-linecap:square;stroke-width:0.5;"/>
     </g>
     <g id="line2d_18">
      <g>
       <use style="stroke:#000000;stroke-width:0.8;" x="561.987843" xlink:href="#m14527fba93" y="114.878099"/>
      </g>
     </g>
     <g id="text_9">
      <!-- $\mathdefault{200}$ -->
      <g transform="translate(553.208358 130.180279)scale(0.12 -0.12)">
       <use transform="scale(0.996264)" xlink:href="#CMR17-32"/>
       <use transform="translate(45.690477 0)scale(0.996264)" xlink:href="#CMR17-30"/>
       <use transform="translate(91.380954 0)scale(0.996264)" xlink:href="#CMR17-30"/>
      </g>
     </g>
    </g>
   </g>
   <g id="matplotlib.axis_2">
    <g id="ytick_1">
     <g id="line2d_19">
      <path clip-path="url(#pda1ceee33d)" d="M 29.35148 101.935242 
L 587.35148 101.935242 
" style="fill:none;stroke:#b0b0b0;stroke-linecap:square;stroke-width:0.5;"/>
     </g>
     <g id="line2d_20">
      <defs>
       <path d="M 0 0 
L -3.5 0 
" id="m207c6c6d81" style="stroke:#000000;stroke-width:0.8;"/>
      </defs>
      <g>
       <use style="stroke:#000000;stroke-width:0.8;" x="29.35148" xlink:href="#m207c6c6d81" y="101.935242"/>
      </g>
     </g>
     <g id="text_10">
      <!-- $\mathdefault{−2}$ -->
      <g transform="translate(7.2 106.086332)scale(0.12 -0.12)">
       <defs>
        <path d="M 4218 1472 
C 4326 1472 4442 1472 4442 1600 
C 4442 1728 4326 1728 4218 1728 
L 755 1728 
C 646 1728 531 1728 531 1600 
C 531 1472 646 1472 755 1472 
L 4218 1472 
z
" id="CMSY10-0" transform="scale(0.015625)"/>
       </defs>
       <use transform="scale(0.996264)" xlink:href="#CMSY10-0"/>
       <use transform="translate(77.487468 0)scale(0.996264)" xlink:href="#CMR17-32"/>
      </g>
     </g>
    </g>
    <g id="ytick_2">
     <g id="line2d_21">
      <path clip-path="url(#pda1ceee33d)" d="M 29.35148 76.049528 
L 587.35148 76.049528 
" style="fill:none;stroke:#b0b0b0;stroke-linecap:square;stroke-width:0.5;"/>
     </g>
     <g id="line2d_22">
      <g>
       <use style="stroke:#000000;stroke-width:0.8;" x="29.35148" xlink:href="#m207c6c6d81" y="76.049528"/>
      </g>
     </g>
     <g id="text_11">
      <!-- $\mathdefault{0}$ -->
      <g transform="translate(16.498489 80.200618)scale(0.12 -0.12)">
       <use transform="scale(0.996264)" xlink:href="#CMR17-30"/>
      </g>
     </g>
    </g>
    <g id="ytick_3">
     <g id="line2d_23">
      <path clip-path="url(#pda1ceee33d)" d="M 29.35148 50.163814 
L 587.35148 50.163814 
" style="fill:none;stroke:#b0b0b0;stroke-linecap:square;stroke-width:0.5;"/>
     </g>
     <g id="line2d_24">
      <g>
       <use style="stroke:#000000;stroke-width:0.8;" x="29.35148" xlink:href="#m207c6c6d81" y="50.163814"/>
      </g>
     </g>
     <g id="text_12">
      <!-- $\mathdefault{2}$ -->
      <g transform="translate(16.498489 54.314904)scale(0.12 -0.12)">
       <use transform="scale(0.996264)" xlink:href="#CMR17-32"/>
      </g>
     </g>
    </g>
   </g>
   <g id="line2d_25">
    <path clip-path="url(#pda1ceee33d)" d="M 54.715116 76.558055 
L 57.25148 72.667546 
L 59.787843 69.07969 
L 62.324207 64.684637 
L 64.860571 68.261637 
L 67.396934 66.04303 
L 69.933298 61.558314 
L 72.469661 64.966295 
L 75.006025 64.457498 
L 77.542389 63.358336 
L 80.078752 71.492981 
L 82.615116 72.117338 
L 85.15148 75.629289 
L 87.687843 81.119997 
L 90.224207 78.671498 
L 92.760571 80.984706 
L 95.296934 80.656136 
L 97.833298 86.755171 
L 100.369661 88.736639 
L 102.906025 88.607796 
L 105.442389 93.020792 
L 107.978752 86.196732 
L 110.515116 87.866981 
L 113.05148 78.390383 
L 115.587843 79.461302 
L 118.124207 78.431961 
L 120.660571 68.753367 
L 123.196934 71.187019 
L 125.733298 70.380445 
L 130.806025 62.842232 
L 133.342389 62.818448 
L 135.878752 61.968769 
L 138.415116 61.985321 
L 140.95148 69.97972 
L 143.487843 69.530205 
L 146.024207 69.945804 
L 148.560571 73.949066 
L 151.096934 77.498818 
L 153.633298 82.651819 
L 156.169661 81.445757 
L 158.706025 84.816913 
L 161.242389 86.951999 
L 163.778752 92.745983 
L 168.85148 89.236035 
L 173.924207 82.26361 
L 176.460571 84.146091 
L 178.996934 75.484941 
L 181.533298 74.073595 
L 184.069661 70.093462 
L 186.606025 66.850332 
L 189.142389 67.145144 
L 191.678752 63.229306 
L 194.215116 68.963821 
L 196.75148 61.252832 
L 199.287843 58.099223 
L 201.824207 61.868672 
L 204.360571 64.210365 
L 206.896934 68.76131 
L 209.433298 74.815647 
L 211.969661 74.702101 
L 214.506025 73.104394 
L 217.042389 77.902459 
L 219.578752 85.690406 
L 222.115116 84.343743 
L 224.65148 91.048679 
L 227.187843 92.024235 
L 229.724207 79.097452 
L 232.260571 90.11168 
L 234.796934 85.525571 
L 237.333298 85.528249 
L 239.869661 80.556708 
L 242.406025 76.158441 
L 244.942389 77.421786 
L 247.478752 70.028707 
L 250.015116 67.057171 
L 252.55148 68.541422 
L 255.087843 65.109736 
L 257.624207 64.118133 
L 260.160571 59.229711 
L 262.696934 59.666983 
L 265.233298 65.947245 
L 267.769661 67.668094 
L 270.306025 62.646058 
L 272.842389 75.297706 
L 275.378752 76.979944 
L 277.915116 79.447657 
L 280.45148 83.871671 
L 282.987843 83.712267 
L 285.524207 92.187239 
L 288.060571 89.795662 
L 290.596934 90.738455 
L 293.133298 82.967574 
L 295.669661 93.368279 
L 298.206025 88.134972 
L 300.742389 85.606598 
L 303.278752 80.011988 
L 305.815116 84.134181 
L 308.35148 78.389545 
L 310.887843 73.570711 
L 313.424207 63.722936 
L 315.960571 62.40975 
L 318.496934 68.225869 
L 321.033298 61.567716 
L 323.569661 62.260955 
L 326.106025 64.088034 
L 328.642389 61.867662 
L 331.178752 66.812683 
L 333.715116 72.507853 
L 336.25148 74.030433 
L 338.787843 77.861788 
L 341.324207 75.474992 
L 343.860571 78.133893 
L 346.396934 84.630768 
L 348.933298 84.299197 
L 351.469661 88.945851 
L 354.006025 87.024581 
L 356.542389 93.744987 
L 359.078752 90.640081 
L 361.615116 90.212582 
L 364.15148 80.430561 
L 366.687843 75.819338 
L 369.224207 81.977803 
L 371.760571 78.320745 
L 374.296934 70.482837 
L 376.833298 68.511734 
L 379.369661 66.802711 
L 381.906025 62.540346 
L 384.442389 63.369964 
L 386.978752 67.101866 
L 389.515116 64.202976 
L 392.05148 64.342907 
L 394.587843 67.889406 
L 397.124207 73.293944 
L 399.660571 67.137559 
L 402.196934 76.941348 
L 404.733298 75.004418 
L 407.269661 79.103967 
L 409.806025 86.419987 
L 412.342389 84.825259 
L 414.878752 86.042096 
L 417.415116 85.159991 
L 419.95148 85.734245 
L 422.487843 88.984936 
L 425.024207 87.237622 
L 427.560571 81.776713 
L 430.096934 82.073508 
L 432.633298 76.014995 
L 435.169661 75.930307 
L 437.706025 71.684567 
L 440.242389 67.960483 
L 442.778752 68.53785 
L 445.315116 65.707496 
L 447.85148 64.470686 
L 450.387843 65.682901 
L 452.924207 63.462947 
L 455.460571 67.478527 
L 457.996934 64.966276 
L 460.533298 66.739137 
L 463.069661 70.213428 
L 465.606025 77.886247 
L 468.142389 78.49707 
L 470.678752 82.120296 
L 473.215116 87.625135 
L 475.75148 86.895322 
L 478.287843 89.088462 
L 480.824207 93.570345 
L 483.360571 94.385576 
L 485.896934 88.186972 
L 488.433298 85.101997 
L 490.969661 88.437657 
L 493.506025 82.608271 
L 496.042389 83.698282 
L 498.578752 75.994531 
L 501.115116 74.484682 
L 503.65148 68.609328 
L 506.187843 66.611556 
L 508.724207 61.816792 
L 511.260571 65.831296 
L 513.796934 63.687623 
L 516.333298 58.06275 
L 518.869661 67.025518 
L 521.406025 64.093363 
L 523.942389 66.912819 
L 526.478752 70.161036 
L 529.015116 76.179468 
L 531.55148 72.362637 
L 534.087843 78.011146 
L 536.624207 88.491655 
L 539.160571 88.067094 
L 541.696934 90.672841 
L 544.233298 89.17942 
L 546.769661 88.214555 
L 549.306025 90.600474 
L 551.842389 86.886388 
L 554.378752 88.917972 
L 556.915116 82.119865 
L 559.45148 77.773251 
L 561.987843 79.189881 
L 561.987843 79.189881 
" style="fill:none;stroke:#1f77b4;stroke-linecap:square;"/>
   </g>
   <g id="patch_3">
    <path d="M 29.35148 114.878099 
L 29.35148 37.220957 
" style="fill:none;stroke:#000000;stroke-linecap:square;stroke-linejoin:miter;stroke-width:0.5;"/>
   </g>
   <g id="patch_4">
    <path d="M 587.35148 114.878099 
L 587.35148 37.220957 
" style="fill:none;stroke:#000000;stroke-linecap:square;stroke-linejoin:miter;stroke-width:0.5;"/>
   </g>
   <g id="patch_5">
    <path d="M 29.35148 114.878099 
L 587.35148 114.878099 
" style="fill:none;stroke:#000000;stroke-linecap:square;stroke-linejoin:miter;stroke-width:0.5;"/>
   </g>
   <g id="patch_6">
    <path d="M 29.35148 37.220957 
L 587.35148 37.220957 
" style="fill:none;stroke:#000000;stroke-linecap:square;stroke-linejoin:miter;stroke-width:0.5;"/>
   </g>
   <g id="text_13">
    <!-- RSB = $10$ dB -->
    <g transform="translate(267.099642 16.885876)scale(0.14 -0.14)">
     <defs>
      <path d="M 2509 2156 
C 3117 2278 3629 2689 3629 3203 
C 3629 3806 2950 4352 2054 4352 
L 333 4352 
L 333 4185 
C 774 4185 845 4185 845 3896 
L 845 428 
C 845 140 774 140 333 140 
L 333 -26 
C 518 -13 851 -13 1050 -13 
C 1248 -13 1581 -13 1766 -26 
L 1766 140 
C 1325 140 1254 140 1254 428 
L 1254 2112 
L 2003 2112 
C 2368 2112 2573 1964 2662 1881 
C 2918 1632 2918 1459 2918 1024 
C 2918 595 2918 377 3110 160 
C 3354 -103 3680 -128 3821 -128 
C 4294 -128 4365 403 4365 512 
C 4365 550 4365 595 4307 595 
C 4256 595 4250 556 4250 531 
C 4218 115 4032 -26 3834 -26 
C 3482 -26 3443 377 3405 768 
C 3386 902 3373 998 3360 1139 
C 3322 1459 3270 1926 2509 2156 
z
M 1984 2214 
L 1254 2214 
L 1254 3935 
C 1254 4153 1267 4185 1523 4185 
L 1990 4185 
C 2522 4185 3142 3999 3142 3203 
C 3142 2374 2464 2214 1984 2214 
z
" id="CMR17-52" transform="scale(0.015625)"/>
      <path d="M 2803 4351 
C 2803 4467 2797 4473 2758 4473 
C 2720 4473 2707 4447 2682 4390 
L 2490 3965 
C 2246 4320 1875 4480 1472 4480 
C 819 4480 294 3958 294 3301 
C 294 3101 339 2817 557 2546 
C 794 2250 1018 2198 1530 2063 
C 1722 2011 2042 1927 2106 1901 
C 2470 1747 2662 1360 2662 999 
C 2662 534 2336 38 1779 38 
C 1094 38 454 425 410 1328 
C 403 1431 397 1437 352 1437 
C 301 1437 294 1431 294 1302 
L 294 0 
C 294 -116 301 -122 339 -122 
C 384 -122 397 -90 486 109 
C 493 128 493 141 614 386 
C 934 -39 1472 -128 1779 -128 
C 2477 -128 2970 457 2970 1141 
C 2970 1476 2848 1734 2778 1850 
C 2509 2263 2221 2340 1914 2417 
C 1869 2437 1856 2437 1498 2527 
C 1152 2617 1005 2662 845 2836 
C 666 3036 602 3243 602 3449 
C 602 3868 934 4326 1478 4326 
C 2157 4326 2579 3842 2675 3036 
C 2694 2920 2701 2914 2746 2914 
C 2803 2914 2803 2933 2803 3043 
L 2803 4351 
z
" id="CMR17-53" transform="scale(0.015625)"/>
      <path d="M 333 4352 
L 333 4185 
C 774 4185 845 4185 845 3897 
L 845 451 
C 845 166 774 166 333 166 
L 333 0 
L 2534 0 
C 3354 0 3885 578 3885 1155 
C 3885 1726 3360 2214 2675 2259 
C 3290 2380 3718 2790 3718 3276 
C 3718 3808 3194 4352 2368 4352 
L 333 4352 
z
M 1248 2304 
L 1248 3936 
C 1248 4153 1261 4185 1517 4185 
L 2336 4185 
C 2970 4185 3251 3673 3251 3276 
C 3251 2790 2861 2304 2170 2304 
L 1248 2304 
z
M 1517 166 
C 1261 166 1248 198 1248 413 
L 1248 2201 
L 2432 2201 
C 3091 2201 3411 1624 3411 1161 
C 3411 698 3046 166 2349 166 
L 1517 166 
z
" id="CMR17-42" transform="scale(0.015625)"/>
      <path d="M 4115 2048 
C 4211 2048 4307 2048 4307 2156 
C 4307 2272 4198 2272 4090 2272 
L 512 2272 
C 403 2272 294 2272 294 2156 
C 294 2048 390 2048 486 2048 
L 4115 2048 
z
M 4090 927 
C 4198 927 4307 927 4307 1043 
C 4307 1152 4211 1152 4115 1152 
L 486 1152 
C 390 1152 294 1152 294 1043 
C 294 927 403 927 512 927 
L 4090 927 
z
" id="CMR17-3d" transform="scale(0.015625)"/>
      <path d="M 1869 4345 
L 1869 4179 
C 2246 4179 2304 4141 2304 3843 
L 2304 2371 
C 2278 2403 2016 2816 1498 2816 
C 845 2816 211 2228 211 1376 
C 211 529 806 -64 1434 -64 
C 1978 -64 2259 361 2291 406 
L 2291 -64 
L 3066 -13 
L 3066 154 
C 2688 154 2630 193 2630 503 
L 2630 4416 
L 1869 4345 
z
M 2291 762 
C 2291 568 2176 393 2029 264 
C 1811 70 1594 38 1472 38 
C 1286 38 621 135 621 1369 
C 621 2636 1363 2713 1530 2713 
C 1824 2713 2061 2545 2208 2313 
C 2291 2177 2291 2157 2291 2041 
L 2291 762 
z
" id="CMR17-64" transform="scale(0.015625)"/>
     </defs>
     <use transform="scale(0.996264)" xlink:href="#CMR17-52"/>
     <use transform="translate(67.791102 0)scale(0.996264)" xlink:href="#CMR17-53"/>
     <use transform="translate(118.686472 0)scale(0.996264)" xlink:href="#CMR17-42"/>
     <use transform="translate(213.951193 0)scale(0.996264)" xlink:href="#CMR17-3d"/>
     <use transform="translate(315.741947 0)scale(0.996264)" xlink:href="#CMR17-31"/>
     <use transform="translate(361.432424 0)scale(0.996264)" xlink:href="#CMR17-30"/>
     <use transform="translate(437.198868 0)scale(0.996264)" xlink:href="#CMR17-64"/>
     <use transform="translate(488.094238 0)scale(0.996264)" xlink:href="#CMR17-42"/>
    </g>
    <!-- $\sigma\approx0.22$ -->
    <g transform="translate(282.782097 31.220957)scale(0.14 -0.14)">
     <defs>
      <path d="M 3251 2406 
C 3334 2406 3546 2406 3546 2611 
C 3546 2752 3424 2752 3309 2752 
L 1894 2752 
C 934 2752 243 1685 243 932 
C 243 389 595 -64 1171 -64 
C 1926 -64 2752 746 2752 1704 
C 2752 1953 2694 2195 2541 2406 
L 3251 2406 
z
M 1178 64 
C 851 64 614 312 614 753 
C 614 1136 845 2406 1786 2406 
C 2061 2406 2368 2272 2368 1780 
C 2368 1557 2266 1021 2042 651 
C 1811 274 1466 64 1178 64 
z
" id="CMMI12-1b" transform="scale(0.015625)"/>
      <path d="M 4621 2912 
C 4621 3046 4576 3104 4531 3104 
C 4506 3104 4448 3078 4442 2931 
C 4416 2483 3968 2214 3552 2214 
C 3181 2214 2861 2417 2528 2647 
C 2182 2880 1837 3110 1421 3110 
C 826 3110 352 2653 352 2054 
C 352 1913 403 1862 442 1862 
C 506 1862 531 1984 531 2009 
C 563 2555 1088 2752 1421 2752 
C 1792 2752 2112 2548 2445 2319 
C 2790 2086 3136 1856 3552 1856 
C 4147 1856 4621 2312 4621 2912 
z
M 4621 1395 
C 4621 1580 4544 1593 4531 1593 
C 4506 1593 4448 1561 4442 1420 
C 4416 972 3968 704 3552 704 
C 3181 704 2861 907 2528 1136 
C 2182 1369 1837 1600 1421 1600 
C 826 1600 352 1143 352 543 
C 352 403 403 351 442 351 
C 506 351 531 473 531 499 
C 563 1044 1088 1241 1421 1241 
C 1792 1241 2112 1038 2445 808 
C 2790 575 3136 345 3552 345 
C 4160 345 4621 822 4621 1395 
z
" id="CMSY10-19" transform="scale(0.015625)"/>
      <path d="M 1178 307 
C 1178 492 1024 620 870 620 
C 685 620 557 467 557 313 
C 557 128 710 0 864 0 
C 1050 0 1178 153 1178 307 
z
" id="CMMI12-3a" transform="scale(0.015625)"/>
     </defs>
     <use transform="scale(0.996264)" xlink:href="#CMMI12-1b"/>
     <use transform="translate(86.694062 0)scale(0.996264)" xlink:href="#CMSY10-19"/>
     <use transform="translate(191.855539 0)scale(0.996264)" xlink:href="#CMR17-30"/>
     <use transform="translate(237.546016 0)scale(0.996264)" xlink:href="#CMMI12-3a"/>
     <use transform="translate(264.643193 0)scale(0.996264)" xlink:href="#CMR17-32"/>
     <use transform="translate(310.33367 0)scale(0.996264)" xlink:href="#CMR17-32"/>
    </g>
   </g>
  </g>
  <g id="axes_2">
   <g id="patch_7">
    <path d="M 29.35148 239.129528 
L 587.35148 239.129528 
L 587.35148 161.472385 
L 29.35148 161.472385 
z
" style="fill:#ffffff;"/>
   </g>
   <g id="matplotlib.axis_3">
    <g id="xtick_10">
     <g id="line2d_26">
      <path clip-path="url(#pac1e1ea40b)" d="M 54.715116 239.129528 
L 54.715116 161.472385 
" style="fill:none;stroke:#b0b0b0;stroke-linecap:square;stroke-width:0.5;"/>
     </g>
     <g id="line2d_27">
      <g>
       <use style="stroke:#000000;stroke-width:0.8;" x="54.715116" xlink:href="#m14527fba93" y="239.129528"/>
      </g>
     </g>
     <g id="text_14">
      <!-- $\mathdefault{0}$ -->
      <g transform="translate(51.788621 254.431708)scale(0.12 -0.12)">
       <use transform="scale(0.996264)" xlink:href="#CMR17-30"/>
      </g>
     </g>
    </g>
    <g id="xtick_11">
     <g id="line2d_28">
      <path clip-path="url(#pac1e1ea40b)" d="M 118.124207 239.129528 
L 118.124207 161.472385 
" style="fill:none;stroke:#b0b0b0;stroke-linecap:square;stroke-width:0.5;"/>
     </g>
     <g id="line2d_29">
      <g>
       <use style="stroke:#000000;stroke-width:0.8;" x="118.124207" xlink:href="#m14527fba93" y="239.129528"/>
      </g>
     </g>
     <g id="text_15">
      <!-- $\mathdefault{25}$ -->
      <g transform="translate(112.271217 254.431708)scale(0.12 -0.12)">
       <use transform="scale(0.996264)" xlink:href="#CMR17-32"/>
       <use transform="translate(45.690477 0)scale(0.996264)" xlink:href="#CMR17-35"/>
      </g>
     </g>
    </g>
    <g id="xtick_12">
     <g id="line2d_30">
      <path clip-path="url(#pac1e1ea40b)" d="M 181.533298 239.129528 
L 181.533298 161.472385 
" style="fill:none;stroke:#b0b0b0;stroke-linecap:square;stroke-width:0.5;"/>
     </g>
     <g id="line2d_31">
      <g>
       <use style="stroke:#000000;stroke-width:0.8;" x="181.533298" xlink:href="#m14527fba93" y="239.129528"/>
      </g>
     </g>
     <g id="text_16">
      <!-- $\mathdefault{50}$ -->
      <g transform="translate(175.680308 254.431708)scale(0.12 -0.12)">
       <use transform="scale(0.996264)" xlink:href="#CMR17-35"/>
       <use transform="translate(45.690477 0)scale(0.996264)" xlink:href="#CMR17-30"/>
      </g>
     </g>
    </g>
    <g id="xtick_13">
     <g id="line2d_32">
      <path clip-path="url(#pac1e1ea40b)" d="M 244.942389 239.129528 
L 244.942389 161.472385 
" style="fill:none;stroke:#b0b0b0;stroke-linecap:square;stroke-width:0.5;"/>
     </g>
     <g id="line2d_33">
      <g>
       <use style="stroke:#000000;stroke-width:0.8;" x="244.942389" xlink:href="#m14527fba93" y="239.129528"/>
      </g>
     </g>
     <g id="text_17">
      <!-- $\mathdefault{75}$ -->
      <g transform="translate(239.089399 254.431708)scale(0.12 -0.12)">
       <use transform="scale(0.996264)" xlink:href="#CMR17-37"/>
       <use transform="translate(45.690477 0)scale(0.996264)" xlink:href="#CMR17-35"/>
      </g>
     </g>
    </g>
    <g id="xtick_14">
     <g id="line2d_34">
      <path clip-path="url(#pac1e1ea40b)" d="M 308.35148 239.129528 
L 308.35148 161.472385 
" style="fill:none;stroke:#b0b0b0;stroke-linecap:square;stroke-width:0.5;"/>
     </g>
     <g id="line2d_35">
      <g>
       <use style="stroke:#000000;stroke-width:0.8;" x="308.35148" xlink:href="#m14527fba93" y="239.129528"/>
      </g>
     </g>
     <g id="text_18">
      <!-- $\mathdefault{100}$ -->
      <g transform="translate(299.571994 254.431708)scale(0.12 -0.12)">
       <use transform="scale(0.996264)" xlink:href="#CMR17-31"/>
       <use transform="translate(45.690477 0)scale(0.996264)" xlink:href="#CMR17-30"/>
       <use transform="translate(91.380954 0)scale(0.996264)" xlink:href="#CMR17-30"/>
      </g>
     </g>
    </g>
    <g id="xtick_15">
     <g id="line2d_36">
      <path clip-path="url(#pac1e1ea40b)" d="M 371.760571 239.129528 
L 371.760571 161.472385 
" style="fill:none;stroke:#b0b0b0;stroke-linecap:square;stroke-width:0.5;"/>
     </g>
     <g id="line2d_37">
      <g>
       <use style="stroke:#000000;stroke-width:0.8;" x="371.760571" xlink:href="#m14527fba93" y="239.129528"/>
      </g>
     </g>
     <g id="text_19">
      <!-- $\mathdefault{125}$ -->
      <g transform="translate(362.981085 254.431708)scale(0.12 -0.12)">
       <use transform="scale(0.996264)" xlink:href="#CMR17-31"/>
       <use transform="translate(45.690477 0)scale(0.996264)" xlink:href="#CMR17-32"/>
       <use transform="translate(91.380954 0)scale(0.996264)" xlink:href="#CMR17-35"/>
      </g>
     </g>
    </g>
    <g id="xtick_16">
     <g id="line2d_38">
      <path clip-path="url(#pac1e1ea40b)" d="M 435.169661 239.129528 
L 435.169661 161.472385 
" style="fill:none;stroke:#b0b0b0;stroke-linecap:square;stroke-width:0.5;"/>
     </g>
     <g id="line2d_39">
      <g>
       <use style="stroke:#000000;stroke-width:0.8;" x="435.169661" xlink:href="#m14527fba93" y="239.129528"/>
      </g>
     </g>
     <g id="text_20">
      <!-- $\mathdefault{150}$ -->
      <g transform="translate(426.390176 254.431708)scale(0.12 -0.12)">
       <use transform="scale(0.996264)" xlink:href="#CMR17-31"/>
       <use transform="translate(45.690477 0)scale(0.996264)" xlink:href="#CMR17-35"/>
       <use transform="translate(91.380954 0)scale(0.996264)" xlink:href="#CMR17-30"/>
      </g>
     </g>
    </g>
    <g id="xtick_17">
     <g id="line2d_40">
      <path clip-path="url(#pac1e1ea40b)" d="M 498.578752 239.129528 
L 498.578752 161.472385 
" style="fill:none;stroke:#b0b0b0;stroke-linecap:square;stroke-width:0.5;"/>
     </g>
     <g id="line2d_41">
      <g>
       <use style="stroke:#000000;stroke-width:0.8;" x="498.578752" xlink:href="#m14527fba93" y="239.129528"/>
      </g>
     </g>
     <g id="text_21">
      <!-- $\mathdefault{175}$ -->
      <g transform="translate(489.799267 254.431708)scale(0.12 -0.12)">
       <use transform="scale(0.996264)" xlink:href="#CMR17-31"/>
       <use transform="translate(45.690477 0)scale(0.996264)" xlink:href="#CMR17-37"/>
       <use transform="translate(91.380954 0)scale(0.996264)" xlink:href="#CMR17-35"/>
      </g>
     </g>
    </g>
    <g id="xtick_18">
     <g id="line2d_42">
      <path clip-path="url(#pac1e1ea40b)" d="M 561.987843 239.129528 
L 561.987843 161.472385 
" style="fill:none;stroke:#b0b0b0;stroke-linecap:square;stroke-width:0.5;"/>
     </g>
     <g id="line2d_43">
      <g>
       <use style="stroke:#000000;stroke-width:0.8;" x="561.987843" xlink:href="#m14527fba93" y="239.129528"/>
      </g>
     </g>
     <g id="text_22">
      <!-- $\mathdefault{200}$ -->
      <g transform="translate(553.208358 254.431708)scale(0.12 -0.12)">
       <use transform="scale(0.996264)" xlink:href="#CMR17-32"/>
       <use transform="translate(45.690477 0)scale(0.996264)" xlink:href="#CMR17-30"/>
       <use transform="translate(91.380954 0)scale(0.996264)" xlink:href="#CMR17-30"/>
      </g>
     </g>
    </g>
   </g>
   <g id="matplotlib.axis_4">
    <g id="ytick_4">
     <g id="line2d_44">
      <path clip-path="url(#pac1e1ea40b)" d="M 29.35148 226.186671 
L 587.35148 226.186671 
" style="fill:none;stroke:#b0b0b0;stroke-linecap:square;stroke-width:0.5;"/>
     </g>
     <g id="line2d_45">
      <g>
       <use style="stroke:#000000;stroke-width:0.8;" x="29.35148" xlink:href="#m207c6c6d81" y="226.186671"/>
      </g>
     </g>
     <g id="text_23">
      <!-- $\mathdefault{−2}$ -->
      <g transform="translate(7.2 230.337761)scale(0.12 -0.12)">
       <use transform="scale(0.996264)" xlink:href="#CMSY10-0"/>
       <use transform="translate(77.487468 0)scale(0.996264)" xlink:href="#CMR17-32"/>
      </g>
     </g>
    </g>
    <g id="ytick_5">
     <g id="line2d_46">
      <path clip-path="url(#pac1e1ea40b)" d="M 29.35148 200.300957 
L 587.35148 200.300957 
" style="fill:none;stroke:#b0b0b0;stroke-linecap:square;stroke-width:0.5;"/>
     </g>
     <g id="line2d_47">
      <g>
       <use style="stroke:#000000;stroke-width:0.8;" x="29.35148" xlink:href="#m207c6c6d81" y="200.300957"/>
      </g>
     </g>
     <g id="text_24">
      <!-- $\mathdefault{0}$ -->
      <g transform="translate(16.498489 204.452046)scale(0.12 -0.12)">
       <use transform="scale(0.996264)" xlink:href="#CMR17-30"/>
      </g>
     </g>
    </g>
    <g id="ytick_6">
     <g id="line2d_48">
      <path clip-path="url(#pac1e1ea40b)" d="M 29.35148 174.415242 
L 587.35148 174.415242 
" style="fill:none;stroke:#b0b0b0;stroke-linecap:square;stroke-width:0.5;"/>
     </g>
     <g id="line2d_49">
      <g>
       <use style="stroke:#000000;stroke-width:0.8;" x="29.35148" xlink:href="#m207c6c6d81" y="174.415242"/>
      </g>
     </g>
     <g id="text_25">
      <!-- $\mathdefault{2}$ -->
      <g transform="translate(16.498489 178.566332)scale(0.12 -0.12)">
       <use transform="scale(0.996264)" xlink:href="#CMR17-32"/>
      </g>
     </g>
    </g>
   </g>
   <g id="line2d_50">
    <path clip-path="url(#pac1e1ea40b)" d="M 54.715116 186.894138 
L 59.787843 201.15854 
L 62.324207 201.526789 
L 64.860571 204.884509 
L 67.396934 184.820861 
L 69.933298 185.050276 
L 72.469661 193.910979 
L 75.006025 191.856583 
L 77.542389 197.985976 
L 80.078752 180.106441 
L 82.615116 182.000835 
L 85.15148 196.514389 
L 87.687843 190.384056 
L 90.224207 212.604574 
L 92.760571 213.703523 
L 95.296934 215.103621 
L 97.833298 216.239191 
L 100.369661 209.340868 
L 102.906025 217.785541 
L 105.442389 218.542909 
L 107.978752 220.065088 
L 110.515116 218.381777 
L 113.05148 209.826214 
L 115.587843 196.088408 
L 118.124207 213.394475 
L 120.660571 190.079483 
L 123.196934 201.335582 
L 125.733298 197.392106 
L 128.269661 207.163804 
L 130.806025 188.077559 
L 133.342389 198.563937 
L 135.878752 201.966532 
L 138.415116 190.539658 
L 140.95148 191.256356 
L 143.487843 181.73492 
L 146.024207 197.251783 
L 148.560571 203.914594 
L 151.096934 188.171588 
L 153.633298 204.037621 
L 156.169661 218.721686 
L 158.706025 219.520474 
L 161.242389 217.883657 
L 163.778752 209.472493 
L 166.315116 209.11302 
L 168.85148 199.825298 
L 171.387843 219.599768 
L 173.924207 214.795941 
L 176.460571 200.77478 
L 178.996934 201.368535 
L 181.533298 197.327552 
L 184.069661 200.457502 
L 186.606025 205.878866 
L 189.142389 200.458896 
L 191.678752 191.633574 
L 194.215116 181.57113 
L 196.75148 190.300194 
L 199.287843 185.516955 
L 201.824207 194.466579 
L 204.360571 193.159489 
L 206.896934 192.050946 
L 209.433298 195.240201 
L 211.969661 193.180803 
L 214.506025 191.426343 
L 217.042389 207.228769 
L 219.578752 201.189571 
L 222.115116 210.567474 
L 224.65148 208.888447 
L 227.187843 204.413577 
L 229.724207 220.653959 
L 232.260571 215.937298 
L 234.796934 214.383252 
L 237.333298 202.972366 
L 239.869661 203.947094 
L 242.406025 202.300572 
L 244.942389 189.42516 
L 247.478752 201.714109 
L 250.015116 199.177443 
L 252.55148 184.576855 
L 255.087843 181.271739 
L 257.624207 197.652412 
L 260.160571 186.678801 
L 262.696934 200.920457 
L 265.233298 196.809262 
L 267.769661 193.258463 
L 270.306025 192.413869 
L 272.842389 196.978197 
L 275.378752 198.881525 
L 277.915116 191.248079 
L 282.987843 202.418952 
L 285.524207 207.228066 
L 288.060571 213.75272 
L 290.596934 223.299173 
L 293.133298 217.183207 
L 295.669661 202.506712 
L 298.206025 229.4021 
L 300.742389 206.532169 
L 303.278752 207.933462 
L 305.815116 208.493994 
L 308.35148 191.123629 
L 310.887843 180.020883 
L 313.424207 193.04805 
L 315.960571 198.616473 
L 318.496934 200.761383 
L 321.033298 196.143483 
L 323.569661 180.889823 
L 326.106025 164.204697 
L 328.642389 182.88797 
L 331.178752 198.902551 
L 333.715116 191.671772 
L 336.25148 203.169984 
L 338.787843 207.551861 
L 341.324207 213.231446 
L 343.860571 200.837897 
L 346.396934 211.651415 
L 348.933298 206.220618 
L 351.469661 222.065202 
L 354.006025 227.206107 
L 356.542389 213.093374 
L 359.078752 222.930622 
L 361.615116 215.69763 
L 364.15148 224.552892 
L 366.687843 189.809802 
L 369.224207 214.685273 
L 371.760571 199.368931 
L 374.296934 194.334099 
L 379.369661 194.021116 
L 381.906025 183.646458 
L 384.442389 180.306772 
L 386.978752 190.716058 
L 389.515116 194.649756 
L 392.05148 187.864004 
L 394.587843 197.492646 
L 397.124207 185.695824 
L 399.660571 191.558958 
L 402.196934 208.506104 
L 404.733298 202.360338 
L 407.269661 206.730192 
L 409.806025 231.695516 
L 412.342389 201.418205 
L 414.878752 224.224803 
L 417.415116 190.788171 
L 419.95148 217.291608 
L 422.487843 213.647996 
L 425.024207 196.968787 
L 427.560571 221.135432 
L 430.096934 207.20622 
L 432.633298 195.118471 
L 435.169661 196.794921 
L 437.706025 206.715346 
L 440.242389 181.617581 
L 442.778752 195.14463 
L 445.315116 186.500461 
L 447.85148 186.313875 
L 450.387843 169.49653 
L 452.924207 185.322377 
L 455.460571 184.342743 
L 457.996934 184.618595 
L 460.533298 183.202477 
L 463.069661 182.555032 
L 465.606025 209.623928 
L 468.142389 209.402061 
L 470.678752 182.357716 
L 473.215116 196.187085 
L 475.75148 207.565457 
L 478.287843 208.331695 
L 480.824207 224.21424 
L 483.360571 224.916552 
L 485.896934 213.943185 
L 488.433298 209.483933 
L 490.969661 211.145392 
L 493.506025 192.091516 
L 496.042389 197.047795 
L 498.578752 205.946676 
L 501.115116 203.552997 
L 503.65148 201.892303 
L 506.187843 184.684173 
L 508.724207 189.338412 
L 511.260571 189.901078 
L 513.796934 205.889433 
L 516.333298 186.171016 
L 518.869661 177.344156 
L 521.406025 193.384006 
L 523.942389 194.738998 
L 526.478752 208.401064 
L 529.015116 188.58806 
L 531.55148 204.469637 
L 534.087843 199.712718 
L 536.624207 218.175511 
L 539.160571 205.934821 
L 541.696934 213.413708 
L 544.233298 211.530226 
L 546.769661 204.234721 
L 549.306025 197.411175 
L 551.842389 200.524197 
L 554.378752 223.67973 
L 556.915116 215.516274 
L 559.45148 200.979802 
L 561.987843 208.710565 
L 561.987843 208.710565 
" style="fill:none;stroke:#1f77b4;stroke-linecap:square;"/>
   </g>
   <g id="patch_8">
    <path d="M 29.35148 239.129528 
L 29.35148 161.472385 
" style="fill:none;stroke:#000000;stroke-linecap:square;stroke-linejoin:miter;stroke-width:0.5;"/>
   </g>
   <g id="patch_9">
    <path d="M 587.35148 239.129528 
L 587.35148 161.472385 
" style="fill:none;stroke:#000000;stroke-linecap:square;stroke-linejoin:miter;stroke-width:0.5;"/>
   </g>
   <g id="patch_10">
    <path d="M 29.35148 239.129528 
L 587.35148 239.129528 
" style="fill:none;stroke:#000000;stroke-linecap:square;stroke-linejoin:miter;stroke-width:0.5;"/>
   </g>
   <g id="patch_11">
    <path d="M 29.35148 161.472385 
L 587.35148 161.472385 
" style="fill:none;stroke:#000000;stroke-linecap:square;stroke-linejoin:miter;stroke-width:0.5;"/>
   </g>
   <g id="text_26">
    <!-- RSB = $0$ dB -->
    <g transform="translate(270.513886 141.137305)scale(0.14 -0.14)">
     <use transform="scale(0.996264)" xlink:href="#CMR17-52"/>
     <use transform="translate(67.791102 0)scale(0.996264)" xlink:href="#CMR17-53"/>
     <use transform="translate(118.686472 0)scale(0.996264)" xlink:href="#CMR17-42"/>
     <use transform="translate(213.951193 0)scale(0.996264)" xlink:href="#CMR17-3d"/>
     <use transform="translate(315.741947 0)scale(0.996264)" xlink:href="#CMR17-30"/>
     <use transform="translate(391.508391 0)scale(0.996264)" xlink:href="#CMR17-64"/>
     <use transform="translate(442.403761 0)scale(0.996264)" xlink:href="#CMR17-42"/>
    </g>
    <!-- $\sigma\approx0.71$ -->
    <g transform="translate(282.782097 155.472385)scale(0.14 -0.14)">
     <use transform="scale(0.996264)" xlink:href="#CMMI12-1b"/>
     <use transform="translate(86.694062 0)scale(0.996264)" xlink:href="#CMSY10-19"/>
     <use transform="translate(191.855539 0)scale(0.996264)" xlink:href="#CMR17-30"/>
     <use transform="translate(237.546016 0)scale(0.996264)" xlink:href="#CMMI12-3a"/>
     <use transform="translate(264.643193 0)scale(0.996264)" xlink:href="#CMR17-37"/>
     <use transform="translate(310.33367 0)scale(0.996264)" xlink:href="#CMR17-31"/>
    </g>
   </g>
  </g>
  <g id="axes_3">
   <g id="patch_12">
    <path d="M 29.35148 363.380957 
L 587.35148 363.380957 
L 587.35148 285.723814 
L 29.35148 285.723814 
z
" style="fill:#ffffff;"/>
   </g>
   <g id="matplotlib.axis_5">
    <g id="xtick_19">
     <g id="line2d_51">
      <path clip-path="url(#pb9f532ac53)" d="M 54.715116 363.380957 
L 54.715116 285.723814 
" style="fill:none;stroke:#b0b0b0;stroke-linecap:square;stroke-width:0.5;"/>
     </g>
     <g id="line2d_52">
      <g>
       <use style="stroke:#000000;stroke-width:0.8;" x="54.715116" xlink:href="#m14527fba93" y="363.380957"/>
      </g>
     </g>
     <g id="text_27">
      <!-- $\mathdefault{0}$ -->
      <g transform="translate(51.788621 378.683136)scale(0.12 -0.12)">
       <use transform="scale(0.996264)" xlink:href="#CMR17-30"/>
      </g>
     </g>
    </g>
    <g id="xtick_20">
     <g id="line2d_53">
      <path clip-path="url(#pb9f532ac53)" d="M 118.124207 363.380957 
L 118.124207 285.723814 
" style="fill:none;stroke:#b0b0b0;stroke-linecap:square;stroke-width:0.5;"/>
     </g>
     <g id="line2d_54">
      <g>
       <use style="stroke:#000000;stroke-width:0.8;" x="118.124207" xlink:href="#m14527fba93" y="363.380957"/>
      </g>
     </g>
     <g id="text_28">
      <!-- $\mathdefault{25}$ -->
      <g transform="translate(112.271217 378.683136)scale(0.12 -0.12)">
       <use transform="scale(0.996264)" xlink:href="#CMR17-32"/>
       <use transform="translate(45.690477 0)scale(0.996264)" xlink:href="#CMR17-35"/>
      </g>
     </g>
    </g>
    <g id="xtick_21">
     <g id="line2d_55">
      <path clip-path="url(#pb9f532ac53)" d="M 181.533298 363.380957 
L 181.533298 285.723814 
" style="fill:none;stroke:#b0b0b0;stroke-linecap:square;stroke-width:0.5;"/>
     </g>
     <g id="line2d_56">
      <g>
       <use style="stroke:#000000;stroke-width:0.8;" x="181.533298" xlink:href="#m14527fba93" y="363.380957"/>
      </g>
     </g>
     <g id="text_29">
      <!-- $\mathdefault{50}$ -->
      <g transform="translate(175.680308 378.683136)scale(0.12 -0.12)">
       <use transform="scale(0.996264)" xlink:href="#CMR17-35"/>
       <use transform="translate(45.690477 0)scale(0.996264)" xlink:href="#CMR17-30"/>
      </g>
     </g>
    </g>
    <g id="xtick_22">
     <g id="line2d_57">
      <path clip-path="url(#pb9f532ac53)" d="M 244.942389 363.380957 
L 244.942389 285.723814 
" style="fill:none;stroke:#b0b0b0;stroke-linecap:square;stroke-width:0.5;"/>
     </g>
     <g id="line2d_58">
      <g>
       <use style="stroke:#000000;stroke-width:0.8;" x="244.942389" xlink:href="#m14527fba93" y="363.380957"/>
      </g>
     </g>
     <g id="text_30">
      <!-- $\mathdefault{75}$ -->
      <g transform="translate(239.089399 378.683136)scale(0.12 -0.12)">
       <use transform="scale(0.996264)" xlink:href="#CMR17-37"/>
       <use transform="translate(45.690477 0)scale(0.996264)" xlink:href="#CMR17-35"/>
      </g>
     </g>
    </g>
    <g id="xtick_23">
     <g id="line2d_59">
      <path clip-path="url(#pb9f532ac53)" d="M 308.35148 363.380957 
L 308.35148 285.723814 
" style="fill:none;stroke:#b0b0b0;stroke-linecap:square;stroke-width:0.5;"/>
     </g>
     <g id="line2d_60">
      <g>
       <use style="stroke:#000000;stroke-width:0.8;" x="308.35148" xlink:href="#m14527fba93" y="363.380957"/>
      </g>
     </g>
     <g id="text_31">
      <!-- $\mathdefault{100}$ -->
      <g transform="translate(299.571994 378.683136)scale(0.12 -0.12)">
       <use transform="scale(0.996264)" xlink:href="#CMR17-31"/>
       <use transform="translate(45.690477 0)scale(0.996264)" xlink:href="#CMR17-30"/>
       <use transform="translate(91.380954 0)scale(0.996264)" xlink:href="#CMR17-30"/>
      </g>
     </g>
    </g>
    <g id="xtick_24">
     <g id="line2d_61">
      <path clip-path="url(#pb9f532ac53)" d="M 371.760571 363.380957 
L 371.760571 285.723814 
" style="fill:none;stroke:#b0b0b0;stroke-linecap:square;stroke-width:0.5;"/>
     </g>
     <g id="line2d_62">
      <g>
       <use style="stroke:#000000;stroke-width:0.8;" x="371.760571" xlink:href="#m14527fba93" y="363.380957"/>
      </g>
     </g>
     <g id="text_32">
      <!-- $\mathdefault{125}$ -->
      <g transform="translate(362.981085 378.683136)scale(0.12 -0.12)">
       <use transform="scale(0.996264)" xlink:href="#CMR17-31"/>
       <use transform="translate(45.690477 0)scale(0.996264)" xlink:href="#CMR17-32"/>
       <use transform="translate(91.380954 0)scale(0.996264)" xlink:href="#CMR17-35"/>
      </g>
     </g>
    </g>
    <g id="xtick_25">
     <g id="line2d_63">
      <path clip-path="url(#pb9f532ac53)" d="M 435.169661 363.380957 
L 435.169661 285.723814 
" style="fill:none;stroke:#b0b0b0;stroke-linecap:square;stroke-width:0.5;"/>
     </g>
     <g id="line2d_64">
      <g>
       <use style="stroke:#000000;stroke-width:0.8;" x="435.169661" xlink:href="#m14527fba93" y="363.380957"/>
      </g>
     </g>
     <g id="text_33">
      <!-- $\mathdefault{150}$ -->
      <g transform="translate(426.390176 378.683136)scale(0.12 -0.12)">
       <use transform="scale(0.996264)" xlink:href="#CMR17-31"/>
       <use transform="translate(45.690477 0)scale(0.996264)" xlink:href="#CMR17-35"/>
       <use transform="translate(91.380954 0)scale(0.996264)" xlink:href="#CMR17-30"/>
      </g>
     </g>
    </g>
    <g id="xtick_26">
     <g id="line2d_65">
      <path clip-path="url(#pb9f532ac53)" d="M 498.578752 363.380957 
L 498.578752 285.723814 
" style="fill:none;stroke:#b0b0b0;stroke-linecap:square;stroke-width:0.5;"/>
     </g>
     <g id="line2d_66">
      <g>
       <use style="stroke:#000000;stroke-width:0.8;" x="498.578752" xlink:href="#m14527fba93" y="363.380957"/>
      </g>
     </g>
     <g id="text_34">
      <!-- $\mathdefault{175}$ -->
      <g transform="translate(489.799267 378.683136)scale(0.12 -0.12)">
       <use transform="scale(0.996264)" xlink:href="#CMR17-31"/>
       <use transform="translate(45.690477 0)scale(0.996264)" xlink:href="#CMR17-37"/>
       <use transform="translate(91.380954 0)scale(0.996264)" xlink:href="#CMR17-35"/>
      </g>
     </g>
    </g>
    <g id="xtick_27">
     <g id="line2d_67">
      <path clip-path="url(#pb9f532ac53)" d="M 561.987843 363.380957 
L 561.987843 285.723814 
" style="fill:none;stroke:#b0b0b0;stroke-linecap:square;stroke-width:0.5;"/>
     </g>
     <g id="line2d_68">
      <g>
       <use style="stroke:#000000;stroke-width:0.8;" x="561.987843" xlink:href="#m14527fba93" y="363.380957"/>
      </g>
     </g>
     <g id="text_35">
      <!-- $\mathdefault{200}$ -->
      <g transform="translate(553.208358 378.683136)scale(0.12 -0.12)">
       <use transform="scale(0.996264)" xlink:href="#CMR17-32"/>
       <use transform="translate(45.690477 0)scale(0.996264)" xlink:href="#CMR17-30"/>
       <use transform="translate(91.380954 0)scale(0.996264)" xlink:href="#CMR17-30"/>
      </g>
     </g>
    </g>
   </g>
   <g id="matplotlib.axis_6">
    <g id="ytick_7">
     <g id="line2d_69">
      <path clip-path="url(#pb9f532ac53)" d="M 29.35148 350.438099 
L 587.35148 350.438099 
" style="fill:none;stroke:#b0b0b0;stroke-linecap:square;stroke-width:0.5;"/>
     </g>
     <g id="line2d_70">
      <g>
       <use style="stroke:#000000;stroke-width:0.8;" x="29.35148" xlink:href="#m207c6c6d81" y="350.438099"/>
      </g>
     </g>
     <g id="text_36">
      <!-- $\mathdefault{−2}$ -->
      <g transform="translate(7.2 354.589189)scale(0.12 -0.12)">
       <use transform="scale(0.996264)" xlink:href="#CMSY10-0"/>
       <use transform="translate(77.487468 0)scale(0.996264)" xlink:href="#CMR17-32"/>
      </g>
     </g>
    </g>
    <g id="ytick_8">
     <g id="line2d_71">
      <path clip-path="url(#pb9f532ac53)" d="M 29.35148 324.552385 
L 587.35148 324.552385 
" style="fill:none;stroke:#b0b0b0;stroke-linecap:square;stroke-width:0.5;"/>
     </g>
     <g id="line2d_72">
      <g>
       <use style="stroke:#000000;stroke-width:0.8;" x="29.35148" xlink:href="#m207c6c6d81" y="324.552385"/>
      </g>
     </g>
     <g id="text_37">
      <!-- $\mathdefault{0}$ -->
      <g transform="translate(16.498489 328.703475)scale(0.12 -0.12)">
       <use transform="scale(0.996264)" xlink:href="#CMR17-30"/>
      </g>
     </g>
    </g>
    <g id="ytick_9">
     <g id="line2d_73">
      <path clip-path="url(#pb9f532ac53)" d="M 29.35148 298.666671 
L 587.35148 298.666671 
" style="fill:none;stroke:#b0b0b0;stroke-linecap:square;stroke-width:0.5;"/>
     </g>
     <g id="line2d_74">
      <g>
       <use style="stroke:#000000;stroke-width:0.8;" x="29.35148" xlink:href="#m207c6c6d81" y="298.666671"/>
      </g>
     </g>
     <g id="text_38">
      <!-- $\mathdefault{2}$ -->
      <g transform="translate(16.498489 302.817761)scale(0.12 -0.12)">
       <use transform="scale(0.996264)" xlink:href="#CMR17-32"/>
      </g>
     </g>
    </g>
   </g>
   <g id="line2d_75">
    <path clip-path="url(#pb9f532ac53)" d="M 54.715116 324.031536 
L 57.25148 363.94278 
L 59.787843 313.802036 
L 62.324207 322.074518 
L 64.860571 321.163784 
L 67.396934 293.139452 
L 69.933298 343.714761 
L 72.469661 335.660744 
L 75.006025 310.444706 
L 77.542389 313.827467 
L 80.078752 271.599885 
L 82.615116 299.183145 
L 85.15148 267.564843 
L 87.687843 293.527605 
L 90.224207 364.133496 
L 92.760571 316.801317 
L 95.296934 320.411155 
L 97.833298 350.430518 
L 100.369661 341.105314 
L 102.906025 323.534987 
L 105.289106 389.207732 
M 105.861583 389.207732 
L 107.978752 367.873329 
L 110.515116 331.615394 
L 113.05148 328.498345 
L 115.587843 361.575851 
L 118.124207 365.848132 
L 120.660571 273.219976 
L 123.196934 294.40385 
L 125.733298 275.428676 
L 128.269661 280.93566 
L 130.806025 320.07752 
L 133.342389 296.208312 
L 135.878752 327.604391 
L 138.415116 317.494453 
L 140.95148 305.461988 
L 143.487843 344.857296 
L 146.024207 316.471807 
L 148.560571 330.107247 
L 151.096934 306.817323 
L 153.633298 288.438287 
L 156.169661 287.596717 
L 158.706025 374.473397 
L 161.242389 385.291002 
L 163.778752 328.000114 
L 166.315116 336.987688 
L 168.85148 319.07083 
L 171.387843 316.040756 
L 173.924207 359.16191 
L 176.460571 335.140955 
L 178.996934 308.482435 
L 181.533298 311.381723 
L 184.069661 326.228756 
L 186.606025 369.884572 
L 189.142389 264.649144 
L 191.678752 357.417406 
L 194.215116 302.157521 
L 196.75148 350.222902 
L 199.287843 307.519174 
L 201.824207 285.467086 
L 204.360571 259.171854 
L 206.896934 304.15679 
L 209.433298 384.316095 
L 211.969661 310.224091 
L 214.467829 389.207732 
M 214.55555 389.207732 
L 217.042389 328.567994 
L 219.578752 342.820136 
L 222.115116 361.850288 
L 224.65148 338.924231 
L 226.984644 389.207732 
M 227.346349 389.207732 
L 229.724207 323.511186 
L 232.260571 381.789758 
L 234.796934 308.486612 
L 237.333298 325.907306 
L 239.869661 295.822304 
L 242.406025 311.455806 
L 244.942389 325.978782 
L 247.478752 278.65283 
L 250.015116 383.490433 
L 252.55148 335.697008 
L 255.087843 268.230984 
L 257.624207 277.040804 
L 260.160571 291.196671 
L 262.696934 370.758635 
L 265.233298 324.53813 
L 267.769661 349.099794 
L 270.306025 302.510887 
L 272.552578 389.207732 
M 273.236677 389.207732 
L 275.378752 328.447183 
L 277.915116 351.573062 
L 280.45148 316.835207 
L 282.987843 303.819281 
L 285.524207 381.149297 
L 288.060571 370.345974 
L 290.596934 351.32671 
L 293.133298 350.709957 
L 295.669661 354.15552 
L 298.206025 277.120177 
L 300.742389 367.864224 
L 303.278752 308.037396 
L 305.815116 329.112444 
L 308.35148 342.964217 
L 310.887843 317.600957 
L 313.424207 325.01064 
L 315.960571 337.455435 
L 318.496934 326.22716 
L 321.033298 286.58811 
L 323.569661 286.917797 
L 326.106025 334.787285 
L 328.642389 346.784157 
L 331.178752 302.740636 
L 333.715116 332.733688 
L 336.25148 320.324897 
L 338.787843 251.722684 
L 341.324207 326.517228 
L 343.860571 321.889606 
L 346.396934 327.177518 
L 348.933298 304.92531 
L 351.469661 305.386277 
L 354.006025 295.446481 
L 356.542389 345.708824 
L 359.078752 365.376196 
L 361.615116 374.721696 
L 364.15148 349.273325 
L 366.687843 321.346069 
L 369.224207 263.719163 
L 371.760571 295.245208 
L 374.296934 308.472902 
L 376.833298 349.131695 
L 379.369661 321.903649 
L 381.906025 320.958273 
L 384.442389 317.185058 
L 386.978752 343.777031 
L 389.515116 325.411943 
L 392.05148 329.522752 
L 394.587843 280.509724 
L 397.124207 314.60528 
L 399.660571 327.2065 
L 402.196934 346.319025 
L 404.733298 323.546915 
L 407.269661 342.77869 
L 409.806025 370.183885 
L 412.342389 292.182636 
L 414.878752 360.538475 
L 417.415116 369.77322 
L 419.95148 340.438487 
L 422.487843 370.620955 
L 424.444757 389.207732 
M 425.165304 389.207732 
L 427.560571 295.778386 
L 430.096934 332.416885 
L 432.633298 347.23998 
L 435.169661 368.201783 
L 440.242389 320.011438 
L 442.778752 356.074522 
L 445.315116 368.87284 
L 447.85148 342.689356 
L 450.387843 269.398987 
L 452.924207 286.820665 
L 455.460571 308.160819 
L 457.996934 297.318579 
L 460.533298 364.597266 
L 463.069661 335.421904 
L 465.606025 291.454574 
L 468.142389 311.932468 
L 470.678752 260.797721 
L 473.215116 338.064208 
L 475.75148 335.51474 
L 478.287843 350.879447 
L 480.824207 326.843643 
L 483.360571 316.419242 
L 485.896934 304.530157 
L 488.433298 335.271855 
L 490.969661 287.324813 
L 493.506025 387.339895 
L 496.042389 314.891919 
L 498.578752 352.1163 
L 501.115116 262.666398 
L 503.65148 375.494905 
L 506.187843 308.204236 
L 508.724207 350.973911 
L 511.260571 301.640958 
L 513.796934 320.482243 
L 516.333298 276.489142 
L 518.869661 348.768802 
L 521.406025 327.695318 
L 523.942389 335.370517 
L 526.478752 327.075514 
L 529.015116 328.03788 
L 531.55148 333.243731 
L 534.087843 341.901543 
L 536.624207 284.614644 
L 539.160571 362.854174 
L 541.696934 333.035585 
L 544.233298 318.23366 
L 546.769661 339.838229 
L 549.306025 356.225523 
L 551.842389 346.160035 
L 554.378752 322.352247 
L 556.915116 314.462733 
L 559.45148 313.345763 
L 561.987843 345.924226 
L 561.987843 345.924226 
" style="fill:none;stroke:#1f77b4;stroke-linecap:square;"/>
   </g>
   <g id="patch_13">
    <path d="M 29.35148 363.380957 
L 29.35148 285.723814 
" style="fill:none;stroke:#000000;stroke-linecap:square;stroke-linejoin:miter;stroke-width:0.5;"/>
   </g>
   <g id="patch_14">
    <path d="M 587.35148 363.380957 
L 587.35148 285.723814 
" style="fill:none;stroke:#000000;stroke-linecap:square;stroke-linejoin:miter;stroke-width:0.5;"/>
   </g>
   <g id="patch_15">
    <path d="M 29.35148 363.380957 
L 587.35148 363.380957 
" style="fill:none;stroke:#000000;stroke-linecap:square;stroke-linejoin:miter;stroke-width:0.5;"/>
   </g>
   <g id="patch_16">
    <path d="M 29.35148 285.723814 
L 587.35148 285.723814 
" style="fill:none;stroke:#000000;stroke-linecap:square;stroke-linejoin:miter;stroke-width:0.5;"/>
   </g>
   <g id="text_39">
    <!-- RSB = $-10$ dB -->
    <g transform="translate(261.675524 265.388734)scale(0.14 -0.14)">
     <use transform="scale(0.996264)" xlink:href="#CMR17-52"/>
     <use transform="translate(67.791102 0)scale(0.996264)" xlink:href="#CMR17-53"/>
     <use transform="translate(118.686472 0)scale(0.996264)" xlink:href="#CMR17-42"/>
     <use transform="translate(213.951193 0)scale(0.996264)" xlink:href="#CMR17-3d"/>
     <use transform="translate(315.741947 0)scale(0.996264)" xlink:href="#CMSY10-0"/>
     <use transform="translate(393.229415 0)scale(0.996264)" xlink:href="#CMR17-31"/>
     <use transform="translate(438.919892 0)scale(0.996264)" xlink:href="#CMR17-30"/>
     <use transform="translate(514.686336 0)scale(0.996264)" xlink:href="#CMR17-64"/>
     <use transform="translate(565.581705 0)scale(0.996264)" xlink:href="#CMR17-42"/>
    </g>
    <!-- $\sigma\approx2.23$ -->
    <g transform="translate(282.782097 279.723814)scale(0.14 -0.14)">
     <defs>
      <path d="M 1414 2176 
C 1984 2176 2234 1673 2234 1094 
C 2234 322 1824 25 1453 25 
C 1114 25 563 193 390 691 
C 422 678 454 678 486 678 
C 640 678 755 780 755 947 
C 755 1132 614 1216 486 1216 
C 378 1216 211 1164 211 927 
C 211 335 787 -128 1466 -128 
C 2176 -128 2720 432 2720 1087 
C 2720 1718 2208 2176 1600 2246 
C 2086 2347 2554 2776 2554 3353 
C 2554 3856 2048 4224 1472 4224 
C 890 4224 378 3862 378 3347 
C 378 3123 544 3084 627 3084 
C 762 3084 877 3167 877 3334 
C 877 3500 762 3584 627 3584 
C 602 3584 570 3584 544 3571 
C 730 3999 1235 4076 1459 4076 
C 1683 4076 2106 3966 2106 3347 
C 2106 3167 2080 2851 1862 2574 
C 1670 2329 1453 2316 1242 2297 
C 1210 2297 1062 2284 1037 2284 
C 992 2278 966 2272 966 2227 
C 966 2182 973 2176 1101 2176 
L 1414 2176 
z
" id="CMR17-33" transform="scale(0.015625)"/>
     </defs>
     <use transform="scale(0.996264)" xlink:href="#CMMI12-1b"/>
     <use transform="translate(86.694062 0)scale(0.996264)" xlink:href="#CMSY10-19"/>
     <use transform="translate(191.855539 0)scale(0.996264)" xlink:href="#CMR17-32"/>
     <use transform="translate(237.546016 0)scale(0.996264)" xlink:href="#CMMI12-3a"/>
     <use transform="translate(264.643193 0)scale(0.996264)" xlink:href="#CMR17-32"/>
     <use transform="translate(310.33367 0)scale(0.996264)" xlink:href="#CMR17-33"/>
    </g>
   </g>
  </g>
 </g>
 <defs>
  <clipPath id="pda1ceee33d">
   <rect height="77.657143" width="558" x="29.35148" y="37.220957"/>
  </clipPath>
  <clipPath id="pac1e1ea40b">
   <rect height="77.657143" width="558" x="29.35148" y="161.472385"/>
  </clipPath>
  <clipPath id="pb9f532ac53">
   <rect height="77.657143" width="558" x="29.35148" y="285.723814"/>
  </clipPath>
 </defs>
</svg>
