<?xml version="1.0" encoding="utf-8" standalone="no"?>
<!DOCTYPE svg PUBLIC "-//W3C//DTD SVG 1.1//EN"
  "http://www.w3.org/Graphics/SVG/1.1/DTD/svg11.dtd">
<svg height="388.207732pt" version="1.1" viewBox="0 0 594.55148 388.207732" width="594.55148pt" xmlns="http://www.w3.org/2000/svg" xmlns:xlink="http://www.w3.org/1999/xlink">
 <metadata>
  <rdf:RDF xmlns:cc="http://creativecommons.org/ns#" xmlns:dc="http://purl.org/dc/elements/1.1/" xmlns:rdf="http://www.w3.org/1999/02/22-rdf-syntax-ns#">
   <cc:Work>
    <dc:type rdf:resource="http://purl.org/dc/dcmitype/StillImage"/>
    <dc:date>2021-11-22T14:01:46.173316</dc:date>
    <dc:format>image/svg+xml</dc:format>
    <dc:creator>
     <cc:Agent>
      <dc:title>Matplotlib v3.4.3, https://matplotlib.org/</dc:title>
     </cc:Agent>
    </dc:creator>
   </cc:Work>
  </rdf:RDF>
 </metadata>
 <defs>
  <style type="text/css">*{stroke-linecap:butt;stroke-linejoin:round;}</style>
 </defs>
 <g id="figure_1">
  <g id="patch_1">
   <path d="M 0 388.207732 
L 594.55148 388.207732 
L 594.55148 0 
L 0 0 
z
" style="fill:none;"/>
  </g>
  <g id="axes_1">
   <g id="patch_2">
    <path d="M 29.35148 114.878099 
L 587.35148 114.878099 
L 587.35148 37.220957 
L 29.35148 37.220957 
z
" style="fill:#ffffff;"/>
   </g>
   <g id="matplotlib.axis_1">
    <g id="xtick_1">
     <g id="line2d_1">
      <path clip-path="url(#p237463f7cf)" d="M 54.715116 114.878099 
L 54.715116 37.220957 
" style="fill:none;stroke:#b0b0b0;stroke-linecap:square;stroke-width:0.5;"/>
     </g>
     <g id="line2d_2">
      <defs>
       <path d="M 0 0 
L 0 3.5 
" id="m5c23e90dbc" style="stroke:#000000;stroke-width:0.8;"/>
      </defs>
      <g>
       <use style="stroke:#000000;stroke-width:0.8;" x="54.715116" xlink:href="#m5c23e90dbc" y="114.878099"/>
      </g>
     </g>
     <g id="text_1">
      <!-- $\mathdefault{0}$ -->
      <g transform="translate(51.788621 130.180279)scale(0.12 -0.12)">
       <defs>
        <path d="M 2688 2025 
C 2688 2416 2682 3080 2413 3591 
C 2176 4039 1798 4198 1466 4198 
C 1158 4198 768 4058 525 3597 
C 269 3118 243 2524 243 2025 
C 243 1661 250 1106 448 619 
C 723 -39 1216 -128 1466 -128 
C 1760 -128 2208 -7 2470 600 
C 2662 1042 2688 1559 2688 2025 
z
M 1466 -26 
C 1056 -26 813 325 723 812 
C 653 1188 653 1738 653 2096 
C 653 2588 653 2997 736 3387 
C 858 3929 1216 4096 1466 4096 
C 1728 4096 2067 3923 2189 3400 
C 2272 3036 2278 2607 2278 2096 
C 2278 1680 2278 1169 2202 792 
C 2067 95 1690 -26 1466 -26 
z
" id="CMR17-30" transform="scale(0.015625)"/>
       </defs>
       <use transform="scale(0.996264)" xlink:href="#CMR17-30"/>
      </g>
     </g>
    </g>
    <g id="xtick_2">
     <g id="line2d_3">
      <path clip-path="url(#p237463f7cf)" d="M 118.124207 114.878099 
L 118.124207 37.220957 
" style="fill:none;stroke:#b0b0b0;stroke-linecap:square;stroke-width:0.5;"/>
     </g>
     <g id="line2d_4">
      <g>
       <use style="stroke:#000000;stroke-width:0.8;" x="118.124207" xlink:href="#m5c23e90dbc" y="114.878099"/>
      </g>
     </g>
     <g id="text_2">
      <!-- $\mathdefault{25}$ -->
      <g transform="translate(112.271217 130.180279)scale(0.12 -0.12)">
       <defs>
        <path d="M 2669 989 
L 2554 989 
C 2490 536 2438 459 2413 420 
C 2381 369 1920 369 1830 369 
L 602 369 
C 832 619 1280 1072 1824 1597 
C 2214 1967 2669 2402 2669 3035 
C 2669 3790 2067 4224 1395 4224 
C 691 4224 262 3604 262 3030 
C 262 2780 448 2748 525 2748 
C 589 2748 781 2787 781 3010 
C 781 3207 614 3264 525 3264 
C 486 3264 448 3258 422 3245 
C 544 3790 915 4058 1306 4058 
C 1862 4058 2227 3617 2227 3035 
C 2227 2479 1901 2000 1536 1584 
L 262 146 
L 262 0 
L 2515 0 
L 2669 989 
z
" id="CMR17-32" transform="scale(0.015625)"/>
        <path d="M 730 3692 
C 794 3666 1056 3584 1325 3584 
C 1920 3584 2246 3911 2432 4100 
C 2432 4157 2432 4192 2394 4192 
C 2387 4192 2374 4192 2323 4163 
C 2099 4058 1837 3973 1517 3973 
C 1325 3973 1037 3999 723 4139 
C 653 4171 640 4171 634 4171 
C 602 4171 595 4164 595 4037 
L 595 2203 
C 595 2089 595 2057 659 2057 
C 691 2057 704 2070 736 2114 
C 941 2401 1222 2522 1542 2522 
C 1766 2522 2246 2382 2246 1289 
C 2246 1085 2246 715 2054 421 
C 1894 159 1645 25 1370 25 
C 947 25 518 320 403 814 
C 429 807 480 795 506 795 
C 589 795 749 840 749 1038 
C 749 1210 627 1280 506 1280 
C 358 1280 262 1190 262 1011 
C 262 454 704 -128 1382 -128 
C 2042 -128 2669 440 2669 1264 
C 2669 2030 2170 2624 1549 2624 
C 1222 2624 947 2503 730 2274 
L 730 3692 
z
" id="CMR17-35" transform="scale(0.015625)"/>
       </defs>
       <use transform="scale(0.996264)" xlink:href="#CMR17-32"/>
       <use transform="translate(45.690477 0)scale(0.996264)" xlink:href="#CMR17-35"/>
      </g>
     </g>
    </g>
    <g id="xtick_3">
     <g id="line2d_5">
      <path clip-path="url(#p237463f7cf)" d="M 181.533298 114.878099 
L 181.533298 37.220957 
" style="fill:none;stroke:#b0b0b0;stroke-linecap:square;stroke-width:0.5;"/>
     </g>
     <g id="line2d_6">
      <g>
       <use style="stroke:#000000;stroke-width:0.8;" x="181.533298" xlink:href="#m5c23e90dbc" y="114.878099"/>
      </g>
     </g>
     <g id="text_3">
      <!-- $\mathdefault{50}$ -->
      <g transform="translate(175.680308 130.180279)scale(0.12 -0.12)">
       <use transform="scale(0.996264)" xlink:href="#CMR17-35"/>
       <use transform="translate(45.690477 0)scale(0.996264)" xlink:href="#CMR17-30"/>
      </g>
     </g>
    </g>
    <g id="xtick_4">
     <g id="line2d_7">
      <path clip-path="url(#p237463f7cf)" d="M 244.942389 114.878099 
L 244.942389 37.220957 
" style="fill:none;stroke:#b0b0b0;stroke-linecap:square;stroke-width:0.5;"/>
     </g>
     <g id="line2d_8">
      <g>
       <use style="stroke:#000000;stroke-width:0.8;" x="244.942389" xlink:href="#m5c23e90dbc" y="114.878099"/>
      </g>
     </g>
     <g id="text_4">
      <!-- $\mathdefault{75}$ -->
      <g transform="translate(239.089399 130.180279)scale(0.12 -0.12)">
       <defs>
        <path d="M 2886 3941 
L 2886 4081 
L 1382 4081 
C 634 4081 621 4165 595 4288 
L 480 4288 
L 294 3094 
L 410 3094 
C 429 3215 474 3540 550 3661 
C 589 3712 1062 3712 1171 3712 
L 2579 3712 
L 1869 2661 
C 1395 1954 1069 999 1069 165 
C 1069 89 1069 -128 1299 -128 
C 1530 -128 1530 89 1530 171 
L 1530 465 
C 1530 1508 1709 2196 2003 2636 
L 2886 3941 
z
" id="CMR17-37" transform="scale(0.015625)"/>
       </defs>
       <use transform="scale(0.996264)" xlink:href="#CMR17-37"/>
       <use transform="translate(45.690477 0)scale(0.996264)" xlink:href="#CMR17-35"/>
      </g>
     </g>
    </g>
    <g id="xtick_5">
     <g id="line2d_9">
      <path clip-path="url(#p237463f7cf)" d="M 308.35148 114.878099 
L 308.35148 37.220957 
" style="fill:none;stroke:#b0b0b0;stroke-linecap:square;stroke-width:0.5;"/>
     </g>
     <g id="line2d_10">
      <g>
       <use style="stroke:#000000;stroke-width:0.8;" x="308.35148" xlink:href="#m5c23e90dbc" y="114.878099"/>
      </g>
     </g>
     <g id="text_5">
      <!-- $\mathdefault{100}$ -->
      <g transform="translate(299.571994 130.180279)scale(0.12 -0.12)">
       <defs>
        <path d="M 1702 4058 
C 1702 4192 1696 4192 1606 4192 
C 1357 3916 979 3827 621 3827 
C 602 3827 570 3827 563 3808 
C 557 3795 557 3782 557 3648 
C 755 3648 1088 3686 1344 3839 
L 1344 461 
C 1344 236 1331 160 781 160 
L 589 160 
L 589 0 
C 896 0 1216 0 1523 0 
C 1830 0 2150 0 2458 0 
L 2458 160 
L 2266 160 
C 1715 160 1702 230 1702 458 
L 1702 4058 
z
" id="CMR17-31" transform="scale(0.015625)"/>
       </defs>
       <use transform="scale(0.996264)" xlink:href="#CMR17-31"/>
       <use transform="translate(45.690477 0)scale(0.996264)" xlink:href="#CMR17-30"/>
       <use transform="translate(91.380954 0)scale(0.996264)" xlink:href="#CMR17-30"/>
      </g>
     </g>
    </g>
    <g id="xtick_6">
     <g id="line2d_11">
      <path clip-path="url(#p237463f7cf)" d="M 371.760571 114.878099 
L 371.760571 37.220957 
" style="fill:none;stroke:#b0b0b0;stroke-linecap:square;stroke-width:0.5;"/>
     </g>
     <g id="line2d_12">
      <g>
       <use style="stroke:#000000;stroke-width:0.8;" x="371.760571" xlink:href="#m5c23e90dbc" y="114.878099"/>
      </g>
     </g>
     <g id="text_6">
      <!-- $\mathdefault{125}$ -->
      <g transform="translate(362.981085 130.180279)scale(0.12 -0.12)">
       <use transform="scale(0.996264)" xlink:href="#CMR17-31"/>
       <use transform="translate(45.690477 0)scale(0.996264)" xlink:href="#CMR17-32"/>
       <use transform="translate(91.380954 0)scale(0.996264)" xlink:href="#CMR17-35"/>
      </g>
     </g>
    </g>
    <g id="xtick_7">
     <g id="line2d_13">
      <path clip-path="url(#p237463f7cf)" d="M 435.169661 114.878099 
L 435.169661 37.220957 
" style="fill:none;stroke:#b0b0b0;stroke-linecap:square;stroke-width:0.5;"/>
     </g>
     <g id="line2d_14">
      <g>
       <use style="stroke:#000000;stroke-width:0.8;" x="435.169661" xlink:href="#m5c23e90dbc" y="114.878099"/>
      </g>
     </g>
     <g id="text_7">
      <!-- $\mathdefault{150}$ -->
      <g transform="translate(426.390176 130.180279)scale(0.12 -0.12)">
       <use transform="scale(0.996264)" xlink:href="#CMR17-31"/>
       <use transform="translate(45.690477 0)scale(0.996264)" xlink:href="#CMR17-35"/>
       <use transform="translate(91.380954 0)scale(0.996264)" xlink:href="#CMR17-30"/>
      </g>
     </g>
    </g>
    <g id="xtick_8">
     <g id="line2d_15">
      <path clip-path="url(#p237463f7cf)" d="M 498.578752 114.878099 
L 498.578752 37.220957 
" style="fill:none;stroke:#b0b0b0;stroke-linecap:square;stroke-width:0.5;"/>
     </g>
     <g id="line2d_16">
      <g>
       <use style="stroke:#000000;stroke-width:0.8;" x="498.578752" xlink:href="#m5c23e90dbc" y="114.878099"/>
      </g>
     </g>
     <g id="text_8">
      <!-- $\mathdefault{175}$ -->
      <g transform="translate(489.799267 130.180279)scale(0.12 -0.12)">
       <use transform="scale(0.996264)" xlink:href="#CMR17-31"/>
       <use transform="translate(45.690477 0)scale(0.996264)" xlink:href="#CMR17-37"/>
       <use transform="translate(91.380954 0)scale(0.996264)" xlink:href="#CMR17-35"/>
      </g>
     </g>
    </g>
    <g id="xtick_9">
     <g id="line2d_17">
      <path clip-path="url(#p237463f7cf)" d="M 561.987843 114.878099 
L 561.987843 37.220957 
" style="fill:none;stroke:#b0b0b0;stroke-linecap:square;stroke-width:0.5;"/>
     </g>
     <g id="line2d_18">
      <g>
       <use style="stroke:#000000;stroke-width:0.8;" x="561.987843" xlink:href="#m5c23e90dbc" y="114.878099"/>
      </g>
     </g>
     <g id="text_9">
      <!-- $\mathdefault{200}$ -->
      <g transform="translate(553.208358 130.180279)scale(0.12 -0.12)">
       <use transform="scale(0.996264)" xlink:href="#CMR17-32"/>
       <use transform="translate(45.690477 0)scale(0.996264)" xlink:href="#CMR17-30"/>
       <use transform="translate(91.380954 0)scale(0.996264)" xlink:href="#CMR17-30"/>
      </g>
     </g>
    </g>
   </g>
   <g id="matplotlib.axis_2">
    <g id="ytick_1">
     <g id="line2d_19">
      <path clip-path="url(#p237463f7cf)" d="M 29.35148 101.935242 
L 587.35148 101.935242 
" style="fill:none;stroke:#b0b0b0;stroke-linecap:square;stroke-width:0.5;"/>
     </g>
     <g id="line2d_20">
      <defs>
       <path d="M 0 0 
L -3.5 0 
" id="m3e95a8d996" style="stroke:#000000;stroke-width:0.8;"/>
      </defs>
      <g>
       <use style="stroke:#000000;stroke-width:0.8;" x="29.35148" xlink:href="#m3e95a8d996" y="101.935242"/>
      </g>
     </g>
     <g id="text_10">
      <!-- $\mathdefault{−2}$ -->
      <g transform="translate(7.2 106.086332)scale(0.12 -0.12)">
       <defs>
        <path d="M 4218 1472 
C 4326 1472 4442 1472 4442 1600 
C 4442 1728 4326 1728 4218 1728 
L 755 1728 
C 646 1728 531 1728 531 1600 
C 531 1472 646 1472 755 1472 
L 4218 1472 
z
" id="CMSY10-0" transform="scale(0.015625)"/>
       </defs>
       <use transform="scale(0.996264)" xlink:href="#CMSY10-0"/>
       <use transform="translate(77.487468 0)scale(0.996264)" xlink:href="#CMR17-32"/>
      </g>
     </g>
    </g>
    <g id="ytick_2">
     <g id="line2d_21">
      <path clip-path="url(#p237463f7cf)" d="M 29.35148 76.049528 
L 587.35148 76.049528 
" style="fill:none;stroke:#b0b0b0;stroke-linecap:square;stroke-width:0.5;"/>
     </g>
     <g id="line2d_22">
      <g>
       <use style="stroke:#000000;stroke-width:0.8;" x="29.35148" xlink:href="#m3e95a8d996" y="76.049528"/>
      </g>
     </g>
     <g id="text_11">
      <!-- $\mathdefault{0}$ -->
      <g transform="translate(16.498489 80.200618)scale(0.12 -0.12)">
       <use transform="scale(0.996264)" xlink:href="#CMR17-30"/>
      </g>
     </g>
    </g>
    <g id="ytick_3">
     <g id="line2d_23">
      <path clip-path="url(#p237463f7cf)" d="M 29.35148 50.163814 
L 587.35148 50.163814 
" style="fill:none;stroke:#b0b0b0;stroke-linecap:square;stroke-width:0.5;"/>
     </g>
     <g id="line2d_24">
      <g>
       <use style="stroke:#000000;stroke-width:0.8;" x="29.35148" xlink:href="#m3e95a8d996" y="50.163814"/>
      </g>
     </g>
     <g id="text_12">
      <!-- $\mathdefault{2}$ -->
      <g transform="translate(16.498489 54.314904)scale(0.12 -0.12)">
       <use transform="scale(0.996264)" xlink:href="#CMR17-32"/>
      </g>
     </g>
    </g>
   </g>
   <g id="line2d_25">
    <path clip-path="url(#p237463f7cf)" d="M 54.715116 70.605506 
L 57.25148 75.97246 
L 59.787843 65.902809 
L 62.324207 66.931213 
L 64.860571 66.091111 
L 67.396934 66.411384 
L 69.933298 61.712797 
L 72.469661 66.673241 
L 75.006025 64.623678 
L 77.542389 65.178758 
L 80.078752 62.965483 
L 82.615116 74.189377 
L 85.15148 74.061758 
L 87.687843 73.469782 
L 90.224207 76.668194 
L 92.760571 78.272677 
L 95.296934 78.33148 
L 97.833298 88.619166 
L 100.369661 87.884133 
L 102.906025 88.891231 
L 105.442389 83.614246 
L 107.978752 88.778532 
L 110.515116 87.30286 
L 113.05148 81.353687 
L 115.587843 77.184357 
L 118.124207 77.796512 
L 120.660571 76.205815 
L 123.196934 70.241228 
L 125.733298 70.925532 
L 128.269661 65.231451 
L 130.806025 66.555734 
L 133.342389 62.870622 
L 135.878752 60.194582 
L 138.415116 67.608015 
L 140.95148 70.770943 
L 143.487843 68.477148 
L 146.024207 71.567218 
L 148.560571 77.943142 
L 151.096934 78.123784 
L 153.633298 82.422168 
L 156.169661 87.245099 
L 158.706025 84.402099 
L 161.242389 85.822245 
L 163.778752 90.844213 
L 166.315116 91.005675 
L 168.85148 92.950252 
L 171.387843 86.01078 
L 173.924207 83.753179 
L 176.460571 79.817571 
L 178.996934 74.551025 
L 181.533298 75.373742 
L 184.069661 74.779441 
L 186.606025 69.908959 
L 189.142389 66.408145 
L 191.678752 56.256713 
L 194.215116 62.080521 
L 196.75148 67.139574 
L 199.287843 63.964118 
L 201.824207 62.121134 
L 204.360571 65.070089 
L 206.896934 67.585497 
L 209.433298 73.265878 
L 211.969661 71.138763 
L 214.506025 77.346442 
L 217.042389 77.455108 
L 219.578752 86.114125 
L 222.115116 83.874677 
L 224.65148 85.591146 
L 227.187843 91.413999 
L 229.724207 90.43422 
L 232.260571 92.345042 
L 234.796934 86.709178 
L 237.333298 81.472624 
L 239.869661 78.214035 
L 242.406025 79.987396 
L 244.942389 76.448504 
L 247.478752 71.771793 
L 250.015116 70.441807 
L 252.55148 68.735373 
L 255.087843 65.686506 
L 257.624207 64.68277 
L 260.160571 61.8157 
L 262.696934 65.974056 
L 265.233298 65.683582 
L 267.769661 71.579182 
L 270.306025 65.212938 
L 272.842389 77.367906 
L 275.378752 75.968496 
L 277.915116 79.761214 
L 280.45148 84.225387 
L 282.987843 83.158835 
L 285.524207 90.803601 
L 288.060571 89.000688 
L 290.596934 83.018379 
L 293.133298 86.884195 
L 295.669661 93.045782 
L 298.206025 87.102114 
L 300.742389 85.215908 
L 303.278752 85.109272 
L 305.815116 75.228669 
L 308.35148 69.112031 
L 310.887843 69.426988 
L 313.424207 68.420515 
L 315.960571 65.562758 
L 318.496934 60.996578 
L 321.033298 64.028017 
L 323.569661 59.352429 
L 326.106025 65.126181 
L 328.642389 60.312141 
L 333.715116 74.600881 
L 336.25148 68.188533 
L 338.787843 69.181346 
L 341.324207 81.0429 
L 343.860571 80.779455 
L 346.396934 84.923078 
L 348.933298 87.931832 
L 351.469661 89.120997 
L 354.006025 84.301565 
L 356.542389 91.027674 
L 359.078752 86.814253 
L 361.615116 86.589047 
L 366.687843 81.322857 
L 369.224207 77.314975 
L 371.760571 71.368532 
L 374.296934 73.670005 
L 376.833298 67.758327 
L 379.369661 65.42986 
L 381.906025 64.587256 
L 384.442389 57.289716 
L 386.978752 64.294353 
L 389.515116 62.361873 
L 392.05148 63.826369 
L 394.587843 67.182023 
L 397.124207 61.612573 
L 402.196934 80.615612 
L 404.733298 75.703667 
L 407.269661 81.650891 
L 409.806025 86.902894 
L 412.342389 87.273693 
L 414.878752 86.114287 
L 417.415116 93.950184 
L 419.95148 86.909324 
L 422.487843 88.179744 
L 425.024207 86.751099 
L 430.096934 81.281676 
L 432.633298 81.511124 
L 435.169661 75.623578 
L 437.706025 74.223056 
L 440.242389 67.823289 
L 442.778752 65.898669 
L 445.315116 66.921785 
L 447.85148 66.129974 
L 450.387843 62.885024 
L 452.924207 61.353652 
L 455.460571 67.980869 
L 457.996934 67.279128 
L 460.533298 68.17752 
L 463.069661 70.702859 
L 465.606025 70.096371 
L 468.142389 71.741347 
L 470.678752 78.680248 
L 473.215116 83.549047 
L 475.75148 83.685733 
L 478.287843 88.906747 
L 480.824207 92.118868 
L 483.360571 84.900304 
L 485.896934 83.763656 
L 488.433298 92.122753 
L 490.969661 83.60614 
L 493.506025 77.01235 
L 496.042389 77.333545 
L 498.578752 76.481638 
L 501.115116 72.708641 
L 503.65148 69.3472 
L 506.187843 65.63877 
L 508.724207 64.120137 
L 511.260571 55.892551 
L 513.796934 62.934003 
L 516.333298 62.869223 
L 518.869661 61.868728 
L 521.406025 65.71076 
L 523.942389 71.259793 
L 526.478752 73.788738 
L 529.015116 76.595499 
L 531.55148 77.752899 
L 534.087843 84.714478 
L 536.624207 75.699919 
L 539.160571 81.966906 
L 541.696934 85.911099 
L 544.233298 82.972451 
L 546.769661 89.24898 
L 549.306025 90.350222 
L 551.842389 89.411556 
L 554.378752 85.720471 
L 556.915116 86.240494 
L 559.45148 83.470148 
L 561.987843 73.440086 
L 561.987843 73.440086 
" style="fill:none;stroke:#1f77b4;stroke-linecap:square;"/>
   </g>
   <g id="patch_3">
    <path d="M 29.35148 114.878099 
L 29.35148 37.220957 
" style="fill:none;stroke:#000000;stroke-linecap:square;stroke-linejoin:miter;stroke-width:0.5;"/>
   </g>
   <g id="patch_4">
    <path d="M 587.35148 114.878099 
L 587.35148 37.220957 
" style="fill:none;stroke:#000000;stroke-linecap:square;stroke-linejoin:miter;stroke-width:0.5;"/>
   </g>
   <g id="patch_5">
    <path d="M 29.35148 114.878099 
L 587.35148 114.878099 
" style="fill:none;stroke:#000000;stroke-linecap:square;stroke-linejoin:miter;stroke-width:0.5;"/>
   </g>
   <g id="patch_6">
    <path d="M 29.35148 37.220957 
L 587.35148 37.220957 
" style="fill:none;stroke:#000000;stroke-linecap:square;stroke-linejoin:miter;stroke-width:0.5;"/>
   </g>
   <g id="text_13">
    <!-- RSB = $10$ dB -->
    <g transform="translate(267.099642 16.885876)scale(0.14 -0.14)">
     <defs>
      <path d="M 2509 2146 
C 3117 2268 3629 2676 3629 3186 
C 3629 3785 2950 4326 2054 4326 
L 333 4326 
L 333 4160 
C 774 4160 845 4160 845 3873 
L 845 415 
C 845 128 774 128 333 128 
L 333 -26 
C 518 -26 851 -26 1050 -26 
C 1248 -26 1581 -26 1766 -26 
L 1766 128 
C 1325 128 1254 128 1254 417 
L 1254 2112 
L 2003 2112 
C 2368 2112 2573 1964 2662 1881 
C 2918 1632 2918 1459 2918 1024 
C 2918 595 2918 377 3110 160 
C 3354 -102 3680 -128 3821 -128 
C 4294 -128 4365 396 4365 503 
C 4365 540 4365 585 4307 585 
C 4256 585 4250 547 4250 522 
C 4218 112 4032 -26 3834 -26 
C 3482 -26 3443 375 3405 764 
C 3386 898 3373 993 3360 1133 
C 3322 1452 3270 1917 2509 2146 
z
M 1984 2214 
L 1254 2214 
L 1254 3913 
C 1254 4129 1267 4160 1523 4160 
L 1990 4160 
C 2522 4160 3142 3977 3142 3190 
C 3142 2372 2464 2214 1984 2214 
z
" id="CMR17-52" transform="scale(0.015625)"/>
      <path d="M 2803 4290 
C 2803 4404 2797 4411 2758 4411 
C 2720 4411 2707 4385 2682 4328 
L 2490 3907 
C 2246 4257 1875 4416 1472 4416 
C 819 4416 294 3901 294 3253 
C 294 3056 339 2776 557 2510 
C 794 2218 1018 2167 1530 2033 
C 1722 1982 2042 1899 2106 1874 
C 2470 1722 2662 1341 2662 985 
C 2662 527 2336 38 1779 38 
C 1094 38 454 419 410 1311 
C 403 1413 397 1419 352 1419 
C 301 1419 294 1413 294 1285 
L 294 -1 
C 294 -115 301 -122 339 -122 
C 384 -122 397 -90 486 108 
C 493 127 493 140 614 381 
C 934 -39 1472 -128 1779 -128 
C 2477 -128 2970 451 2970 1124 
C 2970 1454 2848 1708 2778 1823 
C 2509 2230 2221 2306 1914 2382 
C 1869 2402 1856 2402 1498 2490 
C 1152 2579 1005 2624 845 2796 
C 666 2992 602 3196 602 3399 
C 602 3812 934 4263 1478 4263 
C 2157 4263 2579 3786 2675 2993 
C 2694 2878 2701 2872 2746 2872 
C 2803 2872 2803 2891 2803 2999 
L 2803 4290 
z
" id="CMR17-53" transform="scale(0.015625)"/>
      <path d="M 333 4352 
L 333 4186 
C 774 4186 845 4186 845 3900 
L 845 452 
C 845 166 774 166 333 166 
L 333 0 
L 2534 0 
C 3354 0 3885 583 3885 1164 
C 3885 1741 3360 2233 2675 2233 
C 3290 2356 3718 2771 3718 3264 
C 3718 3802 3194 4352 2368 4352 
L 333 4352 
z
M 1248 2304 
L 1248 3937 
C 1248 4155 1261 4186 1517 4186 
L 2336 4186 
C 2970 4186 3251 3674 3251 3277 
C 3251 2791 2861 2304 2170 2304 
L 1248 2304 
z
M 1517 166 
C 1261 166 1248 197 1248 413 
L 1248 2202 
L 2432 2202 
C 3091 2202 3411 1625 3411 1162 
C 3411 699 3046 166 2349 166 
L 1517 166 
z
" id="CMR17-42" transform="scale(0.015625)"/>
      <path d="M 4115 2017 
C 4211 2017 4307 2017 4307 2125 
C 4307 2240 4198 2240 4090 2240 
L 512 2240 
C 403 2240 294 2240 294 2125 
C 294 2017 390 2017 486 2017 
L 4115 2017 
z
M 4090 896 
C 4198 896 4307 896 4307 1011 
C 4307 1119 4211 1119 4115 1119 
L 486 1119 
C 390 1119 294 1119 294 1011 
C 294 896 403 896 512 896 
L 4090 896 
z
" id="CMR17-3d" transform="scale(0.015625)"/>
      <path d="M 1869 4326 
L 1869 4160 
C 2246 4160 2304 4122 2304 3820 
L 2304 2345 
C 2278 2377 2016 2790 1498 2790 
C 845 2790 211 2208 211 1364 
C 211 525 806 -64 1434 -64 
C 1978 -64 2259 337 2291 380 
L 2291 -63 
L 3066 -63 
L 3066 128 
C 2688 128 2630 166 2630 473 
L 2630 4396 
L 1869 4326 
z
M 2291 755 
C 2291 563 2176 390 2029 262 
C 1811 70 1594 38 1472 38 
C 1286 38 621 134 621 1356 
C 621 2612 1363 2688 1530 2688 
C 1824 2688 2061 2522 2208 2291 
C 2291 2157 2291 2138 2291 2023 
L 2291 755 
z
" id="CMR17-64" transform="scale(0.015625)"/>
     </defs>
     <use transform="scale(0.996264)" xlink:href="#CMR17-52"/>
     <use transform="translate(67.791102 0)scale(0.996264)" xlink:href="#CMR17-53"/>
     <use transform="translate(118.686472 0)scale(0.996264)" xlink:href="#CMR17-42"/>
     <use transform="translate(213.951193 0)scale(0.996264)" xlink:href="#CMR17-3d"/>
     <use transform="translate(315.741947 0)scale(0.996264)" xlink:href="#CMR17-31"/>
     <use transform="translate(361.432424 0)scale(0.996264)" xlink:href="#CMR17-30"/>
     <use transform="translate(437.198868 0)scale(0.996264)" xlink:href="#CMR17-64"/>
     <use transform="translate(488.094238 0)scale(0.996264)" xlink:href="#CMR17-42"/>
    </g>
    <!-- $\sigma\approx0.22$ -->
    <g transform="translate(282.782097 31.220957)scale(0.14 -0.14)">
     <defs>
      <path d="M 3251 2408 
C 3334 2408 3546 2408 3546 2612 
C 3546 2752 3424 2752 3309 2752 
L 1894 2752 
C 934 2752 243 1686 243 932 
C 243 390 595 -64 1171 -64 
C 1926 -64 2752 747 2752 1705 
C 2752 1954 2694 2196 2541 2408 
L 3251 2408 
z
M 1178 64 
C 851 64 614 313 614 754 
C 614 1137 845 2408 1786 2408 
C 2061 2408 2368 2274 2368 1781 
C 2368 1558 2266 1021 2042 652 
C 1811 275 1466 64 1178 64 
z
" id="CMMI12-1b" transform="scale(0.015625)"/>
      <path d="M 4622 2890 
C 4622 3023 4577 3081 4533 3081 
C 4507 3081 4449 3055 4443 2909 
C 4417 2469 3969 2208 3553 2208 
C 3182 2208 2862 2405 2529 2628 
C 2183 2858 1837 3087 1421 3087 
C 826 3087 352 2634 352 2047 
C 352 1907 403 1856 442 1856 
C 506 1856 531 1977 531 2002 
C 563 2538 1088 2729 1421 2729 
C 1792 2729 2113 2531 2445 2308 
C 2791 2079 3137 1850 3553 1850 
C 4149 1850 4622 2303 4622 2890 
z
M 4622 1391 
C 4622 1577 4545 1590 4533 1590 
C 4507 1590 4449 1558 4443 1417 
C 4417 975 3969 713 3553 713 
C 3182 713 2862 912 2529 1137 
C 2183 1369 1837 1600 1421 1600 
C 826 1600 352 1145 352 554 
C 352 412 403 361 442 361 
C 506 361 531 483 531 509 
C 563 1049 1088 1242 1421 1242 
C 1792 1242 2113 1042 2445 817 
C 2791 586 3137 354 3553 354 
C 4161 354 4622 828 4622 1391 
z
" id="CMSY10-19" transform="scale(0.015625)"/>
      <path d="M 1178 307 
C 1178 492 1024 619 870 619 
C 685 619 557 466 557 313 
C 557 128 710 0 864 0 
C 1050 0 1178 153 1178 307 
z
" id="CMMI12-3a" transform="scale(0.015625)"/>
     </defs>
     <use transform="scale(0.996264)" xlink:href="#CMMI12-1b"/>
     <use transform="translate(86.694062 0)scale(0.996264)" xlink:href="#CMSY10-19"/>
     <use transform="translate(191.855539 0)scale(0.996264)" xlink:href="#CMR17-30"/>
     <use transform="translate(237.546016 0)scale(0.996264)" xlink:href="#CMMI12-3a"/>
     <use transform="translate(264.643193 0)scale(0.996264)" xlink:href="#CMR17-32"/>
     <use transform="translate(310.33367 0)scale(0.996264)" xlink:href="#CMR17-32"/>
    </g>
   </g>
  </g>
  <g id="axes_2">
   <g id="patch_7">
    <path d="M 29.35148 239.129528 
L 587.35148 239.129528 
L 587.35148 161.472385 
L 29.35148 161.472385 
z
" style="fill:#ffffff;"/>
   </g>
   <g id="matplotlib.axis_3">
    <g id="xtick_10">
     <g id="line2d_26">
      <path clip-path="url(#p0fd4c8f943)" d="M 54.715116 239.129528 
L 54.715116 161.472385 
" style="fill:none;stroke:#b0b0b0;stroke-linecap:square;stroke-width:0.5;"/>
     </g>
     <g id="line2d_27">
      <g>
       <use style="stroke:#000000;stroke-width:0.8;" x="54.715116" xlink:href="#m5c23e90dbc" y="239.129528"/>
      </g>
     </g>
     <g id="text_14">
      <!-- $\mathdefault{0}$ -->
      <g transform="translate(51.788621 254.431708)scale(0.12 -0.12)">
       <use transform="scale(0.996264)" xlink:href="#CMR17-30"/>
      </g>
     </g>
    </g>
    <g id="xtick_11">
     <g id="line2d_28">
      <path clip-path="url(#p0fd4c8f943)" d="M 118.124207 239.129528 
L 118.124207 161.472385 
" style="fill:none;stroke:#b0b0b0;stroke-linecap:square;stroke-width:0.5;"/>
     </g>
     <g id="line2d_29">
      <g>
       <use style="stroke:#000000;stroke-width:0.8;" x="118.124207" xlink:href="#m5c23e90dbc" y="239.129528"/>
      </g>
     </g>
     <g id="text_15">
      <!-- $\mathdefault{25}$ -->
      <g transform="translate(112.271217 254.431708)scale(0.12 -0.12)">
       <use transform="scale(0.996264)" xlink:href="#CMR17-32"/>
       <use transform="translate(45.690477 0)scale(0.996264)" xlink:href="#CMR17-35"/>
      </g>
     </g>
    </g>
    <g id="xtick_12">
     <g id="line2d_30">
      <path clip-path="url(#p0fd4c8f943)" d="M 181.533298 239.129528 
L 181.533298 161.472385 
" style="fill:none;stroke:#b0b0b0;stroke-linecap:square;stroke-width:0.5;"/>
     </g>
     <g id="line2d_31">
      <g>
       <use style="stroke:#000000;stroke-width:0.8;" x="181.533298" xlink:href="#m5c23e90dbc" y="239.129528"/>
      </g>
     </g>
     <g id="text_16">
      <!-- $\mathdefault{50}$ -->
      <g transform="translate(175.680308 254.431708)scale(0.12 -0.12)">
       <use transform="scale(0.996264)" xlink:href="#CMR17-35"/>
       <use transform="translate(45.690477 0)scale(0.996264)" xlink:href="#CMR17-30"/>
      </g>
     </g>
    </g>
    <g id="xtick_13">
     <g id="line2d_32">
      <path clip-path="url(#p0fd4c8f943)" d="M 244.942389 239.129528 
L 244.942389 161.472385 
" style="fill:none;stroke:#b0b0b0;stroke-linecap:square;stroke-width:0.5;"/>
     </g>
     <g id="line2d_33">
      <g>
       <use style="stroke:#000000;stroke-width:0.8;" x="244.942389" xlink:href="#m5c23e90dbc" y="239.129528"/>
      </g>
     </g>
     <g id="text_17">
      <!-- $\mathdefault{75}$ -->
      <g transform="translate(239.089399 254.431708)scale(0.12 -0.12)">
       <use transform="scale(0.996264)" xlink:href="#CMR17-37"/>
       <use transform="translate(45.690477 0)scale(0.996264)" xlink:href="#CMR17-35"/>
      </g>
     </g>
    </g>
    <g id="xtick_14">
     <g id="line2d_34">
      <path clip-path="url(#p0fd4c8f943)" d="M 308.35148 239.129528 
L 308.35148 161.472385 
" style="fill:none;stroke:#b0b0b0;stroke-linecap:square;stroke-width:0.5;"/>
     </g>
     <g id="line2d_35">
      <g>
       <use style="stroke:#000000;stroke-width:0.8;" x="308.35148" xlink:href="#m5c23e90dbc" y="239.129528"/>
      </g>
     </g>
     <g id="text_18">
      <!-- $\mathdefault{100}$ -->
      <g transform="translate(299.571994 254.431708)scale(0.12 -0.12)">
       <use transform="scale(0.996264)" xlink:href="#CMR17-31"/>
       <use transform="translate(45.690477 0)scale(0.996264)" xlink:href="#CMR17-30"/>
       <use transform="translate(91.380954 0)scale(0.996264)" xlink:href="#CMR17-30"/>
      </g>
     </g>
    </g>
    <g id="xtick_15">
     <g id="line2d_36">
      <path clip-path="url(#p0fd4c8f943)" d="M 371.760571 239.129528 
L 371.760571 161.472385 
" style="fill:none;stroke:#b0b0b0;stroke-linecap:square;stroke-width:0.5;"/>
     </g>
     <g id="line2d_37">
      <g>
       <use style="stroke:#000000;stroke-width:0.8;" x="371.760571" xlink:href="#m5c23e90dbc" y="239.129528"/>
      </g>
     </g>
     <g id="text_19">
      <!-- $\mathdefault{125}$ -->
      <g transform="translate(362.981085 254.431708)scale(0.12 -0.12)">
       <use transform="scale(0.996264)" xlink:href="#CMR17-31"/>
       <use transform="translate(45.690477 0)scale(0.996264)" xlink:href="#CMR17-32"/>
       <use transform="translate(91.380954 0)scale(0.996264)" xlink:href="#CMR17-35"/>
      </g>
     </g>
    </g>
    <g id="xtick_16">
     <g id="line2d_38">
      <path clip-path="url(#p0fd4c8f943)" d="M 435.169661 239.129528 
L 435.169661 161.472385 
" style="fill:none;stroke:#b0b0b0;stroke-linecap:square;stroke-width:0.5;"/>
     </g>
     <g id="line2d_39">
      <g>
       <use style="stroke:#000000;stroke-width:0.8;" x="435.169661" xlink:href="#m5c23e90dbc" y="239.129528"/>
      </g>
     </g>
     <g id="text_20">
      <!-- $\mathdefault{150}$ -->
      <g transform="translate(426.390176 254.431708)scale(0.12 -0.12)">
       <use transform="scale(0.996264)" xlink:href="#CMR17-31"/>
       <use transform="translate(45.690477 0)scale(0.996264)" xlink:href="#CMR17-35"/>
       <use transform="translate(91.380954 0)scale(0.996264)" xlink:href="#CMR17-30"/>
      </g>
     </g>
    </g>
    <g id="xtick_17">
     <g id="line2d_40">
      <path clip-path="url(#p0fd4c8f943)" d="M 498.578752 239.129528 
L 498.578752 161.472385 
" style="fill:none;stroke:#b0b0b0;stroke-linecap:square;stroke-width:0.5;"/>
     </g>
     <g id="line2d_41">
      <g>
       <use style="stroke:#000000;stroke-width:0.8;" x="498.578752" xlink:href="#m5c23e90dbc" y="239.129528"/>
      </g>
     </g>
     <g id="text_21">
      <!-- $\mathdefault{175}$ -->
      <g transform="translate(489.799267 254.431708)scale(0.12 -0.12)">
       <use transform="scale(0.996264)" xlink:href="#CMR17-31"/>
       <use transform="translate(45.690477 0)scale(0.996264)" xlink:href="#CMR17-37"/>
       <use transform="translate(91.380954 0)scale(0.996264)" xlink:href="#CMR17-35"/>
      </g>
     </g>
    </g>
    <g id="xtick_18">
     <g id="line2d_42">
      <path clip-path="url(#p0fd4c8f943)" d="M 561.987843 239.129528 
L 561.987843 161.472385 
" style="fill:none;stroke:#b0b0b0;stroke-linecap:square;stroke-width:0.5;"/>
     </g>
     <g id="line2d_43">
      <g>
       <use style="stroke:#000000;stroke-width:0.8;" x="561.987843" xlink:href="#m5c23e90dbc" y="239.129528"/>
      </g>
     </g>
     <g id="text_22">
      <!-- $\mathdefault{200}$ -->
      <g transform="translate(553.208358 254.431708)scale(0.12 -0.12)">
       <use transform="scale(0.996264)" xlink:href="#CMR17-32"/>
       <use transform="translate(45.690477 0)scale(0.996264)" xlink:href="#CMR17-30"/>
       <use transform="translate(91.380954 0)scale(0.996264)" xlink:href="#CMR17-30"/>
      </g>
     </g>
    </g>
   </g>
   <g id="matplotlib.axis_4">
    <g id="ytick_4">
     <g id="line2d_44">
      <path clip-path="url(#p0fd4c8f943)" d="M 29.35148 226.186671 
L 587.35148 226.186671 
" style="fill:none;stroke:#b0b0b0;stroke-linecap:square;stroke-width:0.5;"/>
     </g>
     <g id="line2d_45">
      <g>
       <use style="stroke:#000000;stroke-width:0.8;" x="29.35148" xlink:href="#m3e95a8d996" y="226.186671"/>
      </g>
     </g>
     <g id="text_23">
      <!-- $\mathdefault{−2}$ -->
      <g transform="translate(7.2 230.337761)scale(0.12 -0.12)">
       <use transform="scale(0.996264)" xlink:href="#CMSY10-0"/>
       <use transform="translate(77.487468 0)scale(0.996264)" xlink:href="#CMR17-32"/>
      </g>
     </g>
    </g>
    <g id="ytick_5">
     <g id="line2d_46">
      <path clip-path="url(#p0fd4c8f943)" d="M 29.35148 200.300957 
L 587.35148 200.300957 
" style="fill:none;stroke:#b0b0b0;stroke-linecap:square;stroke-width:0.5;"/>
     </g>
     <g id="line2d_47">
      <g>
       <use style="stroke:#000000;stroke-width:0.8;" x="29.35148" xlink:href="#m3e95a8d996" y="200.300957"/>
      </g>
     </g>
     <g id="text_24">
      <!-- $\mathdefault{0}$ -->
      <g transform="translate(16.498489 204.452046)scale(0.12 -0.12)">
       <use transform="scale(0.996264)" xlink:href="#CMR17-30"/>
      </g>
     </g>
    </g>
    <g id="ytick_6">
     <g id="line2d_48">
      <path clip-path="url(#p0fd4c8f943)" d="M 29.35148 174.415242 
L 587.35148 174.415242 
" style="fill:none;stroke:#b0b0b0;stroke-linecap:square;stroke-width:0.5;"/>
     </g>
     <g id="line2d_49">
      <g>
       <use style="stroke:#000000;stroke-width:0.8;" x="29.35148" xlink:href="#m3e95a8d996" y="174.415242"/>
      </g>
     </g>
     <g id="text_25">
      <!-- $\mathdefault{2}$ -->
      <g transform="translate(16.498489 178.566332)scale(0.12 -0.12)">
       <use transform="scale(0.996264)" xlink:href="#CMR17-32"/>
      </g>
     </g>
    </g>
   </g>
   <g id="line2d_50">
    <path clip-path="url(#p0fd4c8f943)" d="M 54.715116 191.175481 
L 57.25148 194.775986 
L 59.787843 188.441677 
L 62.324207 179.009864 
L 64.860571 192.214679 
L 67.396934 186.015397 
L 69.933298 188.376052 
L 72.469661 181.077644 
L 75.006025 191.486675 
L 80.078752 181.223677 
L 82.615116 210.018741 
L 85.15148 184.962438 
L 87.687843 205.433963 
L 90.224207 203.627121 
L 92.760571 201.585658 
L 95.296934 220.160808 
L 97.833298 215.829814 
L 100.369661 213.832536 
L 102.906025 218.957216 
L 105.442389 217.547109 
L 107.978752 233.800583 
L 110.515116 200.071938 
L 113.05148 212.977502 
L 115.587843 194.666502 
L 118.124207 223.413793 
L 120.660571 206.326475 
L 123.196934 201.721286 
L 125.733298 192.633451 
L 128.269661 185.715259 
L 130.806025 190.40048 
L 133.342389 178.130252 
L 135.878752 173.411907 
L 138.415116 180.683876 
L 140.95148 189.763068 
L 143.487843 183.927654 
L 146.024207 193.725365 
L 148.560571 206.828117 
L 151.096934 212.339305 
L 153.633298 220.791036 
L 156.169661 220.904285 
L 158.706025 203.063918 
L 161.242389 213.107682 
L 163.778752 220.686577 
L 166.315116 203.0905 
L 168.85148 217.490667 
L 171.387843 213.475 
L 173.924207 221.151721 
L 176.460571 201.202785 
L 178.996934 204.873168 
L 181.533298 224.45288 
L 184.069661 187.416239 
L 186.606025 189.087347 
L 189.142389 194.02755 
L 191.678752 183.163722 
L 194.215116 198.442601 
L 196.75148 193.695593 
L 199.287843 191.939353 
L 201.824207 184.585535 
L 204.360571 198.489684 
L 206.896934 195.776908 
L 209.433298 194.326558 
L 211.969661 209.703372 
L 214.506025 196.178684 
L 217.042389 218.380134 
L 219.578752 185.790858 
L 222.115116 217.93673 
L 224.65148 201.094806 
L 227.187843 216.615124 
L 229.724207 211.289078 
L 232.260571 212.758472 
L 234.796934 215.662843 
L 237.333298 213.666384 
L 239.869661 207.513187 
L 242.406025 212.351628 
L 244.942389 214.236145 
L 247.478752 197.365322 
L 250.015116 190.882304 
L 252.55148 171.129841 
L 255.087843 191.407796 
L 257.624207 184.216391 
L 260.160571 184.076364 
L 262.696934 189.95819 
L 265.233298 191.42206 
L 267.769661 189.045444 
L 270.306025 199.982994 
L 272.842389 172.31858 
L 275.378752 208.838643 
L 277.915116 182.012404 
L 280.45148 219.608229 
L 282.987843 200.885423 
L 285.524207 214.042913 
L 288.060571 207.223802 
L 290.596934 218.3289 
L 293.133298 209.03521 
L 295.669661 212.270216 
L 298.206025 206.522279 
L 300.742389 219.352555 
L 303.278752 208.485769 
L 305.815116 201.143517 
L 308.35148 209.157371 
L 310.887843 197.648918 
L 313.424207 175.063441 
L 315.960571 180.179228 
L 318.496934 182.843267 
L 321.033298 184.454641 
L 323.569661 179.76507 
L 326.106025 163.256847 
L 328.642389 161.426113 
L 331.178752 185.520826 
L 333.715116 191.179898 
L 336.25148 208.743394 
L 338.787843 198.419753 
L 341.324207 196.518537 
L 343.860571 205.611272 
L 346.396934 188.716112 
L 348.933298 208.455535 
L 351.469661 215.396497 
L 354.006025 212.489093 
L 356.542389 200.239541 
L 359.078752 204.00851 
L 361.615116 200.688406 
L 364.15148 207.233688 
L 366.687843 206.715289 
L 369.224207 201.422993 
L 371.760571 184.628035 
L 374.296934 194.719222 
L 376.833298 194.784958 
L 379.369661 192.705847 
L 381.906025 208.856502 
L 384.442389 187.125434 
L 386.978752 193.779086 
L 389.515116 184.264356 
L 392.05148 196.683267 
L 394.587843 193.835319 
L 397.124207 203.432547 
L 399.660571 194.639229 
L 402.196934 192.727659 
L 404.733298 204.373834 
L 407.269661 199.342324 
L 409.806025 227.212618 
L 412.342389 206.672682 
L 414.878752 213.709394 
L 417.415116 211.704716 
L 419.95148 218.578747 
L 422.487843 214.500133 
L 425.024207 197.058254 
L 427.560571 203.107251 
L 430.096934 199.923318 
L 432.633298 210.31901 
L 435.169661 196.561416 
L 437.706025 188.194375 
L 440.242389 196.465084 
L 442.778752 194.912281 
L 445.315116 186.312808 
L 447.85148 199.263038 
L 450.387843 180.450987 
L 452.924207 182.216448 
L 455.460571 196.108024 
L 457.996934 188.789797 
L 460.533298 194.465822 
L 463.069661 189.158503 
L 465.606025 195.682809 
L 468.142389 196.77189 
L 470.678752 194.328095 
L 473.215116 220.703004 
L 475.75148 212.149501 
L 478.287843 228.484195 
L 480.824207 209.562538 
L 483.360571 203.837543 
L 485.896934 214.156936 
L 488.433298 211.765803 
L 490.969661 207.724717 
L 493.506025 197.005293 
L 496.042389 206.587137 
L 498.578752 193.312238 
L 503.65148 184.595251 
L 506.187843 199.626601 
L 508.724207 182.842742 
L 511.260571 187.429123 
L 513.796934 190.809268 
L 516.333298 191.866298 
L 518.869661 160.654239 
L 521.406025 186.268952 
L 523.942389 192.951022 
L 526.478752 200.987979 
L 529.015116 195.0876 
L 531.55148 176.142818 
L 534.087843 202.114809 
L 536.624207 207.690677 
L 539.160571 195.327187 
L 541.696934 216.747048 
L 544.233298 231.793255 
L 546.769661 216.288669 
L 549.306025 221.732747 
L 551.842389 215.673215 
L 554.378752 209.04247 
L 556.915116 186.852609 
L 559.45148 203.775297 
L 561.987843 183.045775 
L 561.987843 183.045775 
" style="fill:none;stroke:#1f77b4;stroke-linecap:square;"/>
   </g>
   <g id="patch_8">
    <path d="M 29.35148 239.129528 
L 29.35148 161.472385 
" style="fill:none;stroke:#000000;stroke-linecap:square;stroke-linejoin:miter;stroke-width:0.5;"/>
   </g>
   <g id="patch_9">
    <path d="M 587.35148 239.129528 
L 587.35148 161.472385 
" style="fill:none;stroke:#000000;stroke-linecap:square;stroke-linejoin:miter;stroke-width:0.5;"/>
   </g>
   <g id="patch_10">
    <path d="M 29.35148 239.129528 
L 587.35148 239.129528 
" style="fill:none;stroke:#000000;stroke-linecap:square;stroke-linejoin:miter;stroke-width:0.5;"/>
   </g>
   <g id="patch_11">
    <path d="M 29.35148 161.472385 
L 587.35148 161.472385 
" style="fill:none;stroke:#000000;stroke-linecap:square;stroke-linejoin:miter;stroke-width:0.5;"/>
   </g>
   <g id="text_26">
    <!-- RSB = $0$ dB -->
    <g transform="translate(270.513886 141.137305)scale(0.14 -0.14)">
     <use transform="scale(0.996264)" xlink:href="#CMR17-52"/>
     <use transform="translate(67.791102 0)scale(0.996264)" xlink:href="#CMR17-53"/>
     <use transform="translate(118.686472 0)scale(0.996264)" xlink:href="#CMR17-42"/>
     <use transform="translate(213.951193 0)scale(0.996264)" xlink:href="#CMR17-3d"/>
     <use transform="translate(315.741947 0)scale(0.996264)" xlink:href="#CMR17-30"/>
     <use transform="translate(391.508391 0)scale(0.996264)" xlink:href="#CMR17-64"/>
     <use transform="translate(442.403761 0)scale(0.996264)" xlink:href="#CMR17-42"/>
    </g>
    <!-- $\sigma\approx0.71$ -->
    <g transform="translate(282.782097 155.472385)scale(0.14 -0.14)">
     <use transform="scale(0.996264)" xlink:href="#CMMI12-1b"/>
     <use transform="translate(86.694062 0)scale(0.996264)" xlink:href="#CMSY10-19"/>
     <use transform="translate(191.855539 0)scale(0.996264)" xlink:href="#CMR17-30"/>
     <use transform="translate(237.546016 0)scale(0.996264)" xlink:href="#CMMI12-3a"/>
     <use transform="translate(264.643193 0)scale(0.996264)" xlink:href="#CMR17-37"/>
     <use transform="translate(310.33367 0)scale(0.996264)" xlink:href="#CMR17-31"/>
    </g>
   </g>
  </g>
  <g id="axes_3">
   <g id="patch_12">
    <path d="M 29.35148 363.380957 
L 587.35148 363.380957 
L 587.35148 285.723814 
L 29.35148 285.723814 
z
" style="fill:#ffffff;"/>
   </g>
   <g id="matplotlib.axis_5">
    <g id="xtick_19">
     <g id="line2d_51">
      <path clip-path="url(#p0e7df034f0)" d="M 54.715116 363.380957 
L 54.715116 285.723814 
" style="fill:none;stroke:#b0b0b0;stroke-linecap:square;stroke-width:0.5;"/>
     </g>
     <g id="line2d_52">
      <g>
       <use style="stroke:#000000;stroke-width:0.8;" x="54.715116" xlink:href="#m5c23e90dbc" y="363.380957"/>
      </g>
     </g>
     <g id="text_27">
      <!-- $\mathdefault{0}$ -->
      <g transform="translate(51.788621 378.683136)scale(0.12 -0.12)">
       <use transform="scale(0.996264)" xlink:href="#CMR17-30"/>
      </g>
     </g>
    </g>
    <g id="xtick_20">
     <g id="line2d_53">
      <path clip-path="url(#p0e7df034f0)" d="M 118.124207 363.380957 
L 118.124207 285.723814 
" style="fill:none;stroke:#b0b0b0;stroke-linecap:square;stroke-width:0.5;"/>
     </g>
     <g id="line2d_54">
      <g>
       <use style="stroke:#000000;stroke-width:0.8;" x="118.124207" xlink:href="#m5c23e90dbc" y="363.380957"/>
      </g>
     </g>
     <g id="text_28">
      <!-- $\mathdefault{25}$ -->
      <g transform="translate(112.271217 378.683136)scale(0.12 -0.12)">
       <use transform="scale(0.996264)" xlink:href="#CMR17-32"/>
       <use transform="translate(45.690477 0)scale(0.996264)" xlink:href="#CMR17-35"/>
      </g>
     </g>
    </g>
    <g id="xtick_21">
     <g id="line2d_55">
      <path clip-path="url(#p0e7df034f0)" d="M 181.533298 363.380957 
L 181.533298 285.723814 
" style="fill:none;stroke:#b0b0b0;stroke-linecap:square;stroke-width:0.5;"/>
     </g>
     <g id="line2d_56">
      <g>
       <use style="stroke:#000000;stroke-width:0.8;" x="181.533298" xlink:href="#m5c23e90dbc" y="363.380957"/>
      </g>
     </g>
     <g id="text_29">
      <!-- $\mathdefault{50}$ -->
      <g transform="translate(175.680308 378.683136)scale(0.12 -0.12)">
       <use transform="scale(0.996264)" xlink:href="#CMR17-35"/>
       <use transform="translate(45.690477 0)scale(0.996264)" xlink:href="#CMR17-30"/>
      </g>
     </g>
    </g>
    <g id="xtick_22">
     <g id="line2d_57">
      <path clip-path="url(#p0e7df034f0)" d="M 244.942389 363.380957 
L 244.942389 285.723814 
" style="fill:none;stroke:#b0b0b0;stroke-linecap:square;stroke-width:0.5;"/>
     </g>
     <g id="line2d_58">
      <g>
       <use style="stroke:#000000;stroke-width:0.8;" x="244.942389" xlink:href="#m5c23e90dbc" y="363.380957"/>
      </g>
     </g>
     <g id="text_30">
      <!-- $\mathdefault{75}$ -->
      <g transform="translate(239.089399 378.683136)scale(0.12 -0.12)">
       <use transform="scale(0.996264)" xlink:href="#CMR17-37"/>
       <use transform="translate(45.690477 0)scale(0.996264)" xlink:href="#CMR17-35"/>
      </g>
     </g>
    </g>
    <g id="xtick_23">
     <g id="line2d_59">
      <path clip-path="url(#p0e7df034f0)" d="M 308.35148 363.380957 
L 308.35148 285.723814 
" style="fill:none;stroke:#b0b0b0;stroke-linecap:square;stroke-width:0.5;"/>
     </g>
     <g id="line2d_60">
      <g>
       <use style="stroke:#000000;stroke-width:0.8;" x="308.35148" xlink:href="#m5c23e90dbc" y="363.380957"/>
      </g>
     </g>
     <g id="text_31">
      <!-- $\mathdefault{100}$ -->
      <g transform="translate(299.571994 378.683136)scale(0.12 -0.12)">
       <use transform="scale(0.996264)" xlink:href="#CMR17-31"/>
       <use transform="translate(45.690477 0)scale(0.996264)" xlink:href="#CMR17-30"/>
       <use transform="translate(91.380954 0)scale(0.996264)" xlink:href="#CMR17-30"/>
      </g>
     </g>
    </g>
    <g id="xtick_24">
     <g id="line2d_61">
      <path clip-path="url(#p0e7df034f0)" d="M 371.760571 363.380957 
L 371.760571 285.723814 
" style="fill:none;stroke:#b0b0b0;stroke-linecap:square;stroke-width:0.5;"/>
     </g>
     <g id="line2d_62">
      <g>
       <use style="stroke:#000000;stroke-width:0.8;" x="371.760571" xlink:href="#m5c23e90dbc" y="363.380957"/>
      </g>
     </g>
     <g id="text_32">
      <!-- $\mathdefault{125}$ -->
      <g transform="translate(362.981085 378.683136)scale(0.12 -0.12)">
       <use transform="scale(0.996264)" xlink:href="#CMR17-31"/>
       <use transform="translate(45.690477 0)scale(0.996264)" xlink:href="#CMR17-32"/>
       <use transform="translate(91.380954 0)scale(0.996264)" xlink:href="#CMR17-35"/>
      </g>
     </g>
    </g>
    <g id="xtick_25">
     <g id="line2d_63">
      <path clip-path="url(#p0e7df034f0)" d="M 435.169661 363.380957 
L 435.169661 285.723814 
" style="fill:none;stroke:#b0b0b0;stroke-linecap:square;stroke-width:0.5;"/>
     </g>
     <g id="line2d_64">
      <g>
       <use style="stroke:#000000;stroke-width:0.8;" x="435.169661" xlink:href="#m5c23e90dbc" y="363.380957"/>
      </g>
     </g>
     <g id="text_33">
      <!-- $\mathdefault{150}$ -->
      <g transform="translate(426.390176 378.683136)scale(0.12 -0.12)">
       <use transform="scale(0.996264)" xlink:href="#CMR17-31"/>
       <use transform="translate(45.690477 0)scale(0.996264)" xlink:href="#CMR17-35"/>
       <use transform="translate(91.380954 0)scale(0.996264)" xlink:href="#CMR17-30"/>
      </g>
     </g>
    </g>
    <g id="xtick_26">
     <g id="line2d_65">
      <path clip-path="url(#p0e7df034f0)" d="M 498.578752 363.380957 
L 498.578752 285.723814 
" style="fill:none;stroke:#b0b0b0;stroke-linecap:square;stroke-width:0.5;"/>
     </g>
     <g id="line2d_66">
      <g>
       <use style="stroke:#000000;stroke-width:0.8;" x="498.578752" xlink:href="#m5c23e90dbc" y="363.380957"/>
      </g>
     </g>
     <g id="text_34">
      <!-- $\mathdefault{175}$ -->
      <g transform="translate(489.799267 378.683136)scale(0.12 -0.12)">
       <use transform="scale(0.996264)" xlink:href="#CMR17-31"/>
       <use transform="translate(45.690477 0)scale(0.996264)" xlink:href="#CMR17-37"/>
       <use transform="translate(91.380954 0)scale(0.996264)" xlink:href="#CMR17-35"/>
      </g>
     </g>
    </g>
    <g id="xtick_27">
     <g id="line2d_67">
      <path clip-path="url(#p0e7df034f0)" d="M 561.987843 363.380957 
L 561.987843 285.723814 
" style="fill:none;stroke:#b0b0b0;stroke-linecap:square;stroke-width:0.5;"/>
     </g>
     <g id="line2d_68">
      <g>
       <use style="stroke:#000000;stroke-width:0.8;" x="561.987843" xlink:href="#m5c23e90dbc" y="363.380957"/>
      </g>
     </g>
     <g id="text_35">
      <!-- $\mathdefault{200}$ -->
      <g transform="translate(553.208358 378.683136)scale(0.12 -0.12)">
       <use transform="scale(0.996264)" xlink:href="#CMR17-32"/>
       <use transform="translate(45.690477 0)scale(0.996264)" xlink:href="#CMR17-30"/>
       <use transform="translate(91.380954 0)scale(0.996264)" xlink:href="#CMR17-30"/>
      </g>
     </g>
    </g>
   </g>
   <g id="matplotlib.axis_6">
    <g id="ytick_7">
     <g id="line2d_69">
      <path clip-path="url(#p0e7df034f0)" d="M 29.35148 350.438099 
L 587.35148 350.438099 
" style="fill:none;stroke:#b0b0b0;stroke-linecap:square;stroke-width:0.5;"/>
     </g>
     <g id="line2d_70">
      <g>
       <use style="stroke:#000000;stroke-width:0.8;" x="29.35148" xlink:href="#m3e95a8d996" y="350.438099"/>
      </g>
     </g>
     <g id="text_36">
      <!-- $\mathdefault{−2}$ -->
      <g transform="translate(7.2 354.589189)scale(0.12 -0.12)">
       <use transform="scale(0.996264)" xlink:href="#CMSY10-0"/>
       <use transform="translate(77.487468 0)scale(0.996264)" xlink:href="#CMR17-32"/>
      </g>
     </g>
    </g>
    <g id="ytick_8">
     <g id="line2d_71">
      <path clip-path="url(#p0e7df034f0)" d="M 29.35148 324.552385 
L 587.35148 324.552385 
" style="fill:none;stroke:#b0b0b0;stroke-linecap:square;stroke-width:0.5;"/>
     </g>
     <g id="line2d_72">
      <g>
       <use style="stroke:#000000;stroke-width:0.8;" x="29.35148" xlink:href="#m3e95a8d996" y="324.552385"/>
      </g>
     </g>
     <g id="text_37">
      <!-- $\mathdefault{0}$ -->
      <g transform="translate(16.498489 328.703475)scale(0.12 -0.12)">
       <use transform="scale(0.996264)" xlink:href="#CMR17-30"/>
      </g>
     </g>
    </g>
    <g id="ytick_9">
     <g id="line2d_73">
      <path clip-path="url(#p0e7df034f0)" d="M 29.35148 298.666671 
L 587.35148 298.666671 
" style="fill:none;stroke:#b0b0b0;stroke-linecap:square;stroke-width:0.5;"/>
     </g>
     <g id="line2d_74">
      <g>
       <use style="stroke:#000000;stroke-width:0.8;" x="29.35148" xlink:href="#m3e95a8d996" y="298.666671"/>
      </g>
     </g>
     <g id="text_38">
      <!-- $\mathdefault{2}$ -->
      <g transform="translate(16.498489 302.817761)scale(0.12 -0.12)">
       <use transform="scale(0.996264)" xlink:href="#CMR17-32"/>
      </g>
     </g>
    </g>
   </g>
   <g id="line2d_75">
    <path clip-path="url(#p0e7df034f0)" d="M 54.715116 299.337667 
L 57.25148 324.257898 
L 59.787843 373.457717 
L 62.324207 304.709215 
L 64.860571 311.946265 
L 67.396934 298.089511 
L 69.933298 299.523928 
L 72.469661 326.483886 
L 75.006025 306.836213 
L 77.542389 312.996155 
L 80.078752 329.753071 
L 82.615116 357.14519 
L 85.15148 357.840602 
L 87.687843 324.869637 
L 90.224207 303.99929 
L 92.760571 331.012584 
L 95.296934 374.863615 
L 97.833298 381.165963 
L 100.369661 348.022953 
L 102.906025 354.446001 
L 105.442389 337.37994 
L 107.978752 274.761822 
L 110.515116 357.469763 
L 113.05148 345.769421 
L 115.587843 314.724446 
L 118.124207 323.924175 
L 120.660571 323.229499 
L 123.196934 285.289326 
L 125.733298 294.56511 
L 128.269661 298.523577 
L 130.806025 297.934954 
L 133.342389 352.786536 
L 135.878752 322.928856 
L 138.415116 324.39867 
L 140.95148 348.553101 
L 143.487843 343.345136 
L 146.024207 313.870786 
L 148.560571 336.942159 
L 151.096934 313.989324 
L 153.633298 301.180454 
L 156.169661 366.543534 
L 158.706025 375.550029 
L 161.242389 313.640007 
L 163.778752 325.163766 
L 166.315116 310.596708 
L 168.85148 309.420547 
L 171.387843 292.504554 
L 173.924207 339.999065 
L 176.460571 325.290979 
L 178.478317 389.207732 
M 179.655332 389.207732 
L 181.533298 342.348571 
L 184.069661 308.049377 
L 186.606025 327.455157 
L 189.142389 297.956341 
L 191.678752 264.126697 
L 194.215116 320.346128 
L 196.75148 334.271918 
L 199.287843 363.862331 
L 201.824207 278.874901 
L 204.360571 323.836244 
L 206.896934 323.286357 
L 209.433298 301.699267 
L 211.969661 336.996911 
L 214.506025 339.055138 
L 217.020059 389.207732 
M 217.058764 389.207732 
L 219.578752 320.655158 
L 222.115116 339.77252 
L 224.65148 364.384176 
L 227.187843 370.674627 
L 229.724207 366.577212 
L 232.260571 310.777396 
L 234.796934 376.383568 
L 237.333298 311.12739 
L 239.869661 312.909065 
L 242.406025 359.519147 
L 244.942389 366.29326 
L 247.478752 308.054176 
L 250.015116 278.462079 
L 252.55148 305.254611 
L 255.087843 317.330861 
L 257.624207 350.357919 
L 260.160571 294.078847 
L 262.696934 283.408739 
L 265.233298 289.336201 
L 267.769661 327.905213 
L 270.306025 353.157568 
L 272.842389 291.38611 
L 275.378752 364.416099 
L 277.915116 348.540763 
L 280.45148 313.961406 
L 282.987843 320.7042 
L 285.524207 312.076566 
L 288.060571 336.647781 
L 290.596934 316.682532 
L 293.133298 291.95734 
L 295.669661 304.619686 
L 298.206025 290.253706 
L 300.742389 326.654195 
L 303.278752 327.990931 
L 305.815116 364.758644 
L 308.35148 285.776893 
L 310.887843 331.920056 
L 313.424207 323.517615 
L 315.960571 301.191321 
L 318.496934 350.107668 
L 321.033298 213.842898 
L 323.569661 317.679795 
L 326.106025 253.434037 
L 328.642389 340.530368 
L 331.178752 277.050375 
L 333.715116 338.904148 
L 336.25148 374.956031 
L 338.787843 305.240361 
L 341.324207 358.715384 
L 343.860571 348.362137 
L 346.396934 368.57716 
L 348.933298 322.839595 
L 351.469661 352.535616 
L 354.006025 335.393197 
L 356.542389 316.258218 
L 359.078752 343.53858 
L 361.615116 376.850925 
L 364.15148 341.623772 
L 366.687843 325.648521 
L 369.224207 306.532943 
L 371.760571 349.516243 
L 374.296934 336.593362 
L 379.369661 273.62336 
L 381.906025 372.185882 
L 384.442389 295.90608 
L 386.978752 305.2145 
L 389.515116 321.277345 
L 392.05148 349.255402 
L 394.587843 305.527774 
L 397.124207 309.956129 
L 399.660571 323.731428 
L 402.196934 343.141181 
L 404.733298 301.128327 
L 407.269661 350.36403 
L 409.806025 290.882358 
L 412.342389 341.47274 
L 414.878752 325.269479 
L 417.415116 379.303578 
L 419.95148 358.633686 
L 422.487843 295.858474 
L 425.024207 365.630435 
L 427.560571 348.812419 
L 430.096934 305.3429 
L 432.633298 329.66907 
L 435.169661 345.674473 
L 437.706025 307.653735 
L 440.242389 343.069875 
L 442.778752 307.640232 
L 445.315116 347.06737 
L 447.85148 277.729779 
L 450.387843 362.937103 
L 452.924207 313.707818 
L 455.460571 342.584245 
L 457.996934 289.489423 
L 460.533298 315.191888 
L 463.069661 349.095751 
L 465.606025 323.538904 
L 468.142389 285.633106 
L 470.678752 324.158061 
L 473.215116 332.475117 
L 475.75148 334.667832 
L 478.287843 304.208282 
L 480.824207 338.9077 
L 483.360571 327.889309 
L 485.896934 309.93207 
L 488.433298 288.294168 
L 490.969661 354.901983 
L 493.506025 311.451331 
L 496.042389 265.006519 
L 498.578752 345.666792 
L 501.115116 355.923271 
L 503.65148 317.967147 
L 506.187843 290.880151 
L 511.260571 330.571582 
L 513.796934 332.224131 
L 516.333298 318.700109 
L 518.869661 311.339795 
L 521.406025 287.754027 
L 523.942389 362.540147 
L 526.478752 308.499326 
L 529.015116 334.713965 
L 531.55148 280.732957 
L 534.087843 366.634636 
L 536.624207 365.66277 
L 539.160571 328.900745 
L 541.696934 368.150071 
L 544.233298 328.977369 
L 546.769661 338.129073 
L 549.306025 303.329731 
L 551.842389 243.396597 
L 554.378752 335.57353 
L 556.915116 379.649251 
L 559.45148 349.272314 
L 561.987843 302.508732 
L 561.987843 302.508732 
" style="fill:none;stroke:#1f77b4;stroke-linecap:square;"/>
   </g>
   <g id="patch_13">
    <path d="M 29.35148 363.380957 
L 29.35148 285.723814 
" style="fill:none;stroke:#000000;stroke-linecap:square;stroke-linejoin:miter;stroke-width:0.5;"/>
   </g>
   <g id="patch_14">
    <path d="M 587.35148 363.380957 
L 587.35148 285.723814 
" style="fill:none;stroke:#000000;stroke-linecap:square;stroke-linejoin:miter;stroke-width:0.5;"/>
   </g>
   <g id="patch_15">
    <path d="M 29.35148 363.380957 
L 587.35148 363.380957 
" style="fill:none;stroke:#000000;stroke-linecap:square;stroke-linejoin:miter;stroke-width:0.5;"/>
   </g>
   <g id="patch_16">
    <path d="M 29.35148 285.723814 
L 587.35148 285.723814 
" style="fill:none;stroke:#000000;stroke-linecap:square;stroke-linejoin:miter;stroke-width:0.5;"/>
   </g>
   <g id="text_39">
    <!-- RSB = $-10$ dB -->
    <g transform="translate(261.675524 265.388734)scale(0.14 -0.14)">
     <use transform="scale(0.996264)" xlink:href="#CMR17-52"/>
     <use transform="translate(67.791102 0)scale(0.996264)" xlink:href="#CMR17-53"/>
     <use transform="translate(118.686472 0)scale(0.996264)" xlink:href="#CMR17-42"/>
     <use transform="translate(213.951193 0)scale(0.996264)" xlink:href="#CMR17-3d"/>
     <use transform="translate(315.741947 0)scale(0.996264)" xlink:href="#CMSY10-0"/>
     <use transform="translate(393.229415 0)scale(0.996264)" xlink:href="#CMR17-31"/>
     <use transform="translate(438.919892 0)scale(0.996264)" xlink:href="#CMR17-30"/>
     <use transform="translate(514.686336 0)scale(0.996264)" xlink:href="#CMR17-64"/>
     <use transform="translate(565.581705 0)scale(0.996264)" xlink:href="#CMR17-42"/>
    </g>
    <!-- $\sigma\approx2.23$ -->
    <g transform="translate(282.782097 279.723814)scale(0.14 -0.14)">
     <defs>
      <path d="M 1414 2157 
C 1984 2157 2234 1662 2234 1090 
C 2234 320 1824 25 1453 25 
C 1114 25 563 194 390 693 
C 422 680 454 680 486 680 
C 640 680 755 782 755 948 
C 755 1133 614 1216 486 1216 
C 378 1216 211 1165 211 926 
C 211 335 787 -128 1466 -128 
C 2176 -128 2720 430 2720 1085 
C 2720 1707 2208 2157 1600 2227 
C 2086 2328 2554 2756 2554 3329 
C 2554 3820 2048 4179 1472 4179 
C 890 4179 378 3829 378 3329 
C 378 3110 544 3072 627 3072 
C 762 3072 877 3155 877 3321 
C 877 3486 762 3569 627 3569 
C 602 3569 570 3569 544 3557 
C 730 3959 1235 4032 1459 4032 
C 1683 4032 2106 3925 2106 3320 
C 2106 3143 2080 2828 1862 2550 
C 1670 2304 1453 2304 1242 2284 
C 1210 2284 1062 2269 1037 2269 
C 992 2263 966 2257 966 2208 
C 966 2163 973 2157 1101 2157 
L 1414 2157 
z
" id="CMR17-33" transform="scale(0.015625)"/>
     </defs>
     <use transform="scale(0.996264)" xlink:href="#CMMI12-1b"/>
     <use transform="translate(86.694062 0)scale(0.996264)" xlink:href="#CMSY10-19"/>
     <use transform="translate(191.855539 0)scale(0.996264)" xlink:href="#CMR17-32"/>
     <use transform="translate(237.546016 0)scale(0.996264)" xlink:href="#CMMI12-3a"/>
     <use transform="translate(264.643193 0)scale(0.996264)" xlink:href="#CMR17-32"/>
     <use transform="translate(310.33367 0)scale(0.996264)" xlink:href="#CMR17-33"/>
    </g>
   </g>
  </g>
 </g>
 <defs>
  <clipPath id="p237463f7cf">
   <rect height="77.657143" width="558" x="29.35148" y="37.220957"/>
  </clipPath>
  <clipPath id="p0fd4c8f943">
   <rect height="77.657143" width="558" x="29.35148" y="161.472385"/>
  </clipPath>
  <clipPath id="p0e7df034f0">
   <rect height="77.657143" width="558" x="29.35148" y="285.723814"/>
  </clipPath>
 </defs>
</svg>
