<?xml version="1.0" encoding="utf-8" standalone="no"?>
<!DOCTYPE svg PUBLIC "-//W3C//DTD SVG 1.1//EN"
  "http://www.w3.org/Graphics/SVG/1.1/DTD/svg11.dtd">
<svg height="157.14468pt" version="1.1" viewBox="0 0 500.899176 157.14468" width="500.899176pt" xmlns="http://www.w3.org/2000/svg" xmlns:xlink="http://www.w3.org/1999/xlink">
 <metadata>
  <rdf:RDF xmlns:cc="http://creativecommons.org/ns#" xmlns:dc="http://purl.org/dc/elements/1.1/" xmlns:rdf="http://www.w3.org/1999/02/22-rdf-syntax-ns#">
   <cc:Work>
    <dc:type rdf:resource="http://purl.org/dc/dcmitype/StillImage"/>
    <dc:date>2022-02-21T10:21:54.713010</dc:date>
    <dc:format>image/svg+xml</dc:format>
    <dc:creator>
     <cc:Agent>
      <dc:title>Matplotlib v3.4.3, https://matplotlib.org/</dc:title>
     </cc:Agent>
    </dc:creator>
   </cc:Work>
  </rdf:RDF>
 </metadata>
 <defs>
  <style type="text/css">*{stroke-linecap:butt;stroke-linejoin:round;}</style>
 </defs>
 <g id="figure_1">
  <g id="patch_1">
   <path d="M 0 157.14468 
L 500.899176 157.14468 
L 500.899176 0 
L 0 0 
z
" style="fill:none;"/>
  </g>
  <g id="axes_1">
   <g id="patch_2">
    <path d="M 47.299176 115.92 
L 493.699176 115.92 
L 493.699176 7.2 
L 47.299176 7.2 
z
" style="fill:none;"/>
   </g>
   <g id="matplotlib.axis_1">
    <g id="xtick_1">
     <g id="line2d_1">
      <path clip-path="url(#pfa5e6726d1)" d="M 67.590085 115.92 
L 67.590085 7.2 
" style="fill:none;stroke:#b0b0b0;stroke-linecap:square;stroke-width:0.8;"/>
     </g>
     <g id="line2d_2">
      <defs>
       <path d="M 0 0 
L 0 3.5 
" id="ma841b3b66f" style="stroke:#000000;stroke-width:0.8;"/>
      </defs>
      <g>
       <use style="stroke:#000000;stroke-width:0.8;" x="67.590085" xlink:href="#ma841b3b66f" y="115.92"/>
      </g>
     </g>
     <g id="text_1">
      <!-- $\mathdefault{0}$ -->
      <g transform="translate(64.66359 131.22218)scale(0.12 -0.12)">
       <defs>
        <path d="M 2688 2025 
C 2688 2416 2682 3080 2413 3591 
C 2176 4039 1798 4198 1466 4198 
C 1158 4198 768 4058 525 3597 
C 269 3118 243 2524 243 2025 
C 243 1661 250 1106 448 619 
C 723 -39 1216 -128 1466 -128 
C 1760 -128 2208 -7 2470 600 
C 2662 1042 2688 1559 2688 2025 
z
M 1466 -26 
C 1056 -26 813 325 723 812 
C 653 1188 653 1738 653 2096 
C 653 2588 653 2997 736 3387 
C 858 3929 1216 4096 1466 4096 
C 1728 4096 2067 3923 2189 3400 
C 2272 3036 2278 2607 2278 2096 
C 2278 1680 2278 1169 2202 792 
C 2067 95 1690 -26 1466 -26 
z
" id="CMR17-30" transform="scale(0.015625)"/>
       </defs>
       <use transform="scale(0.996264)" xlink:href="#CMR17-30"/>
      </g>
     </g>
    </g>
    <g id="xtick_2">
     <g id="line2d_3">
      <path clip-path="url(#pfa5e6726d1)" d="M 135.339364 115.92 
L 135.339364 7.2 
" style="fill:none;stroke:#b0b0b0;stroke-linecap:square;stroke-width:0.8;"/>
     </g>
     <g id="line2d_4">
      <g>
       <use style="stroke:#000000;stroke-width:0.8;" x="135.339364" xlink:href="#ma841b3b66f" y="115.92"/>
      </g>
     </g>
     <g id="text_2">
      <!-- $\mathdefault{1}$ -->
      <g transform="translate(132.412869 131.22218)scale(0.12 -0.12)">
       <defs>
        <path d="M 1702 4058 
C 1702 4192 1696 4192 1606 4192 
C 1357 3916 979 3827 621 3827 
C 602 3827 570 3827 563 3808 
C 557 3795 557 3782 557 3648 
C 755 3648 1088 3686 1344 3839 
L 1344 461 
C 1344 236 1331 160 781 160 
L 589 160 
L 589 0 
C 896 0 1216 0 1523 0 
C 1830 0 2150 0 2458 0 
L 2458 160 
L 2266 160 
C 1715 160 1702 230 1702 458 
L 1702 4058 
z
" id="CMR17-31" transform="scale(0.015625)"/>
       </defs>
       <use transform="scale(0.996264)" xlink:href="#CMR17-31"/>
      </g>
     </g>
    </g>
    <g id="xtick_3">
     <g id="line2d_5">
      <path clip-path="url(#pfa5e6726d1)" d="M 203.088643 115.92 
L 203.088643 7.2 
" style="fill:none;stroke:#b0b0b0;stroke-linecap:square;stroke-width:0.8;"/>
     </g>
     <g id="line2d_6">
      <g>
       <use style="stroke:#000000;stroke-width:0.8;" x="203.088643" xlink:href="#ma841b3b66f" y="115.92"/>
      </g>
     </g>
     <g id="text_3">
      <!-- $\mathdefault{2}$ -->
      <g transform="translate(200.162148 131.22218)scale(0.12 -0.12)">
       <defs>
        <path d="M 2669 989 
L 2554 989 
C 2490 536 2438 459 2413 420 
C 2381 369 1920 369 1830 369 
L 602 369 
C 832 619 1280 1072 1824 1597 
C 2214 1967 2669 2402 2669 3035 
C 2669 3790 2067 4224 1395 4224 
C 691 4224 262 3604 262 3030 
C 262 2780 448 2748 525 2748 
C 589 2748 781 2787 781 3010 
C 781 3207 614 3264 525 3264 
C 486 3264 448 3258 422 3245 
C 544 3790 915 4058 1306 4058 
C 1862 4058 2227 3617 2227 3035 
C 2227 2479 1901 2000 1536 1584 
L 262 146 
L 262 0 
L 2515 0 
L 2669 989 
z
" id="CMR17-32" transform="scale(0.015625)"/>
       </defs>
       <use transform="scale(0.996264)" xlink:href="#CMR17-32"/>
      </g>
     </g>
    </g>
    <g id="xtick_4">
     <g id="line2d_7">
      <path clip-path="url(#pfa5e6726d1)" d="M 270.837922 115.92 
L 270.837922 7.2 
" style="fill:none;stroke:#b0b0b0;stroke-linecap:square;stroke-width:0.8;"/>
     </g>
     <g id="line2d_8">
      <g>
       <use style="stroke:#000000;stroke-width:0.8;" x="270.837922" xlink:href="#ma841b3b66f" y="115.92"/>
      </g>
     </g>
     <g id="text_4">
      <!-- $\mathdefault{3}$ -->
      <g transform="translate(267.911427 131.22218)scale(0.12 -0.12)">
       <defs>
        <path d="M 1414 2157 
C 1984 2157 2234 1662 2234 1090 
C 2234 320 1824 25 1453 25 
C 1114 25 563 194 390 693 
C 422 680 454 680 486 680 
C 640 680 755 782 755 948 
C 755 1133 614 1216 486 1216 
C 378 1216 211 1165 211 926 
C 211 335 787 -128 1466 -128 
C 2176 -128 2720 430 2720 1085 
C 2720 1707 2208 2157 1600 2227 
C 2086 2328 2554 2756 2554 3329 
C 2554 3820 2048 4179 1472 4179 
C 890 4179 378 3829 378 3329 
C 378 3110 544 3072 627 3072 
C 762 3072 877 3155 877 3321 
C 877 3486 762 3569 627 3569 
C 602 3569 570 3569 544 3557 
C 730 3959 1235 4032 1459 4032 
C 1683 4032 2106 3925 2106 3320 
C 2106 3143 2080 2828 1862 2550 
C 1670 2304 1453 2304 1242 2284 
C 1210 2284 1062 2269 1037 2269 
C 992 2263 966 2257 966 2208 
C 966 2163 973 2157 1101 2157 
L 1414 2157 
z
" id="CMR17-33" transform="scale(0.015625)"/>
       </defs>
       <use transform="scale(0.996264)" xlink:href="#CMR17-33"/>
      </g>
     </g>
    </g>
    <g id="xtick_5">
     <g id="line2d_9">
      <path clip-path="url(#pfa5e6726d1)" d="M 338.587201 115.92 
L 338.587201 7.2 
" style="fill:none;stroke:#b0b0b0;stroke-linecap:square;stroke-width:0.8;"/>
     </g>
     <g id="line2d_10">
      <g>
       <use style="stroke:#000000;stroke-width:0.8;" x="338.587201" xlink:href="#ma841b3b66f" y="115.92"/>
      </g>
     </g>
     <g id="text_5">
      <!-- $\mathdefault{4}$ -->
      <g transform="translate(335.660706 131.22218)scale(0.12 -0.12)">
       <defs>
        <path d="M 2150 4122 
C 2150 4256 2144 4256 2029 4256 
L 128 1254 
L 128 1088 
L 1779 1088 
L 1779 457 
C 1779 224 1766 160 1318 160 
L 1197 160 
L 1197 0 
C 1402 0 1747 0 1965 0 
C 2182 0 2528 0 2733 0 
L 2733 160 
L 2611 160 
C 2163 160 2150 224 2150 457 
L 2150 1088 
L 2803 1088 
L 2803 1254 
L 2150 1254 
L 2150 4122 
z
M 1798 3703 
L 1798 1254 
L 256 1254 
L 1798 3703 
z
" id="CMR17-34" transform="scale(0.015625)"/>
       </defs>
       <use transform="scale(0.996264)" xlink:href="#CMR17-34"/>
      </g>
     </g>
    </g>
    <g id="xtick_6">
     <g id="line2d_11">
      <path clip-path="url(#pfa5e6726d1)" d="M 406.33648 115.92 
L 406.33648 7.2 
" style="fill:none;stroke:#b0b0b0;stroke-linecap:square;stroke-width:0.8;"/>
     </g>
     <g id="line2d_12">
      <g>
       <use style="stroke:#000000;stroke-width:0.8;" x="406.33648" xlink:href="#ma841b3b66f" y="115.92"/>
      </g>
     </g>
     <g id="text_6">
      <!-- $\mathdefault{5}$ -->
      <g transform="translate(403.409985 131.22218)scale(0.12 -0.12)">
       <defs>
        <path d="M 730 3692 
C 794 3666 1056 3584 1325 3584 
C 1920 3584 2246 3911 2432 4100 
C 2432 4157 2432 4192 2394 4192 
C 2387 4192 2374 4192 2323 4163 
C 2099 4058 1837 3973 1517 3973 
C 1325 3973 1037 3999 723 4139 
C 653 4171 640 4171 634 4171 
C 602 4171 595 4164 595 4037 
L 595 2203 
C 595 2089 595 2057 659 2057 
C 691 2057 704 2070 736 2114 
C 941 2401 1222 2522 1542 2522 
C 1766 2522 2246 2382 2246 1289 
C 2246 1085 2246 715 2054 421 
C 1894 159 1645 25 1370 25 
C 947 25 518 320 403 814 
C 429 807 480 795 506 795 
C 589 795 749 840 749 1038 
C 749 1210 627 1280 506 1280 
C 358 1280 262 1190 262 1011 
C 262 454 704 -128 1382 -128 
C 2042 -128 2669 440 2669 1264 
C 2669 2030 2170 2624 1549 2624 
C 1222 2624 947 2503 730 2274 
L 730 3692 
z
" id="CMR17-35" transform="scale(0.015625)"/>
       </defs>
       <use transform="scale(0.996264)" xlink:href="#CMR17-35"/>
      </g>
     </g>
    </g>
    <g id="xtick_7">
     <g id="line2d_13">
      <path clip-path="url(#pfa5e6726d1)" d="M 474.08576 115.92 
L 474.08576 7.2 
" style="fill:none;stroke:#b0b0b0;stroke-linecap:square;stroke-width:0.8;"/>
     </g>
     <g id="line2d_14">
      <g>
       <use style="stroke:#000000;stroke-width:0.8;" x="474.08576" xlink:href="#ma841b3b66f" y="115.92"/>
      </g>
     </g>
     <g id="text_7">
      <!-- $\mathdefault{6}$ -->
      <g transform="translate(471.159264 131.22218)scale(0.12 -0.12)">
       <defs>
        <path d="M 678 2176 
C 678 3690 1395 4032 1811 4032 
C 1946 4032 2272 4009 2400 3776 
C 2298 3776 2106 3776 2106 3553 
C 2106 3381 2246 3323 2336 3323 
C 2394 3323 2566 3348 2566 3560 
C 2566 3954 2246 4179 1805 4179 
C 1043 4179 243 3390 243 1984 
C 243 253 966 -128 1478 -128 
C 2099 -128 2688 427 2688 1283 
C 2688 2081 2170 2662 1517 2662 
C 1126 2662 838 2407 678 1960 
L 678 2176 
z
M 1478 25 
C 691 25 691 1200 691 1436 
C 691 1896 909 2560 1504 2560 
C 1613 2560 1926 2560 2138 2120 
C 2253 1870 2253 1609 2253 1289 
C 2253 944 2253 690 2118 434 
C 1978 171 1773 25 1478 25 
z
" id="CMR17-36" transform="scale(0.015625)"/>
       </defs>
       <use transform="scale(0.996264)" xlink:href="#CMR17-36"/>
      </g>
     </g>
    </g>
    <g id="text_8">
     <!-- $t$ -->
     <g transform="translate(268.033333 147.232652)scale(0.14 -0.14)">
      <defs>
       <path d="M 1286 2566 
L 1875 2566 
C 1997 2566 2061 2566 2061 2681 
C 2061 2752 2022 2752 1894 2752 
L 1331 2752 
L 1568 3692 
C 1594 3781 1594 3794 1594 3840 
C 1594 3943 1510 4000 1427 4000 
C 1376 4000 1229 3981 1178 3775 
L 928 2752 
L 326 2752 
C 198 2752 141 2752 141 2630 
C 141 2566 186 2566 307 2566 
L 877 2566 
L 454 881 
C 403 658 384 594 384 511 
C 384 211 595 -64 954 -64 
C 1600 -64 1946 868 1946 912 
C 1946 951 1920 970 1882 970 
C 1869 970 1843 970 1830 944 
C 1824 938 1818 931 1773 829 
C 1638 511 1344 64 973 64 
C 781 64 768 224 768 364 
C 768 370 768 492 787 568 
L 1286 2566 
z
" id="CMMI12-74" transform="scale(0.015625)"/>
      </defs>
      <use transform="scale(0.996264)" xlink:href="#CMMI12-74"/>
     </g>
    </g>
   </g>
   <g id="matplotlib.axis_2">
    <g id="ytick_1">
     <g id="line2d_15">
      <path clip-path="url(#pfa5e6726d1)" d="M 47.299176 110.978182 
L 493.699176 110.978182 
" style="fill:none;stroke:#b0b0b0;stroke-linecap:square;stroke-width:0.8;"/>
     </g>
     <g id="line2d_16">
      <defs>
       <path d="M 0 0 
L -3.5 0 
" id="m73269b210c" style="stroke:#000000;stroke-width:0.8;"/>
      </defs>
      <g>
       <use style="stroke:#000000;stroke-width:0.8;" x="47.299176" xlink:href="#m73269b210c" y="110.978182"/>
      </g>
     </g>
     <g id="text_9">
      <!-- $\mathdefault{−1}$ -->
      <g transform="translate(25.147696 115.129272)scale(0.12 -0.12)">
       <defs>
        <path d="M 4218 1472 
C 4326 1472 4442 1472 4442 1600 
C 4442 1728 4326 1728 4218 1728 
L 755 1728 
C 646 1728 531 1728 531 1600 
C 531 1472 646 1472 755 1472 
L 4218 1472 
z
" id="CMSY10-0" transform="scale(0.015625)"/>
       </defs>
       <use transform="scale(0.996264)" xlink:href="#CMSY10-0"/>
       <use transform="translate(77.487468 0)scale(0.996264)" xlink:href="#CMR17-31"/>
      </g>
     </g>
    </g>
    <g id="ytick_2">
     <g id="line2d_17">
      <path clip-path="url(#pfa5e6726d1)" d="M 47.299176 61.56 
L 493.699176 61.56 
" style="fill:none;stroke:#b0b0b0;stroke-linecap:square;stroke-width:0.8;"/>
     </g>
     <g id="line2d_18">
      <g>
       <use style="stroke:#000000;stroke-width:0.8;" x="47.299176" xlink:href="#m73269b210c" y="61.56"/>
      </g>
     </g>
     <g id="text_10">
      <!-- $\mathdefault{0}$ -->
      <g transform="translate(34.446186 65.71109)scale(0.12 -0.12)">
       <use transform="scale(0.996264)" xlink:href="#CMR17-30"/>
      </g>
     </g>
    </g>
    <g id="ytick_3">
     <g id="line2d_19">
      <path clip-path="url(#pfa5e6726d1)" d="M 47.299176 12.141818 
L 493.699176 12.141818 
" style="fill:none;stroke:#b0b0b0;stroke-linecap:square;stroke-width:0.8;"/>
     </g>
     <g id="line2d_20">
      <g>
       <use style="stroke:#000000;stroke-width:0.8;" x="47.299176" xlink:href="#m73269b210c" y="12.141818"/>
      </g>
     </g>
     <g id="text_11">
      <!-- $\mathdefault{1}$ -->
      <g transform="translate(34.446186 16.292908)scale(0.12 -0.12)">
       <use transform="scale(0.996264)" xlink:href="#CMR17-31"/>
      </g>
     </g>
    </g>
    <g id="text_12">
     <!-- $x(t)$ -->
     <g transform="translate(17.660772 73.217274)rotate(-90)scale(0.14 -0.14)">
      <defs>
       <path d="M 3034 2606 
C 2829 2567 2752 2414 2752 2293 
C 2752 2139 2874 2088 2963 2088 
C 3155 2088 3290 2254 3290 2427 
C 3290 2695 2982 2816 2714 2816 
C 2323 2816 2106 2433 2048 2312 
C 1901 2816 1504 2816 1389 2816 
C 736 2816 390 1980 390 1839 
C 390 1814 416 1782 461 1782 
C 512 1782 525 1820 538 1846 
C 755 2555 1184 2689 1370 2689 
C 1658 2689 1715 2420 1715 2267 
C 1715 2127 1677 1980 1600 1673 
L 1382 798 
C 1286 415 1101 64 762 64 
C 730 64 570 64 435 147 
C 666 192 717 383 717 460 
C 717 588 621 664 499 664 
C 346 664 179 530 179 326 
C 179 57 480 -64 755 -64 
C 1062 -64 1280 179 1414 441 
C 1517 64 1837 -64 2074 -64 
C 2726 -64 3072 773 3072 913 
C 3072 945 3046 971 3008 971 
C 2950 971 2944 939 2925 888 
C 2752 326 2381 64 2093 64 
C 1869 64 1747 230 1747 492 
C 1747 632 1773 734 1875 1156 
L 2099 2024 
C 2195 2408 2413 2689 2707 2689 
C 2720 2689 2899 2689 3034 2606 
z
" id="CMMI12-78" transform="scale(0.015625)"/>
       <path d="M 1958 -1561 
C 1958 -1555 1958 -1542 1939 -1523 
C 1645 -1224 858 -407 858 1581 
C 858 3569 1632 4379 1946 4697 
C 1946 4704 1958 4717 1958 4736 
C 1958 4755 1939 4768 1914 4768 
C 1843 4768 1299 4296 986 3594 
C 666 2887 576 2199 576 1588 
C 576 1128 621 351 1005 -471 
C 1312 -1135 1837 -1600 1914 -1600 
C 1946 -1600 1958 -1587 1958 -1561 
z
" id="CMR17-28" transform="scale(0.015625)"/>
       <path d="M 1683 1581 
C 1683 2040 1638 2817 1254 3639 
C 947 4303 422 4768 346 4768 
C 326 4768 301 4761 301 4729 
C 301 4717 307 4710 314 4697 
C 621 4378 1402 3568 1402 1584 
C 1402 -407 627 -1217 314 -1537 
C 307 -1549 301 -1556 301 -1568 
C 301 -1600 326 -1600 346 -1600 
C 416 -1600 960 -1128 1274 -426 
C 1594 281 1683 969 1683 1581 
z
" id="CMR17-29" transform="scale(0.015625)"/>
      </defs>
      <use transform="scale(0.996264)" xlink:href="#CMMI12-78"/>
      <use transform="translate(55.43406 0)scale(0.996264)" xlink:href="#CMR17-28"/>
      <use transform="translate(90.714827 0)scale(0.996264)" xlink:href="#CMMI12-74"/>
      <use transform="translate(125.941158 0)scale(0.996264)" xlink:href="#CMR17-29"/>
     </g>
    </g>
   </g>
   <g id="line2d_21">
    <path clip-path="url(#pfa5e6726d1)" d="M 67.590085 12.141818 
L 68.267578 13.01715 
L 68.94507 15.612137 
L 69.622563 19.834849 
L 70.300056 25.535696 
L 71.655042 40.518762 
L 75.719998 93.060335 
L 76.397491 99.637364 
L 77.074984 104.865483 
L 77.752477 108.559484 
L 78.42997 110.588505 
L 79.107462 110.880666 
L 79.784955 109.425619 
L 80.462448 106.274908 
L 81.139941 101.540149 
L 81.817434 95.389073 
L 83.172419 79.752046 
L 86.559883 35.080414 
L 87.914869 21.579851 
L 88.592361 16.845092 
L 89.269854 13.694381 
L 89.947347 12.239334 
L 90.62484 12.531495 
L 91.302333 14.560516 
L 91.979825 18.254517 
L 92.657318 23.482636 
L 93.334811 30.059665 
L 94.689797 46.288942 
L 98.077261 90.607278 
L 98.754753 97.584304 
L 99.432246 103.285151 
L 100.109739 107.507863 
L 100.787232 110.10285 
L 101.464724 110.978182 
L 102.142217 110.10285 
L 102.81971 107.507863 
L 103.497203 103.285151 
L 104.174696 97.584304 
L 105.529681 82.601238 
L 109.594638 30.059665 
L 110.272131 23.482636 
L 110.949624 18.254517 
L 111.627116 14.560516 
L 112.304609 12.531495 
L 112.982102 12.239334 
L 113.659595 13.694381 
L 114.337087 16.845092 
L 115.01458 21.579851 
L 115.692073 27.730927 
L 117.047059 43.367954 
L 120.434523 88.039586 
L 121.789508 101.540149 
L 122.467001 106.274908 
L 123.144494 109.425619 
L 123.821987 110.880666 
L 124.499479 110.588505 
L 125.176972 108.559484 
L 125.854465 104.865483 
L 126.531958 99.637364 
L 127.209451 93.060335 
L 128.564436 76.831058 
L 131.9519 32.512722 
L 132.629393 25.535696 
L 133.306886 19.834849 
L 133.984378 15.612137 
L 134.661871 13.01715 
L 135.339364 61.56 
L 137.371842 35.080414 
L 138.726828 21.579851 
L 139.404321 16.845092 
L 140.081814 13.694381 
L 140.759306 12.239334 
L 141.436799 12.531495 
L 142.114292 14.560516 
L 142.791785 18.254517 
L 143.469278 23.482636 
L 144.14677 30.059665 
L 145.501756 46.288942 
L 148.88922 90.607278 
L 149.566713 97.584304 
L 150.244205 103.285151 
L 150.921698 107.507863 
L 151.599191 110.10285 
L 152.276684 110.978182 
L 152.954177 110.10285 
L 153.631669 107.507863 
L 154.309162 103.285151 
L 154.986655 97.584304 
L 156.341641 82.601238 
L 160.406597 30.059665 
L 161.08409 23.482636 
L 161.761583 18.254517 
L 162.439076 14.560516 
L 163.116568 12.531495 
L 163.794061 12.239334 
L 164.471554 13.694381 
L 165.149047 16.845092 
L 165.82654 21.579851 
L 166.504032 27.730927 
L 167.859018 43.367954 
L 171.246482 88.039586 
L 172.601468 101.540149 
L 173.27896 106.274908 
L 173.956453 109.425619 
L 174.633946 110.880666 
L 175.311439 110.588505 
L 175.988931 108.559484 
L 176.666424 104.865483 
L 177.343917 99.637364 
L 178.02141 93.060335 
L 179.376395 76.831058 
L 182.763859 32.512722 
L 183.441352 25.535696 
L 184.118845 19.834849 
L 184.796338 15.612137 
L 185.473831 13.01715 
L 186.151323 12.141818 
L 186.828816 13.01715 
L 187.506309 15.612137 
L 188.183802 19.834849 
L 188.861295 25.535696 
L 190.21628 40.518762 
L 194.281237 93.060335 
L 194.95873 99.637364 
L 195.636222 104.865483 
L 196.313715 108.559484 
L 196.991208 110.588505 
L 197.668701 110.880666 
L 198.346194 109.425619 
L 199.023686 106.274908 
L 199.701179 101.540149 
L 200.378672 95.389073 
L 201.733658 79.752046 
L 203.088643 61.56 
L 205.121121 88.039586 
L 206.476107 101.540149 
L 207.1536 106.274908 
L 207.831093 109.425619 
L 208.508585 110.880666 
L 209.186078 110.588505 
L 209.863571 108.559484 
L 210.541064 104.865483 
L 211.218557 99.637364 
L 211.896049 93.060335 
L 213.251035 76.831058 
L 216.638499 32.512722 
L 217.315992 25.535696 
L 217.993485 19.834849 
L 218.670977 15.612137 
L 219.34847 13.01715 
L 220.025963 12.141818 
L 220.703456 13.01715 
L 221.380948 15.612137 
L 222.058441 19.834849 
L 222.735934 25.535696 
L 224.09092 40.518762 
L 228.155876 93.060335 
L 228.833369 99.637364 
L 229.510862 104.865483 
L 230.188355 108.559484 
L 230.865848 110.588505 
L 231.54334 110.880666 
L 232.220833 109.425619 
L 232.898326 106.274908 
L 233.575819 101.540149 
L 234.253312 95.389073 
L 235.608297 79.752046 
L 238.995761 35.080414 
L 240.350747 21.579851 
L 241.028239 16.845092 
L 241.705732 13.694381 
L 242.383225 12.239334 
L 243.060718 12.531495 
L 243.738211 14.560516 
L 244.415703 18.254517 
L 245.093196 23.482636 
L 245.770689 30.059665 
L 247.125675 46.288942 
L 250.513138 90.607278 
L 251.190631 97.584304 
L 251.868124 103.285151 
L 252.545617 107.507863 
L 253.22311 110.10285 
L 253.900602 110.978182 
L 254.578095 110.10285 
L 255.255588 107.507863 
L 255.933081 103.285151 
L 256.610574 97.584304 
L 257.965559 82.601238 
L 262.030516 30.059665 
L 262.708009 23.482636 
L 263.385502 18.254517 
L 264.062994 14.560516 
L 264.740487 12.531495 
L 265.41798 12.239334 
L 266.095473 13.694381 
L 266.772965 16.845092 
L 267.450458 21.579851 
L 268.127951 27.730927 
L 269.482937 43.367954 
L 272.870401 88.039586 
L 274.225386 101.540149 
L 274.902879 106.274908 
L 275.580372 109.425619 
L 276.257865 110.880666 
L 276.935357 110.588505 
L 277.61285 108.559484 
L 278.290343 104.865483 
L 278.967836 99.637364 
L 279.645328 93.060335 
L 281.000314 76.831058 
L 284.387778 32.512722 
L 285.065271 25.535696 
L 285.742764 19.834849 
L 286.420256 15.612137 
L 287.097749 13.01715 
L 287.775242 12.141818 
L 288.452735 13.01715 
L 289.130228 15.612137 
L 289.80772 19.834849 
L 290.485213 25.535696 
L 291.840199 40.518762 
L 295.905155 93.060335 
L 296.582648 99.637364 
L 297.260141 104.865483 
L 297.937634 108.559484 
L 298.615127 110.588505 
L 299.292619 110.880666 
L 299.970112 109.425619 
L 300.647605 106.274908 
L 301.325098 101.540149 
L 302.002591 95.389073 
L 303.357576 79.752046 
L 306.74504 35.080414 
L 308.100026 21.579851 
L 308.777519 16.845092 
L 309.455011 13.694381 
L 310.132504 12.239334 
L 310.809997 12.531495 
L 311.48749 14.560516 
L 312.164982 18.254517 
L 312.842475 23.482636 
L 313.519968 30.059665 
L 314.874954 46.288942 
L 318.262418 90.607278 
L 318.93991 97.584304 
L 319.617403 103.285151 
L 320.294896 107.507863 
L 320.972389 110.10285 
L 321.649882 110.978182 
L 322.327374 110.10285 
L 323.004867 107.507863 
L 323.68236 103.285151 
L 324.359853 97.584304 
L 325.714838 82.601238 
L 329.779795 30.059665 
L 330.457288 23.482636 
L 331.134781 18.254517 
L 331.812273 14.560516 
L 332.489766 12.531495 
L 333.167259 12.239334 
L 333.844752 13.694381 
L 334.522245 16.845092 
L 335.199737 21.579851 
L 335.87723 27.730927 
L 337.232216 43.367954 
L 337.909709 52.299956 
L 338.587201 12.141818 
L 339.264694 13.01715 
L 339.942187 15.612137 
L 340.61968 19.834849 
L 341.297172 25.535696 
L 342.652158 40.518762 
L 346.717115 93.060335 
L 347.394608 99.637364 
L 348.0721 104.865483 
L 348.749593 108.559484 
L 349.427086 110.588505 
L 350.104579 110.880666 
L 350.782072 109.425619 
L 351.459564 106.274908 
L 352.137057 101.540149 
L 352.81455 95.389073 
L 354.169536 79.752046 
L 357.556999 35.080414 
L 358.911985 21.579851 
L 359.589478 16.845092 
L 360.266971 13.694381 
L 360.944463 12.239334 
L 361.621956 12.531495 
L 362.299449 14.560516 
L 362.976942 18.254517 
L 363.654435 23.482636 
L 364.331927 30.059665 
L 365.686913 46.288942 
L 369.074377 90.607278 
L 369.75187 97.584304 
L 370.429362 103.285151 
L 371.106855 107.507863 
L 371.784348 110.10285 
L 372.461841 110.978182 
L 373.139334 110.10285 
L 373.816826 107.507863 
L 374.494319 103.285151 
L 375.171812 97.584304 
L 376.526798 82.601238 
L 380.591754 30.059665 
L 381.269247 23.482636 
L 381.94674 18.254517 
L 382.624233 14.560516 
L 383.301726 12.531495 
L 383.979218 12.239334 
L 384.656711 13.694381 
L 385.334204 16.845092 
L 386.011697 21.579851 
L 386.689189 27.730927 
L 388.044175 43.367954 
L 391.431639 88.039586 
L 392.786625 101.540149 
L 393.464117 106.274908 
L 394.14161 109.425619 
L 394.819103 110.880666 
L 395.496596 110.588505 
L 396.174089 108.559484 
L 396.851581 104.865483 
L 397.529074 99.637364 
L 398.206567 93.060335 
L 399.561553 76.831058 
L 402.949016 32.512722 
L 403.626509 25.535696 
L 404.304002 19.834849 
L 404.981495 15.612137 
L 405.658988 13.01715 
L 406.33648 110.978182 
L 407.013973 110.10285 
L 407.691466 107.507863 
L 408.368959 103.285151 
L 409.046452 97.584304 
L 410.401437 82.601238 
L 414.466394 30.059665 
L 415.143887 23.482636 
L 415.821379 18.254517 
L 416.498872 14.560516 
L 417.176365 12.531495 
L 417.853858 12.239334 
L 418.531351 13.694381 
L 419.208843 16.845092 
L 419.886336 21.579851 
L 420.563829 27.730927 
L 421.918815 43.367954 
L 425.306279 88.039586 
L 426.661264 101.540149 
L 427.338757 106.274908 
L 428.01625 109.425619 
L 428.693743 110.880666 
L 429.371235 110.588505 
L 430.048728 108.559484 
L 430.726221 104.865483 
L 431.403714 99.637364 
L 432.081206 93.060335 
L 433.436192 76.831058 
L 436.823656 32.512722 
L 437.501149 25.535696 
L 438.178642 19.834849 
L 438.856134 15.612137 
L 439.533627 13.01715 
L 440.21112 12.141818 
L 440.888613 13.01715 
L 441.566106 15.612137 
L 442.243598 19.834849 
L 442.921091 25.535696 
L 444.276077 40.518762 
L 448.341033 93.060335 
L 449.018526 99.637364 
L 449.696019 104.865483 
L 450.373512 108.559484 
L 451.051005 110.588505 
L 451.728497 110.880666 
L 452.40599 109.425619 
L 453.083483 106.274908 
L 453.760976 101.540149 
L 454.438469 95.389073 
L 455.793454 79.752046 
L 459.180918 35.080414 
L 460.535904 21.579851 
L 461.213396 16.845092 
L 461.890889 13.694381 
L 462.568382 12.239334 
L 463.245875 12.531495 
L 463.923368 14.560516 
L 464.60086 18.254517 
L 465.278353 23.482636 
L 465.955846 30.059665 
L 467.310832 46.288942 
L 470.698296 90.607278 
L 471.375788 97.584304 
L 472.053281 103.285151 
L 472.730774 107.507863 
L 473.408267 110.10285 
L 473.408267 110.10285 
" style="fill:none;stroke:#1f77b4;stroke-linecap:square;stroke-width:1.5;"/>
   </g>
   <g id="patch_3">
    <path d="M 47.299176 115.92 
L 47.299176 7.2 
" style="fill:none;stroke:#000000;stroke-linecap:square;stroke-linejoin:miter;stroke-width:0.8;"/>
   </g>
   <g id="patch_4">
    <path d="M 493.699176 115.92 
L 493.699176 7.2 
" style="fill:none;stroke:#000000;stroke-linecap:square;stroke-linejoin:miter;stroke-width:0.8;"/>
   </g>
   <g id="patch_5">
    <path d="M 47.299176 115.92 
L 493.699176 115.92 
" style="fill:none;stroke:#000000;stroke-linecap:square;stroke-linejoin:miter;stroke-width:0.8;"/>
   </g>
   <g id="patch_6">
    <path d="M 47.299176 7.2 
L 493.699176 7.2 
" style="fill:none;stroke:#000000;stroke-linecap:square;stroke-linejoin:miter;stroke-width:0.8;"/>
   </g>
  </g>
 </g>
 <defs>
  <clipPath id="pfa5e6726d1">
   <rect height="108.72" width="446.4" x="47.299176" y="7.2"/>
  </clipPath>
 </defs>
</svg>
