<?xml version="1.0" encoding="utf-8" standalone="no"?>
<!DOCTYPE svg PUBLIC "-//W3C//DTD SVG 1.1//EN"
  "http://www.w3.org/Graphics/SVG/1.1/DTD/svg11.dtd">
<svg height="358.186776pt" version="1.1" viewBox="0 0 606.582626 358.186776" width="606.582626pt" xmlns="http://www.w3.org/2000/svg" xmlns:xlink="http://www.w3.org/1999/xlink">
 <metadata>
  <rdf:RDF xmlns:cc="http://creativecommons.org/ns#" xmlns:dc="http://purl.org/dc/elements/1.1/" xmlns:rdf="http://www.w3.org/1999/02/22-rdf-syntax-ns#">
   <cc:Work>
    <dc:type rdf:resource="http://purl.org/dc/dcmitype/StillImage"/>
    <dc:date>2023-08-17T10:06:36.467073</dc:date>
    <dc:format>image/svg+xml</dc:format>
    <dc:creator>
     <cc:Agent>
      <dc:title>Matplotlib v3.4.3, https://matplotlib.org/</dc:title>
     </cc:Agent>
    </dc:creator>
   </cc:Work>
  </rdf:RDF>
 </metadata>
 <defs>
  <style type="text/css">*{stroke-linecap:butt;stroke-linejoin:round;}</style>
 </defs>
 <g id="figure_1">
  <g id="patch_1">
   <path d="M 0 358.186776 
L 606.582626 358.186776 
L 606.582626 0 
L 0 0 
z
" style="fill:none;"/>
  </g>
  <g id="axes_1">
   <g id="patch_2">
    <path d="M 38.456131 155.454545 
L 292.092495 155.454545 
L 292.092495 7.2 
L 38.456131 7.2 
z
" style="fill:#ffffff;"/>
   </g>
   <g id="matplotlib.axis_1">
    <g id="xtick_1">
     <g id="line2d_1">
      <path clip-path="url(#p9c8dafd9f9)" d="M 38.456131 155.454545 
L 38.456131 7.2 
" style="fill:none;stroke:#b0b0b0;stroke-linecap:square;stroke-width:0.8;"/>
     </g>
     <g id="line2d_2">
      <defs>
       <path d="M 0 0 
L 0 3.5 
" id="m3fa6693da6" style="stroke:#000000;stroke-width:0.8;"/>
      </defs>
      <g>
       <use style="stroke:#000000;stroke-width:0.8;" x="38.456131" xlink:href="#m3fa6693da6" y="155.454545"/>
      </g>
     </g>
     <g id="text_1">
      <!-- $\mathdefault{−3}$ -->
      <g transform="translate(30.880391 170.756725)scale(0.12 -0.12)">
       <defs>
        <path d="M 4218 1472 
C 4326 1472 4442 1472 4442 1600 
C 4442 1728 4326 1728 4218 1728 
L 755 1728 
C 646 1728 531 1728 531 1600 
C 531 1472 646 1472 755 1472 
L 4218 1472 
z
" id="CMSY10-0" transform="scale(0.015625)"/>
        <path d="M 1414 2176 
C 1984 2176 2234 1673 2234 1094 
C 2234 322 1824 25 1453 25 
C 1114 25 563 193 390 691 
C 422 678 454 678 486 678 
C 640 678 755 780 755 947 
C 755 1132 614 1216 486 1216 
C 378 1216 211 1164 211 927 
C 211 335 787 -128 1466 -128 
C 2176 -128 2720 432 2720 1087 
C 2720 1718 2208 2176 1600 2246 
C 2086 2347 2554 2776 2554 3353 
C 2554 3856 2048 4224 1472 4224 
C 890 4224 378 3862 378 3347 
C 378 3123 544 3084 627 3084 
C 762 3084 877 3167 877 3334 
C 877 3500 762 3584 627 3584 
C 602 3584 570 3584 544 3571 
C 730 3999 1235 4076 1459 4076 
C 1683 4076 2106 3966 2106 3347 
C 2106 3167 2080 2851 1862 2574 
C 1670 2329 1453 2316 1242 2297 
C 1210 2297 1062 2284 1037 2284 
C 992 2278 966 2272 966 2227 
C 966 2182 973 2176 1101 2176 
L 1414 2176 
z
" id="CMR17-33" transform="scale(0.015625)"/>
       </defs>
       <use transform="scale(0.996264)" xlink:href="#CMSY10-0"/>
       <use transform="translate(77.487468 0)scale(0.996264)" xlink:href="#CMR17-33"/>
      </g>
     </g>
    </g>
    <g id="xtick_2">
     <g id="line2d_3">
      <path clip-path="url(#p9c8dafd9f9)" d="M 80.728858 155.454545 
L 80.728858 7.2 
" style="fill:none;stroke:#b0b0b0;stroke-linecap:square;stroke-width:0.8;"/>
     </g>
     <g id="line2d_4">
      <g>
       <use style="stroke:#000000;stroke-width:0.8;" x="80.728858" xlink:href="#m3fa6693da6" y="155.454545"/>
      </g>
     </g>
     <g id="text_2">
      <!-- $\mathdefault{−2}$ -->
      <g transform="translate(73.153119 170.756725)scale(0.12 -0.12)">
       <defs>
        <path d="M 2669 990 
L 2554 990 
C 2490 537 2438 460 2413 422 
C 2381 371 1920 371 1830 371 
L 602 371 
C 832 620 1280 1073 1824 1596 
C 2214 1966 2669 2400 2669 3033 
C 2669 3788 2067 4224 1395 4224 
C 691 4224 262 3603 262 3027 
C 262 2777 448 2745 525 2745 
C 589 2745 781 2783 781 3007 
C 781 3206 614 3264 525 3264 
C 486 3264 448 3257 422 3244 
C 544 3788 915 4057 1306 4057 
C 1862 4057 2227 3616 2227 3033 
C 2227 2477 1901 1998 1536 1583 
L 262 147 
L 262 0 
L 2515 0 
L 2669 990 
z
" id="CMR17-32" transform="scale(0.015625)"/>
       </defs>
       <use transform="scale(0.996264)" xlink:href="#CMSY10-0"/>
       <use transform="translate(77.487468 0)scale(0.996264)" xlink:href="#CMR17-32"/>
      </g>
     </g>
    </g>
    <g id="xtick_3">
     <g id="line2d_5">
      <path clip-path="url(#p9c8dafd9f9)" d="M 123.001586 155.454545 
L 123.001586 7.2 
" style="fill:none;stroke:#b0b0b0;stroke-linecap:square;stroke-width:0.8;"/>
     </g>
     <g id="line2d_6">
      <g>
       <use style="stroke:#000000;stroke-width:0.8;" x="123.001586" xlink:href="#m3fa6693da6" y="155.454545"/>
      </g>
     </g>
     <g id="text_3">
      <!-- $\mathdefault{−1}$ -->
      <g transform="translate(115.425846 170.756725)scale(0.12 -0.12)">
       <defs>
        <path d="M 1702 4083 
C 1702 4217 1696 4224 1606 4224 
C 1357 3927 979 3833 621 3820 
C 602 3820 570 3820 563 3808 
C 557 3795 557 3782 557 3648 
C 755 3648 1088 3686 1344 3839 
L 1344 467 
C 1344 243 1331 166 781 166 
L 589 166 
L 589 0 
C 896 6 1216 12 1523 12 
C 1830 12 2150 6 2458 0 
L 2458 166 
L 2266 166 
C 1715 166 1702 236 1702 467 
L 1702 4083 
z
" id="CMR17-31" transform="scale(0.015625)"/>
       </defs>
       <use transform="scale(0.996264)" xlink:href="#CMSY10-0"/>
       <use transform="translate(77.487468 0)scale(0.996264)" xlink:href="#CMR17-31"/>
      </g>
     </g>
    </g>
    <g id="xtick_4">
     <g id="line2d_7">
      <path clip-path="url(#p9c8dafd9f9)" d="M 165.274313 155.454545 
L 165.274313 7.2 
" style="fill:none;stroke:#b0b0b0;stroke-linecap:square;stroke-width:0.8;"/>
     </g>
     <g id="line2d_8">
      <g>
       <use style="stroke:#000000;stroke-width:0.8;" x="165.274313" xlink:href="#m3fa6693da6" y="155.454545"/>
      </g>
     </g>
     <g id="text_4">
      <!-- $\mathdefault{0}$ -->
      <g transform="translate(162.347818 170.756725)scale(0.12 -0.12)">
       <defs>
        <path d="M 2688 2038 
C 2688 2430 2682 3099 2413 3613 
C 2176 4063 1798 4224 1466 4224 
C 1158 4224 768 4082 525 3620 
C 269 3137 243 2539 243 2038 
C 243 1671 250 1112 448 623 
C 723 -39 1216 -128 1466 -128 
C 1760 -128 2208 -7 2470 604 
C 2662 1048 2688 1568 2688 2038 
z
M 1466 -26 
C 1056 -26 813 328 723 816 
C 653 1196 653 1749 653 2109 
C 653 2604 653 3015 736 3407 
C 858 3954 1216 4121 1466 4121 
C 1728 4121 2067 3947 2189 3420 
C 2272 3054 2278 2623 2278 2109 
C 2278 1691 2278 1176 2202 797 
C 2067 96 1690 -26 1466 -26 
z
" id="CMR17-30" transform="scale(0.015625)"/>
       </defs>
       <use transform="scale(0.996264)" xlink:href="#CMR17-30"/>
      </g>
     </g>
    </g>
    <g id="xtick_5">
     <g id="line2d_9">
      <path clip-path="url(#p9c8dafd9f9)" d="M 207.54704 155.454545 
L 207.54704 7.2 
" style="fill:none;stroke:#b0b0b0;stroke-linecap:square;stroke-width:0.8;"/>
     </g>
     <g id="line2d_10">
      <g>
       <use style="stroke:#000000;stroke-width:0.8;" x="207.54704" xlink:href="#m3fa6693da6" y="155.454545"/>
      </g>
     </g>
     <g id="text_5">
      <!-- $\mathdefault{1}$ -->
      <g transform="translate(204.620545 170.756725)scale(0.12 -0.12)">
       <use transform="scale(0.996264)" xlink:href="#CMR17-31"/>
      </g>
     </g>
    </g>
    <g id="xtick_6">
     <g id="line2d_11">
      <path clip-path="url(#p9c8dafd9f9)" d="M 249.819768 155.454545 
L 249.819768 7.2 
" style="fill:none;stroke:#b0b0b0;stroke-linecap:square;stroke-width:0.8;"/>
     </g>
     <g id="line2d_12">
      <g>
       <use style="stroke:#000000;stroke-width:0.8;" x="249.819768" xlink:href="#m3fa6693da6" y="155.454545"/>
      </g>
     </g>
     <g id="text_6">
      <!-- $\mathdefault{2}$ -->
      <g transform="translate(246.893272 170.756725)scale(0.12 -0.12)">
       <use transform="scale(0.996264)" xlink:href="#CMR17-32"/>
      </g>
     </g>
    </g>
    <g id="xtick_7">
     <g id="line2d_13">
      <path clip-path="url(#p9c8dafd9f9)" d="M 292.092495 155.454545 
L 292.092495 7.2 
" style="fill:none;stroke:#b0b0b0;stroke-linecap:square;stroke-width:0.8;"/>
     </g>
     <g id="line2d_14">
      <g>
       <use style="stroke:#000000;stroke-width:0.8;" x="292.092495" xlink:href="#m3fa6693da6" y="155.454545"/>
      </g>
     </g>
     <g id="text_7">
      <!-- $\mathdefault{3}$ -->
      <g transform="translate(289.166 170.756725)scale(0.12 -0.12)">
       <use transform="scale(0.996264)" xlink:href="#CMR17-33"/>
      </g>
     </g>
    </g>
   </g>
   <g id="matplotlib.axis_2">
    <g id="ytick_1">
     <g id="line2d_15">
      <path clip-path="url(#p9c8dafd9f9)" d="M 38.456131 155.454545 
L 292.092495 155.454545 
" style="fill:none;stroke:#b0b0b0;stroke-linecap:square;stroke-width:0.8;"/>
     </g>
     <g id="line2d_16">
      <defs>
       <path d="M 0 0 
L -3.5 0 
" id="mcdd20ffad6" style="stroke:#000000;stroke-width:0.8;"/>
      </defs>
      <g>
       <use style="stroke:#000000;stroke-width:0.8;" x="38.456131" xlink:href="#mcdd20ffad6" y="155.454545"/>
      </g>
     </g>
     <g id="text_8">
      <!-- $\mathdefault{−0.5}$ -->
      <g transform="translate(7.2 159.605635)scale(0.12 -0.12)">
       <defs>
        <path d="M 1178 307 
C 1178 492 1024 620 870 620 
C 685 620 557 467 557 313 
C 557 128 710 0 864 0 
C 1050 0 1178 153 1178 307 
z
" id="CMMI12-3a" transform="scale(0.015625)"/>
        <path d="M 730 3750 
C 794 3724 1056 3641 1325 3641 
C 1920 3641 2246 3961 2432 4140 
C 2432 4191 2432 4224 2394 4224 
C 2387 4224 2374 4224 2323 4198 
C 2099 4102 1837 4032 1517 4032 
C 1325 4032 1037 4055 723 4191 
C 653 4224 640 4224 634 4224 
C 602 4224 595 4217 595 4090 
L 595 2231 
C 595 2113 595 2080 659 2080 
C 691 2080 704 2093 736 2139 
C 941 2435 1222 2560 1542 2560 
C 1766 2560 2246 2415 2246 1293 
C 2246 1087 2246 716 2054 422 
C 1894 159 1645 25 1370 25 
C 947 25 518 319 403 812 
C 429 806 480 793 506 793 
C 589 793 749 838 749 1036 
C 749 1209 627 1280 506 1280 
C 358 1280 262 1190 262 1011 
C 262 454 704 -128 1382 -128 
C 2042 -128 2669 441 2669 1267 
C 2669 2054 2170 2662 1549 2662 
C 1222 2662 947 2540 730 2304 
L 730 3750 
z
" id="CMR17-35" transform="scale(0.015625)"/>
       </defs>
       <use transform="scale(0.996264)" xlink:href="#CMSY10-0"/>
       <use transform="translate(77.487468 0)scale(0.996264)" xlink:href="#CMR17-30"/>
       <use transform="translate(123.177945 0)scale(0.996264)" xlink:href="#CMMI12-3a"/>
       <use transform="translate(150.275122 0)scale(0.996264)" xlink:href="#CMR17-35"/>
      </g>
     </g>
    </g>
    <g id="ytick_2">
     <g id="line2d_17">
      <path clip-path="url(#p9c8dafd9f9)" d="M 38.456131 114.272727 
L 292.092495 114.272727 
" style="fill:none;stroke:#b0b0b0;stroke-linecap:square;stroke-width:0.8;"/>
     </g>
     <g id="line2d_18">
      <g>
       <use style="stroke:#000000;stroke-width:0.8;" x="38.456131" xlink:href="#mcdd20ffad6" y="114.272727"/>
      </g>
     </g>
     <g id="text_9">
      <!-- $\mathdefault{0.0}$ -->
      <g transform="translate(16.498489 118.423817)scale(0.12 -0.12)">
       <use transform="scale(0.996264)" xlink:href="#CMR17-30"/>
       <use transform="translate(45.690477 0)scale(0.996264)" xlink:href="#CMMI12-3a"/>
       <use transform="translate(72.787654 0)scale(0.996264)" xlink:href="#CMR17-30"/>
      </g>
     </g>
    </g>
    <g id="ytick_3">
     <g id="line2d_19">
      <path clip-path="url(#p9c8dafd9f9)" d="M 38.456131 73.090909 
L 292.092495 73.090909 
" style="fill:none;stroke:#b0b0b0;stroke-linecap:square;stroke-width:0.8;"/>
     </g>
     <g id="line2d_20">
      <g>
       <use style="stroke:#000000;stroke-width:0.8;" x="38.456131" xlink:href="#mcdd20ffad6" y="73.090909"/>
      </g>
     </g>
     <g id="text_10">
      <!-- $\mathdefault{0.5}$ -->
      <g transform="translate(16.498489 77.241999)scale(0.12 -0.12)">
       <use transform="scale(0.996264)" xlink:href="#CMR17-30"/>
       <use transform="translate(45.690477 0)scale(0.996264)" xlink:href="#CMMI12-3a"/>
       <use transform="translate(72.787654 0)scale(0.996264)" xlink:href="#CMR17-35"/>
      </g>
     </g>
    </g>
    <g id="ytick_4">
     <g id="line2d_21">
      <path clip-path="url(#p9c8dafd9f9)" d="M 38.456131 31.909091 
L 292.092495 31.909091 
" style="fill:none;stroke:#b0b0b0;stroke-linecap:square;stroke-width:0.8;"/>
     </g>
     <g id="line2d_22">
      <g>
       <use style="stroke:#000000;stroke-width:0.8;" x="38.456131" xlink:href="#mcdd20ffad6" y="31.909091"/>
      </g>
     </g>
     <g id="text_11">
      <!-- $\mathdefault{1.0}$ -->
      <g transform="translate(16.498489 36.060181)scale(0.12 -0.12)">
       <use transform="scale(0.996264)" xlink:href="#CMR17-31"/>
       <use transform="translate(45.690477 0)scale(0.996264)" xlink:href="#CMMI12-3a"/>
       <use transform="translate(72.787654 0)scale(0.996264)" xlink:href="#CMR17-30"/>
      </g>
     </g>
    </g>
   </g>
   <g id="line2d_23">
    <path clip-path="url(#p9c8dafd9f9)" d="M 38.456131 114.272727 
L 40.569768 112.882467 
L 42.683404 111.47909 
L 44.79704 110.096467 
L 46.910677 108.769134 
L 49.024313 107.531516 
L 51.137949 106.417124 
L 53.251586 105.457761 
L 55.365222 104.682727 
L 57.478858 104.118067 
L 59.592495 103.785863 
L 61.706131 103.703591 
L 63.819768 103.88356 
L 65.933404 104.332446 
L 68.04704 105.050933 
L 70.160677 106.033469 
L 72.274313 107.268155 
L 74.387949 108.736755 
L 76.501586 110.414847 
L 78.615222 112.272109 
L 80.728858 114.272727 
L 82.842495 116.375941 
L 84.956131 118.5367 
L 87.069768 120.706425 
L 89.183404 122.833872 
L 91.29704 124.86606 
L 93.410677 126.749273 
L 95.524313 128.430097 
L 97.637949 129.856478 
L 99.751586 130.978781 
L 101.865222 131.750834 
L 103.978858 132.130922 
L 106.092495 132.082728 
L 108.206131 131.576179 
L 110.319768 130.58821 
L 112.433404 129.103392 
L 114.54704 127.114444 
L 116.660677 124.622589 
L 118.774313 121.637771 
L 120.887949 118.178696 
L 123.001586 114.272727 
L 125.115222 109.955604 
L 127.228858 105.271007 
L 129.342495 100.269973 
L 131.456131 95.010152 
L 133.569768 89.554952 
L 135.683404 83.972545 
L 137.79704 78.334788 
L 139.910677 72.71606 
L 142.024313 67.192031 
L 144.137949 61.838408 
L 146.251586 56.729654 
L 148.365222 51.937726 
L 150.478858 47.530841 
L 152.592495 43.572301 
L 154.706131 40.119402 
L 156.819768 37.222428 
L 158.933404 34.923784 
L 161.04704 33.257248 
L 163.160677 32.24738 
L 165.274313 31.909091 
L 167.387949 32.24738 
L 169.501586 33.257248 
L 171.615222 34.923784 
L 173.728858 37.222428 
L 175.842495 40.119402 
L 177.956131 43.572301 
L 180.069768 47.530841 
L 182.183404 51.937726 
L 184.29704 56.729654 
L 186.410677 61.838408 
L 188.524313 67.192031 
L 190.637949 72.71606 
L 192.751586 78.334788 
L 194.865222 83.972545 
L 196.978858 89.554952 
L 199.092495 95.010152 
L 201.206131 100.269973 
L 203.319768 105.271007 
L 205.433404 109.955604 
L 207.54704 114.272727 
L 209.660677 118.178696 
L 211.774313 121.637771 
L 213.887949 124.622589 
L 216.001586 127.114444 
L 218.115222 129.103392 
L 220.228858 130.58821 
L 222.342495 131.576179 
L 224.456131 132.082728 
L 226.569768 132.130922 
L 228.683404 131.750834 
L 230.79704 130.978781 
L 232.910677 129.856478 
L 235.024313 128.430097 
L 237.137949 126.749273 
L 239.251586 124.86606 
L 241.365222 122.833872 
L 243.478858 120.706425 
L 245.592495 118.5367 
L 247.706131 116.375941 
L 249.819768 114.272727 
L 251.933404 112.272109 
L 254.04704 110.414847 
L 256.160677 108.736755 
L 258.274313 107.268155 
L 260.387949 106.033469 
L 262.501586 105.050933 
L 264.615222 104.332446 
L 266.728858 103.88356 
L 268.842495 103.703591 
L 270.956131 103.785863 
L 273.069768 104.118067 
L 275.183404 104.682727 
L 277.29704 105.457761 
L 279.410677 106.417124 
L 281.524313 107.531516 
L 283.637949 108.769134 
L 285.751586 110.096467 
L 287.865222 111.47909 
L 289.978858 112.882467 
" style="fill:none;stroke:#1f77b4;stroke-linecap:square;stroke-width:1.5;"/>
   </g>
   <g id="patch_3">
    <path d="M 38.456131 155.454545 
L 38.456131 7.2 
" style="fill:none;stroke:#000000;stroke-linecap:square;stroke-linejoin:miter;stroke-width:0.8;"/>
   </g>
   <g id="patch_4">
    <path d="M 292.092495 155.454545 
L 292.092495 7.2 
" style="fill:none;stroke:#000000;stroke-linecap:square;stroke-linejoin:miter;stroke-width:0.8;"/>
   </g>
   <g id="patch_5">
    <path d="M 38.456131 155.454545 
L 292.092495 155.454545 
" style="fill:none;stroke:#000000;stroke-linecap:square;stroke-linejoin:miter;stroke-width:0.8;"/>
   </g>
   <g id="patch_6">
    <path d="M 38.456131 7.2 
L 292.092495 7.2 
" style="fill:none;stroke:#000000;stroke-linecap:square;stroke-linejoin:miter;stroke-width:0.8;"/>
   </g>
   <g id="text_12">
    <!-- A -->
    <g transform="translate(46.910677 25.12224)scale(0.14 -0.14)">
     <defs>
      <path d="M 2323 4441 
C 2291 4524 2278 4544 2214 4544 
C 2150 4544 2138 4524 2106 4441 
L 749 580 
C 627 236 371 166 147 166 
L 147 0 
C 262 12 518 12 640 12 
C 800 12 1056 12 1210 0 
L 1210 166 
C 909 179 864 382 864 459 
C 864 516 877 548 890 586 
L 1229 1536 
L 2906 1536 
L 3290 453 
C 3322 376 3322 363 3322 338 
C 3322 166 3046 166 2925 166 
L 2925 0 
C 3110 12 3443 12 3642 12 
C 3808 12 4128 12 4282 0 
L 4282 166 
C 3942 166 3827 166 3744 402 
L 2323 4441 
z
M 2067 3924 
L 2848 1702 
L 1286 1702 
L 2067 3924 
z
" id="CMR17-41" transform="scale(0.015625)"/>
     </defs>
     <use transform="scale(0.996264)" xlink:href="#CMR17-41"/>
    </g>
   </g>
  </g>
  <g id="axes_2">
   <g id="patch_7">
    <path d="M 342.819768 155.454545 
L 596.456131 155.454545 
L 596.456131 7.2 
L 342.819768 7.2 
z
" style="fill:#ffffff;"/>
   </g>
   <g id="matplotlib.axis_3">
    <g id="xtick_8">
     <g id="line2d_24">
      <path clip-path="url(#p92388aa17e)" d="M 342.819768 155.454545 
L 342.819768 7.2 
" style="fill:none;stroke:#b0b0b0;stroke-linecap:square;stroke-width:0.8;"/>
     </g>
     <g id="line2d_25">
      <g>
       <use style="stroke:#000000;stroke-width:0.8;" x="342.819768" xlink:href="#m3fa6693da6" y="155.454545"/>
      </g>
     </g>
     <g id="text_13">
      <!-- $\mathdefault{−3}$ -->
      <g transform="translate(335.244028 170.756725)scale(0.12 -0.12)">
       <use transform="scale(0.996264)" xlink:href="#CMSY10-0"/>
       <use transform="translate(77.487468 0)scale(0.996264)" xlink:href="#CMR17-33"/>
      </g>
     </g>
    </g>
    <g id="xtick_9">
     <g id="line2d_26">
      <path clip-path="url(#p92388aa17e)" d="M 385.092495 155.454545 
L 385.092495 7.2 
" style="fill:none;stroke:#b0b0b0;stroke-linecap:square;stroke-width:0.8;"/>
     </g>
     <g id="line2d_27">
      <g>
       <use style="stroke:#000000;stroke-width:0.8;" x="385.092495" xlink:href="#m3fa6693da6" y="155.454545"/>
      </g>
     </g>
     <g id="text_14">
      <!-- $\mathdefault{−2}$ -->
      <g transform="translate(377.516755 170.756725)scale(0.12 -0.12)">
       <use transform="scale(0.996264)" xlink:href="#CMSY10-0"/>
       <use transform="translate(77.487468 0)scale(0.996264)" xlink:href="#CMR17-32"/>
      </g>
     </g>
    </g>
    <g id="xtick_10">
     <g id="line2d_28">
      <path clip-path="url(#p92388aa17e)" d="M 427.365222 155.454545 
L 427.365222 7.2 
" style="fill:none;stroke:#b0b0b0;stroke-linecap:square;stroke-width:0.8;"/>
     </g>
     <g id="line2d_29">
      <g>
       <use style="stroke:#000000;stroke-width:0.8;" x="427.365222" xlink:href="#m3fa6693da6" y="155.454545"/>
      </g>
     </g>
     <g id="text_15">
      <!-- $\mathdefault{−1}$ -->
      <g transform="translate(419.789482 170.756725)scale(0.12 -0.12)">
       <use transform="scale(0.996264)" xlink:href="#CMSY10-0"/>
       <use transform="translate(77.487468 0)scale(0.996264)" xlink:href="#CMR17-31"/>
      </g>
     </g>
    </g>
    <g id="xtick_11">
     <g id="line2d_30">
      <path clip-path="url(#p92388aa17e)" d="M 469.637949 155.454545 
L 469.637949 7.2 
" style="fill:none;stroke:#b0b0b0;stroke-linecap:square;stroke-width:0.8;"/>
     </g>
     <g id="line2d_31">
      <g>
       <use style="stroke:#000000;stroke-width:0.8;" x="469.637949" xlink:href="#m3fa6693da6" y="155.454545"/>
      </g>
     </g>
     <g id="text_16">
      <!-- $\mathdefault{0}$ -->
      <g transform="translate(466.711454 170.756725)scale(0.12 -0.12)">
       <use transform="scale(0.996264)" xlink:href="#CMR17-30"/>
      </g>
     </g>
    </g>
    <g id="xtick_12">
     <g id="line2d_32">
      <path clip-path="url(#p92388aa17e)" d="M 511.910677 155.454545 
L 511.910677 7.2 
" style="fill:none;stroke:#b0b0b0;stroke-linecap:square;stroke-width:0.8;"/>
     </g>
     <g id="line2d_33">
      <g>
       <use style="stroke:#000000;stroke-width:0.8;" x="511.910677" xlink:href="#m3fa6693da6" y="155.454545"/>
      </g>
     </g>
     <g id="text_17">
      <!-- $\mathdefault{1}$ -->
      <g transform="translate(508.984182 170.756725)scale(0.12 -0.12)">
       <use transform="scale(0.996264)" xlink:href="#CMR17-31"/>
      </g>
     </g>
    </g>
    <g id="xtick_13">
     <g id="line2d_34">
      <path clip-path="url(#p92388aa17e)" d="M 554.183404 155.454545 
L 554.183404 7.2 
" style="fill:none;stroke:#b0b0b0;stroke-linecap:square;stroke-width:0.8;"/>
     </g>
     <g id="line2d_35">
      <g>
       <use style="stroke:#000000;stroke-width:0.8;" x="554.183404" xlink:href="#m3fa6693da6" y="155.454545"/>
      </g>
     </g>
     <g id="text_18">
      <!-- $\mathdefault{2}$ -->
      <g transform="translate(551.256909 170.756725)scale(0.12 -0.12)">
       <use transform="scale(0.996264)" xlink:href="#CMR17-32"/>
      </g>
     </g>
    </g>
    <g id="xtick_14">
     <g id="line2d_36">
      <path clip-path="url(#p92388aa17e)" d="M 596.456131 155.454545 
L 596.456131 7.2 
" style="fill:none;stroke:#b0b0b0;stroke-linecap:square;stroke-width:0.8;"/>
     </g>
     <g id="line2d_37">
      <g>
       <use style="stroke:#000000;stroke-width:0.8;" x="596.456131" xlink:href="#m3fa6693da6" y="155.454545"/>
      </g>
     </g>
     <g id="text_19">
      <!-- $\mathdefault{3}$ -->
      <g transform="translate(593.529636 170.756725)scale(0.12 -0.12)">
       <use transform="scale(0.996264)" xlink:href="#CMR17-33"/>
      </g>
     </g>
    </g>
   </g>
   <g id="matplotlib.axis_4">
    <g id="ytick_5">
     <g id="line2d_38">
      <path clip-path="url(#p92388aa17e)" d="M 342.819768 155.454545 
L 596.456131 155.454545 
" style="fill:none;stroke:#b0b0b0;stroke-linecap:square;stroke-width:0.8;"/>
     </g>
     <g id="line2d_39">
      <g>
       <use style="stroke:#000000;stroke-width:0.8;" x="342.819768" xlink:href="#mcdd20ffad6" y="155.454545"/>
      </g>
     </g>
     <g id="text_20">
      <!-- $\mathdefault{−0.5}$ -->
      <g transform="translate(311.563636 159.605635)scale(0.12 -0.12)">
       <use transform="scale(0.996264)" xlink:href="#CMSY10-0"/>
       <use transform="translate(77.487468 0)scale(0.996264)" xlink:href="#CMR17-30"/>
       <use transform="translate(123.177945 0)scale(0.996264)" xlink:href="#CMMI12-3a"/>
       <use transform="translate(150.275122 0)scale(0.996264)" xlink:href="#CMR17-35"/>
      </g>
     </g>
    </g>
    <g id="ytick_6">
     <g id="line2d_40">
      <path clip-path="url(#p92388aa17e)" d="M 342.819768 114.272727 
L 596.456131 114.272727 
" style="fill:none;stroke:#b0b0b0;stroke-linecap:square;stroke-width:0.8;"/>
     </g>
     <g id="line2d_41">
      <g>
       <use style="stroke:#000000;stroke-width:0.8;" x="342.819768" xlink:href="#mcdd20ffad6" y="114.272727"/>
      </g>
     </g>
     <g id="text_21">
      <!-- $\mathdefault{0.0}$ -->
      <g transform="translate(320.862126 118.423817)scale(0.12 -0.12)">
       <use transform="scale(0.996264)" xlink:href="#CMR17-30"/>
       <use transform="translate(45.690477 0)scale(0.996264)" xlink:href="#CMMI12-3a"/>
       <use transform="translate(72.787654 0)scale(0.996264)" xlink:href="#CMR17-30"/>
      </g>
     </g>
    </g>
    <g id="ytick_7">
     <g id="line2d_42">
      <path clip-path="url(#p92388aa17e)" d="M 342.819768 73.090909 
L 596.456131 73.090909 
" style="fill:none;stroke:#b0b0b0;stroke-linecap:square;stroke-width:0.8;"/>
     </g>
     <g id="line2d_43">
      <g>
       <use style="stroke:#000000;stroke-width:0.8;" x="342.819768" xlink:href="#mcdd20ffad6" y="73.090909"/>
      </g>
     </g>
     <g id="text_22">
      <!-- $\mathdefault{0.5}$ -->
      <g transform="translate(320.862126 77.241999)scale(0.12 -0.12)">
       <use transform="scale(0.996264)" xlink:href="#CMR17-30"/>
       <use transform="translate(45.690477 0)scale(0.996264)" xlink:href="#CMMI12-3a"/>
       <use transform="translate(72.787654 0)scale(0.996264)" xlink:href="#CMR17-35"/>
      </g>
     </g>
    </g>
    <g id="ytick_8">
     <g id="line2d_44">
      <path clip-path="url(#p92388aa17e)" d="M 342.819768 31.909091 
L 596.456131 31.909091 
" style="fill:none;stroke:#b0b0b0;stroke-linecap:square;stroke-width:0.8;"/>
     </g>
     <g id="line2d_45">
      <g>
       <use style="stroke:#000000;stroke-width:0.8;" x="342.819768" xlink:href="#mcdd20ffad6" y="31.909091"/>
      </g>
     </g>
     <g id="text_23">
      <!-- $\mathdefault{1.0}$ -->
      <g transform="translate(320.862126 36.060181)scale(0.12 -0.12)">
       <use transform="scale(0.996264)" xlink:href="#CMR17-31"/>
       <use transform="translate(45.690477 0)scale(0.996264)" xlink:href="#CMMI12-3a"/>
       <use transform="translate(72.787654 0)scale(0.996264)" xlink:href="#CMR17-30"/>
      </g>
     </g>
    </g>
   </g>
   <g id="line2d_46">
    <path clip-path="url(#p92388aa17e)" d="M 342.819768 96.152727 
L 344.933404 94.762467 
L 347.04704 93.35909 
L 349.160677 91.976467 
L 351.274313 90.649134 
L 353.387949 89.411516 
L 355.501586 88.297124 
L 357.615222 87.337761 
L 359.728858 86.562727 
L 361.842495 85.998067 
L 363.956131 85.665863 
L 366.069768 85.583591 
L 368.183404 85.76356 
L 370.29704 86.212446 
L 372.410677 86.930933 
L 374.524313 87.913469 
L 376.637949 89.148155 
L 378.751586 90.616755 
L 380.865222 92.294847 
L 382.978858 94.152109 
L 385.092495 96.152727 
L 387.206131 98.255941 
L 389.319768 100.4167 
L 391.433404 102.586425 
L 393.54704 104.713872 
L 395.660677 106.74606 
L 397.774313 108.629273 
L 399.887949 110.310097 
L 402.001586 111.736478 
L 404.115222 112.858781 
L 406.228858 113.630834 
L 408.342495 114.010922 
L 410.456131 113.962728 
L 412.569768 113.456179 
L 414.683404 112.46821 
L 416.79704 110.983392 
L 418.910677 108.994444 
L 421.024313 106.502589 
L 423.137949 103.517771 
L 425.251586 100.058696 
L 427.365222 96.152727 
L 429.478858 91.835604 
L 431.592495 87.151007 
L 433.706131 82.149973 
L 435.819768 76.890152 
L 437.933404 71.434952 
L 440.04704 65.852545 
L 442.160677 60.214788 
L 444.274313 54.59606 
L 446.387949 49.072031 
L 448.501586 43.718408 
L 450.615222 38.609654 
L 452.728858 33.817726 
L 454.842495 29.410841 
L 456.956131 25.452301 
L 459.069768 21.999402 
L 461.183404 19.102428 
L 463.29704 16.803784 
L 465.410677 15.137248 
L 467.524313 14.12738 
L 469.637949 13.789091 
L 471.751586 14.12738 
L 473.865222 15.137248 
L 475.978858 16.803784 
L 478.092495 19.102428 
L 480.206131 21.999402 
L 482.319768 25.452301 
L 484.433404 29.410841 
L 486.54704 33.817726 
L 488.660677 38.609654 
L 490.774313 43.718408 
L 492.887949 49.072031 
L 495.001586 54.59606 
L 497.115222 60.214788 
L 499.228858 65.852545 
L 501.342495 71.434952 
L 503.456131 76.890152 
L 505.569768 82.149973 
L 507.683404 87.151007 
L 509.79704 91.835604 
L 511.910677 96.152727 
L 514.024313 100.058696 
L 516.137949 103.517771 
L 518.251586 106.502589 
L 520.365222 108.994444 
L 522.478858 110.983392 
L 524.592495 112.46821 
L 526.706131 113.456179 
L 528.819768 113.962728 
L 530.933404 114.010922 
L 533.04704 113.630834 
L 535.160677 112.858781 
L 537.274313 111.736478 
L 539.387949 110.310097 
L 541.501586 108.629273 
L 543.615222 106.74606 
L 545.728858 104.713872 
L 547.842495 102.586425 
L 549.956131 100.4167 
L 552.069768 98.255941 
L 554.183404 96.152727 
L 556.29704 94.152109 
L 558.410677 92.294847 
L 560.524313 90.616755 
L 562.637949 89.148155 
L 564.751586 87.913469 
L 566.865222 86.930933 
L 568.978858 86.212446 
L 571.092495 85.76356 
L 573.206131 85.583591 
L 575.319768 85.665863 
L 577.433404 85.998067 
L 579.54704 86.562727 
L 581.660677 87.337761 
L 583.774313 88.297124 
L 585.887949 89.411516 
L 588.001586 90.649134 
L 590.115222 91.976467 
L 592.228858 93.35909 
L 594.342495 94.762467 
" style="fill:none;stroke:#1f77b4;stroke-linecap:square;stroke-width:1.5;"/>
   </g>
   <g id="patch_8">
    <path d="M 342.819768 155.454545 
L 342.819768 7.2 
" style="fill:none;stroke:#000000;stroke-linecap:square;stroke-linejoin:miter;stroke-width:0.8;"/>
   </g>
   <g id="patch_9">
    <path d="M 596.456131 155.454545 
L 596.456131 7.2 
" style="fill:none;stroke:#000000;stroke-linecap:square;stroke-linejoin:miter;stroke-width:0.8;"/>
   </g>
   <g id="patch_10">
    <path d="M 342.819768 155.454545 
L 596.456131 155.454545 
" style="fill:none;stroke:#000000;stroke-linecap:square;stroke-linejoin:miter;stroke-width:0.8;"/>
   </g>
   <g id="patch_11">
    <path d="M 342.819768 7.2 
L 596.456131 7.2 
" style="fill:none;stroke:#000000;stroke-linecap:square;stroke-linejoin:miter;stroke-width:0.8;"/>
   </g>
   <g id="text_24">
    <!-- B -->
    <g transform="translate(351.274313 25.12224)scale(0.14 -0.14)">
     <defs>
      <path d="M 333 4352 
L 333 4185 
C 774 4185 845 4185 845 3897 
L 845 451 
C 845 166 774 166 333 166 
L 333 0 
L 2534 0 
C 3354 0 3885 578 3885 1155 
C 3885 1726 3360 2214 2675 2259 
C 3290 2380 3718 2790 3718 3276 
C 3718 3808 3194 4352 2368 4352 
L 333 4352 
z
M 1248 2304 
L 1248 3936 
C 1248 4153 1261 4185 1517 4185 
L 2336 4185 
C 2970 4185 3251 3673 3251 3276 
C 3251 2790 2861 2304 2170 2304 
L 1248 2304 
z
M 1517 166 
C 1261 166 1248 198 1248 413 
L 1248 2201 
L 2432 2201 
C 3091 2201 3411 1624 3411 1161 
C 3411 698 3046 166 2349 166 
L 1517 166 
z
" id="CMR17-42" transform="scale(0.015625)"/>
     </defs>
     <use transform="scale(0.996264)" xlink:href="#CMR17-42"/>
    </g>
   </g>
  </g>
  <g id="axes_3">
   <g id="patch_12">
    <path d="M 38.456131 333.36 
L 292.092495 333.36 
L 292.092495 185.105455 
L 38.456131 185.105455 
z
" style="fill:#ffffff;"/>
   </g>
   <g id="matplotlib.axis_5">
    <g id="xtick_15">
     <g id="line2d_47">
      <path clip-path="url(#p46bce64004)" d="M 38.456131 333.36 
L 38.456131 185.105455 
" style="fill:none;stroke:#b0b0b0;stroke-linecap:square;stroke-width:0.8;"/>
     </g>
     <g id="line2d_48">
      <g>
       <use style="stroke:#000000;stroke-width:0.8;" x="38.456131" xlink:href="#m3fa6693da6" y="333.36"/>
      </g>
     </g>
     <g id="text_25">
      <!-- $\mathdefault{−3}$ -->
      <g transform="translate(30.880391 348.66218)scale(0.12 -0.12)">
       <use transform="scale(0.996264)" xlink:href="#CMSY10-0"/>
       <use transform="translate(77.487468 0)scale(0.996264)" xlink:href="#CMR17-33"/>
      </g>
     </g>
    </g>
    <g id="xtick_16">
     <g id="line2d_49">
      <path clip-path="url(#p46bce64004)" d="M 80.728858 333.36 
L 80.728858 185.105455 
" style="fill:none;stroke:#b0b0b0;stroke-linecap:square;stroke-width:0.8;"/>
     </g>
     <g id="line2d_50">
      <g>
       <use style="stroke:#000000;stroke-width:0.8;" x="80.728858" xlink:href="#m3fa6693da6" y="333.36"/>
      </g>
     </g>
     <g id="text_26">
      <!-- $\mathdefault{−2}$ -->
      <g transform="translate(73.153119 348.66218)scale(0.12 -0.12)">
       <use transform="scale(0.996264)" xlink:href="#CMSY10-0"/>
       <use transform="translate(77.487468 0)scale(0.996264)" xlink:href="#CMR17-32"/>
      </g>
     </g>
    </g>
    <g id="xtick_17">
     <g id="line2d_51">
      <path clip-path="url(#p46bce64004)" d="M 123.001586 333.36 
L 123.001586 185.105455 
" style="fill:none;stroke:#b0b0b0;stroke-linecap:square;stroke-width:0.8;"/>
     </g>
     <g id="line2d_52">
      <g>
       <use style="stroke:#000000;stroke-width:0.8;" x="123.001586" xlink:href="#m3fa6693da6" y="333.36"/>
      </g>
     </g>
     <g id="text_27">
      <!-- $\mathdefault{−1}$ -->
      <g transform="translate(115.425846 348.66218)scale(0.12 -0.12)">
       <use transform="scale(0.996264)" xlink:href="#CMSY10-0"/>
       <use transform="translate(77.487468 0)scale(0.996264)" xlink:href="#CMR17-31"/>
      </g>
     </g>
    </g>
    <g id="xtick_18">
     <g id="line2d_53">
      <path clip-path="url(#p46bce64004)" d="M 165.274313 333.36 
L 165.274313 185.105455 
" style="fill:none;stroke:#b0b0b0;stroke-linecap:square;stroke-width:0.8;"/>
     </g>
     <g id="line2d_54">
      <g>
       <use style="stroke:#000000;stroke-width:0.8;" x="165.274313" xlink:href="#m3fa6693da6" y="333.36"/>
      </g>
     </g>
     <g id="text_28">
      <!-- $\mathdefault{0}$ -->
      <g transform="translate(162.347818 348.66218)scale(0.12 -0.12)">
       <use transform="scale(0.996264)" xlink:href="#CMR17-30"/>
      </g>
     </g>
    </g>
    <g id="xtick_19">
     <g id="line2d_55">
      <path clip-path="url(#p46bce64004)" d="M 207.54704 333.36 
L 207.54704 185.105455 
" style="fill:none;stroke:#b0b0b0;stroke-linecap:square;stroke-width:0.8;"/>
     </g>
     <g id="line2d_56">
      <g>
       <use style="stroke:#000000;stroke-width:0.8;" x="207.54704" xlink:href="#m3fa6693da6" y="333.36"/>
      </g>
     </g>
     <g id="text_29">
      <!-- $\mathdefault{1}$ -->
      <g transform="translate(204.620545 348.66218)scale(0.12 -0.12)">
       <use transform="scale(0.996264)" xlink:href="#CMR17-31"/>
      </g>
     </g>
    </g>
    <g id="xtick_20">
     <g id="line2d_57">
      <path clip-path="url(#p46bce64004)" d="M 249.819768 333.36 
L 249.819768 185.105455 
" style="fill:none;stroke:#b0b0b0;stroke-linecap:square;stroke-width:0.8;"/>
     </g>
     <g id="line2d_58">
      <g>
       <use style="stroke:#000000;stroke-width:0.8;" x="249.819768" xlink:href="#m3fa6693da6" y="333.36"/>
      </g>
     </g>
     <g id="text_30">
      <!-- $\mathdefault{2}$ -->
      <g transform="translate(246.893272 348.66218)scale(0.12 -0.12)">
       <use transform="scale(0.996264)" xlink:href="#CMR17-32"/>
      </g>
     </g>
    </g>
    <g id="xtick_21">
     <g id="line2d_59">
      <path clip-path="url(#p46bce64004)" d="M 292.092495 333.36 
L 292.092495 185.105455 
" style="fill:none;stroke:#b0b0b0;stroke-linecap:square;stroke-width:0.8;"/>
     </g>
     <g id="line2d_60">
      <g>
       <use style="stroke:#000000;stroke-width:0.8;" x="292.092495" xlink:href="#m3fa6693da6" y="333.36"/>
      </g>
     </g>
     <g id="text_31">
      <!-- $\mathdefault{3}$ -->
      <g transform="translate(289.166 348.66218)scale(0.12 -0.12)">
       <use transform="scale(0.996264)" xlink:href="#CMR17-33"/>
      </g>
     </g>
    </g>
   </g>
   <g id="matplotlib.axis_6">
    <g id="ytick_9">
     <g id="line2d_61">
      <path clip-path="url(#p46bce64004)" d="M 38.456131 333.36 
L 292.092495 333.36 
" style="fill:none;stroke:#b0b0b0;stroke-linecap:square;stroke-width:0.8;"/>
     </g>
     <g id="line2d_62">
      <g>
       <use style="stroke:#000000;stroke-width:0.8;" x="38.456131" xlink:href="#mcdd20ffad6" y="333.36"/>
      </g>
     </g>
     <g id="text_32">
      <!-- $\mathdefault{−0.5}$ -->
      <g transform="translate(7.2 337.51109)scale(0.12 -0.12)">
       <use transform="scale(0.996264)" xlink:href="#CMSY10-0"/>
       <use transform="translate(77.487468 0)scale(0.996264)" xlink:href="#CMR17-30"/>
       <use transform="translate(123.177945 0)scale(0.996264)" xlink:href="#CMMI12-3a"/>
       <use transform="translate(150.275122 0)scale(0.996264)" xlink:href="#CMR17-35"/>
      </g>
     </g>
    </g>
    <g id="ytick_10">
     <g id="line2d_63">
      <path clip-path="url(#p46bce64004)" d="M 38.456131 292.178182 
L 292.092495 292.178182 
" style="fill:none;stroke:#b0b0b0;stroke-linecap:square;stroke-width:0.8;"/>
     </g>
     <g id="line2d_64">
      <g>
       <use style="stroke:#000000;stroke-width:0.8;" x="38.456131" xlink:href="#mcdd20ffad6" y="292.178182"/>
      </g>
     </g>
     <g id="text_33">
      <!-- $\mathdefault{0.0}$ -->
      <g transform="translate(16.498489 296.329272)scale(0.12 -0.12)">
       <use transform="scale(0.996264)" xlink:href="#CMR17-30"/>
       <use transform="translate(45.690477 0)scale(0.996264)" xlink:href="#CMMI12-3a"/>
       <use transform="translate(72.787654 0)scale(0.996264)" xlink:href="#CMR17-30"/>
      </g>
     </g>
    </g>
    <g id="ytick_11">
     <g id="line2d_65">
      <path clip-path="url(#p46bce64004)" d="M 38.456131 250.996364 
L 292.092495 250.996364 
" style="fill:none;stroke:#b0b0b0;stroke-linecap:square;stroke-width:0.8;"/>
     </g>
     <g id="line2d_66">
      <g>
       <use style="stroke:#000000;stroke-width:0.8;" x="38.456131" xlink:href="#mcdd20ffad6" y="250.996364"/>
      </g>
     </g>
     <g id="text_34">
      <!-- $\mathdefault{0.5}$ -->
      <g transform="translate(16.498489 255.147454)scale(0.12 -0.12)">
       <use transform="scale(0.996264)" xlink:href="#CMR17-30"/>
       <use transform="translate(45.690477 0)scale(0.996264)" xlink:href="#CMMI12-3a"/>
       <use transform="translate(72.787654 0)scale(0.996264)" xlink:href="#CMR17-35"/>
      </g>
     </g>
    </g>
    <g id="ytick_12">
     <g id="line2d_67">
      <path clip-path="url(#p46bce64004)" d="M 38.456131 209.814545 
L 292.092495 209.814545 
" style="fill:none;stroke:#b0b0b0;stroke-linecap:square;stroke-width:0.8;"/>
     </g>
     <g id="line2d_68">
      <g>
       <use style="stroke:#000000;stroke-width:0.8;" x="38.456131" xlink:href="#mcdd20ffad6" y="209.814545"/>
      </g>
     </g>
     <g id="text_35">
      <!-- $\mathdefault{1.0}$ -->
      <g transform="translate(16.498489 213.965635)scale(0.12 -0.12)">
       <use transform="scale(0.996264)" xlink:href="#CMR17-31"/>
       <use transform="translate(45.690477 0)scale(0.996264)" xlink:href="#CMMI12-3a"/>
       <use transform="translate(72.787654 0)scale(0.996264)" xlink:href="#CMR17-30"/>
      </g>
     </g>
    </g>
   </g>
   <g id="line2d_69">
    <path clip-path="url(#p46bce64004)" d="M 38.456131 292.178182 
L 40.569768 290.787922 
L 42.683404 289.384545 
L 44.79704 288.001922 
L 46.910677 286.674589 
L 49.024313 285.43697 
L 51.137949 284.322579 
L 53.251586 283.363216 
L 55.365222 282.588182 
L 57.478858 282.023522 
L 59.592495 281.691318 
L 61.706131 281.609046 
L 63.819768 281.789015 
L 65.933404 282.237901 
L 68.04704 282.956387 
L 70.160677 283.938923 
L 72.274313 285.173609 
L 74.387949 286.642209 
L 76.501586 288.320302 
L 78.615222 290.177564 
L 80.728858 292.178182 
L 82.842495 290.074968 
L 84.956131 287.914209 
L 87.069768 285.744484 
L 89.183404 283.617037 
L 91.29704 281.58485 
L 93.410677 279.701636 
L 95.524313 278.020812 
L 97.637949 276.594431 
L 99.751586 275.472128 
L 101.865222 274.700075 
L 103.978858 274.319987 
L 106.092495 274.368181 
L 108.206131 274.87473 
L 110.319768 275.862699 
L 112.433404 277.347517 
L 114.54704 279.336465 
L 116.660677 281.82832 
L 118.774313 284.813138 
L 120.887949 288.272213 
L 123.001586 292.178182 
L 125.115222 287.861058 
L 127.228858 283.176462 
L 129.342495 278.175427 
L 131.456131 272.915607 
L 133.569768 267.460407 
L 135.683404 261.877999 
L 137.79704 256.240243 
L 139.910677 250.621514 
L 142.024313 245.097485 
L 144.137949 239.743862 
L 146.251586 234.635109 
L 148.365222 229.84318 
L 150.478858 225.436295 
L 152.592495 221.477756 
L 154.706131 218.024856 
L 156.819768 215.127883 
L 158.933404 212.829239 
L 161.04704 211.162703 
L 163.160677 210.152835 
L 165.274313 209.814545 
L 167.387949 210.152835 
L 169.501586 211.162703 
L 171.615222 212.829239 
L 173.728858 215.127883 
L 175.842495 218.024856 
L 177.956131 221.477756 
L 180.069768 225.436295 
L 182.183404 229.84318 
L 184.29704 234.635109 
L 186.410677 239.743862 
L 188.524313 245.097485 
L 190.637949 250.621514 
L 192.751586 256.240243 
L 194.865222 261.877999 
L 196.978858 267.460407 
L 199.092495 272.915607 
L 201.206131 278.175427 
L 203.319768 283.176462 
L 205.433404 287.861058 
L 207.54704 292.178182 
L 209.660677 288.272213 
L 211.774313 284.813138 
L 213.887949 281.82832 
L 216.001586 279.336465 
L 218.115222 277.347517 
L 220.228858 275.862699 
L 222.342495 274.87473 
L 224.456131 274.368181 
L 226.569768 274.319987 
L 228.683404 274.700075 
L 230.79704 275.472128 
L 232.910677 276.594431 
L 235.024313 278.020812 
L 237.137949 279.701636 
L 239.251586 281.58485 
L 241.365222 283.617037 
L 243.478858 285.744484 
L 245.592495 287.914209 
L 247.706131 290.074968 
L 249.819768 292.178182 
L 251.933404 290.177564 
L 254.04704 288.320302 
L 256.160677 286.642209 
L 258.274313 285.173609 
L 260.387949 283.938923 
L 262.501586 282.956387 
L 264.615222 282.237901 
L 266.728858 281.789015 
L 268.842495 281.609046 
L 270.956131 281.691318 
L 273.069768 282.023522 
L 275.183404 282.588182 
L 277.29704 283.363216 
L 279.410677 284.322579 
L 281.524313 285.43697 
L 283.637949 286.674589 
L 285.751586 288.001922 
L 287.865222 289.384545 
L 289.978858 290.787922 
" style="fill:none;stroke:#1f77b4;stroke-linecap:square;stroke-width:1.5;"/>
   </g>
   <g id="patch_13">
    <path d="M 38.456131 333.36 
L 38.456131 185.105455 
" style="fill:none;stroke:#000000;stroke-linecap:square;stroke-linejoin:miter;stroke-width:0.8;"/>
   </g>
   <g id="patch_14">
    <path d="M 292.092495 333.36 
L 292.092495 185.105455 
" style="fill:none;stroke:#000000;stroke-linecap:square;stroke-linejoin:miter;stroke-width:0.8;"/>
   </g>
   <g id="patch_15">
    <path d="M 38.456131 333.36 
L 292.092495 333.36 
" style="fill:none;stroke:#000000;stroke-linecap:square;stroke-linejoin:miter;stroke-width:0.8;"/>
   </g>
   <g id="patch_16">
    <path d="M 38.456131 185.105455 
L 292.092495 185.105455 
" style="fill:none;stroke:#000000;stroke-linecap:square;stroke-linejoin:miter;stroke-width:0.8;"/>
   </g>
   <g id="text_36">
    <!-- C -->
    <g transform="translate(46.910677 203.027695)scale(0.14 -0.14)">
     <defs>
      <path d="M 3974 4351 
C 3974 4467 3968 4473 3930 4473 
C 3904 4473 3898 4467 3853 4390 
L 3571 3849 
C 3258 4249 2874 4480 2381 4480 
C 1286 4480 294 3507 294 2179 
C 294 837 1286 -128 2387 -128 
C 3366 -128 3974 741 3974 1482 
C 3974 1547 3974 1573 3917 1573 
C 3866 1573 3866 1553 3859 1495 
C 3808 592 3168 38 2477 38 
C 1824 38 781 502 781 2179 
C 781 3862 1843 4313 2464 4313 
C 3187 4313 3712 3681 3834 2785 
C 3846 2707 3846 2695 3904 2695 
C 3974 2695 3974 2707 3974 2824 
L 3974 4351 
z
" id="CMR17-43" transform="scale(0.015625)"/>
     </defs>
     <use transform="scale(0.996264)" xlink:href="#CMR17-43"/>
    </g>
   </g>
  </g>
  <g id="axes_4">
   <g id="patch_17">
    <path d="M 342.819768 333.36 
L 596.456131 333.36 
L 596.456131 185.105455 
L 342.819768 185.105455 
z
" style="fill:#ffffff;"/>
   </g>
   <g id="matplotlib.axis_7">
    <g id="xtick_22">
     <g id="line2d_70">
      <path clip-path="url(#pc452612086)" d="M 342.819768 333.36 
L 342.819768 185.105455 
" style="fill:none;stroke:#b0b0b0;stroke-linecap:square;stroke-width:0.8;"/>
     </g>
     <g id="line2d_71">
      <g>
       <use style="stroke:#000000;stroke-width:0.8;" x="342.819768" xlink:href="#m3fa6693da6" y="333.36"/>
      </g>
     </g>
     <g id="text_37">
      <!-- $\mathdefault{−3}$ -->
      <g transform="translate(335.244028 348.66218)scale(0.12 -0.12)">
       <use transform="scale(0.996264)" xlink:href="#CMSY10-0"/>
       <use transform="translate(77.487468 0)scale(0.996264)" xlink:href="#CMR17-33"/>
      </g>
     </g>
    </g>
    <g id="xtick_23">
     <g id="line2d_72">
      <path clip-path="url(#pc452612086)" d="M 385.092495 333.36 
L 385.092495 185.105455 
" style="fill:none;stroke:#b0b0b0;stroke-linecap:square;stroke-width:0.8;"/>
     </g>
     <g id="line2d_73">
      <g>
       <use style="stroke:#000000;stroke-width:0.8;" x="385.092495" xlink:href="#m3fa6693da6" y="333.36"/>
      </g>
     </g>
     <g id="text_38">
      <!-- $\mathdefault{−2}$ -->
      <g transform="translate(377.516755 348.66218)scale(0.12 -0.12)">
       <use transform="scale(0.996264)" xlink:href="#CMSY10-0"/>
       <use transform="translate(77.487468 0)scale(0.996264)" xlink:href="#CMR17-32"/>
      </g>
     </g>
    </g>
    <g id="xtick_24">
     <g id="line2d_74">
      <path clip-path="url(#pc452612086)" d="M 427.365222 333.36 
L 427.365222 185.105455 
" style="fill:none;stroke:#b0b0b0;stroke-linecap:square;stroke-width:0.8;"/>
     </g>
     <g id="line2d_75">
      <g>
       <use style="stroke:#000000;stroke-width:0.8;" x="427.365222" xlink:href="#m3fa6693da6" y="333.36"/>
      </g>
     </g>
     <g id="text_39">
      <!-- $\mathdefault{−1}$ -->
      <g transform="translate(419.789482 348.66218)scale(0.12 -0.12)">
       <use transform="scale(0.996264)" xlink:href="#CMSY10-0"/>
       <use transform="translate(77.487468 0)scale(0.996264)" xlink:href="#CMR17-31"/>
      </g>
     </g>
    </g>
    <g id="xtick_25">
     <g id="line2d_76">
      <path clip-path="url(#pc452612086)" d="M 469.637949 333.36 
L 469.637949 185.105455 
" style="fill:none;stroke:#b0b0b0;stroke-linecap:square;stroke-width:0.8;"/>
     </g>
     <g id="line2d_77">
      <g>
       <use style="stroke:#000000;stroke-width:0.8;" x="469.637949" xlink:href="#m3fa6693da6" y="333.36"/>
      </g>
     </g>
     <g id="text_40">
      <!-- $\mathdefault{0}$ -->
      <g transform="translate(466.711454 348.66218)scale(0.12 -0.12)">
       <use transform="scale(0.996264)" xlink:href="#CMR17-30"/>
      </g>
     </g>
    </g>
    <g id="xtick_26">
     <g id="line2d_78">
      <path clip-path="url(#pc452612086)" d="M 511.910677 333.36 
L 511.910677 185.105455 
" style="fill:none;stroke:#b0b0b0;stroke-linecap:square;stroke-width:0.8;"/>
     </g>
     <g id="line2d_79">
      <g>
       <use style="stroke:#000000;stroke-width:0.8;" x="511.910677" xlink:href="#m3fa6693da6" y="333.36"/>
      </g>
     </g>
     <g id="text_41">
      <!-- $\mathdefault{1}$ -->
      <g transform="translate(508.984182 348.66218)scale(0.12 -0.12)">
       <use transform="scale(0.996264)" xlink:href="#CMR17-31"/>
      </g>
     </g>
    </g>
    <g id="xtick_27">
     <g id="line2d_80">
      <path clip-path="url(#pc452612086)" d="M 554.183404 333.36 
L 554.183404 185.105455 
" style="fill:none;stroke:#b0b0b0;stroke-linecap:square;stroke-width:0.8;"/>
     </g>
     <g id="line2d_81">
      <g>
       <use style="stroke:#000000;stroke-width:0.8;" x="554.183404" xlink:href="#m3fa6693da6" y="333.36"/>
      </g>
     </g>
     <g id="text_42">
      <!-- $\mathdefault{2}$ -->
      <g transform="translate(551.256909 348.66218)scale(0.12 -0.12)">
       <use transform="scale(0.996264)" xlink:href="#CMR17-32"/>
      </g>
     </g>
    </g>
    <g id="xtick_28">
     <g id="line2d_82">
      <path clip-path="url(#pc452612086)" d="M 596.456131 333.36 
L 596.456131 185.105455 
" style="fill:none;stroke:#b0b0b0;stroke-linecap:square;stroke-width:0.8;"/>
     </g>
     <g id="line2d_83">
      <g>
       <use style="stroke:#000000;stroke-width:0.8;" x="596.456131" xlink:href="#m3fa6693da6" y="333.36"/>
      </g>
     </g>
     <g id="text_43">
      <!-- $\mathdefault{3}$ -->
      <g transform="translate(593.529636 348.66218)scale(0.12 -0.12)">
       <use transform="scale(0.996264)" xlink:href="#CMR17-33"/>
      </g>
     </g>
    </g>
   </g>
   <g id="matplotlib.axis_8">
    <g id="ytick_13">
     <g id="line2d_84">
      <path clip-path="url(#pc452612086)" d="M 342.819768 333.36 
L 596.456131 333.36 
" style="fill:none;stroke:#b0b0b0;stroke-linecap:square;stroke-width:0.8;"/>
     </g>
     <g id="line2d_85">
      <g>
       <use style="stroke:#000000;stroke-width:0.8;" x="342.819768" xlink:href="#mcdd20ffad6" y="333.36"/>
      </g>
     </g>
     <g id="text_44">
      <!-- $\mathdefault{−0.5}$ -->
      <g transform="translate(311.563636 337.51109)scale(0.12 -0.12)">
       <use transform="scale(0.996264)" xlink:href="#CMSY10-0"/>
       <use transform="translate(77.487468 0)scale(0.996264)" xlink:href="#CMR17-30"/>
       <use transform="translate(123.177945 0)scale(0.996264)" xlink:href="#CMMI12-3a"/>
       <use transform="translate(150.275122 0)scale(0.996264)" xlink:href="#CMR17-35"/>
      </g>
     </g>
    </g>
    <g id="ytick_14">
     <g id="line2d_86">
      <path clip-path="url(#pc452612086)" d="M 342.819768 292.178182 
L 596.456131 292.178182 
" style="fill:none;stroke:#b0b0b0;stroke-linecap:square;stroke-width:0.8;"/>
     </g>
     <g id="line2d_87">
      <g>
       <use style="stroke:#000000;stroke-width:0.8;" x="342.819768" xlink:href="#mcdd20ffad6" y="292.178182"/>
      </g>
     </g>
     <g id="text_45">
      <!-- $\mathdefault{0.0}$ -->
      <g transform="translate(320.862126 296.329272)scale(0.12 -0.12)">
       <use transform="scale(0.996264)" xlink:href="#CMR17-30"/>
       <use transform="translate(45.690477 0)scale(0.996264)" xlink:href="#CMMI12-3a"/>
       <use transform="translate(72.787654 0)scale(0.996264)" xlink:href="#CMR17-30"/>
      </g>
     </g>
    </g>
    <g id="ytick_15">
     <g id="line2d_88">
      <path clip-path="url(#pc452612086)" d="M 342.819768 250.996364 
L 596.456131 250.996364 
" style="fill:none;stroke:#b0b0b0;stroke-linecap:square;stroke-width:0.8;"/>
     </g>
     <g id="line2d_89">
      <g>
       <use style="stroke:#000000;stroke-width:0.8;" x="342.819768" xlink:href="#mcdd20ffad6" y="250.996364"/>
      </g>
     </g>
     <g id="text_46">
      <!-- $\mathdefault{0.5}$ -->
      <g transform="translate(320.862126 255.147454)scale(0.12 -0.12)">
       <use transform="scale(0.996264)" xlink:href="#CMR17-30"/>
       <use transform="translate(45.690477 0)scale(0.996264)" xlink:href="#CMMI12-3a"/>
       <use transform="translate(72.787654 0)scale(0.996264)" xlink:href="#CMR17-35"/>
      </g>
     </g>
    </g>
    <g id="ytick_16">
     <g id="line2d_90">
      <path clip-path="url(#pc452612086)" d="M 342.819768 209.814545 
L 596.456131 209.814545 
" style="fill:none;stroke:#b0b0b0;stroke-linecap:square;stroke-width:0.8;"/>
     </g>
     <g id="line2d_91">
      <g>
       <use style="stroke:#000000;stroke-width:0.8;" x="342.819768" xlink:href="#mcdd20ffad6" y="209.814545"/>
      </g>
     </g>
     <g id="text_47">
      <!-- $\mathdefault{1.0}$ -->
      <g transform="translate(320.862126 213.965635)scale(0.12 -0.12)">
       <use transform="scale(0.996264)" xlink:href="#CMR17-31"/>
       <use transform="translate(45.690477 0)scale(0.996264)" xlink:href="#CMMI12-3a"/>
       <use transform="translate(72.787654 0)scale(0.996264)" xlink:href="#CMR17-30"/>
      </g>
     </g>
    </g>
   </g>
   <g id="line2d_92">
    <path clip-path="url(#pc452612086)" d="M 342.819768 305.026909 
L 344.933404 303.219571 
L 347.04704 301.395181 
L 349.160677 299.597771 
L 351.274313 297.872238 
L 353.387949 296.263334 
L 355.501586 294.814625 
L 357.615222 293.567453 
L 359.728858 292.559909 
L 361.842495 291.825851 
L 363.956131 291.393986 
L 366.069768 291.287032 
L 368.183404 291.520992 
L 370.29704 292.104544 
L 372.410677 293.038576 
L 374.524313 294.315873 
L 376.637949 295.920965 
L 378.751586 297.830144 
L 380.865222 300.011665 
L 382.978858 302.426105 
L 385.092495 305.026909 
L 387.206131 307.761087 
L 389.319768 310.570073 
L 391.433404 313.390717 
L 393.54704 316.156397 
L 395.660677 318.798241 
L 397.774313 321.246419 
L 399.887949 323.43149 
L 402.001586 325.285785 
L 404.115222 326.744779 
L 406.228858 327.748448 
L 408.342495 328.242563 
L 410.456131 328.17991 
L 412.569768 327.521397 
L 414.683404 326.237037 
L 416.79704 324.306774 
L 418.910677 321.721141 
L 421.024313 318.48173 
L 423.137949 314.601466 
L 425.251586 310.104669 
L 427.365222 305.026909 
L 429.478858 299.414648 
L 431.592495 293.324673 
L 433.706131 286.823328 
L 435.819768 279.985562 
L 437.933404 272.893801 
L 440.04704 265.636672 
L 442.160677 258.307588 
L 444.274313 251.003241 
L 446.387949 243.822004 
L 448.501586 236.862294 
L 450.615222 230.220914 
L 452.728858 223.991407 
L 454.842495 218.262456 
L 456.956131 213.116355 
L 459.069768 208.627586 
L 461.183404 204.86152 
L 463.29704 201.873283 
L 465.410677 199.706786 
L 467.524313 198.393958 
L 469.637949 197.954182 
L 471.751586 198.393958 
L 473.865222 199.706786 
L 475.978858 201.873283 
L 478.092495 204.86152 
L 480.206131 208.627586 
L 482.319768 213.116355 
L 484.433404 218.262456 
L 486.54704 223.991407 
L 488.660677 230.220914 
L 490.774313 236.862294 
L 492.887949 243.822004 
L 495.001586 251.003241 
L 497.115222 258.307588 
L 499.228858 265.636672 
L 501.342495 272.893801 
L 503.456131 279.985562 
L 505.569768 286.823328 
L 507.683404 293.324673 
L 509.79704 299.414648 
L 511.910677 305.026909 
L 514.024313 310.104669 
L 516.137949 314.601466 
L 518.251586 318.48173 
L 520.365222 321.721141 
L 522.478858 324.306774 
L 524.592495 326.237037 
L 526.706131 327.521397 
L 528.819768 328.17991 
L 530.933404 328.242563 
L 533.04704 327.748448 
L 535.160677 326.744779 
L 537.274313 325.285785 
L 539.387949 323.43149 
L 541.501586 321.246419 
L 543.615222 318.798241 
L 545.728858 316.156397 
L 547.842495 313.390717 
L 549.956131 310.570073 
L 552.069768 307.761087 
L 554.183404 305.026909 
L 556.29704 302.426105 
L 558.410677 300.011665 
L 560.524313 297.830144 
L 562.637949 295.920965 
L 564.751586 294.315873 
L 566.865222 293.038576 
L 568.978858 292.104544 
L 571.092495 291.520992 
L 573.206131 291.287032 
L 575.319768 291.393986 
L 577.433404 291.825851 
L 579.54704 292.559909 
L 581.660677 293.567453 
L 583.774313 294.814625 
L 585.887949 296.263334 
L 588.001586 297.872238 
L 590.115222 299.597771 
L 592.228858 301.395181 
L 594.342495 303.219571 
" style="fill:none;stroke:#1f77b4;stroke-linecap:square;stroke-width:1.5;"/>
   </g>
   <g id="patch_18">
    <path d="M 342.819768 333.36 
L 342.819768 185.105455 
" style="fill:none;stroke:#000000;stroke-linecap:square;stroke-linejoin:miter;stroke-width:0.8;"/>
   </g>
   <g id="patch_19">
    <path d="M 596.456131 333.36 
L 596.456131 185.105455 
" style="fill:none;stroke:#000000;stroke-linecap:square;stroke-linejoin:miter;stroke-width:0.8;"/>
   </g>
   <g id="patch_20">
    <path d="M 342.819768 333.36 
L 596.456131 333.36 
" style="fill:none;stroke:#000000;stroke-linecap:square;stroke-linejoin:miter;stroke-width:0.8;"/>
   </g>
   <g id="patch_21">
    <path d="M 342.819768 185.105455 
L 596.456131 185.105455 
" style="fill:none;stroke:#000000;stroke-linecap:square;stroke-linejoin:miter;stroke-width:0.8;"/>
   </g>
   <g id="text_48">
    <!-- D -->
    <g transform="translate(351.274313 203.027695)scale(0.14 -0.14)">
     <defs>
      <path d="M 333 4352 
L 333 4185 
C 774 4185 845 4185 845 3898 
L 845 453 
C 845 166 774 166 333 166 
L 333 0 
L 2368 0 
C 3398 0 4224 943 4224 2140 
C 4224 3344 3411 4352 2368 4352 
L 333 4352 
z
M 1523 166 
C 1267 166 1254 198 1254 414 
L 1254 3936 
C 1254 4153 1267 4185 1523 4185 
L 2240 4185 
C 2771 4185 3750 3873 3750 2140 
C 3750 1242 3488 879 3366 707 
C 3213 510 2848 166 2240 166 
L 1523 166 
z
" id="CMR17-44" transform="scale(0.015625)"/>
     </defs>
     <use transform="scale(0.996264)" xlink:href="#CMR17-44"/>
    </g>
   </g>
  </g>
 </g>
 <defs>
  <clipPath id="p9c8dafd9f9">
   <rect height="148.254545" width="253.636364" x="38.456131" y="7.2"/>
  </clipPath>
  <clipPath id="p92388aa17e">
   <rect height="148.254545" width="253.636364" x="342.819768" y="7.2"/>
  </clipPath>
  <clipPath id="p46bce64004">
   <rect height="148.254545" width="253.636364" x="38.456131" y="185.105455"/>
  </clipPath>
  <clipPath id="pc452612086">
   <rect height="148.254545" width="253.636364" x="342.819768" y="185.105455"/>
  </clipPath>
 </defs>
</svg>
