<?xml version="1.0" encoding="utf-8" standalone="no"?>
<!DOCTYPE svg PUBLIC "-//W3C//DTD SVG 1.1//EN"
  "http://www.w3.org/Graphics/SVG/1.1/DTD/svg11.dtd">
<svg height="420.26987pt" version="1.1" viewBox="0 0 682.62716 420.26987" width="682.62716pt" xmlns="http://www.w3.org/2000/svg" xmlns:xlink="http://www.w3.org/1999/xlink">
 <metadata>
  <rdf:RDF xmlns:cc="http://creativecommons.org/ns#" xmlns:dc="http://purl.org/dc/elements/1.1/" xmlns:rdf="http://www.w3.org/1999/02/22-rdf-syntax-ns#">
   <cc:Work>
    <dc:type rdf:resource="http://purl.org/dc/dcmitype/StillImage"/>
    <dc:date>2024-09-03T09:06:47.610012</dc:date>
    <dc:format>image/svg+xml</dc:format>
    <dc:creator>
     <cc:Agent>
      <dc:title>Matplotlib v3.4.3, https://matplotlib.org/</dc:title>
     </cc:Agent>
    </dc:creator>
   </cc:Work>
  </rdf:RDF>
 </metadata>
 <defs>
  <style type="text/css">*{stroke-linecap:butt;stroke-linejoin:round;}</style>
 </defs>
 <g id="figure_1">
  <g id="patch_1">
   <path d="M 0 420.26987 
L 682.62716 420.26987 
L 682.62716 0 
L 0 0 
z
" style="fill:none;"/>
  </g>
  <g id="axes_1">
   <g id="patch_2">
    <path d="M 29.157642 109.711856 
L 663.721179 109.711856 
L 663.721179 24.823055 
L 29.157642 24.823055 
z
" style="fill:#ffffff;"/>
   </g>
   <g id="matplotlib.axis_1">
    <g id="xtick_1">
     <g id="line2d_1">
      <path clip-path="url(#p525f6f2fba)" d="M 29.157642 109.711856 
L 29.157642 24.823055 
" style="fill:none;stroke:#b0b0b0;stroke-linecap:square;stroke-width:0.8;"/>
     </g>
     <g id="line2d_2">
      <defs>
       <path d="M 0 0 
L 0 3.5 
" id="m4fdd315cab" style="stroke:#000000;stroke-width:0.8;"/>
      </defs>
      <g>
       <use style="stroke:#000000;stroke-width:0.8;" x="29.157642" xlink:href="#m4fdd315cab" y="109.711856"/>
      </g>
     </g>
     <g id="text_1">
      <!-- $\mathdefault{−1600}$ -->
      <g transform="translate(12.802417 125.014036)scale(0.12 -0.12)">
       <defs>
        <path d="M 4218 1472 
C 4326 1472 4442 1472 4442 1600 
C 4442 1728 4326 1728 4218 1728 
L 755 1728 
C 646 1728 531 1728 531 1600 
C 531 1472 646 1472 755 1472 
L 4218 1472 
z
" id="CMSY10-0" transform="scale(0.015625)"/>
        <path d="M 1702 4083 
C 1702 4217 1696 4224 1606 4224 
C 1357 3927 979 3833 621 3820 
C 602 3820 570 3820 563 3808 
C 557 3795 557 3782 557 3648 
C 755 3648 1088 3686 1344 3839 
L 1344 467 
C 1344 243 1331 166 781 166 
L 589 166 
L 589 0 
C 896 6 1216 12 1523 12 
C 1830 12 2150 6 2458 0 
L 2458 166 
L 2266 166 
C 1715 166 1702 236 1702 467 
L 1702 4083 
z
" id="CMR17-31" transform="scale(0.015625)"/>
        <path d="M 678 2198 
C 678 3712 1395 4076 1811 4076 
C 1946 4076 2272 4049 2400 3782 
C 2298 3782 2106 3782 2106 3558 
C 2106 3385 2246 3328 2336 3328 
C 2394 3328 2566 3353 2566 3571 
C 2566 3987 2246 4224 1805 4224 
C 1043 4224 243 3411 243 2011 
C 243 257 966 -128 1478 -128 
C 2099 -128 2688 431 2688 1295 
C 2688 2101 2170 2688 1517 2688 
C 1126 2688 838 2430 678 1979 
L 678 2198 
z
M 1478 25 
C 691 25 691 1212 691 1450 
C 691 1914 909 2585 1504 2585 
C 1613 2585 1926 2585 2138 2140 
C 2253 1889 2253 1624 2253 1302 
C 2253 954 2253 696 2118 438 
C 1978 173 1773 25 1478 25 
z
" id="CMR17-36" transform="scale(0.015625)"/>
        <path d="M 2688 2038 
C 2688 2430 2682 3099 2413 3613 
C 2176 4063 1798 4224 1466 4224 
C 1158 4224 768 4082 525 3620 
C 269 3137 243 2539 243 2038 
C 243 1671 250 1112 448 623 
C 723 -39 1216 -128 1466 -128 
C 1760 -128 2208 -7 2470 604 
C 2662 1048 2688 1568 2688 2038 
z
M 1466 -26 
C 1056 -26 813 328 723 816 
C 653 1196 653 1749 653 2109 
C 653 2604 653 3015 736 3407 
C 858 3954 1216 4121 1466 4121 
C 1728 4121 2067 3947 2189 3420 
C 2272 3054 2278 2623 2278 2109 
C 2278 1691 2278 1176 2202 797 
C 2067 96 1690 -26 1466 -26 
z
" id="CMR17-30" transform="scale(0.015625)"/>
       </defs>
       <use transform="scale(0.996264)" xlink:href="#CMSY10-0"/>
       <use transform="translate(77.487468 0)scale(0.996264)" xlink:href="#CMR17-31"/>
       <use transform="translate(123.177945 0)scale(0.996264)" xlink:href="#CMR17-36"/>
       <use transform="translate(168.868422 0)scale(0.996264)" xlink:href="#CMR17-30"/>
       <use transform="translate(214.558899 0)scale(0.996264)" xlink:href="#CMR17-30"/>
      </g>
     </g>
    </g>
    <g id="xtick_2">
     <g id="line2d_3">
      <path clip-path="url(#p525f6f2fba)" d="M 68.817863 109.711856 
L 68.817863 24.823055 
" style="fill:none;stroke:#b0b0b0;stroke-linecap:square;stroke-width:0.8;"/>
     </g>
     <g id="line2d_4">
      <g>
       <use style="stroke:#000000;stroke-width:0.8;" x="68.817863" xlink:href="#m4fdd315cab" y="109.711856"/>
      </g>
     </g>
     <g id="text_2">
      <!-- $\mathdefault{−1400}$ -->
      <g transform="translate(52.462638 125.014036)scale(0.12 -0.12)">
       <defs>
        <path d="M 2150 4147 
C 2150 4281 2144 4288 2029 4288 
L 128 1254 
L 128 1088 
L 1779 1088 
L 1779 460 
C 1779 230 1766 166 1318 166 
L 1197 166 
L 1197 0 
C 1402 12 1747 12 1965 12 
C 2182 12 2528 12 2733 0 
L 2733 166 
L 2611 166 
C 2163 166 2150 230 2150 460 
L 2150 1088 
L 2803 1088 
L 2803 1254 
L 2150 1254 
L 2150 4147 
z
M 1798 3723 
L 1798 1254 
L 256 1254 
L 1798 3723 
z
" id="CMR17-34" transform="scale(0.015625)"/>
       </defs>
       <use transform="scale(0.996264)" xlink:href="#CMSY10-0"/>
       <use transform="translate(77.487468 0)scale(0.996264)" xlink:href="#CMR17-31"/>
       <use transform="translate(123.177945 0)scale(0.996264)" xlink:href="#CMR17-34"/>
       <use transform="translate(168.868422 0)scale(0.996264)" xlink:href="#CMR17-30"/>
       <use transform="translate(214.558899 0)scale(0.996264)" xlink:href="#CMR17-30"/>
      </g>
     </g>
    </g>
    <g id="xtick_3">
     <g id="line2d_5">
      <path clip-path="url(#p525f6f2fba)" d="M 108.478084 109.711856 
L 108.478084 24.823055 
" style="fill:none;stroke:#b0b0b0;stroke-linecap:square;stroke-width:0.8;"/>
     </g>
     <g id="line2d_6">
      <g>
       <use style="stroke:#000000;stroke-width:0.8;" x="108.478084" xlink:href="#m4fdd315cab" y="109.711856"/>
      </g>
     </g>
     <g id="text_3">
      <!-- $\mathdefault{−1200}$ -->
      <g transform="translate(92.122859 125.014036)scale(0.12 -0.12)">
       <defs>
        <path d="M 2669 990 
L 2554 990 
C 2490 537 2438 460 2413 422 
C 2381 371 1920 371 1830 371 
L 602 371 
C 832 620 1280 1073 1824 1596 
C 2214 1966 2669 2400 2669 3033 
C 2669 3788 2067 4224 1395 4224 
C 691 4224 262 3603 262 3027 
C 262 2777 448 2745 525 2745 
C 589 2745 781 2783 781 3007 
C 781 3206 614 3264 525 3264 
C 486 3264 448 3257 422 3244 
C 544 3788 915 4057 1306 4057 
C 1862 4057 2227 3616 2227 3033 
C 2227 2477 1901 1998 1536 1583 
L 262 147 
L 262 0 
L 2515 0 
L 2669 990 
z
" id="CMR17-32" transform="scale(0.015625)"/>
       </defs>
       <use transform="scale(0.996264)" xlink:href="#CMSY10-0"/>
       <use transform="translate(77.487468 0)scale(0.996264)" xlink:href="#CMR17-31"/>
       <use transform="translate(123.177945 0)scale(0.996264)" xlink:href="#CMR17-32"/>
       <use transform="translate(168.868422 0)scale(0.996264)" xlink:href="#CMR17-30"/>
       <use transform="translate(214.558899 0)scale(0.996264)" xlink:href="#CMR17-30"/>
      </g>
     </g>
    </g>
    <g id="xtick_4">
     <g id="line2d_7">
      <path clip-path="url(#p525f6f2fba)" d="M 148.138305 109.711856 
L 148.138305 24.823055 
" style="fill:none;stroke:#b0b0b0;stroke-linecap:square;stroke-width:0.8;"/>
     </g>
     <g id="line2d_8">
      <g>
       <use style="stroke:#000000;stroke-width:0.8;" x="148.138305" xlink:href="#m4fdd315cab" y="109.711856"/>
      </g>
     </g>
     <g id="text_4">
      <!-- $\mathdefault{−1000}$ -->
      <g transform="translate(131.78308 125.014036)scale(0.12 -0.12)">
       <use transform="scale(0.996264)" xlink:href="#CMSY10-0"/>
       <use transform="translate(77.487468 0)scale(0.996264)" xlink:href="#CMR17-31"/>
       <use transform="translate(123.177945 0)scale(0.996264)" xlink:href="#CMR17-30"/>
       <use transform="translate(168.868422 0)scale(0.996264)" xlink:href="#CMR17-30"/>
       <use transform="translate(214.558899 0)scale(0.996264)" xlink:href="#CMR17-30"/>
      </g>
     </g>
    </g>
    <g id="xtick_5">
     <g id="line2d_9">
      <path clip-path="url(#p525f6f2fba)" d="M 187.798526 109.711856 
L 187.798526 24.823055 
" style="fill:none;stroke:#b0b0b0;stroke-linecap:square;stroke-width:0.8;"/>
     </g>
     <g id="line2d_10">
      <g>
       <use style="stroke:#000000;stroke-width:0.8;" x="187.798526" xlink:href="#m4fdd315cab" y="109.711856"/>
      </g>
     </g>
     <g id="text_5">
      <!-- $\mathdefault{−800}$ -->
      <g transform="translate(174.369796 125.014036)scale(0.12 -0.12)">
       <defs>
        <path d="M 1741 2289 
C 2144 2494 2554 2803 2554 3298 
C 2554 3884 1990 4224 1472 4224 
C 890 4224 378 3800 378 3215 
C 378 3054 416 2777 666 2533 
C 730 2469 998 2276 1171 2154 
C 883 2006 211 1652 211 945 
C 211 282 838 -128 1459 -128 
C 2144 -128 2720 366 2720 1022 
C 2720 1607 2330 1877 2074 2051 
L 1741 2289 
z
M 902 2855 
C 851 2887 595 3086 595 3388 
C 595 3781 998 4076 1459 4076 
C 1965 4076 2336 3716 2336 3298 
C 2336 2700 1670 2359 1638 2359 
C 1632 2359 1626 2359 1574 2398 
L 902 2855 
z
M 2080 1536 
C 2176 1466 2483 1253 2483 861 
C 2483 385 2010 25 1472 25 
C 890 25 448 443 448 951 
C 448 1459 838 1884 1280 2083 
L 2080 1536 
z
" id="CMR17-38" transform="scale(0.015625)"/>
       </defs>
       <use transform="scale(0.996264)" xlink:href="#CMSY10-0"/>
       <use transform="translate(77.487468 0)scale(0.996264)" xlink:href="#CMR17-38"/>
       <use transform="translate(123.177945 0)scale(0.996264)" xlink:href="#CMR17-30"/>
       <use transform="translate(168.868422 0)scale(0.996264)" xlink:href="#CMR17-30"/>
      </g>
     </g>
    </g>
    <g id="xtick_6">
     <g id="line2d_11">
      <path clip-path="url(#p525f6f2fba)" d="M 227.458747 109.711856 
L 227.458747 24.823055 
" style="fill:none;stroke:#b0b0b0;stroke-linecap:square;stroke-width:0.8;"/>
     </g>
     <g id="line2d_12">
      <g>
       <use style="stroke:#000000;stroke-width:0.8;" x="227.458747" xlink:href="#m4fdd315cab" y="109.711856"/>
      </g>
     </g>
     <g id="text_6">
      <!-- $\mathdefault{−600}$ -->
      <g transform="translate(214.030017 125.014036)scale(0.12 -0.12)">
       <use transform="scale(0.996264)" xlink:href="#CMSY10-0"/>
       <use transform="translate(77.487468 0)scale(0.996264)" xlink:href="#CMR17-36"/>
       <use transform="translate(123.177945 0)scale(0.996264)" xlink:href="#CMR17-30"/>
       <use transform="translate(168.868422 0)scale(0.996264)" xlink:href="#CMR17-30"/>
      </g>
     </g>
    </g>
    <g id="xtick_7">
     <g id="line2d_13">
      <path clip-path="url(#p525f6f2fba)" d="M 267.118968 109.711856 
L 267.118968 24.823055 
" style="fill:none;stroke:#b0b0b0;stroke-linecap:square;stroke-width:0.8;"/>
     </g>
     <g id="line2d_14">
      <g>
       <use style="stroke:#000000;stroke-width:0.8;" x="267.118968" xlink:href="#m4fdd315cab" y="109.711856"/>
      </g>
     </g>
     <g id="text_7">
      <!-- $\mathdefault{−400}$ -->
      <g transform="translate(253.690238 125.014036)scale(0.12 -0.12)">
       <use transform="scale(0.996264)" xlink:href="#CMSY10-0"/>
       <use transform="translate(77.487468 0)scale(0.996264)" xlink:href="#CMR17-34"/>
       <use transform="translate(123.177945 0)scale(0.996264)" xlink:href="#CMR17-30"/>
       <use transform="translate(168.868422 0)scale(0.996264)" xlink:href="#CMR17-30"/>
      </g>
     </g>
    </g>
    <g id="xtick_8">
     <g id="line2d_15">
      <path clip-path="url(#p525f6f2fba)" d="M 306.779189 109.711856 
L 306.779189 24.823055 
" style="fill:none;stroke:#b0b0b0;stroke-linecap:square;stroke-width:0.8;"/>
     </g>
     <g id="line2d_16">
      <g>
       <use style="stroke:#000000;stroke-width:0.8;" x="306.779189" xlink:href="#m4fdd315cab" y="109.711856"/>
      </g>
     </g>
     <g id="text_8">
      <!-- $\mathdefault{−200}$ -->
      <g transform="translate(293.350459 125.014036)scale(0.12 -0.12)">
       <use transform="scale(0.996264)" xlink:href="#CMSY10-0"/>
       <use transform="translate(77.487468 0)scale(0.996264)" xlink:href="#CMR17-32"/>
       <use transform="translate(123.177945 0)scale(0.996264)" xlink:href="#CMR17-30"/>
       <use transform="translate(168.868422 0)scale(0.996264)" xlink:href="#CMR17-30"/>
      </g>
     </g>
    </g>
    <g id="xtick_9">
     <g id="line2d_17">
      <path clip-path="url(#p525f6f2fba)" d="M 346.43941 109.711856 
L 346.43941 24.823055 
" style="fill:none;stroke:#b0b0b0;stroke-linecap:square;stroke-width:0.8;"/>
     </g>
     <g id="line2d_18">
      <g>
       <use style="stroke:#000000;stroke-width:0.8;" x="346.43941" xlink:href="#m4fdd315cab" y="109.711856"/>
      </g>
     </g>
     <g id="text_9">
      <!-- $\mathdefault{0}$ -->
      <g transform="translate(343.512915 125.014036)scale(0.12 -0.12)">
       <use transform="scale(0.996264)" xlink:href="#CMR17-30"/>
      </g>
     </g>
    </g>
    <g id="xtick_10">
     <g id="line2d_19">
      <path clip-path="url(#p525f6f2fba)" d="M 386.099632 109.711856 
L 386.099632 24.823055 
" style="fill:none;stroke:#b0b0b0;stroke-linecap:square;stroke-width:0.8;"/>
     </g>
     <g id="line2d_20">
      <g>
       <use style="stroke:#000000;stroke-width:0.8;" x="386.099632" xlink:href="#m4fdd315cab" y="109.711856"/>
      </g>
     </g>
     <g id="text_10">
      <!-- $\mathdefault{200}$ -->
      <g transform="translate(377.320146 125.014036)scale(0.12 -0.12)">
       <use transform="scale(0.996264)" xlink:href="#CMR17-32"/>
       <use transform="translate(45.690477 0)scale(0.996264)" xlink:href="#CMR17-30"/>
       <use transform="translate(91.380954 0)scale(0.996264)" xlink:href="#CMR17-30"/>
      </g>
     </g>
    </g>
    <g id="xtick_11">
     <g id="line2d_21">
      <path clip-path="url(#p525f6f2fba)" d="M 425.759853 109.711856 
L 425.759853 24.823055 
" style="fill:none;stroke:#b0b0b0;stroke-linecap:square;stroke-width:0.8;"/>
     </g>
     <g id="line2d_22">
      <g>
       <use style="stroke:#000000;stroke-width:0.8;" x="425.759853" xlink:href="#m4fdd315cab" y="109.711856"/>
      </g>
     </g>
     <g id="text_11">
      <!-- $\mathdefault{400}$ -->
      <g transform="translate(416.980367 125.014036)scale(0.12 -0.12)">
       <use transform="scale(0.996264)" xlink:href="#CMR17-34"/>
       <use transform="translate(45.690477 0)scale(0.996264)" xlink:href="#CMR17-30"/>
       <use transform="translate(91.380954 0)scale(0.996264)" xlink:href="#CMR17-30"/>
      </g>
     </g>
    </g>
    <g id="xtick_12">
     <g id="line2d_23">
      <path clip-path="url(#p525f6f2fba)" d="M 465.420074 109.711856 
L 465.420074 24.823055 
" style="fill:none;stroke:#b0b0b0;stroke-linecap:square;stroke-width:0.8;"/>
     </g>
     <g id="line2d_24">
      <g>
       <use style="stroke:#000000;stroke-width:0.8;" x="465.420074" xlink:href="#m4fdd315cab" y="109.711856"/>
      </g>
     </g>
     <g id="text_12">
      <!-- $\mathdefault{600}$ -->
      <g transform="translate(456.640588 125.014036)scale(0.12 -0.12)">
       <use transform="scale(0.996264)" xlink:href="#CMR17-36"/>
       <use transform="translate(45.690477 0)scale(0.996264)" xlink:href="#CMR17-30"/>
       <use transform="translate(91.380954 0)scale(0.996264)" xlink:href="#CMR17-30"/>
      </g>
     </g>
    </g>
    <g id="xtick_13">
     <g id="line2d_25">
      <path clip-path="url(#p525f6f2fba)" d="M 505.080295 109.711856 
L 505.080295 24.823055 
" style="fill:none;stroke:#b0b0b0;stroke-linecap:square;stroke-width:0.8;"/>
     </g>
     <g id="line2d_26">
      <g>
       <use style="stroke:#000000;stroke-width:0.8;" x="505.080295" xlink:href="#m4fdd315cab" y="109.711856"/>
      </g>
     </g>
     <g id="text_13">
      <!-- $\mathdefault{800}$ -->
      <g transform="translate(496.300809 125.014036)scale(0.12 -0.12)">
       <use transform="scale(0.996264)" xlink:href="#CMR17-38"/>
       <use transform="translate(45.690477 0)scale(0.996264)" xlink:href="#CMR17-30"/>
       <use transform="translate(91.380954 0)scale(0.996264)" xlink:href="#CMR17-30"/>
      </g>
     </g>
    </g>
    <g id="xtick_14">
     <g id="line2d_27">
      <path clip-path="url(#p525f6f2fba)" d="M 544.740516 109.711856 
L 544.740516 24.823055 
" style="fill:none;stroke:#b0b0b0;stroke-linecap:square;stroke-width:0.8;"/>
     </g>
     <g id="line2d_28">
      <g>
       <use style="stroke:#000000;stroke-width:0.8;" x="544.740516" xlink:href="#m4fdd315cab" y="109.711856"/>
      </g>
     </g>
     <g id="text_14">
      <!-- $\mathdefault{1000}$ -->
      <g transform="translate(533.034535 125.014036)scale(0.12 -0.12)">
       <use transform="scale(0.996264)" xlink:href="#CMR17-31"/>
       <use transform="translate(45.690477 0)scale(0.996264)" xlink:href="#CMR17-30"/>
       <use transform="translate(91.380954 0)scale(0.996264)" xlink:href="#CMR17-30"/>
       <use transform="translate(137.071431 0)scale(0.996264)" xlink:href="#CMR17-30"/>
      </g>
     </g>
    </g>
    <g id="xtick_15">
     <g id="line2d_29">
      <path clip-path="url(#p525f6f2fba)" d="M 584.400737 109.711856 
L 584.400737 24.823055 
" style="fill:none;stroke:#b0b0b0;stroke-linecap:square;stroke-width:0.8;"/>
     </g>
     <g id="line2d_30">
      <g>
       <use style="stroke:#000000;stroke-width:0.8;" x="584.400737" xlink:href="#m4fdd315cab" y="109.711856"/>
      </g>
     </g>
     <g id="text_15">
      <!-- $\mathdefault{1200}$ -->
      <g transform="translate(572.694756 125.014036)scale(0.12 -0.12)">
       <use transform="scale(0.996264)" xlink:href="#CMR17-31"/>
       <use transform="translate(45.690477 0)scale(0.996264)" xlink:href="#CMR17-32"/>
       <use transform="translate(91.380954 0)scale(0.996264)" xlink:href="#CMR17-30"/>
       <use transform="translate(137.071431 0)scale(0.996264)" xlink:href="#CMR17-30"/>
      </g>
     </g>
    </g>
    <g id="xtick_16">
     <g id="line2d_31">
      <path clip-path="url(#p525f6f2fba)" d="M 624.060958 109.711856 
L 624.060958 24.823055 
" style="fill:none;stroke:#b0b0b0;stroke-linecap:square;stroke-width:0.8;"/>
     </g>
     <g id="line2d_32">
      <g>
       <use style="stroke:#000000;stroke-width:0.8;" x="624.060958" xlink:href="#m4fdd315cab" y="109.711856"/>
      </g>
     </g>
     <g id="text_16">
      <!-- $\mathdefault{1400}$ -->
      <g transform="translate(612.354978 125.014036)scale(0.12 -0.12)">
       <use transform="scale(0.996264)" xlink:href="#CMR17-31"/>
       <use transform="translate(45.690477 0)scale(0.996264)" xlink:href="#CMR17-34"/>
       <use transform="translate(91.380954 0)scale(0.996264)" xlink:href="#CMR17-30"/>
       <use transform="translate(137.071431 0)scale(0.996264)" xlink:href="#CMR17-30"/>
      </g>
     </g>
    </g>
    <g id="xtick_17">
     <g id="line2d_33">
      <path clip-path="url(#p525f6f2fba)" d="M 663.721179 109.711856 
L 663.721179 24.823055 
" style="fill:none;stroke:#b0b0b0;stroke-linecap:square;stroke-width:0.8;"/>
     </g>
     <g id="line2d_34">
      <g>
       <use style="stroke:#000000;stroke-width:0.8;" x="663.721179" xlink:href="#m4fdd315cab" y="109.711856"/>
      </g>
     </g>
     <g id="text_17">
      <!-- $\mathdefault{1600}$ -->
      <g transform="translate(652.015199 125.014036)scale(0.12 -0.12)">
       <use transform="scale(0.996264)" xlink:href="#CMR17-31"/>
       <use transform="translate(45.690477 0)scale(0.996264)" xlink:href="#CMR17-36"/>
       <use transform="translate(91.380954 0)scale(0.996264)" xlink:href="#CMR17-30"/>
       <use transform="translate(137.071431 0)scale(0.996264)" xlink:href="#CMR17-30"/>
      </g>
     </g>
    </g>
   </g>
   <g id="matplotlib.axis_2">
    <g id="ytick_1">
     <g id="line2d_35">
      <path clip-path="url(#p525f6f2fba)" d="M 29.157642 105.853274 
L 663.721179 105.853274 
" style="fill:none;stroke:#b0b0b0;stroke-linecap:square;stroke-width:0.8;"/>
     </g>
     <g id="line2d_36">
      <defs>
       <path d="M 0 0 
L -3.5 0 
" id="m7e9c7b1381" style="stroke:#000000;stroke-width:0.8;"/>
      </defs>
      <g>
       <use style="stroke:#000000;stroke-width:0.8;" x="29.157642" xlink:href="#m7e9c7b1381" y="105.853274"/>
      </g>
     </g>
     <g id="text_18">
      <!-- $\mathdefault{0.0}$ -->
      <g transform="translate(7.2 110.004364)scale(0.12 -0.12)">
       <defs>
        <path d="M 1178 307 
C 1178 492 1024 620 870 620 
C 685 620 557 467 557 313 
C 557 128 710 0 864 0 
C 1050 0 1178 153 1178 307 
z
" id="CMMI12-3a" transform="scale(0.015625)"/>
       </defs>
       <use transform="scale(0.996264)" xlink:href="#CMR17-30"/>
       <use transform="translate(45.690477 0)scale(0.996264)" xlink:href="#CMMI12-3a"/>
       <use transform="translate(72.787654 0)scale(0.996264)" xlink:href="#CMR17-30"/>
      </g>
     </g>
    </g>
    <g id="ytick_2">
     <g id="line2d_37">
      <path clip-path="url(#p525f6f2fba)" d="M 29.157642 74.984619 
L 663.721179 74.984619 
" style="fill:none;stroke:#b0b0b0;stroke-linecap:square;stroke-width:0.8;"/>
     </g>
     <g id="line2d_38">
      <g>
       <use style="stroke:#000000;stroke-width:0.8;" x="29.157642" xlink:href="#m7e9c7b1381" y="74.984619"/>
      </g>
     </g>
     <g id="text_19">
      <!-- $\mathdefault{0.2}$ -->
      <g transform="translate(7.2 79.135709)scale(0.12 -0.12)">
       <use transform="scale(0.996264)" xlink:href="#CMR17-30"/>
       <use transform="translate(45.690477 0)scale(0.996264)" xlink:href="#CMMI12-3a"/>
       <use transform="translate(72.787654 0)scale(0.996264)" xlink:href="#CMR17-32"/>
      </g>
     </g>
    </g>
    <g id="ytick_3">
     <g id="line2d_39">
      <path clip-path="url(#p525f6f2fba)" d="M 29.157642 44.115964 
L 663.721179 44.115964 
" style="fill:none;stroke:#b0b0b0;stroke-linecap:square;stroke-width:0.8;"/>
     </g>
     <g id="line2d_40">
      <g>
       <use style="stroke:#000000;stroke-width:0.8;" x="29.157642" xlink:href="#m7e9c7b1381" y="44.115964"/>
      </g>
     </g>
     <g id="text_20">
      <!-- $\mathdefault{0.4}$ -->
      <g transform="translate(7.2 48.267054)scale(0.12 -0.12)">
       <use transform="scale(0.996264)" xlink:href="#CMR17-30"/>
       <use transform="translate(45.690477 0)scale(0.996264)" xlink:href="#CMMI12-3a"/>
       <use transform="translate(72.787654 0)scale(0.996264)" xlink:href="#CMR17-34"/>
      </g>
     </g>
    </g>
   </g>
   <g id="line2d_41">
    <path clip-path="url(#p525f6f2fba)" d="M 29.157642 105.853274 
L 663.721179 105.853274 
" style="fill:none;stroke:#1f77b4;stroke-linecap:square;stroke-width:1.5;"/>
   </g>
   <g id="line2d_42">
    <path clip-path="url(#p525f6f2fba)" d="M 279.017035 36.3988 
L 282.983057 28.681637 
L 282.983057 105.853274 
L 282.983057 28.681637 
L 286.949079 36.3988 
" style="fill:none;stroke:#1f77b4;stroke-linecap:square;stroke-width:1.5;"/>
   </g>
   <g id="line2d_43">
    <path clip-path="url(#p525f6f2fba)" d="M 405.929742 36.3988 
L 409.895764 28.681637 
L 409.895764 105.853274 
L 409.895764 28.681637 
L 413.861786 36.3988 
" style="fill:none;stroke:#1f77b4;stroke-linecap:square;stroke-width:1.5;"/>
   </g>
   <g id="line2d_44">
    <path clip-path="url(#p525f6f2fba)" d="M 405.929742 36.3988 
L 409.895764 28.681637 
L 409.895764 105.853274 
L 409.895764 28.681637 
L 413.861786 36.3988 
" style="fill:none;stroke:#1f77b4;stroke-linecap:square;stroke-width:1.5;"/>
   </g>
   <g id="line2d_45">
    <path clip-path="url(#p525f6f2fba)" d="M 279.017035 36.3988 
L 282.983057 28.681637 
L 282.983057 105.853274 
L 282.983057 28.681637 
L 286.949079 36.3988 
" style="fill:none;stroke:#1f77b4;stroke-linecap:square;stroke-width:1.5;"/>
   </g>
   <g id="patch_3">
    <path d="M 29.157642 109.711856 
L 29.157642 24.823055 
" style="fill:none;stroke:#000000;stroke-linecap:square;stroke-linejoin:miter;stroke-width:0.8;"/>
   </g>
   <g id="patch_4">
    <path d="M 663.721179 109.711856 
L 663.721179 24.823055 
" style="fill:none;stroke:#000000;stroke-linecap:square;stroke-linejoin:miter;stroke-width:0.8;"/>
   </g>
   <g id="patch_5">
    <path d="M 29.157642 109.711856 
L 663.721179 109.711856 
" style="fill:none;stroke:#000000;stroke-linecap:square;stroke-linejoin:miter;stroke-width:0.8;"/>
   </g>
   <g id="patch_6">
    <path d="M 29.157642 24.823055 
L 663.721179 24.823055 
" style="fill:none;stroke:#000000;stroke-linecap:square;stroke-linejoin:miter;stroke-width:0.8;"/>
   </g>
   <g id="patch_7">
    <path d="M 436.254304 81.068333 
Q 423.803819 92.775526 412.167843 103.716838 
" style="fill:none;stroke:#000000;stroke-linecap:round;"/>
    <path d="M 418.16562 101.920543 
L 412.167843 103.716838 
L 414.329474 97.840839 
" style="fill:none;stroke:#000000;stroke-linecap:round;"/>
   </g>
   <g id="text_21">
    <!-- 320 Hz -->
    <g transform="translate(425.759853 74.984619)scale(0.14 -0.14)">
     <defs>
      <path d="M 1414 2176 
C 1984 2176 2234 1673 2234 1094 
C 2234 322 1824 25 1453 25 
C 1114 25 563 193 390 691 
C 422 678 454 678 486 678 
C 640 678 755 780 755 947 
C 755 1132 614 1216 486 1216 
C 378 1216 211 1164 211 927 
C 211 335 787 -128 1466 -128 
C 2176 -128 2720 432 2720 1087 
C 2720 1718 2208 2176 1600 2246 
C 2086 2347 2554 2776 2554 3353 
C 2554 3856 2048 4224 1472 4224 
C 890 4224 378 3862 378 3347 
C 378 3123 544 3084 627 3084 
C 762 3084 877 3167 877 3334 
C 877 3500 762 3584 627 3584 
C 602 3584 570 3584 544 3571 
C 730 3999 1235 4076 1459 4076 
C 1683 4076 2106 3966 2106 3347 
C 2106 3167 2080 2851 1862 2574 
C 1670 2329 1453 2316 1242 2297 
C 1210 2297 1062 2284 1037 2284 
C 992 2278 966 2272 966 2227 
C 966 2182 973 2176 1101 2176 
L 1414 2176 
z
" id="CMR17-33" transform="scale(0.015625)"/>
      <path d="M 3590 3898 
C 3590 4185 3661 4185 4102 4185 
L 4102 4352 
C 3917 4339 3578 4339 3379 4339 
C 3181 4339 2842 4339 2656 4352 
L 2656 4185 
C 3098 4185 3168 4185 3168 3898 
L 3168 2342 
L 1261 2342 
L 1261 3898 
C 1261 4185 1331 4185 1773 4185 
L 1773 4352 
C 1587 4339 1248 4339 1050 4339 
C 851 4339 512 4339 326 4352 
L 326 4185 
C 768 4185 838 4185 838 3898 
L 838 452 
C 838 166 768 166 326 166 
L 326 0 
C 512 12 851 12 1050 12 
C 1248 12 1587 12 1773 0 
L 1773 166 
C 1331 166 1261 166 1261 452 
L 1261 2176 
L 3168 2176 
L 3168 452 
C 3168 166 3098 166 2656 166 
L 2656 0 
C 2842 12 3181 12 3379 12 
C 3578 12 3917 12 4102 0 
L 4102 166 
C 3661 166 3590 166 3590 452 
L 3590 3898 
z
" id="CMR17-48" transform="scale(0.015625)"/>
      <path d="M 2310 2604 
C 2362 2668 2362 2681 2362 2694 
C 2362 2752 2336 2752 2221 2752 
L 275 2752 
L 211 1760 
L 326 1760 
C 371 2380 442 2649 1178 2649 
L 1958 2649 
L 128 96 
C 128 6 134 0 269 0 
L 2291 0 
L 2381 1152 
L 2266 1152 
C 2214 441 2131 115 1350 115 
L 531 115 
L 2310 2604 
z
" id="CMR17-7a" transform="scale(0.015625)"/>
     </defs>
     <use transform="scale(0.996264)" xlink:href="#CMR17-33"/>
     <use transform="translate(45.690477 0)scale(0.996264)" xlink:href="#CMR17-32"/>
     <use transform="translate(91.380954 0)scale(0.996264)" xlink:href="#CMR17-30"/>
     <use transform="translate(167.147398 0)scale(0.996264)" xlink:href="#CMR17-48"/>
     <use transform="translate(236.219828 0)scale(0.996264)" xlink:href="#CMR17-7a"/>
    </g>
   </g>
   <g id="text_22">
    <!-- Sinusoïde analogique à 320 Hz -->
    <g transform="translate(237.823831 18.823055)scale(0.168 -0.168)">
     <defs>
      <path d="M 2803 4351 
C 2803 4467 2797 4473 2758 4473 
C 2720 4473 2707 4447 2682 4390 
L 2490 3965 
C 2246 4320 1875 4480 1472 4480 
C 819 4480 294 3958 294 3301 
C 294 3101 339 2817 557 2546 
C 794 2250 1018 2198 1530 2063 
C 1722 2011 2042 1927 2106 1901 
C 2470 1747 2662 1360 2662 999 
C 2662 534 2336 38 1779 38 
C 1094 38 454 425 410 1328 
C 403 1431 397 1437 352 1437 
C 301 1437 294 1431 294 1302 
L 294 0 
C 294 -116 301 -122 339 -122 
C 384 -122 397 -90 486 109 
C 493 128 493 141 614 386 
C 934 -39 1472 -128 1779 -128 
C 2477 -128 2970 457 2970 1141 
C 2970 1476 2848 1734 2778 1850 
C 2509 2263 2221 2340 1914 2417 
C 1869 2437 1856 2437 1498 2527 
C 1152 2617 1005 2662 845 2836 
C 666 3036 602 3243 602 3449 
C 602 3868 934 4326 1478 4326 
C 2157 4326 2579 3842 2675 3036 
C 2694 2920 2701 2914 2746 2914 
C 2803 2914 2803 2933 2803 3043 
L 2803 4351 
z
" id="CMR17-53" transform="scale(0.015625)"/>
      <path d="M 992 3961 
C 992 4102 877 4224 730 4224 
C 589 4224 467 4108 467 3961 
C 467 3820 582 3699 730 3699 
C 870 3699 992 3814 992 3961 
z
M 243 2745 
L 243 2579 
C 602 2579 653 2540 653 2231 
L 653 443 
C 653 198 627 166 218 166 
L 218 0 
C 371 12 646 12 806 12 
C 960 12 1222 12 1370 0 
L 1370 166 
C 992 166 979 205 979 436 
L 979 2816 
L 243 2745 
z
" id="CMR17-69" transform="scale(0.015625)"/>
      <path d="M 2656 1954 
C 2656 2282 2592 2816 1837 2816 
C 1331 2816 1069 2424 973 2166 
L 966 2166 
L 966 2816 
L 211 2745 
L 211 2578 
C 589 2578 646 2540 646 2231 
L 646 443 
C 646 198 621 166 211 166 
L 211 0 
C 365 12 646 12 813 12 
C 979 12 1267 12 1421 0 
L 1421 166 
C 1011 166 986 192 986 443 
L 986 1678 
C 986 2269 1344 2713 1792 2713 
C 2266 2713 2317 2289 2317 1980 
L 2317 443 
C 2317 198 2291 166 1882 166 
L 1882 0 
C 2035 12 2317 12 2483 12 
C 2650 12 2938 12 3091 0 
L 3091 166 
C 2682 166 2656 192 2656 443 
L 2656 1954 
z
" id="CMR17-6e" transform="scale(0.015625)"/>
      <path d="M 1882 2745 
L 1882 2579 
C 2259 2579 2317 2540 2317 2229 
L 2317 1053 
C 2317 510 2029 38 1555 38 
C 1030 38 986 355 986 691 
L 986 2816 
L 211 2745 
L 211 2579 
C 467 2579 640 2579 646 2320 
L 646 1079 
C 646 646 646 368 813 187 
C 896 103 1056 -64 1517 -64 
C 2061 -64 2272 400 2323 536 
L 2330 536 
L 2330 -64 
L 3091 -13 
L 3091 154 
C 2714 154 2656 193 2656 503 
L 2656 2816 
L 1882 2745 
z
" id="CMR17-75" transform="scale(0.015625)"/>
      <path d="M 1978 2688 
C 1978 2803 1971 2809 1933 2809 
C 1907 2809 1901 2803 1824 2707 
C 1805 2681 1747 2617 1728 2592 
C 1523 2809 1235 2816 1126 2816 
C 416 2816 160 2444 160 2073 
C 160 1497 813 1363 998 1324 
C 1402 1241 1542 1216 1677 1100 
C 1760 1024 1901 883 1901 652 
C 1901 384 1747 38 1158 38 
C 602 38 403 460 288 1024 
C 269 1113 269 1120 218 1120 
C 166 1120 160 1113 160 985 
L 160 64 
C 160 -52 166 -58 205 -58 
C 237 -58 243 -52 275 0 
C 314 57 410 211 448 275 
C 576 102 800 -64 1158 -64 
C 1792 -64 2131 281 2131 780 
C 2131 1107 1958 1280 1875 1356 
C 1683 1555 1459 1600 1190 1651 
C 838 1728 390 1817 390 2208 
C 390 2374 480 2726 1126 2726 
C 1811 2726 1850 2086 1862 1881 
C 1869 1849 1901 1843 1920 1843 
C 1978 1843 1978 1862 1978 1971 
L 1978 2688 
z
" id="CMR17-73" transform="scale(0.015625)"/>
      <path d="M 2758 1356 
C 2758 2176 2163 2816 1466 2816 
C 768 2816 173 2176 173 1356 
C 173 550 768 -64 1466 -64 
C 2163 -64 2758 550 2758 1356 
z
M 1466 51 
C 1165 51 909 230 762 480 
C 602 768 582 1126 582 1408 
C 582 1676 595 2009 762 2297 
C 890 2508 1139 2713 1466 2713 
C 1754 2713 1997 2553 2150 2329 
C 2349 2028 2349 1606 2349 1408 
C 2349 1158 2336 774 2163 467 
C 1984 172 1709 51 1466 51 
z
" id="CMR17-6f" transform="scale(0.015625)"/>
      <path d="M 1133 3961 
C 1133 4121 1005 4217 883 4217 
C 717 4217 627 4076 627 3968 
C 627 3840 730 3712 883 3712 
C 1018 3712 1133 3820 1133 3961 
z
M 2304 3961 
C 2304 4089 2202 4217 2048 4217 
C 1914 4217 1798 4108 1798 3968 
C 1798 3808 1926 3712 2048 3712 
C 2214 3712 2304 3852 2304 3961 
z
" id="CMR17-7f" transform="scale(0.015625)"/>
      <path d="M 979 2816 
L 243 2745 
L 243 2579 
C 602 2579 653 2540 653 2231 
L 653 443 
C 653 198 627 166 218 166 
L 218 0 
C 371 12 646 12 806 12 
C 960 12 1222 12 1370 0 
L 1370 166 
C 992 166 979 205 979 436 
L 979 2816 
z
" id="CMR17-10" transform="scale(0.015625)"/>
      <path d="M 1869 4345 
L 1869 4179 
C 2246 4179 2304 4141 2304 3843 
L 2304 2371 
C 2278 2403 2016 2816 1498 2816 
C 845 2816 211 2228 211 1376 
C 211 529 806 -64 1434 -64 
C 1978 -64 2259 361 2291 406 
L 2291 -64 
L 3066 -13 
L 3066 154 
C 2688 154 2630 193 2630 503 
L 2630 4416 
L 1869 4345 
z
M 2291 762 
C 2291 568 2176 393 2029 264 
C 1811 70 1594 38 1472 38 
C 1286 38 621 135 621 1369 
C 621 2636 1363 2713 1530 2713 
C 1824 2713 2061 2545 2208 2313 
C 2291 2177 2291 2157 2291 2041 
L 2291 762 
z
" id="CMR17-64" transform="scale(0.015625)"/>
      <path d="M 2438 1503 
C 2464 1529 2464 1542 2464 1606 
C 2464 2251 2118 2816 1389 2816 
C 710 2816 173 2175 173 1394 
C 173 554 781 -64 1459 -64 
C 2176 -64 2458 619 2458 755 
C 2458 800 2419 800 2406 800 
C 2362 800 2355 787 2330 709 
C 2189 270 1837 51 1504 51 
C 1229 51 954 206 781 490 
C 582 819 582 1200 582 1503 
L 2438 1503 
z
M 589 1600 
C 634 2511 1126 2713 1382 2713 
C 1818 2713 2112 2308 2118 1600 
L 589 1600 
z
" id="CMR17-65" transform="scale(0.015625)"/>
      <path d="M 2304 1656 
C 2304 2048 2304 2275 2035 2534 
C 1798 2751 1523 2816 1306 2816 
C 800 2816 435 2408 435 1977 
C 435 1740 627 1728 666 1728 
C 749 1728 896 1779 896 1958 
C 896 2118 774 2188 666 2188 
C 640 2188 608 2182 589 2176 
C 723 2594 1069 2713 1293 2713 
C 1613 2713 1965 2421 1965 1875 
L 1965 1632 
C 1587 1619 1133 1568 774 1373 
C 371 1147 256 822 256 576 
C 256 77 832 -64 1171 -64 
C 1523 -64 1850 135 1990 505 
C 2003 219 2182 -39 2464 -39 
C 2598 -39 2938 51 2938 563 
L 2938 926 
L 2822 926 
L 2822 557 
C 2822 161 2650 109 2566 109 
C 2304 109 2304 446 2304 732 
L 2304 1656 
z
M 1965 887 
C 1965 323 1568 38 1216 38 
C 896 38 646 278 646 576 
C 646 771 730 1114 1101 1322 
C 1408 1497 1760 1523 1965 1536 
L 1965 887 
z
" id="CMR17-61" transform="scale(0.015625)"/>
      <path d="M 979 4416 
L 218 4345 
L 218 4179 
C 595 4179 653 4141 653 3835 
L 653 439 
C 653 198 627 166 218 166 
L 218 0 
C 371 12 653 12 813 12 
C 979 12 1261 12 1414 0 
L 1414 166 
C 1005 166 979 191 979 439 
L 979 4416 
z
" id="CMR17-6c" transform="scale(0.015625)"/>
      <path d="M 710 1165 
C 832 1068 1043 960 1299 960 
C 1805 960 2240 1359 2240 1895 
C 2240 2063 2189 2321 1997 2521 
C 2176 2713 2438 2777 2586 2777 
C 2611 2777 2650 2777 2682 2758 
C 2656 2751 2598 2726 2598 2623 
C 2598 2540 2656 2483 2739 2483 
C 2835 2483 2886 2547 2886 2630 
C 2886 2751 2790 2880 2586 2880 
C 2330 2880 2106 2758 1926 2591 
C 1734 2764 1504 2828 1299 2828 
C 794 2828 358 2431 358 1895 
C 358 1527 570 1294 634 1230 
C 442 1004 442 742 442 710 
C 442 544 506 300 723 166 
C 390 82 128 -184 128 -517 
C 128 -996 736 -1344 1466 -1344 
C 2170 -1344 2803 -1009 2803 -510 
C 2803 384 1856 384 1363 384 
C 1216 384 954 384 922 390 
C 723 422 589 601 589 825 
C 589 883 589 1024 710 1165 
z
M 1299 1068 
C 736 1068 736 1766 736 1895 
C 736 2024 736 2719 1299 2719 
C 1862 2719 1862 2024 1862 1895 
C 1862 1766 1862 1068 1299 1068 
z
M 1466 -1236 
C 826 -1236 384 -883 384 -517 
C 384 -311 493 -118 634 -11 
C 794 102 858 102 1293 102 
C 1818 102 2547 102 2547 -517 
C 2547 -883 2106 -1236 1466 -1236 
z
" id="CMR17-67" transform="scale(0.015625)"/>
      <path d="M 2630 2816 
L 2528 2816 
L 2336 2177 
C 2189 2519 1920 2816 1491 2816 
C 838 2816 211 2228 211 1376 
C 211 529 800 -64 1440 -64 
C 1933 -64 2208 316 2291 458 
L 2291 -834 
C 2291 -1081 2266 -1114 1856 -1114 
L 1856 -1280 
C 2010 -1268 2291 -1268 2458 -1268 
C 2624 -1268 2912 -1268 3066 -1280 
L 3066 -1114 
C 2656 -1114 2630 -1088 2630 -834 
L 2630 2816 
z
M 2304 871 
C 2304 594 2074 335 2054 316 
C 1856 90 1626 38 1472 38 
C 992 38 621 652 621 1369 
C 621 2125 1043 2700 1536 2700 
C 2048 2700 2304 2112 2304 1776 
L 2304 871 
z
" id="CMR17-71" transform="scale(0.015625)"/>
      <path d="M 1651 3321 
C 1670 3340 1715 3391 1728 3398 
L 1005 4308 
C 870 4473 864 4480 787 4480 
C 698 4480 614 4396 614 4308 
C 614 4245 653 4207 659 4195 
C 672 4189 941 3944 1165 3744 
L 1651 3321 
z
" id="CMR17-12" transform="scale(0.015625)"/>
     </defs>
     <use transform="scale(0.996264)" xlink:href="#CMR17-53"/>
     <use transform="translate(50.89537 0)scale(0.996264)" xlink:href="#CMR17-69"/>
     <use transform="translate(75.766428 0)scale(0.996264)" xlink:href="#CMR17-6e"/>
     <use transform="translate(124.059344 0)scale(0.996264)" xlink:href="#CMR17-75"/>
     <use transform="translate(174.954714 0)scale(0.996264)" xlink:href="#CMR17-73"/>
     <use transform="translate(210.756052 0)scale(0.996264)" xlink:href="#CMR17-6f"/>
     <use transform="translate(246.036819 0)scale(0.996264)" xlink:href="#CMR17-7f"/>
     <use transform="translate(256.446529 0)scale(0.996264)" xlink:href="#CMR17-10"/>
     <use transform="translate(281.317587 0)scale(0.996264)" xlink:href="#CMR17-64"/>
     <use transform="translate(332.212957 0)scale(0.996264)" xlink:href="#CMR17-65"/>
     <use transform="translate(402.774584 0)scale(0.996264)" xlink:href="#CMR17-61"/>
     <use transform="translate(448.465061 0)scale(0.996264)" xlink:href="#CMR17-6e"/>
     <use transform="translate(499.360431 0)scale(0.996264)" xlink:href="#CMR17-61"/>
     <use transform="translate(545.050908 0)scale(0.996264)" xlink:href="#CMR17-6c"/>
     <use transform="translate(569.921966 0)scale(0.996264)" xlink:href="#CMR17-6f"/>
     <use transform="translate(615.612443 0)scale(0.996264)" xlink:href="#CMR17-67"/>
     <use transform="translate(661.30292 0)scale(0.996264)" xlink:href="#CMR17-69"/>
     <use transform="translate(686.173979 0)scale(0.996264)" xlink:href="#CMR17-71"/>
     <use transform="translate(734.466895 0)scale(0.996264)" xlink:href="#CMR17-75"/>
     <use transform="translate(785.362265 0)scale(0.996264)" xlink:href="#CMR17-65"/>
     <use transform="translate(855.923891 0)scale(0.996264)" xlink:href="#CMR17-12"/>
     <use transform="translate(855.923891 0)scale(0.996264)" xlink:href="#CMR17-61"/>
     <use transform="translate(931.690335 0)scale(0.996264)" xlink:href="#CMR17-33"/>
     <use transform="translate(977.380812 0)scale(0.996264)" xlink:href="#CMR17-32"/>
     <use transform="translate(1023.071289 0)scale(0.996264)" xlink:href="#CMR17-30"/>
     <use transform="translate(1098.837733 0)scale(0.996264)" xlink:href="#CMR17-48"/>
     <use transform="translate(1167.910162 0)scale(0.996264)" xlink:href="#CMR17-7a"/>
    </g>
   </g>
  </g>
  <g id="axes_2">
   <g id="patch_8">
    <path d="M 29.157642 244.378523 
L 663.721179 244.378523 
L 663.721179 159.489721 
L 29.157642 159.489721 
z
" style="fill:#ffffff;"/>
   </g>
   <g id="matplotlib.axis_3">
    <g id="xtick_18">
     <g id="line2d_46">
      <path clip-path="url(#p120e4a8d43)" d="M 29.157642 244.378523 
L 29.157642 159.489721 
" style="fill:none;stroke:#b0b0b0;stroke-linecap:square;stroke-width:0.8;"/>
     </g>
     <g id="line2d_47">
      <g>
       <use style="stroke:#000000;stroke-width:0.8;" x="29.157642" xlink:href="#m4fdd315cab" y="244.378523"/>
      </g>
     </g>
     <g id="text_23">
      <!-- $\mathdefault{−1600}$ -->
      <g transform="translate(12.802417 259.680702)scale(0.12 -0.12)">
       <use transform="scale(0.996264)" xlink:href="#CMSY10-0"/>
       <use transform="translate(77.487468 0)scale(0.996264)" xlink:href="#CMR17-31"/>
       <use transform="translate(123.177945 0)scale(0.996264)" xlink:href="#CMR17-36"/>
       <use transform="translate(168.868422 0)scale(0.996264)" xlink:href="#CMR17-30"/>
       <use transform="translate(214.558899 0)scale(0.996264)" xlink:href="#CMR17-30"/>
      </g>
     </g>
    </g>
    <g id="xtick_19">
     <g id="line2d_48">
      <path clip-path="url(#p120e4a8d43)" d="M 68.817863 244.378523 
L 68.817863 159.489721 
" style="fill:none;stroke:#b0b0b0;stroke-linecap:square;stroke-width:0.8;"/>
     </g>
     <g id="line2d_49">
      <g>
       <use style="stroke:#000000;stroke-width:0.8;" x="68.817863" xlink:href="#m4fdd315cab" y="244.378523"/>
      </g>
     </g>
     <g id="text_24">
      <!-- $\mathdefault{−1400}$ -->
      <g transform="translate(52.462638 259.680702)scale(0.12 -0.12)">
       <use transform="scale(0.996264)" xlink:href="#CMSY10-0"/>
       <use transform="translate(77.487468 0)scale(0.996264)" xlink:href="#CMR17-31"/>
       <use transform="translate(123.177945 0)scale(0.996264)" xlink:href="#CMR17-34"/>
       <use transform="translate(168.868422 0)scale(0.996264)" xlink:href="#CMR17-30"/>
       <use transform="translate(214.558899 0)scale(0.996264)" xlink:href="#CMR17-30"/>
      </g>
     </g>
    </g>
    <g id="xtick_20">
     <g id="line2d_50">
      <path clip-path="url(#p120e4a8d43)" d="M 108.478084 244.378523 
L 108.478084 159.489721 
" style="fill:none;stroke:#b0b0b0;stroke-linecap:square;stroke-width:0.8;"/>
     </g>
     <g id="line2d_51">
      <g>
       <use style="stroke:#000000;stroke-width:0.8;" x="108.478084" xlink:href="#m4fdd315cab" y="244.378523"/>
      </g>
     </g>
     <g id="text_25">
      <!-- $\mathdefault{−1200}$ -->
      <g transform="translate(92.122859 259.680702)scale(0.12 -0.12)">
       <use transform="scale(0.996264)" xlink:href="#CMSY10-0"/>
       <use transform="translate(77.487468 0)scale(0.996264)" xlink:href="#CMR17-31"/>
       <use transform="translate(123.177945 0)scale(0.996264)" xlink:href="#CMR17-32"/>
       <use transform="translate(168.868422 0)scale(0.996264)" xlink:href="#CMR17-30"/>
       <use transform="translate(214.558899 0)scale(0.996264)" xlink:href="#CMR17-30"/>
      </g>
     </g>
    </g>
    <g id="xtick_21">
     <g id="line2d_52">
      <path clip-path="url(#p120e4a8d43)" d="M 148.138305 244.378523 
L 148.138305 159.489721 
" style="fill:none;stroke:#b0b0b0;stroke-linecap:square;stroke-width:0.8;"/>
     </g>
     <g id="line2d_53">
      <g>
       <use style="stroke:#000000;stroke-width:0.8;" x="148.138305" xlink:href="#m4fdd315cab" y="244.378523"/>
      </g>
     </g>
     <g id="text_26">
      <!-- $\mathdefault{−1000}$ -->
      <g transform="translate(131.78308 259.680702)scale(0.12 -0.12)">
       <use transform="scale(0.996264)" xlink:href="#CMSY10-0"/>
       <use transform="translate(77.487468 0)scale(0.996264)" xlink:href="#CMR17-31"/>
       <use transform="translate(123.177945 0)scale(0.996264)" xlink:href="#CMR17-30"/>
       <use transform="translate(168.868422 0)scale(0.996264)" xlink:href="#CMR17-30"/>
       <use transform="translate(214.558899 0)scale(0.996264)" xlink:href="#CMR17-30"/>
      </g>
     </g>
    </g>
    <g id="xtick_22">
     <g id="line2d_54">
      <path clip-path="url(#p120e4a8d43)" d="M 187.798526 244.378523 
L 187.798526 159.489721 
" style="fill:none;stroke:#b0b0b0;stroke-linecap:square;stroke-width:0.8;"/>
     </g>
     <g id="line2d_55">
      <g>
       <use style="stroke:#000000;stroke-width:0.8;" x="187.798526" xlink:href="#m4fdd315cab" y="244.378523"/>
      </g>
     </g>
     <g id="text_27">
      <!-- $\mathdefault{−800}$ -->
      <g transform="translate(174.369796 259.680702)scale(0.12 -0.12)">
       <use transform="scale(0.996264)" xlink:href="#CMSY10-0"/>
       <use transform="translate(77.487468 0)scale(0.996264)" xlink:href="#CMR17-38"/>
       <use transform="translate(123.177945 0)scale(0.996264)" xlink:href="#CMR17-30"/>
       <use transform="translate(168.868422 0)scale(0.996264)" xlink:href="#CMR17-30"/>
      </g>
     </g>
    </g>
    <g id="xtick_23">
     <g id="line2d_56">
      <path clip-path="url(#p120e4a8d43)" d="M 227.458747 244.378523 
L 227.458747 159.489721 
" style="fill:none;stroke:#b0b0b0;stroke-linecap:square;stroke-width:0.8;"/>
     </g>
     <g id="line2d_57">
      <g>
       <use style="stroke:#000000;stroke-width:0.8;" x="227.458747" xlink:href="#m4fdd315cab" y="244.378523"/>
      </g>
     </g>
     <g id="text_28">
      <!-- $\mathdefault{−600}$ -->
      <g transform="translate(214.030017 259.680702)scale(0.12 -0.12)">
       <use transform="scale(0.996264)" xlink:href="#CMSY10-0"/>
       <use transform="translate(77.487468 0)scale(0.996264)" xlink:href="#CMR17-36"/>
       <use transform="translate(123.177945 0)scale(0.996264)" xlink:href="#CMR17-30"/>
       <use transform="translate(168.868422 0)scale(0.996264)" xlink:href="#CMR17-30"/>
      </g>
     </g>
    </g>
    <g id="xtick_24">
     <g id="line2d_58">
      <path clip-path="url(#p120e4a8d43)" d="M 267.118968 244.378523 
L 267.118968 159.489721 
" style="fill:none;stroke:#b0b0b0;stroke-linecap:square;stroke-width:0.8;"/>
     </g>
     <g id="line2d_59">
      <g>
       <use style="stroke:#000000;stroke-width:0.8;" x="267.118968" xlink:href="#m4fdd315cab" y="244.378523"/>
      </g>
     </g>
     <g id="text_29">
      <!-- $\mathdefault{−400}$ -->
      <g transform="translate(253.690238 259.680702)scale(0.12 -0.12)">
       <use transform="scale(0.996264)" xlink:href="#CMSY10-0"/>
       <use transform="translate(77.487468 0)scale(0.996264)" xlink:href="#CMR17-34"/>
       <use transform="translate(123.177945 0)scale(0.996264)" xlink:href="#CMR17-30"/>
       <use transform="translate(168.868422 0)scale(0.996264)" xlink:href="#CMR17-30"/>
      </g>
     </g>
    </g>
    <g id="xtick_25">
     <g id="line2d_60">
      <path clip-path="url(#p120e4a8d43)" d="M 306.779189 244.378523 
L 306.779189 159.489721 
" style="fill:none;stroke:#b0b0b0;stroke-linecap:square;stroke-width:0.8;"/>
     </g>
     <g id="line2d_61">
      <g>
       <use style="stroke:#000000;stroke-width:0.8;" x="306.779189" xlink:href="#m4fdd315cab" y="244.378523"/>
      </g>
     </g>
     <g id="text_30">
      <!-- $\mathdefault{−200}$ -->
      <g transform="translate(293.350459 259.680702)scale(0.12 -0.12)">
       <use transform="scale(0.996264)" xlink:href="#CMSY10-0"/>
       <use transform="translate(77.487468 0)scale(0.996264)" xlink:href="#CMR17-32"/>
       <use transform="translate(123.177945 0)scale(0.996264)" xlink:href="#CMR17-30"/>
       <use transform="translate(168.868422 0)scale(0.996264)" xlink:href="#CMR17-30"/>
      </g>
     </g>
    </g>
    <g id="xtick_26">
     <g id="line2d_62">
      <path clip-path="url(#p120e4a8d43)" d="M 346.43941 244.378523 
L 346.43941 159.489721 
" style="fill:none;stroke:#b0b0b0;stroke-linecap:square;stroke-width:0.8;"/>
     </g>
     <g id="line2d_63">
      <g>
       <use style="stroke:#000000;stroke-width:0.8;" x="346.43941" xlink:href="#m4fdd315cab" y="244.378523"/>
      </g>
     </g>
     <g id="text_31">
      <!-- $\mathdefault{0}$ -->
      <g transform="translate(343.512915 259.680702)scale(0.12 -0.12)">
       <use transform="scale(0.996264)" xlink:href="#CMR17-30"/>
      </g>
     </g>
    </g>
    <g id="xtick_27">
     <g id="line2d_64">
      <path clip-path="url(#p120e4a8d43)" d="M 386.099632 244.378523 
L 386.099632 159.489721 
" style="fill:none;stroke:#b0b0b0;stroke-linecap:square;stroke-width:0.8;"/>
     </g>
     <g id="line2d_65">
      <g>
       <use style="stroke:#000000;stroke-width:0.8;" x="386.099632" xlink:href="#m4fdd315cab" y="244.378523"/>
      </g>
     </g>
     <g id="text_32">
      <!-- $\mathdefault{200}$ -->
      <g transform="translate(377.320146 259.680702)scale(0.12 -0.12)">
       <use transform="scale(0.996264)" xlink:href="#CMR17-32"/>
       <use transform="translate(45.690477 0)scale(0.996264)" xlink:href="#CMR17-30"/>
       <use transform="translate(91.380954 0)scale(0.996264)" xlink:href="#CMR17-30"/>
      </g>
     </g>
    </g>
    <g id="xtick_28">
     <g id="line2d_66">
      <path clip-path="url(#p120e4a8d43)" d="M 425.759853 244.378523 
L 425.759853 159.489721 
" style="fill:none;stroke:#b0b0b0;stroke-linecap:square;stroke-width:0.8;"/>
     </g>
     <g id="line2d_67">
      <g>
       <use style="stroke:#000000;stroke-width:0.8;" x="425.759853" xlink:href="#m4fdd315cab" y="244.378523"/>
      </g>
     </g>
     <g id="text_33">
      <!-- $\mathdefault{400}$ -->
      <g transform="translate(416.980367 259.680702)scale(0.12 -0.12)">
       <use transform="scale(0.996264)" xlink:href="#CMR17-34"/>
       <use transform="translate(45.690477 0)scale(0.996264)" xlink:href="#CMR17-30"/>
       <use transform="translate(91.380954 0)scale(0.996264)" xlink:href="#CMR17-30"/>
      </g>
     </g>
    </g>
    <g id="xtick_29">
     <g id="line2d_68">
      <path clip-path="url(#p120e4a8d43)" d="M 465.420074 244.378523 
L 465.420074 159.489721 
" style="fill:none;stroke:#b0b0b0;stroke-linecap:square;stroke-width:0.8;"/>
     </g>
     <g id="line2d_69">
      <g>
       <use style="stroke:#000000;stroke-width:0.8;" x="465.420074" xlink:href="#m4fdd315cab" y="244.378523"/>
      </g>
     </g>
     <g id="text_34">
      <!-- $\mathdefault{600}$ -->
      <g transform="translate(456.640588 259.680702)scale(0.12 -0.12)">
       <use transform="scale(0.996264)" xlink:href="#CMR17-36"/>
       <use transform="translate(45.690477 0)scale(0.996264)" xlink:href="#CMR17-30"/>
       <use transform="translate(91.380954 0)scale(0.996264)" xlink:href="#CMR17-30"/>
      </g>
     </g>
    </g>
    <g id="xtick_30">
     <g id="line2d_70">
      <path clip-path="url(#p120e4a8d43)" d="M 505.080295 244.378523 
L 505.080295 159.489721 
" style="fill:none;stroke:#b0b0b0;stroke-linecap:square;stroke-width:0.8;"/>
     </g>
     <g id="line2d_71">
      <g>
       <use style="stroke:#000000;stroke-width:0.8;" x="505.080295" xlink:href="#m4fdd315cab" y="244.378523"/>
      </g>
     </g>
     <g id="text_35">
      <!-- $\mathdefault{800}$ -->
      <g transform="translate(496.300809 259.680702)scale(0.12 -0.12)">
       <use transform="scale(0.996264)" xlink:href="#CMR17-38"/>
       <use transform="translate(45.690477 0)scale(0.996264)" xlink:href="#CMR17-30"/>
       <use transform="translate(91.380954 0)scale(0.996264)" xlink:href="#CMR17-30"/>
      </g>
     </g>
    </g>
    <g id="xtick_31">
     <g id="line2d_72">
      <path clip-path="url(#p120e4a8d43)" d="M 544.740516 244.378523 
L 544.740516 159.489721 
" style="fill:none;stroke:#b0b0b0;stroke-linecap:square;stroke-width:0.8;"/>
     </g>
     <g id="line2d_73">
      <g>
       <use style="stroke:#000000;stroke-width:0.8;" x="544.740516" xlink:href="#m4fdd315cab" y="244.378523"/>
      </g>
     </g>
     <g id="text_36">
      <!-- $\mathdefault{1000}$ -->
      <g transform="translate(533.034535 259.680702)scale(0.12 -0.12)">
       <use transform="scale(0.996264)" xlink:href="#CMR17-31"/>
       <use transform="translate(45.690477 0)scale(0.996264)" xlink:href="#CMR17-30"/>
       <use transform="translate(91.380954 0)scale(0.996264)" xlink:href="#CMR17-30"/>
       <use transform="translate(137.071431 0)scale(0.996264)" xlink:href="#CMR17-30"/>
      </g>
     </g>
    </g>
    <g id="xtick_32">
     <g id="line2d_74">
      <path clip-path="url(#p120e4a8d43)" d="M 584.400737 244.378523 
L 584.400737 159.489721 
" style="fill:none;stroke:#b0b0b0;stroke-linecap:square;stroke-width:0.8;"/>
     </g>
     <g id="line2d_75">
      <g>
       <use style="stroke:#000000;stroke-width:0.8;" x="584.400737" xlink:href="#m4fdd315cab" y="244.378523"/>
      </g>
     </g>
     <g id="text_37">
      <!-- $\mathdefault{1200}$ -->
      <g transform="translate(572.694756 259.680702)scale(0.12 -0.12)">
       <use transform="scale(0.996264)" xlink:href="#CMR17-31"/>
       <use transform="translate(45.690477 0)scale(0.996264)" xlink:href="#CMR17-32"/>
       <use transform="translate(91.380954 0)scale(0.996264)" xlink:href="#CMR17-30"/>
       <use transform="translate(137.071431 0)scale(0.996264)" xlink:href="#CMR17-30"/>
      </g>
     </g>
    </g>
    <g id="xtick_33">
     <g id="line2d_76">
      <path clip-path="url(#p120e4a8d43)" d="M 624.060958 244.378523 
L 624.060958 159.489721 
" style="fill:none;stroke:#b0b0b0;stroke-linecap:square;stroke-width:0.8;"/>
     </g>
     <g id="line2d_77">
      <g>
       <use style="stroke:#000000;stroke-width:0.8;" x="624.060958" xlink:href="#m4fdd315cab" y="244.378523"/>
      </g>
     </g>
     <g id="text_38">
      <!-- $\mathdefault{1400}$ -->
      <g transform="translate(612.354978 259.680702)scale(0.12 -0.12)">
       <use transform="scale(0.996264)" xlink:href="#CMR17-31"/>
       <use transform="translate(45.690477 0)scale(0.996264)" xlink:href="#CMR17-34"/>
       <use transform="translate(91.380954 0)scale(0.996264)" xlink:href="#CMR17-30"/>
       <use transform="translate(137.071431 0)scale(0.996264)" xlink:href="#CMR17-30"/>
      </g>
     </g>
    </g>
    <g id="xtick_34">
     <g id="line2d_78">
      <path clip-path="url(#p120e4a8d43)" d="M 663.721179 244.378523 
L 663.721179 159.489721 
" style="fill:none;stroke:#b0b0b0;stroke-linecap:square;stroke-width:0.8;"/>
     </g>
     <g id="line2d_79">
      <g>
       <use style="stroke:#000000;stroke-width:0.8;" x="663.721179" xlink:href="#m4fdd315cab" y="244.378523"/>
      </g>
     </g>
     <g id="text_39">
      <!-- $\mathdefault{1600}$ -->
      <g transform="translate(652.015199 259.680702)scale(0.12 -0.12)">
       <use transform="scale(0.996264)" xlink:href="#CMR17-31"/>
       <use transform="translate(45.690477 0)scale(0.996264)" xlink:href="#CMR17-36"/>
       <use transform="translate(91.380954 0)scale(0.996264)" xlink:href="#CMR17-30"/>
       <use transform="translate(137.071431 0)scale(0.996264)" xlink:href="#CMR17-30"/>
      </g>
     </g>
    </g>
   </g>
   <g id="matplotlib.axis_4">
    <g id="ytick_4">
     <g id="line2d_80">
      <path clip-path="url(#p120e4a8d43)" d="M 29.157642 240.519941 
L 663.721179 240.519941 
" style="fill:none;stroke:#b0b0b0;stroke-linecap:square;stroke-width:0.8;"/>
     </g>
     <g id="line2d_81">
      <g>
       <use style="stroke:#000000;stroke-width:0.8;" x="29.157642" xlink:href="#m7e9c7b1381" y="240.519941"/>
      </g>
     </g>
     <g id="text_40">
      <!-- $\mathdefault{0.0}$ -->
      <g transform="translate(7.2 244.671031)scale(0.12 -0.12)">
       <use transform="scale(0.996264)" xlink:href="#CMR17-30"/>
       <use transform="translate(45.690477 0)scale(0.996264)" xlink:href="#CMMI12-3a"/>
       <use transform="translate(72.787654 0)scale(0.996264)" xlink:href="#CMR17-30"/>
      </g>
     </g>
    </g>
    <g id="ytick_5">
     <g id="line2d_82">
      <path clip-path="url(#p120e4a8d43)" d="M 29.157642 209.651286 
L 663.721179 209.651286 
" style="fill:none;stroke:#b0b0b0;stroke-linecap:square;stroke-width:0.8;"/>
     </g>
     <g id="line2d_83">
      <g>
       <use style="stroke:#000000;stroke-width:0.8;" x="29.157642" xlink:href="#m7e9c7b1381" y="209.651286"/>
      </g>
     </g>
     <g id="text_41">
      <!-- $\mathdefault{0.2}$ -->
      <g transform="translate(7.2 213.802376)scale(0.12 -0.12)">
       <use transform="scale(0.996264)" xlink:href="#CMR17-30"/>
       <use transform="translate(45.690477 0)scale(0.996264)" xlink:href="#CMMI12-3a"/>
       <use transform="translate(72.787654 0)scale(0.996264)" xlink:href="#CMR17-32"/>
      </g>
     </g>
    </g>
    <g id="ytick_6">
     <g id="line2d_84">
      <path clip-path="url(#p120e4a8d43)" d="M 29.157642 178.782631 
L 663.721179 178.782631 
" style="fill:none;stroke:#b0b0b0;stroke-linecap:square;stroke-width:0.8;"/>
     </g>
     <g id="line2d_85">
      <g>
       <use style="stroke:#000000;stroke-width:0.8;" x="29.157642" xlink:href="#m7e9c7b1381" y="178.782631"/>
      </g>
     </g>
     <g id="text_42">
      <!-- $\mathdefault{0.4}$ -->
      <g transform="translate(7.2 182.933721)scale(0.12 -0.12)">
       <use transform="scale(0.996264)" xlink:href="#CMR17-30"/>
       <use transform="translate(45.690477 0)scale(0.996264)" xlink:href="#CMMI12-3a"/>
       <use transform="translate(72.787654 0)scale(0.996264)" xlink:href="#CMR17-34"/>
      </g>
     </g>
    </g>
   </g>
   <g id="line2d_86">
    <path clip-path="url(#p120e4a8d43)" d="M 29.157642 240.519941 
L 663.721179 240.519941 
" style="fill:none;stroke:#1f77b4;stroke-linecap:square;stroke-width:1.5;"/>
   </g>
   <g id="line2d_87">
    <path clip-path="url(#p120e4a8d43)" style="fill:none;stroke:#1f77b4;stroke-linecap:square;stroke-width:1.5;"/>
   </g>
   <g id="line2d_88">
    <path clip-path="url(#p120e4a8d43)" style="fill:none;stroke:#1f77b4;stroke-linecap:square;stroke-width:1.5;"/>
   </g>
   <g id="line2d_89">
    <path clip-path="url(#p120e4a8d43)" d="M 48.987752 171.065467 
L 52.953774 163.348303 
L 52.953774 240.519941 
L 52.953774 163.348303 
L 56.919797 171.065467 
" style="fill:none;stroke:#1f77b4;stroke-linecap:square;stroke-width:1.5;"/>
   </g>
   <g id="line2d_90">
    <path clip-path="url(#p120e4a8d43)" d="M 635.959024 171.065467 
L 639.925046 163.348303 
L 639.925046 240.519941 
L 639.925046 163.348303 
L 643.891069 171.065467 
" style="fill:none;stroke:#1f77b4;stroke-linecap:square;stroke-width:1.5;"/>
   </g>
   <g id="line2d_91">
    <path clip-path="url(#p120e4a8d43)" d="M 29.157642 240.519941 
L 663.721179 240.519941 
" style="fill:none;stroke:#1f77b4;stroke-linecap:square;stroke-width:1.5;"/>
   </g>
   <g id="line2d_92">
    <path clip-path="url(#p120e4a8d43)" d="M 41.055708 171.065467 
L 45.02173 163.348303 
L 45.02173 240.519941 
L 45.02173 163.348303 
L 48.987752 171.065467 
" style="fill:none;stroke:#1f77b4;stroke-linecap:square;stroke-width:1.5;"/>
   </g>
   <g id="line2d_93">
    <path clip-path="url(#p120e4a8d43)" d="M 643.891069 171.065467 
L 647.857091 163.348303 
L 647.857091 240.519941 
L 647.857091 163.348303 
L 651.823113 171.065467 
" style="fill:none;stroke:#1f77b4;stroke-linecap:square;stroke-width:1.5;"/>
   </g>
   <g id="line2d_94">
    <path clip-path="url(#p120e4a8d43)" d="M 167.968416 171.065467 
L 171.934438 163.348303 
L 171.934438 240.519941 
L 171.934438 163.348303 
L 175.90046 171.065467 
" style="fill:none;stroke:#1f77b4;stroke-linecap:square;stroke-width:1.5;"/>
   </g>
   <g id="line2d_95">
    <path clip-path="url(#p120e4a8d43)" d="M 516.978361 171.065467 
L 520.944383 163.348303 
L 520.944383 240.519941 
L 520.944383 163.348303 
L 524.910405 171.065467 
" style="fill:none;stroke:#1f77b4;stroke-linecap:square;stroke-width:1.5;"/>
   </g>
   <g id="line2d_96">
    <path clip-path="url(#p120e4a8d43)" d="M 29.157642 240.519941 
L 663.721179 240.519941 
" style="fill:none;stroke:#1f77b4;stroke-linecap:square;stroke-width:1.5;"/>
   </g>
   <g id="line2d_97">
    <path clip-path="url(#p120e4a8d43)" d="M 160.036371 171.065467 
L 164.002393 163.348303 
L 164.002393 240.519941 
L 164.002393 163.348303 
L 167.968416 171.065467 
" style="fill:none;stroke:#1f77b4;stroke-linecap:square;stroke-width:1.5;"/>
   </g>
   <g id="line2d_98">
    <path clip-path="url(#p120e4a8d43)" d="M 524.910405 171.065467 
L 528.876427 163.348303 
L 528.876427 240.519941 
L 528.876427 163.348303 
L 532.84245 171.065467 
" style="fill:none;stroke:#1f77b4;stroke-linecap:square;stroke-width:1.5;"/>
   </g>
   <g id="line2d_99">
    <path clip-path="url(#p120e4a8d43)" d="M 286.949079 171.065467 
L 290.915101 163.348303 
L 290.915101 240.519941 
L 290.915101 163.348303 
L 294.881123 171.065467 
" style="fill:none;stroke:#1f77b4;stroke-linecap:square;stroke-width:1.5;"/>
   </g>
   <g id="line2d_100">
    <path clip-path="url(#p120e4a8d43)" d="M 397.997698 171.065467 
L 401.96372 163.348303 
L 401.96372 240.519941 
L 401.96372 163.348303 
L 405.929742 171.065467 
" style="fill:none;stroke:#1f77b4;stroke-linecap:square;stroke-width:1.5;"/>
   </g>
   <g id="line2d_101">
    <path clip-path="url(#p120e4a8d43)" d="M 29.157642 240.519941 
L 663.721179 240.519941 
" style="fill:none;stroke:#1f77b4;stroke-linecap:square;stroke-width:1.5;"/>
   </g>
   <g id="line2d_102">
    <path clip-path="url(#p120e4a8d43)" d="M 279.017035 171.065467 
L 282.983057 163.348303 
L 282.983057 240.519941 
L 282.983057 163.348303 
L 286.949079 171.065467 
" style="fill:none;stroke:#1f77b4;stroke-linecap:square;stroke-width:1.5;"/>
   </g>
   <g id="line2d_103">
    <path clip-path="url(#p120e4a8d43)" d="M 405.929742 171.065467 
L 409.895764 163.348303 
L 409.895764 240.519941 
L 409.895764 163.348303 
L 413.861786 171.065467 
" style="fill:none;stroke:#1f77b4;stroke-linecap:square;stroke-width:1.5;"/>
   </g>
   <g id="line2d_104">
    <path clip-path="url(#p120e4a8d43)" d="M 405.929742 171.065467 
L 409.895764 163.348303 
L 409.895764 240.519941 
L 409.895764 163.348303 
L 413.861786 171.065467 
" style="fill:none;stroke:#1f77b4;stroke-linecap:square;stroke-width:1.5;"/>
   </g>
   <g id="line2d_105">
    <path clip-path="url(#p120e4a8d43)" d="M 279.017035 171.065467 
L 282.983057 163.348303 
L 282.983057 240.519941 
L 282.983057 163.348303 
L 286.949079 171.065467 
" style="fill:none;stroke:#1f77b4;stroke-linecap:square;stroke-width:1.5;"/>
   </g>
   <g id="line2d_106">
    <path clip-path="url(#p120e4a8d43)" d="M 29.157642 240.519941 
L 663.721179 240.519941 
" style="fill:none;stroke:#1f77b4;stroke-linecap:square;stroke-width:1.5;"/>
   </g>
   <g id="line2d_107">
    <path clip-path="url(#p120e4a8d43)" d="M 397.997698 171.065467 
L 401.96372 163.348303 
L 401.96372 240.519941 
L 401.96372 163.348303 
L 405.929742 171.065467 
" style="fill:none;stroke:#1f77b4;stroke-linecap:square;stroke-width:1.5;"/>
   </g>
   <g id="line2d_108">
    <path clip-path="url(#p120e4a8d43)" d="M 286.949079 171.065467 
L 290.915101 163.348303 
L 290.915101 240.519941 
L 290.915101 163.348303 
L 294.881123 171.065467 
" style="fill:none;stroke:#1f77b4;stroke-linecap:square;stroke-width:1.5;"/>
   </g>
   <g id="line2d_109">
    <path clip-path="url(#p120e4a8d43)" d="M 524.910405 171.065467 
L 528.876427 163.348303 
L 528.876427 240.519941 
L 528.876427 163.348303 
L 532.84245 171.065467 
" style="fill:none;stroke:#1f77b4;stroke-linecap:square;stroke-width:1.5;"/>
   </g>
   <g id="line2d_110">
    <path clip-path="url(#p120e4a8d43)" d="M 160.036371 171.065467 
L 164.002393 163.348303 
L 164.002393 240.519941 
L 164.002393 163.348303 
L 167.968416 171.065467 
" style="fill:none;stroke:#1f77b4;stroke-linecap:square;stroke-width:1.5;"/>
   </g>
   <g id="line2d_111">
    <path clip-path="url(#p120e4a8d43)" d="M 29.157642 240.519941 
L 663.721179 240.519941 
" style="fill:none;stroke:#1f77b4;stroke-linecap:square;stroke-width:1.5;"/>
   </g>
   <g id="line2d_112">
    <path clip-path="url(#p120e4a8d43)" d="M 516.978361 171.065467 
L 520.944383 163.348303 
L 520.944383 240.519941 
L 520.944383 163.348303 
L 524.910405 171.065467 
" style="fill:none;stroke:#1f77b4;stroke-linecap:square;stroke-width:1.5;"/>
   </g>
   <g id="line2d_113">
    <path clip-path="url(#p120e4a8d43)" d="M 167.968416 171.065467 
L 171.934438 163.348303 
L 171.934438 240.519941 
L 171.934438 163.348303 
L 175.90046 171.065467 
" style="fill:none;stroke:#1f77b4;stroke-linecap:square;stroke-width:1.5;"/>
   </g>
   <g id="line2d_114">
    <path clip-path="url(#p120e4a8d43)" d="M 643.891069 171.065467 
L 647.857091 163.348303 
L 647.857091 240.519941 
L 647.857091 163.348303 
L 651.823113 171.065467 
" style="fill:none;stroke:#1f77b4;stroke-linecap:square;stroke-width:1.5;"/>
   </g>
   <g id="line2d_115">
    <path clip-path="url(#p120e4a8d43)" d="M 41.055708 171.065467 
L 45.02173 163.348303 
L 45.02173 240.519941 
L 45.02173 163.348303 
L 48.987752 171.065467 
" style="fill:none;stroke:#1f77b4;stroke-linecap:square;stroke-width:1.5;"/>
   </g>
   <g id="line2d_116">
    <path clip-path="url(#p120e4a8d43)" d="M 29.157642 240.519941 
L 663.721179 240.519941 
" style="fill:none;stroke:#1f77b4;stroke-linecap:square;stroke-width:1.5;"/>
   </g>
   <g id="line2d_117">
    <path clip-path="url(#p120e4a8d43)" d="M 635.959024 171.065467 
L 639.925046 163.348303 
L 639.925046 240.519941 
L 639.925046 163.348303 
L 643.891069 171.065467 
" style="fill:none;stroke:#1f77b4;stroke-linecap:square;stroke-width:1.5;"/>
   </g>
   <g id="line2d_118">
    <path clip-path="url(#p120e4a8d43)" d="M 48.987752 171.065467 
L 52.953774 163.348303 
L 52.953774 240.519941 
L 52.953774 163.348303 
L 56.919797 171.065467 
" style="fill:none;stroke:#1f77b4;stroke-linecap:square;stroke-width:1.5;"/>
   </g>
   <g id="line2d_119">
    <path clip-path="url(#p120e4a8d43)" style="fill:none;stroke:#1f77b4;stroke-linecap:square;stroke-width:1.5;"/>
   </g>
   <g id="line2d_120">
    <path clip-path="url(#p120e4a8d43)" style="fill:none;stroke:#1f77b4;stroke-linecap:square;stroke-width:1.5;"/>
   </g>
   <g id="patch_9">
    <path d="M 29.157642 244.378523 
L 29.157642 159.489721 
" style="fill:none;stroke:#000000;stroke-linecap:square;stroke-linejoin:miter;stroke-width:0.8;"/>
   </g>
   <g id="patch_10">
    <path d="M 663.721179 244.378523 
L 663.721179 159.489721 
" style="fill:none;stroke:#000000;stroke-linecap:square;stroke-linejoin:miter;stroke-width:0.8;"/>
   </g>
   <g id="patch_11">
    <path d="M 29.157642 244.378523 
L 663.721179 244.378523 
" style="fill:none;stroke:#000000;stroke-linecap:square;stroke-linejoin:miter;stroke-width:0.8;"/>
   </g>
   <g id="patch_12">
    <path d="M 29.157642 159.489721 
L 663.721179 159.489721 
" style="fill:none;stroke:#000000;stroke-linecap:square;stroke-linejoin:miter;stroke-width:0.8;"/>
   </g>
   <g id="patch_13">
    <path d="M 436.254304 215.734999 
Q 423.803819 227.442193 412.167843 238.383504 
" style="fill:none;stroke:#000000;stroke-linecap:round;"/>
    <path d="M 418.16562 236.58721 
L 412.167843 238.383504 
L 414.329474 232.507506 
" style="fill:none;stroke:#000000;stroke-linecap:round;"/>
   </g>
   <g id="text_43">
    <!-- 320 Hz -->
    <g transform="translate(425.759853 209.651286)scale(0.14 -0.14)">
     <use transform="scale(0.996264)" xlink:href="#CMR17-33"/>
     <use transform="translate(45.690477 0)scale(0.996264)" xlink:href="#CMR17-32"/>
     <use transform="translate(91.380954 0)scale(0.996264)" xlink:href="#CMR17-30"/>
     <use transform="translate(167.147398 0)scale(0.996264)" xlink:href="#CMR17-48"/>
     <use transform="translate(236.219828 0)scale(0.996264)" xlink:href="#CMR17-7a"/>
    </g>
   </g>
   <g id="patch_14">
    <path d="M 375.605181 215.734999 
Q 388.055665 227.442193 399.691641 238.383504 
" style="fill:none;stroke:#000000;stroke-linecap:round;"/>
    <path d="M 397.530011 232.507506 
L 399.691641 238.383504 
L 393.693864 236.58721 
" style="fill:none;stroke:#000000;stroke-linecap:round;"/>
   </g>
   <g id="text_44">
    <!-- 280 Hz -->
    <g transform="translate(344.754173 209.651286)scale(0.14 -0.14)">
     <use transform="scale(0.996264)" xlink:href="#CMR17-32"/>
     <use transform="translate(45.690477 0)scale(0.996264)" xlink:href="#CMR17-38"/>
     <use transform="translate(91.380954 0)scale(0.996264)" xlink:href="#CMR17-30"/>
     <use transform="translate(167.147398 0)scale(0.996264)" xlink:href="#CMR17-48"/>
     <use transform="translate(236.219828 0)scale(0.996264)" xlink:href="#CMR17-7a"/>
    </g>
   </g>
   <g id="text_45">
    <!-- Sinusoïde échantillonnée à 600 Hz -->
    <g transform="translate(225.30495 153.489721)scale(0.168 -0.168)">
     <defs>
      <path d="M 2221 4157 
C 2298 4226 2317 4239 2317 4308 
C 2317 4403 2234 4480 2144 4480 
C 2067 4480 2042 4447 1978 4371 
L 1254 3468 
C 1210 3411 1210 3404 1210 3398 
C 1210 3391 1267 3334 1280 3321 
L 2221 4157 
z
" id="CMR17-13" transform="scale(0.015625)"/>
      <path d="M 2234 2240 
C 2112 2240 1933 2240 1933 2015 
C 1933 1836 2080 1785 2163 1785 
C 2208 1785 2394 1804 2394 2028 
C 2394 2476 1958 2816 1466 2816 
C 787 2816 211 2201 211 1379 
C 211 521 813 -64 1466 -64 
C 2259 -64 2458 676 2458 747 
C 2458 773 2451 792 2406 792 
C 2362 792 2355 786 2330 702 
C 2163 180 1798 51 1523 51 
C 1114 51 621 431 621 1385 
C 621 2358 1094 2700 1472 2700 
C 1722 2700 2093 2582 2234 2240 
z
" id="CMR17-63" transform="scale(0.015625)"/>
      <path d="M 2656 1954 
C 2656 2282 2592 2816 1837 2816 
C 1312 2816 1056 2392 979 2179 
L 973 2179 
L 973 4416 
L 211 4345 
L 211 4179 
C 589 4179 646 4141 646 3843 
L 646 443 
C 646 198 621 166 211 166 
L 211 0 
C 365 12 646 12 813 12 
C 979 12 1267 12 1421 0 
L 1421 166 
C 1011 166 986 192 986 443 
L 986 1678 
C 986 2269 1344 2713 1792 2713 
C 2266 2713 2317 2289 2317 1980 
L 2317 443 
C 2317 198 2291 166 1882 166 
L 1882 0 
C 2035 12 2317 12 2483 12 
C 2650 12 2938 12 3091 0 
L 3091 166 
C 2682 166 2656 192 2656 443 
L 2656 1954 
z
" id="CMR17-68" transform="scale(0.015625)"/>
      <path d="M 966 2585 
L 1862 2585 
L 1862 2752 
L 966 2752 
L 966 3968 
L 851 3968 
C 838 3292 614 2700 70 2687 
L 70 2585 
L 627 2585 
L 627 778 
C 627 655 627 -64 1370 -64 
C 1747 -64 1965 308 1965 784 
L 1965 1151 
L 1850 1151 
L 1850 790 
C 1850 347 1677 51 1408 51 
C 1222 51 966 179 966 765 
L 966 2585 
z
" id="CMR17-74" transform="scale(0.015625)"/>
     </defs>
     <use transform="scale(0.996264)" xlink:href="#CMR17-53"/>
     <use transform="translate(50.89537 0)scale(0.996264)" xlink:href="#CMR17-69"/>
     <use transform="translate(75.766428 0)scale(0.996264)" xlink:href="#CMR17-6e"/>
     <use transform="translate(124.059344 0)scale(0.996264)" xlink:href="#CMR17-75"/>
     <use transform="translate(174.954714 0)scale(0.996264)" xlink:href="#CMR17-73"/>
     <use transform="translate(210.756052 0)scale(0.996264)" xlink:href="#CMR17-6f"/>
     <use transform="translate(246.036819 0)scale(0.996264)" xlink:href="#CMR17-7f"/>
     <use transform="translate(256.446529 0)scale(0.996264)" xlink:href="#CMR17-10"/>
     <use transform="translate(281.317587 0)scale(0.996264)" xlink:href="#CMR17-64"/>
     <use transform="translate(332.212957 0)scale(0.996264)" xlink:href="#CMR17-65"/>
     <use transform="translate(400.172175 0)scale(0.996264)" xlink:href="#CMR17-13"/>
     <use transform="translate(402.774584 0)scale(0.996264)" xlink:href="#CMR17-65"/>
     <use transform="translate(443.260244 0)scale(0.996264)" xlink:href="#CMR17-63"/>
     <use transform="translate(481.143451 0)scale(0.996264)" xlink:href="#CMR17-68"/>
     <use transform="translate(532.03882 0)scale(0.996264)" xlink:href="#CMR17-61"/>
     <use transform="translate(577.729298 0)scale(0.996264)" xlink:href="#CMR17-6e"/>
     <use transform="translate(626.022213 0)scale(0.996264)" xlink:href="#CMR17-74"/>
     <use transform="translate(661.302981 0)scale(0.996264)" xlink:href="#CMR17-69"/>
     <use transform="translate(686.17404 0)scale(0.996264)" xlink:href="#CMR17-6c"/>
     <use transform="translate(711.045098 0)scale(0.996264)" xlink:href="#CMR17-6c"/>
     <use transform="translate(735.916157 0)scale(0.996264)" xlink:href="#CMR17-6f"/>
     <use transform="translate(781.606634 0)scale(0.996264)" xlink:href="#CMR17-6e"/>
     <use transform="translate(832.502004 0)scale(0.996264)" xlink:href="#CMR17-6e"/>
     <use transform="translate(880.794965 0)scale(0.996264)" xlink:href="#CMR17-13"/>
     <use transform="translate(883.397373 0)scale(0.996264)" xlink:href="#CMR17-65"/>
     <use transform="translate(923.883034 0)scale(0.996264)" xlink:href="#CMR17-65"/>
     <use transform="translate(994.444661 0)scale(0.996264)" xlink:href="#CMR17-12"/>
     <use transform="translate(994.444661 0)scale(0.996264)" xlink:href="#CMR17-61"/>
     <use transform="translate(1070.211104 0)scale(0.996264)" xlink:href="#CMR17-36"/>
     <use transform="translate(1115.901581 0)scale(0.996264)" xlink:href="#CMR17-30"/>
     <use transform="translate(1161.592058 0)scale(0.996264)" xlink:href="#CMR17-30"/>
     <use transform="translate(1237.358502 0)scale(0.996264)" xlink:href="#CMR17-48"/>
     <use transform="translate(1306.430932 0)scale(0.996264)" xlink:href="#CMR17-7a"/>
    </g>
   </g>
  </g>
  <g id="axes_3">
   <g id="patch_15">
    <path d="M 29.157642 379.045189 
L 663.721179 379.045189 
L 663.721179 294.156388 
L 29.157642 294.156388 
z
" style="fill:#ffffff;"/>
   </g>
   <g id="matplotlib.axis_5">
    <g id="xtick_35">
     <g id="line2d_121">
      <path clip-path="url(#p6d7209ca75)" d="M 29.157642 379.045189 
L 29.157642 294.156388 
" style="fill:none;stroke:#b0b0b0;stroke-linecap:square;stroke-width:0.8;"/>
     </g>
     <g id="line2d_122">
      <g>
       <use style="stroke:#000000;stroke-width:0.8;" x="29.157642" xlink:href="#m4fdd315cab" y="379.045189"/>
      </g>
     </g>
     <g id="text_46">
      <!-- $\mathdefault{−1600}$ -->
      <g transform="translate(12.802417 394.347369)scale(0.12 -0.12)">
       <use transform="scale(0.996264)" xlink:href="#CMSY10-0"/>
       <use transform="translate(77.487468 0)scale(0.996264)" xlink:href="#CMR17-31"/>
       <use transform="translate(123.177945 0)scale(0.996264)" xlink:href="#CMR17-36"/>
       <use transform="translate(168.868422 0)scale(0.996264)" xlink:href="#CMR17-30"/>
       <use transform="translate(214.558899 0)scale(0.996264)" xlink:href="#CMR17-30"/>
      </g>
     </g>
    </g>
    <g id="xtick_36">
     <g id="line2d_123">
      <path clip-path="url(#p6d7209ca75)" d="M 68.817863 379.045189 
L 68.817863 294.156388 
" style="fill:none;stroke:#b0b0b0;stroke-linecap:square;stroke-width:0.8;"/>
     </g>
     <g id="line2d_124">
      <g>
       <use style="stroke:#000000;stroke-width:0.8;" x="68.817863" xlink:href="#m4fdd315cab" y="379.045189"/>
      </g>
     </g>
     <g id="text_47">
      <!-- $\mathdefault{−1400}$ -->
      <g transform="translate(52.462638 394.347369)scale(0.12 -0.12)">
       <use transform="scale(0.996264)" xlink:href="#CMSY10-0"/>
       <use transform="translate(77.487468 0)scale(0.996264)" xlink:href="#CMR17-31"/>
       <use transform="translate(123.177945 0)scale(0.996264)" xlink:href="#CMR17-34"/>
       <use transform="translate(168.868422 0)scale(0.996264)" xlink:href="#CMR17-30"/>
       <use transform="translate(214.558899 0)scale(0.996264)" xlink:href="#CMR17-30"/>
      </g>
     </g>
    </g>
    <g id="xtick_37">
     <g id="line2d_125">
      <path clip-path="url(#p6d7209ca75)" d="M 108.478084 379.045189 
L 108.478084 294.156388 
" style="fill:none;stroke:#b0b0b0;stroke-linecap:square;stroke-width:0.8;"/>
     </g>
     <g id="line2d_126">
      <g>
       <use style="stroke:#000000;stroke-width:0.8;" x="108.478084" xlink:href="#m4fdd315cab" y="379.045189"/>
      </g>
     </g>
     <g id="text_48">
      <!-- $\mathdefault{−1200}$ -->
      <g transform="translate(92.122859 394.347369)scale(0.12 -0.12)">
       <use transform="scale(0.996264)" xlink:href="#CMSY10-0"/>
       <use transform="translate(77.487468 0)scale(0.996264)" xlink:href="#CMR17-31"/>
       <use transform="translate(123.177945 0)scale(0.996264)" xlink:href="#CMR17-32"/>
       <use transform="translate(168.868422 0)scale(0.996264)" xlink:href="#CMR17-30"/>
       <use transform="translate(214.558899 0)scale(0.996264)" xlink:href="#CMR17-30"/>
      </g>
     </g>
    </g>
    <g id="xtick_38">
     <g id="line2d_127">
      <path clip-path="url(#p6d7209ca75)" d="M 148.138305 379.045189 
L 148.138305 294.156388 
" style="fill:none;stroke:#b0b0b0;stroke-linecap:square;stroke-width:0.8;"/>
     </g>
     <g id="line2d_128">
      <g>
       <use style="stroke:#000000;stroke-width:0.8;" x="148.138305" xlink:href="#m4fdd315cab" y="379.045189"/>
      </g>
     </g>
     <g id="text_49">
      <!-- $\mathdefault{−1000}$ -->
      <g transform="translate(131.78308 394.347369)scale(0.12 -0.12)">
       <use transform="scale(0.996264)" xlink:href="#CMSY10-0"/>
       <use transform="translate(77.487468 0)scale(0.996264)" xlink:href="#CMR17-31"/>
       <use transform="translate(123.177945 0)scale(0.996264)" xlink:href="#CMR17-30"/>
       <use transform="translate(168.868422 0)scale(0.996264)" xlink:href="#CMR17-30"/>
       <use transform="translate(214.558899 0)scale(0.996264)" xlink:href="#CMR17-30"/>
      </g>
     </g>
    </g>
    <g id="xtick_39">
     <g id="line2d_129">
      <path clip-path="url(#p6d7209ca75)" d="M 187.798526 379.045189 
L 187.798526 294.156388 
" style="fill:none;stroke:#b0b0b0;stroke-linecap:square;stroke-width:0.8;"/>
     </g>
     <g id="line2d_130">
      <g>
       <use style="stroke:#000000;stroke-width:0.8;" x="187.798526" xlink:href="#m4fdd315cab" y="379.045189"/>
      </g>
     </g>
     <g id="text_50">
      <!-- $\mathdefault{−800}$ -->
      <g transform="translate(174.369796 394.347369)scale(0.12 -0.12)">
       <use transform="scale(0.996264)" xlink:href="#CMSY10-0"/>
       <use transform="translate(77.487468 0)scale(0.996264)" xlink:href="#CMR17-38"/>
       <use transform="translate(123.177945 0)scale(0.996264)" xlink:href="#CMR17-30"/>
       <use transform="translate(168.868422 0)scale(0.996264)" xlink:href="#CMR17-30"/>
      </g>
     </g>
    </g>
    <g id="xtick_40">
     <g id="line2d_131">
      <path clip-path="url(#p6d7209ca75)" d="M 227.458747 379.045189 
L 227.458747 294.156388 
" style="fill:none;stroke:#b0b0b0;stroke-linecap:square;stroke-width:0.8;"/>
     </g>
     <g id="line2d_132">
      <g>
       <use style="stroke:#000000;stroke-width:0.8;" x="227.458747" xlink:href="#m4fdd315cab" y="379.045189"/>
      </g>
     </g>
     <g id="text_51">
      <!-- $\mathdefault{−600}$ -->
      <g transform="translate(214.030017 394.347369)scale(0.12 -0.12)">
       <use transform="scale(0.996264)" xlink:href="#CMSY10-0"/>
       <use transform="translate(77.487468 0)scale(0.996264)" xlink:href="#CMR17-36"/>
       <use transform="translate(123.177945 0)scale(0.996264)" xlink:href="#CMR17-30"/>
       <use transform="translate(168.868422 0)scale(0.996264)" xlink:href="#CMR17-30"/>
      </g>
     </g>
    </g>
    <g id="xtick_41">
     <g id="line2d_133">
      <path clip-path="url(#p6d7209ca75)" d="M 267.118968 379.045189 
L 267.118968 294.156388 
" style="fill:none;stroke:#b0b0b0;stroke-linecap:square;stroke-width:0.8;"/>
     </g>
     <g id="line2d_134">
      <g>
       <use style="stroke:#000000;stroke-width:0.8;" x="267.118968" xlink:href="#m4fdd315cab" y="379.045189"/>
      </g>
     </g>
     <g id="text_52">
      <!-- $\mathdefault{−400}$ -->
      <g transform="translate(253.690238 394.347369)scale(0.12 -0.12)">
       <use transform="scale(0.996264)" xlink:href="#CMSY10-0"/>
       <use transform="translate(77.487468 0)scale(0.996264)" xlink:href="#CMR17-34"/>
       <use transform="translate(123.177945 0)scale(0.996264)" xlink:href="#CMR17-30"/>
       <use transform="translate(168.868422 0)scale(0.996264)" xlink:href="#CMR17-30"/>
      </g>
     </g>
    </g>
    <g id="xtick_42">
     <g id="line2d_135">
      <path clip-path="url(#p6d7209ca75)" d="M 306.779189 379.045189 
L 306.779189 294.156388 
" style="fill:none;stroke:#b0b0b0;stroke-linecap:square;stroke-width:0.8;"/>
     </g>
     <g id="line2d_136">
      <g>
       <use style="stroke:#000000;stroke-width:0.8;" x="306.779189" xlink:href="#m4fdd315cab" y="379.045189"/>
      </g>
     </g>
     <g id="text_53">
      <!-- $\mathdefault{−200}$ -->
      <g transform="translate(293.350459 394.347369)scale(0.12 -0.12)">
       <use transform="scale(0.996264)" xlink:href="#CMSY10-0"/>
       <use transform="translate(77.487468 0)scale(0.996264)" xlink:href="#CMR17-32"/>
       <use transform="translate(123.177945 0)scale(0.996264)" xlink:href="#CMR17-30"/>
       <use transform="translate(168.868422 0)scale(0.996264)" xlink:href="#CMR17-30"/>
      </g>
     </g>
    </g>
    <g id="xtick_43">
     <g id="line2d_137">
      <path clip-path="url(#p6d7209ca75)" d="M 346.43941 379.045189 
L 346.43941 294.156388 
" style="fill:none;stroke:#b0b0b0;stroke-linecap:square;stroke-width:0.8;"/>
     </g>
     <g id="line2d_138">
      <g>
       <use style="stroke:#000000;stroke-width:0.8;" x="346.43941" xlink:href="#m4fdd315cab" y="379.045189"/>
      </g>
     </g>
     <g id="text_54">
      <!-- $\mathdefault{0}$ -->
      <g transform="translate(343.512915 394.347369)scale(0.12 -0.12)">
       <use transform="scale(0.996264)" xlink:href="#CMR17-30"/>
      </g>
     </g>
    </g>
    <g id="xtick_44">
     <g id="line2d_139">
      <path clip-path="url(#p6d7209ca75)" d="M 386.099632 379.045189 
L 386.099632 294.156388 
" style="fill:none;stroke:#b0b0b0;stroke-linecap:square;stroke-width:0.8;"/>
     </g>
     <g id="line2d_140">
      <g>
       <use style="stroke:#000000;stroke-width:0.8;" x="386.099632" xlink:href="#m4fdd315cab" y="379.045189"/>
      </g>
     </g>
     <g id="text_55">
      <!-- $\mathdefault{200}$ -->
      <g transform="translate(377.320146 394.347369)scale(0.12 -0.12)">
       <use transform="scale(0.996264)" xlink:href="#CMR17-32"/>
       <use transform="translate(45.690477 0)scale(0.996264)" xlink:href="#CMR17-30"/>
       <use transform="translate(91.380954 0)scale(0.996264)" xlink:href="#CMR17-30"/>
      </g>
     </g>
    </g>
    <g id="xtick_45">
     <g id="line2d_141">
      <path clip-path="url(#p6d7209ca75)" d="M 425.759853 379.045189 
L 425.759853 294.156388 
" style="fill:none;stroke:#b0b0b0;stroke-linecap:square;stroke-width:0.8;"/>
     </g>
     <g id="line2d_142">
      <g>
       <use style="stroke:#000000;stroke-width:0.8;" x="425.759853" xlink:href="#m4fdd315cab" y="379.045189"/>
      </g>
     </g>
     <g id="text_56">
      <!-- $\mathdefault{400}$ -->
      <g transform="translate(416.980367 394.347369)scale(0.12 -0.12)">
       <use transform="scale(0.996264)" xlink:href="#CMR17-34"/>
       <use transform="translate(45.690477 0)scale(0.996264)" xlink:href="#CMR17-30"/>
       <use transform="translate(91.380954 0)scale(0.996264)" xlink:href="#CMR17-30"/>
      </g>
     </g>
    </g>
    <g id="xtick_46">
     <g id="line2d_143">
      <path clip-path="url(#p6d7209ca75)" d="M 465.420074 379.045189 
L 465.420074 294.156388 
" style="fill:none;stroke:#b0b0b0;stroke-linecap:square;stroke-width:0.8;"/>
     </g>
     <g id="line2d_144">
      <g>
       <use style="stroke:#000000;stroke-width:0.8;" x="465.420074" xlink:href="#m4fdd315cab" y="379.045189"/>
      </g>
     </g>
     <g id="text_57">
      <!-- $\mathdefault{600}$ -->
      <g transform="translate(456.640588 394.347369)scale(0.12 -0.12)">
       <use transform="scale(0.996264)" xlink:href="#CMR17-36"/>
       <use transform="translate(45.690477 0)scale(0.996264)" xlink:href="#CMR17-30"/>
       <use transform="translate(91.380954 0)scale(0.996264)" xlink:href="#CMR17-30"/>
      </g>
     </g>
    </g>
    <g id="xtick_47">
     <g id="line2d_145">
      <path clip-path="url(#p6d7209ca75)" d="M 505.080295 379.045189 
L 505.080295 294.156388 
" style="fill:none;stroke:#b0b0b0;stroke-linecap:square;stroke-width:0.8;"/>
     </g>
     <g id="line2d_146">
      <g>
       <use style="stroke:#000000;stroke-width:0.8;" x="505.080295" xlink:href="#m4fdd315cab" y="379.045189"/>
      </g>
     </g>
     <g id="text_58">
      <!-- $\mathdefault{800}$ -->
      <g transform="translate(496.300809 394.347369)scale(0.12 -0.12)">
       <use transform="scale(0.996264)" xlink:href="#CMR17-38"/>
       <use transform="translate(45.690477 0)scale(0.996264)" xlink:href="#CMR17-30"/>
       <use transform="translate(91.380954 0)scale(0.996264)" xlink:href="#CMR17-30"/>
      </g>
     </g>
    </g>
    <g id="xtick_48">
     <g id="line2d_147">
      <path clip-path="url(#p6d7209ca75)" d="M 544.740516 379.045189 
L 544.740516 294.156388 
" style="fill:none;stroke:#b0b0b0;stroke-linecap:square;stroke-width:0.8;"/>
     </g>
     <g id="line2d_148">
      <g>
       <use style="stroke:#000000;stroke-width:0.8;" x="544.740516" xlink:href="#m4fdd315cab" y="379.045189"/>
      </g>
     </g>
     <g id="text_59">
      <!-- $\mathdefault{1000}$ -->
      <g transform="translate(533.034535 394.347369)scale(0.12 -0.12)">
       <use transform="scale(0.996264)" xlink:href="#CMR17-31"/>
       <use transform="translate(45.690477 0)scale(0.996264)" xlink:href="#CMR17-30"/>
       <use transform="translate(91.380954 0)scale(0.996264)" xlink:href="#CMR17-30"/>
       <use transform="translate(137.071431 0)scale(0.996264)" xlink:href="#CMR17-30"/>
      </g>
     </g>
    </g>
    <g id="xtick_49">
     <g id="line2d_149">
      <path clip-path="url(#p6d7209ca75)" d="M 584.400737 379.045189 
L 584.400737 294.156388 
" style="fill:none;stroke:#b0b0b0;stroke-linecap:square;stroke-width:0.8;"/>
     </g>
     <g id="line2d_150">
      <g>
       <use style="stroke:#000000;stroke-width:0.8;" x="584.400737" xlink:href="#m4fdd315cab" y="379.045189"/>
      </g>
     </g>
     <g id="text_60">
      <!-- $\mathdefault{1200}$ -->
      <g transform="translate(572.694756 394.347369)scale(0.12 -0.12)">
       <use transform="scale(0.996264)" xlink:href="#CMR17-31"/>
       <use transform="translate(45.690477 0)scale(0.996264)" xlink:href="#CMR17-32"/>
       <use transform="translate(91.380954 0)scale(0.996264)" xlink:href="#CMR17-30"/>
       <use transform="translate(137.071431 0)scale(0.996264)" xlink:href="#CMR17-30"/>
      </g>
     </g>
    </g>
    <g id="xtick_50">
     <g id="line2d_151">
      <path clip-path="url(#p6d7209ca75)" d="M 624.060958 379.045189 
L 624.060958 294.156388 
" style="fill:none;stroke:#b0b0b0;stroke-linecap:square;stroke-width:0.8;"/>
     </g>
     <g id="line2d_152">
      <g>
       <use style="stroke:#000000;stroke-width:0.8;" x="624.060958" xlink:href="#m4fdd315cab" y="379.045189"/>
      </g>
     </g>
     <g id="text_61">
      <!-- $\mathdefault{1400}$ -->
      <g transform="translate(612.354978 394.347369)scale(0.12 -0.12)">
       <use transform="scale(0.996264)" xlink:href="#CMR17-31"/>
       <use transform="translate(45.690477 0)scale(0.996264)" xlink:href="#CMR17-34"/>
       <use transform="translate(91.380954 0)scale(0.996264)" xlink:href="#CMR17-30"/>
       <use transform="translate(137.071431 0)scale(0.996264)" xlink:href="#CMR17-30"/>
      </g>
     </g>
    </g>
    <g id="xtick_51">
     <g id="line2d_153">
      <path clip-path="url(#p6d7209ca75)" d="M 663.721179 379.045189 
L 663.721179 294.156388 
" style="fill:none;stroke:#b0b0b0;stroke-linecap:square;stroke-width:0.8;"/>
     </g>
     <g id="line2d_154">
      <g>
       <use style="stroke:#000000;stroke-width:0.8;" x="663.721179" xlink:href="#m4fdd315cab" y="379.045189"/>
      </g>
     </g>
     <g id="text_62">
      <!-- $\mathdefault{1600}$ -->
      <g transform="translate(652.015199 394.347369)scale(0.12 -0.12)">
       <use transform="scale(0.996264)" xlink:href="#CMR17-31"/>
       <use transform="translate(45.690477 0)scale(0.996264)" xlink:href="#CMR17-36"/>
       <use transform="translate(91.380954 0)scale(0.996264)" xlink:href="#CMR17-30"/>
       <use transform="translate(137.071431 0)scale(0.996264)" xlink:href="#CMR17-30"/>
      </g>
     </g>
    </g>
    <g id="text_63">
     <!-- $f$ -->
     <g transform="translate(343.073584 410.357841)scale(0.14 -0.14)">
      <defs>
       <path d="M 2854 2566 
C 2982 2566 3034 2566 3034 2687 
C 3034 2752 2982 2752 2867 2752 
L 2349 2752 
C 2470 3398 2560 3846 2611 4051 
C 2650 4204 2784 4351 2950 4351 
C 3085 4351 3219 4294 3283 4236 
C 3034 4211 2957 4025 2957 3916 
C 2957 3788 3053 3712 3174 3712 
C 3302 3712 3494 3820 3494 4064 
C 3494 4332 3226 4480 2944 4480 
C 2669 4480 2400 4275 2272 4025 
C 2157 3801 2093 3573 1946 2752 
L 1517 2752 
C 1395 2752 1331 2752 1331 2636 
C 1331 2566 1370 2566 1498 2566 
L 1907 2566 
C 1792 1977 1530 545 1382 -132 
C 1274 -685 1178 -1152 858 -1152 
C 838 -1152 653 -1152 538 -1031 
C 864 -1005 864 -724 864 -717 
C 864 -589 768 -512 646 -512 
C 518 -512 326 -621 326 -865 
C 326 -1140 608 -1280 858 -1280 
C 1510 -1280 1779 -113 1850 203 
C 1965 691 2278 2376 2310 2566 
L 2854 2566 
z
" id="CMMI12-66" transform="scale(0.015625)"/>
      </defs>
      <use transform="scale(0.996264)" xlink:href="#CMMI12-66"/>
     </g>
    </g>
   </g>
   <g id="matplotlib.axis_6">
    <g id="ytick_7">
     <g id="line2d_155">
      <path clip-path="url(#p6d7209ca75)" d="M 29.157642 375.186607 
L 663.721179 375.186607 
" style="fill:none;stroke:#b0b0b0;stroke-linecap:square;stroke-width:0.8;"/>
     </g>
     <g id="line2d_156">
      <g>
       <use style="stroke:#000000;stroke-width:0.8;" x="29.157642" xlink:href="#m7e9c7b1381" y="375.186607"/>
      </g>
     </g>
     <g id="text_64">
      <!-- $\mathdefault{0.0}$ -->
      <g transform="translate(7.2 379.337697)scale(0.12 -0.12)">
       <use transform="scale(0.996264)" xlink:href="#CMR17-30"/>
       <use transform="translate(45.690477 0)scale(0.996264)" xlink:href="#CMMI12-3a"/>
       <use transform="translate(72.787654 0)scale(0.996264)" xlink:href="#CMR17-30"/>
      </g>
     </g>
    </g>
    <g id="ytick_8">
     <g id="line2d_157">
      <path clip-path="url(#p6d7209ca75)" d="M 29.157642 344.317952 
L 663.721179 344.317952 
" style="fill:none;stroke:#b0b0b0;stroke-linecap:square;stroke-width:0.8;"/>
     </g>
     <g id="line2d_158">
      <g>
       <use style="stroke:#000000;stroke-width:0.8;" x="29.157642" xlink:href="#m7e9c7b1381" y="344.317952"/>
      </g>
     </g>
     <g id="text_65">
      <!-- $\mathdefault{0.2}$ -->
      <g transform="translate(7.2 348.469042)scale(0.12 -0.12)">
       <use transform="scale(0.996264)" xlink:href="#CMR17-30"/>
       <use transform="translate(45.690477 0)scale(0.996264)" xlink:href="#CMMI12-3a"/>
       <use transform="translate(72.787654 0)scale(0.996264)" xlink:href="#CMR17-32"/>
      </g>
     </g>
    </g>
    <g id="ytick_9">
     <g id="line2d_159">
      <path clip-path="url(#p6d7209ca75)" d="M 29.157642 313.449297 
L 663.721179 313.449297 
" style="fill:none;stroke:#b0b0b0;stroke-linecap:square;stroke-width:0.8;"/>
     </g>
     <g id="line2d_160">
      <g>
       <use style="stroke:#000000;stroke-width:0.8;" x="29.157642" xlink:href="#m7e9c7b1381" y="313.449297"/>
      </g>
     </g>
     <g id="text_66">
      <!-- $\mathdefault{0.4}$ -->
      <g transform="translate(7.2 317.600387)scale(0.12 -0.12)">
       <use transform="scale(0.996264)" xlink:href="#CMR17-30"/>
       <use transform="translate(45.690477 0)scale(0.996264)" xlink:href="#CMMI12-3a"/>
       <use transform="translate(72.787654 0)scale(0.996264)" xlink:href="#CMR17-34"/>
      </g>
     </g>
    </g>
   </g>
   <g id="line2d_161">
    <path clip-path="url(#p6d7209ca75)" d="M 29.157642 375.186607 
L 663.721179 375.186607 
" style="fill:none;stroke:#1f77b4;stroke-linecap:square;stroke-width:1.5;"/>
   </g>
   <g id="line2d_162">
    <path clip-path="url(#p6d7209ca75)" d="M 286.949079 305.732134 
L 290.915101 298.01497 
L 290.915101 375.186607 
L 290.915101 298.01497 
L 294.881123 305.732134 
" style="fill:none;stroke:#1f77b4;stroke-linecap:square;stroke-width:1.5;"/>
   </g>
   <g id="line2d_163">
    <path clip-path="url(#p6d7209ca75)" d="M 397.997698 305.732134 
L 401.96372 298.01497 
L 401.96372 375.186607 
L 401.96372 298.01497 
L 405.929742 305.732134 
" style="fill:none;stroke:#1f77b4;stroke-linecap:square;stroke-width:1.5;"/>
   </g>
   <g id="line2d_164">
    <path clip-path="url(#p6d7209ca75)" d="M 397.997698 305.732134 
L 401.96372 298.01497 
L 401.96372 375.186607 
L 401.96372 298.01497 
L 405.929742 305.732134 
" style="fill:none;stroke:#1f77b4;stroke-linecap:square;stroke-width:1.5;"/>
   </g>
   <g id="line2d_165">
    <path clip-path="url(#p6d7209ca75)" d="M 286.949079 305.732134 
L 290.915101 298.01497 
L 290.915101 375.186607 
L 290.915101 298.01497 
L 294.881123 305.732134 
" style="fill:none;stroke:#1f77b4;stroke-linecap:square;stroke-width:1.5;"/>
   </g>
   <g id="patch_16">
    <path d="M 29.157642 379.045189 
L 29.157642 294.156388 
" style="fill:none;stroke:#000000;stroke-linecap:square;stroke-linejoin:miter;stroke-width:0.8;"/>
   </g>
   <g id="patch_17">
    <path d="M 663.721179 379.045189 
L 663.721179 294.156388 
" style="fill:none;stroke:#000000;stroke-linecap:square;stroke-linejoin:miter;stroke-width:0.8;"/>
   </g>
   <g id="patch_18">
    <path d="M 29.157642 379.045189 
L 663.721179 379.045189 
" style="fill:none;stroke:#000000;stroke-linecap:square;stroke-linejoin:miter;stroke-width:0.8;"/>
   </g>
   <g id="patch_19">
    <path d="M 29.157642 294.156388 
L 663.721179 294.156388 
" style="fill:none;stroke:#000000;stroke-linecap:square;stroke-linejoin:miter;stroke-width:0.8;"/>
   </g>
   <g id="patch_20">
    <path d="M 375.605181 350.401666 
Q 388.055665 362.10886 399.691641 373.050171 
" style="fill:none;stroke:#000000;stroke-linecap:round;"/>
    <path d="M 397.530011 367.174173 
L 399.691641 373.050171 
L 393.693864 371.253876 
" style="fill:none;stroke:#000000;stroke-linecap:round;"/>
   </g>
   <g id="text_67">
    <!-- 280 Hz -->
    <g transform="translate(344.754173 344.317952)scale(0.14 -0.14)">
     <use transform="scale(0.996264)" xlink:href="#CMR17-32"/>
     <use transform="translate(45.690477 0)scale(0.996264)" xlink:href="#CMR17-38"/>
     <use transform="translate(91.380954 0)scale(0.996264)" xlink:href="#CMR17-30"/>
     <use transform="translate(167.147398 0)scale(0.996264)" xlink:href="#CMR17-48"/>
     <use transform="translate(236.219828 0)scale(0.996264)" xlink:href="#CMR17-7a"/>
    </g>
   </g>
   <g id="text_68">
    <!-- Signal reconstruit -->
    <g transform="translate(283.116561 288.156388)scale(0.168 -0.168)">
     <defs>
      <path d="M 960 1517 
C 960 2134 1222 2713 1702 2713 
C 1747 2713 1792 2707 1837 2687 
C 1837 2687 1696 2642 1696 2475 
C 1696 2321 1818 2257 1914 2257 
C 1990 2257 2131 2302 2131 2482 
C 2131 2687 1926 2816 1709 2816 
C 1222 2816 1011 2340 947 2115 
L 941 2115 
L 941 2816 
L 198 2745 
L 198 2578 
C 576 2578 634 2540 634 2231 
L 634 443 
C 634 198 608 166 198 166 
L 198 0 
C 352 12 646 12 813 12 
C 998 12 1325 12 1498 0 
L 1498 166 
C 1037 166 960 166 960 455 
L 960 1517 
z
" id="CMR17-72" transform="scale(0.015625)"/>
     </defs>
     <use transform="scale(0.996264)" xlink:href="#CMR17-53"/>
     <use transform="translate(50.89537 0)scale(0.996264)" xlink:href="#CMR17-69"/>
     <use transform="translate(75.766428 0)scale(0.996264)" xlink:href="#CMR17-67"/>
     <use transform="translate(121.456905 0)scale(0.996264)" xlink:href="#CMR17-6e"/>
     <use transform="translate(172.352275 0)scale(0.996264)" xlink:href="#CMR17-61"/>
     <use transform="translate(218.042752 0)scale(0.996264)" xlink:href="#CMR17-6c"/>
     <use transform="translate(272.989777 0)scale(0.996264)" xlink:href="#CMR17-72"/>
     <use transform="translate(308.270545 0)scale(0.996264)" xlink:href="#CMR17-65"/>
     <use transform="translate(348.756205 0)scale(0.996264)" xlink:href="#CMR17-63"/>
     <use transform="translate(389.241866 0)scale(0.996264)" xlink:href="#CMR17-6f"/>
     <use transform="translate(434.932343 0)scale(0.996264)" xlink:href="#CMR17-6e"/>
     <use transform="translate(485.827713 0)scale(0.996264)" xlink:href="#CMR17-73"/>
     <use transform="translate(521.62905 0)scale(0.996264)" xlink:href="#CMR17-74"/>
     <use transform="translate(556.909818 0)scale(0.996264)" xlink:href="#CMR17-72"/>
     <use transform="translate(592.190586 0)scale(0.996264)" xlink:href="#CMR17-75"/>
     <use transform="translate(643.085956 0)scale(0.996264)" xlink:href="#CMR17-69"/>
     <use transform="translate(667.957014 0)scale(0.996264)" xlink:href="#CMR17-74"/>
    </g>
   </g>
  </g>
 </g>
 <defs>
  <clipPath id="p525f6f2fba">
   <rect height="84.888801" width="634.563537" x="29.157642" y="24.823055"/>
  </clipPath>
  <clipPath id="p120e4a8d43">
   <rect height="84.888801" width="634.563537" x="29.157642" y="159.489721"/>
  </clipPath>
  <clipPath id="p6d7209ca75">
   <rect height="84.888801" width="634.563537" x="29.157642" y="294.156388"/>
  </clipPath>
 </defs>
</svg>
